<?xml version="1.0" encoding="utf-8" standalone="no"?>
<!DOCTYPE svg PUBLIC "-//W3C//DTD SVG 1.1//EN"
  "http://www.w3.org/Graphics/SVG/1.1/DTD/svg11.dtd">
<!-- Created with matplotlib (https://matplotlib.org/) -->
<svg height="432pt" version="1.1" viewBox="0 0 576 432" width="576pt" xmlns="http://www.w3.org/2000/svg" xmlns:xlink="http://www.w3.org/1999/xlink">
 <defs>
  <style type="text/css">
*{stroke-linecap:butt;stroke-linejoin:round;white-space:pre;}
  </style>
 </defs>
 <g id="figure_1">
  <g id="patch_1">
   <path d="M 0 432 
L 576 432 
L 576 0 
L 0 0 
z
" style="fill:#ffffff;"/>
  </g>
  <g id="axes_1">
   <g id="patch_2">
    <path d="M 72 378 
L 518.4 378 
L 518.4 51.84 
L 72 51.84 
z
" style="fill:#ffffff;"/>
   </g>
   <g id="matplotlib.axis_1">
    <g id="xtick_1">
     <g id="line2d_1">
      <path clip-path="url(#p992d4b4dcf)" d="M 92.290909 378 
L 92.290909 51.84 
" style="fill:none;stroke:#b0b0b0;stroke-linecap:square;stroke-width:0.8;"/>
     </g>
     <g id="line2d_2">
      <defs>
       <path d="M 0 0 
L 0 3.5 
" id="mf41b7f4e12" style="stroke:#000000;stroke-width:0.8;"/>
      </defs>
      <g>
       <use style="stroke:#000000;stroke-width:0.8;" x="92.290909" xlink:href="#mf41b7f4e12" y="378"/>
      </g>
     </g>
     <g id="text_1">
      <!-- 0 -->
      <defs>
       <path d="M 31.78125 66.40625 
Q 24.171875 66.40625 20.328125 58.90625 
Q 16.5 51.421875 16.5 36.375 
Q 16.5 21.390625 20.328125 13.890625 
Q 24.171875 6.390625 31.78125 6.390625 
Q 39.453125 6.390625 43.28125 13.890625 
Q 47.125 21.390625 47.125 36.375 
Q 47.125 51.421875 43.28125 58.90625 
Q 39.453125 66.40625 31.78125 66.40625 
z
M 31.78125 74.21875 
Q 44.046875 74.21875 50.515625 64.515625 
Q 56.984375 54.828125 56.984375 36.375 
Q 56.984375 17.96875 50.515625 8.265625 
Q 44.046875 -1.421875 31.78125 -1.421875 
Q 19.53125 -1.421875 13.0625 8.265625 
Q 6.59375 17.96875 6.59375 36.375 
Q 6.59375 54.828125 13.0625 64.515625 
Q 19.53125 74.21875 31.78125 74.21875 
z
" id="DejaVuSans-48"/>
      </defs>
      <g transform="translate(89.109659 392.598437)scale(0.1 -0.1)">
       <use xlink:href="#DejaVuSans-48"/>
      </g>
     </g>
    </g>
    <g id="xtick_2">
     <g id="line2d_3">
      <path clip-path="url(#p992d4b4dcf)" d="M 148.035165 378 
L 148.035165 51.84 
" style="fill:none;stroke:#b0b0b0;stroke-linecap:square;stroke-width:0.8;"/>
     </g>
     <g id="line2d_4">
      <g>
       <use style="stroke:#000000;stroke-width:0.8;" x="148.035165" xlink:href="#mf41b7f4e12" y="378"/>
      </g>
     </g>
     <g id="text_2">
      <!-- 50 -->
      <defs>
       <path d="M 10.796875 72.90625 
L 49.515625 72.90625 
L 49.515625 64.59375 
L 19.828125 64.59375 
L 19.828125 46.734375 
Q 21.96875 47.46875 24.109375 47.828125 
Q 26.265625 48.1875 28.421875 48.1875 
Q 40.625 48.1875 47.75 41.5 
Q 54.890625 34.8125 54.890625 23.390625 
Q 54.890625 11.625 47.5625 5.09375 
Q 40.234375 -1.421875 26.90625 -1.421875 
Q 22.3125 -1.421875 17.546875 -0.640625 
Q 12.796875 0.140625 7.71875 1.703125 
L 7.71875 11.625 
Q 12.109375 9.234375 16.796875 8.0625 
Q 21.484375 6.890625 26.703125 6.890625 
Q 35.15625 6.890625 40.078125 11.328125 
Q 45.015625 15.765625 45.015625 23.390625 
Q 45.015625 31 40.078125 35.4375 
Q 35.15625 39.890625 26.703125 39.890625 
Q 22.75 39.890625 18.8125 39.015625 
Q 14.890625 38.140625 10.796875 36.28125 
z
" id="DejaVuSans-53"/>
      </defs>
      <g transform="translate(141.672665 392.598437)scale(0.1 -0.1)">
       <use xlink:href="#DejaVuSans-53"/>
       <use x="63.623047" xlink:href="#DejaVuSans-48"/>
      </g>
     </g>
    </g>
    <g id="xtick_3">
     <g id="line2d_5">
      <path clip-path="url(#p992d4b4dcf)" d="M 203.779421 378 
L 203.779421 51.84 
" style="fill:none;stroke:#b0b0b0;stroke-linecap:square;stroke-width:0.8;"/>
     </g>
     <g id="line2d_6">
      <g>
       <use style="stroke:#000000;stroke-width:0.8;" x="203.779421" xlink:href="#mf41b7f4e12" y="378"/>
      </g>
     </g>
     <g id="text_3">
      <!-- 100 -->
      <defs>
       <path d="M 12.40625 8.296875 
L 28.515625 8.296875 
L 28.515625 63.921875 
L 10.984375 60.40625 
L 10.984375 69.390625 
L 28.421875 72.90625 
L 38.28125 72.90625 
L 38.28125 8.296875 
L 54.390625 8.296875 
L 54.390625 0 
L 12.40625 0 
z
" id="DejaVuSans-49"/>
      </defs>
      <g transform="translate(194.235671 392.598437)scale(0.1 -0.1)">
       <use xlink:href="#DejaVuSans-49"/>
       <use x="63.623047" xlink:href="#DejaVuSans-48"/>
       <use x="127.246094" xlink:href="#DejaVuSans-48"/>
      </g>
     </g>
    </g>
    <g id="xtick_4">
     <g id="line2d_7">
      <path clip-path="url(#p992d4b4dcf)" d="M 259.523676 378 
L 259.523676 51.84 
" style="fill:none;stroke:#b0b0b0;stroke-linecap:square;stroke-width:0.8;"/>
     </g>
     <g id="line2d_8">
      <g>
       <use style="stroke:#000000;stroke-width:0.8;" x="259.523676" xlink:href="#mf41b7f4e12" y="378"/>
      </g>
     </g>
     <g id="text_4">
      <!-- 150 -->
      <g transform="translate(249.979926 392.598437)scale(0.1 -0.1)">
       <use xlink:href="#DejaVuSans-49"/>
       <use x="63.623047" xlink:href="#DejaVuSans-53"/>
       <use x="127.246094" xlink:href="#DejaVuSans-48"/>
      </g>
     </g>
    </g>
    <g id="xtick_5">
     <g id="line2d_9">
      <path clip-path="url(#p992d4b4dcf)" d="M 315.267932 378 
L 315.267932 51.84 
" style="fill:none;stroke:#b0b0b0;stroke-linecap:square;stroke-width:0.8;"/>
     </g>
     <g id="line2d_10">
      <g>
       <use style="stroke:#000000;stroke-width:0.8;" x="315.267932" xlink:href="#mf41b7f4e12" y="378"/>
      </g>
     </g>
     <g id="text_5">
      <!-- 200 -->
      <defs>
       <path d="M 19.1875 8.296875 
L 53.609375 8.296875 
L 53.609375 0 
L 7.328125 0 
L 7.328125 8.296875 
Q 12.9375 14.109375 22.625 23.890625 
Q 32.328125 33.6875 34.8125 36.53125 
Q 39.546875 41.84375 41.421875 45.53125 
Q 43.3125 49.21875 43.3125 52.78125 
Q 43.3125 58.59375 39.234375 62.25 
Q 35.15625 65.921875 28.609375 65.921875 
Q 23.96875 65.921875 18.8125 64.3125 
Q 13.671875 62.703125 7.8125 59.421875 
L 7.8125 69.390625 
Q 13.765625 71.78125 18.9375 73 
Q 24.125 74.21875 28.421875 74.21875 
Q 39.75 74.21875 46.484375 68.546875 
Q 53.21875 62.890625 53.21875 53.421875 
Q 53.21875 48.921875 51.53125 44.890625 
Q 49.859375 40.875 45.40625 35.40625 
Q 44.1875 33.984375 37.640625 27.21875 
Q 31.109375 20.453125 19.1875 8.296875 
z
" id="DejaVuSans-50"/>
      </defs>
      <g transform="translate(305.724182 392.598437)scale(0.1 -0.1)">
       <use xlink:href="#DejaVuSans-50"/>
       <use x="63.623047" xlink:href="#DejaVuSans-48"/>
       <use x="127.246094" xlink:href="#DejaVuSans-48"/>
      </g>
     </g>
    </g>
    <g id="xtick_6">
     <g id="line2d_11">
      <path clip-path="url(#p992d4b4dcf)" d="M 371.012188 378 
L 371.012188 51.84 
" style="fill:none;stroke:#b0b0b0;stroke-linecap:square;stroke-width:0.8;"/>
     </g>
     <g id="line2d_12">
      <g>
       <use style="stroke:#000000;stroke-width:0.8;" x="371.012188" xlink:href="#mf41b7f4e12" y="378"/>
      </g>
     </g>
     <g id="text_6">
      <!-- 250 -->
      <g transform="translate(361.468438 392.598437)scale(0.1 -0.1)">
       <use xlink:href="#DejaVuSans-50"/>
       <use x="63.623047" xlink:href="#DejaVuSans-53"/>
       <use x="127.246094" xlink:href="#DejaVuSans-48"/>
      </g>
     </g>
    </g>
    <g id="xtick_7">
     <g id="line2d_13">
      <path clip-path="url(#p992d4b4dcf)" d="M 426.756444 378 
L 426.756444 51.84 
" style="fill:none;stroke:#b0b0b0;stroke-linecap:square;stroke-width:0.8;"/>
     </g>
     <g id="line2d_14">
      <g>
       <use style="stroke:#000000;stroke-width:0.8;" x="426.756444" xlink:href="#mf41b7f4e12" y="378"/>
      </g>
     </g>
     <g id="text_7">
      <!-- 300 -->
      <defs>
       <path d="M 40.578125 39.3125 
Q 47.65625 37.796875 51.625 33 
Q 55.609375 28.21875 55.609375 21.1875 
Q 55.609375 10.40625 48.1875 4.484375 
Q 40.765625 -1.421875 27.09375 -1.421875 
Q 22.515625 -1.421875 17.65625 -0.515625 
Q 12.796875 0.390625 7.625 2.203125 
L 7.625 11.71875 
Q 11.71875 9.328125 16.59375 8.109375 
Q 21.484375 6.890625 26.8125 6.890625 
Q 36.078125 6.890625 40.9375 10.546875 
Q 45.796875 14.203125 45.796875 21.1875 
Q 45.796875 27.640625 41.28125 31.265625 
Q 36.765625 34.90625 28.71875 34.90625 
L 20.21875 34.90625 
L 20.21875 43.015625 
L 29.109375 43.015625 
Q 36.375 43.015625 40.234375 45.921875 
Q 44.09375 48.828125 44.09375 54.296875 
Q 44.09375 59.90625 40.109375 62.90625 
Q 36.140625 65.921875 28.71875 65.921875 
Q 24.65625 65.921875 20.015625 65.03125 
Q 15.375 64.15625 9.8125 62.3125 
L 9.8125 71.09375 
Q 15.4375 72.65625 20.34375 73.4375 
Q 25.25 74.21875 29.59375 74.21875 
Q 40.828125 74.21875 47.359375 69.109375 
Q 53.90625 64.015625 53.90625 55.328125 
Q 53.90625 49.265625 50.4375 45.09375 
Q 46.96875 40.921875 40.578125 39.3125 
z
" id="DejaVuSans-51"/>
      </defs>
      <g transform="translate(417.212694 392.598437)scale(0.1 -0.1)">
       <use xlink:href="#DejaVuSans-51"/>
       <use x="63.623047" xlink:href="#DejaVuSans-48"/>
       <use x="127.246094" xlink:href="#DejaVuSans-48"/>
      </g>
     </g>
    </g>
    <g id="xtick_8">
     <g id="line2d_15">
      <path clip-path="url(#p992d4b4dcf)" d="M 482.500699 378 
L 482.500699 51.84 
" style="fill:none;stroke:#b0b0b0;stroke-linecap:square;stroke-width:0.8;"/>
     </g>
     <g id="line2d_16">
      <g>
       <use style="stroke:#000000;stroke-width:0.8;" x="482.500699" xlink:href="#mf41b7f4e12" y="378"/>
      </g>
     </g>
     <g id="text_8">
      <!-- 350 -->
      <g transform="translate(472.956949 392.598437)scale(0.1 -0.1)">
       <use xlink:href="#DejaVuSans-51"/>
       <use x="63.623047" xlink:href="#DejaVuSans-53"/>
       <use x="127.246094" xlink:href="#DejaVuSans-48"/>
      </g>
     </g>
    </g>
    <g id="text_9">
     <!-- Day -->
     <defs>
      <path d="M 19.671875 64.796875 
L 19.671875 8.109375 
L 31.59375 8.109375 
Q 46.6875 8.109375 53.6875 14.9375 
Q 60.6875 21.78125 60.6875 36.53125 
Q 60.6875 51.171875 53.6875 57.984375 
Q 46.6875 64.796875 31.59375 64.796875 
z
M 9.8125 72.90625 
L 30.078125 72.90625 
Q 51.265625 72.90625 61.171875 64.09375 
Q 71.09375 55.28125 71.09375 36.53125 
Q 71.09375 17.671875 61.125 8.828125 
Q 51.171875 0 30.078125 0 
L 9.8125 0 
z
" id="DejaVuSans-68"/>
      <path d="M 34.28125 27.484375 
Q 23.390625 27.484375 19.1875 25 
Q 14.984375 22.515625 14.984375 16.5 
Q 14.984375 11.71875 18.140625 8.90625 
Q 21.296875 6.109375 26.703125 6.109375 
Q 34.1875 6.109375 38.703125 11.40625 
Q 43.21875 16.703125 43.21875 25.484375 
L 43.21875 27.484375 
z
M 52.203125 31.203125 
L 52.203125 0 
L 43.21875 0 
L 43.21875 8.296875 
Q 40.140625 3.328125 35.546875 0.953125 
Q 30.953125 -1.421875 24.3125 -1.421875 
Q 15.921875 -1.421875 10.953125 3.296875 
Q 6 8.015625 6 15.921875 
Q 6 25.140625 12.171875 29.828125 
Q 18.359375 34.515625 30.609375 34.515625 
L 43.21875 34.515625 
L 43.21875 35.40625 
Q 43.21875 41.609375 39.140625 45 
Q 35.0625 48.390625 27.6875 48.390625 
Q 23 48.390625 18.546875 47.265625 
Q 14.109375 46.140625 10.015625 43.890625 
L 10.015625 52.203125 
Q 14.9375 54.109375 19.578125 55.046875 
Q 24.21875 56 28.609375 56 
Q 40.484375 56 46.34375 49.84375 
Q 52.203125 43.703125 52.203125 31.203125 
z
" id="DejaVuSans-97"/>
      <path d="M 32.171875 -5.078125 
Q 28.375 -14.84375 24.75 -17.8125 
Q 21.140625 -20.796875 15.09375 -20.796875 
L 7.90625 -20.796875 
L 7.90625 -13.28125 
L 13.1875 -13.28125 
Q 16.890625 -13.28125 18.9375 -11.515625 
Q 21 -9.765625 23.484375 -3.21875 
L 25.09375 0.875 
L 2.984375 54.6875 
L 12.5 54.6875 
L 29.59375 11.921875 
L 46.6875 54.6875 
L 56.203125 54.6875 
z
" id="DejaVuSans-121"/>
     </defs>
     <g transform="translate(285.326562 406.276563)scale(0.1 -0.1)">
      <use xlink:href="#DejaVuSans-68"/>
      <use x="77.001953" xlink:href="#DejaVuSans-97"/>
      <use x="138.28125" xlink:href="#DejaVuSans-121"/>
     </g>
    </g>
   </g>
   <g id="matplotlib.axis_2">
    <g id="ytick_1">
     <g id="line2d_17">
      <path clip-path="url(#p992d4b4dcf)" d="M 72 369.807276 
L 518.4 369.807276 
" style="fill:none;stroke:#b0b0b0;stroke-linecap:square;stroke-width:0.8;"/>
     </g>
     <g id="line2d_18">
      <defs>
       <path d="M 0 0 
L -3.5 0 
" id="ma4c96a32b3" style="stroke:#000000;stroke-width:0.8;"/>
      </defs>
      <g>
       <use style="stroke:#000000;stroke-width:0.8;" x="72" xlink:href="#ma4c96a32b3" y="369.807276"/>
      </g>
     </g>
     <g id="text_10">
      <!-- 0 -->
      <g transform="translate(58.6375 373.606495)scale(0.1 -0.1)">
       <use xlink:href="#DejaVuSans-48"/>
      </g>
     </g>
    </g>
    <g id="ytick_2">
     <g id="line2d_19">
      <path clip-path="url(#p992d4b4dcf)" d="M 72 332.373691 
L 518.4 332.373691 
" style="fill:none;stroke:#b0b0b0;stroke-linecap:square;stroke-width:0.8;"/>
     </g>
     <g id="line2d_20">
      <g>
       <use style="stroke:#000000;stroke-width:0.8;" x="72" xlink:href="#ma4c96a32b3" y="332.373691"/>
      </g>
     </g>
     <g id="text_11">
      <!-- 20 -->
      <g transform="translate(52.275 336.172909)scale(0.1 -0.1)">
       <use xlink:href="#DejaVuSans-50"/>
       <use x="63.623047" xlink:href="#DejaVuSans-48"/>
      </g>
     </g>
    </g>
    <g id="ytick_3">
     <g id="line2d_21">
      <path clip-path="url(#p992d4b4dcf)" d="M 72 294.940105 
L 518.4 294.940105 
" style="fill:none;stroke:#b0b0b0;stroke-linecap:square;stroke-width:0.8;"/>
     </g>
     <g id="line2d_22">
      <g>
       <use style="stroke:#000000;stroke-width:0.8;" x="72" xlink:href="#ma4c96a32b3" y="294.940105"/>
      </g>
     </g>
     <g id="text_12">
      <!-- 40 -->
      <defs>
       <path d="M 37.796875 64.3125 
L 12.890625 25.390625 
L 37.796875 25.390625 
z
M 35.203125 72.90625 
L 47.609375 72.90625 
L 47.609375 25.390625 
L 58.015625 25.390625 
L 58.015625 17.1875 
L 47.609375 17.1875 
L 47.609375 0 
L 37.796875 0 
L 37.796875 17.1875 
L 4.890625 17.1875 
L 4.890625 26.703125 
z
" id="DejaVuSans-52"/>
      </defs>
      <g transform="translate(52.275 298.739324)scale(0.1 -0.1)">
       <use xlink:href="#DejaVuSans-52"/>
       <use x="63.623047" xlink:href="#DejaVuSans-48"/>
      </g>
     </g>
    </g>
    <g id="ytick_4">
     <g id="line2d_23">
      <path clip-path="url(#p992d4b4dcf)" d="M 72 257.50652 
L 518.4 257.50652 
" style="fill:none;stroke:#b0b0b0;stroke-linecap:square;stroke-width:0.8;"/>
     </g>
     <g id="line2d_24">
      <g>
       <use style="stroke:#000000;stroke-width:0.8;" x="72" xlink:href="#ma4c96a32b3" y="257.50652"/>
      </g>
     </g>
     <g id="text_13">
      <!-- 60 -->
      <defs>
       <path d="M 33.015625 40.375 
Q 26.375 40.375 22.484375 35.828125 
Q 18.609375 31.296875 18.609375 23.390625 
Q 18.609375 15.53125 22.484375 10.953125 
Q 26.375 6.390625 33.015625 6.390625 
Q 39.65625 6.390625 43.53125 10.953125 
Q 47.40625 15.53125 47.40625 23.390625 
Q 47.40625 31.296875 43.53125 35.828125 
Q 39.65625 40.375 33.015625 40.375 
z
M 52.59375 71.296875 
L 52.59375 62.3125 
Q 48.875 64.0625 45.09375 64.984375 
Q 41.3125 65.921875 37.59375 65.921875 
Q 27.828125 65.921875 22.671875 59.328125 
Q 17.53125 52.734375 16.796875 39.40625 
Q 19.671875 43.65625 24.015625 45.921875 
Q 28.375 48.1875 33.59375 48.1875 
Q 44.578125 48.1875 50.953125 41.515625 
Q 57.328125 34.859375 57.328125 23.390625 
Q 57.328125 12.15625 50.6875 5.359375 
Q 44.046875 -1.421875 33.015625 -1.421875 
Q 20.359375 -1.421875 13.671875 8.265625 
Q 6.984375 17.96875 6.984375 36.375 
Q 6.984375 53.65625 15.1875 63.9375 
Q 23.390625 74.21875 37.203125 74.21875 
Q 40.921875 74.21875 44.703125 73.484375 
Q 48.484375 72.75 52.59375 71.296875 
z
" id="DejaVuSans-54"/>
      </defs>
      <g transform="translate(52.275 261.305738)scale(0.1 -0.1)">
       <use xlink:href="#DejaVuSans-54"/>
       <use x="63.623047" xlink:href="#DejaVuSans-48"/>
      </g>
     </g>
    </g>
    <g id="ytick_5">
     <g id="line2d_25">
      <path clip-path="url(#p992d4b4dcf)" d="M 72 220.072934 
L 518.4 220.072934 
" style="fill:none;stroke:#b0b0b0;stroke-linecap:square;stroke-width:0.8;"/>
     </g>
     <g id="line2d_26">
      <g>
       <use style="stroke:#000000;stroke-width:0.8;" x="72" xlink:href="#ma4c96a32b3" y="220.072934"/>
      </g>
     </g>
     <g id="text_14">
      <!-- 80 -->
      <defs>
       <path d="M 31.78125 34.625 
Q 24.75 34.625 20.71875 30.859375 
Q 16.703125 27.09375 16.703125 20.515625 
Q 16.703125 13.921875 20.71875 10.15625 
Q 24.75 6.390625 31.78125 6.390625 
Q 38.8125 6.390625 42.859375 10.171875 
Q 46.921875 13.96875 46.921875 20.515625 
Q 46.921875 27.09375 42.890625 30.859375 
Q 38.875 34.625 31.78125 34.625 
z
M 21.921875 38.8125 
Q 15.578125 40.375 12.03125 44.71875 
Q 8.5 49.078125 8.5 55.328125 
Q 8.5 64.0625 14.71875 69.140625 
Q 20.953125 74.21875 31.78125 74.21875 
Q 42.671875 74.21875 48.875 69.140625 
Q 55.078125 64.0625 55.078125 55.328125 
Q 55.078125 49.078125 51.53125 44.71875 
Q 48 40.375 41.703125 38.8125 
Q 48.828125 37.15625 52.796875 32.3125 
Q 56.78125 27.484375 56.78125 20.515625 
Q 56.78125 9.90625 50.3125 4.234375 
Q 43.84375 -1.421875 31.78125 -1.421875 
Q 19.734375 -1.421875 13.25 4.234375 
Q 6.78125 9.90625 6.78125 20.515625 
Q 6.78125 27.484375 10.78125 32.3125 
Q 14.796875 37.15625 21.921875 38.8125 
z
M 18.3125 54.390625 
Q 18.3125 48.734375 21.84375 45.5625 
Q 25.390625 42.390625 31.78125 42.390625 
Q 38.140625 42.390625 41.71875 45.5625 
Q 45.3125 48.734375 45.3125 54.390625 
Q 45.3125 60.0625 41.71875 63.234375 
Q 38.140625 66.40625 31.78125 66.40625 
Q 25.390625 66.40625 21.84375 63.234375 
Q 18.3125 60.0625 18.3125 54.390625 
z
" id="DejaVuSans-56"/>
      </defs>
      <g transform="translate(52.275 223.872153)scale(0.1 -0.1)">
       <use xlink:href="#DejaVuSans-56"/>
       <use x="63.623047" xlink:href="#DejaVuSans-48"/>
      </g>
     </g>
    </g>
    <g id="ytick_6">
     <g id="line2d_27">
      <path clip-path="url(#p992d4b4dcf)" d="M 72 182.639349 
L 518.4 182.639349 
" style="fill:none;stroke:#b0b0b0;stroke-linecap:square;stroke-width:0.8;"/>
     </g>
     <g id="line2d_28">
      <g>
       <use style="stroke:#000000;stroke-width:0.8;" x="72" xlink:href="#ma4c96a32b3" y="182.639349"/>
      </g>
     </g>
     <g id="text_15">
      <!-- 100 -->
      <g transform="translate(45.9125 186.438568)scale(0.1 -0.1)">
       <use xlink:href="#DejaVuSans-49"/>
       <use x="63.623047" xlink:href="#DejaVuSans-48"/>
       <use x="127.246094" xlink:href="#DejaVuSans-48"/>
      </g>
     </g>
    </g>
    <g id="ytick_7">
     <g id="line2d_29">
      <path clip-path="url(#p992d4b4dcf)" d="M 72 145.205763 
L 518.4 145.205763 
" style="fill:none;stroke:#b0b0b0;stroke-linecap:square;stroke-width:0.8;"/>
     </g>
     <g id="line2d_30">
      <g>
       <use style="stroke:#000000;stroke-width:0.8;" x="72" xlink:href="#ma4c96a32b3" y="145.205763"/>
      </g>
     </g>
     <g id="text_16">
      <!-- 120 -->
      <g transform="translate(45.9125 149.004982)scale(0.1 -0.1)">
       <use xlink:href="#DejaVuSans-49"/>
       <use x="63.623047" xlink:href="#DejaVuSans-50"/>
       <use x="127.246094" xlink:href="#DejaVuSans-48"/>
      </g>
     </g>
    </g>
    <g id="ytick_8">
     <g id="line2d_31">
      <path clip-path="url(#p992d4b4dcf)" d="M 72 107.772178 
L 518.4 107.772178 
" style="fill:none;stroke:#b0b0b0;stroke-linecap:square;stroke-width:0.8;"/>
     </g>
     <g id="line2d_32">
      <g>
       <use style="stroke:#000000;stroke-width:0.8;" x="72" xlink:href="#ma4c96a32b3" y="107.772178"/>
      </g>
     </g>
     <g id="text_17">
      <!-- 140 -->
      <g transform="translate(45.9125 111.571397)scale(0.1 -0.1)">
       <use xlink:href="#DejaVuSans-49"/>
       <use x="63.623047" xlink:href="#DejaVuSans-52"/>
       <use x="127.246094" xlink:href="#DejaVuSans-48"/>
      </g>
     </g>
    </g>
    <g id="ytick_9">
     <g id="line2d_33">
      <path clip-path="url(#p992d4b4dcf)" d="M 72 70.338592 
L 518.4 70.338592 
" style="fill:none;stroke:#b0b0b0;stroke-linecap:square;stroke-width:0.8;"/>
     </g>
     <g id="line2d_34">
      <g>
       <use style="stroke:#000000;stroke-width:0.8;" x="72" xlink:href="#ma4c96a32b3" y="70.338592"/>
      </g>
     </g>
     <g id="text_18">
      <!-- 160 -->
      <g transform="translate(45.9125 74.137811)scale(0.1 -0.1)">
       <use xlink:href="#DejaVuSans-49"/>
       <use x="63.623047" xlink:href="#DejaVuSans-54"/>
       <use x="127.246094" xlink:href="#DejaVuSans-48"/>
      </g>
     </g>
    </g>
    <g id="text_19">
     <!-- max 8h $O_3$ $[\mu g/m^3$] -->
     <defs>
      <path d="M 52 44.1875 
Q 55.375 50.25 60.0625 53.125 
Q 64.75 56 71.09375 56 
Q 79.640625 56 84.28125 50.015625 
Q 88.921875 44.046875 88.921875 33.015625 
L 88.921875 0 
L 79.890625 0 
L 79.890625 32.71875 
Q 79.890625 40.578125 77.09375 44.375 
Q 74.3125 48.1875 68.609375 48.1875 
Q 61.625 48.1875 57.5625 43.546875 
Q 53.515625 38.921875 53.515625 30.90625 
L 53.515625 0 
L 44.484375 0 
L 44.484375 32.71875 
Q 44.484375 40.625 41.703125 44.40625 
Q 38.921875 48.1875 33.109375 48.1875 
Q 26.21875 48.1875 22.15625 43.53125 
Q 18.109375 38.875 18.109375 30.90625 
L 18.109375 0 
L 9.078125 0 
L 9.078125 54.6875 
L 18.109375 54.6875 
L 18.109375 46.1875 
Q 21.1875 51.21875 25.484375 53.609375 
Q 29.78125 56 35.6875 56 
Q 41.65625 56 45.828125 52.96875 
Q 50 49.953125 52 44.1875 
z
" id="DejaVuSans-109"/>
      <path d="M 54.890625 54.6875 
L 35.109375 28.078125 
L 55.90625 0 
L 45.3125 0 
L 29.390625 21.484375 
L 13.484375 0 
L 2.875 0 
L 24.125 28.609375 
L 4.6875 54.6875 
L 15.28125 54.6875 
L 29.78125 35.203125 
L 44.28125 54.6875 
z
" id="DejaVuSans-120"/>
      <path id="DejaVuSans-32"/>
      <path d="M 54.890625 33.015625 
L 54.890625 0 
L 45.90625 0 
L 45.90625 32.71875 
Q 45.90625 40.484375 42.875 44.328125 
Q 39.84375 48.1875 33.796875 48.1875 
Q 26.515625 48.1875 22.3125 43.546875 
Q 18.109375 38.921875 18.109375 30.90625 
L 18.109375 0 
L 9.078125 0 
L 9.078125 75.984375 
L 18.109375 75.984375 
L 18.109375 46.1875 
Q 21.34375 51.125 25.703125 53.5625 
Q 30.078125 56 35.796875 56 
Q 45.21875 56 50.046875 50.171875 
Q 54.890625 44.34375 54.890625 33.015625 
z
" id="DejaVuSans-104"/>
      <path d="M 45.609375 66.21875 
Q 37.5 66.21875 31.296875 62.28125 
Q 25.09375 58.34375 20.515625 50.296875 
Q 17.578125 45.171875 16.03125 39.40625 
Q 14.5 33.640625 14.5 27.78125 
Q 14.5 17.625 19.359375 12.109375 
Q 24.21875 6.59375 33.109375 6.59375 
Q 41.109375 6.59375 47.375 10.5625 
Q 53.65625 14.546875 58.109375 22.40625 
Q 61.078125 27.6875 62.640625 33.46875 
Q 64.203125 39.265625 64.203125 45.015625 
Q 64.203125 55.125 59.3125 60.671875 
Q 54.4375 66.21875 45.609375 66.21875 
z
M 32.8125 -1.421875 
Q 19.390625 -1.421875 11.6875 6.53125 
Q 4 14.5 4 28.328125 
Q 4 36.234375 7 44.484375 
Q 10.015625 52.734375 15.28125 59.1875 
Q 21.484375 66.75 29.09375 70.484375 
Q 36.71875 74.21875 45.90625 74.21875 
Q 59.28125 74.21875 66.984375 66.328125 
Q 74.703125 58.453125 74.703125 44.828125 
Q 74.703125 36.421875 71.765625 28.3125 
Q 68.84375 20.21875 63.375 13.625 
Q 57.125 6 49.578125 2.28125 
Q 42.046875 -1.421875 32.8125 -1.421875 
z
" id="DejaVuSans-Oblique-79"/>
      <path d="M 8.59375 75.984375 
L 29.296875 75.984375 
L 29.296875 69 
L 17.578125 69 
L 17.578125 -6.203125 
L 29.296875 -6.203125 
L 29.296875 -13.1875 
L 8.59375 -13.1875 
z
" id="DejaVuSans-91"/>
      <path d="M -1.3125 -20.796875 
L 13.375 54.6875 
L 22.40625 54.6875 
L 15.765625 20.65625 
Q 15.578125 19.625 15.421875 18.359375 
Q 15.28125 17.09375 15.28125 15.828125 
Q 15.28125 11.28125 18.140625 8.828125 
Q 21 6.390625 26.3125 6.390625 
Q 33.546875 6.390625 37.984375 10.484375 
Q 42.4375 14.59375 44 22.796875 
L 50.203125 54.6875 
L 59.1875 54.6875 
L 51.03125 12.640625 
Q 50.828125 11.71875 50.75 11.03125 
Q 50.6875 10.359375 50.6875 9.8125 
Q 50.6875 8.296875 51.296875 7.59375 
Q 51.90625 6.890625 53.21875 6.890625 
Q 53.71875 6.890625 54.5625 7.125 
Q 55.421875 7.375 56.984375 8.015625 
L 55.609375 0.78125 
Q 53.46875 -0.296875 51.515625 -0.859375 
Q 49.5625 -1.421875 47.703125 -1.421875 
Q 44.484375 -1.421875 42.65625 0.625 
Q 40.828125 2.6875 40.828125 6.296875 
Q 38.09375 2.390625 34.296875 0.484375 
Q 30.515625 -1.421875 25.390625 -1.421875 
Q 20.84375 -1.421875 17.453125 0.671875 
Q 14.0625 2.78125 12.984375 6.203125 
L 7.71875 -20.796875 
z
" id="DejaVuSans-Oblique-956"/>
      <path d="M 59.625 54.6875 
L 50.296875 6.78125 
Q 47.609375 -7.125 40.015625 -13.953125 
Q 32.421875 -20.796875 19.578125 -20.796875 
Q 14.84375 -20.796875 10.78125 -20.09375 
Q 6.734375 -19.390625 3.21875 -17.921875 
L 4.890625 -9.1875 
Q 8.203125 -11.328125 11.90625 -12.34375 
Q 15.625 -13.375 19.828125 -13.375 
Q 28.375 -13.375 33.859375 -8.703125 
Q 39.359375 -4.046875 41.109375 4.6875 
L 41.890625 8.796875 
Q 38.140625 4.5 33.15625 2.25 
Q 28.171875 0 22.40625 0 
Q 14.109375 0 9.34375 5.484375 
Q 4.59375 10.984375 4.59375 20.609375 
Q 4.59375 28.171875 7.46875 35.421875 
Q 10.359375 42.671875 15.578125 48.296875 
Q 19.046875 52 23.65625 54 
Q 28.265625 56 33.296875 56 
Q 38.8125 56 42.90625 53.4375 
Q 47.015625 50.875 49.03125 46.1875 
L 50.59375 54.6875 
z
M 46.09375 34.625 
Q 46.09375 41.265625 42.96875 44.875 
Q 39.84375 48.484375 34.078125 48.484375 
Q 30.515625 48.484375 27.296875 47.0625 
Q 24.078125 45.65625 21.78125 43.109375 
Q 18.0625 38.921875 15.984375 33.234375 
Q 13.921875 27.546875 13.921875 21.484375 
Q 13.921875 14.75 17.0625 11.125 
Q 20.21875 7.515625 26.125 7.515625 
Q 34.671875 7.515625 40.375 15.25 
Q 46.09375 23 46.09375 34.625 
z
" id="DejaVuSans-Oblique-103"/>
      <path d="M 25.390625 72.90625 
L 33.6875 72.90625 
L 8.296875 -9.28125 
L 0 -9.28125 
z
" id="DejaVuSans-47"/>
      <path d="M 89.796875 33.015625 
L 83.40625 0 
L 74.421875 0 
L 80.71875 32.71875 
Q 81.109375 34.8125 81.296875 36.328125 
Q 81.5 37.84375 81.5 38.921875 
Q 81.5 43.3125 79.046875 45.75 
Q 76.609375 48.1875 72.21875 48.1875 
Q 65.671875 48.1875 60.546875 43.28125 
Q 55.421875 38.375 53.90625 30.515625 
L 47.90625 0 
L 38.921875 0 
L 45.3125 32.71875 
Q 45.703125 34.515625 45.890625 36.046875 
Q 46.09375 37.59375 46.09375 38.8125 
Q 46.09375 43.265625 43.65625 45.71875 
Q 41.21875 48.1875 36.921875 48.1875 
Q 30.28125 48.1875 25.140625 43.28125 
Q 20.015625 38.375 18.5 30.515625 
L 12.5 0 
L 3.515625 0 
L 14.203125 54.6875 
L 23.1875 54.6875 
L 21.484375 46.1875 
Q 25.140625 50.984375 30.046875 53.484375 
Q 34.96875 56 40.578125 56 
Q 46.53125 56 50.359375 52.875 
Q 54.203125 49.75 54.984375 44.1875 
Q 59.078125 49.953125 64.46875 52.96875 
Q 69.875 56 75.875 56 
Q 82.90625 56 86.734375 51.953125 
Q 90.578125 47.90625 90.578125 40.484375 
Q 90.578125 38.875 90.375 36.9375 
Q 90.1875 35.015625 89.796875 33.015625 
z
" id="DejaVuSans-Oblique-109"/>
      <path d="M 30.421875 75.984375 
L 30.421875 -13.1875 
L 9.71875 -13.1875 
L 9.71875 -6.203125 
L 21.390625 -6.203125 
L 21.390625 69 
L 9.71875 69 
L 9.71875 75.984375 
z
" id="DejaVuSans-93"/>
     </defs>
     <g transform="translate(39.8125 262.67)rotate(-90)scale(0.1 -0.1)">
      <use transform="translate(0 0.765625)" xlink:href="#DejaVuSans-109"/>
      <use transform="translate(97.412109 0.765625)" xlink:href="#DejaVuSans-97"/>
      <use transform="translate(158.691406 0.765625)" xlink:href="#DejaVuSans-120"/>
      <use transform="translate(217.871094 0.765625)" xlink:href="#DejaVuSans-32"/>
      <use transform="translate(249.658203 0.765625)" xlink:href="#DejaVuSans-56"/>
      <use transform="translate(313.28125 0.765625)" xlink:href="#DejaVuSans-104"/>
      <use transform="translate(376.660156 0.765625)" xlink:href="#DejaVuSans-32"/>
      <use transform="translate(408.447266 0.765625)" xlink:href="#DejaVuSans-Oblique-79"/>
      <use transform="translate(487.158203 -15.640625)scale(0.7)" xlink:href="#DejaVuSans-51"/>
      <use transform="translate(534.428711 0.765625)" xlink:href="#DejaVuSans-32"/>
      <use transform="translate(566.21582 0.765625)" xlink:href="#DejaVuSans-91"/>
      <use transform="translate(605.229492 0.765625)" xlink:href="#DejaVuSans-Oblique-956"/>
      <use transform="translate(668.852539 0.765625)" xlink:href="#DejaVuSans-Oblique-103"/>
      <use transform="translate(732.329102 0.765625)" xlink:href="#DejaVuSans-47"/>
      <use transform="translate(766.020508 0.765625)" xlink:href="#DejaVuSans-Oblique-109"/>
      <use transform="translate(868.082513 39.046875)scale(0.7)" xlink:href="#DejaVuSans-51"/>
      <use transform="translate(915.353021 0.765625)" xlink:href="#DejaVuSans-93"/>
     </g>
    </g>
   </g>
   <g id="line2d_35">
    <path clip-path="url(#p992d4b4dcf)" d="M 92.290909 283.067745 
L 93.405794 297.223012 
L 94.520679 295.723411 
L 95.635564 304.302361 
L 96.75045 329.07322 
L 97.865335 291.862884 
L 98.98022 341.298224 
L 100.095105 322.530913 
L 101.20999 289.289199 
L 102.324875 294.007621 
L 103.43976 351.164016 
L 104.554645 344.944277 
L 105.66953 322.318155 
L 106.784416 289.501957 
L 107.899301 337.192338 
L 109.014186 312.8041 
L 110.129071 283.283934 
L 115.703497 322.424534 
L 116.818382 317.383544 
L 117.933267 334.251474 
L 119.048152 337.192338 
L 120.163037 320.602365 
L 121.277922 288.783041 
L 122.392807 296.794064 
L 123.507692 274.198827 
L 124.622577 259.369254 
L 126.852348 274.917743 
L 127.967233 276.741627 
L 129.082118 267.841825 
L 130.197003 281.307344 
L 131.311888 277.385049 
L 132.426773 265.865235 
L 133.541658 322.210061 
L 140.230969 274.167942 
L 141.345854 293.149726 
L 142.460739 315.238806 
L 143.575624 236.312469 
L 144.690509 266.98393 
L 145.805395 261.407613 
L 146.92028 258.511359 
L 148.035165 263.123403 
L 149.15005 261.83656 
L 150.264935 245.965503 
L 152.494705 260.441623 
L 153.60959 251.862673 
L 154.724476 241.888786 
L 155.839361 229.34293 
L 156.954246 244.462471 
L 158.069131 275.669259 
L 159.184016 259.583728 
L 160.298901 284.677156 
L 161.413786 241.35346 
L 162.528671 267.73373 
L 163.643556 250.575831 
L 164.758442 243.391818 
L 165.873327 273.831648 
L 166.988212 256.581096 
L 168.103097 263.658729 
L 169.217982 276.098206 
L 170.332867 281.031102 
L 171.447752 263.29155 
L 172.562637 273.462753 
L 173.677522 265.374519 
L 174.792408 272.728395 
L 175.907293 220.885802 
L 177.022178 203.92865 
L 178.137063 224.624508 
L 179.251948 250.038788 
L 180.366833 257.976033 
L 181.481718 232.988984 
L 182.596603 252.648505 
L 183.711489 231.381289 
L 184.826374 231.794794 
L 185.941259 223.015097 
L 187.056144 242.947429 
L 188.171029 242.854776 
L 189.285914 252.612473 
L 190.400799 237.063985 
L 191.515684 232.161973 
L 192.630569 237.278459 
L 193.745455 229.710109 
L 194.86034 241.459839 
L 195.975225 237.815501 
L 197.09011 223.872992 
L 198.204995 216.688979 
L 199.31988 261.728465 
L 200.434765 285.106103 
L 201.54965 237.492932 
L 202.664535 236.528658 
L 203.779421 261.299518 
L 204.894306 246.178261 
L 206.009191 202.104765 
L 207.124076 238.244448 
L 208.238961 217.975822 
L 209.353846 235.241816 
L 210.468731 215.831084 
L 211.583616 186.983508 
L 212.698501 238.136354 
L 213.813387 233.738784 
L 214.928272 236.528658 
L 216.043157 220.012465 
L 217.158042 240.818133 
L 218.272927 206.073387 
L 219.387812 146.770539 
L 220.502697 248.645567 
L 222.732468 172.399294 
L 223.847353 163.163196 
L 226.077123 223.872992 
L 227.192008 257.43899 
L 228.306893 267.948204 
L 229.421778 230.629773 
L 230.536663 233.141689 
L 231.651548 249.717936 
L 232.766434 259.736433 
L 233.881319 209.717725 
L 234.996204 213.900821 
L 236.111089 226.125824 
L 237.225974 257.759843 
L 238.340859 271.594257 
L 239.455744 251.157484 
L 240.570629 259.798202 
L 241.685514 187.427898 
L 242.8004 221.515497 
L 243.915285 245.521114 
L 245.03017 237.92188 
L 246.145055 233.877763 
L 247.25994 190.844036 
L 248.374825 222.47977 
L 249.48971 216.260032 
L 250.604595 235.454574 
L 251.719481 187.628645 
L 252.834366 203.606081 
L 253.949251 232.77451 
L 255.064136 236.099711 
L 256.179021 231.594047 
L 257.293906 204.357597 
L 258.408791 252.828663 
L 259.523676 270.521889 
L 260.638561 263.015308 
L 261.753447 203.499702 
L 262.868332 175.830874 
L 263.983217 141.302317 
L 265.098102 98.942895 
L 266.212987 192.347068 
L 267.327872 233.417931 
L 268.442757 243.604576 
L 269.557642 282.961366 
L 270.672527 271.486163 
L 271.787413 217.332401 
L 272.902298 239.852144 
L 274.017183 228.270562 
L 275.132068 229.34293 
L 276.246953 215.98379 
L 277.361838 209.182398 
L 278.476723 235.133721 
L 279.591608 278.994459 
L 280.706494 259.369254 
L 281.821379 269.770373 
L 282.936264 258.14418 
L 284.051149 191.489173 
L 285.166034 143.062717 
L 286.280919 79.31769 
L 287.395804 164.633628 
L 288.510689 126.718102 
L 289.625574 82.64289 
L 290.74046 66.665455 
L 291.855345 185.344929 
L 292.97023 211.112662 
L 295.2 155.457584 
L 296.314885 189.757941 
L 297.42977 193.63391 
L 298.544655 257.43899 
L 299.65954 211.817852 
L 300.774426 152.346857 
L 301.889311 100.123358 
L 307.463736 224.518129 
L 310.808392 230.094446 
L 311.923277 245.428461 
L 313.038162 207.36023 
L 314.153047 147.413961 
L 315.267932 136.796653 
L 316.382817 189.879762 
L 317.497702 236.635037 
L 318.612587 268.69972 
L 319.727473 212.507599 
L 320.842358 225.588782 
L 321.957243 270.19932 
L 323.072128 284.999724 
L 324.187013 242.746681 
L 325.301898 286.821893 
L 326.416783 227.136424 
L 327.531668 218.296675 
L 328.646553 259.614612 
L 329.761439 269.44952 
L 330.876324 244.539682 
L 331.991209 275.056722 
L 333.106094 268.806099 
L 334.220979 237.492932 
L 335.335864 222.970486 
L 336.450749 291.111368 
L 337.565634 225.665992 
L 338.680519 230.952341 
L 339.795405 274.811364 
L 340.91029 253.25761 
L 343.14006 225.482403 
L 344.254945 266.126035 
L 345.36983 265.909845 
L 346.484715 253.470368 
L 347.5996 271.91511 
L 348.714486 248.829157 
L 349.829371 217.43878 
L 350.944256 246.394451 
L 352.059141 250.146883 
L 353.174026 254.865306 
L 354.288911 247.681293 
L 355.403796 258.40498 
L 357.633566 290.359852 
L 358.748452 266.76774 
L 359.863337 269.020573 
L 360.978222 259.369254 
L 362.093107 244.678661 
L 363.207992 241.567934 
L 365.437762 278.994459 
L 366.552647 245.749314 
L 367.667532 225.804971 
L 368.782418 220.396801 
L 369.897303 236.099711 
L 371.012188 272.666626 
L 372.127073 277.06248 
L 373.241958 280.710249 
L 374.356843 247.252346 
L 375.471728 297.223012 
L 376.586613 265.588993 
L 377.701499 270.950836 
L 378.816384 242.702071 
L 379.931269 249.810588 
L 381.046154 280.449449 
L 382.161039 253.25761 
L 383.275924 263.046192 
L 384.390809 225.588782 
L 385.505694 249.932409 
L 386.620579 209.504967 
L 387.735465 222.601592 
L 388.85035 278.994459 
L 389.965235 252.384273 
L 392.195005 300.302855 
L 393.30989 327.894473 
L 394.424775 320.770513 
L 395.53966 315.775848 
L 396.654545 270.521889 
L 397.769431 281.997092 
L 398.884316 241.231639 
L 399.999201 253.041421 
L 401.114086 279.100838 
L 402.228971 302.370382 
L 403.343856 318.241439 
L 404.458741 280.816628 
L 405.573626 294.542948 
L 406.688511 281.780902 
L 407.803397 302.370382 
L 408.918282 325.427167 
L 410.033167 299.323139 
L 411.148052 322.318155 
L 412.262937 291.217747 
L 413.377822 288.644062 
L 414.492707 292.827158 
L 415.607592 275.133932 
L 416.722478 278.565512 
L 417.837363 274.488795 
L 418.952248 291.754789 
L 420.067133 296.258738 
L 421.182018 290.7888 
L 422.296903 290.253473 
L 423.411788 276.633533 
L 424.526673 293.362484 
L 425.641558 276.31268 
L 426.756444 292.075642 
L 427.871329 276.420775 
L 428.986214 272.989195 
L 430.101099 261.085044 
L 431.215984 343.657435 
L 432.330869 297.651959 
L 433.445754 286.178472 
L 434.560639 278.671891 
L 435.675524 273.201953 
L 436.79041 269.557615 
L 437.905295 313.907353 
L 439.02018 254.650832 
L 440.135065 269.770373 
L 441.24995 332.290327 
L 442.364835 263.444255 
L 443.47972 245.857408 
L 444.594605 263.29155 
L 445.709491 269.235046 
L 446.824376 269.128667 
L 447.939261 361.136187 
L 449.054146 315.454996 
L 450.169031 316.633743 
L 451.283916 309.37252 
L 452.398801 313.523016 
L 453.513686 351.776553 
L 460.202997 291.969263 
L 461.317882 316.954596 
L 462.432767 352.143732 
L 463.547652 358.778692 
L 464.662537 320.923218 
L 465.777423 351.164016 
L 466.892308 359.099544 
L 468.007193 281.031102 
L 469.122078 276.159974 
L 470.236963 330.251968 
L 471.351848 363.174545 
L 472.466733 356.556744 
L 473.581618 306.876046 
L 474.696503 336.089085 
L 476.926274 273.418142 
L 478.041159 274.07529 
L 479.156044 302.049529 
L 480.270929 309.863236 
L 481.385814 281.061986 
L 482.500699 269.542173 
L 483.615584 282.165239 
L 484.73047 282.638797 
L 485.845355 323.17605 
L 486.96024 326.499536 
L 488.075125 361.781324 
L 489.19001 343.442961 
L 490.304895 304.346972 
L 491.41978 283.390313 
L 492.534665 310.628479 
L 493.64955 272.1313 
L 494.764436 266.661361 
L 495.879321 320.708744 
L 496.994206 301.406108 
L 498.109091 308.698215 
L 498.109091 308.698215 
" style="fill:none;stroke:#1f77b4;stroke-linecap:square;stroke-width:1.5;"/>
   </g>
   <g id="line2d_36">
    <path clip-path="url(#p992d4b4dcf)" d="M 92.290909 317.66925 
L 93.405794 299.599791 
L 94.520679 328.414611 
L 95.635564 317.371564 
L 96.75045 310.24905 
L 97.865335 314.107023 
L 98.98022 313.530237 
L 100.095105 334.118106 
L 101.20999 315.411915 
L 102.324875 317.847357 
L 103.43976 332.731993 
L 104.554645 334.645981 
L 105.66953 329.228352 
L 106.784416 318.205938 
L 109.014186 292.660059 
L 110.129071 294.515245 
L 111.243956 304.289202 
L 112.358841 324.085095 
L 113.473726 295.284743 
L 114.588611 327.708897 
L 115.703497 304.625286 
L 116.818382 323.646529 
L 117.933267 338.080895 
L 119.048152 341.870944 
L 120.163037 328.03454 
L 121.277922 303.867674 
L 122.392807 275.700087 
L 123.507692 261.342846 
L 124.622577 276.567681 
L 125.737463 263.915156 
L 126.852348 271.942989 
L 127.967233 252.236326 
L 129.082118 280.616642 
L 130.197003 256.224796 
L 132.426773 281.595118 
L 133.541658 272.833629 
L 134.656543 310.041817 
L 135.771429 296.967029 
L 136.886314 290.600095 
L 138.001199 288.107971 
L 139.116084 289.405394 
L 140.230969 277.510092 
L 141.345854 276.697211 
L 142.460739 272.596958 
L 143.575624 259.391342 
L 144.690509 250.639628 
L 145.805395 255.959066 
L 146.92028 231.459688 
L 148.035165 257.886609 
L 149.15005 245.249243 
L 150.264935 241.791648 
L 151.37982 257.429228 
L 153.60959 248.97532 
L 154.724476 237.538516 
L 155.839361 243.021892 
L 156.954246 243.750136 
L 158.069131 250.867348 
L 159.184016 267.135812 
L 160.298901 274.360511 
L 161.413786 274.762527 
L 162.528671 256.678411 
L 163.643556 259.512586 
L 164.758442 265.652944 
L 165.873327 278.40847 
L 166.988212 280.386984 
L 169.217982 273.964502 
L 170.332867 262.846436 
L 171.447752 268.254389 
L 172.562637 253.475627 
L 173.677522 254.300933 
L 174.792408 266.740985 
L 175.907293 241.344158 
L 177.022178 211.713249 
L 178.137063 227.914875 
L 179.251948 220.1554 
L 180.366833 253.760235 
L 181.481718 230.73244 
L 182.596603 226.363358 
L 183.711489 222.521583 
L 184.826374 207.205799 
L 185.941259 227.371547 
L 187.056144 218.724332 
L 188.171029 228.238769 
L 189.285914 245.928841 
L 190.400799 228.064551 
L 191.515684 214.795368 
L 192.630569 213.460976 
L 193.745455 208.327229 
L 194.86034 216.188159 
L 195.975225 229.837593 
L 197.09011 227.461415 
L 198.204995 192.575549 
L 199.31988 207.926596 
L 200.434765 245.729202 
L 201.54965 255.336527 
L 202.664535 224.148473 
L 203.779421 226.262935 
L 204.894306 221.175244 
L 206.009191 220.381624 
L 207.124076 205.921776 
L 208.238961 212.107945 
L 209.353846 225.247825 
L 211.583616 192.353402 
L 212.698501 203.715832 
L 213.813387 212.78011 
L 216.043157 218.785881 
L 218.272927 180.04673 
L 219.387812 177.123503 
L 220.502697 193.159552 
L 221.617582 199.492391 
L 222.732468 163.411921 
L 223.847353 160.046977 
L 224.962238 198.947484 
L 226.077123 210.499224 
L 227.192008 236.684497 
L 228.306893 254.87385 
L 229.421778 228.561034 
L 230.536663 223.914571 
L 231.651548 226.922867 
L 232.766434 263.844503 
L 233.881319 260.979866 
L 234.996204 219.709296 
L 236.111089 213.646439 
L 237.225974 230.620316 
L 238.340859 236.944993 
L 239.455744 256.916122 
L 240.570629 215.143818 
L 241.685514 222.799666 
L 242.8004 201.101069 
L 243.915285 211.920659 
L 245.03017 210.830764 
L 246.145055 198.575357 
L 247.25994 180.6876 
L 248.374825 182.146899 
L 249.48971 195.482437 
L 250.604595 163.258319 
L 251.719481 181.552004 
L 252.834366 184.368178 
L 253.949251 231.958688 
L 255.064136 210.805181 
L 256.179021 217.451077 
L 257.293906 201.174929 
L 258.408791 225.86828 
L 259.523676 242.75539 
L 260.638561 255.201979 
L 261.753447 201.55226 
L 263.983217 132.661041 
L 265.098102 109.649118 
L 266.212987 167.822299 
L 267.327872 209.794112 
L 268.442757 218.972445 
L 269.557642 280.673027 
L 270.672527 265.527263 
L 271.787413 253.02027 
L 272.902298 221.722046 
L 274.017183 227.348968 
L 275.132068 200.242112 
L 276.246953 202.550829 
L 277.361838 180.296585 
L 278.476723 175.03552 
L 279.591608 238.671059 
L 280.706494 248.602448 
L 281.821379 254.214901 
L 284.051149 188.894971 
L 285.166034 130.872046 
L 286.280919 137.543015 
L 287.395804 125.066127 
L 288.510689 120.323569 
L 289.625574 101.983085 
L 290.74046 102.424096 
L 291.855345 119.257554 
L 292.97023 157.176688 
L 294.085115 164.42048 
L 295.2 113.044255 
L 296.314885 181.492214 
L 297.42977 172.527709 
L 298.544655 203.483943 
L 299.65954 216.390928 
L 301.889311 118.515875 
L 303.004196 102.59054 
L 304.119081 100.457255 
L 305.233966 128.841381 
L 306.348851 222.461663 
L 307.463736 190.288511 
L 308.578621 218.196804 
L 309.693506 236.277889 
L 310.808392 242.688049 
L 311.923277 235.096467 
L 314.153047 128.520707 
L 315.267932 136.222307 
L 316.382817 190.176542 
L 317.497702 190.99973 
L 318.612587 227.998982 
L 319.727473 219.638673 
L 320.842358 247.676989 
L 321.957243 240.240258 
L 323.072128 236.356294 
L 324.187013 250.869257 
L 325.301898 256.134079 
L 326.416783 228.343984 
L 327.531668 241.223615 
L 328.646553 231.319202 
L 329.761439 243.380927 
L 330.876324 244.638192 
L 333.106094 257.484523 
L 334.220979 229.016341 
L 335.335864 248.327715 
L 337.565634 235.843223 
L 338.680519 262.505553 
L 339.795405 222.004872 
L 340.91029 259.628612 
L 342.025175 243.552843 
L 343.14006 212.640766 
L 344.254945 253.535684 
L 345.36983 276.454517 
L 346.484715 273.496882 
L 347.5996 258.096181 
L 348.714486 252.226232 
L 349.829371 193.050976 
L 350.944256 221.297801 
L 352.059141 257.794101 
L 353.174026 262.870849 
L 354.288911 262.101608 
L 355.403796 260.747749 
L 356.518681 270.890206 
L 357.633566 284.023325 
L 358.748452 272.669464 
L 359.863337 275.91589 
L 360.978222 269.007134 
L 362.093107 270.483079 
L 363.207992 254.327777 
L 364.322877 267.217098 
L 365.437762 260.524963 
L 366.552647 244.093973 
L 367.667532 208.751346 
L 368.782418 223.122693 
L 369.897303 256.282446 
L 371.012188 270.372615 
L 372.127073 272.580043 
L 373.241958 281.220182 
L 374.356843 254.679739 
L 375.471728 273.92168 
L 376.586613 271.629085 
L 377.701499 277.371469 
L 378.816384 258.091534 
L 379.931269 272.09569 
L 381.046154 266.078936 
L 382.161039 276.051305 
L 383.275924 271.328208 
L 384.390809 267.296991 
L 385.505694 235.519273 
L 386.620579 218.681201 
L 387.735465 253.086762 
L 388.85035 260.924809 
L 389.965235 278.202325 
L 391.08012 280.303138 
L 392.195005 316.135144 
L 394.424775 302.424383 
L 395.53966 297.741081 
L 396.654545 276.735689 
L 397.769431 287.0709 
L 398.884316 251.033926 
L 399.999201 252.588218 
L 401.114086 263.796658 
L 402.228971 282.013361 
L 403.343856 303.472019 
L 404.458741 297.339232 
L 405.573626 283.499018 
L 406.688511 290.559766 
L 407.803397 290.972007 
L 408.918282 313.856808 
L 410.033167 321.013293 
L 411.148052 332.589792 
L 412.262937 318.973868 
L 413.377822 301.629347 
L 414.492707 303.60237 
L 415.607592 289.680701 
L 416.722478 282.89968 
L 417.837363 286.132268 
L 418.952248 271.148604 
L 420.067133 293.062124 
L 421.182018 277.771589 
L 422.296903 296.354118 
L 423.411788 303.305108 
L 424.526673 288.294944 
L 425.641558 292.159013 
L 426.756444 282.198153 
L 427.871329 283.436554 
L 428.986214 288.049365 
L 430.101099 298.273997 
L 431.215984 319.28363 
L 432.330869 304.336691 
L 433.445754 282.454624 
L 434.560639 274.53987 
L 435.675524 290.952043 
L 436.79041 287.893072 
L 437.905295 296.135646 
L 439.02018 267.420012 
L 440.135065 276.027287 
L 441.24995 286.815613 
L 442.364835 259.934385 
L 443.47972 255.056323 
L 444.594605 269.327295 
L 445.709491 262.204718 
L 446.824376 303.590902 
L 447.939261 337.94552 
L 449.054146 334.767796 
L 450.169031 321.601252 
L 451.283916 326.847024 
L 452.398801 317.813177 
L 453.513686 323.645908 
L 454.628571 331.900234 
L 455.743457 330.549909 
L 456.858342 319.693821 
L 457.973227 325.06018 
L 459.088112 325.424815 
L 461.317882 310.114637 
L 462.432767 329.770624 
L 463.547652 332.764892 
L 464.662537 330.734136 
L 465.777423 335.338652 
L 466.892308 334.287394 
L 468.007193 308.017298 
L 469.122078 294.338668 
L 470.236963 309.377959 
L 471.351848 331.01857 
L 472.466733 338.591235 
L 474.696503 314.971505 
L 475.811389 311.629234 
L 476.926274 308.873346 
L 478.041159 320.858173 
L 479.156044 320.990521 
L 480.270929 324.173194 
L 481.385814 266.917765 
L 482.500699 285.325592 
L 483.615584 280.051623 
L 484.73047 305.485747 
L 485.845355 308.337361 
L 486.96024 331.063891 
L 488.075125 330.626887 
L 489.19001 330.872231 
L 490.304895 308.062161 
L 491.41978 313.972426 
L 492.534665 284.031174 
L 493.64955 283.061262 
L 494.764436 273.24133 
L 495.879321 293.80079 
L 496.994206 324.185289 
L 498.109091 320.78047 
L 498.109091 320.78047 
" style="fill:none;stroke:#ff7f0e;stroke-linecap:square;stroke-width:1.5;"/>
   </g>
   <g id="patch_3">
    <path d="M 72 378 
L 72 51.84 
" style="fill:none;stroke:#000000;stroke-linecap:square;stroke-linejoin:miter;stroke-width:0.8;"/>
   </g>
   <g id="patch_4">
    <path d="M 518.4 378 
L 518.4 51.84 
" style="fill:none;stroke:#000000;stroke-linecap:square;stroke-linejoin:miter;stroke-width:0.8;"/>
   </g>
   <g id="patch_5">
    <path d="M 72 378 
L 518.4 378 
" style="fill:none;stroke:#000000;stroke-linecap:square;stroke-linejoin:miter;stroke-width:0.8;"/>
   </g>
   <g id="patch_6">
    <path d="M 72 51.84 
L 518.4 51.84 
" style="fill:none;stroke:#000000;stroke-linecap:square;stroke-linejoin:miter;stroke-width:0.8;"/>
   </g>
   <g id="text_20">
    <!-- Ozone BETN073 2010: Island DNN (MSE: 135.48, MAPE: 23.56%, IOA: 95.12%) -->
    <defs>
     <path d="M 39.40625 66.21875 
Q 28.65625 66.21875 22.328125 58.203125 
Q 16.015625 50.203125 16.015625 36.375 
Q 16.015625 22.609375 22.328125 14.59375 
Q 28.65625 6.59375 39.40625 6.59375 
Q 50.140625 6.59375 56.421875 14.59375 
Q 62.703125 22.609375 62.703125 36.375 
Q 62.703125 50.203125 56.421875 58.203125 
Q 50.140625 66.21875 39.40625 66.21875 
z
M 39.40625 74.21875 
Q 54.734375 74.21875 63.90625 63.9375 
Q 73.09375 53.65625 73.09375 36.375 
Q 73.09375 19.140625 63.90625 8.859375 
Q 54.734375 -1.421875 39.40625 -1.421875 
Q 24.03125 -1.421875 14.8125 8.828125 
Q 5.609375 19.09375 5.609375 36.375 
Q 5.609375 53.65625 14.8125 63.9375 
Q 24.03125 74.21875 39.40625 74.21875 
z
" id="DejaVuSans-79"/>
     <path d="M 5.515625 54.6875 
L 48.1875 54.6875 
L 48.1875 46.484375 
L 14.40625 7.171875 
L 48.1875 7.171875 
L 48.1875 0 
L 4.296875 0 
L 4.296875 8.203125 
L 38.09375 47.515625 
L 5.515625 47.515625 
z
" id="DejaVuSans-122"/>
     <path d="M 30.609375 48.390625 
Q 23.390625 48.390625 19.1875 42.75 
Q 14.984375 37.109375 14.984375 27.296875 
Q 14.984375 17.484375 19.15625 11.84375 
Q 23.34375 6.203125 30.609375 6.203125 
Q 37.796875 6.203125 41.984375 11.859375 
Q 46.1875 17.53125 46.1875 27.296875 
Q 46.1875 37.015625 41.984375 42.703125 
Q 37.796875 48.390625 30.609375 48.390625 
z
M 30.609375 56 
Q 42.328125 56 49.015625 48.375 
Q 55.71875 40.765625 55.71875 27.296875 
Q 55.71875 13.875 49.015625 6.21875 
Q 42.328125 -1.421875 30.609375 -1.421875 
Q 18.84375 -1.421875 12.171875 6.21875 
Q 5.515625 13.875 5.515625 27.296875 
Q 5.515625 40.765625 12.171875 48.375 
Q 18.84375 56 30.609375 56 
z
" id="DejaVuSans-111"/>
     <path d="M 54.890625 33.015625 
L 54.890625 0 
L 45.90625 0 
L 45.90625 32.71875 
Q 45.90625 40.484375 42.875 44.328125 
Q 39.84375 48.1875 33.796875 48.1875 
Q 26.515625 48.1875 22.3125 43.546875 
Q 18.109375 38.921875 18.109375 30.90625 
L 18.109375 0 
L 9.078125 0 
L 9.078125 54.6875 
L 18.109375 54.6875 
L 18.109375 46.1875 
Q 21.34375 51.125 25.703125 53.5625 
Q 30.078125 56 35.796875 56 
Q 45.21875 56 50.046875 50.171875 
Q 54.890625 44.34375 54.890625 33.015625 
z
" id="DejaVuSans-110"/>
     <path d="M 56.203125 29.59375 
L 56.203125 25.203125 
L 14.890625 25.203125 
Q 15.484375 15.921875 20.484375 11.0625 
Q 25.484375 6.203125 34.421875 6.203125 
Q 39.59375 6.203125 44.453125 7.46875 
Q 49.3125 8.734375 54.109375 11.28125 
L 54.109375 2.78125 
Q 49.265625 0.734375 44.1875 -0.34375 
Q 39.109375 -1.421875 33.890625 -1.421875 
Q 20.796875 -1.421875 13.15625 6.1875 
Q 5.515625 13.8125 5.515625 26.8125 
Q 5.515625 40.234375 12.765625 48.109375 
Q 20.015625 56 32.328125 56 
Q 43.359375 56 49.78125 48.890625 
Q 56.203125 41.796875 56.203125 29.59375 
z
M 47.21875 32.234375 
Q 47.125 39.59375 43.09375 43.984375 
Q 39.0625 48.390625 32.421875 48.390625 
Q 24.90625 48.390625 20.390625 44.140625 
Q 15.875 39.890625 15.1875 32.171875 
z
" id="DejaVuSans-101"/>
     <path d="M 19.671875 34.8125 
L 19.671875 8.109375 
L 35.5 8.109375 
Q 43.453125 8.109375 47.28125 11.40625 
Q 51.125 14.703125 51.125 21.484375 
Q 51.125 28.328125 47.28125 31.5625 
Q 43.453125 34.8125 35.5 34.8125 
z
M 19.671875 64.796875 
L 19.671875 42.828125 
L 34.28125 42.828125 
Q 41.5 42.828125 45.03125 45.53125 
Q 48.578125 48.25 48.578125 53.8125 
Q 48.578125 59.328125 45.03125 62.0625 
Q 41.5 64.796875 34.28125 64.796875 
z
M 9.8125 72.90625 
L 35.015625 72.90625 
Q 46.296875 72.90625 52.390625 68.21875 
Q 58.5 63.53125 58.5 54.890625 
Q 58.5 48.1875 55.375 44.234375 
Q 52.25 40.28125 46.1875 39.3125 
Q 53.46875 37.75 57.5 32.78125 
Q 61.53125 27.828125 61.53125 20.40625 
Q 61.53125 10.640625 54.890625 5.3125 
Q 48.25 0 35.984375 0 
L 9.8125 0 
z
" id="DejaVuSans-66"/>
     <path d="M 9.8125 72.90625 
L 55.90625 72.90625 
L 55.90625 64.59375 
L 19.671875 64.59375 
L 19.671875 43.015625 
L 54.390625 43.015625 
L 54.390625 34.71875 
L 19.671875 34.71875 
L 19.671875 8.296875 
L 56.78125 8.296875 
L 56.78125 0 
L 9.8125 0 
z
" id="DejaVuSans-69"/>
     <path d="M -0.296875 72.90625 
L 61.375 72.90625 
L 61.375 64.59375 
L 35.5 64.59375 
L 35.5 0 
L 25.59375 0 
L 25.59375 64.59375 
L -0.296875 64.59375 
z
" id="DejaVuSans-84"/>
     <path d="M 9.8125 72.90625 
L 23.09375 72.90625 
L 55.421875 11.921875 
L 55.421875 72.90625 
L 64.984375 72.90625 
L 64.984375 0 
L 51.703125 0 
L 19.390625 60.984375 
L 19.390625 0 
L 9.8125 0 
z
" id="DejaVuSans-78"/>
     <path d="M 8.203125 72.90625 
L 55.078125 72.90625 
L 55.078125 68.703125 
L 28.609375 0 
L 18.3125 0 
L 43.21875 64.59375 
L 8.203125 64.59375 
z
" id="DejaVuSans-55"/>
     <path d="M 11.71875 12.40625 
L 22.015625 12.40625 
L 22.015625 0 
L 11.71875 0 
z
M 11.71875 51.703125 
L 22.015625 51.703125 
L 22.015625 39.3125 
L 11.71875 39.3125 
z
" id="DejaVuSans-58"/>
     <path d="M 9.8125 72.90625 
L 19.671875 72.90625 
L 19.671875 0 
L 9.8125 0 
z
" id="DejaVuSans-73"/>
     <path d="M 44.28125 53.078125 
L 44.28125 44.578125 
Q 40.484375 46.53125 36.375 47.5 
Q 32.28125 48.484375 27.875 48.484375 
Q 21.1875 48.484375 17.84375 46.4375 
Q 14.5 44.390625 14.5 40.28125 
Q 14.5 37.15625 16.890625 35.375 
Q 19.28125 33.59375 26.515625 31.984375 
L 29.59375 31.296875 
Q 39.15625 29.25 43.1875 25.515625 
Q 47.21875 21.78125 47.21875 15.09375 
Q 47.21875 7.46875 41.1875 3.015625 
Q 35.15625 -1.421875 24.609375 -1.421875 
Q 20.21875 -1.421875 15.453125 -0.5625 
Q 10.6875 0.296875 5.421875 2 
L 5.421875 11.28125 
Q 10.40625 8.6875 15.234375 7.390625 
Q 20.0625 6.109375 24.8125 6.109375 
Q 31.15625 6.109375 34.5625 8.28125 
Q 37.984375 10.453125 37.984375 14.40625 
Q 37.984375 18.0625 35.515625 20.015625 
Q 33.0625 21.96875 24.703125 23.78125 
L 21.578125 24.515625 
Q 13.234375 26.265625 9.515625 29.90625 
Q 5.8125 33.546875 5.8125 39.890625 
Q 5.8125 47.609375 11.28125 51.796875 
Q 16.75 56 26.8125 56 
Q 31.78125 56 36.171875 55.265625 
Q 40.578125 54.546875 44.28125 53.078125 
z
" id="DejaVuSans-115"/>
     <path d="M 9.421875 75.984375 
L 18.40625 75.984375 
L 18.40625 0 
L 9.421875 0 
z
" id="DejaVuSans-108"/>
     <path d="M 45.40625 46.390625 
L 45.40625 75.984375 
L 54.390625 75.984375 
L 54.390625 0 
L 45.40625 0 
L 45.40625 8.203125 
Q 42.578125 3.328125 38.25 0.953125 
Q 33.9375 -1.421875 27.875 -1.421875 
Q 17.96875 -1.421875 11.734375 6.484375 
Q 5.515625 14.40625 5.515625 27.296875 
Q 5.515625 40.1875 11.734375 48.09375 
Q 17.96875 56 27.875 56 
Q 33.9375 56 38.25 53.625 
Q 42.578125 51.265625 45.40625 46.390625 
z
M 14.796875 27.296875 
Q 14.796875 17.390625 18.875 11.75 
Q 22.953125 6.109375 30.078125 6.109375 
Q 37.203125 6.109375 41.296875 11.75 
Q 45.40625 17.390625 45.40625 27.296875 
Q 45.40625 37.203125 41.296875 42.84375 
Q 37.203125 48.484375 30.078125 48.484375 
Q 22.953125 48.484375 18.875 42.84375 
Q 14.796875 37.203125 14.796875 27.296875 
z
" id="DejaVuSans-100"/>
     <path d="M 31 75.875 
Q 24.46875 64.65625 21.28125 53.65625 
Q 18.109375 42.671875 18.109375 31.390625 
Q 18.109375 20.125 21.3125 9.0625 
Q 24.515625 -2 31 -13.1875 
L 23.1875 -13.1875 
Q 15.875 -1.703125 12.234375 9.375 
Q 8.59375 20.453125 8.59375 31.390625 
Q 8.59375 42.28125 12.203125 53.3125 
Q 15.828125 64.359375 23.1875 75.875 
z
" id="DejaVuSans-40"/>
     <path d="M 9.8125 72.90625 
L 24.515625 72.90625 
L 43.109375 23.296875 
L 61.8125 72.90625 
L 76.515625 72.90625 
L 76.515625 0 
L 66.890625 0 
L 66.890625 64.015625 
L 48.09375 14.015625 
L 38.1875 14.015625 
L 19.390625 64.015625 
L 19.390625 0 
L 9.8125 0 
z
" id="DejaVuSans-77"/>
     <path d="M 53.515625 70.515625 
L 53.515625 60.890625 
Q 47.90625 63.578125 42.921875 64.890625 
Q 37.9375 66.21875 33.296875 66.21875 
Q 25.25 66.21875 20.875 63.09375 
Q 16.5 59.96875 16.5 54.203125 
Q 16.5 49.359375 19.40625 46.890625 
Q 22.3125 44.4375 30.421875 42.921875 
L 36.375 41.703125 
Q 47.40625 39.59375 52.65625 34.296875 
Q 57.90625 29 57.90625 20.125 
Q 57.90625 9.515625 50.796875 4.046875 
Q 43.703125 -1.421875 29.984375 -1.421875 
Q 24.8125 -1.421875 18.96875 -0.25 
Q 13.140625 0.921875 6.890625 3.21875 
L 6.890625 13.375 
Q 12.890625 10.015625 18.65625 8.296875 
Q 24.421875 6.59375 29.984375 6.59375 
Q 38.421875 6.59375 43.015625 9.90625 
Q 47.609375 13.234375 47.609375 19.390625 
Q 47.609375 24.75 44.3125 27.78125 
Q 41.015625 30.8125 33.5 32.328125 
L 27.484375 33.5 
Q 16.453125 35.6875 11.515625 40.375 
Q 6.59375 45.0625 6.59375 53.421875 
Q 6.59375 63.09375 13.40625 68.65625 
Q 20.21875 74.21875 32.171875 74.21875 
Q 37.3125 74.21875 42.625 73.28125 
Q 47.953125 72.359375 53.515625 70.515625 
z
" id="DejaVuSans-83"/>
     <path d="M 10.6875 12.40625 
L 21 12.40625 
L 21 0 
L 10.6875 0 
z
" id="DejaVuSans-46"/>
     <path d="M 11.71875 12.40625 
L 22.015625 12.40625 
L 22.015625 4 
L 14.015625 -11.625 
L 7.71875 -11.625 
L 11.71875 4 
z
" id="DejaVuSans-44"/>
     <path d="M 34.1875 63.1875 
L 20.796875 26.90625 
L 47.609375 26.90625 
z
M 28.609375 72.90625 
L 39.796875 72.90625 
L 67.578125 0 
L 57.328125 0 
L 50.6875 18.703125 
L 17.828125 18.703125 
L 11.1875 0 
L 0.78125 0 
z
" id="DejaVuSans-65"/>
     <path d="M 19.671875 64.796875 
L 19.671875 37.40625 
L 32.078125 37.40625 
Q 38.96875 37.40625 42.71875 40.96875 
Q 46.484375 44.53125 46.484375 51.125 
Q 46.484375 57.671875 42.71875 61.234375 
Q 38.96875 64.796875 32.078125 64.796875 
z
M 9.8125 72.90625 
L 32.078125 72.90625 
Q 44.34375 72.90625 50.609375 67.359375 
Q 56.890625 61.8125 56.890625 51.125 
Q 56.890625 40.328125 50.609375 34.8125 
Q 44.34375 29.296875 32.078125 29.296875 
L 19.671875 29.296875 
L 19.671875 0 
L 9.8125 0 
z
" id="DejaVuSans-80"/>
     <path d="M 72.703125 32.078125 
Q 68.453125 32.078125 66.03125 28.46875 
Q 63.625 24.859375 63.625 18.40625 
Q 63.625 12.0625 66.03125 8.421875 
Q 68.453125 4.78125 72.703125 4.78125 
Q 76.859375 4.78125 79.265625 8.421875 
Q 81.6875 12.0625 81.6875 18.40625 
Q 81.6875 24.8125 79.265625 28.4375 
Q 76.859375 32.078125 72.703125 32.078125 
z
M 72.703125 38.28125 
Q 80.421875 38.28125 84.953125 32.90625 
Q 89.5 27.546875 89.5 18.40625 
Q 89.5 9.28125 84.9375 3.921875 
Q 80.375 -1.421875 72.703125 -1.421875 
Q 64.890625 -1.421875 60.34375 3.921875 
Q 55.8125 9.28125 55.8125 18.40625 
Q 55.8125 27.59375 60.375 32.9375 
Q 64.9375 38.28125 72.703125 38.28125 
z
M 22.3125 68.015625 
Q 18.109375 68.015625 15.6875 64.375 
Q 13.28125 60.75 13.28125 54.390625 
Q 13.28125 47.953125 15.671875 44.328125 
Q 18.0625 40.71875 22.3125 40.71875 
Q 26.5625 40.71875 28.96875 44.328125 
Q 31.390625 47.953125 31.390625 54.390625 
Q 31.390625 60.6875 28.953125 64.34375 
Q 26.515625 68.015625 22.3125 68.015625 
z
M 66.40625 74.21875 
L 74.21875 74.21875 
L 28.609375 -1.421875 
L 20.796875 -1.421875 
z
M 22.3125 74.21875 
Q 30.03125 74.21875 34.609375 68.875 
Q 39.203125 63.53125 39.203125 54.390625 
Q 39.203125 45.171875 34.640625 39.84375 
Q 30.078125 34.515625 22.3125 34.515625 
Q 14.546875 34.515625 10.03125 39.859375 
Q 5.515625 45.21875 5.515625 54.390625 
Q 5.515625 63.484375 10.046875 68.84375 
Q 14.59375 74.21875 22.3125 74.21875 
z
" id="DejaVuSans-37"/>
     <path d="M 10.984375 1.515625 
L 10.984375 10.5 
Q 14.703125 8.734375 18.5 7.8125 
Q 22.3125 6.890625 25.984375 6.890625 
Q 35.75 6.890625 40.890625 13.453125 
Q 46.046875 20.015625 46.78125 33.40625 
Q 43.953125 29.203125 39.59375 26.953125 
Q 35.25 24.703125 29.984375 24.703125 
Q 19.046875 24.703125 12.671875 31.3125 
Q 6.296875 37.9375 6.296875 49.421875 
Q 6.296875 60.640625 12.9375 67.421875 
Q 19.578125 74.21875 30.609375 74.21875 
Q 43.265625 74.21875 49.921875 64.515625 
Q 56.59375 54.828125 56.59375 36.375 
Q 56.59375 19.140625 48.40625 8.859375 
Q 40.234375 -1.421875 26.421875 -1.421875 
Q 22.703125 -1.421875 18.890625 -0.6875 
Q 15.09375 0.046875 10.984375 1.515625 
z
M 30.609375 32.421875 
Q 37.25 32.421875 41.125 36.953125 
Q 45.015625 41.5 45.015625 49.421875 
Q 45.015625 57.28125 41.125 61.84375 
Q 37.25 66.40625 30.609375 66.40625 
Q 23.96875 66.40625 20.09375 61.84375 
Q 16.21875 57.28125 16.21875 49.421875 
Q 16.21875 41.5 20.09375 36.953125 
Q 23.96875 32.421875 30.609375 32.421875 
z
" id="DejaVuSans-57"/>
     <path d="M 8.015625 75.875 
L 15.828125 75.875 
Q 23.140625 64.359375 26.78125 53.3125 
Q 30.421875 42.28125 30.421875 31.390625 
Q 30.421875 20.453125 26.78125 9.375 
Q 23.140625 -1.703125 15.828125 -13.1875 
L 8.015625 -13.1875 
Q 14.5 -2 17.703125 9.0625 
Q 20.90625 20.125 20.90625 31.390625 
Q 20.90625 42.671875 17.703125 53.65625 
Q 14.5 64.65625 8.015625 75.875 
z
" id="DejaVuSans-41"/>
    </defs>
    <g transform="translate(59.4675 45.84)scale(0.12 -0.12)">
     <use xlink:href="#DejaVuSans-79"/>
     <use x="78.710938" xlink:href="#DejaVuSans-122"/>
     <use x="131.201172" xlink:href="#DejaVuSans-111"/>
     <use x="192.382812" xlink:href="#DejaVuSans-110"/>
     <use x="255.761719" xlink:href="#DejaVuSans-101"/>
     <use x="317.285156" xlink:href="#DejaVuSans-32"/>
     <use x="349.072266" xlink:href="#DejaVuSans-66"/>
     <use x="417.675781" xlink:href="#DejaVuSans-69"/>
     <use x="480.859375" xlink:href="#DejaVuSans-84"/>
     <use x="541.943359" xlink:href="#DejaVuSans-78"/>
     <use x="616.748047" xlink:href="#DejaVuSans-48"/>
     <use x="680.371094" xlink:href="#DejaVuSans-55"/>
     <use x="743.994141" xlink:href="#DejaVuSans-51"/>
     <use x="807.617188" xlink:href="#DejaVuSans-32"/>
     <use x="839.404297" xlink:href="#DejaVuSans-50"/>
     <use x="903.027344" xlink:href="#DejaVuSans-48"/>
     <use x="966.650391" xlink:href="#DejaVuSans-49"/>
     <use x="1030.273438" xlink:href="#DejaVuSans-48"/>
     <use x="1093.896484" xlink:href="#DejaVuSans-58"/>
     <use x="1127.587891" xlink:href="#DejaVuSans-32"/>
     <use x="1159.375" xlink:href="#DejaVuSans-73"/>
     <use x="1188.867188" xlink:href="#DejaVuSans-115"/>
     <use x="1240.966797" xlink:href="#DejaVuSans-108"/>
     <use x="1268.75" xlink:href="#DejaVuSans-97"/>
     <use x="1330.029297" xlink:href="#DejaVuSans-110"/>
     <use x="1393.408203" xlink:href="#DejaVuSans-100"/>
     <use x="1456.884766" xlink:href="#DejaVuSans-32"/>
     <use x="1488.671875" xlink:href="#DejaVuSans-68"/>
     <use x="1565.673828" xlink:href="#DejaVuSans-78"/>
     <use x="1640.478516" xlink:href="#DejaVuSans-78"/>
     <use x="1715.283203" xlink:href="#DejaVuSans-32"/>
     <use x="1747.070312" xlink:href="#DejaVuSans-40"/>
     <use x="1786.083984" xlink:href="#DejaVuSans-77"/>
     <use x="1872.363281" xlink:href="#DejaVuSans-83"/>
     <use x="1935.839844" xlink:href="#DejaVuSans-69"/>
     <use x="1999.023438" xlink:href="#DejaVuSans-58"/>
     <use x="2032.714844" xlink:href="#DejaVuSans-32"/>
     <use x="2064.501953" xlink:href="#DejaVuSans-49"/>
     <use x="2128.125" xlink:href="#DejaVuSans-51"/>
     <use x="2191.748047" xlink:href="#DejaVuSans-53"/>
     <use x="2255.371094" xlink:href="#DejaVuSans-46"/>
     <use x="2287.158203" xlink:href="#DejaVuSans-52"/>
     <use x="2350.78125" xlink:href="#DejaVuSans-56"/>
     <use x="2414.404297" xlink:href="#DejaVuSans-44"/>
     <use x="2446.191406" xlink:href="#DejaVuSans-32"/>
     <use x="2477.978516" xlink:href="#DejaVuSans-77"/>
     <use x="2564.257812" xlink:href="#DejaVuSans-65"/>
     <use x="2632.666016" xlink:href="#DejaVuSans-80"/>
     <use x="2692.96875" xlink:href="#DejaVuSans-69"/>
     <use x="2756.152344" xlink:href="#DejaVuSans-58"/>
     <use x="2789.84375" xlink:href="#DejaVuSans-32"/>
     <use x="2821.630859" xlink:href="#DejaVuSans-50"/>
     <use x="2885.253906" xlink:href="#DejaVuSans-51"/>
     <use x="2948.876953" xlink:href="#DejaVuSans-46"/>
     <use x="2980.664062" xlink:href="#DejaVuSans-53"/>
     <use x="3044.287109" xlink:href="#DejaVuSans-54"/>
     <use x="3107.910156" xlink:href="#DejaVuSans-37"/>
     <use x="3202.929688" xlink:href="#DejaVuSans-44"/>
     <use x="3234.716797" xlink:href="#DejaVuSans-32"/>
     <use x="3266.503906" xlink:href="#DejaVuSans-73"/>
     <use x="3295.996094" xlink:href="#DejaVuSans-79"/>
     <use x="3374.691406" xlink:href="#DejaVuSans-65"/>
     <use x="3443.083984" xlink:href="#DejaVuSans-58"/>
     <use x="3476.775391" xlink:href="#DejaVuSans-32"/>
     <use x="3508.5625" xlink:href="#DejaVuSans-57"/>
     <use x="3572.185547" xlink:href="#DejaVuSans-53"/>
     <use x="3635.808594" xlink:href="#DejaVuSans-46"/>
     <use x="3667.595703" xlink:href="#DejaVuSans-49"/>
     <use x="3731.21875" xlink:href="#DejaVuSans-50"/>
     <use x="3794.841797" xlink:href="#DejaVuSans-37"/>
     <use x="3889.861328" xlink:href="#DejaVuSans-41"/>
    </g>
   </g>
   <g id="legend_1">
    <g id="patch_7">
     <path d="M 431.74375 89.19625 
L 511.4 89.19625 
Q 513.4 89.19625 513.4 87.19625 
L 513.4 58.84 
Q 513.4 56.84 511.4 56.84 
L 431.74375 56.84 
Q 429.74375 56.84 429.74375 58.84 
L 429.74375 87.19625 
Q 429.74375 89.19625 431.74375 89.19625 
z
" style="fill:#ffffff;opacity:0.8;stroke:#cccccc;stroke-linejoin:miter;"/>
    </g>
    <g id="line2d_37">
     <path d="M 433.74375 64.938437 
L 453.74375 64.938437 
" style="fill:none;stroke:#1f77b4;stroke-linecap:square;stroke-width:1.5;"/>
    </g>
    <g id="line2d_38"/>
    <g id="text_21">
     <!-- expected -->
     <defs>
      <path d="M 18.109375 8.203125 
L 18.109375 -20.796875 
L 9.078125 -20.796875 
L 9.078125 54.6875 
L 18.109375 54.6875 
L 18.109375 46.390625 
Q 20.953125 51.265625 25.265625 53.625 
Q 29.59375 56 35.59375 56 
Q 45.5625 56 51.78125 48.09375 
Q 58.015625 40.1875 58.015625 27.296875 
Q 58.015625 14.40625 51.78125 6.484375 
Q 45.5625 -1.421875 35.59375 -1.421875 
Q 29.59375 -1.421875 25.265625 0.953125 
Q 20.953125 3.328125 18.109375 8.203125 
z
M 48.6875 27.296875 
Q 48.6875 37.203125 44.609375 42.84375 
Q 40.53125 48.484375 33.40625 48.484375 
Q 26.265625 48.484375 22.1875 42.84375 
Q 18.109375 37.203125 18.109375 27.296875 
Q 18.109375 17.390625 22.1875 11.75 
Q 26.265625 6.109375 33.40625 6.109375 
Q 40.53125 6.109375 44.609375 11.75 
Q 48.6875 17.390625 48.6875 27.296875 
z
" id="DejaVuSans-112"/>
      <path d="M 48.78125 52.59375 
L 48.78125 44.1875 
Q 44.96875 46.296875 41.140625 47.34375 
Q 37.3125 48.390625 33.40625 48.390625 
Q 24.65625 48.390625 19.8125 42.84375 
Q 14.984375 37.3125 14.984375 27.296875 
Q 14.984375 17.28125 19.8125 11.734375 
Q 24.65625 6.203125 33.40625 6.203125 
Q 37.3125 6.203125 41.140625 7.25 
Q 44.96875 8.296875 48.78125 10.40625 
L 48.78125 2.09375 
Q 45.015625 0.34375 40.984375 -0.53125 
Q 36.96875 -1.421875 32.421875 -1.421875 
Q 20.0625 -1.421875 12.78125 6.34375 
Q 5.515625 14.109375 5.515625 27.296875 
Q 5.515625 40.671875 12.859375 48.328125 
Q 20.21875 56 33.015625 56 
Q 37.15625 56 41.109375 55.140625 
Q 45.0625 54.296875 48.78125 52.59375 
z
" id="DejaVuSans-99"/>
      <path d="M 18.3125 70.21875 
L 18.3125 54.6875 
L 36.8125 54.6875 
L 36.8125 47.703125 
L 18.3125 47.703125 
L 18.3125 18.015625 
Q 18.3125 11.328125 20.140625 9.421875 
Q 21.96875 7.515625 27.59375 7.515625 
L 36.8125 7.515625 
L 36.8125 0 
L 27.59375 0 
Q 17.1875 0 13.234375 3.875 
Q 9.28125 7.765625 9.28125 18.015625 
L 9.28125 47.703125 
L 2.6875 47.703125 
L 2.6875 54.6875 
L 9.28125 54.6875 
L 9.28125 70.21875 
z
" id="DejaVuSans-116"/>
     </defs>
     <g transform="translate(461.74375 68.438437)scale(0.1 -0.1)">
      <use xlink:href="#DejaVuSans-101"/>
      <use x="61.507812" xlink:href="#DejaVuSans-120"/>
      <use x="120.6875" xlink:href="#DejaVuSans-112"/>
      <use x="184.164062" xlink:href="#DejaVuSans-101"/>
      <use x="245.6875" xlink:href="#DejaVuSans-99"/>
      <use x="300.667969" xlink:href="#DejaVuSans-116"/>
      <use x="339.876953" xlink:href="#DejaVuSans-101"/>
      <use x="401.400391" xlink:href="#DejaVuSans-100"/>
     </g>
    </g>
    <g id="line2d_39">
     <path d="M 433.74375 79.616562 
L 453.74375 79.616562 
" style="fill:none;stroke:#ff7f0e;stroke-linecap:square;stroke-width:1.5;"/>
    </g>
    <g id="line2d_40"/>
    <g id="text_22">
     <!-- predicted -->
     <defs>
      <path d="M 41.109375 46.296875 
Q 39.59375 47.171875 37.8125 47.578125 
Q 36.03125 48 33.890625 48 
Q 26.265625 48 22.1875 43.046875 
Q 18.109375 38.09375 18.109375 28.8125 
L 18.109375 0 
L 9.078125 0 
L 9.078125 54.6875 
L 18.109375 54.6875 
L 18.109375 46.1875 
Q 20.953125 51.171875 25.484375 53.578125 
Q 30.03125 56 36.53125 56 
Q 37.453125 56 38.578125 55.875 
Q 39.703125 55.765625 41.0625 55.515625 
z
" id="DejaVuSans-114"/>
      <path d="M 9.421875 54.6875 
L 18.40625 54.6875 
L 18.40625 0 
L 9.421875 0 
z
M 9.421875 75.984375 
L 18.40625 75.984375 
L 18.40625 64.59375 
L 9.421875 64.59375 
z
" id="DejaVuSans-105"/>
     </defs>
     <g transform="translate(461.74375 83.116562)scale(0.1 -0.1)">
      <use xlink:href="#DejaVuSans-112"/>
      <use x="63.476562" xlink:href="#DejaVuSans-114"/>
      <use x="104.558594" xlink:href="#DejaVuSans-101"/>
      <use x="166.082031" xlink:href="#DejaVuSans-100"/>
      <use x="229.558594" xlink:href="#DejaVuSans-105"/>
      <use x="257.341797" xlink:href="#DejaVuSans-99"/>
      <use x="312.322266" xlink:href="#DejaVuSans-116"/>
      <use x="351.53125" xlink:href="#DejaVuSans-101"/>
      <use x="413.054688" xlink:href="#DejaVuSans-100"/>
     </g>
    </g>
   </g>
  </g>
 </g>
 <defs>
  <clipPath id="p992d4b4dcf">
   <rect height="326.16" width="446.4" x="72" y="51.84"/>
  </clipPath>
 </defs>
</svg>
