<?xml version="1.0" encoding="utf-8" standalone="no"?>
<!DOCTYPE svg PUBLIC "-//W3C//DTD SVG 1.1//EN"
  "http://www.w3.org/Graphics/SVG/1.1/DTD/svg11.dtd">
<!-- Created with matplotlib (https://matplotlib.org/) -->
<svg height="576pt" version="1.1" viewBox="0 0 864 576" width="864pt" xmlns="http://www.w3.org/2000/svg" xmlns:xlink="http://www.w3.org/1999/xlink">
 <defs>
  <style type="text/css">
*{stroke-linecap:butt;stroke-linejoin:round;white-space:pre;}
  </style>
 </defs>
 <g id="figure_1">
  <g id="patch_1">
   <path d="M 0 576 
L 864 576 
L 864 0 
L 0 0 
z
" style="fill:#ffffff;"/>
  </g>
  <g id="axes_1">
   <g id="patch_2">
    <path d="M 108 504 
L 777.6 504 
L 777.6 69.12 
L 108 69.12 
z
" style="fill:#ffffff;"/>
   </g>
   <g id="matplotlib.axis_1">
    <g id="xtick_1">
     <g id="line2d_1">
      <path clip-path="url(#pac5daa521f)" d="M 138.436364 504 
L 138.436364 69.12 
" style="fill:none;stroke:#b0b0b0;stroke-linecap:square;stroke-width:0.8;"/>
     </g>
     <g id="line2d_2">
      <defs>
       <path d="M 0 0 
L 0 3.5 
" id="m10dbd7bc60" style="stroke:#000000;stroke-width:0.8;"/>
      </defs>
      <g>
       <use style="stroke:#000000;stroke-width:0.8;" x="138.436364" xlink:href="#m10dbd7bc60" y="504"/>
      </g>
     </g>
     <g id="text_1">
      <!-- 0 -->
      <defs>
       <path d="M 31.78125 66.40625 
Q 24.171875 66.40625 20.328125 58.90625 
Q 16.5 51.421875 16.5 36.375 
Q 16.5 21.390625 20.328125 13.890625 
Q 24.171875 6.390625 31.78125 6.390625 
Q 39.453125 6.390625 43.28125 13.890625 
Q 47.125 21.390625 47.125 36.375 
Q 47.125 51.421875 43.28125 58.90625 
Q 39.453125 66.40625 31.78125 66.40625 
z
M 31.78125 74.21875 
Q 44.046875 74.21875 50.515625 64.515625 
Q 56.984375 54.828125 56.984375 36.375 
Q 56.984375 17.96875 50.515625 8.265625 
Q 44.046875 -1.421875 31.78125 -1.421875 
Q 19.53125 -1.421875 13.0625 8.265625 
Q 6.59375 17.96875 6.59375 36.375 
Q 6.59375 54.828125 13.0625 64.515625 
Q 19.53125 74.21875 31.78125 74.21875 
z
" id="DejaVuSans-48"/>
      </defs>
      <g transform="translate(135.255114 518.598438)scale(0.1 -0.1)">
       <use xlink:href="#DejaVuSans-48"/>
      </g>
     </g>
    </g>
    <g id="xtick_2">
     <g id="line2d_3">
      <path clip-path="url(#pac5daa521f)" d="M 222.052747 504 
L 222.052747 69.12 
" style="fill:none;stroke:#b0b0b0;stroke-linecap:square;stroke-width:0.8;"/>
     </g>
     <g id="line2d_4">
      <g>
       <use style="stroke:#000000;stroke-width:0.8;" x="222.052747" xlink:href="#m10dbd7bc60" y="504"/>
      </g>
     </g>
     <g id="text_2">
      <!-- 50 -->
      <defs>
       <path d="M 10.796875 72.90625 
L 49.515625 72.90625 
L 49.515625 64.59375 
L 19.828125 64.59375 
L 19.828125 46.734375 
Q 21.96875 47.46875 24.109375 47.828125 
Q 26.265625 48.1875 28.421875 48.1875 
Q 40.625 48.1875 47.75 41.5 
Q 54.890625 34.8125 54.890625 23.390625 
Q 54.890625 11.625 47.5625 5.09375 
Q 40.234375 -1.421875 26.90625 -1.421875 
Q 22.3125 -1.421875 17.546875 -0.640625 
Q 12.796875 0.140625 7.71875 1.703125 
L 7.71875 11.625 
Q 12.109375 9.234375 16.796875 8.0625 
Q 21.484375 6.890625 26.703125 6.890625 
Q 35.15625 6.890625 40.078125 11.328125 
Q 45.015625 15.765625 45.015625 23.390625 
Q 45.015625 31 40.078125 35.4375 
Q 35.15625 39.890625 26.703125 39.890625 
Q 22.75 39.890625 18.8125 39.015625 
Q 14.890625 38.140625 10.796875 36.28125 
z
" id="DejaVuSans-53"/>
      </defs>
      <g transform="translate(215.690247 518.598438)scale(0.1 -0.1)">
       <use xlink:href="#DejaVuSans-53"/>
       <use x="63.623047" xlink:href="#DejaVuSans-48"/>
      </g>
     </g>
    </g>
    <g id="xtick_3">
     <g id="line2d_5">
      <path clip-path="url(#pac5daa521f)" d="M 305.669131 504 
L 305.669131 69.12 
" style="fill:none;stroke:#b0b0b0;stroke-linecap:square;stroke-width:0.8;"/>
     </g>
     <g id="line2d_6">
      <g>
       <use style="stroke:#000000;stroke-width:0.8;" x="305.669131" xlink:href="#m10dbd7bc60" y="504"/>
      </g>
     </g>
     <g id="text_3">
      <!-- 100 -->
      <defs>
       <path d="M 12.40625 8.296875 
L 28.515625 8.296875 
L 28.515625 63.921875 
L 10.984375 60.40625 
L 10.984375 69.390625 
L 28.421875 72.90625 
L 38.28125 72.90625 
L 38.28125 8.296875 
L 54.390625 8.296875 
L 54.390625 0 
L 12.40625 0 
z
" id="DejaVuSans-49"/>
      </defs>
      <g transform="translate(296.125381 518.598438)scale(0.1 -0.1)">
       <use xlink:href="#DejaVuSans-49"/>
       <use x="63.623047" xlink:href="#DejaVuSans-48"/>
       <use x="127.246094" xlink:href="#DejaVuSans-48"/>
      </g>
     </g>
    </g>
    <g id="xtick_4">
     <g id="line2d_7">
      <path clip-path="url(#pac5daa521f)" d="M 389.285514 504 
L 389.285514 69.12 
" style="fill:none;stroke:#b0b0b0;stroke-linecap:square;stroke-width:0.8;"/>
     </g>
     <g id="line2d_8">
      <g>
       <use style="stroke:#000000;stroke-width:0.8;" x="389.285514" xlink:href="#m10dbd7bc60" y="504"/>
      </g>
     </g>
     <g id="text_4">
      <!-- 150 -->
      <g transform="translate(379.741764 518.598438)scale(0.1 -0.1)">
       <use xlink:href="#DejaVuSans-49"/>
       <use x="63.623047" xlink:href="#DejaVuSans-53"/>
       <use x="127.246094" xlink:href="#DejaVuSans-48"/>
      </g>
     </g>
    </g>
    <g id="xtick_5">
     <g id="line2d_9">
      <path clip-path="url(#pac5daa521f)" d="M 472.901898 504 
L 472.901898 69.12 
" style="fill:none;stroke:#b0b0b0;stroke-linecap:square;stroke-width:0.8;"/>
     </g>
     <g id="line2d_10">
      <g>
       <use style="stroke:#000000;stroke-width:0.8;" x="472.901898" xlink:href="#m10dbd7bc60" y="504"/>
      </g>
     </g>
     <g id="text_5">
      <!-- 200 -->
      <defs>
       <path d="M 19.1875 8.296875 
L 53.609375 8.296875 
L 53.609375 0 
L 7.328125 0 
L 7.328125 8.296875 
Q 12.9375 14.109375 22.625 23.890625 
Q 32.328125 33.6875 34.8125 36.53125 
Q 39.546875 41.84375 41.421875 45.53125 
Q 43.3125 49.21875 43.3125 52.78125 
Q 43.3125 58.59375 39.234375 62.25 
Q 35.15625 65.921875 28.609375 65.921875 
Q 23.96875 65.921875 18.8125 64.3125 
Q 13.671875 62.703125 7.8125 59.421875 
L 7.8125 69.390625 
Q 13.765625 71.78125 18.9375 73 
Q 24.125 74.21875 28.421875 74.21875 
Q 39.75 74.21875 46.484375 68.546875 
Q 53.21875 62.890625 53.21875 53.421875 
Q 53.21875 48.921875 51.53125 44.890625 
Q 49.859375 40.875 45.40625 35.40625 
Q 44.1875 33.984375 37.640625 27.21875 
Q 31.109375 20.453125 19.1875 8.296875 
z
" id="DejaVuSans-50"/>
      </defs>
      <g transform="translate(463.358148 518.598438)scale(0.1 -0.1)">
       <use xlink:href="#DejaVuSans-50"/>
       <use x="63.623047" xlink:href="#DejaVuSans-48"/>
       <use x="127.246094" xlink:href="#DejaVuSans-48"/>
      </g>
     </g>
    </g>
    <g id="xtick_6">
     <g id="line2d_11">
      <path clip-path="url(#pac5daa521f)" d="M 556.518282 504 
L 556.518282 69.12 
" style="fill:none;stroke:#b0b0b0;stroke-linecap:square;stroke-width:0.8;"/>
     </g>
     <g id="line2d_12">
      <g>
       <use style="stroke:#000000;stroke-width:0.8;" x="556.518282" xlink:href="#m10dbd7bc60" y="504"/>
      </g>
     </g>
     <g id="text_6">
      <!-- 250 -->
      <g transform="translate(546.974532 518.598438)scale(0.1 -0.1)">
       <use xlink:href="#DejaVuSans-50"/>
       <use x="63.623047" xlink:href="#DejaVuSans-53"/>
       <use x="127.246094" xlink:href="#DejaVuSans-48"/>
      </g>
     </g>
    </g>
    <g id="xtick_7">
     <g id="line2d_13">
      <path clip-path="url(#pac5daa521f)" d="M 640.134665 504 
L 640.134665 69.12 
" style="fill:none;stroke:#b0b0b0;stroke-linecap:square;stroke-width:0.8;"/>
     </g>
     <g id="line2d_14">
      <g>
       <use style="stroke:#000000;stroke-width:0.8;" x="640.134665" xlink:href="#m10dbd7bc60" y="504"/>
      </g>
     </g>
     <g id="text_7">
      <!-- 300 -->
      <defs>
       <path d="M 40.578125 39.3125 
Q 47.65625 37.796875 51.625 33 
Q 55.609375 28.21875 55.609375 21.1875 
Q 55.609375 10.40625 48.1875 4.484375 
Q 40.765625 -1.421875 27.09375 -1.421875 
Q 22.515625 -1.421875 17.65625 -0.515625 
Q 12.796875 0.390625 7.625 2.203125 
L 7.625 11.71875 
Q 11.71875 9.328125 16.59375 8.109375 
Q 21.484375 6.890625 26.8125 6.890625 
Q 36.078125 6.890625 40.9375 10.546875 
Q 45.796875 14.203125 45.796875 21.1875 
Q 45.796875 27.640625 41.28125 31.265625 
Q 36.765625 34.90625 28.71875 34.90625 
L 20.21875 34.90625 
L 20.21875 43.015625 
L 29.109375 43.015625 
Q 36.375 43.015625 40.234375 45.921875 
Q 44.09375 48.828125 44.09375 54.296875 
Q 44.09375 59.90625 40.109375 62.90625 
Q 36.140625 65.921875 28.71875 65.921875 
Q 24.65625 65.921875 20.015625 65.03125 
Q 15.375 64.15625 9.8125 62.3125 
L 9.8125 71.09375 
Q 15.4375 72.65625 20.34375 73.4375 
Q 25.25 74.21875 29.59375 74.21875 
Q 40.828125 74.21875 47.359375 69.109375 
Q 53.90625 64.015625 53.90625 55.328125 
Q 53.90625 49.265625 50.4375 45.09375 
Q 46.96875 40.921875 40.578125 39.3125 
z
" id="DejaVuSans-51"/>
      </defs>
      <g transform="translate(630.590915 518.598438)scale(0.1 -0.1)">
       <use xlink:href="#DejaVuSans-51"/>
       <use x="63.623047" xlink:href="#DejaVuSans-48"/>
       <use x="127.246094" xlink:href="#DejaVuSans-48"/>
      </g>
     </g>
    </g>
    <g id="xtick_8">
     <g id="line2d_15">
      <path clip-path="url(#pac5daa521f)" d="M 723.751049 504 
L 723.751049 69.12 
" style="fill:none;stroke:#b0b0b0;stroke-linecap:square;stroke-width:0.8;"/>
     </g>
     <g id="line2d_16">
      <g>
       <use style="stroke:#000000;stroke-width:0.8;" x="723.751049" xlink:href="#m10dbd7bc60" y="504"/>
      </g>
     </g>
     <g id="text_8">
      <!-- 350 -->
      <g transform="translate(714.207299 518.598438)scale(0.1 -0.1)">
       <use xlink:href="#DejaVuSans-51"/>
       <use x="63.623047" xlink:href="#DejaVuSans-53"/>
       <use x="127.246094" xlink:href="#DejaVuSans-48"/>
      </g>
     </g>
    </g>
    <g id="text_9">
     <!-- Day -->
     <defs>
      <path d="M 19.671875 64.796875 
L 19.671875 8.109375 
L 31.59375 8.109375 
Q 46.6875 8.109375 53.6875 14.9375 
Q 60.6875 21.78125 60.6875 36.53125 
Q 60.6875 51.171875 53.6875 57.984375 
Q 46.6875 64.796875 31.59375 64.796875 
z
M 9.8125 72.90625 
L 30.078125 72.90625 
Q 51.265625 72.90625 61.171875 64.09375 
Q 71.09375 55.28125 71.09375 36.53125 
Q 71.09375 17.671875 61.125 8.828125 
Q 51.171875 0 30.078125 0 
L 9.8125 0 
z
" id="DejaVuSans-68"/>
      <path d="M 34.28125 27.484375 
Q 23.390625 27.484375 19.1875 25 
Q 14.984375 22.515625 14.984375 16.5 
Q 14.984375 11.71875 18.140625 8.90625 
Q 21.296875 6.109375 26.703125 6.109375 
Q 34.1875 6.109375 38.703125 11.40625 
Q 43.21875 16.703125 43.21875 25.484375 
L 43.21875 27.484375 
z
M 52.203125 31.203125 
L 52.203125 0 
L 43.21875 0 
L 43.21875 8.296875 
Q 40.140625 3.328125 35.546875 0.953125 
Q 30.953125 -1.421875 24.3125 -1.421875 
Q 15.921875 -1.421875 10.953125 3.296875 
Q 6 8.015625 6 15.921875 
Q 6 25.140625 12.171875 29.828125 
Q 18.359375 34.515625 30.609375 34.515625 
L 43.21875 34.515625 
L 43.21875 35.40625 
Q 43.21875 41.609375 39.140625 45 
Q 35.0625 48.390625 27.6875 48.390625 
Q 23 48.390625 18.546875 47.265625 
Q 14.109375 46.140625 10.015625 43.890625 
L 10.015625 52.203125 
Q 14.9375 54.109375 19.578125 55.046875 
Q 24.21875 56 28.609375 56 
Q 40.484375 56 46.34375 49.84375 
Q 52.203125 43.703125 52.203125 31.203125 
z
" id="DejaVuSans-97"/>
      <path d="M 32.171875 -5.078125 
Q 28.375 -14.84375 24.75 -17.8125 
Q 21.140625 -20.796875 15.09375 -20.796875 
L 7.90625 -20.796875 
L 7.90625 -13.28125 
L 13.1875 -13.28125 
Q 16.890625 -13.28125 18.9375 -11.515625 
Q 21 -9.765625 23.484375 -3.21875 
L 25.09375 0.875 
L 2.984375 54.6875 
L 12.5 54.6875 
L 29.59375 11.921875 
L 46.6875 54.6875 
L 56.203125 54.6875 
z
" id="DejaVuSans-121"/>
     </defs>
     <g transform="translate(432.926562 532.276562)scale(0.1 -0.1)">
      <use xlink:href="#DejaVuSans-68"/>
      <use x="77.001953" xlink:href="#DejaVuSans-97"/>
      <use x="138.28125" xlink:href="#DejaVuSans-121"/>
     </g>
    </g>
   </g>
   <g id="matplotlib.axis_2">
    <g id="ytick_1">
     <g id="line2d_17">
      <path clip-path="url(#pac5daa521f)" d="M 108 493.076368 
L 777.6 493.076368 
" style="fill:none;stroke:#b0b0b0;stroke-linecap:square;stroke-width:0.8;"/>
     </g>
     <g id="line2d_18">
      <defs>
       <path d="M 0 0 
L -3.5 0 
" id="m9ceb5ce86c" style="stroke:#000000;stroke-width:0.8;"/>
      </defs>
      <g>
       <use style="stroke:#000000;stroke-width:0.8;" x="108" xlink:href="#m9ceb5ce86c" y="493.076368"/>
      </g>
     </g>
     <g id="text_10">
      <!-- 0 -->
      <g transform="translate(94.6375 496.875587)scale(0.1 -0.1)">
       <use xlink:href="#DejaVuSans-48"/>
      </g>
     </g>
    </g>
    <g id="ytick_2">
     <g id="line2d_19">
      <path clip-path="url(#pac5daa521f)" d="M 108 443.164921 
L 777.6 443.164921 
" style="fill:none;stroke:#b0b0b0;stroke-linecap:square;stroke-width:0.8;"/>
     </g>
     <g id="line2d_20">
      <g>
       <use style="stroke:#000000;stroke-width:0.8;" x="108" xlink:href="#m9ceb5ce86c" y="443.164921"/>
      </g>
     </g>
     <g id="text_11">
      <!-- 20 -->
      <g transform="translate(88.275 446.96414)scale(0.1 -0.1)">
       <use xlink:href="#DejaVuSans-50"/>
       <use x="63.623047" xlink:href="#DejaVuSans-48"/>
      </g>
     </g>
    </g>
    <g id="ytick_3">
     <g id="line2d_21">
      <path clip-path="url(#pac5daa521f)" d="M 108 393.253474 
L 777.6 393.253474 
" style="fill:none;stroke:#b0b0b0;stroke-linecap:square;stroke-width:0.8;"/>
     </g>
     <g id="line2d_22">
      <g>
       <use style="stroke:#000000;stroke-width:0.8;" x="108" xlink:href="#m9ceb5ce86c" y="393.253474"/>
      </g>
     </g>
     <g id="text_12">
      <!-- 40 -->
      <defs>
       <path d="M 37.796875 64.3125 
L 12.890625 25.390625 
L 37.796875 25.390625 
z
M 35.203125 72.90625 
L 47.609375 72.90625 
L 47.609375 25.390625 
L 58.015625 25.390625 
L 58.015625 17.1875 
L 47.609375 17.1875 
L 47.609375 0 
L 37.796875 0 
L 37.796875 17.1875 
L 4.890625 17.1875 
L 4.890625 26.703125 
z
" id="DejaVuSans-52"/>
      </defs>
      <g transform="translate(88.275 397.052692)scale(0.1 -0.1)">
       <use xlink:href="#DejaVuSans-52"/>
       <use x="63.623047" xlink:href="#DejaVuSans-48"/>
      </g>
     </g>
    </g>
    <g id="ytick_4">
     <g id="line2d_23">
      <path clip-path="url(#pac5daa521f)" d="M 108 343.342026 
L 777.6 343.342026 
" style="fill:none;stroke:#b0b0b0;stroke-linecap:square;stroke-width:0.8;"/>
     </g>
     <g id="line2d_24">
      <g>
       <use style="stroke:#000000;stroke-width:0.8;" x="108" xlink:href="#m9ceb5ce86c" y="343.342026"/>
      </g>
     </g>
     <g id="text_13">
      <!-- 60 -->
      <defs>
       <path d="M 33.015625 40.375 
Q 26.375 40.375 22.484375 35.828125 
Q 18.609375 31.296875 18.609375 23.390625 
Q 18.609375 15.53125 22.484375 10.953125 
Q 26.375 6.390625 33.015625 6.390625 
Q 39.65625 6.390625 43.53125 10.953125 
Q 47.40625 15.53125 47.40625 23.390625 
Q 47.40625 31.296875 43.53125 35.828125 
Q 39.65625 40.375 33.015625 40.375 
z
M 52.59375 71.296875 
L 52.59375 62.3125 
Q 48.875 64.0625 45.09375 64.984375 
Q 41.3125 65.921875 37.59375 65.921875 
Q 27.828125 65.921875 22.671875 59.328125 
Q 17.53125 52.734375 16.796875 39.40625 
Q 19.671875 43.65625 24.015625 45.921875 
Q 28.375 48.1875 33.59375 48.1875 
Q 44.578125 48.1875 50.953125 41.515625 
Q 57.328125 34.859375 57.328125 23.390625 
Q 57.328125 12.15625 50.6875 5.359375 
Q 44.046875 -1.421875 33.015625 -1.421875 
Q 20.359375 -1.421875 13.671875 8.265625 
Q 6.984375 17.96875 6.984375 36.375 
Q 6.984375 53.65625 15.1875 63.9375 
Q 23.390625 74.21875 37.203125 74.21875 
Q 40.921875 74.21875 44.703125 73.484375 
Q 48.484375 72.75 52.59375 71.296875 
z
" id="DejaVuSans-54"/>
      </defs>
      <g transform="translate(88.275 347.141245)scale(0.1 -0.1)">
       <use xlink:href="#DejaVuSans-54"/>
       <use x="63.623047" xlink:href="#DejaVuSans-48"/>
      </g>
     </g>
    </g>
    <g id="ytick_5">
     <g id="line2d_25">
      <path clip-path="url(#pac5daa521f)" d="M 108 293.430579 
L 777.6 293.430579 
" style="fill:none;stroke:#b0b0b0;stroke-linecap:square;stroke-width:0.8;"/>
     </g>
     <g id="line2d_26">
      <g>
       <use style="stroke:#000000;stroke-width:0.8;" x="108" xlink:href="#m9ceb5ce86c" y="293.430579"/>
      </g>
     </g>
     <g id="text_14">
      <!-- 80 -->
      <defs>
       <path d="M 31.78125 34.625 
Q 24.75 34.625 20.71875 30.859375 
Q 16.703125 27.09375 16.703125 20.515625 
Q 16.703125 13.921875 20.71875 10.15625 
Q 24.75 6.390625 31.78125 6.390625 
Q 38.8125 6.390625 42.859375 10.171875 
Q 46.921875 13.96875 46.921875 20.515625 
Q 46.921875 27.09375 42.890625 30.859375 
Q 38.875 34.625 31.78125 34.625 
z
M 21.921875 38.8125 
Q 15.578125 40.375 12.03125 44.71875 
Q 8.5 49.078125 8.5 55.328125 
Q 8.5 64.0625 14.71875 69.140625 
Q 20.953125 74.21875 31.78125 74.21875 
Q 42.671875 74.21875 48.875 69.140625 
Q 55.078125 64.0625 55.078125 55.328125 
Q 55.078125 49.078125 51.53125 44.71875 
Q 48 40.375 41.703125 38.8125 
Q 48.828125 37.15625 52.796875 32.3125 
Q 56.78125 27.484375 56.78125 20.515625 
Q 56.78125 9.90625 50.3125 4.234375 
Q 43.84375 -1.421875 31.78125 -1.421875 
Q 19.734375 -1.421875 13.25 4.234375 
Q 6.78125 9.90625 6.78125 20.515625 
Q 6.78125 27.484375 10.78125 32.3125 
Q 14.796875 37.15625 21.921875 38.8125 
z
M 18.3125 54.390625 
Q 18.3125 48.734375 21.84375 45.5625 
Q 25.390625 42.390625 31.78125 42.390625 
Q 38.140625 42.390625 41.71875 45.5625 
Q 45.3125 48.734375 45.3125 54.390625 
Q 45.3125 60.0625 41.71875 63.234375 
Q 38.140625 66.40625 31.78125 66.40625 
Q 25.390625 66.40625 21.84375 63.234375 
Q 18.3125 60.0625 18.3125 54.390625 
z
" id="DejaVuSans-56"/>
      </defs>
      <g transform="translate(88.275 297.229798)scale(0.1 -0.1)">
       <use xlink:href="#DejaVuSans-56"/>
       <use x="63.623047" xlink:href="#DejaVuSans-48"/>
      </g>
     </g>
    </g>
    <g id="ytick_6">
     <g id="line2d_27">
      <path clip-path="url(#pac5daa521f)" d="M 108 243.519132 
L 777.6 243.519132 
" style="fill:none;stroke:#b0b0b0;stroke-linecap:square;stroke-width:0.8;"/>
     </g>
     <g id="line2d_28">
      <g>
       <use style="stroke:#000000;stroke-width:0.8;" x="108" xlink:href="#m9ceb5ce86c" y="243.519132"/>
      </g>
     </g>
     <g id="text_15">
      <!-- 100 -->
      <g transform="translate(81.9125 247.31835)scale(0.1 -0.1)">
       <use xlink:href="#DejaVuSans-49"/>
       <use x="63.623047" xlink:href="#DejaVuSans-48"/>
       <use x="127.246094" xlink:href="#DejaVuSans-48"/>
      </g>
     </g>
    </g>
    <g id="ytick_7">
     <g id="line2d_29">
      <path clip-path="url(#pac5daa521f)" d="M 108 193.607684 
L 777.6 193.607684 
" style="fill:none;stroke:#b0b0b0;stroke-linecap:square;stroke-width:0.8;"/>
     </g>
     <g id="line2d_30">
      <g>
       <use style="stroke:#000000;stroke-width:0.8;" x="108" xlink:href="#m9ceb5ce86c" y="193.607684"/>
      </g>
     </g>
     <g id="text_16">
      <!-- 120 -->
      <g transform="translate(81.9125 197.406903)scale(0.1 -0.1)">
       <use xlink:href="#DejaVuSans-49"/>
       <use x="63.623047" xlink:href="#DejaVuSans-50"/>
       <use x="127.246094" xlink:href="#DejaVuSans-48"/>
      </g>
     </g>
    </g>
    <g id="ytick_8">
     <g id="line2d_31">
      <path clip-path="url(#pac5daa521f)" d="M 108 143.696237 
L 777.6 143.696237 
" style="fill:none;stroke:#b0b0b0;stroke-linecap:square;stroke-width:0.8;"/>
     </g>
     <g id="line2d_32">
      <g>
       <use style="stroke:#000000;stroke-width:0.8;" x="108" xlink:href="#m9ceb5ce86c" y="143.696237"/>
      </g>
     </g>
     <g id="text_17">
      <!-- 140 -->
      <g transform="translate(81.9125 147.495456)scale(0.1 -0.1)">
       <use xlink:href="#DejaVuSans-49"/>
       <use x="63.623047" xlink:href="#DejaVuSans-52"/>
       <use x="127.246094" xlink:href="#DejaVuSans-48"/>
      </g>
     </g>
    </g>
    <g id="ytick_9">
     <g id="line2d_33">
      <path clip-path="url(#pac5daa521f)" d="M 108 93.78479 
L 777.6 93.78479 
" style="fill:none;stroke:#b0b0b0;stroke-linecap:square;stroke-width:0.8;"/>
     </g>
     <g id="line2d_34">
      <g>
       <use style="stroke:#000000;stroke-width:0.8;" x="108" xlink:href="#m9ceb5ce86c" y="93.78479"/>
      </g>
     </g>
     <g id="text_18">
      <!-- 160 -->
      <g transform="translate(81.9125 97.584009)scale(0.1 -0.1)">
       <use xlink:href="#DejaVuSans-49"/>
       <use x="63.623047" xlink:href="#DejaVuSans-54"/>
       <use x="127.246094" xlink:href="#DejaVuSans-48"/>
      </g>
     </g>
    </g>
    <g id="text_19">
     <!-- max 8h $O_3$ $[\mu g/m^3$] -->
     <defs>
      <path d="M 52 44.1875 
Q 55.375 50.25 60.0625 53.125 
Q 64.75 56 71.09375 56 
Q 79.640625 56 84.28125 50.015625 
Q 88.921875 44.046875 88.921875 33.015625 
L 88.921875 0 
L 79.890625 0 
L 79.890625 32.71875 
Q 79.890625 40.578125 77.09375 44.375 
Q 74.3125 48.1875 68.609375 48.1875 
Q 61.625 48.1875 57.5625 43.546875 
Q 53.515625 38.921875 53.515625 30.90625 
L 53.515625 0 
L 44.484375 0 
L 44.484375 32.71875 
Q 44.484375 40.625 41.703125 44.40625 
Q 38.921875 48.1875 33.109375 48.1875 
Q 26.21875 48.1875 22.15625 43.53125 
Q 18.109375 38.875 18.109375 30.90625 
L 18.109375 0 
L 9.078125 0 
L 9.078125 54.6875 
L 18.109375 54.6875 
L 18.109375 46.1875 
Q 21.1875 51.21875 25.484375 53.609375 
Q 29.78125 56 35.6875 56 
Q 41.65625 56 45.828125 52.96875 
Q 50 49.953125 52 44.1875 
z
" id="DejaVuSans-109"/>
      <path d="M 54.890625 54.6875 
L 35.109375 28.078125 
L 55.90625 0 
L 45.3125 0 
L 29.390625 21.484375 
L 13.484375 0 
L 2.875 0 
L 24.125 28.609375 
L 4.6875 54.6875 
L 15.28125 54.6875 
L 29.78125 35.203125 
L 44.28125 54.6875 
z
" id="DejaVuSans-120"/>
      <path id="DejaVuSans-32"/>
      <path d="M 54.890625 33.015625 
L 54.890625 0 
L 45.90625 0 
L 45.90625 32.71875 
Q 45.90625 40.484375 42.875 44.328125 
Q 39.84375 48.1875 33.796875 48.1875 
Q 26.515625 48.1875 22.3125 43.546875 
Q 18.109375 38.921875 18.109375 30.90625 
L 18.109375 0 
L 9.078125 0 
L 9.078125 75.984375 
L 18.109375 75.984375 
L 18.109375 46.1875 
Q 21.34375 51.125 25.703125 53.5625 
Q 30.078125 56 35.796875 56 
Q 45.21875 56 50.046875 50.171875 
Q 54.890625 44.34375 54.890625 33.015625 
z
" id="DejaVuSans-104"/>
      <path d="M 45.609375 66.21875 
Q 37.5 66.21875 31.296875 62.28125 
Q 25.09375 58.34375 20.515625 50.296875 
Q 17.578125 45.171875 16.03125 39.40625 
Q 14.5 33.640625 14.5 27.78125 
Q 14.5 17.625 19.359375 12.109375 
Q 24.21875 6.59375 33.109375 6.59375 
Q 41.109375 6.59375 47.375 10.5625 
Q 53.65625 14.546875 58.109375 22.40625 
Q 61.078125 27.6875 62.640625 33.46875 
Q 64.203125 39.265625 64.203125 45.015625 
Q 64.203125 55.125 59.3125 60.671875 
Q 54.4375 66.21875 45.609375 66.21875 
z
M 32.8125 -1.421875 
Q 19.390625 -1.421875 11.6875 6.53125 
Q 4 14.5 4 28.328125 
Q 4 36.234375 7 44.484375 
Q 10.015625 52.734375 15.28125 59.1875 
Q 21.484375 66.75 29.09375 70.484375 
Q 36.71875 74.21875 45.90625 74.21875 
Q 59.28125 74.21875 66.984375 66.328125 
Q 74.703125 58.453125 74.703125 44.828125 
Q 74.703125 36.421875 71.765625 28.3125 
Q 68.84375 20.21875 63.375 13.625 
Q 57.125 6 49.578125 2.28125 
Q 42.046875 -1.421875 32.8125 -1.421875 
z
" id="DejaVuSans-Oblique-79"/>
      <path d="M 8.59375 75.984375 
L 29.296875 75.984375 
L 29.296875 69 
L 17.578125 69 
L 17.578125 -6.203125 
L 29.296875 -6.203125 
L 29.296875 -13.1875 
L 8.59375 -13.1875 
z
" id="DejaVuSans-91"/>
      <path d="M -1.3125 -20.796875 
L 13.375 54.6875 
L 22.40625 54.6875 
L 15.765625 20.65625 
Q 15.578125 19.625 15.421875 18.359375 
Q 15.28125 17.09375 15.28125 15.828125 
Q 15.28125 11.28125 18.140625 8.828125 
Q 21 6.390625 26.3125 6.390625 
Q 33.546875 6.390625 37.984375 10.484375 
Q 42.4375 14.59375 44 22.796875 
L 50.203125 54.6875 
L 59.1875 54.6875 
L 51.03125 12.640625 
Q 50.828125 11.71875 50.75 11.03125 
Q 50.6875 10.359375 50.6875 9.8125 
Q 50.6875 8.296875 51.296875 7.59375 
Q 51.90625 6.890625 53.21875 6.890625 
Q 53.71875 6.890625 54.5625 7.125 
Q 55.421875 7.375 56.984375 8.015625 
L 55.609375 0.78125 
Q 53.46875 -0.296875 51.515625 -0.859375 
Q 49.5625 -1.421875 47.703125 -1.421875 
Q 44.484375 -1.421875 42.65625 0.625 
Q 40.828125 2.6875 40.828125 6.296875 
Q 38.09375 2.390625 34.296875 0.484375 
Q 30.515625 -1.421875 25.390625 -1.421875 
Q 20.84375 -1.421875 17.453125 0.671875 
Q 14.0625 2.78125 12.984375 6.203125 
L 7.71875 -20.796875 
z
" id="DejaVuSans-Oblique-956"/>
      <path d="M 59.625 54.6875 
L 50.296875 6.78125 
Q 47.609375 -7.125 40.015625 -13.953125 
Q 32.421875 -20.796875 19.578125 -20.796875 
Q 14.84375 -20.796875 10.78125 -20.09375 
Q 6.734375 -19.390625 3.21875 -17.921875 
L 4.890625 -9.1875 
Q 8.203125 -11.328125 11.90625 -12.34375 
Q 15.625 -13.375 19.828125 -13.375 
Q 28.375 -13.375 33.859375 -8.703125 
Q 39.359375 -4.046875 41.109375 4.6875 
L 41.890625 8.796875 
Q 38.140625 4.5 33.15625 2.25 
Q 28.171875 0 22.40625 0 
Q 14.109375 0 9.34375 5.484375 
Q 4.59375 10.984375 4.59375 20.609375 
Q 4.59375 28.171875 7.46875 35.421875 
Q 10.359375 42.671875 15.578125 48.296875 
Q 19.046875 52 23.65625 54 
Q 28.265625 56 33.296875 56 
Q 38.8125 56 42.90625 53.4375 
Q 47.015625 50.875 49.03125 46.1875 
L 50.59375 54.6875 
z
M 46.09375 34.625 
Q 46.09375 41.265625 42.96875 44.875 
Q 39.84375 48.484375 34.078125 48.484375 
Q 30.515625 48.484375 27.296875 47.0625 
Q 24.078125 45.65625 21.78125 43.109375 
Q 18.0625 38.921875 15.984375 33.234375 
Q 13.921875 27.546875 13.921875 21.484375 
Q 13.921875 14.75 17.0625 11.125 
Q 20.21875 7.515625 26.125 7.515625 
Q 34.671875 7.515625 40.375 15.25 
Q 46.09375 23 46.09375 34.625 
z
" id="DejaVuSans-Oblique-103"/>
      <path d="M 25.390625 72.90625 
L 33.6875 72.90625 
L 8.296875 -9.28125 
L 0 -9.28125 
z
" id="DejaVuSans-47"/>
      <path d="M 89.796875 33.015625 
L 83.40625 0 
L 74.421875 0 
L 80.71875 32.71875 
Q 81.109375 34.8125 81.296875 36.328125 
Q 81.5 37.84375 81.5 38.921875 
Q 81.5 43.3125 79.046875 45.75 
Q 76.609375 48.1875 72.21875 48.1875 
Q 65.671875 48.1875 60.546875 43.28125 
Q 55.421875 38.375 53.90625 30.515625 
L 47.90625 0 
L 38.921875 0 
L 45.3125 32.71875 
Q 45.703125 34.515625 45.890625 36.046875 
Q 46.09375 37.59375 46.09375 38.8125 
Q 46.09375 43.265625 43.65625 45.71875 
Q 41.21875 48.1875 36.921875 48.1875 
Q 30.28125 48.1875 25.140625 43.28125 
Q 20.015625 38.375 18.5 30.515625 
L 12.5 0 
L 3.515625 0 
L 14.203125 54.6875 
L 23.1875 54.6875 
L 21.484375 46.1875 
Q 25.140625 50.984375 30.046875 53.484375 
Q 34.96875 56 40.578125 56 
Q 46.53125 56 50.359375 52.875 
Q 54.203125 49.75 54.984375 44.1875 
Q 59.078125 49.953125 64.46875 52.96875 
Q 69.875 56 75.875 56 
Q 82.90625 56 86.734375 51.953125 
Q 90.578125 47.90625 90.578125 40.484375 
Q 90.578125 38.875 90.375 36.9375 
Q 90.1875 35.015625 89.796875 33.015625 
z
" id="DejaVuSans-Oblique-109"/>
      <path d="M 30.421875 75.984375 
L 30.421875 -13.1875 
L 9.71875 -13.1875 
L 9.71875 -6.203125 
L 21.390625 -6.203125 
L 21.390625 69 
L 9.71875 69 
L 9.71875 75.984375 
z
" id="DejaVuSans-93"/>
     </defs>
     <g transform="translate(75.8125 334.31)rotate(-90)scale(0.1 -0.1)">
      <use transform="translate(0 0.765625)" xlink:href="#DejaVuSans-109"/>
      <use transform="translate(97.412109 0.765625)" xlink:href="#DejaVuSans-97"/>
      <use transform="translate(158.691406 0.765625)" xlink:href="#DejaVuSans-120"/>
      <use transform="translate(217.871094 0.765625)" xlink:href="#DejaVuSans-32"/>
      <use transform="translate(249.658203 0.765625)" xlink:href="#DejaVuSans-56"/>
      <use transform="translate(313.28125 0.765625)" xlink:href="#DejaVuSans-104"/>
      <use transform="translate(376.660156 0.765625)" xlink:href="#DejaVuSans-32"/>
      <use transform="translate(408.447266 0.765625)" xlink:href="#DejaVuSans-Oblique-79"/>
      <use transform="translate(487.158203 -15.640625)scale(0.7)" xlink:href="#DejaVuSans-51"/>
      <use transform="translate(534.428711 0.765625)" xlink:href="#DejaVuSans-32"/>
      <use transform="translate(566.21582 0.765625)" xlink:href="#DejaVuSans-91"/>
      <use transform="translate(605.229492 0.765625)" xlink:href="#DejaVuSans-Oblique-956"/>
      <use transform="translate(668.852539 0.765625)" xlink:href="#DejaVuSans-Oblique-103"/>
      <use transform="translate(732.329102 0.765625)" xlink:href="#DejaVuSans-47"/>
      <use transform="translate(766.020508 0.765625)" xlink:href="#DejaVuSans-Oblique-109"/>
      <use transform="translate(868.082513 39.046875)scale(0.7)" xlink:href="#DejaVuSans-51"/>
      <use transform="translate(915.353021 0.765625)" xlink:href="#DejaVuSans-93"/>
     </g>
    </g>
   </g>
   <g id="line2d_35">
    <path clip-path="url(#pac5daa521f)" d="M 138.436364 377.42366 
L 140.108691 396.297349 
L 141.781019 394.297882 
L 143.453347 405.736481 
L 145.125674 438.764294 
L 146.798002 389.150512 
L 148.47033 455.064298 
L 150.142657 430.041218 
L 151.814985 385.718932 
L 153.487313 392.010162 
L 155.15964 468.218688 
L 156.831968 459.925703 
L 158.504296 429.757541 
L 160.176623 386.002609 
L 161.848951 449.589785 
L 163.521279 417.072134 
L 165.193606 377.711912 
L 173.555245 429.899379 
L 175.227572 423.178058 
L 176.8999 445.668633 
L 178.572228 449.589785 
L 180.244555 427.469821 
L 181.916883 385.044055 
L 183.589211 395.725419 
L 185.261538 365.598435 
L 186.933866 345.825672 
L 190.278521 366.55699 
L 191.950849 368.988836 
L 193.623177 357.122433 
L 195.295504 375.076459 
L 196.967832 369.846731 
L 198.64016 354.48698 
L 200.312488 429.613414 
L 210.346454 365.557257 
L 212.018781 390.866302 
L 213.691109 420.318408 
L 215.363437 315.083292 
L 217.035764 355.978573 
L 218.708092 348.543483 
L 220.38042 344.681812 
L 222.052747 350.831203 
L 223.725075 349.115413 
L 225.397403 327.954004 
L 228.742058 347.255497 
L 230.414386 335.816898 
L 232.086713 322.518382 
L 233.759041 305.790574 
L 235.431369 325.949962 
L 237.103696 367.559011 
L 238.776024 346.111637 
L 240.448352 379.569541 
L 242.120679 321.804613 
L 243.793007 356.978307 
L 245.465335 334.101108 
L 247.137662 324.522424 
L 248.80999 365.108863 
L 250.482318 342.108127 
L 252.154645 351.544972 
L 253.826973 368.130941 
L 255.499301 374.708136 
L 257.171628 351.0554 
L 258.843956 364.617004 
L 260.516284 353.832692 
L 262.188611 363.637859 
L 263.860939 294.514402 
L 265.533267 271.904866 
L 267.205594 299.499344 
L 268.877922 333.385051 
L 270.55025 343.968044 
L 272.222577 310.651978 
L 273.894905 336.864673 
L 275.567233 308.508385 
L 277.23956 309.059725 
L 278.911888 297.353463 
L 280.584216 323.929905 
L 282.256543 323.806368 
L 283.928871 336.816631 
L 285.601199 316.085313 
L 287.273526 309.549297 
L 288.945854 316.371278 
L 290.618182 306.280146 
L 292.290509 321.946452 
L 293.962837 317.087335 
L 295.635165 298.497323 
L 297.307493 288.918639 
L 298.97982 348.971287 
L 300.652148 380.141471 
L 302.324476 316.657243 
L 303.996803 315.371545 
L 305.669131 348.399357 
L 307.341459 328.237681 
L 309.013786 269.47302 
L 310.686114 317.659265 
L 312.358442 290.634429 
L 314.030769 313.655755 
L 315.703097 287.774779 
L 317.375425 249.311344 
L 319.047752 317.515138 
L 320.72008 311.651712 
L 322.392408 315.371545 
L 324.064735 293.349953 
L 325.737063 321.090844 
L 327.409391 274.764516 
L 329.081718 195.694053 
L 330.754046 331.527423 
L 334.098701 229.865725 
L 335.771029 217.550929 
L 337.443357 256.277451 
L 340.788012 343.251987 
L 342.46034 357.264272 
L 344.132667 307.506364 
L 345.804995 310.855586 
L 347.477323 332.957248 
L 349.14965 346.315244 
L 350.821978 279.623633 
L 352.494306 285.201094 
L 354.166633 301.501099 
L 355.838961 343.679791 
L 357.511289 362.125677 
L 359.183616 334.876645 
L 360.855944 346.397602 
L 362.528272 249.903864 
L 364.200599 295.353995 
L 365.872927 327.361485 
L 367.545255 317.229173 
L 369.217582 311.837017 
L 370.88991 254.458714 
L 372.562238 296.639694 
L 374.234565 288.346709 
L 375.906893 313.939432 
L 377.579221 250.171527 
L 379.251548 271.474775 
L 380.923876 310.366013 
L 382.596204 314.799615 
L 384.268531 308.792062 
L 385.940859 272.476796 
L 387.613187 337.104884 
L 389.285514 360.695852 
L 390.957842 350.687077 
L 392.63017 271.332936 
L 394.302498 234.441165 
L 395.974825 188.403089 
L 397.647153 131.92386 
L 399.319481 256.462757 
L 400.991808 311.223908 
L 402.664136 324.806102 
L 404.336464 377.281821 
L 406.008791 361.98155 
L 407.681119 289.776534 
L 409.353447 319.802858 
L 411.025774 304.360749 
L 412.698102 305.790574 
L 414.37043 287.978386 
L 416.042757 278.909865 
L 417.715085 313.511628 
L 419.387413 371.992613 
L 421.05974 345.825672 
L 422.732068 359.69383 
L 424.404396 344.19224 
L 426.076723 255.318897 
L 427.749051 190.75029 
L 429.421379 105.756919 
L 431.093706 219.511505 
L 432.766034 168.95747 
L 434.438362 110.190521 
L 436.110689 88.887273 
L 437.783017 247.126572 
L 439.455345 281.48355 
L 442.8 207.276779 
L 444.472328 253.010587 
L 446.144655 258.178547 
L 447.816983 343.251987 
L 449.489311 282.423802 
L 451.161638 203.129142 
L 452.833966 133.497811 
L 461.195604 299.357505 
L 466.212587 306.792595 
L 467.884915 327.237948 
L 469.557243 276.480306 
L 471.22957 196.551948 
L 472.901898 182.395537 
L 474.574226 253.173016 
L 476.246553 315.513383 
L 477.918881 358.266293 
L 479.591209 283.343466 
L 481.263536 300.785042 
L 482.935864 360.26576 
L 484.608192 379.999632 
L 486.280519 323.662242 
L 487.952847 382.429191 
L 489.625175 302.848566 
L 491.297502 291.062233 
L 492.96983 346.152816 
L 494.642158 359.266027 
L 496.314486 326.052909 
L 497.986813 366.742295 
L 499.659141 358.408132 
L 501.331469 316.657243 
L 503.003796 297.293982 
L 504.676124 388.148491 
L 506.348452 300.88799 
L 508.020779 307.936455 
L 509.693107 366.415151 
L 511.365435 337.676814 
L 513.037762 318.210605 
L 514.71009 300.643204 
L 516.382418 354.834713 
L 518.054745 354.546461 
L 519.727073 337.960491 
L 521.399401 362.55348 
L 523.071728 331.772209 
L 524.744056 289.918373 
L 526.416384 328.525934 
L 528.088711 333.529178 
L 529.761039 339.820407 
L 531.433367 330.241724 
L 533.105694 344.539974 
L 536.45035 387.146469 
L 538.122677 355.69032 
L 539.795005 358.694097 
L 541.467333 345.825672 
L 543.13966 326.238214 
L 544.811988 322.090578 
L 546.484316 347.971553 
L 548.156643 371.992613 
L 549.828971 327.665751 
L 551.501299 301.073295 
L 553.173626 293.862402 
L 554.845954 314.799615 
L 556.518282 363.555502 
L 558.190609 369.41664 
L 559.862937 374.280333 
L 561.535265 329.669794 
L 563.207592 396.297349 
L 564.87992 354.118657 
L 566.552248 361.267782 
L 568.224575 323.602761 
L 569.896903 333.080785 
L 571.569231 373.932599 
L 573.241558 337.676814 
L 574.913886 350.728256 
L 576.586214 300.785042 
L 578.258541 333.243213 
L 579.930869 279.339956 
L 581.603197 296.802122 
L 583.275524 371.992613 
L 584.947852 336.512364 
L 588.292507 400.403806 
L 589.964835 437.19263 
L 591.637163 427.694017 
L 593.309491 421.034465 
L 594.981818 360.695852 
L 596.654146 375.996122 
L 598.326474 321.642185 
L 599.998801 337.388561 
L 601.671129 372.134451 
L 603.343457 403.160509 
L 605.015784 424.321918 
L 606.688112 374.422171 
L 608.36044 392.723931 
L 610.032767 375.70787 
L 611.705095 403.160509 
L 613.377423 433.902889 
L 615.04975 399.097518 
L 616.722078 429.757541 
L 618.394406 388.290329 
L 620.066733 384.858749 
L 621.739061 390.436211 
L 623.411389 366.845243 
L 625.083716 371.420683 
L 626.756044 365.98506 
L 628.428372 389.006386 
L 630.100699 395.01165 
L 631.773027 387.718399 
L 633.445355 387.004631 
L 635.117682 368.84471 
L 636.79001 391.149979 
L 638.462338 368.416906 
L 640.134665 389.434189 
L 641.806993 368.561033 
L 643.479321 363.985593 
L 645.151648 348.113392 
L 646.823976 458.209913 
L 648.496304 396.869279 
L 650.168631 381.571296 
L 651.840959 371.562521 
L 653.513287 364.26927 
L 655.185614 359.410153 
L 656.857942 418.543138 
L 658.53027 339.534442 
L 660.202597 359.69383 
L 661.874925 443.053769 
L 663.547253 351.259007 
L 665.21958 327.809878 
L 666.891908 351.0554 
L 668.564236 358.980062 
L 670.236563 358.838223 
L 671.908891 481.514916 
L 673.581219 420.606661 
L 675.253546 422.178324 
L 676.925874 412.496694 
L 678.598202 418.030688 
L 680.270529 469.035404 
L 690.304496 389.292351 
L 691.976823 422.606128 
L 693.649151 469.524976 
L 695.321479 478.371589 
L 696.993806 427.897624 
L 698.666134 468.218688 
L 700.338462 478.799392 
L 702.010789 374.708136 
L 703.683117 368.213299 
L 705.355445 440.335957 
L 707.027772 484.232727 
L 708.7001 475.408992 
L 710.372428 409.168061 
L 712.044755 448.118781 
L 713.717083 407.921254 
L 715.389411 364.557523 
L 717.061738 365.43372 
L 718.734066 402.732705 
L 720.406394 413.150982 
L 722.078721 374.749315 
L 723.751049 359.389564 
L 725.423377 376.220319 
L 727.095704 376.85173 
L 728.768032 430.901401 
L 730.44036 435.332714 
L 732.112687 482.375099 
L 733.785015 457.923948 
L 735.457343 405.795962 
L 737.12967 377.853751 
L 738.801998 414.171305 
L 740.474326 362.841733 
L 742.146653 355.548482 
L 743.818981 427.611659 
L 745.491309 401.87481 
L 747.163636 411.59762 
L 747.163636 411.59762 
" style="fill:none;stroke:#1f77b4;stroke-linecap:square;stroke-width:1.5;"/>
   </g>
   <g id="line2d_36">
    <path clip-path="url(#pac5daa521f)" d="M 138.436364 418.043176 
L 140.108691 399.465168 
L 141.781019 424.882563 
L 143.453347 402.153564 
L 145.125674 392.672828 
L 146.798002 404.609549 
L 148.47033 393.616417 
L 150.142657 424.787335 
L 151.814985 390.477842 
L 153.487313 392.364768 
L 155.15964 428.224733 
L 156.831968 437.65059 
L 158.504296 424.819589 
L 160.176623 414.468397 
L 161.848951 420.714098 
L 163.521279 369.433711 
L 165.193606 378.453164 
L 166.865934 399.946004 
L 168.538262 413.698548 
L 170.210589 373.581492 
L 171.882917 407.899481 
L 173.555245 382.52899 
L 175.227572 403.477048 
L 176.8999 417.460007 
L 178.572228 440.675434 
L 180.244555 431.325 
L 181.916883 408.391881 
L 183.589211 366.420825 
L 185.261538 366.26469 
L 186.933866 365.732626 
L 188.606194 349.628125 
L 190.278521 355.582021 
L 191.950849 346.267179 
L 193.623177 364.529892 
L 195.295504 333.39274 
L 196.967832 348.494093 
L 198.64016 373.908632 
L 200.312488 368.791862 
L 201.984815 390.372028 
L 203.657143 384.420339 
L 205.329471 373.341117 
L 207.001798 375.592122 
L 208.674126 373.889885 
L 210.346454 367.311012 
L 212.018781 382.287259 
L 213.691109 378.461267 
L 215.363437 369.197148 
L 217.035764 361.086856 
L 218.708092 364.701016 
L 220.38042 347.669271 
L 222.052747 347.244069 
L 223.725075 337.471668 
L 225.397403 336.502676 
L 227.06973 350.662927 
L 228.742058 339.185015 
L 230.414386 332.599777 
L 232.086713 329.111052 
L 233.759041 323.582945 
L 235.431369 330.698965 
L 237.103696 335.615433 
L 238.776024 351.635799 
L 240.448352 348.436409 
L 242.120679 354.310432 
L 243.793007 347.366742 
L 245.465335 337.70814 
L 247.137662 338.505889 
L 248.80999 369.52803 
L 250.482318 356.975914 
L 252.154645 352.888939 
L 253.826973 355.794993 
L 255.499301 345.528025 
L 257.171628 356.772555 
L 258.843956 342.519264 
L 260.516284 342.288275 
L 262.188611 342.70643 
L 263.860939 313.412601 
L 265.533267 274.370012 
L 267.205594 312.604018 
L 268.877922 316.141153 
L 270.55025 334.228841 
L 272.222577 316.893764 
L 273.894905 308.749938 
L 275.567233 291.726742 
L 277.23956 286.832019 
L 278.911888 308.90363 
L 280.584216 311.30685 
L 282.256543 321.758268 
L 283.928871 325.795738 
L 285.601199 323.918829 
L 287.273526 314.713685 
L 288.945854 310.257777 
L 290.618182 303.782228 
L 292.290509 313.141593 
L 293.962837 321.638672 
L 295.635165 325.681393 
L 297.307493 271.647318 
L 298.97982 269.04972 
L 300.652148 327.23143 
L 302.324476 331.667928 
L 303.996803 310.475892 
L 305.669131 318.770989 
L 307.341459 303.34289 
L 309.013786 292.052424 
L 310.686114 283.068542 
L 312.358442 285.997196 
L 314.030769 310.278492 
L 315.703097 285.482536 
L 317.375425 253.525328 
L 319.047752 281.154249 
L 320.72008 302.965432 
L 322.392408 310.074442 
L 324.064735 305.764649 
L 325.737063 274.082346 
L 327.409391 249.726215 
L 329.081718 243.877111 
L 330.754046 272.665235 
L 332.426374 282.183098 
L 334.098701 240.396876 
L 335.771029 227.405093 
L 337.443357 287.006971 
L 339.115684 294.46732 
L 340.788012 330.42189 
L 342.46034 351.036504 
L 344.132667 322.961164 
L 345.804995 313.271331 
L 347.477323 315.776749 
L 349.14965 352.702596 
L 350.821978 345.349223 
L 352.494306 308.446198 
L 354.166633 303.216655 
L 355.838961 317.104012 
L 357.511289 345.128526 
L 359.183616 347.256792 
L 360.855944 305.875036 
L 362.528272 314.948071 
L 364.200599 276.212562 
L 365.872927 299.637618 
L 367.545255 293.480616 
L 370.88991 246.095572 
L 372.562238 248.313719 
L 374.234565 272.715006 
L 375.906893 231.658028 
L 377.579221 253.462215 
L 379.251548 260.121764 
L 380.923876 314.06272 
L 382.596204 300.057042 
L 384.268531 302.168799 
L 385.940859 284.356957 
L 387.613187 306.21616 
L 389.285514 337.130878 
L 390.957842 328.348956 
L 392.63017 276.9497 
L 394.302498 233.009137 
L 397.647153 153.321767 
L 399.319481 218.88953 
L 400.991808 294.681325 
L 402.664136 306.732705 
L 404.336464 357.371167 
L 406.008791 350.941507 
L 407.681119 331.410103 
L 409.353447 308.853715 
L 411.025774 315.955118 
L 412.698102 273.574068 
L 414.37043 287.109556 
L 416.042757 255.698546 
L 417.715085 239.638716 
L 419.387413 324.185312 
L 421.05974 335.652698 
L 422.732068 343.305048 
L 424.404396 313.329052 
L 426.076723 269.625349 
L 427.749051 185.212563 
L 429.421379 176.981462 
L 431.093706 154.182425 
L 432.766034 170.009206 
L 434.438362 132.974744 
L 436.110689 120.507515 
L 437.783017 145.38287 
L 439.455345 229.111954 
L 441.127672 240.418965 
L 442.8 154.931204 
L 444.472328 257.226598 
L 446.144655 243.205793 
L 447.816983 286.697917 
L 449.489311 306.091793 
L 451.161638 248.346548 
L 452.833966 173.135834 
L 454.506294 133.029053 
L 456.178621 139.413938 
L 457.850949 191.568821 
L 459.523277 297.812429 
L 461.195604 281.448471 
L 462.867932 313.588478 
L 464.54026 301.566469 
L 466.212587 314.961361 
L 467.884915 298.055022 
L 469.557243 276.294666 
L 471.22957 195.070814 
L 472.901898 198.678758 
L 474.574226 264.343064 
L 476.246553 268.820774 
L 477.918881 320.422641 
L 479.591209 297.997998 
L 481.263536 330.630055 
L 482.935864 325.496902 
L 484.608192 328.811266 
L 486.280519 326.127862 
L 487.952847 336.525965 
L 489.625175 321.018734 
L 491.297502 320.601533 
L 492.96983 310.470736 
L 494.642158 342.621556 
L 496.314486 327.038623 
L 497.986813 325.610447 
L 499.659141 338.91033 
L 501.331469 309.072234 
L 503.003796 323.844724 
L 504.676124 322.541828 
L 506.348452 317.154291 
L 508.020779 330.703894 
L 509.693107 300.783387 
L 511.365435 350.113541 
L 513.037762 334.190812 
L 514.71009 301.124011 
L 516.382418 336.427821 
L 518.054745 357.059705 
L 519.727073 351.950534 
L 521.399401 320.862746 
L 523.071728 329.379784 
L 524.744056 254.814056 
L 526.416384 285.187757 
L 528.088711 341.179975 
L 529.761039 325.536922 
L 531.433367 323.392953 
L 533.105694 343.120053 
L 534.778022 349.430309 
L 536.45035 362.097032 
L 538.122677 349.477183 
L 539.795005 350.641538 
L 541.467333 347.914722 
L 543.13966 356.008741 
L 544.811988 345.963274 
L 546.484316 350.371125 
L 548.156643 353.532952 
L 549.828971 337.926182 
L 551.501299 289.915261 
L 553.173626 292.749711 
L 554.845954 344.440389 
L 556.518282 351.000412 
L 558.190609 353.469197 
L 559.862937 363.181751 
L 561.535265 333.709971 
L 563.207592 356.973179 
L 564.87992 355.297923 
L 566.552248 360.069017 
L 568.224575 329.532074 
L 569.896903 347.703834 
L 571.569231 348.588961 
L 573.241558 354.777653 
L 574.913886 350.481388 
L 576.586214 344.074516 
L 578.258541 325.669396 
L 579.930869 303.978258 
L 581.603197 334.049544 
L 583.275524 336.915014 
L 584.947852 359.056422 
L 586.62018 358.104188 
L 588.292507 411.113743 
L 589.964835 393.295956 
L 591.637163 386.459899 
L 593.309491 388.811809 
L 594.981818 358.568193 
L 596.654146 369.512827 
L 598.326474 325.459986 
L 599.998801 328.166305 
L 605.015784 383.539183 
L 606.688112 383.624233 
L 608.36044 370.304376 
L 610.032767 369.397526 
L 611.705095 369.484463 
L 613.377423 401.335068 
L 615.04975 408.508105 
L 616.722078 420.501798 
L 618.394406 423.210449 
L 620.066733 380.04038 
L 621.739061 384.308949 
L 623.411389 376.868362 
L 625.083716 365.760728 
L 626.756044 371.771884 
L 628.428372 353.205802 
L 630.100699 380.199248 
L 631.773027 372.836561 
L 633.445355 378.011856 
L 635.117682 384.784159 
L 636.79001 372.145073 
L 638.462338 382.430332 
L 640.134665 370.400087 
L 641.806993 363.551072 
L 643.479321 371.71056 
L 645.151648 383.979262 
L 646.823976 401.676615 
L 648.496304 402.075745 
L 650.168631 363.003476 
L 651.840959 357.402253 
L 653.513287 372.041808 
L 655.185614 365.846892 
L 656.857942 377.068271 
L 658.53027 357.532504 
L 660.202597 374.574845 
L 661.874925 375.233044 
L 663.547253 352.485629 
L 665.21958 344.260413 
L 666.891908 359.49447 
L 668.564236 351.679499 
L 670.236563 390.628991 
L 671.908891 440.635893 
L 673.581219 436.505924 
L 675.253546 420.32189 
L 676.925874 423.368458 
L 678.598202 410.842209 
L 680.270529 420.697012 
L 681.942857 432.576679 
L 683.615185 430.826493 
L 685.287512 415.620992 
L 686.95984 422.005389 
L 688.632168 420.000153 
L 690.304496 408.206012 
L 691.976823 424.946164 
L 693.649151 398.904677 
L 695.321479 404.664895 
L 696.993806 399.549172 
L 698.666134 419.651253 
L 700.338462 446.449901 
L 702.010789 438.219253 
L 703.683117 409.181802 
L 705.355445 405.747642 
L 707.027772 436.856271 
L 708.7001 445.71343 
L 710.372428 426.115169 
L 712.044755 398.010354 
L 713.717083 407.421064 
L 715.389411 399.916557 
L 717.061738 418.78214 
L 718.734066 419.881249 
L 720.406394 416.61654 
L 722.078721 365.932232 
L 723.751049 364.895551 
L 725.423377 362.676212 
L 727.095704 368.376392 
L 730.44036 441.382929 
L 732.112687 438.542019 
L 733.785015 446.102692 
L 735.457343 427.62406 
L 737.12967 424.741064 
L 738.801998 414.906035 
L 740.474326 412.728576 
L 742.146653 405.63998 
L 743.818981 412.406682 
L 745.491309 431.487089 
L 747.163636 428.249403 
L 747.163636 428.249403 
" style="fill:none;stroke:#ff7f0e;stroke-linecap:square;stroke-width:1.5;"/>
   </g>
   <g id="patch_3">
    <path d="M 108 504 
L 108 69.12 
" style="fill:none;stroke:#000000;stroke-linecap:square;stroke-linejoin:miter;stroke-width:0.8;"/>
   </g>
   <g id="patch_4">
    <path d="M 777.6 504 
L 777.6 69.12 
" style="fill:none;stroke:#000000;stroke-linecap:square;stroke-linejoin:miter;stroke-width:0.8;"/>
   </g>
   <g id="patch_5">
    <path d="M 108 504 
L 777.6 504 
" style="fill:none;stroke:#000000;stroke-linecap:square;stroke-linejoin:miter;stroke-width:0.8;"/>
   </g>
   <g id="patch_6">
    <path d="M 108 69.12 
L 777.6 69.12 
" style="fill:none;stroke:#000000;stroke-linecap:square;stroke-linejoin:miter;stroke-width:0.8;"/>
   </g>
   <g id="text_20">
    <!-- $O_3$ (Station: BETN073) 2010: Island DNN (MSE: 124.49, RMSE: 11.16, MAE: 8.51, MAPE: 25.17%, SMAPE: 18.25%, R2: 0.82, MASE: 0.63, IOA: 94.99%) -->
    <defs>
     <path d="M 31 75.875 
Q 24.46875 64.65625 21.28125 53.65625 
Q 18.109375 42.671875 18.109375 31.390625 
Q 18.109375 20.125 21.3125 9.0625 
Q 24.515625 -2 31 -13.1875 
L 23.1875 -13.1875 
Q 15.875 -1.703125 12.234375 9.375 
Q 8.59375 20.453125 8.59375 31.390625 
Q 8.59375 42.28125 12.203125 53.3125 
Q 15.828125 64.359375 23.1875 75.875 
z
" id="DejaVuSans-40"/>
     <path d="M 53.515625 70.515625 
L 53.515625 60.890625 
Q 47.90625 63.578125 42.921875 64.890625 
Q 37.9375 66.21875 33.296875 66.21875 
Q 25.25 66.21875 20.875 63.09375 
Q 16.5 59.96875 16.5 54.203125 
Q 16.5 49.359375 19.40625 46.890625 
Q 22.3125 44.4375 30.421875 42.921875 
L 36.375 41.703125 
Q 47.40625 39.59375 52.65625 34.296875 
Q 57.90625 29 57.90625 20.125 
Q 57.90625 9.515625 50.796875 4.046875 
Q 43.703125 -1.421875 29.984375 -1.421875 
Q 24.8125 -1.421875 18.96875 -0.25 
Q 13.140625 0.921875 6.890625 3.21875 
L 6.890625 13.375 
Q 12.890625 10.015625 18.65625 8.296875 
Q 24.421875 6.59375 29.984375 6.59375 
Q 38.421875 6.59375 43.015625 9.90625 
Q 47.609375 13.234375 47.609375 19.390625 
Q 47.609375 24.75 44.3125 27.78125 
Q 41.015625 30.8125 33.5 32.328125 
L 27.484375 33.5 
Q 16.453125 35.6875 11.515625 40.375 
Q 6.59375 45.0625 6.59375 53.421875 
Q 6.59375 63.09375 13.40625 68.65625 
Q 20.21875 74.21875 32.171875 74.21875 
Q 37.3125 74.21875 42.625 73.28125 
Q 47.953125 72.359375 53.515625 70.515625 
z
" id="DejaVuSans-83"/>
     <path d="M 18.3125 70.21875 
L 18.3125 54.6875 
L 36.8125 54.6875 
L 36.8125 47.703125 
L 18.3125 47.703125 
L 18.3125 18.015625 
Q 18.3125 11.328125 20.140625 9.421875 
Q 21.96875 7.515625 27.59375 7.515625 
L 36.8125 7.515625 
L 36.8125 0 
L 27.59375 0 
Q 17.1875 0 13.234375 3.875 
Q 9.28125 7.765625 9.28125 18.015625 
L 9.28125 47.703125 
L 2.6875 47.703125 
L 2.6875 54.6875 
L 9.28125 54.6875 
L 9.28125 70.21875 
z
" id="DejaVuSans-116"/>
     <path d="M 9.421875 54.6875 
L 18.40625 54.6875 
L 18.40625 0 
L 9.421875 0 
z
M 9.421875 75.984375 
L 18.40625 75.984375 
L 18.40625 64.59375 
L 9.421875 64.59375 
z
" id="DejaVuSans-105"/>
     <path d="M 30.609375 48.390625 
Q 23.390625 48.390625 19.1875 42.75 
Q 14.984375 37.109375 14.984375 27.296875 
Q 14.984375 17.484375 19.15625 11.84375 
Q 23.34375 6.203125 30.609375 6.203125 
Q 37.796875 6.203125 41.984375 11.859375 
Q 46.1875 17.53125 46.1875 27.296875 
Q 46.1875 37.015625 41.984375 42.703125 
Q 37.796875 48.390625 30.609375 48.390625 
z
M 30.609375 56 
Q 42.328125 56 49.015625 48.375 
Q 55.71875 40.765625 55.71875 27.296875 
Q 55.71875 13.875 49.015625 6.21875 
Q 42.328125 -1.421875 30.609375 -1.421875 
Q 18.84375 -1.421875 12.171875 6.21875 
Q 5.515625 13.875 5.515625 27.296875 
Q 5.515625 40.765625 12.171875 48.375 
Q 18.84375 56 30.609375 56 
z
" id="DejaVuSans-111"/>
     <path d="M 54.890625 33.015625 
L 54.890625 0 
L 45.90625 0 
L 45.90625 32.71875 
Q 45.90625 40.484375 42.875 44.328125 
Q 39.84375 48.1875 33.796875 48.1875 
Q 26.515625 48.1875 22.3125 43.546875 
Q 18.109375 38.921875 18.109375 30.90625 
L 18.109375 0 
L 9.078125 0 
L 9.078125 54.6875 
L 18.109375 54.6875 
L 18.109375 46.1875 
Q 21.34375 51.125 25.703125 53.5625 
Q 30.078125 56 35.796875 56 
Q 45.21875 56 50.046875 50.171875 
Q 54.890625 44.34375 54.890625 33.015625 
z
" id="DejaVuSans-110"/>
     <path d="M 11.71875 12.40625 
L 22.015625 12.40625 
L 22.015625 0 
L 11.71875 0 
z
M 11.71875 51.703125 
L 22.015625 51.703125 
L 22.015625 39.3125 
L 11.71875 39.3125 
z
" id="DejaVuSans-58"/>
     <path d="M 19.671875 34.8125 
L 19.671875 8.109375 
L 35.5 8.109375 
Q 43.453125 8.109375 47.28125 11.40625 
Q 51.125 14.703125 51.125 21.484375 
Q 51.125 28.328125 47.28125 31.5625 
Q 43.453125 34.8125 35.5 34.8125 
z
M 19.671875 64.796875 
L 19.671875 42.828125 
L 34.28125 42.828125 
Q 41.5 42.828125 45.03125 45.53125 
Q 48.578125 48.25 48.578125 53.8125 
Q 48.578125 59.328125 45.03125 62.0625 
Q 41.5 64.796875 34.28125 64.796875 
z
M 9.8125 72.90625 
L 35.015625 72.90625 
Q 46.296875 72.90625 52.390625 68.21875 
Q 58.5 63.53125 58.5 54.890625 
Q 58.5 48.1875 55.375 44.234375 
Q 52.25 40.28125 46.1875 39.3125 
Q 53.46875 37.75 57.5 32.78125 
Q 61.53125 27.828125 61.53125 20.40625 
Q 61.53125 10.640625 54.890625 5.3125 
Q 48.25 0 35.984375 0 
L 9.8125 0 
z
" id="DejaVuSans-66"/>
     <path d="M 9.8125 72.90625 
L 55.90625 72.90625 
L 55.90625 64.59375 
L 19.671875 64.59375 
L 19.671875 43.015625 
L 54.390625 43.015625 
L 54.390625 34.71875 
L 19.671875 34.71875 
L 19.671875 8.296875 
L 56.78125 8.296875 
L 56.78125 0 
L 9.8125 0 
z
" id="DejaVuSans-69"/>
     <path d="M -0.296875 72.90625 
L 61.375 72.90625 
L 61.375 64.59375 
L 35.5 64.59375 
L 35.5 0 
L 25.59375 0 
L 25.59375 64.59375 
L -0.296875 64.59375 
z
" id="DejaVuSans-84"/>
     <path d="M 9.8125 72.90625 
L 23.09375 72.90625 
L 55.421875 11.921875 
L 55.421875 72.90625 
L 64.984375 72.90625 
L 64.984375 0 
L 51.703125 0 
L 19.390625 60.984375 
L 19.390625 0 
L 9.8125 0 
z
" id="DejaVuSans-78"/>
     <path d="M 8.203125 72.90625 
L 55.078125 72.90625 
L 55.078125 68.703125 
L 28.609375 0 
L 18.3125 0 
L 43.21875 64.59375 
L 8.203125 64.59375 
z
" id="DejaVuSans-55"/>
     <path d="M 8.015625 75.875 
L 15.828125 75.875 
Q 23.140625 64.359375 26.78125 53.3125 
Q 30.421875 42.28125 30.421875 31.390625 
Q 30.421875 20.453125 26.78125 9.375 
Q 23.140625 -1.703125 15.828125 -13.1875 
L 8.015625 -13.1875 
Q 14.5 -2 17.703125 9.0625 
Q 20.90625 20.125 20.90625 31.390625 
Q 20.90625 42.671875 17.703125 53.65625 
Q 14.5 64.65625 8.015625 75.875 
z
" id="DejaVuSans-41"/>
     <path d="M 9.8125 72.90625 
L 19.671875 72.90625 
L 19.671875 0 
L 9.8125 0 
z
" id="DejaVuSans-73"/>
     <path d="M 44.28125 53.078125 
L 44.28125 44.578125 
Q 40.484375 46.53125 36.375 47.5 
Q 32.28125 48.484375 27.875 48.484375 
Q 21.1875 48.484375 17.84375 46.4375 
Q 14.5 44.390625 14.5 40.28125 
Q 14.5 37.15625 16.890625 35.375 
Q 19.28125 33.59375 26.515625 31.984375 
L 29.59375 31.296875 
Q 39.15625 29.25 43.1875 25.515625 
Q 47.21875 21.78125 47.21875 15.09375 
Q 47.21875 7.46875 41.1875 3.015625 
Q 35.15625 -1.421875 24.609375 -1.421875 
Q 20.21875 -1.421875 15.453125 -0.5625 
Q 10.6875 0.296875 5.421875 2 
L 5.421875 11.28125 
Q 10.40625 8.6875 15.234375 7.390625 
Q 20.0625 6.109375 24.8125 6.109375 
Q 31.15625 6.109375 34.5625 8.28125 
Q 37.984375 10.453125 37.984375 14.40625 
Q 37.984375 18.0625 35.515625 20.015625 
Q 33.0625 21.96875 24.703125 23.78125 
L 21.578125 24.515625 
Q 13.234375 26.265625 9.515625 29.90625 
Q 5.8125 33.546875 5.8125 39.890625 
Q 5.8125 47.609375 11.28125 51.796875 
Q 16.75 56 26.8125 56 
Q 31.78125 56 36.171875 55.265625 
Q 40.578125 54.546875 44.28125 53.078125 
z
" id="DejaVuSans-115"/>
     <path d="M 9.421875 75.984375 
L 18.40625 75.984375 
L 18.40625 0 
L 9.421875 0 
z
" id="DejaVuSans-108"/>
     <path d="M 45.40625 46.390625 
L 45.40625 75.984375 
L 54.390625 75.984375 
L 54.390625 0 
L 45.40625 0 
L 45.40625 8.203125 
Q 42.578125 3.328125 38.25 0.953125 
Q 33.9375 -1.421875 27.875 -1.421875 
Q 17.96875 -1.421875 11.734375 6.484375 
Q 5.515625 14.40625 5.515625 27.296875 
Q 5.515625 40.1875 11.734375 48.09375 
Q 17.96875 56 27.875 56 
Q 33.9375 56 38.25 53.625 
Q 42.578125 51.265625 45.40625 46.390625 
z
M 14.796875 27.296875 
Q 14.796875 17.390625 18.875 11.75 
Q 22.953125 6.109375 30.078125 6.109375 
Q 37.203125 6.109375 41.296875 11.75 
Q 45.40625 17.390625 45.40625 27.296875 
Q 45.40625 37.203125 41.296875 42.84375 
Q 37.203125 48.484375 30.078125 48.484375 
Q 22.953125 48.484375 18.875 42.84375 
Q 14.796875 37.203125 14.796875 27.296875 
z
" id="DejaVuSans-100"/>
     <path d="M 9.8125 72.90625 
L 24.515625 72.90625 
L 43.109375 23.296875 
L 61.8125 72.90625 
L 76.515625 72.90625 
L 76.515625 0 
L 66.890625 0 
L 66.890625 64.015625 
L 48.09375 14.015625 
L 38.1875 14.015625 
L 19.390625 64.015625 
L 19.390625 0 
L 9.8125 0 
z
" id="DejaVuSans-77"/>
     <path d="M 10.6875 12.40625 
L 21 12.40625 
L 21 0 
L 10.6875 0 
z
" id="DejaVuSans-46"/>
     <path d="M 10.984375 1.515625 
L 10.984375 10.5 
Q 14.703125 8.734375 18.5 7.8125 
Q 22.3125 6.890625 25.984375 6.890625 
Q 35.75 6.890625 40.890625 13.453125 
Q 46.046875 20.015625 46.78125 33.40625 
Q 43.953125 29.203125 39.59375 26.953125 
Q 35.25 24.703125 29.984375 24.703125 
Q 19.046875 24.703125 12.671875 31.3125 
Q 6.296875 37.9375 6.296875 49.421875 
Q 6.296875 60.640625 12.9375 67.421875 
Q 19.578125 74.21875 30.609375 74.21875 
Q 43.265625 74.21875 49.921875 64.515625 
Q 56.59375 54.828125 56.59375 36.375 
Q 56.59375 19.140625 48.40625 8.859375 
Q 40.234375 -1.421875 26.421875 -1.421875 
Q 22.703125 -1.421875 18.890625 -0.6875 
Q 15.09375 0.046875 10.984375 1.515625 
z
M 30.609375 32.421875 
Q 37.25 32.421875 41.125 36.953125 
Q 45.015625 41.5 45.015625 49.421875 
Q 45.015625 57.28125 41.125 61.84375 
Q 37.25 66.40625 30.609375 66.40625 
Q 23.96875 66.40625 20.09375 61.84375 
Q 16.21875 57.28125 16.21875 49.421875 
Q 16.21875 41.5 20.09375 36.953125 
Q 23.96875 32.421875 30.609375 32.421875 
z
" id="DejaVuSans-57"/>
     <path d="M 11.71875 12.40625 
L 22.015625 12.40625 
L 22.015625 4 
L 14.015625 -11.625 
L 7.71875 -11.625 
L 11.71875 4 
z
" id="DejaVuSans-44"/>
     <path d="M 44.390625 34.1875 
Q 47.5625 33.109375 50.5625 29.59375 
Q 53.5625 26.078125 56.59375 19.921875 
L 66.609375 0 
L 56 0 
L 46.6875 18.703125 
Q 43.0625 26.03125 39.671875 28.421875 
Q 36.28125 30.8125 30.421875 30.8125 
L 19.671875 30.8125 
L 19.671875 0 
L 9.8125 0 
L 9.8125 72.90625 
L 32.078125 72.90625 
Q 44.578125 72.90625 50.734375 67.671875 
Q 56.890625 62.453125 56.890625 51.90625 
Q 56.890625 45.015625 53.6875 40.46875 
Q 50.484375 35.9375 44.390625 34.1875 
z
M 19.671875 64.796875 
L 19.671875 38.921875 
L 32.078125 38.921875 
Q 39.203125 38.921875 42.84375 42.21875 
Q 46.484375 45.515625 46.484375 51.90625 
Q 46.484375 58.296875 42.84375 61.546875 
Q 39.203125 64.796875 32.078125 64.796875 
z
" id="DejaVuSans-82"/>
     <path d="M 34.1875 63.1875 
L 20.796875 26.90625 
L 47.609375 26.90625 
z
M 28.609375 72.90625 
L 39.796875 72.90625 
L 67.578125 0 
L 57.328125 0 
L 50.6875 18.703125 
L 17.828125 18.703125 
L 11.1875 0 
L 0.78125 0 
z
" id="DejaVuSans-65"/>
     <path d="M 19.671875 64.796875 
L 19.671875 37.40625 
L 32.078125 37.40625 
Q 38.96875 37.40625 42.71875 40.96875 
Q 46.484375 44.53125 46.484375 51.125 
Q 46.484375 57.671875 42.71875 61.234375 
Q 38.96875 64.796875 32.078125 64.796875 
z
M 9.8125 72.90625 
L 32.078125 72.90625 
Q 44.34375 72.90625 50.609375 67.359375 
Q 56.890625 61.8125 56.890625 51.125 
Q 56.890625 40.328125 50.609375 34.8125 
Q 44.34375 29.296875 32.078125 29.296875 
L 19.671875 29.296875 
L 19.671875 0 
L 9.8125 0 
z
" id="DejaVuSans-80"/>
     <path d="M 72.703125 32.078125 
Q 68.453125 32.078125 66.03125 28.46875 
Q 63.625 24.859375 63.625 18.40625 
Q 63.625 12.0625 66.03125 8.421875 
Q 68.453125 4.78125 72.703125 4.78125 
Q 76.859375 4.78125 79.265625 8.421875 
Q 81.6875 12.0625 81.6875 18.40625 
Q 81.6875 24.8125 79.265625 28.4375 
Q 76.859375 32.078125 72.703125 32.078125 
z
M 72.703125 38.28125 
Q 80.421875 38.28125 84.953125 32.90625 
Q 89.5 27.546875 89.5 18.40625 
Q 89.5 9.28125 84.9375 3.921875 
Q 80.375 -1.421875 72.703125 -1.421875 
Q 64.890625 -1.421875 60.34375 3.921875 
Q 55.8125 9.28125 55.8125 18.40625 
Q 55.8125 27.59375 60.375 32.9375 
Q 64.9375 38.28125 72.703125 38.28125 
z
M 22.3125 68.015625 
Q 18.109375 68.015625 15.6875 64.375 
Q 13.28125 60.75 13.28125 54.390625 
Q 13.28125 47.953125 15.671875 44.328125 
Q 18.0625 40.71875 22.3125 40.71875 
Q 26.5625 40.71875 28.96875 44.328125 
Q 31.390625 47.953125 31.390625 54.390625 
Q 31.390625 60.6875 28.953125 64.34375 
Q 26.515625 68.015625 22.3125 68.015625 
z
M 66.40625 74.21875 
L 74.21875 74.21875 
L 28.609375 -1.421875 
L 20.796875 -1.421875 
z
M 22.3125 74.21875 
Q 30.03125 74.21875 34.609375 68.875 
Q 39.203125 63.53125 39.203125 54.390625 
Q 39.203125 45.171875 34.640625 39.84375 
Q 30.078125 34.515625 22.3125 34.515625 
Q 14.546875 34.515625 10.03125 39.859375 
Q 5.515625 45.21875 5.515625 54.390625 
Q 5.515625 63.484375 10.046875 68.84375 
Q 14.59375 74.21875 22.3125 74.21875 
z
" id="DejaVuSans-37"/>
     <path d="M 39.40625 66.21875 
Q 28.65625 66.21875 22.328125 58.203125 
Q 16.015625 50.203125 16.015625 36.375 
Q 16.015625 22.609375 22.328125 14.59375 
Q 28.65625 6.59375 39.40625 6.59375 
Q 50.140625 6.59375 56.421875 14.59375 
Q 62.703125 22.609375 62.703125 36.375 
Q 62.703125 50.203125 56.421875 58.203125 
Q 50.140625 66.21875 39.40625 66.21875 
z
M 39.40625 74.21875 
Q 54.734375 74.21875 63.90625 63.9375 
Q 73.09375 53.65625 73.09375 36.375 
Q 73.09375 19.140625 63.90625 8.859375 
Q 54.734375 -1.421875 39.40625 -1.421875 
Q 24.03125 -1.421875 14.8125 8.828125 
Q 5.609375 19.09375 5.609375 36.375 
Q 5.609375 53.65625 14.8125 63.9375 
Q 24.03125 74.21875 39.40625 74.21875 
z
" id="DejaVuSans-79"/>
    </defs>
    <g transform="translate(-5.64 63.12)scale(0.12 -0.12)">
     <use transform="translate(0 0.015625)" xlink:href="#DejaVuSans-Oblique-79"/>
     <use transform="translate(78.710938 -16.390625)scale(0.7)" xlink:href="#DejaVuSans-51"/>
     <use transform="translate(125.981445 0.015625)" xlink:href="#DejaVuSans-32"/>
     <use transform="translate(157.768555 0.015625)" xlink:href="#DejaVuSans-40"/>
     <use transform="translate(196.782227 0.015625)" xlink:href="#DejaVuSans-83"/>
     <use transform="translate(260.258789 0.015625)" xlink:href="#DejaVuSans-116"/>
     <use transform="translate(299.467773 0.015625)" xlink:href="#DejaVuSans-97"/>
     <use transform="translate(360.74707 0.015625)" xlink:href="#DejaVuSans-116"/>
     <use transform="translate(399.956055 0.015625)" xlink:href="#DejaVuSans-105"/>
     <use transform="translate(427.739258 0.015625)" xlink:href="#DejaVuSans-111"/>
     <use transform="translate(488.920898 0.015625)" xlink:href="#DejaVuSans-110"/>
     <use transform="translate(552.299805 0.015625)" xlink:href="#DejaVuSans-58"/>
     <use transform="translate(585.991211 0.015625)" xlink:href="#DejaVuSans-32"/>
     <use transform="translate(617.77832 0.015625)" xlink:href="#DejaVuSans-66"/>
     <use transform="translate(686.381836 0.015625)" xlink:href="#DejaVuSans-69"/>
     <use transform="translate(749.56543 0.015625)" xlink:href="#DejaVuSans-84"/>
     <use transform="translate(810.649414 0.015625)" xlink:href="#DejaVuSans-78"/>
     <use transform="translate(885.454102 0.015625)" xlink:href="#DejaVuSans-48"/>
     <use transform="translate(949.077148 0.015625)" xlink:href="#DejaVuSans-55"/>
     <use transform="translate(1012.700195 0.015625)" xlink:href="#DejaVuSans-51"/>
     <use transform="translate(1076.323242 0.015625)" xlink:href="#DejaVuSans-41"/>
     <use transform="translate(1115.336914 0.015625)" xlink:href="#DejaVuSans-32"/>
     <use transform="translate(1147.124023 0.015625)" xlink:href="#DejaVuSans-50"/>
     <use transform="translate(1210.74707 0.015625)" xlink:href="#DejaVuSans-48"/>
     <use transform="translate(1274.370117 0.015625)" xlink:href="#DejaVuSans-49"/>
     <use transform="translate(1337.993164 0.015625)" xlink:href="#DejaVuSans-48"/>
     <use transform="translate(1401.616211 0.015625)" xlink:href="#DejaVuSans-58"/>
     <use transform="translate(1435.307617 0.015625)" xlink:href="#DejaVuSans-32"/>
     <use transform="translate(1467.094727 0.015625)" xlink:href="#DejaVuSans-73"/>
     <use transform="translate(1496.586914 0.015625)" xlink:href="#DejaVuSans-115"/>
     <use transform="translate(1548.686523 0.015625)" xlink:href="#DejaVuSans-108"/>
     <use transform="translate(1576.469727 0.015625)" xlink:href="#DejaVuSans-97"/>
     <use transform="translate(1637.749023 0.015625)" xlink:href="#DejaVuSans-110"/>
     <use transform="translate(1701.12793 0.015625)" xlink:href="#DejaVuSans-100"/>
     <use transform="translate(1764.604492 0.015625)" xlink:href="#DejaVuSans-32"/>
     <use transform="translate(1796.391602 0.015625)" xlink:href="#DejaVuSans-68"/>
     <use transform="translate(1873.393555 0.015625)" xlink:href="#DejaVuSans-78"/>
     <use transform="translate(1948.198242 0.015625)" xlink:href="#DejaVuSans-78"/>
     <use transform="translate(2023.00293 0.015625)" xlink:href="#DejaVuSans-32"/>
     <use transform="translate(2054.790039 0.015625)" xlink:href="#DejaVuSans-40"/>
     <use transform="translate(2093.803711 0.015625)" xlink:href="#DejaVuSans-77"/>
     <use transform="translate(2180.083008 0.015625)" xlink:href="#DejaVuSans-83"/>
     <use transform="translate(2243.55957 0.015625)" xlink:href="#DejaVuSans-69"/>
     <use transform="translate(2306.743164 0.015625)" xlink:href="#DejaVuSans-58"/>
     <use transform="translate(2340.43457 0.015625)" xlink:href="#DejaVuSans-32"/>
     <use transform="translate(2372.22168 0.015625)" xlink:href="#DejaVuSans-49"/>
     <use transform="translate(2435.844727 0.015625)" xlink:href="#DejaVuSans-50"/>
     <use transform="translate(2499.467773 0.015625)" xlink:href="#DejaVuSans-52"/>
     <use transform="translate(2563.09082 0.015625)" xlink:href="#DejaVuSans-46"/>
     <use transform="translate(2594.87793 0.015625)" xlink:href="#DejaVuSans-52"/>
     <use transform="translate(2658.500977 0.015625)" xlink:href="#DejaVuSans-57"/>
     <use transform="translate(2722.124023 0.015625)" xlink:href="#DejaVuSans-44"/>
     <use transform="translate(2753.911133 0.015625)" xlink:href="#DejaVuSans-32"/>
     <use transform="translate(2785.698242 0.015625)" xlink:href="#DejaVuSans-82"/>
     <use transform="translate(2855.180664 0.015625)" xlink:href="#DejaVuSans-77"/>
     <use transform="translate(2941.459961 0.015625)" xlink:href="#DejaVuSans-83"/>
     <use transform="translate(3004.936523 0.015625)" xlink:href="#DejaVuSans-69"/>
     <use transform="translate(3068.120117 0.015625)" xlink:href="#DejaVuSans-58"/>
     <use transform="translate(3101.811523 0.015625)" xlink:href="#DejaVuSans-32"/>
     <use transform="translate(3133.598633 0.015625)" xlink:href="#DejaVuSans-49"/>
     <use transform="translate(3197.22168 0.015625)" xlink:href="#DejaVuSans-49"/>
     <use transform="translate(3260.844727 0.015625)" xlink:href="#DejaVuSans-46"/>
     <use transform="translate(3292.631836 0.015625)" xlink:href="#DejaVuSans-49"/>
     <use transform="translate(3356.254883 0.015625)" xlink:href="#DejaVuSans-54"/>
     <use transform="translate(3419.87793 0.015625)" xlink:href="#DejaVuSans-44"/>
     <use transform="translate(3451.665039 0.015625)" xlink:href="#DejaVuSans-32"/>
     <use transform="translate(3483.452148 0.015625)" xlink:href="#DejaVuSans-77"/>
     <use transform="translate(3569.731445 0.015625)" xlink:href="#DejaVuSans-65"/>
     <use transform="translate(3638.139648 0.015625)" xlink:href="#DejaVuSans-69"/>
     <use transform="translate(3701.323242 0.015625)" xlink:href="#DejaVuSans-58"/>
     <use transform="translate(3735.014648 0.015625)" xlink:href="#DejaVuSans-32"/>
     <use transform="translate(3766.801758 0.015625)" xlink:href="#DejaVuSans-56"/>
     <use transform="translate(3830.424805 0.015625)" xlink:href="#DejaVuSans-46"/>
     <use transform="translate(3862.211914 0.015625)" xlink:href="#DejaVuSans-53"/>
     <use transform="translate(3925.834961 0.015625)" xlink:href="#DejaVuSans-49"/>
     <use transform="translate(3989.458008 0.015625)" xlink:href="#DejaVuSans-44"/>
     <use transform="translate(4021.245117 0.015625)" xlink:href="#DejaVuSans-32"/>
     <use transform="translate(4053.032227 0.015625)" xlink:href="#DejaVuSans-77"/>
     <use transform="translate(4139.311523 0.015625)" xlink:href="#DejaVuSans-65"/>
     <use transform="translate(4207.719727 0.015625)" xlink:href="#DejaVuSans-80"/>
     <use transform="translate(4268.022461 0.015625)" xlink:href="#DejaVuSans-69"/>
     <use transform="translate(4331.206055 0.015625)" xlink:href="#DejaVuSans-58"/>
     <use transform="translate(4364.897461 0.015625)" xlink:href="#DejaVuSans-32"/>
     <use transform="translate(4396.68457 0.015625)" xlink:href="#DejaVuSans-50"/>
     <use transform="translate(4460.307617 0.015625)" xlink:href="#DejaVuSans-53"/>
     <use transform="translate(4523.930664 0.015625)" xlink:href="#DejaVuSans-46"/>
     <use transform="translate(4555.717773 0.015625)" xlink:href="#DejaVuSans-49"/>
     <use transform="translate(4619.34082 0.015625)" xlink:href="#DejaVuSans-55"/>
     <use transform="translate(4682.963867 0.015625)" xlink:href="#DejaVuSans-37"/>
     <use transform="translate(4777.983398 0.015625)" xlink:href="#DejaVuSans-44"/>
     <use transform="translate(4809.770508 0.015625)" xlink:href="#DejaVuSans-32"/>
     <use transform="translate(4841.557617 0.015625)" xlink:href="#DejaVuSans-83"/>
     <use transform="translate(4905.03418 0.015625)" xlink:href="#DejaVuSans-77"/>
     <use transform="translate(4991.313477 0.015625)" xlink:href="#DejaVuSans-65"/>
     <use transform="translate(5059.72168 0.015625)" xlink:href="#DejaVuSans-80"/>
     <use transform="translate(5120.024414 0.015625)" xlink:href="#DejaVuSans-69"/>
     <use transform="translate(5183.208008 0.015625)" xlink:href="#DejaVuSans-58"/>
     <use transform="translate(5216.899414 0.015625)" xlink:href="#DejaVuSans-32"/>
     <use transform="translate(5248.686523 0.015625)" xlink:href="#DejaVuSans-49"/>
     <use transform="translate(5312.30957 0.015625)" xlink:href="#DejaVuSans-56"/>
     <use transform="translate(5375.932617 0.015625)" xlink:href="#DejaVuSans-46"/>
     <use transform="translate(5407.641602 0.015625)" xlink:href="#DejaVuSans-50"/>
     <use transform="translate(5471.264648 0.015625)" xlink:href="#DejaVuSans-53"/>
     <use transform="translate(5534.887695 0.015625)" xlink:href="#DejaVuSans-37"/>
     <use transform="translate(5629.907227 0.015625)" xlink:href="#DejaVuSans-44"/>
     <use transform="translate(5661.694336 0.015625)" xlink:href="#DejaVuSans-32"/>
     <use transform="translate(5693.481445 0.015625)" xlink:href="#DejaVuSans-82"/>
     <use transform="translate(5762.963867 0.015625)" xlink:href="#DejaVuSans-50"/>
     <use transform="translate(5826.586914 0.015625)" xlink:href="#DejaVuSans-58"/>
     <use transform="translate(5860.27832 0.015625)" xlink:href="#DejaVuSans-32"/>
     <use transform="translate(5892.06543 0.015625)" xlink:href="#DejaVuSans-48"/>
     <use transform="translate(5955.688477 0.015625)" xlink:href="#DejaVuSans-46"/>
     <use transform="translate(5987.444336 0.015625)" xlink:href="#DejaVuSans-56"/>
     <use transform="translate(6051.067383 0.015625)" xlink:href="#DejaVuSans-50"/>
     <use transform="translate(6114.69043 0.015625)" xlink:href="#DejaVuSans-44"/>
     <use transform="translate(6146.477539 0.015625)" xlink:href="#DejaVuSans-32"/>
     <use transform="translate(6178.264648 0.015625)" xlink:href="#DejaVuSans-77"/>
     <use transform="translate(6264.543945 0.015625)" xlink:href="#DejaVuSans-65"/>
     <use transform="translate(6332.952148 0.015625)" xlink:href="#DejaVuSans-83"/>
     <use transform="translate(6396.428711 0.015625)" xlink:href="#DejaVuSans-69"/>
     <use transform="translate(6459.612305 0.015625)" xlink:href="#DejaVuSans-58"/>
     <use transform="translate(6493.303711 0.015625)" xlink:href="#DejaVuSans-32"/>
     <use transform="translate(6525.09082 0.015625)" xlink:href="#DejaVuSans-48"/>
     <use transform="translate(6588.713867 0.015625)" xlink:href="#DejaVuSans-46"/>
     <use transform="translate(6620.500977 0.015625)" xlink:href="#DejaVuSans-54"/>
     <use transform="translate(6684.124023 0.015625)" xlink:href="#DejaVuSans-51"/>
     <use transform="translate(6747.74707 0.015625)" xlink:href="#DejaVuSans-44"/>
     <use transform="translate(6779.53418 0.015625)" xlink:href="#DejaVuSans-32"/>
     <use transform="translate(6811.321289 0.015625)" xlink:href="#DejaVuSans-73"/>
     <use transform="translate(6840.813477 0.015625)" xlink:href="#DejaVuSans-79"/>
     <use transform="translate(6919.524414 0.015625)" xlink:href="#DejaVuSans-65"/>
     <use transform="translate(6987.932617 0.015625)" xlink:href="#DejaVuSans-58"/>
     <use transform="translate(7021.624023 0.015625)" xlink:href="#DejaVuSans-32"/>
     <use transform="translate(7053.411133 0.015625)" xlink:href="#DejaVuSans-57"/>
     <use transform="translate(7117.03418 0.015625)" xlink:href="#DejaVuSans-52"/>
     <use transform="translate(7180.657227 0.015625)" xlink:href="#DejaVuSans-46"/>
     <use transform="translate(7212.444336 0.015625)" xlink:href="#DejaVuSans-57"/>
     <use transform="translate(7276.067383 0.015625)" xlink:href="#DejaVuSans-57"/>
     <use transform="translate(7339.69043 0.015625)" xlink:href="#DejaVuSans-37"/>
     <use transform="translate(7434.709961 0.015625)" xlink:href="#DejaVuSans-41"/>
    </g>
   </g>
   <g id="legend_1">
    <g id="patch_7">
     <path d="M 690.94375 106.47625 
L 770.6 106.47625 
Q 772.6 106.47625 772.6 104.47625 
L 772.6 76.12 
Q 772.6 74.12 770.6 74.12 
L 690.94375 74.12 
Q 688.94375 74.12 688.94375 76.12 
L 688.94375 104.47625 
Q 688.94375 106.47625 690.94375 106.47625 
z
" style="fill:#ffffff;opacity:0.8;stroke:#cccccc;stroke-linejoin:miter;"/>
    </g>
    <g id="line2d_37">
     <path d="M 692.94375 82.218437 
L 712.94375 82.218437 
" style="fill:none;stroke:#1f77b4;stroke-linecap:square;stroke-width:1.5;"/>
    </g>
    <g id="line2d_38"/>
    <g id="text_21">
     <!-- expected -->
     <defs>
      <path d="M 56.203125 29.59375 
L 56.203125 25.203125 
L 14.890625 25.203125 
Q 15.484375 15.921875 20.484375 11.0625 
Q 25.484375 6.203125 34.421875 6.203125 
Q 39.59375 6.203125 44.453125 7.46875 
Q 49.3125 8.734375 54.109375 11.28125 
L 54.109375 2.78125 
Q 49.265625 0.734375 44.1875 -0.34375 
Q 39.109375 -1.421875 33.890625 -1.421875 
Q 20.796875 -1.421875 13.15625 6.1875 
Q 5.515625 13.8125 5.515625 26.8125 
Q 5.515625 40.234375 12.765625 48.109375 
Q 20.015625 56 32.328125 56 
Q 43.359375 56 49.78125 48.890625 
Q 56.203125 41.796875 56.203125 29.59375 
z
M 47.21875 32.234375 
Q 47.125 39.59375 43.09375 43.984375 
Q 39.0625 48.390625 32.421875 48.390625 
Q 24.90625 48.390625 20.390625 44.140625 
Q 15.875 39.890625 15.1875 32.171875 
z
" id="DejaVuSans-101"/>
      <path d="M 18.109375 8.203125 
L 18.109375 -20.796875 
L 9.078125 -20.796875 
L 9.078125 54.6875 
L 18.109375 54.6875 
L 18.109375 46.390625 
Q 20.953125 51.265625 25.265625 53.625 
Q 29.59375 56 35.59375 56 
Q 45.5625 56 51.78125 48.09375 
Q 58.015625 40.1875 58.015625 27.296875 
Q 58.015625 14.40625 51.78125 6.484375 
Q 45.5625 -1.421875 35.59375 -1.421875 
Q 29.59375 -1.421875 25.265625 0.953125 
Q 20.953125 3.328125 18.109375 8.203125 
z
M 48.6875 27.296875 
Q 48.6875 37.203125 44.609375 42.84375 
Q 40.53125 48.484375 33.40625 48.484375 
Q 26.265625 48.484375 22.1875 42.84375 
Q 18.109375 37.203125 18.109375 27.296875 
Q 18.109375 17.390625 22.1875 11.75 
Q 26.265625 6.109375 33.40625 6.109375 
Q 40.53125 6.109375 44.609375 11.75 
Q 48.6875 17.390625 48.6875 27.296875 
z
" id="DejaVuSans-112"/>
      <path d="M 48.78125 52.59375 
L 48.78125 44.1875 
Q 44.96875 46.296875 41.140625 47.34375 
Q 37.3125 48.390625 33.40625 48.390625 
Q 24.65625 48.390625 19.8125 42.84375 
Q 14.984375 37.3125 14.984375 27.296875 
Q 14.984375 17.28125 19.8125 11.734375 
Q 24.65625 6.203125 33.40625 6.203125 
Q 37.3125 6.203125 41.140625 7.25 
Q 44.96875 8.296875 48.78125 10.40625 
L 48.78125 2.09375 
Q 45.015625 0.34375 40.984375 -0.53125 
Q 36.96875 -1.421875 32.421875 -1.421875 
Q 20.0625 -1.421875 12.78125 6.34375 
Q 5.515625 14.109375 5.515625 27.296875 
Q 5.515625 40.671875 12.859375 48.328125 
Q 20.21875 56 33.015625 56 
Q 37.15625 56 41.109375 55.140625 
Q 45.0625 54.296875 48.78125 52.59375 
z
" id="DejaVuSans-99"/>
     </defs>
     <g transform="translate(720.94375 85.718437)scale(0.1 -0.1)">
      <use xlink:href="#DejaVuSans-101"/>
      <use x="61.507812" xlink:href="#DejaVuSans-120"/>
      <use x="120.6875" xlink:href="#DejaVuSans-112"/>
      <use x="184.164062" xlink:href="#DejaVuSans-101"/>
      <use x="245.6875" xlink:href="#DejaVuSans-99"/>
      <use x="300.667969" xlink:href="#DejaVuSans-116"/>
      <use x="339.876953" xlink:href="#DejaVuSans-101"/>
      <use x="401.400391" xlink:href="#DejaVuSans-100"/>
     </g>
    </g>
    <g id="line2d_39">
     <path d="M 692.94375 96.896563 
L 712.94375 96.896563 
" style="fill:none;stroke:#ff7f0e;stroke-linecap:square;stroke-width:1.5;"/>
    </g>
    <g id="line2d_40"/>
    <g id="text_22">
     <!-- predicted -->
     <defs>
      <path d="M 41.109375 46.296875 
Q 39.59375 47.171875 37.8125 47.578125 
Q 36.03125 48 33.890625 48 
Q 26.265625 48 22.1875 43.046875 
Q 18.109375 38.09375 18.109375 28.8125 
L 18.109375 0 
L 9.078125 0 
L 9.078125 54.6875 
L 18.109375 54.6875 
L 18.109375 46.1875 
Q 20.953125 51.171875 25.484375 53.578125 
Q 30.03125 56 36.53125 56 
Q 37.453125 56 38.578125 55.875 
Q 39.703125 55.765625 41.0625 55.515625 
z
" id="DejaVuSans-114"/>
     </defs>
     <g transform="translate(720.94375 100.396563)scale(0.1 -0.1)">
      <use xlink:href="#DejaVuSans-112"/>
      <use x="63.476562" xlink:href="#DejaVuSans-114"/>
      <use x="104.558594" xlink:href="#DejaVuSans-101"/>
      <use x="166.082031" xlink:href="#DejaVuSans-100"/>
      <use x="229.558594" xlink:href="#DejaVuSans-105"/>
      <use x="257.341797" xlink:href="#DejaVuSans-99"/>
      <use x="312.322266" xlink:href="#DejaVuSans-116"/>
      <use x="351.53125" xlink:href="#DejaVuSans-101"/>
      <use x="413.054688" xlink:href="#DejaVuSans-100"/>
     </g>
    </g>
   </g>
  </g>
 </g>
 <defs>
  <clipPath id="pac5daa521f">
   <rect height="434.88" width="669.6" x="108" y="69.12"/>
  </clipPath>
 </defs>
</svg>
