<?xml version="1.0" encoding="utf-8" standalone="no"?>
<!DOCTYPE svg PUBLIC "-//W3C//DTD SVG 1.1//EN"
  "http://www.w3.org/Graphics/SVG/1.1/DTD/svg11.dtd">
<!-- Created with matplotlib (https://matplotlib.org/) -->
<svg height="432pt" version="1.1" viewBox="0 0 576 432" width="576pt" xmlns="http://www.w3.org/2000/svg" xmlns:xlink="http://www.w3.org/1999/xlink">
 <defs>
  <style type="text/css">
*{stroke-linecap:butt;stroke-linejoin:round;white-space:pre;}
  </style>
 </defs>
 <g id="figure_1">
  <g id="patch_1">
   <path d="M 0 432 
L 576 432 
L 576 0 
L 0 0 
z
" style="fill:#ffffff;"/>
  </g>
  <g id="axes_1">
   <g id="patch_2">
    <path d="M 72 378 
L 518.4 378 
L 518.4 51.84 
L 72 51.84 
z
" style="fill:#ffffff;"/>
   </g>
   <g id="matplotlib.axis_1">
    <g id="xtick_1">
     <g id="line2d_1">
      <path clip-path="url(#p977ddf41da)" d="M 92.290909 378 
L 92.290909 51.84 
" style="fill:none;stroke:#b0b0b0;stroke-linecap:square;stroke-width:0.8;"/>
     </g>
     <g id="line2d_2">
      <defs>
       <path d="M 0 0 
L 0 3.5 
" id="m329c5829eb" style="stroke:#000000;stroke-width:0.8;"/>
      </defs>
      <g>
       <use style="stroke:#000000;stroke-width:0.8;" x="92.290909" xlink:href="#m329c5829eb" y="378"/>
      </g>
     </g>
     <g id="text_1">
      <!-- 0 -->
      <defs>
       <path d="M 31.78125 66.40625 
Q 24.171875 66.40625 20.328125 58.90625 
Q 16.5 51.421875 16.5 36.375 
Q 16.5 21.390625 20.328125 13.890625 
Q 24.171875 6.390625 31.78125 6.390625 
Q 39.453125 6.390625 43.28125 13.890625 
Q 47.125 21.390625 47.125 36.375 
Q 47.125 51.421875 43.28125 58.90625 
Q 39.453125 66.40625 31.78125 66.40625 
z
M 31.78125 74.21875 
Q 44.046875 74.21875 50.515625 64.515625 
Q 56.984375 54.828125 56.984375 36.375 
Q 56.984375 17.96875 50.515625 8.265625 
Q 44.046875 -1.421875 31.78125 -1.421875 
Q 19.53125 -1.421875 13.0625 8.265625 
Q 6.59375 17.96875 6.59375 36.375 
Q 6.59375 54.828125 13.0625 64.515625 
Q 19.53125 74.21875 31.78125 74.21875 
z
" id="DejaVuSans-48"/>
      </defs>
      <g transform="translate(89.109659 392.598437)scale(0.1 -0.1)">
       <use xlink:href="#DejaVuSans-48"/>
      </g>
     </g>
    </g>
    <g id="xtick_2">
     <g id="line2d_3">
      <path clip-path="url(#p977ddf41da)" d="M 147.882441 378 
L 147.882441 51.84 
" style="fill:none;stroke:#b0b0b0;stroke-linecap:square;stroke-width:0.8;"/>
     </g>
     <g id="line2d_4">
      <g>
       <use style="stroke:#000000;stroke-width:0.8;" x="147.882441" xlink:href="#m329c5829eb" y="378"/>
      </g>
     </g>
     <g id="text_2">
      <!-- 50 -->
      <defs>
       <path d="M 10.796875 72.90625 
L 49.515625 72.90625 
L 49.515625 64.59375 
L 19.828125 64.59375 
L 19.828125 46.734375 
Q 21.96875 47.46875 24.109375 47.828125 
Q 26.265625 48.1875 28.421875 48.1875 
Q 40.625 48.1875 47.75 41.5 
Q 54.890625 34.8125 54.890625 23.390625 
Q 54.890625 11.625 47.5625 5.09375 
Q 40.234375 -1.421875 26.90625 -1.421875 
Q 22.3125 -1.421875 17.546875 -0.640625 
Q 12.796875 0.140625 7.71875 1.703125 
L 7.71875 11.625 
Q 12.109375 9.234375 16.796875 8.0625 
Q 21.484375 6.890625 26.703125 6.890625 
Q 35.15625 6.890625 40.078125 11.328125 
Q 45.015625 15.765625 45.015625 23.390625 
Q 45.015625 31 40.078125 35.4375 
Q 35.15625 39.890625 26.703125 39.890625 
Q 22.75 39.890625 18.8125 39.015625 
Q 14.890625 38.140625 10.796875 36.28125 
z
" id="DejaVuSans-53"/>
      </defs>
      <g transform="translate(141.519941 392.598437)scale(0.1 -0.1)">
       <use xlink:href="#DejaVuSans-53"/>
       <use x="63.623047" xlink:href="#DejaVuSans-48"/>
      </g>
     </g>
    </g>
    <g id="xtick_3">
     <g id="line2d_5">
      <path clip-path="url(#p977ddf41da)" d="M 203.473973 378 
L 203.473973 51.84 
" style="fill:none;stroke:#b0b0b0;stroke-linecap:square;stroke-width:0.8;"/>
     </g>
     <g id="line2d_6">
      <g>
       <use style="stroke:#000000;stroke-width:0.8;" x="203.473973" xlink:href="#m329c5829eb" y="378"/>
      </g>
     </g>
     <g id="text_3">
      <!-- 100 -->
      <defs>
       <path d="M 12.40625 8.296875 
L 28.515625 8.296875 
L 28.515625 63.921875 
L 10.984375 60.40625 
L 10.984375 69.390625 
L 28.421875 72.90625 
L 38.28125 72.90625 
L 38.28125 8.296875 
L 54.390625 8.296875 
L 54.390625 0 
L 12.40625 0 
z
" id="DejaVuSans-49"/>
      </defs>
      <g transform="translate(193.930223 392.598437)scale(0.1 -0.1)">
       <use xlink:href="#DejaVuSans-49"/>
       <use x="63.623047" xlink:href="#DejaVuSans-48"/>
       <use x="127.246094" xlink:href="#DejaVuSans-48"/>
      </g>
     </g>
    </g>
    <g id="xtick_4">
     <g id="line2d_7">
      <path clip-path="url(#p977ddf41da)" d="M 259.065504 378 
L 259.065504 51.84 
" style="fill:none;stroke:#b0b0b0;stroke-linecap:square;stroke-width:0.8;"/>
     </g>
     <g id="line2d_8">
      <g>
       <use style="stroke:#000000;stroke-width:0.8;" x="259.065504" xlink:href="#m329c5829eb" y="378"/>
      </g>
     </g>
     <g id="text_4">
      <!-- 150 -->
      <g transform="translate(249.521754 392.598437)scale(0.1 -0.1)">
       <use xlink:href="#DejaVuSans-49"/>
       <use x="63.623047" xlink:href="#DejaVuSans-53"/>
       <use x="127.246094" xlink:href="#DejaVuSans-48"/>
      </g>
     </g>
    </g>
    <g id="xtick_5">
     <g id="line2d_9">
      <path clip-path="url(#p977ddf41da)" d="M 314.657036 378 
L 314.657036 51.84 
" style="fill:none;stroke:#b0b0b0;stroke-linecap:square;stroke-width:0.8;"/>
     </g>
     <g id="line2d_10">
      <g>
       <use style="stroke:#000000;stroke-width:0.8;" x="314.657036" xlink:href="#m329c5829eb" y="378"/>
      </g>
     </g>
     <g id="text_5">
      <!-- 200 -->
      <defs>
       <path d="M 19.1875 8.296875 
L 53.609375 8.296875 
L 53.609375 0 
L 7.328125 0 
L 7.328125 8.296875 
Q 12.9375 14.109375 22.625 23.890625 
Q 32.328125 33.6875 34.8125 36.53125 
Q 39.546875 41.84375 41.421875 45.53125 
Q 43.3125 49.21875 43.3125 52.78125 
Q 43.3125 58.59375 39.234375 62.25 
Q 35.15625 65.921875 28.609375 65.921875 
Q 23.96875 65.921875 18.8125 64.3125 
Q 13.671875 62.703125 7.8125 59.421875 
L 7.8125 69.390625 
Q 13.765625 71.78125 18.9375 73 
Q 24.125 74.21875 28.421875 74.21875 
Q 39.75 74.21875 46.484375 68.546875 
Q 53.21875 62.890625 53.21875 53.421875 
Q 53.21875 48.921875 51.53125 44.890625 
Q 49.859375 40.875 45.40625 35.40625 
Q 44.1875 33.984375 37.640625 27.21875 
Q 31.109375 20.453125 19.1875 8.296875 
z
" id="DejaVuSans-50"/>
      </defs>
      <g transform="translate(305.113286 392.598437)scale(0.1 -0.1)">
       <use xlink:href="#DejaVuSans-50"/>
       <use x="63.623047" xlink:href="#DejaVuSans-48"/>
       <use x="127.246094" xlink:href="#DejaVuSans-48"/>
      </g>
     </g>
    </g>
    <g id="xtick_6">
     <g id="line2d_11">
      <path clip-path="url(#p977ddf41da)" d="M 370.248568 378 
L 370.248568 51.84 
" style="fill:none;stroke:#b0b0b0;stroke-linecap:square;stroke-width:0.8;"/>
     </g>
     <g id="line2d_12">
      <g>
       <use style="stroke:#000000;stroke-width:0.8;" x="370.248568" xlink:href="#m329c5829eb" y="378"/>
      </g>
     </g>
     <g id="text_6">
      <!-- 250 -->
      <g transform="translate(360.704818 392.598437)scale(0.1 -0.1)">
       <use xlink:href="#DejaVuSans-50"/>
       <use x="63.623047" xlink:href="#DejaVuSans-53"/>
       <use x="127.246094" xlink:href="#DejaVuSans-48"/>
      </g>
     </g>
    </g>
    <g id="xtick_7">
     <g id="line2d_13">
      <path clip-path="url(#p977ddf41da)" d="M 425.8401 378 
L 425.8401 51.84 
" style="fill:none;stroke:#b0b0b0;stroke-linecap:square;stroke-width:0.8;"/>
     </g>
     <g id="line2d_14">
      <g>
       <use style="stroke:#000000;stroke-width:0.8;" x="425.8401" xlink:href="#m329c5829eb" y="378"/>
      </g>
     </g>
     <g id="text_7">
      <!-- 300 -->
      <defs>
       <path d="M 40.578125 39.3125 
Q 47.65625 37.796875 51.625 33 
Q 55.609375 28.21875 55.609375 21.1875 
Q 55.609375 10.40625 48.1875 4.484375 
Q 40.765625 -1.421875 27.09375 -1.421875 
Q 22.515625 -1.421875 17.65625 -0.515625 
Q 12.796875 0.390625 7.625 2.203125 
L 7.625 11.71875 
Q 11.71875 9.328125 16.59375 8.109375 
Q 21.484375 6.890625 26.8125 6.890625 
Q 36.078125 6.890625 40.9375 10.546875 
Q 45.796875 14.203125 45.796875 21.1875 
Q 45.796875 27.640625 41.28125 31.265625 
Q 36.765625 34.90625 28.71875 34.90625 
L 20.21875 34.90625 
L 20.21875 43.015625 
L 29.109375 43.015625 
Q 36.375 43.015625 40.234375 45.921875 
Q 44.09375 48.828125 44.09375 54.296875 
Q 44.09375 59.90625 40.109375 62.90625 
Q 36.140625 65.921875 28.71875 65.921875 
Q 24.65625 65.921875 20.015625 65.03125 
Q 15.375 64.15625 9.8125 62.3125 
L 9.8125 71.09375 
Q 15.4375 72.65625 20.34375 73.4375 
Q 25.25 74.21875 29.59375 74.21875 
Q 40.828125 74.21875 47.359375 69.109375 
Q 53.90625 64.015625 53.90625 55.328125 
Q 53.90625 49.265625 50.4375 45.09375 
Q 46.96875 40.921875 40.578125 39.3125 
z
" id="DejaVuSans-51"/>
      </defs>
      <g transform="translate(416.29635 392.598437)scale(0.1 -0.1)">
       <use xlink:href="#DejaVuSans-51"/>
       <use x="63.623047" xlink:href="#DejaVuSans-48"/>
       <use x="127.246094" xlink:href="#DejaVuSans-48"/>
      </g>
     </g>
    </g>
    <g id="xtick_8">
     <g id="line2d_15">
      <path clip-path="url(#p977ddf41da)" d="M 481.431631 378 
L 481.431631 51.84 
" style="fill:none;stroke:#b0b0b0;stroke-linecap:square;stroke-width:0.8;"/>
     </g>
     <g id="line2d_16">
      <g>
       <use style="stroke:#000000;stroke-width:0.8;" x="481.431631" xlink:href="#m329c5829eb" y="378"/>
      </g>
     </g>
     <g id="text_8">
      <!-- 350 -->
      <g transform="translate(471.887881 392.598437)scale(0.1 -0.1)">
       <use xlink:href="#DejaVuSans-51"/>
       <use x="63.623047" xlink:href="#DejaVuSans-53"/>
       <use x="127.246094" xlink:href="#DejaVuSans-48"/>
      </g>
     </g>
    </g>
    <g id="text_9">
     <!-- Day -->
     <defs>
      <path d="M 19.671875 64.796875 
L 19.671875 8.109375 
L 31.59375 8.109375 
Q 46.6875 8.109375 53.6875 14.9375 
Q 60.6875 21.78125 60.6875 36.53125 
Q 60.6875 51.171875 53.6875 57.984375 
Q 46.6875 64.796875 31.59375 64.796875 
z
M 9.8125 72.90625 
L 30.078125 72.90625 
Q 51.265625 72.90625 61.171875 64.09375 
Q 71.09375 55.28125 71.09375 36.53125 
Q 71.09375 17.671875 61.125 8.828125 
Q 51.171875 0 30.078125 0 
L 9.8125 0 
z
" id="DejaVuSans-68"/>
      <path d="M 34.28125 27.484375 
Q 23.390625 27.484375 19.1875 25 
Q 14.984375 22.515625 14.984375 16.5 
Q 14.984375 11.71875 18.140625 8.90625 
Q 21.296875 6.109375 26.703125 6.109375 
Q 34.1875 6.109375 38.703125 11.40625 
Q 43.21875 16.703125 43.21875 25.484375 
L 43.21875 27.484375 
z
M 52.203125 31.203125 
L 52.203125 0 
L 43.21875 0 
L 43.21875 8.296875 
Q 40.140625 3.328125 35.546875 0.953125 
Q 30.953125 -1.421875 24.3125 -1.421875 
Q 15.921875 -1.421875 10.953125 3.296875 
Q 6 8.015625 6 15.921875 
Q 6 25.140625 12.171875 29.828125 
Q 18.359375 34.515625 30.609375 34.515625 
L 43.21875 34.515625 
L 43.21875 35.40625 
Q 43.21875 41.609375 39.140625 45 
Q 35.0625 48.390625 27.6875 48.390625 
Q 23 48.390625 18.546875 47.265625 
Q 14.109375 46.140625 10.015625 43.890625 
L 10.015625 52.203125 
Q 14.9375 54.109375 19.578125 55.046875 
Q 24.21875 56 28.609375 56 
Q 40.484375 56 46.34375 49.84375 
Q 52.203125 43.703125 52.203125 31.203125 
z
" id="DejaVuSans-97"/>
      <path d="M 32.171875 -5.078125 
Q 28.375 -14.84375 24.75 -17.8125 
Q 21.140625 -20.796875 15.09375 -20.796875 
L 7.90625 -20.796875 
L 7.90625 -13.28125 
L 13.1875 -13.28125 
Q 16.890625 -13.28125 18.9375 -11.515625 
Q 21 -9.765625 23.484375 -3.21875 
L 25.09375 0.875 
L 2.984375 54.6875 
L 12.5 54.6875 
L 29.59375 11.921875 
L 46.6875 54.6875 
L 56.203125 54.6875 
z
" id="DejaVuSans-121"/>
     </defs>
     <g transform="translate(285.326562 406.276563)scale(0.1 -0.1)">
      <use xlink:href="#DejaVuSans-68"/>
      <use x="77.001953" xlink:href="#DejaVuSans-97"/>
      <use x="138.28125" xlink:href="#DejaVuSans-121"/>
     </g>
    </g>
   </g>
   <g id="matplotlib.axis_2">
    <g id="ytick_1">
     <g id="line2d_17">
      <path clip-path="url(#p977ddf41da)" d="M 72 367.46402 
L 518.4 367.46402 
" style="fill:none;stroke:#b0b0b0;stroke-linecap:square;stroke-width:0.8;"/>
     </g>
     <g id="line2d_18">
      <defs>
       <path d="M 0 0 
L -3.5 0 
" id="md655c1d32e" style="stroke:#000000;stroke-width:0.8;"/>
      </defs>
      <g>
       <use style="stroke:#000000;stroke-width:0.8;" x="72" xlink:href="#md655c1d32e" y="367.46402"/>
      </g>
     </g>
     <g id="text_10">
      <!-- 0 -->
      <g transform="translate(58.6375 371.263239)scale(0.1 -0.1)">
       <use xlink:href="#DejaVuSans-48"/>
      </g>
     </g>
    </g>
    <g id="ytick_2">
     <g id="line2d_19">
      <path clip-path="url(#p977ddf41da)" d="M 72 324.569272 
L 518.4 324.569272 
" style="fill:none;stroke:#b0b0b0;stroke-linecap:square;stroke-width:0.8;"/>
     </g>
     <g id="line2d_20">
      <g>
       <use style="stroke:#000000;stroke-width:0.8;" x="72" xlink:href="#md655c1d32e" y="324.569272"/>
      </g>
     </g>
     <g id="text_11">
      <!-- 25 -->
      <g transform="translate(52.275 328.368491)scale(0.1 -0.1)">
       <use xlink:href="#DejaVuSans-50"/>
       <use x="63.623047" xlink:href="#DejaVuSans-53"/>
      </g>
     </g>
    </g>
    <g id="ytick_3">
     <g id="line2d_21">
      <path clip-path="url(#p977ddf41da)" d="M 72 281.674523 
L 518.4 281.674523 
" style="fill:none;stroke:#b0b0b0;stroke-linecap:square;stroke-width:0.8;"/>
     </g>
     <g id="line2d_22">
      <g>
       <use style="stroke:#000000;stroke-width:0.8;" x="72" xlink:href="#md655c1d32e" y="281.674523"/>
      </g>
     </g>
     <g id="text_12">
      <!-- 50 -->
      <g transform="translate(52.275 285.473742)scale(0.1 -0.1)">
       <use xlink:href="#DejaVuSans-53"/>
       <use x="63.623047" xlink:href="#DejaVuSans-48"/>
      </g>
     </g>
    </g>
    <g id="ytick_4">
     <g id="line2d_23">
      <path clip-path="url(#p977ddf41da)" d="M 72 238.779775 
L 518.4 238.779775 
" style="fill:none;stroke:#b0b0b0;stroke-linecap:square;stroke-width:0.8;"/>
     </g>
     <g id="line2d_24">
      <g>
       <use style="stroke:#000000;stroke-width:0.8;" x="72" xlink:href="#md655c1d32e" y="238.779775"/>
      </g>
     </g>
     <g id="text_13">
      <!-- 75 -->
      <defs>
       <path d="M 8.203125 72.90625 
L 55.078125 72.90625 
L 55.078125 68.703125 
L 28.609375 0 
L 18.3125 0 
L 43.21875 64.59375 
L 8.203125 64.59375 
z
" id="DejaVuSans-55"/>
      </defs>
      <g transform="translate(52.275 242.578994)scale(0.1 -0.1)">
       <use xlink:href="#DejaVuSans-55"/>
       <use x="63.623047" xlink:href="#DejaVuSans-53"/>
      </g>
     </g>
    </g>
    <g id="ytick_5">
     <g id="line2d_25">
      <path clip-path="url(#p977ddf41da)" d="M 72 195.885026 
L 518.4 195.885026 
" style="fill:none;stroke:#b0b0b0;stroke-linecap:square;stroke-width:0.8;"/>
     </g>
     <g id="line2d_26">
      <g>
       <use style="stroke:#000000;stroke-width:0.8;" x="72" xlink:href="#md655c1d32e" y="195.885026"/>
      </g>
     </g>
     <g id="text_14">
      <!-- 100 -->
      <g transform="translate(45.9125 199.684245)scale(0.1 -0.1)">
       <use xlink:href="#DejaVuSans-49"/>
       <use x="63.623047" xlink:href="#DejaVuSans-48"/>
       <use x="127.246094" xlink:href="#DejaVuSans-48"/>
      </g>
     </g>
    </g>
    <g id="ytick_6">
     <g id="line2d_27">
      <path clip-path="url(#p977ddf41da)" d="M 72 152.990278 
L 518.4 152.990278 
" style="fill:none;stroke:#b0b0b0;stroke-linecap:square;stroke-width:0.8;"/>
     </g>
     <g id="line2d_28">
      <g>
       <use style="stroke:#000000;stroke-width:0.8;" x="72" xlink:href="#md655c1d32e" y="152.990278"/>
      </g>
     </g>
     <g id="text_15">
      <!-- 125 -->
      <g transform="translate(45.9125 156.789497)scale(0.1 -0.1)">
       <use xlink:href="#DejaVuSans-49"/>
       <use x="63.623047" xlink:href="#DejaVuSans-50"/>
       <use x="127.246094" xlink:href="#DejaVuSans-53"/>
      </g>
     </g>
    </g>
    <g id="ytick_7">
     <g id="line2d_29">
      <path clip-path="url(#p977ddf41da)" d="M 72 110.095529 
L 518.4 110.095529 
" style="fill:none;stroke:#b0b0b0;stroke-linecap:square;stroke-width:0.8;"/>
     </g>
     <g id="line2d_30">
      <g>
       <use style="stroke:#000000;stroke-width:0.8;" x="72" xlink:href="#md655c1d32e" y="110.095529"/>
      </g>
     </g>
     <g id="text_16">
      <!-- 150 -->
      <g transform="translate(45.9125 113.894748)scale(0.1 -0.1)">
       <use xlink:href="#DejaVuSans-49"/>
       <use x="63.623047" xlink:href="#DejaVuSans-53"/>
       <use x="127.246094" xlink:href="#DejaVuSans-48"/>
      </g>
     </g>
    </g>
    <g id="ytick_8">
     <g id="line2d_31">
      <path clip-path="url(#p977ddf41da)" d="M 72 67.200781 
L 518.4 67.200781 
" style="fill:none;stroke:#b0b0b0;stroke-linecap:square;stroke-width:0.8;"/>
     </g>
     <g id="line2d_32">
      <g>
       <use style="stroke:#000000;stroke-width:0.8;" x="72" xlink:href="#md655c1d32e" y="67.200781"/>
      </g>
     </g>
     <g id="text_17">
      <!-- 175 -->
      <g transform="translate(45.9125 71)scale(0.1 -0.1)">
       <use xlink:href="#DejaVuSans-49"/>
       <use x="63.623047" xlink:href="#DejaVuSans-55"/>
       <use x="127.246094" xlink:href="#DejaVuSans-53"/>
      </g>
     </g>
    </g>
    <g id="text_18">
     <!-- max 8h $O_3$ $[\mu g/m^3$] -->
     <defs>
      <path d="M 52 44.1875 
Q 55.375 50.25 60.0625 53.125 
Q 64.75 56 71.09375 56 
Q 79.640625 56 84.28125 50.015625 
Q 88.921875 44.046875 88.921875 33.015625 
L 88.921875 0 
L 79.890625 0 
L 79.890625 32.71875 
Q 79.890625 40.578125 77.09375 44.375 
Q 74.3125 48.1875 68.609375 48.1875 
Q 61.625 48.1875 57.5625 43.546875 
Q 53.515625 38.921875 53.515625 30.90625 
L 53.515625 0 
L 44.484375 0 
L 44.484375 32.71875 
Q 44.484375 40.625 41.703125 44.40625 
Q 38.921875 48.1875 33.109375 48.1875 
Q 26.21875 48.1875 22.15625 43.53125 
Q 18.109375 38.875 18.109375 30.90625 
L 18.109375 0 
L 9.078125 0 
L 9.078125 54.6875 
L 18.109375 54.6875 
L 18.109375 46.1875 
Q 21.1875 51.21875 25.484375 53.609375 
Q 29.78125 56 35.6875 56 
Q 41.65625 56 45.828125 52.96875 
Q 50 49.953125 52 44.1875 
z
" id="DejaVuSans-109"/>
      <path d="M 54.890625 54.6875 
L 35.109375 28.078125 
L 55.90625 0 
L 45.3125 0 
L 29.390625 21.484375 
L 13.484375 0 
L 2.875 0 
L 24.125 28.609375 
L 4.6875 54.6875 
L 15.28125 54.6875 
L 29.78125 35.203125 
L 44.28125 54.6875 
z
" id="DejaVuSans-120"/>
      <path id="DejaVuSans-32"/>
      <path d="M 31.78125 34.625 
Q 24.75 34.625 20.71875 30.859375 
Q 16.703125 27.09375 16.703125 20.515625 
Q 16.703125 13.921875 20.71875 10.15625 
Q 24.75 6.390625 31.78125 6.390625 
Q 38.8125 6.390625 42.859375 10.171875 
Q 46.921875 13.96875 46.921875 20.515625 
Q 46.921875 27.09375 42.890625 30.859375 
Q 38.875 34.625 31.78125 34.625 
z
M 21.921875 38.8125 
Q 15.578125 40.375 12.03125 44.71875 
Q 8.5 49.078125 8.5 55.328125 
Q 8.5 64.0625 14.71875 69.140625 
Q 20.953125 74.21875 31.78125 74.21875 
Q 42.671875 74.21875 48.875 69.140625 
Q 55.078125 64.0625 55.078125 55.328125 
Q 55.078125 49.078125 51.53125 44.71875 
Q 48 40.375 41.703125 38.8125 
Q 48.828125 37.15625 52.796875 32.3125 
Q 56.78125 27.484375 56.78125 20.515625 
Q 56.78125 9.90625 50.3125 4.234375 
Q 43.84375 -1.421875 31.78125 -1.421875 
Q 19.734375 -1.421875 13.25 4.234375 
Q 6.78125 9.90625 6.78125 20.515625 
Q 6.78125 27.484375 10.78125 32.3125 
Q 14.796875 37.15625 21.921875 38.8125 
z
M 18.3125 54.390625 
Q 18.3125 48.734375 21.84375 45.5625 
Q 25.390625 42.390625 31.78125 42.390625 
Q 38.140625 42.390625 41.71875 45.5625 
Q 45.3125 48.734375 45.3125 54.390625 
Q 45.3125 60.0625 41.71875 63.234375 
Q 38.140625 66.40625 31.78125 66.40625 
Q 25.390625 66.40625 21.84375 63.234375 
Q 18.3125 60.0625 18.3125 54.390625 
z
" id="DejaVuSans-56"/>
      <path d="M 54.890625 33.015625 
L 54.890625 0 
L 45.90625 0 
L 45.90625 32.71875 
Q 45.90625 40.484375 42.875 44.328125 
Q 39.84375 48.1875 33.796875 48.1875 
Q 26.515625 48.1875 22.3125 43.546875 
Q 18.109375 38.921875 18.109375 30.90625 
L 18.109375 0 
L 9.078125 0 
L 9.078125 75.984375 
L 18.109375 75.984375 
L 18.109375 46.1875 
Q 21.34375 51.125 25.703125 53.5625 
Q 30.078125 56 35.796875 56 
Q 45.21875 56 50.046875 50.171875 
Q 54.890625 44.34375 54.890625 33.015625 
z
" id="DejaVuSans-104"/>
      <path d="M 45.609375 66.21875 
Q 37.5 66.21875 31.296875 62.28125 
Q 25.09375 58.34375 20.515625 50.296875 
Q 17.578125 45.171875 16.03125 39.40625 
Q 14.5 33.640625 14.5 27.78125 
Q 14.5 17.625 19.359375 12.109375 
Q 24.21875 6.59375 33.109375 6.59375 
Q 41.109375 6.59375 47.375 10.5625 
Q 53.65625 14.546875 58.109375 22.40625 
Q 61.078125 27.6875 62.640625 33.46875 
Q 64.203125 39.265625 64.203125 45.015625 
Q 64.203125 55.125 59.3125 60.671875 
Q 54.4375 66.21875 45.609375 66.21875 
z
M 32.8125 -1.421875 
Q 19.390625 -1.421875 11.6875 6.53125 
Q 4 14.5 4 28.328125 
Q 4 36.234375 7 44.484375 
Q 10.015625 52.734375 15.28125 59.1875 
Q 21.484375 66.75 29.09375 70.484375 
Q 36.71875 74.21875 45.90625 74.21875 
Q 59.28125 74.21875 66.984375 66.328125 
Q 74.703125 58.453125 74.703125 44.828125 
Q 74.703125 36.421875 71.765625 28.3125 
Q 68.84375 20.21875 63.375 13.625 
Q 57.125 6 49.578125 2.28125 
Q 42.046875 -1.421875 32.8125 -1.421875 
z
" id="DejaVuSans-Oblique-79"/>
      <path d="M 8.59375 75.984375 
L 29.296875 75.984375 
L 29.296875 69 
L 17.578125 69 
L 17.578125 -6.203125 
L 29.296875 -6.203125 
L 29.296875 -13.1875 
L 8.59375 -13.1875 
z
" id="DejaVuSans-91"/>
      <path d="M -1.3125 -20.796875 
L 13.375 54.6875 
L 22.40625 54.6875 
L 15.765625 20.65625 
Q 15.578125 19.625 15.421875 18.359375 
Q 15.28125 17.09375 15.28125 15.828125 
Q 15.28125 11.28125 18.140625 8.828125 
Q 21 6.390625 26.3125 6.390625 
Q 33.546875 6.390625 37.984375 10.484375 
Q 42.4375 14.59375 44 22.796875 
L 50.203125 54.6875 
L 59.1875 54.6875 
L 51.03125 12.640625 
Q 50.828125 11.71875 50.75 11.03125 
Q 50.6875 10.359375 50.6875 9.8125 
Q 50.6875 8.296875 51.296875 7.59375 
Q 51.90625 6.890625 53.21875 6.890625 
Q 53.71875 6.890625 54.5625 7.125 
Q 55.421875 7.375 56.984375 8.015625 
L 55.609375 0.78125 
Q 53.46875 -0.296875 51.515625 -0.859375 
Q 49.5625 -1.421875 47.703125 -1.421875 
Q 44.484375 -1.421875 42.65625 0.625 
Q 40.828125 2.6875 40.828125 6.296875 
Q 38.09375 2.390625 34.296875 0.484375 
Q 30.515625 -1.421875 25.390625 -1.421875 
Q 20.84375 -1.421875 17.453125 0.671875 
Q 14.0625 2.78125 12.984375 6.203125 
L 7.71875 -20.796875 
z
" id="DejaVuSans-Oblique-956"/>
      <path d="M 59.625 54.6875 
L 50.296875 6.78125 
Q 47.609375 -7.125 40.015625 -13.953125 
Q 32.421875 -20.796875 19.578125 -20.796875 
Q 14.84375 -20.796875 10.78125 -20.09375 
Q 6.734375 -19.390625 3.21875 -17.921875 
L 4.890625 -9.1875 
Q 8.203125 -11.328125 11.90625 -12.34375 
Q 15.625 -13.375 19.828125 -13.375 
Q 28.375 -13.375 33.859375 -8.703125 
Q 39.359375 -4.046875 41.109375 4.6875 
L 41.890625 8.796875 
Q 38.140625 4.5 33.15625 2.25 
Q 28.171875 0 22.40625 0 
Q 14.109375 0 9.34375 5.484375 
Q 4.59375 10.984375 4.59375 20.609375 
Q 4.59375 28.171875 7.46875 35.421875 
Q 10.359375 42.671875 15.578125 48.296875 
Q 19.046875 52 23.65625 54 
Q 28.265625 56 33.296875 56 
Q 38.8125 56 42.90625 53.4375 
Q 47.015625 50.875 49.03125 46.1875 
L 50.59375 54.6875 
z
M 46.09375 34.625 
Q 46.09375 41.265625 42.96875 44.875 
Q 39.84375 48.484375 34.078125 48.484375 
Q 30.515625 48.484375 27.296875 47.0625 
Q 24.078125 45.65625 21.78125 43.109375 
Q 18.0625 38.921875 15.984375 33.234375 
Q 13.921875 27.546875 13.921875 21.484375 
Q 13.921875 14.75 17.0625 11.125 
Q 20.21875 7.515625 26.125 7.515625 
Q 34.671875 7.515625 40.375 15.25 
Q 46.09375 23 46.09375 34.625 
z
" id="DejaVuSans-Oblique-103"/>
      <path d="M 25.390625 72.90625 
L 33.6875 72.90625 
L 8.296875 -9.28125 
L 0 -9.28125 
z
" id="DejaVuSans-47"/>
      <path d="M 89.796875 33.015625 
L 83.40625 0 
L 74.421875 0 
L 80.71875 32.71875 
Q 81.109375 34.8125 81.296875 36.328125 
Q 81.5 37.84375 81.5 38.921875 
Q 81.5 43.3125 79.046875 45.75 
Q 76.609375 48.1875 72.21875 48.1875 
Q 65.671875 48.1875 60.546875 43.28125 
Q 55.421875 38.375 53.90625 30.515625 
L 47.90625 0 
L 38.921875 0 
L 45.3125 32.71875 
Q 45.703125 34.515625 45.890625 36.046875 
Q 46.09375 37.59375 46.09375 38.8125 
Q 46.09375 43.265625 43.65625 45.71875 
Q 41.21875 48.1875 36.921875 48.1875 
Q 30.28125 48.1875 25.140625 43.28125 
Q 20.015625 38.375 18.5 30.515625 
L 12.5 0 
L 3.515625 0 
L 14.203125 54.6875 
L 23.1875 54.6875 
L 21.484375 46.1875 
Q 25.140625 50.984375 30.046875 53.484375 
Q 34.96875 56 40.578125 56 
Q 46.53125 56 50.359375 52.875 
Q 54.203125 49.75 54.984375 44.1875 
Q 59.078125 49.953125 64.46875 52.96875 
Q 69.875 56 75.875 56 
Q 82.90625 56 86.734375 51.953125 
Q 90.578125 47.90625 90.578125 40.484375 
Q 90.578125 38.875 90.375 36.9375 
Q 90.1875 35.015625 89.796875 33.015625 
z
" id="DejaVuSans-Oblique-109"/>
      <path d="M 30.421875 75.984375 
L 30.421875 -13.1875 
L 9.71875 -13.1875 
L 9.71875 -6.203125 
L 21.390625 -6.203125 
L 21.390625 69 
L 9.71875 69 
L 9.71875 75.984375 
z
" id="DejaVuSans-93"/>
     </defs>
     <g transform="translate(39.8125 262.67)rotate(-90)scale(0.1 -0.1)">
      <use transform="translate(0 0.765625)" xlink:href="#DejaVuSans-109"/>
      <use transform="translate(97.412109 0.765625)" xlink:href="#DejaVuSans-97"/>
      <use transform="translate(158.691406 0.765625)" xlink:href="#DejaVuSans-120"/>
      <use transform="translate(217.871094 0.765625)" xlink:href="#DejaVuSans-32"/>
      <use transform="translate(249.658203 0.765625)" xlink:href="#DejaVuSans-56"/>
      <use transform="translate(313.28125 0.765625)" xlink:href="#DejaVuSans-104"/>
      <use transform="translate(376.660156 0.765625)" xlink:href="#DejaVuSans-32"/>
      <use transform="translate(408.447266 0.765625)" xlink:href="#DejaVuSans-Oblique-79"/>
      <use transform="translate(487.158203 -15.640625)scale(0.7)" xlink:href="#DejaVuSans-51"/>
      <use transform="translate(534.428711 0.765625)" xlink:href="#DejaVuSans-32"/>
      <use transform="translate(566.21582 0.765625)" xlink:href="#DejaVuSans-91"/>
      <use transform="translate(605.229492 0.765625)" xlink:href="#DejaVuSans-Oblique-956"/>
      <use transform="translate(668.852539 0.765625)" xlink:href="#DejaVuSans-Oblique-103"/>
      <use transform="translate(732.329102 0.765625)" xlink:href="#DejaVuSans-47"/>
      <use transform="translate(766.020508 0.765625)" xlink:href="#DejaVuSans-Oblique-109"/>
      <use transform="translate(868.082513 39.046875)scale(0.7)" xlink:href="#DejaVuSans-51"/>
      <use transform="translate(915.353021 0.765625)" xlink:href="#DejaVuSans-93"/>
     </g>
    </g>
   </g>
   <g id="line2d_33">
    <path clip-path="url(#p977ddf41da)" d="M 92.290909 324.783746 
L 93.40274 283.067745 
L 94.51457 297.223012 
L 95.626401 295.723411 
L 96.738232 304.302361 
L 97.850062 329.07322 
L 98.961893 291.862884 
L 100.073724 341.298224 
L 101.185554 322.530913 
L 102.297385 289.289199 
L 103.409215 294.007621 
L 104.521046 351.164016 
L 105.632877 344.944277 
L 106.744707 322.318155 
L 107.856538 289.501957 
L 108.968369 337.192338 
L 110.080199 312.8041 
L 111.19203 283.283934 
L 116.751183 322.424534 
L 117.863014 317.383544 
L 118.974844 334.251474 
L 120.086675 337.192338 
L 121.198506 320.602365 
L 122.310336 288.783041 
L 123.422167 296.794064 
L 124.533998 274.198827 
L 125.645828 259.369254 
L 127.869489 274.917743 
L 128.98132 276.741627 
L 130.093151 267.841825 
L 131.204981 281.307344 
L 132.316812 277.385049 
L 133.428643 265.865235 
L 134.540473 322.210061 
L 141.211457 274.167942 
L 142.323288 293.149726 
L 143.435118 315.238806 
L 144.546949 236.312469 
L 145.65878 266.98393 
L 146.77061 261.407613 
L 147.882441 258.511359 
L 148.994271 263.123403 
L 150.106102 261.83656 
L 151.217933 245.965503 
L 153.441594 260.441623 
L 154.553425 251.862673 
L 155.665255 241.888786 
L 156.777086 229.34293 
L 157.888917 244.462471 
L 159.000747 275.669259 
L 160.112578 259.583728 
L 161.224408 284.677156 
L 162.336239 241.35346 
L 163.44807 267.73373 
L 164.5599 250.575831 
L 165.671731 243.391818 
L 166.783562 273.831648 
L 167.895392 256.581096 
L 169.007223 263.658729 
L 170.119054 276.098206 
L 171.230884 281.031102 
L 172.342715 263.29155 
L 173.454545 273.462753 
L 174.566376 265.374519 
L 175.678207 272.728395 
L 176.790037 220.885802 
L 177.901868 203.92865 
L 179.013699 224.624508 
L 180.125529 250.038788 
L 181.23736 257.976033 
L 182.349191 232.988984 
L 183.461021 252.648505 
L 184.572852 231.381289 
L 185.684682 231.794794 
L 186.796513 223.015097 
L 187.908344 242.947429 
L 189.020174 242.854776 
L 190.132005 252.612473 
L 191.243836 237.063985 
L 192.355666 232.161973 
L 193.467497 237.278459 
L 194.579328 229.710109 
L 195.691158 241.459839 
L 196.802989 237.815501 
L 197.914819 223.872992 
L 199.02665 216.688979 
L 200.138481 261.728465 
L 201.250311 285.106103 
L 202.362142 237.492932 
L 203.473973 236.528658 
L 204.585803 261.299518 
L 205.697634 246.178261 
L 206.809465 202.104765 
L 207.921295 238.244448 
L 209.033126 217.975822 
L 210.144956 235.241816 
L 211.256787 215.831084 
L 212.368618 186.983508 
L 213.480448 238.136354 
L 214.592279 233.738784 
L 215.70411 236.528658 
L 216.81594 220.012465 
L 217.927771 240.818133 
L 219.039601 206.073387 
L 220.151432 146.770539 
L 221.263263 248.645567 
L 223.486924 172.399294 
L 224.598755 163.163196 
L 226.822416 223.872992 
L 227.934247 257.43899 
L 229.046077 267.948204 
L 230.157908 230.629773 
L 231.269738 233.141689 
L 232.381569 249.717936 
L 233.4934 259.736433 
L 234.60523 209.717725 
L 235.717061 213.900821 
L 236.828892 226.125824 
L 237.940722 257.759843 
L 239.052553 271.594257 
L 240.164384 251.157484 
L 241.276214 259.798202 
L 242.388045 187.427898 
L 243.499875 221.515497 
L 244.611706 245.521114 
L 245.723537 237.92188 
L 246.835367 233.877763 
L 247.947198 190.844036 
L 249.059029 222.47977 
L 250.170859 216.260032 
L 251.28269 235.454574 
L 252.394521 187.628645 
L 253.506351 203.606081 
L 254.618182 232.77451 
L 255.730012 236.099711 
L 256.841843 231.594047 
L 257.953674 204.357597 
L 259.065504 252.828663 
L 260.177335 270.521889 
L 261.289166 263.015308 
L 262.400996 203.499702 
L 263.512827 175.830874 
L 264.624658 141.302317 
L 265.736488 98.942895 
L 266.848319 192.347068 
L 267.960149 233.417931 
L 269.07198 243.604576 
L 270.183811 282.961366 
L 271.295641 271.486163 
L 272.407472 217.332401 
L 273.519303 239.852144 
L 274.631133 228.270562 
L 275.742964 229.34293 
L 276.854795 215.98379 
L 277.966625 209.182398 
L 279.078456 235.133721 
L 280.190286 278.994459 
L 281.302117 259.369254 
L 282.413948 269.770373 
L 283.525778 258.14418 
L 284.637609 191.489173 
L 285.74944 143.062717 
L 286.86127 79.31769 
L 287.973101 164.633628 
L 289.084932 126.718102 
L 290.196762 82.64289 
L 291.308593 66.665455 
L 292.420423 185.344929 
L 293.532254 211.112662 
L 295.755915 155.457584 
L 296.867746 189.757941 
L 297.979577 193.63391 
L 299.091407 257.43899 
L 300.203238 211.817852 
L 301.315068 152.346857 
L 302.426899 100.123358 
L 307.986052 224.518129 
L 311.321544 230.094446 
L 312.433375 245.428461 
L 313.545205 207.36023 
L 314.657036 147.413961 
L 315.768867 136.796653 
L 316.880697 189.879762 
L 317.992528 236.635037 
L 319.104359 268.69972 
L 320.216189 212.507599 
L 321.32802 225.588782 
L 322.439851 270.19932 
L 323.551681 284.999724 
L 324.663512 242.746681 
L 325.775342 286.821893 
L 326.887173 227.136424 
L 327.999004 218.296675 
L 329.110834 259.614612 
L 330.222665 269.44952 
L 331.334496 244.539682 
L 332.446326 275.056722 
L 333.558157 268.806099 
L 334.669988 237.492932 
L 335.781818 222.970486 
L 336.893649 291.111368 
L 338.005479 225.665992 
L 339.11731 230.952341 
L 340.229141 274.811364 
L 341.340971 253.25761 
L 343.564633 225.482403 
L 344.676463 266.126035 
L 345.788294 265.909845 
L 346.900125 253.470368 
L 348.011955 271.91511 
L 349.123786 248.829157 
L 350.235616 217.43878 
L 351.347447 246.394451 
L 352.459278 250.146883 
L 353.571108 254.865306 
L 354.682939 247.681293 
L 355.79477 258.40498 
L 358.018431 290.359852 
L 359.130262 266.76774 
L 360.242092 269.020573 
L 361.353923 259.369254 
L 362.465753 244.678661 
L 363.577584 241.567934 
L 365.801245 278.994459 
L 366.913076 245.749314 
L 368.024907 225.804971 
L 369.136737 220.396801 
L 370.248568 236.099711 
L 371.360399 272.666626 
L 372.472229 277.06248 
L 373.58406 280.710249 
L 374.69589 247.252346 
L 375.807721 297.223012 
L 376.919552 265.588993 
L 378.031382 270.950836 
L 379.143213 242.702071 
L 380.255044 249.810588 
L 381.366874 280.449449 
L 382.478705 253.25761 
L 383.590535 263.046192 
L 384.702366 225.588782 
L 385.814197 249.932409 
L 386.926027 209.504967 
L 388.037858 222.601592 
L 389.149689 278.994459 
L 390.261519 252.384273 
L 392.485181 300.302855 
L 393.597011 327.894473 
L 394.708842 320.770513 
L 395.820672 315.775848 
L 396.932503 270.521889 
L 398.044334 281.997092 
L 399.156164 241.231639 
L 400.267995 253.041421 
L 401.379826 279.100838 
L 402.491656 302.370382 
L 403.603487 318.241439 
L 404.715318 280.816628 
L 405.827148 294.542948 
L 406.938979 281.780902 
L 408.050809 302.370382 
L 409.16264 325.427167 
L 410.274471 299.323139 
L 411.386301 322.318155 
L 412.498132 291.217747 
L 413.609963 288.644062 
L 414.721793 292.827158 
L 415.833624 275.133932 
L 416.945455 278.565512 
L 418.057285 274.488795 
L 419.169116 291.754789 
L 420.280946 296.258738 
L 421.392777 290.7888 
L 422.504608 290.253473 
L 423.616438 276.633533 
L 424.728269 293.362484 
L 425.8401 276.31268 
L 426.95193 292.075642 
L 428.063761 276.420775 
L 429.175592 272.989195 
L 430.287422 261.085044 
L 431.399253 343.657435 
L 432.511083 297.651959 
L 433.622914 286.178472 
L 434.734745 278.671891 
L 435.846575 273.201953 
L 436.958406 269.557615 
L 438.070237 313.907353 
L 439.182067 254.650832 
L 440.293898 269.770373 
L 441.405729 332.290327 
L 442.517559 263.444255 
L 443.62939 245.857408 
L 444.74122 263.29155 
L 445.853051 269.235046 
L 446.964882 269.128667 
L 448.076712 361.136187 
L 449.188543 315.454996 
L 450.300374 316.633743 
L 451.412204 309.37252 
L 452.524035 313.523016 
L 453.635866 351.776553 
L 460.306849 291.969263 
L 461.41868 316.954596 
L 462.530511 352.143732 
L 463.642341 358.778692 
L 464.754172 320.923218 
L 465.866002 351.164016 
L 466.977833 359.099544 
L 468.089664 281.031102 
L 469.201494 276.159974 
L 470.313325 330.251968 
L 471.425156 363.174545 
L 472.536986 356.556744 
L 473.648817 306.876046 
L 474.760648 336.089085 
L 476.984309 273.418142 
L 478.096139 274.07529 
L 479.20797 302.049529 
L 480.319801 309.863236 
L 481.431631 281.061986 
L 482.543462 269.542173 
L 483.655293 282.165239 
L 484.767123 282.638797 
L 485.878954 323.17605 
L 486.990785 326.499536 
L 488.102615 361.781324 
L 489.214446 343.442961 
L 490.326276 304.346972 
L 491.438107 283.390313 
L 492.549938 310.628479 
L 493.661768 272.1313 
L 494.773599 266.661361 
L 495.88543 320.708744 
L 496.99726 301.406108 
L 498.109091 308.698215 
L 498.109091 308.698215 
" style="fill:none;stroke:#1f77b4;stroke-linecap:square;stroke-width:1.5;"/>
   </g>
   <g id="line2d_34">
    <path clip-path="url(#p977ddf41da)" d="M 92.290909 300.414034 
L 93.40274 306.636826 
L 94.51457 301.467392 
L 95.626401 320.590649 
L 96.738232 314.451434 
L 97.850062 296.013038 
L 98.961893 301.531293 
L 100.073724 294.526314 
L 101.185554 313.887465 
L 102.297385 295.742821 
L 103.409215 298.618423 
L 104.521046 322.044157 
L 105.632877 324.323885 
L 106.744707 306.919826 
L 107.856538 303.246888 
L 108.968369 306.471058 
L 110.080199 279.238945 
L 111.19203 294.372972 
L 112.303861 301.115959 
L 113.415691 313.682523 
L 114.527522 286.398486 
L 115.639352 311.187964 
L 116.751183 296.655454 
L 117.863014 306.800094 
L 118.974844 322.271927 
L 120.086675 319.696908 
L 121.198506 308.154944 
L 122.310336 303.167385 
L 123.422167 283.099345 
L 124.533998 265.709835 
L 125.645828 280.03716 
L 126.757659 268.287716 
L 127.869489 273.759906 
L 128.98132 266.064455 
L 130.093151 280.271483 
L 131.204981 256.031587 
L 132.316812 262.57728 
L 133.428643 284.138697 
L 134.540473 278.874595 
L 135.652304 297.776531 
L 136.764134 296.165299 
L 137.875965 286.320528 
L 138.987796 283.729247 
L 140.099626 289.417992 
L 141.211457 269.378652 
L 142.323288 282.777992 
L 143.435118 272.534494 
L 144.546949 260.658027 
L 145.65878 259.409751 
L 146.77061 256.194698 
L 147.882441 235.856966 
L 148.994271 255.945248 
L 150.106102 251.869517 
L 151.217933 244.101466 
L 152.329763 259.744664 
L 153.441594 249.837496 
L 154.553425 242.183647 
L 155.665255 246.360121 
L 156.777086 235.431916 
L 157.888917 254.822485 
L 159.000747 252.176481 
L 160.112578 264.487781 
L 161.224408 268.67036 
L 162.336239 264.537999 
L 163.44807 262.519654 
L 165.671731 249.991728 
L 166.783562 269.541559 
L 167.895392 269.164157 
L 169.007223 275.751833 
L 170.119054 273.700947 
L 171.230884 258.032076 
L 172.342715 265.800404 
L 173.454545 256.895408 
L 174.566376 267.382225 
L 175.678207 250.956204 
L 176.790037 229.105979 
L 177.901868 204.074328 
L 179.013699 228.411364 
L 180.125529 232.65568 
L 181.23736 256.157723 
L 182.349191 234.245512 
L 183.461021 226.979424 
L 184.572852 220.470144 
L 185.684682 210.008195 
L 186.796513 232.659695 
L 187.908344 228.665707 
L 189.020174 238.440473 
L 190.132005 245.907093 
L 191.243836 233.546847 
L 192.355666 215.705027 
L 193.467497 220.923919 
L 194.579328 204.636009 
L 195.691158 219.661926 
L 196.802989 239.791485 
L 197.914819 232.727766 
L 199.02665 187.687202 
L 200.138481 203.153059 
L 201.250311 248.7882 
L 202.362142 250.525361 
L 203.473973 232.737766 
L 204.585803 243.071443 
L 205.697634 236.157071 
L 206.809465 222.442195 
L 207.921295 215.803503 
L 209.033126 217.988156 
L 210.144956 236.275319 
L 212.368618 193.24153 
L 213.480448 214.13965 
L 214.592279 216.825674 
L 215.70411 226.11543 
L 216.81594 230.816451 
L 217.927771 203.159962 
L 219.039601 186.409935 
L 220.151432 180.311249 
L 221.263263 199.314741 
L 222.375093 215.853075 
L 223.486924 174.964967 
L 224.598755 159.613131 
L 225.710585 214.086709 
L 226.822416 218.395947 
L 227.934247 235.631339 
L 229.046077 239.049379 
L 230.157908 244.384812 
L 231.269738 233.443443 
L 232.381569 242.902819 
L 233.4934 254.432297 
L 234.60523 254.208463 
L 235.717061 223.587395 
L 236.828892 221.917629 
L 237.940722 250.707733 
L 239.052553 245.038693 
L 240.164384 260.190446 
L 241.276214 222.471072 
L 242.388045 231.908098 
L 243.499875 198.780899 
L 244.611706 214.477397 
L 245.723537 211.976901 
L 246.835367 194.245312 
L 247.947198 182.752145 
L 249.059029 189.053668 
L 250.170859 207.015484 
L 251.28269 180.392608 
L 252.394521 185.849462 
L 253.506351 192.108619 
L 254.618182 237.51683 
L 255.730012 220.965602 
L 256.841843 223.664376 
L 257.953674 200.041823 
L 259.065504 229.783692 
L 260.177335 252.062929 
L 261.289166 245.912732 
L 262.400996 197.876861 
L 263.512827 169.788488 
L 265.736488 121.384104 
L 267.960149 227.946918 
L 269.07198 215.910007 
L 270.183811 266.839443 
L 271.295641 258.898814 
L 272.407472 256.642213 
L 273.519303 224.891605 
L 274.631133 239.333477 
L 275.742964 208.934228 
L 276.854795 208.85164 
L 277.966625 193.529876 
L 279.078456 183.3509 
L 280.190286 247.685568 
L 281.302117 255.438106 
L 282.413948 261.96826 
L 284.637609 197.720474 
L 285.74944 145.068268 
L 286.86127 148.430504 
L 287.973101 124.104369 
L 289.084932 131.261573 
L 290.196762 104.232488 
L 291.308593 92.26804 
L 292.420423 120.469015 
L 293.532254 185.749417 
L 294.644085 180.934367 
L 295.755915 136.146112 
L 296.867746 186.752936 
L 299.091407 220.719489 
L 300.203238 243.593697 
L 301.315068 198.244584 
L 302.426899 142.980526 
L 303.53873 113.589236 
L 304.65056 104.001549 
L 305.762391 157.916741 
L 306.874222 243.589018 
L 307.986052 211.691875 
L 309.097883 214.026919 
L 310.209714 246.219222 
L 311.321544 247.332208 
L 312.433375 251.705955 
L 313.545205 199.166133 
L 314.657036 137.522878 
L 315.768867 150.323626 
L 316.880697 186.129809 
L 319.104359 224.017397 
L 320.216189 226.683345 
L 321.32802 242.614276 
L 322.439851 242.297075 
L 323.551681 245.117092 
L 324.663512 249.312241 
L 325.775342 252.601399 
L 326.887173 237.007397 
L 327.999004 242.714138 
L 329.110834 236.043727 
L 330.222665 234.27435 
L 331.334496 247.334494 
L 332.446326 252.70983 
L 333.558157 253.685077 
L 334.669988 230.431005 
L 335.781818 241.455264 
L 336.893649 237.668478 
L 338.005479 234.82004 
L 339.11731 255.148247 
L 340.229141 222.124104 
L 341.340971 256.728268 
L 342.452802 249.306839 
L 343.564633 217.039624 
L 344.676463 261.393632 
L 345.788294 262.86799 
L 346.900125 265.079836 
L 348.011955 258.354549 
L 349.123786 247.936371 
L 350.235616 196.270863 
L 352.459278 249.098872 
L 353.571108 250.715592 
L 354.682939 255.838779 
L 355.79477 255.063221 
L 356.9066 255.970113 
L 358.018431 284.04699 
L 359.130262 270.738597 
L 360.242092 279.444254 
L 361.353923 255.86525 
L 362.465753 254.732292 
L 363.577584 244.144009 
L 364.689415 257.627902 
L 365.801245 251.668285 
L 366.913076 237.428529 
L 368.024907 216.150205 
L 370.248568 236.431138 
L 371.360399 262.103387 
L 372.472229 265.886668 
L 373.58406 271.516803 
L 374.69589 244.371077 
L 375.807721 266.266259 
L 376.919552 257.409451 
L 378.031382 255.537767 
L 379.143213 258.27273 
L 380.255044 272.04366 
L 381.366874 268.06738 
L 382.478705 266.806802 
L 383.590535 264.872024 
L 384.702366 259.708666 
L 385.814197 235.703789 
L 386.926027 223.265563 
L 389.149689 248.991597 
L 390.261519 274.425694 
L 391.37335 277.513987 
L 392.485181 297.340156 
L 393.597011 292.265825 
L 394.708842 289.345545 
L 395.820672 294.9067 
L 396.932503 266.481512 
L 398.044334 276.726066 
L 399.156164 240.676163 
L 400.267995 242.583675 
L 401.379826 260.295575 
L 402.491656 270.579148 
L 403.603487 297.598747 
L 404.715318 290.171382 
L 405.827148 272.247033 
L 406.938979 268.506531 
L 408.050809 270.867317 
L 409.16264 307.553828 
L 410.274471 304.75468 
L 411.386301 311.423768 
L 412.498132 308.180988 
L 413.609963 295.595089 
L 414.721793 290.942464 
L 415.833624 278.014775 
L 416.945455 281.733151 
L 418.057285 278.619258 
L 419.169116 267.710614 
L 420.280946 286.906932 
L 421.392777 271.953633 
L 422.504608 283.884865 
L 423.616438 282.868238 
L 424.728269 269.297252 
L 425.8401 277.687902 
L 426.95193 272.812393 
L 428.063761 269.591095 
L 429.175592 281.532577 
L 430.287422 283.632094 
L 431.399253 298.624576 
L 432.511083 295.90729 
L 433.622914 282.566799 
L 434.734745 264.50569 
L 435.846575 283.281042 
L 436.958406 281.712804 
L 438.070237 285.444432 
L 439.182067 279.542211 
L 440.293898 277.860393 
L 441.405729 282.601961 
L 442.517559 273.451767 
L 443.62939 247.550005 
L 444.74122 264.895434 
L 445.853051 259.553687 
L 448.076712 319.626958 
L 449.188543 323.291989 
L 450.300374 305.209026 
L 451.412204 311.881885 
L 452.524035 309.435181 
L 454.747696 321.869829 
L 455.859527 320.780236 
L 456.971357 307.820288 
L 458.083188 302.479651 
L 459.195019 308.506346 
L 460.306849 301.964754 
L 461.41868 308.038936 
L 462.530511 314.846064 
L 463.642341 316.434766 
L 464.754172 310.938489 
L 465.866002 312.459827 
L 466.977833 317.226775 
L 468.089664 295.413492 
L 469.201494 284.886025 
L 470.313325 289.501953 
L 471.425156 318.390853 
L 472.536986 332.137901 
L 473.648817 306.380476 
L 474.760648 311.536399 
L 475.872478 309.88543 
L 476.984309 294.524969 
L 478.096139 308.81759 
L 479.20797 305.568198 
L 480.319801 313.25431 
L 481.431631 282.959519 
L 482.543462 300.913067 
L 483.655293 271.40924 
L 484.767123 301.750317 
L 485.878954 293.165968 
L 486.990785 324.365517 
L 488.102615 320.22203 
L 489.214446 318.094363 
L 490.326276 297.19289 
L 491.438107 311.524632 
L 493.661768 291.69401 
L 494.773599 292.105159 
L 495.88543 312.09745 
L 496.99726 334.308364 
L 498.109091 324.857373 
L 498.109091 324.857373 
" style="fill:none;stroke:#ff7f0e;stroke-linecap:square;stroke-width:1.5;"/>
   </g>
   <g id="patch_3">
    <path d="M 72 378 
L 72 51.84 
" style="fill:none;stroke:#000000;stroke-linecap:square;stroke-linejoin:miter;stroke-width:0.8;"/>
   </g>
   <g id="patch_4">
    <path d="M 518.4 378 
L 518.4 51.84 
" style="fill:none;stroke:#000000;stroke-linecap:square;stroke-linejoin:miter;stroke-width:0.8;"/>
   </g>
   <g id="patch_5">
    <path d="M 72 378 
L 518.4 378 
" style="fill:none;stroke:#000000;stroke-linecap:square;stroke-linejoin:miter;stroke-width:0.8;"/>
   </g>
   <g id="patch_6">
    <path d="M 72 51.84 
L 518.4 51.84 
" style="fill:none;stroke:#000000;stroke-linecap:square;stroke-linejoin:miter;stroke-width:0.8;"/>
   </g>
   <g id="text_19">
    <!-- $O_3$ BETN073 2010: LSSVM (MSE: 150.07, sMAPE: 19.37%, MASE: 0.7) -->
    <defs>
     <path d="M 19.671875 34.8125 
L 19.671875 8.109375 
L 35.5 8.109375 
Q 43.453125 8.109375 47.28125 11.40625 
Q 51.125 14.703125 51.125 21.484375 
Q 51.125 28.328125 47.28125 31.5625 
Q 43.453125 34.8125 35.5 34.8125 
z
M 19.671875 64.796875 
L 19.671875 42.828125 
L 34.28125 42.828125 
Q 41.5 42.828125 45.03125 45.53125 
Q 48.578125 48.25 48.578125 53.8125 
Q 48.578125 59.328125 45.03125 62.0625 
Q 41.5 64.796875 34.28125 64.796875 
z
M 9.8125 72.90625 
L 35.015625 72.90625 
Q 46.296875 72.90625 52.390625 68.21875 
Q 58.5 63.53125 58.5 54.890625 
Q 58.5 48.1875 55.375 44.234375 
Q 52.25 40.28125 46.1875 39.3125 
Q 53.46875 37.75 57.5 32.78125 
Q 61.53125 27.828125 61.53125 20.40625 
Q 61.53125 10.640625 54.890625 5.3125 
Q 48.25 0 35.984375 0 
L 9.8125 0 
z
" id="DejaVuSans-66"/>
     <path d="M 9.8125 72.90625 
L 55.90625 72.90625 
L 55.90625 64.59375 
L 19.671875 64.59375 
L 19.671875 43.015625 
L 54.390625 43.015625 
L 54.390625 34.71875 
L 19.671875 34.71875 
L 19.671875 8.296875 
L 56.78125 8.296875 
L 56.78125 0 
L 9.8125 0 
z
" id="DejaVuSans-69"/>
     <path d="M -0.296875 72.90625 
L 61.375 72.90625 
L 61.375 64.59375 
L 35.5 64.59375 
L 35.5 0 
L 25.59375 0 
L 25.59375 64.59375 
L -0.296875 64.59375 
z
" id="DejaVuSans-84"/>
     <path d="M 9.8125 72.90625 
L 23.09375 72.90625 
L 55.421875 11.921875 
L 55.421875 72.90625 
L 64.984375 72.90625 
L 64.984375 0 
L 51.703125 0 
L 19.390625 60.984375 
L 19.390625 0 
L 9.8125 0 
z
" id="DejaVuSans-78"/>
     <path d="M 11.71875 12.40625 
L 22.015625 12.40625 
L 22.015625 0 
L 11.71875 0 
z
M 11.71875 51.703125 
L 22.015625 51.703125 
L 22.015625 39.3125 
L 11.71875 39.3125 
z
" id="DejaVuSans-58"/>
     <path d="M 9.8125 72.90625 
L 19.671875 72.90625 
L 19.671875 8.296875 
L 55.171875 8.296875 
L 55.171875 0 
L 9.8125 0 
z
" id="DejaVuSans-76"/>
     <path d="M 53.515625 70.515625 
L 53.515625 60.890625 
Q 47.90625 63.578125 42.921875 64.890625 
Q 37.9375 66.21875 33.296875 66.21875 
Q 25.25 66.21875 20.875 63.09375 
Q 16.5 59.96875 16.5 54.203125 
Q 16.5 49.359375 19.40625 46.890625 
Q 22.3125 44.4375 30.421875 42.921875 
L 36.375 41.703125 
Q 47.40625 39.59375 52.65625 34.296875 
Q 57.90625 29 57.90625 20.125 
Q 57.90625 9.515625 50.796875 4.046875 
Q 43.703125 -1.421875 29.984375 -1.421875 
Q 24.8125 -1.421875 18.96875 -0.25 
Q 13.140625 0.921875 6.890625 3.21875 
L 6.890625 13.375 
Q 12.890625 10.015625 18.65625 8.296875 
Q 24.421875 6.59375 29.984375 6.59375 
Q 38.421875 6.59375 43.015625 9.90625 
Q 47.609375 13.234375 47.609375 19.390625 
Q 47.609375 24.75 44.3125 27.78125 
Q 41.015625 30.8125 33.5 32.328125 
L 27.484375 33.5 
Q 16.453125 35.6875 11.515625 40.375 
Q 6.59375 45.0625 6.59375 53.421875 
Q 6.59375 63.09375 13.40625 68.65625 
Q 20.21875 74.21875 32.171875 74.21875 
Q 37.3125 74.21875 42.625 73.28125 
Q 47.953125 72.359375 53.515625 70.515625 
z
" id="DejaVuSans-83"/>
     <path d="M 28.609375 0 
L 0.78125 72.90625 
L 11.078125 72.90625 
L 34.1875 11.53125 
L 57.328125 72.90625 
L 67.578125 72.90625 
L 39.796875 0 
z
" id="DejaVuSans-86"/>
     <path d="M 9.8125 72.90625 
L 24.515625 72.90625 
L 43.109375 23.296875 
L 61.8125 72.90625 
L 76.515625 72.90625 
L 76.515625 0 
L 66.890625 0 
L 66.890625 64.015625 
L 48.09375 14.015625 
L 38.1875 14.015625 
L 19.390625 64.015625 
L 19.390625 0 
L 9.8125 0 
z
" id="DejaVuSans-77"/>
     <path d="M 31 75.875 
Q 24.46875 64.65625 21.28125 53.65625 
Q 18.109375 42.671875 18.109375 31.390625 
Q 18.109375 20.125 21.3125 9.0625 
Q 24.515625 -2 31 -13.1875 
L 23.1875 -13.1875 
Q 15.875 -1.703125 12.234375 9.375 
Q 8.59375 20.453125 8.59375 31.390625 
Q 8.59375 42.28125 12.203125 53.3125 
Q 15.828125 64.359375 23.1875 75.875 
z
" id="DejaVuSans-40"/>
     <path d="M 10.6875 12.40625 
L 21 12.40625 
L 21 0 
L 10.6875 0 
z
" id="DejaVuSans-46"/>
     <path d="M 11.71875 12.40625 
L 22.015625 12.40625 
L 22.015625 4 
L 14.015625 -11.625 
L 7.71875 -11.625 
L 11.71875 4 
z
" id="DejaVuSans-44"/>
     <path d="M 44.28125 53.078125 
L 44.28125 44.578125 
Q 40.484375 46.53125 36.375 47.5 
Q 32.28125 48.484375 27.875 48.484375 
Q 21.1875 48.484375 17.84375 46.4375 
Q 14.5 44.390625 14.5 40.28125 
Q 14.5 37.15625 16.890625 35.375 
Q 19.28125 33.59375 26.515625 31.984375 
L 29.59375 31.296875 
Q 39.15625 29.25 43.1875 25.515625 
Q 47.21875 21.78125 47.21875 15.09375 
Q 47.21875 7.46875 41.1875 3.015625 
Q 35.15625 -1.421875 24.609375 -1.421875 
Q 20.21875 -1.421875 15.453125 -0.5625 
Q 10.6875 0.296875 5.421875 2 
L 5.421875 11.28125 
Q 10.40625 8.6875 15.234375 7.390625 
Q 20.0625 6.109375 24.8125 6.109375 
Q 31.15625 6.109375 34.5625 8.28125 
Q 37.984375 10.453125 37.984375 14.40625 
Q 37.984375 18.0625 35.515625 20.015625 
Q 33.0625 21.96875 24.703125 23.78125 
L 21.578125 24.515625 
Q 13.234375 26.265625 9.515625 29.90625 
Q 5.8125 33.546875 5.8125 39.890625 
Q 5.8125 47.609375 11.28125 51.796875 
Q 16.75 56 26.8125 56 
Q 31.78125 56 36.171875 55.265625 
Q 40.578125 54.546875 44.28125 53.078125 
z
" id="DejaVuSans-115"/>
     <path d="M 34.1875 63.1875 
L 20.796875 26.90625 
L 47.609375 26.90625 
z
M 28.609375 72.90625 
L 39.796875 72.90625 
L 67.578125 0 
L 57.328125 0 
L 50.6875 18.703125 
L 17.828125 18.703125 
L 11.1875 0 
L 0.78125 0 
z
" id="DejaVuSans-65"/>
     <path d="M 19.671875 64.796875 
L 19.671875 37.40625 
L 32.078125 37.40625 
Q 38.96875 37.40625 42.71875 40.96875 
Q 46.484375 44.53125 46.484375 51.125 
Q 46.484375 57.671875 42.71875 61.234375 
Q 38.96875 64.796875 32.078125 64.796875 
z
M 9.8125 72.90625 
L 32.078125 72.90625 
Q 44.34375 72.90625 50.609375 67.359375 
Q 56.890625 61.8125 56.890625 51.125 
Q 56.890625 40.328125 50.609375 34.8125 
Q 44.34375 29.296875 32.078125 29.296875 
L 19.671875 29.296875 
L 19.671875 0 
L 9.8125 0 
z
" id="DejaVuSans-80"/>
     <path d="M 10.984375 1.515625 
L 10.984375 10.5 
Q 14.703125 8.734375 18.5 7.8125 
Q 22.3125 6.890625 25.984375 6.890625 
Q 35.75 6.890625 40.890625 13.453125 
Q 46.046875 20.015625 46.78125 33.40625 
Q 43.953125 29.203125 39.59375 26.953125 
Q 35.25 24.703125 29.984375 24.703125 
Q 19.046875 24.703125 12.671875 31.3125 
Q 6.296875 37.9375 6.296875 49.421875 
Q 6.296875 60.640625 12.9375 67.421875 
Q 19.578125 74.21875 30.609375 74.21875 
Q 43.265625 74.21875 49.921875 64.515625 
Q 56.59375 54.828125 56.59375 36.375 
Q 56.59375 19.140625 48.40625 8.859375 
Q 40.234375 -1.421875 26.421875 -1.421875 
Q 22.703125 -1.421875 18.890625 -0.6875 
Q 15.09375 0.046875 10.984375 1.515625 
z
M 30.609375 32.421875 
Q 37.25 32.421875 41.125 36.953125 
Q 45.015625 41.5 45.015625 49.421875 
Q 45.015625 57.28125 41.125 61.84375 
Q 37.25 66.40625 30.609375 66.40625 
Q 23.96875 66.40625 20.09375 61.84375 
Q 16.21875 57.28125 16.21875 49.421875 
Q 16.21875 41.5 20.09375 36.953125 
Q 23.96875 32.421875 30.609375 32.421875 
z
" id="DejaVuSans-57"/>
     <path d="M 72.703125 32.078125 
Q 68.453125 32.078125 66.03125 28.46875 
Q 63.625 24.859375 63.625 18.40625 
Q 63.625 12.0625 66.03125 8.421875 
Q 68.453125 4.78125 72.703125 4.78125 
Q 76.859375 4.78125 79.265625 8.421875 
Q 81.6875 12.0625 81.6875 18.40625 
Q 81.6875 24.8125 79.265625 28.4375 
Q 76.859375 32.078125 72.703125 32.078125 
z
M 72.703125 38.28125 
Q 80.421875 38.28125 84.953125 32.90625 
Q 89.5 27.546875 89.5 18.40625 
Q 89.5 9.28125 84.9375 3.921875 
Q 80.375 -1.421875 72.703125 -1.421875 
Q 64.890625 -1.421875 60.34375 3.921875 
Q 55.8125 9.28125 55.8125 18.40625 
Q 55.8125 27.59375 60.375 32.9375 
Q 64.9375 38.28125 72.703125 38.28125 
z
M 22.3125 68.015625 
Q 18.109375 68.015625 15.6875 64.375 
Q 13.28125 60.75 13.28125 54.390625 
Q 13.28125 47.953125 15.671875 44.328125 
Q 18.0625 40.71875 22.3125 40.71875 
Q 26.5625 40.71875 28.96875 44.328125 
Q 31.390625 47.953125 31.390625 54.390625 
Q 31.390625 60.6875 28.953125 64.34375 
Q 26.515625 68.015625 22.3125 68.015625 
z
M 66.40625 74.21875 
L 74.21875 74.21875 
L 28.609375 -1.421875 
L 20.796875 -1.421875 
z
M 22.3125 74.21875 
Q 30.03125 74.21875 34.609375 68.875 
Q 39.203125 63.53125 39.203125 54.390625 
Q 39.203125 45.171875 34.640625 39.84375 
Q 30.078125 34.515625 22.3125 34.515625 
Q 14.546875 34.515625 10.03125 39.859375 
Q 5.515625 45.21875 5.515625 54.390625 
Q 5.515625 63.484375 10.046875 68.84375 
Q 14.59375 74.21875 22.3125 74.21875 
z
" id="DejaVuSans-37"/>
     <path d="M 8.015625 75.875 
L 15.828125 75.875 
Q 23.140625 64.359375 26.78125 53.3125 
Q 30.421875 42.28125 30.421875 31.390625 
Q 30.421875 20.453125 26.78125 9.375 
Q 23.140625 -1.703125 15.828125 -13.1875 
L 8.015625 -13.1875 
Q 14.5 -2 17.703125 9.0625 
Q 20.90625 20.125 20.90625 31.390625 
Q 20.90625 42.671875 17.703125 53.65625 
Q 14.5 64.65625 8.015625 75.875 
z
" id="DejaVuSans-41"/>
    </defs>
    <g transform="translate(87.96 45.84)scale(0.12 -0.12)">
     <use transform="translate(0 0.125)" xlink:href="#DejaVuSans-Oblique-79"/>
     <use transform="translate(78.710938 -16.28125)scale(0.7)" xlink:href="#DejaVuSans-51"/>
     <use transform="translate(125.981445 0.125)" xlink:href="#DejaVuSans-32"/>
     <use transform="translate(157.768555 0.125)" xlink:href="#DejaVuSans-66"/>
     <use transform="translate(226.37207 0.125)" xlink:href="#DejaVuSans-69"/>
     <use transform="translate(289.555664 0.125)" xlink:href="#DejaVuSans-84"/>
     <use transform="translate(350.639648 0.125)" xlink:href="#DejaVuSans-78"/>
     <use transform="translate(425.444336 0.125)" xlink:href="#DejaVuSans-48"/>
     <use transform="translate(489.067383 0.125)" xlink:href="#DejaVuSans-55"/>
     <use transform="translate(552.69043 0.125)" xlink:href="#DejaVuSans-51"/>
     <use transform="translate(616.313477 0.125)" xlink:href="#DejaVuSans-32"/>
     <use transform="translate(648.100586 0.125)" xlink:href="#DejaVuSans-50"/>
     <use transform="translate(711.723633 0.125)" xlink:href="#DejaVuSans-48"/>
     <use transform="translate(775.34668 0.125)" xlink:href="#DejaVuSans-49"/>
     <use transform="translate(838.969727 0.125)" xlink:href="#DejaVuSans-48"/>
     <use transform="translate(902.592773 0.125)" xlink:href="#DejaVuSans-58"/>
     <use transform="translate(936.28418 0.125)" xlink:href="#DejaVuSans-32"/>
     <use transform="translate(968.071289 0.125)" xlink:href="#DejaVuSans-76"/>
     <use transform="translate(1023.78418 0.125)" xlink:href="#DejaVuSans-83"/>
     <use transform="translate(1087.260742 0.125)" xlink:href="#DejaVuSans-83"/>
     <use transform="translate(1150.737305 0.125)" xlink:href="#DejaVuSans-86"/>
     <use transform="translate(1219.145508 0.125)" xlink:href="#DejaVuSans-77"/>
     <use transform="translate(1305.424805 0.125)" xlink:href="#DejaVuSans-32"/>
     <use transform="translate(1337.211914 0.125)" xlink:href="#DejaVuSans-40"/>
     <use transform="translate(1376.225586 0.125)" xlink:href="#DejaVuSans-77"/>
     <use transform="translate(1462.504883 0.125)" xlink:href="#DejaVuSans-83"/>
     <use transform="translate(1525.981445 0.125)" xlink:href="#DejaVuSans-69"/>
     <use transform="translate(1589.165039 0.125)" xlink:href="#DejaVuSans-58"/>
     <use transform="translate(1622.856445 0.125)" xlink:href="#DejaVuSans-32"/>
     <use transform="translate(1654.643555 0.125)" xlink:href="#DejaVuSans-49"/>
     <use transform="translate(1718.266602 0.125)" xlink:href="#DejaVuSans-53"/>
     <use transform="translate(1781.889648 0.125)" xlink:href="#DejaVuSans-48"/>
     <use transform="translate(1845.512695 0.125)" xlink:href="#DejaVuSans-46"/>
     <use transform="translate(1877.299805 0.125)" xlink:href="#DejaVuSans-48"/>
     <use transform="translate(1940.922852 0.125)" xlink:href="#DejaVuSans-55"/>
     <use transform="translate(2004.545898 0.125)" xlink:href="#DejaVuSans-44"/>
     <use transform="translate(2036.333008 0.125)" xlink:href="#DejaVuSans-32"/>
     <use transform="translate(2068.120117 0.125)" xlink:href="#DejaVuSans-115"/>
     <use transform="translate(2120.219727 0.125)" xlink:href="#DejaVuSans-77"/>
     <use transform="translate(2206.499023 0.125)" xlink:href="#DejaVuSans-65"/>
     <use transform="translate(2274.907227 0.125)" xlink:href="#DejaVuSans-80"/>
     <use transform="translate(2335.209961 0.125)" xlink:href="#DejaVuSans-69"/>
     <use transform="translate(2398.393555 0.125)" xlink:href="#DejaVuSans-58"/>
     <use transform="translate(2432.084961 0.125)" xlink:href="#DejaVuSans-32"/>
     <use transform="translate(2463.87207 0.125)" xlink:href="#DejaVuSans-49"/>
     <use transform="translate(2527.495117 0.125)" xlink:href="#DejaVuSans-57"/>
     <use transform="translate(2591.118164 0.125)" xlink:href="#DejaVuSans-46"/>
     <use transform="translate(2622.905273 0.125)" xlink:href="#DejaVuSans-51"/>
     <use transform="translate(2686.52832 0.125)" xlink:href="#DejaVuSans-55"/>
     <use transform="translate(2750.151367 0.125)" xlink:href="#DejaVuSans-37"/>
     <use transform="translate(2845.170898 0.125)" xlink:href="#DejaVuSans-44"/>
     <use transform="translate(2876.958008 0.125)" xlink:href="#DejaVuSans-32"/>
     <use transform="translate(2908.745117 0.125)" xlink:href="#DejaVuSans-77"/>
     <use transform="translate(2995.024414 0.125)" xlink:href="#DejaVuSans-65"/>
     <use transform="translate(3063.432617 0.125)" xlink:href="#DejaVuSans-83"/>
     <use transform="translate(3126.90918 0.125)" xlink:href="#DejaVuSans-69"/>
     <use transform="translate(3190.092773 0.125)" xlink:href="#DejaVuSans-58"/>
     <use transform="translate(3223.78418 0.125)" xlink:href="#DejaVuSans-32"/>
     <use transform="translate(3255.571289 0.125)" xlink:href="#DejaVuSans-48"/>
     <use transform="translate(3319.194336 0.125)" xlink:href="#DejaVuSans-46"/>
     <use transform="translate(3350.87207 0.125)" xlink:href="#DejaVuSans-55"/>
     <use transform="translate(3414.495117 0.125)" xlink:href="#DejaVuSans-41"/>
    </g>
   </g>
   <g id="legend_1">
    <g id="patch_7">
     <path d="M 431.74375 89.19625 
L 511.4 89.19625 
Q 513.4 89.19625 513.4 87.19625 
L 513.4 58.84 
Q 513.4 56.84 511.4 56.84 
L 431.74375 56.84 
Q 429.74375 56.84 429.74375 58.84 
L 429.74375 87.19625 
Q 429.74375 89.19625 431.74375 89.19625 
z
" style="fill:#ffffff;opacity:0.8;stroke:#cccccc;stroke-linejoin:miter;"/>
    </g>
    <g id="line2d_35">
     <path d="M 433.74375 64.938437 
L 453.74375 64.938437 
" style="fill:none;stroke:#1f77b4;stroke-linecap:square;stroke-width:1.5;"/>
    </g>
    <g id="line2d_36"/>
    <g id="text_20">
     <!-- expected -->
     <defs>
      <path d="M 56.203125 29.59375 
L 56.203125 25.203125 
L 14.890625 25.203125 
Q 15.484375 15.921875 20.484375 11.0625 
Q 25.484375 6.203125 34.421875 6.203125 
Q 39.59375 6.203125 44.453125 7.46875 
Q 49.3125 8.734375 54.109375 11.28125 
L 54.109375 2.78125 
Q 49.265625 0.734375 44.1875 -0.34375 
Q 39.109375 -1.421875 33.890625 -1.421875 
Q 20.796875 -1.421875 13.15625 6.1875 
Q 5.515625 13.8125 5.515625 26.8125 
Q 5.515625 40.234375 12.765625 48.109375 
Q 20.015625 56 32.328125 56 
Q 43.359375 56 49.78125 48.890625 
Q 56.203125 41.796875 56.203125 29.59375 
z
M 47.21875 32.234375 
Q 47.125 39.59375 43.09375 43.984375 
Q 39.0625 48.390625 32.421875 48.390625 
Q 24.90625 48.390625 20.390625 44.140625 
Q 15.875 39.890625 15.1875 32.171875 
z
" id="DejaVuSans-101"/>
      <path d="M 18.109375 8.203125 
L 18.109375 -20.796875 
L 9.078125 -20.796875 
L 9.078125 54.6875 
L 18.109375 54.6875 
L 18.109375 46.390625 
Q 20.953125 51.265625 25.265625 53.625 
Q 29.59375 56 35.59375 56 
Q 45.5625 56 51.78125 48.09375 
Q 58.015625 40.1875 58.015625 27.296875 
Q 58.015625 14.40625 51.78125 6.484375 
Q 45.5625 -1.421875 35.59375 -1.421875 
Q 29.59375 -1.421875 25.265625 0.953125 
Q 20.953125 3.328125 18.109375 8.203125 
z
M 48.6875 27.296875 
Q 48.6875 37.203125 44.609375 42.84375 
Q 40.53125 48.484375 33.40625 48.484375 
Q 26.265625 48.484375 22.1875 42.84375 
Q 18.109375 37.203125 18.109375 27.296875 
Q 18.109375 17.390625 22.1875 11.75 
Q 26.265625 6.109375 33.40625 6.109375 
Q 40.53125 6.109375 44.609375 11.75 
Q 48.6875 17.390625 48.6875 27.296875 
z
" id="DejaVuSans-112"/>
      <path d="M 48.78125 52.59375 
L 48.78125 44.1875 
Q 44.96875 46.296875 41.140625 47.34375 
Q 37.3125 48.390625 33.40625 48.390625 
Q 24.65625 48.390625 19.8125 42.84375 
Q 14.984375 37.3125 14.984375 27.296875 
Q 14.984375 17.28125 19.8125 11.734375 
Q 24.65625 6.203125 33.40625 6.203125 
Q 37.3125 6.203125 41.140625 7.25 
Q 44.96875 8.296875 48.78125 10.40625 
L 48.78125 2.09375 
Q 45.015625 0.34375 40.984375 -0.53125 
Q 36.96875 -1.421875 32.421875 -1.421875 
Q 20.0625 -1.421875 12.78125 6.34375 
Q 5.515625 14.109375 5.515625 27.296875 
Q 5.515625 40.671875 12.859375 48.328125 
Q 20.21875 56 33.015625 56 
Q 37.15625 56 41.109375 55.140625 
Q 45.0625 54.296875 48.78125 52.59375 
z
" id="DejaVuSans-99"/>
      <path d="M 18.3125 70.21875 
L 18.3125 54.6875 
L 36.8125 54.6875 
L 36.8125 47.703125 
L 18.3125 47.703125 
L 18.3125 18.015625 
Q 18.3125 11.328125 20.140625 9.421875 
Q 21.96875 7.515625 27.59375 7.515625 
L 36.8125 7.515625 
L 36.8125 0 
L 27.59375 0 
Q 17.1875 0 13.234375 3.875 
Q 9.28125 7.765625 9.28125 18.015625 
L 9.28125 47.703125 
L 2.6875 47.703125 
L 2.6875 54.6875 
L 9.28125 54.6875 
L 9.28125 70.21875 
z
" id="DejaVuSans-116"/>
      <path d="M 45.40625 46.390625 
L 45.40625 75.984375 
L 54.390625 75.984375 
L 54.390625 0 
L 45.40625 0 
L 45.40625 8.203125 
Q 42.578125 3.328125 38.25 0.953125 
Q 33.9375 -1.421875 27.875 -1.421875 
Q 17.96875 -1.421875 11.734375 6.484375 
Q 5.515625 14.40625 5.515625 27.296875 
Q 5.515625 40.1875 11.734375 48.09375 
Q 17.96875 56 27.875 56 
Q 33.9375 56 38.25 53.625 
Q 42.578125 51.265625 45.40625 46.390625 
z
M 14.796875 27.296875 
Q 14.796875 17.390625 18.875 11.75 
Q 22.953125 6.109375 30.078125 6.109375 
Q 37.203125 6.109375 41.296875 11.75 
Q 45.40625 17.390625 45.40625 27.296875 
Q 45.40625 37.203125 41.296875 42.84375 
Q 37.203125 48.484375 30.078125 48.484375 
Q 22.953125 48.484375 18.875 42.84375 
Q 14.796875 37.203125 14.796875 27.296875 
z
" id="DejaVuSans-100"/>
     </defs>
     <g transform="translate(461.74375 68.438437)scale(0.1 -0.1)">
      <use xlink:href="#DejaVuSans-101"/>
      <use x="61.507812" xlink:href="#DejaVuSans-120"/>
      <use x="120.6875" xlink:href="#DejaVuSans-112"/>
      <use x="184.164062" xlink:href="#DejaVuSans-101"/>
      <use x="245.6875" xlink:href="#DejaVuSans-99"/>
      <use x="300.667969" xlink:href="#DejaVuSans-116"/>
      <use x="339.876953" xlink:href="#DejaVuSans-101"/>
      <use x="401.400391" xlink:href="#DejaVuSans-100"/>
     </g>
    </g>
    <g id="line2d_37">
     <path d="M 433.74375 79.616562 
L 453.74375 79.616562 
" style="fill:none;stroke:#ff7f0e;stroke-linecap:square;stroke-width:1.5;"/>
    </g>
    <g id="line2d_38"/>
    <g id="text_21">
     <!-- predicted -->
     <defs>
      <path d="M 41.109375 46.296875 
Q 39.59375 47.171875 37.8125 47.578125 
Q 36.03125 48 33.890625 48 
Q 26.265625 48 22.1875 43.046875 
Q 18.109375 38.09375 18.109375 28.8125 
L 18.109375 0 
L 9.078125 0 
L 9.078125 54.6875 
L 18.109375 54.6875 
L 18.109375 46.1875 
Q 20.953125 51.171875 25.484375 53.578125 
Q 30.03125 56 36.53125 56 
Q 37.453125 56 38.578125 55.875 
Q 39.703125 55.765625 41.0625 55.515625 
z
" id="DejaVuSans-114"/>
      <path d="M 9.421875 54.6875 
L 18.40625 54.6875 
L 18.40625 0 
L 9.421875 0 
z
M 9.421875 75.984375 
L 18.40625 75.984375 
L 18.40625 64.59375 
L 9.421875 64.59375 
z
" id="DejaVuSans-105"/>
     </defs>
     <g transform="translate(461.74375 83.116562)scale(0.1 -0.1)">
      <use xlink:href="#DejaVuSans-112"/>
      <use x="63.476562" xlink:href="#DejaVuSans-114"/>
      <use x="104.558594" xlink:href="#DejaVuSans-101"/>
      <use x="166.082031" xlink:href="#DejaVuSans-100"/>
      <use x="229.558594" xlink:href="#DejaVuSans-105"/>
      <use x="257.341797" xlink:href="#DejaVuSans-99"/>
      <use x="312.322266" xlink:href="#DejaVuSans-116"/>
      <use x="351.53125" xlink:href="#DejaVuSans-101"/>
      <use x="413.054688" xlink:href="#DejaVuSans-100"/>
     </g>
    </g>
   </g>
  </g>
 </g>
 <defs>
  <clipPath id="p977ddf41da">
   <rect height="326.16" width="446.4" x="72" y="51.84"/>
  </clipPath>
 </defs>
</svg>
