<?xml version="1.0" encoding="utf-8" standalone="no"?>
<!DOCTYPE svg PUBLIC "-//W3C//DTD SVG 1.1//EN"
  "http://www.w3.org/Graphics/SVG/1.1/DTD/svg11.dtd">
<!-- Created with matplotlib (https://matplotlib.org/) -->
<svg height="432pt" version="1.1" viewBox="0 0 576 432" width="576pt" xmlns="http://www.w3.org/2000/svg" xmlns:xlink="http://www.w3.org/1999/xlink">
 <defs>
  <style type="text/css">
*{stroke-linecap:butt;stroke-linejoin:round;white-space:pre;}
  </style>
 </defs>
 <g id="figure_1">
  <g id="patch_1">
   <path d="M 0 432 
L 576 432 
L 576 0 
L 0 0 
z
" style="fill:#ffffff;"/>
  </g>
  <g id="axes_1">
   <g id="patch_2">
    <path d="M 72 378 
L 518.4 378 
L 518.4 51.84 
L 72 51.84 
z
" style="fill:#ffffff;"/>
   </g>
   <g id="matplotlib.axis_1">
    <g id="xtick_1">
     <g id="line2d_1">
      <path clip-path="url(#p5bc7acb672)" d="M 92.290909 378 
L 92.290909 51.84 
" style="fill:none;stroke:#b0b0b0;stroke-linecap:square;stroke-width:0.8;"/>
     </g>
     <g id="line2d_2">
      <defs>
       <path d="M 0 0 
L 0 3.5 
" id="m50526822c2" style="stroke:#000000;stroke-width:0.8;"/>
      </defs>
      <g>
       <use style="stroke:#000000;stroke-width:0.8;" x="92.290909" xlink:href="#m50526822c2" y="378"/>
      </g>
     </g>
     <g id="text_1">
      <!-- 0 -->
      <defs>
       <path d="M 31.78125 66.40625 
Q 24.171875 66.40625 20.328125 58.90625 
Q 16.5 51.421875 16.5 36.375 
Q 16.5 21.390625 20.328125 13.890625 
Q 24.171875 6.390625 31.78125 6.390625 
Q 39.453125 6.390625 43.28125 13.890625 
Q 47.125 21.390625 47.125 36.375 
Q 47.125 51.421875 43.28125 58.90625 
Q 39.453125 66.40625 31.78125 66.40625 
z
M 31.78125 74.21875 
Q 44.046875 74.21875 50.515625 64.515625 
Q 56.984375 54.828125 56.984375 36.375 
Q 56.984375 17.96875 50.515625 8.265625 
Q 44.046875 -1.421875 31.78125 -1.421875 
Q 19.53125 -1.421875 13.0625 8.265625 
Q 6.59375 17.96875 6.59375 36.375 
Q 6.59375 54.828125 13.0625 64.515625 
Q 19.53125 74.21875 31.78125 74.21875 
z
" id="DejaVuSans-48"/>
      </defs>
      <g transform="translate(89.109659 392.598437)scale(0.1 -0.1)">
       <use xlink:href="#DejaVuSans-48"/>
      </g>
     </g>
    </g>
    <g id="xtick_2">
     <g id="line2d_3">
      <path clip-path="url(#p5bc7acb672)" d="M 148.035165 378 
L 148.035165 51.84 
" style="fill:none;stroke:#b0b0b0;stroke-linecap:square;stroke-width:0.8;"/>
     </g>
     <g id="line2d_4">
      <g>
       <use style="stroke:#000000;stroke-width:0.8;" x="148.035165" xlink:href="#m50526822c2" y="378"/>
      </g>
     </g>
     <g id="text_2">
      <!-- 50 -->
      <defs>
       <path d="M 10.796875 72.90625 
L 49.515625 72.90625 
L 49.515625 64.59375 
L 19.828125 64.59375 
L 19.828125 46.734375 
Q 21.96875 47.46875 24.109375 47.828125 
Q 26.265625 48.1875 28.421875 48.1875 
Q 40.625 48.1875 47.75 41.5 
Q 54.890625 34.8125 54.890625 23.390625 
Q 54.890625 11.625 47.5625 5.09375 
Q 40.234375 -1.421875 26.90625 -1.421875 
Q 22.3125 -1.421875 17.546875 -0.640625 
Q 12.796875 0.140625 7.71875 1.703125 
L 7.71875 11.625 
Q 12.109375 9.234375 16.796875 8.0625 
Q 21.484375 6.890625 26.703125 6.890625 
Q 35.15625 6.890625 40.078125 11.328125 
Q 45.015625 15.765625 45.015625 23.390625 
Q 45.015625 31 40.078125 35.4375 
Q 35.15625 39.890625 26.703125 39.890625 
Q 22.75 39.890625 18.8125 39.015625 
Q 14.890625 38.140625 10.796875 36.28125 
z
" id="DejaVuSans-53"/>
      </defs>
      <g transform="translate(141.672665 392.598437)scale(0.1 -0.1)">
       <use xlink:href="#DejaVuSans-53"/>
       <use x="63.623047" xlink:href="#DejaVuSans-48"/>
      </g>
     </g>
    </g>
    <g id="xtick_3">
     <g id="line2d_5">
      <path clip-path="url(#p5bc7acb672)" d="M 203.779421 378 
L 203.779421 51.84 
" style="fill:none;stroke:#b0b0b0;stroke-linecap:square;stroke-width:0.8;"/>
     </g>
     <g id="line2d_6">
      <g>
       <use style="stroke:#000000;stroke-width:0.8;" x="203.779421" xlink:href="#m50526822c2" y="378"/>
      </g>
     </g>
     <g id="text_3">
      <!-- 100 -->
      <defs>
       <path d="M 12.40625 8.296875 
L 28.515625 8.296875 
L 28.515625 63.921875 
L 10.984375 60.40625 
L 10.984375 69.390625 
L 28.421875 72.90625 
L 38.28125 72.90625 
L 38.28125 8.296875 
L 54.390625 8.296875 
L 54.390625 0 
L 12.40625 0 
z
" id="DejaVuSans-49"/>
      </defs>
      <g transform="translate(194.235671 392.598437)scale(0.1 -0.1)">
       <use xlink:href="#DejaVuSans-49"/>
       <use x="63.623047" xlink:href="#DejaVuSans-48"/>
       <use x="127.246094" xlink:href="#DejaVuSans-48"/>
      </g>
     </g>
    </g>
    <g id="xtick_4">
     <g id="line2d_7">
      <path clip-path="url(#p5bc7acb672)" d="M 259.523676 378 
L 259.523676 51.84 
" style="fill:none;stroke:#b0b0b0;stroke-linecap:square;stroke-width:0.8;"/>
     </g>
     <g id="line2d_8">
      <g>
       <use style="stroke:#000000;stroke-width:0.8;" x="259.523676" xlink:href="#m50526822c2" y="378"/>
      </g>
     </g>
     <g id="text_4">
      <!-- 150 -->
      <g transform="translate(249.979926 392.598437)scale(0.1 -0.1)">
       <use xlink:href="#DejaVuSans-49"/>
       <use x="63.623047" xlink:href="#DejaVuSans-53"/>
       <use x="127.246094" xlink:href="#DejaVuSans-48"/>
      </g>
     </g>
    </g>
    <g id="xtick_5">
     <g id="line2d_9">
      <path clip-path="url(#p5bc7acb672)" d="M 315.267932 378 
L 315.267932 51.84 
" style="fill:none;stroke:#b0b0b0;stroke-linecap:square;stroke-width:0.8;"/>
     </g>
     <g id="line2d_10">
      <g>
       <use style="stroke:#000000;stroke-width:0.8;" x="315.267932" xlink:href="#m50526822c2" y="378"/>
      </g>
     </g>
     <g id="text_5">
      <!-- 200 -->
      <defs>
       <path d="M 19.1875 8.296875 
L 53.609375 8.296875 
L 53.609375 0 
L 7.328125 0 
L 7.328125 8.296875 
Q 12.9375 14.109375 22.625 23.890625 
Q 32.328125 33.6875 34.8125 36.53125 
Q 39.546875 41.84375 41.421875 45.53125 
Q 43.3125 49.21875 43.3125 52.78125 
Q 43.3125 58.59375 39.234375 62.25 
Q 35.15625 65.921875 28.609375 65.921875 
Q 23.96875 65.921875 18.8125 64.3125 
Q 13.671875 62.703125 7.8125 59.421875 
L 7.8125 69.390625 
Q 13.765625 71.78125 18.9375 73 
Q 24.125 74.21875 28.421875 74.21875 
Q 39.75 74.21875 46.484375 68.546875 
Q 53.21875 62.890625 53.21875 53.421875 
Q 53.21875 48.921875 51.53125 44.890625 
Q 49.859375 40.875 45.40625 35.40625 
Q 44.1875 33.984375 37.640625 27.21875 
Q 31.109375 20.453125 19.1875 8.296875 
z
" id="DejaVuSans-50"/>
      </defs>
      <g transform="translate(305.724182 392.598437)scale(0.1 -0.1)">
       <use xlink:href="#DejaVuSans-50"/>
       <use x="63.623047" xlink:href="#DejaVuSans-48"/>
       <use x="127.246094" xlink:href="#DejaVuSans-48"/>
      </g>
     </g>
    </g>
    <g id="xtick_6">
     <g id="line2d_11">
      <path clip-path="url(#p5bc7acb672)" d="M 371.012188 378 
L 371.012188 51.84 
" style="fill:none;stroke:#b0b0b0;stroke-linecap:square;stroke-width:0.8;"/>
     </g>
     <g id="line2d_12">
      <g>
       <use style="stroke:#000000;stroke-width:0.8;" x="371.012188" xlink:href="#m50526822c2" y="378"/>
      </g>
     </g>
     <g id="text_6">
      <!-- 250 -->
      <g transform="translate(361.468438 392.598437)scale(0.1 -0.1)">
       <use xlink:href="#DejaVuSans-50"/>
       <use x="63.623047" xlink:href="#DejaVuSans-53"/>
       <use x="127.246094" xlink:href="#DejaVuSans-48"/>
      </g>
     </g>
    </g>
    <g id="xtick_7">
     <g id="line2d_13">
      <path clip-path="url(#p5bc7acb672)" d="M 426.756444 378 
L 426.756444 51.84 
" style="fill:none;stroke:#b0b0b0;stroke-linecap:square;stroke-width:0.8;"/>
     </g>
     <g id="line2d_14">
      <g>
       <use style="stroke:#000000;stroke-width:0.8;" x="426.756444" xlink:href="#m50526822c2" y="378"/>
      </g>
     </g>
     <g id="text_7">
      <!-- 300 -->
      <defs>
       <path d="M 40.578125 39.3125 
Q 47.65625 37.796875 51.625 33 
Q 55.609375 28.21875 55.609375 21.1875 
Q 55.609375 10.40625 48.1875 4.484375 
Q 40.765625 -1.421875 27.09375 -1.421875 
Q 22.515625 -1.421875 17.65625 -0.515625 
Q 12.796875 0.390625 7.625 2.203125 
L 7.625 11.71875 
Q 11.71875 9.328125 16.59375 8.109375 
Q 21.484375 6.890625 26.8125 6.890625 
Q 36.078125 6.890625 40.9375 10.546875 
Q 45.796875 14.203125 45.796875 21.1875 
Q 45.796875 27.640625 41.28125 31.265625 
Q 36.765625 34.90625 28.71875 34.90625 
L 20.21875 34.90625 
L 20.21875 43.015625 
L 29.109375 43.015625 
Q 36.375 43.015625 40.234375 45.921875 
Q 44.09375 48.828125 44.09375 54.296875 
Q 44.09375 59.90625 40.109375 62.90625 
Q 36.140625 65.921875 28.71875 65.921875 
Q 24.65625 65.921875 20.015625 65.03125 
Q 15.375 64.15625 9.8125 62.3125 
L 9.8125 71.09375 
Q 15.4375 72.65625 20.34375 73.4375 
Q 25.25 74.21875 29.59375 74.21875 
Q 40.828125 74.21875 47.359375 69.109375 
Q 53.90625 64.015625 53.90625 55.328125 
Q 53.90625 49.265625 50.4375 45.09375 
Q 46.96875 40.921875 40.578125 39.3125 
z
" id="DejaVuSans-51"/>
      </defs>
      <g transform="translate(417.212694 392.598437)scale(0.1 -0.1)">
       <use xlink:href="#DejaVuSans-51"/>
       <use x="63.623047" xlink:href="#DejaVuSans-48"/>
       <use x="127.246094" xlink:href="#DejaVuSans-48"/>
      </g>
     </g>
    </g>
    <g id="xtick_8">
     <g id="line2d_15">
      <path clip-path="url(#p5bc7acb672)" d="M 482.500699 378 
L 482.500699 51.84 
" style="fill:none;stroke:#b0b0b0;stroke-linecap:square;stroke-width:0.8;"/>
     </g>
     <g id="line2d_16">
      <g>
       <use style="stroke:#000000;stroke-width:0.8;" x="482.500699" xlink:href="#m50526822c2" y="378"/>
      </g>
     </g>
     <g id="text_8">
      <!-- 350 -->
      <g transform="translate(472.956949 392.598437)scale(0.1 -0.1)">
       <use xlink:href="#DejaVuSans-51"/>
       <use x="63.623047" xlink:href="#DejaVuSans-53"/>
       <use x="127.246094" xlink:href="#DejaVuSans-48"/>
      </g>
     </g>
    </g>
    <g id="text_9">
     <!-- Day -->
     <defs>
      <path d="M 19.671875 64.796875 
L 19.671875 8.109375 
L 31.59375 8.109375 
Q 46.6875 8.109375 53.6875 14.9375 
Q 60.6875 21.78125 60.6875 36.53125 
Q 60.6875 51.171875 53.6875 57.984375 
Q 46.6875 64.796875 31.59375 64.796875 
z
M 9.8125 72.90625 
L 30.078125 72.90625 
Q 51.265625 72.90625 61.171875 64.09375 
Q 71.09375 55.28125 71.09375 36.53125 
Q 71.09375 17.671875 61.125 8.828125 
Q 51.171875 0 30.078125 0 
L 9.8125 0 
z
" id="DejaVuSans-68"/>
      <path d="M 34.28125 27.484375 
Q 23.390625 27.484375 19.1875 25 
Q 14.984375 22.515625 14.984375 16.5 
Q 14.984375 11.71875 18.140625 8.90625 
Q 21.296875 6.109375 26.703125 6.109375 
Q 34.1875 6.109375 38.703125 11.40625 
Q 43.21875 16.703125 43.21875 25.484375 
L 43.21875 27.484375 
z
M 52.203125 31.203125 
L 52.203125 0 
L 43.21875 0 
L 43.21875 8.296875 
Q 40.140625 3.328125 35.546875 0.953125 
Q 30.953125 -1.421875 24.3125 -1.421875 
Q 15.921875 -1.421875 10.953125 3.296875 
Q 6 8.015625 6 15.921875 
Q 6 25.140625 12.171875 29.828125 
Q 18.359375 34.515625 30.609375 34.515625 
L 43.21875 34.515625 
L 43.21875 35.40625 
Q 43.21875 41.609375 39.140625 45 
Q 35.0625 48.390625 27.6875 48.390625 
Q 23 48.390625 18.546875 47.265625 
Q 14.109375 46.140625 10.015625 43.890625 
L 10.015625 52.203125 
Q 14.9375 54.109375 19.578125 55.046875 
Q 24.21875 56 28.609375 56 
Q 40.484375 56 46.34375 49.84375 
Q 52.203125 43.703125 52.203125 31.203125 
z
" id="DejaVuSans-97"/>
      <path d="M 32.171875 -5.078125 
Q 28.375 -14.84375 24.75 -17.8125 
Q 21.140625 -20.796875 15.09375 -20.796875 
L 7.90625 -20.796875 
L 7.90625 -13.28125 
L 13.1875 -13.28125 
Q 16.890625 -13.28125 18.9375 -11.515625 
Q 21 -9.765625 23.484375 -3.21875 
L 25.09375 0.875 
L 2.984375 54.6875 
L 12.5 54.6875 
L 29.59375 11.921875 
L 46.6875 54.6875 
L 56.203125 54.6875 
z
" id="DejaVuSans-121"/>
     </defs>
     <g transform="translate(285.326562 406.276563)scale(0.1 -0.1)">
      <use xlink:href="#DejaVuSans-68"/>
      <use x="77.001953" xlink:href="#DejaVuSans-97"/>
      <use x="138.28125" xlink:href="#DejaVuSans-121"/>
     </g>
    </g>
   </g>
   <g id="matplotlib.axis_2">
    <g id="ytick_1">
     <g id="line2d_17">
      <path clip-path="url(#p5bc7acb672)" d="M 72 376.548884 
L 518.4 376.548884 
" style="fill:none;stroke:#b0b0b0;stroke-linecap:square;stroke-width:0.8;"/>
     </g>
     <g id="line2d_18">
      <defs>
       <path d="M 0 0 
L -3.5 0 
" id="ma9301b4660" style="stroke:#000000;stroke-width:0.8;"/>
      </defs>
      <g>
       <use style="stroke:#000000;stroke-width:0.8;" x="72" xlink:href="#ma9301b4660" y="376.548884"/>
      </g>
     </g>
     <g id="text_10">
      <!-- 0 -->
      <g transform="translate(58.6375 380.348103)scale(0.1 -0.1)">
       <use xlink:href="#DejaVuSans-48"/>
      </g>
     </g>
    </g>
    <g id="ytick_2">
     <g id="line2d_19">
      <path clip-path="url(#p5bc7acb672)" d="M 72 337.212594 
L 518.4 337.212594 
" style="fill:none;stroke:#b0b0b0;stroke-linecap:square;stroke-width:0.8;"/>
     </g>
     <g id="line2d_20">
      <g>
       <use style="stroke:#000000;stroke-width:0.8;" x="72" xlink:href="#ma9301b4660" y="337.212594"/>
      </g>
     </g>
     <g id="text_11">
      <!-- 20 -->
      <g transform="translate(52.275 341.011812)scale(0.1 -0.1)">
       <use xlink:href="#DejaVuSans-50"/>
       <use x="63.623047" xlink:href="#DejaVuSans-48"/>
      </g>
     </g>
    </g>
    <g id="ytick_3">
     <g id="line2d_21">
      <path clip-path="url(#p5bc7acb672)" d="M 72 297.876303 
L 518.4 297.876303 
" style="fill:none;stroke:#b0b0b0;stroke-linecap:square;stroke-width:0.8;"/>
     </g>
     <g id="line2d_22">
      <g>
       <use style="stroke:#000000;stroke-width:0.8;" x="72" xlink:href="#ma9301b4660" y="297.876303"/>
      </g>
     </g>
     <g id="text_12">
      <!-- 40 -->
      <defs>
       <path d="M 37.796875 64.3125 
L 12.890625 25.390625 
L 37.796875 25.390625 
z
M 35.203125 72.90625 
L 47.609375 72.90625 
L 47.609375 25.390625 
L 58.015625 25.390625 
L 58.015625 17.1875 
L 47.609375 17.1875 
L 47.609375 0 
L 37.796875 0 
L 37.796875 17.1875 
L 4.890625 17.1875 
L 4.890625 26.703125 
z
" id="DejaVuSans-52"/>
      </defs>
      <g transform="translate(52.275 301.675522)scale(0.1 -0.1)">
       <use xlink:href="#DejaVuSans-52"/>
       <use x="63.623047" xlink:href="#DejaVuSans-48"/>
      </g>
     </g>
    </g>
    <g id="ytick_4">
     <g id="line2d_23">
      <path clip-path="url(#p5bc7acb672)" d="M 72 258.540013 
L 518.4 258.540013 
" style="fill:none;stroke:#b0b0b0;stroke-linecap:square;stroke-width:0.8;"/>
     </g>
     <g id="line2d_24">
      <g>
       <use style="stroke:#000000;stroke-width:0.8;" x="72" xlink:href="#ma9301b4660" y="258.540013"/>
      </g>
     </g>
     <g id="text_13">
      <!-- 60 -->
      <defs>
       <path d="M 33.015625 40.375 
Q 26.375 40.375 22.484375 35.828125 
Q 18.609375 31.296875 18.609375 23.390625 
Q 18.609375 15.53125 22.484375 10.953125 
Q 26.375 6.390625 33.015625 6.390625 
Q 39.65625 6.390625 43.53125 10.953125 
Q 47.40625 15.53125 47.40625 23.390625 
Q 47.40625 31.296875 43.53125 35.828125 
Q 39.65625 40.375 33.015625 40.375 
z
M 52.59375 71.296875 
L 52.59375 62.3125 
Q 48.875 64.0625 45.09375 64.984375 
Q 41.3125 65.921875 37.59375 65.921875 
Q 27.828125 65.921875 22.671875 59.328125 
Q 17.53125 52.734375 16.796875 39.40625 
Q 19.671875 43.65625 24.015625 45.921875 
Q 28.375 48.1875 33.59375 48.1875 
Q 44.578125 48.1875 50.953125 41.515625 
Q 57.328125 34.859375 57.328125 23.390625 
Q 57.328125 12.15625 50.6875 5.359375 
Q 44.046875 -1.421875 33.015625 -1.421875 
Q 20.359375 -1.421875 13.671875 8.265625 
Q 6.984375 17.96875 6.984375 36.375 
Q 6.984375 53.65625 15.1875 63.9375 
Q 23.390625 74.21875 37.203125 74.21875 
Q 40.921875 74.21875 44.703125 73.484375 
Q 48.484375 72.75 52.59375 71.296875 
z
" id="DejaVuSans-54"/>
      </defs>
      <g transform="translate(52.275 262.339231)scale(0.1 -0.1)">
       <use xlink:href="#DejaVuSans-54"/>
       <use x="63.623047" xlink:href="#DejaVuSans-48"/>
      </g>
     </g>
    </g>
    <g id="ytick_5">
     <g id="line2d_25">
      <path clip-path="url(#p5bc7acb672)" d="M 72 219.203722 
L 518.4 219.203722 
" style="fill:none;stroke:#b0b0b0;stroke-linecap:square;stroke-width:0.8;"/>
     </g>
     <g id="line2d_26">
      <g>
       <use style="stroke:#000000;stroke-width:0.8;" x="72" xlink:href="#ma9301b4660" y="219.203722"/>
      </g>
     </g>
     <g id="text_14">
      <!-- 80 -->
      <defs>
       <path d="M 31.78125 34.625 
Q 24.75 34.625 20.71875 30.859375 
Q 16.703125 27.09375 16.703125 20.515625 
Q 16.703125 13.921875 20.71875 10.15625 
Q 24.75 6.390625 31.78125 6.390625 
Q 38.8125 6.390625 42.859375 10.171875 
Q 46.921875 13.96875 46.921875 20.515625 
Q 46.921875 27.09375 42.890625 30.859375 
Q 38.875 34.625 31.78125 34.625 
z
M 21.921875 38.8125 
Q 15.578125 40.375 12.03125 44.71875 
Q 8.5 49.078125 8.5 55.328125 
Q 8.5 64.0625 14.71875 69.140625 
Q 20.953125 74.21875 31.78125 74.21875 
Q 42.671875 74.21875 48.875 69.140625 
Q 55.078125 64.0625 55.078125 55.328125 
Q 55.078125 49.078125 51.53125 44.71875 
Q 48 40.375 41.703125 38.8125 
Q 48.828125 37.15625 52.796875 32.3125 
Q 56.78125 27.484375 56.78125 20.515625 
Q 56.78125 9.90625 50.3125 4.234375 
Q 43.84375 -1.421875 31.78125 -1.421875 
Q 19.734375 -1.421875 13.25 4.234375 
Q 6.78125 9.90625 6.78125 20.515625 
Q 6.78125 27.484375 10.78125 32.3125 
Q 14.796875 37.15625 21.921875 38.8125 
z
M 18.3125 54.390625 
Q 18.3125 48.734375 21.84375 45.5625 
Q 25.390625 42.390625 31.78125 42.390625 
Q 38.140625 42.390625 41.71875 45.5625 
Q 45.3125 48.734375 45.3125 54.390625 
Q 45.3125 60.0625 41.71875 63.234375 
Q 38.140625 66.40625 31.78125 66.40625 
Q 25.390625 66.40625 21.84375 63.234375 
Q 18.3125 60.0625 18.3125 54.390625 
z
" id="DejaVuSans-56"/>
      </defs>
      <g transform="translate(52.275 223.002941)scale(0.1 -0.1)">
       <use xlink:href="#DejaVuSans-56"/>
       <use x="63.623047" xlink:href="#DejaVuSans-48"/>
      </g>
     </g>
    </g>
    <g id="ytick_6">
     <g id="line2d_27">
      <path clip-path="url(#p5bc7acb672)" d="M 72 179.867431 
L 518.4 179.867431 
" style="fill:none;stroke:#b0b0b0;stroke-linecap:square;stroke-width:0.8;"/>
     </g>
     <g id="line2d_28">
      <g>
       <use style="stroke:#000000;stroke-width:0.8;" x="72" xlink:href="#ma9301b4660" y="179.867431"/>
      </g>
     </g>
     <g id="text_15">
      <!-- 100 -->
      <g transform="translate(45.9125 183.66665)scale(0.1 -0.1)">
       <use xlink:href="#DejaVuSans-49"/>
       <use x="63.623047" xlink:href="#DejaVuSans-48"/>
       <use x="127.246094" xlink:href="#DejaVuSans-48"/>
      </g>
     </g>
    </g>
    <g id="ytick_7">
     <g id="line2d_29">
      <path clip-path="url(#p5bc7acb672)" d="M 72 140.531141 
L 518.4 140.531141 
" style="fill:none;stroke:#b0b0b0;stroke-linecap:square;stroke-width:0.8;"/>
     </g>
     <g id="line2d_30">
      <g>
       <use style="stroke:#000000;stroke-width:0.8;" x="72" xlink:href="#ma9301b4660" y="140.531141"/>
      </g>
     </g>
     <g id="text_16">
      <!-- 120 -->
      <g transform="translate(45.9125 144.33036)scale(0.1 -0.1)">
       <use xlink:href="#DejaVuSans-49"/>
       <use x="63.623047" xlink:href="#DejaVuSans-50"/>
       <use x="127.246094" xlink:href="#DejaVuSans-48"/>
      </g>
     </g>
    </g>
    <g id="ytick_8">
     <g id="line2d_31">
      <path clip-path="url(#p5bc7acb672)" d="M 72 101.19485 
L 518.4 101.19485 
" style="fill:none;stroke:#b0b0b0;stroke-linecap:square;stroke-width:0.8;"/>
     </g>
     <g id="line2d_32">
      <g>
       <use style="stroke:#000000;stroke-width:0.8;" x="72" xlink:href="#ma9301b4660" y="101.19485"/>
      </g>
     </g>
     <g id="text_17">
      <!-- 140 -->
      <g transform="translate(45.9125 104.994069)scale(0.1 -0.1)">
       <use xlink:href="#DejaVuSans-49"/>
       <use x="63.623047" xlink:href="#DejaVuSans-52"/>
       <use x="127.246094" xlink:href="#DejaVuSans-48"/>
      </g>
     </g>
    </g>
    <g id="ytick_9">
     <g id="line2d_33">
      <path clip-path="url(#p5bc7acb672)" d="M 72 61.85856 
L 518.4 61.85856 
" style="fill:none;stroke:#b0b0b0;stroke-linecap:square;stroke-width:0.8;"/>
     </g>
     <g id="line2d_34">
      <g>
       <use style="stroke:#000000;stroke-width:0.8;" x="72" xlink:href="#ma9301b4660" y="61.85856"/>
      </g>
     </g>
     <g id="text_18">
      <!-- 160 -->
      <g transform="translate(45.9125 65.657779)scale(0.1 -0.1)">
       <use xlink:href="#DejaVuSans-49"/>
       <use x="63.623047" xlink:href="#DejaVuSans-54"/>
       <use x="127.246094" xlink:href="#DejaVuSans-48"/>
      </g>
     </g>
    </g>
    <g id="text_19">
     <!-- daily mean $PM 10\mu m$ $[\mu g/m^3$] -->
     <defs>
      <path d="M 45.40625 46.390625 
L 45.40625 75.984375 
L 54.390625 75.984375 
L 54.390625 0 
L 45.40625 0 
L 45.40625 8.203125 
Q 42.578125 3.328125 38.25 0.953125 
Q 33.9375 -1.421875 27.875 -1.421875 
Q 17.96875 -1.421875 11.734375 6.484375 
Q 5.515625 14.40625 5.515625 27.296875 
Q 5.515625 40.1875 11.734375 48.09375 
Q 17.96875 56 27.875 56 
Q 33.9375 56 38.25 53.625 
Q 42.578125 51.265625 45.40625 46.390625 
z
M 14.796875 27.296875 
Q 14.796875 17.390625 18.875 11.75 
Q 22.953125 6.109375 30.078125 6.109375 
Q 37.203125 6.109375 41.296875 11.75 
Q 45.40625 17.390625 45.40625 27.296875 
Q 45.40625 37.203125 41.296875 42.84375 
Q 37.203125 48.484375 30.078125 48.484375 
Q 22.953125 48.484375 18.875 42.84375 
Q 14.796875 37.203125 14.796875 27.296875 
z
" id="DejaVuSans-100"/>
      <path d="M 9.421875 54.6875 
L 18.40625 54.6875 
L 18.40625 0 
L 9.421875 0 
z
M 9.421875 75.984375 
L 18.40625 75.984375 
L 18.40625 64.59375 
L 9.421875 64.59375 
z
" id="DejaVuSans-105"/>
      <path d="M 9.421875 75.984375 
L 18.40625 75.984375 
L 18.40625 0 
L 9.421875 0 
z
" id="DejaVuSans-108"/>
      <path id="DejaVuSans-32"/>
      <path d="M 52 44.1875 
Q 55.375 50.25 60.0625 53.125 
Q 64.75 56 71.09375 56 
Q 79.640625 56 84.28125 50.015625 
Q 88.921875 44.046875 88.921875 33.015625 
L 88.921875 0 
L 79.890625 0 
L 79.890625 32.71875 
Q 79.890625 40.578125 77.09375 44.375 
Q 74.3125 48.1875 68.609375 48.1875 
Q 61.625 48.1875 57.5625 43.546875 
Q 53.515625 38.921875 53.515625 30.90625 
L 53.515625 0 
L 44.484375 0 
L 44.484375 32.71875 
Q 44.484375 40.625 41.703125 44.40625 
Q 38.921875 48.1875 33.109375 48.1875 
Q 26.21875 48.1875 22.15625 43.53125 
Q 18.109375 38.875 18.109375 30.90625 
L 18.109375 0 
L 9.078125 0 
L 9.078125 54.6875 
L 18.109375 54.6875 
L 18.109375 46.1875 
Q 21.1875 51.21875 25.484375 53.609375 
Q 29.78125 56 35.6875 56 
Q 41.65625 56 45.828125 52.96875 
Q 50 49.953125 52 44.1875 
z
" id="DejaVuSans-109"/>
      <path d="M 56.203125 29.59375 
L 56.203125 25.203125 
L 14.890625 25.203125 
Q 15.484375 15.921875 20.484375 11.0625 
Q 25.484375 6.203125 34.421875 6.203125 
Q 39.59375 6.203125 44.453125 7.46875 
Q 49.3125 8.734375 54.109375 11.28125 
L 54.109375 2.78125 
Q 49.265625 0.734375 44.1875 -0.34375 
Q 39.109375 -1.421875 33.890625 -1.421875 
Q 20.796875 -1.421875 13.15625 6.1875 
Q 5.515625 13.8125 5.515625 26.8125 
Q 5.515625 40.234375 12.765625 48.109375 
Q 20.015625 56 32.328125 56 
Q 43.359375 56 49.78125 48.890625 
Q 56.203125 41.796875 56.203125 29.59375 
z
M 47.21875 32.234375 
Q 47.125 39.59375 43.09375 43.984375 
Q 39.0625 48.390625 32.421875 48.390625 
Q 24.90625 48.390625 20.390625 44.140625 
Q 15.875 39.890625 15.1875 32.171875 
z
" id="DejaVuSans-101"/>
      <path d="M 54.890625 33.015625 
L 54.890625 0 
L 45.90625 0 
L 45.90625 32.71875 
Q 45.90625 40.484375 42.875 44.328125 
Q 39.84375 48.1875 33.796875 48.1875 
Q 26.515625 48.1875 22.3125 43.546875 
Q 18.109375 38.921875 18.109375 30.90625 
L 18.109375 0 
L 9.078125 0 
L 9.078125 54.6875 
L 18.109375 54.6875 
L 18.109375 46.1875 
Q 21.34375 51.125 25.703125 53.5625 
Q 30.078125 56 35.796875 56 
Q 45.21875 56 50.046875 50.171875 
Q 54.890625 44.34375 54.890625 33.015625 
z
" id="DejaVuSans-110"/>
      <path d="M 16.890625 72.90625 
L 39.703125 72.90625 
Q 49.65625 72.90625 54.875 68.265625 
Q 60.109375 63.625 60.109375 54.6875 
Q 60.109375 42.671875 52.390625 35.984375 
Q 44.671875 29.296875 30.71875 29.296875 
L 18.3125 29.296875 
L 12.59375 0 
L 2.6875 0 
z
M 25.203125 64.796875 
L 19.921875 37.40625 
L 32.328125 37.40625 
Q 40.71875 37.40625 45.203125 41.703125 
Q 49.703125 46 49.703125 54 
Q 49.703125 59.125 46.65625 61.953125 
Q 43.609375 64.796875 38.09375 64.796875 
z
" id="DejaVuSans-Oblique-80"/>
      <path d="M 16.890625 72.90625 
L 31.6875 72.90625 
L 40.1875 23.78125 
L 68.40625 72.90625 
L 83.59375 72.90625 
L 69.390625 0 
L 59.8125 0 
L 72.21875 63.921875 
L 43.609375 14.015625 
L 33.984375 14.015625 
L 24.703125 64.109375 
L 12.3125 0 
L 2.6875 0 
z
" id="DejaVuSans-Oblique-77"/>
      <path d="M -1.3125 -20.796875 
L 13.375 54.6875 
L 22.40625 54.6875 
L 15.765625 20.65625 
Q 15.578125 19.625 15.421875 18.359375 
Q 15.28125 17.09375 15.28125 15.828125 
Q 15.28125 11.28125 18.140625 8.828125 
Q 21 6.390625 26.3125 6.390625 
Q 33.546875 6.390625 37.984375 10.484375 
Q 42.4375 14.59375 44 22.796875 
L 50.203125 54.6875 
L 59.1875 54.6875 
L 51.03125 12.640625 
Q 50.828125 11.71875 50.75 11.03125 
Q 50.6875 10.359375 50.6875 9.8125 
Q 50.6875 8.296875 51.296875 7.59375 
Q 51.90625 6.890625 53.21875 6.890625 
Q 53.71875 6.890625 54.5625 7.125 
Q 55.421875 7.375 56.984375 8.015625 
L 55.609375 0.78125 
Q 53.46875 -0.296875 51.515625 -0.859375 
Q 49.5625 -1.421875 47.703125 -1.421875 
Q 44.484375 -1.421875 42.65625 0.625 
Q 40.828125 2.6875 40.828125 6.296875 
Q 38.09375 2.390625 34.296875 0.484375 
Q 30.515625 -1.421875 25.390625 -1.421875 
Q 20.84375 -1.421875 17.453125 0.671875 
Q 14.0625 2.78125 12.984375 6.203125 
L 7.71875 -20.796875 
z
" id="DejaVuSans-Oblique-956"/>
      <path d="M 89.796875 33.015625 
L 83.40625 0 
L 74.421875 0 
L 80.71875 32.71875 
Q 81.109375 34.8125 81.296875 36.328125 
Q 81.5 37.84375 81.5 38.921875 
Q 81.5 43.3125 79.046875 45.75 
Q 76.609375 48.1875 72.21875 48.1875 
Q 65.671875 48.1875 60.546875 43.28125 
Q 55.421875 38.375 53.90625 30.515625 
L 47.90625 0 
L 38.921875 0 
L 45.3125 32.71875 
Q 45.703125 34.515625 45.890625 36.046875 
Q 46.09375 37.59375 46.09375 38.8125 
Q 46.09375 43.265625 43.65625 45.71875 
Q 41.21875 48.1875 36.921875 48.1875 
Q 30.28125 48.1875 25.140625 43.28125 
Q 20.015625 38.375 18.5 30.515625 
L 12.5 0 
L 3.515625 0 
L 14.203125 54.6875 
L 23.1875 54.6875 
L 21.484375 46.1875 
Q 25.140625 50.984375 30.046875 53.484375 
Q 34.96875 56 40.578125 56 
Q 46.53125 56 50.359375 52.875 
Q 54.203125 49.75 54.984375 44.1875 
Q 59.078125 49.953125 64.46875 52.96875 
Q 69.875 56 75.875 56 
Q 82.90625 56 86.734375 51.953125 
Q 90.578125 47.90625 90.578125 40.484375 
Q 90.578125 38.875 90.375 36.9375 
Q 90.1875 35.015625 89.796875 33.015625 
z
" id="DejaVuSans-Oblique-109"/>
      <path d="M 8.59375 75.984375 
L 29.296875 75.984375 
L 29.296875 69 
L 17.578125 69 
L 17.578125 -6.203125 
L 29.296875 -6.203125 
L 29.296875 -13.1875 
L 8.59375 -13.1875 
z
" id="DejaVuSans-91"/>
      <path d="M 59.625 54.6875 
L 50.296875 6.78125 
Q 47.609375 -7.125 40.015625 -13.953125 
Q 32.421875 -20.796875 19.578125 -20.796875 
Q 14.84375 -20.796875 10.78125 -20.09375 
Q 6.734375 -19.390625 3.21875 -17.921875 
L 4.890625 -9.1875 
Q 8.203125 -11.328125 11.90625 -12.34375 
Q 15.625 -13.375 19.828125 -13.375 
Q 28.375 -13.375 33.859375 -8.703125 
Q 39.359375 -4.046875 41.109375 4.6875 
L 41.890625 8.796875 
Q 38.140625 4.5 33.15625 2.25 
Q 28.171875 0 22.40625 0 
Q 14.109375 0 9.34375 5.484375 
Q 4.59375 10.984375 4.59375 20.609375 
Q 4.59375 28.171875 7.46875 35.421875 
Q 10.359375 42.671875 15.578125 48.296875 
Q 19.046875 52 23.65625 54 
Q 28.265625 56 33.296875 56 
Q 38.8125 56 42.90625 53.4375 
Q 47.015625 50.875 49.03125 46.1875 
L 50.59375 54.6875 
z
M 46.09375 34.625 
Q 46.09375 41.265625 42.96875 44.875 
Q 39.84375 48.484375 34.078125 48.484375 
Q 30.515625 48.484375 27.296875 47.0625 
Q 24.078125 45.65625 21.78125 43.109375 
Q 18.0625 38.921875 15.984375 33.234375 
Q 13.921875 27.546875 13.921875 21.484375 
Q 13.921875 14.75 17.0625 11.125 
Q 20.21875 7.515625 26.125 7.515625 
Q 34.671875 7.515625 40.375 15.25 
Q 46.09375 23 46.09375 34.625 
z
" id="DejaVuSans-Oblique-103"/>
      <path d="M 25.390625 72.90625 
L 33.6875 72.90625 
L 8.296875 -9.28125 
L 0 -9.28125 
z
" id="DejaVuSans-47"/>
      <path d="M 30.421875 75.984375 
L 30.421875 -13.1875 
L 9.71875 -13.1875 
L 9.71875 -6.203125 
L 21.390625 -6.203125 
L 21.390625 69 
L 9.71875 69 
L 9.71875 75.984375 
z
" id="DejaVuSans-93"/>
     </defs>
     <g transform="translate(39.8125 287.02)rotate(-90)scale(0.1 -0.1)">
      <use transform="translate(0 0.765625)" xlink:href="#DejaVuSans-100"/>
      <use transform="translate(63.476562 0.765625)" xlink:href="#DejaVuSans-97"/>
      <use transform="translate(124.755859 0.765625)" xlink:href="#DejaVuSans-105"/>
      <use transform="translate(152.539062 0.765625)" xlink:href="#DejaVuSans-108"/>
      <use transform="translate(180.322266 0.765625)" xlink:href="#DejaVuSans-121"/>
      <use transform="translate(239.501953 0.765625)" xlink:href="#DejaVuSans-32"/>
      <use transform="translate(271.289062 0.765625)" xlink:href="#DejaVuSans-109"/>
      <use transform="translate(368.701172 0.765625)" xlink:href="#DejaVuSans-101"/>
      <use transform="translate(430.224609 0.765625)" xlink:href="#DejaVuSans-97"/>
      <use transform="translate(491.503906 0.765625)" xlink:href="#DejaVuSans-110"/>
      <use transform="translate(554.882812 0.765625)" xlink:href="#DejaVuSans-32"/>
      <use transform="translate(586.669922 0.765625)" xlink:href="#DejaVuSans-Oblique-80"/>
      <use transform="translate(646.972656 0.765625)" xlink:href="#DejaVuSans-Oblique-77"/>
      <use transform="translate(733.251953 0.765625)" xlink:href="#DejaVuSans-49"/>
      <use transform="translate(796.875 0.765625)" xlink:href="#DejaVuSans-48"/>
      <use transform="translate(860.498047 0.765625)" xlink:href="#DejaVuSans-Oblique-956"/>
      <use transform="translate(924.121094 0.765625)" xlink:href="#DejaVuSans-Oblique-109"/>
      <use transform="translate(1021.533203 0.765625)" xlink:href="#DejaVuSans-32"/>
      <use transform="translate(1053.320312 0.765625)" xlink:href="#DejaVuSans-91"/>
      <use transform="translate(1092.333984 0.765625)" xlink:href="#DejaVuSans-Oblique-956"/>
      <use transform="translate(1155.957031 0.765625)" xlink:href="#DejaVuSans-Oblique-103"/>
      <use transform="translate(1219.433594 0.765625)" xlink:href="#DejaVuSans-47"/>
      <use transform="translate(1253.125 0.765625)" xlink:href="#DejaVuSans-Oblique-109"/>
      <use transform="translate(1355.187005 39.046875)scale(0.7)" xlink:href="#DejaVuSans-51"/>
      <use transform="translate(1402.457513 0.765625)" xlink:href="#DejaVuSans-93"/>
     </g>
    </g>
   </g>
   <g id="line2d_35">
    <path clip-path="url(#p5bc7acb672)" d="M 92.290909 355.159776 
L 93.405794 341.350771 
L 94.520679 343.400192 
L 95.635564 332.458803 
L 96.75045 344.137748 
L 97.865335 325.156021 
L 98.98022 335.737483 
L 100.095105 330.73784 
L 101.20999 308.406628 
L 102.324875 289.845799 
L 103.43976 307.792982 
L 104.554645 315.331782 
L 105.66953 311.522062 
L 106.784416 301.400835 
L 107.899301 271.161061 
L 109.014186 235.675794 
L 110.129071 191.094009 
L 111.243956 275.257936 
L 112.358841 334.795379 
L 113.473726 335.942032 
L 114.588611 337.253897 
L 115.703497 334.836682 
L 116.818382 310.701901 
L 117.933267 299.638569 
L 119.048152 328.812329 
L 120.163037 331.229544 
L 121.277922 309.268093 
L 122.392807 316.19128 
L 123.507692 294.147223 
L 124.622577 192.077416 
L 125.737463 213.916925 
L 126.852348 215.14815 
L 127.967233 293.098911 
L 129.082118 290.378806 
L 130.197003 201.419785 
L 131.311888 297.630451 
L 132.426773 241.863392 
L 133.541658 263.413779 
L 134.656543 265.551706 
L 135.771429 285.46177 
L 136.886314 273.578276 
L 138.001199 264.727611 
L 139.116084 224.653765 
L 140.230969 242.559645 
L 141.345854 325.18749 
L 142.460739 330.533292 
L 143.575624 303.871154 
L 144.690509 295.826882 
L 145.805395 336.392432 
L 146.92028 334.860284 
L 148.035165 283.780143 
L 149.15005 275.627697 
L 150.264935 262.8021 
L 151.37982 296.15534 
L 152.494705 314.676833 
L 153.60959 299.927691 
L 154.724476 293.041873 
L 155.839361 263.047951 
L 156.954246 279.150262 
L 158.069131 288.164173 
L 159.184016 317.135351 
L 161.413786 260.752679 
L 162.528671 310.906449 
L 163.643556 342.007688 
L 164.758442 288.164173 
L 165.873327 288.164173 
L 166.988212 294.475681 
L 168.103097 253.213879 
L 169.217982 279.191565 
L 170.332867 323.486195 
L 171.447752 260.506827 
L 172.562637 276.650441 
L 173.677522 245.42726 
L 174.792408 66.665455 
L 175.907293 178.303814 
L 178.137063 331.148905 
L 179.251948 296.647044 
L 180.366833 241.16714 
L 181.481718 66.69299 
L 182.596603 149.710264 
L 183.711489 198.798021 
L 184.826374 224.94092 
L 185.941259 312.50547 
L 187.056144 250.794697 
L 188.171029 224.490519 
L 189.285914 182.162704 
L 190.400799 258.048309 
L 191.515684 311.685308 
L 192.630569 311.398153 
L 193.745455 329.016878 
L 194.86034 278.90441 
L 195.975225 146.227036 
L 197.09011 251.902014 
L 198.204995 231.659558 
L 199.31988 287.633133 
L 200.434765 329.467278 
L 201.54965 330.891252 
L 202.664535 341.309468 
L 203.779421 338.359247 
L 204.894306 321.560684 
L 206.009191 299.268808 
L 207.124076 267.020917 
L 208.238961 311.398153 
L 209.353846 342.784579 
L 210.468731 321.07488 
L 211.583616 240.921288 
L 212.698501 330.657201 
L 213.813387 325.862107 
L 214.928272 311.193604 
L 216.043157 346.309111 
L 217.158042 341.842475 
L 218.272927 320.248818 
L 219.387812 329.878342 
L 220.502697 321.436774 
L 221.617582 328.080674 
L 222.732468 326.682269 
L 223.847353 298.737768 
L 224.962238 328.074773 
L 226.077123 337.598089 
L 227.192008 337.682662 
L 228.306893 306.341473 
L 229.421778 295.826882 
L 230.536663 277.553209 
L 231.651548 336.187883 
L 232.766434 332.091009 
L 233.881319 295.622334 
L 234.996204 316.724287 
L 236.111089 331.270847 
L 237.225974 314.552924 
L 238.340859 311.193604 
L 239.455744 341.702831 
L 240.570629 335.544735 
L 241.685514 290.378806 
L 242.8004 336.557644 
L 243.915285 328.812329 
L 245.03017 324.984908 
L 246.145055 312.969638 
L 247.25994 317.707694 
L 248.374825 292.42626 
L 249.48971 246.780429 
L 250.604595 210.4927 
L 251.719481 202.936199 
L 252.834366 231.333067 
L 253.949251 319.125767 
L 255.064136 327.207408 
L 256.179021 327.154304 
L 257.293906 332.173615 
L 258.408791 302.915282 
L 259.523676 295.551528 
L 260.638561 311.988197 
L 261.753447 335.245779 
L 262.868332 339.720282 
L 263.983217 340.162815 
L 265.098102 341.614325 
L 266.212987 323.977899 
L 267.327872 340.654519 
L 268.442757 320.964739 
L 269.557642 328.03347 
L 270.672527 343.767987 
L 271.787413 345.276533 
L 272.902298 335.843691 
L 274.017183 320.53794 
L 275.132068 338.237304 
L 276.246953 304.26845 
L 277.361838 332.665319 
L 278.476723 348.799098 
L 279.591608 347.251215 
L 281.821379 317.953546 
L 282.936264 285.666319 
L 284.051149 286.525817 
L 285.166034 330.370046 
L 286.280919 342.908489 
L 287.395804 346.718208 
L 288.510689 323.035795 
L 289.625574 309.022241 
L 290.74046 329.386639 
L 291.855345 295.581031 
L 294.085115 339.875661 
L 295.2 341.146223 
L 296.314885 320.248818 
L 297.42977 318.527856 
L 298.544655 310.33214 
L 299.65954 315.618937 
L 300.774426 322.707337 
L 301.889311 345.929516 
L 303.004196 355.775389 
L 304.119081 333.237662 
L 305.233966 342.949792 
L 306.348851 347.947467 
L 307.463736 347.98877 
L 308.578621 352.085645 
L 310.808392 346.596266 
L 311.923277 336.72089 
L 313.038162 341.309468 
L 314.153047 347.005363 
L 315.267932 347.129273 
L 316.382817 343.317586 
L 317.497702 357.576991 
L 318.612587 346.676905 
L 319.727473 329.549884 
L 320.842358 318.118758 
L 323.072128 278.987016 
L 324.187013 274.807536 
L 325.301898 289.230186 
L 326.416783 342.92619 
L 327.531668 334.917321 
L 328.646553 331.925796 
L 329.761439 309.759797 
L 330.876324 329.591187 
L 331.991209 337.169324 
L 333.106094 341.350771 
L 334.220979 349.996888 
L 335.335864 338.154698 
L 336.450749 341.474681 
L 338.680519 329.345336 
L 339.795405 319.881024 
L 340.91029 324.550242 
L 342.025175 332.132312 
L 343.14006 315.08593 
L 344.254945 305.94811 
L 345.36983 315.618937 
L 346.484715 314.594227 
L 347.5996 312.95587 
L 348.714486 327.624373 
L 349.829371 311.889857 
L 350.944256 300.826525 
L 352.059141 310.906449 
L 353.174026 325.289764 
L 354.288911 310.414746 
L 355.403796 310.210197 
L 356.518681 347.168609 
L 357.633566 341.925081 
L 358.748452 328.975574 
L 359.863337 321.723929 
L 360.978222 283.699504 
L 362.093107 333.853274 
L 363.207992 341.433378 
L 364.322877 340.080209 
L 365.437762 323.895293 
L 366.552647 314.224465 
L 367.667532 282.550884 
L 368.782418 307.62777 
L 369.897303 297.138748 
L 371.012188 276.937596 
L 372.127073 314.143826 
L 373.241958 308.080137 
L 374.356843 279.805211 
L 375.471728 320.412064 
L 376.586613 322.461485 
L 377.701499 341.596623 
L 378.816384 324.632848 
L 379.931269 319.428657 
L 381.046154 317.461842 
L 382.161039 318.815011 
L 383.275924 313.201722 
L 384.390809 332.745958 
L 385.505694 310.33214 
L 386.620579 238.626016 
L 387.735465 334.754076 
L 388.85035 337.704297 
L 389.965235 335.409025 
L 391.08012 338.97486 
L 392.195005 343.891896 
L 393.30989 333.811971 
L 394.424775 314.594227 
L 395.53966 335.245779 
L 396.654545 325.370403 
L 397.769431 287.947823 
L 398.884316 330.491988 
L 399.999201 342.621334 
L 401.114086 341.925081 
L 402.228971 346.145865 
L 403.343856 338.565762 
L 404.458741 328.812329 
L 405.573626 302.21903 
L 406.688511 298.204761 
L 407.803397 268.907092 
L 408.918282 276.404589 
L 410.033167 335.942032 
L 411.148052 348.604383 
L 412.262937 334.466921 
L 413.377822 333.237662 
L 414.492707 330.903053 
L 415.607592 333.237662 
L 416.722478 309.185487 
L 417.837363 300.580673 
L 418.952248 325.124552 
L 420.067133 274.095549 
L 421.182018 215.557248 
L 422.296903 184.784468 
L 423.411788 191.422467 
L 424.526673 300.966169 
L 425.641558 355.610177 
L 426.756444 355.159776 
L 427.871329 331.558002 
L 428.986214 341.883778 
L 430.101099 318.323307 
L 431.215984 310.906449 
L 432.330869 357.649763 
L 433.445754 357.700901 
L 434.560639 355.494135 
L 435.675524 354.913924 
L 436.79041 327.295915 
L 437.905295 313.774065 
L 439.02018 316.478435 
L 440.135065 312.298954 
L 441.24995 297.138748 
L 442.364835 341.191459 
L 443.47972 338.770311 
L 444.594605 317.094048 
L 445.709491 311.726611 
L 446.824376 261.039834 
L 447.939261 277.266054 
L 449.054146 223.383203 
L 450.169031 312.047202 
L 451.283916 332.4175 
L 452.398801 297.835 
L 453.513686 304.882096 
L 454.628571 315.699576 
L 455.743457 320.657916 
L 456.858342 326.845514 
L 457.973227 317.627055 
L 459.088112 348.07531 
L 460.202997 325.041945 
L 461.317882 320.248818 
L 462.432767 320.002967 
L 463.547652 351.308753 
L 464.662537 279.232868 
L 465.777423 296.564438 
L 466.892308 349.135423 
L 468.007193 335.204476 
L 469.122078 332.254254 
L 470.236963 331.107601 
L 471.351848 343.767987 
L 472.466733 340.654519 
L 473.581618 311.398153 
L 474.696503 331.394756 
L 475.811389 348.930875 
L 476.926274 323.895293 
L 478.041159 290.418142 
L 479.156044 279.970424 
L 480.270929 344.670754 
L 481.385814 345.325704 
L 482.500699 349.422578 
L 483.615584 336.433735 
L 484.73047 315.536331 
L 485.845355 279.354811 
L 486.96024 339.016163 
L 488.075125 327.828922 
L 489.19001 348.610284 
L 490.304895 358.71381 
L 491.41978 342.621334 
L 492.534665 363.174545 
L 493.64955 356.741095 
L 494.764436 338.469388 
L 495.879321 350.651837 
L 496.994206 360.729795 
L 498.109091 359.919467 
L 498.109091 359.919467 
" style="fill:none;stroke:#1f77b4;stroke-linecap:square;stroke-width:1.5;"/>
   </g>
   <g id="line2d_36">
    <path clip-path="url(#p5bc7acb672)" d="M 92.290909 350.228609 
L 93.405794 354.457248 
L 94.520679 345.396175 
L 95.635564 346.951411 
L 96.75045 334.941718 
L 97.865335 348.793895 
L 98.98022 337.399373 
L 100.095105 339.185745 
L 101.20999 327.775044 
L 102.324875 330.324374 
L 103.43976 300.612265 
L 104.554645 326.666289 
L 105.66953 326.495407 
L 106.784416 320.307172 
L 107.899301 308.567283 
L 109.014186 290.899177 
L 110.129071 291.048182 
L 111.243956 262.843793 
L 112.358841 299.108725 
L 113.473726 350.24118 
L 114.588611 342.498331 
L 115.703497 343.324653 
L 116.818382 336.046771 
L 117.933267 322.321326 
L 119.048152 315.322978 
L 120.163037 338.900563 
L 121.277922 345.450236 
L 122.392807 324.774917 
L 123.507692 316.205116 
L 124.622577 282.639292 
L 125.737463 200.173007 
L 126.852348 252.477381 
L 127.967233 264.725272 
L 129.082118 290.908369 
L 130.197003 271.804185 
L 131.311888 226.747664 
L 132.426773 280.500732 
L 133.541658 230.988262 
L 134.656543 262.694343 
L 135.771429 280.18347 
L 136.886314 284.260609 
L 138.001199 272.11586 
L 140.230969 227.37472 
L 141.345854 290.40683 
L 142.460739 309.968111 
L 143.575624 317.482894 
L 144.690509 294.118488 
L 145.805395 302.706093 
L 146.92028 326.154116 
L 148.035165 321.568875 
L 149.15005 293.301217 
L 150.264935 288.375133 
L 151.37982 279.002581 
L 152.494705 305.087677 
L 153.60959 325.571845 
L 154.724476 302.215908 
L 155.839361 305.636928 
L 156.954246 276.712773 
L 158.069131 300.587205 
L 159.184016 295.511933 
L 160.298901 297.017315 
L 161.413786 286.700343 
L 162.528671 273.092887 
L 163.643556 316.779386 
L 164.758442 340.251586 
L 165.873327 304.792749 
L 166.988212 310.641356 
L 168.103097 305.435347 
L 169.217982 268.126282 
L 170.332867 282.842466 
L 171.447752 310.052511 
L 172.562637 270.600327 
L 173.677522 286.987751 
L 174.792408 255.946687 
L 175.907293 187.602014 
L 177.022178 238.334735 
L 178.137063 254.715503 
L 179.251948 317.945198 
L 180.366833 297.771735 
L 181.481718 259.641848 
L 182.596603 181.162287 
L 183.711489 223.444257 
L 184.826374 226.094117 
L 185.941259 235.084121 
L 187.056144 287.227207 
L 188.171029 280.509585 
L 189.285914 258.344237 
L 190.400799 244.400453 
L 191.515684 257.67213 
L 192.630569 299.940405 
L 193.745455 307.018602 
L 194.86034 317.703617 
L 195.975225 284.781795 
L 197.09011 210.828581 
L 198.204995 256.230263 
L 199.31988 260.850878 
L 200.434765 284.245571 
L 201.54965 319.670233 
L 202.664535 323.432708 
L 203.779421 331.965862 
L 204.894306 332.522939 
L 206.009191 319.822334 
L 207.124076 303.73997 
L 208.238961 284.323036 
L 209.353846 298.776238 
L 210.468731 324.075307 
L 211.583616 319.696381 
L 212.698501 275.506629 
L 213.813387 322.612218 
L 214.928272 321.85733 
L 216.043157 317.532649 
L 217.158042 330.916203 
L 218.272927 332.550104 
L 219.387812 318.021435 
L 220.502697 323.754614 
L 222.732468 326.557498 
L 223.847353 318.667792 
L 224.962238 276.251765 
L 226.077123 312.013853 
L 227.192008 323.970715 
L 228.306893 324.960781 
L 229.421778 290.095203 
L 230.536663 292.104579 
L 231.651548 289.424723 
L 232.766434 314.079158 
L 233.881319 311.490754 
L 234.996204 297.977743 
L 236.111089 314.877348 
L 237.225974 326.942961 
L 238.340859 321.746587 
L 239.455744 315.303619 
L 240.570629 325.335303 
L 241.685514 324.485137 
L 242.8004 304.643839 
L 243.915285 335.168472 
L 245.03017 330.146897 
L 246.145055 321.459922 
L 247.25994 317.645629 
L 248.374825 319.454175 
L 249.48971 287.695101 
L 250.604595 277.725483 
L 251.719481 261.06377 
L 252.834366 253.728458 
L 253.949251 260.964747 
L 255.064136 310.283367 
L 256.179021 308.780116 
L 257.293906 320.646683 
L 258.408791 316.119614 
L 259.523676 296.207753 
L 260.638561 295.503723 
L 261.753447 317.27033 
L 262.868332 322.930208 
L 263.983217 330.977252 
L 265.098102 329.501134 
L 266.212987 339.173683 
L 267.327872 326.577857 
L 268.442757 340.301914 
L 269.557642 332.358904 
L 270.672527 337.569365 
L 271.787413 336.957642 
L 272.902298 339.385386 
L 274.017183 336.752013 
L 275.132068 322.990291 
L 276.246953 330.907065 
L 277.361838 325.88963 
L 278.476723 334.345996 
L 279.591608 337.533291 
L 280.706494 347.057394 
L 281.821379 339.052955 
L 282.936264 319.033772 
L 284.051149 308.102234 
L 285.166034 306.253274 
L 286.280919 329.195992 
L 288.510689 347.661213 
L 289.625574 328.78557 
L 290.74046 324.45792 
L 291.855345 327.973459 
L 292.97023 308.904599 
L 294.085115 324.751778 
L 295.2 338.187828 
L 296.314885 335.735965 
L 297.42977 328.97537 
L 298.544655 332.665217 
L 299.65954 328.608229 
L 300.774426 326.10342 
L 301.889311 329.637244 
L 303.004196 340.647582 
L 304.119081 347.719203 
L 305.233966 338.128486 
L 306.348851 340.661235 
L 307.463736 342.264768 
L 308.578621 351.886163 
L 310.808392 342.721153 
L 311.923277 348.697768 
L 313.038162 343.122537 
L 314.153047 341.0907 
L 315.267932 341.830619 
L 316.382817 341.773423 
L 317.497702 339.540824 
L 318.612587 350.045211 
L 319.727473 347.25142 
L 320.842358 338.5693 
L 321.957243 322.560461 
L 323.072128 313.89048 
L 324.187013 296.286906 
L 325.301898 290.875301 
L 326.416783 302.625695 
L 327.531668 343.274074 
L 328.646553 338.598488 
L 329.761439 337.887009 
L 330.876324 326.927977 
L 331.991209 331.57515 
L 333.106094 335.369865 
L 334.220979 332.327472 
L 335.335864 342.203302 
L 336.450749 340.701897 
L 337.565634 342.174577 
L 338.680519 342.730347 
L 339.795405 324.664456 
L 340.91029 329.159601 
L 342.025175 323.896623 
L 343.14006 325.020712 
L 344.254945 300.771959 
L 345.36983 297.183978 
L 346.484715 318.500628 
L 347.5996 309.790746 
L 348.714486 312.913926 
L 349.829371 323.255911 
L 350.944256 316.302696 
L 352.059141 314.673372 
L 353.174026 323.315937 
L 354.288911 322.320658 
L 355.403796 305.612763 
L 356.518681 317.600661 
L 357.633566 350.185513 
L 358.748452 339.593234 
L 359.863337 327.936683 
L 360.978222 326.25173 
L 362.093107 298.425346 
L 363.207992 334.256215 
L 364.322877 341.585545 
L 365.437762 337.205074 
L 366.552647 331.523673 
L 367.667532 312.498278 
L 368.782418 302.841896 
L 369.897303 312.214245 
L 371.012188 314.53054 
L 372.127073 304.034586 
L 373.241958 324.187301 
L 374.356843 320.512106 
L 375.471728 300.518124 
L 376.586613 328.099225 
L 377.701499 333.005665 
L 378.816384 336.272545 
L 379.931269 328.023383 
L 381.046154 320.663551 
L 382.161039 324.965627 
L 383.275924 325.778434 
L 384.390809 328.546352 
L 385.505694 329.33964 
L 386.620579 314.436892 
L 387.735465 272.32106 
L 388.85035 326.990742 
L 389.965235 326.650251 
L 391.08012 335.175858 
L 392.195005 338.813299 
L 393.30989 337.089164 
L 394.424775 332.12763 
L 395.53966 322.417355 
L 396.654545 341.068745 
L 397.769431 325.939373 
L 398.884316 315.909855 
L 399.999201 334.742929 
L 401.114086 340.194129 
L 402.228971 336.977563 
L 403.343856 337.6043 
L 404.458741 336.321166 
L 405.573626 321.873141 
L 406.688511 320.98953 
L 407.803397 307.497092 
L 408.918282 299.746447 
L 410.033167 300.094406 
L 411.148052 331.904716 
L 412.262937 342.169976 
L 413.377822 331.828319 
L 414.492707 336.273467 
L 415.607592 334.986686 
L 416.722478 337.465144 
L 417.837363 325.743465 
L 418.952248 315.678386 
L 420.067133 315.921122 
L 421.182018 272.971671 
L 422.296903 278.296934 
L 423.411788 258.023216 
L 424.526673 249.066982 
L 425.641558 293.049734 
L 426.756444 331.389252 
L 427.871329 340.368317 
L 428.986214 317.465529 
L 430.101099 334.005462 
L 431.215984 316.44162 
L 432.330869 317.804313 
L 433.445754 348.671135 
L 434.560639 341.993775 
L 436.79041 347.45982 
L 437.905295 325.591735 
L 439.02018 316.497192 
L 440.135065 322.413251 
L 441.24995 321.349308 
L 442.364835 308.167955 
L 443.47972 341.16607 
L 444.594605 325.26514 
L 445.709491 321.461356 
L 446.824376 321.582635 
L 447.939261 280.202908 
L 449.054146 288.982902 
L 450.169031 268.544698 
L 451.283916 307.768655 
L 452.398801 308.646927 
L 453.513686 302.315126 
L 454.628571 302.262764 
L 455.743457 327.305474 
L 456.858342 328.334885 
L 457.973227 331.068047 
L 459.088112 316.499393 
L 460.202997 342.823962 
L 461.317882 327.214671 
L 462.432767 318.986395 
L 463.547652 307.431715 
L 464.662537 336.471532 
L 465.777423 257.797718 
L 466.892308 310.020777 
L 468.007193 336.324497 
L 469.122078 324.394643 
L 470.236963 335.679786 
L 471.351848 334.157391 
L 472.466733 331.43605 
L 473.581618 322.79511 
L 474.696503 305.540208 
L 475.811389 332.213367 
L 476.926274 337.371398 
L 478.041159 316.470361 
L 479.156044 287.829054 
L 480.270929 304.29977 
L 481.385814 339.356216 
L 482.500699 337.691009 
L 483.615584 343.4376 
L 484.73047 342.478389 
L 485.845355 320.161155 
L 486.96024 286.781342 
L 488.075125 330.951533 
L 489.19001 322.373422 
L 490.304895 337.475779 
L 491.41978 335.648361 
L 492.534665 327.966223 
L 493.64955 342.547124 
L 494.764436 345.645592 
L 495.879321 328.92704 
L 496.994206 345.385381 
L 498.109091 349.45484 
L 498.109091 349.45484 
" style="fill:none;stroke:#ff7f0e;stroke-linecap:square;stroke-width:1.5;"/>
   </g>
   <g id="patch_3">
    <path d="M 72 378 
L 72 51.84 
" style="fill:none;stroke:#000000;stroke-linecap:square;stroke-linejoin:miter;stroke-width:0.8;"/>
   </g>
   <g id="patch_4">
    <path d="M 518.4 378 
L 518.4 51.84 
" style="fill:none;stroke:#000000;stroke-linecap:square;stroke-linejoin:miter;stroke-width:0.8;"/>
   </g>
   <g id="patch_5">
    <path d="M 72 378 
L 518.4 378 
" style="fill:none;stroke:#000000;stroke-linecap:square;stroke-linejoin:miter;stroke-width:0.8;"/>
   </g>
   <g id="patch_6">
    <path d="M 72 51.84 
L 518.4 51.84 
" style="fill:none;stroke:#000000;stroke-linecap:square;stroke-linejoin:miter;stroke-width:0.8;"/>
   </g>
   <g id="text_20">
    <!-- PM10 16-all BETN043 2012: Island DNN (MSE: 252.15, SMAPE: 31.69%, IOA: 78.28%) -->
    <defs>
     <path d="M 19.671875 64.796875 
L 19.671875 37.40625 
L 32.078125 37.40625 
Q 38.96875 37.40625 42.71875 40.96875 
Q 46.484375 44.53125 46.484375 51.125 
Q 46.484375 57.671875 42.71875 61.234375 
Q 38.96875 64.796875 32.078125 64.796875 
z
M 9.8125 72.90625 
L 32.078125 72.90625 
Q 44.34375 72.90625 50.609375 67.359375 
Q 56.890625 61.8125 56.890625 51.125 
Q 56.890625 40.328125 50.609375 34.8125 
Q 44.34375 29.296875 32.078125 29.296875 
L 19.671875 29.296875 
L 19.671875 0 
L 9.8125 0 
z
" id="DejaVuSans-80"/>
     <path d="M 9.8125 72.90625 
L 24.515625 72.90625 
L 43.109375 23.296875 
L 61.8125 72.90625 
L 76.515625 72.90625 
L 76.515625 0 
L 66.890625 0 
L 66.890625 64.015625 
L 48.09375 14.015625 
L 38.1875 14.015625 
L 19.390625 64.015625 
L 19.390625 0 
L 9.8125 0 
z
" id="DejaVuSans-77"/>
     <path d="M 4.890625 31.390625 
L 31.203125 31.390625 
L 31.203125 23.390625 
L 4.890625 23.390625 
z
" id="DejaVuSans-45"/>
     <path d="M 19.671875 34.8125 
L 19.671875 8.109375 
L 35.5 8.109375 
Q 43.453125 8.109375 47.28125 11.40625 
Q 51.125 14.703125 51.125 21.484375 
Q 51.125 28.328125 47.28125 31.5625 
Q 43.453125 34.8125 35.5 34.8125 
z
M 19.671875 64.796875 
L 19.671875 42.828125 
L 34.28125 42.828125 
Q 41.5 42.828125 45.03125 45.53125 
Q 48.578125 48.25 48.578125 53.8125 
Q 48.578125 59.328125 45.03125 62.0625 
Q 41.5 64.796875 34.28125 64.796875 
z
M 9.8125 72.90625 
L 35.015625 72.90625 
Q 46.296875 72.90625 52.390625 68.21875 
Q 58.5 63.53125 58.5 54.890625 
Q 58.5 48.1875 55.375 44.234375 
Q 52.25 40.28125 46.1875 39.3125 
Q 53.46875 37.75 57.5 32.78125 
Q 61.53125 27.828125 61.53125 20.40625 
Q 61.53125 10.640625 54.890625 5.3125 
Q 48.25 0 35.984375 0 
L 9.8125 0 
z
" id="DejaVuSans-66"/>
     <path d="M 9.8125 72.90625 
L 55.90625 72.90625 
L 55.90625 64.59375 
L 19.671875 64.59375 
L 19.671875 43.015625 
L 54.390625 43.015625 
L 54.390625 34.71875 
L 19.671875 34.71875 
L 19.671875 8.296875 
L 56.78125 8.296875 
L 56.78125 0 
L 9.8125 0 
z
" id="DejaVuSans-69"/>
     <path d="M -0.296875 72.90625 
L 61.375 72.90625 
L 61.375 64.59375 
L 35.5 64.59375 
L 35.5 0 
L 25.59375 0 
L 25.59375 64.59375 
L -0.296875 64.59375 
z
" id="DejaVuSans-84"/>
     <path d="M 9.8125 72.90625 
L 23.09375 72.90625 
L 55.421875 11.921875 
L 55.421875 72.90625 
L 64.984375 72.90625 
L 64.984375 0 
L 51.703125 0 
L 19.390625 60.984375 
L 19.390625 0 
L 9.8125 0 
z
" id="DejaVuSans-78"/>
     <path d="M 11.71875 12.40625 
L 22.015625 12.40625 
L 22.015625 0 
L 11.71875 0 
z
M 11.71875 51.703125 
L 22.015625 51.703125 
L 22.015625 39.3125 
L 11.71875 39.3125 
z
" id="DejaVuSans-58"/>
     <path d="M 9.8125 72.90625 
L 19.671875 72.90625 
L 19.671875 0 
L 9.8125 0 
z
" id="DejaVuSans-73"/>
     <path d="M 44.28125 53.078125 
L 44.28125 44.578125 
Q 40.484375 46.53125 36.375 47.5 
Q 32.28125 48.484375 27.875 48.484375 
Q 21.1875 48.484375 17.84375 46.4375 
Q 14.5 44.390625 14.5 40.28125 
Q 14.5 37.15625 16.890625 35.375 
Q 19.28125 33.59375 26.515625 31.984375 
L 29.59375 31.296875 
Q 39.15625 29.25 43.1875 25.515625 
Q 47.21875 21.78125 47.21875 15.09375 
Q 47.21875 7.46875 41.1875 3.015625 
Q 35.15625 -1.421875 24.609375 -1.421875 
Q 20.21875 -1.421875 15.453125 -0.5625 
Q 10.6875 0.296875 5.421875 2 
L 5.421875 11.28125 
Q 10.40625 8.6875 15.234375 7.390625 
Q 20.0625 6.109375 24.8125 6.109375 
Q 31.15625 6.109375 34.5625 8.28125 
Q 37.984375 10.453125 37.984375 14.40625 
Q 37.984375 18.0625 35.515625 20.015625 
Q 33.0625 21.96875 24.703125 23.78125 
L 21.578125 24.515625 
Q 13.234375 26.265625 9.515625 29.90625 
Q 5.8125 33.546875 5.8125 39.890625 
Q 5.8125 47.609375 11.28125 51.796875 
Q 16.75 56 26.8125 56 
Q 31.78125 56 36.171875 55.265625 
Q 40.578125 54.546875 44.28125 53.078125 
z
" id="DejaVuSans-115"/>
     <path d="M 31 75.875 
Q 24.46875 64.65625 21.28125 53.65625 
Q 18.109375 42.671875 18.109375 31.390625 
Q 18.109375 20.125 21.3125 9.0625 
Q 24.515625 -2 31 -13.1875 
L 23.1875 -13.1875 
Q 15.875 -1.703125 12.234375 9.375 
Q 8.59375 20.453125 8.59375 31.390625 
Q 8.59375 42.28125 12.203125 53.3125 
Q 15.828125 64.359375 23.1875 75.875 
z
" id="DejaVuSans-40"/>
     <path d="M 53.515625 70.515625 
L 53.515625 60.890625 
Q 47.90625 63.578125 42.921875 64.890625 
Q 37.9375 66.21875 33.296875 66.21875 
Q 25.25 66.21875 20.875 63.09375 
Q 16.5 59.96875 16.5 54.203125 
Q 16.5 49.359375 19.40625 46.890625 
Q 22.3125 44.4375 30.421875 42.921875 
L 36.375 41.703125 
Q 47.40625 39.59375 52.65625 34.296875 
Q 57.90625 29 57.90625 20.125 
Q 57.90625 9.515625 50.796875 4.046875 
Q 43.703125 -1.421875 29.984375 -1.421875 
Q 24.8125 -1.421875 18.96875 -0.25 
Q 13.140625 0.921875 6.890625 3.21875 
L 6.890625 13.375 
Q 12.890625 10.015625 18.65625 8.296875 
Q 24.421875 6.59375 29.984375 6.59375 
Q 38.421875 6.59375 43.015625 9.90625 
Q 47.609375 13.234375 47.609375 19.390625 
Q 47.609375 24.75 44.3125 27.78125 
Q 41.015625 30.8125 33.5 32.328125 
L 27.484375 33.5 
Q 16.453125 35.6875 11.515625 40.375 
Q 6.59375 45.0625 6.59375 53.421875 
Q 6.59375 63.09375 13.40625 68.65625 
Q 20.21875 74.21875 32.171875 74.21875 
Q 37.3125 74.21875 42.625 73.28125 
Q 47.953125 72.359375 53.515625 70.515625 
z
" id="DejaVuSans-83"/>
     <path d="M 10.6875 12.40625 
L 21 12.40625 
L 21 0 
L 10.6875 0 
z
" id="DejaVuSans-46"/>
     <path d="M 11.71875 12.40625 
L 22.015625 12.40625 
L 22.015625 4 
L 14.015625 -11.625 
L 7.71875 -11.625 
L 11.71875 4 
z
" id="DejaVuSans-44"/>
     <path d="M 34.1875 63.1875 
L 20.796875 26.90625 
L 47.609375 26.90625 
z
M 28.609375 72.90625 
L 39.796875 72.90625 
L 67.578125 0 
L 57.328125 0 
L 50.6875 18.703125 
L 17.828125 18.703125 
L 11.1875 0 
L 0.78125 0 
z
" id="DejaVuSans-65"/>
     <path d="M 10.984375 1.515625 
L 10.984375 10.5 
Q 14.703125 8.734375 18.5 7.8125 
Q 22.3125 6.890625 25.984375 6.890625 
Q 35.75 6.890625 40.890625 13.453125 
Q 46.046875 20.015625 46.78125 33.40625 
Q 43.953125 29.203125 39.59375 26.953125 
Q 35.25 24.703125 29.984375 24.703125 
Q 19.046875 24.703125 12.671875 31.3125 
Q 6.296875 37.9375 6.296875 49.421875 
Q 6.296875 60.640625 12.9375 67.421875 
Q 19.578125 74.21875 30.609375 74.21875 
Q 43.265625 74.21875 49.921875 64.515625 
Q 56.59375 54.828125 56.59375 36.375 
Q 56.59375 19.140625 48.40625 8.859375 
Q 40.234375 -1.421875 26.421875 -1.421875 
Q 22.703125 -1.421875 18.890625 -0.6875 
Q 15.09375 0.046875 10.984375 1.515625 
z
M 30.609375 32.421875 
Q 37.25 32.421875 41.125 36.953125 
Q 45.015625 41.5 45.015625 49.421875 
Q 45.015625 57.28125 41.125 61.84375 
Q 37.25 66.40625 30.609375 66.40625 
Q 23.96875 66.40625 20.09375 61.84375 
Q 16.21875 57.28125 16.21875 49.421875 
Q 16.21875 41.5 20.09375 36.953125 
Q 23.96875 32.421875 30.609375 32.421875 
z
" id="DejaVuSans-57"/>
     <path d="M 72.703125 32.078125 
Q 68.453125 32.078125 66.03125 28.46875 
Q 63.625 24.859375 63.625 18.40625 
Q 63.625 12.0625 66.03125 8.421875 
Q 68.453125 4.78125 72.703125 4.78125 
Q 76.859375 4.78125 79.265625 8.421875 
Q 81.6875 12.0625 81.6875 18.40625 
Q 81.6875 24.8125 79.265625 28.4375 
Q 76.859375 32.078125 72.703125 32.078125 
z
M 72.703125 38.28125 
Q 80.421875 38.28125 84.953125 32.90625 
Q 89.5 27.546875 89.5 18.40625 
Q 89.5 9.28125 84.9375 3.921875 
Q 80.375 -1.421875 72.703125 -1.421875 
Q 64.890625 -1.421875 60.34375 3.921875 
Q 55.8125 9.28125 55.8125 18.40625 
Q 55.8125 27.59375 60.375 32.9375 
Q 64.9375 38.28125 72.703125 38.28125 
z
M 22.3125 68.015625 
Q 18.109375 68.015625 15.6875 64.375 
Q 13.28125 60.75 13.28125 54.390625 
Q 13.28125 47.953125 15.671875 44.328125 
Q 18.0625 40.71875 22.3125 40.71875 
Q 26.5625 40.71875 28.96875 44.328125 
Q 31.390625 47.953125 31.390625 54.390625 
Q 31.390625 60.6875 28.953125 64.34375 
Q 26.515625 68.015625 22.3125 68.015625 
z
M 66.40625 74.21875 
L 74.21875 74.21875 
L 28.609375 -1.421875 
L 20.796875 -1.421875 
z
M 22.3125 74.21875 
Q 30.03125 74.21875 34.609375 68.875 
Q 39.203125 63.53125 39.203125 54.390625 
Q 39.203125 45.171875 34.640625 39.84375 
Q 30.078125 34.515625 22.3125 34.515625 
Q 14.546875 34.515625 10.03125 39.859375 
Q 5.515625 45.21875 5.515625 54.390625 
Q 5.515625 63.484375 10.046875 68.84375 
Q 14.59375 74.21875 22.3125 74.21875 
z
" id="DejaVuSans-37"/>
     <path d="M 39.40625 66.21875 
Q 28.65625 66.21875 22.328125 58.203125 
Q 16.015625 50.203125 16.015625 36.375 
Q 16.015625 22.609375 22.328125 14.59375 
Q 28.65625 6.59375 39.40625 6.59375 
Q 50.140625 6.59375 56.421875 14.59375 
Q 62.703125 22.609375 62.703125 36.375 
Q 62.703125 50.203125 56.421875 58.203125 
Q 50.140625 66.21875 39.40625 66.21875 
z
M 39.40625 74.21875 
Q 54.734375 74.21875 63.90625 63.9375 
Q 73.09375 53.65625 73.09375 36.375 
Q 73.09375 19.140625 63.90625 8.859375 
Q 54.734375 -1.421875 39.40625 -1.421875 
Q 24.03125 -1.421875 14.8125 8.828125 
Q 5.609375 19.09375 5.609375 36.375 
Q 5.609375 53.65625 14.8125 63.9375 
Q 24.03125 74.21875 39.40625 74.21875 
z
" id="DejaVuSans-79"/>
     <path d="M 8.203125 72.90625 
L 55.078125 72.90625 
L 55.078125 68.703125 
L 28.609375 0 
L 18.3125 0 
L 43.21875 64.59375 
L 8.203125 64.59375 
z
" id="DejaVuSans-55"/>
     <path d="M 8.015625 75.875 
L 15.828125 75.875 
Q 23.140625 64.359375 26.78125 53.3125 
Q 30.421875 42.28125 30.421875 31.390625 
Q 30.421875 20.453125 26.78125 9.375 
Q 23.140625 -1.703125 15.828125 -13.1875 
L 8.015625 -13.1875 
Q 14.5 -2 17.703125 9.0625 
Q 20.90625 20.125 20.90625 31.390625 
Q 20.90625 42.671875 17.703125 53.65625 
Q 14.5 64.65625 8.015625 75.875 
z
" id="DejaVuSans-41"/>
    </defs>
    <g transform="translate(39.549375 45.84)scale(0.12 -0.12)">
     <use xlink:href="#DejaVuSans-80"/>
     <use x="60.302734" xlink:href="#DejaVuSans-77"/>
     <use x="146.582031" xlink:href="#DejaVuSans-49"/>
     <use x="210.205078" xlink:href="#DejaVuSans-48"/>
     <use x="273.828125" xlink:href="#DejaVuSans-32"/>
     <use x="305.615234" xlink:href="#DejaVuSans-49"/>
     <use x="369.238281" xlink:href="#DejaVuSans-54"/>
     <use x="432.861328" xlink:href="#DejaVuSans-45"/>
     <use x="468.945312" xlink:href="#DejaVuSans-97"/>
     <use x="530.224609" xlink:href="#DejaVuSans-108"/>
     <use x="558.007812" xlink:href="#DejaVuSans-108"/>
     <use x="585.791016" xlink:href="#DejaVuSans-32"/>
     <use x="617.578125" xlink:href="#DejaVuSans-66"/>
     <use x="686.181641" xlink:href="#DejaVuSans-69"/>
     <use x="749.365234" xlink:href="#DejaVuSans-84"/>
     <use x="810.449219" xlink:href="#DejaVuSans-78"/>
     <use x="885.253906" xlink:href="#DejaVuSans-48"/>
     <use x="948.876953" xlink:href="#DejaVuSans-52"/>
     <use x="1012.5" xlink:href="#DejaVuSans-51"/>
     <use x="1076.123047" xlink:href="#DejaVuSans-32"/>
     <use x="1107.910156" xlink:href="#DejaVuSans-50"/>
     <use x="1171.533203" xlink:href="#DejaVuSans-48"/>
     <use x="1235.15625" xlink:href="#DejaVuSans-49"/>
     <use x="1298.779297" xlink:href="#DejaVuSans-50"/>
     <use x="1362.402344" xlink:href="#DejaVuSans-58"/>
     <use x="1396.09375" xlink:href="#DejaVuSans-32"/>
     <use x="1427.880859" xlink:href="#DejaVuSans-73"/>
     <use x="1457.373047" xlink:href="#DejaVuSans-115"/>
     <use x="1509.472656" xlink:href="#DejaVuSans-108"/>
     <use x="1537.255859" xlink:href="#DejaVuSans-97"/>
     <use x="1598.535156" xlink:href="#DejaVuSans-110"/>
     <use x="1661.914062" xlink:href="#DejaVuSans-100"/>
     <use x="1725.390625" xlink:href="#DejaVuSans-32"/>
     <use x="1757.177734" xlink:href="#DejaVuSans-68"/>
     <use x="1834.179688" xlink:href="#DejaVuSans-78"/>
     <use x="1908.984375" xlink:href="#DejaVuSans-78"/>
     <use x="1983.789062" xlink:href="#DejaVuSans-32"/>
     <use x="2015.576172" xlink:href="#DejaVuSans-40"/>
     <use x="2054.589844" xlink:href="#DejaVuSans-77"/>
     <use x="2140.869141" xlink:href="#DejaVuSans-83"/>
     <use x="2204.345703" xlink:href="#DejaVuSans-69"/>
     <use x="2267.529297" xlink:href="#DejaVuSans-58"/>
     <use x="2301.220703" xlink:href="#DejaVuSans-32"/>
     <use x="2333.007812" xlink:href="#DejaVuSans-50"/>
     <use x="2396.630859" xlink:href="#DejaVuSans-53"/>
     <use x="2460.253906" xlink:href="#DejaVuSans-50"/>
     <use x="2523.876953" xlink:href="#DejaVuSans-46"/>
     <use x="2555.664062" xlink:href="#DejaVuSans-49"/>
     <use x="2619.287109" xlink:href="#DejaVuSans-53"/>
     <use x="2682.910156" xlink:href="#DejaVuSans-44"/>
     <use x="2714.697266" xlink:href="#DejaVuSans-32"/>
     <use x="2746.484375" xlink:href="#DejaVuSans-83"/>
     <use x="2809.960938" xlink:href="#DejaVuSans-77"/>
     <use x="2896.240234" xlink:href="#DejaVuSans-65"/>
     <use x="2964.648438" xlink:href="#DejaVuSans-80"/>
     <use x="3024.951172" xlink:href="#DejaVuSans-69"/>
     <use x="3088.134766" xlink:href="#DejaVuSans-58"/>
     <use x="3121.826172" xlink:href="#DejaVuSans-32"/>
     <use x="3153.613281" xlink:href="#DejaVuSans-51"/>
     <use x="3217.236328" xlink:href="#DejaVuSans-49"/>
     <use x="3280.859375" xlink:href="#DejaVuSans-46"/>
     <use x="3312.646484" xlink:href="#DejaVuSans-54"/>
     <use x="3376.269531" xlink:href="#DejaVuSans-57"/>
     <use x="3439.892578" xlink:href="#DejaVuSans-37"/>
     <use x="3534.912109" xlink:href="#DejaVuSans-44"/>
     <use x="3566.699219" xlink:href="#DejaVuSans-32"/>
     <use x="3598.486328" xlink:href="#DejaVuSans-73"/>
     <use x="3627.978516" xlink:href="#DejaVuSans-79"/>
     <use x="3706.673828" xlink:href="#DejaVuSans-65"/>
     <use x="3775.066406" xlink:href="#DejaVuSans-58"/>
     <use x="3808.757812" xlink:href="#DejaVuSans-32"/>
     <use x="3840.544922" xlink:href="#DejaVuSans-55"/>
     <use x="3904.167969" xlink:href="#DejaVuSans-56"/>
     <use x="3967.791016" xlink:href="#DejaVuSans-46"/>
     <use x="3999.578125" xlink:href="#DejaVuSans-50"/>
     <use x="4063.201172" xlink:href="#DejaVuSans-56"/>
     <use x="4126.824219" xlink:href="#DejaVuSans-37"/>
     <use x="4221.84375" xlink:href="#DejaVuSans-41"/>
    </g>
   </g>
   <g id="legend_1">
    <g id="patch_7">
     <path d="M 431.74375 89.19625 
L 511.4 89.19625 
Q 513.4 89.19625 513.4 87.19625 
L 513.4 58.84 
Q 513.4 56.84 511.4 56.84 
L 431.74375 56.84 
Q 429.74375 56.84 429.74375 58.84 
L 429.74375 87.19625 
Q 429.74375 89.19625 431.74375 89.19625 
z
" style="fill:#ffffff;opacity:0.8;stroke:#cccccc;stroke-linejoin:miter;"/>
    </g>
    <g id="line2d_37">
     <path d="M 433.74375 64.938437 
L 453.74375 64.938437 
" style="fill:none;stroke:#1f77b4;stroke-linecap:square;stroke-width:1.5;"/>
    </g>
    <g id="line2d_38"/>
    <g id="text_21">
     <!-- expected -->
     <defs>
      <path d="M 54.890625 54.6875 
L 35.109375 28.078125 
L 55.90625 0 
L 45.3125 0 
L 29.390625 21.484375 
L 13.484375 0 
L 2.875 0 
L 24.125 28.609375 
L 4.6875 54.6875 
L 15.28125 54.6875 
L 29.78125 35.203125 
L 44.28125 54.6875 
z
" id="DejaVuSans-120"/>
      <path d="M 18.109375 8.203125 
L 18.109375 -20.796875 
L 9.078125 -20.796875 
L 9.078125 54.6875 
L 18.109375 54.6875 
L 18.109375 46.390625 
Q 20.953125 51.265625 25.265625 53.625 
Q 29.59375 56 35.59375 56 
Q 45.5625 56 51.78125 48.09375 
Q 58.015625 40.1875 58.015625 27.296875 
Q 58.015625 14.40625 51.78125 6.484375 
Q 45.5625 -1.421875 35.59375 -1.421875 
Q 29.59375 -1.421875 25.265625 0.953125 
Q 20.953125 3.328125 18.109375 8.203125 
z
M 48.6875 27.296875 
Q 48.6875 37.203125 44.609375 42.84375 
Q 40.53125 48.484375 33.40625 48.484375 
Q 26.265625 48.484375 22.1875 42.84375 
Q 18.109375 37.203125 18.109375 27.296875 
Q 18.109375 17.390625 22.1875 11.75 
Q 26.265625 6.109375 33.40625 6.109375 
Q 40.53125 6.109375 44.609375 11.75 
Q 48.6875 17.390625 48.6875 27.296875 
z
" id="DejaVuSans-112"/>
      <path d="M 48.78125 52.59375 
L 48.78125 44.1875 
Q 44.96875 46.296875 41.140625 47.34375 
Q 37.3125 48.390625 33.40625 48.390625 
Q 24.65625 48.390625 19.8125 42.84375 
Q 14.984375 37.3125 14.984375 27.296875 
Q 14.984375 17.28125 19.8125 11.734375 
Q 24.65625 6.203125 33.40625 6.203125 
Q 37.3125 6.203125 41.140625 7.25 
Q 44.96875 8.296875 48.78125 10.40625 
L 48.78125 2.09375 
Q 45.015625 0.34375 40.984375 -0.53125 
Q 36.96875 -1.421875 32.421875 -1.421875 
Q 20.0625 -1.421875 12.78125 6.34375 
Q 5.515625 14.109375 5.515625 27.296875 
Q 5.515625 40.671875 12.859375 48.328125 
Q 20.21875 56 33.015625 56 
Q 37.15625 56 41.109375 55.140625 
Q 45.0625 54.296875 48.78125 52.59375 
z
" id="DejaVuSans-99"/>
      <path d="M 18.3125 70.21875 
L 18.3125 54.6875 
L 36.8125 54.6875 
L 36.8125 47.703125 
L 18.3125 47.703125 
L 18.3125 18.015625 
Q 18.3125 11.328125 20.140625 9.421875 
Q 21.96875 7.515625 27.59375 7.515625 
L 36.8125 7.515625 
L 36.8125 0 
L 27.59375 0 
Q 17.1875 0 13.234375 3.875 
Q 9.28125 7.765625 9.28125 18.015625 
L 9.28125 47.703125 
L 2.6875 47.703125 
L 2.6875 54.6875 
L 9.28125 54.6875 
L 9.28125 70.21875 
z
" id="DejaVuSans-116"/>
     </defs>
     <g transform="translate(461.74375 68.438437)scale(0.1 -0.1)">
      <use xlink:href="#DejaVuSans-101"/>
      <use x="61.507812" xlink:href="#DejaVuSans-120"/>
      <use x="120.6875" xlink:href="#DejaVuSans-112"/>
      <use x="184.164062" xlink:href="#DejaVuSans-101"/>
      <use x="245.6875" xlink:href="#DejaVuSans-99"/>
      <use x="300.667969" xlink:href="#DejaVuSans-116"/>
      <use x="339.876953" xlink:href="#DejaVuSans-101"/>
      <use x="401.400391" xlink:href="#DejaVuSans-100"/>
     </g>
    </g>
    <g id="line2d_39">
     <path d="M 433.74375 79.616562 
L 453.74375 79.616562 
" style="fill:none;stroke:#ff7f0e;stroke-linecap:square;stroke-width:1.5;"/>
    </g>
    <g id="line2d_40"/>
    <g id="text_22">
     <!-- predicted -->
     <defs>
      <path d="M 41.109375 46.296875 
Q 39.59375 47.171875 37.8125 47.578125 
Q 36.03125 48 33.890625 48 
Q 26.265625 48 22.1875 43.046875 
Q 18.109375 38.09375 18.109375 28.8125 
L 18.109375 0 
L 9.078125 0 
L 9.078125 54.6875 
L 18.109375 54.6875 
L 18.109375 46.1875 
Q 20.953125 51.171875 25.484375 53.578125 
Q 30.03125 56 36.53125 56 
Q 37.453125 56 38.578125 55.875 
Q 39.703125 55.765625 41.0625 55.515625 
z
" id="DejaVuSans-114"/>
     </defs>
     <g transform="translate(461.74375 83.116562)scale(0.1 -0.1)">
      <use xlink:href="#DejaVuSans-112"/>
      <use x="63.476562" xlink:href="#DejaVuSans-114"/>
      <use x="104.558594" xlink:href="#DejaVuSans-101"/>
      <use x="166.082031" xlink:href="#DejaVuSans-100"/>
      <use x="229.558594" xlink:href="#DejaVuSans-105"/>
      <use x="257.341797" xlink:href="#DejaVuSans-99"/>
      <use x="312.322266" xlink:href="#DejaVuSans-116"/>
      <use x="351.53125" xlink:href="#DejaVuSans-101"/>
      <use x="413.054688" xlink:href="#DejaVuSans-100"/>
     </g>
    </g>
   </g>
  </g>
 </g>
 <defs>
  <clipPath id="p5bc7acb672">
   <rect height="326.16" width="446.4" x="72" y="51.84"/>
  </clipPath>
 </defs>
</svg>
