<?xml version="1.0" encoding="utf-8" standalone="no"?>
<!DOCTYPE svg PUBLIC "-//W3C//DTD SVG 1.1//EN"
  "http://www.w3.org/Graphics/SVG/1.1/DTD/svg11.dtd">
<!-- Created with matplotlib (https://matplotlib.org/) -->
<svg height="864pt" version="1.1" viewBox="0 0 1440 864" width="1440pt" xmlns="http://www.w3.org/2000/svg" xmlns:xlink="http://www.w3.org/1999/xlink">
 <defs>
  <style type="text/css">
*{stroke-linecap:butt;stroke-linejoin:round;}
  </style>
 </defs>
 <g id="figure_1">
  <g id="patch_1">
   <path d="M 0 864 
L 1440 864 
L 1440 0 
L 0 0 
z
" style="fill:#ffffff;"/>
  </g>
  <g id="axes_1">
   <g id="patch_2">
    <path d="M 180 756 
L 1296 756 
L 1296 103.68 
L 180 103.68 
z
" style="fill:#ffffff;"/>
   </g>
   <g id="matplotlib.axis_1">
    <g id="xtick_1">
     <g id="line2d_1">
      <defs>
       <path d="M 0 0 
L 0 3.5 
" id="me52de2797c" style="stroke:#000000;stroke-width:0.8;"/>
      </defs>
      <g>
       <use style="stroke:#000000;stroke-width:0.8;" x="230.727273" xlink:href="#me52de2797c" y="756"/>
      </g>
     </g>
     <g id="text_1">
      <!-- 0 -->
      <defs>
       <path d="M 31.78125 66.40625 
Q 24.171875 66.40625 20.328125 58.90625 
Q 16.5 51.421875 16.5 36.375 
Q 16.5 21.390625 20.328125 13.890625 
Q 24.171875 6.390625 31.78125 6.390625 
Q 39.453125 6.390625 43.28125 13.890625 
Q 47.125 21.390625 47.125 36.375 
Q 47.125 51.421875 43.28125 58.90625 
Q 39.453125 66.40625 31.78125 66.40625 
z
M 31.78125 74.21875 
Q 44.046875 74.21875 50.515625 64.515625 
Q 56.984375 54.828125 56.984375 36.375 
Q 56.984375 17.96875 50.515625 8.265625 
Q 44.046875 -1.421875 31.78125 -1.421875 
Q 19.53125 -1.421875 13.0625 8.265625 
Q 6.59375 17.96875 6.59375 36.375 
Q 6.59375 54.828125 13.0625 64.515625 
Q 19.53125 74.21875 31.78125 74.21875 
z
" id="DejaVuSans-48"/>
      </defs>
      <g transform="translate(227.546023 770.598438)scale(0.1 -0.1)">
       <use xlink:href="#DejaVuSans-48"/>
      </g>
     </g>
    </g>
    <g id="xtick_2">
     <g id="line2d_2">
      <g>
       <use style="stroke:#000000;stroke-width:0.8;" x="370.087912" xlink:href="#me52de2797c" y="756"/>
      </g>
     </g>
     <g id="text_2">
      <!-- 50 -->
      <defs>
       <path d="M 10.796875 72.90625 
L 49.515625 72.90625 
L 49.515625 64.59375 
L 19.828125 64.59375 
L 19.828125 46.734375 
Q 21.96875 47.46875 24.109375 47.828125 
Q 26.265625 48.1875 28.421875 48.1875 
Q 40.625 48.1875 47.75 41.5 
Q 54.890625 34.8125 54.890625 23.390625 
Q 54.890625 11.625 47.5625 5.09375 
Q 40.234375 -1.421875 26.90625 -1.421875 
Q 22.3125 -1.421875 17.546875 -0.640625 
Q 12.796875 0.140625 7.71875 1.703125 
L 7.71875 11.625 
Q 12.109375 9.234375 16.796875 8.0625 
Q 21.484375 6.890625 26.703125 6.890625 
Q 35.15625 6.890625 40.078125 11.328125 
Q 45.015625 15.765625 45.015625 23.390625 
Q 45.015625 31 40.078125 35.4375 
Q 35.15625 39.890625 26.703125 39.890625 
Q 22.75 39.890625 18.8125 39.015625 
Q 14.890625 38.140625 10.796875 36.28125 
z
" id="DejaVuSans-53"/>
      </defs>
      <g transform="translate(363.725412 770.598438)scale(0.1 -0.1)">
       <use xlink:href="#DejaVuSans-53"/>
       <use x="63.623047" xlink:href="#DejaVuSans-48"/>
      </g>
     </g>
    </g>
    <g id="xtick_3">
     <g id="line2d_3">
      <g>
       <use style="stroke:#000000;stroke-width:0.8;" x="509.448551" xlink:href="#me52de2797c" y="756"/>
      </g>
     </g>
     <g id="text_3">
      <!-- 100 -->
      <defs>
       <path d="M 12.40625 8.296875 
L 28.515625 8.296875 
L 28.515625 63.921875 
L 10.984375 60.40625 
L 10.984375 69.390625 
L 28.421875 72.90625 
L 38.28125 72.90625 
L 38.28125 8.296875 
L 54.390625 8.296875 
L 54.390625 0 
L 12.40625 0 
z
" id="DejaVuSans-49"/>
      </defs>
      <g transform="translate(499.904801 770.598438)scale(0.1 -0.1)">
       <use xlink:href="#DejaVuSans-49"/>
       <use x="63.623047" xlink:href="#DejaVuSans-48"/>
       <use x="127.246094" xlink:href="#DejaVuSans-48"/>
      </g>
     </g>
    </g>
    <g id="xtick_4">
     <g id="line2d_4">
      <g>
       <use style="stroke:#000000;stroke-width:0.8;" x="648.809191" xlink:href="#me52de2797c" y="756"/>
      </g>
     </g>
     <g id="text_4">
      <!-- 150 -->
      <g transform="translate(639.265441 770.598438)scale(0.1 -0.1)">
       <use xlink:href="#DejaVuSans-49"/>
       <use x="63.623047" xlink:href="#DejaVuSans-53"/>
       <use x="127.246094" xlink:href="#DejaVuSans-48"/>
      </g>
     </g>
    </g>
    <g id="xtick_5">
     <g id="line2d_5">
      <g>
       <use style="stroke:#000000;stroke-width:0.8;" x="788.16983" xlink:href="#me52de2797c" y="756"/>
      </g>
     </g>
     <g id="text_5">
      <!-- 200 -->
      <defs>
       <path d="M 19.1875 8.296875 
L 53.609375 8.296875 
L 53.609375 0 
L 7.328125 0 
L 7.328125 8.296875 
Q 12.9375 14.109375 22.625 23.890625 
Q 32.328125 33.6875 34.8125 36.53125 
Q 39.546875 41.84375 41.421875 45.53125 
Q 43.3125 49.21875 43.3125 52.78125 
Q 43.3125 58.59375 39.234375 62.25 
Q 35.15625 65.921875 28.609375 65.921875 
Q 23.96875 65.921875 18.8125 64.3125 
Q 13.671875 62.703125 7.8125 59.421875 
L 7.8125 69.390625 
Q 13.765625 71.78125 18.9375 73 
Q 24.125 74.21875 28.421875 74.21875 
Q 39.75 74.21875 46.484375 68.546875 
Q 53.21875 62.890625 53.21875 53.421875 
Q 53.21875 48.921875 51.53125 44.890625 
Q 49.859375 40.875 45.40625 35.40625 
Q 44.1875 33.984375 37.640625 27.21875 
Q 31.109375 20.453125 19.1875 8.296875 
z
" id="DejaVuSans-50"/>
      </defs>
      <g transform="translate(778.62608 770.598438)scale(0.1 -0.1)">
       <use xlink:href="#DejaVuSans-50"/>
       <use x="63.623047" xlink:href="#DejaVuSans-48"/>
       <use x="127.246094" xlink:href="#DejaVuSans-48"/>
      </g>
     </g>
    </g>
    <g id="xtick_6">
     <g id="line2d_6">
      <g>
       <use style="stroke:#000000;stroke-width:0.8;" x="927.53047" xlink:href="#me52de2797c" y="756"/>
      </g>
     </g>
     <g id="text_6">
      <!-- 250 -->
      <g transform="translate(917.98672 770.598438)scale(0.1 -0.1)">
       <use xlink:href="#DejaVuSans-50"/>
       <use x="63.623047" xlink:href="#DejaVuSans-53"/>
       <use x="127.246094" xlink:href="#DejaVuSans-48"/>
      </g>
     </g>
    </g>
    <g id="xtick_7">
     <g id="line2d_7">
      <g>
       <use style="stroke:#000000;stroke-width:0.8;" x="1066.891109" xlink:href="#me52de2797c" y="756"/>
      </g>
     </g>
     <g id="text_7">
      <!-- 300 -->
      <defs>
       <path d="M 40.578125 39.3125 
Q 47.65625 37.796875 51.625 33 
Q 55.609375 28.21875 55.609375 21.1875 
Q 55.609375 10.40625 48.1875 4.484375 
Q 40.765625 -1.421875 27.09375 -1.421875 
Q 22.515625 -1.421875 17.65625 -0.515625 
Q 12.796875 0.390625 7.625 2.203125 
L 7.625 11.71875 
Q 11.71875 9.328125 16.59375 8.109375 
Q 21.484375 6.890625 26.8125 6.890625 
Q 36.078125 6.890625 40.9375 10.546875 
Q 45.796875 14.203125 45.796875 21.1875 
Q 45.796875 27.640625 41.28125 31.265625 
Q 36.765625 34.90625 28.71875 34.90625 
L 20.21875 34.90625 
L 20.21875 43.015625 
L 29.109375 43.015625 
Q 36.375 43.015625 40.234375 45.921875 
Q 44.09375 48.828125 44.09375 54.296875 
Q 44.09375 59.90625 40.109375 62.90625 
Q 36.140625 65.921875 28.71875 65.921875 
Q 24.65625 65.921875 20.015625 65.03125 
Q 15.375 64.15625 9.8125 62.3125 
L 9.8125 71.09375 
Q 15.4375 72.65625 20.34375 73.4375 
Q 25.25 74.21875 29.59375 74.21875 
Q 40.828125 74.21875 47.359375 69.109375 
Q 53.90625 64.015625 53.90625 55.328125 
Q 53.90625 49.265625 50.4375 45.09375 
Q 46.96875 40.921875 40.578125 39.3125 
z
" id="DejaVuSans-51"/>
      </defs>
      <g transform="translate(1057.347359 770.598438)scale(0.1 -0.1)">
       <use xlink:href="#DejaVuSans-51"/>
       <use x="63.623047" xlink:href="#DejaVuSans-48"/>
       <use x="127.246094" xlink:href="#DejaVuSans-48"/>
      </g>
     </g>
    </g>
    <g id="xtick_8">
     <g id="line2d_8">
      <g>
       <use style="stroke:#000000;stroke-width:0.8;" x="1206.251748" xlink:href="#me52de2797c" y="756"/>
      </g>
     </g>
     <g id="text_8">
      <!-- 350 -->
      <g transform="translate(1196.707998 770.598438)scale(0.1 -0.1)">
       <use xlink:href="#DejaVuSans-51"/>
       <use x="63.623047" xlink:href="#DejaVuSans-53"/>
       <use x="127.246094" xlink:href="#DejaVuSans-48"/>
      </g>
     </g>
    </g>
   </g>
   <g id="matplotlib.axis_2">
    <g id="ytick_1">
     <g id="line2d_9">
      <defs>
       <path d="M 0 0 
L -3.5 0 
" id="m43e6070674" style="stroke:#000000;stroke-width:0.8;"/>
      </defs>
      <g>
       <use style="stroke:#000000;stroke-width:0.8;" x="180" xlink:href="#m43e6070674" y="753.097768"/>
      </g>
     </g>
     <g id="text_9">
      <!-- 0 -->
      <g transform="translate(166.6375 756.896987)scale(0.1 -0.1)">
       <use xlink:href="#DejaVuSans-48"/>
      </g>
     </g>
    </g>
    <g id="ytick_2">
     <g id="line2d_10">
      <g>
       <use style="stroke:#000000;stroke-width:0.8;" x="180" xlink:href="#m43e6070674" y="674.425187"/>
      </g>
     </g>
     <g id="text_10">
      <!-- 20 -->
      <g transform="translate(160.275 678.224406)scale(0.1 -0.1)">
       <use xlink:href="#DejaVuSans-50"/>
       <use x="63.623047" xlink:href="#DejaVuSans-48"/>
      </g>
     </g>
    </g>
    <g id="ytick_3">
     <g id="line2d_11">
      <g>
       <use style="stroke:#000000;stroke-width:0.8;" x="180" xlink:href="#m43e6070674" y="595.752606"/>
      </g>
     </g>
     <g id="text_11">
      <!-- 40 -->
      <defs>
       <path d="M 37.796875 64.3125 
L 12.890625 25.390625 
L 37.796875 25.390625 
z
M 35.203125 72.90625 
L 47.609375 72.90625 
L 47.609375 25.390625 
L 58.015625 25.390625 
L 58.015625 17.1875 
L 47.609375 17.1875 
L 47.609375 0 
L 37.796875 0 
L 37.796875 17.1875 
L 4.890625 17.1875 
L 4.890625 26.703125 
z
" id="DejaVuSans-52"/>
      </defs>
      <g transform="translate(160.275 599.551825)scale(0.1 -0.1)">
       <use xlink:href="#DejaVuSans-52"/>
       <use x="63.623047" xlink:href="#DejaVuSans-48"/>
      </g>
     </g>
    </g>
    <g id="ytick_4">
     <g id="line2d_12">
      <g>
       <use style="stroke:#000000;stroke-width:0.8;" x="180" xlink:href="#m43e6070674" y="517.080025"/>
      </g>
     </g>
     <g id="text_12">
      <!-- 60 -->
      <defs>
       <path d="M 33.015625 40.375 
Q 26.375 40.375 22.484375 35.828125 
Q 18.609375 31.296875 18.609375 23.390625 
Q 18.609375 15.53125 22.484375 10.953125 
Q 26.375 6.390625 33.015625 6.390625 
Q 39.65625 6.390625 43.53125 10.953125 
Q 47.40625 15.53125 47.40625 23.390625 
Q 47.40625 31.296875 43.53125 35.828125 
Q 39.65625 40.375 33.015625 40.375 
z
M 52.59375 71.296875 
L 52.59375 62.3125 
Q 48.875 64.0625 45.09375 64.984375 
Q 41.3125 65.921875 37.59375 65.921875 
Q 27.828125 65.921875 22.671875 59.328125 
Q 17.53125 52.734375 16.796875 39.40625 
Q 19.671875 43.65625 24.015625 45.921875 
Q 28.375 48.1875 33.59375 48.1875 
Q 44.578125 48.1875 50.953125 41.515625 
Q 57.328125 34.859375 57.328125 23.390625 
Q 57.328125 12.15625 50.6875 5.359375 
Q 44.046875 -1.421875 33.015625 -1.421875 
Q 20.359375 -1.421875 13.671875 8.265625 
Q 6.984375 17.96875 6.984375 36.375 
Q 6.984375 53.65625 15.1875 63.9375 
Q 23.390625 74.21875 37.203125 74.21875 
Q 40.921875 74.21875 44.703125 73.484375 
Q 48.484375 72.75 52.59375 71.296875 
z
" id="DejaVuSans-54"/>
      </defs>
      <g transform="translate(160.275 520.879244)scale(0.1 -0.1)">
       <use xlink:href="#DejaVuSans-54"/>
       <use x="63.623047" xlink:href="#DejaVuSans-48"/>
      </g>
     </g>
    </g>
    <g id="ytick_5">
     <g id="line2d_13">
      <g>
       <use style="stroke:#000000;stroke-width:0.8;" x="180" xlink:href="#m43e6070674" y="438.407444"/>
      </g>
     </g>
     <g id="text_13">
      <!-- 80 -->
      <defs>
       <path d="M 31.78125 34.625 
Q 24.75 34.625 20.71875 30.859375 
Q 16.703125 27.09375 16.703125 20.515625 
Q 16.703125 13.921875 20.71875 10.15625 
Q 24.75 6.390625 31.78125 6.390625 
Q 38.8125 6.390625 42.859375 10.171875 
Q 46.921875 13.96875 46.921875 20.515625 
Q 46.921875 27.09375 42.890625 30.859375 
Q 38.875 34.625 31.78125 34.625 
z
M 21.921875 38.8125 
Q 15.578125 40.375 12.03125 44.71875 
Q 8.5 49.078125 8.5 55.328125 
Q 8.5 64.0625 14.71875 69.140625 
Q 20.953125 74.21875 31.78125 74.21875 
Q 42.671875 74.21875 48.875 69.140625 
Q 55.078125 64.0625 55.078125 55.328125 
Q 55.078125 49.078125 51.53125 44.71875 
Q 48 40.375 41.703125 38.8125 
Q 48.828125 37.15625 52.796875 32.3125 
Q 56.78125 27.484375 56.78125 20.515625 
Q 56.78125 9.90625 50.3125 4.234375 
Q 43.84375 -1.421875 31.78125 -1.421875 
Q 19.734375 -1.421875 13.25 4.234375 
Q 6.78125 9.90625 6.78125 20.515625 
Q 6.78125 27.484375 10.78125 32.3125 
Q 14.796875 37.15625 21.921875 38.8125 
z
M 18.3125 54.390625 
Q 18.3125 48.734375 21.84375 45.5625 
Q 25.390625 42.390625 31.78125 42.390625 
Q 38.140625 42.390625 41.71875 45.5625 
Q 45.3125 48.734375 45.3125 54.390625 
Q 45.3125 60.0625 41.71875 63.234375 
Q 38.140625 66.40625 31.78125 66.40625 
Q 25.390625 66.40625 21.84375 63.234375 
Q 18.3125 60.0625 18.3125 54.390625 
z
" id="DejaVuSans-56"/>
      </defs>
      <g transform="translate(160.275 442.206663)scale(0.1 -0.1)">
       <use xlink:href="#DejaVuSans-56"/>
       <use x="63.623047" xlink:href="#DejaVuSans-48"/>
      </g>
     </g>
    </g>
    <g id="ytick_6">
     <g id="line2d_14">
      <g>
       <use style="stroke:#000000;stroke-width:0.8;" x="180" xlink:href="#m43e6070674" y="359.734863"/>
      </g>
     </g>
     <g id="text_14">
      <!-- 100 -->
      <g transform="translate(153.9125 363.534082)scale(0.1 -0.1)">
       <use xlink:href="#DejaVuSans-49"/>
       <use x="63.623047" xlink:href="#DejaVuSans-48"/>
       <use x="127.246094" xlink:href="#DejaVuSans-48"/>
      </g>
     </g>
    </g>
    <g id="ytick_7">
     <g id="line2d_15">
      <g>
       <use style="stroke:#000000;stroke-width:0.8;" x="180" xlink:href="#m43e6070674" y="281.062282"/>
      </g>
     </g>
     <g id="text_15">
      <!-- 120 -->
      <g transform="translate(153.9125 284.861501)scale(0.1 -0.1)">
       <use xlink:href="#DejaVuSans-49"/>
       <use x="63.623047" xlink:href="#DejaVuSans-50"/>
       <use x="127.246094" xlink:href="#DejaVuSans-48"/>
      </g>
     </g>
    </g>
    <g id="ytick_8">
     <g id="line2d_16">
      <g>
       <use style="stroke:#000000;stroke-width:0.8;" x="180" xlink:href="#m43e6070674" y="202.389701"/>
      </g>
     </g>
     <g id="text_16">
      <!-- 140 -->
      <g transform="translate(153.9125 206.18892)scale(0.1 -0.1)">
       <use xlink:href="#DejaVuSans-49"/>
       <use x="63.623047" xlink:href="#DejaVuSans-52"/>
       <use x="127.246094" xlink:href="#DejaVuSans-48"/>
      </g>
     </g>
    </g>
    <g id="ytick_9">
     <g id="line2d_17">
      <g>
       <use style="stroke:#000000;stroke-width:0.8;" x="180" xlink:href="#m43e6070674" y="123.71712"/>
      </g>
     </g>
     <g id="text_17">
      <!-- 160 -->
      <g transform="translate(153.9125 127.516338)scale(0.1 -0.1)">
       <use xlink:href="#DejaVuSans-49"/>
       <use x="63.623047" xlink:href="#DejaVuSans-54"/>
       <use x="127.246094" xlink:href="#DejaVuSans-48"/>
      </g>
     </g>
    </g>
    <g id="text_18">
     <!-- Sensor value -->
     <defs>
      <path d="M 53.515625 70.515625 
L 53.515625 60.890625 
Q 47.90625 63.578125 42.921875 64.890625 
Q 37.9375 66.21875 33.296875 66.21875 
Q 25.25 66.21875 20.875 63.09375 
Q 16.5 59.96875 16.5 54.203125 
Q 16.5 49.359375 19.40625 46.890625 
Q 22.3125 44.4375 30.421875 42.921875 
L 36.375 41.703125 
Q 47.40625 39.59375 52.65625 34.296875 
Q 57.90625 29 57.90625 20.125 
Q 57.90625 9.515625 50.796875 4.046875 
Q 43.703125 -1.421875 29.984375 -1.421875 
Q 24.8125 -1.421875 18.96875 -0.25 
Q 13.140625 0.921875 6.890625 3.21875 
L 6.890625 13.375 
Q 12.890625 10.015625 18.65625 8.296875 
Q 24.421875 6.59375 29.984375 6.59375 
Q 38.421875 6.59375 43.015625 9.90625 
Q 47.609375 13.234375 47.609375 19.390625 
Q 47.609375 24.75 44.3125 27.78125 
Q 41.015625 30.8125 33.5 32.328125 
L 27.484375 33.5 
Q 16.453125 35.6875 11.515625 40.375 
Q 6.59375 45.0625 6.59375 53.421875 
Q 6.59375 63.09375 13.40625 68.65625 
Q 20.21875 74.21875 32.171875 74.21875 
Q 37.3125 74.21875 42.625 73.28125 
Q 47.953125 72.359375 53.515625 70.515625 
z
" id="DejaVuSans-83"/>
      <path d="M 56.203125 29.59375 
L 56.203125 25.203125 
L 14.890625 25.203125 
Q 15.484375 15.921875 20.484375 11.0625 
Q 25.484375 6.203125 34.421875 6.203125 
Q 39.59375 6.203125 44.453125 7.46875 
Q 49.3125 8.734375 54.109375 11.28125 
L 54.109375 2.78125 
Q 49.265625 0.734375 44.1875 -0.34375 
Q 39.109375 -1.421875 33.890625 -1.421875 
Q 20.796875 -1.421875 13.15625 6.1875 
Q 5.515625 13.8125 5.515625 26.8125 
Q 5.515625 40.234375 12.765625 48.109375 
Q 20.015625 56 32.328125 56 
Q 43.359375 56 49.78125 48.890625 
Q 56.203125 41.796875 56.203125 29.59375 
z
M 47.21875 32.234375 
Q 47.125 39.59375 43.09375 43.984375 
Q 39.0625 48.390625 32.421875 48.390625 
Q 24.90625 48.390625 20.390625 44.140625 
Q 15.875 39.890625 15.1875 32.171875 
z
" id="DejaVuSans-101"/>
      <path d="M 54.890625 33.015625 
L 54.890625 0 
L 45.90625 0 
L 45.90625 32.71875 
Q 45.90625 40.484375 42.875 44.328125 
Q 39.84375 48.1875 33.796875 48.1875 
Q 26.515625 48.1875 22.3125 43.546875 
Q 18.109375 38.921875 18.109375 30.90625 
L 18.109375 0 
L 9.078125 0 
L 9.078125 54.6875 
L 18.109375 54.6875 
L 18.109375 46.1875 
Q 21.34375 51.125 25.703125 53.5625 
Q 30.078125 56 35.796875 56 
Q 45.21875 56 50.046875 50.171875 
Q 54.890625 44.34375 54.890625 33.015625 
z
" id="DejaVuSans-110"/>
      <path d="M 44.28125 53.078125 
L 44.28125 44.578125 
Q 40.484375 46.53125 36.375 47.5 
Q 32.28125 48.484375 27.875 48.484375 
Q 21.1875 48.484375 17.84375 46.4375 
Q 14.5 44.390625 14.5 40.28125 
Q 14.5 37.15625 16.890625 35.375 
Q 19.28125 33.59375 26.515625 31.984375 
L 29.59375 31.296875 
Q 39.15625 29.25 43.1875 25.515625 
Q 47.21875 21.78125 47.21875 15.09375 
Q 47.21875 7.46875 41.1875 3.015625 
Q 35.15625 -1.421875 24.609375 -1.421875 
Q 20.21875 -1.421875 15.453125 -0.5625 
Q 10.6875 0.296875 5.421875 2 
L 5.421875 11.28125 
Q 10.40625 8.6875 15.234375 7.390625 
Q 20.0625 6.109375 24.8125 6.109375 
Q 31.15625 6.109375 34.5625 8.28125 
Q 37.984375 10.453125 37.984375 14.40625 
Q 37.984375 18.0625 35.515625 20.015625 
Q 33.0625 21.96875 24.703125 23.78125 
L 21.578125 24.515625 
Q 13.234375 26.265625 9.515625 29.90625 
Q 5.8125 33.546875 5.8125 39.890625 
Q 5.8125 47.609375 11.28125 51.796875 
Q 16.75 56 26.8125 56 
Q 31.78125 56 36.171875 55.265625 
Q 40.578125 54.546875 44.28125 53.078125 
z
" id="DejaVuSans-115"/>
      <path d="M 30.609375 48.390625 
Q 23.390625 48.390625 19.1875 42.75 
Q 14.984375 37.109375 14.984375 27.296875 
Q 14.984375 17.484375 19.15625 11.84375 
Q 23.34375 6.203125 30.609375 6.203125 
Q 37.796875 6.203125 41.984375 11.859375 
Q 46.1875 17.53125 46.1875 27.296875 
Q 46.1875 37.015625 41.984375 42.703125 
Q 37.796875 48.390625 30.609375 48.390625 
z
M 30.609375 56 
Q 42.328125 56 49.015625 48.375 
Q 55.71875 40.765625 55.71875 27.296875 
Q 55.71875 13.875 49.015625 6.21875 
Q 42.328125 -1.421875 30.609375 -1.421875 
Q 18.84375 -1.421875 12.171875 6.21875 
Q 5.515625 13.875 5.515625 27.296875 
Q 5.515625 40.765625 12.171875 48.375 
Q 18.84375 56 30.609375 56 
z
" id="DejaVuSans-111"/>
      <path d="M 41.109375 46.296875 
Q 39.59375 47.171875 37.8125 47.578125 
Q 36.03125 48 33.890625 48 
Q 26.265625 48 22.1875 43.046875 
Q 18.109375 38.09375 18.109375 28.8125 
L 18.109375 0 
L 9.078125 0 
L 9.078125 54.6875 
L 18.109375 54.6875 
L 18.109375 46.1875 
Q 20.953125 51.171875 25.484375 53.578125 
Q 30.03125 56 36.53125 56 
Q 37.453125 56 38.578125 55.875 
Q 39.703125 55.765625 41.0625 55.515625 
z
" id="DejaVuSans-114"/>
      <path id="DejaVuSans-32"/>
      <path d="M 2.984375 54.6875 
L 12.5 54.6875 
L 29.59375 8.796875 
L 46.6875 54.6875 
L 56.203125 54.6875 
L 35.6875 0 
L 23.484375 0 
z
" id="DejaVuSans-118"/>
      <path d="M 34.28125 27.484375 
Q 23.390625 27.484375 19.1875 25 
Q 14.984375 22.515625 14.984375 16.5 
Q 14.984375 11.71875 18.140625 8.90625 
Q 21.296875 6.109375 26.703125 6.109375 
Q 34.1875 6.109375 38.703125 11.40625 
Q 43.21875 16.703125 43.21875 25.484375 
L 43.21875 27.484375 
z
M 52.203125 31.203125 
L 52.203125 0 
L 43.21875 0 
L 43.21875 8.296875 
Q 40.140625 3.328125 35.546875 0.953125 
Q 30.953125 -1.421875 24.3125 -1.421875 
Q 15.921875 -1.421875 10.953125 3.296875 
Q 6 8.015625 6 15.921875 
Q 6 25.140625 12.171875 29.828125 
Q 18.359375 34.515625 30.609375 34.515625 
L 43.21875 34.515625 
L 43.21875 35.40625 
Q 43.21875 41.609375 39.140625 45 
Q 35.0625 48.390625 27.6875 48.390625 
Q 23 48.390625 18.546875 47.265625 
Q 14.109375 46.140625 10.015625 43.890625 
L 10.015625 52.203125 
Q 14.9375 54.109375 19.578125 55.046875 
Q 24.21875 56 28.609375 56 
Q 40.484375 56 46.34375 49.84375 
Q 52.203125 43.703125 52.203125 31.203125 
z
" id="DejaVuSans-97"/>
      <path d="M 9.421875 75.984375 
L 18.40625 75.984375 
L 18.40625 0 
L 9.421875 0 
z
" id="DejaVuSans-108"/>
      <path d="M 8.5 21.578125 
L 8.5 54.6875 
L 17.484375 54.6875 
L 17.484375 21.921875 
Q 17.484375 14.15625 20.5 10.265625 
Q 23.53125 6.390625 29.59375 6.390625 
Q 36.859375 6.390625 41.078125 11.03125 
Q 45.3125 15.671875 45.3125 23.6875 
L 45.3125 54.6875 
L 54.296875 54.6875 
L 54.296875 0 
L 45.3125 0 
L 45.3125 8.40625 
Q 42.046875 3.421875 37.71875 1 
Q 33.40625 -1.421875 27.6875 -1.421875 
Q 18.265625 -1.421875 13.375 4.4375 
Q 8.5 10.296875 8.5 21.578125 
z
M 31.109375 56 
z
" id="DejaVuSans-117"/>
     </defs>
     <g transform="translate(147.832812 462.225937)rotate(-90)scale(0.1 -0.1)">
      <use xlink:href="#DejaVuSans-83"/>
      <use x="63.476562" xlink:href="#DejaVuSans-101"/>
      <use x="125" xlink:href="#DejaVuSans-110"/>
      <use x="188.378906" xlink:href="#DejaVuSans-115"/>
      <use x="240.478516" xlink:href="#DejaVuSans-111"/>
      <use x="301.660156" xlink:href="#DejaVuSans-114"/>
      <use x="342.773438" xlink:href="#DejaVuSans-32"/>
      <use x="374.560547" xlink:href="#DejaVuSans-118"/>
      <use x="433.740234" xlink:href="#DejaVuSans-97"/>
      <use x="495.019531" xlink:href="#DejaVuSans-108"/>
      <use x="522.802734" xlink:href="#DejaVuSans-117"/>
      <use x="586.181641" xlink:href="#DejaVuSans-101"/>
     </g>
    </g>
   </g>
   <g id="line2d_18">
    <path clip-path="url(#p0df04e813f)" d="M 230.727273 710.319553 
L 233.514486 682.701543 
L 236.301698 686.800384 
L 239.088911 664.917606 
L 241.876124 688.275495 
L 244.663337 650.312041 
L 247.450549 671.474966 
L 250.237762 661.475681 
L 253.024975 616.813256 
L 255.812188 579.691599 
L 258.599401 615.585964 
L 261.386613 630.663564 
L 264.173826 623.044125 
L 266.961039 602.80167 
L 269.748252 542.322123 
L 272.535465 471.351587 
L 275.322677 382.188018 
L 278.10989 550.515872 
L 280.897103 669.590757 
L 283.684316 671.884063 
L 286.471528 674.507794 
L 289.258741 669.673363 
L 292.045954 621.403801 
L 294.833167 599.277138 
L 297.62038 657.624658 
L 300.407592 662.459088 
L 303.194805 618.536186 
L 305.982018 632.38256 
L 308.769231 588.294446 
L 311.556444 384.154832 
L 314.343656 427.833849 
L 317.130869 430.296301 
L 319.918082 586.197821 
L 322.705295 580.757612 
L 325.492507 402.83957 
L 328.27972 595.260903 
L 331.066933 483.726784 
L 333.854146 526.827558 
L 336.641359 531.103413 
L 339.428571 570.92354 
L 342.215784 547.156553 
L 345.002997 529.455222 
L 347.79021 449.30753 
L 350.577423 485.119289 
L 353.364635 650.374979 
L 356.151848 661.066583 
L 358.939061 607.742308 
L 361.726274 591.653765 
L 364.513487 672.784864 
L 367.300699 669.720567 
L 370.087912 567.560287 
L 372.875125 551.255394 
L 375.662338 525.604199 
L 378.44955 592.310681 
L 381.236763 629.353666 
L 384.023976 599.855381 
L 386.811189 586.083746 
L 389.598402 526.095903 
L 392.385614 558.300524 
L 395.172827 576.328346 
L 397.96004 634.270702 
L 400.747253 579.852878 
L 403.534466 521.505358 
L 406.321678 621.812899 
L 409.108891 684.015375 
L 411.896104 576.328346 
L 414.683317 576.328346 
L 417.470529 588.951362 
L 420.257742 506.427758 
L 423.044955 558.38313 
L 425.832168 646.97239 
L 428.619381 521.013654 
L 431.406593 553.300882 
L 434.193806 490.85452 
L 436.981019 133.330909 
L 439.768232 356.607628 
L 442.555445 514.295016 
L 445.342657 662.297809 
L 448.12987 593.294088 
L 450.917083 482.33428 
L 453.704296 133.38598 
L 456.491508 299.420529 
L 459.278721 397.596043 
L 462.065934 449.88184 
L 464.853147 625.010939 
L 467.64036 501.589394 
L 470.427572 448.981039 
L 473.214785 364.325408 
L 476.001998 516.096618 
L 478.789211 623.370616 
L 481.576424 622.796306 
L 484.363636 658.033755 
L 487.150849 557.80882 
L 489.938062 292.454072 
L 492.725275 503.804027 
L 495.512488 463.319117 
L 498.2997 575.266266 
L 501.086913 658.934556 
L 503.874126 661.782504 
L 506.661339 682.618937 
L 509.448551 676.718493 
L 512.235764 643.121367 
L 515.022977 598.537616 
L 517.81019 534.041834 
L 520.597403 622.796306 
L 523.384615 685.569158 
L 526.171828 642.149761 
L 528.959041 481.842576 
L 531.746254 661.314402 
L 534.533467 651.724214 
L 537.320679 622.387209 
L 540.107892 692.618222 
L 542.895105 683.68495 
L 545.682318 640.497637 
L 548.46953 659.756685 
L 551.256743 642.873549 
L 554.043956 656.161348 
L 556.831169 653.364537 
L 559.618382 597.475536 
L 562.405594 656.149547 
L 565.192807 675.196179 
L 567.98002 675.365325 
L 570.767233 612.682946 
L 573.554446 591.653765 
L 576.341658 555.106417 
L 579.128871 672.375767 
L 581.916084 664.182017 
L 584.703297 591.244667 
L 587.490509 633.448574 
L 590.277722 662.541694 
L 593.064935 629.105847 
L 595.852148 622.387209 
L 598.639361 683.405663 
L 601.426573 671.08947 
L 604.213786 580.757612 
L 607.000999 673.115289 
L 609.788212 657.624658 
L 612.575425 649.969816 
L 615.362637 625.939276 
L 618.14985 635.415388 
L 620.937063 584.85252 
L 623.724276 493.560857 
L 626.511489 420.985401 
L 629.298701 405.872398 
L 632.085914 462.666134 
L 634.873127 638.251535 
L 637.66034 654.414816 
L 640.447552 654.308608 
L 643.234765 664.34723 
L 646.021978 605.830564 
L 648.809191 591.103057 
L 651.596404 623.976395 
L 654.383616 670.491558 
L 657.170829 679.440564 
L 659.958042 680.325631 
L 662.745255 683.228649 
L 665.532468 647.955797 
L 668.31968 681.309038 
L 671.106893 641.929478 
L 673.894106 656.066941 
L 676.681319 687.535973 
L 679.468531 690.553067 
L 682.255744 671.687382 
L 685.042957 641.07588 
L 687.83017 676.474608 
L 690.617383 608.536901 
L 693.404595 665.330637 
L 696.191808 697.598196 
L 698.979021 694.50243 
L 701.766234 663.993203 
L 704.553447 635.907092 
L 707.340659 571.332637 
L 710.127872 573.051633 
L 712.915085 660.740092 
L 715.702298 685.816977 
L 718.48951 693.436417 
L 721.276723 646.071589 
L 724.063936 618.044482 
L 726.851149 658.773277 
L 729.638362 591.162061 
L 735.212787 679.751321 
L 738 682.292445 
L 740.787213 640.497637 
L 743.574426 637.055711 
L 746.361638 620.664279 
L 749.148851 631.237874 
L 751.936064 645.414673 
L 754.723277 691.859031 
L 757.51049 711.550778 
L 760.297702 666.475323 
L 763.084915 685.899583 
L 765.872128 695.894935 
L 768.659341 695.977541 
L 771.446553 704.17129 
L 774.233766 698.518665 
L 777.020979 693.192532 
L 779.808192 673.44178 
L 782.595405 682.618937 
L 785.382617 694.010726 
L 788.16983 694.258545 
L 790.957043 686.635172 
L 793.744256 715.153983 
L 796.531469 693.35381 
L 799.318681 659.099769 
L 802.105894 636.237517 
L 804.893107 595.996491 
L 807.68032 557.974033 
L 810.467532 549.615071 
L 813.254745 578.460373 
L 816.041958 685.85238 
L 818.829171 669.834642 
L 821.616384 663.851592 
L 824.403596 619.519593 
L 827.190809 659.182375 
L 829.978022 674.338648 
L 832.765235 682.701543 
L 835.552448 699.993776 
L 838.33966 676.309396 
L 841.126873 682.949362 
L 843.914086 670.405018 
L 846.701299 658.690671 
L 849.488511 639.762048 
L 852.275724 649.100484 
L 855.062937 664.264624 
L 857.85015 630.171861 
L 860.637363 611.89622 
L 863.424575 631.237874 
L 866.211788 629.188453 
L 868.999001 625.91174 
L 871.786214 655.248746 
L 874.573427 623.779713 
L 877.360639 601.65305 
L 880.147852 621.812899 
L 882.935065 650.579528 
L 885.722278 620.829492 
L 888.509491 620.420394 
L 891.296703 694.337218 
L 894.083916 683.850163 
L 896.871129 657.951149 
L 899.658342 643.447859 
L 902.445554 567.399008 
L 905.232767 667.706549 
L 908.01998 682.866755 
L 910.807193 680.160419 
L 913.594406 647.790585 
L 916.381618 628.448931 
L 919.168831 565.101769 
L 921.956044 615.255539 
L 924.743257 594.277495 
L 927.53047 553.875191 
L 930.317682 628.287652 
L 933.104895 616.160274 
L 935.892108 559.610423 
L 938.679321 640.824128 
L 941.466533 644.922969 
L 944.253746 683.193247 
L 947.040959 649.265696 
L 949.828172 638.857313 
L 952.615385 634.923684 
L 955.402597 637.630021 
L 958.18981 626.403444 
L 960.977023 665.491916 
L 963.764236 620.664279 
L 966.551449 477.252031 
L 969.338661 669.508151 
L 972.125874 675.408595 
L 974.913087 670.81805 
L 977.7003 677.949719 
L 980.487512 687.783792 
L 983.274725 667.623943 
L 986.061938 629.188453 
L 988.849151 670.491558 
L 991.636364 650.740807 
L 994.423576 575.895647 
L 997.210789 660.983977 
L 999.998002 685.242667 
L 1002.785215 683.850163 
L 1005.572428 692.291731 
L 1008.35964 677.131524 
L 1011.146853 657.624658 
L 1013.934066 604.438059 
L 1016.721279 596.409522 
L 1019.508492 537.814184 
L 1022.295704 552.809178 
L 1025.082917 671.884063 
L 1027.87013 697.208767 
L 1030.657343 668.933841 
L 1033.444555 666.475323 
L 1036.231768 661.806105 
L 1039.018981 666.475323 
L 1041.806194 618.370973 
L 1044.593407 601.161346 
L 1047.380619 650.249103 
L 1050.167832 548.191097 
L 1052.955045 431.114496 
L 1055.742258 369.568936 
L 1058.529471 382.844934 
L 1061.316683 601.932338 
L 1064.103896 711.220354 
L 1066.891109 710.319553 
L 1069.678322 663.116004 
L 1072.465534 683.767556 
L 1075.252747 636.646614 
L 1078.03996 621.812899 
L 1080.827173 715.299527 
L 1083.614386 715.401801 
L 1086.401598 710.988269 
L 1089.188811 709.827849 
L 1091.976024 654.59183 
L 1094.763237 627.54813 
L 1097.55045 632.95687 
L 1100.337662 624.597908 
L 1103.124875 594.277495 
L 1105.912088 682.382919 
L 1108.699301 677.540622 
L 1111.486513 634.188096 
L 1114.273726 623.453222 
L 1117.060939 522.079668 
L 1119.848152 554.532107 
L 1122.635365 446.766406 
L 1125.422577 624.094404 
L 1128.20979 664.835 
L 1130.997003 595.67 
L 1133.784216 609.764193 
L 1136.571429 631.399153 
L 1139.358641 641.315832 
L 1142.145854 653.691029 
L 1144.933067 635.254109 
L 1147.72028 696.150621 
L 1150.507493 650.083891 
L 1153.294705 640.497637 
L 1156.081918 640.005933 
L 1158.869131 702.617507 
L 1161.656344 558.465736 
L 1164.443556 593.128876 
L 1167.230769 698.270847 
L 1170.017982 670.408952 
L 1172.805195 664.508509 
L 1175.592408 662.215203 
L 1178.37962 687.535973 
L 1181.166833 681.309038 
L 1183.954046 622.796306 
L 1186.741259 662.789513 
L 1189.528472 697.861749 
L 1192.315684 647.790585 
L 1195.102897 580.836285 
L 1197.89011 559.940847 
L 1200.677323 689.341509 
L 1203.464535 690.651407 
L 1206.251748 698.845157 
L 1209.038961 672.86747 
L 1211.826174 631.072662 
L 1214.613387 558.709621 
L 1217.400599 678.032325 
L 1220.187812 655.657843 
L 1222.975025 697.220568 
L 1225.762238 717.42762 
L 1228.549451 685.242667 
L 1231.336663 726.349091 
L 1234.123876 713.48219 
L 1236.911089 676.938776 
L 1239.698302 701.303675 
L 1242.485514 721.45959 
L 1245.272727 719.838935 
L 1245.272727 719.838935 
" style="fill:none;stroke:#1f77b4;stroke-linecap:square;stroke-width:1.5;"/>
   </g>
   <g id="line2d_19">
    <path clip-path="url(#p0df04e813f)" d="M 230.727273 700.457205 
L 233.514486 708.914509 
L 236.301698 690.792349 
L 239.088911 693.902822 
L 241.876124 669.88343 
L 244.663337 697.587802 
L 247.450549 674.798751 
L 250.237762 678.371484 
L 253.024975 655.550095 
L 255.812188 660.648741 
L 258.599401 601.224534 
L 261.386613 653.332584 
L 264.173826 652.990815 
L 266.961039 640.614339 
L 269.748252 617.134566 
L 272.535465 581.798357 
L 275.322677 582.096374 
L 278.10989 525.687597 
L 280.897103 598.217443 
L 283.684316 700.482348 
L 286.471528 684.996687 
L 289.258741 686.649295 
L 292.045954 672.093555 
L 294.833167 644.642651 
L 297.62038 630.645958 
L 300.407592 677.80112 
L 303.194805 690.900484 
L 305.982018 649.549827 
L 308.769231 632.410225 
L 311.556444 565.278585 
L 314.343656 400.346001 
L 317.130869 504.95475 
L 319.918082 529.450538 
L 322.705295 581.816733 
L 325.492507 543.608378 
L 328.27972 453.495292 
L 331.066933 561.001462 
L 333.854146 461.976537 
L 336.641359 525.388685 
L 339.428571 560.366937 
L 342.215784 568.521219 
L 345.002997 544.23171 
L 350.577423 454.749427 
L 353.364635 580.813661 
L 356.151848 619.936224 
L 358.939061 634.965788 
L 361.726274 588.236974 
L 364.513487 605.412186 
L 367.300699 652.308227 
L 370.087912 643.13775 
L 372.875125 586.602433 
L 375.662338 576.750264 
L 378.44955 558.005159 
L 381.236763 610.175355 
L 384.023976 651.143691 
L 386.811189 604.43181 
L 389.598402 611.273853 
L 392.385614 553.425544 
L 395.172827 601.17442 
L 397.96004 591.023861 
L 400.747253 594.034624 
L 403.534466 573.400695 
L 406.321678 546.185783 
L 409.108891 633.558767 
L 411.896104 680.503153 
L 414.683317 609.585501 
L 417.470529 621.282712 
L 420.257742 610.870701 
L 423.044955 536.252567 
L 425.832168 565.684942 
L 428.619381 620.105025 
L 431.406593 541.20066 
L 434.193806 573.975493 
L 436.981019 511.893386 
L 439.768232 375.204053 
L 442.555445 476.669483 
L 445.342657 509.431005 
L 448.12987 635.890395 
L 450.917083 595.543462 
L 453.704296 519.283703 
L 456.491508 362.32455 
L 459.278721 446.888514 
L 462.065934 452.188235 
L 464.853147 470.168229 
L 467.64036 574.454411 
L 470.427572 561.019172 
L 473.214785 516.688461 
L 476.001998 488.800912 
L 478.789211 515.34426 
L 481.576424 599.880814 
L 484.363636 614.037208 
L 487.150849 635.407233 
L 489.938062 569.563587 
L 492.725275 421.65715 
L 495.512488 512.460527 
L 498.2997 521.701755 
L 501.086913 568.491148 
L 503.874126 639.340479 
L 506.661339 646.865403 
L 509.448551 663.931731 
L 512.235764 665.045859 
L 515.022977 639.644668 
L 517.81019 607.479931 
L 520.597403 568.646075 
L 523.384615 597.552465 
L 526.171828 648.150609 
L 528.959041 639.39275 
L 531.746254 551.013249 
L 534.533467 645.224423 
L 537.320679 643.714661 
L 540.107892 635.065299 
L 542.895105 661.832419 
L 545.682318 665.100202 
L 548.46953 636.04287 
L 551.256743 647.509235 
L 554.043956 650.197913 
L 556.831169 653.114996 
L 559.618382 637.335572 
L 562.405594 552.503529 
L 565.192807 624.0277 
L 567.98002 647.941443 
L 570.767233 649.921563 
L 573.554446 580.19041 
L 576.341658 584.209159 
L 579.128871 578.849448 
L 581.916084 628.158322 
L 584.703297 622.981507 
L 587.490509 595.955487 
L 590.277722 629.754704 
L 593.064935 653.885933 
L 595.852148 643.493187 
L 598.639361 630.607242 
L 601.426573 650.670606 
L 604.213786 648.970287 
L 607.000999 609.287677 
L 609.788212 670.336937 
L 612.575425 660.2938 
L 615.362637 642.91985 
L 618.14985 635.291265 
L 620.937063 638.90835 
L 623.724276 575.390197 
L 626.511489 555.450972 
L 629.298701 522.12754 
L 632.085914 507.456917 
L 634.873127 521.929493 
L 637.66034 620.566731 
L 640.447552 617.560232 
L 643.234765 641.293396 
L 646.021978 632.239224 
L 648.809191 592.415508 
L 651.596404 591.007453 
L 654.383616 634.540665 
L 657.170829 645.860415 
L 659.958042 661.954498 
L 662.745255 659.002269 
L 665.532468 678.347353 
L 668.31968 653.155726 
L 671.106893 680.603804 
L 673.894106 664.717795 
L 676.681319 675.138725 
L 679.468531 673.915285 
L 682.255744 678.770765 
L 685.042957 673.504021 
L 687.83017 645.980594 
L 690.617383 661.814129 
L 693.404595 651.779254 
L 696.191808 668.691998 
L 698.979021 675.066594 
L 701.766234 694.114788 
L 704.553447 678.105916 
L 707.340659 638.067532 
L 710.127872 616.204474 
L 712.915085 612.506551 
L 715.702298 658.391989 
L 718.48951 676.468362 
L 721.276723 695.322427 
L 724.063936 657.571122 
L 726.851149 648.915845 
L 729.638362 655.946912 
L 732.425574 617.809201 
L 735.212787 649.503556 
L 738 676.375661 
L 740.787213 671.471924 
L 743.574426 657.950734 
L 746.361638 665.330435 
L 749.148851 657.216469 
L 751.936064 652.206841 
L 754.723277 659.274481 
L 757.51049 681.295176 
L 760.297702 695.438419 
L 763.084915 676.256965 
L 765.872128 681.322464 
L 768.659341 684.529535 
L 771.446553 703.772326 
L 777.020979 685.442343 
L 779.808192 697.395535 
L 782.595405 686.245098 
L 785.382617 682.1814 
L 788.16983 683.661257 
L 790.957043 683.546846 
L 793.744256 679.081636 
L 796.531469 700.090422 
L 799.318681 694.502841 
L 802.105894 677.138593 
L 804.893107 645.120922 
L 807.68032 627.780959 
L 810.467532 592.573812 
L 813.254745 581.750595 
L 816.041958 605.251393 
L 818.829171 686.548135 
L 821.616384 677.196976 
L 824.403596 675.774024 
L 827.190809 653.855942 
L 829.978022 663.150301 
L 832.765235 670.739718 
L 835.552448 664.654951 
L 838.33966 684.406592 
L 841.126873 681.403801 
L 843.914086 684.349147 
L 846.701299 685.460695 
L 849.488511 649.328899 
L 852.275724 658.319203 
L 855.062937 647.79324 
L 857.85015 650.041417 
L 860.637363 601.543909 
L 863.424575 594.367965 
L 866.211788 637.001256 
L 868.999001 619.581483 
L 871.786214 625.827852 
L 874.573427 646.511835 
L 877.360639 632.605385 
L 880.147852 629.346744 
L 882.935065 646.631855 
L 885.722278 644.641327 
L 888.509491 611.225525 
L 891.296703 635.201316 
L 894.083916 700.371001 
L 896.871129 679.186467 
L 899.658342 655.873384 
L 902.445554 652.503454 
L 905.232767 596.850696 
L 908.01998 668.512419 
L 910.807193 683.171071 
L 913.594406 674.410142 
L 916.381618 663.047351 
L 919.168831 624.996562 
L 921.956044 605.683798 
L 924.743257 624.428486 
L 927.53047 629.061071 
L 930.317682 608.069169 
L 933.104895 648.374601 
L 935.892108 641.024211 
L 938.679321 601.036251 
L 941.466533 656.198432 
L 944.253746 666.011325 
L 947.040959 672.545095 
L 949.828172 656.046766 
L 952.615385 641.327102 
L 955.402597 649.931247 
L 958.18981 651.556867 
L 960.977023 657.092717 
L 963.764236 658.67928 
L 966.551449 628.873781 
L 969.338661 544.642116 
L 972.125874 653.981478 
L 974.913087 653.300496 
L 977.7003 670.351709 
L 980.487512 677.626597 
L 983.274725 674.178322 
L 986.061938 664.255271 
L 988.849151 644.834704 
L 991.636364 682.137526 
L 994.423576 651.878746 
L 997.210789 631.819698 
L 999.998002 669.485852 
L 1002.785215 680.38827 
L 1005.572428 673.955108 
L 1008.35964 675.2086 
L 1011.146853 672.642332 
L 1013.934066 643.746276 
L 1016.721279 641.979055 
L 1019.508492 614.994184 
L 1022.295704 599.49289 
L 1025.082917 600.188816 
L 1027.87013 663.809431 
L 1030.657343 684.339928 
L 1033.444555 663.656638 
L 1036.231768 672.546946 
L 1039.018981 669.973372 
L 1041.806194 674.930294 
L 1044.593407 651.486925 
L 1047.380619 631.356772 
L 1050.167832 631.842257 
L 1052.955045 545.943335 
L 1055.742258 556.593884 
L 1058.529471 516.046444 
L 1061.316683 498.133959 
L 1064.103896 586.099467 
L 1066.891109 662.778504 
L 1069.678322 680.736628 
L 1072.465534 634.931046 
L 1075.252747 668.010918 
L 1078.03996 632.883237 
L 1080.827173 635.608627 
L 1083.614386 697.342271 
L 1086.401598 683.987549 
L 1091.976024 694.919615 
L 1094.763237 651.183464 
L 1097.55045 632.994384 
L 1100.337662 644.826509 
L 1103.124875 642.698615 
L 1105.912088 616.335903 
L 1108.699301 682.332134 
L 1111.486513 650.530279 
L 1114.273726 642.922706 
L 1117.060939 643.165258 
L 1119.848152 560.405816 
L 1122.635365 577.965803 
L 1125.422577 537.089404 
L 1128.20979 615.53731 
L 1130.997003 617.293842 
L 1133.784216 604.63025 
L 1136.571429 604.525529 
L 1139.358641 654.610949 
L 1142.145854 656.669788 
L 1144.933067 662.136094 
L 1147.72028 632.998782 
L 1150.507493 685.647935 
L 1153.294705 654.429347 
L 1156.081918 637.97279 
L 1158.869131 614.863414 
L 1161.656344 672.943065 
L 1164.443556 515.595425 
L 1167.230769 620.041558 
L 1170.017982 672.649013 
L 1172.805195 648.789273 
L 1175.592408 671.359578 
L 1178.37962 668.314789 
L 1181.166833 662.872087 
L 1183.954046 645.590237 
L 1186.741259 611.080415 
L 1189.528472 664.426729 
L 1192.315684 674.742778 
L 1195.102897 632.940724 
L 1197.89011 575.658107 
L 1200.677323 608.59953 
L 1203.464535 678.712444 
L 1206.251748 675.382031 
L 1209.038961 686.8752 
L 1211.826174 684.956791 
L 1214.613387 640.32231 
L 1217.400599 573.5627 
L 1220.187812 661.90306 
L 1222.975025 644.746845 
L 1225.762238 674.951557 
L 1228.549451 671.296733 
L 1231.336663 655.932459 
L 1234.123876 685.09423 
L 1236.911089 691.291184 
L 1239.698302 657.854092 
L 1242.485514 690.770737 
L 1245.272727 698.909668 
L 1245.272727 698.909668 
" style="fill:none;stroke:#ff7f0e;stroke-linecap:square;stroke-width:1.5;"/>
   </g>
   <g id="patch_3">
    <path d="M 180 756 
L 180 103.68 
" style="fill:none;stroke:#000000;stroke-linecap:square;stroke-linejoin:miter;stroke-width:0.8;"/>
   </g>
   <g id="patch_4">
    <path d="M 1296 756 
L 1296 103.68 
" style="fill:none;stroke:#000000;stroke-linecap:square;stroke-linejoin:miter;stroke-width:0.8;"/>
   </g>
   <g id="patch_5">
    <path d="M 180 756 
L 1296 756 
" style="fill:none;stroke:#000000;stroke-linecap:square;stroke-linejoin:miter;stroke-width:0.8;"/>
   </g>
   <g id="patch_6">
    <path d="M 180 103.68 
L 1296 103.68 
" style="fill:none;stroke:#000000;stroke-linecap:square;stroke-linejoin:miter;stroke-width:0.8;"/>
   </g>
   <g id="text_19">
    <!-- PM10 Time-series (Station: BETN043) 2012: Island LSTM MIMO NARX-1 prediction (MSE: 252.15, RMSE: 15.88, MAE: 10.86, MAPE: 35.22%, SMAPE: 31.69%, R2: 0.45, IOA: 78.28%) -->
    <defs>
     <path d="M 19.671875 64.796875 
L 19.671875 37.40625 
L 32.078125 37.40625 
Q 38.96875 37.40625 42.71875 40.96875 
Q 46.484375 44.53125 46.484375 51.125 
Q 46.484375 57.671875 42.71875 61.234375 
Q 38.96875 64.796875 32.078125 64.796875 
z
M 9.8125 72.90625 
L 32.078125 72.90625 
Q 44.34375 72.90625 50.609375 67.359375 
Q 56.890625 61.8125 56.890625 51.125 
Q 56.890625 40.328125 50.609375 34.8125 
Q 44.34375 29.296875 32.078125 29.296875 
L 19.671875 29.296875 
L 19.671875 0 
L 9.8125 0 
z
" id="DejaVuSans-80"/>
     <path d="M 9.8125 72.90625 
L 24.515625 72.90625 
L 43.109375 23.296875 
L 61.8125 72.90625 
L 76.515625 72.90625 
L 76.515625 0 
L 66.890625 0 
L 66.890625 64.015625 
L 48.09375 14.015625 
L 38.1875 14.015625 
L 19.390625 64.015625 
L 19.390625 0 
L 9.8125 0 
z
" id="DejaVuSans-77"/>
     <path d="M -0.296875 72.90625 
L 61.375 72.90625 
L 61.375 64.59375 
L 35.5 64.59375 
L 35.5 0 
L 25.59375 0 
L 25.59375 64.59375 
L -0.296875 64.59375 
z
" id="DejaVuSans-84"/>
     <path d="M 9.421875 54.6875 
L 18.40625 54.6875 
L 18.40625 0 
L 9.421875 0 
z
M 9.421875 75.984375 
L 18.40625 75.984375 
L 18.40625 64.59375 
L 9.421875 64.59375 
z
" id="DejaVuSans-105"/>
     <path d="M 52 44.1875 
Q 55.375 50.25 60.0625 53.125 
Q 64.75 56 71.09375 56 
Q 79.640625 56 84.28125 50.015625 
Q 88.921875 44.046875 88.921875 33.015625 
L 88.921875 0 
L 79.890625 0 
L 79.890625 32.71875 
Q 79.890625 40.578125 77.09375 44.375 
Q 74.3125 48.1875 68.609375 48.1875 
Q 61.625 48.1875 57.5625 43.546875 
Q 53.515625 38.921875 53.515625 30.90625 
L 53.515625 0 
L 44.484375 0 
L 44.484375 32.71875 
Q 44.484375 40.625 41.703125 44.40625 
Q 38.921875 48.1875 33.109375 48.1875 
Q 26.21875 48.1875 22.15625 43.53125 
Q 18.109375 38.875 18.109375 30.90625 
L 18.109375 0 
L 9.078125 0 
L 9.078125 54.6875 
L 18.109375 54.6875 
L 18.109375 46.1875 
Q 21.1875 51.21875 25.484375 53.609375 
Q 29.78125 56 35.6875 56 
Q 41.65625 56 45.828125 52.96875 
Q 50 49.953125 52 44.1875 
z
" id="DejaVuSans-109"/>
     <path d="M 4.890625 31.390625 
L 31.203125 31.390625 
L 31.203125 23.390625 
L 4.890625 23.390625 
z
" id="DejaVuSans-45"/>
     <path d="M 31 75.875 
Q 24.46875 64.65625 21.28125 53.65625 
Q 18.109375 42.671875 18.109375 31.390625 
Q 18.109375 20.125 21.3125 9.0625 
Q 24.515625 -2 31 -13.1875 
L 23.1875 -13.1875 
Q 15.875 -1.703125 12.234375 9.375 
Q 8.59375 20.453125 8.59375 31.390625 
Q 8.59375 42.28125 12.203125 53.3125 
Q 15.828125 64.359375 23.1875 75.875 
z
" id="DejaVuSans-40"/>
     <path d="M 18.3125 70.21875 
L 18.3125 54.6875 
L 36.8125 54.6875 
L 36.8125 47.703125 
L 18.3125 47.703125 
L 18.3125 18.015625 
Q 18.3125 11.328125 20.140625 9.421875 
Q 21.96875 7.515625 27.59375 7.515625 
L 36.8125 7.515625 
L 36.8125 0 
L 27.59375 0 
Q 17.1875 0 13.234375 3.875 
Q 9.28125 7.765625 9.28125 18.015625 
L 9.28125 47.703125 
L 2.6875 47.703125 
L 2.6875 54.6875 
L 9.28125 54.6875 
L 9.28125 70.21875 
z
" id="DejaVuSans-116"/>
     <path d="M 11.71875 12.40625 
L 22.015625 12.40625 
L 22.015625 0 
L 11.71875 0 
z
M 11.71875 51.703125 
L 22.015625 51.703125 
L 22.015625 39.3125 
L 11.71875 39.3125 
z
" id="DejaVuSans-58"/>
     <path d="M 19.671875 34.8125 
L 19.671875 8.109375 
L 35.5 8.109375 
Q 43.453125 8.109375 47.28125 11.40625 
Q 51.125 14.703125 51.125 21.484375 
Q 51.125 28.328125 47.28125 31.5625 
Q 43.453125 34.8125 35.5 34.8125 
z
M 19.671875 64.796875 
L 19.671875 42.828125 
L 34.28125 42.828125 
Q 41.5 42.828125 45.03125 45.53125 
Q 48.578125 48.25 48.578125 53.8125 
Q 48.578125 59.328125 45.03125 62.0625 
Q 41.5 64.796875 34.28125 64.796875 
z
M 9.8125 72.90625 
L 35.015625 72.90625 
Q 46.296875 72.90625 52.390625 68.21875 
Q 58.5 63.53125 58.5 54.890625 
Q 58.5 48.1875 55.375 44.234375 
Q 52.25 40.28125 46.1875 39.3125 
Q 53.46875 37.75 57.5 32.78125 
Q 61.53125 27.828125 61.53125 20.40625 
Q 61.53125 10.640625 54.890625 5.3125 
Q 48.25 0 35.984375 0 
L 9.8125 0 
z
" id="DejaVuSans-66"/>
     <path d="M 9.8125 72.90625 
L 55.90625 72.90625 
L 55.90625 64.59375 
L 19.671875 64.59375 
L 19.671875 43.015625 
L 54.390625 43.015625 
L 54.390625 34.71875 
L 19.671875 34.71875 
L 19.671875 8.296875 
L 56.78125 8.296875 
L 56.78125 0 
L 9.8125 0 
z
" id="DejaVuSans-69"/>
     <path d="M 9.8125 72.90625 
L 23.09375 72.90625 
L 55.421875 11.921875 
L 55.421875 72.90625 
L 64.984375 72.90625 
L 64.984375 0 
L 51.703125 0 
L 19.390625 60.984375 
L 19.390625 0 
L 9.8125 0 
z
" id="DejaVuSans-78"/>
     <path d="M 8.015625 75.875 
L 15.828125 75.875 
Q 23.140625 64.359375 26.78125 53.3125 
Q 30.421875 42.28125 30.421875 31.390625 
Q 30.421875 20.453125 26.78125 9.375 
Q 23.140625 -1.703125 15.828125 -13.1875 
L 8.015625 -13.1875 
Q 14.5 -2 17.703125 9.0625 
Q 20.90625 20.125 20.90625 31.390625 
Q 20.90625 42.671875 17.703125 53.65625 
Q 14.5 64.65625 8.015625 75.875 
z
" id="DejaVuSans-41"/>
     <path d="M 9.8125 72.90625 
L 19.671875 72.90625 
L 19.671875 0 
L 9.8125 0 
z
" id="DejaVuSans-73"/>
     <path d="M 45.40625 46.390625 
L 45.40625 75.984375 
L 54.390625 75.984375 
L 54.390625 0 
L 45.40625 0 
L 45.40625 8.203125 
Q 42.578125 3.328125 38.25 0.953125 
Q 33.9375 -1.421875 27.875 -1.421875 
Q 17.96875 -1.421875 11.734375 6.484375 
Q 5.515625 14.40625 5.515625 27.296875 
Q 5.515625 40.1875 11.734375 48.09375 
Q 17.96875 56 27.875 56 
Q 33.9375 56 38.25 53.625 
Q 42.578125 51.265625 45.40625 46.390625 
z
M 14.796875 27.296875 
Q 14.796875 17.390625 18.875 11.75 
Q 22.953125 6.109375 30.078125 6.109375 
Q 37.203125 6.109375 41.296875 11.75 
Q 45.40625 17.390625 45.40625 27.296875 
Q 45.40625 37.203125 41.296875 42.84375 
Q 37.203125 48.484375 30.078125 48.484375 
Q 22.953125 48.484375 18.875 42.84375 
Q 14.796875 37.203125 14.796875 27.296875 
z
" id="DejaVuSans-100"/>
     <path d="M 9.8125 72.90625 
L 19.671875 72.90625 
L 19.671875 8.296875 
L 55.171875 8.296875 
L 55.171875 0 
L 9.8125 0 
z
" id="DejaVuSans-76"/>
     <path d="M 39.40625 66.21875 
Q 28.65625 66.21875 22.328125 58.203125 
Q 16.015625 50.203125 16.015625 36.375 
Q 16.015625 22.609375 22.328125 14.59375 
Q 28.65625 6.59375 39.40625 6.59375 
Q 50.140625 6.59375 56.421875 14.59375 
Q 62.703125 22.609375 62.703125 36.375 
Q 62.703125 50.203125 56.421875 58.203125 
Q 50.140625 66.21875 39.40625 66.21875 
z
M 39.40625 74.21875 
Q 54.734375 74.21875 63.90625 63.9375 
Q 73.09375 53.65625 73.09375 36.375 
Q 73.09375 19.140625 63.90625 8.859375 
Q 54.734375 -1.421875 39.40625 -1.421875 
Q 24.03125 -1.421875 14.8125 8.828125 
Q 5.609375 19.09375 5.609375 36.375 
Q 5.609375 53.65625 14.8125 63.9375 
Q 24.03125 74.21875 39.40625 74.21875 
z
" id="DejaVuSans-79"/>
     <path d="M 34.1875 63.1875 
L 20.796875 26.90625 
L 47.609375 26.90625 
z
M 28.609375 72.90625 
L 39.796875 72.90625 
L 67.578125 0 
L 57.328125 0 
L 50.6875 18.703125 
L 17.828125 18.703125 
L 11.1875 0 
L 0.78125 0 
z
" id="DejaVuSans-65"/>
     <path d="M 44.390625 34.1875 
Q 47.5625 33.109375 50.5625 29.59375 
Q 53.5625 26.078125 56.59375 19.921875 
L 66.609375 0 
L 56 0 
L 46.6875 18.703125 
Q 43.0625 26.03125 39.671875 28.421875 
Q 36.28125 30.8125 30.421875 30.8125 
L 19.671875 30.8125 
L 19.671875 0 
L 9.8125 0 
L 9.8125 72.90625 
L 32.078125 72.90625 
Q 44.578125 72.90625 50.734375 67.671875 
Q 56.890625 62.453125 56.890625 51.90625 
Q 56.890625 45.015625 53.6875 40.46875 
Q 50.484375 35.9375 44.390625 34.1875 
z
M 19.671875 64.796875 
L 19.671875 38.921875 
L 32.078125 38.921875 
Q 39.203125 38.921875 42.84375 42.21875 
Q 46.484375 45.515625 46.484375 51.90625 
Q 46.484375 58.296875 42.84375 61.546875 
Q 39.203125 64.796875 32.078125 64.796875 
z
" id="DejaVuSans-82"/>
     <path d="M 6.296875 72.90625 
L 16.890625 72.90625 
L 35.015625 45.796875 
L 53.21875 72.90625 
L 63.8125 72.90625 
L 40.375 37.890625 
L 65.375 0 
L 54.78125 0 
L 34.28125 31 
L 13.625 0 
L 2.984375 0 
L 29 38.921875 
z
" id="DejaVuSans-88"/>
     <path d="M 18.109375 8.203125 
L 18.109375 -20.796875 
L 9.078125 -20.796875 
L 9.078125 54.6875 
L 18.109375 54.6875 
L 18.109375 46.390625 
Q 20.953125 51.265625 25.265625 53.625 
Q 29.59375 56 35.59375 56 
Q 45.5625 56 51.78125 48.09375 
Q 58.015625 40.1875 58.015625 27.296875 
Q 58.015625 14.40625 51.78125 6.484375 
Q 45.5625 -1.421875 35.59375 -1.421875 
Q 29.59375 -1.421875 25.265625 0.953125 
Q 20.953125 3.328125 18.109375 8.203125 
z
M 48.6875 27.296875 
Q 48.6875 37.203125 44.609375 42.84375 
Q 40.53125 48.484375 33.40625 48.484375 
Q 26.265625 48.484375 22.1875 42.84375 
Q 18.109375 37.203125 18.109375 27.296875 
Q 18.109375 17.390625 22.1875 11.75 
Q 26.265625 6.109375 33.40625 6.109375 
Q 40.53125 6.109375 44.609375 11.75 
Q 48.6875 17.390625 48.6875 27.296875 
z
" id="DejaVuSans-112"/>
     <path d="M 48.78125 52.59375 
L 48.78125 44.1875 
Q 44.96875 46.296875 41.140625 47.34375 
Q 37.3125 48.390625 33.40625 48.390625 
Q 24.65625 48.390625 19.8125 42.84375 
Q 14.984375 37.3125 14.984375 27.296875 
Q 14.984375 17.28125 19.8125 11.734375 
Q 24.65625 6.203125 33.40625 6.203125 
Q 37.3125 6.203125 41.140625 7.25 
Q 44.96875 8.296875 48.78125 10.40625 
L 48.78125 2.09375 
Q 45.015625 0.34375 40.984375 -0.53125 
Q 36.96875 -1.421875 32.421875 -1.421875 
Q 20.0625 -1.421875 12.78125 6.34375 
Q 5.515625 14.109375 5.515625 27.296875 
Q 5.515625 40.671875 12.859375 48.328125 
Q 20.21875 56 33.015625 56 
Q 37.15625 56 41.109375 55.140625 
Q 45.0625 54.296875 48.78125 52.59375 
z
" id="DejaVuSans-99"/>
     <path d="M 10.6875 12.40625 
L 21 12.40625 
L 21 0 
L 10.6875 0 
z
" id="DejaVuSans-46"/>
     <path d="M 11.71875 12.40625 
L 22.015625 12.40625 
L 22.015625 4 
L 14.015625 -11.625 
L 7.71875 -11.625 
L 11.71875 4 
z
" id="DejaVuSans-44"/>
     <path d="M 72.703125 32.078125 
Q 68.453125 32.078125 66.03125 28.46875 
Q 63.625 24.859375 63.625 18.40625 
Q 63.625 12.0625 66.03125 8.421875 
Q 68.453125 4.78125 72.703125 4.78125 
Q 76.859375 4.78125 79.265625 8.421875 
Q 81.6875 12.0625 81.6875 18.40625 
Q 81.6875 24.8125 79.265625 28.4375 
Q 76.859375 32.078125 72.703125 32.078125 
z
M 72.703125 38.28125 
Q 80.421875 38.28125 84.953125 32.90625 
Q 89.5 27.546875 89.5 18.40625 
Q 89.5 9.28125 84.9375 3.921875 
Q 80.375 -1.421875 72.703125 -1.421875 
Q 64.890625 -1.421875 60.34375 3.921875 
Q 55.8125 9.28125 55.8125 18.40625 
Q 55.8125 27.59375 60.375 32.9375 
Q 64.9375 38.28125 72.703125 38.28125 
z
M 22.3125 68.015625 
Q 18.109375 68.015625 15.6875 64.375 
Q 13.28125 60.75 13.28125 54.390625 
Q 13.28125 47.953125 15.671875 44.328125 
Q 18.0625 40.71875 22.3125 40.71875 
Q 26.5625 40.71875 28.96875 44.328125 
Q 31.390625 47.953125 31.390625 54.390625 
Q 31.390625 60.6875 28.953125 64.34375 
Q 26.515625 68.015625 22.3125 68.015625 
z
M 66.40625 74.21875 
L 74.21875 74.21875 
L 28.609375 -1.421875 
L 20.796875 -1.421875 
z
M 22.3125 74.21875 
Q 30.03125 74.21875 34.609375 68.875 
Q 39.203125 63.53125 39.203125 54.390625 
Q 39.203125 45.171875 34.640625 39.84375 
Q 30.078125 34.515625 22.3125 34.515625 
Q 14.546875 34.515625 10.03125 39.859375 
Q 5.515625 45.21875 5.515625 54.390625 
Q 5.515625 63.484375 10.046875 68.84375 
Q 14.59375 74.21875 22.3125 74.21875 
z
" id="DejaVuSans-37"/>
     <path d="M 10.984375 1.515625 
L 10.984375 10.5 
Q 14.703125 8.734375 18.5 7.8125 
Q 22.3125 6.890625 25.984375 6.890625 
Q 35.75 6.890625 40.890625 13.453125 
Q 46.046875 20.015625 46.78125 33.40625 
Q 43.953125 29.203125 39.59375 26.953125 
Q 35.25 24.703125 29.984375 24.703125 
Q 19.046875 24.703125 12.671875 31.3125 
Q 6.296875 37.9375 6.296875 49.421875 
Q 6.296875 60.640625 12.9375 67.421875 
Q 19.578125 74.21875 30.609375 74.21875 
Q 43.265625 74.21875 49.921875 64.515625 
Q 56.59375 54.828125 56.59375 36.375 
Q 56.59375 19.140625 48.40625 8.859375 
Q 40.234375 -1.421875 26.421875 -1.421875 
Q 22.703125 -1.421875 18.890625 -0.6875 
Q 15.09375 0.046875 10.984375 1.515625 
z
M 30.609375 32.421875 
Q 37.25 32.421875 41.125 36.953125 
Q 45.015625 41.5 45.015625 49.421875 
Q 45.015625 57.28125 41.125 61.84375 
Q 37.25 66.40625 30.609375 66.40625 
Q 23.96875 66.40625 20.09375 61.84375 
Q 16.21875 57.28125 16.21875 49.421875 
Q 16.21875 41.5 20.09375 36.953125 
Q 23.96875 32.421875 30.609375 32.421875 
z
" id="DejaVuSans-57"/>
     <path d="M 8.203125 72.90625 
L 55.078125 72.90625 
L 55.078125 68.703125 
L 28.609375 0 
L 18.3125 0 
L 43.21875 64.59375 
L 8.203125 64.59375 
z
" id="DejaVuSans-55"/>
    </defs>
    <g transform="translate(200.119688 97.68)scale(0.12 -0.12)">
     <use xlink:href="#DejaVuSans-80"/>
     <use x="60.302734" xlink:href="#DejaVuSans-77"/>
     <use x="146.582031" xlink:href="#DejaVuSans-49"/>
     <use x="210.205078" xlink:href="#DejaVuSans-48"/>
     <use x="273.828125" xlink:href="#DejaVuSans-32"/>
     <use x="305.615234" xlink:href="#DejaVuSans-84"/>
     <use x="366.652344" xlink:href="#DejaVuSans-105"/>
     <use x="394.435547" xlink:href="#DejaVuSans-109"/>
     <use x="491.847656" xlink:href="#DejaVuSans-101"/>
     <use x="553.371094" xlink:href="#DejaVuSans-45"/>
     <use x="589.455078" xlink:href="#DejaVuSans-115"/>
     <use x="641.554688" xlink:href="#DejaVuSans-101"/>
     <use x="703.078125" xlink:href="#DejaVuSans-114"/>
     <use x="744.191406" xlink:href="#DejaVuSans-105"/>
     <use x="771.974609" xlink:href="#DejaVuSans-101"/>
     <use x="833.498047" xlink:href="#DejaVuSans-115"/>
     <use x="885.597656" xlink:href="#DejaVuSans-32"/>
     <use x="917.384766" xlink:href="#DejaVuSans-40"/>
     <use x="956.398438" xlink:href="#DejaVuSans-83"/>
     <use x="1019.875" xlink:href="#DejaVuSans-116"/>
     <use x="1059.083984" xlink:href="#DejaVuSans-97"/>
     <use x="1120.363281" xlink:href="#DejaVuSans-116"/>
     <use x="1159.572266" xlink:href="#DejaVuSans-105"/>
     <use x="1187.355469" xlink:href="#DejaVuSans-111"/>
     <use x="1248.537109" xlink:href="#DejaVuSans-110"/>
     <use x="1311.916016" xlink:href="#DejaVuSans-58"/>
     <use x="1345.607422" xlink:href="#DejaVuSans-32"/>
     <use x="1377.394531" xlink:href="#DejaVuSans-66"/>
     <use x="1445.998047" xlink:href="#DejaVuSans-69"/>
     <use x="1509.181641" xlink:href="#DejaVuSans-84"/>
     <use x="1570.265625" xlink:href="#DejaVuSans-78"/>
     <use x="1645.070312" xlink:href="#DejaVuSans-48"/>
     <use x="1708.693359" xlink:href="#DejaVuSans-52"/>
     <use x="1772.316406" xlink:href="#DejaVuSans-51"/>
     <use x="1835.939453" xlink:href="#DejaVuSans-41"/>
     <use x="1874.953125" xlink:href="#DejaVuSans-32"/>
     <use x="1906.740234" xlink:href="#DejaVuSans-50"/>
     <use x="1970.363281" xlink:href="#DejaVuSans-48"/>
     <use x="2033.986328" xlink:href="#DejaVuSans-49"/>
     <use x="2097.609375" xlink:href="#DejaVuSans-50"/>
     <use x="2161.232422" xlink:href="#DejaVuSans-58"/>
     <use x="2194.923828" xlink:href="#DejaVuSans-32"/>
     <use x="2226.710938" xlink:href="#DejaVuSans-73"/>
     <use x="2256.203125" xlink:href="#DejaVuSans-115"/>
     <use x="2308.302734" xlink:href="#DejaVuSans-108"/>
     <use x="2336.085938" xlink:href="#DejaVuSans-97"/>
     <use x="2397.365234" xlink:href="#DejaVuSans-110"/>
     <use x="2460.744141" xlink:href="#DejaVuSans-100"/>
     <use x="2524.220703" xlink:href="#DejaVuSans-32"/>
     <use x="2556.007812" xlink:href="#DejaVuSans-76"/>
     <use x="2611.720703" xlink:href="#DejaVuSans-83"/>
     <use x="2675.197266" xlink:href="#DejaVuSans-84"/>
     <use x="2736.28125" xlink:href="#DejaVuSans-77"/>
     <use x="2822.560547" xlink:href="#DejaVuSans-32"/>
     <use x="2854.347656" xlink:href="#DejaVuSans-77"/>
     <use x="2940.626953" xlink:href="#DejaVuSans-73"/>
     <use x="2970.119141" xlink:href="#DejaVuSans-77"/>
     <use x="3056.398438" xlink:href="#DejaVuSans-79"/>
     <use x="3135.109375" xlink:href="#DejaVuSans-32"/>
     <use x="3166.896484" xlink:href="#DejaVuSans-78"/>
     <use x="3241.701172" xlink:href="#DejaVuSans-65"/>
     <use x="3310.109375" xlink:href="#DejaVuSans-82"/>
     <use x="3379.591797" xlink:href="#DejaVuSans-88"/>
     <use x="3448.019531" xlink:href="#DejaVuSans-45"/>
     <use x="3484.103516" xlink:href="#DejaVuSans-49"/>
     <use x="3547.726562" xlink:href="#DejaVuSans-32"/>
     <use x="3579.513672" xlink:href="#DejaVuSans-112"/>
     <use x="3642.990234" xlink:href="#DejaVuSans-114"/>
     <use x="3684.072266" xlink:href="#DejaVuSans-101"/>
     <use x="3745.595703" xlink:href="#DejaVuSans-100"/>
     <use x="3809.072266" xlink:href="#DejaVuSans-105"/>
     <use x="3836.855469" xlink:href="#DejaVuSans-99"/>
     <use x="3891.835938" xlink:href="#DejaVuSans-116"/>
     <use x="3931.044922" xlink:href="#DejaVuSans-105"/>
     <use x="3958.828125" xlink:href="#DejaVuSans-111"/>
     <use x="4020.009766" xlink:href="#DejaVuSans-110"/>
     <use x="4083.388672" xlink:href="#DejaVuSans-32"/>
     <use x="4115.175781" xlink:href="#DejaVuSans-40"/>
     <use x="4154.189453" xlink:href="#DejaVuSans-77"/>
     <use x="4240.46875" xlink:href="#DejaVuSans-83"/>
     <use x="4303.945312" xlink:href="#DejaVuSans-69"/>
     <use x="4367.128906" xlink:href="#DejaVuSans-58"/>
     <use x="4400.820312" xlink:href="#DejaVuSans-32"/>
     <use x="4432.607422" xlink:href="#DejaVuSans-50"/>
     <use x="4496.230469" xlink:href="#DejaVuSans-53"/>
     <use x="4559.853516" xlink:href="#DejaVuSans-50"/>
     <use x="4623.476562" xlink:href="#DejaVuSans-46"/>
     <use x="4655.263672" xlink:href="#DejaVuSans-49"/>
     <use x="4718.886719" xlink:href="#DejaVuSans-53"/>
     <use x="4782.509766" xlink:href="#DejaVuSans-44"/>
     <use x="4814.296875" xlink:href="#DejaVuSans-32"/>
     <use x="4846.083984" xlink:href="#DejaVuSans-82"/>
     <use x="4915.566406" xlink:href="#DejaVuSans-77"/>
     <use x="5001.845703" xlink:href="#DejaVuSans-83"/>
     <use x="5065.322266" xlink:href="#DejaVuSans-69"/>
     <use x="5128.505859" xlink:href="#DejaVuSans-58"/>
     <use x="5162.197266" xlink:href="#DejaVuSans-32"/>
     <use x="5193.984375" xlink:href="#DejaVuSans-49"/>
     <use x="5257.607422" xlink:href="#DejaVuSans-53"/>
     <use x="5321.230469" xlink:href="#DejaVuSans-46"/>
     <use x="5353.017578" xlink:href="#DejaVuSans-56"/>
     <use x="5416.640625" xlink:href="#DejaVuSans-56"/>
     <use x="5480.263672" xlink:href="#DejaVuSans-44"/>
     <use x="5512.050781" xlink:href="#DejaVuSans-32"/>
     <use x="5543.837891" xlink:href="#DejaVuSans-77"/>
     <use x="5630.117188" xlink:href="#DejaVuSans-65"/>
     <use x="5698.525391" xlink:href="#DejaVuSans-69"/>
     <use x="5761.708984" xlink:href="#DejaVuSans-58"/>
     <use x="5795.400391" xlink:href="#DejaVuSans-32"/>
     <use x="5827.1875" xlink:href="#DejaVuSans-49"/>
     <use x="5890.810547" xlink:href="#DejaVuSans-48"/>
     <use x="5954.433594" xlink:href="#DejaVuSans-46"/>
     <use x="5986.220703" xlink:href="#DejaVuSans-56"/>
     <use x="6049.84375" xlink:href="#DejaVuSans-54"/>
     <use x="6113.466797" xlink:href="#DejaVuSans-44"/>
     <use x="6145.253906" xlink:href="#DejaVuSans-32"/>
     <use x="6177.041016" xlink:href="#DejaVuSans-77"/>
     <use x="6263.320312" xlink:href="#DejaVuSans-65"/>
     <use x="6331.728516" xlink:href="#DejaVuSans-80"/>
     <use x="6392.03125" xlink:href="#DejaVuSans-69"/>
     <use x="6455.214844" xlink:href="#DejaVuSans-58"/>
     <use x="6488.90625" xlink:href="#DejaVuSans-32"/>
     <use x="6520.693359" xlink:href="#DejaVuSans-51"/>
     <use x="6584.316406" xlink:href="#DejaVuSans-53"/>
     <use x="6647.939453" xlink:href="#DejaVuSans-46"/>
     <use x="6679.726562" xlink:href="#DejaVuSans-50"/>
     <use x="6743.349609" xlink:href="#DejaVuSans-50"/>
     <use x="6806.972656" xlink:href="#DejaVuSans-37"/>
     <use x="6901.992188" xlink:href="#DejaVuSans-44"/>
     <use x="6933.779297" xlink:href="#DejaVuSans-32"/>
     <use x="6965.566406" xlink:href="#DejaVuSans-83"/>
     <use x="7029.042969" xlink:href="#DejaVuSans-77"/>
     <use x="7115.322266" xlink:href="#DejaVuSans-65"/>
     <use x="7183.730469" xlink:href="#DejaVuSans-80"/>
     <use x="7244.033203" xlink:href="#DejaVuSans-69"/>
     <use x="7307.216797" xlink:href="#DejaVuSans-58"/>
     <use x="7340.908203" xlink:href="#DejaVuSans-32"/>
     <use x="7372.695312" xlink:href="#DejaVuSans-51"/>
     <use x="7436.318359" xlink:href="#DejaVuSans-49"/>
     <use x="7499.941406" xlink:href="#DejaVuSans-46"/>
     <use x="7531.728516" xlink:href="#DejaVuSans-54"/>
     <use x="7595.351562" xlink:href="#DejaVuSans-57"/>
     <use x="7658.974609" xlink:href="#DejaVuSans-37"/>
     <use x="7753.994141" xlink:href="#DejaVuSans-44"/>
     <use x="7785.78125" xlink:href="#DejaVuSans-32"/>
     <use x="7817.568359" xlink:href="#DejaVuSans-82"/>
     <use x="7887.050781" xlink:href="#DejaVuSans-50"/>
     <use x="7950.673828" xlink:href="#DejaVuSans-58"/>
     <use x="7984.365234" xlink:href="#DejaVuSans-32"/>
     <use x="8016.152344" xlink:href="#DejaVuSans-48"/>
     <use x="8079.775391" xlink:href="#DejaVuSans-46"/>
     <use x="8111.5625" xlink:href="#DejaVuSans-52"/>
     <use x="8175.185547" xlink:href="#DejaVuSans-53"/>
     <use x="8238.808594" xlink:href="#DejaVuSans-44"/>
     <use x="8270.595703" xlink:href="#DejaVuSans-32"/>
     <use x="8302.382812" xlink:href="#DejaVuSans-73"/>
     <use x="8331.875" xlink:href="#DejaVuSans-79"/>
     <use x="8410.570312" xlink:href="#DejaVuSans-65"/>
     <use x="8478.962891" xlink:href="#DejaVuSans-58"/>
     <use x="8512.654297" xlink:href="#DejaVuSans-32"/>
     <use x="8544.441406" xlink:href="#DejaVuSans-55"/>
     <use x="8608.064453" xlink:href="#DejaVuSans-56"/>
     <use x="8671.6875" xlink:href="#DejaVuSans-46"/>
     <use x="8703.474609" xlink:href="#DejaVuSans-50"/>
     <use x="8767.097656" xlink:href="#DejaVuSans-56"/>
     <use x="8830.720703" xlink:href="#DejaVuSans-37"/>
     <use x="8925.740234" xlink:href="#DejaVuSans-41"/>
    </g>
   </g>
   <g id="legend_1">
    <g id="patch_7">
     <path d="M 1209.34375 141.03625 
L 1289 141.03625 
Q 1291 141.03625 1291 139.03625 
L 1291 110.68 
Q 1291 108.68 1289 108.68 
L 1209.34375 108.68 
Q 1207.34375 108.68 1207.34375 110.68 
L 1207.34375 139.03625 
Q 1207.34375 141.03625 1209.34375 141.03625 
z
" style="fill:#ffffff;opacity:0.8;stroke:#cccccc;stroke-linejoin:miter;"/>
    </g>
    <g id="line2d_20">
     <path d="M 1211.34375 116.778437 
L 1231.34375 116.778437 
" style="fill:none;stroke:#1f77b4;stroke-linecap:square;stroke-width:1.5;"/>
    </g>
    <g id="line2d_21"/>
    <g id="text_20">
     <!-- expected -->
     <defs>
      <path d="M 54.890625 54.6875 
L 35.109375 28.078125 
L 55.90625 0 
L 45.3125 0 
L 29.390625 21.484375 
L 13.484375 0 
L 2.875 0 
L 24.125 28.609375 
L 4.6875 54.6875 
L 15.28125 54.6875 
L 29.78125 35.203125 
L 44.28125 54.6875 
z
" id="DejaVuSans-120"/>
     </defs>
     <g transform="translate(1239.34375 120.278437)scale(0.1 -0.1)">
      <use xlink:href="#DejaVuSans-101"/>
      <use x="61.507812" xlink:href="#DejaVuSans-120"/>
      <use x="120.6875" xlink:href="#DejaVuSans-112"/>
      <use x="184.164062" xlink:href="#DejaVuSans-101"/>
      <use x="245.6875" xlink:href="#DejaVuSans-99"/>
      <use x="300.667969" xlink:href="#DejaVuSans-116"/>
      <use x="339.876953" xlink:href="#DejaVuSans-101"/>
      <use x="401.400391" xlink:href="#DejaVuSans-100"/>
     </g>
    </g>
    <g id="line2d_22">
     <path d="M 1211.34375 131.456563 
L 1231.34375 131.456563 
" style="fill:none;stroke:#ff7f0e;stroke-linecap:square;stroke-width:1.5;"/>
    </g>
    <g id="line2d_23"/>
    <g id="text_21">
     <!-- predicted -->
     <g transform="translate(1239.34375 134.956563)scale(0.1 -0.1)">
      <use xlink:href="#DejaVuSans-112"/>
      <use x="63.476562" xlink:href="#DejaVuSans-114"/>
      <use x="104.558594" xlink:href="#DejaVuSans-101"/>
      <use x="166.082031" xlink:href="#DejaVuSans-100"/>
      <use x="229.558594" xlink:href="#DejaVuSans-105"/>
      <use x="257.341797" xlink:href="#DejaVuSans-99"/>
      <use x="312.322266" xlink:href="#DejaVuSans-116"/>
      <use x="351.53125" xlink:href="#DejaVuSans-101"/>
      <use x="413.054688" xlink:href="#DejaVuSans-100"/>
     </g>
    </g>
   </g>
  </g>
 </g>
 <defs>
  <clipPath id="p0df04e813f">
   <rect height="652.32" width="1116" x="180" y="103.68"/>
  </clipPath>
 </defs>
</svg>
