<?xml version="1.0" encoding="utf-8" standalone="no"?>
<!DOCTYPE svg PUBLIC "-//W3C//DTD SVG 1.1//EN"
  "http://www.w3.org/Graphics/SVG/1.1/DTD/svg11.dtd">
<!-- Created with matplotlib (https://matplotlib.org/) -->
<svg height="864pt" version="1.1" viewBox="0 0 1440 864" width="1440pt" xmlns="http://www.w3.org/2000/svg" xmlns:xlink="http://www.w3.org/1999/xlink">
 <defs>
  <style type="text/css">
*{stroke-linecap:butt;stroke-linejoin:round;white-space:pre;}
  </style>
 </defs>
 <g id="figure_1">
  <g id="patch_1">
   <path d="M 0 864 
L 1440 864 
L 1440 0 
L 0 0 
z
" style="fill:#ffffff;"/>
  </g>
  <g id="axes_1">
   <g id="patch_2">
    <path d="M 180 756 
L 1296 756 
L 1296 103.68 
L 180 103.68 
z
" style="fill:#ffffff;"/>
   </g>
   <g id="matplotlib.axis_1">
    <g id="xtick_1">
     <g id="line2d_1">
      <defs>
       <path d="M 0 0 
L 0 3.5 
" id="m627784689f" style="stroke:#000000;stroke-width:0.8;"/>
      </defs>
      <g>
       <use style="stroke:#000000;stroke-width:0.8;" x="230.727273" xlink:href="#m627784689f" y="756"/>
      </g>
     </g>
     <g id="text_1">
      <!-- 0 -->
      <defs>
       <path d="M 31.78125 66.40625 
Q 24.171875 66.40625 20.328125 58.90625 
Q 16.5 51.421875 16.5 36.375 
Q 16.5 21.390625 20.328125 13.890625 
Q 24.171875 6.390625 31.78125 6.390625 
Q 39.453125 6.390625 43.28125 13.890625 
Q 47.125 21.390625 47.125 36.375 
Q 47.125 51.421875 43.28125 58.90625 
Q 39.453125 66.40625 31.78125 66.40625 
z
M 31.78125 74.21875 
Q 44.046875 74.21875 50.515625 64.515625 
Q 56.984375 54.828125 56.984375 36.375 
Q 56.984375 17.96875 50.515625 8.265625 
Q 44.046875 -1.421875 31.78125 -1.421875 
Q 19.53125 -1.421875 13.0625 8.265625 
Q 6.59375 17.96875 6.59375 36.375 
Q 6.59375 54.828125 13.0625 64.515625 
Q 19.53125 74.21875 31.78125 74.21875 
z
" id="DejaVuSans-48"/>
      </defs>
      <g transform="translate(227.546023 770.598438)scale(0.1 -0.1)">
       <use xlink:href="#DejaVuSans-48"/>
      </g>
     </g>
    </g>
    <g id="xtick_2">
     <g id="line2d_2">
      <g>
       <use style="stroke:#000000;stroke-width:0.8;" x="370.087912" xlink:href="#m627784689f" y="756"/>
      </g>
     </g>
     <g id="text_2">
      <!-- 50 -->
      <defs>
       <path d="M 10.796875 72.90625 
L 49.515625 72.90625 
L 49.515625 64.59375 
L 19.828125 64.59375 
L 19.828125 46.734375 
Q 21.96875 47.46875 24.109375 47.828125 
Q 26.265625 48.1875 28.421875 48.1875 
Q 40.625 48.1875 47.75 41.5 
Q 54.890625 34.8125 54.890625 23.390625 
Q 54.890625 11.625 47.5625 5.09375 
Q 40.234375 -1.421875 26.90625 -1.421875 
Q 22.3125 -1.421875 17.546875 -0.640625 
Q 12.796875 0.140625 7.71875 1.703125 
L 7.71875 11.625 
Q 12.109375 9.234375 16.796875 8.0625 
Q 21.484375 6.890625 26.703125 6.890625 
Q 35.15625 6.890625 40.078125 11.328125 
Q 45.015625 15.765625 45.015625 23.390625 
Q 45.015625 31 40.078125 35.4375 
Q 35.15625 39.890625 26.703125 39.890625 
Q 22.75 39.890625 18.8125 39.015625 
Q 14.890625 38.140625 10.796875 36.28125 
z
" id="DejaVuSans-53"/>
      </defs>
      <g transform="translate(363.725412 770.598438)scale(0.1 -0.1)">
       <use xlink:href="#DejaVuSans-53"/>
       <use x="63.623047" xlink:href="#DejaVuSans-48"/>
      </g>
     </g>
    </g>
    <g id="xtick_3">
     <g id="line2d_3">
      <g>
       <use style="stroke:#000000;stroke-width:0.8;" x="509.448551" xlink:href="#m627784689f" y="756"/>
      </g>
     </g>
     <g id="text_3">
      <!-- 100 -->
      <defs>
       <path d="M 12.40625 8.296875 
L 28.515625 8.296875 
L 28.515625 63.921875 
L 10.984375 60.40625 
L 10.984375 69.390625 
L 28.421875 72.90625 
L 38.28125 72.90625 
L 38.28125 8.296875 
L 54.390625 8.296875 
L 54.390625 0 
L 12.40625 0 
z
" id="DejaVuSans-49"/>
      </defs>
      <g transform="translate(499.904801 770.598438)scale(0.1 -0.1)">
       <use xlink:href="#DejaVuSans-49"/>
       <use x="63.623047" xlink:href="#DejaVuSans-48"/>
       <use x="127.246094" xlink:href="#DejaVuSans-48"/>
      </g>
     </g>
    </g>
    <g id="xtick_4">
     <g id="line2d_4">
      <g>
       <use style="stroke:#000000;stroke-width:0.8;" x="648.809191" xlink:href="#m627784689f" y="756"/>
      </g>
     </g>
     <g id="text_4">
      <!-- 150 -->
      <g transform="translate(639.265441 770.598438)scale(0.1 -0.1)">
       <use xlink:href="#DejaVuSans-49"/>
       <use x="63.623047" xlink:href="#DejaVuSans-53"/>
       <use x="127.246094" xlink:href="#DejaVuSans-48"/>
      </g>
     </g>
    </g>
    <g id="xtick_5">
     <g id="line2d_5">
      <g>
       <use style="stroke:#000000;stroke-width:0.8;" x="788.16983" xlink:href="#m627784689f" y="756"/>
      </g>
     </g>
     <g id="text_5">
      <!-- 200 -->
      <defs>
       <path d="M 19.1875 8.296875 
L 53.609375 8.296875 
L 53.609375 0 
L 7.328125 0 
L 7.328125 8.296875 
Q 12.9375 14.109375 22.625 23.890625 
Q 32.328125 33.6875 34.8125 36.53125 
Q 39.546875 41.84375 41.421875 45.53125 
Q 43.3125 49.21875 43.3125 52.78125 
Q 43.3125 58.59375 39.234375 62.25 
Q 35.15625 65.921875 28.609375 65.921875 
Q 23.96875 65.921875 18.8125 64.3125 
Q 13.671875 62.703125 7.8125 59.421875 
L 7.8125 69.390625 
Q 13.765625 71.78125 18.9375 73 
Q 24.125 74.21875 28.421875 74.21875 
Q 39.75 74.21875 46.484375 68.546875 
Q 53.21875 62.890625 53.21875 53.421875 
Q 53.21875 48.921875 51.53125 44.890625 
Q 49.859375 40.875 45.40625 35.40625 
Q 44.1875 33.984375 37.640625 27.21875 
Q 31.109375 20.453125 19.1875 8.296875 
z
" id="DejaVuSans-50"/>
      </defs>
      <g transform="translate(778.62608 770.598438)scale(0.1 -0.1)">
       <use xlink:href="#DejaVuSans-50"/>
       <use x="63.623047" xlink:href="#DejaVuSans-48"/>
       <use x="127.246094" xlink:href="#DejaVuSans-48"/>
      </g>
     </g>
    </g>
    <g id="xtick_6">
     <g id="line2d_6">
      <g>
       <use style="stroke:#000000;stroke-width:0.8;" x="927.53047" xlink:href="#m627784689f" y="756"/>
      </g>
     </g>
     <g id="text_6">
      <!-- 250 -->
      <g transform="translate(917.98672 770.598438)scale(0.1 -0.1)">
       <use xlink:href="#DejaVuSans-50"/>
       <use x="63.623047" xlink:href="#DejaVuSans-53"/>
       <use x="127.246094" xlink:href="#DejaVuSans-48"/>
      </g>
     </g>
    </g>
    <g id="xtick_7">
     <g id="line2d_7">
      <g>
       <use style="stroke:#000000;stroke-width:0.8;" x="1066.891109" xlink:href="#m627784689f" y="756"/>
      </g>
     </g>
     <g id="text_7">
      <!-- 300 -->
      <defs>
       <path d="M 40.578125 39.3125 
Q 47.65625 37.796875 51.625 33 
Q 55.609375 28.21875 55.609375 21.1875 
Q 55.609375 10.40625 48.1875 4.484375 
Q 40.765625 -1.421875 27.09375 -1.421875 
Q 22.515625 -1.421875 17.65625 -0.515625 
Q 12.796875 0.390625 7.625 2.203125 
L 7.625 11.71875 
Q 11.71875 9.328125 16.59375 8.109375 
Q 21.484375 6.890625 26.8125 6.890625 
Q 36.078125 6.890625 40.9375 10.546875 
Q 45.796875 14.203125 45.796875 21.1875 
Q 45.796875 27.640625 41.28125 31.265625 
Q 36.765625 34.90625 28.71875 34.90625 
L 20.21875 34.90625 
L 20.21875 43.015625 
L 29.109375 43.015625 
Q 36.375 43.015625 40.234375 45.921875 
Q 44.09375 48.828125 44.09375 54.296875 
Q 44.09375 59.90625 40.109375 62.90625 
Q 36.140625 65.921875 28.71875 65.921875 
Q 24.65625 65.921875 20.015625 65.03125 
Q 15.375 64.15625 9.8125 62.3125 
L 9.8125 71.09375 
Q 15.4375 72.65625 20.34375 73.4375 
Q 25.25 74.21875 29.59375 74.21875 
Q 40.828125 74.21875 47.359375 69.109375 
Q 53.90625 64.015625 53.90625 55.328125 
Q 53.90625 49.265625 50.4375 45.09375 
Q 46.96875 40.921875 40.578125 39.3125 
z
" id="DejaVuSans-51"/>
      </defs>
      <g transform="translate(1057.347359 770.598438)scale(0.1 -0.1)">
       <use xlink:href="#DejaVuSans-51"/>
       <use x="63.623047" xlink:href="#DejaVuSans-48"/>
       <use x="127.246094" xlink:href="#DejaVuSans-48"/>
      </g>
     </g>
    </g>
    <g id="xtick_8">
     <g id="line2d_8">
      <g>
       <use style="stroke:#000000;stroke-width:0.8;" x="1206.251748" xlink:href="#m627784689f" y="756"/>
      </g>
     </g>
     <g id="text_8">
      <!-- 350 -->
      <g transform="translate(1196.707998 770.598438)scale(0.1 -0.1)">
       <use xlink:href="#DejaVuSans-51"/>
       <use x="63.623047" xlink:href="#DejaVuSans-53"/>
       <use x="127.246094" xlink:href="#DejaVuSans-48"/>
      </g>
     </g>
    </g>
   </g>
   <g id="matplotlib.axis_2">
    <g id="ytick_1">
     <g id="line2d_9">
      <defs>
       <path d="M 0 0 
L -3.5 0 
" id="m52f33eda37" style="stroke:#000000;stroke-width:0.8;"/>
      </defs>
      <g>
       <use style="stroke:#000000;stroke-width:0.8;" x="180" xlink:href="#m52f33eda37" y="698.011749"/>
      </g>
     </g>
     <g id="text_9">
      <!-- 0 -->
      <g transform="translate(166.6375 701.810968)scale(0.1 -0.1)">
       <use xlink:href="#DejaVuSans-48"/>
      </g>
     </g>
    </g>
    <g id="ytick_2">
     <g id="line2d_10">
      <g>
       <use style="stroke:#000000;stroke-width:0.8;" x="180" xlink:href="#m52f33eda37" y="612.991221"/>
      </g>
     </g>
     <g id="text_10">
      <!-- 10 -->
      <g transform="translate(160.275 616.79044)scale(0.1 -0.1)">
       <use xlink:href="#DejaVuSans-49"/>
       <use x="63.623047" xlink:href="#DejaVuSans-48"/>
      </g>
     </g>
    </g>
    <g id="ytick_3">
     <g id="line2d_11">
      <g>
       <use style="stroke:#000000;stroke-width:0.8;" x="180" xlink:href="#m52f33eda37" y="527.970693"/>
      </g>
     </g>
     <g id="text_11">
      <!-- 20 -->
      <g transform="translate(160.275 531.769912)scale(0.1 -0.1)">
       <use xlink:href="#DejaVuSans-50"/>
       <use x="63.623047" xlink:href="#DejaVuSans-48"/>
      </g>
     </g>
    </g>
    <g id="ytick_4">
     <g id="line2d_12">
      <g>
       <use style="stroke:#000000;stroke-width:0.8;" x="180" xlink:href="#m52f33eda37" y="442.950165"/>
      </g>
     </g>
     <g id="text_12">
      <!-- 30 -->
      <g transform="translate(160.275 446.749384)scale(0.1 -0.1)">
       <use xlink:href="#DejaVuSans-51"/>
       <use x="63.623047" xlink:href="#DejaVuSans-48"/>
      </g>
     </g>
    </g>
    <g id="ytick_5">
     <g id="line2d_13">
      <g>
       <use style="stroke:#000000;stroke-width:0.8;" x="180" xlink:href="#m52f33eda37" y="357.929638"/>
      </g>
     </g>
     <g id="text_13">
      <!-- 40 -->
      <defs>
       <path d="M 37.796875 64.3125 
L 12.890625 25.390625 
L 37.796875 25.390625 
z
M 35.203125 72.90625 
L 47.609375 72.90625 
L 47.609375 25.390625 
L 58.015625 25.390625 
L 58.015625 17.1875 
L 47.609375 17.1875 
L 47.609375 0 
L 37.796875 0 
L 37.796875 17.1875 
L 4.890625 17.1875 
L 4.890625 26.703125 
z
" id="DejaVuSans-52"/>
      </defs>
      <g transform="translate(160.275 361.728856)scale(0.1 -0.1)">
       <use xlink:href="#DejaVuSans-52"/>
       <use x="63.623047" xlink:href="#DejaVuSans-48"/>
      </g>
     </g>
    </g>
    <g id="ytick_6">
     <g id="line2d_14">
      <g>
       <use style="stroke:#000000;stroke-width:0.8;" x="180" xlink:href="#m52f33eda37" y="272.90911"/>
      </g>
     </g>
     <g id="text_14">
      <!-- 50 -->
      <g transform="translate(160.275 276.708328)scale(0.1 -0.1)">
       <use xlink:href="#DejaVuSans-53"/>
       <use x="63.623047" xlink:href="#DejaVuSans-48"/>
      </g>
     </g>
    </g>
    <g id="ytick_7">
     <g id="line2d_15">
      <g>
       <use style="stroke:#000000;stroke-width:0.8;" x="180" xlink:href="#m52f33eda37" y="187.888582"/>
      </g>
     </g>
     <g id="text_15">
      <!-- 60 -->
      <defs>
       <path d="M 33.015625 40.375 
Q 26.375 40.375 22.484375 35.828125 
Q 18.609375 31.296875 18.609375 23.390625 
Q 18.609375 15.53125 22.484375 10.953125 
Q 26.375 6.390625 33.015625 6.390625 
Q 39.65625 6.390625 43.53125 10.953125 
Q 47.40625 15.53125 47.40625 23.390625 
Q 47.40625 31.296875 43.53125 35.828125 
Q 39.65625 40.375 33.015625 40.375 
z
M 52.59375 71.296875 
L 52.59375 62.3125 
Q 48.875 64.0625 45.09375 64.984375 
Q 41.3125 65.921875 37.59375 65.921875 
Q 27.828125 65.921875 22.671875 59.328125 
Q 17.53125 52.734375 16.796875 39.40625 
Q 19.671875 43.65625 24.015625 45.921875 
Q 28.375 48.1875 33.59375 48.1875 
Q 44.578125 48.1875 50.953125 41.515625 
Q 57.328125 34.859375 57.328125 23.390625 
Q 57.328125 12.15625 50.6875 5.359375 
Q 44.046875 -1.421875 33.015625 -1.421875 
Q 20.359375 -1.421875 13.671875 8.265625 
Q 6.984375 17.96875 6.984375 36.375 
Q 6.984375 53.65625 15.1875 63.9375 
Q 23.390625 74.21875 37.203125 74.21875 
Q 40.921875 74.21875 44.703125 73.484375 
Q 48.484375 72.75 52.59375 71.296875 
z
" id="DejaVuSans-54"/>
      </defs>
      <g transform="translate(160.275 191.687801)scale(0.1 -0.1)">
       <use xlink:href="#DejaVuSans-54"/>
       <use x="63.623047" xlink:href="#DejaVuSans-48"/>
      </g>
     </g>
    </g>
    <g id="text_16">
     <!-- Sensor value -->
     <defs>
      <path d="M 53.515625 70.515625 
L 53.515625 60.890625 
Q 47.90625 63.578125 42.921875 64.890625 
Q 37.9375 66.21875 33.296875 66.21875 
Q 25.25 66.21875 20.875 63.09375 
Q 16.5 59.96875 16.5 54.203125 
Q 16.5 49.359375 19.40625 46.890625 
Q 22.3125 44.4375 30.421875 42.921875 
L 36.375 41.703125 
Q 47.40625 39.59375 52.65625 34.296875 
Q 57.90625 29 57.90625 20.125 
Q 57.90625 9.515625 50.796875 4.046875 
Q 43.703125 -1.421875 29.984375 -1.421875 
Q 24.8125 -1.421875 18.96875 -0.25 
Q 13.140625 0.921875 6.890625 3.21875 
L 6.890625 13.375 
Q 12.890625 10.015625 18.65625 8.296875 
Q 24.421875 6.59375 29.984375 6.59375 
Q 38.421875 6.59375 43.015625 9.90625 
Q 47.609375 13.234375 47.609375 19.390625 
Q 47.609375 24.75 44.3125 27.78125 
Q 41.015625 30.8125 33.5 32.328125 
L 27.484375 33.5 
Q 16.453125 35.6875 11.515625 40.375 
Q 6.59375 45.0625 6.59375 53.421875 
Q 6.59375 63.09375 13.40625 68.65625 
Q 20.21875 74.21875 32.171875 74.21875 
Q 37.3125 74.21875 42.625 73.28125 
Q 47.953125 72.359375 53.515625 70.515625 
z
" id="DejaVuSans-83"/>
      <path d="M 56.203125 29.59375 
L 56.203125 25.203125 
L 14.890625 25.203125 
Q 15.484375 15.921875 20.484375 11.0625 
Q 25.484375 6.203125 34.421875 6.203125 
Q 39.59375 6.203125 44.453125 7.46875 
Q 49.3125 8.734375 54.109375 11.28125 
L 54.109375 2.78125 
Q 49.265625 0.734375 44.1875 -0.34375 
Q 39.109375 -1.421875 33.890625 -1.421875 
Q 20.796875 -1.421875 13.15625 6.1875 
Q 5.515625 13.8125 5.515625 26.8125 
Q 5.515625 40.234375 12.765625 48.109375 
Q 20.015625 56 32.328125 56 
Q 43.359375 56 49.78125 48.890625 
Q 56.203125 41.796875 56.203125 29.59375 
z
M 47.21875 32.234375 
Q 47.125 39.59375 43.09375 43.984375 
Q 39.0625 48.390625 32.421875 48.390625 
Q 24.90625 48.390625 20.390625 44.140625 
Q 15.875 39.890625 15.1875 32.171875 
z
" id="DejaVuSans-101"/>
      <path d="M 54.890625 33.015625 
L 54.890625 0 
L 45.90625 0 
L 45.90625 32.71875 
Q 45.90625 40.484375 42.875 44.328125 
Q 39.84375 48.1875 33.796875 48.1875 
Q 26.515625 48.1875 22.3125 43.546875 
Q 18.109375 38.921875 18.109375 30.90625 
L 18.109375 0 
L 9.078125 0 
L 9.078125 54.6875 
L 18.109375 54.6875 
L 18.109375 46.1875 
Q 21.34375 51.125 25.703125 53.5625 
Q 30.078125 56 35.796875 56 
Q 45.21875 56 50.046875 50.171875 
Q 54.890625 44.34375 54.890625 33.015625 
z
" id="DejaVuSans-110"/>
      <path d="M 44.28125 53.078125 
L 44.28125 44.578125 
Q 40.484375 46.53125 36.375 47.5 
Q 32.28125 48.484375 27.875 48.484375 
Q 21.1875 48.484375 17.84375 46.4375 
Q 14.5 44.390625 14.5 40.28125 
Q 14.5 37.15625 16.890625 35.375 
Q 19.28125 33.59375 26.515625 31.984375 
L 29.59375 31.296875 
Q 39.15625 29.25 43.1875 25.515625 
Q 47.21875 21.78125 47.21875 15.09375 
Q 47.21875 7.46875 41.1875 3.015625 
Q 35.15625 -1.421875 24.609375 -1.421875 
Q 20.21875 -1.421875 15.453125 -0.5625 
Q 10.6875 0.296875 5.421875 2 
L 5.421875 11.28125 
Q 10.40625 8.6875 15.234375 7.390625 
Q 20.0625 6.109375 24.8125 6.109375 
Q 31.15625 6.109375 34.5625 8.28125 
Q 37.984375 10.453125 37.984375 14.40625 
Q 37.984375 18.0625 35.515625 20.015625 
Q 33.0625 21.96875 24.703125 23.78125 
L 21.578125 24.515625 
Q 13.234375 26.265625 9.515625 29.90625 
Q 5.8125 33.546875 5.8125 39.890625 
Q 5.8125 47.609375 11.28125 51.796875 
Q 16.75 56 26.8125 56 
Q 31.78125 56 36.171875 55.265625 
Q 40.578125 54.546875 44.28125 53.078125 
z
" id="DejaVuSans-115"/>
      <path d="M 30.609375 48.390625 
Q 23.390625 48.390625 19.1875 42.75 
Q 14.984375 37.109375 14.984375 27.296875 
Q 14.984375 17.484375 19.15625 11.84375 
Q 23.34375 6.203125 30.609375 6.203125 
Q 37.796875 6.203125 41.984375 11.859375 
Q 46.1875 17.53125 46.1875 27.296875 
Q 46.1875 37.015625 41.984375 42.703125 
Q 37.796875 48.390625 30.609375 48.390625 
z
M 30.609375 56 
Q 42.328125 56 49.015625 48.375 
Q 55.71875 40.765625 55.71875 27.296875 
Q 55.71875 13.875 49.015625 6.21875 
Q 42.328125 -1.421875 30.609375 -1.421875 
Q 18.84375 -1.421875 12.171875 6.21875 
Q 5.515625 13.875 5.515625 27.296875 
Q 5.515625 40.765625 12.171875 48.375 
Q 18.84375 56 30.609375 56 
z
" id="DejaVuSans-111"/>
      <path d="M 41.109375 46.296875 
Q 39.59375 47.171875 37.8125 47.578125 
Q 36.03125 48 33.890625 48 
Q 26.265625 48 22.1875 43.046875 
Q 18.109375 38.09375 18.109375 28.8125 
L 18.109375 0 
L 9.078125 0 
L 9.078125 54.6875 
L 18.109375 54.6875 
L 18.109375 46.1875 
Q 20.953125 51.171875 25.484375 53.578125 
Q 30.03125 56 36.53125 56 
Q 37.453125 56 38.578125 55.875 
Q 39.703125 55.765625 41.0625 55.515625 
z
" id="DejaVuSans-114"/>
      <path id="DejaVuSans-32"/>
      <path d="M 2.984375 54.6875 
L 12.5 54.6875 
L 29.59375 8.796875 
L 46.6875 54.6875 
L 56.203125 54.6875 
L 35.6875 0 
L 23.484375 0 
z
" id="DejaVuSans-118"/>
      <path d="M 34.28125 27.484375 
Q 23.390625 27.484375 19.1875 25 
Q 14.984375 22.515625 14.984375 16.5 
Q 14.984375 11.71875 18.140625 8.90625 
Q 21.296875 6.109375 26.703125 6.109375 
Q 34.1875 6.109375 38.703125 11.40625 
Q 43.21875 16.703125 43.21875 25.484375 
L 43.21875 27.484375 
z
M 52.203125 31.203125 
L 52.203125 0 
L 43.21875 0 
L 43.21875 8.296875 
Q 40.140625 3.328125 35.546875 0.953125 
Q 30.953125 -1.421875 24.3125 -1.421875 
Q 15.921875 -1.421875 10.953125 3.296875 
Q 6 8.015625 6 15.921875 
Q 6 25.140625 12.171875 29.828125 
Q 18.359375 34.515625 30.609375 34.515625 
L 43.21875 34.515625 
L 43.21875 35.40625 
Q 43.21875 41.609375 39.140625 45 
Q 35.0625 48.390625 27.6875 48.390625 
Q 23 48.390625 18.546875 47.265625 
Q 14.109375 46.140625 10.015625 43.890625 
L 10.015625 52.203125 
Q 14.9375 54.109375 19.578125 55.046875 
Q 24.21875 56 28.609375 56 
Q 40.484375 56 46.34375 49.84375 
Q 52.203125 43.703125 52.203125 31.203125 
z
" id="DejaVuSans-97"/>
      <path d="M 9.421875 75.984375 
L 18.40625 75.984375 
L 18.40625 0 
L 9.421875 0 
z
" id="DejaVuSans-108"/>
      <path d="M 8.5 21.578125 
L 8.5 54.6875 
L 17.484375 54.6875 
L 17.484375 21.921875 
Q 17.484375 14.15625 20.5 10.265625 
Q 23.53125 6.390625 29.59375 6.390625 
Q 36.859375 6.390625 41.078125 11.03125 
Q 45.3125 15.671875 45.3125 23.6875 
L 45.3125 54.6875 
L 54.296875 54.6875 
L 54.296875 0 
L 45.3125 0 
L 45.3125 8.40625 
Q 42.046875 3.421875 37.71875 1 
Q 33.40625 -1.421875 27.6875 -1.421875 
Q 18.265625 -1.421875 13.375 4.4375 
Q 8.5 10.296875 8.5 21.578125 
z
M 31.109375 56 
z
" id="DejaVuSans-117"/>
     </defs>
     <g transform="translate(154.195312 462.225937)rotate(-90)scale(0.1 -0.1)">
      <use xlink:href="#DejaVuSans-83"/>
      <use x="63.476562" xlink:href="#DejaVuSans-101"/>
      <use x="125" xlink:href="#DejaVuSans-110"/>
      <use x="188.378906" xlink:href="#DejaVuSans-115"/>
      <use x="240.478516" xlink:href="#DejaVuSans-111"/>
      <use x="301.660156" xlink:href="#DejaVuSans-114"/>
      <use x="342.773438" xlink:href="#DejaVuSans-32"/>
      <use x="374.560547" xlink:href="#DejaVuSans-118"/>
      <use x="433.740234" xlink:href="#DejaVuSans-97"/>
      <use x="495.019531" xlink:href="#DejaVuSans-108"/>
      <use x="522.802734" xlink:href="#DejaVuSans-117"/>
      <use x="586.181641" xlink:href="#DejaVuSans-101"/>
     </g>
    </g>
   </g>
   <g id="line2d_16">
    <path clip-path="url(#p9c08ae176b)" d="M 230.727273 690.631228 
L 233.514486 664.532082 
L 236.301698 656.207155 
L 239.088911 672.148504 
L 241.876124 596.51566 
L 244.663337 588.013607 
L 247.450549 535.584282 
L 250.237762 344.819472 
L 253.024975 673.742639 
L 255.812188 499.627683 
L 258.599401 281.939707 
L 261.386613 470.224751 
L 264.173826 533.281642 
L 266.961039 643.454076 
L 269.748252 688.621232 
L 272.535465 667.897478 
L 275.322677 684.547331 
L 278.10989 666.834721 
L 280.897103 662.583695 
L 283.684316 594.035894 
L 286.471528 637.077537 
L 289.258741 654.435894 
L 292.045954 726.349091 
L 294.833167 697.654663 
L 297.62038 575.668688 
L 300.407592 548.337361 
L 303.194805 697.300411 
L 305.982018 691.100997 
L 308.769231 602.892199 
L 311.556444 714.12739 
L 314.343656 668.783109 
L 317.130869 642.39132 
L 319.918082 579.157302 
L 322.705295 566.227097 
L 325.492507 532.218886 
L 328.27972 478.372551 
L 331.066933 217.820059 
L 333.854146 206.483988 
L 336.641359 487.405982 
L 339.428571 595.452903 
L 342.215784 697.300411 
L 345.002997 620.427683 
L 347.79021 603.954956 
L 350.577423 551.702757 
L 353.364635 607.143226 
L 356.151848 436.747918 
L 358.939061 382.370205 
L 361.726274 420.452317 
L 364.513487 427.891613 
L 367.300699 216.048798 
L 370.087912 217.820059 
L 372.875125 371.388387 
L 375.662338 434.799531 
L 378.44955 473.413021 
L 381.236763 622.198944 
L 384.023976 497.147918 
L 386.811189 525.681322 
L 389.598402 334.723284 
L 392.385614 334.191906 
L 395.172827 248.994252 
L 397.96004 188.948504 
L 400.747253 624.67871 
L 403.534466 522.122698 
L 406.321678 521.144654 
L 409.108891 594.213021 
L 411.896104 675.660222 
L 414.683317 623.723769 
L 417.470529 654.258768 
L 420.257742 661.875191 
L 423.044955 696.769032 
L 425.832168 663.115073 
L 428.619381 573.843519 
L 431.406593 524.956716 
L 434.193806 508.129736 
L 436.981019 508.306862 
L 439.768232 519.465806 
L 442.555445 458.357302 
L 445.342657 571.009501 
L 448.12987 491.302757 
L 450.917083 543.200704 
L 453.704296 559.319179 
L 456.491508 536.469912 
L 459.278721 456.408915 
L 462.065934 469.516246 
L 464.853147 530.801877 
L 467.64036 611.571378 
L 470.427572 626.449971 
L 473.214785 639.911554 
L 476.001998 676.222405 
L 478.789211 500.69044 
L 481.576424 626.681005 
L 484.363636 680.650557 
L 487.150849 705.602234 
L 489.938062 655.498651 
L 492.725275 568.35261 
L 495.512488 578.80305 
L 498.2997 486.1661 
L 501.086913 133.330909 
L 503.874126 532.750264 
L 506.661339 609.091613 
L 509.448551 253.068152 
L 512.235764 448.792493 
L 515.022977 494.491026 
L 517.81019 685.787214 
L 520.597403 608.560235 
L 523.384615 535.230029 
L 526.171828 469.161994 
L 528.959041 340.39132 
L 531.746254 470.401877 
L 534.533467 203.472845 
L 537.320679 425.234721 
L 540.107892 575.437654 
L 542.895105 614.051144 
L 545.682318 627.689853 
L 548.46953 617.062287 
L 551.256743 542.137947 
L 554.043956 640.620059 
L 556.831169 588.544985 
L 559.618382 691.740191 
L 562.405594 642.39132 
L 565.192807 647.882229 
L 567.98002 561.444692 
L 570.767233 466.327977 
L 573.554446 522.299824 
L 576.341658 575.437654 
L 579.128871 502.638827 
L 581.916084 448.969619 
L 584.703297 391.757889 
L 587.490509 561.267566 
L 590.277722 549.045865 
L 593.064935 591.733255 
L 595.852148 552.234135 
L 598.639361 398.311554 
L 601.426573 317.542053 
L 607.000999 501.57607 
L 609.788212 481.560821 
L 612.575425 469.161994 
L 615.362637 500.336188 
L 618.14985 603.246452 
L 620.937063 566.227097 
L 623.724276 446.844106 
L 626.511489 487.760235 
L 629.298701 609.091613 
L 632.085914 598.995425 
L 634.873127 618.833548 
L 637.66034 552.942639 
L 640.447552 552.942639 
L 643.234765 626.804223 
L 646.021978 655.675777 
L 648.809191 612.634135 
L 651.596404 639.911554 
L 654.383616 654.790147 
L 657.170829 517.517419 
L 659.958042 491.657009 
L 662.745255 454.237195 
L 665.532468 612.988387 
L 668.31968 401.048958 
L 671.106893 313.645279 
L 673.894106 438.696305 
L 676.681319 437.456422 
L 679.468531 498.564927 
L 682.255744 619.719179 
L 685.042957 615.291026 
L 687.83017 621.136188 
L 690.617383 610.862874 
L 693.404595 650.361994 
L 696.191808 644.693959 
L 698.979021 650.716246 
L 701.766234 648.944985 
L 704.553447 600.412434 
L 707.340659 625.210088 
L 710.127872 595.098651 
L 712.915085 556.662287 
L 715.702298 608.383109 
L 718.48951 478.018299 
L 721.276723 466.859355 
L 724.063936 402.385455 
L 726.851149 526.373724 
L 729.638362 518.40305 
L 732.425574 616.708035 
L 735.212787 520.351437 
L 738 400.79132 
L 740.787213 487.690924 
L 743.574426 521.059941 
L 746.361638 535.052903 
L 749.148851 507.775484 
L 751.936064 624.855836 
L 754.723277 600.766686 
L 757.51049 622.198944 
L 760.297702 560.736188 
L 763.084915 505.472845 
L 765.872128 515.391906 
L 768.659341 529.561994 
L 771.446553 610.508622 
L 774.233766 604.309208 
L 777.020979 575.260528 
L 779.808192 620.073431 
L 782.595405 527.967859 
L 785.382617 476.247038 
L 788.16983 549.577243 
L 790.957043 613.165513 
L 793.744256 587.482229 
L 796.531469 521.768446 
L 799.318681 496.262287 
L 802.105894 487.760235 
L 804.893107 540.18956 
L 807.68032 587.127977 
L 810.467532 631.409501 
L 813.254745 628.529277 
L 816.041958 598.818299 
L 818.829171 496.262287 
L 821.616384 497.679296 
L 824.403596 477.309795 
L 829.978022 642.037067 
L 832.765235 519.111554 
L 835.552448 477.486921 
L 838.33966 563.570205 
L 841.126873 608.737361 
L 843.914086 676.222405 
L 846.701299 677.81654 
L 849.488511 687.204223 
L 852.275724 693.580762 
L 855.062937 580.751437 
L 857.85015 655.498651 
L 860.637363 599.70393 
L 863.424575 621.313314 
L 866.211788 619.542053 
L 868.999001 633.889267 
L 871.786214 609.800117 
L 874.573427 536.11566 
L 877.360639 474.121525 
L 880.147852 553.296891 
L 882.935065 652.133255 
L 885.722278 664.532082 
L 888.509491 691.100997 
L 891.296703 675.691026 
L 894.083916 612.818962 
L 896.871129 533.813021 
L 899.658342 622.021818 
L 902.445554 595.098651 
L 905.232767 620.959062 
L 908.01998 629.283988 
L 910.807193 502.107449 
L 913.594406 431.257009 
L 916.381618 436.747918 
L 919.168831 527.259355 
L 921.956044 591.733255 
L 924.743257 659.749677 
L 927.53047 659.749677 
L 930.317682 589.430616 
L 933.104895 612.988387 
L 935.892108 611.92563 
L 938.679321 548.337361 
L 941.466533 575.083402 
L 944.253746 646.642346 
L 947.040959 629.461114 
L 949.828172 504.232962 
L 952.615385 543.554956 
L 955.402597 556.662287 
L 958.18981 591.201877 
L 960.977023 630.523871 
L 963.764236 679.942053 
L 966.551449 704.562581 
L 969.338661 635.660528 
L 972.125874 623.615953 
L 974.913087 627.158475 
L 977.7003 616.176657 
L 980.487512 553.119765 
L 983.274725 618.833548 
L 986.061938 616.530909 
L 988.849151 649.830616 
L 991.636364 650.338891 
L 994.423576 579.157302 
L 997.210789 570.478123 
L 999.998002 583.939707 
L 1002.785215 568.175484 
L 1005.572428 584.471085 
L 1008.35964 558.964927 
L 1011.146853 469.693372 
L 1013.934066 419.743812 
L 1016.721279 568.706862 
L 1019.508492 641.859941 
L 1022.295704 641.682815 
L 1025.082917 613.342639 
L 1027.87013 551.879883 
L 1030.657343 406.459355 
L 1033.444555 373.868152 
L 1036.231768 494.668152 
L 1039.018981 449.500997 
L 1041.806194 373.5139 
L 1044.593407 479.78956 
L 1047.380619 562.861701 
L 1050.167832 596.869912 
L 1052.955045 609.268739 
L 1055.742258 510.963754 
L 1058.529471 567.289853 
L 1061.316683 569.946745 
L 1064.103896 580.397185 
L 1066.891109 578.80305 
L 1069.678322 694.112141 
L 1072.465534 598.464047 
L 1075.252747 661.166686 
L 1078.03996 622.553196 
L 1080.827173 531.510381 
L 1083.614386 423.994839 
L 1089.188811 350.664633 
L 1091.976024 680.296305 
L 1094.763237 584.293959 
L 1097.55045 585.002463 
L 1100.337662 715.190147 
L 1103.124875 720.50393 
L 1105.912088 685.787214 
L 1108.699301 666.303343 
L 1111.486513 595.436801 
L 1114.273726 558.610674 
L 1117.060939 445.427097 
L 1119.848152 484.926217 
L 1122.635365 550.108622 
L 1125.422577 597.40129 
L 1128.20979 494.3139 
L 1130.997003 421.522774 
L 1133.784216 405.75085 
L 1136.571429 343.225337 
L 1139.358641 541.075191 
L 1142.145854 493.42827 
L 1144.933067 464.733842 
L 1147.72028 456.940293 
L 1150.507493 648.590733 
L 1153.294705 671.262874 
L 1156.081918 660.635308 
L 1158.869131 685.07871 
L 1161.656344 722.098065 
L 1164.443556 699.248798 
L 1167.230769 601.359674 
L 1170.017982 606.257595 
L 1172.805195 651.601877 
L 1175.592408 703.854076 
L 1181.166833 680.827683 
L 1183.954046 663.115073 
L 1186.741259 568.175484 
L 1189.528472 392.112141 
L 1192.315684 549.577243 
L 1195.102897 555.599531 
L 1197.89011 547.45173 
L 1200.677323 608.914487 
L 1203.464535 656.738534 
L 1206.251748 668.074604 
L 1209.038961 673.742639 
L 1211.826174 693.22651 
L 1214.613387 689.329736 
L 1217.400599 644.162581 
L 1220.187812 665.06346 
L 1222.975025 611.394252 
L 1225.762238 534.344399 
L 1228.549451 506.358475 
L 1231.336663 496.085161 
L 1234.123876 419.489675 
L 1236.911089 506.075073 
L 1245.272727 566.049971 
L 1245.272727 566.049971 
" style="fill:none;stroke:#1f77b4;stroke-linecap:square;stroke-width:1.5;"/>
   </g>
   <g id="line2d_17">
    <path clip-path="url(#p9c08ae176b)" d="M 230.727273 627.33483 
L 233.514486 604.710873 
L 236.301698 653.870798 
L 239.088911 642.566657 
L 241.876124 622.379522 
L 244.663337 545.702615 
L 247.450549 490.969743 
L 250.237762 473.567075 
L 253.024975 400.284393 
L 255.812188 588.487306 
L 258.599401 466.824009 
L 261.386613 329.281096 
L 264.173826 429.817115 
L 266.961039 431.512017 
L 269.748252 647.014967 
L 272.535465 631.334177 
L 275.322677 635.378657 
L 278.10989 632.592669 
L 280.897103 604.30598 
L 283.684316 605.486151 
L 286.471528 548.070056 
L 289.258741 560.929571 
L 292.045954 596.561989 
L 294.833167 638.353152 
L 297.62038 612.762912 
L 300.407592 534.914514 
L 303.194805 548.015856 
L 305.982018 608.947513 
L 308.769231 633.44207 
L 311.556444 503.997364 
L 314.343656 649.006583 
L 317.130869 606.555382 
L 319.918082 572.680655 
L 322.705295 566.781355 
L 325.492507 506.503076 
L 328.27972 464.116931 
L 331.066933 396.526669 
L 333.854146 224.354646 
L 336.641359 278.540744 
L 339.428571 548.976066 
L 342.215784 566.760421 
L 345.002997 631.694198 
L 347.79021 588.577104 
L 350.577423 571.134168 
L 353.364635 543.863987 
L 356.151848 583.298488 
L 358.939061 466.120692 
L 361.726274 386.333841 
L 364.513487 379.008721 
L 367.300699 427.84685 
L 370.087912 230.511914 
L 372.875125 180.948313 
L 375.662338 346.710149 
L 378.44955 441.722825 
L 381.236763 452.856834 
L 384.023976 488.348661 
L 386.811189 492.975978 
L 389.598402 470.590079 
L 392.385614 376.309279 
L 395.172827 404.541465 
L 397.96004 349.528447 
L 400.747253 263.14385 
L 403.534466 561.652954 
L 406.321678 565.72145 
L 409.108891 549.272611 
L 411.896104 572.366284 
L 414.683317 644.119621 
L 417.470529 568.348284 
L 420.257742 616.317078 
L 423.044955 617.633811 
L 425.832168 634.335488 
L 428.619381 599.988428 
L 431.406593 510.461333 
L 434.193806 582.168941 
L 436.981019 563.998062 
L 439.768232 515.040765 
L 442.555445 478.615471 
L 445.342657 436.818064 
L 448.12987 498.280976 
L 450.917083 458.23225 
L 453.704296 544.883501 
L 456.491508 573.392457 
L 459.278721 506.248969 
L 462.065934 406.663315 
L 464.853147 470.738144 
L 467.64036 562.167128 
L 470.427572 604.919046 
L 473.214785 565.319717 
L 476.001998 618.584954 
L 478.789211 601.22912 
L 481.576424 519.2195 
L 484.363636 595.150769 
L 487.150849 616.61308 
L 489.938062 635.116465 
L 492.725275 592.338821 
L 495.512488 554.073092 
L 498.2997 577.435304 
L 501.086913 471.744289 
L 503.874126 233.87695 
L 506.661339 503.885958 
L 509.448551 537.429191 
L 512.235764 364.897482 
L 515.022977 531.876517 
L 517.81019 478.180893 
L 520.597403 598.336883 
L 523.384615 566.973516 
L 526.171828 475.616187 
L 528.959041 389.610478 
L 531.746254 386.261717 
L 534.533467 402.87859 
L 537.320679 231.828828 
L 540.107892 462.980662 
L 542.895105 541.621528 
L 545.682318 555.730803 
L 548.46953 580.866276 
L 551.256743 592.229437 
L 554.043956 543.185244 
L 556.831169 596.54191 
L 559.618382 538.492412 
L 562.405594 632.425535 
L 565.192807 582.47528 
L 567.98002 587.479995 
L 570.767233 481.724638 
L 573.554446 398.236583 
L 576.341658 418.043886 
L 579.128871 415.37213 
L 581.916084 418.582822 
L 584.703297 406.814737 
L 587.490509 302.893064 
L 590.277722 490.601737 
L 593.064935 488.27571 
L 595.852148 477.084283 
L 598.639361 517.921965 
L 601.426573 314.822869 
L 604.213786 244.768581 
L 607.000999 336.989968 
L 609.788212 435.787047 
L 612.575425 440.247858 
L 615.362637 401.832546 
L 618.14985 406.09907 
L 620.937063 498.647059 
L 623.724276 487.148457 
L 626.511489 337.430129 
L 629.298701 443.110948 
L 632.085914 471.180708 
L 634.873127 469.783569 
L 637.66034 502.297811 
L 640.447552 445.428049 
L 643.234765 437.474902 
L 646.021978 490.285941 
L 648.809191 533.56055 
L 654.383616 545.576675 
L 657.170829 501.103235 
L 659.958042 413.748 
L 662.745255 330.726282 
L 665.532468 352.274553 
L 668.31968 496.590077 
L 671.106893 374.949365 
L 673.894106 287.247095 
L 676.681319 363.928092 
L 679.468531 393.271027 
L 682.255744 430.941939 
L 687.83017 578.144101 
L 690.617383 531.572613 
L 693.404595 548.624336 
L 696.191808 566.903745 
L 698.979021 573.08345 
L 701.766234 529.495112 
L 704.553447 542.738638 
L 707.340659 535.308578 
L 710.127872 526.889005 
L 712.915085 521.225755 
L 715.702298 482.780145 
L 718.48951 486.173324 
L 721.276723 372.03802 
L 724.063936 363.605017 
L 726.851149 427.827817 
L 729.638362 440.540718 
L 732.425574 417.027526 
L 735.212787 490.369826 
L 738 443.26154 
L 740.787213 399.205351 
L 743.574426 453.517713 
L 746.361638 451.263382 
L 749.148851 476.946788 
L 751.936064 419.753355 
L 754.723277 475.033855 
L 757.51049 507.530492 
L 760.297702 521.622306 
L 763.084915 442.189426 
L 765.872128 397.610753 
L 768.659341 443.248573 
L 771.446553 428.34593 
L 774.233766 490.29021 
L 777.020979 489.221095 
L 779.808192 514.049024 
L 782.595405 501.909836 
L 785.382617 465.519012 
L 788.16983 464.846578 
L 790.957043 492.267764 
L 793.744256 502.544535 
L 796.531469 447.271172 
L 799.318681 452.019642 
L 802.105894 399.974477 
L 804.893107 442.429038 
L 807.68032 499.818861 
L 810.467532 563.05565 
L 813.254745 569.149728 
L 816.041958 553.000466 
L 818.829171 531.021002 
L 821.616384 417.845351 
L 824.403596 415.881849 
L 827.190809 408.462817 
L 829.978022 475.513273 
L 832.765235 476.290649 
L 835.552448 458.853037 
L 838.33966 381.097118 
L 841.126873 524.132993 
L 843.914086 589.40982 
L 846.701299 601.83602 
L 849.488511 581.623574 
L 852.275724 589.400649 
L 855.062937 607.598628 
L 857.85015 516.064839 
L 860.637363 542.940929 
L 863.424575 535.972216 
L 866.211788 518.574749 
L 868.999001 549.758235 
L 871.786214 556.606552 
L 877.360639 431.672308 
L 880.147852 423.936164 
L 882.935065 523.23289 
L 885.722278 586.363818 
L 888.509491 602.711407 
L 891.296703 607.925927 
L 894.083916 589.775825 
L 896.871129 495.333658 
L 899.658342 512.202909 
L 902.445554 513.945573 
L 905.232767 517.801933 
L 908.01998 496.378329 
L 910.807193 505.336766 
L 913.594406 454.655881 
L 916.381618 375.184887 
L 919.168831 351.655972 
L 921.956044 483.023222 
L 924.743257 582.57513 
L 927.53047 598.997983 
L 930.317682 592.71519 
L 933.104895 561.505303 
L 935.892108 564.017856 
L 938.679321 499.916924 
L 941.466533 457.500421 
L 944.253746 540.754095 
L 947.040959 548.107001 
L 949.828172 567.510982 
L 952.615385 459.820942 
L 955.402597 514.590947 
L 958.18981 551.401955 
L 960.977023 535.924027 
L 963.764236 614.632708 
L 966.551449 605.113875 
L 969.338661 615.41498 
L 972.125874 552.923597 
L 974.913087 499.822566 
L 977.7003 528.489588 
L 980.487512 513.523476 
L 983.274725 493.585767 
L 986.061938 506.034811 
L 988.849151 535.795626 
L 991.636364 576.829648 
L 994.423576 580.765416 
L 997.210789 475.790699 
L 999.998002 506.069788 
L 1002.785215 493.534015 
L 1005.572428 509.650276 
L 1008.35964 474.33057 
L 1011.146853 519.523663 
L 1013.934066 380.630109 
L 1016.721279 377.9368 
L 1019.508492 522.665914 
L 1022.295704 579.990035 
L 1025.082917 548.807714 
L 1027.87013 581.478384 
L 1030.657343 510.328035 
L 1033.444555 418.625586 
L 1036.231768 367.000236 
L 1039.018981 376.274084 
L 1041.806194 395.380503 
L 1044.593407 353.349131 
L 1047.380619 412.062662 
L 1050.167832 476.206577 
L 1052.955045 554.234967 
L 1055.742258 510.571469 
L 1058.529471 471.331345 
L 1061.316683 584.899408 
L 1064.103896 545.104576 
L 1066.891109 511.657593 
L 1069.678322 520.657173 
L 1072.465534 631.842134 
L 1075.252747 529.485033 
L 1078.03996 598.48671 
L 1080.827173 561.572198 
L 1083.614386 512.042174 
L 1086.401598 430.977472 
L 1089.188811 423.604665 
L 1091.976024 509.941407 
L 1094.763237 624.684084 
L 1097.55045 535.622689 
L 1100.337662 578.435905 
L 1103.124875 635.839615 
L 1105.912088 639.482103 
L 1108.699301 596.658523 
L 1111.486513 592.992641 
L 1114.273726 524.820908 
L 1117.060939 505.668832 
L 1119.848152 480.053092 
L 1122.635365 470.297225 
L 1125.422577 459.394188 
L 1128.20979 536.133288 
L 1130.997003 488.479543 
L 1133.784216 378.264192 
L 1136.571429 386.778236 
L 1139.358641 422.141917 
L 1142.145854 529.001975 
L 1144.933067 496.496574 
L 1147.72028 488.95821 
L 1150.507493 443.442969 
L 1153.294705 607.874395 
L 1156.081918 629.421815 
L 1158.869131 626.173676 
L 1161.656344 632.279594 
L 1164.443556 631.643521 
L 1167.230769 643.071375 
L 1170.017982 535.519289 
L 1172.805195 571.93613 
L 1175.592408 611.48271 
L 1178.37962 653.355432 
L 1181.166833 641.391901 
L 1183.954046 627.114196 
L 1186.741259 598.45505 
L 1189.528472 482.548059 
L 1192.315684 408.156404 
L 1195.102897 500.942915 
L 1197.89011 509.501667 
L 1200.677323 512.965388 
L 1203.464535 564.496251 
L 1206.251748 610.352853 
L 1209.038961 586.69666 
L 1211.826174 623.317166 
L 1214.613387 639.982235 
L 1217.400599 654.781575 
L 1220.187812 619.115917 
L 1222.975025 612.24923 
L 1225.762238 521.793973 
L 1228.549451 450.395755 
L 1231.336663 477.160589 
L 1234.123876 499.228543 
L 1236.911089 416.380974 
L 1239.698302 566.951106 
L 1242.485514 496.01038 
L 1245.272727 465.295062 
L 1245.272727 465.295062 
" style="fill:none;stroke:#ff7f0e;stroke-linecap:square;stroke-width:1.5;"/>
   </g>
   <g id="patch_3">
    <path d="M 180 756 
L 180 103.68 
" style="fill:none;stroke:#000000;stroke-linecap:square;stroke-linejoin:miter;stroke-width:0.8;"/>
   </g>
   <g id="patch_4">
    <path d="M 1296 756 
L 1296 103.68 
" style="fill:none;stroke:#000000;stroke-linecap:square;stroke-linejoin:miter;stroke-width:0.8;"/>
   </g>
   <g id="patch_5">
    <path d="M 180 756 
L 1296 756 
" style="fill:none;stroke:#000000;stroke-linecap:square;stroke-linejoin:miter;stroke-width:0.8;"/>
   </g>
   <g id="patch_6">
    <path d="M 180 103.68 
L 1296 103.68 
" style="fill:none;stroke:#000000;stroke-linecap:square;stroke-linejoin:miter;stroke-width:0.8;"/>
   </g>
   <g id="text_17">
    <!-- PM10 Time-series (Station: BETN043) 2018: Island LSTM MIMO NARX-1 prediction (MSE: 135.56, RMSE: 11.64, MAE: 9.44, MAPE: 342.82%, SMAPE: 60.81%, R2: 0.1, IOA: 73.62%) -->
    <defs>
     <path d="M 19.671875 64.796875 
L 19.671875 37.40625 
L 32.078125 37.40625 
Q 38.96875 37.40625 42.71875 40.96875 
Q 46.484375 44.53125 46.484375 51.125 
Q 46.484375 57.671875 42.71875 61.234375 
Q 38.96875 64.796875 32.078125 64.796875 
z
M 9.8125 72.90625 
L 32.078125 72.90625 
Q 44.34375 72.90625 50.609375 67.359375 
Q 56.890625 61.8125 56.890625 51.125 
Q 56.890625 40.328125 50.609375 34.8125 
Q 44.34375 29.296875 32.078125 29.296875 
L 19.671875 29.296875 
L 19.671875 0 
L 9.8125 0 
z
" id="DejaVuSans-80"/>
     <path d="M 9.8125 72.90625 
L 24.515625 72.90625 
L 43.109375 23.296875 
L 61.8125 72.90625 
L 76.515625 72.90625 
L 76.515625 0 
L 66.890625 0 
L 66.890625 64.015625 
L 48.09375 14.015625 
L 38.1875 14.015625 
L 19.390625 64.015625 
L 19.390625 0 
L 9.8125 0 
z
" id="DejaVuSans-77"/>
     <path d="M -0.296875 72.90625 
L 61.375 72.90625 
L 61.375 64.59375 
L 35.5 64.59375 
L 35.5 0 
L 25.59375 0 
L 25.59375 64.59375 
L -0.296875 64.59375 
z
" id="DejaVuSans-84"/>
     <path d="M 9.421875 54.6875 
L 18.40625 54.6875 
L 18.40625 0 
L 9.421875 0 
z
M 9.421875 75.984375 
L 18.40625 75.984375 
L 18.40625 64.59375 
L 9.421875 64.59375 
z
" id="DejaVuSans-105"/>
     <path d="M 52 44.1875 
Q 55.375 50.25 60.0625 53.125 
Q 64.75 56 71.09375 56 
Q 79.640625 56 84.28125 50.015625 
Q 88.921875 44.046875 88.921875 33.015625 
L 88.921875 0 
L 79.890625 0 
L 79.890625 32.71875 
Q 79.890625 40.578125 77.09375 44.375 
Q 74.3125 48.1875 68.609375 48.1875 
Q 61.625 48.1875 57.5625 43.546875 
Q 53.515625 38.921875 53.515625 30.90625 
L 53.515625 0 
L 44.484375 0 
L 44.484375 32.71875 
Q 44.484375 40.625 41.703125 44.40625 
Q 38.921875 48.1875 33.109375 48.1875 
Q 26.21875 48.1875 22.15625 43.53125 
Q 18.109375 38.875 18.109375 30.90625 
L 18.109375 0 
L 9.078125 0 
L 9.078125 54.6875 
L 18.109375 54.6875 
L 18.109375 46.1875 
Q 21.1875 51.21875 25.484375 53.609375 
Q 29.78125 56 35.6875 56 
Q 41.65625 56 45.828125 52.96875 
Q 50 49.953125 52 44.1875 
z
" id="DejaVuSans-109"/>
     <path d="M 4.890625 31.390625 
L 31.203125 31.390625 
L 31.203125 23.390625 
L 4.890625 23.390625 
z
" id="DejaVuSans-45"/>
     <path d="M 31 75.875 
Q 24.46875 64.65625 21.28125 53.65625 
Q 18.109375 42.671875 18.109375 31.390625 
Q 18.109375 20.125 21.3125 9.0625 
Q 24.515625 -2 31 -13.1875 
L 23.1875 -13.1875 
Q 15.875 -1.703125 12.234375 9.375 
Q 8.59375 20.453125 8.59375 31.390625 
Q 8.59375 42.28125 12.203125 53.3125 
Q 15.828125 64.359375 23.1875 75.875 
z
" id="DejaVuSans-40"/>
     <path d="M 18.3125 70.21875 
L 18.3125 54.6875 
L 36.8125 54.6875 
L 36.8125 47.703125 
L 18.3125 47.703125 
L 18.3125 18.015625 
Q 18.3125 11.328125 20.140625 9.421875 
Q 21.96875 7.515625 27.59375 7.515625 
L 36.8125 7.515625 
L 36.8125 0 
L 27.59375 0 
Q 17.1875 0 13.234375 3.875 
Q 9.28125 7.765625 9.28125 18.015625 
L 9.28125 47.703125 
L 2.6875 47.703125 
L 2.6875 54.6875 
L 9.28125 54.6875 
L 9.28125 70.21875 
z
" id="DejaVuSans-116"/>
     <path d="M 11.71875 12.40625 
L 22.015625 12.40625 
L 22.015625 0 
L 11.71875 0 
z
M 11.71875 51.703125 
L 22.015625 51.703125 
L 22.015625 39.3125 
L 11.71875 39.3125 
z
" id="DejaVuSans-58"/>
     <path d="M 19.671875 34.8125 
L 19.671875 8.109375 
L 35.5 8.109375 
Q 43.453125 8.109375 47.28125 11.40625 
Q 51.125 14.703125 51.125 21.484375 
Q 51.125 28.328125 47.28125 31.5625 
Q 43.453125 34.8125 35.5 34.8125 
z
M 19.671875 64.796875 
L 19.671875 42.828125 
L 34.28125 42.828125 
Q 41.5 42.828125 45.03125 45.53125 
Q 48.578125 48.25 48.578125 53.8125 
Q 48.578125 59.328125 45.03125 62.0625 
Q 41.5 64.796875 34.28125 64.796875 
z
M 9.8125 72.90625 
L 35.015625 72.90625 
Q 46.296875 72.90625 52.390625 68.21875 
Q 58.5 63.53125 58.5 54.890625 
Q 58.5 48.1875 55.375 44.234375 
Q 52.25 40.28125 46.1875 39.3125 
Q 53.46875 37.75 57.5 32.78125 
Q 61.53125 27.828125 61.53125 20.40625 
Q 61.53125 10.640625 54.890625 5.3125 
Q 48.25 0 35.984375 0 
L 9.8125 0 
z
" id="DejaVuSans-66"/>
     <path d="M 9.8125 72.90625 
L 55.90625 72.90625 
L 55.90625 64.59375 
L 19.671875 64.59375 
L 19.671875 43.015625 
L 54.390625 43.015625 
L 54.390625 34.71875 
L 19.671875 34.71875 
L 19.671875 8.296875 
L 56.78125 8.296875 
L 56.78125 0 
L 9.8125 0 
z
" id="DejaVuSans-69"/>
     <path d="M 9.8125 72.90625 
L 23.09375 72.90625 
L 55.421875 11.921875 
L 55.421875 72.90625 
L 64.984375 72.90625 
L 64.984375 0 
L 51.703125 0 
L 19.390625 60.984375 
L 19.390625 0 
L 9.8125 0 
z
" id="DejaVuSans-78"/>
     <path d="M 8.015625 75.875 
L 15.828125 75.875 
Q 23.140625 64.359375 26.78125 53.3125 
Q 30.421875 42.28125 30.421875 31.390625 
Q 30.421875 20.453125 26.78125 9.375 
Q 23.140625 -1.703125 15.828125 -13.1875 
L 8.015625 -13.1875 
Q 14.5 -2 17.703125 9.0625 
Q 20.90625 20.125 20.90625 31.390625 
Q 20.90625 42.671875 17.703125 53.65625 
Q 14.5 64.65625 8.015625 75.875 
z
" id="DejaVuSans-41"/>
     <path d="M 31.78125 34.625 
Q 24.75 34.625 20.71875 30.859375 
Q 16.703125 27.09375 16.703125 20.515625 
Q 16.703125 13.921875 20.71875 10.15625 
Q 24.75 6.390625 31.78125 6.390625 
Q 38.8125 6.390625 42.859375 10.171875 
Q 46.921875 13.96875 46.921875 20.515625 
Q 46.921875 27.09375 42.890625 30.859375 
Q 38.875 34.625 31.78125 34.625 
z
M 21.921875 38.8125 
Q 15.578125 40.375 12.03125 44.71875 
Q 8.5 49.078125 8.5 55.328125 
Q 8.5 64.0625 14.71875 69.140625 
Q 20.953125 74.21875 31.78125 74.21875 
Q 42.671875 74.21875 48.875 69.140625 
Q 55.078125 64.0625 55.078125 55.328125 
Q 55.078125 49.078125 51.53125 44.71875 
Q 48 40.375 41.703125 38.8125 
Q 48.828125 37.15625 52.796875 32.3125 
Q 56.78125 27.484375 56.78125 20.515625 
Q 56.78125 9.90625 50.3125 4.234375 
Q 43.84375 -1.421875 31.78125 -1.421875 
Q 19.734375 -1.421875 13.25 4.234375 
Q 6.78125 9.90625 6.78125 20.515625 
Q 6.78125 27.484375 10.78125 32.3125 
Q 14.796875 37.15625 21.921875 38.8125 
z
M 18.3125 54.390625 
Q 18.3125 48.734375 21.84375 45.5625 
Q 25.390625 42.390625 31.78125 42.390625 
Q 38.140625 42.390625 41.71875 45.5625 
Q 45.3125 48.734375 45.3125 54.390625 
Q 45.3125 60.0625 41.71875 63.234375 
Q 38.140625 66.40625 31.78125 66.40625 
Q 25.390625 66.40625 21.84375 63.234375 
Q 18.3125 60.0625 18.3125 54.390625 
z
" id="DejaVuSans-56"/>
     <path d="M 9.8125 72.90625 
L 19.671875 72.90625 
L 19.671875 0 
L 9.8125 0 
z
" id="DejaVuSans-73"/>
     <path d="M 45.40625 46.390625 
L 45.40625 75.984375 
L 54.390625 75.984375 
L 54.390625 0 
L 45.40625 0 
L 45.40625 8.203125 
Q 42.578125 3.328125 38.25 0.953125 
Q 33.9375 -1.421875 27.875 -1.421875 
Q 17.96875 -1.421875 11.734375 6.484375 
Q 5.515625 14.40625 5.515625 27.296875 
Q 5.515625 40.1875 11.734375 48.09375 
Q 17.96875 56 27.875 56 
Q 33.9375 56 38.25 53.625 
Q 42.578125 51.265625 45.40625 46.390625 
z
M 14.796875 27.296875 
Q 14.796875 17.390625 18.875 11.75 
Q 22.953125 6.109375 30.078125 6.109375 
Q 37.203125 6.109375 41.296875 11.75 
Q 45.40625 17.390625 45.40625 27.296875 
Q 45.40625 37.203125 41.296875 42.84375 
Q 37.203125 48.484375 30.078125 48.484375 
Q 22.953125 48.484375 18.875 42.84375 
Q 14.796875 37.203125 14.796875 27.296875 
z
" id="DejaVuSans-100"/>
     <path d="M 9.8125 72.90625 
L 19.671875 72.90625 
L 19.671875 8.296875 
L 55.171875 8.296875 
L 55.171875 0 
L 9.8125 0 
z
" id="DejaVuSans-76"/>
     <path d="M 39.40625 66.21875 
Q 28.65625 66.21875 22.328125 58.203125 
Q 16.015625 50.203125 16.015625 36.375 
Q 16.015625 22.609375 22.328125 14.59375 
Q 28.65625 6.59375 39.40625 6.59375 
Q 50.140625 6.59375 56.421875 14.59375 
Q 62.703125 22.609375 62.703125 36.375 
Q 62.703125 50.203125 56.421875 58.203125 
Q 50.140625 66.21875 39.40625 66.21875 
z
M 39.40625 74.21875 
Q 54.734375 74.21875 63.90625 63.9375 
Q 73.09375 53.65625 73.09375 36.375 
Q 73.09375 19.140625 63.90625 8.859375 
Q 54.734375 -1.421875 39.40625 -1.421875 
Q 24.03125 -1.421875 14.8125 8.828125 
Q 5.609375 19.09375 5.609375 36.375 
Q 5.609375 53.65625 14.8125 63.9375 
Q 24.03125 74.21875 39.40625 74.21875 
z
" id="DejaVuSans-79"/>
     <path d="M 34.1875 63.1875 
L 20.796875 26.90625 
L 47.609375 26.90625 
z
M 28.609375 72.90625 
L 39.796875 72.90625 
L 67.578125 0 
L 57.328125 0 
L 50.6875 18.703125 
L 17.828125 18.703125 
L 11.1875 0 
L 0.78125 0 
z
" id="DejaVuSans-65"/>
     <path d="M 44.390625 34.1875 
Q 47.5625 33.109375 50.5625 29.59375 
Q 53.5625 26.078125 56.59375 19.921875 
L 66.609375 0 
L 56 0 
L 46.6875 18.703125 
Q 43.0625 26.03125 39.671875 28.421875 
Q 36.28125 30.8125 30.421875 30.8125 
L 19.671875 30.8125 
L 19.671875 0 
L 9.8125 0 
L 9.8125 72.90625 
L 32.078125 72.90625 
Q 44.578125 72.90625 50.734375 67.671875 
Q 56.890625 62.453125 56.890625 51.90625 
Q 56.890625 45.015625 53.6875 40.46875 
Q 50.484375 35.9375 44.390625 34.1875 
z
M 19.671875 64.796875 
L 19.671875 38.921875 
L 32.078125 38.921875 
Q 39.203125 38.921875 42.84375 42.21875 
Q 46.484375 45.515625 46.484375 51.90625 
Q 46.484375 58.296875 42.84375 61.546875 
Q 39.203125 64.796875 32.078125 64.796875 
z
" id="DejaVuSans-82"/>
     <path d="M 6.296875 72.90625 
L 16.890625 72.90625 
L 35.015625 45.796875 
L 53.21875 72.90625 
L 63.8125 72.90625 
L 40.375 37.890625 
L 65.375 0 
L 54.78125 0 
L 34.28125 31 
L 13.625 0 
L 2.984375 0 
L 29 38.921875 
z
" id="DejaVuSans-88"/>
     <path d="M 18.109375 8.203125 
L 18.109375 -20.796875 
L 9.078125 -20.796875 
L 9.078125 54.6875 
L 18.109375 54.6875 
L 18.109375 46.390625 
Q 20.953125 51.265625 25.265625 53.625 
Q 29.59375 56 35.59375 56 
Q 45.5625 56 51.78125 48.09375 
Q 58.015625 40.1875 58.015625 27.296875 
Q 58.015625 14.40625 51.78125 6.484375 
Q 45.5625 -1.421875 35.59375 -1.421875 
Q 29.59375 -1.421875 25.265625 0.953125 
Q 20.953125 3.328125 18.109375 8.203125 
z
M 48.6875 27.296875 
Q 48.6875 37.203125 44.609375 42.84375 
Q 40.53125 48.484375 33.40625 48.484375 
Q 26.265625 48.484375 22.1875 42.84375 
Q 18.109375 37.203125 18.109375 27.296875 
Q 18.109375 17.390625 22.1875 11.75 
Q 26.265625 6.109375 33.40625 6.109375 
Q 40.53125 6.109375 44.609375 11.75 
Q 48.6875 17.390625 48.6875 27.296875 
z
" id="DejaVuSans-112"/>
     <path d="M 48.78125 52.59375 
L 48.78125 44.1875 
Q 44.96875 46.296875 41.140625 47.34375 
Q 37.3125 48.390625 33.40625 48.390625 
Q 24.65625 48.390625 19.8125 42.84375 
Q 14.984375 37.3125 14.984375 27.296875 
Q 14.984375 17.28125 19.8125 11.734375 
Q 24.65625 6.203125 33.40625 6.203125 
Q 37.3125 6.203125 41.140625 7.25 
Q 44.96875 8.296875 48.78125 10.40625 
L 48.78125 2.09375 
Q 45.015625 0.34375 40.984375 -0.53125 
Q 36.96875 -1.421875 32.421875 -1.421875 
Q 20.0625 -1.421875 12.78125 6.34375 
Q 5.515625 14.109375 5.515625 27.296875 
Q 5.515625 40.671875 12.859375 48.328125 
Q 20.21875 56 33.015625 56 
Q 37.15625 56 41.109375 55.140625 
Q 45.0625 54.296875 48.78125 52.59375 
z
" id="DejaVuSans-99"/>
     <path d="M 10.6875 12.40625 
L 21 12.40625 
L 21 0 
L 10.6875 0 
z
" id="DejaVuSans-46"/>
     <path d="M 11.71875 12.40625 
L 22.015625 12.40625 
L 22.015625 4 
L 14.015625 -11.625 
L 7.71875 -11.625 
L 11.71875 4 
z
" id="DejaVuSans-44"/>
     <path d="M 10.984375 1.515625 
L 10.984375 10.5 
Q 14.703125 8.734375 18.5 7.8125 
Q 22.3125 6.890625 25.984375 6.890625 
Q 35.75 6.890625 40.890625 13.453125 
Q 46.046875 20.015625 46.78125 33.40625 
Q 43.953125 29.203125 39.59375 26.953125 
Q 35.25 24.703125 29.984375 24.703125 
Q 19.046875 24.703125 12.671875 31.3125 
Q 6.296875 37.9375 6.296875 49.421875 
Q 6.296875 60.640625 12.9375 67.421875 
Q 19.578125 74.21875 30.609375 74.21875 
Q 43.265625 74.21875 49.921875 64.515625 
Q 56.59375 54.828125 56.59375 36.375 
Q 56.59375 19.140625 48.40625 8.859375 
Q 40.234375 -1.421875 26.421875 -1.421875 
Q 22.703125 -1.421875 18.890625 -0.6875 
Q 15.09375 0.046875 10.984375 1.515625 
z
M 30.609375 32.421875 
Q 37.25 32.421875 41.125 36.953125 
Q 45.015625 41.5 45.015625 49.421875 
Q 45.015625 57.28125 41.125 61.84375 
Q 37.25 66.40625 30.609375 66.40625 
Q 23.96875 66.40625 20.09375 61.84375 
Q 16.21875 57.28125 16.21875 49.421875 
Q 16.21875 41.5 20.09375 36.953125 
Q 23.96875 32.421875 30.609375 32.421875 
z
" id="DejaVuSans-57"/>
     <path d="M 72.703125 32.078125 
Q 68.453125 32.078125 66.03125 28.46875 
Q 63.625 24.859375 63.625 18.40625 
Q 63.625 12.0625 66.03125 8.421875 
Q 68.453125 4.78125 72.703125 4.78125 
Q 76.859375 4.78125 79.265625 8.421875 
Q 81.6875 12.0625 81.6875 18.40625 
Q 81.6875 24.8125 79.265625 28.4375 
Q 76.859375 32.078125 72.703125 32.078125 
z
M 72.703125 38.28125 
Q 80.421875 38.28125 84.953125 32.90625 
Q 89.5 27.546875 89.5 18.40625 
Q 89.5 9.28125 84.9375 3.921875 
Q 80.375 -1.421875 72.703125 -1.421875 
Q 64.890625 -1.421875 60.34375 3.921875 
Q 55.8125 9.28125 55.8125 18.40625 
Q 55.8125 27.59375 60.375 32.9375 
Q 64.9375 38.28125 72.703125 38.28125 
z
M 22.3125 68.015625 
Q 18.109375 68.015625 15.6875 64.375 
Q 13.28125 60.75 13.28125 54.390625 
Q 13.28125 47.953125 15.671875 44.328125 
Q 18.0625 40.71875 22.3125 40.71875 
Q 26.5625 40.71875 28.96875 44.328125 
Q 31.390625 47.953125 31.390625 54.390625 
Q 31.390625 60.6875 28.953125 64.34375 
Q 26.515625 68.015625 22.3125 68.015625 
z
M 66.40625 74.21875 
L 74.21875 74.21875 
L 28.609375 -1.421875 
L 20.796875 -1.421875 
z
M 22.3125 74.21875 
Q 30.03125 74.21875 34.609375 68.875 
Q 39.203125 63.53125 39.203125 54.390625 
Q 39.203125 45.171875 34.640625 39.84375 
Q 30.078125 34.515625 22.3125 34.515625 
Q 14.546875 34.515625 10.03125 39.859375 
Q 5.515625 45.21875 5.515625 54.390625 
Q 5.515625 63.484375 10.046875 68.84375 
Q 14.59375 74.21875 22.3125 74.21875 
z
" id="DejaVuSans-37"/>
     <path d="M 8.203125 72.90625 
L 55.078125 72.90625 
L 55.078125 68.703125 
L 28.609375 0 
L 18.3125 0 
L 43.21875 64.59375 
L 8.203125 64.59375 
z
" id="DejaVuSans-55"/>
    </defs>
    <g transform="translate(203.937188 97.68)scale(0.12 -0.12)">
     <use xlink:href="#DejaVuSans-80"/>
     <use x="60.302734" xlink:href="#DejaVuSans-77"/>
     <use x="146.582031" xlink:href="#DejaVuSans-49"/>
     <use x="210.205078" xlink:href="#DejaVuSans-48"/>
     <use x="273.828125" xlink:href="#DejaVuSans-32"/>
     <use x="305.615234" xlink:href="#DejaVuSans-84"/>
     <use x="366.652344" xlink:href="#DejaVuSans-105"/>
     <use x="394.435547" xlink:href="#DejaVuSans-109"/>
     <use x="491.847656" xlink:href="#DejaVuSans-101"/>
     <use x="553.371094" xlink:href="#DejaVuSans-45"/>
     <use x="589.455078" xlink:href="#DejaVuSans-115"/>
     <use x="641.554688" xlink:href="#DejaVuSans-101"/>
     <use x="703.078125" xlink:href="#DejaVuSans-114"/>
     <use x="744.191406" xlink:href="#DejaVuSans-105"/>
     <use x="771.974609" xlink:href="#DejaVuSans-101"/>
     <use x="833.498047" xlink:href="#DejaVuSans-115"/>
     <use x="885.597656" xlink:href="#DejaVuSans-32"/>
     <use x="917.384766" xlink:href="#DejaVuSans-40"/>
     <use x="956.398438" xlink:href="#DejaVuSans-83"/>
     <use x="1019.875" xlink:href="#DejaVuSans-116"/>
     <use x="1059.083984" xlink:href="#DejaVuSans-97"/>
     <use x="1120.363281" xlink:href="#DejaVuSans-116"/>
     <use x="1159.572266" xlink:href="#DejaVuSans-105"/>
     <use x="1187.355469" xlink:href="#DejaVuSans-111"/>
     <use x="1248.537109" xlink:href="#DejaVuSans-110"/>
     <use x="1311.916016" xlink:href="#DejaVuSans-58"/>
     <use x="1345.607422" xlink:href="#DejaVuSans-32"/>
     <use x="1377.394531" xlink:href="#DejaVuSans-66"/>
     <use x="1445.998047" xlink:href="#DejaVuSans-69"/>
     <use x="1509.181641" xlink:href="#DejaVuSans-84"/>
     <use x="1570.265625" xlink:href="#DejaVuSans-78"/>
     <use x="1645.070312" xlink:href="#DejaVuSans-48"/>
     <use x="1708.693359" xlink:href="#DejaVuSans-52"/>
     <use x="1772.316406" xlink:href="#DejaVuSans-51"/>
     <use x="1835.939453" xlink:href="#DejaVuSans-41"/>
     <use x="1874.953125" xlink:href="#DejaVuSans-32"/>
     <use x="1906.740234" xlink:href="#DejaVuSans-50"/>
     <use x="1970.363281" xlink:href="#DejaVuSans-48"/>
     <use x="2033.986328" xlink:href="#DejaVuSans-49"/>
     <use x="2097.609375" xlink:href="#DejaVuSans-56"/>
     <use x="2161.232422" xlink:href="#DejaVuSans-58"/>
     <use x="2194.923828" xlink:href="#DejaVuSans-32"/>
     <use x="2226.710938" xlink:href="#DejaVuSans-73"/>
     <use x="2256.203125" xlink:href="#DejaVuSans-115"/>
     <use x="2308.302734" xlink:href="#DejaVuSans-108"/>
     <use x="2336.085938" xlink:href="#DejaVuSans-97"/>
     <use x="2397.365234" xlink:href="#DejaVuSans-110"/>
     <use x="2460.744141" xlink:href="#DejaVuSans-100"/>
     <use x="2524.220703" xlink:href="#DejaVuSans-32"/>
     <use x="2556.007812" xlink:href="#DejaVuSans-76"/>
     <use x="2611.720703" xlink:href="#DejaVuSans-83"/>
     <use x="2675.197266" xlink:href="#DejaVuSans-84"/>
     <use x="2736.28125" xlink:href="#DejaVuSans-77"/>
     <use x="2822.560547" xlink:href="#DejaVuSans-32"/>
     <use x="2854.347656" xlink:href="#DejaVuSans-77"/>
     <use x="2940.626953" xlink:href="#DejaVuSans-73"/>
     <use x="2970.119141" xlink:href="#DejaVuSans-77"/>
     <use x="3056.398438" xlink:href="#DejaVuSans-79"/>
     <use x="3135.109375" xlink:href="#DejaVuSans-32"/>
     <use x="3166.896484" xlink:href="#DejaVuSans-78"/>
     <use x="3241.701172" xlink:href="#DejaVuSans-65"/>
     <use x="3310.109375" xlink:href="#DejaVuSans-82"/>
     <use x="3379.591797" xlink:href="#DejaVuSans-88"/>
     <use x="3448.019531" xlink:href="#DejaVuSans-45"/>
     <use x="3484.103516" xlink:href="#DejaVuSans-49"/>
     <use x="3547.726562" xlink:href="#DejaVuSans-32"/>
     <use x="3579.513672" xlink:href="#DejaVuSans-112"/>
     <use x="3642.990234" xlink:href="#DejaVuSans-114"/>
     <use x="3684.072266" xlink:href="#DejaVuSans-101"/>
     <use x="3745.595703" xlink:href="#DejaVuSans-100"/>
     <use x="3809.072266" xlink:href="#DejaVuSans-105"/>
     <use x="3836.855469" xlink:href="#DejaVuSans-99"/>
     <use x="3891.835938" xlink:href="#DejaVuSans-116"/>
     <use x="3931.044922" xlink:href="#DejaVuSans-105"/>
     <use x="3958.828125" xlink:href="#DejaVuSans-111"/>
     <use x="4020.009766" xlink:href="#DejaVuSans-110"/>
     <use x="4083.388672" xlink:href="#DejaVuSans-32"/>
     <use x="4115.175781" xlink:href="#DejaVuSans-40"/>
     <use x="4154.189453" xlink:href="#DejaVuSans-77"/>
     <use x="4240.46875" xlink:href="#DejaVuSans-83"/>
     <use x="4303.945312" xlink:href="#DejaVuSans-69"/>
     <use x="4367.128906" xlink:href="#DejaVuSans-58"/>
     <use x="4400.820312" xlink:href="#DejaVuSans-32"/>
     <use x="4432.607422" xlink:href="#DejaVuSans-49"/>
     <use x="4496.230469" xlink:href="#DejaVuSans-51"/>
     <use x="4559.853516" xlink:href="#DejaVuSans-53"/>
     <use x="4623.476562" xlink:href="#DejaVuSans-46"/>
     <use x="4655.263672" xlink:href="#DejaVuSans-53"/>
     <use x="4718.886719" xlink:href="#DejaVuSans-54"/>
     <use x="4782.509766" xlink:href="#DejaVuSans-44"/>
     <use x="4814.296875" xlink:href="#DejaVuSans-32"/>
     <use x="4846.083984" xlink:href="#DejaVuSans-82"/>
     <use x="4915.566406" xlink:href="#DejaVuSans-77"/>
     <use x="5001.845703" xlink:href="#DejaVuSans-83"/>
     <use x="5065.322266" xlink:href="#DejaVuSans-69"/>
     <use x="5128.505859" xlink:href="#DejaVuSans-58"/>
     <use x="5162.197266" xlink:href="#DejaVuSans-32"/>
     <use x="5193.984375" xlink:href="#DejaVuSans-49"/>
     <use x="5257.607422" xlink:href="#DejaVuSans-49"/>
     <use x="5321.230469" xlink:href="#DejaVuSans-46"/>
     <use x="5353.017578" xlink:href="#DejaVuSans-54"/>
     <use x="5416.640625" xlink:href="#DejaVuSans-52"/>
     <use x="5480.263672" xlink:href="#DejaVuSans-44"/>
     <use x="5512.050781" xlink:href="#DejaVuSans-32"/>
     <use x="5543.837891" xlink:href="#DejaVuSans-77"/>
     <use x="5630.117188" xlink:href="#DejaVuSans-65"/>
     <use x="5698.525391" xlink:href="#DejaVuSans-69"/>
     <use x="5761.708984" xlink:href="#DejaVuSans-58"/>
     <use x="5795.400391" xlink:href="#DejaVuSans-32"/>
     <use x="5827.1875" xlink:href="#DejaVuSans-57"/>
     <use x="5890.810547" xlink:href="#DejaVuSans-46"/>
     <use x="5922.597656" xlink:href="#DejaVuSans-52"/>
     <use x="5986.220703" xlink:href="#DejaVuSans-52"/>
     <use x="6049.84375" xlink:href="#DejaVuSans-44"/>
     <use x="6081.630859" xlink:href="#DejaVuSans-32"/>
     <use x="6113.417969" xlink:href="#DejaVuSans-77"/>
     <use x="6199.697266" xlink:href="#DejaVuSans-65"/>
     <use x="6268.105469" xlink:href="#DejaVuSans-80"/>
     <use x="6328.408203" xlink:href="#DejaVuSans-69"/>
     <use x="6391.591797" xlink:href="#DejaVuSans-58"/>
     <use x="6425.283203" xlink:href="#DejaVuSans-32"/>
     <use x="6457.070312" xlink:href="#DejaVuSans-51"/>
     <use x="6520.693359" xlink:href="#DejaVuSans-52"/>
     <use x="6584.316406" xlink:href="#DejaVuSans-50"/>
     <use x="6647.939453" xlink:href="#DejaVuSans-46"/>
     <use x="6679.726562" xlink:href="#DejaVuSans-56"/>
     <use x="6743.349609" xlink:href="#DejaVuSans-50"/>
     <use x="6806.972656" xlink:href="#DejaVuSans-37"/>
     <use x="6901.992188" xlink:href="#DejaVuSans-44"/>
     <use x="6933.779297" xlink:href="#DejaVuSans-32"/>
     <use x="6965.566406" xlink:href="#DejaVuSans-83"/>
     <use x="7029.042969" xlink:href="#DejaVuSans-77"/>
     <use x="7115.322266" xlink:href="#DejaVuSans-65"/>
     <use x="7183.730469" xlink:href="#DejaVuSans-80"/>
     <use x="7244.033203" xlink:href="#DejaVuSans-69"/>
     <use x="7307.216797" xlink:href="#DejaVuSans-58"/>
     <use x="7340.908203" xlink:href="#DejaVuSans-32"/>
     <use x="7372.695312" xlink:href="#DejaVuSans-54"/>
     <use x="7436.318359" xlink:href="#DejaVuSans-48"/>
     <use x="7499.941406" xlink:href="#DejaVuSans-46"/>
     <use x="7531.728516" xlink:href="#DejaVuSans-56"/>
     <use x="7595.351562" xlink:href="#DejaVuSans-49"/>
     <use x="7658.974609" xlink:href="#DejaVuSans-37"/>
     <use x="7753.994141" xlink:href="#DejaVuSans-44"/>
     <use x="7785.78125" xlink:href="#DejaVuSans-32"/>
     <use x="7817.568359" xlink:href="#DejaVuSans-82"/>
     <use x="7887.050781" xlink:href="#DejaVuSans-50"/>
     <use x="7950.673828" xlink:href="#DejaVuSans-58"/>
     <use x="7984.365234" xlink:href="#DejaVuSans-32"/>
     <use x="8016.152344" xlink:href="#DejaVuSans-48"/>
     <use x="8079.775391" xlink:href="#DejaVuSans-46"/>
     <use x="8111.5625" xlink:href="#DejaVuSans-49"/>
     <use x="8175.185547" xlink:href="#DejaVuSans-44"/>
     <use x="8206.972656" xlink:href="#DejaVuSans-32"/>
     <use x="8238.759766" xlink:href="#DejaVuSans-73"/>
     <use x="8268.251953" xlink:href="#DejaVuSans-79"/>
     <use x="8346.947266" xlink:href="#DejaVuSans-65"/>
     <use x="8415.339844" xlink:href="#DejaVuSans-58"/>
     <use x="8449.03125" xlink:href="#DejaVuSans-32"/>
     <use x="8480.818359" xlink:href="#DejaVuSans-55"/>
     <use x="8544.441406" xlink:href="#DejaVuSans-51"/>
     <use x="8608.064453" xlink:href="#DejaVuSans-46"/>
     <use x="8639.851562" xlink:href="#DejaVuSans-54"/>
     <use x="8703.474609" xlink:href="#DejaVuSans-50"/>
     <use x="8767.097656" xlink:href="#DejaVuSans-37"/>
     <use x="8862.117188" xlink:href="#DejaVuSans-41"/>
    </g>
   </g>
   <g id="legend_1">
    <g id="patch_7">
     <path d="M 1209.34375 141.03625 
L 1289 141.03625 
Q 1291 141.03625 1291 139.03625 
L 1291 110.68 
Q 1291 108.68 1289 108.68 
L 1209.34375 108.68 
Q 1207.34375 108.68 1207.34375 110.68 
L 1207.34375 139.03625 
Q 1207.34375 141.03625 1209.34375 141.03625 
z
" style="fill:#ffffff;opacity:0.8;stroke:#cccccc;stroke-linejoin:miter;"/>
    </g>
    <g id="line2d_18">
     <path d="M 1211.34375 116.778437 
L 1231.34375 116.778437 
" style="fill:none;stroke:#1f77b4;stroke-linecap:square;stroke-width:1.5;"/>
    </g>
    <g id="line2d_19"/>
    <g id="text_18">
     <!-- expected -->
     <defs>
      <path d="M 54.890625 54.6875 
L 35.109375 28.078125 
L 55.90625 0 
L 45.3125 0 
L 29.390625 21.484375 
L 13.484375 0 
L 2.875 0 
L 24.125 28.609375 
L 4.6875 54.6875 
L 15.28125 54.6875 
L 29.78125 35.203125 
L 44.28125 54.6875 
z
" id="DejaVuSans-120"/>
     </defs>
     <g transform="translate(1239.34375 120.278437)scale(0.1 -0.1)">
      <use xlink:href="#DejaVuSans-101"/>
      <use x="61.507812" xlink:href="#DejaVuSans-120"/>
      <use x="120.6875" xlink:href="#DejaVuSans-112"/>
      <use x="184.164062" xlink:href="#DejaVuSans-101"/>
      <use x="245.6875" xlink:href="#DejaVuSans-99"/>
      <use x="300.667969" xlink:href="#DejaVuSans-116"/>
      <use x="339.876953" xlink:href="#DejaVuSans-101"/>
      <use x="401.400391" xlink:href="#DejaVuSans-100"/>
     </g>
    </g>
    <g id="line2d_20">
     <path d="M 1211.34375 131.456563 
L 1231.34375 131.456563 
" style="fill:none;stroke:#ff7f0e;stroke-linecap:square;stroke-width:1.5;"/>
    </g>
    <g id="line2d_21"/>
    <g id="text_19">
     <!-- predicted -->
     <g transform="translate(1239.34375 134.956563)scale(0.1 -0.1)">
      <use xlink:href="#DejaVuSans-112"/>
      <use x="63.476562" xlink:href="#DejaVuSans-114"/>
      <use x="104.558594" xlink:href="#DejaVuSans-101"/>
      <use x="166.082031" xlink:href="#DejaVuSans-100"/>
      <use x="229.558594" xlink:href="#DejaVuSans-105"/>
      <use x="257.341797" xlink:href="#DejaVuSans-99"/>
      <use x="312.322266" xlink:href="#DejaVuSans-116"/>
      <use x="351.53125" xlink:href="#DejaVuSans-101"/>
      <use x="413.054688" xlink:href="#DejaVuSans-100"/>
     </g>
    </g>
   </g>
  </g>
 </g>
 <defs>
  <clipPath id="p9c08ae176b">
   <rect height="652.32" width="1116" x="180" y="103.68"/>
  </clipPath>
 </defs>
</svg>
