<?xml version="1.0" encoding="utf-8" standalone="no"?>
<!DOCTYPE svg PUBLIC "-//W3C//DTD SVG 1.1//EN"
  "http://www.w3.org/Graphics/SVG/1.1/DTD/svg11.dtd">
<!-- Created with matplotlib (https://matplotlib.org/) -->
<svg height="864pt" version="1.1" viewBox="0 0 1440 864" width="1440pt" xmlns="http://www.w3.org/2000/svg" xmlns:xlink="http://www.w3.org/1999/xlink">
 <defs>
  <style type="text/css">
*{stroke-linecap:butt;stroke-linejoin:round;white-space:pre;}
  </style>
 </defs>
 <g id="figure_1">
  <g id="patch_1">
   <path d="M 0 864 
L 1440 864 
L 1440 0 
L 0 0 
z
" style="fill:#ffffff;"/>
  </g>
  <g id="axes_1">
   <g id="patch_2">
    <path d="M 180 756 
L 1296 756 
L 1296 103.68 
L 180 103.68 
z
" style="fill:#ffffff;"/>
   </g>
   <g id="matplotlib.axis_1">
    <g id="xtick_1">
     <g id="line2d_1">
      <defs>
       <path d="M 0 0 
L 0 3.5 
" id="m3339f08abf" style="stroke:#000000;stroke-width:0.8;"/>
      </defs>
      <g>
       <use style="stroke:#000000;stroke-width:0.8;" x="230.727273" xlink:href="#m3339f08abf" y="756"/>
      </g>
     </g>
     <g id="text_1">
      <!-- 0 -->
      <defs>
       <path d="M 31.78125 66.40625 
Q 24.171875 66.40625 20.328125 58.90625 
Q 16.5 51.421875 16.5 36.375 
Q 16.5 21.390625 20.328125 13.890625 
Q 24.171875 6.390625 31.78125 6.390625 
Q 39.453125 6.390625 43.28125 13.890625 
Q 47.125 21.390625 47.125 36.375 
Q 47.125 51.421875 43.28125 58.90625 
Q 39.453125 66.40625 31.78125 66.40625 
z
M 31.78125 74.21875 
Q 44.046875 74.21875 50.515625 64.515625 
Q 56.984375 54.828125 56.984375 36.375 
Q 56.984375 17.96875 50.515625 8.265625 
Q 44.046875 -1.421875 31.78125 -1.421875 
Q 19.53125 -1.421875 13.0625 8.265625 
Q 6.59375 17.96875 6.59375 36.375 
Q 6.59375 54.828125 13.0625 64.515625 
Q 19.53125 74.21875 31.78125 74.21875 
z
" id="DejaVuSans-48"/>
      </defs>
      <g transform="translate(227.546023 770.598438)scale(0.1 -0.1)">
       <use xlink:href="#DejaVuSans-48"/>
      </g>
     </g>
    </g>
    <g id="xtick_2">
     <g id="line2d_2">
      <g>
       <use style="stroke:#000000;stroke-width:0.8;" x="370.087912" xlink:href="#m3339f08abf" y="756"/>
      </g>
     </g>
     <g id="text_2">
      <!-- 50 -->
      <defs>
       <path d="M 10.796875 72.90625 
L 49.515625 72.90625 
L 49.515625 64.59375 
L 19.828125 64.59375 
L 19.828125 46.734375 
Q 21.96875 47.46875 24.109375 47.828125 
Q 26.265625 48.1875 28.421875 48.1875 
Q 40.625 48.1875 47.75 41.5 
Q 54.890625 34.8125 54.890625 23.390625 
Q 54.890625 11.625 47.5625 5.09375 
Q 40.234375 -1.421875 26.90625 -1.421875 
Q 22.3125 -1.421875 17.546875 -0.640625 
Q 12.796875 0.140625 7.71875 1.703125 
L 7.71875 11.625 
Q 12.109375 9.234375 16.796875 8.0625 
Q 21.484375 6.890625 26.703125 6.890625 
Q 35.15625 6.890625 40.078125 11.328125 
Q 45.015625 15.765625 45.015625 23.390625 
Q 45.015625 31 40.078125 35.4375 
Q 35.15625 39.890625 26.703125 39.890625 
Q 22.75 39.890625 18.8125 39.015625 
Q 14.890625 38.140625 10.796875 36.28125 
z
" id="DejaVuSans-53"/>
      </defs>
      <g transform="translate(363.725412 770.598438)scale(0.1 -0.1)">
       <use xlink:href="#DejaVuSans-53"/>
       <use x="63.623047" xlink:href="#DejaVuSans-48"/>
      </g>
     </g>
    </g>
    <g id="xtick_3">
     <g id="line2d_3">
      <g>
       <use style="stroke:#000000;stroke-width:0.8;" x="509.448551" xlink:href="#m3339f08abf" y="756"/>
      </g>
     </g>
     <g id="text_3">
      <!-- 100 -->
      <defs>
       <path d="M 12.40625 8.296875 
L 28.515625 8.296875 
L 28.515625 63.921875 
L 10.984375 60.40625 
L 10.984375 69.390625 
L 28.421875 72.90625 
L 38.28125 72.90625 
L 38.28125 8.296875 
L 54.390625 8.296875 
L 54.390625 0 
L 12.40625 0 
z
" id="DejaVuSans-49"/>
      </defs>
      <g transform="translate(499.904801 770.598438)scale(0.1 -0.1)">
       <use xlink:href="#DejaVuSans-49"/>
       <use x="63.623047" xlink:href="#DejaVuSans-48"/>
       <use x="127.246094" xlink:href="#DejaVuSans-48"/>
      </g>
     </g>
    </g>
    <g id="xtick_4">
     <g id="line2d_4">
      <g>
       <use style="stroke:#000000;stroke-width:0.8;" x="648.809191" xlink:href="#m3339f08abf" y="756"/>
      </g>
     </g>
     <g id="text_4">
      <!-- 150 -->
      <g transform="translate(639.265441 770.598438)scale(0.1 -0.1)">
       <use xlink:href="#DejaVuSans-49"/>
       <use x="63.623047" xlink:href="#DejaVuSans-53"/>
       <use x="127.246094" xlink:href="#DejaVuSans-48"/>
      </g>
     </g>
    </g>
    <g id="xtick_5">
     <g id="line2d_5">
      <g>
       <use style="stroke:#000000;stroke-width:0.8;" x="788.16983" xlink:href="#m3339f08abf" y="756"/>
      </g>
     </g>
     <g id="text_5">
      <!-- 200 -->
      <defs>
       <path d="M 19.1875 8.296875 
L 53.609375 8.296875 
L 53.609375 0 
L 7.328125 0 
L 7.328125 8.296875 
Q 12.9375 14.109375 22.625 23.890625 
Q 32.328125 33.6875 34.8125 36.53125 
Q 39.546875 41.84375 41.421875 45.53125 
Q 43.3125 49.21875 43.3125 52.78125 
Q 43.3125 58.59375 39.234375 62.25 
Q 35.15625 65.921875 28.609375 65.921875 
Q 23.96875 65.921875 18.8125 64.3125 
Q 13.671875 62.703125 7.8125 59.421875 
L 7.8125 69.390625 
Q 13.765625 71.78125 18.9375 73 
Q 24.125 74.21875 28.421875 74.21875 
Q 39.75 74.21875 46.484375 68.546875 
Q 53.21875 62.890625 53.21875 53.421875 
Q 53.21875 48.921875 51.53125 44.890625 
Q 49.859375 40.875 45.40625 35.40625 
Q 44.1875 33.984375 37.640625 27.21875 
Q 31.109375 20.453125 19.1875 8.296875 
z
" id="DejaVuSans-50"/>
      </defs>
      <g transform="translate(778.62608 770.598438)scale(0.1 -0.1)">
       <use xlink:href="#DejaVuSans-50"/>
       <use x="63.623047" xlink:href="#DejaVuSans-48"/>
       <use x="127.246094" xlink:href="#DejaVuSans-48"/>
      </g>
     </g>
    </g>
    <g id="xtick_6">
     <g id="line2d_6">
      <g>
       <use style="stroke:#000000;stroke-width:0.8;" x="927.53047" xlink:href="#m3339f08abf" y="756"/>
      </g>
     </g>
     <g id="text_6">
      <!-- 250 -->
      <g transform="translate(917.98672 770.598438)scale(0.1 -0.1)">
       <use xlink:href="#DejaVuSans-50"/>
       <use x="63.623047" xlink:href="#DejaVuSans-53"/>
       <use x="127.246094" xlink:href="#DejaVuSans-48"/>
      </g>
     </g>
    </g>
    <g id="xtick_7">
     <g id="line2d_7">
      <g>
       <use style="stroke:#000000;stroke-width:0.8;" x="1066.891109" xlink:href="#m3339f08abf" y="756"/>
      </g>
     </g>
     <g id="text_7">
      <!-- 300 -->
      <defs>
       <path d="M 40.578125 39.3125 
Q 47.65625 37.796875 51.625 33 
Q 55.609375 28.21875 55.609375 21.1875 
Q 55.609375 10.40625 48.1875 4.484375 
Q 40.765625 -1.421875 27.09375 -1.421875 
Q 22.515625 -1.421875 17.65625 -0.515625 
Q 12.796875 0.390625 7.625 2.203125 
L 7.625 11.71875 
Q 11.71875 9.328125 16.59375 8.109375 
Q 21.484375 6.890625 26.8125 6.890625 
Q 36.078125 6.890625 40.9375 10.546875 
Q 45.796875 14.203125 45.796875 21.1875 
Q 45.796875 27.640625 41.28125 31.265625 
Q 36.765625 34.90625 28.71875 34.90625 
L 20.21875 34.90625 
L 20.21875 43.015625 
L 29.109375 43.015625 
Q 36.375 43.015625 40.234375 45.921875 
Q 44.09375 48.828125 44.09375 54.296875 
Q 44.09375 59.90625 40.109375 62.90625 
Q 36.140625 65.921875 28.71875 65.921875 
Q 24.65625 65.921875 20.015625 65.03125 
Q 15.375 64.15625 9.8125 62.3125 
L 9.8125 71.09375 
Q 15.4375 72.65625 20.34375 73.4375 
Q 25.25 74.21875 29.59375 74.21875 
Q 40.828125 74.21875 47.359375 69.109375 
Q 53.90625 64.015625 53.90625 55.328125 
Q 53.90625 49.265625 50.4375 45.09375 
Q 46.96875 40.921875 40.578125 39.3125 
z
" id="DejaVuSans-51"/>
      </defs>
      <g transform="translate(1057.347359 770.598438)scale(0.1 -0.1)">
       <use xlink:href="#DejaVuSans-51"/>
       <use x="63.623047" xlink:href="#DejaVuSans-48"/>
       <use x="127.246094" xlink:href="#DejaVuSans-48"/>
      </g>
     </g>
    </g>
    <g id="xtick_8">
     <g id="line2d_8">
      <g>
       <use style="stroke:#000000;stroke-width:0.8;" x="1206.251748" xlink:href="#m3339f08abf" y="756"/>
      </g>
     </g>
     <g id="text_8">
      <!-- 350 -->
      <g transform="translate(1196.707998 770.598438)scale(0.1 -0.1)">
       <use xlink:href="#DejaVuSans-51"/>
       <use x="63.623047" xlink:href="#DejaVuSans-53"/>
       <use x="127.246094" xlink:href="#DejaVuSans-48"/>
      </g>
     </g>
    </g>
   </g>
   <g id="matplotlib.axis_2">
    <g id="ytick_1">
     <g id="line2d_9">
      <defs>
       <path d="M 0 0 
L -3.5 0 
" id="m1b4c404cf3" style="stroke:#000000;stroke-width:0.8;"/>
      </defs>
      <g>
       <use style="stroke:#000000;stroke-width:0.8;" x="180" xlink:href="#m1b4c404cf3" y="729.418938"/>
      </g>
     </g>
     <g id="text_9">
      <!-- 0 -->
      <g transform="translate(166.6375 733.218157)scale(0.1 -0.1)">
       <use xlink:href="#DejaVuSans-48"/>
      </g>
     </g>
    </g>
    <g id="ytick_2">
     <g id="line2d_10">
      <g>
       <use style="stroke:#000000;stroke-width:0.8;" x="180" xlink:href="#m1b4c404cf3" y="642.700088"/>
      </g>
     </g>
     <g id="text_10">
      <!-- 10 -->
      <g transform="translate(160.275 646.499307)scale(0.1 -0.1)">
       <use xlink:href="#DejaVuSans-49"/>
       <use x="63.623047" xlink:href="#DejaVuSans-48"/>
      </g>
     </g>
    </g>
    <g id="ytick_3">
     <g id="line2d_11">
      <g>
       <use style="stroke:#000000;stroke-width:0.8;" x="180" xlink:href="#m1b4c404cf3" y="555.981239"/>
      </g>
     </g>
     <g id="text_11">
      <!-- 20 -->
      <g transform="translate(160.275 559.780458)scale(0.1 -0.1)">
       <use xlink:href="#DejaVuSans-50"/>
       <use x="63.623047" xlink:href="#DejaVuSans-48"/>
      </g>
     </g>
    </g>
    <g id="ytick_4">
     <g id="line2d_12">
      <g>
       <use style="stroke:#000000;stroke-width:0.8;" x="180" xlink:href="#m1b4c404cf3" y="469.262389"/>
      </g>
     </g>
     <g id="text_12">
      <!-- 30 -->
      <g transform="translate(160.275 473.061608)scale(0.1 -0.1)">
       <use xlink:href="#DejaVuSans-51"/>
       <use x="63.623047" xlink:href="#DejaVuSans-48"/>
      </g>
     </g>
    </g>
    <g id="ytick_5">
     <g id="line2d_13">
      <g>
       <use style="stroke:#000000;stroke-width:0.8;" x="180" xlink:href="#m1b4c404cf3" y="382.543539"/>
      </g>
     </g>
     <g id="text_13">
      <!-- 40 -->
      <defs>
       <path d="M 37.796875 64.3125 
L 12.890625 25.390625 
L 37.796875 25.390625 
z
M 35.203125 72.90625 
L 47.609375 72.90625 
L 47.609375 25.390625 
L 58.015625 25.390625 
L 58.015625 17.1875 
L 47.609375 17.1875 
L 47.609375 0 
L 37.796875 0 
L 37.796875 17.1875 
L 4.890625 17.1875 
L 4.890625 26.703125 
z
" id="DejaVuSans-52"/>
      </defs>
      <g transform="translate(160.275 386.342758)scale(0.1 -0.1)">
       <use xlink:href="#DejaVuSans-52"/>
       <use x="63.623047" xlink:href="#DejaVuSans-48"/>
      </g>
     </g>
    </g>
    <g id="ytick_6">
     <g id="line2d_14">
      <g>
       <use style="stroke:#000000;stroke-width:0.8;" x="180" xlink:href="#m1b4c404cf3" y="295.82469"/>
      </g>
     </g>
     <g id="text_14">
      <!-- 50 -->
      <g transform="translate(160.275 299.623908)scale(0.1 -0.1)">
       <use xlink:href="#DejaVuSans-53"/>
       <use x="63.623047" xlink:href="#DejaVuSans-48"/>
      </g>
     </g>
    </g>
    <g id="ytick_7">
     <g id="line2d_15">
      <g>
       <use style="stroke:#000000;stroke-width:0.8;" x="180" xlink:href="#m1b4c404cf3" y="209.10584"/>
      </g>
     </g>
     <g id="text_15">
      <!-- 60 -->
      <defs>
       <path d="M 33.015625 40.375 
Q 26.375 40.375 22.484375 35.828125 
Q 18.609375 31.296875 18.609375 23.390625 
Q 18.609375 15.53125 22.484375 10.953125 
Q 26.375 6.390625 33.015625 6.390625 
Q 39.65625 6.390625 43.53125 10.953125 
Q 47.40625 15.53125 47.40625 23.390625 
Q 47.40625 31.296875 43.53125 35.828125 
Q 39.65625 40.375 33.015625 40.375 
z
M 52.59375 71.296875 
L 52.59375 62.3125 
Q 48.875 64.0625 45.09375 64.984375 
Q 41.3125 65.921875 37.59375 65.921875 
Q 27.828125 65.921875 22.671875 59.328125 
Q 17.53125 52.734375 16.796875 39.40625 
Q 19.671875 43.65625 24.015625 45.921875 
Q 28.375 48.1875 33.59375 48.1875 
Q 44.578125 48.1875 50.953125 41.515625 
Q 57.328125 34.859375 57.328125 23.390625 
Q 57.328125 12.15625 50.6875 5.359375 
Q 44.046875 -1.421875 33.015625 -1.421875 
Q 20.359375 -1.421875 13.671875 8.265625 
Q 6.984375 17.96875 6.984375 36.375 
Q 6.984375 53.65625 15.1875 63.9375 
Q 23.390625 74.21875 37.203125 74.21875 
Q 40.921875 74.21875 44.703125 73.484375 
Q 48.484375 72.75 52.59375 71.296875 
z
" id="DejaVuSans-54"/>
      </defs>
      <g transform="translate(160.275 212.905059)scale(0.1 -0.1)">
       <use xlink:href="#DejaVuSans-54"/>
       <use x="63.623047" xlink:href="#DejaVuSans-48"/>
      </g>
     </g>
    </g>
    <g id="ytick_8">
     <g id="line2d_16">
      <g>
       <use style="stroke:#000000;stroke-width:0.8;" x="180" xlink:href="#m1b4c404cf3" y="122.38699"/>
      </g>
     </g>
     <g id="text_16">
      <!-- 70 -->
      <defs>
       <path d="M 8.203125 72.90625 
L 55.078125 72.90625 
L 55.078125 68.703125 
L 28.609375 0 
L 18.3125 0 
L 43.21875 64.59375 
L 8.203125 64.59375 
z
" id="DejaVuSans-55"/>
      </defs>
      <g transform="translate(160.275 126.186209)scale(0.1 -0.1)">
       <use xlink:href="#DejaVuSans-55"/>
       <use x="63.623047" xlink:href="#DejaVuSans-48"/>
      </g>
     </g>
    </g>
    <g id="text_17">
     <!-- Sensor value -->
     <defs>
      <path d="M 53.515625 70.515625 
L 53.515625 60.890625 
Q 47.90625 63.578125 42.921875 64.890625 
Q 37.9375 66.21875 33.296875 66.21875 
Q 25.25 66.21875 20.875 63.09375 
Q 16.5 59.96875 16.5 54.203125 
Q 16.5 49.359375 19.40625 46.890625 
Q 22.3125 44.4375 30.421875 42.921875 
L 36.375 41.703125 
Q 47.40625 39.59375 52.65625 34.296875 
Q 57.90625 29 57.90625 20.125 
Q 57.90625 9.515625 50.796875 4.046875 
Q 43.703125 -1.421875 29.984375 -1.421875 
Q 24.8125 -1.421875 18.96875 -0.25 
Q 13.140625 0.921875 6.890625 3.21875 
L 6.890625 13.375 
Q 12.890625 10.015625 18.65625 8.296875 
Q 24.421875 6.59375 29.984375 6.59375 
Q 38.421875 6.59375 43.015625 9.90625 
Q 47.609375 13.234375 47.609375 19.390625 
Q 47.609375 24.75 44.3125 27.78125 
Q 41.015625 30.8125 33.5 32.328125 
L 27.484375 33.5 
Q 16.453125 35.6875 11.515625 40.375 
Q 6.59375 45.0625 6.59375 53.421875 
Q 6.59375 63.09375 13.40625 68.65625 
Q 20.21875 74.21875 32.171875 74.21875 
Q 37.3125 74.21875 42.625 73.28125 
Q 47.953125 72.359375 53.515625 70.515625 
z
" id="DejaVuSans-83"/>
      <path d="M 56.203125 29.59375 
L 56.203125 25.203125 
L 14.890625 25.203125 
Q 15.484375 15.921875 20.484375 11.0625 
Q 25.484375 6.203125 34.421875 6.203125 
Q 39.59375 6.203125 44.453125 7.46875 
Q 49.3125 8.734375 54.109375 11.28125 
L 54.109375 2.78125 
Q 49.265625 0.734375 44.1875 -0.34375 
Q 39.109375 -1.421875 33.890625 -1.421875 
Q 20.796875 -1.421875 13.15625 6.1875 
Q 5.515625 13.8125 5.515625 26.8125 
Q 5.515625 40.234375 12.765625 48.109375 
Q 20.015625 56 32.328125 56 
Q 43.359375 56 49.78125 48.890625 
Q 56.203125 41.796875 56.203125 29.59375 
z
M 47.21875 32.234375 
Q 47.125 39.59375 43.09375 43.984375 
Q 39.0625 48.390625 32.421875 48.390625 
Q 24.90625 48.390625 20.390625 44.140625 
Q 15.875 39.890625 15.1875 32.171875 
z
" id="DejaVuSans-101"/>
      <path d="M 54.890625 33.015625 
L 54.890625 0 
L 45.90625 0 
L 45.90625 32.71875 
Q 45.90625 40.484375 42.875 44.328125 
Q 39.84375 48.1875 33.796875 48.1875 
Q 26.515625 48.1875 22.3125 43.546875 
Q 18.109375 38.921875 18.109375 30.90625 
L 18.109375 0 
L 9.078125 0 
L 9.078125 54.6875 
L 18.109375 54.6875 
L 18.109375 46.1875 
Q 21.34375 51.125 25.703125 53.5625 
Q 30.078125 56 35.796875 56 
Q 45.21875 56 50.046875 50.171875 
Q 54.890625 44.34375 54.890625 33.015625 
z
" id="DejaVuSans-110"/>
      <path d="M 44.28125 53.078125 
L 44.28125 44.578125 
Q 40.484375 46.53125 36.375 47.5 
Q 32.28125 48.484375 27.875 48.484375 
Q 21.1875 48.484375 17.84375 46.4375 
Q 14.5 44.390625 14.5 40.28125 
Q 14.5 37.15625 16.890625 35.375 
Q 19.28125 33.59375 26.515625 31.984375 
L 29.59375 31.296875 
Q 39.15625 29.25 43.1875 25.515625 
Q 47.21875 21.78125 47.21875 15.09375 
Q 47.21875 7.46875 41.1875 3.015625 
Q 35.15625 -1.421875 24.609375 -1.421875 
Q 20.21875 -1.421875 15.453125 -0.5625 
Q 10.6875 0.296875 5.421875 2 
L 5.421875 11.28125 
Q 10.40625 8.6875 15.234375 7.390625 
Q 20.0625 6.109375 24.8125 6.109375 
Q 31.15625 6.109375 34.5625 8.28125 
Q 37.984375 10.453125 37.984375 14.40625 
Q 37.984375 18.0625 35.515625 20.015625 
Q 33.0625 21.96875 24.703125 23.78125 
L 21.578125 24.515625 
Q 13.234375 26.265625 9.515625 29.90625 
Q 5.8125 33.546875 5.8125 39.890625 
Q 5.8125 47.609375 11.28125 51.796875 
Q 16.75 56 26.8125 56 
Q 31.78125 56 36.171875 55.265625 
Q 40.578125 54.546875 44.28125 53.078125 
z
" id="DejaVuSans-115"/>
      <path d="M 30.609375 48.390625 
Q 23.390625 48.390625 19.1875 42.75 
Q 14.984375 37.109375 14.984375 27.296875 
Q 14.984375 17.484375 19.15625 11.84375 
Q 23.34375 6.203125 30.609375 6.203125 
Q 37.796875 6.203125 41.984375 11.859375 
Q 46.1875 17.53125 46.1875 27.296875 
Q 46.1875 37.015625 41.984375 42.703125 
Q 37.796875 48.390625 30.609375 48.390625 
z
M 30.609375 56 
Q 42.328125 56 49.015625 48.375 
Q 55.71875 40.765625 55.71875 27.296875 
Q 55.71875 13.875 49.015625 6.21875 
Q 42.328125 -1.421875 30.609375 -1.421875 
Q 18.84375 -1.421875 12.171875 6.21875 
Q 5.515625 13.875 5.515625 27.296875 
Q 5.515625 40.765625 12.171875 48.375 
Q 18.84375 56 30.609375 56 
z
" id="DejaVuSans-111"/>
      <path d="M 41.109375 46.296875 
Q 39.59375 47.171875 37.8125 47.578125 
Q 36.03125 48 33.890625 48 
Q 26.265625 48 22.1875 43.046875 
Q 18.109375 38.09375 18.109375 28.8125 
L 18.109375 0 
L 9.078125 0 
L 9.078125 54.6875 
L 18.109375 54.6875 
L 18.109375 46.1875 
Q 20.953125 51.171875 25.484375 53.578125 
Q 30.03125 56 36.53125 56 
Q 37.453125 56 38.578125 55.875 
Q 39.703125 55.765625 41.0625 55.515625 
z
" id="DejaVuSans-114"/>
      <path id="DejaVuSans-32"/>
      <path d="M 2.984375 54.6875 
L 12.5 54.6875 
L 29.59375 8.796875 
L 46.6875 54.6875 
L 56.203125 54.6875 
L 35.6875 0 
L 23.484375 0 
z
" id="DejaVuSans-118"/>
      <path d="M 34.28125 27.484375 
Q 23.390625 27.484375 19.1875 25 
Q 14.984375 22.515625 14.984375 16.5 
Q 14.984375 11.71875 18.140625 8.90625 
Q 21.296875 6.109375 26.703125 6.109375 
Q 34.1875 6.109375 38.703125 11.40625 
Q 43.21875 16.703125 43.21875 25.484375 
L 43.21875 27.484375 
z
M 52.203125 31.203125 
L 52.203125 0 
L 43.21875 0 
L 43.21875 8.296875 
Q 40.140625 3.328125 35.546875 0.953125 
Q 30.953125 -1.421875 24.3125 -1.421875 
Q 15.921875 -1.421875 10.953125 3.296875 
Q 6 8.015625 6 15.921875 
Q 6 25.140625 12.171875 29.828125 
Q 18.359375 34.515625 30.609375 34.515625 
L 43.21875 34.515625 
L 43.21875 35.40625 
Q 43.21875 41.609375 39.140625 45 
Q 35.0625 48.390625 27.6875 48.390625 
Q 23 48.390625 18.546875 47.265625 
Q 14.109375 46.140625 10.015625 43.890625 
L 10.015625 52.203125 
Q 14.9375 54.109375 19.578125 55.046875 
Q 24.21875 56 28.609375 56 
Q 40.484375 56 46.34375 49.84375 
Q 52.203125 43.703125 52.203125 31.203125 
z
" id="DejaVuSans-97"/>
      <path d="M 9.421875 75.984375 
L 18.40625 75.984375 
L 18.40625 0 
L 9.421875 0 
z
" id="DejaVuSans-108"/>
      <path d="M 8.5 21.578125 
L 8.5 54.6875 
L 17.484375 54.6875 
L 17.484375 21.921875 
Q 17.484375 14.15625 20.5 10.265625 
Q 23.53125 6.390625 29.59375 6.390625 
Q 36.859375 6.390625 41.078125 11.03125 
Q 45.3125 15.671875 45.3125 23.6875 
L 45.3125 54.6875 
L 54.296875 54.6875 
L 54.296875 0 
L 45.3125 0 
L 45.3125 8.40625 
Q 42.046875 3.421875 37.71875 1 
Q 33.40625 -1.421875 27.6875 -1.421875 
Q 18.265625 -1.421875 13.375 4.4375 
Q 8.5 10.296875 8.5 21.578125 
z
M 31.109375 56 
z
" id="DejaVuSans-117"/>
     </defs>
     <g transform="translate(154.195312 462.225937)rotate(-90)scale(0.1 -0.1)">
      <use xlink:href="#DejaVuSans-83"/>
      <use x="63.476562" xlink:href="#DejaVuSans-101"/>
      <use x="125" xlink:href="#DejaVuSans-110"/>
      <use x="188.378906" xlink:href="#DejaVuSans-115"/>
      <use x="240.478516" xlink:href="#DejaVuSans-111"/>
      <use x="301.660156" xlink:href="#DejaVuSans-114"/>
      <use x="342.773438" xlink:href="#DejaVuSans-32"/>
      <use x="374.560547" xlink:href="#DejaVuSans-118"/>
      <use x="433.740234" xlink:href="#DejaVuSans-97"/>
      <use x="495.019531" xlink:href="#DejaVuSans-108"/>
      <use x="522.802734" xlink:href="#DejaVuSans-117"/>
      <use x="586.181641" xlink:href="#DejaVuSans-101"/>
     </g>
    </g>
   </g>
   <g id="line2d_17">
    <path clip-path="url(#p906812d84c)" d="M 230.727273 726.349091 
L 236.301698 714.642046 
L 239.088911 697.211557 
L 241.876124 722.915024 
L 244.663337 678.688411 
L 247.450549 697.662495 
L 250.237762 658.526279 
L 253.024975 630.524762 
L 255.812188 630.706872 
L 258.599401 686.892014 
L 261.386613 676.589815 
L 264.173826 663.764097 
L 266.961039 659.246045 
L 269.748252 667.380273 
L 272.535465 706.759303 
L 275.322677 681.688883 
L 278.10989 555.911864 
L 280.897103 716.341736 
L 283.684316 696.066869 
L 286.471528 714.459937 
L 289.258741 696.647885 
L 292.045954 653.10635 
L 294.833167 625.8246 
L 297.62038 579.759547 
L 300.407592 580.115095 
L 303.194805 673.884187 
L 305.982018 579.577438 
L 308.769231 476.598804 
L 311.556444 310.384785 
L 314.343656 373.43806 
L 317.130869 424.810307 
L 319.918082 534.050042 
L 322.705295 581.467909 
L 325.492507 499.969534 
L 328.27972 568.2693 
L 331.066933 546.355446 
L 333.854146 513.9833 
L 336.641359 476.598804 
L 339.428571 500.264378 
L 342.215784 575.623058 
L 345.002997 535.663012 
L 347.79021 508.702122 
L 350.577423 511.286344 
L 353.364635 657.546356 
L 356.151848 710.444854 
L 358.939061 636.300237 
L 361.726274 627.810462 
L 364.513487 718.041425 
L 367.300699 683.492635 
L 370.087912 684.177714 
L 372.875125 658.526279 
L 375.662338 656.722526 
L 378.44955 632.328514 
L 381.236763 644.070246 
L 386.811189 519.958229 
L 389.598402 542.539817 
L 392.385614 663.616675 
L 395.172827 618.956467 
L 397.96004 630.672184 
L 400.747253 639.725632 
L 403.534466 538.923641 
L 406.321678 576.863138 
L 409.108891 712.031809 
L 411.896104 597.493552 
L 414.683317 599.626836 
L 417.470529 623.47452 
L 420.257742 585.179475 
L 423.044955 553.561783 
L 425.832168 622.208424 
L 428.619381 562.233668 
L 431.406593 414.265295 
L 434.193806 464.20668 
L 436.981019 499.466564 
L 439.768232 487.802879 
L 442.555445 474.942474 
L 445.342657 667.241523 
L 448.12987 622.754753 
L 450.917083 586.939868 
L 453.704296 493.240151 
L 456.491508 575.059386 
L 459.278721 588.431432 
L 462.065934 521.042214 
L 464.853147 564.878593 
L 467.64036 663.139721 
L 470.427572 506.230635 
L 473.214785 552.625219 
L 476.001998 324.840817 
L 478.789211 463.044648 
L 481.576424 471.543095 
L 484.363636 563.135544 
L 487.150849 534.050042 
L 489.938062 458.708705 
L 492.725275 358.080152 
L 495.512488 330.364808 
L 498.2997 421.679756 
L 501.086913 628.894448 
L 503.874126 639.196647 
L 506.661339 681.472086 
L 509.448551 690.326081 
L 512.235764 688.158109 
L 515.022977 654.008226 
L 517.81019 533.503713 
L 520.597403 526.280033 
L 523.384615 616.970606 
L 526.171828 683.822167 
L 528.959041 602.523245 
L 531.746254 686.241623 
L 534.533467 718.041425 
L 537.320679 658.708388 
L 540.107892 708.571727 
L 542.895105 694.583976 
L 545.682318 685.12295 
L 548.46953 706.369068 
L 551.256743 640.462742 
L 554.043956 720.166037 
L 556.831169 698.815856 
L 559.618382 583.91338 
L 562.405594 653.036975 
L 565.192807 693.933585 
L 567.98002 691.947723 
L 570.767233 557.897725 
L 573.554446 661.414016 
L 576.341658 659.792374 
L 579.128871 655.491119 
L 581.916084 637.748442 
L 584.703297 640.098523 
L 587.490509 669.730354 
L 590.277722 704.886176 
L 593.064935 671.534106 
L 595.852148 632.692733 
L 598.639361 643.35048 
L 601.426573 650.036503 
L 604.213786 658.890498 
L 607.000999 666.478397 
L 609.788212 665.212302 
L 612.575425 635.398361 
L 615.362637 640.098523 
L 618.14985 624.020848 
L 620.937063 637.384223 
L 623.724276 369.466337 
L 626.511489 133.330909 
L 629.298701 224.030154 
L 632.085914 523.210185 
L 634.873127 620.404672 
L 637.66034 610.830911 
L 640.447552 642.986261 
L 643.234765 603.607231 
L 646.021978 583.341036 
L 648.809191 457.624719 
L 651.596404 528.083785 
L 654.383616 561.513901 
L 657.170829 599.089179 
L 659.958042 650.75627 
L 662.745255 672.184497 
L 665.532468 638.294771 
L 671.106893 656.176198 
L 673.894106 686.094201 
L 676.681319 687.976 
L 679.468531 680.205991 
L 682.255744 692.34663 
L 685.042957 689.059986 
L 687.83017 592.585265 
L 690.617383 530.078318 
L 693.404595 651.302598 
L 696.191808 705.13766 
L 698.979021 666.296287 
L 701.766234 655.456431 
L 704.553447 531.335742 
L 707.340659 419.511785 
L 710.127872 613.180992 
L 712.915085 666.478397 
L 715.702298 668.646368 
L 718.48951 680.492163 
L 721.276723 640.63618 
L 724.063936 625.460381 
L 726.851149 650.218613 
L 729.638362 603.607231 
L 732.425574 548.323964 
L 735.212787 606.677078 
L 738 685.44381 
L 740.787213 670.45012 
L 743.574426 659.063935 
L 746.361638 626.18882 
L 749.148851 627.090696 
L 751.936064 675.32372 
L 754.723277 695.928118 
L 757.51049 699.648357 
L 760.297702 655.811979 
L 763.084915 655.994088 
L 765.872128 693.933585 
L 768.659341 706.941412 
L 771.446553 723.019087 
L 774.233766 702.969689 
L 777.020979 686.493108 
L 779.808192 685.808029 
L 782.595405 654.727993 
L 785.382617 668.10004 
L 788.16983 694.844133 
L 790.957043 696.283666 
L 793.744256 629.258667 
L 796.531469 674.239734 
L 799.318681 690.143971 
L 802.105894 643.714699 
L 804.893107 555.183425 
L 807.68032 453.288777 
L 810.467532 554.463659 
L 813.254745 632.146404 
L 816.041958 622.217096 
L 818.829171 701.703594 
L 821.616384 679.304115 
L 824.403596 675.32372 
L 827.190809 678.220129 
L 829.978022 670.45012 
L 832.765235 660.147921 
L 835.552448 659.063935 
L 838.33966 683.640057 
L 841.126873 695.147649 
L 843.914086 691.227957 
L 846.701299 643.714699 
L 849.488511 631.426638 
L 852.275724 670.45012 
L 855.062937 659.428155 
L 857.85015 611.013021 
L 860.637363 624.558505 
L 863.424575 611.013021 
L 866.211788 656.540417 
L 868.999001 646.056108 
L 871.786214 668.819806 
L 874.573427 600.892931 
L 877.360639 578.857671 
L 880.147852 533.503713 
L 882.935065 652.924241 
L 885.722278 661.960345 
L 888.509491 616.06873 
L 891.296703 691.227957 
L 894.083916 654.372446 
L 896.871129 666.478397 
L 899.658342 684.403183 
L 905.232767 617.881154 
L 908.01998 689.745064 
L 910.807193 656.895964 
L 913.594406 660.69425 
L 916.381618 558.435382 
L 919.168831 601.075041 
L 921.956044 567.705627 
L 924.743257 625.642491 
L 927.53047 612.097006 
L 930.317682 635.398361 
L 933.104895 637.748442 
L 935.892108 581.563299 
L 938.679321 616.719121 
L 941.466533 658.890498 
L 944.253746 653.10635 
L 947.040959 661.960345 
L 949.828172 603.607231 
L 952.615385 652.022365 
L 955.402597 587.702994 
L 958.18981 670.63223 
L 960.977023 685.07959 
L 963.764236 697.185542 
L 966.551449 674.968172 
L 969.338661 616.250839 
L 972.125874 661.231907 
L 974.913087 645.336342 
L 977.7003 720.313459 
L 980.487512 725.846122 
L 983.274725 691.548817 
L 986.061938 621.852877 
L 988.849151 636.300237 
L 991.636364 668.819806 
L 994.423576 672.618092 
L 997.210789 669.331447 
L 1002.785215 712.907669 
L 1005.572428 679.659662 
L 1008.35964 679.122005 
L 1011.146853 683.822167 
L 1016.721279 624.202958 
L 1019.508492 629.622886 
L 1022.295704 589.870965 
L 1025.082917 674.066296 
L 1027.87013 701.486797 
L 1030.657343 705.172348 
L 1033.444555 680.925757 
L 1036.231768 682.954979 
L 1039.018981 648.050642 
L 1041.806194 659.063935 
L 1044.593407 573.9754 
L 1047.380619 555.547645 
L 1050.167832 524.65839 
L 1052.955045 621.124439 
L 1055.742258 578.311343 
L 1058.529471 516.888381 
L 1061.316683 512.907986 
L 1064.103896 679.304115 
L 1066.891109 623.118972 
L 1069.678322 677.318253 
L 1072.465534 638.294771 
L 1075.252747 648.770408 
L 1078.03996 592.767375 
L 1080.827173 642.552666 
L 1083.614386 722.446743 
L 1086.401598 692.095145 
L 1089.188811 692.34663 
L 1091.976024 670.302698 
L 1094.763237 624.020848 
L 1097.55045 654.953462 
L 1100.337662 612.461226 
L 1103.124875 587.702994 
L 1105.912088 594.753236 
L 1108.699301 694.115694 
L 1111.486513 665.212302 
L 1114.273726 596.019332 
L 1117.060939 610.830911 
L 1119.848152 498.642735 
L 1122.635365 381.390179 
L 1125.422577 592.949484 
L 1128.20979 620.690844 
L 1130.997003 553.379673 
L 1133.784216 595.290893 
L 1139.358641 659.063935 
L 1142.145854 652.742131 
L 1144.933067 577.045247 
L 1147.72028 692.52874 
L 1150.507493 679.841772 
L 1153.294705 699.145388 
L 1156.081918 627.810462 
L 1158.869131 680.1106 
L 1161.656344 657.97995 
L 1164.443556 642.804151 
L 1167.230769 676.667862 
L 1170.017982 683.206463 
L 1172.805195 682.278571 
L 1175.592408 648.701033 
L 1178.37962 649.134627 
L 1181.166833 634.132266 
L 1183.954046 598.005193 
L 1186.741259 665.932068 
L 1189.528472 669.765041 
L 1192.315684 594.571127 
L 1195.102897 574.521729 
L 1197.89011 559.34593 
L 1200.677323 640.462742 
L 1203.464535 713.089779 
L 1206.251748 701.521484 
L 1209.038961 695.962806 
L 1211.826174 655.274322 
L 1214.613387 612.634663 
L 1217.400599 626.00671 
L 1220.187812 642.986261 
L 1222.975025 694.549289 
L 1225.762238 708.675789 
L 1228.549451 655.092212 
L 1231.336663 711.606886 
L 1234.123876 716.124939 
L 1236.911089 699.388201 
L 1239.698302 686.163576 
L 1242.485514 703.290549 
L 1245.272727 706.33438 
L 1245.272727 706.33438 
" style="fill:none;stroke:#1f77b4;stroke-linecap:square;stroke-width:1.5;"/>
   </g>
   <g id="line2d_18">
    <path clip-path="url(#p906812d84c)" d="M 230.727273 693.098253 
L 233.514486 706.677092 
L 236.301698 710.633705 
L 239.088911 685.796819 
L 241.876124 683.955252 
L 244.663337 697.453559 
L 247.450549 682.141324 
L 250.237762 684.131658 
L 253.024975 642.252848 
L 255.812188 662.767401 
L 258.599401 632.941933 
L 261.386613 667.574562 
L 264.173826 655.183373 
L 266.961039 616.000202 
L 269.748252 603.404675 
L 272.535465 614.799473 
L 275.322677 610.687988 
L 278.10989 624.273385 
L 280.897103 576.083855 
L 283.684316 694.075104 
L 286.471528 673.502899 
L 289.258741 687.814131 
L 292.045954 661.345902 
L 294.833167 641.038196 
L 297.62038 603.852896 
L 300.407592 645.445526 
L 303.194805 651.477066 
L 305.982018 655.957366 
L 308.769231 599.596926 
L 311.556444 509.172779 
L 314.343656 320.541239 
L 317.130869 369.406172 
L 319.918082 475.953161 
L 322.705295 520.506475 
L 325.492507 526.031224 
L 328.27972 421.976543 
L 331.066933 527.434037 
L 333.854146 450.166637 
L 336.641359 470.87977 
L 339.428571 518.43424 
L 342.215784 471.473827 
L 345.002997 519.048715 
L 347.79021 461.642664 
L 350.577423 395.957967 
L 353.364635 478.083699 
L 356.151848 608.351144 
L 358.939061 646.39218 
L 361.726274 603.629274 
L 364.513487 610.075328 
L 367.300699 669.479996 
L 370.087912 648.55635 
L 372.875125 603.203664 
L 375.662338 605.446518 
L 378.44955 602.39118 
L 381.236763 618.227848 
L 384.023976 636.28914 
L 386.811189 559.51505 
L 389.598402 532.882351 
L 392.385614 527.780611 
L 395.172827 610.084847 
L 397.96004 588.04498 
L 400.747253 559.865586 
L 403.534466 580.76377 
L 406.321678 513.422075 
L 409.108891 601.333956 
L 411.896104 681.862462 
L 414.683317 608.718809 
L 417.470529 602.99311 
L 425.832168 516.870425 
L 428.619381 582.224728 
L 431.406593 506.846036 
L 434.193806 501.900912 
L 436.981019 440.035682 
L 439.768232 471.984686 
L 442.555445 445.852324 
L 445.342657 477.221063 
L 448.12987 620.757456 
L 450.917083 562.87303 
L 453.704296 498.9441 
L 456.491508 422.583508 
L 459.278721 507.236136 
L 462.065934 479.408654 
L 464.853147 467.817979 
L 467.64036 530.290796 
L 470.427572 597.47958 
L 473.214785 499.323118 
L 476.001998 475.440834 
L 478.789211 417.948465 
L 481.576424 555.088633 
L 484.363636 564.249455 
L 487.150849 600.186414 
L 489.938062 558.055524 
L 492.725275 480.315367 
L 495.512488 462.720718 
L 498.2997 434.523999 
L 501.086913 500.947135 
L 503.874126 615.293698 
L 506.661339 632.928988 
L 509.448551 658.023839 
L 512.235764 665.995903 
L 515.022977 645.417618 
L 517.81019 617.710462 
L 520.597403 561.298011 
L 523.384615 545.965441 
L 526.171828 630.65283 
L 528.959041 640.584445 
L 531.746254 587.700549 
L 534.533467 646.050283 
L 537.320679 660.794784 
L 540.107892 642.769818 
L 542.895105 665.487045 
L 545.682318 656.709017 
L 548.46953 651.549987 
L 551.256743 662.904116 
L 554.043956 636.544021 
L 556.831169 672.215093 
L 559.618382 642.927088 
L 562.405594 548.926257 
L 565.192807 600.729102 
L 567.98002 635.812007 
L 570.767233 640.709035 
L 573.554446 530.806283 
L 576.341658 601.704264 
L 579.128871 583.078157 
L 581.916084 618.873103 
L 584.703297 588.802314 
L 587.490509 600.475823 
L 590.277722 644.772106 
L 593.064935 671.932646 
L 595.852148 660.539731 
L 598.639361 651.781402 
L 601.426573 643.675865 
L 604.213786 640.269195 
L 607.000999 609.768055 
L 609.788212 665.598177 
L 612.575425 663.615551 
L 615.362637 627.010072 
L 618.14985 636.882958 
L 620.937063 628.810725 
L 623.724276 592.343429 
L 626.511489 478.773242 
L 629.298701 373.843307 
L 632.085914 390.876739 
L 634.873127 490.536385 
L 637.66034 601.040363 
L 640.447552 595.924278 
L 643.234765 609.827873 
L 646.021978 612.643122 
L 648.809191 565.84736 
L 651.596404 480.824834 
L 654.383616 582.412445 
L 657.170829 580.650565 
L 659.958042 604.742045 
L 665.532468 663.617594 
L 668.31968 632.858771 
L 671.106893 676.202465 
L 673.894106 671.912776 
L 676.681319 672.201329 
L 679.468531 671.276 
L 682.255744 674.803063 
L 685.042957 679.929291 
L 687.83017 659.297672 
L 690.617383 628.367288 
L 693.404595 615.416747 
L 696.191808 674.036533 
L 698.979021 692.832237 
L 701.766234 683.046429 
L 704.553447 659.440431 
L 707.340659 603.787279 
L 710.127872 512.460399 
L 712.915085 614.532308 
L 715.702298 654.749688 
L 718.48951 675.518082 
L 721.276723 678.358352 
L 724.063936 636.530257 
L 726.851149 647.300759 
L 729.638362 651.048739 
L 732.425574 615.610123 
L 735.212787 632.227966 
L 738 667.214667 
L 740.787213 676.49875 
L 743.574426 672.071343 
L 746.361638 665.632863 
L 749.148851 636.721528 
L 751.936064 631.535165 
L 754.723277 666.607096 
L 757.51049 682.360847 
L 760.297702 692.462272 
L 763.084915 659.563566 
L 765.872128 651.857969 
L 768.659341 682.613612 
L 771.446553 703.267657 
L 774.233766 704.184262 
L 777.020979 683.697923 
L 779.808192 684.945647 
L 782.595405 681.225661 
L 785.382617 662.993555 
L 788.16983 685.943322 
L 790.957043 673.11441 
L 793.744256 672.989392 
L 796.531469 653.121966 
L 799.318681 674.986614 
L 802.105894 666.306112 
L 804.893107 642.982367 
L 807.68032 590.716185 
L 810.467532 506.411481 
L 813.254745 509.618765 
L 816.041958 545.878058 
L 818.829171 655.10535 
L 821.616384 676.184541 
L 824.403596 673.276745 
L 827.190809 663.056052 
L 829.978022 656.744303 
L 832.765235 652.429434 
L 835.552448 639.40224 
L 838.33966 655.250948 
L 841.126873 661.644439 
L 843.914086 671.269809 
L 846.701299 666.367337 
L 849.488511 623.199742 
L 852.275724 642.477595 
L 855.062937 636.796187 
L 857.85015 637.42457 
L 860.637363 586.424991 
L 863.424575 592.745181 
L 866.211788 624.900263 
L 868.999001 641.028212 
L 871.786214 648.424383 
L 874.573427 659.618991 
L 877.360639 600.254759 
L 880.147852 591.476309 
L 882.935065 586.505791 
L 885.722278 643.059399 
L 888.509491 616.643769 
L 891.296703 616.544444 
L 894.083916 681.634913 
L 896.871129 665.942901 
L 899.658342 658.36247 
L 902.445554 658.428857 
L 905.232767 612.03177 
L 908.01998 653.759549 
L 910.807193 682.686496 
L 913.594406 645.679535 
L 916.381618 623.351323 
L 919.168831 575.62034 
L 921.956044 586.056114 
L 924.743257 562.249027 
L 927.53047 611.302815 
L 930.317682 591.717426 
L 933.104895 620.087082 
L 935.892108 615.906065 
L 938.679321 584.362592 
L 941.466533 644.539345 
L 944.253746 660.396948 
L 947.040959 643.973985 
L 949.828172 662.253343 
L 952.615385 626.030774 
L 955.402597 631.540377 
L 958.18981 639.373475 
L 960.977023 659.894953 
L 963.764236 668.195628 
L 966.551449 660.887331 
L 969.338661 626.200549 
L 972.125874 632.061005 
L 977.7003 661.533552 
L 980.487512 683.795449 
L 983.274725 688.509721 
L 986.061938 675.707421 
L 988.849151 637.236418 
L 991.636364 654.876284 
L 994.423576 645.620708 
L 997.210789 665.480218 
L 999.998002 671.503071 
L 1002.785215 676.144532 
L 1005.572428 681.921239 
L 1008.35964 681.743634 
L 1011.146853 667.16345 
L 1013.934066 646.237835 
L 1016.721279 646.529238 
L 1019.508492 596.589452 
L 1022.295704 597.298659 
L 1025.082917 614.114699 
L 1027.87013 668.616687 
L 1030.657343 689.76393 
L 1033.444555 673.563365 
L 1036.231768 668.012542 
L 1039.018981 654.65834 
L 1041.806194 652.596236 
L 1044.593407 652.489778 
L 1047.380619 618.728753 
L 1050.167832 596.137768 
L 1052.955045 515.02474 
L 1055.742258 594.410453 
L 1058.529471 554.626275 
L 1061.316683 488.933378 
L 1064.103896 516.081969 
L 1066.891109 654.258473 
L 1069.678322 635.338032 
L 1072.465534 604.132859 
L 1075.252747 647.189714 
L 1078.03996 621.835442 
L 1080.827173 633.345716 
L 1083.614386 676.032263 
L 1086.401598 675.758392 
L 1089.188811 672.038528 
L 1091.976024 659.189551 
L 1097.55045 609.825707 
L 1100.337662 626.738392 
L 1103.124875 610.190142 
L 1105.912088 606.723313 
L 1108.699301 638.479505 
L 1111.486513 639.489256 
L 1114.273726 626.175222 
L 1117.060939 618.332434 
L 1119.848152 570.2487 
L 1122.635365 557.884594 
L 1125.422577 497.416236 
L 1128.20979 611.965187 
L 1130.997003 556.682709 
L 1133.784216 601.058495 
L 1136.571429 606.896023 
L 1139.358641 637.390972 
L 1142.145854 650.322537 
L 1144.933067 650.657608 
L 1147.72028 589.371394 
L 1150.507493 674.408395 
L 1153.294705 667.299407 
L 1156.081918 652.730577 
L 1158.869131 609.929216 
L 1161.656344 650.446442 
L 1164.443556 548.397523 
L 1167.230769 612.03259 
L 1170.017982 654.725682 
L 1172.805195 663.070697 
L 1175.592408 668.256461 
L 1178.37962 651.58033 
L 1181.166833 647.737932 
L 1183.954046 636.355821 
L 1186.741259 586.079747 
L 1189.528472 637.60494 
L 1192.315684 648.218515 
L 1195.102897 588.087925 
L 1197.89011 552.423668 
L 1200.677323 591.090114 
L 1203.464535 656.738724 
L 1206.251748 675.408957 
L 1209.038961 673.849948 
L 1211.826174 656.967668 
L 1214.613387 612.821093 
L 1217.400599 573.055483 
L 1220.187812 637.220978 
L 1222.975025 643.83683 
L 1225.762238 670.240922 
L 1228.549451 661.459713 
L 1231.336663 650.217462 
L 1234.123876 691.868307 
L 1236.911089 678.242877 
L 1239.698302 655.285512 
L 1242.485514 676.344123 
L 1245.272727 684.040311 
L 1245.272727 684.040311 
" style="fill:none;stroke:#ff7f0e;stroke-linecap:square;stroke-width:1.5;"/>
   </g>
   <g id="patch_3">
    <path d="M 180 756 
L 180 103.68 
" style="fill:none;stroke:#000000;stroke-linecap:square;stroke-linejoin:miter;stroke-width:0.8;"/>
   </g>
   <g id="patch_4">
    <path d="M 1296 756 
L 1296 103.68 
" style="fill:none;stroke:#000000;stroke-linecap:square;stroke-linejoin:miter;stroke-width:0.8;"/>
   </g>
   <g id="patch_5">
    <path d="M 180 756 
L 1296 756 
" style="fill:none;stroke:#000000;stroke-linecap:square;stroke-linejoin:miter;stroke-width:0.8;"/>
   </g>
   <g id="patch_6">
    <path d="M 180 103.68 
L 1296 103.68 
" style="fill:none;stroke:#000000;stroke-linecap:square;stroke-linejoin:miter;stroke-width:0.8;"/>
   </g>
   <g id="text_18">
    <!-- PM10 Time-series (Station: BETN085) 2012: Island LSTM MIMO NARX-1 prediction (MSE: 48.47, RMSE: 6.96, MAE: 4.91, MAPE: 76.12%, SMAPE: 42.41%, R2: 0.45, IOA: 81.73%) -->
    <defs>
     <path d="M 19.671875 64.796875 
L 19.671875 37.40625 
L 32.078125 37.40625 
Q 38.96875 37.40625 42.71875 40.96875 
Q 46.484375 44.53125 46.484375 51.125 
Q 46.484375 57.671875 42.71875 61.234375 
Q 38.96875 64.796875 32.078125 64.796875 
z
M 9.8125 72.90625 
L 32.078125 72.90625 
Q 44.34375 72.90625 50.609375 67.359375 
Q 56.890625 61.8125 56.890625 51.125 
Q 56.890625 40.328125 50.609375 34.8125 
Q 44.34375 29.296875 32.078125 29.296875 
L 19.671875 29.296875 
L 19.671875 0 
L 9.8125 0 
z
" id="DejaVuSans-80"/>
     <path d="M 9.8125 72.90625 
L 24.515625 72.90625 
L 43.109375 23.296875 
L 61.8125 72.90625 
L 76.515625 72.90625 
L 76.515625 0 
L 66.890625 0 
L 66.890625 64.015625 
L 48.09375 14.015625 
L 38.1875 14.015625 
L 19.390625 64.015625 
L 19.390625 0 
L 9.8125 0 
z
" id="DejaVuSans-77"/>
     <path d="M -0.296875 72.90625 
L 61.375 72.90625 
L 61.375 64.59375 
L 35.5 64.59375 
L 35.5 0 
L 25.59375 0 
L 25.59375 64.59375 
L -0.296875 64.59375 
z
" id="DejaVuSans-84"/>
     <path d="M 9.421875 54.6875 
L 18.40625 54.6875 
L 18.40625 0 
L 9.421875 0 
z
M 9.421875 75.984375 
L 18.40625 75.984375 
L 18.40625 64.59375 
L 9.421875 64.59375 
z
" id="DejaVuSans-105"/>
     <path d="M 52 44.1875 
Q 55.375 50.25 60.0625 53.125 
Q 64.75 56 71.09375 56 
Q 79.640625 56 84.28125 50.015625 
Q 88.921875 44.046875 88.921875 33.015625 
L 88.921875 0 
L 79.890625 0 
L 79.890625 32.71875 
Q 79.890625 40.578125 77.09375 44.375 
Q 74.3125 48.1875 68.609375 48.1875 
Q 61.625 48.1875 57.5625 43.546875 
Q 53.515625 38.921875 53.515625 30.90625 
L 53.515625 0 
L 44.484375 0 
L 44.484375 32.71875 
Q 44.484375 40.625 41.703125 44.40625 
Q 38.921875 48.1875 33.109375 48.1875 
Q 26.21875 48.1875 22.15625 43.53125 
Q 18.109375 38.875 18.109375 30.90625 
L 18.109375 0 
L 9.078125 0 
L 9.078125 54.6875 
L 18.109375 54.6875 
L 18.109375 46.1875 
Q 21.1875 51.21875 25.484375 53.609375 
Q 29.78125 56 35.6875 56 
Q 41.65625 56 45.828125 52.96875 
Q 50 49.953125 52 44.1875 
z
" id="DejaVuSans-109"/>
     <path d="M 4.890625 31.390625 
L 31.203125 31.390625 
L 31.203125 23.390625 
L 4.890625 23.390625 
z
" id="DejaVuSans-45"/>
     <path d="M 31 75.875 
Q 24.46875 64.65625 21.28125 53.65625 
Q 18.109375 42.671875 18.109375 31.390625 
Q 18.109375 20.125 21.3125 9.0625 
Q 24.515625 -2 31 -13.1875 
L 23.1875 -13.1875 
Q 15.875 -1.703125 12.234375 9.375 
Q 8.59375 20.453125 8.59375 31.390625 
Q 8.59375 42.28125 12.203125 53.3125 
Q 15.828125 64.359375 23.1875 75.875 
z
" id="DejaVuSans-40"/>
     <path d="M 18.3125 70.21875 
L 18.3125 54.6875 
L 36.8125 54.6875 
L 36.8125 47.703125 
L 18.3125 47.703125 
L 18.3125 18.015625 
Q 18.3125 11.328125 20.140625 9.421875 
Q 21.96875 7.515625 27.59375 7.515625 
L 36.8125 7.515625 
L 36.8125 0 
L 27.59375 0 
Q 17.1875 0 13.234375 3.875 
Q 9.28125 7.765625 9.28125 18.015625 
L 9.28125 47.703125 
L 2.6875 47.703125 
L 2.6875 54.6875 
L 9.28125 54.6875 
L 9.28125 70.21875 
z
" id="DejaVuSans-116"/>
     <path d="M 11.71875 12.40625 
L 22.015625 12.40625 
L 22.015625 0 
L 11.71875 0 
z
M 11.71875 51.703125 
L 22.015625 51.703125 
L 22.015625 39.3125 
L 11.71875 39.3125 
z
" id="DejaVuSans-58"/>
     <path d="M 19.671875 34.8125 
L 19.671875 8.109375 
L 35.5 8.109375 
Q 43.453125 8.109375 47.28125 11.40625 
Q 51.125 14.703125 51.125 21.484375 
Q 51.125 28.328125 47.28125 31.5625 
Q 43.453125 34.8125 35.5 34.8125 
z
M 19.671875 64.796875 
L 19.671875 42.828125 
L 34.28125 42.828125 
Q 41.5 42.828125 45.03125 45.53125 
Q 48.578125 48.25 48.578125 53.8125 
Q 48.578125 59.328125 45.03125 62.0625 
Q 41.5 64.796875 34.28125 64.796875 
z
M 9.8125 72.90625 
L 35.015625 72.90625 
Q 46.296875 72.90625 52.390625 68.21875 
Q 58.5 63.53125 58.5 54.890625 
Q 58.5 48.1875 55.375 44.234375 
Q 52.25 40.28125 46.1875 39.3125 
Q 53.46875 37.75 57.5 32.78125 
Q 61.53125 27.828125 61.53125 20.40625 
Q 61.53125 10.640625 54.890625 5.3125 
Q 48.25 0 35.984375 0 
L 9.8125 0 
z
" id="DejaVuSans-66"/>
     <path d="M 9.8125 72.90625 
L 55.90625 72.90625 
L 55.90625 64.59375 
L 19.671875 64.59375 
L 19.671875 43.015625 
L 54.390625 43.015625 
L 54.390625 34.71875 
L 19.671875 34.71875 
L 19.671875 8.296875 
L 56.78125 8.296875 
L 56.78125 0 
L 9.8125 0 
z
" id="DejaVuSans-69"/>
     <path d="M 9.8125 72.90625 
L 23.09375 72.90625 
L 55.421875 11.921875 
L 55.421875 72.90625 
L 64.984375 72.90625 
L 64.984375 0 
L 51.703125 0 
L 19.390625 60.984375 
L 19.390625 0 
L 9.8125 0 
z
" id="DejaVuSans-78"/>
     <path d="M 31.78125 34.625 
Q 24.75 34.625 20.71875 30.859375 
Q 16.703125 27.09375 16.703125 20.515625 
Q 16.703125 13.921875 20.71875 10.15625 
Q 24.75 6.390625 31.78125 6.390625 
Q 38.8125 6.390625 42.859375 10.171875 
Q 46.921875 13.96875 46.921875 20.515625 
Q 46.921875 27.09375 42.890625 30.859375 
Q 38.875 34.625 31.78125 34.625 
z
M 21.921875 38.8125 
Q 15.578125 40.375 12.03125 44.71875 
Q 8.5 49.078125 8.5 55.328125 
Q 8.5 64.0625 14.71875 69.140625 
Q 20.953125 74.21875 31.78125 74.21875 
Q 42.671875 74.21875 48.875 69.140625 
Q 55.078125 64.0625 55.078125 55.328125 
Q 55.078125 49.078125 51.53125 44.71875 
Q 48 40.375 41.703125 38.8125 
Q 48.828125 37.15625 52.796875 32.3125 
Q 56.78125 27.484375 56.78125 20.515625 
Q 56.78125 9.90625 50.3125 4.234375 
Q 43.84375 -1.421875 31.78125 -1.421875 
Q 19.734375 -1.421875 13.25 4.234375 
Q 6.78125 9.90625 6.78125 20.515625 
Q 6.78125 27.484375 10.78125 32.3125 
Q 14.796875 37.15625 21.921875 38.8125 
z
M 18.3125 54.390625 
Q 18.3125 48.734375 21.84375 45.5625 
Q 25.390625 42.390625 31.78125 42.390625 
Q 38.140625 42.390625 41.71875 45.5625 
Q 45.3125 48.734375 45.3125 54.390625 
Q 45.3125 60.0625 41.71875 63.234375 
Q 38.140625 66.40625 31.78125 66.40625 
Q 25.390625 66.40625 21.84375 63.234375 
Q 18.3125 60.0625 18.3125 54.390625 
z
" id="DejaVuSans-56"/>
     <path d="M 8.015625 75.875 
L 15.828125 75.875 
Q 23.140625 64.359375 26.78125 53.3125 
Q 30.421875 42.28125 30.421875 31.390625 
Q 30.421875 20.453125 26.78125 9.375 
Q 23.140625 -1.703125 15.828125 -13.1875 
L 8.015625 -13.1875 
Q 14.5 -2 17.703125 9.0625 
Q 20.90625 20.125 20.90625 31.390625 
Q 20.90625 42.671875 17.703125 53.65625 
Q 14.5 64.65625 8.015625 75.875 
z
" id="DejaVuSans-41"/>
     <path d="M 9.8125 72.90625 
L 19.671875 72.90625 
L 19.671875 0 
L 9.8125 0 
z
" id="DejaVuSans-73"/>
     <path d="M 45.40625 46.390625 
L 45.40625 75.984375 
L 54.390625 75.984375 
L 54.390625 0 
L 45.40625 0 
L 45.40625 8.203125 
Q 42.578125 3.328125 38.25 0.953125 
Q 33.9375 -1.421875 27.875 -1.421875 
Q 17.96875 -1.421875 11.734375 6.484375 
Q 5.515625 14.40625 5.515625 27.296875 
Q 5.515625 40.1875 11.734375 48.09375 
Q 17.96875 56 27.875 56 
Q 33.9375 56 38.25 53.625 
Q 42.578125 51.265625 45.40625 46.390625 
z
M 14.796875 27.296875 
Q 14.796875 17.390625 18.875 11.75 
Q 22.953125 6.109375 30.078125 6.109375 
Q 37.203125 6.109375 41.296875 11.75 
Q 45.40625 17.390625 45.40625 27.296875 
Q 45.40625 37.203125 41.296875 42.84375 
Q 37.203125 48.484375 30.078125 48.484375 
Q 22.953125 48.484375 18.875 42.84375 
Q 14.796875 37.203125 14.796875 27.296875 
z
" id="DejaVuSans-100"/>
     <path d="M 9.8125 72.90625 
L 19.671875 72.90625 
L 19.671875 8.296875 
L 55.171875 8.296875 
L 55.171875 0 
L 9.8125 0 
z
" id="DejaVuSans-76"/>
     <path d="M 39.40625 66.21875 
Q 28.65625 66.21875 22.328125 58.203125 
Q 16.015625 50.203125 16.015625 36.375 
Q 16.015625 22.609375 22.328125 14.59375 
Q 28.65625 6.59375 39.40625 6.59375 
Q 50.140625 6.59375 56.421875 14.59375 
Q 62.703125 22.609375 62.703125 36.375 
Q 62.703125 50.203125 56.421875 58.203125 
Q 50.140625 66.21875 39.40625 66.21875 
z
M 39.40625 74.21875 
Q 54.734375 74.21875 63.90625 63.9375 
Q 73.09375 53.65625 73.09375 36.375 
Q 73.09375 19.140625 63.90625 8.859375 
Q 54.734375 -1.421875 39.40625 -1.421875 
Q 24.03125 -1.421875 14.8125 8.828125 
Q 5.609375 19.09375 5.609375 36.375 
Q 5.609375 53.65625 14.8125 63.9375 
Q 24.03125 74.21875 39.40625 74.21875 
z
" id="DejaVuSans-79"/>
     <path d="M 34.1875 63.1875 
L 20.796875 26.90625 
L 47.609375 26.90625 
z
M 28.609375 72.90625 
L 39.796875 72.90625 
L 67.578125 0 
L 57.328125 0 
L 50.6875 18.703125 
L 17.828125 18.703125 
L 11.1875 0 
L 0.78125 0 
z
" id="DejaVuSans-65"/>
     <path d="M 44.390625 34.1875 
Q 47.5625 33.109375 50.5625 29.59375 
Q 53.5625 26.078125 56.59375 19.921875 
L 66.609375 0 
L 56 0 
L 46.6875 18.703125 
Q 43.0625 26.03125 39.671875 28.421875 
Q 36.28125 30.8125 30.421875 30.8125 
L 19.671875 30.8125 
L 19.671875 0 
L 9.8125 0 
L 9.8125 72.90625 
L 32.078125 72.90625 
Q 44.578125 72.90625 50.734375 67.671875 
Q 56.890625 62.453125 56.890625 51.90625 
Q 56.890625 45.015625 53.6875 40.46875 
Q 50.484375 35.9375 44.390625 34.1875 
z
M 19.671875 64.796875 
L 19.671875 38.921875 
L 32.078125 38.921875 
Q 39.203125 38.921875 42.84375 42.21875 
Q 46.484375 45.515625 46.484375 51.90625 
Q 46.484375 58.296875 42.84375 61.546875 
Q 39.203125 64.796875 32.078125 64.796875 
z
" id="DejaVuSans-82"/>
     <path d="M 6.296875 72.90625 
L 16.890625 72.90625 
L 35.015625 45.796875 
L 53.21875 72.90625 
L 63.8125 72.90625 
L 40.375 37.890625 
L 65.375 0 
L 54.78125 0 
L 34.28125 31 
L 13.625 0 
L 2.984375 0 
L 29 38.921875 
z
" id="DejaVuSans-88"/>
     <path d="M 18.109375 8.203125 
L 18.109375 -20.796875 
L 9.078125 -20.796875 
L 9.078125 54.6875 
L 18.109375 54.6875 
L 18.109375 46.390625 
Q 20.953125 51.265625 25.265625 53.625 
Q 29.59375 56 35.59375 56 
Q 45.5625 56 51.78125 48.09375 
Q 58.015625 40.1875 58.015625 27.296875 
Q 58.015625 14.40625 51.78125 6.484375 
Q 45.5625 -1.421875 35.59375 -1.421875 
Q 29.59375 -1.421875 25.265625 0.953125 
Q 20.953125 3.328125 18.109375 8.203125 
z
M 48.6875 27.296875 
Q 48.6875 37.203125 44.609375 42.84375 
Q 40.53125 48.484375 33.40625 48.484375 
Q 26.265625 48.484375 22.1875 42.84375 
Q 18.109375 37.203125 18.109375 27.296875 
Q 18.109375 17.390625 22.1875 11.75 
Q 26.265625 6.109375 33.40625 6.109375 
Q 40.53125 6.109375 44.609375 11.75 
Q 48.6875 17.390625 48.6875 27.296875 
z
" id="DejaVuSans-112"/>
     <path d="M 48.78125 52.59375 
L 48.78125 44.1875 
Q 44.96875 46.296875 41.140625 47.34375 
Q 37.3125 48.390625 33.40625 48.390625 
Q 24.65625 48.390625 19.8125 42.84375 
Q 14.984375 37.3125 14.984375 27.296875 
Q 14.984375 17.28125 19.8125 11.734375 
Q 24.65625 6.203125 33.40625 6.203125 
Q 37.3125 6.203125 41.140625 7.25 
Q 44.96875 8.296875 48.78125 10.40625 
L 48.78125 2.09375 
Q 45.015625 0.34375 40.984375 -0.53125 
Q 36.96875 -1.421875 32.421875 -1.421875 
Q 20.0625 -1.421875 12.78125 6.34375 
Q 5.515625 14.109375 5.515625 27.296875 
Q 5.515625 40.671875 12.859375 48.328125 
Q 20.21875 56 33.015625 56 
Q 37.15625 56 41.109375 55.140625 
Q 45.0625 54.296875 48.78125 52.59375 
z
" id="DejaVuSans-99"/>
     <path d="M 10.6875 12.40625 
L 21 12.40625 
L 21 0 
L 10.6875 0 
z
" id="DejaVuSans-46"/>
     <path d="M 11.71875 12.40625 
L 22.015625 12.40625 
L 22.015625 4 
L 14.015625 -11.625 
L 7.71875 -11.625 
L 11.71875 4 
z
" id="DejaVuSans-44"/>
     <path d="M 10.984375 1.515625 
L 10.984375 10.5 
Q 14.703125 8.734375 18.5 7.8125 
Q 22.3125 6.890625 25.984375 6.890625 
Q 35.75 6.890625 40.890625 13.453125 
Q 46.046875 20.015625 46.78125 33.40625 
Q 43.953125 29.203125 39.59375 26.953125 
Q 35.25 24.703125 29.984375 24.703125 
Q 19.046875 24.703125 12.671875 31.3125 
Q 6.296875 37.9375 6.296875 49.421875 
Q 6.296875 60.640625 12.9375 67.421875 
Q 19.578125 74.21875 30.609375 74.21875 
Q 43.265625 74.21875 49.921875 64.515625 
Q 56.59375 54.828125 56.59375 36.375 
Q 56.59375 19.140625 48.40625 8.859375 
Q 40.234375 -1.421875 26.421875 -1.421875 
Q 22.703125 -1.421875 18.890625 -0.6875 
Q 15.09375 0.046875 10.984375 1.515625 
z
M 30.609375 32.421875 
Q 37.25 32.421875 41.125 36.953125 
Q 45.015625 41.5 45.015625 49.421875 
Q 45.015625 57.28125 41.125 61.84375 
Q 37.25 66.40625 30.609375 66.40625 
Q 23.96875 66.40625 20.09375 61.84375 
Q 16.21875 57.28125 16.21875 49.421875 
Q 16.21875 41.5 20.09375 36.953125 
Q 23.96875 32.421875 30.609375 32.421875 
z
" id="DejaVuSans-57"/>
     <path d="M 72.703125 32.078125 
Q 68.453125 32.078125 66.03125 28.46875 
Q 63.625 24.859375 63.625 18.40625 
Q 63.625 12.0625 66.03125 8.421875 
Q 68.453125 4.78125 72.703125 4.78125 
Q 76.859375 4.78125 79.265625 8.421875 
Q 81.6875 12.0625 81.6875 18.40625 
Q 81.6875 24.8125 79.265625 28.4375 
Q 76.859375 32.078125 72.703125 32.078125 
z
M 72.703125 38.28125 
Q 80.421875 38.28125 84.953125 32.90625 
Q 89.5 27.546875 89.5 18.40625 
Q 89.5 9.28125 84.9375 3.921875 
Q 80.375 -1.421875 72.703125 -1.421875 
Q 64.890625 -1.421875 60.34375 3.921875 
Q 55.8125 9.28125 55.8125 18.40625 
Q 55.8125 27.59375 60.375 32.9375 
Q 64.9375 38.28125 72.703125 38.28125 
z
M 22.3125 68.015625 
Q 18.109375 68.015625 15.6875 64.375 
Q 13.28125 60.75 13.28125 54.390625 
Q 13.28125 47.953125 15.671875 44.328125 
Q 18.0625 40.71875 22.3125 40.71875 
Q 26.5625 40.71875 28.96875 44.328125 
Q 31.390625 47.953125 31.390625 54.390625 
Q 31.390625 60.6875 28.953125 64.34375 
Q 26.515625 68.015625 22.3125 68.015625 
z
M 66.40625 74.21875 
L 74.21875 74.21875 
L 28.609375 -1.421875 
L 20.796875 -1.421875 
z
M 22.3125 74.21875 
Q 30.03125 74.21875 34.609375 68.875 
Q 39.203125 63.53125 39.203125 54.390625 
Q 39.203125 45.171875 34.640625 39.84375 
Q 30.078125 34.515625 22.3125 34.515625 
Q 14.546875 34.515625 10.03125 39.859375 
Q 5.515625 45.21875 5.515625 54.390625 
Q 5.515625 63.484375 10.046875 68.84375 
Q 14.59375 74.21875 22.3125 74.21875 
z
" id="DejaVuSans-37"/>
    </defs>
    <g transform="translate(211.572188 97.68)scale(0.12 -0.12)">
     <use xlink:href="#DejaVuSans-80"/>
     <use x="60.302734" xlink:href="#DejaVuSans-77"/>
     <use x="146.582031" xlink:href="#DejaVuSans-49"/>
     <use x="210.205078" xlink:href="#DejaVuSans-48"/>
     <use x="273.828125" xlink:href="#DejaVuSans-32"/>
     <use x="305.615234" xlink:href="#DejaVuSans-84"/>
     <use x="366.652344" xlink:href="#DejaVuSans-105"/>
     <use x="394.435547" xlink:href="#DejaVuSans-109"/>
     <use x="491.847656" xlink:href="#DejaVuSans-101"/>
     <use x="553.371094" xlink:href="#DejaVuSans-45"/>
     <use x="589.455078" xlink:href="#DejaVuSans-115"/>
     <use x="641.554688" xlink:href="#DejaVuSans-101"/>
     <use x="703.078125" xlink:href="#DejaVuSans-114"/>
     <use x="744.191406" xlink:href="#DejaVuSans-105"/>
     <use x="771.974609" xlink:href="#DejaVuSans-101"/>
     <use x="833.498047" xlink:href="#DejaVuSans-115"/>
     <use x="885.597656" xlink:href="#DejaVuSans-32"/>
     <use x="917.384766" xlink:href="#DejaVuSans-40"/>
     <use x="956.398438" xlink:href="#DejaVuSans-83"/>
     <use x="1019.875" xlink:href="#DejaVuSans-116"/>
     <use x="1059.083984" xlink:href="#DejaVuSans-97"/>
     <use x="1120.363281" xlink:href="#DejaVuSans-116"/>
     <use x="1159.572266" xlink:href="#DejaVuSans-105"/>
     <use x="1187.355469" xlink:href="#DejaVuSans-111"/>
     <use x="1248.537109" xlink:href="#DejaVuSans-110"/>
     <use x="1311.916016" xlink:href="#DejaVuSans-58"/>
     <use x="1345.607422" xlink:href="#DejaVuSans-32"/>
     <use x="1377.394531" xlink:href="#DejaVuSans-66"/>
     <use x="1445.998047" xlink:href="#DejaVuSans-69"/>
     <use x="1509.181641" xlink:href="#DejaVuSans-84"/>
     <use x="1570.265625" xlink:href="#DejaVuSans-78"/>
     <use x="1645.070312" xlink:href="#DejaVuSans-48"/>
     <use x="1708.693359" xlink:href="#DejaVuSans-56"/>
     <use x="1772.316406" xlink:href="#DejaVuSans-53"/>
     <use x="1835.939453" xlink:href="#DejaVuSans-41"/>
     <use x="1874.953125" xlink:href="#DejaVuSans-32"/>
     <use x="1906.740234" xlink:href="#DejaVuSans-50"/>
     <use x="1970.363281" xlink:href="#DejaVuSans-48"/>
     <use x="2033.986328" xlink:href="#DejaVuSans-49"/>
     <use x="2097.609375" xlink:href="#DejaVuSans-50"/>
     <use x="2161.232422" xlink:href="#DejaVuSans-58"/>
     <use x="2194.923828" xlink:href="#DejaVuSans-32"/>
     <use x="2226.710938" xlink:href="#DejaVuSans-73"/>
     <use x="2256.203125" xlink:href="#DejaVuSans-115"/>
     <use x="2308.302734" xlink:href="#DejaVuSans-108"/>
     <use x="2336.085938" xlink:href="#DejaVuSans-97"/>
     <use x="2397.365234" xlink:href="#DejaVuSans-110"/>
     <use x="2460.744141" xlink:href="#DejaVuSans-100"/>
     <use x="2524.220703" xlink:href="#DejaVuSans-32"/>
     <use x="2556.007812" xlink:href="#DejaVuSans-76"/>
     <use x="2611.720703" xlink:href="#DejaVuSans-83"/>
     <use x="2675.197266" xlink:href="#DejaVuSans-84"/>
     <use x="2736.28125" xlink:href="#DejaVuSans-77"/>
     <use x="2822.560547" xlink:href="#DejaVuSans-32"/>
     <use x="2854.347656" xlink:href="#DejaVuSans-77"/>
     <use x="2940.626953" xlink:href="#DejaVuSans-73"/>
     <use x="2970.119141" xlink:href="#DejaVuSans-77"/>
     <use x="3056.398438" xlink:href="#DejaVuSans-79"/>
     <use x="3135.109375" xlink:href="#DejaVuSans-32"/>
     <use x="3166.896484" xlink:href="#DejaVuSans-78"/>
     <use x="3241.701172" xlink:href="#DejaVuSans-65"/>
     <use x="3310.109375" xlink:href="#DejaVuSans-82"/>
     <use x="3379.591797" xlink:href="#DejaVuSans-88"/>
     <use x="3448.019531" xlink:href="#DejaVuSans-45"/>
     <use x="3484.103516" xlink:href="#DejaVuSans-49"/>
     <use x="3547.726562" xlink:href="#DejaVuSans-32"/>
     <use x="3579.513672" xlink:href="#DejaVuSans-112"/>
     <use x="3642.990234" xlink:href="#DejaVuSans-114"/>
     <use x="3684.072266" xlink:href="#DejaVuSans-101"/>
     <use x="3745.595703" xlink:href="#DejaVuSans-100"/>
     <use x="3809.072266" xlink:href="#DejaVuSans-105"/>
     <use x="3836.855469" xlink:href="#DejaVuSans-99"/>
     <use x="3891.835938" xlink:href="#DejaVuSans-116"/>
     <use x="3931.044922" xlink:href="#DejaVuSans-105"/>
     <use x="3958.828125" xlink:href="#DejaVuSans-111"/>
     <use x="4020.009766" xlink:href="#DejaVuSans-110"/>
     <use x="4083.388672" xlink:href="#DejaVuSans-32"/>
     <use x="4115.175781" xlink:href="#DejaVuSans-40"/>
     <use x="4154.189453" xlink:href="#DejaVuSans-77"/>
     <use x="4240.46875" xlink:href="#DejaVuSans-83"/>
     <use x="4303.945312" xlink:href="#DejaVuSans-69"/>
     <use x="4367.128906" xlink:href="#DejaVuSans-58"/>
     <use x="4400.820312" xlink:href="#DejaVuSans-32"/>
     <use x="4432.607422" xlink:href="#DejaVuSans-52"/>
     <use x="4496.230469" xlink:href="#DejaVuSans-56"/>
     <use x="4559.853516" xlink:href="#DejaVuSans-46"/>
     <use x="4591.640625" xlink:href="#DejaVuSans-52"/>
     <use x="4655.263672" xlink:href="#DejaVuSans-55"/>
     <use x="4718.886719" xlink:href="#DejaVuSans-44"/>
     <use x="4750.673828" xlink:href="#DejaVuSans-32"/>
     <use x="4782.460938" xlink:href="#DejaVuSans-82"/>
     <use x="4851.943359" xlink:href="#DejaVuSans-77"/>
     <use x="4938.222656" xlink:href="#DejaVuSans-83"/>
     <use x="5001.699219" xlink:href="#DejaVuSans-69"/>
     <use x="5064.882812" xlink:href="#DejaVuSans-58"/>
     <use x="5098.574219" xlink:href="#DejaVuSans-32"/>
     <use x="5130.361328" xlink:href="#DejaVuSans-54"/>
     <use x="5193.984375" xlink:href="#DejaVuSans-46"/>
     <use x="5225.771484" xlink:href="#DejaVuSans-57"/>
     <use x="5289.394531" xlink:href="#DejaVuSans-54"/>
     <use x="5353.017578" xlink:href="#DejaVuSans-44"/>
     <use x="5384.804688" xlink:href="#DejaVuSans-32"/>
     <use x="5416.591797" xlink:href="#DejaVuSans-77"/>
     <use x="5502.871094" xlink:href="#DejaVuSans-65"/>
     <use x="5571.279297" xlink:href="#DejaVuSans-69"/>
     <use x="5634.462891" xlink:href="#DejaVuSans-58"/>
     <use x="5668.154297" xlink:href="#DejaVuSans-32"/>
     <use x="5699.941406" xlink:href="#DejaVuSans-52"/>
     <use x="5763.564453" xlink:href="#DejaVuSans-46"/>
     <use x="5795.351562" xlink:href="#DejaVuSans-57"/>
     <use x="5858.974609" xlink:href="#DejaVuSans-49"/>
     <use x="5922.597656" xlink:href="#DejaVuSans-44"/>
     <use x="5954.384766" xlink:href="#DejaVuSans-32"/>
     <use x="5986.171875" xlink:href="#DejaVuSans-77"/>
     <use x="6072.451172" xlink:href="#DejaVuSans-65"/>
     <use x="6140.859375" xlink:href="#DejaVuSans-80"/>
     <use x="6201.162109" xlink:href="#DejaVuSans-69"/>
     <use x="6264.345703" xlink:href="#DejaVuSans-58"/>
     <use x="6298.037109" xlink:href="#DejaVuSans-32"/>
     <use x="6329.824219" xlink:href="#DejaVuSans-55"/>
     <use x="6393.447266" xlink:href="#DejaVuSans-54"/>
     <use x="6457.070312" xlink:href="#DejaVuSans-46"/>
     <use x="6488.857422" xlink:href="#DejaVuSans-49"/>
     <use x="6552.480469" xlink:href="#DejaVuSans-50"/>
     <use x="6616.103516" xlink:href="#DejaVuSans-37"/>
     <use x="6711.123047" xlink:href="#DejaVuSans-44"/>
     <use x="6742.910156" xlink:href="#DejaVuSans-32"/>
     <use x="6774.697266" xlink:href="#DejaVuSans-83"/>
     <use x="6838.173828" xlink:href="#DejaVuSans-77"/>
     <use x="6924.453125" xlink:href="#DejaVuSans-65"/>
     <use x="6992.861328" xlink:href="#DejaVuSans-80"/>
     <use x="7053.164062" xlink:href="#DejaVuSans-69"/>
     <use x="7116.347656" xlink:href="#DejaVuSans-58"/>
     <use x="7150.039062" xlink:href="#DejaVuSans-32"/>
     <use x="7181.826172" xlink:href="#DejaVuSans-52"/>
     <use x="7245.449219" xlink:href="#DejaVuSans-50"/>
     <use x="7309.072266" xlink:href="#DejaVuSans-46"/>
     <use x="7340.859375" xlink:href="#DejaVuSans-52"/>
     <use x="7404.482422" xlink:href="#DejaVuSans-49"/>
     <use x="7468.105469" xlink:href="#DejaVuSans-37"/>
     <use x="7563.125" xlink:href="#DejaVuSans-44"/>
     <use x="7594.912109" xlink:href="#DejaVuSans-32"/>
     <use x="7626.699219" xlink:href="#DejaVuSans-82"/>
     <use x="7696.181641" xlink:href="#DejaVuSans-50"/>
     <use x="7759.804688" xlink:href="#DejaVuSans-58"/>
     <use x="7793.496094" xlink:href="#DejaVuSans-32"/>
     <use x="7825.283203" xlink:href="#DejaVuSans-48"/>
     <use x="7888.90625" xlink:href="#DejaVuSans-46"/>
     <use x="7920.693359" xlink:href="#DejaVuSans-52"/>
     <use x="7984.316406" xlink:href="#DejaVuSans-53"/>
     <use x="8047.939453" xlink:href="#DejaVuSans-44"/>
     <use x="8079.726562" xlink:href="#DejaVuSans-32"/>
     <use x="8111.513672" xlink:href="#DejaVuSans-73"/>
     <use x="8141.005859" xlink:href="#DejaVuSans-79"/>
     <use x="8219.701172" xlink:href="#DejaVuSans-65"/>
     <use x="8288.09375" xlink:href="#DejaVuSans-58"/>
     <use x="8321.785156" xlink:href="#DejaVuSans-32"/>
     <use x="8353.572266" xlink:href="#DejaVuSans-56"/>
     <use x="8417.195312" xlink:href="#DejaVuSans-49"/>
     <use x="8480.818359" xlink:href="#DejaVuSans-46"/>
     <use x="8512.605469" xlink:href="#DejaVuSans-55"/>
     <use x="8576.228516" xlink:href="#DejaVuSans-51"/>
     <use x="8639.851562" xlink:href="#DejaVuSans-37"/>
     <use x="8734.871094" xlink:href="#DejaVuSans-41"/>
    </g>
   </g>
   <g id="legend_1">
    <g id="patch_7">
     <path d="M 1209.34375 141.03625 
L 1289 141.03625 
Q 1291 141.03625 1291 139.03625 
L 1291 110.68 
Q 1291 108.68 1289 108.68 
L 1209.34375 108.68 
Q 1207.34375 108.68 1207.34375 110.68 
L 1207.34375 139.03625 
Q 1207.34375 141.03625 1209.34375 141.03625 
z
" style="fill:#ffffff;opacity:0.8;stroke:#cccccc;stroke-linejoin:miter;"/>
    </g>
    <g id="line2d_19">
     <path d="M 1211.34375 116.778437 
L 1231.34375 116.778437 
" style="fill:none;stroke:#1f77b4;stroke-linecap:square;stroke-width:1.5;"/>
    </g>
    <g id="line2d_20"/>
    <g id="text_19">
     <!-- expected -->
     <defs>
      <path d="M 54.890625 54.6875 
L 35.109375 28.078125 
L 55.90625 0 
L 45.3125 0 
L 29.390625 21.484375 
L 13.484375 0 
L 2.875 0 
L 24.125 28.609375 
L 4.6875 54.6875 
L 15.28125 54.6875 
L 29.78125 35.203125 
L 44.28125 54.6875 
z
" id="DejaVuSans-120"/>
     </defs>
     <g transform="translate(1239.34375 120.278437)scale(0.1 -0.1)">
      <use xlink:href="#DejaVuSans-101"/>
      <use x="61.507812" xlink:href="#DejaVuSans-120"/>
      <use x="120.6875" xlink:href="#DejaVuSans-112"/>
      <use x="184.164062" xlink:href="#DejaVuSans-101"/>
      <use x="245.6875" xlink:href="#DejaVuSans-99"/>
      <use x="300.667969" xlink:href="#DejaVuSans-116"/>
      <use x="339.876953" xlink:href="#DejaVuSans-101"/>
      <use x="401.400391" xlink:href="#DejaVuSans-100"/>
     </g>
    </g>
    <g id="line2d_21">
     <path d="M 1211.34375 131.456563 
L 1231.34375 131.456563 
" style="fill:none;stroke:#ff7f0e;stroke-linecap:square;stroke-width:1.5;"/>
    </g>
    <g id="line2d_22"/>
    <g id="text_20">
     <!-- predicted -->
     <g transform="translate(1239.34375 134.956563)scale(0.1 -0.1)">
      <use xlink:href="#DejaVuSans-112"/>
      <use x="63.476562" xlink:href="#DejaVuSans-114"/>
      <use x="104.558594" xlink:href="#DejaVuSans-101"/>
      <use x="166.082031" xlink:href="#DejaVuSans-100"/>
      <use x="229.558594" xlink:href="#DejaVuSans-105"/>
      <use x="257.341797" xlink:href="#DejaVuSans-99"/>
      <use x="312.322266" xlink:href="#DejaVuSans-116"/>
      <use x="351.53125" xlink:href="#DejaVuSans-101"/>
      <use x="413.054688" xlink:href="#DejaVuSans-100"/>
     </g>
    </g>
   </g>
  </g>
 </g>
 <defs>
  <clipPath id="p906812d84c">
   <rect height="652.32" width="1116" x="180" y="103.68"/>
  </clipPath>
 </defs>
</svg>
