<?xml version="1.0" encoding="utf-8" standalone="no"?>
<!DOCTYPE svg PUBLIC "-//W3C//DTD SVG 1.1//EN"
  "http://www.w3.org/Graphics/SVG/1.1/DTD/svg11.dtd">
<!-- Created with matplotlib (https://matplotlib.org/) -->
<svg height="432pt" version="1.1" viewBox="0 0 576 432" width="576pt" xmlns="http://www.w3.org/2000/svg" xmlns:xlink="http://www.w3.org/1999/xlink">
 <defs>
  <style type="text/css">
*{stroke-linecap:butt;stroke-linejoin:round;white-space:pre;}
  </style>
 </defs>
 <g id="figure_1">
  <g id="patch_1">
   <path d="M 0 432 
L 576 432 
L 576 0 
L 0 0 
z
" style="fill:#ffffff;"/>
  </g>
  <g id="axes_1">
   <g id="patch_2">
    <path d="M 72 378 
L 518.4 378 
L 518.4 51.84 
L 72 51.84 
z
" style="fill:#ffffff;"/>
   </g>
   <g id="matplotlib.axis_1">
    <g id="xtick_1">
     <g id="line2d_1">
      <path clip-path="url(#p8201d16123)" d="M 92.290909 378 
L 92.290909 51.84 
" style="fill:none;stroke:#b0b0b0;stroke-linecap:square;stroke-width:0.8;"/>
     </g>
     <g id="line2d_2">
      <defs>
       <path d="M 0 0 
L 0 3.5 
" id="m7cb00248fa" style="stroke:#000000;stroke-width:0.8;"/>
      </defs>
      <g>
       <use style="stroke:#000000;stroke-width:0.8;" x="92.290909" xlink:href="#m7cb00248fa" y="378"/>
      </g>
     </g>
     <g id="text_1">
      <!-- 0 -->
      <defs>
       <path d="M 31.78125 66.40625 
Q 24.171875 66.40625 20.328125 58.90625 
Q 16.5 51.421875 16.5 36.375 
Q 16.5 21.390625 20.328125 13.890625 
Q 24.171875 6.390625 31.78125 6.390625 
Q 39.453125 6.390625 43.28125 13.890625 
Q 47.125 21.390625 47.125 36.375 
Q 47.125 51.421875 43.28125 58.90625 
Q 39.453125 66.40625 31.78125 66.40625 
z
M 31.78125 74.21875 
Q 44.046875 74.21875 50.515625 64.515625 
Q 56.984375 54.828125 56.984375 36.375 
Q 56.984375 17.96875 50.515625 8.265625 
Q 44.046875 -1.421875 31.78125 -1.421875 
Q 19.53125 -1.421875 13.0625 8.265625 
Q 6.59375 17.96875 6.59375 36.375 
Q 6.59375 54.828125 13.0625 64.515625 
Q 19.53125 74.21875 31.78125 74.21875 
z
" id="DejaVuSans-48"/>
      </defs>
      <g transform="translate(89.109659 392.598437)scale(0.1 -0.1)">
       <use xlink:href="#DejaVuSans-48"/>
      </g>
     </g>
    </g>
    <g id="xtick_2">
     <g id="line2d_3">
      <path clip-path="url(#p8201d16123)" d="M 148.035165 378 
L 148.035165 51.84 
" style="fill:none;stroke:#b0b0b0;stroke-linecap:square;stroke-width:0.8;"/>
     </g>
     <g id="line2d_4">
      <g>
       <use style="stroke:#000000;stroke-width:0.8;" x="148.035165" xlink:href="#m7cb00248fa" y="378"/>
      </g>
     </g>
     <g id="text_2">
      <!-- 50 -->
      <defs>
       <path d="M 10.796875 72.90625 
L 49.515625 72.90625 
L 49.515625 64.59375 
L 19.828125 64.59375 
L 19.828125 46.734375 
Q 21.96875 47.46875 24.109375 47.828125 
Q 26.265625 48.1875 28.421875 48.1875 
Q 40.625 48.1875 47.75 41.5 
Q 54.890625 34.8125 54.890625 23.390625 
Q 54.890625 11.625 47.5625 5.09375 
Q 40.234375 -1.421875 26.90625 -1.421875 
Q 22.3125 -1.421875 17.546875 -0.640625 
Q 12.796875 0.140625 7.71875 1.703125 
L 7.71875 11.625 
Q 12.109375 9.234375 16.796875 8.0625 
Q 21.484375 6.890625 26.703125 6.890625 
Q 35.15625 6.890625 40.078125 11.328125 
Q 45.015625 15.765625 45.015625 23.390625 
Q 45.015625 31 40.078125 35.4375 
Q 35.15625 39.890625 26.703125 39.890625 
Q 22.75 39.890625 18.8125 39.015625 
Q 14.890625 38.140625 10.796875 36.28125 
z
" id="DejaVuSans-53"/>
      </defs>
      <g transform="translate(141.672665 392.598437)scale(0.1 -0.1)">
       <use xlink:href="#DejaVuSans-53"/>
       <use x="63.623047" xlink:href="#DejaVuSans-48"/>
      </g>
     </g>
    </g>
    <g id="xtick_3">
     <g id="line2d_5">
      <path clip-path="url(#p8201d16123)" d="M 203.779421 378 
L 203.779421 51.84 
" style="fill:none;stroke:#b0b0b0;stroke-linecap:square;stroke-width:0.8;"/>
     </g>
     <g id="line2d_6">
      <g>
       <use style="stroke:#000000;stroke-width:0.8;" x="203.779421" xlink:href="#m7cb00248fa" y="378"/>
      </g>
     </g>
     <g id="text_3">
      <!-- 100 -->
      <defs>
       <path d="M 12.40625 8.296875 
L 28.515625 8.296875 
L 28.515625 63.921875 
L 10.984375 60.40625 
L 10.984375 69.390625 
L 28.421875 72.90625 
L 38.28125 72.90625 
L 38.28125 8.296875 
L 54.390625 8.296875 
L 54.390625 0 
L 12.40625 0 
z
" id="DejaVuSans-49"/>
      </defs>
      <g transform="translate(194.235671 392.598437)scale(0.1 -0.1)">
       <use xlink:href="#DejaVuSans-49"/>
       <use x="63.623047" xlink:href="#DejaVuSans-48"/>
       <use x="127.246094" xlink:href="#DejaVuSans-48"/>
      </g>
     </g>
    </g>
    <g id="xtick_4">
     <g id="line2d_7">
      <path clip-path="url(#p8201d16123)" d="M 259.523676 378 
L 259.523676 51.84 
" style="fill:none;stroke:#b0b0b0;stroke-linecap:square;stroke-width:0.8;"/>
     </g>
     <g id="line2d_8">
      <g>
       <use style="stroke:#000000;stroke-width:0.8;" x="259.523676" xlink:href="#m7cb00248fa" y="378"/>
      </g>
     </g>
     <g id="text_4">
      <!-- 150 -->
      <g transform="translate(249.979926 392.598437)scale(0.1 -0.1)">
       <use xlink:href="#DejaVuSans-49"/>
       <use x="63.623047" xlink:href="#DejaVuSans-53"/>
       <use x="127.246094" xlink:href="#DejaVuSans-48"/>
      </g>
     </g>
    </g>
    <g id="xtick_5">
     <g id="line2d_9">
      <path clip-path="url(#p8201d16123)" d="M 315.267932 378 
L 315.267932 51.84 
" style="fill:none;stroke:#b0b0b0;stroke-linecap:square;stroke-width:0.8;"/>
     </g>
     <g id="line2d_10">
      <g>
       <use style="stroke:#000000;stroke-width:0.8;" x="315.267932" xlink:href="#m7cb00248fa" y="378"/>
      </g>
     </g>
     <g id="text_5">
      <!-- 200 -->
      <defs>
       <path d="M 19.1875 8.296875 
L 53.609375 8.296875 
L 53.609375 0 
L 7.328125 0 
L 7.328125 8.296875 
Q 12.9375 14.109375 22.625 23.890625 
Q 32.328125 33.6875 34.8125 36.53125 
Q 39.546875 41.84375 41.421875 45.53125 
Q 43.3125 49.21875 43.3125 52.78125 
Q 43.3125 58.59375 39.234375 62.25 
Q 35.15625 65.921875 28.609375 65.921875 
Q 23.96875 65.921875 18.8125 64.3125 
Q 13.671875 62.703125 7.8125 59.421875 
L 7.8125 69.390625 
Q 13.765625 71.78125 18.9375 73 
Q 24.125 74.21875 28.421875 74.21875 
Q 39.75 74.21875 46.484375 68.546875 
Q 53.21875 62.890625 53.21875 53.421875 
Q 53.21875 48.921875 51.53125 44.890625 
Q 49.859375 40.875 45.40625 35.40625 
Q 44.1875 33.984375 37.640625 27.21875 
Q 31.109375 20.453125 19.1875 8.296875 
z
" id="DejaVuSans-50"/>
      </defs>
      <g transform="translate(305.724182 392.598437)scale(0.1 -0.1)">
       <use xlink:href="#DejaVuSans-50"/>
       <use x="63.623047" xlink:href="#DejaVuSans-48"/>
       <use x="127.246094" xlink:href="#DejaVuSans-48"/>
      </g>
     </g>
    </g>
    <g id="xtick_6">
     <g id="line2d_11">
      <path clip-path="url(#p8201d16123)" d="M 371.012188 378 
L 371.012188 51.84 
" style="fill:none;stroke:#b0b0b0;stroke-linecap:square;stroke-width:0.8;"/>
     </g>
     <g id="line2d_12">
      <g>
       <use style="stroke:#000000;stroke-width:0.8;" x="371.012188" xlink:href="#m7cb00248fa" y="378"/>
      </g>
     </g>
     <g id="text_6">
      <!-- 250 -->
      <g transform="translate(361.468438 392.598437)scale(0.1 -0.1)">
       <use xlink:href="#DejaVuSans-50"/>
       <use x="63.623047" xlink:href="#DejaVuSans-53"/>
       <use x="127.246094" xlink:href="#DejaVuSans-48"/>
      </g>
     </g>
    </g>
    <g id="xtick_7">
     <g id="line2d_13">
      <path clip-path="url(#p8201d16123)" d="M 426.756444 378 
L 426.756444 51.84 
" style="fill:none;stroke:#b0b0b0;stroke-linecap:square;stroke-width:0.8;"/>
     </g>
     <g id="line2d_14">
      <g>
       <use style="stroke:#000000;stroke-width:0.8;" x="426.756444" xlink:href="#m7cb00248fa" y="378"/>
      </g>
     </g>
     <g id="text_7">
      <!-- 300 -->
      <defs>
       <path d="M 40.578125 39.3125 
Q 47.65625 37.796875 51.625 33 
Q 55.609375 28.21875 55.609375 21.1875 
Q 55.609375 10.40625 48.1875 4.484375 
Q 40.765625 -1.421875 27.09375 -1.421875 
Q 22.515625 -1.421875 17.65625 -0.515625 
Q 12.796875 0.390625 7.625 2.203125 
L 7.625 11.71875 
Q 11.71875 9.328125 16.59375 8.109375 
Q 21.484375 6.890625 26.8125 6.890625 
Q 36.078125 6.890625 40.9375 10.546875 
Q 45.796875 14.203125 45.796875 21.1875 
Q 45.796875 27.640625 41.28125 31.265625 
Q 36.765625 34.90625 28.71875 34.90625 
L 20.21875 34.90625 
L 20.21875 43.015625 
L 29.109375 43.015625 
Q 36.375 43.015625 40.234375 45.921875 
Q 44.09375 48.828125 44.09375 54.296875 
Q 44.09375 59.90625 40.109375 62.90625 
Q 36.140625 65.921875 28.71875 65.921875 
Q 24.65625 65.921875 20.015625 65.03125 
Q 15.375 64.15625 9.8125 62.3125 
L 9.8125 71.09375 
Q 15.4375 72.65625 20.34375 73.4375 
Q 25.25 74.21875 29.59375 74.21875 
Q 40.828125 74.21875 47.359375 69.109375 
Q 53.90625 64.015625 53.90625 55.328125 
Q 53.90625 49.265625 50.4375 45.09375 
Q 46.96875 40.921875 40.578125 39.3125 
z
" id="DejaVuSans-51"/>
      </defs>
      <g transform="translate(417.212694 392.598437)scale(0.1 -0.1)">
       <use xlink:href="#DejaVuSans-51"/>
       <use x="63.623047" xlink:href="#DejaVuSans-48"/>
       <use x="127.246094" xlink:href="#DejaVuSans-48"/>
      </g>
     </g>
    </g>
    <g id="xtick_8">
     <g id="line2d_15">
      <path clip-path="url(#p8201d16123)" d="M 482.500699 378 
L 482.500699 51.84 
" style="fill:none;stroke:#b0b0b0;stroke-linecap:square;stroke-width:0.8;"/>
     </g>
     <g id="line2d_16">
      <g>
       <use style="stroke:#000000;stroke-width:0.8;" x="482.500699" xlink:href="#m7cb00248fa" y="378"/>
      </g>
     </g>
     <g id="text_8">
      <!-- 350 -->
      <g transform="translate(472.956949 392.598437)scale(0.1 -0.1)">
       <use xlink:href="#DejaVuSans-51"/>
       <use x="63.623047" xlink:href="#DejaVuSans-53"/>
       <use x="127.246094" xlink:href="#DejaVuSans-48"/>
      </g>
     </g>
    </g>
    <g id="text_9">
     <!-- Day -->
     <defs>
      <path d="M 19.671875 64.796875 
L 19.671875 8.109375 
L 31.59375 8.109375 
Q 46.6875 8.109375 53.6875 14.9375 
Q 60.6875 21.78125 60.6875 36.53125 
Q 60.6875 51.171875 53.6875 57.984375 
Q 46.6875 64.796875 31.59375 64.796875 
z
M 9.8125 72.90625 
L 30.078125 72.90625 
Q 51.265625 72.90625 61.171875 64.09375 
Q 71.09375 55.28125 71.09375 36.53125 
Q 71.09375 17.671875 61.125 8.828125 
Q 51.171875 0 30.078125 0 
L 9.8125 0 
z
" id="DejaVuSans-68"/>
      <path d="M 34.28125 27.484375 
Q 23.390625 27.484375 19.1875 25 
Q 14.984375 22.515625 14.984375 16.5 
Q 14.984375 11.71875 18.140625 8.90625 
Q 21.296875 6.109375 26.703125 6.109375 
Q 34.1875 6.109375 38.703125 11.40625 
Q 43.21875 16.703125 43.21875 25.484375 
L 43.21875 27.484375 
z
M 52.203125 31.203125 
L 52.203125 0 
L 43.21875 0 
L 43.21875 8.296875 
Q 40.140625 3.328125 35.546875 0.953125 
Q 30.953125 -1.421875 24.3125 -1.421875 
Q 15.921875 -1.421875 10.953125 3.296875 
Q 6 8.015625 6 15.921875 
Q 6 25.140625 12.171875 29.828125 
Q 18.359375 34.515625 30.609375 34.515625 
L 43.21875 34.515625 
L 43.21875 35.40625 
Q 43.21875 41.609375 39.140625 45 
Q 35.0625 48.390625 27.6875 48.390625 
Q 23 48.390625 18.546875 47.265625 
Q 14.109375 46.140625 10.015625 43.890625 
L 10.015625 52.203125 
Q 14.9375 54.109375 19.578125 55.046875 
Q 24.21875 56 28.609375 56 
Q 40.484375 56 46.34375 49.84375 
Q 52.203125 43.703125 52.203125 31.203125 
z
" id="DejaVuSans-97"/>
      <path d="M 32.171875 -5.078125 
Q 28.375 -14.84375 24.75 -17.8125 
Q 21.140625 -20.796875 15.09375 -20.796875 
L 7.90625 -20.796875 
L 7.90625 -13.28125 
L 13.1875 -13.28125 
Q 16.890625 -13.28125 18.9375 -11.515625 
Q 21 -9.765625 23.484375 -3.21875 
L 25.09375 0.875 
L 2.984375 54.6875 
L 12.5 54.6875 
L 29.59375 11.921875 
L 46.6875 54.6875 
L 56.203125 54.6875 
z
" id="DejaVuSans-121"/>
     </defs>
     <g transform="translate(285.326562 406.276563)scale(0.1 -0.1)">
      <use xlink:href="#DejaVuSans-68"/>
      <use x="77.001953" xlink:href="#DejaVuSans-97"/>
      <use x="138.28125" xlink:href="#DejaVuSans-121"/>
     </g>
    </g>
   </g>
   <g id="matplotlib.axis_2">
    <g id="ytick_1">
     <g id="line2d_17">
      <path clip-path="url(#p8201d16123)" d="M 72 364.709469 
L 518.4 364.709469 
" style="fill:none;stroke:#b0b0b0;stroke-linecap:square;stroke-width:0.8;"/>
     </g>
     <g id="line2d_18">
      <defs>
       <path d="M 0 0 
L -3.5 0 
" id="m77fee4174d" style="stroke:#000000;stroke-width:0.8;"/>
      </defs>
      <g>
       <use style="stroke:#000000;stroke-width:0.8;" x="72" xlink:href="#m77fee4174d" y="364.709469"/>
      </g>
     </g>
     <g id="text_10">
      <!-- 0 -->
      <g transform="translate(58.6375 368.508688)scale(0.1 -0.1)">
       <use xlink:href="#DejaVuSans-48"/>
      </g>
     </g>
    </g>
    <g id="ytick_2">
     <g id="line2d_19">
      <path clip-path="url(#p8201d16123)" d="M 72 321.350044 
L 518.4 321.350044 
" style="fill:none;stroke:#b0b0b0;stroke-linecap:square;stroke-width:0.8;"/>
     </g>
     <g id="line2d_20">
      <g>
       <use style="stroke:#000000;stroke-width:0.8;" x="72" xlink:href="#m77fee4174d" y="321.350044"/>
      </g>
     </g>
     <g id="text_11">
      <!-- 10 -->
      <g transform="translate(52.275 325.149263)scale(0.1 -0.1)">
       <use xlink:href="#DejaVuSans-49"/>
       <use x="63.623047" xlink:href="#DejaVuSans-48"/>
      </g>
     </g>
    </g>
    <g id="ytick_3">
     <g id="line2d_21">
      <path clip-path="url(#p8201d16123)" d="M 72 277.990619 
L 518.4 277.990619 
" style="fill:none;stroke:#b0b0b0;stroke-linecap:square;stroke-width:0.8;"/>
     </g>
     <g id="line2d_22">
      <g>
       <use style="stroke:#000000;stroke-width:0.8;" x="72" xlink:href="#m77fee4174d" y="277.990619"/>
      </g>
     </g>
     <g id="text_12">
      <!-- 20 -->
      <g transform="translate(52.275 281.789838)scale(0.1 -0.1)">
       <use xlink:href="#DejaVuSans-50"/>
       <use x="63.623047" xlink:href="#DejaVuSans-48"/>
      </g>
     </g>
    </g>
    <g id="ytick_4">
     <g id="line2d_23">
      <path clip-path="url(#p8201d16123)" d="M 72 234.631195 
L 518.4 234.631195 
" style="fill:none;stroke:#b0b0b0;stroke-linecap:square;stroke-width:0.8;"/>
     </g>
     <g id="line2d_24">
      <g>
       <use style="stroke:#000000;stroke-width:0.8;" x="72" xlink:href="#m77fee4174d" y="234.631195"/>
      </g>
     </g>
     <g id="text_13">
      <!-- 30 -->
      <g transform="translate(52.275 238.430413)scale(0.1 -0.1)">
       <use xlink:href="#DejaVuSans-51"/>
       <use x="63.623047" xlink:href="#DejaVuSans-48"/>
      </g>
     </g>
    </g>
    <g id="ytick_5">
     <g id="line2d_25">
      <path clip-path="url(#p8201d16123)" d="M 72 191.27177 
L 518.4 191.27177 
" style="fill:none;stroke:#b0b0b0;stroke-linecap:square;stroke-width:0.8;"/>
     </g>
     <g id="line2d_26">
      <g>
       <use style="stroke:#000000;stroke-width:0.8;" x="72" xlink:href="#m77fee4174d" y="191.27177"/>
      </g>
     </g>
     <g id="text_14">
      <!-- 40 -->
      <defs>
       <path d="M 37.796875 64.3125 
L 12.890625 25.390625 
L 37.796875 25.390625 
z
M 35.203125 72.90625 
L 47.609375 72.90625 
L 47.609375 25.390625 
L 58.015625 25.390625 
L 58.015625 17.1875 
L 47.609375 17.1875 
L 47.609375 0 
L 37.796875 0 
L 37.796875 17.1875 
L 4.890625 17.1875 
L 4.890625 26.703125 
z
" id="DejaVuSans-52"/>
      </defs>
      <g transform="translate(52.275 195.070988)scale(0.1 -0.1)">
       <use xlink:href="#DejaVuSans-52"/>
       <use x="63.623047" xlink:href="#DejaVuSans-48"/>
      </g>
     </g>
    </g>
    <g id="ytick_6">
     <g id="line2d_27">
      <path clip-path="url(#p8201d16123)" d="M 72 147.912345 
L 518.4 147.912345 
" style="fill:none;stroke:#b0b0b0;stroke-linecap:square;stroke-width:0.8;"/>
     </g>
     <g id="line2d_28">
      <g>
       <use style="stroke:#000000;stroke-width:0.8;" x="72" xlink:href="#m77fee4174d" y="147.912345"/>
      </g>
     </g>
     <g id="text_15">
      <!-- 50 -->
      <g transform="translate(52.275 151.711564)scale(0.1 -0.1)">
       <use xlink:href="#DejaVuSans-53"/>
       <use x="63.623047" xlink:href="#DejaVuSans-48"/>
      </g>
     </g>
    </g>
    <g id="ytick_7">
     <g id="line2d_29">
      <path clip-path="url(#p8201d16123)" d="M 72 104.55292 
L 518.4 104.55292 
" style="fill:none;stroke:#b0b0b0;stroke-linecap:square;stroke-width:0.8;"/>
     </g>
     <g id="line2d_30">
      <g>
       <use style="stroke:#000000;stroke-width:0.8;" x="72" xlink:href="#m77fee4174d" y="104.55292"/>
      </g>
     </g>
     <g id="text_16">
      <!-- 60 -->
      <defs>
       <path d="M 33.015625 40.375 
Q 26.375 40.375 22.484375 35.828125 
Q 18.609375 31.296875 18.609375 23.390625 
Q 18.609375 15.53125 22.484375 10.953125 
Q 26.375 6.390625 33.015625 6.390625 
Q 39.65625 6.390625 43.53125 10.953125 
Q 47.40625 15.53125 47.40625 23.390625 
Q 47.40625 31.296875 43.53125 35.828125 
Q 39.65625 40.375 33.015625 40.375 
z
M 52.59375 71.296875 
L 52.59375 62.3125 
Q 48.875 64.0625 45.09375 64.984375 
Q 41.3125 65.921875 37.59375 65.921875 
Q 27.828125 65.921875 22.671875 59.328125 
Q 17.53125 52.734375 16.796875 39.40625 
Q 19.671875 43.65625 24.015625 45.921875 
Q 28.375 48.1875 33.59375 48.1875 
Q 44.578125 48.1875 50.953125 41.515625 
Q 57.328125 34.859375 57.328125 23.390625 
Q 57.328125 12.15625 50.6875 5.359375 
Q 44.046875 -1.421875 33.015625 -1.421875 
Q 20.359375 -1.421875 13.671875 8.265625 
Q 6.984375 17.96875 6.984375 36.375 
Q 6.984375 53.65625 15.1875 63.9375 
Q 23.390625 74.21875 37.203125 74.21875 
Q 40.921875 74.21875 44.703125 73.484375 
Q 48.484375 72.75 52.59375 71.296875 
z
" id="DejaVuSans-54"/>
      </defs>
      <g transform="translate(52.275 108.352139)scale(0.1 -0.1)">
       <use xlink:href="#DejaVuSans-54"/>
       <use x="63.623047" xlink:href="#DejaVuSans-48"/>
      </g>
     </g>
    </g>
    <g id="ytick_8">
     <g id="line2d_31">
      <path clip-path="url(#p8201d16123)" d="M 72 61.193495 
L 518.4 61.193495 
" style="fill:none;stroke:#b0b0b0;stroke-linecap:square;stroke-width:0.8;"/>
     </g>
     <g id="line2d_32">
      <g>
       <use style="stroke:#000000;stroke-width:0.8;" x="72" xlink:href="#m77fee4174d" y="61.193495"/>
      </g>
     </g>
     <g id="text_17">
      <!-- 70 -->
      <defs>
       <path d="M 8.203125 72.90625 
L 55.078125 72.90625 
L 55.078125 68.703125 
L 28.609375 0 
L 18.3125 0 
L 43.21875 64.59375 
L 8.203125 64.59375 
z
" id="DejaVuSans-55"/>
      </defs>
      <g transform="translate(52.275 64.992714)scale(0.1 -0.1)">
       <use xlink:href="#DejaVuSans-55"/>
       <use x="63.623047" xlink:href="#DejaVuSans-48"/>
      </g>
     </g>
    </g>
    <g id="text_18">
     <!-- daily mean $PM 10\mu m$ $[\mu g/m^3$] -->
     <defs>
      <path d="M 45.40625 46.390625 
L 45.40625 75.984375 
L 54.390625 75.984375 
L 54.390625 0 
L 45.40625 0 
L 45.40625 8.203125 
Q 42.578125 3.328125 38.25 0.953125 
Q 33.9375 -1.421875 27.875 -1.421875 
Q 17.96875 -1.421875 11.734375 6.484375 
Q 5.515625 14.40625 5.515625 27.296875 
Q 5.515625 40.1875 11.734375 48.09375 
Q 17.96875 56 27.875 56 
Q 33.9375 56 38.25 53.625 
Q 42.578125 51.265625 45.40625 46.390625 
z
M 14.796875 27.296875 
Q 14.796875 17.390625 18.875 11.75 
Q 22.953125 6.109375 30.078125 6.109375 
Q 37.203125 6.109375 41.296875 11.75 
Q 45.40625 17.390625 45.40625 27.296875 
Q 45.40625 37.203125 41.296875 42.84375 
Q 37.203125 48.484375 30.078125 48.484375 
Q 22.953125 48.484375 18.875 42.84375 
Q 14.796875 37.203125 14.796875 27.296875 
z
" id="DejaVuSans-100"/>
      <path d="M 9.421875 54.6875 
L 18.40625 54.6875 
L 18.40625 0 
L 9.421875 0 
z
M 9.421875 75.984375 
L 18.40625 75.984375 
L 18.40625 64.59375 
L 9.421875 64.59375 
z
" id="DejaVuSans-105"/>
      <path d="M 9.421875 75.984375 
L 18.40625 75.984375 
L 18.40625 0 
L 9.421875 0 
z
" id="DejaVuSans-108"/>
      <path id="DejaVuSans-32"/>
      <path d="M 52 44.1875 
Q 55.375 50.25 60.0625 53.125 
Q 64.75 56 71.09375 56 
Q 79.640625 56 84.28125 50.015625 
Q 88.921875 44.046875 88.921875 33.015625 
L 88.921875 0 
L 79.890625 0 
L 79.890625 32.71875 
Q 79.890625 40.578125 77.09375 44.375 
Q 74.3125 48.1875 68.609375 48.1875 
Q 61.625 48.1875 57.5625 43.546875 
Q 53.515625 38.921875 53.515625 30.90625 
L 53.515625 0 
L 44.484375 0 
L 44.484375 32.71875 
Q 44.484375 40.625 41.703125 44.40625 
Q 38.921875 48.1875 33.109375 48.1875 
Q 26.21875 48.1875 22.15625 43.53125 
Q 18.109375 38.875 18.109375 30.90625 
L 18.109375 0 
L 9.078125 0 
L 9.078125 54.6875 
L 18.109375 54.6875 
L 18.109375 46.1875 
Q 21.1875 51.21875 25.484375 53.609375 
Q 29.78125 56 35.6875 56 
Q 41.65625 56 45.828125 52.96875 
Q 50 49.953125 52 44.1875 
z
" id="DejaVuSans-109"/>
      <path d="M 56.203125 29.59375 
L 56.203125 25.203125 
L 14.890625 25.203125 
Q 15.484375 15.921875 20.484375 11.0625 
Q 25.484375 6.203125 34.421875 6.203125 
Q 39.59375 6.203125 44.453125 7.46875 
Q 49.3125 8.734375 54.109375 11.28125 
L 54.109375 2.78125 
Q 49.265625 0.734375 44.1875 -0.34375 
Q 39.109375 -1.421875 33.890625 -1.421875 
Q 20.796875 -1.421875 13.15625 6.1875 
Q 5.515625 13.8125 5.515625 26.8125 
Q 5.515625 40.234375 12.765625 48.109375 
Q 20.015625 56 32.328125 56 
Q 43.359375 56 49.78125 48.890625 
Q 56.203125 41.796875 56.203125 29.59375 
z
M 47.21875 32.234375 
Q 47.125 39.59375 43.09375 43.984375 
Q 39.0625 48.390625 32.421875 48.390625 
Q 24.90625 48.390625 20.390625 44.140625 
Q 15.875 39.890625 15.1875 32.171875 
z
" id="DejaVuSans-101"/>
      <path d="M 54.890625 33.015625 
L 54.890625 0 
L 45.90625 0 
L 45.90625 32.71875 
Q 45.90625 40.484375 42.875 44.328125 
Q 39.84375 48.1875 33.796875 48.1875 
Q 26.515625 48.1875 22.3125 43.546875 
Q 18.109375 38.921875 18.109375 30.90625 
L 18.109375 0 
L 9.078125 0 
L 9.078125 54.6875 
L 18.109375 54.6875 
L 18.109375 46.1875 
Q 21.34375 51.125 25.703125 53.5625 
Q 30.078125 56 35.796875 56 
Q 45.21875 56 50.046875 50.171875 
Q 54.890625 44.34375 54.890625 33.015625 
z
" id="DejaVuSans-110"/>
      <path d="M 16.890625 72.90625 
L 39.703125 72.90625 
Q 49.65625 72.90625 54.875 68.265625 
Q 60.109375 63.625 60.109375 54.6875 
Q 60.109375 42.671875 52.390625 35.984375 
Q 44.671875 29.296875 30.71875 29.296875 
L 18.3125 29.296875 
L 12.59375 0 
L 2.6875 0 
z
M 25.203125 64.796875 
L 19.921875 37.40625 
L 32.328125 37.40625 
Q 40.71875 37.40625 45.203125 41.703125 
Q 49.703125 46 49.703125 54 
Q 49.703125 59.125 46.65625 61.953125 
Q 43.609375 64.796875 38.09375 64.796875 
z
" id="DejaVuSans-Oblique-80"/>
      <path d="M 16.890625 72.90625 
L 31.6875 72.90625 
L 40.1875 23.78125 
L 68.40625 72.90625 
L 83.59375 72.90625 
L 69.390625 0 
L 59.8125 0 
L 72.21875 63.921875 
L 43.609375 14.015625 
L 33.984375 14.015625 
L 24.703125 64.109375 
L 12.3125 0 
L 2.6875 0 
z
" id="DejaVuSans-Oblique-77"/>
      <path d="M -1.3125 -20.796875 
L 13.375 54.6875 
L 22.40625 54.6875 
L 15.765625 20.65625 
Q 15.578125 19.625 15.421875 18.359375 
Q 15.28125 17.09375 15.28125 15.828125 
Q 15.28125 11.28125 18.140625 8.828125 
Q 21 6.390625 26.3125 6.390625 
Q 33.546875 6.390625 37.984375 10.484375 
Q 42.4375 14.59375 44 22.796875 
L 50.203125 54.6875 
L 59.1875 54.6875 
L 51.03125 12.640625 
Q 50.828125 11.71875 50.75 11.03125 
Q 50.6875 10.359375 50.6875 9.8125 
Q 50.6875 8.296875 51.296875 7.59375 
Q 51.90625 6.890625 53.21875 6.890625 
Q 53.71875 6.890625 54.5625 7.125 
Q 55.421875 7.375 56.984375 8.015625 
L 55.609375 0.78125 
Q 53.46875 -0.296875 51.515625 -0.859375 
Q 49.5625 -1.421875 47.703125 -1.421875 
Q 44.484375 -1.421875 42.65625 0.625 
Q 40.828125 2.6875 40.828125 6.296875 
Q 38.09375 2.390625 34.296875 0.484375 
Q 30.515625 -1.421875 25.390625 -1.421875 
Q 20.84375 -1.421875 17.453125 0.671875 
Q 14.0625 2.78125 12.984375 6.203125 
L 7.71875 -20.796875 
z
" id="DejaVuSans-Oblique-956"/>
      <path d="M 89.796875 33.015625 
L 83.40625 0 
L 74.421875 0 
L 80.71875 32.71875 
Q 81.109375 34.8125 81.296875 36.328125 
Q 81.5 37.84375 81.5 38.921875 
Q 81.5 43.3125 79.046875 45.75 
Q 76.609375 48.1875 72.21875 48.1875 
Q 65.671875 48.1875 60.546875 43.28125 
Q 55.421875 38.375 53.90625 30.515625 
L 47.90625 0 
L 38.921875 0 
L 45.3125 32.71875 
Q 45.703125 34.515625 45.890625 36.046875 
Q 46.09375 37.59375 46.09375 38.8125 
Q 46.09375 43.265625 43.65625 45.71875 
Q 41.21875 48.1875 36.921875 48.1875 
Q 30.28125 48.1875 25.140625 43.28125 
Q 20.015625 38.375 18.5 30.515625 
L 12.5 0 
L 3.515625 0 
L 14.203125 54.6875 
L 23.1875 54.6875 
L 21.484375 46.1875 
Q 25.140625 50.984375 30.046875 53.484375 
Q 34.96875 56 40.578125 56 
Q 46.53125 56 50.359375 52.875 
Q 54.203125 49.75 54.984375 44.1875 
Q 59.078125 49.953125 64.46875 52.96875 
Q 69.875 56 75.875 56 
Q 82.90625 56 86.734375 51.953125 
Q 90.578125 47.90625 90.578125 40.484375 
Q 90.578125 38.875 90.375 36.9375 
Q 90.1875 35.015625 89.796875 33.015625 
z
" id="DejaVuSans-Oblique-109"/>
      <path d="M 8.59375 75.984375 
L 29.296875 75.984375 
L 29.296875 69 
L 17.578125 69 
L 17.578125 -6.203125 
L 29.296875 -6.203125 
L 29.296875 -13.1875 
L 8.59375 -13.1875 
z
" id="DejaVuSans-91"/>
      <path d="M 59.625 54.6875 
L 50.296875 6.78125 
Q 47.609375 -7.125 40.015625 -13.953125 
Q 32.421875 -20.796875 19.578125 -20.796875 
Q 14.84375 -20.796875 10.78125 -20.09375 
Q 6.734375 -19.390625 3.21875 -17.921875 
L 4.890625 -9.1875 
Q 8.203125 -11.328125 11.90625 -12.34375 
Q 15.625 -13.375 19.828125 -13.375 
Q 28.375 -13.375 33.859375 -8.703125 
Q 39.359375 -4.046875 41.109375 4.6875 
L 41.890625 8.796875 
Q 38.140625 4.5 33.15625 2.25 
Q 28.171875 0 22.40625 0 
Q 14.109375 0 9.34375 5.484375 
Q 4.59375 10.984375 4.59375 20.609375 
Q 4.59375 28.171875 7.46875 35.421875 
Q 10.359375 42.671875 15.578125 48.296875 
Q 19.046875 52 23.65625 54 
Q 28.265625 56 33.296875 56 
Q 38.8125 56 42.90625 53.4375 
Q 47.015625 50.875 49.03125 46.1875 
L 50.59375 54.6875 
z
M 46.09375 34.625 
Q 46.09375 41.265625 42.96875 44.875 
Q 39.84375 48.484375 34.078125 48.484375 
Q 30.515625 48.484375 27.296875 47.0625 
Q 24.078125 45.65625 21.78125 43.109375 
Q 18.0625 38.921875 15.984375 33.234375 
Q 13.921875 27.546875 13.921875 21.484375 
Q 13.921875 14.75 17.0625 11.125 
Q 20.21875 7.515625 26.125 7.515625 
Q 34.671875 7.515625 40.375 15.25 
Q 46.09375 23 46.09375 34.625 
z
" id="DejaVuSans-Oblique-103"/>
      <path d="M 25.390625 72.90625 
L 33.6875 72.90625 
L 8.296875 -9.28125 
L 0 -9.28125 
z
" id="DejaVuSans-47"/>
      <path d="M 30.421875 75.984375 
L 30.421875 -13.1875 
L 9.71875 -13.1875 
L 9.71875 -6.203125 
L 21.390625 -6.203125 
L 21.390625 69 
L 9.71875 69 
L 9.71875 75.984375 
z
" id="DejaVuSans-93"/>
     </defs>
     <g transform="translate(46.175 287.02)rotate(-90)scale(0.1 -0.1)">
      <use transform="translate(0 0.765625)" xlink:href="#DejaVuSans-100"/>
      <use transform="translate(63.476562 0.765625)" xlink:href="#DejaVuSans-97"/>
      <use transform="translate(124.755859 0.765625)" xlink:href="#DejaVuSans-105"/>
      <use transform="translate(152.539062 0.765625)" xlink:href="#DejaVuSans-108"/>
      <use transform="translate(180.322266 0.765625)" xlink:href="#DejaVuSans-121"/>
      <use transform="translate(239.501953 0.765625)" xlink:href="#DejaVuSans-32"/>
      <use transform="translate(271.289062 0.765625)" xlink:href="#DejaVuSans-109"/>
      <use transform="translate(368.701172 0.765625)" xlink:href="#DejaVuSans-101"/>
      <use transform="translate(430.224609 0.765625)" xlink:href="#DejaVuSans-97"/>
      <use transform="translate(491.503906 0.765625)" xlink:href="#DejaVuSans-110"/>
      <use transform="translate(554.882812 0.765625)" xlink:href="#DejaVuSans-32"/>
      <use transform="translate(586.669922 0.765625)" xlink:href="#DejaVuSans-Oblique-80"/>
      <use transform="translate(646.972656 0.765625)" xlink:href="#DejaVuSans-Oblique-77"/>
      <use transform="translate(733.251953 0.765625)" xlink:href="#DejaVuSans-49"/>
      <use transform="translate(796.875 0.765625)" xlink:href="#DejaVuSans-48"/>
      <use transform="translate(860.498047 0.765625)" xlink:href="#DejaVuSans-Oblique-956"/>
      <use transform="translate(924.121094 0.765625)" xlink:href="#DejaVuSans-Oblique-109"/>
      <use transform="translate(1021.533203 0.765625)" xlink:href="#DejaVuSans-32"/>
      <use transform="translate(1053.320312 0.765625)" xlink:href="#DejaVuSans-91"/>
      <use transform="translate(1092.333984 0.765625)" xlink:href="#DejaVuSans-Oblique-956"/>
      <use transform="translate(1155.957031 0.765625)" xlink:href="#DejaVuSans-Oblique-103"/>
      <use transform="translate(1219.433594 0.765625)" xlink:href="#DejaVuSans-47"/>
      <use transform="translate(1253.125 0.765625)" xlink:href="#DejaVuSans-Oblique-109"/>
      <use transform="translate(1355.187005 39.046875)scale(0.7)" xlink:href="#DejaVuSans-51"/>
      <use transform="translate(1402.457513 0.765625)" xlink:href="#DejaVuSans-93"/>
     </g>
    </g>
   </g>
   <g id="line2d_33">
    <path clip-path="url(#p8201d16123)" d="M 92.290909 363.174545 
L 94.520679 357.321023 
L 95.635564 348.605779 
L 96.75045 361.457512 
L 97.865335 339.344206 
L 98.98022 348.831248 
L 100.095105 329.263139 
L 101.20999 315.262381 
L 102.324875 315.353436 
L 103.43976 343.446007 
L 104.554645 338.294907 
L 105.66953 331.882049 
L 106.784416 329.623023 
L 107.899301 333.690137 
L 109.014186 353.379651 
L 110.129071 340.844442 
L 111.243956 277.955932 
L 112.358841 358.170868 
L 113.473726 348.033434 
L 114.588611 357.229968 
L 115.703497 348.323942 
L 116.818382 326.553175 
L 117.933267 312.9123 
L 119.048152 289.879774 
L 120.163037 290.057547 
L 121.277922 336.942093 
L 123.507692 238.299402 
L 124.622577 155.192392 
L 125.737463 186.71903 
L 126.852348 212.405153 
L 127.967233 267.025021 
L 129.082118 290.733954 
L 130.197003 249.984767 
L 131.311888 284.13465 
L 132.426773 273.177723 
L 133.541658 256.99165 
L 134.656543 238.299402 
L 135.771429 250.132189 
L 136.886314 287.811529 
L 138.001199 267.831506 
L 139.116084 254.351061 
L 140.230969 255.643172 
L 141.345854 328.773178 
L 142.460739 355.222427 
L 143.575624 318.150119 
L 144.690509 313.905231 
L 145.805395 359.020713 
L 146.92028 341.746318 
L 148.035165 342.088857 
L 149.15005 329.263139 
L 150.264935 328.361263 
L 151.37982 316.164257 
L 152.494705 322.035123 
L 154.724476 259.979114 
L 155.839361 271.269909 
L 156.954246 331.808338 
L 158.069131 309.478234 
L 159.184016 315.336092 
L 160.298901 319.862816 
L 161.413786 269.461821 
L 162.528671 288.431569 
L 163.643556 356.015904 
L 164.758442 298.746776 
L 165.873327 299.813418 
L 166.988212 311.73726 
L 168.103097 292.589738 
L 169.217982 276.780891 
L 170.332867 311.104212 
L 171.447752 281.116834 
L 172.562637 207.132647 
L 173.677522 232.10334 
L 174.792408 249.733282 
L 175.907293 243.90144 
L 177.022178 237.471237 
L 178.137063 333.620761 
L 179.251948 311.377377 
L 180.366833 293.469934 
L 181.481718 246.620076 
L 182.596603 287.529693 
L 183.711489 294.215716 
L 184.826374 260.521107 
L 185.941259 282.439296 
L 187.056144 331.569861 
L 188.171029 253.115317 
L 189.285914 276.31261 
L 190.400799 162.420408 
L 191.515684 231.522324 
L 192.630569 235.771547 
L 193.745455 281.567772 
L 194.86034 267.025021 
L 195.975225 229.354353 
L 197.09011 179.040076 
L 198.204995 165.182404 
L 199.31988 210.839878 
L 200.434765 314.447224 
L 201.54965 319.598323 
L 202.664535 340.736043 
L 203.779421 345.16304 
L 204.894306 344.079055 
L 206.009191 327.004113 
L 207.124076 266.751856 
L 208.238961 263.140016 
L 209.353846 308.485303 
L 210.468731 341.911084 
L 211.583616 301.261623 
L 212.698501 343.120811 
L 213.813387 359.020713 
L 214.928272 329.354194 
L 216.043157 354.285863 
L 217.158042 347.291988 
L 218.272927 342.561475 
L 219.387812 353.184534 
L 220.502697 320.231371 
L 221.617582 360.083018 
L 222.732468 349.407928 
L 223.847353 291.95669 
L 224.962238 326.518488 
L 226.077123 346.966792 
L 227.192008 345.973862 
L 228.306893 278.948863 
L 229.421778 330.707008 
L 230.536663 329.896187 
L 231.651548 327.745559 
L 232.766434 318.874221 
L 233.881319 320.049261 
L 234.996204 334.865177 
L 236.111089 352.443088 
L 237.225974 335.767053 
L 238.340859 316.346367 
L 239.455744 321.67524 
L 240.570629 325.018252 
L 241.685514 329.445249 
L 242.8004 333.239199 
L 243.915285 332.606151 
L 245.03017 317.699181 
L 246.145055 320.049261 
L 247.25994 312.010424 
L 248.374825 318.692111 
L 249.48971 184.733168 
L 250.604595 66.665455 
L 251.719481 112.015077 
L 252.834366 261.605093 
L 253.949251 310.202336 
L 255.064136 305.415456 
L 256.179021 321.49313 
L 257.293906 301.803616 
L 258.408791 291.670518 
L 259.523676 228.81236 
L 260.638561 264.041892 
L 261.753447 280.756951 
L 262.868332 299.544589 
L 263.983217 325.378135 
L 265.098102 336.092249 
L 266.212987 319.147385 
L 268.442757 328.088099 
L 269.557642 343.0471 
L 270.672527 343.988 
L 271.787413 340.102995 
L 272.902298 346.173315 
L 274.017183 344.529993 
L 275.132068 296.292633 
L 276.246953 265.039159 
L 277.361838 325.651299 
L 278.476723 352.56883 
L 279.591608 333.148144 
L 280.706494 327.728216 
L 282.936264 209.755893 
L 284.051149 306.590496 
L 285.166034 333.239199 
L 286.280919 334.323184 
L 287.395804 340.246082 
L 288.510689 320.31809 
L 289.625574 312.730191 
L 290.74046 325.109306 
L 291.855345 301.803616 
L 292.97023 274.161982 
L 294.085115 303.338539 
L 295.2 342.721905 
L 296.314885 335.22506 
L 297.42977 329.531968 
L 298.544655 313.09441 
L 299.65954 313.545348 
L 300.774426 337.66186 
L 301.889311 347.964059 
L 303.004196 349.824179 
L 304.119081 327.905989 
L 305.233966 327.997044 
L 306.348851 346.966792 
L 307.463736 353.470706 
L 308.578621 361.509544 
L 309.693506 351.484845 
L 310.808392 343.246554 
L 311.923277 342.904014 
L 313.038162 327.363996 
L 314.153047 334.05002 
L 315.267932 347.422066 
L 316.382817 348.141833 
L 317.497702 314.629333 
L 318.612587 337.119867 
L 319.727473 345.071986 
L 320.842358 321.85735 
L 321.957243 277.591713 
L 323.072128 226.644388 
L 324.187013 277.231829 
L 325.301898 316.073202 
L 326.416783 311.108548 
L 327.531668 350.851797 
L 328.646553 339.652057 
L 329.761439 337.66186 
L 330.876324 339.110065 
L 331.991209 335.22506 
L 333.106094 330.073961 
L 334.220979 329.531968 
L 335.335864 341.820029 
L 336.450749 347.573824 
L 337.565634 345.613978 
L 338.680519 321.85735 
L 339.795405 315.713319 
L 340.91029 335.22506 
L 342.025175 329.714077 
L 343.14006 305.50651 
L 344.254945 312.279253 
L 345.36983 305.50651 
L 346.484715 328.270208 
L 347.5996 323.028054 
L 348.714486 334.409903 
L 349.829371 300.446466 
L 350.944256 289.428836 
L 352.059141 266.751856 
L 353.174026 326.46212 
L 354.288911 330.980173 
L 355.403796 308.034365 
L 356.518681 345.613978 
L 357.633566 327.186223 
L 358.748452 333.239199 
L 359.863337 342.201592 
L 362.093107 308.940577 
L 363.207992 344.872532 
L 364.322877 328.447982 
L 365.437762 330.347125 
L 366.552647 279.217691 
L 367.667532 300.53752 
L 368.782418 283.852814 
L 369.897303 312.821245 
L 371.012188 306.048503 
L 372.127073 317.699181 
L 373.241958 318.874221 
L 374.356843 290.78165 
L 375.471728 308.359561 
L 376.586613 329.445249 
L 377.701499 326.553175 
L 378.816384 330.980173 
L 379.931269 301.803616 
L 381.046154 326.011182 
L 382.161039 293.851497 
L 383.275924 335.316115 
L 384.390809 342.539795 
L 385.505694 348.592771 
L 386.620579 337.484086 
L 387.735465 308.12542 
L 388.85035 330.615953 
L 389.965235 322.668171 
L 391.08012 360.156729 
L 392.195005 362.923061 
L 393.30989 345.774408 
L 394.424775 310.926439 
L 395.53966 318.150119 
L 396.654545 334.409903 
L 397.769431 336.309046 
L 398.884316 334.665724 
L 401.114086 356.453835 
L 402.228971 339.829831 
L 403.343856 339.561003 
L 404.458741 341.911084 
L 406.688511 312.101479 
L 407.803397 314.811443 
L 408.918282 294.935483 
L 410.033167 337.033148 
L 411.148052 350.743398 
L 412.262937 352.586174 
L 413.377822 340.462879 
L 414.492707 341.477489 
L 415.607592 324.025321 
L 416.722478 329.531968 
L 417.837363 286.9877 
L 418.952248 277.773822 
L 420.067133 262.329195 
L 421.182018 310.562219 
L 422.296903 289.155671 
L 423.411788 258.444191 
L 424.526673 256.453993 
L 425.641558 339.652057 
L 426.756444 311.559486 
L 427.871329 338.659127 
L 428.986214 319.147385 
L 430.101099 324.385204 
L 431.215984 296.383687 
L 432.330869 321.276333 
L 433.445754 361.223371 
L 434.560639 346.047573 
L 435.675524 346.173315 
L 436.79041 335.151349 
L 437.905295 312.010424 
L 439.02018 327.476731 
L 440.135065 306.230613 
L 441.24995 293.851497 
L 442.364835 297.376618 
L 443.47972 347.057847 
L 444.594605 332.606151 
L 445.709491 298.009666 
L 446.824376 305.415456 
L 449.054146 190.695089 
L 450.169031 296.474742 
L 451.283916 310.345422 
L 452.398801 276.689837 
L 453.513686 297.645447 
L 455.743457 329.531968 
L 456.858342 326.371066 
L 457.973227 288.522624 
L 459.088112 346.26437 
L 460.202997 339.920886 
L 461.317882 349.572694 
L 462.432767 313.905231 
L 463.547652 340.0553 
L 464.662537 328.989975 
L 465.777423 321.402076 
L 466.892308 338.333931 
L 468.007193 341.603232 
L 469.122078 341.139286 
L 470.236963 324.350516 
L 471.351848 324.567314 
L 472.466733 317.066133 
L 473.581618 299.002597 
L 474.696503 332.966034 
L 475.811389 334.882521 
L 476.926274 297.285563 
L 478.041159 287.260864 
L 479.156044 279.672965 
L 480.270929 320.231371 
L 481.385814 356.544889 
L 482.500699 350.760742 
L 483.615584 347.981403 
L 485.845355 306.317332 
L 486.96024 313.003355 
L 488.075125 321.49313 
L 489.19001 347.274644 
L 490.304895 354.337895 
L 491.41978 327.546106 
L 492.534665 355.803443 
L 493.64955 358.062469 
L 494.764436 349.6941 
L 495.879321 343.081788 
L 496.994206 351.645274 
L 498.109091 353.16719 
L 498.109091 353.16719 
" style="fill:none;stroke:#1f77b4;stroke-linecap:square;stroke-width:1.5;"/>
   </g>
   <g id="line2d_34">
    <path clip-path="url(#p8201d16123)" d="M 92.290909 346.549127 
L 93.405794 353.338546 
L 94.520679 355.316852 
L 95.635564 342.89841 
L 96.75045 341.977626 
L 97.865335 348.72678 
L 98.98022 341.070662 
L 100.095105 342.065829 
L 101.20999 321.126424 
L 102.324875 331.383701 
L 103.43976 316.470966 
L 104.554645 333.787281 
L 105.66953 327.591687 
L 106.784416 308.000101 
L 107.899301 301.702337 
L 109.014186 307.399737 
L 110.129071 305.343994 
L 111.243956 312.136692 
L 112.358841 288.041927 
L 113.473726 347.037552 
L 114.588611 336.75145 
L 115.703497 343.907066 
L 116.818382 330.672951 
L 117.933267 320.519098 
L 119.048152 301.926448 
L 120.163037 322.722763 
L 121.277922 325.738533 
L 122.392807 327.978683 
L 123.507692 299.798463 
L 124.622577 254.586389 
L 125.737463 160.27062 
L 126.852348 184.703086 
L 127.967233 237.97658 
L 129.082118 260.253238 
L 130.197003 263.015612 
L 131.311888 210.988272 
L 132.426773 263.717018 
L 133.541658 225.083318 
L 134.656543 235.439885 
L 135.771429 259.21712 
L 136.886314 235.736914 
L 138.001199 259.524357 
L 139.116084 230.821332 
L 140.230969 197.978983 
L 141.345854 239.04185 
L 142.460739 304.175572 
L 143.575624 323.19609 
L 144.690509 301.814637 
L 145.805395 305.037664 
L 146.92028 334.739998 
L 148.035165 324.278175 
L 149.15005 301.601832 
L 150.264935 302.723259 
L 151.37982 301.19559 
L 152.494705 309.113924 
L 153.60959 318.14457 
L 154.724476 279.757525 
L 155.839361 266.441175 
L 156.954246 263.890306 
L 158.069131 305.042423 
L 159.184016 294.02249 
L 160.298901 279.932793 
L 161.413786 290.381885 
L 162.528671 256.711038 
L 164.758442 340.931231 
L 165.873327 304.359405 
L 166.988212 301.496555 
L 170.332867 258.435213 
L 171.447752 291.112364 
L 172.562637 253.423018 
L 173.677522 250.950456 
L 174.792408 220.017841 
L 175.907293 235.992343 
L 177.022178 222.926162 
L 178.137063 238.610532 
L 179.251948 310.378728 
L 180.366833 281.436515 
L 181.481718 249.47205 
L 182.596603 211.291754 
L 183.711489 253.618068 
L 184.826374 239.704327 
L 185.941259 233.90899 
L 188.171029 298.73979 
L 189.285914 249.661559 
L 190.400799 237.720417 
L 191.515684 208.974232 
L 192.630569 277.544317 
L 193.745455 282.124727 
L 194.86034 300.093207 
L 195.975225 279.027762 
L 197.09011 240.157684 
L 198.204995 231.360359 
L 199.31988 217.261999 
L 200.434765 250.473567 
L 201.54965 307.646849 
L 202.664535 316.464494 
L 203.779421 329.011919 
L 204.894306 332.997952 
L 206.009191 322.708809 
L 207.124076 308.855231 
L 208.238961 280.649005 
L 209.353846 272.982721 
L 210.468731 315.326415 
L 211.583616 320.292222 
L 212.698501 293.850275 
L 213.813387 323.025141 
L 214.928272 330.397392 
L 216.043157 321.384909 
L 217.158042 332.743523 
L 218.272927 328.354509 
L 219.387812 325.774994 
L 220.502697 331.452058 
L 221.617582 318.272011 
L 222.732468 336.107547 
L 223.847353 321.463544 
L 224.962238 274.463129 
L 226.077123 300.364551 
L 227.192008 317.906004 
L 228.306893 320.354518 
L 229.421778 265.403141 
L 230.536663 300.852132 
L 231.651548 291.539078 
L 232.766434 309.436551 
L 233.881319 294.401157 
L 234.996204 300.237911 
L 236.111089 322.386053 
L 237.225974 335.966323 
L 238.340859 330.269866 
L 240.570629 321.837932 
L 241.685514 320.134598 
L 242.8004 304.884028 
L 243.915285 332.799088 
L 245.03017 331.807776 
L 246.145055 313.505036 
L 247.25994 318.441479 
L 248.374825 314.405362 
L 249.48971 296.171715 
L 251.719481 186.921653 
L 252.834366 195.43837 
L 253.949251 245.268193 
L 255.064136 300.520181 
L 256.179021 297.962139 
L 257.293906 304.913936 
L 258.408791 306.321561 
L 259.523676 282.92368 
L 260.638561 240.412417 
L 261.753447 291.206222 
L 262.868332 290.325283 
L 263.983217 302.371023 
L 266.212987 331.808797 
L 267.327872 316.429385 
L 268.442757 338.101233 
L 269.557642 335.956388 
L 270.672527 336.100664 
L 271.787413 335.638 
L 272.902298 337.401531 
L 274.017183 339.964645 
L 275.132068 329.648836 
L 276.246953 314.183644 
L 277.361838 307.708373 
L 278.476723 337.018267 
L 279.591608 346.416119 
L 280.706494 341.523214 
L 281.821379 329.720216 
L 282.936264 301.893639 
L 284.051149 256.2302 
L 285.166034 307.266154 
L 286.280919 327.374844 
L 287.395804 337.759041 
L 288.510689 339.179176 
L 289.625574 318.265128 
L 290.74046 323.65038 
L 291.855345 325.52437 
L 292.97023 307.805061 
L 294.085115 316.113983 
L 295.2 333.607333 
L 296.314885 338.249375 
L 297.42977 336.035671 
L 298.544655 332.816432 
L 299.65954 318.360764 
L 300.774426 315.767582 
L 301.889311 333.303548 
L 303.004196 341.180423 
L 304.119081 346.231136 
L 305.233966 329.781783 
L 306.348851 325.928985 
L 307.463736 341.306806 
L 308.578621 351.633829 
L 309.693506 352.092131 
L 310.808392 341.848962 
L 311.923277 342.472824 
L 313.038162 340.612831 
L 314.153047 331.496778 
L 315.267932 342.971661 
L 316.382817 336.557205 
L 317.497702 336.494696 
L 318.612587 326.560983 
L 319.727473 337.493307 
L 320.842358 333.153056 
L 321.957243 321.491183 
L 323.072128 295.358092 
L 324.187013 253.20574 
L 325.301898 254.809383 
L 326.416783 272.939029 
L 327.531668 327.552675 
L 328.646553 338.09227 
L 329.761439 336.638373 
L 330.876324 331.528026 
L 331.991209 328.372152 
L 333.106094 326.214717 
L 334.220979 319.70112 
L 335.335864 327.625474 
L 336.450749 330.822219 
L 337.565634 335.634904 
L 338.680519 333.183668 
L 339.795405 311.599871 
L 340.91029 321.238798 
L 342.025175 318.398094 
L 343.14006 318.712285 
L 344.254945 293.212495 
L 345.36983 296.372591 
L 346.484715 312.450131 
L 347.5996 320.514106 
L 348.714486 324.212191 
L 349.829371 329.809495 
L 350.944256 300.127379 
L 352.059141 295.738155 
L 353.174026 293.252896 
L 354.288911 321.529699 
L 355.403796 308.321884 
L 356.518681 308.272222 
L 357.633566 340.817457 
L 358.748452 332.97145 
L 359.863337 329.181235 
L 360.978222 329.214429 
L 362.093107 306.015885 
L 363.207992 326.879775 
L 364.322877 341.343248 
L 365.437762 322.839767 
L 366.552647 311.675661 
L 367.667532 287.81017 
L 368.782418 293.028057 
L 369.897303 281.124514 
L 371.012188 305.651407 
L 372.127073 295.858713 
L 373.241958 310.043541 
L 374.356843 307.953033 
L 375.471728 292.181296 
L 376.586613 322.269673 
L 377.701499 330.198474 
L 378.816384 321.986993 
L 379.931269 331.126672 
L 381.046154 313.015387 
L 382.161039 315.770189 
L 383.275924 319.686738 
L 384.390809 329.947477 
L 385.505694 334.097814 
L 386.620579 330.443665 
L 387.735465 313.100274 
L 388.85035 316.030503 
L 391.08012 330.766776 
L 392.195005 341.897725 
L 393.30989 344.254861 
L 394.424775 337.85371 
L 395.53966 318.618209 
L 396.654545 327.438142 
L 397.769431 322.810354 
L 398.884316 332.740109 
L 399.999201 335.751536 
L 401.114086 338.072266 
L 402.228971 340.96062 
L 403.343856 340.871817 
L 404.458741 333.581725 
L 405.573626 323.118917 
L 406.688511 323.264619 
L 407.803397 298.294726 
L 408.918282 298.64933 
L 410.033167 307.057349 
L 411.148052 334.308344 
L 412.262937 344.881965 
L 413.377822 336.781683 
L 414.492707 334.006271 
L 415.607592 327.32917 
L 416.722478 326.298118 
L 417.837363 326.244889 
L 418.952248 309.364377 
L 420.067133 298.068884 
L 421.182018 257.51237 
L 422.296903 297.205226 
L 423.411788 277.313137 
L 424.526673 244.466689 
L 425.641558 258.040985 
L 426.756444 327.129236 
L 427.871329 317.669016 
L 428.986214 302.06643 
L 430.101099 323.594857 
L 431.215984 310.917721 
L 432.330869 316.672858 
L 433.445754 338.016131 
L 434.560639 337.879196 
L 435.675524 336.019264 
L 436.79041 329.594775 
L 439.02018 304.912854 
L 440.135065 313.369196 
L 441.24995 305.095071 
L 442.364835 303.361656 
L 443.47972 319.239753 
L 444.594605 319.744628 
L 445.709491 313.087611 
L 446.824376 309.166217 
L 447.939261 285.12435 
L 449.054146 278.942297 
L 450.169031 248.708118 
L 451.283916 305.982593 
L 452.398801 278.341354 
L 453.513686 300.529248 
L 454.628571 303.448012 
L 455.743457 318.695486 
L 456.858342 325.161268 
L 457.973227 325.328804 
L 459.088112 294.685697 
L 460.202997 337.204197 
L 461.317882 333.649703 
L 462.432767 326.365289 
L 463.547652 304.964608 
L 464.662537 325.223221 
L 465.777423 274.198762 
L 466.892308 306.016295 
L 468.007193 327.362841 
L 469.122078 331.535349 
L 470.236963 334.128231 
L 471.351848 325.790165 
L 472.466733 323.868966 
L 473.581618 318.177911 
L 474.696503 293.039873 
L 475.811389 318.80247 
L 476.926274 324.109257 
L 478.041159 294.043963 
L 479.156044 276.211834 
L 480.270929 295.545057 
L 481.385814 328.369362 
L 482.500699 337.704479 
L 483.615584 336.924974 
L 484.73047 328.483834 
L 486.96024 286.527741 
L 488.075125 318.610489 
L 489.19001 321.918415 
L 490.304895 335.120461 
L 491.41978 330.729857 
L 492.534665 325.108731 
L 493.64955 345.934153 
L 494.764436 339.121439 
L 495.879321 327.642756 
L 496.994206 338.172062 
L 498.109091 342.020155 
L 498.109091 342.020155 
" style="fill:none;stroke:#ff7f0e;stroke-linecap:square;stroke-width:1.5;"/>
   </g>
   <g id="patch_3">
    <path d="M 72 378 
L 72 51.84 
" style="fill:none;stroke:#000000;stroke-linecap:square;stroke-linejoin:miter;stroke-width:0.8;"/>
   </g>
   <g id="patch_4">
    <path d="M 518.4 378 
L 518.4 51.84 
" style="fill:none;stroke:#000000;stroke-linecap:square;stroke-linejoin:miter;stroke-width:0.8;"/>
   </g>
   <g id="patch_5">
    <path d="M 72 378 
L 518.4 378 
" style="fill:none;stroke:#000000;stroke-linecap:square;stroke-linejoin:miter;stroke-width:0.8;"/>
   </g>
   <g id="patch_6">
    <path d="M 72 51.84 
L 518.4 51.84 
" style="fill:none;stroke:#000000;stroke-linecap:square;stroke-linejoin:miter;stroke-width:0.8;"/>
   </g>
   <g id="text_19">
    <!-- PM10 16-all BETN085 2012: Island DNN (MSE: 48.47, SMAPE: 42.41%, IOA: 81.73%) -->
    <defs>
     <path d="M 19.671875 64.796875 
L 19.671875 37.40625 
L 32.078125 37.40625 
Q 38.96875 37.40625 42.71875 40.96875 
Q 46.484375 44.53125 46.484375 51.125 
Q 46.484375 57.671875 42.71875 61.234375 
Q 38.96875 64.796875 32.078125 64.796875 
z
M 9.8125 72.90625 
L 32.078125 72.90625 
Q 44.34375 72.90625 50.609375 67.359375 
Q 56.890625 61.8125 56.890625 51.125 
Q 56.890625 40.328125 50.609375 34.8125 
Q 44.34375 29.296875 32.078125 29.296875 
L 19.671875 29.296875 
L 19.671875 0 
L 9.8125 0 
z
" id="DejaVuSans-80"/>
     <path d="M 9.8125 72.90625 
L 24.515625 72.90625 
L 43.109375 23.296875 
L 61.8125 72.90625 
L 76.515625 72.90625 
L 76.515625 0 
L 66.890625 0 
L 66.890625 64.015625 
L 48.09375 14.015625 
L 38.1875 14.015625 
L 19.390625 64.015625 
L 19.390625 0 
L 9.8125 0 
z
" id="DejaVuSans-77"/>
     <path d="M 4.890625 31.390625 
L 31.203125 31.390625 
L 31.203125 23.390625 
L 4.890625 23.390625 
z
" id="DejaVuSans-45"/>
     <path d="M 19.671875 34.8125 
L 19.671875 8.109375 
L 35.5 8.109375 
Q 43.453125 8.109375 47.28125 11.40625 
Q 51.125 14.703125 51.125 21.484375 
Q 51.125 28.328125 47.28125 31.5625 
Q 43.453125 34.8125 35.5 34.8125 
z
M 19.671875 64.796875 
L 19.671875 42.828125 
L 34.28125 42.828125 
Q 41.5 42.828125 45.03125 45.53125 
Q 48.578125 48.25 48.578125 53.8125 
Q 48.578125 59.328125 45.03125 62.0625 
Q 41.5 64.796875 34.28125 64.796875 
z
M 9.8125 72.90625 
L 35.015625 72.90625 
Q 46.296875 72.90625 52.390625 68.21875 
Q 58.5 63.53125 58.5 54.890625 
Q 58.5 48.1875 55.375 44.234375 
Q 52.25 40.28125 46.1875 39.3125 
Q 53.46875 37.75 57.5 32.78125 
Q 61.53125 27.828125 61.53125 20.40625 
Q 61.53125 10.640625 54.890625 5.3125 
Q 48.25 0 35.984375 0 
L 9.8125 0 
z
" id="DejaVuSans-66"/>
     <path d="M 9.8125 72.90625 
L 55.90625 72.90625 
L 55.90625 64.59375 
L 19.671875 64.59375 
L 19.671875 43.015625 
L 54.390625 43.015625 
L 54.390625 34.71875 
L 19.671875 34.71875 
L 19.671875 8.296875 
L 56.78125 8.296875 
L 56.78125 0 
L 9.8125 0 
z
" id="DejaVuSans-69"/>
     <path d="M -0.296875 72.90625 
L 61.375 72.90625 
L 61.375 64.59375 
L 35.5 64.59375 
L 35.5 0 
L 25.59375 0 
L 25.59375 64.59375 
L -0.296875 64.59375 
z
" id="DejaVuSans-84"/>
     <path d="M 9.8125 72.90625 
L 23.09375 72.90625 
L 55.421875 11.921875 
L 55.421875 72.90625 
L 64.984375 72.90625 
L 64.984375 0 
L 51.703125 0 
L 19.390625 60.984375 
L 19.390625 0 
L 9.8125 0 
z
" id="DejaVuSans-78"/>
     <path d="M 31.78125 34.625 
Q 24.75 34.625 20.71875 30.859375 
Q 16.703125 27.09375 16.703125 20.515625 
Q 16.703125 13.921875 20.71875 10.15625 
Q 24.75 6.390625 31.78125 6.390625 
Q 38.8125 6.390625 42.859375 10.171875 
Q 46.921875 13.96875 46.921875 20.515625 
Q 46.921875 27.09375 42.890625 30.859375 
Q 38.875 34.625 31.78125 34.625 
z
M 21.921875 38.8125 
Q 15.578125 40.375 12.03125 44.71875 
Q 8.5 49.078125 8.5 55.328125 
Q 8.5 64.0625 14.71875 69.140625 
Q 20.953125 74.21875 31.78125 74.21875 
Q 42.671875 74.21875 48.875 69.140625 
Q 55.078125 64.0625 55.078125 55.328125 
Q 55.078125 49.078125 51.53125 44.71875 
Q 48 40.375 41.703125 38.8125 
Q 48.828125 37.15625 52.796875 32.3125 
Q 56.78125 27.484375 56.78125 20.515625 
Q 56.78125 9.90625 50.3125 4.234375 
Q 43.84375 -1.421875 31.78125 -1.421875 
Q 19.734375 -1.421875 13.25 4.234375 
Q 6.78125 9.90625 6.78125 20.515625 
Q 6.78125 27.484375 10.78125 32.3125 
Q 14.796875 37.15625 21.921875 38.8125 
z
M 18.3125 54.390625 
Q 18.3125 48.734375 21.84375 45.5625 
Q 25.390625 42.390625 31.78125 42.390625 
Q 38.140625 42.390625 41.71875 45.5625 
Q 45.3125 48.734375 45.3125 54.390625 
Q 45.3125 60.0625 41.71875 63.234375 
Q 38.140625 66.40625 31.78125 66.40625 
Q 25.390625 66.40625 21.84375 63.234375 
Q 18.3125 60.0625 18.3125 54.390625 
z
" id="DejaVuSans-56"/>
     <path d="M 11.71875 12.40625 
L 22.015625 12.40625 
L 22.015625 0 
L 11.71875 0 
z
M 11.71875 51.703125 
L 22.015625 51.703125 
L 22.015625 39.3125 
L 11.71875 39.3125 
z
" id="DejaVuSans-58"/>
     <path d="M 9.8125 72.90625 
L 19.671875 72.90625 
L 19.671875 0 
L 9.8125 0 
z
" id="DejaVuSans-73"/>
     <path d="M 44.28125 53.078125 
L 44.28125 44.578125 
Q 40.484375 46.53125 36.375 47.5 
Q 32.28125 48.484375 27.875 48.484375 
Q 21.1875 48.484375 17.84375 46.4375 
Q 14.5 44.390625 14.5 40.28125 
Q 14.5 37.15625 16.890625 35.375 
Q 19.28125 33.59375 26.515625 31.984375 
L 29.59375 31.296875 
Q 39.15625 29.25 43.1875 25.515625 
Q 47.21875 21.78125 47.21875 15.09375 
Q 47.21875 7.46875 41.1875 3.015625 
Q 35.15625 -1.421875 24.609375 -1.421875 
Q 20.21875 -1.421875 15.453125 -0.5625 
Q 10.6875 0.296875 5.421875 2 
L 5.421875 11.28125 
Q 10.40625 8.6875 15.234375 7.390625 
Q 20.0625 6.109375 24.8125 6.109375 
Q 31.15625 6.109375 34.5625 8.28125 
Q 37.984375 10.453125 37.984375 14.40625 
Q 37.984375 18.0625 35.515625 20.015625 
Q 33.0625 21.96875 24.703125 23.78125 
L 21.578125 24.515625 
Q 13.234375 26.265625 9.515625 29.90625 
Q 5.8125 33.546875 5.8125 39.890625 
Q 5.8125 47.609375 11.28125 51.796875 
Q 16.75 56 26.8125 56 
Q 31.78125 56 36.171875 55.265625 
Q 40.578125 54.546875 44.28125 53.078125 
z
" id="DejaVuSans-115"/>
     <path d="M 31 75.875 
Q 24.46875 64.65625 21.28125 53.65625 
Q 18.109375 42.671875 18.109375 31.390625 
Q 18.109375 20.125 21.3125 9.0625 
Q 24.515625 -2 31 -13.1875 
L 23.1875 -13.1875 
Q 15.875 -1.703125 12.234375 9.375 
Q 8.59375 20.453125 8.59375 31.390625 
Q 8.59375 42.28125 12.203125 53.3125 
Q 15.828125 64.359375 23.1875 75.875 
z
" id="DejaVuSans-40"/>
     <path d="M 53.515625 70.515625 
L 53.515625 60.890625 
Q 47.90625 63.578125 42.921875 64.890625 
Q 37.9375 66.21875 33.296875 66.21875 
Q 25.25 66.21875 20.875 63.09375 
Q 16.5 59.96875 16.5 54.203125 
Q 16.5 49.359375 19.40625 46.890625 
Q 22.3125 44.4375 30.421875 42.921875 
L 36.375 41.703125 
Q 47.40625 39.59375 52.65625 34.296875 
Q 57.90625 29 57.90625 20.125 
Q 57.90625 9.515625 50.796875 4.046875 
Q 43.703125 -1.421875 29.984375 -1.421875 
Q 24.8125 -1.421875 18.96875 -0.25 
Q 13.140625 0.921875 6.890625 3.21875 
L 6.890625 13.375 
Q 12.890625 10.015625 18.65625 8.296875 
Q 24.421875 6.59375 29.984375 6.59375 
Q 38.421875 6.59375 43.015625 9.90625 
Q 47.609375 13.234375 47.609375 19.390625 
Q 47.609375 24.75 44.3125 27.78125 
Q 41.015625 30.8125 33.5 32.328125 
L 27.484375 33.5 
Q 16.453125 35.6875 11.515625 40.375 
Q 6.59375 45.0625 6.59375 53.421875 
Q 6.59375 63.09375 13.40625 68.65625 
Q 20.21875 74.21875 32.171875 74.21875 
Q 37.3125 74.21875 42.625 73.28125 
Q 47.953125 72.359375 53.515625 70.515625 
z
" id="DejaVuSans-83"/>
     <path d="M 10.6875 12.40625 
L 21 12.40625 
L 21 0 
L 10.6875 0 
z
" id="DejaVuSans-46"/>
     <path d="M 11.71875 12.40625 
L 22.015625 12.40625 
L 22.015625 4 
L 14.015625 -11.625 
L 7.71875 -11.625 
L 11.71875 4 
z
" id="DejaVuSans-44"/>
     <path d="M 34.1875 63.1875 
L 20.796875 26.90625 
L 47.609375 26.90625 
z
M 28.609375 72.90625 
L 39.796875 72.90625 
L 67.578125 0 
L 57.328125 0 
L 50.6875 18.703125 
L 17.828125 18.703125 
L 11.1875 0 
L 0.78125 0 
z
" id="DejaVuSans-65"/>
     <path d="M 72.703125 32.078125 
Q 68.453125 32.078125 66.03125 28.46875 
Q 63.625 24.859375 63.625 18.40625 
Q 63.625 12.0625 66.03125 8.421875 
Q 68.453125 4.78125 72.703125 4.78125 
Q 76.859375 4.78125 79.265625 8.421875 
Q 81.6875 12.0625 81.6875 18.40625 
Q 81.6875 24.8125 79.265625 28.4375 
Q 76.859375 32.078125 72.703125 32.078125 
z
M 72.703125 38.28125 
Q 80.421875 38.28125 84.953125 32.90625 
Q 89.5 27.546875 89.5 18.40625 
Q 89.5 9.28125 84.9375 3.921875 
Q 80.375 -1.421875 72.703125 -1.421875 
Q 64.890625 -1.421875 60.34375 3.921875 
Q 55.8125 9.28125 55.8125 18.40625 
Q 55.8125 27.59375 60.375 32.9375 
Q 64.9375 38.28125 72.703125 38.28125 
z
M 22.3125 68.015625 
Q 18.109375 68.015625 15.6875 64.375 
Q 13.28125 60.75 13.28125 54.390625 
Q 13.28125 47.953125 15.671875 44.328125 
Q 18.0625 40.71875 22.3125 40.71875 
Q 26.5625 40.71875 28.96875 44.328125 
Q 31.390625 47.953125 31.390625 54.390625 
Q 31.390625 60.6875 28.953125 64.34375 
Q 26.515625 68.015625 22.3125 68.015625 
z
M 66.40625 74.21875 
L 74.21875 74.21875 
L 28.609375 -1.421875 
L 20.796875 -1.421875 
z
M 22.3125 74.21875 
Q 30.03125 74.21875 34.609375 68.875 
Q 39.203125 63.53125 39.203125 54.390625 
Q 39.203125 45.171875 34.640625 39.84375 
Q 30.078125 34.515625 22.3125 34.515625 
Q 14.546875 34.515625 10.03125 39.859375 
Q 5.515625 45.21875 5.515625 54.390625 
Q 5.515625 63.484375 10.046875 68.84375 
Q 14.59375 74.21875 22.3125 74.21875 
z
" id="DejaVuSans-37"/>
     <path d="M 39.40625 66.21875 
Q 28.65625 66.21875 22.328125 58.203125 
Q 16.015625 50.203125 16.015625 36.375 
Q 16.015625 22.609375 22.328125 14.59375 
Q 28.65625 6.59375 39.40625 6.59375 
Q 50.140625 6.59375 56.421875 14.59375 
Q 62.703125 22.609375 62.703125 36.375 
Q 62.703125 50.203125 56.421875 58.203125 
Q 50.140625 66.21875 39.40625 66.21875 
z
M 39.40625 74.21875 
Q 54.734375 74.21875 63.90625 63.9375 
Q 73.09375 53.65625 73.09375 36.375 
Q 73.09375 19.140625 63.90625 8.859375 
Q 54.734375 -1.421875 39.40625 -1.421875 
Q 24.03125 -1.421875 14.8125 8.828125 
Q 5.609375 19.09375 5.609375 36.375 
Q 5.609375 53.65625 14.8125 63.9375 
Q 24.03125 74.21875 39.40625 74.21875 
z
" id="DejaVuSans-79"/>
     <path d="M 8.015625 75.875 
L 15.828125 75.875 
Q 23.140625 64.359375 26.78125 53.3125 
Q 30.421875 42.28125 30.421875 31.390625 
Q 30.421875 20.453125 26.78125 9.375 
Q 23.140625 -1.703125 15.828125 -13.1875 
L 8.015625 -13.1875 
Q 14.5 -2 17.703125 9.0625 
Q 20.90625 20.125 20.90625 31.390625 
Q 20.90625 42.671875 17.703125 53.65625 
Q 14.5 64.65625 8.015625 75.875 
z
" id="DejaVuSans-41"/>
    </defs>
    <g transform="translate(43.366875 45.84)scale(0.12 -0.12)">
     <use xlink:href="#DejaVuSans-80"/>
     <use x="60.302734" xlink:href="#DejaVuSans-77"/>
     <use x="146.582031" xlink:href="#DejaVuSans-49"/>
     <use x="210.205078" xlink:href="#DejaVuSans-48"/>
     <use x="273.828125" xlink:href="#DejaVuSans-32"/>
     <use x="305.615234" xlink:href="#DejaVuSans-49"/>
     <use x="369.238281" xlink:href="#DejaVuSans-54"/>
     <use x="432.861328" xlink:href="#DejaVuSans-45"/>
     <use x="468.945312" xlink:href="#DejaVuSans-97"/>
     <use x="530.224609" xlink:href="#DejaVuSans-108"/>
     <use x="558.007812" xlink:href="#DejaVuSans-108"/>
     <use x="585.791016" xlink:href="#DejaVuSans-32"/>
     <use x="617.578125" xlink:href="#DejaVuSans-66"/>
     <use x="686.181641" xlink:href="#DejaVuSans-69"/>
     <use x="749.365234" xlink:href="#DejaVuSans-84"/>
     <use x="810.449219" xlink:href="#DejaVuSans-78"/>
     <use x="885.253906" xlink:href="#DejaVuSans-48"/>
     <use x="948.876953" xlink:href="#DejaVuSans-56"/>
     <use x="1012.5" xlink:href="#DejaVuSans-53"/>
     <use x="1076.123047" xlink:href="#DejaVuSans-32"/>
     <use x="1107.910156" xlink:href="#DejaVuSans-50"/>
     <use x="1171.533203" xlink:href="#DejaVuSans-48"/>
     <use x="1235.15625" xlink:href="#DejaVuSans-49"/>
     <use x="1298.779297" xlink:href="#DejaVuSans-50"/>
     <use x="1362.402344" xlink:href="#DejaVuSans-58"/>
     <use x="1396.09375" xlink:href="#DejaVuSans-32"/>
     <use x="1427.880859" xlink:href="#DejaVuSans-73"/>
     <use x="1457.373047" xlink:href="#DejaVuSans-115"/>
     <use x="1509.472656" xlink:href="#DejaVuSans-108"/>
     <use x="1537.255859" xlink:href="#DejaVuSans-97"/>
     <use x="1598.535156" xlink:href="#DejaVuSans-110"/>
     <use x="1661.914062" xlink:href="#DejaVuSans-100"/>
     <use x="1725.390625" xlink:href="#DejaVuSans-32"/>
     <use x="1757.177734" xlink:href="#DejaVuSans-68"/>
     <use x="1834.179688" xlink:href="#DejaVuSans-78"/>
     <use x="1908.984375" xlink:href="#DejaVuSans-78"/>
     <use x="1983.789062" xlink:href="#DejaVuSans-32"/>
     <use x="2015.576172" xlink:href="#DejaVuSans-40"/>
     <use x="2054.589844" xlink:href="#DejaVuSans-77"/>
     <use x="2140.869141" xlink:href="#DejaVuSans-83"/>
     <use x="2204.345703" xlink:href="#DejaVuSans-69"/>
     <use x="2267.529297" xlink:href="#DejaVuSans-58"/>
     <use x="2301.220703" xlink:href="#DejaVuSans-32"/>
     <use x="2333.007812" xlink:href="#DejaVuSans-52"/>
     <use x="2396.630859" xlink:href="#DejaVuSans-56"/>
     <use x="2460.253906" xlink:href="#DejaVuSans-46"/>
     <use x="2492.041016" xlink:href="#DejaVuSans-52"/>
     <use x="2555.664062" xlink:href="#DejaVuSans-55"/>
     <use x="2619.287109" xlink:href="#DejaVuSans-44"/>
     <use x="2651.074219" xlink:href="#DejaVuSans-32"/>
     <use x="2682.861328" xlink:href="#DejaVuSans-83"/>
     <use x="2746.337891" xlink:href="#DejaVuSans-77"/>
     <use x="2832.617188" xlink:href="#DejaVuSans-65"/>
     <use x="2901.025391" xlink:href="#DejaVuSans-80"/>
     <use x="2961.328125" xlink:href="#DejaVuSans-69"/>
     <use x="3024.511719" xlink:href="#DejaVuSans-58"/>
     <use x="3058.203125" xlink:href="#DejaVuSans-32"/>
     <use x="3089.990234" xlink:href="#DejaVuSans-52"/>
     <use x="3153.613281" xlink:href="#DejaVuSans-50"/>
     <use x="3217.236328" xlink:href="#DejaVuSans-46"/>
     <use x="3249.023438" xlink:href="#DejaVuSans-52"/>
     <use x="3312.646484" xlink:href="#DejaVuSans-49"/>
     <use x="3376.269531" xlink:href="#DejaVuSans-37"/>
     <use x="3471.289062" xlink:href="#DejaVuSans-44"/>
     <use x="3503.076172" xlink:href="#DejaVuSans-32"/>
     <use x="3534.863281" xlink:href="#DejaVuSans-73"/>
     <use x="3564.355469" xlink:href="#DejaVuSans-79"/>
     <use x="3643.050781" xlink:href="#DejaVuSans-65"/>
     <use x="3711.443359" xlink:href="#DejaVuSans-58"/>
     <use x="3745.134766" xlink:href="#DejaVuSans-32"/>
     <use x="3776.921875" xlink:href="#DejaVuSans-56"/>
     <use x="3840.544922" xlink:href="#DejaVuSans-49"/>
     <use x="3904.167969" xlink:href="#DejaVuSans-46"/>
     <use x="3935.955078" xlink:href="#DejaVuSans-55"/>
     <use x="3999.578125" xlink:href="#DejaVuSans-51"/>
     <use x="4063.201172" xlink:href="#DejaVuSans-37"/>
     <use x="4158.220703" xlink:href="#DejaVuSans-41"/>
    </g>
   </g>
   <g id="legend_1">
    <g id="patch_7">
     <path d="M 431.74375 89.19625 
L 511.4 89.19625 
Q 513.4 89.19625 513.4 87.19625 
L 513.4 58.84 
Q 513.4 56.84 511.4 56.84 
L 431.74375 56.84 
Q 429.74375 56.84 429.74375 58.84 
L 429.74375 87.19625 
Q 429.74375 89.19625 431.74375 89.19625 
z
" style="fill:#ffffff;opacity:0.8;stroke:#cccccc;stroke-linejoin:miter;"/>
    </g>
    <g id="line2d_35">
     <path d="M 433.74375 64.938437 
L 453.74375 64.938437 
" style="fill:none;stroke:#1f77b4;stroke-linecap:square;stroke-width:1.5;"/>
    </g>
    <g id="line2d_36"/>
    <g id="text_20">
     <!-- expected -->
     <defs>
      <path d="M 54.890625 54.6875 
L 35.109375 28.078125 
L 55.90625 0 
L 45.3125 0 
L 29.390625 21.484375 
L 13.484375 0 
L 2.875 0 
L 24.125 28.609375 
L 4.6875 54.6875 
L 15.28125 54.6875 
L 29.78125 35.203125 
L 44.28125 54.6875 
z
" id="DejaVuSans-120"/>
      <path d="M 18.109375 8.203125 
L 18.109375 -20.796875 
L 9.078125 -20.796875 
L 9.078125 54.6875 
L 18.109375 54.6875 
L 18.109375 46.390625 
Q 20.953125 51.265625 25.265625 53.625 
Q 29.59375 56 35.59375 56 
Q 45.5625 56 51.78125 48.09375 
Q 58.015625 40.1875 58.015625 27.296875 
Q 58.015625 14.40625 51.78125 6.484375 
Q 45.5625 -1.421875 35.59375 -1.421875 
Q 29.59375 -1.421875 25.265625 0.953125 
Q 20.953125 3.328125 18.109375 8.203125 
z
M 48.6875 27.296875 
Q 48.6875 37.203125 44.609375 42.84375 
Q 40.53125 48.484375 33.40625 48.484375 
Q 26.265625 48.484375 22.1875 42.84375 
Q 18.109375 37.203125 18.109375 27.296875 
Q 18.109375 17.390625 22.1875 11.75 
Q 26.265625 6.109375 33.40625 6.109375 
Q 40.53125 6.109375 44.609375 11.75 
Q 48.6875 17.390625 48.6875 27.296875 
z
" id="DejaVuSans-112"/>
      <path d="M 48.78125 52.59375 
L 48.78125 44.1875 
Q 44.96875 46.296875 41.140625 47.34375 
Q 37.3125 48.390625 33.40625 48.390625 
Q 24.65625 48.390625 19.8125 42.84375 
Q 14.984375 37.3125 14.984375 27.296875 
Q 14.984375 17.28125 19.8125 11.734375 
Q 24.65625 6.203125 33.40625 6.203125 
Q 37.3125 6.203125 41.140625 7.25 
Q 44.96875 8.296875 48.78125 10.40625 
L 48.78125 2.09375 
Q 45.015625 0.34375 40.984375 -0.53125 
Q 36.96875 -1.421875 32.421875 -1.421875 
Q 20.0625 -1.421875 12.78125 6.34375 
Q 5.515625 14.109375 5.515625 27.296875 
Q 5.515625 40.671875 12.859375 48.328125 
Q 20.21875 56 33.015625 56 
Q 37.15625 56 41.109375 55.140625 
Q 45.0625 54.296875 48.78125 52.59375 
z
" id="DejaVuSans-99"/>
      <path d="M 18.3125 70.21875 
L 18.3125 54.6875 
L 36.8125 54.6875 
L 36.8125 47.703125 
L 18.3125 47.703125 
L 18.3125 18.015625 
Q 18.3125 11.328125 20.140625 9.421875 
Q 21.96875 7.515625 27.59375 7.515625 
L 36.8125 7.515625 
L 36.8125 0 
L 27.59375 0 
Q 17.1875 0 13.234375 3.875 
Q 9.28125 7.765625 9.28125 18.015625 
L 9.28125 47.703125 
L 2.6875 47.703125 
L 2.6875 54.6875 
L 9.28125 54.6875 
L 9.28125 70.21875 
z
" id="DejaVuSans-116"/>
     </defs>
     <g transform="translate(461.74375 68.438437)scale(0.1 -0.1)">
      <use xlink:href="#DejaVuSans-101"/>
      <use x="61.507812" xlink:href="#DejaVuSans-120"/>
      <use x="120.6875" xlink:href="#DejaVuSans-112"/>
      <use x="184.164062" xlink:href="#DejaVuSans-101"/>
      <use x="245.6875" xlink:href="#DejaVuSans-99"/>
      <use x="300.667969" xlink:href="#DejaVuSans-116"/>
      <use x="339.876953" xlink:href="#DejaVuSans-101"/>
      <use x="401.400391" xlink:href="#DejaVuSans-100"/>
     </g>
    </g>
    <g id="line2d_37">
     <path d="M 433.74375 79.616562 
L 453.74375 79.616562 
" style="fill:none;stroke:#ff7f0e;stroke-linecap:square;stroke-width:1.5;"/>
    </g>
    <g id="line2d_38"/>
    <g id="text_21">
     <!-- predicted -->
     <defs>
      <path d="M 41.109375 46.296875 
Q 39.59375 47.171875 37.8125 47.578125 
Q 36.03125 48 33.890625 48 
Q 26.265625 48 22.1875 43.046875 
Q 18.109375 38.09375 18.109375 28.8125 
L 18.109375 0 
L 9.078125 0 
L 9.078125 54.6875 
L 18.109375 54.6875 
L 18.109375 46.1875 
Q 20.953125 51.171875 25.484375 53.578125 
Q 30.03125 56 36.53125 56 
Q 37.453125 56 38.578125 55.875 
Q 39.703125 55.765625 41.0625 55.515625 
z
" id="DejaVuSans-114"/>
     </defs>
     <g transform="translate(461.74375 83.116562)scale(0.1 -0.1)">
      <use xlink:href="#DejaVuSans-112"/>
      <use x="63.476562" xlink:href="#DejaVuSans-114"/>
      <use x="104.558594" xlink:href="#DejaVuSans-101"/>
      <use x="166.082031" xlink:href="#DejaVuSans-100"/>
      <use x="229.558594" xlink:href="#DejaVuSans-105"/>
      <use x="257.341797" xlink:href="#DejaVuSans-99"/>
      <use x="312.322266" xlink:href="#DejaVuSans-116"/>
      <use x="351.53125" xlink:href="#DejaVuSans-101"/>
      <use x="413.054688" xlink:href="#DejaVuSans-100"/>
     </g>
    </g>
   </g>
  </g>
 </g>
 <defs>
  <clipPath id="p8201d16123">
   <rect height="326.16" width="446.4" x="72" y="51.84"/>
  </clipPath>
 </defs>
</svg>
