<?xml version="1.0" encoding="utf-8" standalone="no"?>
<!DOCTYPE svg PUBLIC "-//W3C//DTD SVG 1.1//EN"
  "http://www.w3.org/Graphics/SVG/1.1/DTD/svg11.dtd">
<!-- Created with matplotlib (https://matplotlib.org/) -->
<svg height="864pt" version="1.1" viewBox="0 0 1440 864" width="1440pt" xmlns="http://www.w3.org/2000/svg" xmlns:xlink="http://www.w3.org/1999/xlink">
 <defs>
  <style type="text/css">
*{stroke-linecap:butt;stroke-linejoin:round;white-space:pre;}
  </style>
 </defs>
 <g id="figure_1">
  <g id="patch_1">
   <path d="M 0 864 
L 1440 864 
L 1440 0 
L 0 0 
z
" style="fill:#ffffff;"/>
  </g>
  <g id="axes_1">
   <g id="patch_2">
    <path d="M 180 756 
L 1296 756 
L 1296 103.68 
L 180 103.68 
z
" style="fill:#ffffff;"/>
   </g>
   <g id="matplotlib.axis_1">
    <g id="xtick_1">
     <g id="line2d_1">
      <defs>
       <path d="M 0 0 
L 0 3.5 
" id="m6be47350c3" style="stroke:#000000;stroke-width:0.8;"/>
      </defs>
      <g>
       <use style="stroke:#000000;stroke-width:0.8;" x="230.727273" xlink:href="#m6be47350c3" y="756"/>
      </g>
     </g>
     <g id="text_1">
      <!-- 0 -->
      <defs>
       <path d="M 31.78125 66.40625 
Q 24.171875 66.40625 20.328125 58.90625 
Q 16.5 51.421875 16.5 36.375 
Q 16.5 21.390625 20.328125 13.890625 
Q 24.171875 6.390625 31.78125 6.390625 
Q 39.453125 6.390625 43.28125 13.890625 
Q 47.125 21.390625 47.125 36.375 
Q 47.125 51.421875 43.28125 58.90625 
Q 39.453125 66.40625 31.78125 66.40625 
z
M 31.78125 74.21875 
Q 44.046875 74.21875 50.515625 64.515625 
Q 56.984375 54.828125 56.984375 36.375 
Q 56.984375 17.96875 50.515625 8.265625 
Q 44.046875 -1.421875 31.78125 -1.421875 
Q 19.53125 -1.421875 13.0625 8.265625 
Q 6.59375 17.96875 6.59375 36.375 
Q 6.59375 54.828125 13.0625 64.515625 
Q 19.53125 74.21875 31.78125 74.21875 
z
" id="DejaVuSans-48"/>
      </defs>
      <g transform="translate(227.546023 770.598438)scale(0.1 -0.1)">
       <use xlink:href="#DejaVuSans-48"/>
      </g>
     </g>
    </g>
    <g id="xtick_2">
     <g id="line2d_2">
      <g>
       <use style="stroke:#000000;stroke-width:0.8;" x="370.087912" xlink:href="#m6be47350c3" y="756"/>
      </g>
     </g>
     <g id="text_2">
      <!-- 50 -->
      <defs>
       <path d="M 10.796875 72.90625 
L 49.515625 72.90625 
L 49.515625 64.59375 
L 19.828125 64.59375 
L 19.828125 46.734375 
Q 21.96875 47.46875 24.109375 47.828125 
Q 26.265625 48.1875 28.421875 48.1875 
Q 40.625 48.1875 47.75 41.5 
Q 54.890625 34.8125 54.890625 23.390625 
Q 54.890625 11.625 47.5625 5.09375 
Q 40.234375 -1.421875 26.90625 -1.421875 
Q 22.3125 -1.421875 17.546875 -0.640625 
Q 12.796875 0.140625 7.71875 1.703125 
L 7.71875 11.625 
Q 12.109375 9.234375 16.796875 8.0625 
Q 21.484375 6.890625 26.703125 6.890625 
Q 35.15625 6.890625 40.078125 11.328125 
Q 45.015625 15.765625 45.015625 23.390625 
Q 45.015625 31 40.078125 35.4375 
Q 35.15625 39.890625 26.703125 39.890625 
Q 22.75 39.890625 18.8125 39.015625 
Q 14.890625 38.140625 10.796875 36.28125 
z
" id="DejaVuSans-53"/>
      </defs>
      <g transform="translate(363.725412 770.598438)scale(0.1 -0.1)">
       <use xlink:href="#DejaVuSans-53"/>
       <use x="63.623047" xlink:href="#DejaVuSans-48"/>
      </g>
     </g>
    </g>
    <g id="xtick_3">
     <g id="line2d_3">
      <g>
       <use style="stroke:#000000;stroke-width:0.8;" x="509.448551" xlink:href="#m6be47350c3" y="756"/>
      </g>
     </g>
     <g id="text_3">
      <!-- 100 -->
      <defs>
       <path d="M 12.40625 8.296875 
L 28.515625 8.296875 
L 28.515625 63.921875 
L 10.984375 60.40625 
L 10.984375 69.390625 
L 28.421875 72.90625 
L 38.28125 72.90625 
L 38.28125 8.296875 
L 54.390625 8.296875 
L 54.390625 0 
L 12.40625 0 
z
" id="DejaVuSans-49"/>
      </defs>
      <g transform="translate(499.904801 770.598438)scale(0.1 -0.1)">
       <use xlink:href="#DejaVuSans-49"/>
       <use x="63.623047" xlink:href="#DejaVuSans-48"/>
       <use x="127.246094" xlink:href="#DejaVuSans-48"/>
      </g>
     </g>
    </g>
    <g id="xtick_4">
     <g id="line2d_4">
      <g>
       <use style="stroke:#000000;stroke-width:0.8;" x="648.809191" xlink:href="#m6be47350c3" y="756"/>
      </g>
     </g>
     <g id="text_4">
      <!-- 150 -->
      <g transform="translate(639.265441 770.598438)scale(0.1 -0.1)">
       <use xlink:href="#DejaVuSans-49"/>
       <use x="63.623047" xlink:href="#DejaVuSans-53"/>
       <use x="127.246094" xlink:href="#DejaVuSans-48"/>
      </g>
     </g>
    </g>
    <g id="xtick_5">
     <g id="line2d_5">
      <g>
       <use style="stroke:#000000;stroke-width:0.8;" x="788.16983" xlink:href="#m6be47350c3" y="756"/>
      </g>
     </g>
     <g id="text_5">
      <!-- 200 -->
      <defs>
       <path d="M 19.1875 8.296875 
L 53.609375 8.296875 
L 53.609375 0 
L 7.328125 0 
L 7.328125 8.296875 
Q 12.9375 14.109375 22.625 23.890625 
Q 32.328125 33.6875 34.8125 36.53125 
Q 39.546875 41.84375 41.421875 45.53125 
Q 43.3125 49.21875 43.3125 52.78125 
Q 43.3125 58.59375 39.234375 62.25 
Q 35.15625 65.921875 28.609375 65.921875 
Q 23.96875 65.921875 18.8125 64.3125 
Q 13.671875 62.703125 7.8125 59.421875 
L 7.8125 69.390625 
Q 13.765625 71.78125 18.9375 73 
Q 24.125 74.21875 28.421875 74.21875 
Q 39.75 74.21875 46.484375 68.546875 
Q 53.21875 62.890625 53.21875 53.421875 
Q 53.21875 48.921875 51.53125 44.890625 
Q 49.859375 40.875 45.40625 35.40625 
Q 44.1875 33.984375 37.640625 27.21875 
Q 31.109375 20.453125 19.1875 8.296875 
z
" id="DejaVuSans-50"/>
      </defs>
      <g transform="translate(778.62608 770.598438)scale(0.1 -0.1)">
       <use xlink:href="#DejaVuSans-50"/>
       <use x="63.623047" xlink:href="#DejaVuSans-48"/>
       <use x="127.246094" xlink:href="#DejaVuSans-48"/>
      </g>
     </g>
    </g>
    <g id="xtick_6">
     <g id="line2d_6">
      <g>
       <use style="stroke:#000000;stroke-width:0.8;" x="927.53047" xlink:href="#m6be47350c3" y="756"/>
      </g>
     </g>
     <g id="text_6">
      <!-- 250 -->
      <g transform="translate(917.98672 770.598438)scale(0.1 -0.1)">
       <use xlink:href="#DejaVuSans-50"/>
       <use x="63.623047" xlink:href="#DejaVuSans-53"/>
       <use x="127.246094" xlink:href="#DejaVuSans-48"/>
      </g>
     </g>
    </g>
    <g id="xtick_7">
     <g id="line2d_7">
      <g>
       <use style="stroke:#000000;stroke-width:0.8;" x="1066.891109" xlink:href="#m6be47350c3" y="756"/>
      </g>
     </g>
     <g id="text_7">
      <!-- 300 -->
      <defs>
       <path d="M 40.578125 39.3125 
Q 47.65625 37.796875 51.625 33 
Q 55.609375 28.21875 55.609375 21.1875 
Q 55.609375 10.40625 48.1875 4.484375 
Q 40.765625 -1.421875 27.09375 -1.421875 
Q 22.515625 -1.421875 17.65625 -0.515625 
Q 12.796875 0.390625 7.625 2.203125 
L 7.625 11.71875 
Q 11.71875 9.328125 16.59375 8.109375 
Q 21.484375 6.890625 26.8125 6.890625 
Q 36.078125 6.890625 40.9375 10.546875 
Q 45.796875 14.203125 45.796875 21.1875 
Q 45.796875 27.640625 41.28125 31.265625 
Q 36.765625 34.90625 28.71875 34.90625 
L 20.21875 34.90625 
L 20.21875 43.015625 
L 29.109375 43.015625 
Q 36.375 43.015625 40.234375 45.921875 
Q 44.09375 48.828125 44.09375 54.296875 
Q 44.09375 59.90625 40.109375 62.90625 
Q 36.140625 65.921875 28.71875 65.921875 
Q 24.65625 65.921875 20.015625 65.03125 
Q 15.375 64.15625 9.8125 62.3125 
L 9.8125 71.09375 
Q 15.4375 72.65625 20.34375 73.4375 
Q 25.25 74.21875 29.59375 74.21875 
Q 40.828125 74.21875 47.359375 69.109375 
Q 53.90625 64.015625 53.90625 55.328125 
Q 53.90625 49.265625 50.4375 45.09375 
Q 46.96875 40.921875 40.578125 39.3125 
z
" id="DejaVuSans-51"/>
      </defs>
      <g transform="translate(1057.347359 770.598438)scale(0.1 -0.1)">
       <use xlink:href="#DejaVuSans-51"/>
       <use x="63.623047" xlink:href="#DejaVuSans-48"/>
       <use x="127.246094" xlink:href="#DejaVuSans-48"/>
      </g>
     </g>
    </g>
    <g id="xtick_8">
     <g id="line2d_8">
      <g>
       <use style="stroke:#000000;stroke-width:0.8;" x="1206.251748" xlink:href="#m6be47350c3" y="756"/>
      </g>
     </g>
     <g id="text_8">
      <!-- 350 -->
      <g transform="translate(1196.707998 770.598438)scale(0.1 -0.1)">
       <use xlink:href="#DejaVuSans-51"/>
       <use x="63.623047" xlink:href="#DejaVuSans-53"/>
       <use x="127.246094" xlink:href="#DejaVuSans-48"/>
      </g>
     </g>
    </g>
   </g>
   <g id="matplotlib.axis_2">
    <g id="ytick_1">
     <g id="line2d_9">
      <defs>
       <path d="M 0 0 
L -3.5 0 
" id="m4827472965" style="stroke:#000000;stroke-width:0.8;"/>
      </defs>
      <g>
       <use style="stroke:#000000;stroke-width:0.8;" x="180" xlink:href="#m4827472965" y="664.035991"/>
      </g>
     </g>
     <g id="text_9">
      <!-- 0 -->
      <g transform="translate(166.6375 667.835209)scale(0.1 -0.1)">
       <use xlink:href="#DejaVuSans-48"/>
      </g>
     </g>
    </g>
    <g id="ytick_2">
     <g id="line2d_10">
      <g>
       <use style="stroke:#000000;stroke-width:0.8;" x="180" xlink:href="#m4827472965" y="561.426905"/>
      </g>
     </g>
     <g id="text_10">
      <!-- 20 -->
      <g transform="translate(160.275 565.226124)scale(0.1 -0.1)">
       <use xlink:href="#DejaVuSans-50"/>
       <use x="63.623047" xlink:href="#DejaVuSans-48"/>
      </g>
     </g>
    </g>
    <g id="ytick_3">
     <g id="line2d_11">
      <g>
       <use style="stroke:#000000;stroke-width:0.8;" x="180" xlink:href="#m4827472965" y="458.817819"/>
      </g>
     </g>
     <g id="text_11">
      <!-- 40 -->
      <defs>
       <path d="M 37.796875 64.3125 
L 12.890625 25.390625 
L 37.796875 25.390625 
z
M 35.203125 72.90625 
L 47.609375 72.90625 
L 47.609375 25.390625 
L 58.015625 25.390625 
L 58.015625 17.1875 
L 47.609375 17.1875 
L 47.609375 0 
L 37.796875 0 
L 37.796875 17.1875 
L 4.890625 17.1875 
L 4.890625 26.703125 
z
" id="DejaVuSans-52"/>
      </defs>
      <g transform="translate(160.275 462.617038)scale(0.1 -0.1)">
       <use xlink:href="#DejaVuSans-52"/>
       <use x="63.623047" xlink:href="#DejaVuSans-48"/>
      </g>
     </g>
    </g>
    <g id="ytick_4">
     <g id="line2d_12">
      <g>
       <use style="stroke:#000000;stroke-width:0.8;" x="180" xlink:href="#m4827472965" y="356.208734"/>
      </g>
     </g>
     <g id="text_12">
      <!-- 60 -->
      <defs>
       <path d="M 33.015625 40.375 
Q 26.375 40.375 22.484375 35.828125 
Q 18.609375 31.296875 18.609375 23.390625 
Q 18.609375 15.53125 22.484375 10.953125 
Q 26.375 6.390625 33.015625 6.390625 
Q 39.65625 6.390625 43.53125 10.953125 
Q 47.40625 15.53125 47.40625 23.390625 
Q 47.40625 31.296875 43.53125 35.828125 
Q 39.65625 40.375 33.015625 40.375 
z
M 52.59375 71.296875 
L 52.59375 62.3125 
Q 48.875 64.0625 45.09375 64.984375 
Q 41.3125 65.921875 37.59375 65.921875 
Q 27.828125 65.921875 22.671875 59.328125 
Q 17.53125 52.734375 16.796875 39.40625 
Q 19.671875 43.65625 24.015625 45.921875 
Q 28.375 48.1875 33.59375 48.1875 
Q 44.578125 48.1875 50.953125 41.515625 
Q 57.328125 34.859375 57.328125 23.390625 
Q 57.328125 12.15625 50.6875 5.359375 
Q 44.046875 -1.421875 33.015625 -1.421875 
Q 20.359375 -1.421875 13.671875 8.265625 
Q 6.984375 17.96875 6.984375 36.375 
Q 6.984375 53.65625 15.1875 63.9375 
Q 23.390625 74.21875 37.203125 74.21875 
Q 40.921875 74.21875 44.703125 73.484375 
Q 48.484375 72.75 52.59375 71.296875 
z
" id="DejaVuSans-54"/>
      </defs>
      <g transform="translate(160.275 360.007952)scale(0.1 -0.1)">
       <use xlink:href="#DejaVuSans-54"/>
       <use x="63.623047" xlink:href="#DejaVuSans-48"/>
      </g>
     </g>
    </g>
    <g id="ytick_5">
     <g id="line2d_13">
      <g>
       <use style="stroke:#000000;stroke-width:0.8;" x="180" xlink:href="#m4827472965" y="253.599648"/>
      </g>
     </g>
     <g id="text_13">
      <!-- 80 -->
      <defs>
       <path d="M 31.78125 34.625 
Q 24.75 34.625 20.71875 30.859375 
Q 16.703125 27.09375 16.703125 20.515625 
Q 16.703125 13.921875 20.71875 10.15625 
Q 24.75 6.390625 31.78125 6.390625 
Q 38.8125 6.390625 42.859375 10.171875 
Q 46.921875 13.96875 46.921875 20.515625 
Q 46.921875 27.09375 42.890625 30.859375 
Q 38.875 34.625 31.78125 34.625 
z
M 21.921875 38.8125 
Q 15.578125 40.375 12.03125 44.71875 
Q 8.5 49.078125 8.5 55.328125 
Q 8.5 64.0625 14.71875 69.140625 
Q 20.953125 74.21875 31.78125 74.21875 
Q 42.671875 74.21875 48.875 69.140625 
Q 55.078125 64.0625 55.078125 55.328125 
Q 55.078125 49.078125 51.53125 44.71875 
Q 48 40.375 41.703125 38.8125 
Q 48.828125 37.15625 52.796875 32.3125 
Q 56.78125 27.484375 56.78125 20.515625 
Q 56.78125 9.90625 50.3125 4.234375 
Q 43.84375 -1.421875 31.78125 -1.421875 
Q 19.734375 -1.421875 13.25 4.234375 
Q 6.78125 9.90625 6.78125 20.515625 
Q 6.78125 27.484375 10.78125 32.3125 
Q 14.796875 37.15625 21.921875 38.8125 
z
M 18.3125 54.390625 
Q 18.3125 48.734375 21.84375 45.5625 
Q 25.390625 42.390625 31.78125 42.390625 
Q 38.140625 42.390625 41.71875 45.5625 
Q 45.3125 48.734375 45.3125 54.390625 
Q 45.3125 60.0625 41.71875 63.234375 
Q 38.140625 66.40625 31.78125 66.40625 
Q 25.390625 66.40625 21.84375 63.234375 
Q 18.3125 60.0625 18.3125 54.390625 
z
" id="DejaVuSans-56"/>
      </defs>
      <g transform="translate(160.275 257.398867)scale(0.1 -0.1)">
       <use xlink:href="#DejaVuSans-56"/>
       <use x="63.623047" xlink:href="#DejaVuSans-48"/>
      </g>
     </g>
    </g>
    <g id="ytick_6">
     <g id="line2d_14">
      <g>
       <use style="stroke:#000000;stroke-width:0.8;" x="180" xlink:href="#m4827472965" y="150.990562"/>
      </g>
     </g>
     <g id="text_14">
      <!-- 100 -->
      <g transform="translate(153.9125 154.789781)scale(0.1 -0.1)">
       <use xlink:href="#DejaVuSans-49"/>
       <use x="63.623047" xlink:href="#DejaVuSans-48"/>
       <use x="127.246094" xlink:href="#DejaVuSans-48"/>
      </g>
     </g>
    </g>
    <g id="text_15">
     <!-- Sensor value -->
     <defs>
      <path d="M 53.515625 70.515625 
L 53.515625 60.890625 
Q 47.90625 63.578125 42.921875 64.890625 
Q 37.9375 66.21875 33.296875 66.21875 
Q 25.25 66.21875 20.875 63.09375 
Q 16.5 59.96875 16.5 54.203125 
Q 16.5 49.359375 19.40625 46.890625 
Q 22.3125 44.4375 30.421875 42.921875 
L 36.375 41.703125 
Q 47.40625 39.59375 52.65625 34.296875 
Q 57.90625 29 57.90625 20.125 
Q 57.90625 9.515625 50.796875 4.046875 
Q 43.703125 -1.421875 29.984375 -1.421875 
Q 24.8125 -1.421875 18.96875 -0.25 
Q 13.140625 0.921875 6.890625 3.21875 
L 6.890625 13.375 
Q 12.890625 10.015625 18.65625 8.296875 
Q 24.421875 6.59375 29.984375 6.59375 
Q 38.421875 6.59375 43.015625 9.90625 
Q 47.609375 13.234375 47.609375 19.390625 
Q 47.609375 24.75 44.3125 27.78125 
Q 41.015625 30.8125 33.5 32.328125 
L 27.484375 33.5 
Q 16.453125 35.6875 11.515625 40.375 
Q 6.59375 45.0625 6.59375 53.421875 
Q 6.59375 63.09375 13.40625 68.65625 
Q 20.21875 74.21875 32.171875 74.21875 
Q 37.3125 74.21875 42.625 73.28125 
Q 47.953125 72.359375 53.515625 70.515625 
z
" id="DejaVuSans-83"/>
      <path d="M 56.203125 29.59375 
L 56.203125 25.203125 
L 14.890625 25.203125 
Q 15.484375 15.921875 20.484375 11.0625 
Q 25.484375 6.203125 34.421875 6.203125 
Q 39.59375 6.203125 44.453125 7.46875 
Q 49.3125 8.734375 54.109375 11.28125 
L 54.109375 2.78125 
Q 49.265625 0.734375 44.1875 -0.34375 
Q 39.109375 -1.421875 33.890625 -1.421875 
Q 20.796875 -1.421875 13.15625 6.1875 
Q 5.515625 13.8125 5.515625 26.8125 
Q 5.515625 40.234375 12.765625 48.109375 
Q 20.015625 56 32.328125 56 
Q 43.359375 56 49.78125 48.890625 
Q 56.203125 41.796875 56.203125 29.59375 
z
M 47.21875 32.234375 
Q 47.125 39.59375 43.09375 43.984375 
Q 39.0625 48.390625 32.421875 48.390625 
Q 24.90625 48.390625 20.390625 44.140625 
Q 15.875 39.890625 15.1875 32.171875 
z
" id="DejaVuSans-101"/>
      <path d="M 54.890625 33.015625 
L 54.890625 0 
L 45.90625 0 
L 45.90625 32.71875 
Q 45.90625 40.484375 42.875 44.328125 
Q 39.84375 48.1875 33.796875 48.1875 
Q 26.515625 48.1875 22.3125 43.546875 
Q 18.109375 38.921875 18.109375 30.90625 
L 18.109375 0 
L 9.078125 0 
L 9.078125 54.6875 
L 18.109375 54.6875 
L 18.109375 46.1875 
Q 21.34375 51.125 25.703125 53.5625 
Q 30.078125 56 35.796875 56 
Q 45.21875 56 50.046875 50.171875 
Q 54.890625 44.34375 54.890625 33.015625 
z
" id="DejaVuSans-110"/>
      <path d="M 44.28125 53.078125 
L 44.28125 44.578125 
Q 40.484375 46.53125 36.375 47.5 
Q 32.28125 48.484375 27.875 48.484375 
Q 21.1875 48.484375 17.84375 46.4375 
Q 14.5 44.390625 14.5 40.28125 
Q 14.5 37.15625 16.890625 35.375 
Q 19.28125 33.59375 26.515625 31.984375 
L 29.59375 31.296875 
Q 39.15625 29.25 43.1875 25.515625 
Q 47.21875 21.78125 47.21875 15.09375 
Q 47.21875 7.46875 41.1875 3.015625 
Q 35.15625 -1.421875 24.609375 -1.421875 
Q 20.21875 -1.421875 15.453125 -0.5625 
Q 10.6875 0.296875 5.421875 2 
L 5.421875 11.28125 
Q 10.40625 8.6875 15.234375 7.390625 
Q 20.0625 6.109375 24.8125 6.109375 
Q 31.15625 6.109375 34.5625 8.28125 
Q 37.984375 10.453125 37.984375 14.40625 
Q 37.984375 18.0625 35.515625 20.015625 
Q 33.0625 21.96875 24.703125 23.78125 
L 21.578125 24.515625 
Q 13.234375 26.265625 9.515625 29.90625 
Q 5.8125 33.546875 5.8125 39.890625 
Q 5.8125 47.609375 11.28125 51.796875 
Q 16.75 56 26.8125 56 
Q 31.78125 56 36.171875 55.265625 
Q 40.578125 54.546875 44.28125 53.078125 
z
" id="DejaVuSans-115"/>
      <path d="M 30.609375 48.390625 
Q 23.390625 48.390625 19.1875 42.75 
Q 14.984375 37.109375 14.984375 27.296875 
Q 14.984375 17.484375 19.15625 11.84375 
Q 23.34375 6.203125 30.609375 6.203125 
Q 37.796875 6.203125 41.984375 11.859375 
Q 46.1875 17.53125 46.1875 27.296875 
Q 46.1875 37.015625 41.984375 42.703125 
Q 37.796875 48.390625 30.609375 48.390625 
z
M 30.609375 56 
Q 42.328125 56 49.015625 48.375 
Q 55.71875 40.765625 55.71875 27.296875 
Q 55.71875 13.875 49.015625 6.21875 
Q 42.328125 -1.421875 30.609375 -1.421875 
Q 18.84375 -1.421875 12.171875 6.21875 
Q 5.515625 13.875 5.515625 27.296875 
Q 5.515625 40.765625 12.171875 48.375 
Q 18.84375 56 30.609375 56 
z
" id="DejaVuSans-111"/>
      <path d="M 41.109375 46.296875 
Q 39.59375 47.171875 37.8125 47.578125 
Q 36.03125 48 33.890625 48 
Q 26.265625 48 22.1875 43.046875 
Q 18.109375 38.09375 18.109375 28.8125 
L 18.109375 0 
L 9.078125 0 
L 9.078125 54.6875 
L 18.109375 54.6875 
L 18.109375 46.1875 
Q 20.953125 51.171875 25.484375 53.578125 
Q 30.03125 56 36.53125 56 
Q 37.453125 56 38.578125 55.875 
Q 39.703125 55.765625 41.0625 55.515625 
z
" id="DejaVuSans-114"/>
      <path id="DejaVuSans-32"/>
      <path d="M 2.984375 54.6875 
L 12.5 54.6875 
L 29.59375 8.796875 
L 46.6875 54.6875 
L 56.203125 54.6875 
L 35.6875 0 
L 23.484375 0 
z
" id="DejaVuSans-118"/>
      <path d="M 34.28125 27.484375 
Q 23.390625 27.484375 19.1875 25 
Q 14.984375 22.515625 14.984375 16.5 
Q 14.984375 11.71875 18.140625 8.90625 
Q 21.296875 6.109375 26.703125 6.109375 
Q 34.1875 6.109375 38.703125 11.40625 
Q 43.21875 16.703125 43.21875 25.484375 
L 43.21875 27.484375 
z
M 52.203125 31.203125 
L 52.203125 0 
L 43.21875 0 
L 43.21875 8.296875 
Q 40.140625 3.328125 35.546875 0.953125 
Q 30.953125 -1.421875 24.3125 -1.421875 
Q 15.921875 -1.421875 10.953125 3.296875 
Q 6 8.015625 6 15.921875 
Q 6 25.140625 12.171875 29.828125 
Q 18.359375 34.515625 30.609375 34.515625 
L 43.21875 34.515625 
L 43.21875 35.40625 
Q 43.21875 41.609375 39.140625 45 
Q 35.0625 48.390625 27.6875 48.390625 
Q 23 48.390625 18.546875 47.265625 
Q 14.109375 46.140625 10.015625 43.890625 
L 10.015625 52.203125 
Q 14.9375 54.109375 19.578125 55.046875 
Q 24.21875 56 28.609375 56 
Q 40.484375 56 46.34375 49.84375 
Q 52.203125 43.703125 52.203125 31.203125 
z
" id="DejaVuSans-97"/>
      <path d="M 9.421875 75.984375 
L 18.40625 75.984375 
L 18.40625 0 
L 9.421875 0 
z
" id="DejaVuSans-108"/>
      <path d="M 8.5 21.578125 
L 8.5 54.6875 
L 17.484375 54.6875 
L 17.484375 21.921875 
Q 17.484375 14.15625 20.5 10.265625 
Q 23.53125 6.390625 29.59375 6.390625 
Q 36.859375 6.390625 41.078125 11.03125 
Q 45.3125 15.671875 45.3125 23.6875 
L 45.3125 54.6875 
L 54.296875 54.6875 
L 54.296875 0 
L 45.3125 0 
L 45.3125 8.40625 
Q 42.046875 3.421875 37.71875 1 
Q 33.40625 -1.421875 27.6875 -1.421875 
Q 18.265625 -1.421875 13.375 4.4375 
Q 8.5 10.296875 8.5 21.578125 
z
M 31.109375 56 
z
" id="DejaVuSans-117"/>
     </defs>
     <g transform="translate(147.832812 462.225937)rotate(-90)scale(0.1 -0.1)">
      <use xlink:href="#DejaVuSans-83"/>
      <use x="63.476562" xlink:href="#DejaVuSans-101"/>
      <use x="125" xlink:href="#DejaVuSans-110"/>
      <use x="188.378906" xlink:href="#DejaVuSans-115"/>
      <use x="240.478516" xlink:href="#DejaVuSans-111"/>
      <use x="301.660156" xlink:href="#DejaVuSans-114"/>
      <use x="342.773438" xlink:href="#DejaVuSans-32"/>
      <use x="374.560547" xlink:href="#DejaVuSans-118"/>
      <use x="433.740234" xlink:href="#DejaVuSans-97"/>
      <use x="495.019531" xlink:href="#DejaVuSans-108"/>
      <use x="522.802734" xlink:href="#DejaVuSans-117"/>
      <use x="586.181641" xlink:href="#DejaVuSans-101"/>
     </g>
    </g>
   </g>
   <g id="line2d_15">
    <path clip-path="url(#p06f9e71611)" d="M 230.727273 649.732696 
L 233.514486 630.548242 
L 236.301698 635.526486 
L 239.088911 637.347795 
L 241.876124 568.502319 
L 244.663337 611.363788 
L 247.450549 608.692535 
L 250.237762 494.921438 
L 253.024975 638.683422 
L 255.812188 593.150699 
L 258.599401 409.805602 
L 261.386613 547.982238 
L 264.173826 574.93761 
L 266.961039 610.756685 
L 269.748252 672.438347 
L 272.535465 646.45434 
L 275.322677 670.186547 
L 278.10989 658.839241 
L 280.897103 650.218378 
L 283.684316 583.19421 
L 286.471528 625.205736 
L 289.258741 597.521841 
L 292.045954 638.31916 
L 294.833167 667.702944 
L 297.62038 584.286996 
L 300.407592 532.07614 
L 303.194805 680.087845 
L 305.982018 668.431468 
L 308.769231 587.929614 
L 311.556444 692.715586 
L 314.343656 653.496734 
L 317.130869 629.819719 
L 319.918082 561.945606 
L 322.705295 625.569998 
L 325.492507 608.935376 
L 328.27972 544.825303 
L 331.066933 431.175627 
L 333.854146 351.06443 
L 336.641359 456.43111 
L 339.428571 588.172455 
L 342.215784 675.352441 
L 345.002997 638.926263 
L 347.79021 607.842591 
L 350.577423 556.845941 
L 353.364635 595.594948 
L 358.939061 493.950074 
L 361.726274 464.930552 
L 364.513487 441.860639 
L 367.300699 376.293518 
L 370.087912 398.999169 
L 372.875125 529.769149 
L 375.662338 588.779558 
L 378.44955 599.100308 
L 381.236763 653.618155 
L 384.023976 583.437052 
L 386.811189 603.47145 
L 389.598402 552.717641 
L 392.385614 517.869931 
L 395.172827 438.0966 
L 397.96004 438.0966 
L 400.747253 596.064793 
L 403.534466 611.970891 
L 406.321678 533.897449 
L 409.108891 623.505848 
L 411.896104 647.304284 
L 414.683317 621.684539 
L 417.470529 639.047684 
L 420.257742 668.552888 
L 423.044955 646.332919 
L 425.832168 664.78885 
L 428.619381 593.757802 
L 431.406593 610.028162 
L 434.193806 547.375135 
L 436.981019 576.394657 
L 439.768232 566.316748 
L 442.555445 573.237722 
L 445.342657 622.655904 
L 448.12987 549.803547 
L 450.917083 587.929614 
L 453.704296 529.040625 
L 456.491508 573.116301 
L 459.278721 446.23178 
L 462.065934 544.461041 
L 464.853147 533.76547 
L 467.64036 622.655904 
L 470.427572 609.421059 
L 473.214785 621.563118 
L 476.001998 620.834595 
L 478.789211 589.508081 
L 481.576424 599.221729 
L 484.363636 596.186214 
L 487.150849 608.206853 
L 489.938062 660.539129 
L 492.725275 606.506964 
L 495.512488 498.442636 
L 498.2997 344.481322 
L 501.086913 288.385008 
L 503.874126 587.808193 
L 506.661339 599.221729 
L 509.448551 381.028921 
L 512.235764 478.89392 
L 515.022977 498.564056 
L 517.81019 530.01199 
L 520.597403 510.827536 
L 523.384615 445.746098 
L 526.171828 340.110181 
L 528.959041 438.218021 
L 531.746254 133.330909 
L 534.533467 313.033388 
L 537.320679 326.511074 
L 540.107892 595.45769 
L 542.895105 612.446015 
L 545.682318 631.155345 
L 548.46953 605.292759 
L 551.256743 533.168926 
L 554.043956 533.047505 
L 556.831169 611.485209 
L 559.618382 630.669663 
L 562.405594 597.521841 
L 565.192807 567.409533 
L 567.98002 633.948019 
L 570.767233 535.840179 
L 573.554446 588.415296 
L 576.341658 619.741809 
L 579.128871 595.821952 
L 581.916084 394.902544 
L 584.703297 376.172097 
L 587.490509 610.756685 
L 590.277722 662.603279 
L 593.064935 726.349091 
L 595.852148 587.931556 
L 598.639361 398.381028 
L 601.426573 434.939665 
L 604.213786 490.186035 
L 607.000999 579.430172 
L 609.788212 581.372901 
L 612.575425 578.580228 
L 615.362637 570.687889 
L 618.14985 631.519607 
L 620.937063 579.915854 
L 623.724276 536.325861 
L 626.511489 531.833299 
L 629.298701 609.421059 
L 632.085914 620.227492 
L 634.873127 627.269886 
L 637.66034 578.458807 
L 640.447552 559.395774 
L 643.234765 611.120947 
L 646.021978 635.50537 
L 648.809191 595.821952 
L 651.596404 614.763565 
L 654.383616 603.228608 
L 657.170829 567.773795 
L 659.958042 538.268591 
L 662.745255 520.541184 
L 665.532468 594.972008 
L 668.31968 560.002877 
L 671.106893 478.651079 
L 673.894106 509.49191 
L 676.681319 550.289229 
L 679.468531 570.80931 
L 682.255744 637.347795 
L 685.042957 578.823069 
L 687.83017 628.726933 
L 690.617383 648.154228 
L 693.404595 637.469216 
L 696.191808 626.298521 
L 698.979021 669.767094 
L 701.766234 654.468099 
L 704.553447 634.312281 
L 707.340659 656.896511 
L 710.127872 628.362671 
L 712.915085 618.527603 
L 715.702298 651.432584 
L 718.48951 588.172455 
L 721.276723 567.895216 
L 724.063936 616.880507 
L 726.851149 615.006406 
L 729.638362 596.186214 
L 732.425574 659.082082 
L 735.212787 613.427938 
L 738 531.833299 
L 740.787213 330.032272 
L 743.574426 572.752039 
L 746.361638 526.976475 
L 749.148851 577.851704 
L 751.936064 659.567764 
L 754.723277 656.289408 
L 757.51049 659.567764 
L 760.297702 621.684539 
L 763.084915 593.150699 
L 765.872128 615.85635 
L 768.659341 597.036158 
L 771.446553 618.770444 
L 774.233766 466.023337 
L 777.020979 558.181568 
L 779.808192 492.493027 
L 782.595405 525.398008 
L 785.382617 492.007344 
L 788.16983 480.472388 
L 790.957043 590.965128 
L 793.744256 529.162046 
L 796.531469 506.86481 
L 799.318681 533.897449 
L 802.105894 434.939665 
L 804.893107 457.523895 
L 807.68032 557.453044 
L 810.467532 570.323627 
L 813.254745 449.388716 
L 816.041958 579.308751 
L 818.829171 573.116301 
L 821.616384 528.797784 
L 824.403596 498.806897 
L 827.190809 587.808193 
L 829.978022 656.167987 
L 832.765235 553.446165 
L 835.552448 336.831825 
L 838.33966 551.867697 
L 841.126873 606.021282 
L 843.914086 598.493205 
L 846.701299 622.898745 
L 849.488511 557.088783 
L 852.275724 641.476096 
L 855.062937 616.463453 
L 857.85015 595.943373 
L 860.637363 584.286996 
L 863.424575 645.847237 
L 866.211788 584.894099 
L 868.999001 590.965128 
L 871.786214 612.335153 
L 874.573427 544.461041 
L 877.360639 489.336091 
L 880.147852 521.269707 
L 882.935065 654.832361 
L 885.722278 640.26189 
L 888.509491 565.345383 
L 891.296703 639.191181 
L 894.083916 607.59975 
L 896.871129 465.173393 
L 899.658342 653.982417 
L 902.445554 652.768211 
L 905.232767 596.550476 
L 908.01998 595.700532 
L 910.807193 603.957132 
L 913.594406 495.2857 
L 916.381618 472.215787 
L 919.168831 589.629502 
L 921.956044 570.687889 
L 924.743257 584.894099 
L 927.53047 431.418468 
L 930.317682 604.078553 
L 933.104895 525.033746 
L 935.892108 546.40377 
L 938.679321 623.263006 
L 941.466533 572.994881 
L 944.253746 567.288113 
L 947.040959 565.345383 
L 949.828172 497.22843 
L 952.615385 490.064615 
L 955.402597 416.847996 
L 958.18981 527.462158 
L 960.977023 590.965128 
L 963.764236 646.211499 
L 966.551449 709.107367 
L 969.338661 653.116635 
L 972.125874 618.891865 
L 974.913087 472.944311 
L 977.7003 425.954541 
L 980.487512 551.017753 
L 983.274725 659.203502 
L 986.061938 548.832182 
L 988.849151 676.566647 
L 991.636364 655.803726 
L 994.423576 626.905624 
L 997.210789 581.615743 
L 999.998002 463.352084 
L 1002.785215 467.844646 
L 1005.572428 637.954898 
L 1008.35964 514.591575 
L 1011.146853 490.307456 
L 1013.934066 554.296109 
L 1016.721279 568.623739 
L 1019.508492 587.929614 
L 1022.295704 534.14029 
L 1025.082917 518.719875 
L 1027.87013 229.131758 
L 1030.657343 256.815653 
L 1033.444555 372.165218 
L 1036.231768 602.153169 
L 1039.018981 560.367139 
L 1041.806194 479.743864 
L 1044.593407 481.565173 
L 1047.380619 577.244601 
L 1050.167832 581.251481 
L 1052.955045 608.990568 
L 1055.742258 514.348734 
L 1058.529471 519.194999 
L 1061.316683 578.580228 
L 1064.103896 600.435935 
L 1066.891109 603.228608 
L 1069.678322 673.166871 
L 1072.465534 609.056797 
L 1075.252747 603.835711 
L 1078.03996 539.361376 
L 1080.827173 468.937431 
L 1083.614386 423.040447 
L 1086.401598 449.631557 
L 1089.188811 469.058852 
L 1091.976024 609.056797 
L 1094.763237 551.503435 
L 1097.55045 554.903212 
L 1100.337662 622.170221 
L 1103.124875 621.805959 
L 1105.912088 658.474979 
L 1108.699301 556.238839 
L 1111.486513 559.152933 
L 1114.273726 561.459924 
L 1117.060939 518.598454 
L 1119.848152 549.439285 
L 1122.635365 595.33627 
L 1125.422577 632.733813 
L 1128.20979 593.39354 
L 1130.997003 520.905446 
L 1133.784216 503.785142 
L 1136.571429 492.857288 
L 1139.358641 489.700353 
L 1142.145854 544.946723 
L 1144.933067 531.833299 
L 1147.72028 474.089888 
L 1150.507493 596.550476 
L 1153.294705 587.322511 
L 1156.081918 488.486147 
L 1158.869131 597.764682 
L 1161.656344 682.151995 
L 1164.443556 650.58264 
L 1167.230769 613.7922 
L 1170.017982 602.621505 
L 1172.805195 645.240134 
L 1175.592408 668.310047 
L 1178.37962 668.431468 
L 1181.166833 667.460103 
L 1183.954046 657.017932 
L 1186.741259 584.408416 
L 1189.528472 451.210025 
L 1192.315684 608.085432 
L 1195.102897 594.000643 
L 1197.89011 577.00176 
L 1200.677323 544.33962 
L 1203.464535 577.487442 
L 1206.251748 623.384427 
L 1209.038961 571.395296 
L 1211.826174 600.193094 
L 1214.613387 624.355792 
L 1217.400599 635.647907 
L 1220.187812 630.791083 
L 1222.975025 630.669663 
L 1225.762238 481.322332 
L 1228.549451 324.689765 
L 1231.336663 297.248711 
L 1234.123876 348.852464 
L 1236.911089 489.141818 
L 1245.272727 612.335153 
L 1245.272727 612.335153 
" style="fill:none;stroke:#1f77b4;stroke-linecap:square;stroke-width:1.5;"/>
   </g>
   <g id="line2d_16">
    <path clip-path="url(#p06f9e71611)" d="M 230.727273 603.410271 
L 233.514486 576.462178 
L 236.301698 600.116308 
L 239.088911 605.771202 
L 241.876124 593.823316 
L 244.663337 534.073189 
L 247.450549 511.136343 
L 250.237762 496.468605 
L 253.024975 446.500575 
L 255.812188 556.097495 
L 258.599401 479.261601 
L 261.386613 414.867644 
L 264.173826 457.138868 
L 266.961039 447.068828 
L 269.748252 603.760724 
L 272.535465 600.425074 
L 275.322677 590.112276 
L 278.10989 603.189467 
L 280.897103 588.005316 
L 283.684316 584.057743 
L 286.471528 550.124529 
L 289.258741 558.679585 
L 292.045954 576.393391 
L 294.833167 607.662918 
L 297.62038 579.495732 
L 300.407592 506.366425 
L 303.194805 534.986752 
L 305.982018 591.792504 
L 308.769231 602.612318 
L 311.556444 486.691881 
L 314.343656 616.575077 
L 317.130869 588.98277 
L 319.918082 577.078513 
L 322.705295 556.297788 
L 325.492507 539.884167 
L 328.27972 482.44873 
L 331.066933 445.051466 
L 333.854146 422.477867 
L 336.641359 394.151755 
L 339.428571 505.313625 
L 342.215784 556.469215 
L 345.002997 598.573141 
L 347.79021 557.581081 
L 350.577423 547.509847 
L 353.364635 540.710491 
L 356.151848 571.502841 
L 358.939061 477.12059 
L 361.726274 428.39185 
L 364.513487 412.911665 
L 367.300699 474.909919 
L 370.087912 390.07981 
L 372.875125 335.038924 
L 375.662338 407.524407 
L 378.44955 457.178528 
L 381.236763 480.305874 
L 384.023976 521.00327 
L 386.811189 485.989349 
L 389.598402 485.092485 
L 392.385614 389.848669 
L 395.172827 380.789424 
L 397.96004 401.181737 
L 400.747253 354.78006 
L 403.534466 526.132978 
L 406.321678 548.852734 
L 409.108891 510.887506 
L 411.896104 550.843622 
L 414.683317 602.806513 
L 417.470529 556.986353 
L 420.257742 591.95477 
L 423.044955 586.018663 
L 425.832168 596.730865 
L 428.619381 566.198273 
L 431.406593 507.643048 
L 434.193806 573.455389 
L 439.768232 501.860585 
L 442.555445 490.793685 
L 445.342657 464.150805 
L 448.12987 494.923567 
L 450.917083 475.116677 
L 453.704296 539.686457 
L 456.491508 551.522403 
L 459.278721 511.263001 
L 462.065934 407.787101 
L 464.853147 446.910804 
L 467.64036 525.985152 
L 470.427572 570.860986 
L 473.214785 550.960442 
L 476.001998 577.902858 
L 478.789211 573.329642 
L 481.576424 527.018735 
L 484.363636 565.334731 
L 487.150849 579.967557 
L 489.938062 589.811689 
L 492.725275 567.810585 
L 495.512488 539.380626 
L 498.2997 528.273439 
L 501.086913 401.187311 
L 503.874126 390.408453 
L 506.661339 498.750638 
L 509.448551 512.68586 
L 512.235764 398.811714 
L 515.022977 490.649776 
L 517.81019 410.676061 
L 520.597403 542.819386 
L 523.384615 520.130926 
L 526.171828 459.714023 
L 528.959041 363.399825 
L 531.746254 407.654078 
L 534.533467 337.619878 
L 537.320679 312.989843 
L 540.107892 411.644749 
L 542.895105 533.311286 
L 545.682318 548.512616 
L 548.46953 555.740639 
L 551.256743 551.982026 
L 554.043956 529.436993 
L 556.831169 560.134586 
L 559.618382 515.114711 
L 562.405594 591.139401 
L 565.192807 560.59623 
L 567.98002 556.467789 
L 570.767233 529.900483 
L 573.554446 468.62262 
L 576.341658 468.563076 
L 579.128871 451.753963 
L 581.916084 436.866077 
L 584.703297 372.867409 
L 587.490509 392.788075 
L 590.277722 540.879809 
L 593.064935 532.913344 
L 595.852148 531.317866 
L 598.639361 533.477342 
L 601.426573 422.104866 
L 604.213786 391.979835 
L 607.000999 417.959435 
L 609.788212 487.650399 
L 612.575425 501.371684 
L 615.362637 500.299648 
L 618.14985 436.460684 
L 620.937063 500.050722 
L 623.724276 467.386403 
L 626.511489 426.584274 
L 629.298701 469.212346 
L 632.085914 417.826666 
L 634.873127 447.336436 
L 637.66034 510.057208 
L 640.447552 453.326228 
L 643.234765 431.215432 
L 646.021978 457.011014 
L 648.809191 503.156035 
L 651.596404 515.209045 
L 654.383616 551.569935 
L 657.170829 512.769675 
L 659.958042 443.56434 
L 662.745255 438.88611 
L 665.532468 424.575244 
L 668.31968 464.730596 
L 671.106893 461.670119 
L 673.894106 451.981991 
L 676.681319 456.161848 
L 679.468531 488.823047 
L 682.255744 495.220292 
L 685.042957 534.285202 
L 687.83017 550.90668 
L 690.617383 521.316622 
L 693.404595 563.962119 
L 696.191808 565.115802 
L 698.979021 561.591889 
L 701.766234 541.473701 
L 704.553447 552.535649 
L 707.340659 541.858997 
L 710.127872 540.107479 
L 712.915085 539.895118 
L 715.702298 535.447974 
L 718.48951 515.684143 
L 721.276723 472.052682 
L 724.063936 437.286585 
L 726.851149 482.649103 
L 729.638362 501.015813 
L 732.425574 485.488114 
L 735.212787 506.128766 
L 738 467.280594 
L 740.787213 455.214325 
L 743.574426 421.236496 
L 746.361638 503.134739 
L 749.148851 472.315241 
L 751.936064 487.49379 
L 754.723277 514.639017 
L 757.51049 529.169598 
L 760.297702 537.414241 
L 763.084915 501.537197 
L 765.872128 491.019154 
L 768.659341 514.334063 
L 771.446553 516.010315 
L 774.233766 512.810283 
L 777.020979 451.739804 
L 779.808192 512.2779 
L 782.595405 493.12239 
L 785.382617 498.546409 
L 788.16983 487.061686 
L 790.957043 505.288414 
L 793.744256 501.511797 
L 799.318681 472.362364 
L 802.105894 479.580183 
L 804.893107 446.971571 
L 807.68032 477.727866 
L 810.467532 555.694794 
L 813.254745 557.726188 
L 816.041958 531.248849 
L 818.829171 529.261944 
L 821.616384 491.505174 
L 824.403596 485.623572 
L 827.190809 457.303776 
L 829.978022 516.743453 
L 832.765235 520.652972 
L 835.552448 482.387557 
L 838.33966 395.295297 
L 841.126873 521.882553 
L 843.914086 565.740179 
L 846.701299 569.53942 
L 849.488511 561.656909 
L 852.275724 555.410957 
L 855.062937 581.367618 
L 857.85015 532.522004 
L 860.637363 540.017846 
L 863.424575 542.51875 
L 866.211788 551.757798 
L 868.999001 546.216352 
L 871.786214 544.744794 
L 874.573427 518.004965 
L 877.360639 484.608348 
L 880.147852 492.798546 
L 882.935065 539.157954 
L 885.722278 582.572514 
L 888.509491 585.99281 
L 891.296703 571.393025 
L 894.083916 563.531839 
L 896.871129 514.337768 
L 899.658342 495.12799 
L 902.445554 539.989565 
L 905.232767 534.511744 
L 908.01998 500.283729 
L 910.807193 490.615878 
L 913.594406 498.151768 
L 916.381618 452.788348 
L 919.168831 424.606977 
L 921.956044 530.961879 
L 924.743257 568.479121 
L 927.53047 569.513336 
L 930.317682 527.423257 
L 933.104895 549.334755 
L 935.892108 538.912646 
L 938.679321 525.266065 
L 941.466533 522.311536 
L 944.253746 543.310214 
L 947.040959 542.602446 
L 949.828172 540.131645 
L 952.615385 485.674065 
L 955.402597 496.496382 
L 958.18981 493.991187 
L 960.977023 522.271583 
L 963.764236 580.613754 
L 966.551449 585.859404 
L 969.338661 585.502234 
L 972.125874 547.815392 
L 974.913087 484.461822 
L 977.7003 469.831157 
L 980.487512 443.825433 
L 983.274725 497.923888 
L 986.061938 522.915025 
L 988.849151 503.131485 
L 991.636364 556.982455 
L 994.423576 561.155493 
L 997.210789 514.309308 
L 999.998002 507.645898 
L 1002.785215 459.281507 
L 1005.572428 469.909445 
L 1008.35964 532.825891 
L 1011.146853 484.971964 
L 1013.934066 424.657444 
L 1016.721279 411.021585 
L 1019.508492 537.588285 
L 1022.295704 560.257688 
L 1025.082917 527.203572 
L 1027.87013 540.397183 
L 1030.657343 445.239913 
L 1033.444555 362.473192 
L 1036.231768 430.452955 
L 1039.018981 507.278065 
L 1044.593407 444.465522 
L 1047.380619 400.380346 
L 1050.167832 470.706841 
L 1052.955045 517.173006 
L 1055.742258 515.553583 
L 1058.529471 493.646188 
L 1061.316683 554.738058 
L 1064.103896 545.836456 
L 1066.891109 522.977647 
L 1069.678322 524.680179 
L 1072.465534 593.50658 
L 1075.252747 524.161685 
L 1078.03996 566.201823 
L 1080.827173 511.624638 
L 1083.614386 465.816708 
L 1086.401598 423.436523 
L 1089.188811 403.475915 
L 1091.976024 497.673104 
L 1094.763237 585.533678 
L 1097.55045 492.340832 
L 1100.337662 522.626974 
L 1103.124875 592.886817 
L 1105.912088 589.855975 
L 1108.699301 563.245291 
L 1114.273726 489.296856 
L 1117.060939 464.008958 
L 1119.848152 487.406591 
L 1122.635365 455.301462 
L 1125.422577 455.828883 
L 1128.20979 512.661153 
L 1130.997003 472.655086 
L 1133.784216 397.963489 
L 1136.571429 382.704159 
L 1139.358641 415.41513 
L 1142.145854 453.785267 
L 1144.933067 469.382397 
L 1147.72028 465.119059 
L 1150.507493 407.787455 
L 1153.294705 571.351469 
L 1156.081918 587.427015 
L 1158.869131 545.121427 
L 1161.656344 580.048013 
L 1164.443556 606.368417 
L 1167.230769 597.714073 
L 1170.017982 479.757642 
L 1172.805195 534.942833 
L 1175.592408 581.155999 
L 1178.37962 615.367003 
L 1181.166833 599.899485 
L 1183.954046 586.858176 
L 1186.741259 549.556489 
L 1189.528472 427.54327 
L 1192.315684 390.949041 
L 1195.102897 487.145132 
L 1197.89011 467.161785 
L 1200.677323 474.836575 
L 1203.464535 525.734221 
L 1206.251748 544.842288 
L 1209.038961 538.586921 
L 1214.613387 583.15642 
L 1217.400599 604.977484 
L 1220.187812 564.859316 
L 1222.975025 567.587299 
L 1225.762238 508.794896 
L 1228.549451 417.859218 
L 1231.336663 409.4587 
L 1234.123876 391.450931 
L 1236.911089 379.463124 
L 1239.698302 506.959154 
L 1242.485514 471.360744 
L 1245.272727 450.091462 
L 1245.272727 450.091462 
" style="fill:none;stroke:#ff7f0e;stroke-linecap:square;stroke-width:1.5;"/>
   </g>
   <g id="patch_3">
    <path d="M 180 756 
L 180 103.68 
" style="fill:none;stroke:#000000;stroke-linecap:square;stroke-linejoin:miter;stroke-width:0.8;"/>
   </g>
   <g id="patch_4">
    <path d="M 1296 756 
L 1296 103.68 
" style="fill:none;stroke:#000000;stroke-linecap:square;stroke-linejoin:miter;stroke-width:0.8;"/>
   </g>
   <g id="patch_5">
    <path d="M 180 756 
L 1296 756 
" style="fill:none;stroke:#000000;stroke-linecap:square;stroke-linejoin:miter;stroke-width:0.8;"/>
   </g>
   <g id="patch_6">
    <path d="M 180 103.68 
L 1296 103.68 
" style="fill:none;stroke:#000000;stroke-linecap:square;stroke-linejoin:miter;stroke-width:0.8;"/>
   </g>
   <g id="text_16">
    <!-- PM10 Time-series (Station: BETN085) 2018: Island LSTM MIMO NARX-1 prediction (MSE: 335.9, RMSE: 18.33, MAE: 15.06, MAPE: 303.73%, SMAPE: 73.21%, R2: -0.22, IOA: 63.02%) -->
    <defs>
     <path d="M 19.671875 64.796875 
L 19.671875 37.40625 
L 32.078125 37.40625 
Q 38.96875 37.40625 42.71875 40.96875 
Q 46.484375 44.53125 46.484375 51.125 
Q 46.484375 57.671875 42.71875 61.234375 
Q 38.96875 64.796875 32.078125 64.796875 
z
M 9.8125 72.90625 
L 32.078125 72.90625 
Q 44.34375 72.90625 50.609375 67.359375 
Q 56.890625 61.8125 56.890625 51.125 
Q 56.890625 40.328125 50.609375 34.8125 
Q 44.34375 29.296875 32.078125 29.296875 
L 19.671875 29.296875 
L 19.671875 0 
L 9.8125 0 
z
" id="DejaVuSans-80"/>
     <path d="M 9.8125 72.90625 
L 24.515625 72.90625 
L 43.109375 23.296875 
L 61.8125 72.90625 
L 76.515625 72.90625 
L 76.515625 0 
L 66.890625 0 
L 66.890625 64.015625 
L 48.09375 14.015625 
L 38.1875 14.015625 
L 19.390625 64.015625 
L 19.390625 0 
L 9.8125 0 
z
" id="DejaVuSans-77"/>
     <path d="M -0.296875 72.90625 
L 61.375 72.90625 
L 61.375 64.59375 
L 35.5 64.59375 
L 35.5 0 
L 25.59375 0 
L 25.59375 64.59375 
L -0.296875 64.59375 
z
" id="DejaVuSans-84"/>
     <path d="M 9.421875 54.6875 
L 18.40625 54.6875 
L 18.40625 0 
L 9.421875 0 
z
M 9.421875 75.984375 
L 18.40625 75.984375 
L 18.40625 64.59375 
L 9.421875 64.59375 
z
" id="DejaVuSans-105"/>
     <path d="M 52 44.1875 
Q 55.375 50.25 60.0625 53.125 
Q 64.75 56 71.09375 56 
Q 79.640625 56 84.28125 50.015625 
Q 88.921875 44.046875 88.921875 33.015625 
L 88.921875 0 
L 79.890625 0 
L 79.890625 32.71875 
Q 79.890625 40.578125 77.09375 44.375 
Q 74.3125 48.1875 68.609375 48.1875 
Q 61.625 48.1875 57.5625 43.546875 
Q 53.515625 38.921875 53.515625 30.90625 
L 53.515625 0 
L 44.484375 0 
L 44.484375 32.71875 
Q 44.484375 40.625 41.703125 44.40625 
Q 38.921875 48.1875 33.109375 48.1875 
Q 26.21875 48.1875 22.15625 43.53125 
Q 18.109375 38.875 18.109375 30.90625 
L 18.109375 0 
L 9.078125 0 
L 9.078125 54.6875 
L 18.109375 54.6875 
L 18.109375 46.1875 
Q 21.1875 51.21875 25.484375 53.609375 
Q 29.78125 56 35.6875 56 
Q 41.65625 56 45.828125 52.96875 
Q 50 49.953125 52 44.1875 
z
" id="DejaVuSans-109"/>
     <path d="M 4.890625 31.390625 
L 31.203125 31.390625 
L 31.203125 23.390625 
L 4.890625 23.390625 
z
" id="DejaVuSans-45"/>
     <path d="M 31 75.875 
Q 24.46875 64.65625 21.28125 53.65625 
Q 18.109375 42.671875 18.109375 31.390625 
Q 18.109375 20.125 21.3125 9.0625 
Q 24.515625 -2 31 -13.1875 
L 23.1875 -13.1875 
Q 15.875 -1.703125 12.234375 9.375 
Q 8.59375 20.453125 8.59375 31.390625 
Q 8.59375 42.28125 12.203125 53.3125 
Q 15.828125 64.359375 23.1875 75.875 
z
" id="DejaVuSans-40"/>
     <path d="M 18.3125 70.21875 
L 18.3125 54.6875 
L 36.8125 54.6875 
L 36.8125 47.703125 
L 18.3125 47.703125 
L 18.3125 18.015625 
Q 18.3125 11.328125 20.140625 9.421875 
Q 21.96875 7.515625 27.59375 7.515625 
L 36.8125 7.515625 
L 36.8125 0 
L 27.59375 0 
Q 17.1875 0 13.234375 3.875 
Q 9.28125 7.765625 9.28125 18.015625 
L 9.28125 47.703125 
L 2.6875 47.703125 
L 2.6875 54.6875 
L 9.28125 54.6875 
L 9.28125 70.21875 
z
" id="DejaVuSans-116"/>
     <path d="M 11.71875 12.40625 
L 22.015625 12.40625 
L 22.015625 0 
L 11.71875 0 
z
M 11.71875 51.703125 
L 22.015625 51.703125 
L 22.015625 39.3125 
L 11.71875 39.3125 
z
" id="DejaVuSans-58"/>
     <path d="M 19.671875 34.8125 
L 19.671875 8.109375 
L 35.5 8.109375 
Q 43.453125 8.109375 47.28125 11.40625 
Q 51.125 14.703125 51.125 21.484375 
Q 51.125 28.328125 47.28125 31.5625 
Q 43.453125 34.8125 35.5 34.8125 
z
M 19.671875 64.796875 
L 19.671875 42.828125 
L 34.28125 42.828125 
Q 41.5 42.828125 45.03125 45.53125 
Q 48.578125 48.25 48.578125 53.8125 
Q 48.578125 59.328125 45.03125 62.0625 
Q 41.5 64.796875 34.28125 64.796875 
z
M 9.8125 72.90625 
L 35.015625 72.90625 
Q 46.296875 72.90625 52.390625 68.21875 
Q 58.5 63.53125 58.5 54.890625 
Q 58.5 48.1875 55.375 44.234375 
Q 52.25 40.28125 46.1875 39.3125 
Q 53.46875 37.75 57.5 32.78125 
Q 61.53125 27.828125 61.53125 20.40625 
Q 61.53125 10.640625 54.890625 5.3125 
Q 48.25 0 35.984375 0 
L 9.8125 0 
z
" id="DejaVuSans-66"/>
     <path d="M 9.8125 72.90625 
L 55.90625 72.90625 
L 55.90625 64.59375 
L 19.671875 64.59375 
L 19.671875 43.015625 
L 54.390625 43.015625 
L 54.390625 34.71875 
L 19.671875 34.71875 
L 19.671875 8.296875 
L 56.78125 8.296875 
L 56.78125 0 
L 9.8125 0 
z
" id="DejaVuSans-69"/>
     <path d="M 9.8125 72.90625 
L 23.09375 72.90625 
L 55.421875 11.921875 
L 55.421875 72.90625 
L 64.984375 72.90625 
L 64.984375 0 
L 51.703125 0 
L 19.390625 60.984375 
L 19.390625 0 
L 9.8125 0 
z
" id="DejaVuSans-78"/>
     <path d="M 8.015625 75.875 
L 15.828125 75.875 
Q 23.140625 64.359375 26.78125 53.3125 
Q 30.421875 42.28125 30.421875 31.390625 
Q 30.421875 20.453125 26.78125 9.375 
Q 23.140625 -1.703125 15.828125 -13.1875 
L 8.015625 -13.1875 
Q 14.5 -2 17.703125 9.0625 
Q 20.90625 20.125 20.90625 31.390625 
Q 20.90625 42.671875 17.703125 53.65625 
Q 14.5 64.65625 8.015625 75.875 
z
" id="DejaVuSans-41"/>
     <path d="M 9.8125 72.90625 
L 19.671875 72.90625 
L 19.671875 0 
L 9.8125 0 
z
" id="DejaVuSans-73"/>
     <path d="M 45.40625 46.390625 
L 45.40625 75.984375 
L 54.390625 75.984375 
L 54.390625 0 
L 45.40625 0 
L 45.40625 8.203125 
Q 42.578125 3.328125 38.25 0.953125 
Q 33.9375 -1.421875 27.875 -1.421875 
Q 17.96875 -1.421875 11.734375 6.484375 
Q 5.515625 14.40625 5.515625 27.296875 
Q 5.515625 40.1875 11.734375 48.09375 
Q 17.96875 56 27.875 56 
Q 33.9375 56 38.25 53.625 
Q 42.578125 51.265625 45.40625 46.390625 
z
M 14.796875 27.296875 
Q 14.796875 17.390625 18.875 11.75 
Q 22.953125 6.109375 30.078125 6.109375 
Q 37.203125 6.109375 41.296875 11.75 
Q 45.40625 17.390625 45.40625 27.296875 
Q 45.40625 37.203125 41.296875 42.84375 
Q 37.203125 48.484375 30.078125 48.484375 
Q 22.953125 48.484375 18.875 42.84375 
Q 14.796875 37.203125 14.796875 27.296875 
z
" id="DejaVuSans-100"/>
     <path d="M 9.8125 72.90625 
L 19.671875 72.90625 
L 19.671875 8.296875 
L 55.171875 8.296875 
L 55.171875 0 
L 9.8125 0 
z
" id="DejaVuSans-76"/>
     <path d="M 39.40625 66.21875 
Q 28.65625 66.21875 22.328125 58.203125 
Q 16.015625 50.203125 16.015625 36.375 
Q 16.015625 22.609375 22.328125 14.59375 
Q 28.65625 6.59375 39.40625 6.59375 
Q 50.140625 6.59375 56.421875 14.59375 
Q 62.703125 22.609375 62.703125 36.375 
Q 62.703125 50.203125 56.421875 58.203125 
Q 50.140625 66.21875 39.40625 66.21875 
z
M 39.40625 74.21875 
Q 54.734375 74.21875 63.90625 63.9375 
Q 73.09375 53.65625 73.09375 36.375 
Q 73.09375 19.140625 63.90625 8.859375 
Q 54.734375 -1.421875 39.40625 -1.421875 
Q 24.03125 -1.421875 14.8125 8.828125 
Q 5.609375 19.09375 5.609375 36.375 
Q 5.609375 53.65625 14.8125 63.9375 
Q 24.03125 74.21875 39.40625 74.21875 
z
" id="DejaVuSans-79"/>
     <path d="M 34.1875 63.1875 
L 20.796875 26.90625 
L 47.609375 26.90625 
z
M 28.609375 72.90625 
L 39.796875 72.90625 
L 67.578125 0 
L 57.328125 0 
L 50.6875 18.703125 
L 17.828125 18.703125 
L 11.1875 0 
L 0.78125 0 
z
" id="DejaVuSans-65"/>
     <path d="M 44.390625 34.1875 
Q 47.5625 33.109375 50.5625 29.59375 
Q 53.5625 26.078125 56.59375 19.921875 
L 66.609375 0 
L 56 0 
L 46.6875 18.703125 
Q 43.0625 26.03125 39.671875 28.421875 
Q 36.28125 30.8125 30.421875 30.8125 
L 19.671875 30.8125 
L 19.671875 0 
L 9.8125 0 
L 9.8125 72.90625 
L 32.078125 72.90625 
Q 44.578125 72.90625 50.734375 67.671875 
Q 56.890625 62.453125 56.890625 51.90625 
Q 56.890625 45.015625 53.6875 40.46875 
Q 50.484375 35.9375 44.390625 34.1875 
z
M 19.671875 64.796875 
L 19.671875 38.921875 
L 32.078125 38.921875 
Q 39.203125 38.921875 42.84375 42.21875 
Q 46.484375 45.515625 46.484375 51.90625 
Q 46.484375 58.296875 42.84375 61.546875 
Q 39.203125 64.796875 32.078125 64.796875 
z
" id="DejaVuSans-82"/>
     <path d="M 6.296875 72.90625 
L 16.890625 72.90625 
L 35.015625 45.796875 
L 53.21875 72.90625 
L 63.8125 72.90625 
L 40.375 37.890625 
L 65.375 0 
L 54.78125 0 
L 34.28125 31 
L 13.625 0 
L 2.984375 0 
L 29 38.921875 
z
" id="DejaVuSans-88"/>
     <path d="M 18.109375 8.203125 
L 18.109375 -20.796875 
L 9.078125 -20.796875 
L 9.078125 54.6875 
L 18.109375 54.6875 
L 18.109375 46.390625 
Q 20.953125 51.265625 25.265625 53.625 
Q 29.59375 56 35.59375 56 
Q 45.5625 56 51.78125 48.09375 
Q 58.015625 40.1875 58.015625 27.296875 
Q 58.015625 14.40625 51.78125 6.484375 
Q 45.5625 -1.421875 35.59375 -1.421875 
Q 29.59375 -1.421875 25.265625 0.953125 
Q 20.953125 3.328125 18.109375 8.203125 
z
M 48.6875 27.296875 
Q 48.6875 37.203125 44.609375 42.84375 
Q 40.53125 48.484375 33.40625 48.484375 
Q 26.265625 48.484375 22.1875 42.84375 
Q 18.109375 37.203125 18.109375 27.296875 
Q 18.109375 17.390625 22.1875 11.75 
Q 26.265625 6.109375 33.40625 6.109375 
Q 40.53125 6.109375 44.609375 11.75 
Q 48.6875 17.390625 48.6875 27.296875 
z
" id="DejaVuSans-112"/>
     <path d="M 48.78125 52.59375 
L 48.78125 44.1875 
Q 44.96875 46.296875 41.140625 47.34375 
Q 37.3125 48.390625 33.40625 48.390625 
Q 24.65625 48.390625 19.8125 42.84375 
Q 14.984375 37.3125 14.984375 27.296875 
Q 14.984375 17.28125 19.8125 11.734375 
Q 24.65625 6.203125 33.40625 6.203125 
Q 37.3125 6.203125 41.140625 7.25 
Q 44.96875 8.296875 48.78125 10.40625 
L 48.78125 2.09375 
Q 45.015625 0.34375 40.984375 -0.53125 
Q 36.96875 -1.421875 32.421875 -1.421875 
Q 20.0625 -1.421875 12.78125 6.34375 
Q 5.515625 14.109375 5.515625 27.296875 
Q 5.515625 40.671875 12.859375 48.328125 
Q 20.21875 56 33.015625 56 
Q 37.15625 56 41.109375 55.140625 
Q 45.0625 54.296875 48.78125 52.59375 
z
" id="DejaVuSans-99"/>
     <path d="M 10.6875 12.40625 
L 21 12.40625 
L 21 0 
L 10.6875 0 
z
" id="DejaVuSans-46"/>
     <path d="M 10.984375 1.515625 
L 10.984375 10.5 
Q 14.703125 8.734375 18.5 7.8125 
Q 22.3125 6.890625 25.984375 6.890625 
Q 35.75 6.890625 40.890625 13.453125 
Q 46.046875 20.015625 46.78125 33.40625 
Q 43.953125 29.203125 39.59375 26.953125 
Q 35.25 24.703125 29.984375 24.703125 
Q 19.046875 24.703125 12.671875 31.3125 
Q 6.296875 37.9375 6.296875 49.421875 
Q 6.296875 60.640625 12.9375 67.421875 
Q 19.578125 74.21875 30.609375 74.21875 
Q 43.265625 74.21875 49.921875 64.515625 
Q 56.59375 54.828125 56.59375 36.375 
Q 56.59375 19.140625 48.40625 8.859375 
Q 40.234375 -1.421875 26.421875 -1.421875 
Q 22.703125 -1.421875 18.890625 -0.6875 
Q 15.09375 0.046875 10.984375 1.515625 
z
M 30.609375 32.421875 
Q 37.25 32.421875 41.125 36.953125 
Q 45.015625 41.5 45.015625 49.421875 
Q 45.015625 57.28125 41.125 61.84375 
Q 37.25 66.40625 30.609375 66.40625 
Q 23.96875 66.40625 20.09375 61.84375 
Q 16.21875 57.28125 16.21875 49.421875 
Q 16.21875 41.5 20.09375 36.953125 
Q 23.96875 32.421875 30.609375 32.421875 
z
" id="DejaVuSans-57"/>
     <path d="M 11.71875 12.40625 
L 22.015625 12.40625 
L 22.015625 4 
L 14.015625 -11.625 
L 7.71875 -11.625 
L 11.71875 4 
z
" id="DejaVuSans-44"/>
     <path d="M 8.203125 72.90625 
L 55.078125 72.90625 
L 55.078125 68.703125 
L 28.609375 0 
L 18.3125 0 
L 43.21875 64.59375 
L 8.203125 64.59375 
z
" id="DejaVuSans-55"/>
     <path d="M 72.703125 32.078125 
Q 68.453125 32.078125 66.03125 28.46875 
Q 63.625 24.859375 63.625 18.40625 
Q 63.625 12.0625 66.03125 8.421875 
Q 68.453125 4.78125 72.703125 4.78125 
Q 76.859375 4.78125 79.265625 8.421875 
Q 81.6875 12.0625 81.6875 18.40625 
Q 81.6875 24.8125 79.265625 28.4375 
Q 76.859375 32.078125 72.703125 32.078125 
z
M 72.703125 38.28125 
Q 80.421875 38.28125 84.953125 32.90625 
Q 89.5 27.546875 89.5 18.40625 
Q 89.5 9.28125 84.9375 3.921875 
Q 80.375 -1.421875 72.703125 -1.421875 
Q 64.890625 -1.421875 60.34375 3.921875 
Q 55.8125 9.28125 55.8125 18.40625 
Q 55.8125 27.59375 60.375 32.9375 
Q 64.9375 38.28125 72.703125 38.28125 
z
M 22.3125 68.015625 
Q 18.109375 68.015625 15.6875 64.375 
Q 13.28125 60.75 13.28125 54.390625 
Q 13.28125 47.953125 15.671875 44.328125 
Q 18.0625 40.71875 22.3125 40.71875 
Q 26.5625 40.71875 28.96875 44.328125 
Q 31.390625 47.953125 31.390625 54.390625 
Q 31.390625 60.6875 28.953125 64.34375 
Q 26.515625 68.015625 22.3125 68.015625 
z
M 66.40625 74.21875 
L 74.21875 74.21875 
L 28.609375 -1.421875 
L 20.796875 -1.421875 
z
M 22.3125 74.21875 
Q 30.03125 74.21875 34.609375 68.875 
Q 39.203125 63.53125 39.203125 54.390625 
Q 39.203125 45.171875 34.640625 39.84375 
Q 30.078125 34.515625 22.3125 34.515625 
Q 14.546875 34.515625 10.03125 39.859375 
Q 5.515625 45.21875 5.515625 54.390625 
Q 5.515625 63.484375 10.046875 68.84375 
Q 14.59375 74.21875 22.3125 74.21875 
z
" id="DejaVuSans-37"/>
    </defs>
    <g transform="translate(197.955 97.68)scale(0.12 -0.12)">
     <use xlink:href="#DejaVuSans-80"/>
     <use x="60.302734" xlink:href="#DejaVuSans-77"/>
     <use x="146.582031" xlink:href="#DejaVuSans-49"/>
     <use x="210.205078" xlink:href="#DejaVuSans-48"/>
     <use x="273.828125" xlink:href="#DejaVuSans-32"/>
     <use x="305.615234" xlink:href="#DejaVuSans-84"/>
     <use x="366.652344" xlink:href="#DejaVuSans-105"/>
     <use x="394.435547" xlink:href="#DejaVuSans-109"/>
     <use x="491.847656" xlink:href="#DejaVuSans-101"/>
     <use x="553.371094" xlink:href="#DejaVuSans-45"/>
     <use x="589.455078" xlink:href="#DejaVuSans-115"/>
     <use x="641.554688" xlink:href="#DejaVuSans-101"/>
     <use x="703.078125" xlink:href="#DejaVuSans-114"/>
     <use x="744.191406" xlink:href="#DejaVuSans-105"/>
     <use x="771.974609" xlink:href="#DejaVuSans-101"/>
     <use x="833.498047" xlink:href="#DejaVuSans-115"/>
     <use x="885.597656" xlink:href="#DejaVuSans-32"/>
     <use x="917.384766" xlink:href="#DejaVuSans-40"/>
     <use x="956.398438" xlink:href="#DejaVuSans-83"/>
     <use x="1019.875" xlink:href="#DejaVuSans-116"/>
     <use x="1059.083984" xlink:href="#DejaVuSans-97"/>
     <use x="1120.363281" xlink:href="#DejaVuSans-116"/>
     <use x="1159.572266" xlink:href="#DejaVuSans-105"/>
     <use x="1187.355469" xlink:href="#DejaVuSans-111"/>
     <use x="1248.537109" xlink:href="#DejaVuSans-110"/>
     <use x="1311.916016" xlink:href="#DejaVuSans-58"/>
     <use x="1345.607422" xlink:href="#DejaVuSans-32"/>
     <use x="1377.394531" xlink:href="#DejaVuSans-66"/>
     <use x="1445.998047" xlink:href="#DejaVuSans-69"/>
     <use x="1509.181641" xlink:href="#DejaVuSans-84"/>
     <use x="1570.265625" xlink:href="#DejaVuSans-78"/>
     <use x="1645.070312" xlink:href="#DejaVuSans-48"/>
     <use x="1708.693359" xlink:href="#DejaVuSans-56"/>
     <use x="1772.316406" xlink:href="#DejaVuSans-53"/>
     <use x="1835.939453" xlink:href="#DejaVuSans-41"/>
     <use x="1874.953125" xlink:href="#DejaVuSans-32"/>
     <use x="1906.740234" xlink:href="#DejaVuSans-50"/>
     <use x="1970.363281" xlink:href="#DejaVuSans-48"/>
     <use x="2033.986328" xlink:href="#DejaVuSans-49"/>
     <use x="2097.609375" xlink:href="#DejaVuSans-56"/>
     <use x="2161.232422" xlink:href="#DejaVuSans-58"/>
     <use x="2194.923828" xlink:href="#DejaVuSans-32"/>
     <use x="2226.710938" xlink:href="#DejaVuSans-73"/>
     <use x="2256.203125" xlink:href="#DejaVuSans-115"/>
     <use x="2308.302734" xlink:href="#DejaVuSans-108"/>
     <use x="2336.085938" xlink:href="#DejaVuSans-97"/>
     <use x="2397.365234" xlink:href="#DejaVuSans-110"/>
     <use x="2460.744141" xlink:href="#DejaVuSans-100"/>
     <use x="2524.220703" xlink:href="#DejaVuSans-32"/>
     <use x="2556.007812" xlink:href="#DejaVuSans-76"/>
     <use x="2611.720703" xlink:href="#DejaVuSans-83"/>
     <use x="2675.197266" xlink:href="#DejaVuSans-84"/>
     <use x="2736.28125" xlink:href="#DejaVuSans-77"/>
     <use x="2822.560547" xlink:href="#DejaVuSans-32"/>
     <use x="2854.347656" xlink:href="#DejaVuSans-77"/>
     <use x="2940.626953" xlink:href="#DejaVuSans-73"/>
     <use x="2970.119141" xlink:href="#DejaVuSans-77"/>
     <use x="3056.398438" xlink:href="#DejaVuSans-79"/>
     <use x="3135.109375" xlink:href="#DejaVuSans-32"/>
     <use x="3166.896484" xlink:href="#DejaVuSans-78"/>
     <use x="3241.701172" xlink:href="#DejaVuSans-65"/>
     <use x="3310.109375" xlink:href="#DejaVuSans-82"/>
     <use x="3379.591797" xlink:href="#DejaVuSans-88"/>
     <use x="3448.019531" xlink:href="#DejaVuSans-45"/>
     <use x="3484.103516" xlink:href="#DejaVuSans-49"/>
     <use x="3547.726562" xlink:href="#DejaVuSans-32"/>
     <use x="3579.513672" xlink:href="#DejaVuSans-112"/>
     <use x="3642.990234" xlink:href="#DejaVuSans-114"/>
     <use x="3684.072266" xlink:href="#DejaVuSans-101"/>
     <use x="3745.595703" xlink:href="#DejaVuSans-100"/>
     <use x="3809.072266" xlink:href="#DejaVuSans-105"/>
     <use x="3836.855469" xlink:href="#DejaVuSans-99"/>
     <use x="3891.835938" xlink:href="#DejaVuSans-116"/>
     <use x="3931.044922" xlink:href="#DejaVuSans-105"/>
     <use x="3958.828125" xlink:href="#DejaVuSans-111"/>
     <use x="4020.009766" xlink:href="#DejaVuSans-110"/>
     <use x="4083.388672" xlink:href="#DejaVuSans-32"/>
     <use x="4115.175781" xlink:href="#DejaVuSans-40"/>
     <use x="4154.189453" xlink:href="#DejaVuSans-77"/>
     <use x="4240.46875" xlink:href="#DejaVuSans-83"/>
     <use x="4303.945312" xlink:href="#DejaVuSans-69"/>
     <use x="4367.128906" xlink:href="#DejaVuSans-58"/>
     <use x="4400.820312" xlink:href="#DejaVuSans-32"/>
     <use x="4432.607422" xlink:href="#DejaVuSans-51"/>
     <use x="4496.230469" xlink:href="#DejaVuSans-51"/>
     <use x="4559.853516" xlink:href="#DejaVuSans-53"/>
     <use x="4623.476562" xlink:href="#DejaVuSans-46"/>
     <use x="4655.263672" xlink:href="#DejaVuSans-57"/>
     <use x="4718.886719" xlink:href="#DejaVuSans-44"/>
     <use x="4750.673828" xlink:href="#DejaVuSans-32"/>
     <use x="4782.460938" xlink:href="#DejaVuSans-82"/>
     <use x="4851.943359" xlink:href="#DejaVuSans-77"/>
     <use x="4938.222656" xlink:href="#DejaVuSans-83"/>
     <use x="5001.699219" xlink:href="#DejaVuSans-69"/>
     <use x="5064.882812" xlink:href="#DejaVuSans-58"/>
     <use x="5098.574219" xlink:href="#DejaVuSans-32"/>
     <use x="5130.361328" xlink:href="#DejaVuSans-49"/>
     <use x="5193.984375" xlink:href="#DejaVuSans-56"/>
     <use x="5257.607422" xlink:href="#DejaVuSans-46"/>
     <use x="5289.394531" xlink:href="#DejaVuSans-51"/>
     <use x="5353.017578" xlink:href="#DejaVuSans-51"/>
     <use x="5416.640625" xlink:href="#DejaVuSans-44"/>
     <use x="5448.427734" xlink:href="#DejaVuSans-32"/>
     <use x="5480.214844" xlink:href="#DejaVuSans-77"/>
     <use x="5566.494141" xlink:href="#DejaVuSans-65"/>
     <use x="5634.902344" xlink:href="#DejaVuSans-69"/>
     <use x="5698.085938" xlink:href="#DejaVuSans-58"/>
     <use x="5731.777344" xlink:href="#DejaVuSans-32"/>
     <use x="5763.564453" xlink:href="#DejaVuSans-49"/>
     <use x="5827.1875" xlink:href="#DejaVuSans-53"/>
     <use x="5890.810547" xlink:href="#DejaVuSans-46"/>
     <use x="5922.597656" xlink:href="#DejaVuSans-48"/>
     <use x="5986.220703" xlink:href="#DejaVuSans-54"/>
     <use x="6049.84375" xlink:href="#DejaVuSans-44"/>
     <use x="6081.630859" xlink:href="#DejaVuSans-32"/>
     <use x="6113.417969" xlink:href="#DejaVuSans-77"/>
     <use x="6199.697266" xlink:href="#DejaVuSans-65"/>
     <use x="6268.105469" xlink:href="#DejaVuSans-80"/>
     <use x="6328.408203" xlink:href="#DejaVuSans-69"/>
     <use x="6391.591797" xlink:href="#DejaVuSans-58"/>
     <use x="6425.283203" xlink:href="#DejaVuSans-32"/>
     <use x="6457.070312" xlink:href="#DejaVuSans-51"/>
     <use x="6520.693359" xlink:href="#DejaVuSans-48"/>
     <use x="6584.316406" xlink:href="#DejaVuSans-51"/>
     <use x="6647.939453" xlink:href="#DejaVuSans-46"/>
     <use x="6679.726562" xlink:href="#DejaVuSans-55"/>
     <use x="6743.349609" xlink:href="#DejaVuSans-51"/>
     <use x="6806.972656" xlink:href="#DejaVuSans-37"/>
     <use x="6901.992188" xlink:href="#DejaVuSans-44"/>
     <use x="6933.779297" xlink:href="#DejaVuSans-32"/>
     <use x="6965.566406" xlink:href="#DejaVuSans-83"/>
     <use x="7029.042969" xlink:href="#DejaVuSans-77"/>
     <use x="7115.322266" xlink:href="#DejaVuSans-65"/>
     <use x="7183.730469" xlink:href="#DejaVuSans-80"/>
     <use x="7244.033203" xlink:href="#DejaVuSans-69"/>
     <use x="7307.216797" xlink:href="#DejaVuSans-58"/>
     <use x="7340.908203" xlink:href="#DejaVuSans-32"/>
     <use x="7372.695312" xlink:href="#DejaVuSans-55"/>
     <use x="7436.318359" xlink:href="#DejaVuSans-51"/>
     <use x="7499.941406" xlink:href="#DejaVuSans-46"/>
     <use x="7531.728516" xlink:href="#DejaVuSans-50"/>
     <use x="7595.351562" xlink:href="#DejaVuSans-49"/>
     <use x="7658.974609" xlink:href="#DejaVuSans-37"/>
     <use x="7753.994141" xlink:href="#DejaVuSans-44"/>
     <use x="7785.78125" xlink:href="#DejaVuSans-32"/>
     <use x="7817.568359" xlink:href="#DejaVuSans-82"/>
     <use x="7887.050781" xlink:href="#DejaVuSans-50"/>
     <use x="7950.673828" xlink:href="#DejaVuSans-58"/>
     <use x="7984.365234" xlink:href="#DejaVuSans-32"/>
     <use x="8016.152344" xlink:href="#DejaVuSans-45"/>
     <use x="8052.236328" xlink:href="#DejaVuSans-48"/>
     <use x="8115.859375" xlink:href="#DejaVuSans-46"/>
     <use x="8147.646484" xlink:href="#DejaVuSans-50"/>
     <use x="8211.269531" xlink:href="#DejaVuSans-50"/>
     <use x="8274.892578" xlink:href="#DejaVuSans-44"/>
     <use x="8306.679688" xlink:href="#DejaVuSans-32"/>
     <use x="8338.466797" xlink:href="#DejaVuSans-73"/>
     <use x="8367.958984" xlink:href="#DejaVuSans-79"/>
     <use x="8446.654297" xlink:href="#DejaVuSans-65"/>
     <use x="8515.046875" xlink:href="#DejaVuSans-58"/>
     <use x="8548.738281" xlink:href="#DejaVuSans-32"/>
     <use x="8580.525391" xlink:href="#DejaVuSans-54"/>
     <use x="8644.148438" xlink:href="#DejaVuSans-51"/>
     <use x="8707.771484" xlink:href="#DejaVuSans-46"/>
     <use x="8739.558594" xlink:href="#DejaVuSans-48"/>
     <use x="8803.181641" xlink:href="#DejaVuSans-50"/>
     <use x="8866.804688" xlink:href="#DejaVuSans-37"/>
     <use x="8961.824219" xlink:href="#DejaVuSans-41"/>
    </g>
   </g>
   <g id="legend_1">
    <g id="patch_7">
     <path d="M 1209.34375 141.03625 
L 1289 141.03625 
Q 1291 141.03625 1291 139.03625 
L 1291 110.68 
Q 1291 108.68 1289 108.68 
L 1209.34375 108.68 
Q 1207.34375 108.68 1207.34375 110.68 
L 1207.34375 139.03625 
Q 1207.34375 141.03625 1209.34375 141.03625 
z
" style="fill:#ffffff;opacity:0.8;stroke:#cccccc;stroke-linejoin:miter;"/>
    </g>
    <g id="line2d_17">
     <path d="M 1211.34375 116.778437 
L 1231.34375 116.778437 
" style="fill:none;stroke:#1f77b4;stroke-linecap:square;stroke-width:1.5;"/>
    </g>
    <g id="line2d_18"/>
    <g id="text_17">
     <!-- expected -->
     <defs>
      <path d="M 54.890625 54.6875 
L 35.109375 28.078125 
L 55.90625 0 
L 45.3125 0 
L 29.390625 21.484375 
L 13.484375 0 
L 2.875 0 
L 24.125 28.609375 
L 4.6875 54.6875 
L 15.28125 54.6875 
L 29.78125 35.203125 
L 44.28125 54.6875 
z
" id="DejaVuSans-120"/>
     </defs>
     <g transform="translate(1239.34375 120.278437)scale(0.1 -0.1)">
      <use xlink:href="#DejaVuSans-101"/>
      <use x="61.507812" xlink:href="#DejaVuSans-120"/>
      <use x="120.6875" xlink:href="#DejaVuSans-112"/>
      <use x="184.164062" xlink:href="#DejaVuSans-101"/>
      <use x="245.6875" xlink:href="#DejaVuSans-99"/>
      <use x="300.667969" xlink:href="#DejaVuSans-116"/>
      <use x="339.876953" xlink:href="#DejaVuSans-101"/>
      <use x="401.400391" xlink:href="#DejaVuSans-100"/>
     </g>
    </g>
    <g id="line2d_19">
     <path d="M 1211.34375 131.456563 
L 1231.34375 131.456563 
" style="fill:none;stroke:#ff7f0e;stroke-linecap:square;stroke-width:1.5;"/>
    </g>
    <g id="line2d_20"/>
    <g id="text_18">
     <!-- predicted -->
     <g transform="translate(1239.34375 134.956563)scale(0.1 -0.1)">
      <use xlink:href="#DejaVuSans-112"/>
      <use x="63.476562" xlink:href="#DejaVuSans-114"/>
      <use x="104.558594" xlink:href="#DejaVuSans-101"/>
      <use x="166.082031" xlink:href="#DejaVuSans-100"/>
      <use x="229.558594" xlink:href="#DejaVuSans-105"/>
      <use x="257.341797" xlink:href="#DejaVuSans-99"/>
      <use x="312.322266" xlink:href="#DejaVuSans-116"/>
      <use x="351.53125" xlink:href="#DejaVuSans-101"/>
      <use x="413.054688" xlink:href="#DejaVuSans-100"/>
     </g>
    </g>
   </g>
  </g>
 </g>
 <defs>
  <clipPath id="p06f9e71611">
   <rect height="652.32" width="1116" x="180" y="103.68"/>
  </clipPath>
 </defs>
</svg>
