<?xml version="1.0" encoding="utf-8" standalone="no"?>
<!DOCTYPE svg PUBLIC "-//W3C//DTD SVG 1.1//EN"
  "http://www.w3.org/Graphics/SVG/1.1/DTD/svg11.dtd">
<!-- Created with matplotlib (https://matplotlib.org/) -->
<svg height="432pt" version="1.1" viewBox="0 0 576 432" width="576pt" xmlns="http://www.w3.org/2000/svg" xmlns:xlink="http://www.w3.org/1999/xlink">
 <metadata>
  <rdf:RDF xmlns:cc="http://creativecommons.org/ns#" xmlns:dc="http://purl.org/dc/elements/1.1/" xmlns:rdf="http://www.w3.org/1999/02/22-rdf-syntax-ns#">
   <cc:Work>
    <dc:type rdf:resource="http://purl.org/dc/dcmitype/StillImage"/>
    <dc:date>2020-12-06T18:30:37.350268</dc:date>
    <dc:format>image/svg+xml</dc:format>
    <dc:creator>
     <cc:Agent>
      <dc:title>Matplotlib v3.3.2, https://matplotlib.org/</dc:title>
     </cc:Agent>
    </dc:creator>
   </cc:Work>
  </rdf:RDF>
 </metadata>
 <defs>
  <style type="text/css">*{stroke-linecap:butt;stroke-linejoin:round;}</style>
 </defs>
 <g id="figure_1">
  <g id="patch_1">
   <path d="M 0 432 
L 576 432 
L 576 0 
L 0 0 
z
" style="fill:#ffffff;"/>
  </g>
  <g id="axes_1">
   <g id="patch_2">
    <path d="M 72 384.48 
L 518.4 384.48 
L 518.4 51.84 
L 72 51.84 
z
" style="fill:#ffffff;"/>
   </g>
   <g id="matplotlib.axis_1">
    <g id="xtick_1">
     <g id="line2d_1">
      <path clip-path="url(#p16ddc019e6)" d="M 92.290909 384.48 
L 92.290909 51.84 
" style="fill:none;stroke:#b0b0b0;stroke-linecap:square;stroke-width:0.8;"/>
     </g>
     <g id="line2d_2">
      <defs>
       <path d="M 0 0 
L 0 3.5 
" id="mf4b687b546" style="stroke:#000000;stroke-width:0.8;"/>
      </defs>
      <g>
       <use style="stroke:#000000;stroke-width:0.8;" x="92.290909" xlink:href="#mf4b687b546" y="384.48"/>
      </g>
     </g>
     <g id="text_1">
      <!-- 0 -->
      <g transform="translate(89.109659 399.078438)scale(0.1 -0.1)">
       <defs>
        <path d="M 31.78125 66.40625 
Q 24.171875 66.40625 20.328125 58.90625 
Q 16.5 51.421875 16.5 36.375 
Q 16.5 21.390625 20.328125 13.890625 
Q 24.171875 6.390625 31.78125 6.390625 
Q 39.453125 6.390625 43.28125 13.890625 
Q 47.125 21.390625 47.125 36.375 
Q 47.125 51.421875 43.28125 58.90625 
Q 39.453125 66.40625 31.78125 66.40625 
z
M 31.78125 74.21875 
Q 44.046875 74.21875 50.515625 64.515625 
Q 56.984375 54.828125 56.984375 36.375 
Q 56.984375 17.96875 50.515625 8.265625 
Q 44.046875 -1.421875 31.78125 -1.421875 
Q 19.53125 -1.421875 13.0625 8.265625 
Q 6.59375 17.96875 6.59375 36.375 
Q 6.59375 54.828125 13.0625 64.515625 
Q 19.53125 74.21875 31.78125 74.21875 
z
" id="DejaVuSans-48"/>
       </defs>
       <use xlink:href="#DejaVuSans-48"/>
      </g>
     </g>
    </g>
    <g id="xtick_2">
     <g id="line2d_3">
      <path clip-path="url(#p16ddc019e6)" d="M 148.035165 384.48 
L 148.035165 51.84 
" style="fill:none;stroke:#b0b0b0;stroke-linecap:square;stroke-width:0.8;"/>
     </g>
     <g id="line2d_4">
      <g>
       <use style="stroke:#000000;stroke-width:0.8;" x="148.035165" xlink:href="#mf4b687b546" y="384.48"/>
      </g>
     </g>
     <g id="text_2">
      <!-- 50 -->
      <g transform="translate(141.672665 399.078438)scale(0.1 -0.1)">
       <defs>
        <path d="M 10.796875 72.90625 
L 49.515625 72.90625 
L 49.515625 64.59375 
L 19.828125 64.59375 
L 19.828125 46.734375 
Q 21.96875 47.46875 24.109375 47.828125 
Q 26.265625 48.1875 28.421875 48.1875 
Q 40.625 48.1875 47.75 41.5 
Q 54.890625 34.8125 54.890625 23.390625 
Q 54.890625 11.625 47.5625 5.09375 
Q 40.234375 -1.421875 26.90625 -1.421875 
Q 22.3125 -1.421875 17.546875 -0.640625 
Q 12.796875 0.140625 7.71875 1.703125 
L 7.71875 11.625 
Q 12.109375 9.234375 16.796875 8.0625 
Q 21.484375 6.890625 26.703125 6.890625 
Q 35.15625 6.890625 40.078125 11.328125 
Q 45.015625 15.765625 45.015625 23.390625 
Q 45.015625 31 40.078125 35.4375 
Q 35.15625 39.890625 26.703125 39.890625 
Q 22.75 39.890625 18.8125 39.015625 
Q 14.890625 38.140625 10.796875 36.28125 
z
" id="DejaVuSans-53"/>
       </defs>
       <use xlink:href="#DejaVuSans-53"/>
       <use x="63.623047" xlink:href="#DejaVuSans-48"/>
      </g>
     </g>
    </g>
    <g id="xtick_3">
     <g id="line2d_5">
      <path clip-path="url(#p16ddc019e6)" d="M 203.779421 384.48 
L 203.779421 51.84 
" style="fill:none;stroke:#b0b0b0;stroke-linecap:square;stroke-width:0.8;"/>
     </g>
     <g id="line2d_6">
      <g>
       <use style="stroke:#000000;stroke-width:0.8;" x="203.779421" xlink:href="#mf4b687b546" y="384.48"/>
      </g>
     </g>
     <g id="text_3">
      <!-- 100 -->
      <g transform="translate(194.235671 399.078438)scale(0.1 -0.1)">
       <defs>
        <path d="M 12.40625 8.296875 
L 28.515625 8.296875 
L 28.515625 63.921875 
L 10.984375 60.40625 
L 10.984375 69.390625 
L 28.421875 72.90625 
L 38.28125 72.90625 
L 38.28125 8.296875 
L 54.390625 8.296875 
L 54.390625 0 
L 12.40625 0 
z
" id="DejaVuSans-49"/>
       </defs>
       <use xlink:href="#DejaVuSans-49"/>
       <use x="63.623047" xlink:href="#DejaVuSans-48"/>
       <use x="127.246094" xlink:href="#DejaVuSans-48"/>
      </g>
     </g>
    </g>
    <g id="xtick_4">
     <g id="line2d_7">
      <path clip-path="url(#p16ddc019e6)" d="M 259.523676 384.48 
L 259.523676 51.84 
" style="fill:none;stroke:#b0b0b0;stroke-linecap:square;stroke-width:0.8;"/>
     </g>
     <g id="line2d_8">
      <g>
       <use style="stroke:#000000;stroke-width:0.8;" x="259.523676" xlink:href="#mf4b687b546" y="384.48"/>
      </g>
     </g>
     <g id="text_4">
      <!-- 150 -->
      <g transform="translate(249.979926 399.078438)scale(0.1 -0.1)">
       <use xlink:href="#DejaVuSans-49"/>
       <use x="63.623047" xlink:href="#DejaVuSans-53"/>
       <use x="127.246094" xlink:href="#DejaVuSans-48"/>
      </g>
     </g>
    </g>
    <g id="xtick_5">
     <g id="line2d_9">
      <path clip-path="url(#p16ddc019e6)" d="M 315.267932 384.48 
L 315.267932 51.84 
" style="fill:none;stroke:#b0b0b0;stroke-linecap:square;stroke-width:0.8;"/>
     </g>
     <g id="line2d_10">
      <g>
       <use style="stroke:#000000;stroke-width:0.8;" x="315.267932" xlink:href="#mf4b687b546" y="384.48"/>
      </g>
     </g>
     <g id="text_5">
      <!-- 200 -->
      <g transform="translate(305.724182 399.078438)scale(0.1 -0.1)">
       <defs>
        <path d="M 19.1875 8.296875 
L 53.609375 8.296875 
L 53.609375 0 
L 7.328125 0 
L 7.328125 8.296875 
Q 12.9375 14.109375 22.625 23.890625 
Q 32.328125 33.6875 34.8125 36.53125 
Q 39.546875 41.84375 41.421875 45.53125 
Q 43.3125 49.21875 43.3125 52.78125 
Q 43.3125 58.59375 39.234375 62.25 
Q 35.15625 65.921875 28.609375 65.921875 
Q 23.96875 65.921875 18.8125 64.3125 
Q 13.671875 62.703125 7.8125 59.421875 
L 7.8125 69.390625 
Q 13.765625 71.78125 18.9375 73 
Q 24.125 74.21875 28.421875 74.21875 
Q 39.75 74.21875 46.484375 68.546875 
Q 53.21875 62.890625 53.21875 53.421875 
Q 53.21875 48.921875 51.53125 44.890625 
Q 49.859375 40.875 45.40625 35.40625 
Q 44.1875 33.984375 37.640625 27.21875 
Q 31.109375 20.453125 19.1875 8.296875 
z
" id="DejaVuSans-50"/>
       </defs>
       <use xlink:href="#DejaVuSans-50"/>
       <use x="63.623047" xlink:href="#DejaVuSans-48"/>
       <use x="127.246094" xlink:href="#DejaVuSans-48"/>
      </g>
     </g>
    </g>
    <g id="xtick_6">
     <g id="line2d_11">
      <path clip-path="url(#p16ddc019e6)" d="M 371.012188 384.48 
L 371.012188 51.84 
" style="fill:none;stroke:#b0b0b0;stroke-linecap:square;stroke-width:0.8;"/>
     </g>
     <g id="line2d_12">
      <g>
       <use style="stroke:#000000;stroke-width:0.8;" x="371.012188" xlink:href="#mf4b687b546" y="384.48"/>
      </g>
     </g>
     <g id="text_6">
      <!-- 250 -->
      <g transform="translate(361.468438 399.078438)scale(0.1 -0.1)">
       <use xlink:href="#DejaVuSans-50"/>
       <use x="63.623047" xlink:href="#DejaVuSans-53"/>
       <use x="127.246094" xlink:href="#DejaVuSans-48"/>
      </g>
     </g>
    </g>
    <g id="xtick_7">
     <g id="line2d_13">
      <path clip-path="url(#p16ddc019e6)" d="M 426.756444 384.48 
L 426.756444 51.84 
" style="fill:none;stroke:#b0b0b0;stroke-linecap:square;stroke-width:0.8;"/>
     </g>
     <g id="line2d_14">
      <g>
       <use style="stroke:#000000;stroke-width:0.8;" x="426.756444" xlink:href="#mf4b687b546" y="384.48"/>
      </g>
     </g>
     <g id="text_7">
      <!-- 300 -->
      <g transform="translate(417.212694 399.078438)scale(0.1 -0.1)">
       <defs>
        <path d="M 40.578125 39.3125 
Q 47.65625 37.796875 51.625 33 
Q 55.609375 28.21875 55.609375 21.1875 
Q 55.609375 10.40625 48.1875 4.484375 
Q 40.765625 -1.421875 27.09375 -1.421875 
Q 22.515625 -1.421875 17.65625 -0.515625 
Q 12.796875 0.390625 7.625 2.203125 
L 7.625 11.71875 
Q 11.71875 9.328125 16.59375 8.109375 
Q 21.484375 6.890625 26.8125 6.890625 
Q 36.078125 6.890625 40.9375 10.546875 
Q 45.796875 14.203125 45.796875 21.1875 
Q 45.796875 27.640625 41.28125 31.265625 
Q 36.765625 34.90625 28.71875 34.90625 
L 20.21875 34.90625 
L 20.21875 43.015625 
L 29.109375 43.015625 
Q 36.375 43.015625 40.234375 45.921875 
Q 44.09375 48.828125 44.09375 54.296875 
Q 44.09375 59.90625 40.109375 62.90625 
Q 36.140625 65.921875 28.71875 65.921875 
Q 24.65625 65.921875 20.015625 65.03125 
Q 15.375 64.15625 9.8125 62.3125 
L 9.8125 71.09375 
Q 15.4375 72.65625 20.34375 73.4375 
Q 25.25 74.21875 29.59375 74.21875 
Q 40.828125 74.21875 47.359375 69.109375 
Q 53.90625 64.015625 53.90625 55.328125 
Q 53.90625 49.265625 50.4375 45.09375 
Q 46.96875 40.921875 40.578125 39.3125 
z
" id="DejaVuSans-51"/>
       </defs>
       <use xlink:href="#DejaVuSans-51"/>
       <use x="63.623047" xlink:href="#DejaVuSans-48"/>
       <use x="127.246094" xlink:href="#DejaVuSans-48"/>
      </g>
     </g>
    </g>
    <g id="xtick_8">
     <g id="line2d_15">
      <path clip-path="url(#p16ddc019e6)" d="M 482.500699 384.48 
L 482.500699 51.84 
" style="fill:none;stroke:#b0b0b0;stroke-linecap:square;stroke-width:0.8;"/>
     </g>
     <g id="line2d_16">
      <g>
       <use style="stroke:#000000;stroke-width:0.8;" x="482.500699" xlink:href="#mf4b687b546" y="384.48"/>
      </g>
     </g>
     <g id="text_8">
      <!-- 350 -->
      <g transform="translate(472.956949 399.078438)scale(0.1 -0.1)">
       <use xlink:href="#DejaVuSans-51"/>
       <use x="63.623047" xlink:href="#DejaVuSans-53"/>
       <use x="127.246094" xlink:href="#DejaVuSans-48"/>
      </g>
     </g>
    </g>
    <g id="text_9">
     <!-- Day -->
     <g transform="translate(285.326562 412.756563)scale(0.1 -0.1)">
      <defs>
       <path d="M 19.671875 64.796875 
L 19.671875 8.109375 
L 31.59375 8.109375 
Q 46.6875 8.109375 53.6875 14.9375 
Q 60.6875 21.78125 60.6875 36.53125 
Q 60.6875 51.171875 53.6875 57.984375 
Q 46.6875 64.796875 31.59375 64.796875 
z
M 9.8125 72.90625 
L 30.078125 72.90625 
Q 51.265625 72.90625 61.171875 64.09375 
Q 71.09375 55.28125 71.09375 36.53125 
Q 71.09375 17.671875 61.125 8.828125 
Q 51.171875 0 30.078125 0 
L 9.8125 0 
z
" id="DejaVuSans-68"/>
       <path d="M 34.28125 27.484375 
Q 23.390625 27.484375 19.1875 25 
Q 14.984375 22.515625 14.984375 16.5 
Q 14.984375 11.71875 18.140625 8.90625 
Q 21.296875 6.109375 26.703125 6.109375 
Q 34.1875 6.109375 38.703125 11.40625 
Q 43.21875 16.703125 43.21875 25.484375 
L 43.21875 27.484375 
z
M 52.203125 31.203125 
L 52.203125 0 
L 43.21875 0 
L 43.21875 8.296875 
Q 40.140625 3.328125 35.546875 0.953125 
Q 30.953125 -1.421875 24.3125 -1.421875 
Q 15.921875 -1.421875 10.953125 3.296875 
Q 6 8.015625 6 15.921875 
Q 6 25.140625 12.171875 29.828125 
Q 18.359375 34.515625 30.609375 34.515625 
L 43.21875 34.515625 
L 43.21875 35.40625 
Q 43.21875 41.609375 39.140625 45 
Q 35.0625 48.390625 27.6875 48.390625 
Q 23 48.390625 18.546875 47.265625 
Q 14.109375 46.140625 10.015625 43.890625 
L 10.015625 52.203125 
Q 14.9375 54.109375 19.578125 55.046875 
Q 24.21875 56 28.609375 56 
Q 40.484375 56 46.34375 49.84375 
Q 52.203125 43.703125 52.203125 31.203125 
z
" id="DejaVuSans-97"/>
       <path d="M 32.171875 -5.078125 
Q 28.375 -14.84375 24.75 -17.8125 
Q 21.140625 -20.796875 15.09375 -20.796875 
L 7.90625 -20.796875 
L 7.90625 -13.28125 
L 13.1875 -13.28125 
Q 16.890625 -13.28125 18.9375 -11.515625 
Q 21 -9.765625 23.484375 -3.21875 
L 25.09375 0.875 
L 2.984375 54.6875 
L 12.5 54.6875 
L 29.59375 11.921875 
L 46.6875 54.6875 
L 56.203125 54.6875 
z
" id="DejaVuSans-121"/>
      </defs>
      <use xlink:href="#DejaVuSans-68"/>
      <use x="77.001953" xlink:href="#DejaVuSans-97"/>
      <use x="138.28125" xlink:href="#DejaVuSans-121"/>
     </g>
    </g>
   </g>
   <g id="matplotlib.axis_2">
    <g id="ytick_1">
     <g id="line2d_17">
      <path clip-path="url(#p16ddc019e6)" d="M 72 360.737084 
L 518.4 360.737084 
" style="fill:none;stroke:#b0b0b0;stroke-linecap:square;stroke-width:0.8;"/>
     </g>
     <g id="line2d_18">
      <defs>
       <path d="M 0 0 
L -3.5 0 
" id="m93e1361f07" style="stroke:#000000;stroke-width:0.8;"/>
      </defs>
      <g>
       <use style="stroke:#000000;stroke-width:0.8;" x="72" xlink:href="#m93e1361f07" y="360.737084"/>
      </g>
     </g>
     <g id="text_10">
      <!-- 10 -->
      <g transform="translate(52.275 364.536303)scale(0.1 -0.1)">
       <use xlink:href="#DejaVuSans-49"/>
       <use x="63.623047" xlink:href="#DejaVuSans-48"/>
      </g>
     </g>
    </g>
    <g id="ytick_2">
     <g id="line2d_19">
      <path clip-path="url(#p16ddc019e6)" d="M 72 319.877963 
L 518.4 319.877963 
" style="fill:none;stroke:#b0b0b0;stroke-linecap:square;stroke-width:0.8;"/>
     </g>
     <g id="line2d_20">
      <g>
       <use style="stroke:#000000;stroke-width:0.8;" x="72" xlink:href="#m93e1361f07" y="319.877963"/>
      </g>
     </g>
     <g id="text_11">
      <!-- 20 -->
      <g transform="translate(52.275 323.677181)scale(0.1 -0.1)">
       <use xlink:href="#DejaVuSans-50"/>
       <use x="63.623047" xlink:href="#DejaVuSans-48"/>
      </g>
     </g>
    </g>
    <g id="ytick_3">
     <g id="line2d_21">
      <path clip-path="url(#p16ddc019e6)" d="M 72 279.018841 
L 518.4 279.018841 
" style="fill:none;stroke:#b0b0b0;stroke-linecap:square;stroke-width:0.8;"/>
     </g>
     <g id="line2d_22">
      <g>
       <use style="stroke:#000000;stroke-width:0.8;" x="72" xlink:href="#m93e1361f07" y="279.018841"/>
      </g>
     </g>
     <g id="text_12">
      <!-- 30 -->
      <g transform="translate(52.275 282.81806)scale(0.1 -0.1)">
       <use xlink:href="#DejaVuSans-51"/>
       <use x="63.623047" xlink:href="#DejaVuSans-48"/>
      </g>
     </g>
    </g>
    <g id="ytick_4">
     <g id="line2d_23">
      <path clip-path="url(#p16ddc019e6)" d="M 72 238.159719 
L 518.4 238.159719 
" style="fill:none;stroke:#b0b0b0;stroke-linecap:square;stroke-width:0.8;"/>
     </g>
     <g id="line2d_24">
      <g>
       <use style="stroke:#000000;stroke-width:0.8;" x="72" xlink:href="#m93e1361f07" y="238.159719"/>
      </g>
     </g>
     <g id="text_13">
      <!-- 40 -->
      <g transform="translate(52.275 241.958938)scale(0.1 -0.1)">
       <defs>
        <path d="M 37.796875 64.3125 
L 12.890625 25.390625 
L 37.796875 25.390625 
z
M 35.203125 72.90625 
L 47.609375 72.90625 
L 47.609375 25.390625 
L 58.015625 25.390625 
L 58.015625 17.1875 
L 47.609375 17.1875 
L 47.609375 0 
L 37.796875 0 
L 37.796875 17.1875 
L 4.890625 17.1875 
L 4.890625 26.703125 
z
" id="DejaVuSans-52"/>
       </defs>
       <use xlink:href="#DejaVuSans-52"/>
       <use x="63.623047" xlink:href="#DejaVuSans-48"/>
      </g>
     </g>
    </g>
    <g id="ytick_5">
     <g id="line2d_25">
      <path clip-path="url(#p16ddc019e6)" d="M 72 197.300598 
L 518.4 197.300598 
" style="fill:none;stroke:#b0b0b0;stroke-linecap:square;stroke-width:0.8;"/>
     </g>
     <g id="line2d_26">
      <g>
       <use style="stroke:#000000;stroke-width:0.8;" x="72" xlink:href="#m93e1361f07" y="197.300598"/>
      </g>
     </g>
     <g id="text_14">
      <!-- 50 -->
      <g transform="translate(52.275 201.099817)scale(0.1 -0.1)">
       <use xlink:href="#DejaVuSans-53"/>
       <use x="63.623047" xlink:href="#DejaVuSans-48"/>
      </g>
     </g>
    </g>
    <g id="ytick_6">
     <g id="line2d_27">
      <path clip-path="url(#p16ddc019e6)" d="M 72 156.441476 
L 518.4 156.441476 
" style="fill:none;stroke:#b0b0b0;stroke-linecap:square;stroke-width:0.8;"/>
     </g>
     <g id="line2d_28">
      <g>
       <use style="stroke:#000000;stroke-width:0.8;" x="72" xlink:href="#m93e1361f07" y="156.441476"/>
      </g>
     </g>
     <g id="text_15">
      <!-- 60 -->
      <g transform="translate(52.275 160.240695)scale(0.1 -0.1)">
       <defs>
        <path d="M 33.015625 40.375 
Q 26.375 40.375 22.484375 35.828125 
Q 18.609375 31.296875 18.609375 23.390625 
Q 18.609375 15.53125 22.484375 10.953125 
Q 26.375 6.390625 33.015625 6.390625 
Q 39.65625 6.390625 43.53125 10.953125 
Q 47.40625 15.53125 47.40625 23.390625 
Q 47.40625 31.296875 43.53125 35.828125 
Q 39.65625 40.375 33.015625 40.375 
z
M 52.59375 71.296875 
L 52.59375 62.3125 
Q 48.875 64.0625 45.09375 64.984375 
Q 41.3125 65.921875 37.59375 65.921875 
Q 27.828125 65.921875 22.671875 59.328125 
Q 17.53125 52.734375 16.796875 39.40625 
Q 19.671875 43.65625 24.015625 45.921875 
Q 28.375 48.1875 33.59375 48.1875 
Q 44.578125 48.1875 50.953125 41.515625 
Q 57.328125 34.859375 57.328125 23.390625 
Q 57.328125 12.15625 50.6875 5.359375 
Q 44.046875 -1.421875 33.015625 -1.421875 
Q 20.359375 -1.421875 13.671875 8.265625 
Q 6.984375 17.96875 6.984375 36.375 
Q 6.984375 53.65625 15.1875 63.9375 
Q 23.390625 74.21875 37.203125 74.21875 
Q 40.921875 74.21875 44.703125 73.484375 
Q 48.484375 72.75 52.59375 71.296875 
z
" id="DejaVuSans-54"/>
       </defs>
       <use xlink:href="#DejaVuSans-54"/>
       <use x="63.623047" xlink:href="#DejaVuSans-48"/>
      </g>
     </g>
    </g>
    <g id="ytick_7">
     <g id="line2d_29">
      <path clip-path="url(#p16ddc019e6)" d="M 72 115.582355 
L 518.4 115.582355 
" style="fill:none;stroke:#b0b0b0;stroke-linecap:square;stroke-width:0.8;"/>
     </g>
     <g id="line2d_30">
      <g>
       <use style="stroke:#000000;stroke-width:0.8;" x="72" xlink:href="#m93e1361f07" y="115.582355"/>
      </g>
     </g>
     <g id="text_16">
      <!-- 70 -->
      <g transform="translate(52.275 119.381573)scale(0.1 -0.1)">
       <defs>
        <path d="M 8.203125 72.90625 
L 55.078125 72.90625 
L 55.078125 68.703125 
L 28.609375 0 
L 18.3125 0 
L 43.21875 64.59375 
L 8.203125 64.59375 
z
" id="DejaVuSans-55"/>
       </defs>
       <use xlink:href="#DejaVuSans-55"/>
       <use x="63.623047" xlink:href="#DejaVuSans-48"/>
      </g>
     </g>
    </g>
    <g id="ytick_8">
     <g id="line2d_31">
      <path clip-path="url(#p16ddc019e6)" d="M 72 74.723233 
L 518.4 74.723233 
" style="fill:none;stroke:#b0b0b0;stroke-linecap:square;stroke-width:0.8;"/>
     </g>
     <g id="line2d_32">
      <g>
       <use style="stroke:#000000;stroke-width:0.8;" x="72" xlink:href="#m93e1361f07" y="74.723233"/>
      </g>
     </g>
     <g id="text_17">
      <!-- 80 -->
      <g transform="translate(52.275 78.522452)scale(0.1 -0.1)">
       <defs>
        <path d="M 31.78125 34.625 
Q 24.75 34.625 20.71875 30.859375 
Q 16.703125 27.09375 16.703125 20.515625 
Q 16.703125 13.921875 20.71875 10.15625 
Q 24.75 6.390625 31.78125 6.390625 
Q 38.8125 6.390625 42.859375 10.171875 
Q 46.921875 13.96875 46.921875 20.515625 
Q 46.921875 27.09375 42.890625 30.859375 
Q 38.875 34.625 31.78125 34.625 
z
M 21.921875 38.8125 
Q 15.578125 40.375 12.03125 44.71875 
Q 8.5 49.078125 8.5 55.328125 
Q 8.5 64.0625 14.71875 69.140625 
Q 20.953125 74.21875 31.78125 74.21875 
Q 42.671875 74.21875 48.875 69.140625 
Q 55.078125 64.0625 55.078125 55.328125 
Q 55.078125 49.078125 51.53125 44.71875 
Q 48 40.375 41.703125 38.8125 
Q 48.828125 37.15625 52.796875 32.3125 
Q 56.78125 27.484375 56.78125 20.515625 
Q 56.78125 9.90625 50.3125 4.234375 
Q 43.84375 -1.421875 31.78125 -1.421875 
Q 19.734375 -1.421875 13.25 4.234375 
Q 6.78125 9.90625 6.78125 20.515625 
Q 6.78125 27.484375 10.78125 32.3125 
Q 14.796875 37.15625 21.921875 38.8125 
z
M 18.3125 54.390625 
Q 18.3125 48.734375 21.84375 45.5625 
Q 25.390625 42.390625 31.78125 42.390625 
Q 38.140625 42.390625 41.71875 45.5625 
Q 45.3125 48.734375 45.3125 54.390625 
Q 45.3125 60.0625 41.71875 63.234375 
Q 38.140625 66.40625 31.78125 66.40625 
Q 25.390625 66.40625 21.84375 63.234375 
Q 18.3125 60.0625 18.3125 54.390625 
z
" id="DejaVuSans-56"/>
       </defs>
       <use xlink:href="#DejaVuSans-56"/>
       <use x="63.623047" xlink:href="#DejaVuSans-48"/>
      </g>
     </g>
    </g>
    <g id="text_18">
     <!-- max 8h 'r'$O_3$ $[\mu g/m^3$] -->
     <g transform="translate(46.175 270.71)rotate(-90)scale(0.1 -0.1)">
      <defs>
       <path d="M 52 44.1875 
Q 55.375 50.25 60.0625 53.125 
Q 64.75 56 71.09375 56 
Q 79.640625 56 84.28125 50.015625 
Q 88.921875 44.046875 88.921875 33.015625 
L 88.921875 0 
L 79.890625 0 
L 79.890625 32.71875 
Q 79.890625 40.578125 77.09375 44.375 
Q 74.3125 48.1875 68.609375 48.1875 
Q 61.625 48.1875 57.5625 43.546875 
Q 53.515625 38.921875 53.515625 30.90625 
L 53.515625 0 
L 44.484375 0 
L 44.484375 32.71875 
Q 44.484375 40.625 41.703125 44.40625 
Q 38.921875 48.1875 33.109375 48.1875 
Q 26.21875 48.1875 22.15625 43.53125 
Q 18.109375 38.875 18.109375 30.90625 
L 18.109375 0 
L 9.078125 0 
L 9.078125 54.6875 
L 18.109375 54.6875 
L 18.109375 46.1875 
Q 21.1875 51.21875 25.484375 53.609375 
Q 29.78125 56 35.6875 56 
Q 41.65625 56 45.828125 52.96875 
Q 50 49.953125 52 44.1875 
z
" id="DejaVuSans-109"/>
       <path d="M 54.890625 54.6875 
L 35.109375 28.078125 
L 55.90625 0 
L 45.3125 0 
L 29.390625 21.484375 
L 13.484375 0 
L 2.875 0 
L 24.125 28.609375 
L 4.6875 54.6875 
L 15.28125 54.6875 
L 29.78125 35.203125 
L 44.28125 54.6875 
z
" id="DejaVuSans-120"/>
       <path id="DejaVuSans-32"/>
       <path d="M 54.890625 33.015625 
L 54.890625 0 
L 45.90625 0 
L 45.90625 32.71875 
Q 45.90625 40.484375 42.875 44.328125 
Q 39.84375 48.1875 33.796875 48.1875 
Q 26.515625 48.1875 22.3125 43.546875 
Q 18.109375 38.921875 18.109375 30.90625 
L 18.109375 0 
L 9.078125 0 
L 9.078125 75.984375 
L 18.109375 75.984375 
L 18.109375 46.1875 
Q 21.34375 51.125 25.703125 53.5625 
Q 30.078125 56 35.796875 56 
Q 45.21875 56 50.046875 50.171875 
Q 54.890625 44.34375 54.890625 33.015625 
z
" id="DejaVuSans-104"/>
       <path d="M 17.921875 72.90625 
L 17.921875 45.796875 
L 9.625 45.796875 
L 9.625 72.90625 
z
" id="DejaVuSans-39"/>
       <path d="M 41.109375 46.296875 
Q 39.59375 47.171875 37.8125 47.578125 
Q 36.03125 48 33.890625 48 
Q 26.265625 48 22.1875 43.046875 
Q 18.109375 38.09375 18.109375 28.8125 
L 18.109375 0 
L 9.078125 0 
L 9.078125 54.6875 
L 18.109375 54.6875 
L 18.109375 46.1875 
Q 20.953125 51.171875 25.484375 53.578125 
Q 30.03125 56 36.53125 56 
Q 37.453125 56 38.578125 55.875 
Q 39.703125 55.765625 41.0625 55.515625 
z
" id="DejaVuSans-114"/>
       <path d="M 45.609375 66.21875 
Q 37.5 66.21875 31.296875 62.28125 
Q 25.09375 58.34375 20.515625 50.296875 
Q 17.578125 45.171875 16.03125 39.40625 
Q 14.5 33.640625 14.5 27.78125 
Q 14.5 17.625 19.359375 12.109375 
Q 24.21875 6.59375 33.109375 6.59375 
Q 41.109375 6.59375 47.375 10.5625 
Q 53.65625 14.546875 58.109375 22.40625 
Q 61.078125 27.6875 62.640625 33.46875 
Q 64.203125 39.265625 64.203125 45.015625 
Q 64.203125 55.125 59.3125 60.671875 
Q 54.4375 66.21875 45.609375 66.21875 
z
M 32.8125 -1.421875 
Q 19.390625 -1.421875 11.6875 6.53125 
Q 4 14.5 4 28.328125 
Q 4 36.234375 7 44.484375 
Q 10.015625 52.734375 15.28125 59.1875 
Q 21.484375 66.75 29.09375 70.484375 
Q 36.71875 74.21875 45.90625 74.21875 
Q 59.28125 74.21875 66.984375 66.328125 
Q 74.703125 58.453125 74.703125 44.828125 
Q 74.703125 36.421875 71.765625 28.3125 
Q 68.84375 20.21875 63.375 13.625 
Q 57.125 6 49.578125 2.28125 
Q 42.046875 -1.421875 32.8125 -1.421875 
z
" id="DejaVuSans-Oblique-79"/>
       <path d="M 8.59375 75.984375 
L 29.296875 75.984375 
L 29.296875 69 
L 17.578125 69 
L 17.578125 -6.203125 
L 29.296875 -6.203125 
L 29.296875 -13.1875 
L 8.59375 -13.1875 
z
" id="DejaVuSans-91"/>
       <path d="M -1.3125 -20.796875 
L 13.375 54.6875 
L 22.40625 54.6875 
L 15.765625 20.65625 
Q 15.578125 19.625 15.421875 18.359375 
Q 15.28125 17.09375 15.28125 15.828125 
Q 15.28125 11.28125 18.140625 8.828125 
Q 21 6.390625 26.3125 6.390625 
Q 33.546875 6.390625 37.984375 10.484375 
Q 42.4375 14.59375 44 22.796875 
L 50.203125 54.6875 
L 59.1875 54.6875 
L 51.03125 12.640625 
Q 50.828125 11.71875 50.75 11.03125 
Q 50.6875 10.359375 50.6875 9.8125 
Q 50.6875 8.296875 51.296875 7.59375 
Q 51.90625 6.890625 53.21875 6.890625 
Q 53.71875 6.890625 54.5625 7.125 
Q 55.421875 7.375 56.984375 8.015625 
L 55.609375 0.78125 
Q 53.46875 -0.296875 51.515625 -0.859375 
Q 49.5625 -1.421875 47.703125 -1.421875 
Q 44.484375 -1.421875 42.65625 0.625 
Q 40.828125 2.6875 40.828125 6.296875 
Q 38.09375 2.390625 34.296875 0.484375 
Q 30.515625 -1.421875 25.390625 -1.421875 
Q 20.84375 -1.421875 17.453125 0.671875 
Q 14.0625 2.78125 12.984375 6.203125 
L 7.71875 -20.796875 
z
" id="DejaVuSans-Oblique-956"/>
       <path d="M 59.625 54.6875 
L 50.296875 6.78125 
Q 47.609375 -7.125 40.015625 -13.953125 
Q 32.421875 -20.796875 19.578125 -20.796875 
Q 14.84375 -20.796875 10.78125 -20.09375 
Q 6.734375 -19.390625 3.21875 -17.921875 
L 4.890625 -9.1875 
Q 8.203125 -11.328125 11.90625 -12.34375 
Q 15.625 -13.375 19.828125 -13.375 
Q 28.375 -13.375 33.859375 -8.703125 
Q 39.359375 -4.046875 41.109375 4.6875 
L 41.890625 8.796875 
Q 38.140625 4.5 33.15625 2.25 
Q 28.171875 0 22.40625 0 
Q 14.109375 0 9.34375 5.484375 
Q 4.59375 10.984375 4.59375 20.609375 
Q 4.59375 28.171875 7.46875 35.421875 
Q 10.359375 42.671875 15.578125 48.296875 
Q 19.046875 52 23.65625 54 
Q 28.265625 56 33.296875 56 
Q 38.8125 56 42.90625 53.4375 
Q 47.015625 50.875 49.03125 46.1875 
L 50.59375 54.6875 
z
M 46.09375 34.625 
Q 46.09375 41.265625 42.96875 44.875 
Q 39.84375 48.484375 34.078125 48.484375 
Q 30.515625 48.484375 27.296875 47.0625 
Q 24.078125 45.65625 21.78125 43.109375 
Q 18.0625 38.921875 15.984375 33.234375 
Q 13.921875 27.546875 13.921875 21.484375 
Q 13.921875 14.75 17.0625 11.125 
Q 20.21875 7.515625 26.125 7.515625 
Q 34.671875 7.515625 40.375 15.25 
Q 46.09375 23 46.09375 34.625 
z
" id="DejaVuSans-Oblique-103"/>
       <path d="M 25.390625 72.90625 
L 33.6875 72.90625 
L 8.296875 -9.28125 
L 0 -9.28125 
z
" id="DejaVuSans-47"/>
       <path d="M 89.796875 33.015625 
L 83.40625 0 
L 74.421875 0 
L 80.71875 32.71875 
Q 81.109375 34.8125 81.296875 36.328125 
Q 81.5 37.84375 81.5 38.921875 
Q 81.5 43.3125 79.046875 45.75 
Q 76.609375 48.1875 72.21875 48.1875 
Q 65.671875 48.1875 60.546875 43.28125 
Q 55.421875 38.375 53.90625 30.515625 
L 47.90625 0 
L 38.921875 0 
L 45.3125 32.71875 
Q 45.703125 34.515625 45.890625 36.046875 
Q 46.09375 37.59375 46.09375 38.8125 
Q 46.09375 43.265625 43.65625 45.71875 
Q 41.21875 48.1875 36.921875 48.1875 
Q 30.28125 48.1875 25.140625 43.28125 
Q 20.015625 38.375 18.5 30.515625 
L 12.5 0 
L 3.515625 0 
L 14.203125 54.6875 
L 23.1875 54.6875 
L 21.484375 46.1875 
Q 25.140625 50.984375 30.046875 53.484375 
Q 34.96875 56 40.578125 56 
Q 46.53125 56 50.359375 52.875 
Q 54.203125 49.75 54.984375 44.1875 
Q 59.078125 49.953125 64.46875 52.96875 
Q 69.875 56 75.875 56 
Q 82.90625 56 86.734375 51.953125 
Q 90.578125 47.90625 90.578125 40.484375 
Q 90.578125 38.875 90.375 36.9375 
Q 90.1875 35.015625 89.796875 33.015625 
z
" id="DejaVuSans-Oblique-109"/>
       <path d="M 30.421875 75.984375 
L 30.421875 -13.1875 
L 9.71875 -13.1875 
L 9.71875 -6.203125 
L 21.390625 -6.203125 
L 21.390625 69 
L 9.71875 69 
L 9.71875 75.984375 
z
" id="DejaVuSans-93"/>
      </defs>
      <use transform="translate(0 0.765625)" xlink:href="#DejaVuSans-109"/>
      <use transform="translate(97.412109 0.765625)" xlink:href="#DejaVuSans-97"/>
      <use transform="translate(158.691406 0.765625)" xlink:href="#DejaVuSans-120"/>
      <use transform="translate(217.871094 0.765625)" xlink:href="#DejaVuSans-32"/>
      <use transform="translate(249.658203 0.765625)" xlink:href="#DejaVuSans-56"/>
      <use transform="translate(313.28125 0.765625)" xlink:href="#DejaVuSans-104"/>
      <use transform="translate(376.660156 0.765625)" xlink:href="#DejaVuSans-32"/>
      <use transform="translate(408.447266 0.765625)" xlink:href="#DejaVuSans-39"/>
      <use transform="translate(435.9375 0.765625)" xlink:href="#DejaVuSans-114"/>
      <use transform="translate(477.050781 0.765625)" xlink:href="#DejaVuSans-39"/>
      <use transform="translate(504.541016 0.765625)" xlink:href="#DejaVuSans-Oblique-79"/>
      <use transform="translate(583.251953 -15.640625)scale(0.7)" xlink:href="#DejaVuSans-51"/>
      <use transform="translate(630.522461 0.765625)" xlink:href="#DejaVuSans-32"/>
      <use transform="translate(662.30957 0.765625)" xlink:href="#DejaVuSans-91"/>
      <use transform="translate(701.323242 0.765625)" xlink:href="#DejaVuSans-Oblique-956"/>
      <use transform="translate(764.946289 0.765625)" xlink:href="#DejaVuSans-Oblique-103"/>
      <use transform="translate(828.422852 0.765625)" xlink:href="#DejaVuSans-47"/>
      <use transform="translate(862.114258 0.765625)" xlink:href="#DejaVuSans-Oblique-109"/>
      <use transform="translate(964.176263 39.046875)scale(0.7)" xlink:href="#DejaVuSans-51"/>
      <use transform="translate(1011.446771 0.765625)" xlink:href="#DejaVuSans-93"/>
     </g>
    </g>
   </g>
   <g id="line2d_33">
    <path clip-path="url(#p16ddc019e6)" d="M 92.290909 326.585668 
L 93.405794 309.731281 
L 94.520679 304.47585 
L 95.635564 330.586457 
L 96.75045 329.394733 
L 97.865335 346.163997 
L 98.98022 316.115518 
L 100.095105 256.869792 
L 101.20999 293.557878 
L 102.324875 311.60399 
L 103.43976 250.059939 
L 104.554645 243.420331 
L 105.66953 251.421909 
L 106.784416 304.964383 
L 107.899301 337.396311 
L 109.014186 329.820349 
L 110.129071 346.334244 
L 111.243956 343.326558 
L 112.358841 332.100169 
L 113.473726 338.502912 
L 114.588611 335.778971 
L 115.703497 341.907839 
L 116.818382 364.720848 
L 117.933267 330.586457 
L 119.048152 310.24202 
L 120.163037 300.708225 
L 121.277922 339.609513 
L 122.392807 345.738382 
L 123.507692 310.257497 
L 124.622577 356.038285 
L 125.737463 348.036707 
L 126.852348 344.121041 
L 127.967233 339.098774 
L 129.082118 349.228432 
L 131.311888 287.939749 
L 132.426773 296.877682 
L 133.541658 274.405165 
L 134.656543 274.149796 
L 135.771429 333.906261 
L 136.886314 351.86725 
L 138.001199 336.970695 
L 139.116084 334.331877 
L 140.230969 329.735226 
L 141.345854 328.117885 
L 142.460739 310.156897 
L 143.575624 286.492655 
L 144.690509 232.439442 
L 145.805395 263.935015 
L 146.92028 214.137961 
L 148.035165 156.083959 
L 149.15005 263.339153 
L 150.264935 280.619157 
L 151.37982 293.643002 
L 152.494705 340.290499 
L 153.60959 334.587246 
L 154.724476 343.184686 
L 156.954246 172.682977 
L 158.069131 159.659132 
L 159.184016 66.96 
L 160.298901 282.576989 
L 161.413786 313.561823 
L 162.528671 304.623891 
L 163.643556 313.73207 
L 164.758442 337.821927 
L 165.873327 314.753548 
L 166.988212 323.521234 
L 168.103097 335.012862 
L 169.217982 350.760649 
L 170.332867 339.77976 
L 171.447752 306.581723 
L 172.562637 315.264287 
L 173.677522 300.623102 
L 174.792408 306.922216 
L 175.907293 294.579356 
L 177.022178 311.759433 
L 178.137063 321.052662 
L 179.251948 316.030395 
L 180.366833 305.13463 
L 181.481718 314.668425 
L 182.596603 304.028028 
L 183.711489 229.289885 
L 184.826374 315.519656 
L 185.941259 331.429951 
L 187.056144 339.354144 
L 188.171029 333.736015 
L 189.285914 347.781338 
L 190.400799 337.481434 
L 191.515684 306.411477 
L 192.630569 319.520445 
L 193.745455 342.588824 
L 194.86034 349.568924 
L 195.975225 341.14173 
L 197.09011 320.116307 
L 198.204995 304.453644 
L 199.31988 270.149007 
L 200.434765 267.935804 
L 201.54965 294.66448 
L 202.664535 287.769503 
L 203.779421 200.858746 
L 204.894306 268.36142 
L 206.009191 267.339942 
L 207.124076 303.857782 
L 208.238961 324.627835 
L 209.353846 299.090884 
L 210.468731 253.720235 
L 211.583616 249.29383 
L 212.698501 167.320217 
L 213.813387 203.071949 
L 214.928272 230.481609 
L 216.043157 320.71217 
L 217.158042 320.286554 
L 218.272927 325.734437 
L 219.387812 325.56419 
L 220.502697 316.711381 
L 221.617582 328.543501 
L 222.732468 318.413844 
L 223.847353 346.752121 
L 224.962238 337.992173 
L 226.077123 333.906261 
L 227.192008 341.3971 
L 228.306893 329.650102 
L 229.421778 300.793348 
L 230.536663 260.104473 
L 231.651548 269.723391 
L 232.766434 207.41323 
L 233.881319 275.34152 
L 234.996204 327.522023 
L 236.111089 305.049506 
L 237.225974 290.833937 
L 238.340859 312.199853 
L 239.455744 283.172852 
L 240.570629 237.972448 
L 241.685514 270.829992 
L 242.8004 298.409899 
L 243.915285 320.201431 
L 245.03017 317.562612 
L 246.145055 240.185651 
L 247.25994 274.490288 
L 248.374825 289.386843 
L 249.48971 259.50861 
L 250.604595 263.083784 
L 251.719481 197.19845 
L 252.834366 248.187229 
L 253.949251 278.235708 
L 255.064136 223.24614 
L 256.179021 174.38544 
L 257.293906 200.858746 
L 258.408791 278.83157 
L 259.523676 291.17443 
L 260.638561 318.669214 
L 261.753447 323.180742 
L 262.868332 311.178375 
L 263.983217 291.685169 
L 265.098102 267.084573 
L 266.212987 268.276297 
L 267.327872 290.152952 
L 268.442757 298.069406 
L 269.557642 302.751181 
L 270.672527 317.835006 
L 271.787413 340.886361 
L 272.902298 341.056607 
L 274.017183 316.881627 
L 275.132068 276.873737 
L 276.246953 309.390788 
L 277.361838 328.883994 
L 278.476723 343.440056 
L 279.591608 339.52439 
L 280.706494 346.078874 
L 281.821379 329.990595 
L 282.936264 319.179953 
L 284.051149 323.691481 
L 285.166034 335.778971 
L 286.280919 353.73996 
L 287.395804 324.031973 
L 288.510689 274.745658 
L 289.625574 293.643002 
L 290.74046 308.794926 
L 291.855345 285.726547 
L 292.97023 296.962805 
L 294.085115 313.136208 
L 295.2 319.946061 
L 296.314885 309.220542 
L 297.42977 333.310399 
L 298.544655 294.238864 
L 299.65954 307.858571 
L 300.774426 332.79966 
L 301.889311 331.18232 
L 303.004196 322.07414 
L 304.119081 304.283398 
L 305.233966 320.286554 
L 306.348851 327.4369 
L 307.463736 325.138574 
L 308.578621 324.883205 
L 309.693506 281.215019 
L 310.808392 313.136208 
L 311.923277 318.158475 
L 313.038162 317.307243 
L 314.153047 312.965961 
L 315.267932 323.350988 
L 316.382817 274.745658 
L 317.497702 299.261131 
L 318.612587 306.156108 
L 319.727473 291.770292 
L 320.842358 241.462498 
L 321.957243 246.569889 
L 323.072128 313.051084 
L 324.187013 328.628624 
L 325.301898 332.629413 
L 326.416783 318.522183 
L 327.531668 335.523601 
L 328.646553 321.733648 
L 329.761439 292.025661 
L 330.876324 323.776604 
L 331.991209 346.078874 
L 334.220979 242.654223 
L 335.335864 308.880049 
L 336.450749 330.160841 
L 337.565634 342.588824 
L 338.680519 341.737593 
L 339.795405 339.609513 
L 340.91029 334.757493 
L 342.025175 325.649313 
L 343.14006 321.648524 
L 344.254945 340.120252 
L 345.36983 341.482223 
L 346.484715 323.606357 
L 347.5996 328.117885 
L 348.714486 318.498967 
L 349.829371 295.260342 
L 350.944256 328.032762 
L 352.059141 322.499756 
L 353.174026 337.736804 
L 354.288911 358.081241 
L 355.403796 344.716904 
L 356.518681 342.418578 
L 357.633566 329.05424 
L 358.748452 298.665269 
L 359.863337 345.057396 
L 360.978222 340.545868 
L 362.093107 312.795715 
L 363.207992 312.199853 
L 364.322877 314.838671 
L 365.437762 283.428221 
L 366.552647 310.582512 
L 367.667532 330.416211 
L 368.782418 343.099563 
L 369.897303 341.737593 
L 371.012188 332.459167 
L 372.127073 331.607935 
L 373.241958 335.523601 
L 374.356843 357.570502 
L 375.471728 346.249121 
L 376.586613 328.543501 
L 377.701499 336.374833 
L 379.931269 308.624679 
L 381.046154 290.578567 
L 382.161039 302.070195 
L 383.275924 303.602412 
L 385.505694 344.716904 
L 386.620579 340.630991 
L 387.735465 349.313555 
L 388.85035 329.30961 
L 389.965235 314.327932 
L 391.08012 279.682802 
L 392.195005 328.032762 
L 393.30989 324.627835 
L 394.424775 328.458378 
L 395.53966 338.229038 
L 396.654545 340.716115 
L 397.769431 322.32951 
L 398.884316 312.199853 
L 399.999201 272.617579 
L 401.114086 261.38132 
L 402.228971 348.12183 
L 403.343856 318.328721 
L 405.573626 234.993137 
L 406.688511 330.586457 
L 407.803397 332.459167 
L 408.918282 321.903894 
L 410.033167 315.008917 
L 411.148052 309.526985 
L 412.262937 264.479804 
L 414.492707 338.043247 
L 415.607592 322.976446 
L 416.722478 296.673386 
L 417.837363 222.10549 
L 418.952248 324.593786 
L 420.067133 324.083047 
L 421.182018 332.76561 
L 422.296903 317.869056 
L 423.411788 321.869845 
L 424.526673 355.323251 
L 425.641558 358.983547 
L 426.756444 337.447385 
L 427.871329 346.385318 
L 428.986214 330.854208 
L 430.101099 340.00108 
L 431.215984 338.553986 
L 433.445754 257.601851 
L 434.560639 229.437185 
L 435.675524 315.485607 
L 436.79041 356.259605 
L 437.905295 324.764033 
L 439.02018 315.059991 
L 440.135065 350.130737 
L 441.24995 351.492708 
L 442.364835 333.106103 
L 443.47972 338.553986 
L 444.594605 310.46334 
L 445.709491 289.52304 
L 446.824376 303.653486 
L 447.939261 276.328949 
L 449.054146 289.863533 
L 450.169031 338.468863 
L 451.283916 286.713976 
L 452.398801 244.748253 
L 453.513686 211.209724 
L 454.628571 232.32027 
L 455.743457 200.484204 
L 456.858342 242.449927 
L 457.973227 278.286782 
L 459.088112 222.020366 
L 460.202997 338.38374 
L 461.317882 349.024136 
L 462.432767 341.095521 
L 463.547652 339.915957 
L 464.662537 361.792611 
L 465.777423 331.659009 
L 466.892308 328.168959 
L 468.007193 312.591419 
L 470.236963 353.365418 
L 471.351848 326.977235 
L 472.466733 341.958913 
L 473.581618 349.024136 
L 474.696503 292.927967 
L 475.811389 246.110223 
L 476.926274 309.441862 
L 478.041159 289.863533 
L 479.156044 261.60264 
L 480.270929 300.674175 
L 481.385814 325.359895 
L 482.500699 316.421962 
L 483.615584 339.320095 
L 484.73047 344.086992 
L 485.845355 323.061569 
L 486.96024 318.890534 
L 488.075125 331.829256 
L 489.19001 351.152215 
L 490.304895 265.943922 
L 491.41978 246.791209 
L 492.534665 239.811109 
L 493.64955 181.84223 
L 494.764436 266.544792 
L 498.109091 318.890534 
L 498.109091 318.890534 
" style="fill:none;stroke:#1f77b4;stroke-linecap:square;stroke-width:1.5;"/>
   </g>
   <g id="line2d_34">
    <path clip-path="url(#p16ddc019e6)" d="M 92.290909 345.269231 
L 93.405794 335.672008 
L 94.520679 333.165329 
L 95.635564 346.65055 
L 96.75045 335.666358 
L 97.865335 303.968637 
L 98.98022 312.098621 
L 101.20999 258.040281 
L 102.324875 316.786483 
L 103.43976 264.814368 
L 104.554645 263.315086 
L 105.66953 260.479669 
L 106.784416 241.569206 
L 107.899301 341.814813 
L 109.014186 336.983969 
L 110.129071 333.399679 
L 111.243956 340.097446 
L 113.473726 317.244761 
L 114.588611 309.702125 
L 115.703497 306.721259 
L 116.818382 333.794254 
L 117.933267 335.902934 
L 119.048152 331.559105 
L 120.163037 282.605315 
L 121.277922 320.575355 
L 122.392807 328.233868 
L 123.507692 326.106432 
L 124.622577 279.904855 
L 125.737463 336.070003 
L 126.852348 330.924827 
L 127.967233 316.82706 
L 129.082118 323.102552 
L 130.197003 313.294736 
L 131.311888 290.864244 
L 132.426773 243.688553 
L 133.541658 216.63013 
L 135.771429 321.682044 
L 136.886314 313.302101 
L 138.001199 332.879234 
L 139.116084 316.023141 
L 140.230969 310.627688 
L 141.345854 321.207465 
L 142.460739 318.41219 
L 143.575624 297.679509 
L 144.690509 258.590976 
L 145.805395 243.34669 
L 146.92028 278.875017 
L 148.035165 224.279903 
L 149.15005 192.173658 
L 150.264935 279.372897 
L 151.37982 296.243246 
L 152.494705 303.736576 
L 153.60959 305.48342 
L 154.724476 322.815091 
L 155.839361 301.141517 
L 156.954246 276.681129 
L 158.069131 277.155031 
L 159.184016 290.439157 
L 160.298901 150.351726 
L 161.413786 288.328994 
L 162.528671 299.069228 
L 163.643556 308.078405 
L 164.758442 303.128203 
L 165.873327 335.275325 
L 166.988212 315.327068 
L 168.103097 338.416569 
L 169.217982 332.995282 
L 170.332867 340.562672 
L 171.447752 318.236101 
L 172.562637 278.969808 
L 173.677522 332.810885 
L 174.792408 302.571793 
L 175.907293 323.427859 
L 177.022178 291.730495 
L 178.137063 292.579239 
L 179.251948 308.822153 
L 180.366833 292.287696 
L 181.481718 306.992509 
L 182.596603 334.620502 
L 183.711489 275.344296 
L 184.826374 258.519122 
L 185.941259 303.122393 
L 187.056144 319.857599 
L 188.171029 327.494437 
L 189.285914 306.115492 
L 190.400799 338.141783 
L 191.515684 325.156985 
L 192.630569 303.462974 
L 193.745455 339.188454 
L 194.86034 343.932355 
L 195.975225 346.954104 
L 197.09011 330.310374 
L 198.204995 315.685993 
L 199.31988 327.775856 
L 200.434765 275.117079 
L 201.54965 313.300641 
L 202.664535 290.753634 
L 203.779421 279.436771 
L 204.894306 296.331495 
L 206.009191 336.515314 
L 207.124076 307.350348 
L 208.238961 334.37761 
L 209.353846 328.470989 
L 210.468731 296.349116 
L 211.583616 260.577132 
L 212.698501 266.895102 
L 213.813387 274.289443 
L 214.928272 291.423364 
L 216.043157 293.895478 
L 217.158042 338.791807 
L 218.272927 342.614767 
L 219.387812 330.628504 
L 220.502697 339.536631 
L 221.617582 326.794654 
L 222.732468 351.762669 
L 223.847353 315.821131 
L 224.962238 362.315953 
L 226.077123 344.082812 
L 227.192008 333.216084 
L 228.306893 326.011149 
L 229.421778 327.174861 
L 230.536663 312.970907 
L 231.651548 282.029974 
L 232.766434 283.489565 
L 233.881319 247.133548 
L 234.996204 278.95748 
L 236.111089 339.891341 
L 237.225974 327.128251 
L 238.340859 299.569262 
L 239.455744 342.643278 
L 240.570629 313.153405 
L 241.685514 290.310019 
L 242.8004 327.258276 
L 243.915285 337.158927 
L 245.03017 340.904019 
L 246.145055 330.594208 
L 247.25994 305.418805 
L 248.374825 313.467041 
L 249.48971 295.02077 
L 250.604595 297.104784 
L 251.719481 311.651884 
L 252.834366 307.370289 
L 253.949251 312.555422 
L 255.064136 310.810587 
L 256.179021 298.247961 
L 257.293906 279.253619 
L 258.408791 294.569608 
L 259.523676 293.613299 
L 260.638561 349.372989 
L 261.753447 346.916736 
L 262.868332 332.128453 
L 263.983217 334.568076 
L 265.098102 316.380189 
L 266.212987 289.335468 
L 267.327872 318.422521 
L 268.442757 322.873216 
L 269.557642 314.55651 
L 270.672527 321.100968 
L 272.902298 347.098281 
L 274.017183 345.656138 
L 275.132068 357.90928 
L 276.246953 341.555327 
L 277.361838 355.077592 
L 278.476723 358.045951 
L 279.591608 359.857645 
L 280.706494 344.80182 
L 281.821379 339.20589 
L 282.936264 355.770053 
L 284.051149 356.658234 
L 285.166034 344.562316 
L 286.280919 344.726083 
L 287.395804 341.611745 
L 288.510689 335.600853 
L 289.625574 321.438629 
L 290.74046 323.741366 
L 291.855345 339.214496 
L 292.97023 326.949684 
L 294.085115 336.442866 
L 295.2 340.710065 
L 296.314885 327.983231 
L 297.42977 337.520044 
L 298.544655 340.515761 
L 299.65954 342.242787 
L 300.774426 336.914458 
L 301.889311 344.840982 
L 303.004196 344.522893 
L 304.119081 351.603219 
L 305.233966 335.978262 
L 306.348851 334.20372 
L 307.463736 335.686795 
L 308.578621 336.042136 
L 309.693506 336.595031 
L 310.808392 326.872451 
L 311.923277 353.594971 
L 313.038162 332.84073 
L 315.267932 342.134849 
L 316.382817 350.843634 
L 318.612587 330.847639 
L 319.727473 328.733832 
L 320.842358 316.330615 
L 321.957243 320.166002 
L 323.072128 338.874258 
L 324.187013 365.02647 
L 326.416783 368.808219 
L 327.531668 353.880224 
L 328.646553 328.894724 
L 329.761439 323.618555 
L 330.876324 328.990502 
L 331.991209 346.982638 
L 333.106094 343.910427 
L 334.220979 330.14732 
L 335.335864 308.277017 
L 336.450749 360.504141 
L 337.565634 339.679817 
L 338.680519 365.965491 
L 339.795405 367.691887 
L 340.91029 366.621062 
L 342.025175 359.94534 
L 343.14006 357.357085 
L 344.254945 358.287789 
L 345.36983 357.405231 
L 346.484715 355.870211 
L 347.5996 365.454782 
L 348.714486 358.637498 
L 349.829371 350.019341 
L 350.944256 329.348388 
L 352.059141 335.65933 
L 353.174026 357.917688 
L 354.288911 367.094853 
L 355.403796 364.698667 
L 356.518681 369.36 
L 357.633566 364.220542 
L 358.748452 350.225896 
L 359.863337 333.948586 
L 360.978222 349.878521 
L 362.093107 345.959413 
L 363.207992 342.481778 
L 364.322877 340.51841 
L 365.437762 330.182391 
L 366.552647 302.472924 
L 367.667532 311.061799 
L 368.782418 343.95864 
L 369.897303 361.588024 
L 371.012188 367.906161 
L 372.127073 357.401897 
L 373.241958 361.244596 
L 374.356843 352.919374 
L 375.471728 349.797147 
L 376.586613 336.764136 
L 377.701499 357.596481 
L 378.816384 357.63056 
L 379.931269 351.838758 
L 381.046154 337.196575 
L 383.275924 346.07652 
L 384.390809 344.746772 
L 385.505694 354.549221 
L 386.620579 358.147009 
L 387.735465 348.986893 
L 388.85035 353.428997 
L 389.965235 336.54556 
L 391.08012 333.432218 
L 392.195005 324.524681 
L 393.30989 345.513079 
L 394.424775 332.048994 
L 395.53966 346.370298 
L 396.654545 358.906792 
L 397.769431 345.055427 
L 398.884316 333.725599 
L 399.999201 329.560747 
L 401.114086 324.865816 
L 402.228971 324.130701 
L 403.343856 334.376795 
L 404.458741 342.159133 
L 405.573626 303.250143 
L 406.688511 272.808065 
L 407.803397 334.394353 
L 408.918282 343.883038 
L 410.033167 340.451467 
L 411.148052 351.555699 
L 412.262937 347.835428 
L 413.377822 299.812048 
L 414.492707 323.596545 
L 415.607592 314.788152 
L 416.722478 317.658854 
L 417.837363 310.784928 
L 418.952248 298.903394 
L 420.067133 328.965699 
L 421.182018 346.821435 
L 422.296903 336.965001 
L 423.411788 336.649579 
L 424.526673 349.102604 
L 425.641558 346.665743 
L 426.756444 343.591882 
L 427.871329 330.910338 
L 428.986214 350.642409 
L 430.101099 327.36803 
L 431.215984 349.755467 
L 433.445754 326.730049 
L 434.560639 298.205686 
L 435.675524 287.638796 
L 436.79041 341.423545 
L 437.905295 349.136747 
L 439.02018 318.284643 
L 440.135065 339.019191 
L 441.24995 349.881166 
L 442.364835 349.950794 
L 443.47972 336.408642 
L 445.709491 321.597859 
L 446.824376 298.473737 
L 447.939261 297.494168 
L 449.054146 300.455007 
L 450.169031 297.225962 
L 451.283916 324.100992 
L 452.398801 315.487266 
L 453.513686 278.03274 
L 454.628571 262.659921 
L 455.743457 267.329821 
L 456.858342 291.043613 
L 457.973227 284.515162 
L 459.088112 304.035691 
L 460.202997 278.118999 
L 461.317882 340.469336 
L 462.432767 347.737951 
L 463.547652 339.283034 
L 464.662537 346.820998 
L 465.777423 350.251844 
L 466.892308 348.292179 
L 468.007193 306.767918 
L 469.122078 332.938441 
L 470.236963 339.653306 
L 471.351848 347.536667 
L 472.466733 346.662517 
L 473.581618 343.437762 
L 474.696503 321.695633 
L 475.811389 290.144976 
L 476.926274 282.011175 
L 478.041159 299.332474 
L 479.156044 302.3861 
L 480.270929 300.783714 
L 481.385814 298.512214 
L 482.500699 329.097945 
L 483.615584 328.464614 
L 484.73047 340.989173 
L 485.845355 342.871262 
L 486.96024 345.379301 
L 488.075125 324.505024 
L 489.19001 329.741868 
L 490.304895 290.937081 
L 491.41978 277.993782 
L 492.534665 303.04767 
L 493.64955 305.882613 
L 494.764436 278.652688 
L 495.879321 320.792079 
L 496.994206 288.209904 
L 498.109091 282.791562 
L 498.109091 282.791562 
" style="fill:none;stroke:#ff7f0e;stroke-linecap:square;stroke-width:1.5;"/>
   </g>
   <g id="patch_3">
    <path d="M 72 384.48 
L 72 51.84 
" style="fill:none;stroke:#000000;stroke-linecap:square;stroke-linejoin:miter;stroke-width:0.8;"/>
   </g>
   <g id="patch_4">
    <path d="M 518.4 384.48 
L 518.4 51.84 
" style="fill:none;stroke:#000000;stroke-linecap:square;stroke-linejoin:miter;stroke-width:0.8;"/>
   </g>
   <g id="patch_5">
    <path d="M 72 384.48 
L 518.4 384.48 
" style="fill:none;stroke:#000000;stroke-linecap:square;stroke-linejoin:miter;stroke-width:0.8;"/>
   </g>
   <g id="patch_6">
    <path d="M 72 51.84 
L 518.4 51.84 
" style="fill:none;stroke:#000000;stroke-linecap:square;stroke-linejoin:miter;stroke-width:0.8;"/>
   </g>
   <g id="text_19">
    <!-- $O_3$ BETN073 2010: Island DNN (MSE: 108.0, sMAPE: 47.22%, MASE: 1.0) -->
    <g transform="translate(78.96 45.84)scale(0.12 -0.12)">
     <defs>
      <path d="M 19.671875 34.8125 
L 19.671875 8.109375 
L 35.5 8.109375 
Q 43.453125 8.109375 47.28125 11.40625 
Q 51.125 14.703125 51.125 21.484375 
Q 51.125 28.328125 47.28125 31.5625 
Q 43.453125 34.8125 35.5 34.8125 
z
M 19.671875 64.796875 
L 19.671875 42.828125 
L 34.28125 42.828125 
Q 41.5 42.828125 45.03125 45.53125 
Q 48.578125 48.25 48.578125 53.8125 
Q 48.578125 59.328125 45.03125 62.0625 
Q 41.5 64.796875 34.28125 64.796875 
z
M 9.8125 72.90625 
L 35.015625 72.90625 
Q 46.296875 72.90625 52.390625 68.21875 
Q 58.5 63.53125 58.5 54.890625 
Q 58.5 48.1875 55.375 44.234375 
Q 52.25 40.28125 46.1875 39.3125 
Q 53.46875 37.75 57.5 32.78125 
Q 61.53125 27.828125 61.53125 20.40625 
Q 61.53125 10.640625 54.890625 5.3125 
Q 48.25 0 35.984375 0 
L 9.8125 0 
z
" id="DejaVuSans-66"/>
      <path d="M 9.8125 72.90625 
L 55.90625 72.90625 
L 55.90625 64.59375 
L 19.671875 64.59375 
L 19.671875 43.015625 
L 54.390625 43.015625 
L 54.390625 34.71875 
L 19.671875 34.71875 
L 19.671875 8.296875 
L 56.78125 8.296875 
L 56.78125 0 
L 9.8125 0 
z
" id="DejaVuSans-69"/>
      <path d="M -0.296875 72.90625 
L 61.375 72.90625 
L 61.375 64.59375 
L 35.5 64.59375 
L 35.5 0 
L 25.59375 0 
L 25.59375 64.59375 
L -0.296875 64.59375 
z
" id="DejaVuSans-84"/>
      <path d="M 9.8125 72.90625 
L 23.09375 72.90625 
L 55.421875 11.921875 
L 55.421875 72.90625 
L 64.984375 72.90625 
L 64.984375 0 
L 51.703125 0 
L 19.390625 60.984375 
L 19.390625 0 
L 9.8125 0 
z
" id="DejaVuSans-78"/>
      <path d="M 11.71875 12.40625 
L 22.015625 12.40625 
L 22.015625 0 
L 11.71875 0 
z
M 11.71875 51.703125 
L 22.015625 51.703125 
L 22.015625 39.3125 
L 11.71875 39.3125 
z
" id="DejaVuSans-58"/>
      <path d="M 9.8125 72.90625 
L 19.671875 72.90625 
L 19.671875 0 
L 9.8125 0 
z
" id="DejaVuSans-73"/>
      <path d="M 44.28125 53.078125 
L 44.28125 44.578125 
Q 40.484375 46.53125 36.375 47.5 
Q 32.28125 48.484375 27.875 48.484375 
Q 21.1875 48.484375 17.84375 46.4375 
Q 14.5 44.390625 14.5 40.28125 
Q 14.5 37.15625 16.890625 35.375 
Q 19.28125 33.59375 26.515625 31.984375 
L 29.59375 31.296875 
Q 39.15625 29.25 43.1875 25.515625 
Q 47.21875 21.78125 47.21875 15.09375 
Q 47.21875 7.46875 41.1875 3.015625 
Q 35.15625 -1.421875 24.609375 -1.421875 
Q 20.21875 -1.421875 15.453125 -0.5625 
Q 10.6875 0.296875 5.421875 2 
L 5.421875 11.28125 
Q 10.40625 8.6875 15.234375 7.390625 
Q 20.0625 6.109375 24.8125 6.109375 
Q 31.15625 6.109375 34.5625 8.28125 
Q 37.984375 10.453125 37.984375 14.40625 
Q 37.984375 18.0625 35.515625 20.015625 
Q 33.0625 21.96875 24.703125 23.78125 
L 21.578125 24.515625 
Q 13.234375 26.265625 9.515625 29.90625 
Q 5.8125 33.546875 5.8125 39.890625 
Q 5.8125 47.609375 11.28125 51.796875 
Q 16.75 56 26.8125 56 
Q 31.78125 56 36.171875 55.265625 
Q 40.578125 54.546875 44.28125 53.078125 
z
" id="DejaVuSans-115"/>
      <path d="M 9.421875 75.984375 
L 18.40625 75.984375 
L 18.40625 0 
L 9.421875 0 
z
" id="DejaVuSans-108"/>
      <path d="M 54.890625 33.015625 
L 54.890625 0 
L 45.90625 0 
L 45.90625 32.71875 
Q 45.90625 40.484375 42.875 44.328125 
Q 39.84375 48.1875 33.796875 48.1875 
Q 26.515625 48.1875 22.3125 43.546875 
Q 18.109375 38.921875 18.109375 30.90625 
L 18.109375 0 
L 9.078125 0 
L 9.078125 54.6875 
L 18.109375 54.6875 
L 18.109375 46.1875 
Q 21.34375 51.125 25.703125 53.5625 
Q 30.078125 56 35.796875 56 
Q 45.21875 56 50.046875 50.171875 
Q 54.890625 44.34375 54.890625 33.015625 
z
" id="DejaVuSans-110"/>
      <path d="M 45.40625 46.390625 
L 45.40625 75.984375 
L 54.390625 75.984375 
L 54.390625 0 
L 45.40625 0 
L 45.40625 8.203125 
Q 42.578125 3.328125 38.25 0.953125 
Q 33.9375 -1.421875 27.875 -1.421875 
Q 17.96875 -1.421875 11.734375 6.484375 
Q 5.515625 14.40625 5.515625 27.296875 
Q 5.515625 40.1875 11.734375 48.09375 
Q 17.96875 56 27.875 56 
Q 33.9375 56 38.25 53.625 
Q 42.578125 51.265625 45.40625 46.390625 
z
M 14.796875 27.296875 
Q 14.796875 17.390625 18.875 11.75 
Q 22.953125 6.109375 30.078125 6.109375 
Q 37.203125 6.109375 41.296875 11.75 
Q 45.40625 17.390625 45.40625 27.296875 
Q 45.40625 37.203125 41.296875 42.84375 
Q 37.203125 48.484375 30.078125 48.484375 
Q 22.953125 48.484375 18.875 42.84375 
Q 14.796875 37.203125 14.796875 27.296875 
z
" id="DejaVuSans-100"/>
      <path d="M 31 75.875 
Q 24.46875 64.65625 21.28125 53.65625 
Q 18.109375 42.671875 18.109375 31.390625 
Q 18.109375 20.125 21.3125 9.0625 
Q 24.515625 -2 31 -13.1875 
L 23.1875 -13.1875 
Q 15.875 -1.703125 12.234375 9.375 
Q 8.59375 20.453125 8.59375 31.390625 
Q 8.59375 42.28125 12.203125 53.3125 
Q 15.828125 64.359375 23.1875 75.875 
z
" id="DejaVuSans-40"/>
      <path d="M 9.8125 72.90625 
L 24.515625 72.90625 
L 43.109375 23.296875 
L 61.8125 72.90625 
L 76.515625 72.90625 
L 76.515625 0 
L 66.890625 0 
L 66.890625 64.015625 
L 48.09375 14.015625 
L 38.1875 14.015625 
L 19.390625 64.015625 
L 19.390625 0 
L 9.8125 0 
z
" id="DejaVuSans-77"/>
      <path d="M 53.515625 70.515625 
L 53.515625 60.890625 
Q 47.90625 63.578125 42.921875 64.890625 
Q 37.9375 66.21875 33.296875 66.21875 
Q 25.25 66.21875 20.875 63.09375 
Q 16.5 59.96875 16.5 54.203125 
Q 16.5 49.359375 19.40625 46.890625 
Q 22.3125 44.4375 30.421875 42.921875 
L 36.375 41.703125 
Q 47.40625 39.59375 52.65625 34.296875 
Q 57.90625 29 57.90625 20.125 
Q 57.90625 9.515625 50.796875 4.046875 
Q 43.703125 -1.421875 29.984375 -1.421875 
Q 24.8125 -1.421875 18.96875 -0.25 
Q 13.140625 0.921875 6.890625 3.21875 
L 6.890625 13.375 
Q 12.890625 10.015625 18.65625 8.296875 
Q 24.421875 6.59375 29.984375 6.59375 
Q 38.421875 6.59375 43.015625 9.90625 
Q 47.609375 13.234375 47.609375 19.390625 
Q 47.609375 24.75 44.3125 27.78125 
Q 41.015625 30.8125 33.5 32.328125 
L 27.484375 33.5 
Q 16.453125 35.6875 11.515625 40.375 
Q 6.59375 45.0625 6.59375 53.421875 
Q 6.59375 63.09375 13.40625 68.65625 
Q 20.21875 74.21875 32.171875 74.21875 
Q 37.3125 74.21875 42.625 73.28125 
Q 47.953125 72.359375 53.515625 70.515625 
z
" id="DejaVuSans-83"/>
      <path d="M 10.6875 12.40625 
L 21 12.40625 
L 21 0 
L 10.6875 0 
z
" id="DejaVuSans-46"/>
      <path d="M 11.71875 12.40625 
L 22.015625 12.40625 
L 22.015625 4 
L 14.015625 -11.625 
L 7.71875 -11.625 
L 11.71875 4 
z
" id="DejaVuSans-44"/>
      <path d="M 34.1875 63.1875 
L 20.796875 26.90625 
L 47.609375 26.90625 
z
M 28.609375 72.90625 
L 39.796875 72.90625 
L 67.578125 0 
L 57.328125 0 
L 50.6875 18.703125 
L 17.828125 18.703125 
L 11.1875 0 
L 0.78125 0 
z
" id="DejaVuSans-65"/>
      <path d="M 19.671875 64.796875 
L 19.671875 37.40625 
L 32.078125 37.40625 
Q 38.96875 37.40625 42.71875 40.96875 
Q 46.484375 44.53125 46.484375 51.125 
Q 46.484375 57.671875 42.71875 61.234375 
Q 38.96875 64.796875 32.078125 64.796875 
z
M 9.8125 72.90625 
L 32.078125 72.90625 
Q 44.34375 72.90625 50.609375 67.359375 
Q 56.890625 61.8125 56.890625 51.125 
Q 56.890625 40.328125 50.609375 34.8125 
Q 44.34375 29.296875 32.078125 29.296875 
L 19.671875 29.296875 
L 19.671875 0 
L 9.8125 0 
z
" id="DejaVuSans-80"/>
      <path d="M 72.703125 32.078125 
Q 68.453125 32.078125 66.03125 28.46875 
Q 63.625 24.859375 63.625 18.40625 
Q 63.625 12.0625 66.03125 8.421875 
Q 68.453125 4.78125 72.703125 4.78125 
Q 76.859375 4.78125 79.265625 8.421875 
Q 81.6875 12.0625 81.6875 18.40625 
Q 81.6875 24.8125 79.265625 28.4375 
Q 76.859375 32.078125 72.703125 32.078125 
z
M 72.703125 38.28125 
Q 80.421875 38.28125 84.953125 32.90625 
Q 89.5 27.546875 89.5 18.40625 
Q 89.5 9.28125 84.9375 3.921875 
Q 80.375 -1.421875 72.703125 -1.421875 
Q 64.890625 -1.421875 60.34375 3.921875 
Q 55.8125 9.28125 55.8125 18.40625 
Q 55.8125 27.59375 60.375 32.9375 
Q 64.9375 38.28125 72.703125 38.28125 
z
M 22.3125 68.015625 
Q 18.109375 68.015625 15.6875 64.375 
Q 13.28125 60.75 13.28125 54.390625 
Q 13.28125 47.953125 15.671875 44.328125 
Q 18.0625 40.71875 22.3125 40.71875 
Q 26.5625 40.71875 28.96875 44.328125 
Q 31.390625 47.953125 31.390625 54.390625 
Q 31.390625 60.6875 28.953125 64.34375 
Q 26.515625 68.015625 22.3125 68.015625 
z
M 66.40625 74.21875 
L 74.21875 74.21875 
L 28.609375 -1.421875 
L 20.796875 -1.421875 
z
M 22.3125 74.21875 
Q 30.03125 74.21875 34.609375 68.875 
Q 39.203125 63.53125 39.203125 54.390625 
Q 39.203125 45.171875 34.640625 39.84375 
Q 30.078125 34.515625 22.3125 34.515625 
Q 14.546875 34.515625 10.03125 39.859375 
Q 5.515625 45.21875 5.515625 54.390625 
Q 5.515625 63.484375 10.046875 68.84375 
Q 14.59375 74.21875 22.3125 74.21875 
z
" id="DejaVuSans-37"/>
      <path d="M 8.015625 75.875 
L 15.828125 75.875 
Q 23.140625 64.359375 26.78125 53.3125 
Q 30.421875 42.28125 30.421875 31.390625 
Q 30.421875 20.453125 26.78125 9.375 
Q 23.140625 -1.703125 15.828125 -13.1875 
L 8.015625 -13.1875 
Q 14.5 -2 17.703125 9.0625 
Q 20.90625 20.125 20.90625 31.390625 
Q 20.90625 42.671875 17.703125 53.65625 
Q 14.5 64.65625 8.015625 75.875 
z
" id="DejaVuSans-41"/>
     </defs>
     <use transform="translate(0 0.015625)" xlink:href="#DejaVuSans-Oblique-79"/>
     <use transform="translate(78.710938 -16.390625)scale(0.7)" xlink:href="#DejaVuSans-51"/>
     <use transform="translate(125.981445 0.015625)" xlink:href="#DejaVuSans-32"/>
     <use transform="translate(157.768555 0.015625)" xlink:href="#DejaVuSans-66"/>
     <use transform="translate(226.37207 0.015625)" xlink:href="#DejaVuSans-69"/>
     <use transform="translate(289.555664 0.015625)" xlink:href="#DejaVuSans-84"/>
     <use transform="translate(350.639648 0.015625)" xlink:href="#DejaVuSans-78"/>
     <use transform="translate(425.444336 0.015625)" xlink:href="#DejaVuSans-48"/>
     <use transform="translate(489.067383 0.015625)" xlink:href="#DejaVuSans-55"/>
     <use transform="translate(552.69043 0.015625)" xlink:href="#DejaVuSans-51"/>
     <use transform="translate(616.313477 0.015625)" xlink:href="#DejaVuSans-32"/>
     <use transform="translate(648.100586 0.015625)" xlink:href="#DejaVuSans-50"/>
     <use transform="translate(711.723633 0.015625)" xlink:href="#DejaVuSans-48"/>
     <use transform="translate(775.34668 0.015625)" xlink:href="#DejaVuSans-49"/>
     <use transform="translate(838.969727 0.015625)" xlink:href="#DejaVuSans-48"/>
     <use transform="translate(902.592773 0.015625)" xlink:href="#DejaVuSans-58"/>
     <use transform="translate(936.28418 0.015625)" xlink:href="#DejaVuSans-32"/>
     <use transform="translate(968.071289 0.015625)" xlink:href="#DejaVuSans-73"/>
     <use transform="translate(997.563477 0.015625)" xlink:href="#DejaVuSans-115"/>
     <use transform="translate(1049.663086 0.015625)" xlink:href="#DejaVuSans-108"/>
     <use transform="translate(1077.446289 0.015625)" xlink:href="#DejaVuSans-97"/>
     <use transform="translate(1138.725586 0.015625)" xlink:href="#DejaVuSans-110"/>
     <use transform="translate(1202.104492 0.015625)" xlink:href="#DejaVuSans-100"/>
     <use transform="translate(1265.581055 0.015625)" xlink:href="#DejaVuSans-32"/>
     <use transform="translate(1297.368164 0.015625)" xlink:href="#DejaVuSans-68"/>
     <use transform="translate(1374.370117 0.015625)" xlink:href="#DejaVuSans-78"/>
     <use transform="translate(1449.174805 0.015625)" xlink:href="#DejaVuSans-78"/>
     <use transform="translate(1523.979492 0.015625)" xlink:href="#DejaVuSans-32"/>
     <use transform="translate(1555.766602 0.015625)" xlink:href="#DejaVuSans-40"/>
     <use transform="translate(1594.780273 0.015625)" xlink:href="#DejaVuSans-77"/>
     <use transform="translate(1681.05957 0.015625)" xlink:href="#DejaVuSans-83"/>
     <use transform="translate(1744.536133 0.015625)" xlink:href="#DejaVuSans-69"/>
     <use transform="translate(1807.719727 0.015625)" xlink:href="#DejaVuSans-58"/>
     <use transform="translate(1841.411133 0.015625)" xlink:href="#DejaVuSans-32"/>
     <use transform="translate(1873.198242 0.015625)" xlink:href="#DejaVuSans-49"/>
     <use transform="translate(1936.821289 0.015625)" xlink:href="#DejaVuSans-48"/>
     <use transform="translate(2000.444336 0.015625)" xlink:href="#DejaVuSans-56"/>
     <use transform="translate(2064.067383 0.015625)" xlink:href="#DejaVuSans-46"/>
     <use transform="translate(2095.854492 0.015625)" xlink:href="#DejaVuSans-48"/>
     <use transform="translate(2159.477539 0.015625)" xlink:href="#DejaVuSans-44"/>
     <use transform="translate(2191.264648 0.015625)" xlink:href="#DejaVuSans-32"/>
     <use transform="translate(2223.051758 0.015625)" xlink:href="#DejaVuSans-115"/>
     <use transform="translate(2275.151367 0.015625)" xlink:href="#DejaVuSans-77"/>
     <use transform="translate(2361.430664 0.015625)" xlink:href="#DejaVuSans-65"/>
     <use transform="translate(2429.838867 0.015625)" xlink:href="#DejaVuSans-80"/>
     <use transform="translate(2490.141602 0.015625)" xlink:href="#DejaVuSans-69"/>
     <use transform="translate(2553.325195 0.015625)" xlink:href="#DejaVuSans-58"/>
     <use transform="translate(2587.016602 0.015625)" xlink:href="#DejaVuSans-32"/>
     <use transform="translate(2618.803711 0.015625)" xlink:href="#DejaVuSans-52"/>
     <use transform="translate(2682.426758 0.015625)" xlink:href="#DejaVuSans-55"/>
     <use transform="translate(2746.049805 0.015625)" xlink:href="#DejaVuSans-46"/>
     <use transform="translate(2772.336914 0.015625)" xlink:href="#DejaVuSans-50"/>
     <use transform="translate(2835.959961 0.015625)" xlink:href="#DejaVuSans-50"/>
     <use transform="translate(2899.583008 0.015625)" xlink:href="#DejaVuSans-37"/>
     <use transform="translate(2994.602539 0.015625)" xlink:href="#DejaVuSans-44"/>
     <use transform="translate(3026.389648 0.015625)" xlink:href="#DejaVuSans-32"/>
     <use transform="translate(3058.176758 0.015625)" xlink:href="#DejaVuSans-77"/>
     <use transform="translate(3144.456055 0.015625)" xlink:href="#DejaVuSans-65"/>
     <use transform="translate(3212.864258 0.015625)" xlink:href="#DejaVuSans-83"/>
     <use transform="translate(3276.34082 0.015625)" xlink:href="#DejaVuSans-69"/>
     <use transform="translate(3339.524414 0.015625)" xlink:href="#DejaVuSans-58"/>
     <use transform="translate(3373.21582 0.015625)" xlink:href="#DejaVuSans-32"/>
     <use transform="translate(3405.00293 0.015625)" xlink:href="#DejaVuSans-49"/>
     <use transform="translate(3468.625977 0.015625)" xlink:href="#DejaVuSans-46"/>
     <use transform="translate(3500.413086 0.015625)" xlink:href="#DejaVuSans-48"/>
     <use transform="translate(3564.036133 0.015625)" xlink:href="#DejaVuSans-41"/>
    </g>
   </g>
   <g id="legend_1">
    <g id="patch_7">
     <path d="M 431.965625 89.19625 
L 511.4 89.19625 
Q 513.4 89.19625 513.4 87.19625 
L 513.4 58.84 
Q 513.4 56.84 511.4 56.84 
L 431.965625 56.84 
Q 429.965625 56.84 429.965625 58.84 
L 429.965625 87.19625 
Q 429.965625 89.19625 431.965625 89.19625 
z
" style="fill:#ffffff;opacity:0.8;stroke:#cccccc;stroke-linejoin:miter;"/>
    </g>
    <g id="line2d_35">
     <path d="M 433.965625 64.938437 
L 453.965625 64.938437 
" style="fill:none;stroke:#1f77b4;stroke-linecap:square;stroke-width:1.5;"/>
    </g>
    <g id="line2d_36"/>
    <g id="text_20">
     <!-- expected -->
     <g transform="translate(461.965625 68.438437)scale(0.1 -0.1)">
      <defs>
       <path d="M 56.203125 29.59375 
L 56.203125 25.203125 
L 14.890625 25.203125 
Q 15.484375 15.921875 20.484375 11.0625 
Q 25.484375 6.203125 34.421875 6.203125 
Q 39.59375 6.203125 44.453125 7.46875 
Q 49.3125 8.734375 54.109375 11.28125 
L 54.109375 2.78125 
Q 49.265625 0.734375 44.1875 -0.34375 
Q 39.109375 -1.421875 33.890625 -1.421875 
Q 20.796875 -1.421875 13.15625 6.1875 
Q 5.515625 13.8125 5.515625 26.8125 
Q 5.515625 40.234375 12.765625 48.109375 
Q 20.015625 56 32.328125 56 
Q 43.359375 56 49.78125 48.890625 
Q 56.203125 41.796875 56.203125 29.59375 
z
M 47.21875 32.234375 
Q 47.125 39.59375 43.09375 43.984375 
Q 39.0625 48.390625 32.421875 48.390625 
Q 24.90625 48.390625 20.390625 44.140625 
Q 15.875 39.890625 15.1875 32.171875 
z
" id="DejaVuSans-101"/>
       <path d="M 18.109375 8.203125 
L 18.109375 -20.796875 
L 9.078125 -20.796875 
L 9.078125 54.6875 
L 18.109375 54.6875 
L 18.109375 46.390625 
Q 20.953125 51.265625 25.265625 53.625 
Q 29.59375 56 35.59375 56 
Q 45.5625 56 51.78125 48.09375 
Q 58.015625 40.1875 58.015625 27.296875 
Q 58.015625 14.40625 51.78125 6.484375 
Q 45.5625 -1.421875 35.59375 -1.421875 
Q 29.59375 -1.421875 25.265625 0.953125 
Q 20.953125 3.328125 18.109375 8.203125 
z
M 48.6875 27.296875 
Q 48.6875 37.203125 44.609375 42.84375 
Q 40.53125 48.484375 33.40625 48.484375 
Q 26.265625 48.484375 22.1875 42.84375 
Q 18.109375 37.203125 18.109375 27.296875 
Q 18.109375 17.390625 22.1875 11.75 
Q 26.265625 6.109375 33.40625 6.109375 
Q 40.53125 6.109375 44.609375 11.75 
Q 48.6875 17.390625 48.6875 27.296875 
z
" id="DejaVuSans-112"/>
       <path d="M 48.78125 52.59375 
L 48.78125 44.1875 
Q 44.96875 46.296875 41.140625 47.34375 
Q 37.3125 48.390625 33.40625 48.390625 
Q 24.65625 48.390625 19.8125 42.84375 
Q 14.984375 37.3125 14.984375 27.296875 
Q 14.984375 17.28125 19.8125 11.734375 
Q 24.65625 6.203125 33.40625 6.203125 
Q 37.3125 6.203125 41.140625 7.25 
Q 44.96875 8.296875 48.78125 10.40625 
L 48.78125 2.09375 
Q 45.015625 0.34375 40.984375 -0.53125 
Q 36.96875 -1.421875 32.421875 -1.421875 
Q 20.0625 -1.421875 12.78125 6.34375 
Q 5.515625 14.109375 5.515625 27.296875 
Q 5.515625 40.671875 12.859375 48.328125 
Q 20.21875 56 33.015625 56 
Q 37.15625 56 41.109375 55.140625 
Q 45.0625 54.296875 48.78125 52.59375 
z
" id="DejaVuSans-99"/>
       <path d="M 18.3125 70.21875 
L 18.3125 54.6875 
L 36.8125 54.6875 
L 36.8125 47.703125 
L 18.3125 47.703125 
L 18.3125 18.015625 
Q 18.3125 11.328125 20.140625 9.421875 
Q 21.96875 7.515625 27.59375 7.515625 
L 36.8125 7.515625 
L 36.8125 0 
L 27.59375 0 
Q 17.1875 0 13.234375 3.875 
Q 9.28125 7.765625 9.28125 18.015625 
L 9.28125 47.703125 
L 2.6875 47.703125 
L 2.6875 54.6875 
L 9.28125 54.6875 
L 9.28125 70.21875 
z
" id="DejaVuSans-116"/>
      </defs>
      <use xlink:href="#DejaVuSans-101"/>
      <use x="59.773438" xlink:href="#DejaVuSans-120"/>
      <use x="118.953125" xlink:href="#DejaVuSans-112"/>
      <use x="182.429688" xlink:href="#DejaVuSans-101"/>
      <use x="243.953125" xlink:href="#DejaVuSans-99"/>
      <use x="298.933594" xlink:href="#DejaVuSans-116"/>
      <use x="338.142578" xlink:href="#DejaVuSans-101"/>
      <use x="399.666016" xlink:href="#DejaVuSans-100"/>
     </g>
    </g>
    <g id="line2d_37">
     <path d="M 433.965625 79.616562 
L 453.965625 79.616562 
" style="fill:none;stroke:#ff7f0e;stroke-linecap:square;stroke-width:1.5;"/>
    </g>
    <g id="line2d_38"/>
    <g id="text_21">
     <!-- predicted -->
     <g transform="translate(461.965625 83.116562)scale(0.1 -0.1)">
      <defs>
       <path d="M 9.421875 54.6875 
L 18.40625 54.6875 
L 18.40625 0 
L 9.421875 0 
z
M 9.421875 75.984375 
L 18.40625 75.984375 
L 18.40625 64.59375 
L 9.421875 64.59375 
z
" id="DejaVuSans-105"/>
      </defs>
      <use xlink:href="#DejaVuSans-112"/>
      <use x="63.476562" xlink:href="#DejaVuSans-114"/>
      <use x="102.339844" xlink:href="#DejaVuSans-101"/>
      <use x="163.863281" xlink:href="#DejaVuSans-100"/>
      <use x="227.339844" xlink:href="#DejaVuSans-105"/>
      <use x="255.123047" xlink:href="#DejaVuSans-99"/>
      <use x="310.103516" xlink:href="#DejaVuSans-116"/>
      <use x="349.3125" xlink:href="#DejaVuSans-101"/>
      <use x="410.835938" xlink:href="#DejaVuSans-100"/>
     </g>
    </g>
   </g>
  </g>
 </g>
 <defs>
  <clipPath id="p16ddc019e6">
   <rect height="332.64" width="446.4" x="72" y="51.84"/>
  </clipPath>
 </defs>
</svg>
