<?xml version="1.0" encoding="utf-8" standalone="no"?>
<!DOCTYPE svg PUBLIC "-//W3C//DTD SVG 1.1//EN"
  "http://www.w3.org/Graphics/SVG/1.1/DTD/svg11.dtd">
<!-- Created with matplotlib (https://matplotlib.org/) -->
<svg height="432pt" version="1.1" viewBox="0 0 576 432" width="576pt" xmlns="http://www.w3.org/2000/svg" xmlns:xlink="http://www.w3.org/1999/xlink">
 <metadata>
  <rdf:RDF xmlns:cc="http://creativecommons.org/ns#" xmlns:dc="http://purl.org/dc/elements/1.1/" xmlns:rdf="http://www.w3.org/1999/02/22-rdf-syntax-ns#">
   <cc:Work>
    <dc:type rdf:resource="http://purl.org/dc/dcmitype/StillImage"/>
    <dc:date>2020-12-06T18:30:34.668267</dc:date>
    <dc:format>image/svg+xml</dc:format>
    <dc:creator>
     <cc:Agent>
      <dc:title>Matplotlib v3.3.2, https://matplotlib.org/</dc:title>
     </cc:Agent>
    </dc:creator>
   </cc:Work>
  </rdf:RDF>
 </metadata>
 <defs>
  <style type="text/css">*{stroke-linecap:butt;stroke-linejoin:round;}</style>
 </defs>
 <g id="figure_1">
  <g id="patch_1">
   <path d="M 0 432 
L 576 432 
L 576 0 
L 0 0 
z
" style="fill:#ffffff;"/>
  </g>
  <g id="axes_1">
   <g id="patch_2">
    <path d="M 72 384.48 
L 518.4 384.48 
L 518.4 51.84 
L 72 51.84 
z
" style="fill:#ffffff;"/>
   </g>
   <g id="matplotlib.axis_1">
    <g id="xtick_1">
     <g id="line2d_1">
      <path clip-path="url(#pf50262e8af)" d="M 92.290909 384.48 
L 92.290909 51.84 
" style="fill:none;stroke:#b0b0b0;stroke-linecap:square;stroke-width:0.8;"/>
     </g>
     <g id="line2d_2">
      <defs>
       <path d="M 0 0 
L 0 3.5 
" id="m9121c88095" style="stroke:#000000;stroke-width:0.8;"/>
      </defs>
      <g>
       <use style="stroke:#000000;stroke-width:0.8;" x="92.290909" xlink:href="#m9121c88095" y="384.48"/>
      </g>
     </g>
     <g id="text_1">
      <!-- 0 -->
      <g transform="translate(89.109659 399.078438)scale(0.1 -0.1)">
       <defs>
        <path d="M 31.78125 66.40625 
Q 24.171875 66.40625 20.328125 58.90625 
Q 16.5 51.421875 16.5 36.375 
Q 16.5 21.390625 20.328125 13.890625 
Q 24.171875 6.390625 31.78125 6.390625 
Q 39.453125 6.390625 43.28125 13.890625 
Q 47.125 21.390625 47.125 36.375 
Q 47.125 51.421875 43.28125 58.90625 
Q 39.453125 66.40625 31.78125 66.40625 
z
M 31.78125 74.21875 
Q 44.046875 74.21875 50.515625 64.515625 
Q 56.984375 54.828125 56.984375 36.375 
Q 56.984375 17.96875 50.515625 8.265625 
Q 44.046875 -1.421875 31.78125 -1.421875 
Q 19.53125 -1.421875 13.0625 8.265625 
Q 6.59375 17.96875 6.59375 36.375 
Q 6.59375 54.828125 13.0625 64.515625 
Q 19.53125 74.21875 31.78125 74.21875 
z
" id="DejaVuSans-48"/>
       </defs>
       <use xlink:href="#DejaVuSans-48"/>
      </g>
     </g>
    </g>
    <g id="xtick_2">
     <g id="line2d_3">
      <path clip-path="url(#pf50262e8af)" d="M 148.035165 384.48 
L 148.035165 51.84 
" style="fill:none;stroke:#b0b0b0;stroke-linecap:square;stroke-width:0.8;"/>
     </g>
     <g id="line2d_4">
      <g>
       <use style="stroke:#000000;stroke-width:0.8;" x="148.035165" xlink:href="#m9121c88095" y="384.48"/>
      </g>
     </g>
     <g id="text_2">
      <!-- 50 -->
      <g transform="translate(141.672665 399.078438)scale(0.1 -0.1)">
       <defs>
        <path d="M 10.796875 72.90625 
L 49.515625 72.90625 
L 49.515625 64.59375 
L 19.828125 64.59375 
L 19.828125 46.734375 
Q 21.96875 47.46875 24.109375 47.828125 
Q 26.265625 48.1875 28.421875 48.1875 
Q 40.625 48.1875 47.75 41.5 
Q 54.890625 34.8125 54.890625 23.390625 
Q 54.890625 11.625 47.5625 5.09375 
Q 40.234375 -1.421875 26.90625 -1.421875 
Q 22.3125 -1.421875 17.546875 -0.640625 
Q 12.796875 0.140625 7.71875 1.703125 
L 7.71875 11.625 
Q 12.109375 9.234375 16.796875 8.0625 
Q 21.484375 6.890625 26.703125 6.890625 
Q 35.15625 6.890625 40.078125 11.328125 
Q 45.015625 15.765625 45.015625 23.390625 
Q 45.015625 31 40.078125 35.4375 
Q 35.15625 39.890625 26.703125 39.890625 
Q 22.75 39.890625 18.8125 39.015625 
Q 14.890625 38.140625 10.796875 36.28125 
z
" id="DejaVuSans-53"/>
       </defs>
       <use xlink:href="#DejaVuSans-53"/>
       <use x="63.623047" xlink:href="#DejaVuSans-48"/>
      </g>
     </g>
    </g>
    <g id="xtick_3">
     <g id="line2d_5">
      <path clip-path="url(#pf50262e8af)" d="M 203.779421 384.48 
L 203.779421 51.84 
" style="fill:none;stroke:#b0b0b0;stroke-linecap:square;stroke-width:0.8;"/>
     </g>
     <g id="line2d_6">
      <g>
       <use style="stroke:#000000;stroke-width:0.8;" x="203.779421" xlink:href="#m9121c88095" y="384.48"/>
      </g>
     </g>
     <g id="text_3">
      <!-- 100 -->
      <g transform="translate(194.235671 399.078438)scale(0.1 -0.1)">
       <defs>
        <path d="M 12.40625 8.296875 
L 28.515625 8.296875 
L 28.515625 63.921875 
L 10.984375 60.40625 
L 10.984375 69.390625 
L 28.421875 72.90625 
L 38.28125 72.90625 
L 38.28125 8.296875 
L 54.390625 8.296875 
L 54.390625 0 
L 12.40625 0 
z
" id="DejaVuSans-49"/>
       </defs>
       <use xlink:href="#DejaVuSans-49"/>
       <use x="63.623047" xlink:href="#DejaVuSans-48"/>
       <use x="127.246094" xlink:href="#DejaVuSans-48"/>
      </g>
     </g>
    </g>
    <g id="xtick_4">
     <g id="line2d_7">
      <path clip-path="url(#pf50262e8af)" d="M 259.523676 384.48 
L 259.523676 51.84 
" style="fill:none;stroke:#b0b0b0;stroke-linecap:square;stroke-width:0.8;"/>
     </g>
     <g id="line2d_8">
      <g>
       <use style="stroke:#000000;stroke-width:0.8;" x="259.523676" xlink:href="#m9121c88095" y="384.48"/>
      </g>
     </g>
     <g id="text_4">
      <!-- 150 -->
      <g transform="translate(249.979926 399.078438)scale(0.1 -0.1)">
       <use xlink:href="#DejaVuSans-49"/>
       <use x="63.623047" xlink:href="#DejaVuSans-53"/>
       <use x="127.246094" xlink:href="#DejaVuSans-48"/>
      </g>
     </g>
    </g>
    <g id="xtick_5">
     <g id="line2d_9">
      <path clip-path="url(#pf50262e8af)" d="M 315.267932 384.48 
L 315.267932 51.84 
" style="fill:none;stroke:#b0b0b0;stroke-linecap:square;stroke-width:0.8;"/>
     </g>
     <g id="line2d_10">
      <g>
       <use style="stroke:#000000;stroke-width:0.8;" x="315.267932" xlink:href="#m9121c88095" y="384.48"/>
      </g>
     </g>
     <g id="text_5">
      <!-- 200 -->
      <g transform="translate(305.724182 399.078438)scale(0.1 -0.1)">
       <defs>
        <path d="M 19.1875 8.296875 
L 53.609375 8.296875 
L 53.609375 0 
L 7.328125 0 
L 7.328125 8.296875 
Q 12.9375 14.109375 22.625 23.890625 
Q 32.328125 33.6875 34.8125 36.53125 
Q 39.546875 41.84375 41.421875 45.53125 
Q 43.3125 49.21875 43.3125 52.78125 
Q 43.3125 58.59375 39.234375 62.25 
Q 35.15625 65.921875 28.609375 65.921875 
Q 23.96875 65.921875 18.8125 64.3125 
Q 13.671875 62.703125 7.8125 59.421875 
L 7.8125 69.390625 
Q 13.765625 71.78125 18.9375 73 
Q 24.125 74.21875 28.421875 74.21875 
Q 39.75 74.21875 46.484375 68.546875 
Q 53.21875 62.890625 53.21875 53.421875 
Q 53.21875 48.921875 51.53125 44.890625 
Q 49.859375 40.875 45.40625 35.40625 
Q 44.1875 33.984375 37.640625 27.21875 
Q 31.109375 20.453125 19.1875 8.296875 
z
" id="DejaVuSans-50"/>
       </defs>
       <use xlink:href="#DejaVuSans-50"/>
       <use x="63.623047" xlink:href="#DejaVuSans-48"/>
       <use x="127.246094" xlink:href="#DejaVuSans-48"/>
      </g>
     </g>
    </g>
    <g id="xtick_6">
     <g id="line2d_11">
      <path clip-path="url(#pf50262e8af)" d="M 371.012188 384.48 
L 371.012188 51.84 
" style="fill:none;stroke:#b0b0b0;stroke-linecap:square;stroke-width:0.8;"/>
     </g>
     <g id="line2d_12">
      <g>
       <use style="stroke:#000000;stroke-width:0.8;" x="371.012188" xlink:href="#m9121c88095" y="384.48"/>
      </g>
     </g>
     <g id="text_6">
      <!-- 250 -->
      <g transform="translate(361.468438 399.078438)scale(0.1 -0.1)">
       <use xlink:href="#DejaVuSans-50"/>
       <use x="63.623047" xlink:href="#DejaVuSans-53"/>
       <use x="127.246094" xlink:href="#DejaVuSans-48"/>
      </g>
     </g>
    </g>
    <g id="xtick_7">
     <g id="line2d_13">
      <path clip-path="url(#pf50262e8af)" d="M 426.756444 384.48 
L 426.756444 51.84 
" style="fill:none;stroke:#b0b0b0;stroke-linecap:square;stroke-width:0.8;"/>
     </g>
     <g id="line2d_14">
      <g>
       <use style="stroke:#000000;stroke-width:0.8;" x="426.756444" xlink:href="#m9121c88095" y="384.48"/>
      </g>
     </g>
     <g id="text_7">
      <!-- 300 -->
      <g transform="translate(417.212694 399.078438)scale(0.1 -0.1)">
       <defs>
        <path d="M 40.578125 39.3125 
Q 47.65625 37.796875 51.625 33 
Q 55.609375 28.21875 55.609375 21.1875 
Q 55.609375 10.40625 48.1875 4.484375 
Q 40.765625 -1.421875 27.09375 -1.421875 
Q 22.515625 -1.421875 17.65625 -0.515625 
Q 12.796875 0.390625 7.625 2.203125 
L 7.625 11.71875 
Q 11.71875 9.328125 16.59375 8.109375 
Q 21.484375 6.890625 26.8125 6.890625 
Q 36.078125 6.890625 40.9375 10.546875 
Q 45.796875 14.203125 45.796875 21.1875 
Q 45.796875 27.640625 41.28125 31.265625 
Q 36.765625 34.90625 28.71875 34.90625 
L 20.21875 34.90625 
L 20.21875 43.015625 
L 29.109375 43.015625 
Q 36.375 43.015625 40.234375 45.921875 
Q 44.09375 48.828125 44.09375 54.296875 
Q 44.09375 59.90625 40.109375 62.90625 
Q 36.140625 65.921875 28.71875 65.921875 
Q 24.65625 65.921875 20.015625 65.03125 
Q 15.375 64.15625 9.8125 62.3125 
L 9.8125 71.09375 
Q 15.4375 72.65625 20.34375 73.4375 
Q 25.25 74.21875 29.59375 74.21875 
Q 40.828125 74.21875 47.359375 69.109375 
Q 53.90625 64.015625 53.90625 55.328125 
Q 53.90625 49.265625 50.4375 45.09375 
Q 46.96875 40.921875 40.578125 39.3125 
z
" id="DejaVuSans-51"/>
       </defs>
       <use xlink:href="#DejaVuSans-51"/>
       <use x="63.623047" xlink:href="#DejaVuSans-48"/>
       <use x="127.246094" xlink:href="#DejaVuSans-48"/>
      </g>
     </g>
    </g>
    <g id="xtick_8">
     <g id="line2d_15">
      <path clip-path="url(#pf50262e8af)" d="M 482.500699 384.48 
L 482.500699 51.84 
" style="fill:none;stroke:#b0b0b0;stroke-linecap:square;stroke-width:0.8;"/>
     </g>
     <g id="line2d_16">
      <g>
       <use style="stroke:#000000;stroke-width:0.8;" x="482.500699" xlink:href="#m9121c88095" y="384.48"/>
      </g>
     </g>
     <g id="text_8">
      <!-- 350 -->
      <g transform="translate(472.956949 399.078438)scale(0.1 -0.1)">
       <use xlink:href="#DejaVuSans-51"/>
       <use x="63.623047" xlink:href="#DejaVuSans-53"/>
       <use x="127.246094" xlink:href="#DejaVuSans-48"/>
      </g>
     </g>
    </g>
    <g id="text_9">
     <!-- Day -->
     <g transform="translate(285.326562 412.756563)scale(0.1 -0.1)">
      <defs>
       <path d="M 19.671875 64.796875 
L 19.671875 8.109375 
L 31.59375 8.109375 
Q 46.6875 8.109375 53.6875 14.9375 
Q 60.6875 21.78125 60.6875 36.53125 
Q 60.6875 51.171875 53.6875 57.984375 
Q 46.6875 64.796875 31.59375 64.796875 
z
M 9.8125 72.90625 
L 30.078125 72.90625 
Q 51.265625 72.90625 61.171875 64.09375 
Q 71.09375 55.28125 71.09375 36.53125 
Q 71.09375 17.671875 61.125 8.828125 
Q 51.171875 0 30.078125 0 
L 9.8125 0 
z
" id="DejaVuSans-68"/>
       <path d="M 34.28125 27.484375 
Q 23.390625 27.484375 19.1875 25 
Q 14.984375 22.515625 14.984375 16.5 
Q 14.984375 11.71875 18.140625 8.90625 
Q 21.296875 6.109375 26.703125 6.109375 
Q 34.1875 6.109375 38.703125 11.40625 
Q 43.21875 16.703125 43.21875 25.484375 
L 43.21875 27.484375 
z
M 52.203125 31.203125 
L 52.203125 0 
L 43.21875 0 
L 43.21875 8.296875 
Q 40.140625 3.328125 35.546875 0.953125 
Q 30.953125 -1.421875 24.3125 -1.421875 
Q 15.921875 -1.421875 10.953125 3.296875 
Q 6 8.015625 6 15.921875 
Q 6 25.140625 12.171875 29.828125 
Q 18.359375 34.515625 30.609375 34.515625 
L 43.21875 34.515625 
L 43.21875 35.40625 
Q 43.21875 41.609375 39.140625 45 
Q 35.0625 48.390625 27.6875 48.390625 
Q 23 48.390625 18.546875 47.265625 
Q 14.109375 46.140625 10.015625 43.890625 
L 10.015625 52.203125 
Q 14.9375 54.109375 19.578125 55.046875 
Q 24.21875 56 28.609375 56 
Q 40.484375 56 46.34375 49.84375 
Q 52.203125 43.703125 52.203125 31.203125 
z
" id="DejaVuSans-97"/>
       <path d="M 32.171875 -5.078125 
Q 28.375 -14.84375 24.75 -17.8125 
Q 21.140625 -20.796875 15.09375 -20.796875 
L 7.90625 -20.796875 
L 7.90625 -13.28125 
L 13.1875 -13.28125 
Q 16.890625 -13.28125 18.9375 -11.515625 
Q 21 -9.765625 23.484375 -3.21875 
L 25.09375 0.875 
L 2.984375 54.6875 
L 12.5 54.6875 
L 29.59375 11.921875 
L 46.6875 54.6875 
L 56.203125 54.6875 
z
" id="DejaVuSans-121"/>
      </defs>
      <use xlink:href="#DejaVuSans-68"/>
      <use x="77.001953" xlink:href="#DejaVuSans-97"/>
      <use x="138.28125" xlink:href="#DejaVuSans-121"/>
     </g>
    </g>
   </g>
   <g id="matplotlib.axis_2">
    <g id="ytick_1">
     <g id="line2d_17">
      <path clip-path="url(#pf50262e8af)" d="M 72 352.466579 
L 518.4 352.466579 
" style="fill:none;stroke:#b0b0b0;stroke-linecap:square;stroke-width:0.8;"/>
     </g>
     <g id="line2d_18">
      <defs>
       <path d="M 0 0 
L -3.5 0 
" id="m60f2ee2463" style="stroke:#000000;stroke-width:0.8;"/>
      </defs>
      <g>
       <use style="stroke:#000000;stroke-width:0.8;" x="72" xlink:href="#m60f2ee2463" y="352.466579"/>
      </g>
     </g>
     <g id="text_10">
      <!-- 0 -->
      <g transform="translate(58.6375 356.265798)scale(0.1 -0.1)">
       <use xlink:href="#DejaVuSans-48"/>
      </g>
     </g>
    </g>
    <g id="ytick_2">
     <g id="line2d_19">
      <path clip-path="url(#pf50262e8af)" d="M 72 309.330769 
L 518.4 309.330769 
" style="fill:none;stroke:#b0b0b0;stroke-linecap:square;stroke-width:0.8;"/>
     </g>
     <g id="line2d_20">
      <g>
       <use style="stroke:#000000;stroke-width:0.8;" x="72" xlink:href="#m60f2ee2463" y="309.330769"/>
      </g>
     </g>
     <g id="text_11">
      <!-- 10 -->
      <g transform="translate(52.275 313.129988)scale(0.1 -0.1)">
       <use xlink:href="#DejaVuSans-49"/>
       <use x="63.623047" xlink:href="#DejaVuSans-48"/>
      </g>
     </g>
    </g>
    <g id="ytick_3">
     <g id="line2d_21">
      <path clip-path="url(#pf50262e8af)" d="M 72 266.194959 
L 518.4 266.194959 
" style="fill:none;stroke:#b0b0b0;stroke-linecap:square;stroke-width:0.8;"/>
     </g>
     <g id="line2d_22">
      <g>
       <use style="stroke:#000000;stroke-width:0.8;" x="72" xlink:href="#m60f2ee2463" y="266.194959"/>
      </g>
     </g>
     <g id="text_12">
      <!-- 20 -->
      <g transform="translate(52.275 269.994178)scale(0.1 -0.1)">
       <use xlink:href="#DejaVuSans-50"/>
       <use x="63.623047" xlink:href="#DejaVuSans-48"/>
      </g>
     </g>
    </g>
    <g id="ytick_4">
     <g id="line2d_23">
      <path clip-path="url(#pf50262e8af)" d="M 72 223.05915 
L 518.4 223.05915 
" style="fill:none;stroke:#b0b0b0;stroke-linecap:square;stroke-width:0.8;"/>
     </g>
     <g id="line2d_24">
      <g>
       <use style="stroke:#000000;stroke-width:0.8;" x="72" xlink:href="#m60f2ee2463" y="223.05915"/>
      </g>
     </g>
     <g id="text_13">
      <!-- 30 -->
      <g transform="translate(52.275 226.858368)scale(0.1 -0.1)">
       <use xlink:href="#DejaVuSans-51"/>
       <use x="63.623047" xlink:href="#DejaVuSans-48"/>
      </g>
     </g>
    </g>
    <g id="ytick_5">
     <g id="line2d_25">
      <path clip-path="url(#pf50262e8af)" d="M 72 179.92334 
L 518.4 179.92334 
" style="fill:none;stroke:#b0b0b0;stroke-linecap:square;stroke-width:0.8;"/>
     </g>
     <g id="line2d_26">
      <g>
       <use style="stroke:#000000;stroke-width:0.8;" x="72" xlink:href="#m60f2ee2463" y="179.92334"/>
      </g>
     </g>
     <g id="text_14">
      <!-- 40 -->
      <g transform="translate(52.275 183.722559)scale(0.1 -0.1)">
       <defs>
        <path d="M 37.796875 64.3125 
L 12.890625 25.390625 
L 37.796875 25.390625 
z
M 35.203125 72.90625 
L 47.609375 72.90625 
L 47.609375 25.390625 
L 58.015625 25.390625 
L 58.015625 17.1875 
L 47.609375 17.1875 
L 47.609375 0 
L 37.796875 0 
L 37.796875 17.1875 
L 4.890625 17.1875 
L 4.890625 26.703125 
z
" id="DejaVuSans-52"/>
       </defs>
       <use xlink:href="#DejaVuSans-52"/>
       <use x="63.623047" xlink:href="#DejaVuSans-48"/>
      </g>
     </g>
    </g>
    <g id="ytick_6">
     <g id="line2d_27">
      <path clip-path="url(#pf50262e8af)" d="M 72 136.78753 
L 518.4 136.78753 
" style="fill:none;stroke:#b0b0b0;stroke-linecap:square;stroke-width:0.8;"/>
     </g>
     <g id="line2d_28">
      <g>
       <use style="stroke:#000000;stroke-width:0.8;" x="72" xlink:href="#m60f2ee2463" y="136.78753"/>
      </g>
     </g>
     <g id="text_15">
      <!-- 50 -->
      <g transform="translate(52.275 140.586749)scale(0.1 -0.1)">
       <use xlink:href="#DejaVuSans-53"/>
       <use x="63.623047" xlink:href="#DejaVuSans-48"/>
      </g>
     </g>
    </g>
    <g id="ytick_7">
     <g id="line2d_29">
      <path clip-path="url(#pf50262e8af)" d="M 72 93.65172 
L 518.4 93.65172 
" style="fill:none;stroke:#b0b0b0;stroke-linecap:square;stroke-width:0.8;"/>
     </g>
     <g id="line2d_30">
      <g>
       <use style="stroke:#000000;stroke-width:0.8;" x="72" xlink:href="#m60f2ee2463" y="93.65172"/>
      </g>
     </g>
     <g id="text_16">
      <!-- 60 -->
      <g transform="translate(52.275 97.450939)scale(0.1 -0.1)">
       <defs>
        <path d="M 33.015625 40.375 
Q 26.375 40.375 22.484375 35.828125 
Q 18.609375 31.296875 18.609375 23.390625 
Q 18.609375 15.53125 22.484375 10.953125 
Q 26.375 6.390625 33.015625 6.390625 
Q 39.65625 6.390625 43.53125 10.953125 
Q 47.40625 15.53125 47.40625 23.390625 
Q 47.40625 31.296875 43.53125 35.828125 
Q 39.65625 40.375 33.015625 40.375 
z
M 52.59375 71.296875 
L 52.59375 62.3125 
Q 48.875 64.0625 45.09375 64.984375 
Q 41.3125 65.921875 37.59375 65.921875 
Q 27.828125 65.921875 22.671875 59.328125 
Q 17.53125 52.734375 16.796875 39.40625 
Q 19.671875 43.65625 24.015625 45.921875 
Q 28.375 48.1875 33.59375 48.1875 
Q 44.578125 48.1875 50.953125 41.515625 
Q 57.328125 34.859375 57.328125 23.390625 
Q 57.328125 12.15625 50.6875 5.359375 
Q 44.046875 -1.421875 33.015625 -1.421875 
Q 20.359375 -1.421875 13.671875 8.265625 
Q 6.984375 17.96875 6.984375 36.375 
Q 6.984375 53.65625 15.1875 63.9375 
Q 23.390625 74.21875 37.203125 74.21875 
Q 40.921875 74.21875 44.703125 73.484375 
Q 48.484375 72.75 52.59375 71.296875 
z
" id="DejaVuSans-54"/>
       </defs>
       <use xlink:href="#DejaVuSans-54"/>
       <use x="63.623047" xlink:href="#DejaVuSans-48"/>
      </g>
     </g>
    </g>
    <g id="text_17">
     <!-- max 8h 'r'$O_3$ $[\mu g/m^3$] -->
     <g transform="translate(46.175 270.71)rotate(-90)scale(0.1 -0.1)">
      <defs>
       <path d="M 52 44.1875 
Q 55.375 50.25 60.0625 53.125 
Q 64.75 56 71.09375 56 
Q 79.640625 56 84.28125 50.015625 
Q 88.921875 44.046875 88.921875 33.015625 
L 88.921875 0 
L 79.890625 0 
L 79.890625 32.71875 
Q 79.890625 40.578125 77.09375 44.375 
Q 74.3125 48.1875 68.609375 48.1875 
Q 61.625 48.1875 57.5625 43.546875 
Q 53.515625 38.921875 53.515625 30.90625 
L 53.515625 0 
L 44.484375 0 
L 44.484375 32.71875 
Q 44.484375 40.625 41.703125 44.40625 
Q 38.921875 48.1875 33.109375 48.1875 
Q 26.21875 48.1875 22.15625 43.53125 
Q 18.109375 38.875 18.109375 30.90625 
L 18.109375 0 
L 9.078125 0 
L 9.078125 54.6875 
L 18.109375 54.6875 
L 18.109375 46.1875 
Q 21.1875 51.21875 25.484375 53.609375 
Q 29.78125 56 35.6875 56 
Q 41.65625 56 45.828125 52.96875 
Q 50 49.953125 52 44.1875 
z
" id="DejaVuSans-109"/>
       <path d="M 54.890625 54.6875 
L 35.109375 28.078125 
L 55.90625 0 
L 45.3125 0 
L 29.390625 21.484375 
L 13.484375 0 
L 2.875 0 
L 24.125 28.609375 
L 4.6875 54.6875 
L 15.28125 54.6875 
L 29.78125 35.203125 
L 44.28125 54.6875 
z
" id="DejaVuSans-120"/>
       <path id="DejaVuSans-32"/>
       <path d="M 31.78125 34.625 
Q 24.75 34.625 20.71875 30.859375 
Q 16.703125 27.09375 16.703125 20.515625 
Q 16.703125 13.921875 20.71875 10.15625 
Q 24.75 6.390625 31.78125 6.390625 
Q 38.8125 6.390625 42.859375 10.171875 
Q 46.921875 13.96875 46.921875 20.515625 
Q 46.921875 27.09375 42.890625 30.859375 
Q 38.875 34.625 31.78125 34.625 
z
M 21.921875 38.8125 
Q 15.578125 40.375 12.03125 44.71875 
Q 8.5 49.078125 8.5 55.328125 
Q 8.5 64.0625 14.71875 69.140625 
Q 20.953125 74.21875 31.78125 74.21875 
Q 42.671875 74.21875 48.875 69.140625 
Q 55.078125 64.0625 55.078125 55.328125 
Q 55.078125 49.078125 51.53125 44.71875 
Q 48 40.375 41.703125 38.8125 
Q 48.828125 37.15625 52.796875 32.3125 
Q 56.78125 27.484375 56.78125 20.515625 
Q 56.78125 9.90625 50.3125 4.234375 
Q 43.84375 -1.421875 31.78125 -1.421875 
Q 19.734375 -1.421875 13.25 4.234375 
Q 6.78125 9.90625 6.78125 20.515625 
Q 6.78125 27.484375 10.78125 32.3125 
Q 14.796875 37.15625 21.921875 38.8125 
z
M 18.3125 54.390625 
Q 18.3125 48.734375 21.84375 45.5625 
Q 25.390625 42.390625 31.78125 42.390625 
Q 38.140625 42.390625 41.71875 45.5625 
Q 45.3125 48.734375 45.3125 54.390625 
Q 45.3125 60.0625 41.71875 63.234375 
Q 38.140625 66.40625 31.78125 66.40625 
Q 25.390625 66.40625 21.84375 63.234375 
Q 18.3125 60.0625 18.3125 54.390625 
z
" id="DejaVuSans-56"/>
       <path d="M 54.890625 33.015625 
L 54.890625 0 
L 45.90625 0 
L 45.90625 32.71875 
Q 45.90625 40.484375 42.875 44.328125 
Q 39.84375 48.1875 33.796875 48.1875 
Q 26.515625 48.1875 22.3125 43.546875 
Q 18.109375 38.921875 18.109375 30.90625 
L 18.109375 0 
L 9.078125 0 
L 9.078125 75.984375 
L 18.109375 75.984375 
L 18.109375 46.1875 
Q 21.34375 51.125 25.703125 53.5625 
Q 30.078125 56 35.796875 56 
Q 45.21875 56 50.046875 50.171875 
Q 54.890625 44.34375 54.890625 33.015625 
z
" id="DejaVuSans-104"/>
       <path d="M 17.921875 72.90625 
L 17.921875 45.796875 
L 9.625 45.796875 
L 9.625 72.90625 
z
" id="DejaVuSans-39"/>
       <path d="M 41.109375 46.296875 
Q 39.59375 47.171875 37.8125 47.578125 
Q 36.03125 48 33.890625 48 
Q 26.265625 48 22.1875 43.046875 
Q 18.109375 38.09375 18.109375 28.8125 
L 18.109375 0 
L 9.078125 0 
L 9.078125 54.6875 
L 18.109375 54.6875 
L 18.109375 46.1875 
Q 20.953125 51.171875 25.484375 53.578125 
Q 30.03125 56 36.53125 56 
Q 37.453125 56 38.578125 55.875 
Q 39.703125 55.765625 41.0625 55.515625 
z
" id="DejaVuSans-114"/>
       <path d="M 45.609375 66.21875 
Q 37.5 66.21875 31.296875 62.28125 
Q 25.09375 58.34375 20.515625 50.296875 
Q 17.578125 45.171875 16.03125 39.40625 
Q 14.5 33.640625 14.5 27.78125 
Q 14.5 17.625 19.359375 12.109375 
Q 24.21875 6.59375 33.109375 6.59375 
Q 41.109375 6.59375 47.375 10.5625 
Q 53.65625 14.546875 58.109375 22.40625 
Q 61.078125 27.6875 62.640625 33.46875 
Q 64.203125 39.265625 64.203125 45.015625 
Q 64.203125 55.125 59.3125 60.671875 
Q 54.4375 66.21875 45.609375 66.21875 
z
M 32.8125 -1.421875 
Q 19.390625 -1.421875 11.6875 6.53125 
Q 4 14.5 4 28.328125 
Q 4 36.234375 7 44.484375 
Q 10.015625 52.734375 15.28125 59.1875 
Q 21.484375 66.75 29.09375 70.484375 
Q 36.71875 74.21875 45.90625 74.21875 
Q 59.28125 74.21875 66.984375 66.328125 
Q 74.703125 58.453125 74.703125 44.828125 
Q 74.703125 36.421875 71.765625 28.3125 
Q 68.84375 20.21875 63.375 13.625 
Q 57.125 6 49.578125 2.28125 
Q 42.046875 -1.421875 32.8125 -1.421875 
z
" id="DejaVuSans-Oblique-79"/>
       <path d="M 8.59375 75.984375 
L 29.296875 75.984375 
L 29.296875 69 
L 17.578125 69 
L 17.578125 -6.203125 
L 29.296875 -6.203125 
L 29.296875 -13.1875 
L 8.59375 -13.1875 
z
" id="DejaVuSans-91"/>
       <path d="M -1.3125 -20.796875 
L 13.375 54.6875 
L 22.40625 54.6875 
L 15.765625 20.65625 
Q 15.578125 19.625 15.421875 18.359375 
Q 15.28125 17.09375 15.28125 15.828125 
Q 15.28125 11.28125 18.140625 8.828125 
Q 21 6.390625 26.3125 6.390625 
Q 33.546875 6.390625 37.984375 10.484375 
Q 42.4375 14.59375 44 22.796875 
L 50.203125 54.6875 
L 59.1875 54.6875 
L 51.03125 12.640625 
Q 50.828125 11.71875 50.75 11.03125 
Q 50.6875 10.359375 50.6875 9.8125 
Q 50.6875 8.296875 51.296875 7.59375 
Q 51.90625 6.890625 53.21875 6.890625 
Q 53.71875 6.890625 54.5625 7.125 
Q 55.421875 7.375 56.984375 8.015625 
L 55.609375 0.78125 
Q 53.46875 -0.296875 51.515625 -0.859375 
Q 49.5625 -1.421875 47.703125 -1.421875 
Q 44.484375 -1.421875 42.65625 0.625 
Q 40.828125 2.6875 40.828125 6.296875 
Q 38.09375 2.390625 34.296875 0.484375 
Q 30.515625 -1.421875 25.390625 -1.421875 
Q 20.84375 -1.421875 17.453125 0.671875 
Q 14.0625 2.78125 12.984375 6.203125 
L 7.71875 -20.796875 
z
" id="DejaVuSans-Oblique-956"/>
       <path d="M 59.625 54.6875 
L 50.296875 6.78125 
Q 47.609375 -7.125 40.015625 -13.953125 
Q 32.421875 -20.796875 19.578125 -20.796875 
Q 14.84375 -20.796875 10.78125 -20.09375 
Q 6.734375 -19.390625 3.21875 -17.921875 
L 4.890625 -9.1875 
Q 8.203125 -11.328125 11.90625 -12.34375 
Q 15.625 -13.375 19.828125 -13.375 
Q 28.375 -13.375 33.859375 -8.703125 
Q 39.359375 -4.046875 41.109375 4.6875 
L 41.890625 8.796875 
Q 38.140625 4.5 33.15625 2.25 
Q 28.171875 0 22.40625 0 
Q 14.109375 0 9.34375 5.484375 
Q 4.59375 10.984375 4.59375 20.609375 
Q 4.59375 28.171875 7.46875 35.421875 
Q 10.359375 42.671875 15.578125 48.296875 
Q 19.046875 52 23.65625 54 
Q 28.265625 56 33.296875 56 
Q 38.8125 56 42.90625 53.4375 
Q 47.015625 50.875 49.03125 46.1875 
L 50.59375 54.6875 
z
M 46.09375 34.625 
Q 46.09375 41.265625 42.96875 44.875 
Q 39.84375 48.484375 34.078125 48.484375 
Q 30.515625 48.484375 27.296875 47.0625 
Q 24.078125 45.65625 21.78125 43.109375 
Q 18.0625 38.921875 15.984375 33.234375 
Q 13.921875 27.546875 13.921875 21.484375 
Q 13.921875 14.75 17.0625 11.125 
Q 20.21875 7.515625 26.125 7.515625 
Q 34.671875 7.515625 40.375 15.25 
Q 46.09375 23 46.09375 34.625 
z
" id="DejaVuSans-Oblique-103"/>
       <path d="M 25.390625 72.90625 
L 33.6875 72.90625 
L 8.296875 -9.28125 
L 0 -9.28125 
z
" id="DejaVuSans-47"/>
       <path d="M 89.796875 33.015625 
L 83.40625 0 
L 74.421875 0 
L 80.71875 32.71875 
Q 81.109375 34.8125 81.296875 36.328125 
Q 81.5 37.84375 81.5 38.921875 
Q 81.5 43.3125 79.046875 45.75 
Q 76.609375 48.1875 72.21875 48.1875 
Q 65.671875 48.1875 60.546875 43.28125 
Q 55.421875 38.375 53.90625 30.515625 
L 47.90625 0 
L 38.921875 0 
L 45.3125 32.71875 
Q 45.703125 34.515625 45.890625 36.046875 
Q 46.09375 37.59375 46.09375 38.8125 
Q 46.09375 43.265625 43.65625 45.71875 
Q 41.21875 48.1875 36.921875 48.1875 
Q 30.28125 48.1875 25.140625 43.28125 
Q 20.015625 38.375 18.5 30.515625 
L 12.5 0 
L 3.515625 0 
L 14.203125 54.6875 
L 23.1875 54.6875 
L 21.484375 46.1875 
Q 25.140625 50.984375 30.046875 53.484375 
Q 34.96875 56 40.578125 56 
Q 46.53125 56 50.359375 52.875 
Q 54.203125 49.75 54.984375 44.1875 
Q 59.078125 49.953125 64.46875 52.96875 
Q 69.875 56 75.875 56 
Q 82.90625 56 86.734375 51.953125 
Q 90.578125 47.90625 90.578125 40.484375 
Q 90.578125 38.875 90.375 36.9375 
Q 90.1875 35.015625 89.796875 33.015625 
z
" id="DejaVuSans-Oblique-109"/>
       <path d="M 30.421875 75.984375 
L 30.421875 -13.1875 
L 9.71875 -13.1875 
L 9.71875 -6.203125 
L 21.390625 -6.203125 
L 21.390625 69 
L 9.71875 69 
L 9.71875 75.984375 
z
" id="DejaVuSans-93"/>
      </defs>
      <use transform="translate(0 0.765625)" xlink:href="#DejaVuSans-109"/>
      <use transform="translate(97.412109 0.765625)" xlink:href="#DejaVuSans-97"/>
      <use transform="translate(158.691406 0.765625)" xlink:href="#DejaVuSans-120"/>
      <use transform="translate(217.871094 0.765625)" xlink:href="#DejaVuSans-32"/>
      <use transform="translate(249.658203 0.765625)" xlink:href="#DejaVuSans-56"/>
      <use transform="translate(313.28125 0.765625)" xlink:href="#DejaVuSans-104"/>
      <use transform="translate(376.660156 0.765625)" xlink:href="#DejaVuSans-32"/>
      <use transform="translate(408.447266 0.765625)" xlink:href="#DejaVuSans-39"/>
      <use transform="translate(435.9375 0.765625)" xlink:href="#DejaVuSans-114"/>
      <use transform="translate(477.050781 0.765625)" xlink:href="#DejaVuSans-39"/>
      <use transform="translate(504.541016 0.765625)" xlink:href="#DejaVuSans-Oblique-79"/>
      <use transform="translate(583.251953 -15.640625)scale(0.7)" xlink:href="#DejaVuSans-51"/>
      <use transform="translate(630.522461 0.765625)" xlink:href="#DejaVuSans-32"/>
      <use transform="translate(662.30957 0.765625)" xlink:href="#DejaVuSans-91"/>
      <use transform="translate(701.323242 0.765625)" xlink:href="#DejaVuSans-Oblique-956"/>
      <use transform="translate(764.946289 0.765625)" xlink:href="#DejaVuSans-Oblique-103"/>
      <use transform="translate(828.422852 0.765625)" xlink:href="#DejaVuSans-47"/>
      <use transform="translate(862.114258 0.765625)" xlink:href="#DejaVuSans-Oblique-109"/>
      <use transform="translate(964.176263 39.046875)scale(0.7)" xlink:href="#DejaVuSans-51"/>
      <use transform="translate(1011.446771 0.765625)" xlink:href="#DejaVuSans-93"/>
     </g>
    </g>
   </g>
   <g id="line2d_31">
    <path clip-path="url(#pf50262e8af)" d="M 92.290909 353.184071 
L 93.405794 349.319822 
L 94.520679 353.543536 
L 95.635564 347.792095 
L 96.75045 303.398158 
L 97.865335 299.264309 
L 98.98022 314.721308 
L 100.095105 294.950728 
L 101.20999 349.859019 
L 102.324875 296.993143 
L 103.43976 214.520416 
L 104.554645 290.277682 
L 105.66953 267.451649 
L 106.784416 327.751917 
L 107.899301 364.147756 
L 109.014186 351.476612 
L 110.129071 361.182169 
L 111.243956 353.45367 
L 112.358841 347.702229 
L 113.473726 312.834116 
L 114.588611 336.82841 
L 115.703497 339.704131 
L 116.818382 369.36 
L 117.933267 360.013908 
L 119.048152 321.101813 
L 120.163037 294.950728 
L 121.277922 357.677385 
L 122.392807 359.834175 
L 123.507692 335.120951 
L 124.622577 368.64107 
L 126.852348 331.706033 
L 127.967233 304.29682 
L 129.082118 313.912511 
L 130.197003 306.184012 
L 131.311888 257.296761 
L 132.426773 149.906568 
L 133.541658 184.145617 
L 134.656543 262.450396 
L 135.771429 318.04636 
L 136.886314 357.587519 
L 138.001199 340.512927 
L 139.116084 339.883863 
L 140.230969 313.46318 
L 141.345854 335.570282 
L 142.460739 317.686895 
L 143.575624 274.91055 
L 144.690509 250.197325 
L 145.805395 245.614146 
L 146.92028 173.181932 
L 148.035165 133.13674 
L 149.15005 246.512808 
L 150.264935 304.476553 
L 151.37982 295.579792 
L 152.494705 331.076969 
L 153.60959 300.162972 
L 154.724476 296.658187 
L 155.839361 251.904785 
L 156.954246 247.231738 
L 158.069131 183.876018 
L 159.184016 193.491709 
L 160.298901 302.679227 
L 161.413786 323.797801 
L 162.528671 298.365646 
L 163.643556 320.562615 
L 164.758442 345.096107 
L 165.873327 329.36951 
L 166.988212 342.400119 
L 168.103097 346.533967 
L 169.217982 364.597088 
L 170.332867 345.27584 
L 171.447752 321.820743 
L 172.562637 316.276385 
L 173.677522 319.574086 
L 174.792408 266.822585 
L 175.907293 277.516672 
L 177.022178 266.822585 
L 178.137063 304.027221 
L 179.251948 270.237504 
L 180.366833 311.126657 
L 181.481718 298.904844 
L 182.596603 303.128559 
L 183.711489 228.269955 
L 184.826374 254.061575 
L 185.941259 290.457415 
L 187.056144 335.031085 
L 188.171029 329.459376 
L 189.285914 349.948886 
L 190.400799 339.960892 
L 191.515684 327.247884 
L 192.630569 349.499554 
L 193.745455 347.337477 
L 194.86034 361.990966 
L 195.975225 344.017712 
L 197.09011 327.931649 
L 198.204995 320.742348 
L 199.31988 293.063536 
L 200.434765 66.96 
L 201.54965 332.604695 
L 202.664535 273.742288 
L 203.779421 185.76321 
L 204.894306 325.278641 
L 206.009191 346.893432 
L 207.124076 348.061694 
L 208.238961 334.402021 
L 209.353846 302.319762 
L 210.468731 305.375215 
L 211.583616 289.918217 
L 212.698501 263.227935 
L 213.813387 140.20101 
L 214.928272 239.503239 
L 216.043157 309.329331 
L 217.158042 329.010045 
L 219.387812 345.725171 
L 220.502697 297.466984 
L 221.617582 334.941218 
L 222.732468 317.776761 
L 223.847353 366.933611 
L 224.962238 329.189777 
L 226.077123 330.08844 
L 227.192008 281.830253 
L 228.306893 208.050045 
L 229.421778 252.623715 
L 230.536663 304.656285 
L 231.651548 291.625676 
L 232.766434 294.231798 
L 233.881319 196.367429 
L 234.996204 288.480357 
L 236.111089 306.363744 
L 237.225974 315.530104 
L 238.340859 311.126657 
L 239.455744 191.78425 
L 240.570629 144.244993 
L 241.685514 177.585379 
L 242.8004 259.637191 
L 243.915285 247.052006 
L 245.03017 241.570163 
L 246.145055 276.438276 
L 247.25994 322.000475 
L 248.374825 314.307141 
L 249.48971 243.547221 
L 250.604595 273.113224 
L 251.719481 319.304487 
L 252.834366 305.01575 
L 253.949251 307.981337 
L 255.064136 287.581694 
L 256.179021 304.746152 
L 257.293906 340.782526 
L 258.408791 340.063596 
L 259.523676 320.472749 
L 260.638561 323.168737 
L 261.753447 321.809021 
L 262.868332 234.69344 
L 263.983217 192.589139 
L 265.098102 233.286838 
L 266.212987 327.751917 
L 267.327872 232.943001 
L 268.442757 154.130282 
L 269.557642 223.083388 
L 270.672527 210.746033 
L 271.787413 250.287192 
L 272.902298 297.197385 
L 274.017183 324.933384 
L 275.132068 333.46251 
L 276.246953 322.270074 
L 277.361838 335.570282 
L 278.476723 344.467043 
L 279.591608 351.816541 
L 280.706494 344.377177 
L 281.821379 295.927535 
L 282.936264 282.639049 
L 284.051149 306.633343 
L 285.166034 288.749955 
L 286.280919 299.893373 
L 287.395804 242.664188 
L 288.510689 242.468826 
L 289.625574 195.271061 
L 290.74046 202.819828 
L 291.855345 244.641956 
L 292.97023 313.69021 
L 294.085115 299.444042 
L 295.2 286.934657 
L 296.314885 306.24262 
L 297.42977 269.967905 
L 298.544655 276.891515 
L 299.65954 211.580505 
L 300.774426 290.727013 
L 301.889311 286.760059 
L 303.004196 314.682235 
L 304.119081 248.073214 
L 305.233966 143.451825 
L 306.348851 233.901575 
L 307.463736 230.379859 
L 308.578621 303.70627 
L 309.693506 277.983976 
L 310.808392 300.630276 
L 311.923277 327.399364 
L 313.038162 267.451649 
L 314.153047 267.040832 
L 315.267932 283.627578 
L 316.382817 303.953694 
L 317.497702 254.854743 
L 318.612587 284.674715 
L 319.727473 242.494502 
L 320.842358 261.368394 
L 321.957243 295.746686 
L 323.072128 323.438336 
L 324.187013 329.459376 
L 325.301898 316.967964 
L 326.416783 334.581753 
L 327.531668 291.53581 
L 328.646553 268.619911 
L 329.761439 218.564398 
L 330.876324 245.973611 
L 331.991209 278.595067 
L 333.106094 317.956493 
L 334.220979 236.537652 
L 335.335864 307.981337 
L 336.450749 332.155364 
L 337.565634 343.119049 
L 338.680519 347.342764 
L 339.795405 345.99477 
L 340.91029 351.347674 
L 342.025175 315.350371 
L 343.14006 334.491887 
L 344.254945 315.080773 
L 345.36983 305.246835 
L 346.484715 306.72321 
L 347.5996 321.730877 
L 348.714486 328.830312 
L 349.829371 274.19162 
L 350.944256 244.895215 
L 352.059141 301.366398 
L 354.288911 351.027281 
L 355.403796 347.43263 
L 356.518681 341.052125 
L 358.748452 291.445944 
L 359.863337 306.992808 
L 360.978222 273.472689 
L 362.093107 294.681129 
L 363.207992 324.78633 
L 364.322877 215.508945 
L 365.437762 234.650461 
L 366.552647 219.283328 
L 367.667532 241.120832 
L 368.782418 316.518633 
L 369.897303 349.140089 
L 371.012188 342.13052 
L 372.127073 331.076969 
L 373.241958 290.097949 
L 374.356843 290.95754 
L 375.471728 264.216464 
L 376.586613 271.226033 
L 377.701499 342.220386 
L 378.816384 333.323626 
L 379.931269 271.495632 
L 381.046154 250.55679 
L 382.161039 286.2337 
L 383.275924 286.95263 
L 384.390809 333.143893 
L 385.505694 347.252897 
L 386.620579 365.226152 
L 387.735465 339.883863 
L 388.85035 334.941218 
L 389.965235 329.010045 
L 391.08012 308.16107 
L 392.195005 282.189718 
L 393.30989 334.222288 
L 394.424775 311.665854 
L 395.53966 332.335097 
L 396.654545 343.388648 
L 397.769431 298.185914 
L 398.884316 311.216523 
L 399.999201 301.151501 
L 401.114086 303.488024 
L 402.228971 281.830253 
L 403.343856 305.195483 
L 404.458741 259.363685 
L 405.573626 264.41964 
L 406.688511 310.138128 
L 407.803397 324.0674 
L 408.918282 314.18211 
L 410.033167 315.889569 
L 411.148052 261.700208 
L 412.262937 258.195423 
L 413.377822 211.28523 
L 414.492707 187.740267 
L 415.607592 207.061516 
L 416.722478 237.436315 
L 417.837363 285.065438 
L 418.952248 307.621872 
L 420.067133 310.497593 
L 421.182018 294.770996 
L 422.296903 258.914354 
L 424.526673 303.308291 
L 425.641558 298.365646 
L 426.756444 281.470788 
L 427.871329 360.822704 
L 428.986214 320.293016 
L 430.101099 341.860921 
L 432.330869 308.071204 
L 433.445754 264.30633 
L 434.560639 251.365587 
L 435.675524 301.151501 
L 436.79041 359.564577 
L 437.905295 336.558811 
L 439.02018 324.606597 
L 440.135065 364.507221 
L 441.24995 363.428826 
L 442.364835 352.644874 
L 443.47972 336.906555 
L 445.709491 314.682235 
L 446.824376 316.518633 
L 447.939261 303.667756 
L 449.054146 296.388588 
L 450.169031 312.384785 
L 451.283916 282.908648 
L 452.398801 239.682972 
L 453.513686 255.319703 
L 454.628571 267.361783 
L 455.743457 312.025319 
L 457.973227 240.491768 
L 459.088112 274.011887 
L 460.202997 338.176404 
L 461.317882 347.342764 
L 462.432767 334.761486 
L 463.547652 341.231857 
L 464.662537 367.382942 
L 465.777423 361.721367 
L 466.892308 333.143893 
L 468.007193 319.48422 
L 469.122078 344.646776 
L 470.236963 360.013908 
L 471.351848 362.979495 
L 472.466733 354.711798 
L 473.581618 337.187875 
L 474.696503 300.702169 
L 475.811389 288.613202 
L 476.926274 313.013848 
L 478.041159 286.2337 
L 479.156044 276.887608 
L 480.270929 323.528202 
L 481.385814 342.489985 
L 482.500699 347.702229 
L 483.615584 354.801664 
L 484.73047 356.958455 
L 485.845355 364.237623 
L 486.96024 345.185973 
L 488.075125 351.836077 
L 489.19001 342.310253 
L 490.304895 301.061634 
L 491.41978 286.683031 
L 492.534665 296.83792 
L 493.64955 251.365587 
L 494.764436 256.811483 
L 498.109091 301.4211 
L 498.109091 301.4211 
" style="fill:none;stroke:#1f77b4;stroke-linecap:square;stroke-width:1.5;"/>
   </g>
   <g id="line2d_32">
    <path clip-path="url(#pf50262e8af)" d="M 92.290909 332.84016 
L 93.405794 330.800703 
L 94.520679 324.459196 
L 95.635564 335.13603 
L 96.75045 327.729045 
L 97.865335 277.987205 
L 98.98022 272.777601 
L 100.095105 268.784892 
L 101.20999 264.217664 
L 102.324875 316.918563 
L 103.43976 241.301285 
L 104.554645 228.79056 
L 105.66953 256.507256 
L 106.784416 240.24951 
L 107.899301 337.29241 
L 109.014186 328.936685 
L 110.129071 322.666013 
L 111.243956 319.825082 
L 112.358841 310.111389 
L 113.473726 303.813911 
L 115.703497 289.67905 
L 116.818382 321.19444 
L 117.933267 333.140724 
L 119.048152 324.270302 
L 120.163037 269.40155 
L 121.277922 311.847621 
L 122.392807 311.67061 
L 123.507692 317.184517 
L 124.622577 286.736627 
L 125.737463 323.574093 
L 126.852348 313.772117 
L 127.967233 287.787985 
L 129.082118 302.747092 
L 130.197003 269.936075 
L 131.311888 264.477014 
L 132.426773 223.54766 
L 133.541658 157.795594 
L 135.771429 304.440308 
L 136.886314 300.467042 
L 138.001199 322.844217 
L 139.116084 300.084083 
L 140.230969 307.073239 
L 141.345854 314.776651 
L 142.460739 306.434339 
L 144.690509 239.832593 
L 145.805395 244.105706 
L 146.92028 259.999157 
L 148.035165 193.840402 
L 149.15005 154.815726 
L 150.264935 238.935584 
L 151.37982 266.315001 
L 152.494705 268.176677 
L 153.60959 265.896545 
L 154.724476 274.99966 
L 155.839361 259.018462 
L 156.954246 246.718707 
L 158.069131 260.558341 
L 159.184016 248.997448 
L 160.298901 135.192531 
L 161.413786 293.657974 
L 162.528671 302.223599 
L 163.643556 301.645413 
L 164.758442 300.591531 
L 165.873327 327.498487 
L 166.988212 310.46621 
L 168.103097 328.933039 
L 169.217982 326.001178 
L 170.332867 338.301715 
L 171.447752 305.245811 
L 172.562637 283.2497 
L 173.677522 321.487616 
L 174.792408 289.143721 
L 177.022178 267.284693 
L 178.137063 252.853365 
L 179.251948 274.33036 
L 180.366833 263.253109 
L 181.481718 279.448822 
L 182.596603 313.870747 
L 183.711489 266.101684 
L 184.826374 232.361463 
L 185.941259 274.460819 
L 187.056144 306.991832 
L 188.171029 292.009713 
L 189.285914 293.951897 
L 190.400799 332.838338 
L 191.515684 313.788776 
L 192.630569 272.847189 
L 193.745455 336.064803 
L 194.86034 340.035868 
L 195.975225 342.947384 
L 197.09011 305.711227 
L 199.31988 325.161159 
L 200.434765 267.799782 
L 201.54965 248.355431 
L 202.664535 294.016661 
L 203.779421 284.310192 
L 204.894306 267.085501 
L 206.009191 314.102021 
L 207.124076 291.674755 
L 208.238961 333.717707 
L 209.353846 313.148704 
L 210.468731 287.728582 
L 211.583616 267.431422 
L 212.698501 266.373706 
L 213.813387 246.559331 
L 214.928272 231.157449 
L 216.043157 280.904324 
L 217.158042 308.748762 
L 218.272927 324.639202 
L 219.387812 315.719995 
L 220.502697 318.798206 
L 221.617582 304.066657 
L 222.732468 330.468643 
L 223.847353 291.299671 
L 224.962238 345.432598 
L 226.077123 323.372144 
L 227.192008 323.146777 
L 228.306893 286.701967 
L 229.421778 271.655543 
L 230.536663 280.471311 
L 231.651548 274.494096 
L 232.766434 279.21423 
L 233.881319 264.296928 
L 234.996204 230.663915 
L 236.111089 292.83447 
L 237.225974 310.146131 
L 238.340859 284.026672 
L 239.455744 302.985523 
L 240.570629 246.380676 
L 241.685514 231.274022 
L 243.915285 283.322527 
L 245.03017 281.048867 
L 246.145055 272.8819 
L 247.25994 280.860162 
L 248.374825 299.266871 
L 249.48971 276.058053 
L 250.604595 263.621769 
L 251.719481 287.892385 
L 252.834366 297.550191 
L 253.949251 290.078474 
L 255.064136 287.145394 
L 256.179021 277.425535 
L 257.293906 277.728269 
L 258.408791 300.051563 
L 259.523676 280.701653 
L 260.638561 306.876184 
L 261.753447 306.920869 
L 262.868332 292.239738 
L 265.098102 253.987413 
L 266.212987 247.643398 
L 267.327872 295.320222 
L 268.442757 260.092572 
L 269.557642 244.946229 
L 270.672527 260.434372 
L 271.787413 273.563928 
L 272.902298 284.884707 
L 274.017183 300.249386 
L 275.132068 331.139622 
L 276.246953 317.514058 
L 277.361838 317.917321 
L 278.476723 321.192551 
L 279.591608 320.732793 
L 280.706494 309.503381 
L 281.821379 307.509263 
L 282.936264 302.847672 
L 284.051149 301.296668 
L 285.166034 297.026934 
L 286.280919 288.371368 
L 287.395804 290.555593 
L 288.510689 278.126016 
L 289.625574 273.593061 
L 290.74046 275.165928 
L 291.855345 276.294157 
L 292.97023 282.974469 
L 294.085115 301.054131 
L 295.2 287.242662 
L 296.314885 275.615204 
L 297.42977 287.986392 
L 298.544655 282.893865 
L 299.65954 290.621314 
L 300.774426 278.457602 
L 301.889311 288.991299 
L 303.004196 289.861913 
L 304.119081 296.805064 
L 305.233966 282.736048 
L 306.348851 267.021918 
L 307.463736 282.81359 
L 308.578621 280.735832 
L 309.693506 292.239257 
L 310.808392 289.755358 
L 311.923277 302.466111 
L 313.038162 298.75778 
L 314.153047 287.806078 
L 315.267932 289.27892 
L 316.382817 294.580261 
L 317.497702 296.685925 
L 318.612587 278.805789 
L 319.727473 285.312811 
L 320.842358 268.960209 
L 323.072128 308.125472 
L 324.187013 325.345517 
L 325.301898 332.201988 
L 326.416783 319.78541 
L 327.531668 309.434645 
L 328.646553 284.253743 
L 330.876324 273.348115 
L 331.991209 281.478972 
L 333.106094 288.568023 
L 334.220979 293.585096 
L 335.335864 272.22127 
L 336.450749 315.697811 
L 337.565634 304.010899 
L 338.680519 332.899169 
L 339.795405 320.876567 
L 340.91029 329.394687 
L 342.025175 326.241033 
L 343.14006 310.568593 
L 344.254945 322.328946 
L 346.484715 306.670913 
L 347.5996 318.702064 
L 348.714486 316.665054 
L 349.829371 301.401949 
L 350.944256 292.826899 
L 352.059141 287.071794 
L 353.174026 311.649276 
L 354.288911 329.600312 
L 355.403796 322.585153 
L 356.518681 344.241771 
L 357.633566 325.949962 
L 358.748452 314.936778 
L 359.863337 307.270801 
L 360.978222 304.662951 
L 362.093107 306.251778 
L 363.207992 307.35506 
L 364.322877 307.434762 
L 366.552647 255.147253 
L 367.667532 258.183458 
L 369.897303 324.768862 
L 371.012188 332.073628 
L 372.127073 330.982388 
L 373.241958 321.085387 
L 374.356843 313.768523 
L 375.471728 302.533408 
L 376.586613 298.220423 
L 377.701499 323.49309 
L 378.816384 317.635772 
L 379.931269 326.230405 
L 381.046154 308.998155 
L 382.161039 303.589906 
L 384.390809 322.207703 
L 385.505694 328.68998 
L 386.620579 329.264751 
L 387.735465 316.507645 
L 388.85035 309.752349 
L 389.965235 319.446797 
L 391.08012 314.786639 
L 392.195005 319.462873 
L 393.30989 300.210517 
L 394.424775 310.515082 
L 395.53966 311.893242 
L 396.654545 311.901024 
L 397.769431 319.331078 
L 398.884316 300.25622 
L 399.999201 311.587723 
L 401.114086 315.367308 
L 402.228971 300.729607 
L 403.343856 293.182897 
L 404.458741 318.781178 
L 405.573626 293.88527 
L 406.688511 283.054612 
L 407.803397 315.634901 
L 408.918282 327.077868 
L 410.033167 323.729289 
L 411.148052 329.527716 
L 412.262937 318.232153 
L 413.377822 295.922998 
L 414.492707 286.376323 
L 415.607592 273.161962 
L 416.722478 285.589374 
L 417.837363 284.485176 
L 418.952248 297.148054 
L 420.067133 296.410592 
L 421.182018 304.559191 
L 422.296903 301.177924 
L 423.411788 298.385316 
L 424.526673 315.953117 
L 425.641558 308.230968 
L 426.756444 296.443316 
L 427.871329 300.08161 
L 428.986214 338.433678 
L 430.101099 318.150608 
L 431.215984 335.714211 
L 432.330869 313.82361 
L 433.445754 321.339536 
L 434.560639 290.367088 
L 435.675524 293.260404 
L 436.79041 324.853141 
L 437.905295 337.908496 
L 439.02018 317.004997 
L 440.135065 331.047244 
L 441.24995 337.196846 
L 442.364835 338.414603 
L 443.47972 327.575968 
L 444.594605 319.39687 
L 445.709491 323.721436 
L 446.824376 304.790184 
L 447.939261 281.703888 
L 449.054146 291.264888 
L 450.169031 276.671758 
L 451.283916 291.094076 
L 452.398801 300.08437 
L 453.513686 276.251749 
L 454.628571 272.521179 
L 455.743457 272.754163 
L 456.858342 295.581303 
L 457.973227 280.346893 
L 459.088112 294.539375 
L 460.202997 294.242375 
L 461.317882 328.077651 
L 462.432767 336.898884 
L 463.547652 330.92296 
L 464.662537 340.660474 
L 465.777423 336.053315 
L 466.892308 337.553255 
L 468.007193 303.639147 
L 469.122078 329.21978 
L 470.236963 328.769928 
L 471.351848 331.628158 
L 472.466733 332.532614 
L 474.696503 300.758462 
L 475.811389 288.252372 
L 476.926274 279.755483 
L 478.041159 284.736284 
L 479.156044 281.475609 
L 480.270929 303.803093 
L 481.385814 297.299933 
L 482.500699 318.343055 
L 483.615584 332.586288 
L 484.73047 334.362525 
L 485.845355 335.166031 
L 486.96024 336.212003 
L 488.075125 313.671255 
L 489.19001 310.38874 
L 490.304895 284.100282 
L 491.41978 288.138312 
L 492.534665 306.070467 
L 493.64955 307.973332 
L 494.764436 273.22841 
L 495.879321 301.100028 
L 496.994206 269.51744 
L 498.109091 278.012565 
L 498.109091 278.012565 
" style="fill:none;stroke:#ff7f0e;stroke-linecap:square;stroke-width:1.5;"/>
   </g>
   <g id="patch_3">
    <path d="M 72 384.48 
L 72 51.84 
" style="fill:none;stroke:#000000;stroke-linecap:square;stroke-linejoin:miter;stroke-width:0.8;"/>
   </g>
   <g id="patch_4">
    <path d="M 518.4 384.48 
L 518.4 51.84 
" style="fill:none;stroke:#000000;stroke-linecap:square;stroke-linejoin:miter;stroke-width:0.8;"/>
   </g>
   <g id="patch_5">
    <path d="M 72 384.48 
L 518.4 384.48 
" style="fill:none;stroke:#000000;stroke-linecap:square;stroke-linejoin:miter;stroke-width:0.8;"/>
   </g>
   <g id="patch_6">
    <path d="M 72 51.84 
L 518.4 51.84 
" style="fill:none;stroke:#000000;stroke-linecap:square;stroke-linejoin:miter;stroke-width:0.8;"/>
   </g>
   <g id="text_18">
    <!-- $O_3$ BETN073 2010: Island DNN (MSE: 108.0, sMAPE: 47.22%, MASE: 1.0) -->
    <g transform="translate(78.96 45.84)scale(0.12 -0.12)">
     <defs>
      <path d="M 19.671875 34.8125 
L 19.671875 8.109375 
L 35.5 8.109375 
Q 43.453125 8.109375 47.28125 11.40625 
Q 51.125 14.703125 51.125 21.484375 
Q 51.125 28.328125 47.28125 31.5625 
Q 43.453125 34.8125 35.5 34.8125 
z
M 19.671875 64.796875 
L 19.671875 42.828125 
L 34.28125 42.828125 
Q 41.5 42.828125 45.03125 45.53125 
Q 48.578125 48.25 48.578125 53.8125 
Q 48.578125 59.328125 45.03125 62.0625 
Q 41.5 64.796875 34.28125 64.796875 
z
M 9.8125 72.90625 
L 35.015625 72.90625 
Q 46.296875 72.90625 52.390625 68.21875 
Q 58.5 63.53125 58.5 54.890625 
Q 58.5 48.1875 55.375 44.234375 
Q 52.25 40.28125 46.1875 39.3125 
Q 53.46875 37.75 57.5 32.78125 
Q 61.53125 27.828125 61.53125 20.40625 
Q 61.53125 10.640625 54.890625 5.3125 
Q 48.25 0 35.984375 0 
L 9.8125 0 
z
" id="DejaVuSans-66"/>
      <path d="M 9.8125 72.90625 
L 55.90625 72.90625 
L 55.90625 64.59375 
L 19.671875 64.59375 
L 19.671875 43.015625 
L 54.390625 43.015625 
L 54.390625 34.71875 
L 19.671875 34.71875 
L 19.671875 8.296875 
L 56.78125 8.296875 
L 56.78125 0 
L 9.8125 0 
z
" id="DejaVuSans-69"/>
      <path d="M -0.296875 72.90625 
L 61.375 72.90625 
L 61.375 64.59375 
L 35.5 64.59375 
L 35.5 0 
L 25.59375 0 
L 25.59375 64.59375 
L -0.296875 64.59375 
z
" id="DejaVuSans-84"/>
      <path d="M 9.8125 72.90625 
L 23.09375 72.90625 
L 55.421875 11.921875 
L 55.421875 72.90625 
L 64.984375 72.90625 
L 64.984375 0 
L 51.703125 0 
L 19.390625 60.984375 
L 19.390625 0 
L 9.8125 0 
z
" id="DejaVuSans-78"/>
      <path d="M 8.203125 72.90625 
L 55.078125 72.90625 
L 55.078125 68.703125 
L 28.609375 0 
L 18.3125 0 
L 43.21875 64.59375 
L 8.203125 64.59375 
z
" id="DejaVuSans-55"/>
      <path d="M 11.71875 12.40625 
L 22.015625 12.40625 
L 22.015625 0 
L 11.71875 0 
z
M 11.71875 51.703125 
L 22.015625 51.703125 
L 22.015625 39.3125 
L 11.71875 39.3125 
z
" id="DejaVuSans-58"/>
      <path d="M 9.8125 72.90625 
L 19.671875 72.90625 
L 19.671875 0 
L 9.8125 0 
z
" id="DejaVuSans-73"/>
      <path d="M 44.28125 53.078125 
L 44.28125 44.578125 
Q 40.484375 46.53125 36.375 47.5 
Q 32.28125 48.484375 27.875 48.484375 
Q 21.1875 48.484375 17.84375 46.4375 
Q 14.5 44.390625 14.5 40.28125 
Q 14.5 37.15625 16.890625 35.375 
Q 19.28125 33.59375 26.515625 31.984375 
L 29.59375 31.296875 
Q 39.15625 29.25 43.1875 25.515625 
Q 47.21875 21.78125 47.21875 15.09375 
Q 47.21875 7.46875 41.1875 3.015625 
Q 35.15625 -1.421875 24.609375 -1.421875 
Q 20.21875 -1.421875 15.453125 -0.5625 
Q 10.6875 0.296875 5.421875 2 
L 5.421875 11.28125 
Q 10.40625 8.6875 15.234375 7.390625 
Q 20.0625 6.109375 24.8125 6.109375 
Q 31.15625 6.109375 34.5625 8.28125 
Q 37.984375 10.453125 37.984375 14.40625 
Q 37.984375 18.0625 35.515625 20.015625 
Q 33.0625 21.96875 24.703125 23.78125 
L 21.578125 24.515625 
Q 13.234375 26.265625 9.515625 29.90625 
Q 5.8125 33.546875 5.8125 39.890625 
Q 5.8125 47.609375 11.28125 51.796875 
Q 16.75 56 26.8125 56 
Q 31.78125 56 36.171875 55.265625 
Q 40.578125 54.546875 44.28125 53.078125 
z
" id="DejaVuSans-115"/>
      <path d="M 9.421875 75.984375 
L 18.40625 75.984375 
L 18.40625 0 
L 9.421875 0 
z
" id="DejaVuSans-108"/>
      <path d="M 54.890625 33.015625 
L 54.890625 0 
L 45.90625 0 
L 45.90625 32.71875 
Q 45.90625 40.484375 42.875 44.328125 
Q 39.84375 48.1875 33.796875 48.1875 
Q 26.515625 48.1875 22.3125 43.546875 
Q 18.109375 38.921875 18.109375 30.90625 
L 18.109375 0 
L 9.078125 0 
L 9.078125 54.6875 
L 18.109375 54.6875 
L 18.109375 46.1875 
Q 21.34375 51.125 25.703125 53.5625 
Q 30.078125 56 35.796875 56 
Q 45.21875 56 50.046875 50.171875 
Q 54.890625 44.34375 54.890625 33.015625 
z
" id="DejaVuSans-110"/>
      <path d="M 45.40625 46.390625 
L 45.40625 75.984375 
L 54.390625 75.984375 
L 54.390625 0 
L 45.40625 0 
L 45.40625 8.203125 
Q 42.578125 3.328125 38.25 0.953125 
Q 33.9375 -1.421875 27.875 -1.421875 
Q 17.96875 -1.421875 11.734375 6.484375 
Q 5.515625 14.40625 5.515625 27.296875 
Q 5.515625 40.1875 11.734375 48.09375 
Q 17.96875 56 27.875 56 
Q 33.9375 56 38.25 53.625 
Q 42.578125 51.265625 45.40625 46.390625 
z
M 14.796875 27.296875 
Q 14.796875 17.390625 18.875 11.75 
Q 22.953125 6.109375 30.078125 6.109375 
Q 37.203125 6.109375 41.296875 11.75 
Q 45.40625 17.390625 45.40625 27.296875 
Q 45.40625 37.203125 41.296875 42.84375 
Q 37.203125 48.484375 30.078125 48.484375 
Q 22.953125 48.484375 18.875 42.84375 
Q 14.796875 37.203125 14.796875 27.296875 
z
" id="DejaVuSans-100"/>
      <path d="M 31 75.875 
Q 24.46875 64.65625 21.28125 53.65625 
Q 18.109375 42.671875 18.109375 31.390625 
Q 18.109375 20.125 21.3125 9.0625 
Q 24.515625 -2 31 -13.1875 
L 23.1875 -13.1875 
Q 15.875 -1.703125 12.234375 9.375 
Q 8.59375 20.453125 8.59375 31.390625 
Q 8.59375 42.28125 12.203125 53.3125 
Q 15.828125 64.359375 23.1875 75.875 
z
" id="DejaVuSans-40"/>
      <path d="M 9.8125 72.90625 
L 24.515625 72.90625 
L 43.109375 23.296875 
L 61.8125 72.90625 
L 76.515625 72.90625 
L 76.515625 0 
L 66.890625 0 
L 66.890625 64.015625 
L 48.09375 14.015625 
L 38.1875 14.015625 
L 19.390625 64.015625 
L 19.390625 0 
L 9.8125 0 
z
" id="DejaVuSans-77"/>
      <path d="M 53.515625 70.515625 
L 53.515625 60.890625 
Q 47.90625 63.578125 42.921875 64.890625 
Q 37.9375 66.21875 33.296875 66.21875 
Q 25.25 66.21875 20.875 63.09375 
Q 16.5 59.96875 16.5 54.203125 
Q 16.5 49.359375 19.40625 46.890625 
Q 22.3125 44.4375 30.421875 42.921875 
L 36.375 41.703125 
Q 47.40625 39.59375 52.65625 34.296875 
Q 57.90625 29 57.90625 20.125 
Q 57.90625 9.515625 50.796875 4.046875 
Q 43.703125 -1.421875 29.984375 -1.421875 
Q 24.8125 -1.421875 18.96875 -0.25 
Q 13.140625 0.921875 6.890625 3.21875 
L 6.890625 13.375 
Q 12.890625 10.015625 18.65625 8.296875 
Q 24.421875 6.59375 29.984375 6.59375 
Q 38.421875 6.59375 43.015625 9.90625 
Q 47.609375 13.234375 47.609375 19.390625 
Q 47.609375 24.75 44.3125 27.78125 
Q 41.015625 30.8125 33.5 32.328125 
L 27.484375 33.5 
Q 16.453125 35.6875 11.515625 40.375 
Q 6.59375 45.0625 6.59375 53.421875 
Q 6.59375 63.09375 13.40625 68.65625 
Q 20.21875 74.21875 32.171875 74.21875 
Q 37.3125 74.21875 42.625 73.28125 
Q 47.953125 72.359375 53.515625 70.515625 
z
" id="DejaVuSans-83"/>
      <path d="M 10.6875 12.40625 
L 21 12.40625 
L 21 0 
L 10.6875 0 
z
" id="DejaVuSans-46"/>
      <path d="M 11.71875 12.40625 
L 22.015625 12.40625 
L 22.015625 4 
L 14.015625 -11.625 
L 7.71875 -11.625 
L 11.71875 4 
z
" id="DejaVuSans-44"/>
      <path d="M 34.1875 63.1875 
L 20.796875 26.90625 
L 47.609375 26.90625 
z
M 28.609375 72.90625 
L 39.796875 72.90625 
L 67.578125 0 
L 57.328125 0 
L 50.6875 18.703125 
L 17.828125 18.703125 
L 11.1875 0 
L 0.78125 0 
z
" id="DejaVuSans-65"/>
      <path d="M 19.671875 64.796875 
L 19.671875 37.40625 
L 32.078125 37.40625 
Q 38.96875 37.40625 42.71875 40.96875 
Q 46.484375 44.53125 46.484375 51.125 
Q 46.484375 57.671875 42.71875 61.234375 
Q 38.96875 64.796875 32.078125 64.796875 
z
M 9.8125 72.90625 
L 32.078125 72.90625 
Q 44.34375 72.90625 50.609375 67.359375 
Q 56.890625 61.8125 56.890625 51.125 
Q 56.890625 40.328125 50.609375 34.8125 
Q 44.34375 29.296875 32.078125 29.296875 
L 19.671875 29.296875 
L 19.671875 0 
L 9.8125 0 
z
" id="DejaVuSans-80"/>
      <path d="M 72.703125 32.078125 
Q 68.453125 32.078125 66.03125 28.46875 
Q 63.625 24.859375 63.625 18.40625 
Q 63.625 12.0625 66.03125 8.421875 
Q 68.453125 4.78125 72.703125 4.78125 
Q 76.859375 4.78125 79.265625 8.421875 
Q 81.6875 12.0625 81.6875 18.40625 
Q 81.6875 24.8125 79.265625 28.4375 
Q 76.859375 32.078125 72.703125 32.078125 
z
M 72.703125 38.28125 
Q 80.421875 38.28125 84.953125 32.90625 
Q 89.5 27.546875 89.5 18.40625 
Q 89.5 9.28125 84.9375 3.921875 
Q 80.375 -1.421875 72.703125 -1.421875 
Q 64.890625 -1.421875 60.34375 3.921875 
Q 55.8125 9.28125 55.8125 18.40625 
Q 55.8125 27.59375 60.375 32.9375 
Q 64.9375 38.28125 72.703125 38.28125 
z
M 22.3125 68.015625 
Q 18.109375 68.015625 15.6875 64.375 
Q 13.28125 60.75 13.28125 54.390625 
Q 13.28125 47.953125 15.671875 44.328125 
Q 18.0625 40.71875 22.3125 40.71875 
Q 26.5625 40.71875 28.96875 44.328125 
Q 31.390625 47.953125 31.390625 54.390625 
Q 31.390625 60.6875 28.953125 64.34375 
Q 26.515625 68.015625 22.3125 68.015625 
z
M 66.40625 74.21875 
L 74.21875 74.21875 
L 28.609375 -1.421875 
L 20.796875 -1.421875 
z
M 22.3125 74.21875 
Q 30.03125 74.21875 34.609375 68.875 
Q 39.203125 63.53125 39.203125 54.390625 
Q 39.203125 45.171875 34.640625 39.84375 
Q 30.078125 34.515625 22.3125 34.515625 
Q 14.546875 34.515625 10.03125 39.859375 
Q 5.515625 45.21875 5.515625 54.390625 
Q 5.515625 63.484375 10.046875 68.84375 
Q 14.59375 74.21875 22.3125 74.21875 
z
" id="DejaVuSans-37"/>
      <path d="M 8.015625 75.875 
L 15.828125 75.875 
Q 23.140625 64.359375 26.78125 53.3125 
Q 30.421875 42.28125 30.421875 31.390625 
Q 30.421875 20.453125 26.78125 9.375 
Q 23.140625 -1.703125 15.828125 -13.1875 
L 8.015625 -13.1875 
Q 14.5 -2 17.703125 9.0625 
Q 20.90625 20.125 20.90625 31.390625 
Q 20.90625 42.671875 17.703125 53.65625 
Q 14.5 64.65625 8.015625 75.875 
z
" id="DejaVuSans-41"/>
     </defs>
     <use transform="translate(0 0.015625)" xlink:href="#DejaVuSans-Oblique-79"/>
     <use transform="translate(78.710938 -16.390625)scale(0.7)" xlink:href="#DejaVuSans-51"/>
     <use transform="translate(125.981445 0.015625)" xlink:href="#DejaVuSans-32"/>
     <use transform="translate(157.768555 0.015625)" xlink:href="#DejaVuSans-66"/>
     <use transform="translate(226.37207 0.015625)" xlink:href="#DejaVuSans-69"/>
     <use transform="translate(289.555664 0.015625)" xlink:href="#DejaVuSans-84"/>
     <use transform="translate(350.639648 0.015625)" xlink:href="#DejaVuSans-78"/>
     <use transform="translate(425.444336 0.015625)" xlink:href="#DejaVuSans-48"/>
     <use transform="translate(489.067383 0.015625)" xlink:href="#DejaVuSans-55"/>
     <use transform="translate(552.69043 0.015625)" xlink:href="#DejaVuSans-51"/>
     <use transform="translate(616.313477 0.015625)" xlink:href="#DejaVuSans-32"/>
     <use transform="translate(648.100586 0.015625)" xlink:href="#DejaVuSans-50"/>
     <use transform="translate(711.723633 0.015625)" xlink:href="#DejaVuSans-48"/>
     <use transform="translate(775.34668 0.015625)" xlink:href="#DejaVuSans-49"/>
     <use transform="translate(838.969727 0.015625)" xlink:href="#DejaVuSans-48"/>
     <use transform="translate(902.592773 0.015625)" xlink:href="#DejaVuSans-58"/>
     <use transform="translate(936.28418 0.015625)" xlink:href="#DejaVuSans-32"/>
     <use transform="translate(968.071289 0.015625)" xlink:href="#DejaVuSans-73"/>
     <use transform="translate(997.563477 0.015625)" xlink:href="#DejaVuSans-115"/>
     <use transform="translate(1049.663086 0.015625)" xlink:href="#DejaVuSans-108"/>
     <use transform="translate(1077.446289 0.015625)" xlink:href="#DejaVuSans-97"/>
     <use transform="translate(1138.725586 0.015625)" xlink:href="#DejaVuSans-110"/>
     <use transform="translate(1202.104492 0.015625)" xlink:href="#DejaVuSans-100"/>
     <use transform="translate(1265.581055 0.015625)" xlink:href="#DejaVuSans-32"/>
     <use transform="translate(1297.368164 0.015625)" xlink:href="#DejaVuSans-68"/>
     <use transform="translate(1374.370117 0.015625)" xlink:href="#DejaVuSans-78"/>
     <use transform="translate(1449.174805 0.015625)" xlink:href="#DejaVuSans-78"/>
     <use transform="translate(1523.979492 0.015625)" xlink:href="#DejaVuSans-32"/>
     <use transform="translate(1555.766602 0.015625)" xlink:href="#DejaVuSans-40"/>
     <use transform="translate(1594.780273 0.015625)" xlink:href="#DejaVuSans-77"/>
     <use transform="translate(1681.05957 0.015625)" xlink:href="#DejaVuSans-83"/>
     <use transform="translate(1744.536133 0.015625)" xlink:href="#DejaVuSans-69"/>
     <use transform="translate(1807.719727 0.015625)" xlink:href="#DejaVuSans-58"/>
     <use transform="translate(1841.411133 0.015625)" xlink:href="#DejaVuSans-32"/>
     <use transform="translate(1873.198242 0.015625)" xlink:href="#DejaVuSans-49"/>
     <use transform="translate(1936.821289 0.015625)" xlink:href="#DejaVuSans-48"/>
     <use transform="translate(2000.444336 0.015625)" xlink:href="#DejaVuSans-56"/>
     <use transform="translate(2064.067383 0.015625)" xlink:href="#DejaVuSans-46"/>
     <use transform="translate(2095.854492 0.015625)" xlink:href="#DejaVuSans-48"/>
     <use transform="translate(2159.477539 0.015625)" xlink:href="#DejaVuSans-44"/>
     <use transform="translate(2191.264648 0.015625)" xlink:href="#DejaVuSans-32"/>
     <use transform="translate(2223.051758 0.015625)" xlink:href="#DejaVuSans-115"/>
     <use transform="translate(2275.151367 0.015625)" xlink:href="#DejaVuSans-77"/>
     <use transform="translate(2361.430664 0.015625)" xlink:href="#DejaVuSans-65"/>
     <use transform="translate(2429.838867 0.015625)" xlink:href="#DejaVuSans-80"/>
     <use transform="translate(2490.141602 0.015625)" xlink:href="#DejaVuSans-69"/>
     <use transform="translate(2553.325195 0.015625)" xlink:href="#DejaVuSans-58"/>
     <use transform="translate(2587.016602 0.015625)" xlink:href="#DejaVuSans-32"/>
     <use transform="translate(2618.803711 0.015625)" xlink:href="#DejaVuSans-52"/>
     <use transform="translate(2682.426758 0.015625)" xlink:href="#DejaVuSans-55"/>
     <use transform="translate(2746.049805 0.015625)" xlink:href="#DejaVuSans-46"/>
     <use transform="translate(2772.336914 0.015625)" xlink:href="#DejaVuSans-50"/>
     <use transform="translate(2835.959961 0.015625)" xlink:href="#DejaVuSans-50"/>
     <use transform="translate(2899.583008 0.015625)" xlink:href="#DejaVuSans-37"/>
     <use transform="translate(2994.602539 0.015625)" xlink:href="#DejaVuSans-44"/>
     <use transform="translate(3026.389648 0.015625)" xlink:href="#DejaVuSans-32"/>
     <use transform="translate(3058.176758 0.015625)" xlink:href="#DejaVuSans-77"/>
     <use transform="translate(3144.456055 0.015625)" xlink:href="#DejaVuSans-65"/>
     <use transform="translate(3212.864258 0.015625)" xlink:href="#DejaVuSans-83"/>
     <use transform="translate(3276.34082 0.015625)" xlink:href="#DejaVuSans-69"/>
     <use transform="translate(3339.524414 0.015625)" xlink:href="#DejaVuSans-58"/>
     <use transform="translate(3373.21582 0.015625)" xlink:href="#DejaVuSans-32"/>
     <use transform="translate(3405.00293 0.015625)" xlink:href="#DejaVuSans-49"/>
     <use transform="translate(3468.625977 0.015625)" xlink:href="#DejaVuSans-46"/>
     <use transform="translate(3500.413086 0.015625)" xlink:href="#DejaVuSans-48"/>
     <use transform="translate(3564.036133 0.015625)" xlink:href="#DejaVuSans-41"/>
    </g>
   </g>
   <g id="legend_1">
    <g id="patch_7">
     <path d="M 431.965625 89.19625 
L 511.4 89.19625 
Q 513.4 89.19625 513.4 87.19625 
L 513.4 58.84 
Q 513.4 56.84 511.4 56.84 
L 431.965625 56.84 
Q 429.965625 56.84 429.965625 58.84 
L 429.965625 87.19625 
Q 429.965625 89.19625 431.965625 89.19625 
z
" style="fill:#ffffff;opacity:0.8;stroke:#cccccc;stroke-linejoin:miter;"/>
    </g>
    <g id="line2d_33">
     <path d="M 433.965625 64.938437 
L 453.965625 64.938437 
" style="fill:none;stroke:#1f77b4;stroke-linecap:square;stroke-width:1.5;"/>
    </g>
    <g id="line2d_34"/>
    <g id="text_19">
     <!-- expected -->
     <g transform="translate(461.965625 68.438437)scale(0.1 -0.1)">
      <defs>
       <path d="M 56.203125 29.59375 
L 56.203125 25.203125 
L 14.890625 25.203125 
Q 15.484375 15.921875 20.484375 11.0625 
Q 25.484375 6.203125 34.421875 6.203125 
Q 39.59375 6.203125 44.453125 7.46875 
Q 49.3125 8.734375 54.109375 11.28125 
L 54.109375 2.78125 
Q 49.265625 0.734375 44.1875 -0.34375 
Q 39.109375 -1.421875 33.890625 -1.421875 
Q 20.796875 -1.421875 13.15625 6.1875 
Q 5.515625 13.8125 5.515625 26.8125 
Q 5.515625 40.234375 12.765625 48.109375 
Q 20.015625 56 32.328125 56 
Q 43.359375 56 49.78125 48.890625 
Q 56.203125 41.796875 56.203125 29.59375 
z
M 47.21875 32.234375 
Q 47.125 39.59375 43.09375 43.984375 
Q 39.0625 48.390625 32.421875 48.390625 
Q 24.90625 48.390625 20.390625 44.140625 
Q 15.875 39.890625 15.1875 32.171875 
z
" id="DejaVuSans-101"/>
       <path d="M 18.109375 8.203125 
L 18.109375 -20.796875 
L 9.078125 -20.796875 
L 9.078125 54.6875 
L 18.109375 54.6875 
L 18.109375 46.390625 
Q 20.953125 51.265625 25.265625 53.625 
Q 29.59375 56 35.59375 56 
Q 45.5625 56 51.78125 48.09375 
Q 58.015625 40.1875 58.015625 27.296875 
Q 58.015625 14.40625 51.78125 6.484375 
Q 45.5625 -1.421875 35.59375 -1.421875 
Q 29.59375 -1.421875 25.265625 0.953125 
Q 20.953125 3.328125 18.109375 8.203125 
z
M 48.6875 27.296875 
Q 48.6875 37.203125 44.609375 42.84375 
Q 40.53125 48.484375 33.40625 48.484375 
Q 26.265625 48.484375 22.1875 42.84375 
Q 18.109375 37.203125 18.109375 27.296875 
Q 18.109375 17.390625 22.1875 11.75 
Q 26.265625 6.109375 33.40625 6.109375 
Q 40.53125 6.109375 44.609375 11.75 
Q 48.6875 17.390625 48.6875 27.296875 
z
" id="DejaVuSans-112"/>
       <path d="M 48.78125 52.59375 
L 48.78125 44.1875 
Q 44.96875 46.296875 41.140625 47.34375 
Q 37.3125 48.390625 33.40625 48.390625 
Q 24.65625 48.390625 19.8125 42.84375 
Q 14.984375 37.3125 14.984375 27.296875 
Q 14.984375 17.28125 19.8125 11.734375 
Q 24.65625 6.203125 33.40625 6.203125 
Q 37.3125 6.203125 41.140625 7.25 
Q 44.96875 8.296875 48.78125 10.40625 
L 48.78125 2.09375 
Q 45.015625 0.34375 40.984375 -0.53125 
Q 36.96875 -1.421875 32.421875 -1.421875 
Q 20.0625 -1.421875 12.78125 6.34375 
Q 5.515625 14.109375 5.515625 27.296875 
Q 5.515625 40.671875 12.859375 48.328125 
Q 20.21875 56 33.015625 56 
Q 37.15625 56 41.109375 55.140625 
Q 45.0625 54.296875 48.78125 52.59375 
z
" id="DejaVuSans-99"/>
       <path d="M 18.3125 70.21875 
L 18.3125 54.6875 
L 36.8125 54.6875 
L 36.8125 47.703125 
L 18.3125 47.703125 
L 18.3125 18.015625 
Q 18.3125 11.328125 20.140625 9.421875 
Q 21.96875 7.515625 27.59375 7.515625 
L 36.8125 7.515625 
L 36.8125 0 
L 27.59375 0 
Q 17.1875 0 13.234375 3.875 
Q 9.28125 7.765625 9.28125 18.015625 
L 9.28125 47.703125 
L 2.6875 47.703125 
L 2.6875 54.6875 
L 9.28125 54.6875 
L 9.28125 70.21875 
z
" id="DejaVuSans-116"/>
      </defs>
      <use xlink:href="#DejaVuSans-101"/>
      <use x="59.773438" xlink:href="#DejaVuSans-120"/>
      <use x="118.953125" xlink:href="#DejaVuSans-112"/>
      <use x="182.429688" xlink:href="#DejaVuSans-101"/>
      <use x="243.953125" xlink:href="#DejaVuSans-99"/>
      <use x="298.933594" xlink:href="#DejaVuSans-116"/>
      <use x="338.142578" xlink:href="#DejaVuSans-101"/>
      <use x="399.666016" xlink:href="#DejaVuSans-100"/>
     </g>
    </g>
    <g id="line2d_35">
     <path d="M 433.965625 79.616562 
L 453.965625 79.616562 
" style="fill:none;stroke:#ff7f0e;stroke-linecap:square;stroke-width:1.5;"/>
    </g>
    <g id="line2d_36"/>
    <g id="text_20">
     <!-- predicted -->
     <g transform="translate(461.965625 83.116562)scale(0.1 -0.1)">
      <defs>
       <path d="M 9.421875 54.6875 
L 18.40625 54.6875 
L 18.40625 0 
L 9.421875 0 
z
M 9.421875 75.984375 
L 18.40625 75.984375 
L 18.40625 64.59375 
L 9.421875 64.59375 
z
" id="DejaVuSans-105"/>
      </defs>
      <use xlink:href="#DejaVuSans-112"/>
      <use x="63.476562" xlink:href="#DejaVuSans-114"/>
      <use x="102.339844" xlink:href="#DejaVuSans-101"/>
      <use x="163.863281" xlink:href="#DejaVuSans-100"/>
      <use x="227.339844" xlink:href="#DejaVuSans-105"/>
      <use x="255.123047" xlink:href="#DejaVuSans-99"/>
      <use x="310.103516" xlink:href="#DejaVuSans-116"/>
      <use x="349.3125" xlink:href="#DejaVuSans-101"/>
      <use x="410.835938" xlink:href="#DejaVuSans-100"/>
     </g>
    </g>
   </g>
  </g>
 </g>
 <defs>
  <clipPath id="pf50262e8af">
   <rect height="332.64" width="446.4" x="72" y="51.84"/>
  </clipPath>
 </defs>
</svg>
