<?xml version="1.0" encoding="utf-8" standalone="no"?>
<!DOCTYPE svg PUBLIC "-//W3C//DTD SVG 1.1//EN"
  "http://www.w3.org/Graphics/SVG/1.1/DTD/svg11.dtd">
<!-- Created with matplotlib (https://matplotlib.org/) -->
<svg height="432pt" version="1.1" viewBox="0 0 576 432" width="576pt" xmlns="http://www.w3.org/2000/svg" xmlns:xlink="http://www.w3.org/1999/xlink">
 <metadata>
  <rdf:RDF xmlns:cc="http://creativecommons.org/ns#" xmlns:dc="http://purl.org/dc/elements/1.1/" xmlns:rdf="http://www.w3.org/1999/02/22-rdf-syntax-ns#">
   <cc:Work>
    <dc:type rdf:resource="http://purl.org/dc/dcmitype/StillImage"/>
    <dc:date>2020-12-06T22:27:39.217269</dc:date>
    <dc:format>image/svg+xml</dc:format>
    <dc:creator>
     <cc:Agent>
      <dc:title>Matplotlib v3.3.2, https://matplotlib.org/</dc:title>
     </cc:Agent>
    </dc:creator>
   </cc:Work>
  </rdf:RDF>
 </metadata>
 <defs>
  <style type="text/css">*{stroke-linecap:butt;stroke-linejoin:round;}</style>
 </defs>
 <g id="figure_1">
  <g id="patch_1">
   <path d="M 0 432 
L 576 432 
L 576 0 
L 0 0 
z
" style="fill:#ffffff;"/>
  </g>
  <g id="axes_1">
   <g id="patch_2">
    <path d="M 72 384.48 
L 518.4 384.48 
L 518.4 51.84 
L 72 51.84 
z
" style="fill:#ffffff;"/>
   </g>
   <g id="matplotlib.axis_1">
    <g id="xtick_1">
     <g id="line2d_1">
      <path clip-path="url(#p99b1fb516f)" d="M 92.290909 384.48 
L 92.290909 51.84 
" style="fill:none;stroke:#b0b0b0;stroke-linecap:square;stroke-width:0.8;"/>
     </g>
     <g id="line2d_2">
      <defs>
       <path d="M 0 0 
L 0 3.5 
" id="mccb9ee63bc" style="stroke:#000000;stroke-width:0.8;"/>
      </defs>
      <g>
       <use style="stroke:#000000;stroke-width:0.8;" x="92.290909" xlink:href="#mccb9ee63bc" y="384.48"/>
      </g>
     </g>
     <g id="text_1">
      <!-- 0 -->
      <g transform="translate(89.109659 399.078438)scale(0.1 -0.1)">
       <defs>
        <path d="M 31.78125 66.40625 
Q 24.171875 66.40625 20.328125 58.90625 
Q 16.5 51.421875 16.5 36.375 
Q 16.5 21.390625 20.328125 13.890625 
Q 24.171875 6.390625 31.78125 6.390625 
Q 39.453125 6.390625 43.28125 13.890625 
Q 47.125 21.390625 47.125 36.375 
Q 47.125 51.421875 43.28125 58.90625 
Q 39.453125 66.40625 31.78125 66.40625 
z
M 31.78125 74.21875 
Q 44.046875 74.21875 50.515625 64.515625 
Q 56.984375 54.828125 56.984375 36.375 
Q 56.984375 17.96875 50.515625 8.265625 
Q 44.046875 -1.421875 31.78125 -1.421875 
Q 19.53125 -1.421875 13.0625 8.265625 
Q 6.59375 17.96875 6.59375 36.375 
Q 6.59375 54.828125 13.0625 64.515625 
Q 19.53125 74.21875 31.78125 74.21875 
z
" id="DejaVuSans-48"/>
       </defs>
       <use xlink:href="#DejaVuSans-48"/>
      </g>
     </g>
    </g>
    <g id="xtick_2">
     <g id="line2d_3">
      <path clip-path="url(#p99b1fb516f)" d="M 148.035165 384.48 
L 148.035165 51.84 
" style="fill:none;stroke:#b0b0b0;stroke-linecap:square;stroke-width:0.8;"/>
     </g>
     <g id="line2d_4">
      <g>
       <use style="stroke:#000000;stroke-width:0.8;" x="148.035165" xlink:href="#mccb9ee63bc" y="384.48"/>
      </g>
     </g>
     <g id="text_2">
      <!-- 50 -->
      <g transform="translate(141.672665 399.078438)scale(0.1 -0.1)">
       <defs>
        <path d="M 10.796875 72.90625 
L 49.515625 72.90625 
L 49.515625 64.59375 
L 19.828125 64.59375 
L 19.828125 46.734375 
Q 21.96875 47.46875 24.109375 47.828125 
Q 26.265625 48.1875 28.421875 48.1875 
Q 40.625 48.1875 47.75 41.5 
Q 54.890625 34.8125 54.890625 23.390625 
Q 54.890625 11.625 47.5625 5.09375 
Q 40.234375 -1.421875 26.90625 -1.421875 
Q 22.3125 -1.421875 17.546875 -0.640625 
Q 12.796875 0.140625 7.71875 1.703125 
L 7.71875 11.625 
Q 12.109375 9.234375 16.796875 8.0625 
Q 21.484375 6.890625 26.703125 6.890625 
Q 35.15625 6.890625 40.078125 11.328125 
Q 45.015625 15.765625 45.015625 23.390625 
Q 45.015625 31 40.078125 35.4375 
Q 35.15625 39.890625 26.703125 39.890625 
Q 22.75 39.890625 18.8125 39.015625 
Q 14.890625 38.140625 10.796875 36.28125 
z
" id="DejaVuSans-53"/>
       </defs>
       <use xlink:href="#DejaVuSans-53"/>
       <use x="63.623047" xlink:href="#DejaVuSans-48"/>
      </g>
     </g>
    </g>
    <g id="xtick_3">
     <g id="line2d_5">
      <path clip-path="url(#p99b1fb516f)" d="M 203.779421 384.48 
L 203.779421 51.84 
" style="fill:none;stroke:#b0b0b0;stroke-linecap:square;stroke-width:0.8;"/>
     </g>
     <g id="line2d_6">
      <g>
       <use style="stroke:#000000;stroke-width:0.8;" x="203.779421" xlink:href="#mccb9ee63bc" y="384.48"/>
      </g>
     </g>
     <g id="text_3">
      <!-- 100 -->
      <g transform="translate(194.235671 399.078438)scale(0.1 -0.1)">
       <defs>
        <path d="M 12.40625 8.296875 
L 28.515625 8.296875 
L 28.515625 63.921875 
L 10.984375 60.40625 
L 10.984375 69.390625 
L 28.421875 72.90625 
L 38.28125 72.90625 
L 38.28125 8.296875 
L 54.390625 8.296875 
L 54.390625 0 
L 12.40625 0 
z
" id="DejaVuSans-49"/>
       </defs>
       <use xlink:href="#DejaVuSans-49"/>
       <use x="63.623047" xlink:href="#DejaVuSans-48"/>
       <use x="127.246094" xlink:href="#DejaVuSans-48"/>
      </g>
     </g>
    </g>
    <g id="xtick_4">
     <g id="line2d_7">
      <path clip-path="url(#p99b1fb516f)" d="M 259.523676 384.48 
L 259.523676 51.84 
" style="fill:none;stroke:#b0b0b0;stroke-linecap:square;stroke-width:0.8;"/>
     </g>
     <g id="line2d_8">
      <g>
       <use style="stroke:#000000;stroke-width:0.8;" x="259.523676" xlink:href="#mccb9ee63bc" y="384.48"/>
      </g>
     </g>
     <g id="text_4">
      <!-- 150 -->
      <g transform="translate(249.979926 399.078438)scale(0.1 -0.1)">
       <use xlink:href="#DejaVuSans-49"/>
       <use x="63.623047" xlink:href="#DejaVuSans-53"/>
       <use x="127.246094" xlink:href="#DejaVuSans-48"/>
      </g>
     </g>
    </g>
    <g id="xtick_5">
     <g id="line2d_9">
      <path clip-path="url(#p99b1fb516f)" d="M 315.267932 384.48 
L 315.267932 51.84 
" style="fill:none;stroke:#b0b0b0;stroke-linecap:square;stroke-width:0.8;"/>
     </g>
     <g id="line2d_10">
      <g>
       <use style="stroke:#000000;stroke-width:0.8;" x="315.267932" xlink:href="#mccb9ee63bc" y="384.48"/>
      </g>
     </g>
     <g id="text_5">
      <!-- 200 -->
      <g transform="translate(305.724182 399.078438)scale(0.1 -0.1)">
       <defs>
        <path d="M 19.1875 8.296875 
L 53.609375 8.296875 
L 53.609375 0 
L 7.328125 0 
L 7.328125 8.296875 
Q 12.9375 14.109375 22.625 23.890625 
Q 32.328125 33.6875 34.8125 36.53125 
Q 39.546875 41.84375 41.421875 45.53125 
Q 43.3125 49.21875 43.3125 52.78125 
Q 43.3125 58.59375 39.234375 62.25 
Q 35.15625 65.921875 28.609375 65.921875 
Q 23.96875 65.921875 18.8125 64.3125 
Q 13.671875 62.703125 7.8125 59.421875 
L 7.8125 69.390625 
Q 13.765625 71.78125 18.9375 73 
Q 24.125 74.21875 28.421875 74.21875 
Q 39.75 74.21875 46.484375 68.546875 
Q 53.21875 62.890625 53.21875 53.421875 
Q 53.21875 48.921875 51.53125 44.890625 
Q 49.859375 40.875 45.40625 35.40625 
Q 44.1875 33.984375 37.640625 27.21875 
Q 31.109375 20.453125 19.1875 8.296875 
z
" id="DejaVuSans-50"/>
       </defs>
       <use xlink:href="#DejaVuSans-50"/>
       <use x="63.623047" xlink:href="#DejaVuSans-48"/>
       <use x="127.246094" xlink:href="#DejaVuSans-48"/>
      </g>
     </g>
    </g>
    <g id="xtick_6">
     <g id="line2d_11">
      <path clip-path="url(#p99b1fb516f)" d="M 371.012188 384.48 
L 371.012188 51.84 
" style="fill:none;stroke:#b0b0b0;stroke-linecap:square;stroke-width:0.8;"/>
     </g>
     <g id="line2d_12">
      <g>
       <use style="stroke:#000000;stroke-width:0.8;" x="371.012188" xlink:href="#mccb9ee63bc" y="384.48"/>
      </g>
     </g>
     <g id="text_6">
      <!-- 250 -->
      <g transform="translate(361.468438 399.078438)scale(0.1 -0.1)">
       <use xlink:href="#DejaVuSans-50"/>
       <use x="63.623047" xlink:href="#DejaVuSans-53"/>
       <use x="127.246094" xlink:href="#DejaVuSans-48"/>
      </g>
     </g>
    </g>
    <g id="xtick_7">
     <g id="line2d_13">
      <path clip-path="url(#p99b1fb516f)" d="M 426.756444 384.48 
L 426.756444 51.84 
" style="fill:none;stroke:#b0b0b0;stroke-linecap:square;stroke-width:0.8;"/>
     </g>
     <g id="line2d_14">
      <g>
       <use style="stroke:#000000;stroke-width:0.8;" x="426.756444" xlink:href="#mccb9ee63bc" y="384.48"/>
      </g>
     </g>
     <g id="text_7">
      <!-- 300 -->
      <g transform="translate(417.212694 399.078438)scale(0.1 -0.1)">
       <defs>
        <path d="M 40.578125 39.3125 
Q 47.65625 37.796875 51.625 33 
Q 55.609375 28.21875 55.609375 21.1875 
Q 55.609375 10.40625 48.1875 4.484375 
Q 40.765625 -1.421875 27.09375 -1.421875 
Q 22.515625 -1.421875 17.65625 -0.515625 
Q 12.796875 0.390625 7.625 2.203125 
L 7.625 11.71875 
Q 11.71875 9.328125 16.59375 8.109375 
Q 21.484375 6.890625 26.8125 6.890625 
Q 36.078125 6.890625 40.9375 10.546875 
Q 45.796875 14.203125 45.796875 21.1875 
Q 45.796875 27.640625 41.28125 31.265625 
Q 36.765625 34.90625 28.71875 34.90625 
L 20.21875 34.90625 
L 20.21875 43.015625 
L 29.109375 43.015625 
Q 36.375 43.015625 40.234375 45.921875 
Q 44.09375 48.828125 44.09375 54.296875 
Q 44.09375 59.90625 40.109375 62.90625 
Q 36.140625 65.921875 28.71875 65.921875 
Q 24.65625 65.921875 20.015625 65.03125 
Q 15.375 64.15625 9.8125 62.3125 
L 9.8125 71.09375 
Q 15.4375 72.65625 20.34375 73.4375 
Q 25.25 74.21875 29.59375 74.21875 
Q 40.828125 74.21875 47.359375 69.109375 
Q 53.90625 64.015625 53.90625 55.328125 
Q 53.90625 49.265625 50.4375 45.09375 
Q 46.96875 40.921875 40.578125 39.3125 
z
" id="DejaVuSans-51"/>
       </defs>
       <use xlink:href="#DejaVuSans-51"/>
       <use x="63.623047" xlink:href="#DejaVuSans-48"/>
       <use x="127.246094" xlink:href="#DejaVuSans-48"/>
      </g>
     </g>
    </g>
    <g id="xtick_8">
     <g id="line2d_15">
      <path clip-path="url(#p99b1fb516f)" d="M 482.500699 384.48 
L 482.500699 51.84 
" style="fill:none;stroke:#b0b0b0;stroke-linecap:square;stroke-width:0.8;"/>
     </g>
     <g id="line2d_16">
      <g>
       <use style="stroke:#000000;stroke-width:0.8;" x="482.500699" xlink:href="#mccb9ee63bc" y="384.48"/>
      </g>
     </g>
     <g id="text_8">
      <!-- 350 -->
      <g transform="translate(472.956949 399.078438)scale(0.1 -0.1)">
       <use xlink:href="#DejaVuSans-51"/>
       <use x="63.623047" xlink:href="#DejaVuSans-53"/>
       <use x="127.246094" xlink:href="#DejaVuSans-48"/>
      </g>
     </g>
    </g>
    <g id="text_9">
     <!-- Day -->
     <g transform="translate(285.326562 412.756563)scale(0.1 -0.1)">
      <defs>
       <path d="M 19.671875 64.796875 
L 19.671875 8.109375 
L 31.59375 8.109375 
Q 46.6875 8.109375 53.6875 14.9375 
Q 60.6875 21.78125 60.6875 36.53125 
Q 60.6875 51.171875 53.6875 57.984375 
Q 46.6875 64.796875 31.59375 64.796875 
z
M 9.8125 72.90625 
L 30.078125 72.90625 
Q 51.265625 72.90625 61.171875 64.09375 
Q 71.09375 55.28125 71.09375 36.53125 
Q 71.09375 17.671875 61.125 8.828125 
Q 51.171875 0 30.078125 0 
L 9.8125 0 
z
" id="DejaVuSans-68"/>
       <path d="M 34.28125 27.484375 
Q 23.390625 27.484375 19.1875 25 
Q 14.984375 22.515625 14.984375 16.5 
Q 14.984375 11.71875 18.140625 8.90625 
Q 21.296875 6.109375 26.703125 6.109375 
Q 34.1875 6.109375 38.703125 11.40625 
Q 43.21875 16.703125 43.21875 25.484375 
L 43.21875 27.484375 
z
M 52.203125 31.203125 
L 52.203125 0 
L 43.21875 0 
L 43.21875 8.296875 
Q 40.140625 3.328125 35.546875 0.953125 
Q 30.953125 -1.421875 24.3125 -1.421875 
Q 15.921875 -1.421875 10.953125 3.296875 
Q 6 8.015625 6 15.921875 
Q 6 25.140625 12.171875 29.828125 
Q 18.359375 34.515625 30.609375 34.515625 
L 43.21875 34.515625 
L 43.21875 35.40625 
Q 43.21875 41.609375 39.140625 45 
Q 35.0625 48.390625 27.6875 48.390625 
Q 23 48.390625 18.546875 47.265625 
Q 14.109375 46.140625 10.015625 43.890625 
L 10.015625 52.203125 
Q 14.9375 54.109375 19.578125 55.046875 
Q 24.21875 56 28.609375 56 
Q 40.484375 56 46.34375 49.84375 
Q 52.203125 43.703125 52.203125 31.203125 
z
" id="DejaVuSans-97"/>
       <path d="M 32.171875 -5.078125 
Q 28.375 -14.84375 24.75 -17.8125 
Q 21.140625 -20.796875 15.09375 -20.796875 
L 7.90625 -20.796875 
L 7.90625 -13.28125 
L 13.1875 -13.28125 
Q 16.890625 -13.28125 18.9375 -11.515625 
Q 21 -9.765625 23.484375 -3.21875 
L 25.09375 0.875 
L 2.984375 54.6875 
L 12.5 54.6875 
L 29.59375 11.921875 
L 46.6875 54.6875 
L 56.203125 54.6875 
z
" id="DejaVuSans-121"/>
      </defs>
      <use xlink:href="#DejaVuSans-68"/>
      <use x="77.001953" xlink:href="#DejaVuSans-97"/>
      <use x="138.28125" xlink:href="#DejaVuSans-121"/>
     </g>
    </g>
   </g>
   <g id="matplotlib.axis_2">
    <g id="ytick_1">
     <g id="line2d_17">
      <path clip-path="url(#p99b1fb516f)" d="M 72 359.749955 
L 518.4 359.749955 
" style="fill:none;stroke:#b0b0b0;stroke-linecap:square;stroke-width:0.8;"/>
     </g>
     <g id="line2d_18">
      <defs>
       <path d="M 0 0 
L -3.5 0 
" id="mfb1df0cb69" style="stroke:#000000;stroke-width:0.8;"/>
      </defs>
      <g>
       <use style="stroke:#000000;stroke-width:0.8;" x="72" xlink:href="#mfb1df0cb69" y="359.749955"/>
      </g>
     </g>
     <g id="text_10">
      <!-- 0 -->
      <g transform="translate(58.6375 363.549174)scale(0.1 -0.1)">
       <use xlink:href="#DejaVuSans-48"/>
      </g>
     </g>
    </g>
    <g id="ytick_2">
     <g id="line2d_19">
      <path clip-path="url(#p99b1fb516f)" d="M 72 318.558164 
L 518.4 318.558164 
" style="fill:none;stroke:#b0b0b0;stroke-linecap:square;stroke-width:0.8;"/>
     </g>
     <g id="line2d_20">
      <g>
       <use style="stroke:#000000;stroke-width:0.8;" x="72" xlink:href="#mfb1df0cb69" y="318.558164"/>
      </g>
     </g>
     <g id="text_11">
      <!-- 10 -->
      <g transform="translate(52.275 322.357383)scale(0.1 -0.1)">
       <use xlink:href="#DejaVuSans-49"/>
       <use x="63.623047" xlink:href="#DejaVuSans-48"/>
      </g>
     </g>
    </g>
    <g id="ytick_3">
     <g id="line2d_21">
      <path clip-path="url(#p99b1fb516f)" d="M 72 277.366373 
L 518.4 277.366373 
" style="fill:none;stroke:#b0b0b0;stroke-linecap:square;stroke-width:0.8;"/>
     </g>
     <g id="line2d_22">
      <g>
       <use style="stroke:#000000;stroke-width:0.8;" x="72" xlink:href="#mfb1df0cb69" y="277.366373"/>
      </g>
     </g>
     <g id="text_12">
      <!-- 20 -->
      <g transform="translate(52.275 281.165592)scale(0.1 -0.1)">
       <use xlink:href="#DejaVuSans-50"/>
       <use x="63.623047" xlink:href="#DejaVuSans-48"/>
      </g>
     </g>
    </g>
    <g id="ytick_4">
     <g id="line2d_23">
      <path clip-path="url(#p99b1fb516f)" d="M 72 236.174582 
L 518.4 236.174582 
" style="fill:none;stroke:#b0b0b0;stroke-linecap:square;stroke-width:0.8;"/>
     </g>
     <g id="line2d_24">
      <g>
       <use style="stroke:#000000;stroke-width:0.8;" x="72" xlink:href="#mfb1df0cb69" y="236.174582"/>
      </g>
     </g>
     <g id="text_13">
      <!-- 30 -->
      <g transform="translate(52.275 239.973801)scale(0.1 -0.1)">
       <use xlink:href="#DejaVuSans-51"/>
       <use x="63.623047" xlink:href="#DejaVuSans-48"/>
      </g>
     </g>
    </g>
    <g id="ytick_5">
     <g id="line2d_25">
      <path clip-path="url(#p99b1fb516f)" d="M 72 194.982791 
L 518.4 194.982791 
" style="fill:none;stroke:#b0b0b0;stroke-linecap:square;stroke-width:0.8;"/>
     </g>
     <g id="line2d_26">
      <g>
       <use style="stroke:#000000;stroke-width:0.8;" x="72" xlink:href="#mfb1df0cb69" y="194.982791"/>
      </g>
     </g>
     <g id="text_14">
      <!-- 40 -->
      <g transform="translate(52.275 198.78201)scale(0.1 -0.1)">
       <defs>
        <path d="M 37.796875 64.3125 
L 12.890625 25.390625 
L 37.796875 25.390625 
z
M 35.203125 72.90625 
L 47.609375 72.90625 
L 47.609375 25.390625 
L 58.015625 25.390625 
L 58.015625 17.1875 
L 47.609375 17.1875 
L 47.609375 0 
L 37.796875 0 
L 37.796875 17.1875 
L 4.890625 17.1875 
L 4.890625 26.703125 
z
" id="DejaVuSans-52"/>
       </defs>
       <use xlink:href="#DejaVuSans-52"/>
       <use x="63.623047" xlink:href="#DejaVuSans-48"/>
      </g>
     </g>
    </g>
    <g id="ytick_6">
     <g id="line2d_27">
      <path clip-path="url(#p99b1fb516f)" d="M 72 153.791 
L 518.4 153.791 
" style="fill:none;stroke:#b0b0b0;stroke-linecap:square;stroke-width:0.8;"/>
     </g>
     <g id="line2d_28">
      <g>
       <use style="stroke:#000000;stroke-width:0.8;" x="72" xlink:href="#mfb1df0cb69" y="153.791"/>
      </g>
     </g>
     <g id="text_15">
      <!-- 50 -->
      <g transform="translate(52.275 157.590219)scale(0.1 -0.1)">
       <use xlink:href="#DejaVuSans-53"/>
       <use x="63.623047" xlink:href="#DejaVuSans-48"/>
      </g>
     </g>
    </g>
    <g id="ytick_7">
     <g id="line2d_29">
      <path clip-path="url(#p99b1fb516f)" d="M 72 112.599209 
L 518.4 112.599209 
" style="fill:none;stroke:#b0b0b0;stroke-linecap:square;stroke-width:0.8;"/>
     </g>
     <g id="line2d_30">
      <g>
       <use style="stroke:#000000;stroke-width:0.8;" x="72" xlink:href="#mfb1df0cb69" y="112.599209"/>
      </g>
     </g>
     <g id="text_16">
      <!-- 60 -->
      <g transform="translate(52.275 116.398428)scale(0.1 -0.1)">
       <defs>
        <path d="M 33.015625 40.375 
Q 26.375 40.375 22.484375 35.828125 
Q 18.609375 31.296875 18.609375 23.390625 
Q 18.609375 15.53125 22.484375 10.953125 
Q 26.375 6.390625 33.015625 6.390625 
Q 39.65625 6.390625 43.53125 10.953125 
Q 47.40625 15.53125 47.40625 23.390625 
Q 47.40625 31.296875 43.53125 35.828125 
Q 39.65625 40.375 33.015625 40.375 
z
M 52.59375 71.296875 
L 52.59375 62.3125 
Q 48.875 64.0625 45.09375 64.984375 
Q 41.3125 65.921875 37.59375 65.921875 
Q 27.828125 65.921875 22.671875 59.328125 
Q 17.53125 52.734375 16.796875 39.40625 
Q 19.671875 43.65625 24.015625 45.921875 
Q 28.375 48.1875 33.59375 48.1875 
Q 44.578125 48.1875 50.953125 41.515625 
Q 57.328125 34.859375 57.328125 23.390625 
Q 57.328125 12.15625 50.6875 5.359375 
Q 44.046875 -1.421875 33.015625 -1.421875 
Q 20.359375 -1.421875 13.671875 8.265625 
Q 6.984375 17.96875 6.984375 36.375 
Q 6.984375 53.65625 15.1875 63.9375 
Q 23.390625 74.21875 37.203125 74.21875 
Q 40.921875 74.21875 44.703125 73.484375 
Q 48.484375 72.75 52.59375 71.296875 
z
" id="DejaVuSans-54"/>
       </defs>
       <use xlink:href="#DejaVuSans-54"/>
       <use x="63.623047" xlink:href="#DejaVuSans-48"/>
      </g>
     </g>
    </g>
    <g id="ytick_8">
     <g id="line2d_31">
      <path clip-path="url(#p99b1fb516f)" d="M 72 71.407418 
L 518.4 71.407418 
" style="fill:none;stroke:#b0b0b0;stroke-linecap:square;stroke-width:0.8;"/>
     </g>
     <g id="line2d_32">
      <g>
       <use style="stroke:#000000;stroke-width:0.8;" x="72" xlink:href="#mfb1df0cb69" y="71.407418"/>
      </g>
     </g>
     <g id="text_17">
      <!-- 70 -->
      <g transform="translate(52.275 75.206637)scale(0.1 -0.1)">
       <defs>
        <path d="M 8.203125 72.90625 
L 55.078125 72.90625 
L 55.078125 68.703125 
L 28.609375 0 
L 18.3125 0 
L 43.21875 64.59375 
L 8.203125 64.59375 
z
" id="DejaVuSans-55"/>
       </defs>
       <use xlink:href="#DejaVuSans-55"/>
       <use x="63.623047" xlink:href="#DejaVuSans-48"/>
      </g>
     </g>
    </g>
    <g id="text_18">
     <!-- max 8h 'r'$O_3$ $[\mu g/m^3$] -->
     <g transform="translate(46.175 270.71)rotate(-90)scale(0.1 -0.1)">
      <defs>
       <path d="M 52 44.1875 
Q 55.375 50.25 60.0625 53.125 
Q 64.75 56 71.09375 56 
Q 79.640625 56 84.28125 50.015625 
Q 88.921875 44.046875 88.921875 33.015625 
L 88.921875 0 
L 79.890625 0 
L 79.890625 32.71875 
Q 79.890625 40.578125 77.09375 44.375 
Q 74.3125 48.1875 68.609375 48.1875 
Q 61.625 48.1875 57.5625 43.546875 
Q 53.515625 38.921875 53.515625 30.90625 
L 53.515625 0 
L 44.484375 0 
L 44.484375 32.71875 
Q 44.484375 40.625 41.703125 44.40625 
Q 38.921875 48.1875 33.109375 48.1875 
Q 26.21875 48.1875 22.15625 43.53125 
Q 18.109375 38.875 18.109375 30.90625 
L 18.109375 0 
L 9.078125 0 
L 9.078125 54.6875 
L 18.109375 54.6875 
L 18.109375 46.1875 
Q 21.1875 51.21875 25.484375 53.609375 
Q 29.78125 56 35.6875 56 
Q 41.65625 56 45.828125 52.96875 
Q 50 49.953125 52 44.1875 
z
" id="DejaVuSans-109"/>
       <path d="M 54.890625 54.6875 
L 35.109375 28.078125 
L 55.90625 0 
L 45.3125 0 
L 29.390625 21.484375 
L 13.484375 0 
L 2.875 0 
L 24.125 28.609375 
L 4.6875 54.6875 
L 15.28125 54.6875 
L 29.78125 35.203125 
L 44.28125 54.6875 
z
" id="DejaVuSans-120"/>
       <path id="DejaVuSans-32"/>
       <path d="M 31.78125 34.625 
Q 24.75 34.625 20.71875 30.859375 
Q 16.703125 27.09375 16.703125 20.515625 
Q 16.703125 13.921875 20.71875 10.15625 
Q 24.75 6.390625 31.78125 6.390625 
Q 38.8125 6.390625 42.859375 10.171875 
Q 46.921875 13.96875 46.921875 20.515625 
Q 46.921875 27.09375 42.890625 30.859375 
Q 38.875 34.625 31.78125 34.625 
z
M 21.921875 38.8125 
Q 15.578125 40.375 12.03125 44.71875 
Q 8.5 49.078125 8.5 55.328125 
Q 8.5 64.0625 14.71875 69.140625 
Q 20.953125 74.21875 31.78125 74.21875 
Q 42.671875 74.21875 48.875 69.140625 
Q 55.078125 64.0625 55.078125 55.328125 
Q 55.078125 49.078125 51.53125 44.71875 
Q 48 40.375 41.703125 38.8125 
Q 48.828125 37.15625 52.796875 32.3125 
Q 56.78125 27.484375 56.78125 20.515625 
Q 56.78125 9.90625 50.3125 4.234375 
Q 43.84375 -1.421875 31.78125 -1.421875 
Q 19.734375 -1.421875 13.25 4.234375 
Q 6.78125 9.90625 6.78125 20.515625 
Q 6.78125 27.484375 10.78125 32.3125 
Q 14.796875 37.15625 21.921875 38.8125 
z
M 18.3125 54.390625 
Q 18.3125 48.734375 21.84375 45.5625 
Q 25.390625 42.390625 31.78125 42.390625 
Q 38.140625 42.390625 41.71875 45.5625 
Q 45.3125 48.734375 45.3125 54.390625 
Q 45.3125 60.0625 41.71875 63.234375 
Q 38.140625 66.40625 31.78125 66.40625 
Q 25.390625 66.40625 21.84375 63.234375 
Q 18.3125 60.0625 18.3125 54.390625 
z
" id="DejaVuSans-56"/>
       <path d="M 54.890625 33.015625 
L 54.890625 0 
L 45.90625 0 
L 45.90625 32.71875 
Q 45.90625 40.484375 42.875 44.328125 
Q 39.84375 48.1875 33.796875 48.1875 
Q 26.515625 48.1875 22.3125 43.546875 
Q 18.109375 38.921875 18.109375 30.90625 
L 18.109375 0 
L 9.078125 0 
L 9.078125 75.984375 
L 18.109375 75.984375 
L 18.109375 46.1875 
Q 21.34375 51.125 25.703125 53.5625 
Q 30.078125 56 35.796875 56 
Q 45.21875 56 50.046875 50.171875 
Q 54.890625 44.34375 54.890625 33.015625 
z
" id="DejaVuSans-104"/>
       <path d="M 17.921875 72.90625 
L 17.921875 45.796875 
L 9.625 45.796875 
L 9.625 72.90625 
z
" id="DejaVuSans-39"/>
       <path d="M 41.109375 46.296875 
Q 39.59375 47.171875 37.8125 47.578125 
Q 36.03125 48 33.890625 48 
Q 26.265625 48 22.1875 43.046875 
Q 18.109375 38.09375 18.109375 28.8125 
L 18.109375 0 
L 9.078125 0 
L 9.078125 54.6875 
L 18.109375 54.6875 
L 18.109375 46.1875 
Q 20.953125 51.171875 25.484375 53.578125 
Q 30.03125 56 36.53125 56 
Q 37.453125 56 38.578125 55.875 
Q 39.703125 55.765625 41.0625 55.515625 
z
" id="DejaVuSans-114"/>
       <path d="M 45.609375 66.21875 
Q 37.5 66.21875 31.296875 62.28125 
Q 25.09375 58.34375 20.515625 50.296875 
Q 17.578125 45.171875 16.03125 39.40625 
Q 14.5 33.640625 14.5 27.78125 
Q 14.5 17.625 19.359375 12.109375 
Q 24.21875 6.59375 33.109375 6.59375 
Q 41.109375 6.59375 47.375 10.5625 
Q 53.65625 14.546875 58.109375 22.40625 
Q 61.078125 27.6875 62.640625 33.46875 
Q 64.203125 39.265625 64.203125 45.015625 
Q 64.203125 55.125 59.3125 60.671875 
Q 54.4375 66.21875 45.609375 66.21875 
z
M 32.8125 -1.421875 
Q 19.390625 -1.421875 11.6875 6.53125 
Q 4 14.5 4 28.328125 
Q 4 36.234375 7 44.484375 
Q 10.015625 52.734375 15.28125 59.1875 
Q 21.484375 66.75 29.09375 70.484375 
Q 36.71875 74.21875 45.90625 74.21875 
Q 59.28125 74.21875 66.984375 66.328125 
Q 74.703125 58.453125 74.703125 44.828125 
Q 74.703125 36.421875 71.765625 28.3125 
Q 68.84375 20.21875 63.375 13.625 
Q 57.125 6 49.578125 2.28125 
Q 42.046875 -1.421875 32.8125 -1.421875 
z
" id="DejaVuSans-Oblique-79"/>
       <path d="M 8.59375 75.984375 
L 29.296875 75.984375 
L 29.296875 69 
L 17.578125 69 
L 17.578125 -6.203125 
L 29.296875 -6.203125 
L 29.296875 -13.1875 
L 8.59375 -13.1875 
z
" id="DejaVuSans-91"/>
       <path d="M -1.3125 -20.796875 
L 13.375 54.6875 
L 22.40625 54.6875 
L 15.765625 20.65625 
Q 15.578125 19.625 15.421875 18.359375 
Q 15.28125 17.09375 15.28125 15.828125 
Q 15.28125 11.28125 18.140625 8.828125 
Q 21 6.390625 26.3125 6.390625 
Q 33.546875 6.390625 37.984375 10.484375 
Q 42.4375 14.59375 44 22.796875 
L 50.203125 54.6875 
L 59.1875 54.6875 
L 51.03125 12.640625 
Q 50.828125 11.71875 50.75 11.03125 
Q 50.6875 10.359375 50.6875 9.8125 
Q 50.6875 8.296875 51.296875 7.59375 
Q 51.90625 6.890625 53.21875 6.890625 
Q 53.71875 6.890625 54.5625 7.125 
Q 55.421875 7.375 56.984375 8.015625 
L 55.609375 0.78125 
Q 53.46875 -0.296875 51.515625 -0.859375 
Q 49.5625 -1.421875 47.703125 -1.421875 
Q 44.484375 -1.421875 42.65625 0.625 
Q 40.828125 2.6875 40.828125 6.296875 
Q 38.09375 2.390625 34.296875 0.484375 
Q 30.515625 -1.421875 25.390625 -1.421875 
Q 20.84375 -1.421875 17.453125 0.671875 
Q 14.0625 2.78125 12.984375 6.203125 
L 7.71875 -20.796875 
z
" id="DejaVuSans-Oblique-956"/>
       <path d="M 59.625 54.6875 
L 50.296875 6.78125 
Q 47.609375 -7.125 40.015625 -13.953125 
Q 32.421875 -20.796875 19.578125 -20.796875 
Q 14.84375 -20.796875 10.78125 -20.09375 
Q 6.734375 -19.390625 3.21875 -17.921875 
L 4.890625 -9.1875 
Q 8.203125 -11.328125 11.90625 -12.34375 
Q 15.625 -13.375 19.828125 -13.375 
Q 28.375 -13.375 33.859375 -8.703125 
Q 39.359375 -4.046875 41.109375 4.6875 
L 41.890625 8.796875 
Q 38.140625 4.5 33.15625 2.25 
Q 28.171875 0 22.40625 0 
Q 14.109375 0 9.34375 5.484375 
Q 4.59375 10.984375 4.59375 20.609375 
Q 4.59375 28.171875 7.46875 35.421875 
Q 10.359375 42.671875 15.578125 48.296875 
Q 19.046875 52 23.65625 54 
Q 28.265625 56 33.296875 56 
Q 38.8125 56 42.90625 53.4375 
Q 47.015625 50.875 49.03125 46.1875 
L 50.59375 54.6875 
z
M 46.09375 34.625 
Q 46.09375 41.265625 42.96875 44.875 
Q 39.84375 48.484375 34.078125 48.484375 
Q 30.515625 48.484375 27.296875 47.0625 
Q 24.078125 45.65625 21.78125 43.109375 
Q 18.0625 38.921875 15.984375 33.234375 
Q 13.921875 27.546875 13.921875 21.484375 
Q 13.921875 14.75 17.0625 11.125 
Q 20.21875 7.515625 26.125 7.515625 
Q 34.671875 7.515625 40.375 15.25 
Q 46.09375 23 46.09375 34.625 
z
" id="DejaVuSans-Oblique-103"/>
       <path d="M 25.390625 72.90625 
L 33.6875 72.90625 
L 8.296875 -9.28125 
L 0 -9.28125 
z
" id="DejaVuSans-47"/>
       <path d="M 89.796875 33.015625 
L 83.40625 0 
L 74.421875 0 
L 80.71875 32.71875 
Q 81.109375 34.8125 81.296875 36.328125 
Q 81.5 37.84375 81.5 38.921875 
Q 81.5 43.3125 79.046875 45.75 
Q 76.609375 48.1875 72.21875 48.1875 
Q 65.671875 48.1875 60.546875 43.28125 
Q 55.421875 38.375 53.90625 30.515625 
L 47.90625 0 
L 38.921875 0 
L 45.3125 32.71875 
Q 45.703125 34.515625 45.890625 36.046875 
Q 46.09375 37.59375 46.09375 38.8125 
Q 46.09375 43.265625 43.65625 45.71875 
Q 41.21875 48.1875 36.921875 48.1875 
Q 30.28125 48.1875 25.140625 43.28125 
Q 20.015625 38.375 18.5 30.515625 
L 12.5 0 
L 3.515625 0 
L 14.203125 54.6875 
L 23.1875 54.6875 
L 21.484375 46.1875 
Q 25.140625 50.984375 30.046875 53.484375 
Q 34.96875 56 40.578125 56 
Q 46.53125 56 50.359375 52.875 
Q 54.203125 49.75 54.984375 44.1875 
Q 59.078125 49.953125 64.46875 52.96875 
Q 69.875 56 75.875 56 
Q 82.90625 56 86.734375 51.953125 
Q 90.578125 47.90625 90.578125 40.484375 
Q 90.578125 38.875 90.375 36.9375 
Q 90.1875 35.015625 89.796875 33.015625 
z
" id="DejaVuSans-Oblique-109"/>
       <path d="M 30.421875 75.984375 
L 30.421875 -13.1875 
L 9.71875 -13.1875 
L 9.71875 -6.203125 
L 21.390625 -6.203125 
L 21.390625 69 
L 9.71875 69 
L 9.71875 75.984375 
z
" id="DejaVuSans-93"/>
      </defs>
      <use transform="translate(0 0.765625)" xlink:href="#DejaVuSans-109"/>
      <use transform="translate(97.412109 0.765625)" xlink:href="#DejaVuSans-97"/>
      <use transform="translate(158.691406 0.765625)" xlink:href="#DejaVuSans-120"/>
      <use transform="translate(217.871094 0.765625)" xlink:href="#DejaVuSans-32"/>
      <use transform="translate(249.658203 0.765625)" xlink:href="#DejaVuSans-56"/>
      <use transform="translate(313.28125 0.765625)" xlink:href="#DejaVuSans-104"/>
      <use transform="translate(376.660156 0.765625)" xlink:href="#DejaVuSans-32"/>
      <use transform="translate(408.447266 0.765625)" xlink:href="#DejaVuSans-39"/>
      <use transform="translate(435.9375 0.765625)" xlink:href="#DejaVuSans-114"/>
      <use transform="translate(477.050781 0.765625)" xlink:href="#DejaVuSans-39"/>
      <use transform="translate(504.541016 0.765625)" xlink:href="#DejaVuSans-Oblique-79"/>
      <use transform="translate(583.251953 -15.640625)scale(0.7)" xlink:href="#DejaVuSans-51"/>
      <use transform="translate(630.522461 0.765625)" xlink:href="#DejaVuSans-32"/>
      <use transform="translate(662.30957 0.765625)" xlink:href="#DejaVuSans-91"/>
      <use transform="translate(701.323242 0.765625)" xlink:href="#DejaVuSans-Oblique-956"/>
      <use transform="translate(764.946289 0.765625)" xlink:href="#DejaVuSans-Oblique-103"/>
      <use transform="translate(828.422852 0.765625)" xlink:href="#DejaVuSans-47"/>
      <use transform="translate(862.114258 0.765625)" xlink:href="#DejaVuSans-Oblique-109"/>
      <use transform="translate(964.176263 39.046875)scale(0.7)" xlink:href="#DejaVuSans-51"/>
      <use transform="translate(1011.446771 0.765625)" xlink:href="#DejaVuSans-93"/>
     </g>
    </g>
   </g>
   <g id="line2d_33">
    <path clip-path="url(#p99b1fb516f)" d="M 92.290909 348.42084 
L 93.405794 319.758218 
L 94.520679 324.73556 
L 95.635564 339.729996 
L 96.75045 304.311297 
L 97.865335 295.81549 
L 98.98022 290.838148 
L 100.095105 200.731106 
L 101.20999 337.436362 
L 102.324875 236.430658 
L 103.43976 158.852785 
L 104.554645 265.865625 
L 105.66953 278.05153 
L 106.784416 329.627085 
L 107.899301 343.872579 
L 109.014186 332.029939 
L 110.129071 346.470471 
L 111.243956 320.015667 
L 112.358841 339.410135 
L 113.473726 299.934669 
L 114.588611 315.295774 
L 115.703497 319.844035 
L 116.818382 368.352592 
L 117.933267 348.764105 
L 119.048152 290.446379 
L 120.163037 275.820308 
L 121.277922 357.345728 
L 122.392807 356.83083 
L 123.507692 295.81549 
L 124.622577 363.953577 
L 125.737463 336.749832 
L 126.852348 320.187299 
L 127.967233 296.50202 
L 129.082118 307.486497 
L 130.197003 267.839398 
L 131.311888 232.826376 
L 132.426773 116.545383 
L 133.541658 105.989986 
L 134.656543 249.989622 
L 136.886314 355.114506 
L 138.001199 305.169459 
L 139.116084 316.239753 
L 140.230969 292.297024 
L 141.345854 314.734068 
L 142.460739 249.217276 
L 143.575624 227.076689 
L 144.690509 224.158937 
L 145.805395 195.667948 
L 146.92028 91.830308 
L 148.035165 81.875625 
L 150.264935 234.628517 
L 151.37982 265.179095 
L 152.494705 323.448316 
L 153.60959 251.019417 
L 154.724476 223.644039 
L 155.839361 205.279366 
L 156.954246 196.52611 
L 158.069131 149.155551 
L 159.184016 159.710947 
L 160.298901 311.948941 
L 161.413786 297.18855 
L 162.528671 265.179095 
L 163.643556 314.094347 
L 164.758442 344.130028 
L 165.873327 324.649744 
L 166.988212 337.522178 
L 168.103097 343.100233 
L 169.217982 349.622267 
L 170.332867 336.149119 
L 171.447752 284.230299 
L 172.562637 285.946623 
L 173.677522 287.14805 
L 174.792408 267.152869 
L 175.907293 268.697561 
L 177.022178 221.412817 
L 178.137063 264.320933 
L 179.251948 244.411567 
L 180.366833 278.308979 
L 181.481718 279.767855 
L 182.596603 291.009781 
L 183.711489 237.546269 
L 184.826374 226.390159 
L 185.941259 274.704697 
L 187.056144 316.419187 
L 188.171029 324.73556 
L 189.285914 322.075257 
L 190.400799 349.021553 
L 191.515684 278.05153 
L 192.630569 321.302911 
L 193.745455 346.790331 
L 194.86034 359.233685 
L 195.975225 337.26473 
L 197.09011 309.717719 
L 198.204995 312.20639 
L 199.31988 265.608176 
L 200.434765 75.782673 
L 201.54965 281.581189 
L 202.664535 322.67597 
L 203.779421 144.092393 
L 204.894306 244.154119 
L 206.009191 245.698811 
L 207.124076 354.942873 
L 208.238961 310.490065 
L 209.353846 280.969282 
L 210.468731 223.815672 
L 211.583616 214.547519 
L 212.698501 227.419954 
L 213.813387 108.650289 
L 214.928272 225.961078 
L 216.043157 285.088461 
L 217.158042 309.717719 
L 219.387812 315.430095 
L 220.502697 304.826194 
L 221.617582 329.798717 
L 222.732468 304.654562 
L 223.847353 357.774809 
L 224.962238 319.586586 
L 226.077123 319.929851 
L 227.192008 273.245821 
L 228.306893 216.006395 
L 229.421778 261.66063 
L 230.536663 299.248139 
L 231.651548 262.003895 
L 232.766434 264.063484 
L 233.881319 187.944487 
L 234.996204 286.032439 
L 236.111089 293.241003 
L 237.225974 307.572314 
L 238.340859 287.577132 
L 239.455744 186.313979 
L 240.570629 147.696675 
L 241.685514 157.308093 
L 242.8004 255.05278 
L 243.915285 230.337705 
L 245.03017 248.187481 
L 246.145055 262.690425 
L 247.25994 303.882216 
L 248.374825 279.338773 
L 249.48971 205.794263 
L 250.604595 237.889534 
L 251.719481 303.624767 
L 252.834366 308.430476 
L 253.949251 315.381591 
L 255.064136 268.955009 
L 256.179021 278.223162 
L 257.293906 329.026371 
L 258.408791 339.355525 
L 259.523676 290.894116 
L 260.638561 315.124142 
L 261.753447 319.844035 
L 262.868332 212.316297 
L 263.983217 192.66438 
L 265.098102 187.944487 
L 266.212987 320.788013 
L 267.327872 209.999259 
L 268.442757 162.027985 
L 269.557642 219.095779 
L 270.672527 194.209072 
L 271.787413 252.564109 
L 272.902298 302.165891 
L 275.132068 326.194436 
L 276.246953 308.001395 
L 277.361838 331.171777 
L 278.476723 333.059734 
L 279.591608 332.716469 
L 280.706494 332.630653 
L 281.821379 300.192118 
L 282.936264 317.89478 
L 284.051149 307.229049 
L 285.166034 287.14805 
L 286.280919 303.538951 
L 287.395804 224.845467 
L 288.510689 205.950293 
L 289.625574 196.440294 
L 290.74046 215.319865 
L 291.855345 258.313797 
L 292.97023 311.262411 
L 294.085115 180.650107 
L 295.2 229.822808 
L 296.314885 242.351978 
L 297.42977 257.198186 
L 298.544655 281.655812 
L 299.65954 260.115938 
L 300.774426 316.668834 
L 301.889311 298.046712 
L 303.004196 305.855989 
L 304.119081 279.596222 
L 305.233966 239.434226 
L 306.348851 253.422272 
L 307.463736 285.002645 
L 308.578621 322.161073 
L 309.693506 316.926283 
L 310.808392 285.993432 
L 311.923277 318.299342 
L 313.038162 271.701129 
L 314.153047 266.466339 
L 315.267932 265.779809 
L 316.382817 303.882216 
L 317.497702 301.05028 
L 319.727473 259.373441 
L 320.842358 278.394795 
L 321.957243 305.255275 
L 323.072128 303.968032 
L 324.187013 325.507906 
L 325.301898 321.903624 
L 326.416783 305.083643 
L 327.531668 216.34966 
L 328.646553 235.658312 
L 329.761439 211.629767 
L 330.876324 277.450816 
L 331.991209 319.414953 
L 333.106094 273.589086 
L 334.220979 130.96251 
L 335.335864 281.055098 
L 336.450749 303.538951 
L 337.565634 343.100233 
L 338.680519 336.492383 
L 339.795405 353.65563 
L 340.91029 356.1443 
L 342.025175 294.356614 
L 343.14006 335.977486 
L 344.254945 287.405499 
L 345.36983 313.57945 
L 346.484715 311.948941 
L 347.5996 320.358932 
L 348.714486 305.255275 
L 349.829371 265.007463 
L 350.944256 216.178027 
L 352.059141 272.387659 
L 353.174026 321.903624 
L 354.288911 347.73431 
L 355.403796 350.90951 
L 356.518681 329.33843 
L 357.633566 281.398363 
L 358.748452 271.529496 
L 359.863337 311.004963 
L 360.978222 296.072939 
L 362.093107 325.679538 
L 363.207992 319.586586 
L 364.322877 239.090961 
L 365.437762 216.864557 
L 366.552647 191.892034 
L 367.667532 260.201754 
L 368.782418 308.087211 
L 369.897303 342.413703 
L 371.012188 342.156255 
L 372.127073 303.281502 
L 373.241958 326.709333 
L 375.471728 279.252957 
L 376.586613 280.327526 
L 377.701499 326.022803 
L 378.816384 330.026317 
L 379.931269 292.039576 
L 381.046154 294.923747 
L 382.161039 286.774936 
L 383.275924 293.401442 
L 384.390809 317.784445 
L 385.505694 337.26473 
L 386.620579 363.095415 
L 387.735465 321.302911 
L 388.85035 318.922443 
L 389.965235 313.922715 
L 391.08012 307.143232 
L 392.195005 284.495549 
L 393.30989 319.907464 
L 394.424775 306.923095 
L 395.53966 320.444748 
L 396.654545 330.056166 
L 397.769431 278.878486 
L 398.884316 288.177845 
L 399.999201 272.730924 
L 401.114086 292.897738 
L 402.228971 288.52111 
L 403.343856 273.760718 
L 404.458741 255.224412 
L 405.573626 243.467589 
L 406.688511 297.321175 
L 407.803397 328.23537 
L 410.033167 321.045462 
L 411.148052 292.468657 
L 412.262937 249.856997 
L 413.377822 179.191232 
L 414.492707 234.885966 
L 415.607592 218.237617 
L 416.722478 209.05528 
L 417.837363 260.201754 
L 418.952248 281.125311 
L 420.067133 270.413885 
L 421.182018 284.401931 
L 422.296903 248.101665 
L 423.411788 279.081325 
L 424.526673 295.987122 
L 425.641558 296.072939 
L 426.756444 290.666516 
L 427.871329 357.946441 
L 428.986214 315.209958 
L 430.101099 344.644925 
L 431.215984 300.106301 
L 432.330869 289.20764 
L 433.445754 258.657062 
L 434.560639 262.34716 
L 435.675524 232.483111 
L 436.79041 352.625835 
L 437.905295 308.173027 
L 439.02018 299.333955 
L 440.135065 366.699697 
L 441.24995 367.042962 
L 442.364835 343.357682 
L 443.47972 331.600858 
L 444.594605 321.217094 
L 445.709491 321.817808 
L 446.824376 264.235117 
L 447.939261 266.981236 
L 449.054146 269.040826 
L 450.169031 291.438862 
L 451.283916 267.238685 
L 452.398801 213.174459 
L 453.513686 219.953941 
L 454.628571 202.104165 
L 455.743457 289.036008 
L 456.858342 257.026553 
L 457.973227 217.465271 
L 459.088112 231.703303 
L 460.202997 331.686674 
L 461.317882 340.954827 
L 462.432767 328.511474 
L 463.547652 344.130028 
L 464.662537 369.36 
L 465.777423 354.857057 
L 466.892308 315.982304 
L 468.007193 316.411385 
L 469.122078 340.611563 
L 470.236963 359.062052 
L 471.351848 352.797467 
L 472.466733 339.581768 
L 473.581618 317.698629 
L 475.811389 211.801399 
L 476.926274 267.496134 
L 478.041159 268.783377 
L 479.156044 284.65938 
L 480.270929 314.523428 
L 481.385814 333.317183 
L 482.500699 337.522178 
L 483.615584 350.264023 
L 484.73047 352.711651 
L 485.845355 347.991758 
L 486.96024 315.381591 
L 488.075125 333.746264 
L 489.19001 318.81424 
L 490.304895 268.354296 
L 491.41978 254.709515 
L 492.534665 235.572495 
L 493.64955 141.43209 
L 494.764436 259.892815 
L 498.109091 284.058666 
L 498.109091 284.058666 
" style="fill:none;stroke:#1f77b4;stroke-linecap:square;stroke-width:1.5;"/>
   </g>
   <g id="line2d_34">
    <path clip-path="url(#p99b1fb516f)" d="M 92.290909 330.114554 
L 93.405794 317.317281 
L 94.520679 315.059332 
L 95.635564 338.203792 
L 96.75045 320.857013 
L 97.865335 268.127604 
L 98.98022 242.649571 
L 100.095105 239.118684 
L 101.20999 223.733271 
L 102.324875 303.497976 
L 103.43976 218.943255 
L 104.554645 199.372921 
L 105.66953 258.179225 
L 106.784416 222.014592 
L 107.899301 338.40184 
L 109.014186 317.253509 
L 110.129071 307.037713 
L 111.243956 314.040072 
L 112.358841 301.972761 
L 113.473726 295.386944 
L 114.588611 290.799783 
L 115.703497 281.334474 
L 116.818382 316.17089 
L 117.933267 332.546176 
L 119.048152 324.574795 
L 120.163037 259.956056 
L 121.277922 310.518086 
L 122.392807 310.995538 
L 123.507692 317.3504 
L 124.622577 257.122754 
L 125.737463 322.2537 
L 126.852348 295.029681 
L 127.967233 274.298531 
L 129.082118 294.958185 
L 130.197003 244.275012 
L 131.311888 216.158078 
L 132.426773 165.847556 
L 133.541658 66.96 
L 134.656543 202.94344 
L 135.771429 296.672726 
L 136.886314 297.690829 
L 138.001199 313.347292 
L 139.116084 272.361542 
L 140.230969 293.539611 
L 141.345854 301.083537 
L 142.460739 300.673295 
L 143.575624 256.59902 
L 144.690509 202.145132 
L 145.805395 220.14355 
L 146.92028 251.227824 
L 148.035165 126.89538 
L 149.15005 115.970222 
L 151.37982 231.676359 
L 152.494705 244.424973 
L 153.60959 246.641937 
L 154.724476 215.886079 
L 155.839361 179.96621 
L 156.954246 189.058258 
L 158.069131 232.316544 
L 159.184016 196.151309 
L 160.298901 126.294271 
L 161.413786 274.300085 
L 162.528671 288.282127 
L 163.643556 286.709287 
L 164.758442 296.519132 
L 165.873327 322.369958 
L 166.988212 302.498831 
L 168.103097 328.090173 
L 169.217982 324.611728 
L 170.332867 330.931915 
L 171.447752 284.108443 
L 172.562637 256.510958 
L 173.677522 308.115833 
L 174.792408 280.560541 
L 175.907293 241.491062 
L 177.022178 234.687433 
L 178.137063 201.825886 
L 179.251948 216.495435 
L 180.366833 215.168449 
L 182.596603 314.828027 
L 183.711489 267.652442 
L 184.826374 196.12551 
L 185.941259 221.012738 
L 187.056144 298.214541 
L 188.171029 306.154284 
L 189.285914 285.891971 
L 190.400799 319.048066 
L 191.515684 312.042037 
L 192.630569 257.775912 
L 193.745455 324.519558 
L 194.86034 334.317213 
L 195.975225 333.068607 
L 197.09011 281.784142 
L 198.204995 312.388076 
L 199.31988 320.388029 
L 200.434765 241.472643 
L 201.54965 227.044845 
L 202.664535 272.975163 
L 203.779421 277.328832 
L 204.894306 266.320705 
L 206.009191 302.470689 
L 207.124076 271.17867 
L 208.238961 329.056953 
L 209.353846 290.151962 
L 210.468731 269.342148 
L 211.583616 208.032874 
L 212.698501 239.006782 
L 213.813387 232.841552 
L 214.928272 214.577833 
L 216.043157 280.490692 
L 217.158042 297.591574 
L 218.272927 319.252914 
L 219.387812 302.292007 
L 220.502697 306.501386 
L 221.617582 306.201315 
L 222.732468 331.595559 
L 223.847353 280.331456 
L 224.962238 341.429212 
L 226.077123 309.599005 
L 227.192008 319.660866 
L 228.306893 264.176244 
L 229.421778 254.343854 
L 230.536663 273.232387 
L 231.651548 269.345991 
L 232.766434 259.333293 
L 233.881319 233.099038 
L 234.996204 217.320992 
L 236.111089 283.595031 
L 237.225974 312.35193 
L 238.340859 293.661699 
L 239.455744 290.596471 
L 240.570629 219.992707 
L 241.685514 200.587452 
L 242.8004 228.386826 
L 243.915285 270.973378 
L 245.03017 271.04345 
L 246.145055 268.438113 
L 247.25994 264.904609 
L 248.374825 283.377807 
L 249.48971 245.864536 
L 250.604595 245.483769 
L 251.719481 279.498628 
L 252.834366 295.541059 
L 253.949251 285.336078 
L 255.064136 290.083985 
L 256.179021 257.929943 
L 257.293906 264.04826 
L 258.408791 286.921395 
L 259.523676 273.659167 
L 260.638561 306.716257 
L 261.753447 314.119822 
L 262.868332 284.927254 
L 265.098102 219.597378 
L 266.212987 214.835867 
L 267.327872 281.808069 
L 268.442757 253.380624 
L 269.557642 230.262677 
L 270.672527 243.777016 
L 271.787413 245.773548 
L 272.902298 265.174965 
L 274.017183 282.127802 
L 275.132068 328.247236 
L 276.246953 311.672021 
L 277.361838 318.207073 
L 278.476723 318.024923 
L 279.591608 321.694277 
L 280.706494 299.317349 
L 281.821379 303.709723 
L 282.936264 300.091064 
L 284.051149 305.625256 
L 285.166034 300.488483 
L 286.280919 279.625732 
L 287.395804 282.436815 
L 288.510689 250.167052 
L 289.625574 237.428837 
L 290.74046 243.358238 
L 291.855345 264.686486 
L 292.97023 282.430223 
L 294.085115 295.174697 
L 295.2 263.852987 
L 296.314885 252.763062 
L 298.544655 272.31333 
L 299.65954 285.622997 
L 300.774426 275.97362 
L 301.889311 288.997874 
L 303.004196 279.715942 
L 304.119081 295.903309 
L 305.233966 269.004878 
L 306.348851 255.072635 
L 307.463736 275.947736 
L 308.578621 282.92114 
L 309.693506 282.760715 
L 310.808392 272.649993 
L 311.923277 290.950437 
L 313.038162 283.490273 
L 314.153047 278.19828 
L 315.267932 276.524554 
L 316.382817 283.214949 
L 317.497702 284.529277 
L 318.612587 266.592147 
L 319.727473 267.066595 
L 320.842358 244.487157 
L 323.072128 300.795263 
L 324.187013 322.442193 
L 325.301898 329.697985 
L 326.416783 318.767271 
L 327.531668 298.809924 
L 328.646553 261.513375 
L 329.761439 267.912718 
L 330.876324 260.560682 
L 331.991209 277.360203 
L 333.106094 283.630853 
L 334.220979 273.713272 
L 335.335864 251.199127 
L 336.450749 307.212066 
L 337.565634 310.702712 
L 338.680519 333.897904 
L 339.795405 324.96012 
L 340.91029 325.41591 
L 342.025175 329.553039 
L 343.14006 298.181385 
L 344.254945 314.891938 
L 345.36983 307.542499 
L 346.484715 308.513359 
L 347.5996 318.502768 
L 348.714486 311.768365 
L 349.829371 287.061766 
L 350.944256 269.447079 
L 352.059141 267.709356 
L 353.174026 302.255675 
L 354.288911 325.730026 
L 355.403796 321.791164 
L 356.518681 339.232996 
L 357.633566 321.020812 
L 358.748452 292.019671 
L 359.863337 281.027951 
L 360.978222 292.659434 
L 362.093107 289.940026 
L 363.207992 300.444481 
L 364.322877 288.043074 
L 365.437762 258.100012 
L 366.552647 223.683341 
L 367.667532 217.710032 
L 368.782418 273.948809 
L 369.897303 321.904644 
L 371.012188 327.41863 
L 373.241958 304.438521 
L 374.356843 309.485196 
L 375.471728 277.559463 
L 376.586613 278.680828 
L 377.701499 313.22568 
L 378.816384 312.526224 
L 379.931269 314.182581 
L 381.046154 292.813649 
L 382.161039 296.375449 
L 383.275924 304.089003 
L 384.390809 313.858957 
L 385.505694 325.33208 
L 386.620579 322.048353 
L 387.735465 303.041606 
L 388.85035 293.582437 
L 389.965235 282.420941 
L 391.08012 286.337709 
L 392.195005 293.181756 
L 393.30989 279.888056 
L 394.424775 297.08282 
L 395.53966 281.060555 
L 396.654545 302.495548 
L 397.769431 304.58887 
L 398.884316 273.063874 
L 399.999201 294.62423 
L 401.114086 289.17134 
L 402.228971 267.040831 
L 403.343856 265.834315 
L 404.458741 287.386364 
L 405.573626 255.500258 
L 406.688511 232.966753 
L 407.803397 302.326512 
L 408.918282 324.598539 
L 410.033167 313.091649 
L 411.148052 322.71818 
L 412.262937 293.191312 
L 413.377822 247.938989 
L 415.607592 232.966408 
L 416.722478 243.720286 
L 417.837363 242.632233 
L 418.952248 254.539321 
L 420.067133 259.817217 
L 421.182018 288.917295 
L 422.296903 280.24879 
L 423.411788 273.393147 
L 424.526673 303.358011 
L 425.641558 285.125584 
L 426.756444 260.979295 
L 427.871329 271.186703 
L 428.986214 325.799142 
L 430.101099 292.1003 
L 431.215984 326.262167 
L 432.330869 286.636085 
L 433.445754 298.00172 
L 434.560639 247.324577 
L 435.675524 241.132938 
L 436.79041 291.857076 
L 437.905295 328.68809 
L 439.02018 284.363277 
L 440.135065 313.902216 
L 441.24995 334.26426 
L 442.364835 336.56098 
L 443.47972 316.435664 
L 444.594605 300.459487 
L 445.709491 296.286594 
L 446.824376 284.055076 
L 447.939261 257.688555 
L 449.054146 251.126527 
L 450.169031 220.137949 
L 451.283916 253.547416 
L 452.398801 251.132724 
L 453.513686 218.919973 
L 454.628571 228.357046 
L 455.743457 219.219304 
L 456.858342 260.702654 
L 457.973227 248.855654 
L 459.088112 264.001766 
L 460.202997 254.970537 
L 461.317882 324.458994 
L 462.432767 336.458357 
L 463.547652 321.811401 
L 464.662537 341.906844 
L 465.777423 345.715887 
L 466.892308 336.694199 
L 468.007193 261.606038 
L 469.122078 317.048316 
L 470.236963 322.116923 
L 471.351848 336.26084 
L 472.466733 335.717076 
L 473.581618 304.435865 
L 474.696503 269.695555 
L 475.811389 225.629597 
L 476.926274 212.766437 
L 478.041159 235.230063 
L 479.156044 238.661027 
L 480.270929 278.418526 
L 481.385814 293.442109 
L 483.615584 315.753312 
L 484.73047 326.520892 
L 485.845355 328.714234 
L 486.96024 332.688786 
L 488.075125 297.127231 
L 489.19001 309.657334 
L 490.304895 258.463679 
L 491.41978 246.470989 
L 492.534665 280.221628 
L 493.64955 264.163493 
L 494.764436 234.136955 
L 495.879321 287.898316 
L 496.994206 248.251949 
L 498.109091 262.871746 
L 498.109091 262.871746 
" style="fill:none;stroke:#ff7f0e;stroke-linecap:square;stroke-width:1.5;"/>
   </g>
   <g id="patch_3">
    <path d="M 72 384.48 
L 72 51.84 
" style="fill:none;stroke:#000000;stroke-linecap:square;stroke-linejoin:miter;stroke-width:0.8;"/>
   </g>
   <g id="patch_4">
    <path d="M 518.4 384.48 
L 518.4 51.84 
" style="fill:none;stroke:#000000;stroke-linecap:square;stroke-linejoin:miter;stroke-width:0.8;"/>
   </g>
   <g id="patch_5">
    <path d="M 72 384.48 
L 518.4 384.48 
" style="fill:none;stroke:#000000;stroke-linecap:square;stroke-linejoin:miter;stroke-width:0.8;"/>
   </g>
   <g id="patch_6">
    <path d="M 72 51.84 
L 518.4 51.84 
" style="fill:none;stroke:#000000;stroke-linecap:square;stroke-linejoin:miter;stroke-width:0.8;"/>
   </g>
   <g id="text_19">
    <!-- $O_3$ BETN073 2010: Island DNN (MSE: 107.62, sMAPE: 46.04%, MASE: 1.0) -->
    <g transform="translate(74.82 45.84)scale(0.12 -0.12)">
     <defs>
      <path d="M 19.671875 34.8125 
L 19.671875 8.109375 
L 35.5 8.109375 
Q 43.453125 8.109375 47.28125 11.40625 
Q 51.125 14.703125 51.125 21.484375 
Q 51.125 28.328125 47.28125 31.5625 
Q 43.453125 34.8125 35.5 34.8125 
z
M 19.671875 64.796875 
L 19.671875 42.828125 
L 34.28125 42.828125 
Q 41.5 42.828125 45.03125 45.53125 
Q 48.578125 48.25 48.578125 53.8125 
Q 48.578125 59.328125 45.03125 62.0625 
Q 41.5 64.796875 34.28125 64.796875 
z
M 9.8125 72.90625 
L 35.015625 72.90625 
Q 46.296875 72.90625 52.390625 68.21875 
Q 58.5 63.53125 58.5 54.890625 
Q 58.5 48.1875 55.375 44.234375 
Q 52.25 40.28125 46.1875 39.3125 
Q 53.46875 37.75 57.5 32.78125 
Q 61.53125 27.828125 61.53125 20.40625 
Q 61.53125 10.640625 54.890625 5.3125 
Q 48.25 0 35.984375 0 
L 9.8125 0 
z
" id="DejaVuSans-66"/>
      <path d="M 9.8125 72.90625 
L 55.90625 72.90625 
L 55.90625 64.59375 
L 19.671875 64.59375 
L 19.671875 43.015625 
L 54.390625 43.015625 
L 54.390625 34.71875 
L 19.671875 34.71875 
L 19.671875 8.296875 
L 56.78125 8.296875 
L 56.78125 0 
L 9.8125 0 
z
" id="DejaVuSans-69"/>
      <path d="M -0.296875 72.90625 
L 61.375 72.90625 
L 61.375 64.59375 
L 35.5 64.59375 
L 35.5 0 
L 25.59375 0 
L 25.59375 64.59375 
L -0.296875 64.59375 
z
" id="DejaVuSans-84"/>
      <path d="M 9.8125 72.90625 
L 23.09375 72.90625 
L 55.421875 11.921875 
L 55.421875 72.90625 
L 64.984375 72.90625 
L 64.984375 0 
L 51.703125 0 
L 19.390625 60.984375 
L 19.390625 0 
L 9.8125 0 
z
" id="DejaVuSans-78"/>
      <path d="M 11.71875 12.40625 
L 22.015625 12.40625 
L 22.015625 0 
L 11.71875 0 
z
M 11.71875 51.703125 
L 22.015625 51.703125 
L 22.015625 39.3125 
L 11.71875 39.3125 
z
" id="DejaVuSans-58"/>
      <path d="M 9.8125 72.90625 
L 19.671875 72.90625 
L 19.671875 0 
L 9.8125 0 
z
" id="DejaVuSans-73"/>
      <path d="M 44.28125 53.078125 
L 44.28125 44.578125 
Q 40.484375 46.53125 36.375 47.5 
Q 32.28125 48.484375 27.875 48.484375 
Q 21.1875 48.484375 17.84375 46.4375 
Q 14.5 44.390625 14.5 40.28125 
Q 14.5 37.15625 16.890625 35.375 
Q 19.28125 33.59375 26.515625 31.984375 
L 29.59375 31.296875 
Q 39.15625 29.25 43.1875 25.515625 
Q 47.21875 21.78125 47.21875 15.09375 
Q 47.21875 7.46875 41.1875 3.015625 
Q 35.15625 -1.421875 24.609375 -1.421875 
Q 20.21875 -1.421875 15.453125 -0.5625 
Q 10.6875 0.296875 5.421875 2 
L 5.421875 11.28125 
Q 10.40625 8.6875 15.234375 7.390625 
Q 20.0625 6.109375 24.8125 6.109375 
Q 31.15625 6.109375 34.5625 8.28125 
Q 37.984375 10.453125 37.984375 14.40625 
Q 37.984375 18.0625 35.515625 20.015625 
Q 33.0625 21.96875 24.703125 23.78125 
L 21.578125 24.515625 
Q 13.234375 26.265625 9.515625 29.90625 
Q 5.8125 33.546875 5.8125 39.890625 
Q 5.8125 47.609375 11.28125 51.796875 
Q 16.75 56 26.8125 56 
Q 31.78125 56 36.171875 55.265625 
Q 40.578125 54.546875 44.28125 53.078125 
z
" id="DejaVuSans-115"/>
      <path d="M 9.421875 75.984375 
L 18.40625 75.984375 
L 18.40625 0 
L 9.421875 0 
z
" id="DejaVuSans-108"/>
      <path d="M 54.890625 33.015625 
L 54.890625 0 
L 45.90625 0 
L 45.90625 32.71875 
Q 45.90625 40.484375 42.875 44.328125 
Q 39.84375 48.1875 33.796875 48.1875 
Q 26.515625 48.1875 22.3125 43.546875 
Q 18.109375 38.921875 18.109375 30.90625 
L 18.109375 0 
L 9.078125 0 
L 9.078125 54.6875 
L 18.109375 54.6875 
L 18.109375 46.1875 
Q 21.34375 51.125 25.703125 53.5625 
Q 30.078125 56 35.796875 56 
Q 45.21875 56 50.046875 50.171875 
Q 54.890625 44.34375 54.890625 33.015625 
z
" id="DejaVuSans-110"/>
      <path d="M 45.40625 46.390625 
L 45.40625 75.984375 
L 54.390625 75.984375 
L 54.390625 0 
L 45.40625 0 
L 45.40625 8.203125 
Q 42.578125 3.328125 38.25 0.953125 
Q 33.9375 -1.421875 27.875 -1.421875 
Q 17.96875 -1.421875 11.734375 6.484375 
Q 5.515625 14.40625 5.515625 27.296875 
Q 5.515625 40.1875 11.734375 48.09375 
Q 17.96875 56 27.875 56 
Q 33.9375 56 38.25 53.625 
Q 42.578125 51.265625 45.40625 46.390625 
z
M 14.796875 27.296875 
Q 14.796875 17.390625 18.875 11.75 
Q 22.953125 6.109375 30.078125 6.109375 
Q 37.203125 6.109375 41.296875 11.75 
Q 45.40625 17.390625 45.40625 27.296875 
Q 45.40625 37.203125 41.296875 42.84375 
Q 37.203125 48.484375 30.078125 48.484375 
Q 22.953125 48.484375 18.875 42.84375 
Q 14.796875 37.203125 14.796875 27.296875 
z
" id="DejaVuSans-100"/>
      <path d="M 31 75.875 
Q 24.46875 64.65625 21.28125 53.65625 
Q 18.109375 42.671875 18.109375 31.390625 
Q 18.109375 20.125 21.3125 9.0625 
Q 24.515625 -2 31 -13.1875 
L 23.1875 -13.1875 
Q 15.875 -1.703125 12.234375 9.375 
Q 8.59375 20.453125 8.59375 31.390625 
Q 8.59375 42.28125 12.203125 53.3125 
Q 15.828125 64.359375 23.1875 75.875 
z
" id="DejaVuSans-40"/>
      <path d="M 9.8125 72.90625 
L 24.515625 72.90625 
L 43.109375 23.296875 
L 61.8125 72.90625 
L 76.515625 72.90625 
L 76.515625 0 
L 66.890625 0 
L 66.890625 64.015625 
L 48.09375 14.015625 
L 38.1875 14.015625 
L 19.390625 64.015625 
L 19.390625 0 
L 9.8125 0 
z
" id="DejaVuSans-77"/>
      <path d="M 53.515625 70.515625 
L 53.515625 60.890625 
Q 47.90625 63.578125 42.921875 64.890625 
Q 37.9375 66.21875 33.296875 66.21875 
Q 25.25 66.21875 20.875 63.09375 
Q 16.5 59.96875 16.5 54.203125 
Q 16.5 49.359375 19.40625 46.890625 
Q 22.3125 44.4375 30.421875 42.921875 
L 36.375 41.703125 
Q 47.40625 39.59375 52.65625 34.296875 
Q 57.90625 29 57.90625 20.125 
Q 57.90625 9.515625 50.796875 4.046875 
Q 43.703125 -1.421875 29.984375 -1.421875 
Q 24.8125 -1.421875 18.96875 -0.25 
Q 13.140625 0.921875 6.890625 3.21875 
L 6.890625 13.375 
Q 12.890625 10.015625 18.65625 8.296875 
Q 24.421875 6.59375 29.984375 6.59375 
Q 38.421875 6.59375 43.015625 9.90625 
Q 47.609375 13.234375 47.609375 19.390625 
Q 47.609375 24.75 44.3125 27.78125 
Q 41.015625 30.8125 33.5 32.328125 
L 27.484375 33.5 
Q 16.453125 35.6875 11.515625 40.375 
Q 6.59375 45.0625 6.59375 53.421875 
Q 6.59375 63.09375 13.40625 68.65625 
Q 20.21875 74.21875 32.171875 74.21875 
Q 37.3125 74.21875 42.625 73.28125 
Q 47.953125 72.359375 53.515625 70.515625 
z
" id="DejaVuSans-83"/>
      <path d="M 10.6875 12.40625 
L 21 12.40625 
L 21 0 
L 10.6875 0 
z
" id="DejaVuSans-46"/>
      <path d="M 11.71875 12.40625 
L 22.015625 12.40625 
L 22.015625 4 
L 14.015625 -11.625 
L 7.71875 -11.625 
L 11.71875 4 
z
" id="DejaVuSans-44"/>
      <path d="M 34.1875 63.1875 
L 20.796875 26.90625 
L 47.609375 26.90625 
z
M 28.609375 72.90625 
L 39.796875 72.90625 
L 67.578125 0 
L 57.328125 0 
L 50.6875 18.703125 
L 17.828125 18.703125 
L 11.1875 0 
L 0.78125 0 
z
" id="DejaVuSans-65"/>
      <path d="M 19.671875 64.796875 
L 19.671875 37.40625 
L 32.078125 37.40625 
Q 38.96875 37.40625 42.71875 40.96875 
Q 46.484375 44.53125 46.484375 51.125 
Q 46.484375 57.671875 42.71875 61.234375 
Q 38.96875 64.796875 32.078125 64.796875 
z
M 9.8125 72.90625 
L 32.078125 72.90625 
Q 44.34375 72.90625 50.609375 67.359375 
Q 56.890625 61.8125 56.890625 51.125 
Q 56.890625 40.328125 50.609375 34.8125 
Q 44.34375 29.296875 32.078125 29.296875 
L 19.671875 29.296875 
L 19.671875 0 
L 9.8125 0 
z
" id="DejaVuSans-80"/>
      <path d="M 72.703125 32.078125 
Q 68.453125 32.078125 66.03125 28.46875 
Q 63.625 24.859375 63.625 18.40625 
Q 63.625 12.0625 66.03125 8.421875 
Q 68.453125 4.78125 72.703125 4.78125 
Q 76.859375 4.78125 79.265625 8.421875 
Q 81.6875 12.0625 81.6875 18.40625 
Q 81.6875 24.8125 79.265625 28.4375 
Q 76.859375 32.078125 72.703125 32.078125 
z
M 72.703125 38.28125 
Q 80.421875 38.28125 84.953125 32.90625 
Q 89.5 27.546875 89.5 18.40625 
Q 89.5 9.28125 84.9375 3.921875 
Q 80.375 -1.421875 72.703125 -1.421875 
Q 64.890625 -1.421875 60.34375 3.921875 
Q 55.8125 9.28125 55.8125 18.40625 
Q 55.8125 27.59375 60.375 32.9375 
Q 64.9375 38.28125 72.703125 38.28125 
z
M 22.3125 68.015625 
Q 18.109375 68.015625 15.6875 64.375 
Q 13.28125 60.75 13.28125 54.390625 
Q 13.28125 47.953125 15.671875 44.328125 
Q 18.0625 40.71875 22.3125 40.71875 
Q 26.5625 40.71875 28.96875 44.328125 
Q 31.390625 47.953125 31.390625 54.390625 
Q 31.390625 60.6875 28.953125 64.34375 
Q 26.515625 68.015625 22.3125 68.015625 
z
M 66.40625 74.21875 
L 74.21875 74.21875 
L 28.609375 -1.421875 
L 20.796875 -1.421875 
z
M 22.3125 74.21875 
Q 30.03125 74.21875 34.609375 68.875 
Q 39.203125 63.53125 39.203125 54.390625 
Q 39.203125 45.171875 34.640625 39.84375 
Q 30.078125 34.515625 22.3125 34.515625 
Q 14.546875 34.515625 10.03125 39.859375 
Q 5.515625 45.21875 5.515625 54.390625 
Q 5.515625 63.484375 10.046875 68.84375 
Q 14.59375 74.21875 22.3125 74.21875 
z
" id="DejaVuSans-37"/>
      <path d="M 8.015625 75.875 
L 15.828125 75.875 
Q 23.140625 64.359375 26.78125 53.3125 
Q 30.421875 42.28125 30.421875 31.390625 
Q 30.421875 20.453125 26.78125 9.375 
Q 23.140625 -1.703125 15.828125 -13.1875 
L 8.015625 -13.1875 
Q 14.5 -2 17.703125 9.0625 
Q 20.90625 20.125 20.90625 31.390625 
Q 20.90625 42.671875 17.703125 53.65625 
Q 14.5 64.65625 8.015625 75.875 
z
" id="DejaVuSans-41"/>
     </defs>
     <use transform="translate(0 0.015625)" xlink:href="#DejaVuSans-Oblique-79"/>
     <use transform="translate(78.710938 -16.390625)scale(0.7)" xlink:href="#DejaVuSans-51"/>
     <use transform="translate(125.981445 0.015625)" xlink:href="#DejaVuSans-32"/>
     <use transform="translate(157.768555 0.015625)" xlink:href="#DejaVuSans-66"/>
     <use transform="translate(226.37207 0.015625)" xlink:href="#DejaVuSans-69"/>
     <use transform="translate(289.555664 0.015625)" xlink:href="#DejaVuSans-84"/>
     <use transform="translate(350.639648 0.015625)" xlink:href="#DejaVuSans-78"/>
     <use transform="translate(425.444336 0.015625)" xlink:href="#DejaVuSans-48"/>
     <use transform="translate(489.067383 0.015625)" xlink:href="#DejaVuSans-55"/>
     <use transform="translate(552.69043 0.015625)" xlink:href="#DejaVuSans-51"/>
     <use transform="translate(616.313477 0.015625)" xlink:href="#DejaVuSans-32"/>
     <use transform="translate(648.100586 0.015625)" xlink:href="#DejaVuSans-50"/>
     <use transform="translate(711.723633 0.015625)" xlink:href="#DejaVuSans-48"/>
     <use transform="translate(775.34668 0.015625)" xlink:href="#DejaVuSans-49"/>
     <use transform="translate(838.969727 0.015625)" xlink:href="#DejaVuSans-48"/>
     <use transform="translate(902.592773 0.015625)" xlink:href="#DejaVuSans-58"/>
     <use transform="translate(936.28418 0.015625)" xlink:href="#DejaVuSans-32"/>
     <use transform="translate(968.071289 0.015625)" xlink:href="#DejaVuSans-73"/>
     <use transform="translate(997.563477 0.015625)" xlink:href="#DejaVuSans-115"/>
     <use transform="translate(1049.663086 0.015625)" xlink:href="#DejaVuSans-108"/>
     <use transform="translate(1077.446289 0.015625)" xlink:href="#DejaVuSans-97"/>
     <use transform="translate(1138.725586 0.015625)" xlink:href="#DejaVuSans-110"/>
     <use transform="translate(1202.104492 0.015625)" xlink:href="#DejaVuSans-100"/>
     <use transform="translate(1265.581055 0.015625)" xlink:href="#DejaVuSans-32"/>
     <use transform="translate(1297.368164 0.015625)" xlink:href="#DejaVuSans-68"/>
     <use transform="translate(1374.370117 0.015625)" xlink:href="#DejaVuSans-78"/>
     <use transform="translate(1449.174805 0.015625)" xlink:href="#DejaVuSans-78"/>
     <use transform="translate(1523.979492 0.015625)" xlink:href="#DejaVuSans-32"/>
     <use transform="translate(1555.766602 0.015625)" xlink:href="#DejaVuSans-40"/>
     <use transform="translate(1594.780273 0.015625)" xlink:href="#DejaVuSans-77"/>
     <use transform="translate(1681.05957 0.015625)" xlink:href="#DejaVuSans-83"/>
     <use transform="translate(1744.536133 0.015625)" xlink:href="#DejaVuSans-69"/>
     <use transform="translate(1807.719727 0.015625)" xlink:href="#DejaVuSans-58"/>
     <use transform="translate(1841.411133 0.015625)" xlink:href="#DejaVuSans-32"/>
     <use transform="translate(1873.198242 0.015625)" xlink:href="#DejaVuSans-49"/>
     <use transform="translate(1936.821289 0.015625)" xlink:href="#DejaVuSans-48"/>
     <use transform="translate(2000.444336 0.015625)" xlink:href="#DejaVuSans-55"/>
     <use transform="translate(2064.067383 0.015625)" xlink:href="#DejaVuSans-46"/>
     <use transform="translate(2095.854492 0.015625)" xlink:href="#DejaVuSans-54"/>
     <use transform="translate(2159.477539 0.015625)" xlink:href="#DejaVuSans-50"/>
     <use transform="translate(2223.100586 0.015625)" xlink:href="#DejaVuSans-44"/>
     <use transform="translate(2254.887695 0.015625)" xlink:href="#DejaVuSans-32"/>
     <use transform="translate(2286.674805 0.015625)" xlink:href="#DejaVuSans-115"/>
     <use transform="translate(2338.774414 0.015625)" xlink:href="#DejaVuSans-77"/>
     <use transform="translate(2425.053711 0.015625)" xlink:href="#DejaVuSans-65"/>
     <use transform="translate(2493.461914 0.015625)" xlink:href="#DejaVuSans-80"/>
     <use transform="translate(2553.764648 0.015625)" xlink:href="#DejaVuSans-69"/>
     <use transform="translate(2616.948242 0.015625)" xlink:href="#DejaVuSans-58"/>
     <use transform="translate(2650.639648 0.015625)" xlink:href="#DejaVuSans-32"/>
     <use transform="translate(2682.426758 0.015625)" xlink:href="#DejaVuSans-52"/>
     <use transform="translate(2746.049805 0.015625)" xlink:href="#DejaVuSans-54"/>
     <use transform="translate(2809.672852 0.015625)" xlink:href="#DejaVuSans-46"/>
     <use transform="translate(2841.459961 0.015625)" xlink:href="#DejaVuSans-48"/>
     <use transform="translate(2905.083008 0.015625)" xlink:href="#DejaVuSans-52"/>
     <use transform="translate(2968.706055 0.015625)" xlink:href="#DejaVuSans-37"/>
     <use transform="translate(3063.725586 0.015625)" xlink:href="#DejaVuSans-44"/>
     <use transform="translate(3095.512695 0.015625)" xlink:href="#DejaVuSans-32"/>
     <use transform="translate(3127.299805 0.015625)" xlink:href="#DejaVuSans-77"/>
     <use transform="translate(3213.579102 0.015625)" xlink:href="#DejaVuSans-65"/>
     <use transform="translate(3281.987305 0.015625)" xlink:href="#DejaVuSans-83"/>
     <use transform="translate(3345.463867 0.015625)" xlink:href="#DejaVuSans-69"/>
     <use transform="translate(3408.647461 0.015625)" xlink:href="#DejaVuSans-58"/>
     <use transform="translate(3442.338867 0.015625)" xlink:href="#DejaVuSans-32"/>
     <use transform="translate(3474.125977 0.015625)" xlink:href="#DejaVuSans-49"/>
     <use transform="translate(3537.749023 0.015625)" xlink:href="#DejaVuSans-46"/>
     <use transform="translate(3569.536133 0.015625)" xlink:href="#DejaVuSans-48"/>
     <use transform="translate(3633.15918 0.015625)" xlink:href="#DejaVuSans-41"/>
    </g>
   </g>
   <g id="legend_1">
    <g id="patch_7">
     <path d="M 431.965625 89.19625 
L 511.4 89.19625 
Q 513.4 89.19625 513.4 87.19625 
L 513.4 58.84 
Q 513.4 56.84 511.4 56.84 
L 431.965625 56.84 
Q 429.965625 56.84 429.965625 58.84 
L 429.965625 87.19625 
Q 429.965625 89.19625 431.965625 89.19625 
z
" style="fill:#ffffff;opacity:0.8;stroke:#cccccc;stroke-linejoin:miter;"/>
    </g>
    <g id="line2d_35">
     <path d="M 433.965625 64.938437 
L 453.965625 64.938437 
" style="fill:none;stroke:#1f77b4;stroke-linecap:square;stroke-width:1.5;"/>
    </g>
    <g id="line2d_36"/>
    <g id="text_20">
     <!-- expected -->
     <g transform="translate(461.965625 68.438437)scale(0.1 -0.1)">
      <defs>
       <path d="M 56.203125 29.59375 
L 56.203125 25.203125 
L 14.890625 25.203125 
Q 15.484375 15.921875 20.484375 11.0625 
Q 25.484375 6.203125 34.421875 6.203125 
Q 39.59375 6.203125 44.453125 7.46875 
Q 49.3125 8.734375 54.109375 11.28125 
L 54.109375 2.78125 
Q 49.265625 0.734375 44.1875 -0.34375 
Q 39.109375 -1.421875 33.890625 -1.421875 
Q 20.796875 -1.421875 13.15625 6.1875 
Q 5.515625 13.8125 5.515625 26.8125 
Q 5.515625 40.234375 12.765625 48.109375 
Q 20.015625 56 32.328125 56 
Q 43.359375 56 49.78125 48.890625 
Q 56.203125 41.796875 56.203125 29.59375 
z
M 47.21875 32.234375 
Q 47.125 39.59375 43.09375 43.984375 
Q 39.0625 48.390625 32.421875 48.390625 
Q 24.90625 48.390625 20.390625 44.140625 
Q 15.875 39.890625 15.1875 32.171875 
z
" id="DejaVuSans-101"/>
       <path d="M 18.109375 8.203125 
L 18.109375 -20.796875 
L 9.078125 -20.796875 
L 9.078125 54.6875 
L 18.109375 54.6875 
L 18.109375 46.390625 
Q 20.953125 51.265625 25.265625 53.625 
Q 29.59375 56 35.59375 56 
Q 45.5625 56 51.78125 48.09375 
Q 58.015625 40.1875 58.015625 27.296875 
Q 58.015625 14.40625 51.78125 6.484375 
Q 45.5625 -1.421875 35.59375 -1.421875 
Q 29.59375 -1.421875 25.265625 0.953125 
Q 20.953125 3.328125 18.109375 8.203125 
z
M 48.6875 27.296875 
Q 48.6875 37.203125 44.609375 42.84375 
Q 40.53125 48.484375 33.40625 48.484375 
Q 26.265625 48.484375 22.1875 42.84375 
Q 18.109375 37.203125 18.109375 27.296875 
Q 18.109375 17.390625 22.1875 11.75 
Q 26.265625 6.109375 33.40625 6.109375 
Q 40.53125 6.109375 44.609375 11.75 
Q 48.6875 17.390625 48.6875 27.296875 
z
" id="DejaVuSans-112"/>
       <path d="M 48.78125 52.59375 
L 48.78125 44.1875 
Q 44.96875 46.296875 41.140625 47.34375 
Q 37.3125 48.390625 33.40625 48.390625 
Q 24.65625 48.390625 19.8125 42.84375 
Q 14.984375 37.3125 14.984375 27.296875 
Q 14.984375 17.28125 19.8125 11.734375 
Q 24.65625 6.203125 33.40625 6.203125 
Q 37.3125 6.203125 41.140625 7.25 
Q 44.96875 8.296875 48.78125 10.40625 
L 48.78125 2.09375 
Q 45.015625 0.34375 40.984375 -0.53125 
Q 36.96875 -1.421875 32.421875 -1.421875 
Q 20.0625 -1.421875 12.78125 6.34375 
Q 5.515625 14.109375 5.515625 27.296875 
Q 5.515625 40.671875 12.859375 48.328125 
Q 20.21875 56 33.015625 56 
Q 37.15625 56 41.109375 55.140625 
Q 45.0625 54.296875 48.78125 52.59375 
z
" id="DejaVuSans-99"/>
       <path d="M 18.3125 70.21875 
L 18.3125 54.6875 
L 36.8125 54.6875 
L 36.8125 47.703125 
L 18.3125 47.703125 
L 18.3125 18.015625 
Q 18.3125 11.328125 20.140625 9.421875 
Q 21.96875 7.515625 27.59375 7.515625 
L 36.8125 7.515625 
L 36.8125 0 
L 27.59375 0 
Q 17.1875 0 13.234375 3.875 
Q 9.28125 7.765625 9.28125 18.015625 
L 9.28125 47.703125 
L 2.6875 47.703125 
L 2.6875 54.6875 
L 9.28125 54.6875 
L 9.28125 70.21875 
z
" id="DejaVuSans-116"/>
      </defs>
      <use xlink:href="#DejaVuSans-101"/>
      <use x="59.773438" xlink:href="#DejaVuSans-120"/>
      <use x="118.953125" xlink:href="#DejaVuSans-112"/>
      <use x="182.429688" xlink:href="#DejaVuSans-101"/>
      <use x="243.953125" xlink:href="#DejaVuSans-99"/>
      <use x="298.933594" xlink:href="#DejaVuSans-116"/>
      <use x="338.142578" xlink:href="#DejaVuSans-101"/>
      <use x="399.666016" xlink:href="#DejaVuSans-100"/>
     </g>
    </g>
    <g id="line2d_37">
     <path d="M 433.965625 79.616562 
L 453.965625 79.616562 
" style="fill:none;stroke:#ff7f0e;stroke-linecap:square;stroke-width:1.5;"/>
    </g>
    <g id="line2d_38"/>
    <g id="text_21">
     <!-- predicted -->
     <g transform="translate(461.965625 83.116562)scale(0.1 -0.1)">
      <defs>
       <path d="M 9.421875 54.6875 
L 18.40625 54.6875 
L 18.40625 0 
L 9.421875 0 
z
M 9.421875 75.984375 
L 18.40625 75.984375 
L 18.40625 64.59375 
L 9.421875 64.59375 
z
" id="DejaVuSans-105"/>
      </defs>
      <use xlink:href="#DejaVuSans-112"/>
      <use x="63.476562" xlink:href="#DejaVuSans-114"/>
      <use x="102.339844" xlink:href="#DejaVuSans-101"/>
      <use x="163.863281" xlink:href="#DejaVuSans-100"/>
      <use x="227.339844" xlink:href="#DejaVuSans-105"/>
      <use x="255.123047" xlink:href="#DejaVuSans-99"/>
      <use x="310.103516" xlink:href="#DejaVuSans-116"/>
      <use x="349.3125" xlink:href="#DejaVuSans-101"/>
      <use x="410.835938" xlink:href="#DejaVuSans-100"/>
     </g>
    </g>
   </g>
  </g>
 </g>
 <defs>
  <clipPath id="p99b1fb516f">
   <rect height="332.64" width="446.4" x="72" y="51.84"/>
  </clipPath>
 </defs>
</svg>
