<?xml version="1.0" encoding="utf-8" standalone="no"?>
<!DOCTYPE svg PUBLIC "-//W3C//DTD SVG 1.1//EN"
  "http://www.w3.org/Graphics/SVG/1.1/DTD/svg11.dtd">
<!-- Created with matplotlib (https://matplotlib.org/) -->
<svg height="432pt" version="1.1" viewBox="0 0 576 432" width="576pt" xmlns="http://www.w3.org/2000/svg" xmlns:xlink="http://www.w3.org/1999/xlink">
 <metadata>
  <rdf:RDF xmlns:cc="http://creativecommons.org/ns#" xmlns:dc="http://purl.org/dc/elements/1.1/" xmlns:rdf="http://www.w3.org/1999/02/22-rdf-syntax-ns#">
   <cc:Work>
    <dc:type rdf:resource="http://purl.org/dc/dcmitype/StillImage"/>
    <dc:date>2020-12-05T02:22:24.478439</dc:date>
    <dc:format>image/svg+xml</dc:format>
    <dc:creator>
     <cc:Agent>
      <dc:title>Matplotlib v3.3.2, https://matplotlib.org/</dc:title>
     </cc:Agent>
    </dc:creator>
   </cc:Work>
  </rdf:RDF>
 </metadata>
 <defs>
  <style type="text/css">*{stroke-linecap:butt;stroke-linejoin:round;}</style>
 </defs>
 <g id="figure_1">
  <g id="patch_1">
   <path d="M 0 432 
L 576 432 
L 576 0 
L 0 0 
z
" style="fill:#ffffff;"/>
  </g>
  <g id="axes_1">
   <g id="patch_2">
    <path d="M 72 384.48 
L 518.4 384.48 
L 518.4 51.84 
L 72 51.84 
z
" style="fill:#ffffff;"/>
   </g>
   <g id="matplotlib.axis_1">
    <g id="xtick_1">
     <g id="line2d_1">
      <path clip-path="url(#p7bde3a9caf)" d="M 92.290909 384.48 
L 92.290909 51.84 
" style="fill:none;stroke:#b0b0b0;stroke-linecap:square;stroke-width:0.8;"/>
     </g>
     <g id="line2d_2">
      <defs>
       <path d="M 0 0 
L 0 3.5 
" id="m4f9c9004b5" style="stroke:#000000;stroke-width:0.8;"/>
      </defs>
      <g>
       <use style="stroke:#000000;stroke-width:0.8;" x="92.290909" xlink:href="#m4f9c9004b5" y="384.48"/>
      </g>
     </g>
     <g id="text_1">
      <!-- 0 -->
      <g transform="translate(89.109659 399.078438)scale(0.1 -0.1)">
       <defs>
        <path d="M 31.78125 66.40625 
Q 24.171875 66.40625 20.328125 58.90625 
Q 16.5 51.421875 16.5 36.375 
Q 16.5 21.390625 20.328125 13.890625 
Q 24.171875 6.390625 31.78125 6.390625 
Q 39.453125 6.390625 43.28125 13.890625 
Q 47.125 21.390625 47.125 36.375 
Q 47.125 51.421875 43.28125 58.90625 
Q 39.453125 66.40625 31.78125 66.40625 
z
M 31.78125 74.21875 
Q 44.046875 74.21875 50.515625 64.515625 
Q 56.984375 54.828125 56.984375 36.375 
Q 56.984375 17.96875 50.515625 8.265625 
Q 44.046875 -1.421875 31.78125 -1.421875 
Q 19.53125 -1.421875 13.0625 8.265625 
Q 6.59375 17.96875 6.59375 36.375 
Q 6.59375 54.828125 13.0625 64.515625 
Q 19.53125 74.21875 31.78125 74.21875 
z
" id="DejaVuSans-48"/>
       </defs>
       <use xlink:href="#DejaVuSans-48"/>
      </g>
     </g>
    </g>
    <g id="xtick_2">
     <g id="line2d_3">
      <path clip-path="url(#p7bde3a9caf)" d="M 148.035165 384.48 
L 148.035165 51.84 
" style="fill:none;stroke:#b0b0b0;stroke-linecap:square;stroke-width:0.8;"/>
     </g>
     <g id="line2d_4">
      <g>
       <use style="stroke:#000000;stroke-width:0.8;" x="148.035165" xlink:href="#m4f9c9004b5" y="384.48"/>
      </g>
     </g>
     <g id="text_2">
      <!-- 50 -->
      <g transform="translate(141.672665 399.078438)scale(0.1 -0.1)">
       <defs>
        <path d="M 10.796875 72.90625 
L 49.515625 72.90625 
L 49.515625 64.59375 
L 19.828125 64.59375 
L 19.828125 46.734375 
Q 21.96875 47.46875 24.109375 47.828125 
Q 26.265625 48.1875 28.421875 48.1875 
Q 40.625 48.1875 47.75 41.5 
Q 54.890625 34.8125 54.890625 23.390625 
Q 54.890625 11.625 47.5625 5.09375 
Q 40.234375 -1.421875 26.90625 -1.421875 
Q 22.3125 -1.421875 17.546875 -0.640625 
Q 12.796875 0.140625 7.71875 1.703125 
L 7.71875 11.625 
Q 12.109375 9.234375 16.796875 8.0625 
Q 21.484375 6.890625 26.703125 6.890625 
Q 35.15625 6.890625 40.078125 11.328125 
Q 45.015625 15.765625 45.015625 23.390625 
Q 45.015625 31 40.078125 35.4375 
Q 35.15625 39.890625 26.703125 39.890625 
Q 22.75 39.890625 18.8125 39.015625 
Q 14.890625 38.140625 10.796875 36.28125 
z
" id="DejaVuSans-53"/>
       </defs>
       <use xlink:href="#DejaVuSans-53"/>
       <use x="63.623047" xlink:href="#DejaVuSans-48"/>
      </g>
     </g>
    </g>
    <g id="xtick_3">
     <g id="line2d_5">
      <path clip-path="url(#p7bde3a9caf)" d="M 203.779421 384.48 
L 203.779421 51.84 
" style="fill:none;stroke:#b0b0b0;stroke-linecap:square;stroke-width:0.8;"/>
     </g>
     <g id="line2d_6">
      <g>
       <use style="stroke:#000000;stroke-width:0.8;" x="203.779421" xlink:href="#m4f9c9004b5" y="384.48"/>
      </g>
     </g>
     <g id="text_3">
      <!-- 100 -->
      <g transform="translate(194.235671 399.078438)scale(0.1 -0.1)">
       <defs>
        <path d="M 12.40625 8.296875 
L 28.515625 8.296875 
L 28.515625 63.921875 
L 10.984375 60.40625 
L 10.984375 69.390625 
L 28.421875 72.90625 
L 38.28125 72.90625 
L 38.28125 8.296875 
L 54.390625 8.296875 
L 54.390625 0 
L 12.40625 0 
z
" id="DejaVuSans-49"/>
       </defs>
       <use xlink:href="#DejaVuSans-49"/>
       <use x="63.623047" xlink:href="#DejaVuSans-48"/>
       <use x="127.246094" xlink:href="#DejaVuSans-48"/>
      </g>
     </g>
    </g>
    <g id="xtick_4">
     <g id="line2d_7">
      <path clip-path="url(#p7bde3a9caf)" d="M 259.523676 384.48 
L 259.523676 51.84 
" style="fill:none;stroke:#b0b0b0;stroke-linecap:square;stroke-width:0.8;"/>
     </g>
     <g id="line2d_8">
      <g>
       <use style="stroke:#000000;stroke-width:0.8;" x="259.523676" xlink:href="#m4f9c9004b5" y="384.48"/>
      </g>
     </g>
     <g id="text_4">
      <!-- 150 -->
      <g transform="translate(249.979926 399.078438)scale(0.1 -0.1)">
       <use xlink:href="#DejaVuSans-49"/>
       <use x="63.623047" xlink:href="#DejaVuSans-53"/>
       <use x="127.246094" xlink:href="#DejaVuSans-48"/>
      </g>
     </g>
    </g>
    <g id="xtick_5">
     <g id="line2d_9">
      <path clip-path="url(#p7bde3a9caf)" d="M 315.267932 384.48 
L 315.267932 51.84 
" style="fill:none;stroke:#b0b0b0;stroke-linecap:square;stroke-width:0.8;"/>
     </g>
     <g id="line2d_10">
      <g>
       <use style="stroke:#000000;stroke-width:0.8;" x="315.267932" xlink:href="#m4f9c9004b5" y="384.48"/>
      </g>
     </g>
     <g id="text_5">
      <!-- 200 -->
      <g transform="translate(305.724182 399.078438)scale(0.1 -0.1)">
       <defs>
        <path d="M 19.1875 8.296875 
L 53.609375 8.296875 
L 53.609375 0 
L 7.328125 0 
L 7.328125 8.296875 
Q 12.9375 14.109375 22.625 23.890625 
Q 32.328125 33.6875 34.8125 36.53125 
Q 39.546875 41.84375 41.421875 45.53125 
Q 43.3125 49.21875 43.3125 52.78125 
Q 43.3125 58.59375 39.234375 62.25 
Q 35.15625 65.921875 28.609375 65.921875 
Q 23.96875 65.921875 18.8125 64.3125 
Q 13.671875 62.703125 7.8125 59.421875 
L 7.8125 69.390625 
Q 13.765625 71.78125 18.9375 73 
Q 24.125 74.21875 28.421875 74.21875 
Q 39.75 74.21875 46.484375 68.546875 
Q 53.21875 62.890625 53.21875 53.421875 
Q 53.21875 48.921875 51.53125 44.890625 
Q 49.859375 40.875 45.40625 35.40625 
Q 44.1875 33.984375 37.640625 27.21875 
Q 31.109375 20.453125 19.1875 8.296875 
z
" id="DejaVuSans-50"/>
       </defs>
       <use xlink:href="#DejaVuSans-50"/>
       <use x="63.623047" xlink:href="#DejaVuSans-48"/>
       <use x="127.246094" xlink:href="#DejaVuSans-48"/>
      </g>
     </g>
    </g>
    <g id="xtick_6">
     <g id="line2d_11">
      <path clip-path="url(#p7bde3a9caf)" d="M 371.012188 384.48 
L 371.012188 51.84 
" style="fill:none;stroke:#b0b0b0;stroke-linecap:square;stroke-width:0.8;"/>
     </g>
     <g id="line2d_12">
      <g>
       <use style="stroke:#000000;stroke-width:0.8;" x="371.012188" xlink:href="#m4f9c9004b5" y="384.48"/>
      </g>
     </g>
     <g id="text_6">
      <!-- 250 -->
      <g transform="translate(361.468438 399.078438)scale(0.1 -0.1)">
       <use xlink:href="#DejaVuSans-50"/>
       <use x="63.623047" xlink:href="#DejaVuSans-53"/>
       <use x="127.246094" xlink:href="#DejaVuSans-48"/>
      </g>
     </g>
    </g>
    <g id="xtick_7">
     <g id="line2d_13">
      <path clip-path="url(#p7bde3a9caf)" d="M 426.756444 384.48 
L 426.756444 51.84 
" style="fill:none;stroke:#b0b0b0;stroke-linecap:square;stroke-width:0.8;"/>
     </g>
     <g id="line2d_14">
      <g>
       <use style="stroke:#000000;stroke-width:0.8;" x="426.756444" xlink:href="#m4f9c9004b5" y="384.48"/>
      </g>
     </g>
     <g id="text_7">
      <!-- 300 -->
      <g transform="translate(417.212694 399.078438)scale(0.1 -0.1)">
       <defs>
        <path d="M 40.578125 39.3125 
Q 47.65625 37.796875 51.625 33 
Q 55.609375 28.21875 55.609375 21.1875 
Q 55.609375 10.40625 48.1875 4.484375 
Q 40.765625 -1.421875 27.09375 -1.421875 
Q 22.515625 -1.421875 17.65625 -0.515625 
Q 12.796875 0.390625 7.625 2.203125 
L 7.625 11.71875 
Q 11.71875 9.328125 16.59375 8.109375 
Q 21.484375 6.890625 26.8125 6.890625 
Q 36.078125 6.890625 40.9375 10.546875 
Q 45.796875 14.203125 45.796875 21.1875 
Q 45.796875 27.640625 41.28125 31.265625 
Q 36.765625 34.90625 28.71875 34.90625 
L 20.21875 34.90625 
L 20.21875 43.015625 
L 29.109375 43.015625 
Q 36.375 43.015625 40.234375 45.921875 
Q 44.09375 48.828125 44.09375 54.296875 
Q 44.09375 59.90625 40.109375 62.90625 
Q 36.140625 65.921875 28.71875 65.921875 
Q 24.65625 65.921875 20.015625 65.03125 
Q 15.375 64.15625 9.8125 62.3125 
L 9.8125 71.09375 
Q 15.4375 72.65625 20.34375 73.4375 
Q 25.25 74.21875 29.59375 74.21875 
Q 40.828125 74.21875 47.359375 69.109375 
Q 53.90625 64.015625 53.90625 55.328125 
Q 53.90625 49.265625 50.4375 45.09375 
Q 46.96875 40.921875 40.578125 39.3125 
z
" id="DejaVuSans-51"/>
       </defs>
       <use xlink:href="#DejaVuSans-51"/>
       <use x="63.623047" xlink:href="#DejaVuSans-48"/>
       <use x="127.246094" xlink:href="#DejaVuSans-48"/>
      </g>
     </g>
    </g>
    <g id="xtick_8">
     <g id="line2d_15">
      <path clip-path="url(#p7bde3a9caf)" d="M 482.500699 384.48 
L 482.500699 51.84 
" style="fill:none;stroke:#b0b0b0;stroke-linecap:square;stroke-width:0.8;"/>
     </g>
     <g id="line2d_16">
      <g>
       <use style="stroke:#000000;stroke-width:0.8;" x="482.500699" xlink:href="#m4f9c9004b5" y="384.48"/>
      </g>
     </g>
     <g id="text_8">
      <!-- 350 -->
      <g transform="translate(472.956949 399.078438)scale(0.1 -0.1)">
       <use xlink:href="#DejaVuSans-51"/>
       <use x="63.623047" xlink:href="#DejaVuSans-53"/>
       <use x="127.246094" xlink:href="#DejaVuSans-48"/>
      </g>
     </g>
    </g>
    <g id="text_9">
     <!-- Day -->
     <g transform="translate(285.326562 412.756563)scale(0.1 -0.1)">
      <defs>
       <path d="M 19.671875 64.796875 
L 19.671875 8.109375 
L 31.59375 8.109375 
Q 46.6875 8.109375 53.6875 14.9375 
Q 60.6875 21.78125 60.6875 36.53125 
Q 60.6875 51.171875 53.6875 57.984375 
Q 46.6875 64.796875 31.59375 64.796875 
z
M 9.8125 72.90625 
L 30.078125 72.90625 
Q 51.265625 72.90625 61.171875 64.09375 
Q 71.09375 55.28125 71.09375 36.53125 
Q 71.09375 17.671875 61.125 8.828125 
Q 51.171875 0 30.078125 0 
L 9.8125 0 
z
" id="DejaVuSans-68"/>
       <path d="M 34.28125 27.484375 
Q 23.390625 27.484375 19.1875 25 
Q 14.984375 22.515625 14.984375 16.5 
Q 14.984375 11.71875 18.140625 8.90625 
Q 21.296875 6.109375 26.703125 6.109375 
Q 34.1875 6.109375 38.703125 11.40625 
Q 43.21875 16.703125 43.21875 25.484375 
L 43.21875 27.484375 
z
M 52.203125 31.203125 
L 52.203125 0 
L 43.21875 0 
L 43.21875 8.296875 
Q 40.140625 3.328125 35.546875 0.953125 
Q 30.953125 -1.421875 24.3125 -1.421875 
Q 15.921875 -1.421875 10.953125 3.296875 
Q 6 8.015625 6 15.921875 
Q 6 25.140625 12.171875 29.828125 
Q 18.359375 34.515625 30.609375 34.515625 
L 43.21875 34.515625 
L 43.21875 35.40625 
Q 43.21875 41.609375 39.140625 45 
Q 35.0625 48.390625 27.6875 48.390625 
Q 23 48.390625 18.546875 47.265625 
Q 14.109375 46.140625 10.015625 43.890625 
L 10.015625 52.203125 
Q 14.9375 54.109375 19.578125 55.046875 
Q 24.21875 56 28.609375 56 
Q 40.484375 56 46.34375 49.84375 
Q 52.203125 43.703125 52.203125 31.203125 
z
" id="DejaVuSans-97"/>
       <path d="M 32.171875 -5.078125 
Q 28.375 -14.84375 24.75 -17.8125 
Q 21.140625 -20.796875 15.09375 -20.796875 
L 7.90625 -20.796875 
L 7.90625 -13.28125 
L 13.1875 -13.28125 
Q 16.890625 -13.28125 18.9375 -11.515625 
Q 21 -9.765625 23.484375 -3.21875 
L 25.09375 0.875 
L 2.984375 54.6875 
L 12.5 54.6875 
L 29.59375 11.921875 
L 46.6875 54.6875 
L 56.203125 54.6875 
z
" id="DejaVuSans-121"/>
      </defs>
      <use xlink:href="#DejaVuSans-68"/>
      <use x="77.001953" xlink:href="#DejaVuSans-97"/>
      <use x="138.28125" xlink:href="#DejaVuSans-121"/>
     </g>
    </g>
   </g>
   <g id="matplotlib.axis_2">
    <g id="ytick_1">
     <g id="line2d_17">
      <path clip-path="url(#p7bde3a9caf)" d="M 72 359.962577 
L 518.4 359.962577 
" style="fill:none;stroke:#b0b0b0;stroke-linecap:square;stroke-width:0.8;"/>
     </g>
     <g id="line2d_18">
      <defs>
       <path d="M 0 0 
L -3.5 0 
" id="m0bccc39f8a" style="stroke:#000000;stroke-width:0.8;"/>
      </defs>
      <g>
       <use style="stroke:#000000;stroke-width:0.8;" x="72" xlink:href="#m0bccc39f8a" y="359.962577"/>
      </g>
     </g>
     <g id="text_10">
      <!-- 0 -->
      <g transform="translate(58.6375 363.761796)scale(0.1 -0.1)">
       <use xlink:href="#DejaVuSans-48"/>
      </g>
     </g>
    </g>
    <g id="ytick_2">
     <g id="line2d_19">
      <path clip-path="url(#p7bde3a9caf)" d="M 72 318.573356 
L 518.4 318.573356 
" style="fill:none;stroke:#b0b0b0;stroke-linecap:square;stroke-width:0.8;"/>
     </g>
     <g id="line2d_20">
      <g>
       <use style="stroke:#000000;stroke-width:0.8;" x="72" xlink:href="#m0bccc39f8a" y="318.573356"/>
      </g>
     </g>
     <g id="text_11">
      <!-- 10 -->
      <g transform="translate(52.275 322.372574)scale(0.1 -0.1)">
       <use xlink:href="#DejaVuSans-49"/>
       <use x="63.623047" xlink:href="#DejaVuSans-48"/>
      </g>
     </g>
    </g>
    <g id="ytick_3">
     <g id="line2d_21">
      <path clip-path="url(#p7bde3a9caf)" d="M 72 277.184134 
L 518.4 277.184134 
" style="fill:none;stroke:#b0b0b0;stroke-linecap:square;stroke-width:0.8;"/>
     </g>
     <g id="line2d_22">
      <g>
       <use style="stroke:#000000;stroke-width:0.8;" x="72" xlink:href="#m0bccc39f8a" y="277.184134"/>
      </g>
     </g>
     <g id="text_12">
      <!-- 20 -->
      <g transform="translate(52.275 280.983353)scale(0.1 -0.1)">
       <use xlink:href="#DejaVuSans-50"/>
       <use x="63.623047" xlink:href="#DejaVuSans-48"/>
      </g>
     </g>
    </g>
    <g id="ytick_4">
     <g id="line2d_23">
      <path clip-path="url(#p7bde3a9caf)" d="M 72 235.794913 
L 518.4 235.794913 
" style="fill:none;stroke:#b0b0b0;stroke-linecap:square;stroke-width:0.8;"/>
     </g>
     <g id="line2d_24">
      <g>
       <use style="stroke:#000000;stroke-width:0.8;" x="72" xlink:href="#m0bccc39f8a" y="235.794913"/>
      </g>
     </g>
     <g id="text_13">
      <!-- 30 -->
      <g transform="translate(52.275 239.594131)scale(0.1 -0.1)">
       <use xlink:href="#DejaVuSans-51"/>
       <use x="63.623047" xlink:href="#DejaVuSans-48"/>
      </g>
     </g>
    </g>
    <g id="ytick_5">
     <g id="line2d_25">
      <path clip-path="url(#p7bde3a9caf)" d="M 72 194.405691 
L 518.4 194.405691 
" style="fill:none;stroke:#b0b0b0;stroke-linecap:square;stroke-width:0.8;"/>
     </g>
     <g id="line2d_26">
      <g>
       <use style="stroke:#000000;stroke-width:0.8;" x="72" xlink:href="#m0bccc39f8a" y="194.405691"/>
      </g>
     </g>
     <g id="text_14">
      <!-- 40 -->
      <g transform="translate(52.275 198.20491)scale(0.1 -0.1)">
       <defs>
        <path d="M 37.796875 64.3125 
L 12.890625 25.390625 
L 37.796875 25.390625 
z
M 35.203125 72.90625 
L 47.609375 72.90625 
L 47.609375 25.390625 
L 58.015625 25.390625 
L 58.015625 17.1875 
L 47.609375 17.1875 
L 47.609375 0 
L 37.796875 0 
L 37.796875 17.1875 
L 4.890625 17.1875 
L 4.890625 26.703125 
z
" id="DejaVuSans-52"/>
       </defs>
       <use xlink:href="#DejaVuSans-52"/>
       <use x="63.623047" xlink:href="#DejaVuSans-48"/>
      </g>
     </g>
    </g>
    <g id="ytick_6">
     <g id="line2d_27">
      <path clip-path="url(#p7bde3a9caf)" d="M 72 153.016469 
L 518.4 153.016469 
" style="fill:none;stroke:#b0b0b0;stroke-linecap:square;stroke-width:0.8;"/>
     </g>
     <g id="line2d_28">
      <g>
       <use style="stroke:#000000;stroke-width:0.8;" x="72" xlink:href="#m0bccc39f8a" y="153.016469"/>
      </g>
     </g>
     <g id="text_15">
      <!-- 50 -->
      <g transform="translate(52.275 156.815688)scale(0.1 -0.1)">
       <use xlink:href="#DejaVuSans-53"/>
       <use x="63.623047" xlink:href="#DejaVuSans-48"/>
      </g>
     </g>
    </g>
    <g id="ytick_7">
     <g id="line2d_29">
      <path clip-path="url(#p7bde3a9caf)" d="M 72 111.627248 
L 518.4 111.627248 
" style="fill:none;stroke:#b0b0b0;stroke-linecap:square;stroke-width:0.8;"/>
     </g>
     <g id="line2d_30">
      <g>
       <use style="stroke:#000000;stroke-width:0.8;" x="72" xlink:href="#m0bccc39f8a" y="111.627248"/>
      </g>
     </g>
     <g id="text_16">
      <!-- 60 -->
      <g transform="translate(52.275 115.426467)scale(0.1 -0.1)">
       <defs>
        <path d="M 33.015625 40.375 
Q 26.375 40.375 22.484375 35.828125 
Q 18.609375 31.296875 18.609375 23.390625 
Q 18.609375 15.53125 22.484375 10.953125 
Q 26.375 6.390625 33.015625 6.390625 
Q 39.65625 6.390625 43.53125 10.953125 
Q 47.40625 15.53125 47.40625 23.390625 
Q 47.40625 31.296875 43.53125 35.828125 
Q 39.65625 40.375 33.015625 40.375 
z
M 52.59375 71.296875 
L 52.59375 62.3125 
Q 48.875 64.0625 45.09375 64.984375 
Q 41.3125 65.921875 37.59375 65.921875 
Q 27.828125 65.921875 22.671875 59.328125 
Q 17.53125 52.734375 16.796875 39.40625 
Q 19.671875 43.65625 24.015625 45.921875 
Q 28.375 48.1875 33.59375 48.1875 
Q 44.578125 48.1875 50.953125 41.515625 
Q 57.328125 34.859375 57.328125 23.390625 
Q 57.328125 12.15625 50.6875 5.359375 
Q 44.046875 -1.421875 33.015625 -1.421875 
Q 20.359375 -1.421875 13.671875 8.265625 
Q 6.984375 17.96875 6.984375 36.375 
Q 6.984375 53.65625 15.1875 63.9375 
Q 23.390625 74.21875 37.203125 74.21875 
Q 40.921875 74.21875 44.703125 73.484375 
Q 48.484375 72.75 52.59375 71.296875 
z
" id="DejaVuSans-54"/>
       </defs>
       <use xlink:href="#DejaVuSans-54"/>
       <use x="63.623047" xlink:href="#DejaVuSans-48"/>
      </g>
     </g>
    </g>
    <g id="ytick_8">
     <g id="line2d_31">
      <path clip-path="url(#p7bde3a9caf)" d="M 72 70.238026 
L 518.4 70.238026 
" style="fill:none;stroke:#b0b0b0;stroke-linecap:square;stroke-width:0.8;"/>
     </g>
     <g id="line2d_32">
      <g>
       <use style="stroke:#000000;stroke-width:0.8;" x="72" xlink:href="#m0bccc39f8a" y="70.238026"/>
      </g>
     </g>
     <g id="text_17">
      <!-- 70 -->
      <g transform="translate(52.275 74.037245)scale(0.1 -0.1)">
       <defs>
        <path d="M 8.203125 72.90625 
L 55.078125 72.90625 
L 55.078125 68.703125 
L 28.609375 0 
L 18.3125 0 
L 43.21875 64.59375 
L 8.203125 64.59375 
z
" id="DejaVuSans-55"/>
       </defs>
       <use xlink:href="#DejaVuSans-55"/>
       <use x="63.623047" xlink:href="#DejaVuSans-48"/>
      </g>
     </g>
    </g>
    <g id="text_18">
     <!-- max 8h 'r'$O_3$ $[\mu g/m^3$] -->
     <g transform="translate(46.175 270.71)rotate(-90)scale(0.1 -0.1)">
      <defs>
       <path d="M 52 44.1875 
Q 55.375 50.25 60.0625 53.125 
Q 64.75 56 71.09375 56 
Q 79.640625 56 84.28125 50.015625 
Q 88.921875 44.046875 88.921875 33.015625 
L 88.921875 0 
L 79.890625 0 
L 79.890625 32.71875 
Q 79.890625 40.578125 77.09375 44.375 
Q 74.3125 48.1875 68.609375 48.1875 
Q 61.625 48.1875 57.5625 43.546875 
Q 53.515625 38.921875 53.515625 30.90625 
L 53.515625 0 
L 44.484375 0 
L 44.484375 32.71875 
Q 44.484375 40.625 41.703125 44.40625 
Q 38.921875 48.1875 33.109375 48.1875 
Q 26.21875 48.1875 22.15625 43.53125 
Q 18.109375 38.875 18.109375 30.90625 
L 18.109375 0 
L 9.078125 0 
L 9.078125 54.6875 
L 18.109375 54.6875 
L 18.109375 46.1875 
Q 21.1875 51.21875 25.484375 53.609375 
Q 29.78125 56 35.6875 56 
Q 41.65625 56 45.828125 52.96875 
Q 50 49.953125 52 44.1875 
z
" id="DejaVuSans-109"/>
       <path d="M 54.890625 54.6875 
L 35.109375 28.078125 
L 55.90625 0 
L 45.3125 0 
L 29.390625 21.484375 
L 13.484375 0 
L 2.875 0 
L 24.125 28.609375 
L 4.6875 54.6875 
L 15.28125 54.6875 
L 29.78125 35.203125 
L 44.28125 54.6875 
z
" id="DejaVuSans-120"/>
       <path id="DejaVuSans-32"/>
       <path d="M 31.78125 34.625 
Q 24.75 34.625 20.71875 30.859375 
Q 16.703125 27.09375 16.703125 20.515625 
Q 16.703125 13.921875 20.71875 10.15625 
Q 24.75 6.390625 31.78125 6.390625 
Q 38.8125 6.390625 42.859375 10.171875 
Q 46.921875 13.96875 46.921875 20.515625 
Q 46.921875 27.09375 42.890625 30.859375 
Q 38.875 34.625 31.78125 34.625 
z
M 21.921875 38.8125 
Q 15.578125 40.375 12.03125 44.71875 
Q 8.5 49.078125 8.5 55.328125 
Q 8.5 64.0625 14.71875 69.140625 
Q 20.953125 74.21875 31.78125 74.21875 
Q 42.671875 74.21875 48.875 69.140625 
Q 55.078125 64.0625 55.078125 55.328125 
Q 55.078125 49.078125 51.53125 44.71875 
Q 48 40.375 41.703125 38.8125 
Q 48.828125 37.15625 52.796875 32.3125 
Q 56.78125 27.484375 56.78125 20.515625 
Q 56.78125 9.90625 50.3125 4.234375 
Q 43.84375 -1.421875 31.78125 -1.421875 
Q 19.734375 -1.421875 13.25 4.234375 
Q 6.78125 9.90625 6.78125 20.515625 
Q 6.78125 27.484375 10.78125 32.3125 
Q 14.796875 37.15625 21.921875 38.8125 
z
M 18.3125 54.390625 
Q 18.3125 48.734375 21.84375 45.5625 
Q 25.390625 42.390625 31.78125 42.390625 
Q 38.140625 42.390625 41.71875 45.5625 
Q 45.3125 48.734375 45.3125 54.390625 
Q 45.3125 60.0625 41.71875 63.234375 
Q 38.140625 66.40625 31.78125 66.40625 
Q 25.390625 66.40625 21.84375 63.234375 
Q 18.3125 60.0625 18.3125 54.390625 
z
" id="DejaVuSans-56"/>
       <path d="M 54.890625 33.015625 
L 54.890625 0 
L 45.90625 0 
L 45.90625 32.71875 
Q 45.90625 40.484375 42.875 44.328125 
Q 39.84375 48.1875 33.796875 48.1875 
Q 26.515625 48.1875 22.3125 43.546875 
Q 18.109375 38.921875 18.109375 30.90625 
L 18.109375 0 
L 9.078125 0 
L 9.078125 75.984375 
L 18.109375 75.984375 
L 18.109375 46.1875 
Q 21.34375 51.125 25.703125 53.5625 
Q 30.078125 56 35.796875 56 
Q 45.21875 56 50.046875 50.171875 
Q 54.890625 44.34375 54.890625 33.015625 
z
" id="DejaVuSans-104"/>
       <path d="M 17.921875 72.90625 
L 17.921875 45.796875 
L 9.625 45.796875 
L 9.625 72.90625 
z
" id="DejaVuSans-39"/>
       <path d="M 41.109375 46.296875 
Q 39.59375 47.171875 37.8125 47.578125 
Q 36.03125 48 33.890625 48 
Q 26.265625 48 22.1875 43.046875 
Q 18.109375 38.09375 18.109375 28.8125 
L 18.109375 0 
L 9.078125 0 
L 9.078125 54.6875 
L 18.109375 54.6875 
L 18.109375 46.1875 
Q 20.953125 51.171875 25.484375 53.578125 
Q 30.03125 56 36.53125 56 
Q 37.453125 56 38.578125 55.875 
Q 39.703125 55.765625 41.0625 55.515625 
z
" id="DejaVuSans-114"/>
       <path d="M 45.609375 66.21875 
Q 37.5 66.21875 31.296875 62.28125 
Q 25.09375 58.34375 20.515625 50.296875 
Q 17.578125 45.171875 16.03125 39.40625 
Q 14.5 33.640625 14.5 27.78125 
Q 14.5 17.625 19.359375 12.109375 
Q 24.21875 6.59375 33.109375 6.59375 
Q 41.109375 6.59375 47.375 10.5625 
Q 53.65625 14.546875 58.109375 22.40625 
Q 61.078125 27.6875 62.640625 33.46875 
Q 64.203125 39.265625 64.203125 45.015625 
Q 64.203125 55.125 59.3125 60.671875 
Q 54.4375 66.21875 45.609375 66.21875 
z
M 32.8125 -1.421875 
Q 19.390625 -1.421875 11.6875 6.53125 
Q 4 14.5 4 28.328125 
Q 4 36.234375 7 44.484375 
Q 10.015625 52.734375 15.28125 59.1875 
Q 21.484375 66.75 29.09375 70.484375 
Q 36.71875 74.21875 45.90625 74.21875 
Q 59.28125 74.21875 66.984375 66.328125 
Q 74.703125 58.453125 74.703125 44.828125 
Q 74.703125 36.421875 71.765625 28.3125 
Q 68.84375 20.21875 63.375 13.625 
Q 57.125 6 49.578125 2.28125 
Q 42.046875 -1.421875 32.8125 -1.421875 
z
" id="DejaVuSans-Oblique-79"/>
       <path d="M 8.59375 75.984375 
L 29.296875 75.984375 
L 29.296875 69 
L 17.578125 69 
L 17.578125 -6.203125 
L 29.296875 -6.203125 
L 29.296875 -13.1875 
L 8.59375 -13.1875 
z
" id="DejaVuSans-91"/>
       <path d="M -1.3125 -20.796875 
L 13.375 54.6875 
L 22.40625 54.6875 
L 15.765625 20.65625 
Q 15.578125 19.625 15.421875 18.359375 
Q 15.28125 17.09375 15.28125 15.828125 
Q 15.28125 11.28125 18.140625 8.828125 
Q 21 6.390625 26.3125 6.390625 
Q 33.546875 6.390625 37.984375 10.484375 
Q 42.4375 14.59375 44 22.796875 
L 50.203125 54.6875 
L 59.1875 54.6875 
L 51.03125 12.640625 
Q 50.828125 11.71875 50.75 11.03125 
Q 50.6875 10.359375 50.6875 9.8125 
Q 50.6875 8.296875 51.296875 7.59375 
Q 51.90625 6.890625 53.21875 6.890625 
Q 53.71875 6.890625 54.5625 7.125 
Q 55.421875 7.375 56.984375 8.015625 
L 55.609375 0.78125 
Q 53.46875 -0.296875 51.515625 -0.859375 
Q 49.5625 -1.421875 47.703125 -1.421875 
Q 44.484375 -1.421875 42.65625 0.625 
Q 40.828125 2.6875 40.828125 6.296875 
Q 38.09375 2.390625 34.296875 0.484375 
Q 30.515625 -1.421875 25.390625 -1.421875 
Q 20.84375 -1.421875 17.453125 0.671875 
Q 14.0625 2.78125 12.984375 6.203125 
L 7.71875 -20.796875 
z
" id="DejaVuSans-Oblique-956"/>
       <path d="M 59.625 54.6875 
L 50.296875 6.78125 
Q 47.609375 -7.125 40.015625 -13.953125 
Q 32.421875 -20.796875 19.578125 -20.796875 
Q 14.84375 -20.796875 10.78125 -20.09375 
Q 6.734375 -19.390625 3.21875 -17.921875 
L 4.890625 -9.1875 
Q 8.203125 -11.328125 11.90625 -12.34375 
Q 15.625 -13.375 19.828125 -13.375 
Q 28.375 -13.375 33.859375 -8.703125 
Q 39.359375 -4.046875 41.109375 4.6875 
L 41.890625 8.796875 
Q 38.140625 4.5 33.15625 2.25 
Q 28.171875 0 22.40625 0 
Q 14.109375 0 9.34375 5.484375 
Q 4.59375 10.984375 4.59375 20.609375 
Q 4.59375 28.171875 7.46875 35.421875 
Q 10.359375 42.671875 15.578125 48.296875 
Q 19.046875 52 23.65625 54 
Q 28.265625 56 33.296875 56 
Q 38.8125 56 42.90625 53.4375 
Q 47.015625 50.875 49.03125 46.1875 
L 50.59375 54.6875 
z
M 46.09375 34.625 
Q 46.09375 41.265625 42.96875 44.875 
Q 39.84375 48.484375 34.078125 48.484375 
Q 30.515625 48.484375 27.296875 47.0625 
Q 24.078125 45.65625 21.78125 43.109375 
Q 18.0625 38.921875 15.984375 33.234375 
Q 13.921875 27.546875 13.921875 21.484375 
Q 13.921875 14.75 17.0625 11.125 
Q 20.21875 7.515625 26.125 7.515625 
Q 34.671875 7.515625 40.375 15.25 
Q 46.09375 23 46.09375 34.625 
z
" id="DejaVuSans-Oblique-103"/>
       <path d="M 25.390625 72.90625 
L 33.6875 72.90625 
L 8.296875 -9.28125 
L 0 -9.28125 
z
" id="DejaVuSans-47"/>
       <path d="M 89.796875 33.015625 
L 83.40625 0 
L 74.421875 0 
L 80.71875 32.71875 
Q 81.109375 34.8125 81.296875 36.328125 
Q 81.5 37.84375 81.5 38.921875 
Q 81.5 43.3125 79.046875 45.75 
Q 76.609375 48.1875 72.21875 48.1875 
Q 65.671875 48.1875 60.546875 43.28125 
Q 55.421875 38.375 53.90625 30.515625 
L 47.90625 0 
L 38.921875 0 
L 45.3125 32.71875 
Q 45.703125 34.515625 45.890625 36.046875 
Q 46.09375 37.59375 46.09375 38.8125 
Q 46.09375 43.265625 43.65625 45.71875 
Q 41.21875 48.1875 36.921875 48.1875 
Q 30.28125 48.1875 25.140625 43.28125 
Q 20.015625 38.375 18.5 30.515625 
L 12.5 0 
L 3.515625 0 
L 14.203125 54.6875 
L 23.1875 54.6875 
L 21.484375 46.1875 
Q 25.140625 50.984375 30.046875 53.484375 
Q 34.96875 56 40.578125 56 
Q 46.53125 56 50.359375 52.875 
Q 54.203125 49.75 54.984375 44.1875 
Q 59.078125 49.953125 64.46875 52.96875 
Q 69.875 56 75.875 56 
Q 82.90625 56 86.734375 51.953125 
Q 90.578125 47.90625 90.578125 40.484375 
Q 90.578125 38.875 90.375 36.9375 
Q 90.1875 35.015625 89.796875 33.015625 
z
" id="DejaVuSans-Oblique-109"/>
       <path d="M 30.421875 75.984375 
L 30.421875 -13.1875 
L 9.71875 -13.1875 
L 9.71875 -6.203125 
L 21.390625 -6.203125 
L 21.390625 69 
L 9.71875 69 
L 9.71875 75.984375 
z
" id="DejaVuSans-93"/>
      </defs>
      <use transform="translate(0 0.765625)" xlink:href="#DejaVuSans-109"/>
      <use transform="translate(97.412109 0.765625)" xlink:href="#DejaVuSans-97"/>
      <use transform="translate(158.691406 0.765625)" xlink:href="#DejaVuSans-120"/>
      <use transform="translate(217.871094 0.765625)" xlink:href="#DejaVuSans-32"/>
      <use transform="translate(249.658203 0.765625)" xlink:href="#DejaVuSans-56"/>
      <use transform="translate(313.28125 0.765625)" xlink:href="#DejaVuSans-104"/>
      <use transform="translate(376.660156 0.765625)" xlink:href="#DejaVuSans-32"/>
      <use transform="translate(408.447266 0.765625)" xlink:href="#DejaVuSans-39"/>
      <use transform="translate(435.9375 0.765625)" xlink:href="#DejaVuSans-114"/>
      <use transform="translate(477.050781 0.765625)" xlink:href="#DejaVuSans-39"/>
      <use transform="translate(504.541016 0.765625)" xlink:href="#DejaVuSans-Oblique-79"/>
      <use transform="translate(583.251953 -15.640625)scale(0.7)" xlink:href="#DejaVuSans-51"/>
      <use transform="translate(630.522461 0.765625)" xlink:href="#DejaVuSans-32"/>
      <use transform="translate(662.30957 0.765625)" xlink:href="#DejaVuSans-91"/>
      <use transform="translate(701.323242 0.765625)" xlink:href="#DejaVuSans-Oblique-956"/>
      <use transform="translate(764.946289 0.765625)" xlink:href="#DejaVuSans-Oblique-103"/>
      <use transform="translate(828.422852 0.765625)" xlink:href="#DejaVuSans-47"/>
      <use transform="translate(862.114258 0.765625)" xlink:href="#DejaVuSans-Oblique-109"/>
      <use transform="translate(964.176263 39.046875)scale(0.7)" xlink:href="#DejaVuSans-51"/>
      <use transform="translate(1011.446771 0.765625)" xlink:href="#DejaVuSans-93"/>
     </g>
    </g>
   </g>
   <g id="line2d_33">
    <path clip-path="url(#p7bde3a9caf)" d="M 92.290909 351.699031 
L 93.405794 331.41988 
L 94.520679 326.418683 
L 95.635564 336.507305 
L 96.75045 305.982754 
L 97.865335 297.446228 
L 98.98022 296.842635 
L 100.095105 242.001916 
L 101.20999 347.630659 
L 102.324875 278.303713 
L 103.43976 168.191138 
L 104.554645 265.197126 
L 105.66953 289.771976 
L 106.784416 329.781557 
L 107.899301 346.509701 
L 109.014186 330.643832 
L 110.129071 349.182754 
L 111.243956 340.128862 
L 112.358841 341.767186 
L 113.473726 300.809102 
L 114.588611 319.865389 
L 115.703497 319.692934 
L 116.818382 368.583952 
L 117.933267 348.148024 
L 119.048152 299.774371 
L 120.163037 280.804311 
L 121.277922 357.891737 
L 122.392807 357.460599 
L 123.507692 305.637844 
L 124.622577 364.272575 
L 125.737463 339.846663 
L 126.852348 330.04024 
L 127.967233 303.827066 
L 129.082118 309.086946 
L 130.197003 286.150419 
L 131.311888 256.833054 
L 132.426773 157.58515 
L 133.541658 136.976766 
L 134.656543 270.801916 
L 135.771429 301.412695 
L 136.886314 355.64982 
L 138.001199 321.24503 
L 139.116084 329.609102 
L 140.230969 313.484551 
L 141.345854 320.296527 
L 142.460739 237.776766 
L 143.575624 221.393533 
L 144.690509 245.01988 
L 145.805395 232.258204 
L 146.92028 134.993533 
L 148.035165 123.352814 
L 149.15005 228.722874 
L 150.264935 270.543234 
L 151.37982 281.925269 
L 152.494705 323.314491 
L 153.60959 268.991138 
L 154.724476 265.283353 
L 155.839361 229.671377 
L 156.954246 214.409102 
L 158.069131 163.793533 
L 159.184016 166.035449 
L 160.298901 325.728862 
L 161.413786 315.98515 
L 162.528671 299.860599 
L 163.643556 320.199052 
L 164.758442 344.698922 
L 165.873327 329.005509 
L 166.988212 340.301317 
L 168.103097 347.544431 
L 169.217982 360.909701 
L 170.332867 345.47497 
L 171.447752 309.690539 
L 172.562637 320.55521 
L 173.677522 302.61988 
L 174.792408 266.662994 
L 175.907293 264.852216 
L 177.022178 255.022275 
L 178.137063 303.051018 
L 179.251948 251.659401 
L 180.366833 278.73485 
L 181.481718 285.374371 
L 182.596603 295.721677 
L 183.711489 245.795928 
L 184.826374 249.503713 
L 187.056144 310.552814 
L 188.171029 327.108503 
L 189.285914 347.975569 
L 190.400799 348.751617 
L 191.515684 274.940838 
L 192.630569 329.005509 
L 193.745455 349.872575 
L 194.86034 363.582754 
L 195.975225 338.662994 
L 197.09011 320.55521 
L 198.204995 314.346826 
L 199.31988 259.07497 
L 200.434765 66.96 
L 201.54965 312.536048 
L 202.664535 325.901317 
L 203.779421 147.324072 
L 204.894306 238.897725 
L 206.009191 246.227066 
L 207.124076 355.218683 
L 208.238961 313.053413 
L 209.353846 277.70012 
L 210.468731 271.060599 
L 211.583616 291.927665 
L 212.698501 244.33006 
L 213.813387 88.948024 
L 214.928272 221.910898 
L 216.043157 292.703713 
L 217.158042 315.98515 
L 218.272927 325.81509 
L 219.387812 311.07018 
L 220.502697 314.346826 
L 221.617582 329.695329 
L 222.732468 307.103713 
L 223.847353 362.578016 
L 224.962238 329.522874 
L 226.077123 333.748024 
L 227.192008 304.689341 
L 228.306893 263.64503 
L 229.421778 270.715689 
L 230.536663 306.586347 
L 231.651548 268.042635 
L 232.766434 259.702079 
L 233.881319 159.309701 
L 234.996204 283.30491 
L 236.111089 285.891737 
L 237.225974 303.309701 
L 238.340859 282.873772 
L 239.455744 184.401916 
L 240.570629 159.482156 
L 241.685514 202.768383 
L 242.8004 264.076168 
L 243.915285 260.454611 
L 245.03017 245.795928 
L 246.145055 263.30012 
L 247.25994 307.18994 
L 248.374825 291.151617 
L 249.48971 212.598323 
L 250.604595 243.295329 
L 251.719481 304.085749 
L 252.834366 308.224671 
L 253.949251 319.003114 
L 255.064136 298.136048 
L 256.179021 263.041437 
L 257.293906 330.04024 
L 258.408791 335.472575 
L 259.523676 280.200719 
L 260.638561 314.346826 
L 261.753447 304.689341 
L 262.868332 252.435449 
L 263.983217 222.773174 
L 265.098102 234.068982 
L 266.212987 313.915689 
L 267.327872 216.478563 
L 268.442757 146.979162 
L 269.557642 200.957605 
L 270.672527 239.130164 
L 271.787413 257.609102 
L 272.902298 319.175569 
L 274.017183 308.138443 
L 275.132068 317.192335 
L 276.246953 286.495329 
L 277.361838 324.435449 
L 278.476723 320.210299 
L 279.591608 333.834251 
L 280.706494 331.506108 
L 281.821379 299.946826 
L 282.936264 319.434251 
L 285.166034 287.961198 
L 286.280919 322.624671 
L 287.395804 254.073772 
L 288.510689 257.954012 
L 290.74046 297.446228 
L 291.855345 267.266587 
L 292.97023 329.954012 
L 295.2 262.782754 
L 296.314885 257.305431 
L 297.42977 265.024671 
L 298.544655 287.616287 
L 299.65954 256.315689 
L 300.774426 315.295329 
L 301.889311 314.001916 
L 303.004196 315.812695 
L 304.119081 293.565988 
L 305.233966 265.800719 
L 306.348851 280.890539 
L 307.463736 279.252216 
L 308.578621 316.157605 
L 309.693506 317.882156 
L 310.808392 276.837844 
L 311.923277 313.829461 
L 313.038162 271.491737 
L 314.153047 267.007904 
L 315.267932 257.436647 
L 316.382817 306.586347 
L 317.497702 289.168383 
L 318.612587 283.132455 
L 319.727473 251.228263 
L 320.842358 277.872575 
L 321.957243 275.285749 
L 323.072128 250.021078 
L 324.187013 282.701317 
L 325.301898 310.121677 
L 326.416783 304.689341 
L 327.531668 287.098922 
L 328.646553 248.210299 
L 329.761439 262.95521 
L 330.876324 290.979162 
L 331.991209 325.901317 
L 333.106094 308.914491 
L 334.220979 228.809102 
L 335.335864 279.769581 
L 336.450749 317.106108 
L 337.565634 344.871377 
L 338.680519 342.974371 
L 339.795405 354.528862 
L 340.91029 355.477365 
L 342.025175 294.82566 
L 343.14006 331.76479 
L 344.254945 307.362395 
L 345.36983 322.624671 
L 346.484715 311.501317 
L 347.5996 319.434251 
L 348.714486 317.01988 
L 349.829371 292.78994 
L 350.944256 213.115689 
L 352.059141 278.562395 
L 353.174026 331.506108 
L 354.288911 349.613892 
L 355.403796 342.801916 
L 356.518681 344.526467 
L 357.633566 334.868982 
L 358.748452 305.896527 
L 359.863337 326.591138 
L 360.978222 336.765988 
L 362.093107 339.525269 
L 363.207992 339.439042 
L 364.322877 287.267628 
L 365.437762 219.582754 
L 366.552647 183.280958 
L 367.667532 272.267784 
L 368.782418 313.570778 
L 369.897303 342.198323 
L 371.012188 349.010299 
L 372.127073 302.016287 
L 373.241958 324.952814 
L 374.356843 304.171976 
L 375.471728 285.805509 
L 376.586613 284.943234 
L 377.701499 281.752814 
L 378.816384 326.16 
L 379.931269 298.653413 
L 381.046154 284.857006 
L 382.161039 281.494132 
L 383.275924 292.272575 
L 384.390809 320.382754 
L 385.505694 345.216287 
L 386.620579 359.616287 
L 387.735465 334.179162 
L 388.85035 290.979162 
L 389.965235 318.140838 
L 391.08012 298.480958 
L 392.195005 285.374371 
L 393.30989 327.367186 
L 394.424775 314.088144 
L 395.53966 334.265389 
L 396.654545 328.65276 
L 397.769431 297.101317 
L 398.884316 307.793533 
L 399.999201 308.569581 
L 401.114086 280.545629 
L 402.228971 302.016287 
L 403.343856 273.992335 
L 404.458741 268.387545 
L 405.573626 270.112096 
L 406.688511 319.606707 
L 407.803397 338.921677 
L 408.918282 336.765988 
L 410.033167 329.867784 
L 411.148052 309.173174 
L 412.262937 284.943234 
L 413.377822 216.133653 
L 414.492707 284.339641 
L 415.607592 260.368383 
L 416.722478 231.137246 
L 417.837363 276.061796 
L 418.952248 300.033054 
L 420.067133 304.085749 
L 421.182018 320.727665 
L 422.296903 274.595928 
L 423.411788 299.515689 
L 424.526673 311.932455 
L 425.641558 306.068982 
L 426.756444 305.551617 
L 427.871329 363.75521 
L 428.986214 343.060599 
L 430.101099 356.598323 
L 431.215984 320.986347 
L 432.330869 309.862994 
L 433.445754 281.235449 
L 434.560639 288.347347 
L 435.675524 312.708503 
L 436.79041 357.891737 
L 437.905295 338.921677 
L 439.02018 323.745629 
L 440.135065 369.36 
L 441.24995 369.187545 
L 442.364835 356.770778 
L 443.47972 337.973174 
L 444.594605 341.680958 
L 445.709491 336.593533 
L 446.824376 292.703713 
L 447.939261 278.821078 
L 449.054146 290.720479 
L 450.169031 313.312096 
L 451.283916 286.409102 
L 452.398801 255.453413 
L 453.513686 254.763593 
L 454.628571 233.206707 
L 455.743457 300.033054 
L 456.858342 256.143234 
L 457.973227 243.381557 
L 459.088112 245.36479 
L 460.202997 334.696527 
L 461.317882 347.889341 
L 462.432767 335.386347 
L 463.547652 349.096527 
L 464.662537 364.876168 
L 465.777423 351.330945 
L 466.892308 328.143234 
L 468.007193 331.506108 
L 469.122078 342.543234 
L 470.236963 359.702515 
L 471.351848 351.338443 
L 472.466733 349.872575 
L 473.581618 343.836647 
L 474.696503 306.50012 
L 475.811389 246.313293 
L 476.926274 299.257006 
L 478.041159 293.565988 
L 479.156044 294.169581 
L 480.270929 316.588743 
L 481.385814 330.212695 
L 482.500699 353.321677 
L 483.615584 354.442635 
L 484.73047 352.890539 
L 485.845355 350.476168 
L 486.96024 333.230659 
L 488.075125 340.90491 
L 489.19001 317.451018 
L 490.304895 263.817485 
L 491.41978 267.525269 
L 492.534665 220.10012 
L 493.64955 194.14188 
L 494.764436 269.008383 
L 498.109091 293.997126 
L 498.109091 293.997126 
" style="fill:none;stroke:#1f77b4;stroke-linecap:square;stroke-width:1.5;"/>
   </g>
   <g id="line2d_34">
    <path clip-path="url(#p7bde3a9caf)" d="M 92.290909 322.877747 
L 93.405794 314.072724 
L 94.520679 329.810225 
L 95.635564 325.888721 
L 96.75045 319.025586 
L 97.865335 283.980118 
L 98.98022 283.754241 
L 100.095105 279.987713 
L 101.20999 238.855775 
L 102.324875 299.631874 
L 103.43976 249.292713 
L 104.554645 232.389429 
L 105.66953 258.632135 
L 106.784416 244.387228 
L 107.899301 322.310187 
L 109.014186 324.840725 
L 110.129071 318.314591 
L 111.243956 319.784072 
L 113.473726 303.421453 
L 114.588611 290.091819 
L 115.703497 298.660719 
L 117.933267 323.794161 
L 119.048152 311.578956 
L 120.163037 272.80275 
L 121.277922 300.909453 
L 122.392807 310.563199 
L 123.507692 318.028517 
L 124.622577 276.492808 
L 125.737463 320.844919 
L 126.852348 313.203009 
L 127.967233 300.439617 
L 129.082118 300.067946 
L 130.197003 280.698243 
L 131.311888 273.925442 
L 133.541658 171.509382 
L 134.656543 211.536432 
L 135.771429 281.023139 
L 136.886314 305.997669 
L 138.001199 319.700658 
L 139.116084 300.914285 
L 140.230969 309.748155 
L 141.345854 304.23866 
L 142.460739 303.183701 
L 143.575624 264.741482 
L 144.690509 251.815631 
L 145.805395 231.644867 
L 146.92028 244.698968 
L 148.035165 191.891009 
L 149.15005 177.974234 
L 150.264935 251.4438 
L 151.37982 271.397291 
L 152.494705 268.638063 
L 153.60959 276.33224 
L 154.724476 275.098266 
L 155.839361 269.260381 
L 156.954246 239.869293 
L 158.069131 219.84518 
L 159.184016 245.091784 
L 160.298901 163.548863 
L 161.413786 271.634208 
L 162.528671 288.417181 
L 163.643556 279.942924 
L 164.758442 287.198928 
L 165.873327 323.296609 
L 166.988212 294.572494 
L 168.103097 312.671807 
L 170.332867 327.755758 
L 171.447752 310.000724 
L 172.562637 275.36606 
L 173.677522 306.644674 
L 174.792408 289.062084 
L 175.907293 284.12114 
L 178.137063 265.276773 
L 179.251948 272.275571 
L 180.366833 263.744401 
L 181.481718 281.393453 
L 182.596603 310.2704 
L 183.711489 256.460732 
L 184.826374 231.025071 
L 187.056144 300.438134 
L 188.171029 306.351181 
L 189.285914 300.871856 
L 190.400799 318.36526 
L 191.515684 316.304346 
L 192.630569 283.122387 
L 193.745455 320.403972 
L 194.86034 323.840541 
L 195.975225 326.806721 
L 197.09011 305.302608 
L 198.204995 288.646788 
L 199.31988 297.946796 
L 200.434765 226.349283 
L 201.54965 228.520948 
L 203.779421 288.623971 
L 204.894306 249.853284 
L 206.009191 291.623116 
L 207.124076 249.754855 
L 208.238961 314.521779 
L 209.353846 303.418718 
L 210.468731 270.28662 
L 211.583616 226.924243 
L 212.698501 240.066059 
L 213.813387 235.638283 
L 214.928272 217.819097 
L 216.043157 262.430018 
L 217.158042 296.655095 
L 218.272927 304.652727 
L 219.387812 306.151035 
L 220.502697 310.333681 
L 221.617582 305.546802 
L 222.732468 320.983642 
L 223.847353 291.649063 
L 224.962238 330.238866 
L 226.077123 317.000762 
L 227.192008 316.129865 
L 228.306893 276.622225 
L 229.421778 254.725956 
L 230.536663 260.077269 
L 231.651548 251.285947 
L 232.766434 247.06022 
L 233.881319 235.068482 
L 234.996204 237.856813 
L 236.111089 284.572417 
L 237.225974 273.867489 
L 238.340859 259.055277 
L 239.455744 289.324652 
L 240.570629 239.263304 
L 241.685514 229.184011 
L 242.8004 245.407411 
L 243.915285 264.318805 
L 245.03017 262.74869 
L 246.145055 258.190182 
L 247.25994 245.320881 
L 248.374825 267.606092 
L 249.48971 255.456226 
L 250.604595 239.748233 
L 251.719481 268.667006 
L 252.834366 235.438088 
L 253.949251 259.575829 
L 255.064136 272.350378 
L 256.179021 246.565997 
L 257.293906 241.117058 
L 258.408791 248.04676 
L 259.523676 273.350869 
L 260.638561 290.741559 
L 261.753447 295.439713 
L 263.983217 254.604727 
L 265.098102 246.412647 
L 266.212987 241.490043 
L 267.327872 254.165006 
L 268.442757 243.74027 
L 269.557642 240.545955 
L 270.672527 257.36493 
L 271.787413 262.240343 
L 272.902298 271.626028 
L 274.017183 287.183838 
L 275.132068 321.241654 
L 276.246953 279.322916 
L 277.361838 306.968552 
L 278.476723 319.452673 
L 279.591608 312.507705 
L 280.706494 290.930618 
L 281.821379 300.565019 
L 282.936264 303.153964 
L 284.051149 301.063317 
L 285.166034 284.950041 
L 286.280919 281.340873 
L 287.395804 278.274489 
L 288.510689 254.333862 
L 289.625574 245.229294 
L 290.74046 258.834825 
L 291.855345 270.128383 
L 292.97023 269.589313 
L 294.085115 280.058846 
L 295.2 264.911316 
L 296.314885 258.510003 
L 297.42977 257.191091 
L 298.544655 269.924034 
L 299.65954 264.750958 
L 300.774426 260.719271 
L 301.889311 276.068156 
L 303.004196 280.919777 
L 304.119081 296.445617 
L 305.233966 271.745157 
L 306.348851 263.282806 
L 307.463736 262.799395 
L 308.578621 268.589016 
L 309.693506 275.512358 
L 310.808392 266.846662 
L 311.923277 289.170948 
L 313.038162 268.316918 
L 314.153047 265.292936 
L 315.267932 265.602239 
L 316.382817 277.272266 
L 317.497702 278.503502 
L 318.612587 264.658529 
L 319.727473 267.171589 
L 320.842358 258.442701 
L 321.957243 266.230081 
L 323.072128 275.607718 
L 324.187013 314.424819 
L 325.301898 322.905589 
L 326.416783 304.421211 
L 327.531668 297.600805 
L 328.646553 256.13516 
L 329.761439 257.626514 
L 330.876324 255.609754 
L 331.991209 276.929045 
L 333.106094 271.724062 
L 334.220979 263.513133 
L 335.335864 259.51395 
L 336.450749 296.727975 
L 337.565634 303.726 
L 338.680519 327.798389 
L 339.795405 313.179343 
L 340.91029 314.508027 
L 342.025175 320.671433 
L 343.14006 300.871476 
L 344.254945 301.18642 
L 345.36983 305.791972 
L 346.484715 293.496089 
L 347.5996 306.679967 
L 348.714486 309.562081 
L 349.829371 275.134223 
L 350.944256 264.877642 
L 352.059141 270.412431 
L 353.174026 305.8783 
L 354.288911 327.667896 
L 355.403796 322.934989 
L 356.518681 333.895578 
L 357.633566 322.672018 
L 358.748452 274.88955 
L 359.863337 295.540459 
L 360.978222 285.553845 
L 362.093107 271.053944 
L 363.207992 262.487666 
L 364.322877 267.615844 
L 365.437762 271.607121 
L 366.552647 266.228035 
L 367.667532 255.303692 
L 368.782418 298.723647 
L 369.897303 326.277212 
L 371.012188 329.635299 
L 372.127073 314.959723 
L 373.241958 318.246088 
L 374.356843 316.318511 
L 375.471728 284.747153 
L 376.586613 266.049274 
L 377.701499 313.475744 
L 378.816384 305.346924 
L 379.931269 307.419864 
L 381.046154 273.348491 
L 382.161039 310.705009 
L 383.275924 312.321855 
L 384.390809 310.869538 
L 385.505694 331.868737 
L 386.620579 312.748563 
L 387.735465 306.071126 
L 388.85035 311.062542 
L 389.965235 280.068148 
L 391.08012 280.504924 
L 392.195005 269.246876 
L 393.30989 277.687283 
L 394.424775 270.984303 
L 395.53966 293.937444 
L 396.654545 320.639589 
L 397.769431 315.614747 
L 398.884316 288.939211 
L 399.999201 284.811518 
L 401.114086 272.771225 
L 403.343856 286.81735 
L 404.458741 288.644311 
L 405.573626 253.522107 
L 406.688511 247.538034 
L 407.803397 299.805345 
L 408.918282 315.89057 
L 410.033167 299.991603 
L 411.148052 319.987019 
L 412.262937 292.810511 
L 413.377822 250.978069 
L 414.492707 253.787358 
L 415.607592 265.747674 
L 416.722478 268.140033 
L 417.837363 252.93772 
L 418.952248 248.421747 
L 420.067133 279.803452 
L 421.182018 304.392712 
L 423.411788 293.068049 
L 424.526673 313.339245 
L 425.641558 310.78192 
L 426.756444 305.074888 
L 427.871329 302.679389 
L 428.986214 317.147161 
L 430.101099 302.344663 
L 431.215984 311.668887 
L 432.330869 307.199646 
L 434.560639 280.853829 
L 435.675524 271.233021 
L 436.79041 305.527326 
L 437.905295 314.510663 
L 439.02018 297.724608 
L 440.135065 314.883817 
L 441.24995 315.794201 
L 442.364835 313.805633 
L 443.47972 311.039087 
L 444.594605 316.907139 
L 445.709491 298.502017 
L 446.824376 285.235077 
L 447.939261 288.303091 
L 449.054146 286.502408 
L 450.169031 282.85245 
L 451.283916 296.538311 
L 452.398801 293.640836 
L 453.513686 268.608182 
L 454.628571 259.199286 
L 455.743457 267.587106 
L 456.858342 279.753105 
L 457.973227 277.34406 
L 460.202997 269.888675 
L 461.317882 305.862268 
L 462.432767 313.62052 
L 463.547652 315.445324 
L 464.662537 309.882299 
L 465.777423 321.058277 
L 466.892308 319.292616 
L 468.007193 292.726004 
L 469.122078 305.366842 
L 470.236963 308.7367 
L 471.351848 316.442933 
L 472.466733 317.234338 
L 473.581618 315.989753 
L 474.696503 300.729689 
L 475.811389 270.892144 
L 476.926274 266.324446 
L 478.041159 289.140215 
L 479.156044 279.753506 
L 480.270929 287.923881 
L 481.385814 291.474174 
L 482.500699 306.505266 
L 483.615584 307.805042 
L 484.73047 316.196201 
L 485.845355 315.281978 
L 486.96024 324.093411 
L 488.075125 311.812522 
L 489.19001 307.76189 
L 490.304895 280.160857 
L 491.41978 270.396474 
L 492.534665 271.784877 
L 493.64955 268.463432 
L 494.764436 246.429859 
L 495.879321 295.151494 
L 496.994206 264.715608 
L 498.109091 270.110007 
L 498.109091 270.110007 
" style="fill:none;stroke:#ff7f0e;stroke-linecap:square;stroke-width:1.5;"/>
   </g>
   <g id="patch_3">
    <path d="M 72 384.48 
L 72 51.84 
" style="fill:none;stroke:#000000;stroke-linecap:square;stroke-linejoin:miter;stroke-width:0.8;"/>
   </g>
   <g id="patch_4">
    <path d="M 518.4 384.48 
L 518.4 51.84 
" style="fill:none;stroke:#000000;stroke-linecap:square;stroke-linejoin:miter;stroke-width:0.8;"/>
   </g>
   <g id="patch_5">
    <path d="M 72 384.48 
L 518.4 384.48 
" style="fill:none;stroke:#000000;stroke-linecap:square;stroke-linejoin:miter;stroke-width:0.8;"/>
   </g>
   <g id="patch_6">
    <path d="M 72 51.84 
L 518.4 51.84 
" style="fill:none;stroke:#000000;stroke-linecap:square;stroke-linejoin:miter;stroke-width:0.8;"/>
   </g>
   <g id="text_19">
    <!-- $O_3$ BETN073 2010: Island DNN (MSE: 108.55, sMAPE: 46.6%, MASE: 1.02) -->
    <g transform="translate(74.82 45.84)scale(0.12 -0.12)">
     <defs>
      <path d="M 19.671875 34.8125 
L 19.671875 8.109375 
L 35.5 8.109375 
Q 43.453125 8.109375 47.28125 11.40625 
Q 51.125 14.703125 51.125 21.484375 
Q 51.125 28.328125 47.28125 31.5625 
Q 43.453125 34.8125 35.5 34.8125 
z
M 19.671875 64.796875 
L 19.671875 42.828125 
L 34.28125 42.828125 
Q 41.5 42.828125 45.03125 45.53125 
Q 48.578125 48.25 48.578125 53.8125 
Q 48.578125 59.328125 45.03125 62.0625 
Q 41.5 64.796875 34.28125 64.796875 
z
M 9.8125 72.90625 
L 35.015625 72.90625 
Q 46.296875 72.90625 52.390625 68.21875 
Q 58.5 63.53125 58.5 54.890625 
Q 58.5 48.1875 55.375 44.234375 
Q 52.25 40.28125 46.1875 39.3125 
Q 53.46875 37.75 57.5 32.78125 
Q 61.53125 27.828125 61.53125 20.40625 
Q 61.53125 10.640625 54.890625 5.3125 
Q 48.25 0 35.984375 0 
L 9.8125 0 
z
" id="DejaVuSans-66"/>
      <path d="M 9.8125 72.90625 
L 55.90625 72.90625 
L 55.90625 64.59375 
L 19.671875 64.59375 
L 19.671875 43.015625 
L 54.390625 43.015625 
L 54.390625 34.71875 
L 19.671875 34.71875 
L 19.671875 8.296875 
L 56.78125 8.296875 
L 56.78125 0 
L 9.8125 0 
z
" id="DejaVuSans-69"/>
      <path d="M -0.296875 72.90625 
L 61.375 72.90625 
L 61.375 64.59375 
L 35.5 64.59375 
L 35.5 0 
L 25.59375 0 
L 25.59375 64.59375 
L -0.296875 64.59375 
z
" id="DejaVuSans-84"/>
      <path d="M 9.8125 72.90625 
L 23.09375 72.90625 
L 55.421875 11.921875 
L 55.421875 72.90625 
L 64.984375 72.90625 
L 64.984375 0 
L 51.703125 0 
L 19.390625 60.984375 
L 19.390625 0 
L 9.8125 0 
z
" id="DejaVuSans-78"/>
      <path d="M 11.71875 12.40625 
L 22.015625 12.40625 
L 22.015625 0 
L 11.71875 0 
z
M 11.71875 51.703125 
L 22.015625 51.703125 
L 22.015625 39.3125 
L 11.71875 39.3125 
z
" id="DejaVuSans-58"/>
      <path d="M 9.8125 72.90625 
L 19.671875 72.90625 
L 19.671875 0 
L 9.8125 0 
z
" id="DejaVuSans-73"/>
      <path d="M 44.28125 53.078125 
L 44.28125 44.578125 
Q 40.484375 46.53125 36.375 47.5 
Q 32.28125 48.484375 27.875 48.484375 
Q 21.1875 48.484375 17.84375 46.4375 
Q 14.5 44.390625 14.5 40.28125 
Q 14.5 37.15625 16.890625 35.375 
Q 19.28125 33.59375 26.515625 31.984375 
L 29.59375 31.296875 
Q 39.15625 29.25 43.1875 25.515625 
Q 47.21875 21.78125 47.21875 15.09375 
Q 47.21875 7.46875 41.1875 3.015625 
Q 35.15625 -1.421875 24.609375 -1.421875 
Q 20.21875 -1.421875 15.453125 -0.5625 
Q 10.6875 0.296875 5.421875 2 
L 5.421875 11.28125 
Q 10.40625 8.6875 15.234375 7.390625 
Q 20.0625 6.109375 24.8125 6.109375 
Q 31.15625 6.109375 34.5625 8.28125 
Q 37.984375 10.453125 37.984375 14.40625 
Q 37.984375 18.0625 35.515625 20.015625 
Q 33.0625 21.96875 24.703125 23.78125 
L 21.578125 24.515625 
Q 13.234375 26.265625 9.515625 29.90625 
Q 5.8125 33.546875 5.8125 39.890625 
Q 5.8125 47.609375 11.28125 51.796875 
Q 16.75 56 26.8125 56 
Q 31.78125 56 36.171875 55.265625 
Q 40.578125 54.546875 44.28125 53.078125 
z
" id="DejaVuSans-115"/>
      <path d="M 9.421875 75.984375 
L 18.40625 75.984375 
L 18.40625 0 
L 9.421875 0 
z
" id="DejaVuSans-108"/>
      <path d="M 54.890625 33.015625 
L 54.890625 0 
L 45.90625 0 
L 45.90625 32.71875 
Q 45.90625 40.484375 42.875 44.328125 
Q 39.84375 48.1875 33.796875 48.1875 
Q 26.515625 48.1875 22.3125 43.546875 
Q 18.109375 38.921875 18.109375 30.90625 
L 18.109375 0 
L 9.078125 0 
L 9.078125 54.6875 
L 18.109375 54.6875 
L 18.109375 46.1875 
Q 21.34375 51.125 25.703125 53.5625 
Q 30.078125 56 35.796875 56 
Q 45.21875 56 50.046875 50.171875 
Q 54.890625 44.34375 54.890625 33.015625 
z
" id="DejaVuSans-110"/>
      <path d="M 45.40625 46.390625 
L 45.40625 75.984375 
L 54.390625 75.984375 
L 54.390625 0 
L 45.40625 0 
L 45.40625 8.203125 
Q 42.578125 3.328125 38.25 0.953125 
Q 33.9375 -1.421875 27.875 -1.421875 
Q 17.96875 -1.421875 11.734375 6.484375 
Q 5.515625 14.40625 5.515625 27.296875 
Q 5.515625 40.1875 11.734375 48.09375 
Q 17.96875 56 27.875 56 
Q 33.9375 56 38.25 53.625 
Q 42.578125 51.265625 45.40625 46.390625 
z
M 14.796875 27.296875 
Q 14.796875 17.390625 18.875 11.75 
Q 22.953125 6.109375 30.078125 6.109375 
Q 37.203125 6.109375 41.296875 11.75 
Q 45.40625 17.390625 45.40625 27.296875 
Q 45.40625 37.203125 41.296875 42.84375 
Q 37.203125 48.484375 30.078125 48.484375 
Q 22.953125 48.484375 18.875 42.84375 
Q 14.796875 37.203125 14.796875 27.296875 
z
" id="DejaVuSans-100"/>
      <path d="M 31 75.875 
Q 24.46875 64.65625 21.28125 53.65625 
Q 18.109375 42.671875 18.109375 31.390625 
Q 18.109375 20.125 21.3125 9.0625 
Q 24.515625 -2 31 -13.1875 
L 23.1875 -13.1875 
Q 15.875 -1.703125 12.234375 9.375 
Q 8.59375 20.453125 8.59375 31.390625 
Q 8.59375 42.28125 12.203125 53.3125 
Q 15.828125 64.359375 23.1875 75.875 
z
" id="DejaVuSans-40"/>
      <path d="M 9.8125 72.90625 
L 24.515625 72.90625 
L 43.109375 23.296875 
L 61.8125 72.90625 
L 76.515625 72.90625 
L 76.515625 0 
L 66.890625 0 
L 66.890625 64.015625 
L 48.09375 14.015625 
L 38.1875 14.015625 
L 19.390625 64.015625 
L 19.390625 0 
L 9.8125 0 
z
" id="DejaVuSans-77"/>
      <path d="M 53.515625 70.515625 
L 53.515625 60.890625 
Q 47.90625 63.578125 42.921875 64.890625 
Q 37.9375 66.21875 33.296875 66.21875 
Q 25.25 66.21875 20.875 63.09375 
Q 16.5 59.96875 16.5 54.203125 
Q 16.5 49.359375 19.40625 46.890625 
Q 22.3125 44.4375 30.421875 42.921875 
L 36.375 41.703125 
Q 47.40625 39.59375 52.65625 34.296875 
Q 57.90625 29 57.90625 20.125 
Q 57.90625 9.515625 50.796875 4.046875 
Q 43.703125 -1.421875 29.984375 -1.421875 
Q 24.8125 -1.421875 18.96875 -0.25 
Q 13.140625 0.921875 6.890625 3.21875 
L 6.890625 13.375 
Q 12.890625 10.015625 18.65625 8.296875 
Q 24.421875 6.59375 29.984375 6.59375 
Q 38.421875 6.59375 43.015625 9.90625 
Q 47.609375 13.234375 47.609375 19.390625 
Q 47.609375 24.75 44.3125 27.78125 
Q 41.015625 30.8125 33.5 32.328125 
L 27.484375 33.5 
Q 16.453125 35.6875 11.515625 40.375 
Q 6.59375 45.0625 6.59375 53.421875 
Q 6.59375 63.09375 13.40625 68.65625 
Q 20.21875 74.21875 32.171875 74.21875 
Q 37.3125 74.21875 42.625 73.28125 
Q 47.953125 72.359375 53.515625 70.515625 
z
" id="DejaVuSans-83"/>
      <path d="M 10.6875 12.40625 
L 21 12.40625 
L 21 0 
L 10.6875 0 
z
" id="DejaVuSans-46"/>
      <path d="M 11.71875 12.40625 
L 22.015625 12.40625 
L 22.015625 4 
L 14.015625 -11.625 
L 7.71875 -11.625 
L 11.71875 4 
z
" id="DejaVuSans-44"/>
      <path d="M 34.1875 63.1875 
L 20.796875 26.90625 
L 47.609375 26.90625 
z
M 28.609375 72.90625 
L 39.796875 72.90625 
L 67.578125 0 
L 57.328125 0 
L 50.6875 18.703125 
L 17.828125 18.703125 
L 11.1875 0 
L 0.78125 0 
z
" id="DejaVuSans-65"/>
      <path d="M 19.671875 64.796875 
L 19.671875 37.40625 
L 32.078125 37.40625 
Q 38.96875 37.40625 42.71875 40.96875 
Q 46.484375 44.53125 46.484375 51.125 
Q 46.484375 57.671875 42.71875 61.234375 
Q 38.96875 64.796875 32.078125 64.796875 
z
M 9.8125 72.90625 
L 32.078125 72.90625 
Q 44.34375 72.90625 50.609375 67.359375 
Q 56.890625 61.8125 56.890625 51.125 
Q 56.890625 40.328125 50.609375 34.8125 
Q 44.34375 29.296875 32.078125 29.296875 
L 19.671875 29.296875 
L 19.671875 0 
L 9.8125 0 
z
" id="DejaVuSans-80"/>
      <path d="M 72.703125 32.078125 
Q 68.453125 32.078125 66.03125 28.46875 
Q 63.625 24.859375 63.625 18.40625 
Q 63.625 12.0625 66.03125 8.421875 
Q 68.453125 4.78125 72.703125 4.78125 
Q 76.859375 4.78125 79.265625 8.421875 
Q 81.6875 12.0625 81.6875 18.40625 
Q 81.6875 24.8125 79.265625 28.4375 
Q 76.859375 32.078125 72.703125 32.078125 
z
M 72.703125 38.28125 
Q 80.421875 38.28125 84.953125 32.90625 
Q 89.5 27.546875 89.5 18.40625 
Q 89.5 9.28125 84.9375 3.921875 
Q 80.375 -1.421875 72.703125 -1.421875 
Q 64.890625 -1.421875 60.34375 3.921875 
Q 55.8125 9.28125 55.8125 18.40625 
Q 55.8125 27.59375 60.375 32.9375 
Q 64.9375 38.28125 72.703125 38.28125 
z
M 22.3125 68.015625 
Q 18.109375 68.015625 15.6875 64.375 
Q 13.28125 60.75 13.28125 54.390625 
Q 13.28125 47.953125 15.671875 44.328125 
Q 18.0625 40.71875 22.3125 40.71875 
Q 26.5625 40.71875 28.96875 44.328125 
Q 31.390625 47.953125 31.390625 54.390625 
Q 31.390625 60.6875 28.953125 64.34375 
Q 26.515625 68.015625 22.3125 68.015625 
z
M 66.40625 74.21875 
L 74.21875 74.21875 
L 28.609375 -1.421875 
L 20.796875 -1.421875 
z
M 22.3125 74.21875 
Q 30.03125 74.21875 34.609375 68.875 
Q 39.203125 63.53125 39.203125 54.390625 
Q 39.203125 45.171875 34.640625 39.84375 
Q 30.078125 34.515625 22.3125 34.515625 
Q 14.546875 34.515625 10.03125 39.859375 
Q 5.515625 45.21875 5.515625 54.390625 
Q 5.515625 63.484375 10.046875 68.84375 
Q 14.59375 74.21875 22.3125 74.21875 
z
" id="DejaVuSans-37"/>
      <path d="M 8.015625 75.875 
L 15.828125 75.875 
Q 23.140625 64.359375 26.78125 53.3125 
Q 30.421875 42.28125 30.421875 31.390625 
Q 30.421875 20.453125 26.78125 9.375 
Q 23.140625 -1.703125 15.828125 -13.1875 
L 8.015625 -13.1875 
Q 14.5 -2 17.703125 9.0625 
Q 20.90625 20.125 20.90625 31.390625 
Q 20.90625 42.671875 17.703125 53.65625 
Q 14.5 64.65625 8.015625 75.875 
z
" id="DejaVuSans-41"/>
     </defs>
     <use transform="translate(0 0.015625)" xlink:href="#DejaVuSans-Oblique-79"/>
     <use transform="translate(78.710938 -16.390625)scale(0.7)" xlink:href="#DejaVuSans-51"/>
     <use transform="translate(125.981445 0.015625)" xlink:href="#DejaVuSans-32"/>
     <use transform="translate(157.768555 0.015625)" xlink:href="#DejaVuSans-66"/>
     <use transform="translate(226.37207 0.015625)" xlink:href="#DejaVuSans-69"/>
     <use transform="translate(289.555664 0.015625)" xlink:href="#DejaVuSans-84"/>
     <use transform="translate(350.639648 0.015625)" xlink:href="#DejaVuSans-78"/>
     <use transform="translate(425.444336 0.015625)" xlink:href="#DejaVuSans-48"/>
     <use transform="translate(489.067383 0.015625)" xlink:href="#DejaVuSans-55"/>
     <use transform="translate(552.69043 0.015625)" xlink:href="#DejaVuSans-51"/>
     <use transform="translate(616.313477 0.015625)" xlink:href="#DejaVuSans-32"/>
     <use transform="translate(648.100586 0.015625)" xlink:href="#DejaVuSans-50"/>
     <use transform="translate(711.723633 0.015625)" xlink:href="#DejaVuSans-48"/>
     <use transform="translate(775.34668 0.015625)" xlink:href="#DejaVuSans-49"/>
     <use transform="translate(838.969727 0.015625)" xlink:href="#DejaVuSans-48"/>
     <use transform="translate(902.592773 0.015625)" xlink:href="#DejaVuSans-58"/>
     <use transform="translate(936.28418 0.015625)" xlink:href="#DejaVuSans-32"/>
     <use transform="translate(968.071289 0.015625)" xlink:href="#DejaVuSans-73"/>
     <use transform="translate(997.563477 0.015625)" xlink:href="#DejaVuSans-115"/>
     <use transform="translate(1049.663086 0.015625)" xlink:href="#DejaVuSans-108"/>
     <use transform="translate(1077.446289 0.015625)" xlink:href="#DejaVuSans-97"/>
     <use transform="translate(1138.725586 0.015625)" xlink:href="#DejaVuSans-110"/>
     <use transform="translate(1202.104492 0.015625)" xlink:href="#DejaVuSans-100"/>
     <use transform="translate(1265.581055 0.015625)" xlink:href="#DejaVuSans-32"/>
     <use transform="translate(1297.368164 0.015625)" xlink:href="#DejaVuSans-68"/>
     <use transform="translate(1374.370117 0.015625)" xlink:href="#DejaVuSans-78"/>
     <use transform="translate(1449.174805 0.015625)" xlink:href="#DejaVuSans-78"/>
     <use transform="translate(1523.979492 0.015625)" xlink:href="#DejaVuSans-32"/>
     <use transform="translate(1555.766602 0.015625)" xlink:href="#DejaVuSans-40"/>
     <use transform="translate(1594.780273 0.015625)" xlink:href="#DejaVuSans-77"/>
     <use transform="translate(1681.05957 0.015625)" xlink:href="#DejaVuSans-83"/>
     <use transform="translate(1744.536133 0.015625)" xlink:href="#DejaVuSans-69"/>
     <use transform="translate(1807.719727 0.015625)" xlink:href="#DejaVuSans-58"/>
     <use transform="translate(1841.411133 0.015625)" xlink:href="#DejaVuSans-32"/>
     <use transform="translate(1873.198242 0.015625)" xlink:href="#DejaVuSans-49"/>
     <use transform="translate(1936.821289 0.015625)" xlink:href="#DejaVuSans-48"/>
     <use transform="translate(2000.444336 0.015625)" xlink:href="#DejaVuSans-56"/>
     <use transform="translate(2064.067383 0.015625)" xlink:href="#DejaVuSans-46"/>
     <use transform="translate(2095.854492 0.015625)" xlink:href="#DejaVuSans-53"/>
     <use transform="translate(2159.477539 0.015625)" xlink:href="#DejaVuSans-53"/>
     <use transform="translate(2223.100586 0.015625)" xlink:href="#DejaVuSans-44"/>
     <use transform="translate(2254.887695 0.015625)" xlink:href="#DejaVuSans-32"/>
     <use transform="translate(2286.674805 0.015625)" xlink:href="#DejaVuSans-115"/>
     <use transform="translate(2338.774414 0.015625)" xlink:href="#DejaVuSans-77"/>
     <use transform="translate(2425.053711 0.015625)" xlink:href="#DejaVuSans-65"/>
     <use transform="translate(2493.461914 0.015625)" xlink:href="#DejaVuSans-80"/>
     <use transform="translate(2553.764648 0.015625)" xlink:href="#DejaVuSans-69"/>
     <use transform="translate(2616.948242 0.015625)" xlink:href="#DejaVuSans-58"/>
     <use transform="translate(2650.639648 0.015625)" xlink:href="#DejaVuSans-32"/>
     <use transform="translate(2682.426758 0.015625)" xlink:href="#DejaVuSans-52"/>
     <use transform="translate(2746.049805 0.015625)" xlink:href="#DejaVuSans-54"/>
     <use transform="translate(2809.672852 0.015625)" xlink:href="#DejaVuSans-46"/>
     <use transform="translate(2841.459961 0.015625)" xlink:href="#DejaVuSans-54"/>
     <use transform="translate(2905.083008 0.015625)" xlink:href="#DejaVuSans-37"/>
     <use transform="translate(3000.102539 0.015625)" xlink:href="#DejaVuSans-44"/>
     <use transform="translate(3031.889648 0.015625)" xlink:href="#DejaVuSans-32"/>
     <use transform="translate(3063.676758 0.015625)" xlink:href="#DejaVuSans-77"/>
     <use transform="translate(3149.956055 0.015625)" xlink:href="#DejaVuSans-65"/>
     <use transform="translate(3218.364258 0.015625)" xlink:href="#DejaVuSans-83"/>
     <use transform="translate(3281.84082 0.015625)" xlink:href="#DejaVuSans-69"/>
     <use transform="translate(3345.024414 0.015625)" xlink:href="#DejaVuSans-58"/>
     <use transform="translate(3378.71582 0.015625)" xlink:href="#DejaVuSans-32"/>
     <use transform="translate(3410.50293 0.015625)" xlink:href="#DejaVuSans-49"/>
     <use transform="translate(3474.125977 0.015625)" xlink:href="#DejaVuSans-46"/>
     <use transform="translate(3505.913086 0.015625)" xlink:href="#DejaVuSans-48"/>
     <use transform="translate(3569.536133 0.015625)" xlink:href="#DejaVuSans-50"/>
     <use transform="translate(3633.15918 0.015625)" xlink:href="#DejaVuSans-41"/>
    </g>
   </g>
   <g id="legend_1">
    <g id="patch_7">
     <path d="M 431.965625 89.19625 
L 511.4 89.19625 
Q 513.4 89.19625 513.4 87.19625 
L 513.4 58.84 
Q 513.4 56.84 511.4 56.84 
L 431.965625 56.84 
Q 429.965625 56.84 429.965625 58.84 
L 429.965625 87.19625 
Q 429.965625 89.19625 431.965625 89.19625 
z
" style="fill:#ffffff;opacity:0.8;stroke:#cccccc;stroke-linejoin:miter;"/>
    </g>
    <g id="line2d_35">
     <path d="M 433.965625 64.938437 
L 453.965625 64.938437 
" style="fill:none;stroke:#1f77b4;stroke-linecap:square;stroke-width:1.5;"/>
    </g>
    <g id="line2d_36"/>
    <g id="text_20">
     <!-- expected -->
     <g transform="translate(461.965625 68.438437)scale(0.1 -0.1)">
      <defs>
       <path d="M 56.203125 29.59375 
L 56.203125 25.203125 
L 14.890625 25.203125 
Q 15.484375 15.921875 20.484375 11.0625 
Q 25.484375 6.203125 34.421875 6.203125 
Q 39.59375 6.203125 44.453125 7.46875 
Q 49.3125 8.734375 54.109375 11.28125 
L 54.109375 2.78125 
Q 49.265625 0.734375 44.1875 -0.34375 
Q 39.109375 -1.421875 33.890625 -1.421875 
Q 20.796875 -1.421875 13.15625 6.1875 
Q 5.515625 13.8125 5.515625 26.8125 
Q 5.515625 40.234375 12.765625 48.109375 
Q 20.015625 56 32.328125 56 
Q 43.359375 56 49.78125 48.890625 
Q 56.203125 41.796875 56.203125 29.59375 
z
M 47.21875 32.234375 
Q 47.125 39.59375 43.09375 43.984375 
Q 39.0625 48.390625 32.421875 48.390625 
Q 24.90625 48.390625 20.390625 44.140625 
Q 15.875 39.890625 15.1875 32.171875 
z
" id="DejaVuSans-101"/>
       <path d="M 18.109375 8.203125 
L 18.109375 -20.796875 
L 9.078125 -20.796875 
L 9.078125 54.6875 
L 18.109375 54.6875 
L 18.109375 46.390625 
Q 20.953125 51.265625 25.265625 53.625 
Q 29.59375 56 35.59375 56 
Q 45.5625 56 51.78125 48.09375 
Q 58.015625 40.1875 58.015625 27.296875 
Q 58.015625 14.40625 51.78125 6.484375 
Q 45.5625 -1.421875 35.59375 -1.421875 
Q 29.59375 -1.421875 25.265625 0.953125 
Q 20.953125 3.328125 18.109375 8.203125 
z
M 48.6875 27.296875 
Q 48.6875 37.203125 44.609375 42.84375 
Q 40.53125 48.484375 33.40625 48.484375 
Q 26.265625 48.484375 22.1875 42.84375 
Q 18.109375 37.203125 18.109375 27.296875 
Q 18.109375 17.390625 22.1875 11.75 
Q 26.265625 6.109375 33.40625 6.109375 
Q 40.53125 6.109375 44.609375 11.75 
Q 48.6875 17.390625 48.6875 27.296875 
z
" id="DejaVuSans-112"/>
       <path d="M 48.78125 52.59375 
L 48.78125 44.1875 
Q 44.96875 46.296875 41.140625 47.34375 
Q 37.3125 48.390625 33.40625 48.390625 
Q 24.65625 48.390625 19.8125 42.84375 
Q 14.984375 37.3125 14.984375 27.296875 
Q 14.984375 17.28125 19.8125 11.734375 
Q 24.65625 6.203125 33.40625 6.203125 
Q 37.3125 6.203125 41.140625 7.25 
Q 44.96875 8.296875 48.78125 10.40625 
L 48.78125 2.09375 
Q 45.015625 0.34375 40.984375 -0.53125 
Q 36.96875 -1.421875 32.421875 -1.421875 
Q 20.0625 -1.421875 12.78125 6.34375 
Q 5.515625 14.109375 5.515625 27.296875 
Q 5.515625 40.671875 12.859375 48.328125 
Q 20.21875 56 33.015625 56 
Q 37.15625 56 41.109375 55.140625 
Q 45.0625 54.296875 48.78125 52.59375 
z
" id="DejaVuSans-99"/>
       <path d="M 18.3125 70.21875 
L 18.3125 54.6875 
L 36.8125 54.6875 
L 36.8125 47.703125 
L 18.3125 47.703125 
L 18.3125 18.015625 
Q 18.3125 11.328125 20.140625 9.421875 
Q 21.96875 7.515625 27.59375 7.515625 
L 36.8125 7.515625 
L 36.8125 0 
L 27.59375 0 
Q 17.1875 0 13.234375 3.875 
Q 9.28125 7.765625 9.28125 18.015625 
L 9.28125 47.703125 
L 2.6875 47.703125 
L 2.6875 54.6875 
L 9.28125 54.6875 
L 9.28125 70.21875 
z
" id="DejaVuSans-116"/>
      </defs>
      <use xlink:href="#DejaVuSans-101"/>
      <use x="59.773438" xlink:href="#DejaVuSans-120"/>
      <use x="118.953125" xlink:href="#DejaVuSans-112"/>
      <use x="182.429688" xlink:href="#DejaVuSans-101"/>
      <use x="243.953125" xlink:href="#DejaVuSans-99"/>
      <use x="298.933594" xlink:href="#DejaVuSans-116"/>
      <use x="338.142578" xlink:href="#DejaVuSans-101"/>
      <use x="399.666016" xlink:href="#DejaVuSans-100"/>
     </g>
    </g>
    <g id="line2d_37">
     <path d="M 433.965625 79.616562 
L 453.965625 79.616562 
" style="fill:none;stroke:#ff7f0e;stroke-linecap:square;stroke-width:1.5;"/>
    </g>
    <g id="line2d_38"/>
    <g id="text_21">
     <!-- predicted -->
     <g transform="translate(461.965625 83.116562)scale(0.1 -0.1)">
      <defs>
       <path d="M 9.421875 54.6875 
L 18.40625 54.6875 
L 18.40625 0 
L 9.421875 0 
z
M 9.421875 75.984375 
L 18.40625 75.984375 
L 18.40625 64.59375 
L 9.421875 64.59375 
z
" id="DejaVuSans-105"/>
      </defs>
      <use xlink:href="#DejaVuSans-112"/>
      <use x="63.476562" xlink:href="#DejaVuSans-114"/>
      <use x="102.339844" xlink:href="#DejaVuSans-101"/>
      <use x="163.863281" xlink:href="#DejaVuSans-100"/>
      <use x="227.339844" xlink:href="#DejaVuSans-105"/>
      <use x="255.123047" xlink:href="#DejaVuSans-99"/>
      <use x="310.103516" xlink:href="#DejaVuSans-116"/>
      <use x="349.3125" xlink:href="#DejaVuSans-101"/>
      <use x="410.835938" xlink:href="#DejaVuSans-100"/>
     </g>
    </g>
   </g>
  </g>
 </g>
 <defs>
  <clipPath id="p7bde3a9caf">
   <rect height="332.64" width="446.4" x="72" y="51.84"/>
  </clipPath>
 </defs>
</svg>
