<?xml version="1.0" encoding="utf-8" standalone="no"?>
<!DOCTYPE svg PUBLIC "-//W3C//DTD SVG 1.1//EN"
  "http://www.w3.org/Graphics/SVG/1.1/DTD/svg11.dtd">
<!-- Created with matplotlib (https://matplotlib.org/) -->
<svg height="432pt" version="1.1" viewBox="0 0 576 432" width="576pt" xmlns="http://www.w3.org/2000/svg" xmlns:xlink="http://www.w3.org/1999/xlink">
 <metadata>
  <rdf:RDF xmlns:cc="http://creativecommons.org/ns#" xmlns:dc="http://purl.org/dc/elements/1.1/" xmlns:rdf="http://www.w3.org/1999/02/22-rdf-syntax-ns#">
   <cc:Work>
    <dc:type rdf:resource="http://purl.org/dc/dcmitype/StillImage"/>
    <dc:date>2020-11-23T01:54:54.586733</dc:date>
    <dc:format>image/svg+xml</dc:format>
    <dc:creator>
     <cc:Agent>
      <dc:title>Matplotlib v3.3.2, https://matplotlib.org/</dc:title>
     </cc:Agent>
    </dc:creator>
   </cc:Work>
  </rdf:RDF>
 </metadata>
 <defs>
  <style type="text/css">*{stroke-linecap:butt;stroke-linejoin:round;}</style>
 </defs>
 <g id="figure_1">
  <g id="patch_1">
   <path d="M 0 432 
L 576 432 
L 576 0 
L 0 0 
z
" style="fill:#ffffff;"/>
  </g>
  <g id="axes_1">
   <g id="patch_2">
    <path d="M 72 384.48 
L 518.4 384.48 
L 518.4 51.84 
L 72 51.84 
z
" style="fill:#ffffff;"/>
   </g>
   <g id="matplotlib.axis_1">
    <g id="xtick_1">
     <g id="line2d_1">
      <path clip-path="url(#pa792811ba3)" d="M 92.290909 384.48 
L 92.290909 51.84 
" style="fill:none;stroke:#b0b0b0;stroke-linecap:square;stroke-width:0.8;"/>
     </g>
     <g id="line2d_2">
      <defs>
       <path d="M 0 0 
L 0 3.5 
" id="mbe9d4a8e6c" style="stroke:#000000;stroke-width:0.8;"/>
      </defs>
      <g>
       <use style="stroke:#000000;stroke-width:0.8;" x="92.290909" xlink:href="#mbe9d4a8e6c" y="384.48"/>
      </g>
     </g>
     <g id="text_1">
      <!-- 0 -->
      <g transform="translate(89.109659 399.078438)scale(0.1 -0.1)">
       <defs>
        <path d="M 31.78125 66.40625 
Q 24.171875 66.40625 20.328125 58.90625 
Q 16.5 51.421875 16.5 36.375 
Q 16.5 21.390625 20.328125 13.890625 
Q 24.171875 6.390625 31.78125 6.390625 
Q 39.453125 6.390625 43.28125 13.890625 
Q 47.125 21.390625 47.125 36.375 
Q 47.125 51.421875 43.28125 58.90625 
Q 39.453125 66.40625 31.78125 66.40625 
z
M 31.78125 74.21875 
Q 44.046875 74.21875 50.515625 64.515625 
Q 56.984375 54.828125 56.984375 36.375 
Q 56.984375 17.96875 50.515625 8.265625 
Q 44.046875 -1.421875 31.78125 -1.421875 
Q 19.53125 -1.421875 13.0625 8.265625 
Q 6.59375 17.96875 6.59375 36.375 
Q 6.59375 54.828125 13.0625 64.515625 
Q 19.53125 74.21875 31.78125 74.21875 
z
" id="DejaVuSans-48"/>
       </defs>
       <use xlink:href="#DejaVuSans-48"/>
      </g>
     </g>
    </g>
    <g id="xtick_2">
     <g id="line2d_3">
      <path clip-path="url(#pa792811ba3)" d="M 148.035165 384.48 
L 148.035165 51.84 
" style="fill:none;stroke:#b0b0b0;stroke-linecap:square;stroke-width:0.8;"/>
     </g>
     <g id="line2d_4">
      <g>
       <use style="stroke:#000000;stroke-width:0.8;" x="148.035165" xlink:href="#mbe9d4a8e6c" y="384.48"/>
      </g>
     </g>
     <g id="text_2">
      <!-- 50 -->
      <g transform="translate(141.672665 399.078438)scale(0.1 -0.1)">
       <defs>
        <path d="M 10.796875 72.90625 
L 49.515625 72.90625 
L 49.515625 64.59375 
L 19.828125 64.59375 
L 19.828125 46.734375 
Q 21.96875 47.46875 24.109375 47.828125 
Q 26.265625 48.1875 28.421875 48.1875 
Q 40.625 48.1875 47.75 41.5 
Q 54.890625 34.8125 54.890625 23.390625 
Q 54.890625 11.625 47.5625 5.09375 
Q 40.234375 -1.421875 26.90625 -1.421875 
Q 22.3125 -1.421875 17.546875 -0.640625 
Q 12.796875 0.140625 7.71875 1.703125 
L 7.71875 11.625 
Q 12.109375 9.234375 16.796875 8.0625 
Q 21.484375 6.890625 26.703125 6.890625 
Q 35.15625 6.890625 40.078125 11.328125 
Q 45.015625 15.765625 45.015625 23.390625 
Q 45.015625 31 40.078125 35.4375 
Q 35.15625 39.890625 26.703125 39.890625 
Q 22.75 39.890625 18.8125 39.015625 
Q 14.890625 38.140625 10.796875 36.28125 
z
" id="DejaVuSans-53"/>
       </defs>
       <use xlink:href="#DejaVuSans-53"/>
       <use x="63.623047" xlink:href="#DejaVuSans-48"/>
      </g>
     </g>
    </g>
    <g id="xtick_3">
     <g id="line2d_5">
      <path clip-path="url(#pa792811ba3)" d="M 203.779421 384.48 
L 203.779421 51.84 
" style="fill:none;stroke:#b0b0b0;stroke-linecap:square;stroke-width:0.8;"/>
     </g>
     <g id="line2d_6">
      <g>
       <use style="stroke:#000000;stroke-width:0.8;" x="203.779421" xlink:href="#mbe9d4a8e6c" y="384.48"/>
      </g>
     </g>
     <g id="text_3">
      <!-- 100 -->
      <g transform="translate(194.235671 399.078438)scale(0.1 -0.1)">
       <defs>
        <path d="M 12.40625 8.296875 
L 28.515625 8.296875 
L 28.515625 63.921875 
L 10.984375 60.40625 
L 10.984375 69.390625 
L 28.421875 72.90625 
L 38.28125 72.90625 
L 38.28125 8.296875 
L 54.390625 8.296875 
L 54.390625 0 
L 12.40625 0 
z
" id="DejaVuSans-49"/>
       </defs>
       <use xlink:href="#DejaVuSans-49"/>
       <use x="63.623047" xlink:href="#DejaVuSans-48"/>
       <use x="127.246094" xlink:href="#DejaVuSans-48"/>
      </g>
     </g>
    </g>
    <g id="xtick_4">
     <g id="line2d_7">
      <path clip-path="url(#pa792811ba3)" d="M 259.523676 384.48 
L 259.523676 51.84 
" style="fill:none;stroke:#b0b0b0;stroke-linecap:square;stroke-width:0.8;"/>
     </g>
     <g id="line2d_8">
      <g>
       <use style="stroke:#000000;stroke-width:0.8;" x="259.523676" xlink:href="#mbe9d4a8e6c" y="384.48"/>
      </g>
     </g>
     <g id="text_4">
      <!-- 150 -->
      <g transform="translate(249.979926 399.078438)scale(0.1 -0.1)">
       <use xlink:href="#DejaVuSans-49"/>
       <use x="63.623047" xlink:href="#DejaVuSans-53"/>
       <use x="127.246094" xlink:href="#DejaVuSans-48"/>
      </g>
     </g>
    </g>
    <g id="xtick_5">
     <g id="line2d_9">
      <path clip-path="url(#pa792811ba3)" d="M 315.267932 384.48 
L 315.267932 51.84 
" style="fill:none;stroke:#b0b0b0;stroke-linecap:square;stroke-width:0.8;"/>
     </g>
     <g id="line2d_10">
      <g>
       <use style="stroke:#000000;stroke-width:0.8;" x="315.267932" xlink:href="#mbe9d4a8e6c" y="384.48"/>
      </g>
     </g>
     <g id="text_5">
      <!-- 200 -->
      <g transform="translate(305.724182 399.078438)scale(0.1 -0.1)">
       <defs>
        <path d="M 19.1875 8.296875 
L 53.609375 8.296875 
L 53.609375 0 
L 7.328125 0 
L 7.328125 8.296875 
Q 12.9375 14.109375 22.625 23.890625 
Q 32.328125 33.6875 34.8125 36.53125 
Q 39.546875 41.84375 41.421875 45.53125 
Q 43.3125 49.21875 43.3125 52.78125 
Q 43.3125 58.59375 39.234375 62.25 
Q 35.15625 65.921875 28.609375 65.921875 
Q 23.96875 65.921875 18.8125 64.3125 
Q 13.671875 62.703125 7.8125 59.421875 
L 7.8125 69.390625 
Q 13.765625 71.78125 18.9375 73 
Q 24.125 74.21875 28.421875 74.21875 
Q 39.75 74.21875 46.484375 68.546875 
Q 53.21875 62.890625 53.21875 53.421875 
Q 53.21875 48.921875 51.53125 44.890625 
Q 49.859375 40.875 45.40625 35.40625 
Q 44.1875 33.984375 37.640625 27.21875 
Q 31.109375 20.453125 19.1875 8.296875 
z
" id="DejaVuSans-50"/>
       </defs>
       <use xlink:href="#DejaVuSans-50"/>
       <use x="63.623047" xlink:href="#DejaVuSans-48"/>
       <use x="127.246094" xlink:href="#DejaVuSans-48"/>
      </g>
     </g>
    </g>
    <g id="xtick_6">
     <g id="line2d_11">
      <path clip-path="url(#pa792811ba3)" d="M 371.012188 384.48 
L 371.012188 51.84 
" style="fill:none;stroke:#b0b0b0;stroke-linecap:square;stroke-width:0.8;"/>
     </g>
     <g id="line2d_12">
      <g>
       <use style="stroke:#000000;stroke-width:0.8;" x="371.012188" xlink:href="#mbe9d4a8e6c" y="384.48"/>
      </g>
     </g>
     <g id="text_6">
      <!-- 250 -->
      <g transform="translate(361.468438 399.078438)scale(0.1 -0.1)">
       <use xlink:href="#DejaVuSans-50"/>
       <use x="63.623047" xlink:href="#DejaVuSans-53"/>
       <use x="127.246094" xlink:href="#DejaVuSans-48"/>
      </g>
     </g>
    </g>
    <g id="xtick_7">
     <g id="line2d_13">
      <path clip-path="url(#pa792811ba3)" d="M 426.756444 384.48 
L 426.756444 51.84 
" style="fill:none;stroke:#b0b0b0;stroke-linecap:square;stroke-width:0.8;"/>
     </g>
     <g id="line2d_14">
      <g>
       <use style="stroke:#000000;stroke-width:0.8;" x="426.756444" xlink:href="#mbe9d4a8e6c" y="384.48"/>
      </g>
     </g>
     <g id="text_7">
      <!-- 300 -->
      <g transform="translate(417.212694 399.078438)scale(0.1 -0.1)">
       <defs>
        <path d="M 40.578125 39.3125 
Q 47.65625 37.796875 51.625 33 
Q 55.609375 28.21875 55.609375 21.1875 
Q 55.609375 10.40625 48.1875 4.484375 
Q 40.765625 -1.421875 27.09375 -1.421875 
Q 22.515625 -1.421875 17.65625 -0.515625 
Q 12.796875 0.390625 7.625 2.203125 
L 7.625 11.71875 
Q 11.71875 9.328125 16.59375 8.109375 
Q 21.484375 6.890625 26.8125 6.890625 
Q 36.078125 6.890625 40.9375 10.546875 
Q 45.796875 14.203125 45.796875 21.1875 
Q 45.796875 27.640625 41.28125 31.265625 
Q 36.765625 34.90625 28.71875 34.90625 
L 20.21875 34.90625 
L 20.21875 43.015625 
L 29.109375 43.015625 
Q 36.375 43.015625 40.234375 45.921875 
Q 44.09375 48.828125 44.09375 54.296875 
Q 44.09375 59.90625 40.109375 62.90625 
Q 36.140625 65.921875 28.71875 65.921875 
Q 24.65625 65.921875 20.015625 65.03125 
Q 15.375 64.15625 9.8125 62.3125 
L 9.8125 71.09375 
Q 15.4375 72.65625 20.34375 73.4375 
Q 25.25 74.21875 29.59375 74.21875 
Q 40.828125 74.21875 47.359375 69.109375 
Q 53.90625 64.015625 53.90625 55.328125 
Q 53.90625 49.265625 50.4375 45.09375 
Q 46.96875 40.921875 40.578125 39.3125 
z
" id="DejaVuSans-51"/>
       </defs>
       <use xlink:href="#DejaVuSans-51"/>
       <use x="63.623047" xlink:href="#DejaVuSans-48"/>
       <use x="127.246094" xlink:href="#DejaVuSans-48"/>
      </g>
     </g>
    </g>
    <g id="xtick_8">
     <g id="line2d_15">
      <path clip-path="url(#pa792811ba3)" d="M 482.500699 384.48 
L 482.500699 51.84 
" style="fill:none;stroke:#b0b0b0;stroke-linecap:square;stroke-width:0.8;"/>
     </g>
     <g id="line2d_16">
      <g>
       <use style="stroke:#000000;stroke-width:0.8;" x="482.500699" xlink:href="#mbe9d4a8e6c" y="384.48"/>
      </g>
     </g>
     <g id="text_8">
      <!-- 350 -->
      <g transform="translate(472.956949 399.078438)scale(0.1 -0.1)">
       <use xlink:href="#DejaVuSans-51"/>
       <use x="63.623047" xlink:href="#DejaVuSans-53"/>
       <use x="127.246094" xlink:href="#DejaVuSans-48"/>
      </g>
     </g>
    </g>
    <g id="text_9">
     <!-- Day -->
     <g transform="translate(285.326562 412.756563)scale(0.1 -0.1)">
      <defs>
       <path d="M 19.671875 64.796875 
L 19.671875 8.109375 
L 31.59375 8.109375 
Q 46.6875 8.109375 53.6875 14.9375 
Q 60.6875 21.78125 60.6875 36.53125 
Q 60.6875 51.171875 53.6875 57.984375 
Q 46.6875 64.796875 31.59375 64.796875 
z
M 9.8125 72.90625 
L 30.078125 72.90625 
Q 51.265625 72.90625 61.171875 64.09375 
Q 71.09375 55.28125 71.09375 36.53125 
Q 71.09375 17.671875 61.125 8.828125 
Q 51.171875 0 30.078125 0 
L 9.8125 0 
z
" id="DejaVuSans-68"/>
       <path d="M 34.28125 27.484375 
Q 23.390625 27.484375 19.1875 25 
Q 14.984375 22.515625 14.984375 16.5 
Q 14.984375 11.71875 18.140625 8.90625 
Q 21.296875 6.109375 26.703125 6.109375 
Q 34.1875 6.109375 38.703125 11.40625 
Q 43.21875 16.703125 43.21875 25.484375 
L 43.21875 27.484375 
z
M 52.203125 31.203125 
L 52.203125 0 
L 43.21875 0 
L 43.21875 8.296875 
Q 40.140625 3.328125 35.546875 0.953125 
Q 30.953125 -1.421875 24.3125 -1.421875 
Q 15.921875 -1.421875 10.953125 3.296875 
Q 6 8.015625 6 15.921875 
Q 6 25.140625 12.171875 29.828125 
Q 18.359375 34.515625 30.609375 34.515625 
L 43.21875 34.515625 
L 43.21875 35.40625 
Q 43.21875 41.609375 39.140625 45 
Q 35.0625 48.390625 27.6875 48.390625 
Q 23 48.390625 18.546875 47.265625 
Q 14.109375 46.140625 10.015625 43.890625 
L 10.015625 52.203125 
Q 14.9375 54.109375 19.578125 55.046875 
Q 24.21875 56 28.609375 56 
Q 40.484375 56 46.34375 49.84375 
Q 52.203125 43.703125 52.203125 31.203125 
z
" id="DejaVuSans-97"/>
       <path d="M 32.171875 -5.078125 
Q 28.375 -14.84375 24.75 -17.8125 
Q 21.140625 -20.796875 15.09375 -20.796875 
L 7.90625 -20.796875 
L 7.90625 -13.28125 
L 13.1875 -13.28125 
Q 16.890625 -13.28125 18.9375 -11.515625 
Q 21 -9.765625 23.484375 -3.21875 
L 25.09375 0.875 
L 2.984375 54.6875 
L 12.5 54.6875 
L 29.59375 11.921875 
L 46.6875 54.6875 
L 56.203125 54.6875 
z
" id="DejaVuSans-121"/>
      </defs>
      <use xlink:href="#DejaVuSans-68"/>
      <use x="77.001953" xlink:href="#DejaVuSans-97"/>
      <use x="138.28125" xlink:href="#DejaVuSans-121"/>
     </g>
    </g>
   </g>
   <g id="matplotlib.axis_2">
    <g id="ytick_1">
     <g id="line2d_17">
      <path clip-path="url(#pa792811ba3)" d="M 72 373.734696 
L 518.4 373.734696 
" style="fill:none;stroke:#b0b0b0;stroke-linecap:square;stroke-width:0.8;"/>
     </g>
     <g id="line2d_18">
      <defs>
       <path d="M 0 0 
L -3.5 0 
" id="mb446abbf16" style="stroke:#000000;stroke-width:0.8;"/>
      </defs>
      <g>
       <use style="stroke:#000000;stroke-width:0.8;" x="72" xlink:href="#mb446abbf16" y="373.734696"/>
      </g>
     </g>
     <g id="text_10">
      <!-- 0 -->
      <g transform="translate(58.6375 377.533915)scale(0.1 -0.1)">
       <use xlink:href="#DejaVuSans-48"/>
      </g>
     </g>
    </g>
    <g id="ytick_2">
     <g id="line2d_19">
      <path clip-path="url(#pa792811ba3)" d="M 72 329.987734 
L 518.4 329.987734 
" style="fill:none;stroke:#b0b0b0;stroke-linecap:square;stroke-width:0.8;"/>
     </g>
     <g id="line2d_20">
      <g>
       <use style="stroke:#000000;stroke-width:0.8;" x="72" xlink:href="#mb446abbf16" y="329.987734"/>
      </g>
     </g>
     <g id="text_11">
      <!-- 25 -->
      <g transform="translate(52.275 333.786953)scale(0.1 -0.1)">
       <use xlink:href="#DejaVuSans-50"/>
       <use x="63.623047" xlink:href="#DejaVuSans-53"/>
      </g>
     </g>
    </g>
    <g id="ytick_3">
     <g id="line2d_21">
      <path clip-path="url(#pa792811ba3)" d="M 72 286.240772 
L 518.4 286.240772 
" style="fill:none;stroke:#b0b0b0;stroke-linecap:square;stroke-width:0.8;"/>
     </g>
     <g id="line2d_22">
      <g>
       <use style="stroke:#000000;stroke-width:0.8;" x="72" xlink:href="#mb446abbf16" y="286.240772"/>
      </g>
     </g>
     <g id="text_12">
      <!-- 50 -->
      <g transform="translate(52.275 290.039991)scale(0.1 -0.1)">
       <use xlink:href="#DejaVuSans-53"/>
       <use x="63.623047" xlink:href="#DejaVuSans-48"/>
      </g>
     </g>
    </g>
    <g id="ytick_4">
     <g id="line2d_23">
      <path clip-path="url(#pa792811ba3)" d="M 72 242.49381 
L 518.4 242.49381 
" style="fill:none;stroke:#b0b0b0;stroke-linecap:square;stroke-width:0.8;"/>
     </g>
     <g id="line2d_24">
      <g>
       <use style="stroke:#000000;stroke-width:0.8;" x="72" xlink:href="#mb446abbf16" y="242.49381"/>
      </g>
     </g>
     <g id="text_13">
      <!-- 75 -->
      <g transform="translate(52.275 246.293029)scale(0.1 -0.1)">
       <defs>
        <path d="M 8.203125 72.90625 
L 55.078125 72.90625 
L 55.078125 68.703125 
L 28.609375 0 
L 18.3125 0 
L 43.21875 64.59375 
L 8.203125 64.59375 
z
" id="DejaVuSans-55"/>
       </defs>
       <use xlink:href="#DejaVuSans-55"/>
       <use x="63.623047" xlink:href="#DejaVuSans-53"/>
      </g>
     </g>
    </g>
    <g id="ytick_5">
     <g id="line2d_25">
      <path clip-path="url(#pa792811ba3)" d="M 72 198.746848 
L 518.4 198.746848 
" style="fill:none;stroke:#b0b0b0;stroke-linecap:square;stroke-width:0.8;"/>
     </g>
     <g id="line2d_26">
      <g>
       <use style="stroke:#000000;stroke-width:0.8;" x="72" xlink:href="#mb446abbf16" y="198.746848"/>
      </g>
     </g>
     <g id="text_14">
      <!-- 100 -->
      <g transform="translate(45.9125 202.546067)scale(0.1 -0.1)">
       <use xlink:href="#DejaVuSans-49"/>
       <use x="63.623047" xlink:href="#DejaVuSans-48"/>
       <use x="127.246094" xlink:href="#DejaVuSans-48"/>
      </g>
     </g>
    </g>
    <g id="ytick_6">
     <g id="line2d_27">
      <path clip-path="url(#pa792811ba3)" d="M 72 154.999886 
L 518.4 154.999886 
" style="fill:none;stroke:#b0b0b0;stroke-linecap:square;stroke-width:0.8;"/>
     </g>
     <g id="line2d_28">
      <g>
       <use style="stroke:#000000;stroke-width:0.8;" x="72" xlink:href="#mb446abbf16" y="154.999886"/>
      </g>
     </g>
     <g id="text_15">
      <!-- 125 -->
      <g transform="translate(45.9125 158.799105)scale(0.1 -0.1)">
       <use xlink:href="#DejaVuSans-49"/>
       <use x="63.623047" xlink:href="#DejaVuSans-50"/>
       <use x="127.246094" xlink:href="#DejaVuSans-53"/>
      </g>
     </g>
    </g>
    <g id="ytick_7">
     <g id="line2d_29">
      <path clip-path="url(#pa792811ba3)" d="M 72 111.252924 
L 518.4 111.252924 
" style="fill:none;stroke:#b0b0b0;stroke-linecap:square;stroke-width:0.8;"/>
     </g>
     <g id="line2d_30">
      <g>
       <use style="stroke:#000000;stroke-width:0.8;" x="72" xlink:href="#mb446abbf16" y="111.252924"/>
      </g>
     </g>
     <g id="text_16">
      <!-- 150 -->
      <g transform="translate(45.9125 115.052143)scale(0.1 -0.1)">
       <use xlink:href="#DejaVuSans-49"/>
       <use x="63.623047" xlink:href="#DejaVuSans-53"/>
       <use x="127.246094" xlink:href="#DejaVuSans-48"/>
      </g>
     </g>
    </g>
    <g id="ytick_8">
     <g id="line2d_31">
      <path clip-path="url(#pa792811ba3)" d="M 72 67.505962 
L 518.4 67.505962 
" style="fill:none;stroke:#b0b0b0;stroke-linecap:square;stroke-width:0.8;"/>
     </g>
     <g id="line2d_32">
      <g>
       <use style="stroke:#000000;stroke-width:0.8;" x="72" xlink:href="#mb446abbf16" y="67.505962"/>
      </g>
     </g>
     <g id="text_17">
      <!-- 175 -->
      <g transform="translate(45.9125 71.305181)scale(0.1 -0.1)">
       <use xlink:href="#DejaVuSans-49"/>
       <use x="63.623047" xlink:href="#DejaVuSans-55"/>
       <use x="127.246094" xlink:href="#DejaVuSans-53"/>
      </g>
     </g>
    </g>
    <g id="text_18">
     <!-- max 8h 'r'$O_3$ $[\mu g/m^3$] -->
     <g transform="translate(39.8125 270.71)rotate(-90)scale(0.1 -0.1)">
      <defs>
       <path d="M 52 44.1875 
Q 55.375 50.25 60.0625 53.125 
Q 64.75 56 71.09375 56 
Q 79.640625 56 84.28125 50.015625 
Q 88.921875 44.046875 88.921875 33.015625 
L 88.921875 0 
L 79.890625 0 
L 79.890625 32.71875 
Q 79.890625 40.578125 77.09375 44.375 
Q 74.3125 48.1875 68.609375 48.1875 
Q 61.625 48.1875 57.5625 43.546875 
Q 53.515625 38.921875 53.515625 30.90625 
L 53.515625 0 
L 44.484375 0 
L 44.484375 32.71875 
Q 44.484375 40.625 41.703125 44.40625 
Q 38.921875 48.1875 33.109375 48.1875 
Q 26.21875 48.1875 22.15625 43.53125 
Q 18.109375 38.875 18.109375 30.90625 
L 18.109375 0 
L 9.078125 0 
L 9.078125 54.6875 
L 18.109375 54.6875 
L 18.109375 46.1875 
Q 21.1875 51.21875 25.484375 53.609375 
Q 29.78125 56 35.6875 56 
Q 41.65625 56 45.828125 52.96875 
Q 50 49.953125 52 44.1875 
z
" id="DejaVuSans-109"/>
       <path d="M 54.890625 54.6875 
L 35.109375 28.078125 
L 55.90625 0 
L 45.3125 0 
L 29.390625 21.484375 
L 13.484375 0 
L 2.875 0 
L 24.125 28.609375 
L 4.6875 54.6875 
L 15.28125 54.6875 
L 29.78125 35.203125 
L 44.28125 54.6875 
z
" id="DejaVuSans-120"/>
       <path id="DejaVuSans-32"/>
       <path d="M 31.78125 34.625 
Q 24.75 34.625 20.71875 30.859375 
Q 16.703125 27.09375 16.703125 20.515625 
Q 16.703125 13.921875 20.71875 10.15625 
Q 24.75 6.390625 31.78125 6.390625 
Q 38.8125 6.390625 42.859375 10.171875 
Q 46.921875 13.96875 46.921875 20.515625 
Q 46.921875 27.09375 42.890625 30.859375 
Q 38.875 34.625 31.78125 34.625 
z
M 21.921875 38.8125 
Q 15.578125 40.375 12.03125 44.71875 
Q 8.5 49.078125 8.5 55.328125 
Q 8.5 64.0625 14.71875 69.140625 
Q 20.953125 74.21875 31.78125 74.21875 
Q 42.671875 74.21875 48.875 69.140625 
Q 55.078125 64.0625 55.078125 55.328125 
Q 55.078125 49.078125 51.53125 44.71875 
Q 48 40.375 41.703125 38.8125 
Q 48.828125 37.15625 52.796875 32.3125 
Q 56.78125 27.484375 56.78125 20.515625 
Q 56.78125 9.90625 50.3125 4.234375 
Q 43.84375 -1.421875 31.78125 -1.421875 
Q 19.734375 -1.421875 13.25 4.234375 
Q 6.78125 9.90625 6.78125 20.515625 
Q 6.78125 27.484375 10.78125 32.3125 
Q 14.796875 37.15625 21.921875 38.8125 
z
M 18.3125 54.390625 
Q 18.3125 48.734375 21.84375 45.5625 
Q 25.390625 42.390625 31.78125 42.390625 
Q 38.140625 42.390625 41.71875 45.5625 
Q 45.3125 48.734375 45.3125 54.390625 
Q 45.3125 60.0625 41.71875 63.234375 
Q 38.140625 66.40625 31.78125 66.40625 
Q 25.390625 66.40625 21.84375 63.234375 
Q 18.3125 60.0625 18.3125 54.390625 
z
" id="DejaVuSans-56"/>
       <path d="M 54.890625 33.015625 
L 54.890625 0 
L 45.90625 0 
L 45.90625 32.71875 
Q 45.90625 40.484375 42.875 44.328125 
Q 39.84375 48.1875 33.796875 48.1875 
Q 26.515625 48.1875 22.3125 43.546875 
Q 18.109375 38.921875 18.109375 30.90625 
L 18.109375 0 
L 9.078125 0 
L 9.078125 75.984375 
L 18.109375 75.984375 
L 18.109375 46.1875 
Q 21.34375 51.125 25.703125 53.5625 
Q 30.078125 56 35.796875 56 
Q 45.21875 56 50.046875 50.171875 
Q 54.890625 44.34375 54.890625 33.015625 
z
" id="DejaVuSans-104"/>
       <path d="M 17.921875 72.90625 
L 17.921875 45.796875 
L 9.625 45.796875 
L 9.625 72.90625 
z
" id="DejaVuSans-39"/>
       <path d="M 41.109375 46.296875 
Q 39.59375 47.171875 37.8125 47.578125 
Q 36.03125 48 33.890625 48 
Q 26.265625 48 22.1875 43.046875 
Q 18.109375 38.09375 18.109375 28.8125 
L 18.109375 0 
L 9.078125 0 
L 9.078125 54.6875 
L 18.109375 54.6875 
L 18.109375 46.1875 
Q 20.953125 51.171875 25.484375 53.578125 
Q 30.03125 56 36.53125 56 
Q 37.453125 56 38.578125 55.875 
Q 39.703125 55.765625 41.0625 55.515625 
z
" id="DejaVuSans-114"/>
       <path d="M 45.609375 66.21875 
Q 37.5 66.21875 31.296875 62.28125 
Q 25.09375 58.34375 20.515625 50.296875 
Q 17.578125 45.171875 16.03125 39.40625 
Q 14.5 33.640625 14.5 27.78125 
Q 14.5 17.625 19.359375 12.109375 
Q 24.21875 6.59375 33.109375 6.59375 
Q 41.109375 6.59375 47.375 10.5625 
Q 53.65625 14.546875 58.109375 22.40625 
Q 61.078125 27.6875 62.640625 33.46875 
Q 64.203125 39.265625 64.203125 45.015625 
Q 64.203125 55.125 59.3125 60.671875 
Q 54.4375 66.21875 45.609375 66.21875 
z
M 32.8125 -1.421875 
Q 19.390625 -1.421875 11.6875 6.53125 
Q 4 14.5 4 28.328125 
Q 4 36.234375 7 44.484375 
Q 10.015625 52.734375 15.28125 59.1875 
Q 21.484375 66.75 29.09375 70.484375 
Q 36.71875 74.21875 45.90625 74.21875 
Q 59.28125 74.21875 66.984375 66.328125 
Q 74.703125 58.453125 74.703125 44.828125 
Q 74.703125 36.421875 71.765625 28.3125 
Q 68.84375 20.21875 63.375 13.625 
Q 57.125 6 49.578125 2.28125 
Q 42.046875 -1.421875 32.8125 -1.421875 
z
" id="DejaVuSans-Oblique-79"/>
       <path d="M 8.59375 75.984375 
L 29.296875 75.984375 
L 29.296875 69 
L 17.578125 69 
L 17.578125 -6.203125 
L 29.296875 -6.203125 
L 29.296875 -13.1875 
L 8.59375 -13.1875 
z
" id="DejaVuSans-91"/>
       <path d="M -1.3125 -20.796875 
L 13.375 54.6875 
L 22.40625 54.6875 
L 15.765625 20.65625 
Q 15.578125 19.625 15.421875 18.359375 
Q 15.28125 17.09375 15.28125 15.828125 
Q 15.28125 11.28125 18.140625 8.828125 
Q 21 6.390625 26.3125 6.390625 
Q 33.546875 6.390625 37.984375 10.484375 
Q 42.4375 14.59375 44 22.796875 
L 50.203125 54.6875 
L 59.1875 54.6875 
L 51.03125 12.640625 
Q 50.828125 11.71875 50.75 11.03125 
Q 50.6875 10.359375 50.6875 9.8125 
Q 50.6875 8.296875 51.296875 7.59375 
Q 51.90625 6.890625 53.21875 6.890625 
Q 53.71875 6.890625 54.5625 7.125 
Q 55.421875 7.375 56.984375 8.015625 
L 55.609375 0.78125 
Q 53.46875 -0.296875 51.515625 -0.859375 
Q 49.5625 -1.421875 47.703125 -1.421875 
Q 44.484375 -1.421875 42.65625 0.625 
Q 40.828125 2.6875 40.828125 6.296875 
Q 38.09375 2.390625 34.296875 0.484375 
Q 30.515625 -1.421875 25.390625 -1.421875 
Q 20.84375 -1.421875 17.453125 0.671875 
Q 14.0625 2.78125 12.984375 6.203125 
L 7.71875 -20.796875 
z
" id="DejaVuSans-Oblique-956"/>
       <path d="M 59.625 54.6875 
L 50.296875 6.78125 
Q 47.609375 -7.125 40.015625 -13.953125 
Q 32.421875 -20.796875 19.578125 -20.796875 
Q 14.84375 -20.796875 10.78125 -20.09375 
Q 6.734375 -19.390625 3.21875 -17.921875 
L 4.890625 -9.1875 
Q 8.203125 -11.328125 11.90625 -12.34375 
Q 15.625 -13.375 19.828125 -13.375 
Q 28.375 -13.375 33.859375 -8.703125 
Q 39.359375 -4.046875 41.109375 4.6875 
L 41.890625 8.796875 
Q 38.140625 4.5 33.15625 2.25 
Q 28.171875 0 22.40625 0 
Q 14.109375 0 9.34375 5.484375 
Q 4.59375 10.984375 4.59375 20.609375 
Q 4.59375 28.171875 7.46875 35.421875 
Q 10.359375 42.671875 15.578125 48.296875 
Q 19.046875 52 23.65625 54 
Q 28.265625 56 33.296875 56 
Q 38.8125 56 42.90625 53.4375 
Q 47.015625 50.875 49.03125 46.1875 
L 50.59375 54.6875 
z
M 46.09375 34.625 
Q 46.09375 41.265625 42.96875 44.875 
Q 39.84375 48.484375 34.078125 48.484375 
Q 30.515625 48.484375 27.296875 47.0625 
Q 24.078125 45.65625 21.78125 43.109375 
Q 18.0625 38.921875 15.984375 33.234375 
Q 13.921875 27.546875 13.921875 21.484375 
Q 13.921875 14.75 17.0625 11.125 
Q 20.21875 7.515625 26.125 7.515625 
Q 34.671875 7.515625 40.375 15.25 
Q 46.09375 23 46.09375 34.625 
z
" id="DejaVuSans-Oblique-103"/>
       <path d="M 25.390625 72.90625 
L 33.6875 72.90625 
L 8.296875 -9.28125 
L 0 -9.28125 
z
" id="DejaVuSans-47"/>
       <path d="M 89.796875 33.015625 
L 83.40625 0 
L 74.421875 0 
L 80.71875 32.71875 
Q 81.109375 34.8125 81.296875 36.328125 
Q 81.5 37.84375 81.5 38.921875 
Q 81.5 43.3125 79.046875 45.75 
Q 76.609375 48.1875 72.21875 48.1875 
Q 65.671875 48.1875 60.546875 43.28125 
Q 55.421875 38.375 53.90625 30.515625 
L 47.90625 0 
L 38.921875 0 
L 45.3125 32.71875 
Q 45.703125 34.515625 45.890625 36.046875 
Q 46.09375 37.59375 46.09375 38.8125 
Q 46.09375 43.265625 43.65625 45.71875 
Q 41.21875 48.1875 36.921875 48.1875 
Q 30.28125 48.1875 25.140625 43.28125 
Q 20.015625 38.375 18.5 30.515625 
L 12.5 0 
L 3.515625 0 
L 14.203125 54.6875 
L 23.1875 54.6875 
L 21.484375 46.1875 
Q 25.140625 50.984375 30.046875 53.484375 
Q 34.96875 56 40.578125 56 
Q 46.53125 56 50.359375 52.875 
Q 54.203125 49.75 54.984375 44.1875 
Q 59.078125 49.953125 64.46875 52.96875 
Q 69.875 56 75.875 56 
Q 82.90625 56 86.734375 51.953125 
Q 90.578125 47.90625 90.578125 40.484375 
Q 90.578125 38.875 90.375 36.9375 
Q 90.1875 35.015625 89.796875 33.015625 
z
" id="DejaVuSans-Oblique-109"/>
       <path d="M 30.421875 75.984375 
L 30.421875 -13.1875 
L 9.71875 -13.1875 
L 9.71875 -6.203125 
L 21.390625 -6.203125 
L 21.390625 69 
L 9.71875 69 
L 9.71875 75.984375 
z
" id="DejaVuSans-93"/>
      </defs>
      <use transform="translate(0 0.765625)" xlink:href="#DejaVuSans-109"/>
      <use transform="translate(97.412109 0.765625)" xlink:href="#DejaVuSans-97"/>
      <use transform="translate(158.691406 0.765625)" xlink:href="#DejaVuSans-120"/>
      <use transform="translate(217.871094 0.765625)" xlink:href="#DejaVuSans-32"/>
      <use transform="translate(249.658203 0.765625)" xlink:href="#DejaVuSans-56"/>
      <use transform="translate(313.28125 0.765625)" xlink:href="#DejaVuSans-104"/>
      <use transform="translate(376.660156 0.765625)" xlink:href="#DejaVuSans-32"/>
      <use transform="translate(408.447266 0.765625)" xlink:href="#DejaVuSans-39"/>
      <use transform="translate(435.9375 0.765625)" xlink:href="#DejaVuSans-114"/>
      <use transform="translate(477.050781 0.765625)" xlink:href="#DejaVuSans-39"/>
      <use transform="translate(504.541016 0.765625)" xlink:href="#DejaVuSans-Oblique-79"/>
      <use transform="translate(583.251953 -15.640625)scale(0.7)" xlink:href="#DejaVuSans-51"/>
      <use transform="translate(630.522461 0.765625)" xlink:href="#DejaVuSans-32"/>
      <use transform="translate(662.30957 0.765625)" xlink:href="#DejaVuSans-91"/>
      <use transform="translate(701.323242 0.765625)" xlink:href="#DejaVuSans-Oblique-956"/>
      <use transform="translate(764.946289 0.765625)" xlink:href="#DejaVuSans-Oblique-103"/>
      <use transform="translate(828.422852 0.765625)" xlink:href="#DejaVuSans-47"/>
      <use transform="translate(862.114258 0.765625)" xlink:href="#DejaVuSans-Oblique-109"/>
      <use transform="translate(964.176263 39.046875)scale(0.7)" xlink:href="#DejaVuSans-51"/>
      <use transform="translate(1011.446771 0.765625)" xlink:href="#DejaVuSans-93"/>
     </g>
    </g>
   </g>
   <g id="line2d_33">
    <path clip-path="url(#pa792811ba3)" d="M 92.290909 330.206469 
L 93.405794 287.661673 
L 94.520679 302.098171 
L 95.635564 300.568777 
L 96.75045 309.31817 
L 97.865335 334.581165 
L 98.98022 296.631551 
L 100.095105 347.049049 
L 101.20999 327.908879 
L 102.324875 294.006733 
L 103.43976 298.818899 
L 104.554645 357.110851 
L 105.66953 350.767541 
L 106.784416 327.691894 
L 107.899301 294.223718 
L 109.014186 342.86159 
L 110.129071 317.988817 
L 111.243956 287.882158 
L 112.358841 282.741015 
L 113.473726 304.285519 
L 114.588611 308.406483 
L 115.703497 356.454646 
L 116.818382 327.800386 
L 117.933267 322.659243 
L 119.048152 339.862298 
L 120.163037 342.86159 
L 121.277922 325.942015 
L 122.392807 293.490519 
L 123.507692 301.660701 
L 124.622577 278.616552 
L 125.737463 263.492352 
L 127.967233 279.349751 
L 129.082118 281.209872 
L 130.197003 272.133252 
L 131.311888 285.866298 
L 132.426773 281.866076 
L 133.541658 270.117392 
L 134.656543 327.581651 
L 135.771429 280.66216 
L 136.886314 297.723475 
L 138.001199 279.491491 
L 139.116084 271.58554 
L 140.230969 271.366805 
L 141.345854 278.585054 
L 142.460739 297.943959 
L 143.575624 320.471895 
L 144.690509 239.977485 
L 145.805395 271.258313 
L 146.92028 265.571208 
L 148.035165 262.617413 
L 149.15005 267.321086 
L 150.264935 266.008677 
L 151.37982 249.822301 
L 153.60959 264.586026 
L 154.724476 255.836634 
L 155.839361 245.66459 
L 156.954246 232.869479 
L 158.069131 248.289408 
L 159.184016 280.116197 
L 160.298901 263.711087 
L 161.413786 289.30306 
L 162.528671 245.118628 
L 163.643556 272.02301 
L 164.758442 254.524225 
L 165.873327 247.197484 
L 166.988212 278.242078 
L 168.103097 260.648799 
L 169.217982 267.867048 
L 170.332867 280.553667 
L 171.447752 285.584568 
L 172.562637 267.492574 
L 173.677522 277.865854 
L 174.792408 269.616927 
L 175.907293 277.116906 
L 177.022178 224.244327 
L 178.137063 206.950278 
L 179.251948 228.057313 
L 180.366833 253.976513 
L 181.481718 262.071451 
L 182.596603 236.58797 
L 183.711489 256.638078 
L 184.826374 234.948334 
L 185.941259 235.370055 
L 187.056144 226.415927 
L 188.171029 246.744265 
L 189.285914 246.649772 
L 190.400799 256.60133 
L 191.515684 240.743932 
L 192.630569 235.744529 
L 193.745455 240.962666 
L 194.86034 233.243953 
L 195.975225 245.22712 
L 197.09011 241.510378 
L 198.204995 227.290866 
L 199.31988 219.964125 
L 200.434765 265.898435 
L 201.54965 289.740529 
L 202.664535 241.181401 
L 203.779421 240.19797 
L 204.894306 265.460965 
L 206.009191 250.039286 
L 207.124076 205.090158 
L 208.238961 241.947848 
L 209.353846 221.276534 
L 210.468731 238.885561 
L 211.583616 219.089185 
L 212.698501 189.668479 
L 213.813387 241.837606 
L 214.928272 237.352667 
L 216.043157 240.19797 
L 217.158042 223.353639 
L 218.272927 244.572666 
L 219.387812 209.137627 
L 220.502697 148.656577 
L 221.617582 252.555611 
L 223.847353 174.794511 
L 224.962238 165.374916 
L 227.192008 227.290866 
L 228.306893 261.523739 
L 229.421778 272.241744 
L 230.536663 234.181887 
L 231.651548 236.743709 
L 232.766434 253.649285 
L 233.881319 263.866826 
L 234.996204 212.854368 
L 236.111089 217.120572 
L 237.225974 229.588456 
L 238.340859 261.850966 
L 239.455744 275.960236 
L 240.570629 255.117434 
L 241.685514 263.929822 
L 242.8004 190.121697 
L 243.915285 224.886533 
L 245.03017 249.369083 
L 246.145055 241.618871 
L 247.25994 237.494407 
L 248.374825 193.605705 
L 249.48971 225.869965 
L 250.604595 219.526655 
L 251.719481 239.102546 
L 252.834366 190.326433 
L 253.949251 206.621301 
L 255.064136 236.369235 
L 256.179021 239.7605 
L 257.293906 235.165319 
L 258.408791 207.387748 
L 259.523676 256.821815 
L 260.638561 274.866562 
L 261.753447 267.210844 
L 262.868332 206.512809 
L 263.983217 178.294268 
L 265.098102 143.079714 
L 266.212987 99.878714 
L 267.327872 195.138599 
L 268.442757 237.02544 
L 269.557642 247.414468 
L 270.672527 287.553181 
L 271.787413 275.849994 
L 272.902298 220.620329 
L 274.017183 243.587484 
L 275.132068 231.775804 
L 276.246953 232.869479 
L 277.361838 219.244925 
L 278.476723 212.308406 
L 279.591608 238.775318 
L 280.706494 283.507462 
L 281.821379 263.492352 
L 282.936264 274.100115 
L 284.051149 262.242939 
L 285.166034 194.263659 
L 286.280919 144.875089 
L 287.395804 79.863604 
L 288.510689 166.874561 
L 289.625574 128.205747 
L 290.74046 83.254868 
L 291.855345 66.96 
L 292.97023 187.997345 
L 294.085115 214.27702 
L 295.2 161.749167 
L 296.314885 157.516211 
L 297.42977 192.498032 
L 298.544655 196.451008 
L 299.65954 261.523739 
L 300.774426 214.99622 
L 301.889311 154.343682 
L 303.004196 101.08263 
L 304.119081 130.001122 
L 305.233966 121.97093 
L 306.348851 152.92103 
L 307.463736 198.309379 
L 308.578621 227.94882 
L 309.693506 191.528599 
L 310.808392 215.916656 
L 311.923277 233.635925 
L 313.038162 249.274589 
L 314.153047 210.450035 
L 315.267932 149.312781 
L 316.382817 138.484533 
L 317.497702 192.622273 
L 318.612587 240.306462 
L 319.727473 273.008191 
L 320.842358 215.699671 
L 321.957243 229.040744 
L 323.072128 274.537585 
L 324.187013 289.632037 
L 325.301898 246.539529 
L 326.416783 291.490408 
L 327.531668 230.619135 
L 328.646553 221.603761 
L 329.761439 263.742585 
L 330.876324 273.772888 
L 331.991209 248.368152 
L 333.106094 279.491491 
L 334.220979 273.116684 
L 335.335864 241.181401 
L 336.450749 226.37043 
L 337.565634 295.865104 
L 338.680519 229.119489 
L 339.795405 234.510865 
L 340.91029 279.241258 
L 342.025175 257.259285 
L 344.254945 228.932252 
L 345.36983 270.383373 
L 346.484715 270.162889 
L 347.5996 257.47627 
L 348.714486 276.287463 
L 349.829371 252.742848 
L 350.944256 220.728822 
L 352.059141 250.259771 
L 353.174026 254.086755 
L 354.288911 258.898921 
L 355.403796 251.57218 
L 356.518681 262.50892 
L 358.748452 295.098657 
L 359.863337 271.037828 
L 360.978222 273.335418 
L 362.093107 263.492352 
L 363.207992 248.509892 
L 364.322877 245.337363 
L 366.552647 283.507462 
L 367.667532 249.601817 
L 368.782418 229.261229 
L 369.897303 223.745612 
L 371.012188 239.7605 
L 372.127073 277.05391 
L 373.241958 281.537099 
L 374.356843 285.25734 
L 375.471728 251.13471 
L 376.586613 302.098171 
L 377.701499 269.835661 
L 378.816384 275.304032 
L 379.931269 246.494032 
L 381.046154 253.743779 
L 382.161039 284.991359 
L 383.275924 257.259285 
L 384.390809 267.242342 
L 385.505694 229.040744 
L 386.620579 253.86802 
L 387.735465 212.637384 
L 388.85035 225.994206 
L 389.965235 283.507462 
L 391.08012 256.368597 
L 393.30989 305.239203 
L 394.424775 333.378999 
L 395.53966 326.113503 
L 396.654545 321.019607 
L 397.769431 274.866562 
L 398.884316 286.569749 
L 399.999201 244.994387 
L 401.114086 257.0388 
L 402.228971 283.615954 
L 403.343856 307.347806 
L 404.458741 323.534182 
L 405.573626 285.365833 
L 406.688511 299.364861 
L 407.803397 286.349265 
L 408.918282 307.347806 
L 410.033167 330.862673 
L 411.148052 304.240022 
L 412.262937 327.691894 
L 413.377822 295.973596 
L 414.492707 293.348779 
L 415.607592 297.614982 
L 416.722478 279.570235 
L 417.837363 283.069992 
L 418.952248 278.912281 
L 420.067133 296.521308 
L 421.182018 301.114739 
L 422.296903 295.536127 
L 423.411788 294.990165 
L 424.526673 281.099629 
L 425.641558 298.160944 
L 426.756444 280.772402 
L 427.871329 296.848536 
L 428.986214 280.882644 
L 430.101099 277.382887 
L 431.215984 265.24223 
L 432.330869 349.455132 
L 433.445754 302.535641 
L 434.560639 290.834203 
L 435.675524 283.178485 
L 436.79041 277.599872 
L 437.905295 273.88313 
L 439.02018 319.113989 
L 440.135065 258.680186 
L 441.24995 274.100115 
L 442.364835 337.862187 
L 443.47972 267.648313 
L 444.594605 249.712059 
L 445.709491 267.492574 
L 446.824376 273.554153 
L 447.939261 273.445661 
L 449.054146 367.281144 
L 450.169031 320.69238 
L 451.283916 321.894546 
L 452.398801 314.48906 
L 453.513686 318.722017 
L 454.628571 357.735557 
L 455.743457 333.158514 
L 456.858342 353.719586 
L 457.973227 310.884311 
L 459.088112 300.021065 
L 460.202997 313.472381 
L 461.317882 296.740043 
L 462.432767 322.221773 
L 463.547652 358.110031 
L 464.662537 364.876811 
L 465.777423 326.269242 
L 466.892308 357.110851 
L 468.007193 365.204039 
L 469.122078 285.584568 
L 470.236963 280.616663 
L 471.351848 335.783332 
L 472.466733 369.36 
L 473.581618 362.610719 
L 474.696503 311.942987 
L 475.811389 341.736418 
L 478.041159 277.820357 
L 479.156044 278.49056 
L 480.270929 307.020579 
L 481.385814 314.989526 
L 482.500699 285.616066 
L 483.615584 273.867381 
L 484.73047 286.741237 
L 485.845355 287.224204 
L 486.96024 328.566833 
L 488.075125 331.956347 
L 489.19001 367.939099 
L 490.304895 349.236397 
L 491.41978 309.363666 
L 492.534665 287.990651 
L 493.64955 315.769972 
L 494.764436 276.507948 
L 495.879321 270.929335 
L 496.994206 326.050508 
L 498.109091 306.364375 
L 498.109091 306.364375 
" style="fill:none;stroke:#1f77b4;stroke-linecap:square;stroke-width:1.5;"/>
   </g>
   <g id="line2d_34">
    <path clip-path="url(#pa792811ba3)" d="M 92.290909 297.221059 
L 93.405794 297.910299 
L 94.520679 292.345106 
L 95.635564 314.676278 
L 96.75045 301.013088 
L 97.865335 297.041798 
L 98.98022 300.613276 
L 100.095105 304.69522 
L 101.20999 309.358195 
L 102.324875 294.488302 
L 103.43976 301.322548 
L 104.554645 312.25928 
L 105.66953 316.122212 
L 106.784416 321.433998 
L 107.899301 307.946592 
L 109.014186 311.918967 
L 110.129071 289.930614 
L 111.243956 290.650608 
L 112.358841 298.732753 
L 113.473726 308.077056 
L 114.588611 300.120164 
L 115.703497 319.628335 
L 116.818382 305.275222 
L 117.933267 309.542167 
L 119.048152 323.144928 
L 120.163037 323.829967 
L 121.277922 316.32179 
L 122.392807 298.088919 
L 123.507692 285.978506 
L 124.622577 271.463976 
L 125.737463 280.792967 
L 126.852348 263.019138 
L 127.967233 271.7195 
L 129.082118 267.926269 
L 130.197003 285.517794 
L 131.311888 270.743932 
L 133.541658 281.379664 
L 134.656543 282.396446 
L 135.771429 298.941096 
L 136.886314 282.919699 
L 138.001199 282.926532 
L 139.116084 284.676478 
L 140.230969 289.992266 
L 141.345854 278.785798 
L 142.460739 290.564027 
L 143.575624 290.259431 
L 144.690509 278.160001 
L 145.805395 285.058801 
L 146.92028 273.269488 
L 148.035165 247.688012 
L 149.15005 259.101274 
L 150.264935 249.537363 
L 151.37982 248.657251 
L 152.494705 269.98722 
L 153.60959 260.994088 
L 154.724476 255.695575 
L 155.839361 243.18796 
L 156.954246 244.742472 
L 158.069131 243.396272 
L 159.184016 251.637569 
L 161.413786 282.23336 
L 162.528671 280.354249 
L 163.643556 264.597336 
L 164.758442 264.436421 
L 165.873327 264.673784 
L 166.988212 278.618919 
L 168.103097 280.261839 
L 169.217982 288.49718 
L 170.332867 285.849117 
L 171.447752 270.312636 
L 172.562637 267.412733 
L 173.677522 256.799475 
L 174.792408 259.192911 
L 175.907293 270.945892 
L 178.137063 224.938043 
L 179.251948 241.94282 
L 180.366833 235.724079 
L 181.481718 257.13551 
L 182.596603 238.585939 
L 183.711489 233.989988 
L 184.826374 235.084754 
L 185.941259 222.526732 
L 187.056144 246.484001 
L 188.171029 238.009169 
L 189.285914 240.12741 
L 190.400799 251.040062 
L 191.515684 237.555248 
L 192.630569 230.040348 
L 193.745455 232.77005 
L 194.86034 229.36768 
L 195.975225 229.80046 
L 197.09011 240.404697 
L 198.204995 243.194299 
L 199.31988 206.99726 
L 200.434765 218.6004 
L 201.54965 262.979313 
L 202.664535 259.784867 
L 203.779421 237.799421 
L 204.894306 243.689984 
L 206.009191 240.335066 
L 207.124076 236.574717 
L 208.238961 222.88534 
L 209.353846 227.282961 
L 210.468731 243.86212 
L 211.583616 214.827696 
L 212.698501 197.126867 
L 213.813387 216.441803 
L 214.928272 226.206515 
L 216.043157 234.387799 
L 217.158042 240.04829 
L 218.272927 208.035817 
L 219.387812 184.420534 
L 220.502697 185.042259 
L 221.617582 205.045268 
L 222.732468 220.104626 
L 223.847353 177.154075 
L 224.962238 170.419188 
L 226.077123 213.420983 
L 227.192008 228.079016 
L 228.306893 240.973149 
L 229.421778 255.612995 
L 230.536663 246.367963 
L 231.651548 245.002143 
L 232.766434 252.527111 
L 233.881319 270.660586 
L 234.996204 263.465374 
L 236.111089 228.775064 
L 237.225974 225.982732 
L 238.340859 248.28168 
L 239.455744 259.758897 
L 240.570629 269.706336 
L 241.685514 235.168346 
L 242.8004 234.735953 
L 243.915285 213.754024 
L 245.03017 225.104202 
L 246.145055 224.002659 
L 247.25994 210.334539 
L 248.374825 189.534447 
L 249.48971 193.646337 
L 250.604595 206.169673 
L 251.719481 175.547327 
L 252.834366 189.24492 
L 253.949251 196.00201 
L 255.064136 255.133038 
L 256.179021 228.324328 
L 257.293906 229.481356 
L 258.408791 209.226384 
L 259.523676 236.295012 
L 260.638561 246.778811 
L 261.753447 264.628438 
L 262.868332 212.382532 
L 263.983217 176.095532 
L 265.098102 149.798621 
L 266.212987 139.415263 
L 267.327872 187.222759 
L 268.442757 226.645865 
L 269.557642 224.255425 
L 270.672527 280.338288 
L 271.787413 268.182074 
L 272.902298 262.73379 
L 274.017183 231.053392 
L 275.132068 238.980268 
L 276.246953 212.690478 
L 277.361838 219.852267 
L 278.476723 192.988701 
L 279.591608 184.214387 
L 280.706494 252.984624 
L 281.821379 249.38572 
L 282.936264 258.851211 
L 284.051149 234.980983 
L 285.166034 199.563292 
L 286.280919 150.485393 
L 287.395804 150.850854 
L 288.510689 147.4205 
L 289.625574 143.380916 
L 290.74046 133.806234 
L 291.855345 134.10221 
L 292.97023 145.601461 
L 294.085115 169.761798 
L 295.2 173.720145 
L 296.314885 136.14636 
L 297.42977 189.93142 
L 298.544655 184.351951 
L 299.65954 213.826562 
L 300.774426 227.233454 
L 301.889311 178.26186 
L 303.004196 144.906183 
L 304.119081 133.913262 
L 305.233966 135.290773 
L 306.348851 155.349193 
L 307.463736 228.665912 
L 308.578621 196.248792 
L 310.808392 249.648852 
L 311.923277 248.348181 
L 313.038162 245.321561 
L 315.267932 150.907679 
L 316.382817 162.25429 
L 317.497702 193.875594 
L 318.612587 197.56048 
L 319.727473 230.50403 
L 320.842358 222.212612 
L 321.957243 255.794768 
L 323.072128 242.51511 
L 324.187013 244.335474 
L 325.301898 252.096842 
L 326.416783 268.206759 
L 327.531668 237.890516 
L 328.646553 245.008605 
L 329.761439 236.377408 
L 331.991209 249.180134 
L 333.106094 262.507783 
L 334.220979 267.569477 
L 335.335864 238.212691 
L 336.450749 245.617062 
L 337.565634 249.951385 
L 338.680519 237.044199 
L 339.795405 262.550254 
L 340.91029 230.431874 
L 342.025175 268.927003 
L 343.14006 252.66638 
L 344.254945 212.713981 
L 345.36983 254.148542 
L 346.484715 268.851845 
L 347.5996 267.204214 
L 348.714486 264.865223 
L 349.829371 260.256085 
L 350.944256 193.827156 
L 352.059141 221.153661 
L 353.174026 257.731366 
L 354.288911 254.135494 
L 355.403796 259.723418 
L 356.518681 264.343396 
L 357.633566 265.715605 
L 358.748452 274.209194 
L 359.863337 268.365123 
L 360.978222 274.622886 
L 362.093107 260.235043 
L 363.207992 270.55857 
L 364.322877 262.123354 
L 365.437762 277.196429 
L 366.552647 266.848845 
L 368.782418 218.69657 
L 369.897303 232.793815 
L 371.012188 261.567751 
L 372.127073 272.250584 
L 373.241958 277.738965 
L 374.356843 274.81153 
L 375.471728 251.476634 
L 376.586613 272.900853 
L 377.701499 263.906488 
L 378.816384 271.079612 
L 379.931269 265.060271 
L 381.046154 278.224372 
L 382.161039 270.531 
L 383.275924 273.9603 
L 384.390809 266.484822 
L 385.505694 262.681827 
L 386.620579 239.901035 
L 387.735465 223.31821 
L 388.85035 258.775998 
L 391.08012 270.223739 
L 392.195005 280.132999 
L 393.30989 304.942798 
L 395.53966 298.866707 
L 396.654545 293.528758 
L 397.769431 273.058892 
L 398.884316 282.050928 
L 399.999201 248.956322 
L 401.114086 247.055192 
L 402.228971 265.513048 
L 403.343856 279.879137 
L 404.458741 302.230103 
L 405.573626 295.578622 
L 406.688511 282.856461 
L 407.803397 281.966009 
L 408.918282 284.662988 
L 410.033167 309.776248 
L 411.148052 309.737899 
L 412.262937 323.426246 
L 413.377822 310.086291 
L 414.492707 293.871749 
L 415.607592 294.037235 
L 416.722478 280.857082 
L 417.837363 279.40756 
L 418.952248 287.278722 
L 420.067133 275.95797 
L 421.182018 287.265604 
L 422.296903 274.70509 
L 423.411788 284.834925 
L 424.526673 293.795201 
L 425.641558 281.750848 
L 426.756444 291.25955 
L 427.871329 284.321208 
L 428.986214 280.84949 
L 430.101099 279.031054 
L 431.215984 292.476035 
L 432.330869 313.845924 
L 433.445754 290.809282 
L 434.560639 278.629113 
L 435.675524 272.215266 
L 436.79041 289.608912 
L 437.905295 281.99123 
L 439.02018 287.526582 
L 440.135065 265.561427 
L 441.24995 282.417952 
L 442.364835 286.556196 
L 443.47972 278.772574 
L 444.594605 257.398755 
L 445.709491 268.43476 
L 446.824376 261.481955 
L 449.054146 328.955008 
L 450.169031 315.763008 
L 451.283916 312.207296 
L 452.398801 313.579097 
L 453.513686 306.49651 
L 454.628571 312.936484 
L 455.743457 308.973733 
L 456.858342 311.605168 
L 457.973227 310.171854 
L 459.088112 310.21728 
L 460.202997 310.771165 
L 461.317882 300.179988 
L 462.432767 302.587317 
L 463.547652 309.820095 
L 464.662537 309.8585 
L 465.777423 305.281622 
L 466.892308 315.54367 
L 468.007193 319.880192 
L 469.122078 319.542433 
L 470.236963 304.158912 
L 471.351848 294.559785 
L 472.466733 315.120746 
L 473.581618 319.99217 
L 474.696503 316.087157 
L 475.811389 306.081768 
L 476.926274 305.214615 
L 478.041159 304.701968 
L 479.156044 310.737332 
L 480.270929 318.376205 
L 481.385814 325.022259 
L 482.500699 286.556737 
L 483.615584 282.281929 
L 484.73047 282.35702 
L 485.845355 302.028956 
L 486.96024 301.395238 
L 488.075125 319.790675 
L 489.19001 320.498872 
L 490.304895 318.757897 
L 491.41978 310.866462 
L 492.534665 308.662645 
L 493.64955 307.244234 
L 494.764436 310.621386 
L 495.879321 310.427653 
L 496.994206 311.131942 
L 498.109091 318.967063 
L 498.109091 318.967063 
" style="fill:none;stroke:#ff7f0e;stroke-linecap:square;stroke-width:1.5;"/>
   </g>
   <g id="patch_3">
    <path d="M 72 384.48 
L 72 51.84 
" style="fill:none;stroke:#000000;stroke-linecap:square;stroke-linejoin:miter;stroke-width:0.8;"/>
   </g>
   <g id="patch_4">
    <path d="M 518.4 384.48 
L 518.4 51.84 
" style="fill:none;stroke:#000000;stroke-linecap:square;stroke-linejoin:miter;stroke-width:0.8;"/>
   </g>
   <g id="patch_5">
    <path d="M 72 384.48 
L 518.4 384.48 
" style="fill:none;stroke:#000000;stroke-linecap:square;stroke-linejoin:miter;stroke-width:0.8;"/>
   </g>
   <g id="patch_6">
    <path d="M 72 51.84 
L 518.4 51.84 
" style="fill:none;stroke:#000000;stroke-linecap:square;stroke-linejoin:miter;stroke-width:0.8;"/>
   </g>
   <g id="text_19">
    <!-- $O_3$ BETN073 2010: Island DNN (MSE: 154.93, sMAPE: 19.61%, MASE: 0.68) -->
    <g transform="translate(71.04 45.84)scale(0.12 -0.12)">
     <defs>
      <path d="M 19.671875 34.8125 
L 19.671875 8.109375 
L 35.5 8.109375 
Q 43.453125 8.109375 47.28125 11.40625 
Q 51.125 14.703125 51.125 21.484375 
Q 51.125 28.328125 47.28125 31.5625 
Q 43.453125 34.8125 35.5 34.8125 
z
M 19.671875 64.796875 
L 19.671875 42.828125 
L 34.28125 42.828125 
Q 41.5 42.828125 45.03125 45.53125 
Q 48.578125 48.25 48.578125 53.8125 
Q 48.578125 59.328125 45.03125 62.0625 
Q 41.5 64.796875 34.28125 64.796875 
z
M 9.8125 72.90625 
L 35.015625 72.90625 
Q 46.296875 72.90625 52.390625 68.21875 
Q 58.5 63.53125 58.5 54.890625 
Q 58.5 48.1875 55.375 44.234375 
Q 52.25 40.28125 46.1875 39.3125 
Q 53.46875 37.75 57.5 32.78125 
Q 61.53125 27.828125 61.53125 20.40625 
Q 61.53125 10.640625 54.890625 5.3125 
Q 48.25 0 35.984375 0 
L 9.8125 0 
z
" id="DejaVuSans-66"/>
      <path d="M 9.8125 72.90625 
L 55.90625 72.90625 
L 55.90625 64.59375 
L 19.671875 64.59375 
L 19.671875 43.015625 
L 54.390625 43.015625 
L 54.390625 34.71875 
L 19.671875 34.71875 
L 19.671875 8.296875 
L 56.78125 8.296875 
L 56.78125 0 
L 9.8125 0 
z
" id="DejaVuSans-69"/>
      <path d="M -0.296875 72.90625 
L 61.375 72.90625 
L 61.375 64.59375 
L 35.5 64.59375 
L 35.5 0 
L 25.59375 0 
L 25.59375 64.59375 
L -0.296875 64.59375 
z
" id="DejaVuSans-84"/>
      <path d="M 9.8125 72.90625 
L 23.09375 72.90625 
L 55.421875 11.921875 
L 55.421875 72.90625 
L 64.984375 72.90625 
L 64.984375 0 
L 51.703125 0 
L 19.390625 60.984375 
L 19.390625 0 
L 9.8125 0 
z
" id="DejaVuSans-78"/>
      <path d="M 11.71875 12.40625 
L 22.015625 12.40625 
L 22.015625 0 
L 11.71875 0 
z
M 11.71875 51.703125 
L 22.015625 51.703125 
L 22.015625 39.3125 
L 11.71875 39.3125 
z
" id="DejaVuSans-58"/>
      <path d="M 9.8125 72.90625 
L 19.671875 72.90625 
L 19.671875 0 
L 9.8125 0 
z
" id="DejaVuSans-73"/>
      <path d="M 44.28125 53.078125 
L 44.28125 44.578125 
Q 40.484375 46.53125 36.375 47.5 
Q 32.28125 48.484375 27.875 48.484375 
Q 21.1875 48.484375 17.84375 46.4375 
Q 14.5 44.390625 14.5 40.28125 
Q 14.5 37.15625 16.890625 35.375 
Q 19.28125 33.59375 26.515625 31.984375 
L 29.59375 31.296875 
Q 39.15625 29.25 43.1875 25.515625 
Q 47.21875 21.78125 47.21875 15.09375 
Q 47.21875 7.46875 41.1875 3.015625 
Q 35.15625 -1.421875 24.609375 -1.421875 
Q 20.21875 -1.421875 15.453125 -0.5625 
Q 10.6875 0.296875 5.421875 2 
L 5.421875 11.28125 
Q 10.40625 8.6875 15.234375 7.390625 
Q 20.0625 6.109375 24.8125 6.109375 
Q 31.15625 6.109375 34.5625 8.28125 
Q 37.984375 10.453125 37.984375 14.40625 
Q 37.984375 18.0625 35.515625 20.015625 
Q 33.0625 21.96875 24.703125 23.78125 
L 21.578125 24.515625 
Q 13.234375 26.265625 9.515625 29.90625 
Q 5.8125 33.546875 5.8125 39.890625 
Q 5.8125 47.609375 11.28125 51.796875 
Q 16.75 56 26.8125 56 
Q 31.78125 56 36.171875 55.265625 
Q 40.578125 54.546875 44.28125 53.078125 
z
" id="DejaVuSans-115"/>
      <path d="M 9.421875 75.984375 
L 18.40625 75.984375 
L 18.40625 0 
L 9.421875 0 
z
" id="DejaVuSans-108"/>
      <path d="M 54.890625 33.015625 
L 54.890625 0 
L 45.90625 0 
L 45.90625 32.71875 
Q 45.90625 40.484375 42.875 44.328125 
Q 39.84375 48.1875 33.796875 48.1875 
Q 26.515625 48.1875 22.3125 43.546875 
Q 18.109375 38.921875 18.109375 30.90625 
L 18.109375 0 
L 9.078125 0 
L 9.078125 54.6875 
L 18.109375 54.6875 
L 18.109375 46.1875 
Q 21.34375 51.125 25.703125 53.5625 
Q 30.078125 56 35.796875 56 
Q 45.21875 56 50.046875 50.171875 
Q 54.890625 44.34375 54.890625 33.015625 
z
" id="DejaVuSans-110"/>
      <path d="M 45.40625 46.390625 
L 45.40625 75.984375 
L 54.390625 75.984375 
L 54.390625 0 
L 45.40625 0 
L 45.40625 8.203125 
Q 42.578125 3.328125 38.25 0.953125 
Q 33.9375 -1.421875 27.875 -1.421875 
Q 17.96875 -1.421875 11.734375 6.484375 
Q 5.515625 14.40625 5.515625 27.296875 
Q 5.515625 40.1875 11.734375 48.09375 
Q 17.96875 56 27.875 56 
Q 33.9375 56 38.25 53.625 
Q 42.578125 51.265625 45.40625 46.390625 
z
M 14.796875 27.296875 
Q 14.796875 17.390625 18.875 11.75 
Q 22.953125 6.109375 30.078125 6.109375 
Q 37.203125 6.109375 41.296875 11.75 
Q 45.40625 17.390625 45.40625 27.296875 
Q 45.40625 37.203125 41.296875 42.84375 
Q 37.203125 48.484375 30.078125 48.484375 
Q 22.953125 48.484375 18.875 42.84375 
Q 14.796875 37.203125 14.796875 27.296875 
z
" id="DejaVuSans-100"/>
      <path d="M 31 75.875 
Q 24.46875 64.65625 21.28125 53.65625 
Q 18.109375 42.671875 18.109375 31.390625 
Q 18.109375 20.125 21.3125 9.0625 
Q 24.515625 -2 31 -13.1875 
L 23.1875 -13.1875 
Q 15.875 -1.703125 12.234375 9.375 
Q 8.59375 20.453125 8.59375 31.390625 
Q 8.59375 42.28125 12.203125 53.3125 
Q 15.828125 64.359375 23.1875 75.875 
z
" id="DejaVuSans-40"/>
      <path d="M 9.8125 72.90625 
L 24.515625 72.90625 
L 43.109375 23.296875 
L 61.8125 72.90625 
L 76.515625 72.90625 
L 76.515625 0 
L 66.890625 0 
L 66.890625 64.015625 
L 48.09375 14.015625 
L 38.1875 14.015625 
L 19.390625 64.015625 
L 19.390625 0 
L 9.8125 0 
z
" id="DejaVuSans-77"/>
      <path d="M 53.515625 70.515625 
L 53.515625 60.890625 
Q 47.90625 63.578125 42.921875 64.890625 
Q 37.9375 66.21875 33.296875 66.21875 
Q 25.25 66.21875 20.875 63.09375 
Q 16.5 59.96875 16.5 54.203125 
Q 16.5 49.359375 19.40625 46.890625 
Q 22.3125 44.4375 30.421875 42.921875 
L 36.375 41.703125 
Q 47.40625 39.59375 52.65625 34.296875 
Q 57.90625 29 57.90625 20.125 
Q 57.90625 9.515625 50.796875 4.046875 
Q 43.703125 -1.421875 29.984375 -1.421875 
Q 24.8125 -1.421875 18.96875 -0.25 
Q 13.140625 0.921875 6.890625 3.21875 
L 6.890625 13.375 
Q 12.890625 10.015625 18.65625 8.296875 
Q 24.421875 6.59375 29.984375 6.59375 
Q 38.421875 6.59375 43.015625 9.90625 
Q 47.609375 13.234375 47.609375 19.390625 
Q 47.609375 24.75 44.3125 27.78125 
Q 41.015625 30.8125 33.5 32.328125 
L 27.484375 33.5 
Q 16.453125 35.6875 11.515625 40.375 
Q 6.59375 45.0625 6.59375 53.421875 
Q 6.59375 63.09375 13.40625 68.65625 
Q 20.21875 74.21875 32.171875 74.21875 
Q 37.3125 74.21875 42.625 73.28125 
Q 47.953125 72.359375 53.515625 70.515625 
z
" id="DejaVuSans-83"/>
      <path d="M 37.796875 64.3125 
L 12.890625 25.390625 
L 37.796875 25.390625 
z
M 35.203125 72.90625 
L 47.609375 72.90625 
L 47.609375 25.390625 
L 58.015625 25.390625 
L 58.015625 17.1875 
L 47.609375 17.1875 
L 47.609375 0 
L 37.796875 0 
L 37.796875 17.1875 
L 4.890625 17.1875 
L 4.890625 26.703125 
z
" id="DejaVuSans-52"/>
      <path d="M 10.6875 12.40625 
L 21 12.40625 
L 21 0 
L 10.6875 0 
z
" id="DejaVuSans-46"/>
      <path d="M 10.984375 1.515625 
L 10.984375 10.5 
Q 14.703125 8.734375 18.5 7.8125 
Q 22.3125 6.890625 25.984375 6.890625 
Q 35.75 6.890625 40.890625 13.453125 
Q 46.046875 20.015625 46.78125 33.40625 
Q 43.953125 29.203125 39.59375 26.953125 
Q 35.25 24.703125 29.984375 24.703125 
Q 19.046875 24.703125 12.671875 31.3125 
Q 6.296875 37.9375 6.296875 49.421875 
Q 6.296875 60.640625 12.9375 67.421875 
Q 19.578125 74.21875 30.609375 74.21875 
Q 43.265625 74.21875 49.921875 64.515625 
Q 56.59375 54.828125 56.59375 36.375 
Q 56.59375 19.140625 48.40625 8.859375 
Q 40.234375 -1.421875 26.421875 -1.421875 
Q 22.703125 -1.421875 18.890625 -0.6875 
Q 15.09375 0.046875 10.984375 1.515625 
z
M 30.609375 32.421875 
Q 37.25 32.421875 41.125 36.953125 
Q 45.015625 41.5 45.015625 49.421875 
Q 45.015625 57.28125 41.125 61.84375 
Q 37.25 66.40625 30.609375 66.40625 
Q 23.96875 66.40625 20.09375 61.84375 
Q 16.21875 57.28125 16.21875 49.421875 
Q 16.21875 41.5 20.09375 36.953125 
Q 23.96875 32.421875 30.609375 32.421875 
z
" id="DejaVuSans-57"/>
      <path d="M 11.71875 12.40625 
L 22.015625 12.40625 
L 22.015625 4 
L 14.015625 -11.625 
L 7.71875 -11.625 
L 11.71875 4 
z
" id="DejaVuSans-44"/>
      <path d="M 34.1875 63.1875 
L 20.796875 26.90625 
L 47.609375 26.90625 
z
M 28.609375 72.90625 
L 39.796875 72.90625 
L 67.578125 0 
L 57.328125 0 
L 50.6875 18.703125 
L 17.828125 18.703125 
L 11.1875 0 
L 0.78125 0 
z
" id="DejaVuSans-65"/>
      <path d="M 19.671875 64.796875 
L 19.671875 37.40625 
L 32.078125 37.40625 
Q 38.96875 37.40625 42.71875 40.96875 
Q 46.484375 44.53125 46.484375 51.125 
Q 46.484375 57.671875 42.71875 61.234375 
Q 38.96875 64.796875 32.078125 64.796875 
z
M 9.8125 72.90625 
L 32.078125 72.90625 
Q 44.34375 72.90625 50.609375 67.359375 
Q 56.890625 61.8125 56.890625 51.125 
Q 56.890625 40.328125 50.609375 34.8125 
Q 44.34375 29.296875 32.078125 29.296875 
L 19.671875 29.296875 
L 19.671875 0 
L 9.8125 0 
z
" id="DejaVuSans-80"/>
      <path d="M 33.015625 40.375 
Q 26.375 40.375 22.484375 35.828125 
Q 18.609375 31.296875 18.609375 23.390625 
Q 18.609375 15.53125 22.484375 10.953125 
Q 26.375 6.390625 33.015625 6.390625 
Q 39.65625 6.390625 43.53125 10.953125 
Q 47.40625 15.53125 47.40625 23.390625 
Q 47.40625 31.296875 43.53125 35.828125 
Q 39.65625 40.375 33.015625 40.375 
z
M 52.59375 71.296875 
L 52.59375 62.3125 
Q 48.875 64.0625 45.09375 64.984375 
Q 41.3125 65.921875 37.59375 65.921875 
Q 27.828125 65.921875 22.671875 59.328125 
Q 17.53125 52.734375 16.796875 39.40625 
Q 19.671875 43.65625 24.015625 45.921875 
Q 28.375 48.1875 33.59375 48.1875 
Q 44.578125 48.1875 50.953125 41.515625 
Q 57.328125 34.859375 57.328125 23.390625 
Q 57.328125 12.15625 50.6875 5.359375 
Q 44.046875 -1.421875 33.015625 -1.421875 
Q 20.359375 -1.421875 13.671875 8.265625 
Q 6.984375 17.96875 6.984375 36.375 
Q 6.984375 53.65625 15.1875 63.9375 
Q 23.390625 74.21875 37.203125 74.21875 
Q 40.921875 74.21875 44.703125 73.484375 
Q 48.484375 72.75 52.59375 71.296875 
z
" id="DejaVuSans-54"/>
      <path d="M 72.703125 32.078125 
Q 68.453125 32.078125 66.03125 28.46875 
Q 63.625 24.859375 63.625 18.40625 
Q 63.625 12.0625 66.03125 8.421875 
Q 68.453125 4.78125 72.703125 4.78125 
Q 76.859375 4.78125 79.265625 8.421875 
Q 81.6875 12.0625 81.6875 18.40625 
Q 81.6875 24.8125 79.265625 28.4375 
Q 76.859375 32.078125 72.703125 32.078125 
z
M 72.703125 38.28125 
Q 80.421875 38.28125 84.953125 32.90625 
Q 89.5 27.546875 89.5 18.40625 
Q 89.5 9.28125 84.9375 3.921875 
Q 80.375 -1.421875 72.703125 -1.421875 
Q 64.890625 -1.421875 60.34375 3.921875 
Q 55.8125 9.28125 55.8125 18.40625 
Q 55.8125 27.59375 60.375 32.9375 
Q 64.9375 38.28125 72.703125 38.28125 
z
M 22.3125 68.015625 
Q 18.109375 68.015625 15.6875 64.375 
Q 13.28125 60.75 13.28125 54.390625 
Q 13.28125 47.953125 15.671875 44.328125 
Q 18.0625 40.71875 22.3125 40.71875 
Q 26.5625 40.71875 28.96875 44.328125 
Q 31.390625 47.953125 31.390625 54.390625 
Q 31.390625 60.6875 28.953125 64.34375 
Q 26.515625 68.015625 22.3125 68.015625 
z
M 66.40625 74.21875 
L 74.21875 74.21875 
L 28.609375 -1.421875 
L 20.796875 -1.421875 
z
M 22.3125 74.21875 
Q 30.03125 74.21875 34.609375 68.875 
Q 39.203125 63.53125 39.203125 54.390625 
Q 39.203125 45.171875 34.640625 39.84375 
Q 30.078125 34.515625 22.3125 34.515625 
Q 14.546875 34.515625 10.03125 39.859375 
Q 5.515625 45.21875 5.515625 54.390625 
Q 5.515625 63.484375 10.046875 68.84375 
Q 14.59375 74.21875 22.3125 74.21875 
z
" id="DejaVuSans-37"/>
      <path d="M 8.015625 75.875 
L 15.828125 75.875 
Q 23.140625 64.359375 26.78125 53.3125 
Q 30.421875 42.28125 30.421875 31.390625 
Q 30.421875 20.453125 26.78125 9.375 
Q 23.140625 -1.703125 15.828125 -13.1875 
L 8.015625 -13.1875 
Q 14.5 -2 17.703125 9.0625 
Q 20.90625 20.125 20.90625 31.390625 
Q 20.90625 42.671875 17.703125 53.65625 
Q 14.5 64.65625 8.015625 75.875 
z
" id="DejaVuSans-41"/>
     </defs>
     <use transform="translate(0 0.015625)" xlink:href="#DejaVuSans-Oblique-79"/>
     <use transform="translate(78.710938 -16.390625)scale(0.7)" xlink:href="#DejaVuSans-51"/>
     <use transform="translate(125.981445 0.015625)" xlink:href="#DejaVuSans-32"/>
     <use transform="translate(157.768555 0.015625)" xlink:href="#DejaVuSans-66"/>
     <use transform="translate(226.37207 0.015625)" xlink:href="#DejaVuSans-69"/>
     <use transform="translate(289.555664 0.015625)" xlink:href="#DejaVuSans-84"/>
     <use transform="translate(350.639648 0.015625)" xlink:href="#DejaVuSans-78"/>
     <use transform="translate(425.444336 0.015625)" xlink:href="#DejaVuSans-48"/>
     <use transform="translate(489.067383 0.015625)" xlink:href="#DejaVuSans-55"/>
     <use transform="translate(552.69043 0.015625)" xlink:href="#DejaVuSans-51"/>
     <use transform="translate(616.313477 0.015625)" xlink:href="#DejaVuSans-32"/>
     <use transform="translate(648.100586 0.015625)" xlink:href="#DejaVuSans-50"/>
     <use transform="translate(711.723633 0.015625)" xlink:href="#DejaVuSans-48"/>
     <use transform="translate(775.34668 0.015625)" xlink:href="#DejaVuSans-49"/>
     <use transform="translate(838.969727 0.015625)" xlink:href="#DejaVuSans-48"/>
     <use transform="translate(902.592773 0.015625)" xlink:href="#DejaVuSans-58"/>
     <use transform="translate(936.28418 0.015625)" xlink:href="#DejaVuSans-32"/>
     <use transform="translate(968.071289 0.015625)" xlink:href="#DejaVuSans-73"/>
     <use transform="translate(997.563477 0.015625)" xlink:href="#DejaVuSans-115"/>
     <use transform="translate(1049.663086 0.015625)" xlink:href="#DejaVuSans-108"/>
     <use transform="translate(1077.446289 0.015625)" xlink:href="#DejaVuSans-97"/>
     <use transform="translate(1138.725586 0.015625)" xlink:href="#DejaVuSans-110"/>
     <use transform="translate(1202.104492 0.015625)" xlink:href="#DejaVuSans-100"/>
     <use transform="translate(1265.581055 0.015625)" xlink:href="#DejaVuSans-32"/>
     <use transform="translate(1297.368164 0.015625)" xlink:href="#DejaVuSans-68"/>
     <use transform="translate(1374.370117 0.015625)" xlink:href="#DejaVuSans-78"/>
     <use transform="translate(1449.174805 0.015625)" xlink:href="#DejaVuSans-78"/>
     <use transform="translate(1523.979492 0.015625)" xlink:href="#DejaVuSans-32"/>
     <use transform="translate(1555.766602 0.015625)" xlink:href="#DejaVuSans-40"/>
     <use transform="translate(1594.780273 0.015625)" xlink:href="#DejaVuSans-77"/>
     <use transform="translate(1681.05957 0.015625)" xlink:href="#DejaVuSans-83"/>
     <use transform="translate(1744.536133 0.015625)" xlink:href="#DejaVuSans-69"/>
     <use transform="translate(1807.719727 0.015625)" xlink:href="#DejaVuSans-58"/>
     <use transform="translate(1841.411133 0.015625)" xlink:href="#DejaVuSans-32"/>
     <use transform="translate(1873.198242 0.015625)" xlink:href="#DejaVuSans-49"/>
     <use transform="translate(1936.821289 0.015625)" xlink:href="#DejaVuSans-53"/>
     <use transform="translate(2000.444336 0.015625)" xlink:href="#DejaVuSans-52"/>
     <use transform="translate(2064.067383 0.015625)" xlink:href="#DejaVuSans-46"/>
     <use transform="translate(2095.854492 0.015625)" xlink:href="#DejaVuSans-57"/>
     <use transform="translate(2159.477539 0.015625)" xlink:href="#DejaVuSans-51"/>
     <use transform="translate(2223.100586 0.015625)" xlink:href="#DejaVuSans-44"/>
     <use transform="translate(2254.887695 0.015625)" xlink:href="#DejaVuSans-32"/>
     <use transform="translate(2286.674805 0.015625)" xlink:href="#DejaVuSans-115"/>
     <use transform="translate(2338.774414 0.015625)" xlink:href="#DejaVuSans-77"/>
     <use transform="translate(2425.053711 0.015625)" xlink:href="#DejaVuSans-65"/>
     <use transform="translate(2493.461914 0.015625)" xlink:href="#DejaVuSans-80"/>
     <use transform="translate(2553.764648 0.015625)" xlink:href="#DejaVuSans-69"/>
     <use transform="translate(2616.948242 0.015625)" xlink:href="#DejaVuSans-58"/>
     <use transform="translate(2650.639648 0.015625)" xlink:href="#DejaVuSans-32"/>
     <use transform="translate(2682.426758 0.015625)" xlink:href="#DejaVuSans-49"/>
     <use transform="translate(2746.049805 0.015625)" xlink:href="#DejaVuSans-57"/>
     <use transform="translate(2809.672852 0.015625)" xlink:href="#DejaVuSans-46"/>
     <use transform="translate(2841.459961 0.015625)" xlink:href="#DejaVuSans-54"/>
     <use transform="translate(2905.083008 0.015625)" xlink:href="#DejaVuSans-49"/>
     <use transform="translate(2968.706055 0.015625)" xlink:href="#DejaVuSans-37"/>
     <use transform="translate(3063.725586 0.015625)" xlink:href="#DejaVuSans-44"/>
     <use transform="translate(3095.512695 0.015625)" xlink:href="#DejaVuSans-32"/>
     <use transform="translate(3127.299805 0.015625)" xlink:href="#DejaVuSans-77"/>
     <use transform="translate(3213.579102 0.015625)" xlink:href="#DejaVuSans-65"/>
     <use transform="translate(3281.987305 0.015625)" xlink:href="#DejaVuSans-83"/>
     <use transform="translate(3345.463867 0.015625)" xlink:href="#DejaVuSans-69"/>
     <use transform="translate(3408.647461 0.015625)" xlink:href="#DejaVuSans-58"/>
     <use transform="translate(3442.338867 0.015625)" xlink:href="#DejaVuSans-32"/>
     <use transform="translate(3474.125977 0.015625)" xlink:href="#DejaVuSans-48"/>
     <use transform="translate(3537.749023 0.015625)" xlink:href="#DejaVuSans-46"/>
     <use transform="translate(3569.536133 0.015625)" xlink:href="#DejaVuSans-54"/>
     <use transform="translate(3633.15918 0.015625)" xlink:href="#DejaVuSans-56"/>
     <use transform="translate(3696.782227 0.015625)" xlink:href="#DejaVuSans-41"/>
    </g>
   </g>
   <g id="legend_1">
    <g id="patch_7">
     <path d="M 431.965625 89.19625 
L 511.4 89.19625 
Q 513.4 89.19625 513.4 87.19625 
L 513.4 58.84 
Q 513.4 56.84 511.4 56.84 
L 431.965625 56.84 
Q 429.965625 56.84 429.965625 58.84 
L 429.965625 87.19625 
Q 429.965625 89.19625 431.965625 89.19625 
z
" style="fill:#ffffff;opacity:0.8;stroke:#cccccc;stroke-linejoin:miter;"/>
    </g>
    <g id="line2d_35">
     <path d="M 433.965625 64.938437 
L 453.965625 64.938437 
" style="fill:none;stroke:#1f77b4;stroke-linecap:square;stroke-width:1.5;"/>
    </g>
    <g id="line2d_36"/>
    <g id="text_20">
     <!-- expected -->
     <g transform="translate(461.965625 68.438437)scale(0.1 -0.1)">
      <defs>
       <path d="M 56.203125 29.59375 
L 56.203125 25.203125 
L 14.890625 25.203125 
Q 15.484375 15.921875 20.484375 11.0625 
Q 25.484375 6.203125 34.421875 6.203125 
Q 39.59375 6.203125 44.453125 7.46875 
Q 49.3125 8.734375 54.109375 11.28125 
L 54.109375 2.78125 
Q 49.265625 0.734375 44.1875 -0.34375 
Q 39.109375 -1.421875 33.890625 -1.421875 
Q 20.796875 -1.421875 13.15625 6.1875 
Q 5.515625 13.8125 5.515625 26.8125 
Q 5.515625 40.234375 12.765625 48.109375 
Q 20.015625 56 32.328125 56 
Q 43.359375 56 49.78125 48.890625 
Q 56.203125 41.796875 56.203125 29.59375 
z
M 47.21875 32.234375 
Q 47.125 39.59375 43.09375 43.984375 
Q 39.0625 48.390625 32.421875 48.390625 
Q 24.90625 48.390625 20.390625 44.140625 
Q 15.875 39.890625 15.1875 32.171875 
z
" id="DejaVuSans-101"/>
       <path d="M 18.109375 8.203125 
L 18.109375 -20.796875 
L 9.078125 -20.796875 
L 9.078125 54.6875 
L 18.109375 54.6875 
L 18.109375 46.390625 
Q 20.953125 51.265625 25.265625 53.625 
Q 29.59375 56 35.59375 56 
Q 45.5625 56 51.78125 48.09375 
Q 58.015625 40.1875 58.015625 27.296875 
Q 58.015625 14.40625 51.78125 6.484375 
Q 45.5625 -1.421875 35.59375 -1.421875 
Q 29.59375 -1.421875 25.265625 0.953125 
Q 20.953125 3.328125 18.109375 8.203125 
z
M 48.6875 27.296875 
Q 48.6875 37.203125 44.609375 42.84375 
Q 40.53125 48.484375 33.40625 48.484375 
Q 26.265625 48.484375 22.1875 42.84375 
Q 18.109375 37.203125 18.109375 27.296875 
Q 18.109375 17.390625 22.1875 11.75 
Q 26.265625 6.109375 33.40625 6.109375 
Q 40.53125 6.109375 44.609375 11.75 
Q 48.6875 17.390625 48.6875 27.296875 
z
" id="DejaVuSans-112"/>
       <path d="M 48.78125 52.59375 
L 48.78125 44.1875 
Q 44.96875 46.296875 41.140625 47.34375 
Q 37.3125 48.390625 33.40625 48.390625 
Q 24.65625 48.390625 19.8125 42.84375 
Q 14.984375 37.3125 14.984375 27.296875 
Q 14.984375 17.28125 19.8125 11.734375 
Q 24.65625 6.203125 33.40625 6.203125 
Q 37.3125 6.203125 41.140625 7.25 
Q 44.96875 8.296875 48.78125 10.40625 
L 48.78125 2.09375 
Q 45.015625 0.34375 40.984375 -0.53125 
Q 36.96875 -1.421875 32.421875 -1.421875 
Q 20.0625 -1.421875 12.78125 6.34375 
Q 5.515625 14.109375 5.515625 27.296875 
Q 5.515625 40.671875 12.859375 48.328125 
Q 20.21875 56 33.015625 56 
Q 37.15625 56 41.109375 55.140625 
Q 45.0625 54.296875 48.78125 52.59375 
z
" id="DejaVuSans-99"/>
       <path d="M 18.3125 70.21875 
L 18.3125 54.6875 
L 36.8125 54.6875 
L 36.8125 47.703125 
L 18.3125 47.703125 
L 18.3125 18.015625 
Q 18.3125 11.328125 20.140625 9.421875 
Q 21.96875 7.515625 27.59375 7.515625 
L 36.8125 7.515625 
L 36.8125 0 
L 27.59375 0 
Q 17.1875 0 13.234375 3.875 
Q 9.28125 7.765625 9.28125 18.015625 
L 9.28125 47.703125 
L 2.6875 47.703125 
L 2.6875 54.6875 
L 9.28125 54.6875 
L 9.28125 70.21875 
z
" id="DejaVuSans-116"/>
      </defs>
      <use xlink:href="#DejaVuSans-101"/>
      <use x="59.773438" xlink:href="#DejaVuSans-120"/>
      <use x="118.953125" xlink:href="#DejaVuSans-112"/>
      <use x="182.429688" xlink:href="#DejaVuSans-101"/>
      <use x="243.953125" xlink:href="#DejaVuSans-99"/>
      <use x="298.933594" xlink:href="#DejaVuSans-116"/>
      <use x="338.142578" xlink:href="#DejaVuSans-101"/>
      <use x="399.666016" xlink:href="#DejaVuSans-100"/>
     </g>
    </g>
    <g id="line2d_37">
     <path d="M 433.965625 79.616562 
L 453.965625 79.616562 
" style="fill:none;stroke:#ff7f0e;stroke-linecap:square;stroke-width:1.5;"/>
    </g>
    <g id="line2d_38"/>
    <g id="text_21">
     <!-- predicted -->
     <g transform="translate(461.965625 83.116562)scale(0.1 -0.1)">
      <defs>
       <path d="M 9.421875 54.6875 
L 18.40625 54.6875 
L 18.40625 0 
L 9.421875 0 
z
M 9.421875 75.984375 
L 18.40625 75.984375 
L 18.40625 64.59375 
L 9.421875 64.59375 
z
" id="DejaVuSans-105"/>
      </defs>
      <use xlink:href="#DejaVuSans-112"/>
      <use x="63.476562" xlink:href="#DejaVuSans-114"/>
      <use x="102.339844" xlink:href="#DejaVuSans-101"/>
      <use x="163.863281" xlink:href="#DejaVuSans-100"/>
      <use x="227.339844" xlink:href="#DejaVuSans-105"/>
      <use x="255.123047" xlink:href="#DejaVuSans-99"/>
      <use x="310.103516" xlink:href="#DejaVuSans-116"/>
      <use x="349.3125" xlink:href="#DejaVuSans-101"/>
      <use x="410.835938" xlink:href="#DejaVuSans-100"/>
     </g>
    </g>
   </g>
  </g>
 </g>
 <defs>
  <clipPath id="pa792811ba3">
   <rect height="332.64" width="446.4" x="72" y="51.84"/>
  </clipPath>
 </defs>
</svg>
