<?xml version="1.0" encoding="utf-8" standalone="no"?>
<!DOCTYPE svg PUBLIC "-//W3C//DTD SVG 1.1//EN"
  "http://www.w3.org/Graphics/SVG/1.1/DTD/svg11.dtd">
<svg height="432pt" version="1.1" viewBox="0 0 576 432" width="576pt" xmlns="http://www.w3.org/2000/svg" xmlns:xlink="http://www.w3.org/1999/xlink">
 <metadata>
  <rdf:RDF xmlns:cc="http://creativecommons.org/ns#" xmlns:dc="http://purl.org/dc/elements/1.1/" xmlns:rdf="http://www.w3.org/1999/02/22-rdf-syntax-ns#">
   <cc:Work>
    <dc:type rdf:resource="http://purl.org/dc/dcmitype/StillImage"/>
    <dc:date>2021-10-06T00:09:52.528078</dc:date>
    <dc:format>image/svg+xml</dc:format>
    <dc:creator>
     <cc:Agent>
      <dc:title>Matplotlib v3.4.3, https://matplotlib.org/</dc:title>
     </cc:Agent>
    </dc:creator>
   </cc:Work>
  </rdf:RDF>
 </metadata>
 <defs>
  <style type="text/css">*{stroke-linecap:butt;stroke-linejoin:round;}</style>
 </defs>
 <g id="figure_1">
  <g id="patch_1">
   <path d="M 0 432 
L 576 432 
L 576 0 
L 0 0 
z
" style="fill:#ffffff;"/>
  </g>
  <g id="axes_1">
   <g id="patch_2">
    <path d="M 72 384.48 
L 518.4 384.48 
L 518.4 51.84 
L 72 51.84 
z
" style="fill:#ffffff;"/>
   </g>
   <g id="matplotlib.axis_1">
    <g id="xtick_1">
     <g id="line2d_1">
      <path clip-path="url(#p1ae30ee4f7)" d="M 92.290909 384.48 
L 92.290909 51.84 
" style="fill:none;stroke:#b0b0b0;stroke-linecap:square;stroke-width:0.8;"/>
     </g>
     <g id="line2d_2">
      <defs>
       <path d="M 0 0 
L 0 3.5 
" id="m4ff97afa1d" style="stroke:#000000;stroke-width:0.8;"/>
      </defs>
      <g>
       <use style="stroke:#000000;stroke-width:0.8;" x="92.290909" xlink:href="#m4ff97afa1d" y="384.48"/>
      </g>
     </g>
     <g id="text_1">
      <!-- 0 -->
      <g transform="translate(89.109659 399.078438)scale(0.1 -0.1)">
       <defs>
        <path d="M 2034 4250 
Q 1547 4250 1301 3770 
Q 1056 3291 1056 2328 
Q 1056 1369 1301 889 
Q 1547 409 2034 409 
Q 2525 409 2770 889 
Q 3016 1369 3016 2328 
Q 3016 3291 2770 3770 
Q 2525 4250 2034 4250 
z
M 2034 4750 
Q 2819 4750 3233 4129 
Q 3647 3509 3647 2328 
Q 3647 1150 3233 529 
Q 2819 -91 2034 -91 
Q 1250 -91 836 529 
Q 422 1150 422 2328 
Q 422 3509 836 4129 
Q 1250 4750 2034 4750 
z
" id="DejaVuSans-30" transform="scale(0.015625)"/>
       </defs>
       <use xlink:href="#DejaVuSans-30"/>
      </g>
     </g>
    </g>
    <g id="xtick_2">
     <g id="line2d_3">
      <path clip-path="url(#p1ae30ee4f7)" d="M 148.035165 384.48 
L 148.035165 51.84 
" style="fill:none;stroke:#b0b0b0;stroke-linecap:square;stroke-width:0.8;"/>
     </g>
     <g id="line2d_4">
      <g>
       <use style="stroke:#000000;stroke-width:0.8;" x="148.035165" xlink:href="#m4ff97afa1d" y="384.48"/>
      </g>
     </g>
     <g id="text_2">
      <!-- 50 -->
      <g transform="translate(141.672665 399.078438)scale(0.1 -0.1)">
       <defs>
        <path d="M 691 4666 
L 3169 4666 
L 3169 4134 
L 1269 4134 
L 1269 2991 
Q 1406 3038 1543 3061 
Q 1681 3084 1819 3084 
Q 2600 3084 3056 2656 
Q 3513 2228 3513 1497 
Q 3513 744 3044 326 
Q 2575 -91 1722 -91 
Q 1428 -91 1123 -41 
Q 819 9 494 109 
L 494 744 
Q 775 591 1075 516 
Q 1375 441 1709 441 
Q 2250 441 2565 725 
Q 2881 1009 2881 1497 
Q 2881 1984 2565 2268 
Q 2250 2553 1709 2553 
Q 1456 2553 1204 2497 
Q 953 2441 691 2322 
L 691 4666 
z
" id="DejaVuSans-35" transform="scale(0.015625)"/>
       </defs>
       <use xlink:href="#DejaVuSans-35"/>
       <use x="63.623047" xlink:href="#DejaVuSans-30"/>
      </g>
     </g>
    </g>
    <g id="xtick_3">
     <g id="line2d_5">
      <path clip-path="url(#p1ae30ee4f7)" d="M 203.779421 384.48 
L 203.779421 51.84 
" style="fill:none;stroke:#b0b0b0;stroke-linecap:square;stroke-width:0.8;"/>
     </g>
     <g id="line2d_6">
      <g>
       <use style="stroke:#000000;stroke-width:0.8;" x="203.779421" xlink:href="#m4ff97afa1d" y="384.48"/>
      </g>
     </g>
     <g id="text_3">
      <!-- 100 -->
      <g transform="translate(194.235671 399.078438)scale(0.1 -0.1)">
       <defs>
        <path d="M 794 531 
L 1825 531 
L 1825 4091 
L 703 3866 
L 703 4441 
L 1819 4666 
L 2450 4666 
L 2450 531 
L 3481 531 
L 3481 0 
L 794 0 
L 794 531 
z
" id="DejaVuSans-31" transform="scale(0.015625)"/>
       </defs>
       <use xlink:href="#DejaVuSans-31"/>
       <use x="63.623047" xlink:href="#DejaVuSans-30"/>
       <use x="127.246094" xlink:href="#DejaVuSans-30"/>
      </g>
     </g>
    </g>
    <g id="xtick_4">
     <g id="line2d_7">
      <path clip-path="url(#p1ae30ee4f7)" d="M 259.523676 384.48 
L 259.523676 51.84 
" style="fill:none;stroke:#b0b0b0;stroke-linecap:square;stroke-width:0.8;"/>
     </g>
     <g id="line2d_8">
      <g>
       <use style="stroke:#000000;stroke-width:0.8;" x="259.523676" xlink:href="#m4ff97afa1d" y="384.48"/>
      </g>
     </g>
     <g id="text_4">
      <!-- 150 -->
      <g transform="translate(249.979926 399.078438)scale(0.1 -0.1)">
       <use xlink:href="#DejaVuSans-31"/>
       <use x="63.623047" xlink:href="#DejaVuSans-35"/>
       <use x="127.246094" xlink:href="#DejaVuSans-30"/>
      </g>
     </g>
    </g>
    <g id="xtick_5">
     <g id="line2d_9">
      <path clip-path="url(#p1ae30ee4f7)" d="M 315.267932 384.48 
L 315.267932 51.84 
" style="fill:none;stroke:#b0b0b0;stroke-linecap:square;stroke-width:0.8;"/>
     </g>
     <g id="line2d_10">
      <g>
       <use style="stroke:#000000;stroke-width:0.8;" x="315.267932" xlink:href="#m4ff97afa1d" y="384.48"/>
      </g>
     </g>
     <g id="text_5">
      <!-- 200 -->
      <g transform="translate(305.724182 399.078438)scale(0.1 -0.1)">
       <defs>
        <path d="M 1228 531 
L 3431 531 
L 3431 0 
L 469 0 
L 469 531 
Q 828 903 1448 1529 
Q 2069 2156 2228 2338 
Q 2531 2678 2651 2914 
Q 2772 3150 2772 3378 
Q 2772 3750 2511 3984 
Q 2250 4219 1831 4219 
Q 1534 4219 1204 4116 
Q 875 4013 500 3803 
L 500 4441 
Q 881 4594 1212 4672 
Q 1544 4750 1819 4750 
Q 2544 4750 2975 4387 
Q 3406 4025 3406 3419 
Q 3406 3131 3298 2873 
Q 3191 2616 2906 2266 
Q 2828 2175 2409 1742 
Q 1991 1309 1228 531 
z
" id="DejaVuSans-32" transform="scale(0.015625)"/>
       </defs>
       <use xlink:href="#DejaVuSans-32"/>
       <use x="63.623047" xlink:href="#DejaVuSans-30"/>
       <use x="127.246094" xlink:href="#DejaVuSans-30"/>
      </g>
     </g>
    </g>
    <g id="xtick_6">
     <g id="line2d_11">
      <path clip-path="url(#p1ae30ee4f7)" d="M 371.012188 384.48 
L 371.012188 51.84 
" style="fill:none;stroke:#b0b0b0;stroke-linecap:square;stroke-width:0.8;"/>
     </g>
     <g id="line2d_12">
      <g>
       <use style="stroke:#000000;stroke-width:0.8;" x="371.012188" xlink:href="#m4ff97afa1d" y="384.48"/>
      </g>
     </g>
     <g id="text_6">
      <!-- 250 -->
      <g transform="translate(361.468438 399.078438)scale(0.1 -0.1)">
       <use xlink:href="#DejaVuSans-32"/>
       <use x="63.623047" xlink:href="#DejaVuSans-35"/>
       <use x="127.246094" xlink:href="#DejaVuSans-30"/>
      </g>
     </g>
    </g>
    <g id="xtick_7">
     <g id="line2d_13">
      <path clip-path="url(#p1ae30ee4f7)" d="M 426.756444 384.48 
L 426.756444 51.84 
" style="fill:none;stroke:#b0b0b0;stroke-linecap:square;stroke-width:0.8;"/>
     </g>
     <g id="line2d_14">
      <g>
       <use style="stroke:#000000;stroke-width:0.8;" x="426.756444" xlink:href="#m4ff97afa1d" y="384.48"/>
      </g>
     </g>
     <g id="text_7">
      <!-- 300 -->
      <g transform="translate(417.212694 399.078438)scale(0.1 -0.1)">
       <defs>
        <path d="M 2597 2516 
Q 3050 2419 3304 2112 
Q 3559 1806 3559 1356 
Q 3559 666 3084 287 
Q 2609 -91 1734 -91 
Q 1441 -91 1130 -33 
Q 819 25 488 141 
L 488 750 
Q 750 597 1062 519 
Q 1375 441 1716 441 
Q 2309 441 2620 675 
Q 2931 909 2931 1356 
Q 2931 1769 2642 2001 
Q 2353 2234 1838 2234 
L 1294 2234 
L 1294 2753 
L 1863 2753 
Q 2328 2753 2575 2939 
Q 2822 3125 2822 3475 
Q 2822 3834 2567 4026 
Q 2313 4219 1838 4219 
Q 1578 4219 1281 4162 
Q 984 4106 628 3988 
L 628 4550 
Q 988 4650 1302 4700 
Q 1616 4750 1894 4750 
Q 2613 4750 3031 4423 
Q 3450 4097 3450 3541 
Q 3450 3153 3228 2886 
Q 3006 2619 2597 2516 
z
" id="DejaVuSans-33" transform="scale(0.015625)"/>
       </defs>
       <use xlink:href="#DejaVuSans-33"/>
       <use x="63.623047" xlink:href="#DejaVuSans-30"/>
       <use x="127.246094" xlink:href="#DejaVuSans-30"/>
      </g>
     </g>
    </g>
    <g id="xtick_8">
     <g id="line2d_15">
      <path clip-path="url(#p1ae30ee4f7)" d="M 482.500699 384.48 
L 482.500699 51.84 
" style="fill:none;stroke:#b0b0b0;stroke-linecap:square;stroke-width:0.8;"/>
     </g>
     <g id="line2d_16">
      <g>
       <use style="stroke:#000000;stroke-width:0.8;" x="482.500699" xlink:href="#m4ff97afa1d" y="384.48"/>
      </g>
     </g>
     <g id="text_8">
      <!-- 350 -->
      <g transform="translate(472.956949 399.078438)scale(0.1 -0.1)">
       <use xlink:href="#DejaVuSans-33"/>
       <use x="63.623047" xlink:href="#DejaVuSans-35"/>
       <use x="127.246094" xlink:href="#DejaVuSans-30"/>
      </g>
     </g>
    </g>
    <g id="text_9">
     <!-- Day -->
     <g transform="translate(285.326562 412.756563)scale(0.1 -0.1)">
      <defs>
       <path d="M 1259 4147 
L 1259 519 
L 2022 519 
Q 2988 519 3436 956 
Q 3884 1394 3884 2338 
Q 3884 3275 3436 3711 
Q 2988 4147 2022 4147 
L 1259 4147 
z
M 628 4666 
L 1925 4666 
Q 3281 4666 3915 4102 
Q 4550 3538 4550 2338 
Q 4550 1131 3912 565 
Q 3275 0 1925 0 
L 628 0 
L 628 4666 
z
" id="DejaVuSans-44" transform="scale(0.015625)"/>
       <path d="M 2194 1759 
Q 1497 1759 1228 1600 
Q 959 1441 959 1056 
Q 959 750 1161 570 
Q 1363 391 1709 391 
Q 2188 391 2477 730 
Q 2766 1069 2766 1631 
L 2766 1759 
L 2194 1759 
z
M 3341 1997 
L 3341 0 
L 2766 0 
L 2766 531 
Q 2569 213 2275 61 
Q 1981 -91 1556 -91 
Q 1019 -91 701 211 
Q 384 513 384 1019 
Q 384 1609 779 1909 
Q 1175 2209 1959 2209 
L 2766 2209 
L 2766 2266 
Q 2766 2663 2505 2880 
Q 2244 3097 1772 3097 
Q 1472 3097 1187 3025 
Q 903 2953 641 2809 
L 641 3341 
Q 956 3463 1253 3523 
Q 1550 3584 1831 3584 
Q 2591 3584 2966 3190 
Q 3341 2797 3341 1997 
z
" id="DejaVuSans-61" transform="scale(0.015625)"/>
       <path d="M 2059 -325 
Q 1816 -950 1584 -1140 
Q 1353 -1331 966 -1331 
L 506 -1331 
L 506 -850 
L 844 -850 
Q 1081 -850 1212 -737 
Q 1344 -625 1503 -206 
L 1606 56 
L 191 3500 
L 800 3500 
L 1894 763 
L 2988 3500 
L 3597 3500 
L 2059 -325 
z
" id="DejaVuSans-79" transform="scale(0.015625)"/>
      </defs>
      <use xlink:href="#DejaVuSans-44"/>
      <use x="77.001953" xlink:href="#DejaVuSans-61"/>
      <use x="138.28125" xlink:href="#DejaVuSans-79"/>
     </g>
    </g>
   </g>
   <g id="matplotlib.axis_2">
    <g id="ytick_1">
     <g id="line2d_17">
      <path clip-path="url(#p1ae30ee4f7)" d="M 72 373.734696 
L 518.4 373.734696 
" style="fill:none;stroke:#b0b0b0;stroke-linecap:square;stroke-width:0.8;"/>
     </g>
     <g id="line2d_18">
      <defs>
       <path d="M 0 0 
L -3.5 0 
" id="mc9e0e27c40" style="stroke:#000000;stroke-width:0.8;"/>
      </defs>
      <g>
       <use style="stroke:#000000;stroke-width:0.8;" x="72" xlink:href="#mc9e0e27c40" y="373.734696"/>
      </g>
     </g>
     <g id="text_10">
      <!-- 0 -->
      <g transform="translate(58.6375 377.533915)scale(0.1 -0.1)">
       <use xlink:href="#DejaVuSans-30"/>
      </g>
     </g>
    </g>
    <g id="ytick_2">
     <g id="line2d_19">
      <path clip-path="url(#p1ae30ee4f7)" d="M 72 329.987734 
L 518.4 329.987734 
" style="fill:none;stroke:#b0b0b0;stroke-linecap:square;stroke-width:0.8;"/>
     </g>
     <g id="line2d_20">
      <g>
       <use style="stroke:#000000;stroke-width:0.8;" x="72" xlink:href="#mc9e0e27c40" y="329.987734"/>
      </g>
     </g>
     <g id="text_11">
      <!-- 25 -->
      <g transform="translate(52.275 333.786953)scale(0.1 -0.1)">
       <use xlink:href="#DejaVuSans-32"/>
       <use x="63.623047" xlink:href="#DejaVuSans-35"/>
      </g>
     </g>
    </g>
    <g id="ytick_3">
     <g id="line2d_21">
      <path clip-path="url(#p1ae30ee4f7)" d="M 72 286.240772 
L 518.4 286.240772 
" style="fill:none;stroke:#b0b0b0;stroke-linecap:square;stroke-width:0.8;"/>
     </g>
     <g id="line2d_22">
      <g>
       <use style="stroke:#000000;stroke-width:0.8;" x="72" xlink:href="#mc9e0e27c40" y="286.240772"/>
      </g>
     </g>
     <g id="text_12">
      <!-- 50 -->
      <g transform="translate(52.275 290.039991)scale(0.1 -0.1)">
       <use xlink:href="#DejaVuSans-35"/>
       <use x="63.623047" xlink:href="#DejaVuSans-30"/>
      </g>
     </g>
    </g>
    <g id="ytick_4">
     <g id="line2d_23">
      <path clip-path="url(#p1ae30ee4f7)" d="M 72 242.49381 
L 518.4 242.49381 
" style="fill:none;stroke:#b0b0b0;stroke-linecap:square;stroke-width:0.8;"/>
     </g>
     <g id="line2d_24">
      <g>
       <use style="stroke:#000000;stroke-width:0.8;" x="72" xlink:href="#mc9e0e27c40" y="242.49381"/>
      </g>
     </g>
     <g id="text_13">
      <!-- 75 -->
      <g transform="translate(52.275 246.293029)scale(0.1 -0.1)">
       <defs>
        <path d="M 525 4666 
L 3525 4666 
L 3525 4397 
L 1831 0 
L 1172 0 
L 2766 4134 
L 525 4134 
L 525 4666 
z
" id="DejaVuSans-37" transform="scale(0.015625)"/>
       </defs>
       <use xlink:href="#DejaVuSans-37"/>
       <use x="63.623047" xlink:href="#DejaVuSans-35"/>
      </g>
     </g>
    </g>
    <g id="ytick_5">
     <g id="line2d_25">
      <path clip-path="url(#p1ae30ee4f7)" d="M 72 198.746848 
L 518.4 198.746848 
" style="fill:none;stroke:#b0b0b0;stroke-linecap:square;stroke-width:0.8;"/>
     </g>
     <g id="line2d_26">
      <g>
       <use style="stroke:#000000;stroke-width:0.8;" x="72" xlink:href="#mc9e0e27c40" y="198.746848"/>
      </g>
     </g>
     <g id="text_14">
      <!-- 100 -->
      <g transform="translate(45.9125 202.546067)scale(0.1 -0.1)">
       <use xlink:href="#DejaVuSans-31"/>
       <use x="63.623047" xlink:href="#DejaVuSans-30"/>
       <use x="127.246094" xlink:href="#DejaVuSans-30"/>
      </g>
     </g>
    </g>
    <g id="ytick_6">
     <g id="line2d_27">
      <path clip-path="url(#p1ae30ee4f7)" d="M 72 154.999886 
L 518.4 154.999886 
" style="fill:none;stroke:#b0b0b0;stroke-linecap:square;stroke-width:0.8;"/>
     </g>
     <g id="line2d_28">
      <g>
       <use style="stroke:#000000;stroke-width:0.8;" x="72" xlink:href="#mc9e0e27c40" y="154.999886"/>
      </g>
     </g>
     <g id="text_15">
      <!-- 125 -->
      <g transform="translate(45.9125 158.799105)scale(0.1 -0.1)">
       <use xlink:href="#DejaVuSans-31"/>
       <use x="63.623047" xlink:href="#DejaVuSans-32"/>
       <use x="127.246094" xlink:href="#DejaVuSans-35"/>
      </g>
     </g>
    </g>
    <g id="ytick_7">
     <g id="line2d_29">
      <path clip-path="url(#p1ae30ee4f7)" d="M 72 111.252924 
L 518.4 111.252924 
" style="fill:none;stroke:#b0b0b0;stroke-linecap:square;stroke-width:0.8;"/>
     </g>
     <g id="line2d_30">
      <g>
       <use style="stroke:#000000;stroke-width:0.8;" x="72" xlink:href="#mc9e0e27c40" y="111.252924"/>
      </g>
     </g>
     <g id="text_16">
      <!-- 150 -->
      <g transform="translate(45.9125 115.052143)scale(0.1 -0.1)">
       <use xlink:href="#DejaVuSans-31"/>
       <use x="63.623047" xlink:href="#DejaVuSans-35"/>
       <use x="127.246094" xlink:href="#DejaVuSans-30"/>
      </g>
     </g>
    </g>
    <g id="ytick_8">
     <g id="line2d_31">
      <path clip-path="url(#p1ae30ee4f7)" d="M 72 67.505962 
L 518.4 67.505962 
" style="fill:none;stroke:#b0b0b0;stroke-linecap:square;stroke-width:0.8;"/>
     </g>
     <g id="line2d_32">
      <g>
       <use style="stroke:#000000;stroke-width:0.8;" x="72" xlink:href="#mc9e0e27c40" y="67.505962"/>
      </g>
     </g>
     <g id="text_17">
      <!-- 175 -->
      <g transform="translate(45.9125 71.305181)scale(0.1 -0.1)">
       <use xlink:href="#DejaVuSans-31"/>
       <use x="63.623047" xlink:href="#DejaVuSans-37"/>
       <use x="127.246094" xlink:href="#DejaVuSans-35"/>
      </g>
     </g>
    </g>
    <g id="text_18">
     <!-- max 8h $O_3$ $[\mu g/m^3$] -->
     <g transform="translate(39.8125 265.91)rotate(-90)scale(0.1 -0.1)">
      <defs>
       <path d="M 3328 2828 
Q 3544 3216 3844 3400 
Q 4144 3584 4550 3584 
Q 5097 3584 5394 3201 
Q 5691 2819 5691 2113 
L 5691 0 
L 5113 0 
L 5113 2094 
Q 5113 2597 4934 2840 
Q 4756 3084 4391 3084 
Q 3944 3084 3684 2787 
Q 3425 2491 3425 1978 
L 3425 0 
L 2847 0 
L 2847 2094 
Q 2847 2600 2669 2842 
Q 2491 3084 2119 3084 
Q 1678 3084 1418 2786 
Q 1159 2488 1159 1978 
L 1159 0 
L 581 0 
L 581 3500 
L 1159 3500 
L 1159 2956 
Q 1356 3278 1631 3431 
Q 1906 3584 2284 3584 
Q 2666 3584 2933 3390 
Q 3200 3197 3328 2828 
z
" id="DejaVuSans-6d" transform="scale(0.015625)"/>
       <path d="M 3513 3500 
L 2247 1797 
L 3578 0 
L 2900 0 
L 1881 1375 
L 863 0 
L 184 0 
L 1544 1831 
L 300 3500 
L 978 3500 
L 1906 2253 
L 2834 3500 
L 3513 3500 
z
" id="DejaVuSans-78" transform="scale(0.015625)"/>
       <path id="DejaVuSans-20" transform="scale(0.015625)"/>
       <path d="M 2034 2216 
Q 1584 2216 1326 1975 
Q 1069 1734 1069 1313 
Q 1069 891 1326 650 
Q 1584 409 2034 409 
Q 2484 409 2743 651 
Q 3003 894 3003 1313 
Q 3003 1734 2745 1975 
Q 2488 2216 2034 2216 
z
M 1403 2484 
Q 997 2584 770 2862 
Q 544 3141 544 3541 
Q 544 4100 942 4425 
Q 1341 4750 2034 4750 
Q 2731 4750 3128 4425 
Q 3525 4100 3525 3541 
Q 3525 3141 3298 2862 
Q 3072 2584 2669 2484 
Q 3125 2378 3379 2068 
Q 3634 1759 3634 1313 
Q 3634 634 3220 271 
Q 2806 -91 2034 -91 
Q 1263 -91 848 271 
Q 434 634 434 1313 
Q 434 1759 690 2068 
Q 947 2378 1403 2484 
z
M 1172 3481 
Q 1172 3119 1398 2916 
Q 1625 2713 2034 2713 
Q 2441 2713 2670 2916 
Q 2900 3119 2900 3481 
Q 2900 3844 2670 4047 
Q 2441 4250 2034 4250 
Q 1625 4250 1398 4047 
Q 1172 3844 1172 3481 
z
" id="DejaVuSans-38" transform="scale(0.015625)"/>
       <path d="M 3513 2113 
L 3513 0 
L 2938 0 
L 2938 2094 
Q 2938 2591 2744 2837 
Q 2550 3084 2163 3084 
Q 1697 3084 1428 2787 
Q 1159 2491 1159 1978 
L 1159 0 
L 581 0 
L 581 4863 
L 1159 4863 
L 1159 2956 
Q 1366 3272 1645 3428 
Q 1925 3584 2291 3584 
Q 2894 3584 3203 3211 
Q 3513 2838 3513 2113 
z
" id="DejaVuSans-68" transform="scale(0.015625)"/>
       <path d="M 2919 4238 
Q 2400 4238 2003 3986 
Q 1606 3734 1313 3219 
Q 1125 2891 1026 2522 
Q 928 2153 928 1778 
Q 928 1128 1239 775 
Q 1550 422 2119 422 
Q 2631 422 3032 676 
Q 3434 931 3719 1434 
Q 3909 1772 4009 2142 
Q 4109 2513 4109 2881 
Q 4109 3528 3796 3883 
Q 3484 4238 2919 4238 
z
M 2100 -91 
Q 1241 -91 748 418 
Q 256 928 256 1813 
Q 256 2319 448 2847 
Q 641 3375 978 3788 
Q 1375 4272 1862 4511 
Q 2350 4750 2938 4750 
Q 3794 4750 4287 4245 
Q 4781 3741 4781 2869 
Q 4781 2331 4593 1812 
Q 4406 1294 4056 872 
Q 3656 384 3173 146 
Q 2691 -91 2100 -91 
z
" id="DejaVuSans-Oblique-4f" transform="scale(0.015625)"/>
       <path d="M 550 4863 
L 1875 4863 
L 1875 4416 
L 1125 4416 
L 1125 -397 
L 1875 -397 
L 1875 -844 
L 550 -844 
L 550 4863 
z
" id="DejaVuSans-5b" transform="scale(0.015625)"/>
       <path d="M -84 -1331 
L 856 3500 
L 1434 3500 
L 1009 1322 
Q 997 1256 987 1175 
Q 978 1094 978 1013 
Q 978 722 1161 565 
Q 1344 409 1684 409 
Q 2147 409 2431 671 
Q 2716 934 2816 1459 
L 3213 3500 
L 3788 3500 
L 3266 809 
Q 3253 750 3248 706 
Q 3244 663 3244 628 
Q 3244 531 3283 486 
Q 3322 441 3406 441 
Q 3438 441 3492 456 
Q 3547 472 3647 513 
L 3559 50 
Q 3422 -19 3297 -55 
Q 3172 -91 3053 -91 
Q 2847 -91 2730 40 
Q 2613 172 2613 403 
Q 2438 153 2195 31 
Q 1953 -91 1625 -91 
Q 1334 -91 1117 43 
Q 900 178 831 397 
L 494 -1331 
L -84 -1331 
z
" id="DejaVuSans-Oblique-3bc" transform="scale(0.015625)"/>
       <path d="M 3816 3500 
L 3219 434 
Q 3047 -456 2561 -893 
Q 2075 -1331 1253 -1331 
Q 950 -1331 690 -1286 
Q 431 -1241 206 -1147 
L 313 -588 
Q 525 -725 762 -790 
Q 1000 -856 1269 -856 
Q 1816 -856 2167 -557 
Q 2519 -259 2631 300 
L 2681 563 
Q 2441 288 2122 144 
Q 1803 0 1434 0 
Q 903 0 598 351 
Q 294 703 294 1319 
Q 294 1803 478 2267 
Q 663 2731 997 3091 
Q 1219 3328 1514 3456 
Q 1809 3584 2131 3584 
Q 2484 3584 2746 3420 
Q 3009 3256 3138 2956 
L 3238 3500 
L 3816 3500 
z
M 2950 2216 
Q 2950 2641 2750 2872 
Q 2550 3103 2181 3103 
Q 1953 3103 1747 3012 
Q 1541 2922 1394 2759 
Q 1156 2491 1023 2127 
Q 891 1763 891 1375 
Q 891 944 1092 712 
Q 1294 481 1672 481 
Q 2219 481 2584 976 
Q 2950 1472 2950 2216 
z
" id="DejaVuSans-Oblique-67" transform="scale(0.015625)"/>
       <path d="M 1625 4666 
L 2156 4666 
L 531 -594 
L 0 -594 
L 1625 4666 
z
" id="DejaVuSans-2f" transform="scale(0.015625)"/>
       <path d="M 5747 2113 
L 5338 0 
L 4763 0 
L 5166 2094 
Q 5191 2228 5203 2325 
Q 5216 2422 5216 2491 
Q 5216 2772 5059 2928 
Q 4903 3084 4622 3084 
Q 4203 3084 3875 2770 
Q 3547 2456 3450 1953 
L 3066 0 
L 2491 0 
L 2900 2094 
Q 2925 2209 2937 2307 
Q 2950 2406 2950 2484 
Q 2950 2769 2794 2926 
Q 2638 3084 2363 3084 
Q 1938 3084 1609 2770 
Q 1281 2456 1184 1953 
L 800 0 
L 225 0 
L 909 3500 
L 1484 3500 
L 1375 2956 
Q 1609 3263 1923 3423 
Q 2238 3584 2597 3584 
Q 2978 3584 3223 3384 
Q 3469 3184 3519 2828 
Q 3781 3197 4126 3390 
Q 4472 3584 4856 3584 
Q 5306 3584 5551 3325 
Q 5797 3066 5797 2591 
Q 5797 2488 5784 2364 
Q 5772 2241 5747 2113 
z
" id="DejaVuSans-Oblique-6d" transform="scale(0.015625)"/>
       <path d="M 1947 4863 
L 1947 -844 
L 622 -844 
L 622 -397 
L 1369 -397 
L 1369 4416 
L 622 4416 
L 622 4863 
L 1947 4863 
z
" id="DejaVuSans-5d" transform="scale(0.015625)"/>
      </defs>
      <use transform="translate(0 0.765625)" xlink:href="#DejaVuSans-6d"/>
      <use transform="translate(97.412109 0.765625)" xlink:href="#DejaVuSans-61"/>
      <use transform="translate(158.691406 0.765625)" xlink:href="#DejaVuSans-78"/>
      <use transform="translate(217.871094 0.765625)" xlink:href="#DejaVuSans-20"/>
      <use transform="translate(249.658203 0.765625)" xlink:href="#DejaVuSans-38"/>
      <use transform="translate(313.28125 0.765625)" xlink:href="#DejaVuSans-68"/>
      <use transform="translate(376.660156 0.765625)" xlink:href="#DejaVuSans-20"/>
      <use transform="translate(408.447266 0.765625)" xlink:href="#DejaVuSans-Oblique-4f"/>
      <use transform="translate(487.158203 -15.640625)scale(0.7)" xlink:href="#DejaVuSans-33"/>
      <use transform="translate(534.428711 0.765625)" xlink:href="#DejaVuSans-20"/>
      <use transform="translate(566.21582 0.765625)" xlink:href="#DejaVuSans-5b"/>
      <use transform="translate(605.229492 0.765625)" xlink:href="#DejaVuSans-Oblique-3bc"/>
      <use transform="translate(668.852539 0.765625)" xlink:href="#DejaVuSans-Oblique-67"/>
      <use transform="translate(732.329102 0.765625)" xlink:href="#DejaVuSans-2f"/>
      <use transform="translate(766.020508 0.765625)" xlink:href="#DejaVuSans-Oblique-6d"/>
      <use transform="translate(868.082513 39.046875)scale(0.7)" xlink:href="#DejaVuSans-33"/>
      <use transform="translate(915.353021 0.765625)" xlink:href="#DejaVuSans-5d"/>
     </g>
    </g>
   </g>
   <g id="line2d_33">
    <path clip-path="url(#p1ae30ee4f7)" d="M 92.290909 287.661673 
L 93.405794 302.098171 
L 94.520679 300.568777 
L 95.635564 309.31817 
L 96.75045 334.581165 
L 97.865335 296.631551 
L 98.98022 347.049049 
L 100.095105 327.908879 
L 101.20999 294.006733 
L 102.324875 298.818899 
L 103.43976 357.110851 
L 104.554645 350.767541 
L 105.66953 327.691894 
L 106.784416 294.223718 
L 107.899301 342.86159 
L 109.014186 317.988817 
L 110.129071 287.882158 
L 115.703497 327.800386 
L 116.818382 322.659243 
L 117.933267 339.862298 
L 119.048152 342.86159 
L 120.163037 325.942015 
L 121.277922 293.490519 
L 122.392807 301.660701 
L 123.507692 278.616552 
L 124.622577 263.492352 
L 126.852348 279.349751 
L 127.967233 281.209872 
L 129.082118 272.133252 
L 130.197003 285.866298 
L 131.311888 281.866076 
L 132.426773 270.117392 
L 133.541658 327.581651 
L 140.230969 278.585054 
L 141.345854 297.943959 
L 142.460739 320.471895 
L 143.575624 239.977485 
L 144.690509 271.258313 
L 145.805395 265.571208 
L 146.92028 262.617413 
L 148.035165 267.321086 
L 149.15005 266.008677 
L 150.264935 249.822301 
L 152.494705 264.586026 
L 153.60959 255.836634 
L 154.724476 245.66459 
L 155.839361 232.869479 
L 156.954246 248.289408 
L 158.069131 280.116197 
L 159.184016 263.711087 
L 160.298901 289.30306 
L 161.413786 245.118628 
L 162.528671 272.02301 
L 163.643556 254.524225 
L 164.758442 247.197484 
L 165.873327 278.242078 
L 166.988212 260.648799 
L 168.103097 267.867048 
L 169.217982 280.553667 
L 170.332867 285.584568 
L 171.447752 267.492574 
L 172.562637 277.865854 
L 173.677522 269.616927 
L 174.792408 277.116906 
L 175.907293 224.244327 
L 177.022178 206.950278 
L 178.137063 228.057313 
L 179.251948 253.976513 
L 180.366833 262.071451 
L 181.481718 236.58797 
L 182.596603 256.638078 
L 183.711489 234.948334 
L 184.826374 235.370055 
L 185.941259 226.415927 
L 187.056144 246.744265 
L 188.171029 246.649772 
L 189.285914 256.60133 
L 190.400799 240.743932 
L 191.515684 235.744529 
L 192.630569 240.962666 
L 193.745455 233.243953 
L 194.86034 245.22712 
L 195.975225 241.510378 
L 197.09011 227.290866 
L 198.204995 219.964125 
L 199.31988 265.898435 
L 200.434765 289.740529 
L 201.54965 241.181401 
L 202.664535 240.19797 
L 203.779421 265.460965 
L 204.894306 250.039286 
L 206.009191 205.090158 
L 207.124076 241.947848 
L 208.238961 221.276534 
L 209.353846 238.885561 
L 210.468731 219.089185 
L 211.583616 189.668479 
L 212.698501 241.837606 
L 213.813387 237.352667 
L 214.928272 240.19797 
L 216.043157 223.353639 
L 217.158042 244.572666 
L 218.272927 209.137627 
L 219.387812 148.656577 
L 220.502697 252.555611 
L 222.732468 174.794511 
L 223.847353 165.374916 
L 226.077123 227.290866 
L 227.192008 261.523739 
L 228.306893 272.241744 
L 229.421778 234.181887 
L 230.536663 236.743709 
L 231.651548 253.649285 
L 232.766434 263.866826 
L 233.881319 212.854368 
L 234.996204 217.120572 
L 236.111089 229.588456 
L 237.225974 261.850966 
L 238.340859 275.960236 
L 239.455744 255.117434 
L 240.570629 263.929822 
L 241.685514 190.121697 
L 242.8004 224.886533 
L 243.915285 249.369083 
L 245.03017 241.618871 
L 246.145055 237.494407 
L 247.25994 193.605705 
L 248.374825 225.869965 
L 249.48971 219.526655 
L 250.604595 239.102546 
L 251.719481 190.326433 
L 252.834366 206.621301 
L 253.949251 236.369235 
L 255.064136 239.7605 
L 256.179021 235.165319 
L 257.293906 207.387748 
L 258.408791 256.821815 
L 259.523676 274.866562 
L 260.638561 267.210844 
L 261.753447 206.512809 
L 262.868332 178.294268 
L 263.983217 143.079714 
L 265.098102 99.878714 
L 266.212987 195.138599 
L 267.327872 237.02544 
L 268.442757 247.414468 
L 269.557642 287.553181 
L 270.672527 275.849994 
L 271.787413 220.620329 
L 272.902298 243.587484 
L 274.017183 231.775804 
L 275.132068 232.869479 
L 276.246953 219.244925 
L 277.361838 212.308406 
L 278.476723 238.775318 
L 279.591608 283.507462 
L 280.706494 263.492352 
L 281.821379 274.100115 
L 282.936264 262.242939 
L 284.051149 194.263659 
L 285.166034 144.875089 
L 286.280919 79.863604 
L 287.395804 166.874561 
L 288.510689 128.205747 
L 289.625574 83.254868 
L 290.74046 66.96 
L 291.855345 187.997345 
L 292.97023 214.27702 
L 295.2 157.516211 
L 296.314885 192.498032 
L 297.42977 196.451008 
L 298.544655 261.523739 
L 299.65954 214.99622 
L 300.774426 154.343682 
L 301.889311 101.08263 
L 307.463736 227.94882 
L 310.808392 233.635925 
L 311.923277 249.274589 
L 313.038162 210.450035 
L 314.153047 149.312781 
L 315.267932 138.484533 
L 316.382817 192.622273 
L 317.497702 240.306462 
L 318.612587 273.008191 
L 319.727473 215.699671 
L 320.842358 229.040744 
L 321.957243 274.537585 
L 323.072128 289.632037 
L 324.187013 246.539529 
L 325.301898 291.490408 
L 326.416783 230.619135 
L 327.531668 221.603761 
L 328.646553 263.742585 
L 329.761439 273.772888 
L 330.876324 248.368152 
L 331.991209 279.491491 
L 333.106094 273.116684 
L 334.220979 241.181401 
L 335.335864 226.37043 
L 336.450749 295.865104 
L 337.565634 229.119489 
L 338.680519 234.510865 
L 339.795405 279.241258 
L 340.91029 257.259285 
L 343.14006 228.932252 
L 344.254945 270.383373 
L 345.36983 270.162889 
L 346.484715 257.47627 
L 347.5996 276.287463 
L 348.714486 252.742848 
L 349.829371 220.728822 
L 350.944256 250.259771 
L 352.059141 254.086755 
L 353.174026 258.898921 
L 354.288911 251.57218 
L 355.403796 262.50892 
L 357.633566 295.098657 
L 358.748452 271.037828 
L 359.863337 273.335418 
L 360.978222 263.492352 
L 362.093107 248.509892 
L 363.207992 245.337363 
L 365.437762 283.507462 
L 366.552647 249.601817 
L 367.667532 229.261229 
L 368.782418 223.745612 
L 369.897303 239.7605 
L 371.012188 277.05391 
L 372.127073 281.537099 
L 373.241958 285.25734 
L 374.356843 251.13471 
L 375.471728 302.098171 
L 376.586613 269.835661 
L 377.701499 275.304032 
L 378.816384 246.494032 
L 379.931269 253.743779 
L 381.046154 284.991359 
L 382.161039 257.259285 
L 383.275924 267.242342 
L 384.390809 229.040744 
L 385.505694 253.86802 
L 386.620579 212.637384 
L 387.735465 225.994206 
L 388.85035 283.507462 
L 389.965235 256.368597 
L 392.195005 305.239203 
L 393.30989 333.378999 
L 394.424775 326.113503 
L 395.53966 321.019607 
L 396.654545 274.866562 
L 397.769431 286.569749 
L 398.884316 244.994387 
L 399.999201 257.0388 
L 401.114086 283.615954 
L 402.228971 307.347806 
L 403.343856 323.534182 
L 404.458741 285.365833 
L 405.573626 299.364861 
L 406.688511 286.349265 
L 407.803397 307.347806 
L 408.918282 330.862673 
L 410.033167 304.240022 
L 411.148052 327.691894 
L 412.262937 295.973596 
L 413.377822 293.348779 
L 414.492707 297.614982 
L 415.607592 279.570235 
L 416.722478 283.069992 
L 417.837363 278.912281 
L 418.952248 296.521308 
L 420.067133 301.114739 
L 421.182018 295.536127 
L 422.296903 294.990165 
L 423.411788 281.099629 
L 424.526673 298.160944 
L 425.641558 280.772402 
L 426.756444 296.848536 
L 427.871329 280.882644 
L 428.986214 277.382887 
L 430.101099 265.24223 
L 431.215984 349.455132 
L 432.330869 302.535641 
L 433.445754 290.834203 
L 434.560639 283.178485 
L 435.675524 277.599872 
L 436.79041 273.88313 
L 437.905295 319.113989 
L 439.02018 258.680186 
L 440.135065 274.100115 
L 441.24995 337.862187 
L 442.364835 267.648313 
L 443.47972 249.712059 
L 444.594605 267.492574 
L 445.709491 273.554153 
L 446.824376 273.445661 
L 447.939261 367.281144 
L 449.054146 320.69238 
L 450.169031 321.894546 
L 451.283916 314.48906 
L 452.398801 318.722017 
L 453.513686 357.735557 
L 460.202997 296.740043 
L 461.317882 322.221773 
L 462.432767 358.110031 
L 463.547652 364.876811 
L 464.662537 326.269242 
L 465.777423 357.110851 
L 466.892308 365.204039 
L 468.007193 285.584568 
L 469.122078 280.616663 
L 470.236963 335.783332 
L 471.351848 369.36 
L 472.466733 362.610719 
L 473.581618 311.942987 
L 474.696503 341.736418 
L 476.926274 277.820357 
L 478.041159 278.49056 
L 479.156044 307.020579 
L 480.270929 314.989526 
L 481.385814 285.616066 
L 482.500699 273.867381 
L 483.615584 286.741237 
L 484.73047 287.224204 
L 485.845355 328.566833 
L 486.96024 331.956347 
L 488.075125 367.939099 
L 489.19001 349.236397 
L 490.304895 309.363666 
L 491.41978 287.990651 
L 492.534665 315.769972 
L 493.64955 276.507948 
L 494.764436 270.929335 
L 495.879321 326.050508 
L 496.994206 306.364375 
L 498.109091 313.801358 
L 498.109091 313.801358 
" style="fill:none;stroke:#1f77b4;stroke-linecap:square;stroke-width:1.5;"/>
   </g>
   <g id="line2d_34">
    <path clip-path="url(#p1ae30ee4f7)" d="M 92.290909 304.186214 
L 93.405794 293.088825 
L 94.520679 292.317214 
L 96.75045 296.315953 
L 97.865335 305.427896 
L 98.98022 295.238461 
L 100.095105 310.526684 
L 101.20999 312.726482 
L 102.324875 299.681502 
L 103.43976 294.234736 
L 104.554645 309.541021 
L 105.66953 312.315229 
L 106.784416 305.974763 
L 107.899301 295.222831 
L 109.014186 314.314291 
L 110.129071 309.300745 
L 111.243956 300.990552 
L 112.358841 300.123791 
L 113.473726 302.925897 
L 114.588611 298.055969 
L 115.703497 307.498368 
L 116.818382 308.541377 
L 117.933267 303.16822 
L 119.048152 312.195244 
L 120.163037 318.030183 
L 121.277922 309.431172 
L 122.392807 294.18396 
L 123.507692 288.675462 
L 124.622577 278.651735 
L 125.737463 273.466425 
L 126.852348 277.803914 
L 127.967233 280.622223 
L 130.197003 288.77496 
L 131.311888 289.48946 
L 132.426773 289.590102 
L 133.541658 279.186159 
L 134.656543 303.992933 
L 135.771429 302.793673 
L 136.886314 300.112669 
L 138.001199 299.023205 
L 139.116084 298.876099 
L 141.345854 290.637475 
L 142.460739 292.010146 
L 143.575624 300.313455 
L 144.690509 258.896488 
L 145.805395 275.936532 
L 146.92028 274.833937 
L 148.035165 272.68755 
L 149.15005 273.906447 
L 150.264935 272.838057 
L 151.37982 263.088417 
L 152.494705 266.985536 
L 153.60959 272.972941 
L 154.724476 266.861875 
L 155.839361 261.655959 
L 156.954246 254.094807 
L 158.069131 263.455839 
L 159.184016 280.197221 
L 160.298901 269.326992 
L 161.413786 286.075684 
L 162.528671 261.316729 
L 163.643556 288.932768 
L 164.758442 285.38896 
L 165.873327 283.142397 
L 166.988212 287.641763 
L 168.103097 281.240766 
L 169.217982 280.789431 
L 170.332867 285.37674 
L 171.447752 271.168896 
L 172.562637 265.332149 
L 173.677522 255.911797 
L 174.792408 254.690999 
L 175.907293 258.31576 
L 177.022178 233.00525 
L 178.137063 221.653683 
L 180.366833 251.591591 
L 181.481718 243.666543 
L 182.596603 242.597071 
L 183.711489 234.575731 
L 184.826374 240.76617 
L 185.941259 231.806641 
L 187.056144 239.143733 
L 188.171029 235.077265 
L 189.285914 236.919025 
L 190.400799 256.131912 
L 191.515684 230.315372 
L 193.745455 235.506707 
L 194.86034 230.231867 
L 195.975225 231.850666 
L 197.09011 231.248558 
L 199.31988 226.91749 
L 200.434765 238.236735 
L 201.54965 275.759099 
L 202.664535 230.996207 
L 203.779421 270.778474 
L 204.894306 270.229746 
L 206.009191 242.668379 
L 207.124076 222.64873 
L 208.238961 244.714096 
L 209.353846 223.58322 
L 210.468731 228.286324 
L 211.583616 226.578497 
L 212.698501 209.578572 
L 213.813387 230.689685 
L 214.928272 228.994424 
L 216.043157 227.745054 
L 217.158042 227.031767 
L 218.272927 228.714457 
L 219.387812 220.780377 
L 220.502697 198.760323 
L 221.617582 230.086668 
L 222.732468 223.033542 
L 223.847353 200.398081 
L 224.962238 198.921391 
L 226.077123 213.200211 
L 227.192008 228.944925 
L 228.306893 224.497516 
L 229.421778 239.694336 
L 230.536663 227.365544 
L 231.651548 228.091636 
L 232.766434 224.796756 
L 233.881319 228.103045 
L 234.996204 222.809339 
L 236.111089 224.960305 
L 237.225974 235.265657 
L 238.340859 231.290633 
L 239.455744 238.491938 
L 240.570629 233.007612 
L 241.685514 244.777438 
L 242.8004 211.961023 
L 243.915285 227.92461 
L 245.03017 232.849729 
L 246.145055 229.484541 
L 247.25994 235.091246 
L 248.374825 207.820763 
L 249.48971 245.185782 
L 250.604595 222.768675 
L 251.719481 227.399716 
L 252.834366 217.242744 
L 255.064136 228.173901 
L 256.179021 228.837322 
L 257.293906 227.476263 
L 258.408791 218.691082 
L 259.523676 229.841831 
L 260.638561 226.867045 
L 261.753447 238.242619 
L 263.983217 197.80914 
L 265.098102 183.433573 
L 266.212987 177.227828 
L 267.327872 211.973389 
L 268.442757 225.652675 
L 269.557642 220.689985 
L 270.672527 242.294004 
L 271.787413 242.722367 
L 272.902298 226.33405 
L 274.017183 227.912001 
L 275.132068 225.055365 
L 276.246953 220.200041 
L 277.361838 221.91704 
L 278.476723 220.947657 
L 279.591608 228.424682 
L 280.706494 251.83103 
L 281.821379 232.25211 
L 282.936264 274.399595 
L 284.051149 236.145084 
L 286.280919 182.890883 
L 287.395804 178.830207 
L 288.510689 192.599465 
L 289.625574 181.872295 
L 290.74046 174.967332 
L 291.855345 176.43544 
L 292.97023 210.398692 
L 294.085115 221.455961 
L 295.2 205.508481 
L 296.314885 194.900849 
L 297.42977 211.658923 
L 298.544655 218.985404 
L 299.65954 239.228354 
L 300.774426 220.921739 
L 301.889311 192.087594 
L 303.004196 177.667246 
L 304.119081 180.451982 
L 305.233966 183.637923 
L 306.348851 195.130416 
L 307.463736 209.547667 
L 308.578621 242.156423 
L 309.693506 224.681365 
L 310.808392 235.603457 
L 311.923277 230.178221 
L 313.038162 244.693051 
L 314.153047 221.889765 
L 315.267932 181.529401 
L 316.382817 179.881307 
L 317.497702 213.339149 
L 318.612587 219.862111 
L 319.727473 238.336012 
L 320.842358 223.496991 
L 321.957243 228.440525 
L 323.072128 259.996856 
L 324.187013 267.871436 
L 325.301898 233.218434 
L 326.416783 272.915277 
L 327.531668 227.516834 
L 328.646553 228.652059 
L 329.761439 248.44443 
L 330.876324 248.171035 
L 331.991209 235.418089 
L 333.106094 260.352334 
L 334.220979 246.79967 
L 335.335864 237.314075 
L 336.450749 231.402092 
L 337.565634 265.038494 
L 338.680519 227.884913 
L 339.795405 224.983476 
L 340.91029 249.691755 
L 342.025175 244.575425 
L 344.254945 223.047358 
L 345.36983 231.705433 
L 346.484715 257.488519 
L 347.5996 253.34204 
L 348.714486 253.921262 
L 349.829371 247.806801 
L 350.944256 233.367982 
L 352.059141 245.651543 
L 353.174026 241.909739 
L 354.288911 243.664908 
L 355.403796 240.082413 
L 356.518681 252.775526 
L 357.633566 258.348377 
L 358.748452 269.635731 
L 359.863337 252.861262 
L 360.978222 246.169431 
L 362.093107 254.220583 
L 363.207992 252.824262 
L 364.322877 228.622474 
L 365.437762 248.15797 
L 366.552647 276.48996 
L 367.667532 252.868184 
L 368.782418 241.123675 
L 369.897303 237.435547 
L 371.012188 243.539117 
L 372.127073 257.274314 
L 373.241958 269.202929 
L 374.356843 274.313271 
L 375.471728 245.165795 
L 376.586613 287.142341 
L 377.701499 259.881805 
L 378.816384 275.684137 
L 381.046154 246.956554 
L 382.161039 278.432141 
L 383.275924 262.517489 
L 385.505694 242.83517 
L 386.620579 259.177496 
L 387.735465 228.324778 
L 388.85035 255.387388 
L 389.965235 274.868262 
L 391.08012 265.103313 
L 392.195005 277.017474 
L 393.30989 293.245666 
L 394.424775 295.454883 
L 395.53966 297.966367 
L 396.654545 283.980289 
L 397.769431 262.961834 
L 398.884316 271.854065 
L 399.999201 247.558331 
L 401.114086 257.571095 
L 402.228971 278.051762 
L 403.343856 303.771811 
L 404.458741 307.717243 
L 405.573626 285.522584 
L 406.688511 302.022509 
L 407.803397 296.702458 
L 408.918282 302.06264 
L 410.033167 304.468565 
L 411.148052 299.80208 
L 412.262937 307.171526 
L 413.377822 295.556788 
L 414.492707 289.507094 
L 415.607592 294.824457 
L 417.837363 283.272575 
L 418.952248 278.73118 
L 420.067133 290.03082 
L 421.182018 294.119638 
L 423.411788 291.200468 
L 424.526673 282.721879 
L 425.641558 292.215609 
L 426.756444 284.541653 
L 427.871329 292.643255 
L 428.986214 281.623198 
L 430.101099 278.760711 
L 431.215984 284.342337 
L 432.330869 312.82961 
L 433.445754 292.903175 
L 434.560639 288.248801 
L 436.79041 282.696249 
L 437.905295 281.853204 
L 439.02018 304.151535 
L 440.135065 274.732371 
L 441.24995 280.461794 
L 442.364835 306.613913 
L 443.47972 273.946261 
L 444.594605 267.329984 
L 445.709491 279.674798 
L 446.824376 287.000846 
L 447.939261 291.841056 
L 449.054146 315.964072 
L 450.169031 302.055088 
L 451.283916 302.092965 
L 452.398801 306.790395 
L 453.513686 308.617367 
L 454.628571 307.64521 
L 455.743457 307.232877 
L 456.858342 305.15162 
L 457.973227 303.321994 
L 459.088112 299.894013 
L 460.202997 295.857334 
L 461.317882 289.801699 
L 462.432767 308.243254 
L 463.547652 315.210304 
L 464.662537 317.449727 
L 465.777423 310.390493 
L 466.892308 308.770931 
L 468.007193 312.066651 
L 469.122078 284.018479 
L 470.236963 281.499809 
L 471.351848 306.771542 
L 472.466733 309.75766 
L 473.581618 309.112575 
L 474.696503 297.786391 
L 475.811389 307.558728 
L 476.926274 299.175469 
L 478.041159 292.891606 
L 479.156044 289.950953 
L 480.270929 306.378145 
L 481.385814 302.024426 
L 482.500699 284.088214 
L 483.615584 277.555997 
L 484.73047 285.691979 
L 485.845355 285.330243 
L 486.96024 303.821156 
L 488.075125 305.00353 
L 489.19001 311.495073 
L 490.304895 310.800469 
L 491.41978 304.968447 
L 492.534665 293.056456 
L 493.64955 299.935061 
L 494.764436 286.381832 
L 495.879321 288.827256 
L 496.994206 312.136577 
L 498.109091 298.921237 
L 498.109091 298.921237 
" style="fill:none;stroke:#ff7f0e;stroke-linecap:square;stroke-width:1.5;"/>
   </g>
   <g id="patch_3">
    <path d="M 72 384.48 
L 72 51.84 
" style="fill:none;stroke:#000000;stroke-linecap:square;stroke-linejoin:miter;stroke-width:0.8;"/>
   </g>
   <g id="patch_4">
    <path d="M 518.4 384.48 
L 518.4 51.84 
" style="fill:none;stroke:#000000;stroke-linecap:square;stroke-linejoin:miter;stroke-width:0.8;"/>
   </g>
   <g id="patch_5">
    <path d="M 72 384.48 
L 518.4 384.48 
" style="fill:none;stroke:#000000;stroke-linecap:square;stroke-linejoin:miter;stroke-width:0.8;"/>
   </g>
   <g id="patch_6">
    <path d="M 72 51.84 
L 518.4 51.84 
" style="fill:none;stroke:#000000;stroke-linecap:square;stroke-linejoin:miter;stroke-width:0.8;"/>
   </g>
   <g id="text_19">
    <!-- $O_3$ BETN073 2010: Island DNN (MSE: 281.44, sMAPE: 23.85%, MASE: 0.95) -->
    <g transform="translate(71.16 45.84)scale(0.12 -0.12)">
     <defs>
      <path d="M 1259 2228 
L 1259 519 
L 2272 519 
Q 2781 519 3026 730 
Q 3272 941 3272 1375 
Q 3272 1813 3026 2020 
Q 2781 2228 2272 2228 
L 1259 2228 
z
M 1259 4147 
L 1259 2741 
L 2194 2741 
Q 2656 2741 2882 2914 
Q 3109 3088 3109 3444 
Q 3109 3797 2882 3972 
Q 2656 4147 2194 4147 
L 1259 4147 
z
M 628 4666 
L 2241 4666 
Q 2963 4666 3353 4366 
Q 3744 4066 3744 3513 
Q 3744 3084 3544 2831 
Q 3344 2578 2956 2516 
Q 3422 2416 3680 2098 
Q 3938 1781 3938 1306 
Q 3938 681 3513 340 
Q 3088 0 2303 0 
L 628 0 
L 628 4666 
z
" id="DejaVuSans-42" transform="scale(0.015625)"/>
      <path d="M 628 4666 
L 3578 4666 
L 3578 4134 
L 1259 4134 
L 1259 2753 
L 3481 2753 
L 3481 2222 
L 1259 2222 
L 1259 531 
L 3634 531 
L 3634 0 
L 628 0 
L 628 4666 
z
" id="DejaVuSans-45" transform="scale(0.015625)"/>
      <path d="M -19 4666 
L 3928 4666 
L 3928 4134 
L 2272 4134 
L 2272 0 
L 1638 0 
L 1638 4134 
L -19 4134 
L -19 4666 
z
" id="DejaVuSans-54" transform="scale(0.015625)"/>
      <path d="M 628 4666 
L 1478 4666 
L 3547 763 
L 3547 4666 
L 4159 4666 
L 4159 0 
L 3309 0 
L 1241 3903 
L 1241 0 
L 628 0 
L 628 4666 
z
" id="DejaVuSans-4e" transform="scale(0.015625)"/>
      <path d="M 750 794 
L 1409 794 
L 1409 0 
L 750 0 
L 750 794 
z
M 750 3309 
L 1409 3309 
L 1409 2516 
L 750 2516 
L 750 3309 
z
" id="DejaVuSans-3a" transform="scale(0.015625)"/>
      <path d="M 628 4666 
L 1259 4666 
L 1259 0 
L 628 0 
L 628 4666 
z
" id="DejaVuSans-49" transform="scale(0.015625)"/>
      <path d="M 2834 3397 
L 2834 2853 
Q 2591 2978 2328 3040 
Q 2066 3103 1784 3103 
Q 1356 3103 1142 2972 
Q 928 2841 928 2578 
Q 928 2378 1081 2264 
Q 1234 2150 1697 2047 
L 1894 2003 
Q 2506 1872 2764 1633 
Q 3022 1394 3022 966 
Q 3022 478 2636 193 
Q 2250 -91 1575 -91 
Q 1294 -91 989 -36 
Q 684 19 347 128 
L 347 722 
Q 666 556 975 473 
Q 1284 391 1588 391 
Q 1994 391 2212 530 
Q 2431 669 2431 922 
Q 2431 1156 2273 1281 
Q 2116 1406 1581 1522 
L 1381 1569 
Q 847 1681 609 1914 
Q 372 2147 372 2553 
Q 372 3047 722 3315 
Q 1072 3584 1716 3584 
Q 2034 3584 2315 3537 
Q 2597 3491 2834 3397 
z
" id="DejaVuSans-73" transform="scale(0.015625)"/>
      <path d="M 603 4863 
L 1178 4863 
L 1178 0 
L 603 0 
L 603 4863 
z
" id="DejaVuSans-6c" transform="scale(0.015625)"/>
      <path d="M 3513 2113 
L 3513 0 
L 2938 0 
L 2938 2094 
Q 2938 2591 2744 2837 
Q 2550 3084 2163 3084 
Q 1697 3084 1428 2787 
Q 1159 2491 1159 1978 
L 1159 0 
L 581 0 
L 581 3500 
L 1159 3500 
L 1159 2956 
Q 1366 3272 1645 3428 
Q 1925 3584 2291 3584 
Q 2894 3584 3203 3211 
Q 3513 2838 3513 2113 
z
" id="DejaVuSans-6e" transform="scale(0.015625)"/>
      <path d="M 2906 2969 
L 2906 4863 
L 3481 4863 
L 3481 0 
L 2906 0 
L 2906 525 
Q 2725 213 2448 61 
Q 2172 -91 1784 -91 
Q 1150 -91 751 415 
Q 353 922 353 1747 
Q 353 2572 751 3078 
Q 1150 3584 1784 3584 
Q 2172 3584 2448 3432 
Q 2725 3281 2906 2969 
z
M 947 1747 
Q 947 1113 1208 752 
Q 1469 391 1925 391 
Q 2381 391 2643 752 
Q 2906 1113 2906 1747 
Q 2906 2381 2643 2742 
Q 2381 3103 1925 3103 
Q 1469 3103 1208 2742 
Q 947 2381 947 1747 
z
" id="DejaVuSans-64" transform="scale(0.015625)"/>
      <path d="M 1984 4856 
Q 1566 4138 1362 3434 
Q 1159 2731 1159 2009 
Q 1159 1288 1364 580 
Q 1569 -128 1984 -844 
L 1484 -844 
Q 1016 -109 783 600 
Q 550 1309 550 2009 
Q 550 2706 781 3412 
Q 1013 4119 1484 4856 
L 1984 4856 
z
" id="DejaVuSans-28" transform="scale(0.015625)"/>
      <path d="M 628 4666 
L 1569 4666 
L 2759 1491 
L 3956 4666 
L 4897 4666 
L 4897 0 
L 4281 0 
L 4281 4097 
L 3078 897 
L 2444 897 
L 1241 4097 
L 1241 0 
L 628 0 
L 628 4666 
z
" id="DejaVuSans-4d" transform="scale(0.015625)"/>
      <path d="M 3425 4513 
L 3425 3897 
Q 3066 4069 2747 4153 
Q 2428 4238 2131 4238 
Q 1616 4238 1336 4038 
Q 1056 3838 1056 3469 
Q 1056 3159 1242 3001 
Q 1428 2844 1947 2747 
L 2328 2669 
Q 3034 2534 3370 2195 
Q 3706 1856 3706 1288 
Q 3706 609 3251 259 
Q 2797 -91 1919 -91 
Q 1588 -91 1214 -16 
Q 841 59 441 206 
L 441 856 
Q 825 641 1194 531 
Q 1563 422 1919 422 
Q 2459 422 2753 634 
Q 3047 847 3047 1241 
Q 3047 1584 2836 1778 
Q 2625 1972 2144 2069 
L 1759 2144 
Q 1053 2284 737 2584 
Q 422 2884 422 3419 
Q 422 4038 858 4394 
Q 1294 4750 2059 4750 
Q 2388 4750 2728 4690 
Q 3069 4631 3425 4513 
z
" id="DejaVuSans-53" transform="scale(0.015625)"/>
      <path d="M 684 794 
L 1344 794 
L 1344 0 
L 684 0 
L 684 794 
z
" id="DejaVuSans-2e" transform="scale(0.015625)"/>
      <path d="M 2419 4116 
L 825 1625 
L 2419 1625 
L 2419 4116 
z
M 2253 4666 
L 3047 4666 
L 3047 1625 
L 3713 1625 
L 3713 1100 
L 3047 1100 
L 3047 0 
L 2419 0 
L 2419 1100 
L 313 1100 
L 313 1709 
L 2253 4666 
z
" id="DejaVuSans-34" transform="scale(0.015625)"/>
      <path d="M 750 794 
L 1409 794 
L 1409 256 
L 897 -744 
L 494 -744 
L 750 256 
L 750 794 
z
" id="DejaVuSans-2c" transform="scale(0.015625)"/>
      <path d="M 2188 4044 
L 1331 1722 
L 3047 1722 
L 2188 4044 
z
M 1831 4666 
L 2547 4666 
L 4325 0 
L 3669 0 
L 3244 1197 
L 1141 1197 
L 716 0 
L 50 0 
L 1831 4666 
z
" id="DejaVuSans-41" transform="scale(0.015625)"/>
      <path d="M 1259 4147 
L 1259 2394 
L 2053 2394 
Q 2494 2394 2734 2622 
Q 2975 2850 2975 3272 
Q 2975 3691 2734 3919 
Q 2494 4147 2053 4147 
L 1259 4147 
z
M 628 4666 
L 2053 4666 
Q 2838 4666 3239 4311 
Q 3641 3956 3641 3272 
Q 3641 2581 3239 2228 
Q 2838 1875 2053 1875 
L 1259 1875 
L 1259 0 
L 628 0 
L 628 4666 
z
" id="DejaVuSans-50" transform="scale(0.015625)"/>
      <path d="M 4653 2053 
Q 4381 2053 4226 1822 
Q 4072 1591 4072 1178 
Q 4072 772 4226 539 
Q 4381 306 4653 306 
Q 4919 306 5073 539 
Q 5228 772 5228 1178 
Q 5228 1588 5073 1820 
Q 4919 2053 4653 2053 
z
M 4653 2450 
Q 5147 2450 5437 2106 
Q 5728 1763 5728 1178 
Q 5728 594 5436 251 
Q 5144 -91 4653 -91 
Q 4153 -91 3862 251 
Q 3572 594 3572 1178 
Q 3572 1766 3864 2108 
Q 4156 2450 4653 2450 
z
M 1428 4353 
Q 1159 4353 1004 4120 
Q 850 3888 850 3481 
Q 850 3069 1003 2837 
Q 1156 2606 1428 2606 
Q 1700 2606 1854 2837 
Q 2009 3069 2009 3481 
Q 2009 3884 1853 4118 
Q 1697 4353 1428 4353 
z
M 4250 4750 
L 4750 4750 
L 1831 -91 
L 1331 -91 
L 4250 4750 
z
M 1428 4750 
Q 1922 4750 2215 4408 
Q 2509 4066 2509 3481 
Q 2509 2891 2217 2550 
Q 1925 2209 1428 2209 
Q 931 2209 642 2551 
Q 353 2894 353 3481 
Q 353 4063 643 4406 
Q 934 4750 1428 4750 
z
" id="DejaVuSans-25" transform="scale(0.015625)"/>
      <path d="M 703 97 
L 703 672 
Q 941 559 1184 500 
Q 1428 441 1663 441 
Q 2288 441 2617 861 
Q 2947 1281 2994 2138 
Q 2813 1869 2534 1725 
Q 2256 1581 1919 1581 
Q 1219 1581 811 2004 
Q 403 2428 403 3163 
Q 403 3881 828 4315 
Q 1253 4750 1959 4750 
Q 2769 4750 3195 4129 
Q 3622 3509 3622 2328 
Q 3622 1225 3098 567 
Q 2575 -91 1691 -91 
Q 1453 -91 1209 -44 
Q 966 3 703 97 
z
M 1959 2075 
Q 2384 2075 2632 2365 
Q 2881 2656 2881 3163 
Q 2881 3666 2632 3958 
Q 2384 4250 1959 4250 
Q 1534 4250 1286 3958 
Q 1038 3666 1038 3163 
Q 1038 2656 1286 2365 
Q 1534 2075 1959 2075 
z
" id="DejaVuSans-39" transform="scale(0.015625)"/>
      <path d="M 513 4856 
L 1013 4856 
Q 1481 4119 1714 3412 
Q 1947 2706 1947 2009 
Q 1947 1309 1714 600 
Q 1481 -109 1013 -844 
L 513 -844 
Q 928 -128 1133 580 
Q 1338 1288 1338 2009 
Q 1338 2731 1133 3434 
Q 928 4138 513 4856 
z
" id="DejaVuSans-29" transform="scale(0.015625)"/>
     </defs>
     <use transform="translate(0 0.015625)" xlink:href="#DejaVuSans-Oblique-4f"/>
     <use transform="translate(78.710938 -16.390625)scale(0.7)" xlink:href="#DejaVuSans-33"/>
     <use transform="translate(125.981445 0.015625)" xlink:href="#DejaVuSans-20"/>
     <use transform="translate(157.768555 0.015625)" xlink:href="#DejaVuSans-42"/>
     <use transform="translate(226.37207 0.015625)" xlink:href="#DejaVuSans-45"/>
     <use transform="translate(289.555664 0.015625)" xlink:href="#DejaVuSans-54"/>
     <use transform="translate(350.639648 0.015625)" xlink:href="#DejaVuSans-4e"/>
     <use transform="translate(425.444336 0.015625)" xlink:href="#DejaVuSans-30"/>
     <use transform="translate(489.067383 0.015625)" xlink:href="#DejaVuSans-37"/>
     <use transform="translate(552.69043 0.015625)" xlink:href="#DejaVuSans-33"/>
     <use transform="translate(616.313477 0.015625)" xlink:href="#DejaVuSans-20"/>
     <use transform="translate(648.100586 0.015625)" xlink:href="#DejaVuSans-32"/>
     <use transform="translate(711.723633 0.015625)" xlink:href="#DejaVuSans-30"/>
     <use transform="translate(775.34668 0.015625)" xlink:href="#DejaVuSans-31"/>
     <use transform="translate(838.969727 0.015625)" xlink:href="#DejaVuSans-30"/>
     <use transform="translate(902.592773 0.015625)" xlink:href="#DejaVuSans-3a"/>
     <use transform="translate(936.28418 0.015625)" xlink:href="#DejaVuSans-20"/>
     <use transform="translate(968.071289 0.015625)" xlink:href="#DejaVuSans-49"/>
     <use transform="translate(997.563477 0.015625)" xlink:href="#DejaVuSans-73"/>
     <use transform="translate(1049.663086 0.015625)" xlink:href="#DejaVuSans-6c"/>
     <use transform="translate(1077.446289 0.015625)" xlink:href="#DejaVuSans-61"/>
     <use transform="translate(1138.725586 0.015625)" xlink:href="#DejaVuSans-6e"/>
     <use transform="translate(1202.104492 0.015625)" xlink:href="#DejaVuSans-64"/>
     <use transform="translate(1265.581055 0.015625)" xlink:href="#DejaVuSans-20"/>
     <use transform="translate(1297.368164 0.015625)" xlink:href="#DejaVuSans-44"/>
     <use transform="translate(1374.370117 0.015625)" xlink:href="#DejaVuSans-4e"/>
     <use transform="translate(1449.174805 0.015625)" xlink:href="#DejaVuSans-4e"/>
     <use transform="translate(1523.979492 0.015625)" xlink:href="#DejaVuSans-20"/>
     <use transform="translate(1555.766602 0.015625)" xlink:href="#DejaVuSans-28"/>
     <use transform="translate(1594.780273 0.015625)" xlink:href="#DejaVuSans-4d"/>
     <use transform="translate(1681.05957 0.015625)" xlink:href="#DejaVuSans-53"/>
     <use transform="translate(1744.536133 0.015625)" xlink:href="#DejaVuSans-45"/>
     <use transform="translate(1807.719727 0.015625)" xlink:href="#DejaVuSans-3a"/>
     <use transform="translate(1841.411133 0.015625)" xlink:href="#DejaVuSans-20"/>
     <use transform="translate(1873.198242 0.015625)" xlink:href="#DejaVuSans-32"/>
     <use transform="translate(1936.821289 0.015625)" xlink:href="#DejaVuSans-38"/>
     <use transform="translate(2000.444336 0.015625)" xlink:href="#DejaVuSans-31"/>
     <use transform="translate(2064.067383 0.015625)" xlink:href="#DejaVuSans-2e"/>
     <use transform="translate(2095.854492 0.015625)" xlink:href="#DejaVuSans-34"/>
     <use transform="translate(2159.477539 0.015625)" xlink:href="#DejaVuSans-34"/>
     <use transform="translate(2223.100586 0.015625)" xlink:href="#DejaVuSans-2c"/>
     <use transform="translate(2254.887695 0.015625)" xlink:href="#DejaVuSans-20"/>
     <use transform="translate(2286.674805 0.015625)" xlink:href="#DejaVuSans-73"/>
     <use transform="translate(2338.774414 0.015625)" xlink:href="#DejaVuSans-4d"/>
     <use transform="translate(2425.053711 0.015625)" xlink:href="#DejaVuSans-41"/>
     <use transform="translate(2493.461914 0.015625)" xlink:href="#DejaVuSans-50"/>
     <use transform="translate(2553.764648 0.015625)" xlink:href="#DejaVuSans-45"/>
     <use transform="translate(2616.948242 0.015625)" xlink:href="#DejaVuSans-3a"/>
     <use transform="translate(2650.639648 0.015625)" xlink:href="#DejaVuSans-20"/>
     <use transform="translate(2682.426758 0.015625)" xlink:href="#DejaVuSans-32"/>
     <use transform="translate(2746.049805 0.015625)" xlink:href="#DejaVuSans-33"/>
     <use transform="translate(2809.672852 0.015625)" xlink:href="#DejaVuSans-2e"/>
     <use transform="translate(2838.834961 0.015625)" xlink:href="#DejaVuSans-38"/>
     <use transform="translate(2902.458008 0.015625)" xlink:href="#DejaVuSans-35"/>
     <use transform="translate(2966.081055 0.015625)" xlink:href="#DejaVuSans-25"/>
     <use transform="translate(3061.100586 0.015625)" xlink:href="#DejaVuSans-2c"/>
     <use transform="translate(3092.887695 0.015625)" xlink:href="#DejaVuSans-20"/>
     <use transform="translate(3124.674805 0.015625)" xlink:href="#DejaVuSans-4d"/>
     <use transform="translate(3210.954102 0.015625)" xlink:href="#DejaVuSans-41"/>
     <use transform="translate(3279.362305 0.015625)" xlink:href="#DejaVuSans-53"/>
     <use transform="translate(3342.838867 0.015625)" xlink:href="#DejaVuSans-45"/>
     <use transform="translate(3406.022461 0.015625)" xlink:href="#DejaVuSans-3a"/>
     <use transform="translate(3439.713867 0.015625)" xlink:href="#DejaVuSans-20"/>
     <use transform="translate(3471.500977 0.015625)" xlink:href="#DejaVuSans-30"/>
     <use transform="translate(3535.124023 0.015625)" xlink:href="#DejaVuSans-2e"/>
     <use transform="translate(3566.911133 0.015625)" xlink:href="#DejaVuSans-39"/>
     <use transform="translate(3630.53418 0.015625)" xlink:href="#DejaVuSans-35"/>
     <use transform="translate(3694.157227 0.015625)" xlink:href="#DejaVuSans-29"/>
    </g>
   </g>
   <g id="legend_1">
    <g id="patch_7">
     <path d="M 431.965625 89.19625 
L 511.4 89.19625 
Q 513.4 89.19625 513.4 87.19625 
L 513.4 58.84 
Q 513.4 56.84 511.4 56.84 
L 431.965625 56.84 
Q 429.965625 56.84 429.965625 58.84 
L 429.965625 87.19625 
Q 429.965625 89.19625 431.965625 89.19625 
z
" style="fill:#ffffff;opacity:0.8;stroke:#cccccc;stroke-linejoin:miter;"/>
    </g>
    <g id="line2d_35">
     <path d="M 433.965625 64.938437 
L 453.965625 64.938437 
" style="fill:none;stroke:#1f77b4;stroke-linecap:square;stroke-width:1.5;"/>
    </g>
    <g id="line2d_36"/>
    <g id="text_20">
     <!-- expected -->
     <g transform="translate(461.965625 68.438437)scale(0.1 -0.1)">
      <defs>
       <path d="M 3597 1894 
L 3597 1613 
L 953 1613 
Q 991 1019 1311 708 
Q 1631 397 2203 397 
Q 2534 397 2845 478 
Q 3156 559 3463 722 
L 3463 178 
Q 3153 47 2828 -22 
Q 2503 -91 2169 -91 
Q 1331 -91 842 396 
Q 353 884 353 1716 
Q 353 2575 817 3079 
Q 1281 3584 2069 3584 
Q 2775 3584 3186 3129 
Q 3597 2675 3597 1894 
z
M 3022 2063 
Q 3016 2534 2758 2815 
Q 2500 3097 2075 3097 
Q 1594 3097 1305 2825 
Q 1016 2553 972 2059 
L 3022 2063 
z
" id="DejaVuSans-65" transform="scale(0.015625)"/>
       <path d="M 1159 525 
L 1159 -1331 
L 581 -1331 
L 581 3500 
L 1159 3500 
L 1159 2969 
Q 1341 3281 1617 3432 
Q 1894 3584 2278 3584 
Q 2916 3584 3314 3078 
Q 3713 2572 3713 1747 
Q 3713 922 3314 415 
Q 2916 -91 2278 -91 
Q 1894 -91 1617 61 
Q 1341 213 1159 525 
z
M 3116 1747 
Q 3116 2381 2855 2742 
Q 2594 3103 2138 3103 
Q 1681 3103 1420 2742 
Q 1159 2381 1159 1747 
Q 1159 1113 1420 752 
Q 1681 391 2138 391 
Q 2594 391 2855 752 
Q 3116 1113 3116 1747 
z
" id="DejaVuSans-70" transform="scale(0.015625)"/>
       <path d="M 3122 3366 
L 3122 2828 
Q 2878 2963 2633 3030 
Q 2388 3097 2138 3097 
Q 1578 3097 1268 2742 
Q 959 2388 959 1747 
Q 959 1106 1268 751 
Q 1578 397 2138 397 
Q 2388 397 2633 464 
Q 2878 531 3122 666 
L 3122 134 
Q 2881 22 2623 -34 
Q 2366 -91 2075 -91 
Q 1284 -91 818 406 
Q 353 903 353 1747 
Q 353 2603 823 3093 
Q 1294 3584 2113 3584 
Q 2378 3584 2631 3529 
Q 2884 3475 3122 3366 
z
" id="DejaVuSans-63" transform="scale(0.015625)"/>
       <path d="M 1172 4494 
L 1172 3500 
L 2356 3500 
L 2356 3053 
L 1172 3053 
L 1172 1153 
Q 1172 725 1289 603 
Q 1406 481 1766 481 
L 2356 481 
L 2356 0 
L 1766 0 
Q 1100 0 847 248 
Q 594 497 594 1153 
L 594 3053 
L 172 3053 
L 172 3500 
L 594 3500 
L 594 4494 
L 1172 4494 
z
" id="DejaVuSans-74" transform="scale(0.015625)"/>
      </defs>
      <use xlink:href="#DejaVuSans-65"/>
      <use x="59.773438" xlink:href="#DejaVuSans-78"/>
      <use x="118.953125" xlink:href="#DejaVuSans-70"/>
      <use x="182.429688" xlink:href="#DejaVuSans-65"/>
      <use x="243.953125" xlink:href="#DejaVuSans-63"/>
      <use x="298.933594" xlink:href="#DejaVuSans-74"/>
      <use x="338.142578" xlink:href="#DejaVuSans-65"/>
      <use x="399.666016" xlink:href="#DejaVuSans-64"/>
     </g>
    </g>
    <g id="line2d_37">
     <path d="M 433.965625 79.616562 
L 453.965625 79.616562 
" style="fill:none;stroke:#ff7f0e;stroke-linecap:square;stroke-width:1.5;"/>
    </g>
    <g id="line2d_38"/>
    <g id="text_21">
     <!-- predicted -->
     <g transform="translate(461.965625 83.116562)scale(0.1 -0.1)">
      <defs>
       <path d="M 2631 2963 
Q 2534 3019 2420 3045 
Q 2306 3072 2169 3072 
Q 1681 3072 1420 2755 
Q 1159 2438 1159 1844 
L 1159 0 
L 581 0 
L 581 3500 
L 1159 3500 
L 1159 2956 
Q 1341 3275 1631 3429 
Q 1922 3584 2338 3584 
Q 2397 3584 2469 3576 
Q 2541 3569 2628 3553 
L 2631 2963 
z
" id="DejaVuSans-72" transform="scale(0.015625)"/>
       <path d="M 603 3500 
L 1178 3500 
L 1178 0 
L 603 0 
L 603 3500 
z
M 603 4863 
L 1178 4863 
L 1178 4134 
L 603 4134 
L 603 4863 
z
" id="DejaVuSans-69" transform="scale(0.015625)"/>
      </defs>
      <use xlink:href="#DejaVuSans-70"/>
      <use x="63.476562" xlink:href="#DejaVuSans-72"/>
      <use x="102.339844" xlink:href="#DejaVuSans-65"/>
      <use x="163.863281" xlink:href="#DejaVuSans-64"/>
      <use x="227.339844" xlink:href="#DejaVuSans-69"/>
      <use x="255.123047" xlink:href="#DejaVuSans-63"/>
      <use x="310.103516" xlink:href="#DejaVuSans-74"/>
      <use x="349.3125" xlink:href="#DejaVuSans-65"/>
      <use x="410.835938" xlink:href="#DejaVuSans-64"/>
     </g>
    </g>
   </g>
  </g>
 </g>
 <defs>
  <clipPath id="p1ae30ee4f7">
   <rect height="332.64" width="446.4" x="72" y="51.84"/>
  </clipPath>
 </defs>
</svg>
