<?xml version="1.0" encoding="utf-8" standalone="no"?>
<!DOCTYPE svg PUBLIC "-//W3C//DTD SVG 1.1//EN"
  "http://www.w3.org/Graphics/SVG/1.1/DTD/svg11.dtd">
<!-- Created with matplotlib (https://matplotlib.org/) -->
<svg height="432pt" version="1.1" viewBox="0 0 576 432" width="576pt" xmlns="http://www.w3.org/2000/svg" xmlns:xlink="http://www.w3.org/1999/xlink">
 <metadata>
  <rdf:RDF xmlns:cc="http://creativecommons.org/ns#" xmlns:dc="http://purl.org/dc/elements/1.1/" xmlns:rdf="http://www.w3.org/1999/02/22-rdf-syntax-ns#">
   <cc:Work>
    <dc:type rdf:resource="http://purl.org/dc/dcmitype/StillImage"/>
    <dc:date>2021-04-08T23:11:05.628397</dc:date>
    <dc:format>image/svg+xml</dc:format>
    <dc:creator>
     <cc:Agent>
      <dc:title>Matplotlib v3.3.4, https://matplotlib.org/</dc:title>
     </cc:Agent>
    </dc:creator>
   </cc:Work>
  </rdf:RDF>
 </metadata>
 <defs>
  <style type="text/css">*{stroke-linecap:butt;stroke-linejoin:round;}</style>
 </defs>
 <g id="figure_1">
  <g id="patch_1">
   <path d="M 0 432 
L 576 432 
L 576 0 
L 0 0 
z
" style="fill:none;"/>
  </g>
  <g id="axes_1">
   <g id="patch_2">
    <path d="M 72 378 
L 518.4 378 
L 518.4 51.84 
L 72 51.84 
z
" style="fill:#ffffff;"/>
   </g>
   <g id="matplotlib.axis_1">
    <g id="xtick_1">
     <g id="line2d_1">
      <path clip-path="url(#p593aa062e6)" d="M 92.290909 378 
L 92.290909 51.84 
" style="fill:none;stroke:#b0b0b0;stroke-linecap:square;stroke-width:0.8;"/>
     </g>
     <g id="line2d_2">
      <defs>
       <path d="M 0 0 
L 0 3.5 
" id="mbad480e59c" style="stroke:#000000;stroke-width:0.8;"/>
      </defs>
      <g>
       <use style="stroke:#000000;stroke-width:0.8;" x="92.290909" xlink:href="#mbad480e59c" y="378"/>
      </g>
     </g>
     <g id="text_1">
      <!-- 0 -->
      <g transform="translate(89.109659 392.598437)scale(0.1 -0.1)">
       <defs>
        <path d="M 31.78125 66.40625 
Q 24.171875 66.40625 20.328125 58.90625 
Q 16.5 51.421875 16.5 36.375 
Q 16.5 21.390625 20.328125 13.890625 
Q 24.171875 6.390625 31.78125 6.390625 
Q 39.453125 6.390625 43.28125 13.890625 
Q 47.125 21.390625 47.125 36.375 
Q 47.125 51.421875 43.28125 58.90625 
Q 39.453125 66.40625 31.78125 66.40625 
z
M 31.78125 74.21875 
Q 44.046875 74.21875 50.515625 64.515625 
Q 56.984375 54.828125 56.984375 36.375 
Q 56.984375 17.96875 50.515625 8.265625 
Q 44.046875 -1.421875 31.78125 -1.421875 
Q 19.53125 -1.421875 13.0625 8.265625 
Q 6.59375 17.96875 6.59375 36.375 
Q 6.59375 54.828125 13.0625 64.515625 
Q 19.53125 74.21875 31.78125 74.21875 
z
" id="DejaVuSans-48"/>
       </defs>
       <use xlink:href="#DejaVuSans-48"/>
      </g>
     </g>
    </g>
    <g id="xtick_2">
     <g id="line2d_3">
      <path clip-path="url(#p593aa062e6)" d="M 156.300086 378 
L 156.300086 51.84 
" style="fill:none;stroke:#b0b0b0;stroke-linecap:square;stroke-width:0.8;"/>
     </g>
     <g id="line2d_4">
      <g>
       <use style="stroke:#000000;stroke-width:0.8;" x="156.300086" xlink:href="#mbad480e59c" y="378"/>
      </g>
     </g>
     <g id="text_2">
      <!-- 50 -->
      <g transform="translate(149.937586 392.598437)scale(0.1 -0.1)">
       <defs>
        <path d="M 10.796875 72.90625 
L 49.515625 72.90625 
L 49.515625 64.59375 
L 19.828125 64.59375 
L 19.828125 46.734375 
Q 21.96875 47.46875 24.109375 47.828125 
Q 26.265625 48.1875 28.421875 48.1875 
Q 40.625 48.1875 47.75 41.5 
Q 54.890625 34.8125 54.890625 23.390625 
Q 54.890625 11.625 47.5625 5.09375 
Q 40.234375 -1.421875 26.90625 -1.421875 
Q 22.3125 -1.421875 17.546875 -0.640625 
Q 12.796875 0.140625 7.71875 1.703125 
L 7.71875 11.625 
Q 12.109375 9.234375 16.796875 8.0625 
Q 21.484375 6.890625 26.703125 6.890625 
Q 35.15625 6.890625 40.078125 11.328125 
Q 45.015625 15.765625 45.015625 23.390625 
Q 45.015625 31 40.078125 35.4375 
Q 35.15625 39.890625 26.703125 39.890625 
Q 22.75 39.890625 18.8125 39.015625 
Q 14.890625 38.140625 10.796875 36.28125 
z
" id="DejaVuSans-53"/>
       </defs>
       <use xlink:href="#DejaVuSans-53"/>
       <use x="63.623047" xlink:href="#DejaVuSans-48"/>
      </g>
     </g>
    </g>
    <g id="xtick_3">
     <g id="line2d_5">
      <path clip-path="url(#p593aa062e6)" d="M 220.309263 378 
L 220.309263 51.84 
" style="fill:none;stroke:#b0b0b0;stroke-linecap:square;stroke-width:0.8;"/>
     </g>
     <g id="line2d_6">
      <g>
       <use style="stroke:#000000;stroke-width:0.8;" x="220.309263" xlink:href="#mbad480e59c" y="378"/>
      </g>
     </g>
     <g id="text_3">
      <!-- 100 -->
      <g transform="translate(210.765513 392.598437)scale(0.1 -0.1)">
       <defs>
        <path d="M 12.40625 8.296875 
L 28.515625 8.296875 
L 28.515625 63.921875 
L 10.984375 60.40625 
L 10.984375 69.390625 
L 28.421875 72.90625 
L 38.28125 72.90625 
L 38.28125 8.296875 
L 54.390625 8.296875 
L 54.390625 0 
L 12.40625 0 
z
" id="DejaVuSans-49"/>
       </defs>
       <use xlink:href="#DejaVuSans-49"/>
       <use x="63.623047" xlink:href="#DejaVuSans-48"/>
       <use x="127.246094" xlink:href="#DejaVuSans-48"/>
      </g>
     </g>
    </g>
    <g id="xtick_4">
     <g id="line2d_7">
      <path clip-path="url(#p593aa062e6)" d="M 284.31844 378 
L 284.31844 51.84 
" style="fill:none;stroke:#b0b0b0;stroke-linecap:square;stroke-width:0.8;"/>
     </g>
     <g id="line2d_8">
      <g>
       <use style="stroke:#000000;stroke-width:0.8;" x="284.31844" xlink:href="#mbad480e59c" y="378"/>
      </g>
     </g>
     <g id="text_4">
      <!-- 150 -->
      <g transform="translate(274.77469 392.598437)scale(0.1 -0.1)">
       <use xlink:href="#DejaVuSans-49"/>
       <use x="63.623047" xlink:href="#DejaVuSans-53"/>
       <use x="127.246094" xlink:href="#DejaVuSans-48"/>
      </g>
     </g>
    </g>
    <g id="xtick_5">
     <g id="line2d_9">
      <path clip-path="url(#p593aa062e6)" d="M 348.327617 378 
L 348.327617 51.84 
" style="fill:none;stroke:#b0b0b0;stroke-linecap:square;stroke-width:0.8;"/>
     </g>
     <g id="line2d_10">
      <g>
       <use style="stroke:#000000;stroke-width:0.8;" x="348.327617" xlink:href="#mbad480e59c" y="378"/>
      </g>
     </g>
     <g id="text_5">
      <!-- 200 -->
      <g transform="translate(338.783867 392.598437)scale(0.1 -0.1)">
       <defs>
        <path d="M 19.1875 8.296875 
L 53.609375 8.296875 
L 53.609375 0 
L 7.328125 0 
L 7.328125 8.296875 
Q 12.9375 14.109375 22.625 23.890625 
Q 32.328125 33.6875 34.8125 36.53125 
Q 39.546875 41.84375 41.421875 45.53125 
Q 43.3125 49.21875 43.3125 52.78125 
Q 43.3125 58.59375 39.234375 62.25 
Q 35.15625 65.921875 28.609375 65.921875 
Q 23.96875 65.921875 18.8125 64.3125 
Q 13.671875 62.703125 7.8125 59.421875 
L 7.8125 69.390625 
Q 13.765625 71.78125 18.9375 73 
Q 24.125 74.21875 28.421875 74.21875 
Q 39.75 74.21875 46.484375 68.546875 
Q 53.21875 62.890625 53.21875 53.421875 
Q 53.21875 48.921875 51.53125 44.890625 
Q 49.859375 40.875 45.40625 35.40625 
Q 44.1875 33.984375 37.640625 27.21875 
Q 31.109375 20.453125 19.1875 8.296875 
z
" id="DejaVuSans-50"/>
       </defs>
       <use xlink:href="#DejaVuSans-50"/>
       <use x="63.623047" xlink:href="#DejaVuSans-48"/>
       <use x="127.246094" xlink:href="#DejaVuSans-48"/>
      </g>
     </g>
    </g>
    <g id="xtick_6">
     <g id="line2d_11">
      <path clip-path="url(#p593aa062e6)" d="M 412.336794 378 
L 412.336794 51.84 
" style="fill:none;stroke:#b0b0b0;stroke-linecap:square;stroke-width:0.8;"/>
     </g>
     <g id="line2d_12">
      <g>
       <use style="stroke:#000000;stroke-width:0.8;" x="412.336794" xlink:href="#mbad480e59c" y="378"/>
      </g>
     </g>
     <g id="text_6">
      <!-- 250 -->
      <g transform="translate(402.793044 392.598437)scale(0.1 -0.1)">
       <use xlink:href="#DejaVuSans-50"/>
       <use x="63.623047" xlink:href="#DejaVuSans-53"/>
       <use x="127.246094" xlink:href="#DejaVuSans-48"/>
      </g>
     </g>
    </g>
    <g id="xtick_7">
     <g id="line2d_13">
      <path clip-path="url(#p593aa062e6)" d="M 476.345971 378 
L 476.345971 51.84 
" style="fill:none;stroke:#b0b0b0;stroke-linecap:square;stroke-width:0.8;"/>
     </g>
     <g id="line2d_14">
      <g>
       <use style="stroke:#000000;stroke-width:0.8;" x="476.345971" xlink:href="#mbad480e59c" y="378"/>
      </g>
     </g>
     <g id="text_7">
      <!-- 300 -->
      <g transform="translate(466.802221 392.598437)scale(0.1 -0.1)">
       <defs>
        <path d="M 40.578125 39.3125 
Q 47.65625 37.796875 51.625 33 
Q 55.609375 28.21875 55.609375 21.1875 
Q 55.609375 10.40625 48.1875 4.484375 
Q 40.765625 -1.421875 27.09375 -1.421875 
Q 22.515625 -1.421875 17.65625 -0.515625 
Q 12.796875 0.390625 7.625 2.203125 
L 7.625 11.71875 
Q 11.71875 9.328125 16.59375 8.109375 
Q 21.484375 6.890625 26.8125 6.890625 
Q 36.078125 6.890625 40.9375 10.546875 
Q 45.796875 14.203125 45.796875 21.1875 
Q 45.796875 27.640625 41.28125 31.265625 
Q 36.765625 34.90625 28.71875 34.90625 
L 20.21875 34.90625 
L 20.21875 43.015625 
L 29.109375 43.015625 
Q 36.375 43.015625 40.234375 45.921875 
Q 44.09375 48.828125 44.09375 54.296875 
Q 44.09375 59.90625 40.109375 62.90625 
Q 36.140625 65.921875 28.71875 65.921875 
Q 24.65625 65.921875 20.015625 65.03125 
Q 15.375 64.15625 9.8125 62.3125 
L 9.8125 71.09375 
Q 15.4375 72.65625 20.34375 73.4375 
Q 25.25 74.21875 29.59375 74.21875 
Q 40.828125 74.21875 47.359375 69.109375 
Q 53.90625 64.015625 53.90625 55.328125 
Q 53.90625 49.265625 50.4375 45.09375 
Q 46.96875 40.921875 40.578125 39.3125 
z
" id="DejaVuSans-51"/>
       </defs>
       <use xlink:href="#DejaVuSans-51"/>
       <use x="63.623047" xlink:href="#DejaVuSans-48"/>
       <use x="127.246094" xlink:href="#DejaVuSans-48"/>
      </g>
     </g>
    </g>
    <g id="text_8">
     <!-- # Fitness Evaluations -->
     <g transform="translate(241.528125 406.276563)scale(0.1 -0.1)">
      <defs>
       <path d="M 51.125 44 
L 36.921875 44 
L 32.8125 27.6875 
L 47.125 27.6875 
z
M 43.796875 71.78125 
L 38.71875 51.515625 
L 52.984375 51.515625 
L 58.109375 71.78125 
L 65.921875 71.78125 
L 60.890625 51.515625 
L 76.125 51.515625 
L 76.125 44 
L 58.984375 44 
L 54.984375 27.6875 
L 70.515625 27.6875 
L 70.515625 20.21875 
L 53.078125 20.21875 
L 48 0 
L 40.1875 0 
L 45.21875 20.21875 
L 30.90625 20.21875 
L 25.875 0 
L 18.015625 0 
L 23.09375 20.21875 
L 7.71875 20.21875 
L 7.71875 27.6875 
L 24.90625 27.6875 
L 29 44 
L 13.28125 44 
L 13.28125 51.515625 
L 30.90625 51.515625 
L 35.890625 71.78125 
z
" id="DejaVuSans-35"/>
       <path id="DejaVuSans-32"/>
       <path d="M 9.8125 72.90625 
L 51.703125 72.90625 
L 51.703125 64.59375 
L 19.671875 64.59375 
L 19.671875 43.109375 
L 48.578125 43.109375 
L 48.578125 34.8125 
L 19.671875 34.8125 
L 19.671875 0 
L 9.8125 0 
z
" id="DejaVuSans-70"/>
       <path d="M 9.421875 54.6875 
L 18.40625 54.6875 
L 18.40625 0 
L 9.421875 0 
z
M 9.421875 75.984375 
L 18.40625 75.984375 
L 18.40625 64.59375 
L 9.421875 64.59375 
z
" id="DejaVuSans-105"/>
       <path d="M 18.3125 70.21875 
L 18.3125 54.6875 
L 36.8125 54.6875 
L 36.8125 47.703125 
L 18.3125 47.703125 
L 18.3125 18.015625 
Q 18.3125 11.328125 20.140625 9.421875 
Q 21.96875 7.515625 27.59375 7.515625 
L 36.8125 7.515625 
L 36.8125 0 
L 27.59375 0 
Q 17.1875 0 13.234375 3.875 
Q 9.28125 7.765625 9.28125 18.015625 
L 9.28125 47.703125 
L 2.6875 47.703125 
L 2.6875 54.6875 
L 9.28125 54.6875 
L 9.28125 70.21875 
z
" id="DejaVuSans-116"/>
       <path d="M 54.890625 33.015625 
L 54.890625 0 
L 45.90625 0 
L 45.90625 32.71875 
Q 45.90625 40.484375 42.875 44.328125 
Q 39.84375 48.1875 33.796875 48.1875 
Q 26.515625 48.1875 22.3125 43.546875 
Q 18.109375 38.921875 18.109375 30.90625 
L 18.109375 0 
L 9.078125 0 
L 9.078125 54.6875 
L 18.109375 54.6875 
L 18.109375 46.1875 
Q 21.34375 51.125 25.703125 53.5625 
Q 30.078125 56 35.796875 56 
Q 45.21875 56 50.046875 50.171875 
Q 54.890625 44.34375 54.890625 33.015625 
z
" id="DejaVuSans-110"/>
       <path d="M 56.203125 29.59375 
L 56.203125 25.203125 
L 14.890625 25.203125 
Q 15.484375 15.921875 20.484375 11.0625 
Q 25.484375 6.203125 34.421875 6.203125 
Q 39.59375 6.203125 44.453125 7.46875 
Q 49.3125 8.734375 54.109375 11.28125 
L 54.109375 2.78125 
Q 49.265625 0.734375 44.1875 -0.34375 
Q 39.109375 -1.421875 33.890625 -1.421875 
Q 20.796875 -1.421875 13.15625 6.1875 
Q 5.515625 13.8125 5.515625 26.8125 
Q 5.515625 40.234375 12.765625 48.109375 
Q 20.015625 56 32.328125 56 
Q 43.359375 56 49.78125 48.890625 
Q 56.203125 41.796875 56.203125 29.59375 
z
M 47.21875 32.234375 
Q 47.125 39.59375 43.09375 43.984375 
Q 39.0625 48.390625 32.421875 48.390625 
Q 24.90625 48.390625 20.390625 44.140625 
Q 15.875 39.890625 15.1875 32.171875 
z
" id="DejaVuSans-101"/>
       <path d="M 44.28125 53.078125 
L 44.28125 44.578125 
Q 40.484375 46.53125 36.375 47.5 
Q 32.28125 48.484375 27.875 48.484375 
Q 21.1875 48.484375 17.84375 46.4375 
Q 14.5 44.390625 14.5 40.28125 
Q 14.5 37.15625 16.890625 35.375 
Q 19.28125 33.59375 26.515625 31.984375 
L 29.59375 31.296875 
Q 39.15625 29.25 43.1875 25.515625 
Q 47.21875 21.78125 47.21875 15.09375 
Q 47.21875 7.46875 41.1875 3.015625 
Q 35.15625 -1.421875 24.609375 -1.421875 
Q 20.21875 -1.421875 15.453125 -0.5625 
Q 10.6875 0.296875 5.421875 2 
L 5.421875 11.28125 
Q 10.40625 8.6875 15.234375 7.390625 
Q 20.0625 6.109375 24.8125 6.109375 
Q 31.15625 6.109375 34.5625 8.28125 
Q 37.984375 10.453125 37.984375 14.40625 
Q 37.984375 18.0625 35.515625 20.015625 
Q 33.0625 21.96875 24.703125 23.78125 
L 21.578125 24.515625 
Q 13.234375 26.265625 9.515625 29.90625 
Q 5.8125 33.546875 5.8125 39.890625 
Q 5.8125 47.609375 11.28125 51.796875 
Q 16.75 56 26.8125 56 
Q 31.78125 56 36.171875 55.265625 
Q 40.578125 54.546875 44.28125 53.078125 
z
" id="DejaVuSans-115"/>
       <path d="M 9.8125 72.90625 
L 55.90625 72.90625 
L 55.90625 64.59375 
L 19.671875 64.59375 
L 19.671875 43.015625 
L 54.390625 43.015625 
L 54.390625 34.71875 
L 19.671875 34.71875 
L 19.671875 8.296875 
L 56.78125 8.296875 
L 56.78125 0 
L 9.8125 0 
z
" id="DejaVuSans-69"/>
       <path d="M 2.984375 54.6875 
L 12.5 54.6875 
L 29.59375 8.796875 
L 46.6875 54.6875 
L 56.203125 54.6875 
L 35.6875 0 
L 23.484375 0 
z
" id="DejaVuSans-118"/>
       <path d="M 34.28125 27.484375 
Q 23.390625 27.484375 19.1875 25 
Q 14.984375 22.515625 14.984375 16.5 
Q 14.984375 11.71875 18.140625 8.90625 
Q 21.296875 6.109375 26.703125 6.109375 
Q 34.1875 6.109375 38.703125 11.40625 
Q 43.21875 16.703125 43.21875 25.484375 
L 43.21875 27.484375 
z
M 52.203125 31.203125 
L 52.203125 0 
L 43.21875 0 
L 43.21875 8.296875 
Q 40.140625 3.328125 35.546875 0.953125 
Q 30.953125 -1.421875 24.3125 -1.421875 
Q 15.921875 -1.421875 10.953125 3.296875 
Q 6 8.015625 6 15.921875 
Q 6 25.140625 12.171875 29.828125 
Q 18.359375 34.515625 30.609375 34.515625 
L 43.21875 34.515625 
L 43.21875 35.40625 
Q 43.21875 41.609375 39.140625 45 
Q 35.0625 48.390625 27.6875 48.390625 
Q 23 48.390625 18.546875 47.265625 
Q 14.109375 46.140625 10.015625 43.890625 
L 10.015625 52.203125 
Q 14.9375 54.109375 19.578125 55.046875 
Q 24.21875 56 28.609375 56 
Q 40.484375 56 46.34375 49.84375 
Q 52.203125 43.703125 52.203125 31.203125 
z
" id="DejaVuSans-97"/>
       <path d="M 9.421875 75.984375 
L 18.40625 75.984375 
L 18.40625 0 
L 9.421875 0 
z
" id="DejaVuSans-108"/>
       <path d="M 8.5 21.578125 
L 8.5 54.6875 
L 17.484375 54.6875 
L 17.484375 21.921875 
Q 17.484375 14.15625 20.5 10.265625 
Q 23.53125 6.390625 29.59375 6.390625 
Q 36.859375 6.390625 41.078125 11.03125 
Q 45.3125 15.671875 45.3125 23.6875 
L 45.3125 54.6875 
L 54.296875 54.6875 
L 54.296875 0 
L 45.3125 0 
L 45.3125 8.40625 
Q 42.046875 3.421875 37.71875 1 
Q 33.40625 -1.421875 27.6875 -1.421875 
Q 18.265625 -1.421875 13.375 4.4375 
Q 8.5 10.296875 8.5 21.578125 
z
M 31.109375 56 
z
" id="DejaVuSans-117"/>
       <path d="M 30.609375 48.390625 
Q 23.390625 48.390625 19.1875 42.75 
Q 14.984375 37.109375 14.984375 27.296875 
Q 14.984375 17.484375 19.15625 11.84375 
Q 23.34375 6.203125 30.609375 6.203125 
Q 37.796875 6.203125 41.984375 11.859375 
Q 46.1875 17.53125 46.1875 27.296875 
Q 46.1875 37.015625 41.984375 42.703125 
Q 37.796875 48.390625 30.609375 48.390625 
z
M 30.609375 56 
Q 42.328125 56 49.015625 48.375 
Q 55.71875 40.765625 55.71875 27.296875 
Q 55.71875 13.875 49.015625 6.21875 
Q 42.328125 -1.421875 30.609375 -1.421875 
Q 18.84375 -1.421875 12.171875 6.21875 
Q 5.515625 13.875 5.515625 27.296875 
Q 5.515625 40.765625 12.171875 48.375 
Q 18.84375 56 30.609375 56 
z
" id="DejaVuSans-111"/>
      </defs>
      <use xlink:href="#DejaVuSans-35"/>
      <use x="83.789062" xlink:href="#DejaVuSans-32"/>
      <use x="115.576172" xlink:href="#DejaVuSans-70"/>
      <use x="165.845703" xlink:href="#DejaVuSans-105"/>
      <use x="193.628906" xlink:href="#DejaVuSans-116"/>
      <use x="232.837891" xlink:href="#DejaVuSans-110"/>
      <use x="296.216797" xlink:href="#DejaVuSans-101"/>
      <use x="357.740234" xlink:href="#DejaVuSans-115"/>
      <use x="409.839844" xlink:href="#DejaVuSans-115"/>
      <use x="461.939453" xlink:href="#DejaVuSans-32"/>
      <use x="493.726562" xlink:href="#DejaVuSans-69"/>
      <use x="556.910156" xlink:href="#DejaVuSans-118"/>
      <use x="616.089844" xlink:href="#DejaVuSans-97"/>
      <use x="677.369141" xlink:href="#DejaVuSans-108"/>
      <use x="705.152344" xlink:href="#DejaVuSans-117"/>
      <use x="768.53125" xlink:href="#DejaVuSans-97"/>
      <use x="829.810547" xlink:href="#DejaVuSans-116"/>
      <use x="869.019531" xlink:href="#DejaVuSans-105"/>
      <use x="896.802734" xlink:href="#DejaVuSans-111"/>
      <use x="957.984375" xlink:href="#DejaVuSans-110"/>
      <use x="1021.363281" xlink:href="#DejaVuSans-115"/>
     </g>
    </g>
   </g>
   <g id="matplotlib.axis_2">
    <g id="ytick_1">
     <g id="line2d_15">
      <path clip-path="url(#p593aa062e6)" d="M 72 332.164637 
L 518.4 332.164637 
" style="fill:none;stroke:#b0b0b0;stroke-linecap:square;stroke-width:0.8;"/>
     </g>
     <g id="line2d_16">
      <defs>
       <path d="M 0 0 
L -3.5 0 
" id="m7ccfb2238d" style="stroke:#000000;stroke-width:0.8;"/>
      </defs>
      <g>
       <use style="stroke:#000000;stroke-width:0.8;" x="72" xlink:href="#m7ccfb2238d" y="332.164637"/>
      </g>
     </g>
     <g id="text_9">
      <!-- 500 -->
      <g transform="translate(45.9125 335.963856)scale(0.1 -0.1)">
       <use xlink:href="#DejaVuSans-53"/>
       <use x="63.623047" xlink:href="#DejaVuSans-48"/>
       <use x="127.246094" xlink:href="#DejaVuSans-48"/>
      </g>
     </g>
    </g>
    <g id="ytick_2">
     <g id="line2d_17">
      <path clip-path="url(#p593aa062e6)" d="M 72 269.088828 
L 518.4 269.088828 
" style="fill:none;stroke:#b0b0b0;stroke-linecap:square;stroke-width:0.8;"/>
     </g>
     <g id="line2d_18">
      <g>
       <use style="stroke:#000000;stroke-width:0.8;" x="72" xlink:href="#m7ccfb2238d" y="269.088828"/>
      </g>
     </g>
     <g id="text_10">
      <!-- 1000 -->
      <g transform="translate(39.55 272.888047)scale(0.1 -0.1)">
       <use xlink:href="#DejaVuSans-49"/>
       <use x="63.623047" xlink:href="#DejaVuSans-48"/>
       <use x="127.246094" xlink:href="#DejaVuSans-48"/>
       <use x="190.869141" xlink:href="#DejaVuSans-48"/>
      </g>
     </g>
    </g>
    <g id="ytick_3">
     <g id="line2d_19">
      <path clip-path="url(#p593aa062e6)" d="M 72 206.013018 
L 518.4 206.013018 
" style="fill:none;stroke:#b0b0b0;stroke-linecap:square;stroke-width:0.8;"/>
     </g>
     <g id="line2d_20">
      <g>
       <use style="stroke:#000000;stroke-width:0.8;" x="72" xlink:href="#m7ccfb2238d" y="206.013018"/>
      </g>
     </g>
     <g id="text_11">
      <!-- 1500 -->
      <g transform="translate(39.55 209.812237)scale(0.1 -0.1)">
       <use xlink:href="#DejaVuSans-49"/>
       <use x="63.623047" xlink:href="#DejaVuSans-53"/>
       <use x="127.246094" xlink:href="#DejaVuSans-48"/>
       <use x="190.869141" xlink:href="#DejaVuSans-48"/>
      </g>
     </g>
    </g>
    <g id="ytick_4">
     <g id="line2d_21">
      <path clip-path="url(#p593aa062e6)" d="M 72 142.937209 
L 518.4 142.937209 
" style="fill:none;stroke:#b0b0b0;stroke-linecap:square;stroke-width:0.8;"/>
     </g>
     <g id="line2d_22">
      <g>
       <use style="stroke:#000000;stroke-width:0.8;" x="72" xlink:href="#m7ccfb2238d" y="142.937209"/>
      </g>
     </g>
     <g id="text_12">
      <!-- 2000 -->
      <g transform="translate(39.55 146.736428)scale(0.1 -0.1)">
       <use xlink:href="#DejaVuSans-50"/>
       <use x="63.623047" xlink:href="#DejaVuSans-48"/>
       <use x="127.246094" xlink:href="#DejaVuSans-48"/>
       <use x="190.869141" xlink:href="#DejaVuSans-48"/>
      </g>
     </g>
    </g>
    <g id="ytick_5">
     <g id="line2d_23">
      <path clip-path="url(#p593aa062e6)" d="M 72 79.8614 
L 518.4 79.8614 
" style="fill:none;stroke:#b0b0b0;stroke-linecap:square;stroke-width:0.8;"/>
     </g>
     <g id="line2d_24">
      <g>
       <use style="stroke:#000000;stroke-width:0.8;" x="72" xlink:href="#m7ccfb2238d" y="79.8614"/>
      </g>
     </g>
     <g id="text_13">
      <!-- 2500 -->
      <g transform="translate(39.55 83.660618)scale(0.1 -0.1)">
       <use xlink:href="#DejaVuSans-50"/>
       <use x="63.623047" xlink:href="#DejaVuSans-53"/>
       <use x="127.246094" xlink:href="#DejaVuSans-48"/>
       <use x="190.869141" xlink:href="#DejaVuSans-48"/>
      </g>
     </g>
    </g>
    <g id="text_14">
     <!-- 100 - SMAPE% -->
     <g transform="translate(33.470312 251.279375)rotate(-90)scale(0.1 -0.1)">
      <defs>
       <path d="M 4.890625 31.390625 
L 31.203125 31.390625 
L 31.203125 23.390625 
L 4.890625 23.390625 
z
" id="DejaVuSans-45"/>
       <path d="M 53.515625 70.515625 
L 53.515625 60.890625 
Q 47.90625 63.578125 42.921875 64.890625 
Q 37.9375 66.21875 33.296875 66.21875 
Q 25.25 66.21875 20.875 63.09375 
Q 16.5 59.96875 16.5 54.203125 
Q 16.5 49.359375 19.40625 46.890625 
Q 22.3125 44.4375 30.421875 42.921875 
L 36.375 41.703125 
Q 47.40625 39.59375 52.65625 34.296875 
Q 57.90625 29 57.90625 20.125 
Q 57.90625 9.515625 50.796875 4.046875 
Q 43.703125 -1.421875 29.984375 -1.421875 
Q 24.8125 -1.421875 18.96875 -0.25 
Q 13.140625 0.921875 6.890625 3.21875 
L 6.890625 13.375 
Q 12.890625 10.015625 18.65625 8.296875 
Q 24.421875 6.59375 29.984375 6.59375 
Q 38.421875 6.59375 43.015625 9.90625 
Q 47.609375 13.234375 47.609375 19.390625 
Q 47.609375 24.75 44.3125 27.78125 
Q 41.015625 30.8125 33.5 32.328125 
L 27.484375 33.5 
Q 16.453125 35.6875 11.515625 40.375 
Q 6.59375 45.0625 6.59375 53.421875 
Q 6.59375 63.09375 13.40625 68.65625 
Q 20.21875 74.21875 32.171875 74.21875 
Q 37.3125 74.21875 42.625 73.28125 
Q 47.953125 72.359375 53.515625 70.515625 
z
" id="DejaVuSans-83"/>
       <path d="M 9.8125 72.90625 
L 24.515625 72.90625 
L 43.109375 23.296875 
L 61.8125 72.90625 
L 76.515625 72.90625 
L 76.515625 0 
L 66.890625 0 
L 66.890625 64.015625 
L 48.09375 14.015625 
L 38.1875 14.015625 
L 19.390625 64.015625 
L 19.390625 0 
L 9.8125 0 
z
" id="DejaVuSans-77"/>
       <path d="M 34.1875 63.1875 
L 20.796875 26.90625 
L 47.609375 26.90625 
z
M 28.609375 72.90625 
L 39.796875 72.90625 
L 67.578125 0 
L 57.328125 0 
L 50.6875 18.703125 
L 17.828125 18.703125 
L 11.1875 0 
L 0.78125 0 
z
" id="DejaVuSans-65"/>
       <path d="M 19.671875 64.796875 
L 19.671875 37.40625 
L 32.078125 37.40625 
Q 38.96875 37.40625 42.71875 40.96875 
Q 46.484375 44.53125 46.484375 51.125 
Q 46.484375 57.671875 42.71875 61.234375 
Q 38.96875 64.796875 32.078125 64.796875 
z
M 9.8125 72.90625 
L 32.078125 72.90625 
Q 44.34375 72.90625 50.609375 67.359375 
Q 56.890625 61.8125 56.890625 51.125 
Q 56.890625 40.328125 50.609375 34.8125 
Q 44.34375 29.296875 32.078125 29.296875 
L 19.671875 29.296875 
L 19.671875 0 
L 9.8125 0 
z
" id="DejaVuSans-80"/>
       <path d="M 72.703125 32.078125 
Q 68.453125 32.078125 66.03125 28.46875 
Q 63.625 24.859375 63.625 18.40625 
Q 63.625 12.0625 66.03125 8.421875 
Q 68.453125 4.78125 72.703125 4.78125 
Q 76.859375 4.78125 79.265625 8.421875 
Q 81.6875 12.0625 81.6875 18.40625 
Q 81.6875 24.8125 79.265625 28.4375 
Q 76.859375 32.078125 72.703125 32.078125 
z
M 72.703125 38.28125 
Q 80.421875 38.28125 84.953125 32.90625 
Q 89.5 27.546875 89.5 18.40625 
Q 89.5 9.28125 84.9375 3.921875 
Q 80.375 -1.421875 72.703125 -1.421875 
Q 64.890625 -1.421875 60.34375 3.921875 
Q 55.8125 9.28125 55.8125 18.40625 
Q 55.8125 27.59375 60.375 32.9375 
Q 64.9375 38.28125 72.703125 38.28125 
z
M 22.3125 68.015625 
Q 18.109375 68.015625 15.6875 64.375 
Q 13.28125 60.75 13.28125 54.390625 
Q 13.28125 47.953125 15.671875 44.328125 
Q 18.0625 40.71875 22.3125 40.71875 
Q 26.5625 40.71875 28.96875 44.328125 
Q 31.390625 47.953125 31.390625 54.390625 
Q 31.390625 60.6875 28.953125 64.34375 
Q 26.515625 68.015625 22.3125 68.015625 
z
M 66.40625 74.21875 
L 74.21875 74.21875 
L 28.609375 -1.421875 
L 20.796875 -1.421875 
z
M 22.3125 74.21875 
Q 30.03125 74.21875 34.609375 68.875 
Q 39.203125 63.53125 39.203125 54.390625 
Q 39.203125 45.171875 34.640625 39.84375 
Q 30.078125 34.515625 22.3125 34.515625 
Q 14.546875 34.515625 10.03125 39.859375 
Q 5.515625 45.21875 5.515625 54.390625 
Q 5.515625 63.484375 10.046875 68.84375 
Q 14.59375 74.21875 22.3125 74.21875 
z
" id="DejaVuSans-37"/>
      </defs>
      <use xlink:href="#DejaVuSans-49"/>
      <use x="63.623047" xlink:href="#DejaVuSans-48"/>
      <use x="127.246094" xlink:href="#DejaVuSans-48"/>
      <use x="190.869141" xlink:href="#DejaVuSans-32"/>
      <use x="222.65625" xlink:href="#DejaVuSans-45"/>
      <use x="258.740234" xlink:href="#DejaVuSans-32"/>
      <use x="290.527344" xlink:href="#DejaVuSans-83"/>
      <use x="354.003906" xlink:href="#DejaVuSans-77"/>
      <use x="440.283203" xlink:href="#DejaVuSans-65"/>
      <use x="508.691406" xlink:href="#DejaVuSans-80"/>
      <use x="568.994141" xlink:href="#DejaVuSans-69"/>
      <use x="632.177734" xlink:href="#DejaVuSans-37"/>
     </g>
    </g>
   </g>
   <g id="line2d_25">
    <defs>
     <path d="M -3 3 
L 3 -3 
M -3 -3 
L 3 3 
" id="mccda90756b" style="stroke:#1f77b4;"/>
    </defs>
    <g clip-path="url(#p593aa062e6)">
     <use style="fill:#1f77b4;stroke:#1f77b4;" x="92.290909" xlink:href="#mccda90756b" y="361.250917"/>
     <use style="fill:#1f77b4;stroke:#1f77b4;" x="93.571093" xlink:href="#mccda90756b" y="361.342374"/>
     <use style="fill:#1f77b4;stroke:#1f77b4;" x="94.851276" xlink:href="#mccda90756b" y="293.693751"/>
     <use style="fill:#1f77b4;stroke:#1f77b4;" x="96.13146" xlink:href="#mccda90756b" y="361.511137"/>
     <use style="fill:#1f77b4;stroke:#1f77b4;" x="97.411643" xlink:href="#mccda90756b" y="307.969008"/>
     <use style="fill:#1f77b4;stroke:#1f77b4;" x="98.691827" xlink:href="#mccda90756b" y="354.62225"/>
     <use style="fill:#1f77b4;stroke:#1f77b4;" x="99.97201" xlink:href="#mccda90756b" y="355.209392"/>
     <use style="fill:#1f77b4;stroke:#1f77b4;" x="101.252194" xlink:href="#mccda90756b" y="316.987836"/>
     <use style="fill:#1f77b4;stroke:#1f77b4;" x="102.532377" xlink:href="#mccda90756b" y="315.487874"/>
     <use style="fill:#1f77b4;stroke:#1f77b4;" x="103.812561" xlink:href="#mccda90756b" y="347.695998"/>
     <use style="fill:#1f77b4;stroke:#1f77b4;" x="105.092744" xlink:href="#mccda90756b" y="360.022403"/>
     <use style="fill:#1f77b4;stroke:#1f77b4;" x="106.372928" xlink:href="#mccda90756b" y="359.13538"/>
     <use style="fill:#1f77b4;stroke:#1f77b4;" x="107.653112" xlink:href="#mccda90756b" y="358.173848"/>
     <use style="fill:#1f77b4;stroke:#1f77b4;" x="108.933295" xlink:href="#mccda90756b" y="344.790058"/>
     <use style="fill:#1f77b4;stroke:#1f77b4;" x="110.213479" xlink:href="#mccda90756b" y="361.156121"/>
     <use style="fill:#1f77b4;stroke:#1f77b4;" x="111.493662" xlink:href="#mccda90756b" y="343.645541"/>
     <use style="fill:#1f77b4;stroke:#1f77b4;" x="112.773846" xlink:href="#mccda90756b" y="362.671028"/>
     <use style="fill:#1f77b4;stroke:#1f77b4;" x="114.054029" xlink:href="#mccda90756b" y="360.230166"/>
     <use style="fill:#1f77b4;stroke:#1f77b4;" x="115.334213" xlink:href="#mccda90756b" y="359.032032"/>
     <use style="fill:#1f77b4;stroke:#1f77b4;" x="116.614396" xlink:href="#mccda90756b" y="358.66014"/>
     <use style="fill:#1f77b4;stroke:#1f77b4;" x="117.89458" xlink:href="#mccda90756b" y="359.999506"/>
     <use style="fill:#1f77b4;stroke:#1f77b4;" x="119.174763" xlink:href="#mccda90756b" y="354.190796"/>
     <use style="fill:#1f77b4;stroke:#1f77b4;" x="120.454947" xlink:href="#mccda90756b" y="361.08147"/>
     <use style="fill:#1f77b4;stroke:#1f77b4;" x="121.73513" xlink:href="#mccda90756b" y="350.857762"/>
     <use style="fill:#1f77b4;stroke:#1f77b4;" x="123.015314" xlink:href="#mccda90756b" y="362.009742"/>
     <use style="fill:#1f77b4;stroke:#1f77b4;" x="124.295498" xlink:href="#mccda90756b" y="357.93019"/>
     <use style="fill:#1f77b4;stroke:#1f77b4;" x="125.575681" xlink:href="#mccda90756b" y="323.843734"/>
     <use style="fill:#1f77b4;stroke:#1f77b4;" x="126.855865" xlink:href="#mccda90756b" y="361.213865"/>
     <use style="fill:#1f77b4;stroke:#1f77b4;" x="128.136048" xlink:href="#mccda90756b" y="362.636153"/>
     <use style="fill:#1f77b4;stroke:#1f77b4;" x="129.416232" xlink:href="#mccda90756b" y="363.040481"/>
     <use style="fill:#1f77b4;stroke:#1f77b4;" x="130.696415" xlink:href="#mccda90756b" y="359.598019"/>
     <use style="fill:#1f77b4;stroke:#1f77b4;" x="131.976599" xlink:href="#mccda90756b" y="315.142569"/>
     <use style="fill:#1f77b4;stroke:#1f77b4;" x="133.256782" xlink:href="#mccda90756b" y="362.630468"/>
     <use style="fill:#1f77b4;stroke:#1f77b4;" x="134.536966" xlink:href="#mccda90756b" y="361.990893"/>
     <use style="fill:#1f77b4;stroke:#1f77b4;" x="135.817149" xlink:href="#mccda90756b" y="359.144269"/>
     <use style="fill:#1f77b4;stroke:#1f77b4;" x="137.097333" xlink:href="#mccda90756b" y="354.26233"/>
     <use style="fill:#1f77b4;stroke:#1f77b4;" x="138.377516" xlink:href="#mccda90756b" y="355.161245"/>
     <use style="fill:#1f77b4;stroke:#1f77b4;" x="139.6577" xlink:href="#mccda90756b" y="352.680095"/>
     <use style="fill:#1f77b4;stroke:#1f77b4;" x="140.937884" xlink:href="#mccda90756b" y="346.884496"/>
     <use style="fill:#1f77b4;stroke:#1f77b4;" x="142.218067" xlink:href="#mccda90756b" y="358.282007"/>
     <use style="fill:#1f77b4;stroke:#1f77b4;" x="143.498251" xlink:href="#mccda90756b" y="340.143074"/>
     <use style="fill:#1f77b4;stroke:#1f77b4;" x="144.778434" xlink:href="#mccda90756b" y="350.843589"/>
     <use style="fill:#1f77b4;stroke:#1f77b4;" x="146.058618" xlink:href="#mccda90756b" y="360.185694"/>
     <use style="fill:#1f77b4;stroke:#1f77b4;" x="147.338801" xlink:href="#mccda90756b" y="294.076468"/>
     <use style="fill:#1f77b4;stroke:#1f77b4;" x="148.618985" xlink:href="#mccda90756b" y="361.244818"/>
     <use style="fill:#1f77b4;stroke:#1f77b4;" x="149.899168" xlink:href="#mccda90756b" y="355.963998"/>
     <use style="fill:#1f77b4;stroke:#1f77b4;" x="151.179352" xlink:href="#mccda90756b" y="358.923949"/>
     <use style="fill:#1f77b4;stroke:#1f77b4;" x="152.459535" xlink:href="#mccda90756b" y="359.897954"/>
     <use style="fill:#1f77b4;stroke:#1f77b4;" x="153.739719" xlink:href="#mccda90756b" y="358.442638"/>
     <use style="fill:#1f77b4;stroke:#1f77b4;" x="155.019902" xlink:href="#mccda90756b" y="358.889252"/>
     <use style="fill:#1f77b4;stroke:#1f77b4;" x="156.300086" xlink:href="#mccda90756b" y="334.90967"/>
     <use style="fill:#1f77b4;stroke:#1f77b4;" x="157.58027" xlink:href="#mccda90756b" y="362.160311"/>
     <use style="fill:#1f77b4;stroke:#1f77b4;" x="158.860453" xlink:href="#mccda90756b" y="359.853464"/>
     <use style="fill:#1f77b4;stroke:#1f77b4;" x="160.140637" xlink:href="#mccda90756b" y="360.986418"/>
     <use style="fill:#1f77b4;stroke:#1f77b4;" x="161.42082" xlink:href="#mccda90756b" y="357.172844"/>
     <use style="fill:#1f77b4;stroke:#1f77b4;" x="162.701004" xlink:href="#mccda90756b" y="359.65406"/>
     <use style="fill:#1f77b4;stroke:#1f77b4;" x="163.981187" xlink:href="#mccda90756b" y="354.40646"/>
     <use style="fill:#1f77b4;stroke:#1f77b4;" x="165.261371" xlink:href="#mccda90756b" y="361.61194"/>
     <use style="fill:#1f77b4;stroke:#1f77b4;" x="166.541554" xlink:href="#mccda90756b" y="337.524114"/>
     <use style="fill:#1f77b4;stroke:#1f77b4;" x="167.821738" xlink:href="#mccda90756b" y="361.144735"/>
     <use style="fill:#1f77b4;stroke:#1f77b4;" x="169.101921" xlink:href="#mccda90756b" y="293.102315"/>
     <use style="fill:#1f77b4;stroke:#1f77b4;" x="170.382105" xlink:href="#mccda90756b" y="354.452007"/>
     <use style="fill:#1f77b4;stroke:#1f77b4;" x="171.662289" xlink:href="#mccda90756b" y="351.213658"/>
     <use style="fill:#1f77b4;stroke:#1f77b4;" x="172.942472" xlink:href="#mccda90756b" y="358.823156"/>
     <use style="fill:#1f77b4;stroke:#1f77b4;" x="174.222656" xlink:href="#mccda90756b" y="356.032897"/>
     <use style="fill:#1f77b4;stroke:#1f77b4;" x="175.502839" xlink:href="#mccda90756b" y="361.736313"/>
     <use style="fill:#1f77b4;stroke:#1f77b4;" x="176.783023" xlink:href="#mccda90756b" y="285.705666"/>
     <use style="fill:#1f77b4;stroke:#1f77b4;" x="178.063206" xlink:href="#mccda90756b" y="344.774121"/>
     <use style="fill:#1f77b4;stroke:#1f77b4;" x="179.34339" xlink:href="#mccda90756b" y="322.468854"/>
     <use style="fill:#1f77b4;stroke:#1f77b4;" x="180.623573" xlink:href="#mccda90756b" y="358.129289"/>
     <use style="fill:#1f77b4;stroke:#1f77b4;" x="181.903757" xlink:href="#mccda90756b" y="347.443925"/>
     <use style="fill:#1f77b4;stroke:#1f77b4;" x="183.18394" xlink:href="#mccda90756b" y="292.825535"/>
     <use style="fill:#1f77b4;stroke:#1f77b4;" x="184.464124" xlink:href="#mccda90756b" y="332.998263"/>
     <use style="fill:#1f77b4;stroke:#1f77b4;" x="185.744307" xlink:href="#mccda90756b" y="316.72457"/>
     <use style="fill:#1f77b4;stroke:#1f77b4;" x="187.024491" xlink:href="#mccda90756b" y="359.795835"/>
     <use style="fill:#1f77b4;stroke:#1f77b4;" x="188.304675" xlink:href="#mccda90756b" y="317.713272"/>
     <use style="fill:#1f77b4;stroke:#1f77b4;" x="189.584858" xlink:href="#mccda90756b" y="362.074628"/>
     <use style="fill:#1f77b4;stroke:#1f77b4;" x="190.865042" xlink:href="#mccda90756b" y="358.452467"/>
     <use style="fill:#1f77b4;stroke:#1f77b4;" x="192.145225" xlink:href="#mccda90756b" y="357.718106"/>
     <use style="fill:#1f77b4;stroke:#1f77b4;" x="193.425409" xlink:href="#mccda90756b" y="361.081085"/>
     <use style="fill:#1f77b4;stroke:#1f77b4;" x="194.705592" xlink:href="#mccda90756b" y="362.413718"/>
     <use style="fill:#1f77b4;stroke:#1f77b4;" x="195.985776" xlink:href="#mccda90756b" y="299.204327"/>
     <use style="fill:#1f77b4;stroke:#1f77b4;" x="197.265959" xlink:href="#mccda90756b" y="293.710575"/>
     <use style="fill:#1f77b4;stroke:#1f77b4;" x="198.546143" xlink:href="#mccda90756b" y="293.82898"/>
     <use style="fill:#1f77b4;stroke:#1f77b4;" x="199.826326" xlink:href="#mccda90756b" y="360.322387"/>
     <use style="fill:#1f77b4;stroke:#1f77b4;" x="201.10651" xlink:href="#mccda90756b" y="323.978498"/>
     <use style="fill:#1f77b4;stroke:#1f77b4;" x="202.386693" xlink:href="#mccda90756b" y="327.25654"/>
     <use style="fill:#1f77b4;stroke:#1f77b4;" x="203.666877" xlink:href="#mccda90756b" y="359.677953"/>
     <use style="fill:#1f77b4;stroke:#1f77b4;" x="204.947061" xlink:href="#mccda90756b" y="336.398172"/>
     <use style="fill:#1f77b4;stroke:#1f77b4;" x="206.227244" xlink:href="#mccda90756b" y="353.614928"/>
     <use style="fill:#1f77b4;stroke:#1f77b4;" x="207.507428" xlink:href="#mccda90756b" y="293.654551"/>
     <use style="fill:#1f77b4;stroke:#1f77b4;" x="208.787611" xlink:href="#mccda90756b" y="361.251518"/>
     <use style="fill:#1f77b4;stroke:#1f77b4;" x="210.067795" xlink:href="#mccda90756b" y="336.117989"/>
     <use style="fill:#1f77b4;stroke:#1f77b4;" x="211.347978" xlink:href="#mccda90756b" y="359.339704"/>
     <use style="fill:#1f77b4;stroke:#1f77b4;" x="212.628162" xlink:href="#mccda90756b" y="361.309359"/>
     <use style="fill:#1f77b4;stroke:#1f77b4;" x="213.908345" xlink:href="#mccda90756b" y="360.069338"/>
     <use style="fill:#1f77b4;stroke:#1f77b4;" x="215.188529" xlink:href="#mccda90756b" y="361.185352"/>
     <use style="fill:#1f77b4;stroke:#1f77b4;" x="216.468712" xlink:href="#mccda90756b" y="359.084409"/>
     <use style="fill:#1f77b4;stroke:#1f77b4;" x="217.748896" xlink:href="#mccda90756b" y="191.365093"/>
     <use style="fill:#1f77b4;stroke:#1f77b4;" x="219.029079" xlink:href="#mccda90756b" y="338.74851"/>
     <use style="fill:#1f77b4;stroke:#1f77b4;" x="220.309263" xlink:href="#mccda90756b" y="293.813497"/>
     <use style="fill:#1f77b4;stroke:#1f77b4;" x="221.589447" xlink:href="#mccda90756b" y="360.778845"/>
     <use style="fill:#1f77b4;stroke:#1f77b4;" x="222.86963" xlink:href="#mccda90756b" y="353.69764"/>
     <use style="fill:#1f77b4;stroke:#1f77b4;" x="224.149814" xlink:href="#mccda90756b" y="358.109349"/>
     <use style="fill:#1f77b4;stroke:#1f77b4;" x="225.429997" xlink:href="#mccda90756b" y="357.219"/>
     <use style="fill:#1f77b4;stroke:#1f77b4;" x="226.710181" xlink:href="#mccda90756b" y="351.740313"/>
     <use style="fill:#1f77b4;stroke:#1f77b4;" x="227.990364" xlink:href="#mccda90756b" y="330.878734"/>
     <use style="fill:#1f77b4;stroke:#1f77b4;" x="229.270548" xlink:href="#mccda90756b" y="332.878787"/>
     <use style="fill:#1f77b4;stroke:#1f77b4;" x="230.550731" xlink:href="#mccda90756b" y="354.617121"/>
     <use style="fill:#1f77b4;stroke:#1f77b4;" x="231.830915" xlink:href="#mccda90756b" y="296.417066"/>
     <use style="fill:#1f77b4;stroke:#1f77b4;" x="233.111098" xlink:href="#mccda90756b" y="306.851107"/>
     <use style="fill:#1f77b4;stroke:#1f77b4;" x="234.391282" xlink:href="#mccda90756b" y="357.853423"/>
     <use style="fill:#1f77b4;stroke:#1f77b4;" x="235.671465" xlink:href="#mccda90756b" y="293.766181"/>
     <use style="fill:#1f77b4;stroke:#1f77b4;" x="236.951649" xlink:href="#mccda90756b" y="339.870593"/>
     <use style="fill:#1f77b4;stroke:#1f77b4;" x="238.231833" xlink:href="#mccda90756b" y="316.063403"/>
     <use style="fill:#1f77b4;stroke:#1f77b4;" x="239.512016" xlink:href="#mccda90756b" y="355.665353"/>
     <use style="fill:#1f77b4;stroke:#1f77b4;" x="240.7922" xlink:href="#mccda90756b" y="361.204191"/>
     <use style="fill:#1f77b4;stroke:#1f77b4;" x="242.072383" xlink:href="#mccda90756b" y="360.966122"/>
     <use style="fill:#1f77b4;stroke:#1f77b4;" x="243.352567" xlink:href="#mccda90756b" y="344.408042"/>
     <use style="fill:#1f77b4;stroke:#1f77b4;" x="244.63275" xlink:href="#mccda90756b" y="334.11895"/>
     <use style="fill:#1f77b4;stroke:#1f77b4;" x="245.912934" xlink:href="#mccda90756b" y="358.647494"/>
     <use style="fill:#1f77b4;stroke:#1f77b4;" x="247.193117" xlink:href="#mccda90756b" y="359.564576"/>
     <use style="fill:#1f77b4;stroke:#1f77b4;" x="248.473301" xlink:href="#mccda90756b" y="310.683096"/>
     <use style="fill:#1f77b4;stroke:#1f77b4;" x="249.753484" xlink:href="#mccda90756b" y="306.014893"/>
     <use style="fill:#1f77b4;stroke:#1f77b4;" x="251.033668" xlink:href="#mccda90756b" y="293.768385"/>
     <use style="fill:#1f77b4;stroke:#1f77b4;" x="252.313851" xlink:href="#mccda90756b" y="350.158641"/>
     <use style="fill:#1f77b4;stroke:#1f77b4;" x="253.594035" xlink:href="#mccda90756b" y="360.104729"/>
     <use style="fill:#1f77b4;stroke:#1f77b4;" x="254.874219" xlink:href="#mccda90756b" y="359.818483"/>
     <use style="fill:#1f77b4;stroke:#1f77b4;" x="256.154402" xlink:href="#mccda90756b" y="358.948286"/>
     <use style="fill:#1f77b4;stroke:#1f77b4;" x="257.434586" xlink:href="#mccda90756b" y="360.487213"/>
     <use style="fill:#1f77b4;stroke:#1f77b4;" x="258.714769" xlink:href="#mccda90756b" y="320.275825"/>
     <use style="fill:#1f77b4;stroke:#1f77b4;" x="259.994953" xlink:href="#mccda90756b" y="360.398789"/>
     <use style="fill:#1f77b4;stroke:#1f77b4;" x="261.275136" xlink:href="#mccda90756b" y="357.506584"/>
     <use style="fill:#1f77b4;stroke:#1f77b4;" x="262.55532" xlink:href="#mccda90756b" y="337.759061"/>
     <use style="fill:#1f77b4;stroke:#1f77b4;" x="263.835503" xlink:href="#mccda90756b" y="360.513243"/>
     <use style="fill:#1f77b4;stroke:#1f77b4;" x="265.115687" xlink:href="#mccda90756b" y="320.206918"/>
     <use style="fill:#1f77b4;stroke:#1f77b4;" x="266.39587" xlink:href="#mccda90756b" y="337.645971"/>
     <use style="fill:#1f77b4;stroke:#1f77b4;" x="267.676054" xlink:href="#mccda90756b" y="300.276733"/>
     <use style="fill:#1f77b4;stroke:#1f77b4;" x="268.956237" xlink:href="#mccda90756b" y="341.280661"/>
     <use style="fill:#1f77b4;stroke:#1f77b4;" x="270.236421" xlink:href="#mccda90756b" y="353.902251"/>
     <use style="fill:#1f77b4;stroke:#1f77b4;" x="271.516605" xlink:href="#mccda90756b" y="322.860426"/>
     <use style="fill:#1f77b4;stroke:#1f77b4;" x="272.796788" xlink:href="#mccda90756b" y="359.915984"/>
     <use style="fill:#1f77b4;stroke:#1f77b4;" x="274.076972" xlink:href="#mccda90756b" y="340.879495"/>
     <use style="fill:#1f77b4;stroke:#1f77b4;" x="275.357155" xlink:href="#mccda90756b" y="350.151923"/>
     <use style="fill:#1f77b4;stroke:#1f77b4;" x="276.637339" xlink:href="#mccda90756b" y="360.05594"/>
     <use style="fill:#1f77b4;stroke:#1f77b4;" x="277.917522" xlink:href="#mccda90756b" y="361.345625"/>
     <use style="fill:#1f77b4;stroke:#1f77b4;" x="279.197706" xlink:href="#mccda90756b" y="325.582314"/>
     <use style="fill:#1f77b4;stroke:#1f77b4;" x="280.477889" xlink:href="#mccda90756b" y="347.693905"/>
     <use style="fill:#1f77b4;stroke:#1f77b4;" x="281.758073" xlink:href="#mccda90756b" y="293.818169"/>
     <use style="fill:#1f77b4;stroke:#1f77b4;" x="283.038256" xlink:href="#mccda90756b" y="332.138178"/>
     <use style="fill:#1f77b4;stroke:#1f77b4;" x="284.31844" xlink:href="#mccda90756b" y="360.931987"/>
     <use style="fill:#1f77b4;stroke:#1f77b4;" x="285.598623" xlink:href="#mccda90756b" y="351.553209"/>
     <use style="fill:#1f77b4;stroke:#1f77b4;" x="286.878807" xlink:href="#mccda90756b" y="337.484184"/>
     <use style="fill:#1f77b4;stroke:#1f77b4;" x="288.158991" xlink:href="#mccda90756b" y="355.314734"/>
     <use style="fill:#1f77b4;stroke:#1f77b4;" x="289.439174" xlink:href="#mccda90756b" y="359.396734"/>
     <use style="fill:#1f77b4;stroke:#1f77b4;" x="290.719358" xlink:href="#mccda90756b" y="327.735742"/>
     <use style="fill:#1f77b4;stroke:#1f77b4;" x="291.999541" xlink:href="#mccda90756b" y="297.100214"/>
     <use style="fill:#1f77b4;stroke:#1f77b4;" x="293.279725" xlink:href="#mccda90756b" y="315.995748"/>
     <use style="fill:#1f77b4;stroke:#1f77b4;" x="294.559908" xlink:href="#mccda90756b" y="294.75644"/>
     <use style="fill:#1f77b4;stroke:#1f77b4;" x="295.840092" xlink:href="#mccda90756b" y="357.294996"/>
     <use style="fill:#1f77b4;stroke:#1f77b4;" x="297.120275" xlink:href="#mccda90756b" y="310.151048"/>
     <use style="fill:#1f77b4;stroke:#1f77b4;" x="298.400459" xlink:href="#mccda90756b" y="355.92269"/>
     <use style="fill:#1f77b4;stroke:#1f77b4;" x="299.680642" xlink:href="#mccda90756b" y="361.983668"/>
     <use style="fill:#1f77b4;stroke:#1f77b4;" x="300.960826" xlink:href="#mccda90756b" y="354.789179"/>
     <use style="fill:#1f77b4;stroke:#1f77b4;" x="302.241009" xlink:href="#mccda90756b" y="359.582063"/>
     <use style="fill:#1f77b4;stroke:#1f77b4;" x="303.521193" xlink:href="#mccda90756b" y="319.223947"/>
     <use style="fill:#1f77b4;stroke:#1f77b4;" x="304.801377" xlink:href="#mccda90756b" y="358.041983"/>
     <use style="fill:#1f77b4;stroke:#1f77b4;" x="306.08156" xlink:href="#mccda90756b" y="358.990625"/>
     <use style="fill:#1f77b4;stroke:#1f77b4;" x="307.361744" xlink:href="#mccda90756b" y="360.900144"/>
     <use style="fill:#1f77b4;stroke:#1f77b4;" x="308.641927" xlink:href="#mccda90756b" y="361.729185"/>
     <use style="fill:#1f77b4;stroke:#1f77b4;" x="309.922111" xlink:href="#mccda90756b" y="357.626966"/>
     <use style="fill:#1f77b4;stroke:#1f77b4;" x="311.202294" xlink:href="#mccda90756b" y="359.537804"/>
     <use style="fill:#1f77b4;stroke:#1f77b4;" x="312.482478" xlink:href="#mccda90756b" y="342.688533"/>
     <use style="fill:#1f77b4;stroke:#1f77b4;" x="313.762661" xlink:href="#mccda90756b" y="354.475568"/>
     <use style="fill:#1f77b4;stroke:#1f77b4;" x="315.042845" xlink:href="#mccda90756b" y="342.023849"/>
     <use style="fill:#1f77b4;stroke:#1f77b4;" x="316.323028" xlink:href="#mccda90756b" y="352.323572"/>
     <use style="fill:#1f77b4;stroke:#1f77b4;" x="317.603212" xlink:href="#mccda90756b" y="351.838533"/>
     <use style="fill:#1f77b4;stroke:#1f77b4;" x="318.883395" xlink:href="#mccda90756b" y="312.443446"/>
     <use style="fill:#1f77b4;stroke:#1f77b4;" x="320.163579" xlink:href="#mccda90756b" y="345.3954"/>
     <use style="fill:#1f77b4;stroke:#1f77b4;" x="321.443763" xlink:href="#mccda90756b" y="333.680808"/>
     <use style="fill:#1f77b4;stroke:#1f77b4;" x="322.723946" xlink:href="#mccda90756b" y="320.662799"/>
     <use style="fill:#1f77b4;stroke:#1f77b4;" x="324.00413" xlink:href="#mccda90756b" y="300.506213"/>
     <use style="fill:#1f77b4;stroke:#1f77b4;" x="325.284313" xlink:href="#mccda90756b" y="358.560064"/>
     <use style="fill:#1f77b4;stroke:#1f77b4;" x="326.564497" xlink:href="#mccda90756b" y="355.720291"/>
     <use style="fill:#1f77b4;stroke:#1f77b4;" x="327.84468" xlink:href="#mccda90756b" y="362.285735"/>
     <use style="fill:#1f77b4;stroke:#1f77b4;" x="329.124864" xlink:href="#mccda90756b" y="352.893475"/>
     <use style="fill:#1f77b4;stroke:#1f77b4;" x="330.405047" xlink:href="#mccda90756b" y="294.798854"/>
     <use style="fill:#1f77b4;stroke:#1f77b4;" x="331.685231" xlink:href="#mccda90756b" y="355.302885"/>
     <use style="fill:#1f77b4;stroke:#1f77b4;" x="332.965414" xlink:href="#mccda90756b" y="362.402148"/>
     <use style="fill:#1f77b4;stroke:#1f77b4;" x="334.245598" xlink:href="#mccda90756b" y="359.510452"/>
     <use style="fill:#1f77b4;stroke:#1f77b4;" x="335.525781" xlink:href="#mccda90756b" y="359.491332"/>
     <use style="fill:#1f77b4;stroke:#1f77b4;" x="336.805965" xlink:href="#mccda90756b" y="352.039229"/>
     <use style="fill:#1f77b4;stroke:#1f77b4;" x="338.086149" xlink:href="#mccda90756b" y="306.428443"/>
     <use style="fill:#1f77b4;stroke:#1f77b4;" x="339.366332" xlink:href="#mccda90756b" y="360.090473"/>
     <use style="fill:#1f77b4;stroke:#1f77b4;" x="340.646516" xlink:href="#mccda90756b" y="358.930756"/>
     <use style="fill:#1f77b4;stroke:#1f77b4;" x="341.926699" xlink:href="#mccda90756b" y="354.861076"/>
     <use style="fill:#1f77b4;stroke:#1f77b4;" x="343.206883" xlink:href="#mccda90756b" y="359.05476"/>
     <use style="fill:#1f77b4;stroke:#1f77b4;" x="344.487066" xlink:href="#mccda90756b" y="333.193737"/>
     <use style="fill:#1f77b4;stroke:#1f77b4;" x="345.76725" xlink:href="#mccda90756b" y="299.44785"/>
     <use style="fill:#1f77b4;stroke:#1f77b4;" x="347.047433" xlink:href="#mccda90756b" y="361.031005"/>
     <use style="fill:#1f77b4;stroke:#1f77b4;" x="348.327617" xlink:href="#mccda90756b" y="347.344164"/>
     <use style="fill:#1f77b4;stroke:#1f77b4;" x="349.6078" xlink:href="#mccda90756b" y="354.731689"/>
     <use style="fill:#1f77b4;stroke:#1f77b4;" x="350.887984" xlink:href="#mccda90756b" y="360.165388"/>
     <use style="fill:#1f77b4;stroke:#1f77b4;" x="352.168167" xlink:href="#mccda90756b" y="331.411165"/>
     <use style="fill:#1f77b4;stroke:#1f77b4;" x="353.448351" xlink:href="#mccda90756b" y="334.897174"/>
     <use style="fill:#1f77b4;stroke:#1f77b4;" x="354.728535" xlink:href="#mccda90756b" y="360.517893"/>
     <use style="fill:#1f77b4;stroke:#1f77b4;" x="356.008718" xlink:href="#mccda90756b" y="362.708066"/>
     <use style="fill:#1f77b4;stroke:#1f77b4;" x="357.288902" xlink:href="#mccda90756b" y="362.844909"/>
     <use style="fill:#1f77b4;stroke:#1f77b4;" x="358.569085" xlink:href="#mccda90756b" y="361.487489"/>
     <use style="fill:#1f77b4;stroke:#1f77b4;" x="359.849269" xlink:href="#mccda90756b" y="359.888223"/>
     <use style="fill:#1f77b4;stroke:#1f77b4;" x="361.129452" xlink:href="#mccda90756b" y="361.757123"/>
     <use style="fill:#1f77b4;stroke:#1f77b4;" x="362.409636" xlink:href="#mccda90756b" y="358.57206"/>
     <use style="fill:#1f77b4;stroke:#1f77b4;" x="363.689819" xlink:href="#mccda90756b" y="344.65306"/>
     <use style="fill:#1f77b4;stroke:#1f77b4;" x="364.970003" xlink:href="#mccda90756b" y="361.917933"/>
     <use style="fill:#1f77b4;stroke:#1f77b4;" x="366.250186" xlink:href="#mccda90756b" y="360.521802"/>
     <use style="fill:#1f77b4;stroke:#1f77b4;" x="367.53037" xlink:href="#mccda90756b" y="358.633661"/>
     <use style="fill:#1f77b4;stroke:#1f77b4;" x="368.810553" xlink:href="#mccda90756b" y="358.278561"/>
     <use style="fill:#1f77b4;stroke:#1f77b4;" x="370.090737" xlink:href="#mccda90756b" y="353.478341"/>
     <use style="fill:#1f77b4;stroke:#1f77b4;" x="371.370921" xlink:href="#mccda90756b" y="288.270926"/>
     <use style="fill:#1f77b4;stroke:#1f77b4;" x="372.651104" xlink:href="#mccda90756b" y="293.652011"/>
     <use style="fill:#1f77b4;stroke:#1f77b4;" x="373.931288" xlink:href="#mccda90756b" y="321.244585"/>
     <use style="fill:#1f77b4;stroke:#1f77b4;" x="375.211471" xlink:href="#mccda90756b" y="361.491323"/>
     <use style="fill:#1f77b4;stroke:#1f77b4;" x="376.491655" xlink:href="#mccda90756b" y="333.404449"/>
     <use style="fill:#1f77b4;stroke:#1f77b4;" x="377.771838" xlink:href="#mccda90756b" y="362.473316"/>
     <use style="fill:#1f77b4;stroke:#1f77b4;" x="379.052022" xlink:href="#mccda90756b" y="361.006615"/>
     <use style="fill:#1f77b4;stroke:#1f77b4;" x="380.332205" xlink:href="#mccda90756b" y="362.481703"/>
     <use style="fill:#1f77b4;stroke:#1f77b4;" x="381.612389" xlink:href="#mccda90756b" y="320.950315"/>
     <use style="fill:#1f77b4;stroke:#1f77b4;" x="382.892572" xlink:href="#mccda90756b" y="362.409962"/>
     <use style="fill:#1f77b4;stroke:#1f77b4;" x="384.172756" xlink:href="#mccda90756b" y="361.047741"/>
     <use style="fill:#1f77b4;stroke:#1f77b4;" x="385.452939" xlink:href="#mccda90756b" y="297.23497"/>
     <use style="fill:#1f77b4;stroke:#1f77b4;" x="386.733123" xlink:href="#mccda90756b" y="360.665146"/>
     <use style="fill:#1f77b4;stroke:#1f77b4;" x="388.013307" xlink:href="#mccda90756b" y="359.554834"/>
     <use style="fill:#1f77b4;stroke:#1f77b4;" x="389.29349" xlink:href="#mccda90756b" y="353.18413"/>
     <use style="fill:#1f77b4;stroke:#1f77b4;" x="390.573674" xlink:href="#mccda90756b" y="110.588568"/>
     <use style="fill:#1f77b4;stroke:#1f77b4;" x="391.853857" xlink:href="#mccda90756b" y="293.825839"/>
     <use style="fill:#1f77b4;stroke:#1f77b4;" x="393.134041" xlink:href="#mccda90756b" y="296.060337"/>
     <use style="fill:#1f77b4;stroke:#1f77b4;" x="394.414224" xlink:href="#mccda90756b" y="359.794768"/>
     <use style="fill:#1f77b4;stroke:#1f77b4;" x="395.694408" xlink:href="#mccda90756b" y="361.788017"/>
     <use style="fill:#1f77b4;stroke:#1f77b4;" x="396.974591" xlink:href="#mccda90756b" y="359.998109"/>
     <use style="fill:#1f77b4;stroke:#1f77b4;" x="398.254775" xlink:href="#mccda90756b" y="105.553104"/>
     <use style="fill:#1f77b4;stroke:#1f77b4;" x="399.534958" xlink:href="#mccda90756b" y="297.375975"/>
     <use style="fill:#1f77b4;stroke:#1f77b4;" x="400.815142" xlink:href="#mccda90756b" y="360.964447"/>
     <use style="fill:#1f77b4;stroke:#1f77b4;" x="402.095325" xlink:href="#mccda90756b" y="294.46708"/>
     <use style="fill:#1f77b4;stroke:#1f77b4;" x="403.375509" xlink:href="#mccda90756b" y="359.861661"/>
     <use style="fill:#1f77b4;stroke:#1f77b4;" x="404.655693" xlink:href="#mccda90756b" y="361.111657"/>
     <use style="fill:#1f77b4;stroke:#1f77b4;" x="405.935876" xlink:href="#mccda90756b" y="313.35591"/>
     <use style="fill:#1f77b4;stroke:#1f77b4;" x="407.21606" xlink:href="#mccda90756b" y="361.160985"/>
     <use style="fill:#1f77b4;stroke:#1f77b4;" x="408.496243" xlink:href="#mccda90756b" y="336.045664"/>
     <use style="fill:#1f77b4;stroke:#1f77b4;" x="409.776427" xlink:href="#mccda90756b" y="353.963033"/>
     <use style="fill:#1f77b4;stroke:#1f77b4;" x="411.05661" xlink:href="#mccda90756b" y="359.352226"/>
     <use style="fill:#1f77b4;stroke:#1f77b4;" x="412.336794" xlink:href="#mccda90756b" y="293.466692"/>
     <use style="fill:#1f77b4;stroke:#1f77b4;" x="413.616977" xlink:href="#mccda90756b" y="359.913968"/>
     <use style="fill:#1f77b4;stroke:#1f77b4;" x="414.897161" xlink:href="#mccda90756b" y="310.083974"/>
     <use style="fill:#1f77b4;stroke:#1f77b4;" x="416.177344" xlink:href="#mccda90756b" y="291.760302"/>
     <use style="fill:#1f77b4;stroke:#1f77b4;" x="417.457528" xlink:href="#mccda90756b" y="357.947893"/>
     <use style="fill:#1f77b4;stroke:#1f77b4;" x="418.737711" xlink:href="#mccda90756b" y="357.349411"/>
     <use style="fill:#1f77b4;stroke:#1f77b4;" x="420.017895" xlink:href="#mccda90756b" y="295.002468"/>
     <use style="fill:#1f77b4;stroke:#1f77b4;" x="421.298079" xlink:href="#mccda90756b" y="362.127908"/>
     <use style="fill:#1f77b4;stroke:#1f77b4;" x="422.578262" xlink:href="#mccda90756b" y="335.929671"/>
     <use style="fill:#1f77b4;stroke:#1f77b4;" x="423.858446" xlink:href="#mccda90756b" y="346.522161"/>
     <use style="fill:#1f77b4;stroke:#1f77b4;" x="425.138629" xlink:href="#mccda90756b" y="339.086376"/>
     <use style="fill:#1f77b4;stroke:#1f77b4;" x="426.418813" xlink:href="#mccda90756b" y="312.285142"/>
     <use style="fill:#1f77b4;stroke:#1f77b4;" x="427.698996" xlink:href="#mccda90756b" y="317.485861"/>
     <use style="fill:#1f77b4;stroke:#1f77b4;" x="428.97918" xlink:href="#mccda90756b" y="343.341562"/>
     <use style="fill:#1f77b4;stroke:#1f77b4;" x="430.259363" xlink:href="#mccda90756b" y="354.175103"/>
     <use style="fill:#1f77b4;stroke:#1f77b4;" x="431.539547" xlink:href="#mccda90756b" y="363.174545"/>
     <use style="fill:#1f77b4;stroke:#1f77b4;" x="432.81973" xlink:href="#mccda90756b" y="362.151312"/>
     <use style="fill:#1f77b4;stroke:#1f77b4;" x="434.099914" xlink:href="#mccda90756b" y="360.018013"/>
     <use style="fill:#1f77b4;stroke:#1f77b4;" x="435.380098" xlink:href="#mccda90756b" y="358.141927"/>
     <use style="fill:#1f77b4;stroke:#1f77b4;" x="436.660281" xlink:href="#mccda90756b" y="359.326441"/>
     <use style="fill:#1f77b4;stroke:#1f77b4;" x="437.940465" xlink:href="#mccda90756b" y="357.607023"/>
     <use style="fill:#1f77b4;stroke:#1f77b4;" x="439.220648" xlink:href="#mccda90756b" y="362.242136"/>
     <use style="fill:#1f77b4;stroke:#1f77b4;" x="440.500832" xlink:href="#mccda90756b" y="359.627268"/>
     <use style="fill:#1f77b4;stroke:#1f77b4;" x="441.781015" xlink:href="#mccda90756b" y="354.981602"/>
     <use style="fill:#1f77b4;stroke:#1f77b4;" x="443.061199" xlink:href="#mccda90756b" y="355.462191"/>
     <use style="fill:#1f77b4;stroke:#1f77b4;" x="444.341382" xlink:href="#mccda90756b" y="336.112948"/>
     <use style="fill:#1f77b4;stroke:#1f77b4;" x="445.621566" xlink:href="#mccda90756b" y="302.387384"/>
     <use style="fill:#1f77b4;stroke:#1f77b4;" x="446.901749" xlink:href="#mccda90756b" y="322.740704"/>
     <use style="fill:#1f77b4;stroke:#1f77b4;" x="448.181933" xlink:href="#mccda90756b" y="362.082329"/>
     <use style="fill:#1f77b4;stroke:#1f77b4;" x="449.462116" xlink:href="#mccda90756b" y="333.088451"/>
     <use style="fill:#1f77b4;stroke:#1f77b4;" x="450.7423" xlink:href="#mccda90756b" y="354.380231"/>
     <use style="fill:#1f77b4;stroke:#1f77b4;" x="452.022484" xlink:href="#mccda90756b" y="66.665455"/>
     <use style="fill:#1f77b4;stroke:#1f77b4;" x="453.302667" xlink:href="#mccda90756b" y="355.764007"/>
     <use style="fill:#1f77b4;stroke:#1f77b4;" x="454.582851" xlink:href="#mccda90756b" y="356.093071"/>
     <use style="fill:#1f77b4;stroke:#1f77b4;" x="455.863034" xlink:href="#mccda90756b" y="362.442261"/>
     <use style="fill:#1f77b4;stroke:#1f77b4;" x="457.143218" xlink:href="#mccda90756b" y="346.611701"/>
     <use style="fill:#1f77b4;stroke:#1f77b4;" x="458.423401" xlink:href="#mccda90756b" y="321.010541"/>
     <use style="fill:#1f77b4;stroke:#1f77b4;" x="459.703585" xlink:href="#mccda90756b" y="358.607305"/>
     <use style="fill:#1f77b4;stroke:#1f77b4;" x="460.983768" xlink:href="#mccda90756b" y="356.65034"/>
     <use style="fill:#1f77b4;stroke:#1f77b4;" x="462.263952" xlink:href="#mccda90756b" y="360.872347"/>
     <use style="fill:#1f77b4;stroke:#1f77b4;" x="463.544135" xlink:href="#mccda90756b" y="243.642713"/>
     <use style="fill:#1f77b4;stroke:#1f77b4;" x="464.824319" xlink:href="#mccda90756b" y="358.134371"/>
     <use style="fill:#1f77b4;stroke:#1f77b4;" x="466.104502" xlink:href="#mccda90756b" y="361.163744"/>
     <use style="fill:#1f77b4;stroke:#1f77b4;" x="467.384686" xlink:href="#mccda90756b" y="360.821742"/>
     <use style="fill:#1f77b4;stroke:#1f77b4;" x="468.66487" xlink:href="#mccda90756b" y="362.031017"/>
     <use style="fill:#1f77b4;stroke:#1f77b4;" x="469.945053" xlink:href="#mccda90756b" y="352.950182"/>
     <use style="fill:#1f77b4;stroke:#1f77b4;" x="471.225237" xlink:href="#mccda90756b" y="293.822058"/>
     <use style="fill:#1f77b4;stroke:#1f77b4;" x="472.50542" xlink:href="#mccda90756b" y="349.921573"/>
     <use style="fill:#1f77b4;stroke:#1f77b4;" x="473.785604" xlink:href="#mccda90756b" y="335.014766"/>
     <use style="fill:#1f77b4;stroke:#1f77b4;" x="475.065787" xlink:href="#mccda90756b" y="351.352212"/>
     <use style="fill:#1f77b4;stroke:#1f77b4;" x="476.345971" xlink:href="#mccda90756b" y="346.195959"/>
     <use style="fill:#1f77b4;stroke:#1f77b4;" x="477.626154" xlink:href="#mccda90756b" y="343.039542"/>
     <use style="fill:#1f77b4;stroke:#1f77b4;" x="478.906338" xlink:href="#mccda90756b" y="357.668063"/>
     <use style="fill:#1f77b4;stroke:#1f77b4;" x="480.186521" xlink:href="#mccda90756b" y="355.873945"/>
     <use style="fill:#1f77b4;stroke:#1f77b4;" x="481.466705" xlink:href="#mccda90756b" y="360.977742"/>
     <use style="fill:#1f77b4;stroke:#1f77b4;" x="482.746888" xlink:href="#mccda90756b" y="360.652275"/>
     <use style="fill:#1f77b4;stroke:#1f77b4;" x="484.027072" xlink:href="#mccda90756b" y="361.724422"/>
     <use style="fill:#1f77b4;stroke:#1f77b4;" x="485.307256" xlink:href="#mccda90756b" y="359.353938"/>
     <use style="fill:#1f77b4;stroke:#1f77b4;" x="486.587439" xlink:href="#mccda90756b" y="362.460766"/>
     <use style="fill:#1f77b4;stroke:#1f77b4;" x="487.867623" xlink:href="#mccda90756b" y="347.692639"/>
     <use style="fill:#1f77b4;stroke:#1f77b4;" x="489.147806" xlink:href="#mccda90756b" y="307.598145"/>
     <use style="fill:#1f77b4;stroke:#1f77b4;" x="490.42799" xlink:href="#mccda90756b" y="344.630179"/>
     <use style="fill:#1f77b4;stroke:#1f77b4;" x="491.708173" xlink:href="#mccda90756b" y="347.373542"/>
     <use style="fill:#1f77b4;stroke:#1f77b4;" x="492.988357" xlink:href="#mccda90756b" y="336.717919"/>
     <use style="fill:#1f77b4;stroke:#1f77b4;" x="494.26854" xlink:href="#mccda90756b" y="297.640014"/>
     <use style="fill:#1f77b4;stroke:#1f77b4;" x="495.548724" xlink:href="#mccda90756b" y="361.902657"/>
     <use style="fill:#1f77b4;stroke:#1f77b4;" x="496.828907" xlink:href="#mccda90756b" y="360.03603"/>
     <use style="fill:#1f77b4;stroke:#1f77b4;" x="498.109091" xlink:href="#mccda90756b" y="346.955646"/>
    </g>
   </g>
   <g id="line2d_26">
    <path clip-path="url(#p593aa062e6)" d="M 92.290909 346.386568 
L 498.109091 336.074832 
L 498.109091 336.074832 
" style="fill:none;stroke:#000000;stroke-dasharray:5.55,2.4;stroke-dashoffset:0;stroke-width:1.5;"/>
   </g>
   <g id="line2d_27">
    <path clip-path="url(#p593aa062e6)" d="M 92.290909 361.250917 
L 97.411643 361.511137 
L 111.493662 361.511137 
L 112.773846 362.671028 
L 128.136048 362.671028 
L 129.416232 363.040481 
L 430.259363 363.040481 
L 431.539547 363.174545 
L 498.109091 363.174545 
L 498.109091 363.174545 
" style="fill:none;stroke:#0000ff;stroke-linecap:square;stroke-width:1.5;"/>
   </g>
   <g id="patch_3">
    <path d="M 72 378 
L 72 51.84 
" style="fill:none;stroke:#000000;stroke-linecap:square;stroke-linejoin:miter;stroke-width:0.8;"/>
   </g>
   <g id="patch_4">
    <path d="M 518.4 378 
L 518.4 51.84 
" style="fill:none;stroke:#000000;stroke-linecap:square;stroke-linejoin:miter;stroke-width:0.8;"/>
   </g>
   <g id="patch_5">
    <path d="M 72 378 
L 518.4 378 
" style="fill:none;stroke:#000000;stroke-linecap:square;stroke-linejoin:miter;stroke-width:0.8;"/>
   </g>
   <g id="patch_6">
    <path d="M 72 51.84 
L 518.4 51.84 
" style="fill:none;stroke:#000000;stroke-linecap:square;stroke-linejoin:miter;stroke-width:0.8;"/>
   </g>
   <g id="text_15">
    <!-- Island Transpeciation - $O_3$ train CV 2000-2009 (median: 316.95%, worst: 254.19%, best: 2604.60%) -->
    <g transform="translate(-5.1 45.84)scale(0.12 -0.12)">
     <defs>
      <path d="M 9.8125 72.90625 
L 19.671875 72.90625 
L 19.671875 0 
L 9.8125 0 
z
" id="DejaVuSans-73"/>
      <path d="M 45.40625 46.390625 
L 45.40625 75.984375 
L 54.390625 75.984375 
L 54.390625 0 
L 45.40625 0 
L 45.40625 8.203125 
Q 42.578125 3.328125 38.25 0.953125 
Q 33.9375 -1.421875 27.875 -1.421875 
Q 17.96875 -1.421875 11.734375 6.484375 
Q 5.515625 14.40625 5.515625 27.296875 
Q 5.515625 40.1875 11.734375 48.09375 
Q 17.96875 56 27.875 56 
Q 33.9375 56 38.25 53.625 
Q 42.578125 51.265625 45.40625 46.390625 
z
M 14.796875 27.296875 
Q 14.796875 17.390625 18.875 11.75 
Q 22.953125 6.109375 30.078125 6.109375 
Q 37.203125 6.109375 41.296875 11.75 
Q 45.40625 17.390625 45.40625 27.296875 
Q 45.40625 37.203125 41.296875 42.84375 
Q 37.203125 48.484375 30.078125 48.484375 
Q 22.953125 48.484375 18.875 42.84375 
Q 14.796875 37.203125 14.796875 27.296875 
z
" id="DejaVuSans-100"/>
      <path d="M -0.296875 72.90625 
L 61.375 72.90625 
L 61.375 64.59375 
L 35.5 64.59375 
L 35.5 0 
L 25.59375 0 
L 25.59375 64.59375 
L -0.296875 64.59375 
z
" id="DejaVuSans-84"/>
      <path d="M 41.109375 46.296875 
Q 39.59375 47.171875 37.8125 47.578125 
Q 36.03125 48 33.890625 48 
Q 26.265625 48 22.1875 43.046875 
Q 18.109375 38.09375 18.109375 28.8125 
L 18.109375 0 
L 9.078125 0 
L 9.078125 54.6875 
L 18.109375 54.6875 
L 18.109375 46.1875 
Q 20.953125 51.171875 25.484375 53.578125 
Q 30.03125 56 36.53125 56 
Q 37.453125 56 38.578125 55.875 
Q 39.703125 55.765625 41.0625 55.515625 
z
" id="DejaVuSans-114"/>
      <path d="M 18.109375 8.203125 
L 18.109375 -20.796875 
L 9.078125 -20.796875 
L 9.078125 54.6875 
L 18.109375 54.6875 
L 18.109375 46.390625 
Q 20.953125 51.265625 25.265625 53.625 
Q 29.59375 56 35.59375 56 
Q 45.5625 56 51.78125 48.09375 
Q 58.015625 40.1875 58.015625 27.296875 
Q 58.015625 14.40625 51.78125 6.484375 
Q 45.5625 -1.421875 35.59375 -1.421875 
Q 29.59375 -1.421875 25.265625 0.953125 
Q 20.953125 3.328125 18.109375 8.203125 
z
M 48.6875 27.296875 
Q 48.6875 37.203125 44.609375 42.84375 
Q 40.53125 48.484375 33.40625 48.484375 
Q 26.265625 48.484375 22.1875 42.84375 
Q 18.109375 37.203125 18.109375 27.296875 
Q 18.109375 17.390625 22.1875 11.75 
Q 26.265625 6.109375 33.40625 6.109375 
Q 40.53125 6.109375 44.609375 11.75 
Q 48.6875 17.390625 48.6875 27.296875 
z
" id="DejaVuSans-112"/>
      <path d="M 48.78125 52.59375 
L 48.78125 44.1875 
Q 44.96875 46.296875 41.140625 47.34375 
Q 37.3125 48.390625 33.40625 48.390625 
Q 24.65625 48.390625 19.8125 42.84375 
Q 14.984375 37.3125 14.984375 27.296875 
Q 14.984375 17.28125 19.8125 11.734375 
Q 24.65625 6.203125 33.40625 6.203125 
Q 37.3125 6.203125 41.140625 7.25 
Q 44.96875 8.296875 48.78125 10.40625 
L 48.78125 2.09375 
Q 45.015625 0.34375 40.984375 -0.53125 
Q 36.96875 -1.421875 32.421875 -1.421875 
Q 20.0625 -1.421875 12.78125 6.34375 
Q 5.515625 14.109375 5.515625 27.296875 
Q 5.515625 40.671875 12.859375 48.328125 
Q 20.21875 56 33.015625 56 
Q 37.15625 56 41.109375 55.140625 
Q 45.0625 54.296875 48.78125 52.59375 
z
" id="DejaVuSans-99"/>
      <path d="M 45.609375 66.21875 
Q 37.5 66.21875 31.296875 62.28125 
Q 25.09375 58.34375 20.515625 50.296875 
Q 17.578125 45.171875 16.03125 39.40625 
Q 14.5 33.640625 14.5 27.78125 
Q 14.5 17.625 19.359375 12.109375 
Q 24.21875 6.59375 33.109375 6.59375 
Q 41.109375 6.59375 47.375 10.5625 
Q 53.65625 14.546875 58.109375 22.40625 
Q 61.078125 27.6875 62.640625 33.46875 
Q 64.203125 39.265625 64.203125 45.015625 
Q 64.203125 55.125 59.3125 60.671875 
Q 54.4375 66.21875 45.609375 66.21875 
z
M 32.8125 -1.421875 
Q 19.390625 -1.421875 11.6875 6.53125 
Q 4 14.5 4 28.328125 
Q 4 36.234375 7 44.484375 
Q 10.015625 52.734375 15.28125 59.1875 
Q 21.484375 66.75 29.09375 70.484375 
Q 36.71875 74.21875 45.90625 74.21875 
Q 59.28125 74.21875 66.984375 66.328125 
Q 74.703125 58.453125 74.703125 44.828125 
Q 74.703125 36.421875 71.765625 28.3125 
Q 68.84375 20.21875 63.375 13.625 
Q 57.125 6 49.578125 2.28125 
Q 42.046875 -1.421875 32.8125 -1.421875 
z
" id="DejaVuSans-Oblique-79"/>
      <path d="M 64.40625 67.28125 
L 64.40625 56.890625 
Q 59.421875 61.53125 53.78125 63.8125 
Q 48.140625 66.109375 41.796875 66.109375 
Q 29.296875 66.109375 22.65625 58.46875 
Q 16.015625 50.828125 16.015625 36.375 
Q 16.015625 21.96875 22.65625 14.328125 
Q 29.296875 6.6875 41.796875 6.6875 
Q 48.140625 6.6875 53.78125 8.984375 
Q 59.421875 11.28125 64.40625 15.921875 
L 64.40625 5.609375 
Q 59.234375 2.09375 53.4375 0.328125 
Q 47.65625 -1.421875 41.21875 -1.421875 
Q 24.65625 -1.421875 15.125 8.703125 
Q 5.609375 18.84375 5.609375 36.375 
Q 5.609375 53.953125 15.125 64.078125 
Q 24.65625 74.21875 41.21875 74.21875 
Q 47.75 74.21875 53.53125 72.484375 
Q 59.328125 70.75 64.40625 67.28125 
z
" id="DejaVuSans-67"/>
      <path d="M 28.609375 0 
L 0.78125 72.90625 
L 11.078125 72.90625 
L 34.1875 11.53125 
L 57.328125 72.90625 
L 67.578125 72.90625 
L 39.796875 0 
z
" id="DejaVuSans-86"/>
      <path d="M 10.984375 1.515625 
L 10.984375 10.5 
Q 14.703125 8.734375 18.5 7.8125 
Q 22.3125 6.890625 25.984375 6.890625 
Q 35.75 6.890625 40.890625 13.453125 
Q 46.046875 20.015625 46.78125 33.40625 
Q 43.953125 29.203125 39.59375 26.953125 
Q 35.25 24.703125 29.984375 24.703125 
Q 19.046875 24.703125 12.671875 31.3125 
Q 6.296875 37.9375 6.296875 49.421875 
Q 6.296875 60.640625 12.9375 67.421875 
Q 19.578125 74.21875 30.609375 74.21875 
Q 43.265625 74.21875 49.921875 64.515625 
Q 56.59375 54.828125 56.59375 36.375 
Q 56.59375 19.140625 48.40625 8.859375 
Q 40.234375 -1.421875 26.421875 -1.421875 
Q 22.703125 -1.421875 18.890625 -0.6875 
Q 15.09375 0.046875 10.984375 1.515625 
z
M 30.609375 32.421875 
Q 37.25 32.421875 41.125 36.953125 
Q 45.015625 41.5 45.015625 49.421875 
Q 45.015625 57.28125 41.125 61.84375 
Q 37.25 66.40625 30.609375 66.40625 
Q 23.96875 66.40625 20.09375 61.84375 
Q 16.21875 57.28125 16.21875 49.421875 
Q 16.21875 41.5 20.09375 36.953125 
Q 23.96875 32.421875 30.609375 32.421875 
z
" id="DejaVuSans-57"/>
      <path d="M 31 75.875 
Q 24.46875 64.65625 21.28125 53.65625 
Q 18.109375 42.671875 18.109375 31.390625 
Q 18.109375 20.125 21.3125 9.0625 
Q 24.515625 -2 31 -13.1875 
L 23.1875 -13.1875 
Q 15.875 -1.703125 12.234375 9.375 
Q 8.59375 20.453125 8.59375 31.390625 
Q 8.59375 42.28125 12.203125 53.3125 
Q 15.828125 64.359375 23.1875 75.875 
z
" id="DejaVuSans-40"/>
      <path d="M 52 44.1875 
Q 55.375 50.25 60.0625 53.125 
Q 64.75 56 71.09375 56 
Q 79.640625 56 84.28125 50.015625 
Q 88.921875 44.046875 88.921875 33.015625 
L 88.921875 0 
L 79.890625 0 
L 79.890625 32.71875 
Q 79.890625 40.578125 77.09375 44.375 
Q 74.3125 48.1875 68.609375 48.1875 
Q 61.625 48.1875 57.5625 43.546875 
Q 53.515625 38.921875 53.515625 30.90625 
L 53.515625 0 
L 44.484375 0 
L 44.484375 32.71875 
Q 44.484375 40.625 41.703125 44.40625 
Q 38.921875 48.1875 33.109375 48.1875 
Q 26.21875 48.1875 22.15625 43.53125 
Q 18.109375 38.875 18.109375 30.90625 
L 18.109375 0 
L 9.078125 0 
L 9.078125 54.6875 
L 18.109375 54.6875 
L 18.109375 46.1875 
Q 21.1875 51.21875 25.484375 53.609375 
Q 29.78125 56 35.6875 56 
Q 41.65625 56 45.828125 52.96875 
Q 50 49.953125 52 44.1875 
z
" id="DejaVuSans-109"/>
      <path d="M 11.71875 12.40625 
L 22.015625 12.40625 
L 22.015625 0 
L 11.71875 0 
z
M 11.71875 51.703125 
L 22.015625 51.703125 
L 22.015625 39.3125 
L 11.71875 39.3125 
z
" id="DejaVuSans-58"/>
      <path d="M 33.015625 40.375 
Q 26.375 40.375 22.484375 35.828125 
Q 18.609375 31.296875 18.609375 23.390625 
Q 18.609375 15.53125 22.484375 10.953125 
Q 26.375 6.390625 33.015625 6.390625 
Q 39.65625 6.390625 43.53125 10.953125 
Q 47.40625 15.53125 47.40625 23.390625 
Q 47.40625 31.296875 43.53125 35.828125 
Q 39.65625 40.375 33.015625 40.375 
z
M 52.59375 71.296875 
L 52.59375 62.3125 
Q 48.875 64.0625 45.09375 64.984375 
Q 41.3125 65.921875 37.59375 65.921875 
Q 27.828125 65.921875 22.671875 59.328125 
Q 17.53125 52.734375 16.796875 39.40625 
Q 19.671875 43.65625 24.015625 45.921875 
Q 28.375 48.1875 33.59375 48.1875 
Q 44.578125 48.1875 50.953125 41.515625 
Q 57.328125 34.859375 57.328125 23.390625 
Q 57.328125 12.15625 50.6875 5.359375 
Q 44.046875 -1.421875 33.015625 -1.421875 
Q 20.359375 -1.421875 13.671875 8.265625 
Q 6.984375 17.96875 6.984375 36.375 
Q 6.984375 53.65625 15.1875 63.9375 
Q 23.390625 74.21875 37.203125 74.21875 
Q 40.921875 74.21875 44.703125 73.484375 
Q 48.484375 72.75 52.59375 71.296875 
z
" id="DejaVuSans-54"/>
      <path d="M 10.6875 12.40625 
L 21 12.40625 
L 21 0 
L 10.6875 0 
z
" id="DejaVuSans-46"/>
      <path d="M 11.71875 12.40625 
L 22.015625 12.40625 
L 22.015625 4 
L 14.015625 -11.625 
L 7.71875 -11.625 
L 11.71875 4 
z
" id="DejaVuSans-44"/>
      <path d="M 4.203125 54.6875 
L 13.1875 54.6875 
L 24.421875 12.015625 
L 35.59375 54.6875 
L 46.1875 54.6875 
L 57.421875 12.015625 
L 68.609375 54.6875 
L 77.59375 54.6875 
L 63.28125 0 
L 52.6875 0 
L 40.921875 44.828125 
L 29.109375 0 
L 18.5 0 
z
" id="DejaVuSans-119"/>
      <path d="M 37.796875 64.3125 
L 12.890625 25.390625 
L 37.796875 25.390625 
z
M 35.203125 72.90625 
L 47.609375 72.90625 
L 47.609375 25.390625 
L 58.015625 25.390625 
L 58.015625 17.1875 
L 47.609375 17.1875 
L 47.609375 0 
L 37.796875 0 
L 37.796875 17.1875 
L 4.890625 17.1875 
L 4.890625 26.703125 
z
" id="DejaVuSans-52"/>
      <path d="M 48.6875 27.296875 
Q 48.6875 37.203125 44.609375 42.84375 
Q 40.53125 48.484375 33.40625 48.484375 
Q 26.265625 48.484375 22.1875 42.84375 
Q 18.109375 37.203125 18.109375 27.296875 
Q 18.109375 17.390625 22.1875 11.75 
Q 26.265625 6.109375 33.40625 6.109375 
Q 40.53125 6.109375 44.609375 11.75 
Q 48.6875 17.390625 48.6875 27.296875 
z
M 18.109375 46.390625 
Q 20.953125 51.265625 25.265625 53.625 
Q 29.59375 56 35.59375 56 
Q 45.5625 56 51.78125 48.09375 
Q 58.015625 40.1875 58.015625 27.296875 
Q 58.015625 14.40625 51.78125 6.484375 
Q 45.5625 -1.421875 35.59375 -1.421875 
Q 29.59375 -1.421875 25.265625 0.953125 
Q 20.953125 3.328125 18.109375 8.203125 
L 18.109375 0 
L 9.078125 0 
L 9.078125 75.984375 
L 18.109375 75.984375 
z
" id="DejaVuSans-98"/>
      <path d="M 8.015625 75.875 
L 15.828125 75.875 
Q 23.140625 64.359375 26.78125 53.3125 
Q 30.421875 42.28125 30.421875 31.390625 
Q 30.421875 20.453125 26.78125 9.375 
Q 23.140625 -1.703125 15.828125 -13.1875 
L 8.015625 -13.1875 
Q 14.5 -2 17.703125 9.0625 
Q 20.90625 20.125 20.90625 31.390625 
Q 20.90625 42.671875 17.703125 53.65625 
Q 14.5 64.65625 8.015625 75.875 
z
" id="DejaVuSans-41"/>
     </defs>
     <use transform="translate(0 0.015625)" xlink:href="#DejaVuSans-73"/>
     <use transform="translate(29.492188 0.015625)" xlink:href="#DejaVuSans-115"/>
     <use transform="translate(81.591797 0.015625)" xlink:href="#DejaVuSans-108"/>
     <use transform="translate(109.375 0.015625)" xlink:href="#DejaVuSans-97"/>
     <use transform="translate(170.654297 0.015625)" xlink:href="#DejaVuSans-110"/>
     <use transform="translate(234.033203 0.015625)" xlink:href="#DejaVuSans-100"/>
     <use transform="translate(297.509766 0.015625)" xlink:href="#DejaVuSans-32"/>
     <use transform="translate(329.296875 0.015625)" xlink:href="#DejaVuSans-84"/>
     <use transform="translate(390.380859 0.015625)" xlink:href="#DejaVuSans-114"/>
     <use transform="translate(431.494141 0.015625)" xlink:href="#DejaVuSans-97"/>
     <use transform="translate(492.773438 0.015625)" xlink:href="#DejaVuSans-110"/>
     <use transform="translate(556.152344 0.015625)" xlink:href="#DejaVuSans-115"/>
     <use transform="translate(608.251953 0.015625)" xlink:href="#DejaVuSans-112"/>
     <use transform="translate(671.728516 0.015625)" xlink:href="#DejaVuSans-101"/>
     <use transform="translate(733.251953 0.015625)" xlink:href="#DejaVuSans-99"/>
     <use transform="translate(788.232422 0.015625)" xlink:href="#DejaVuSans-105"/>
     <use transform="translate(816.015625 0.015625)" xlink:href="#DejaVuSans-97"/>
     <use transform="translate(877.294922 0.015625)" xlink:href="#DejaVuSans-116"/>
     <use transform="translate(916.503906 0.015625)" xlink:href="#DejaVuSans-105"/>
     <use transform="translate(944.287109 0.015625)" xlink:href="#DejaVuSans-111"/>
     <use transform="translate(1005.46875 0.015625)" xlink:href="#DejaVuSans-110"/>
     <use transform="translate(1068.847656 0.015625)" xlink:href="#DejaVuSans-32"/>
     <use transform="translate(1100.634766 0.015625)" xlink:href="#DejaVuSans-45"/>
     <use transform="translate(1136.71875 0.015625)" xlink:href="#DejaVuSans-32"/>
     <use transform="translate(1168.505859 0.015625)" xlink:href="#DejaVuSans-Oblique-79"/>
     <use transform="translate(1247.216797 -16.390625)scale(0.7)" xlink:href="#DejaVuSans-51"/>
     <use transform="translate(1294.487305 0.015625)" xlink:href="#DejaVuSans-32"/>
     <use transform="translate(1326.274414 0.015625)" xlink:href="#DejaVuSans-116"/>
     <use transform="translate(1365.483398 0.015625)" xlink:href="#DejaVuSans-114"/>
     <use transform="translate(1406.59668 0.015625)" xlink:href="#DejaVuSans-97"/>
     <use transform="translate(1467.875977 0.015625)" xlink:href="#DejaVuSans-105"/>
     <use transform="translate(1495.65918 0.015625)" xlink:href="#DejaVuSans-110"/>
     <use transform="translate(1559.038086 0.015625)" xlink:href="#DejaVuSans-32"/>
     <use transform="translate(1590.825195 0.015625)" xlink:href="#DejaVuSans-67"/>
     <use transform="translate(1660.649414 0.015625)" xlink:href="#DejaVuSans-86"/>
     <use transform="translate(1729.057617 0.015625)" xlink:href="#DejaVuSans-32"/>
     <use transform="translate(1760.844727 0.015625)" xlink:href="#DejaVuSans-50"/>
     <use transform="translate(1824.467773 0.015625)" xlink:href="#DejaVuSans-48"/>
     <use transform="translate(1888.09082 0.015625)" xlink:href="#DejaVuSans-48"/>
     <use transform="translate(1951.713867 0.015625)" xlink:href="#DejaVuSans-48"/>
     <use transform="translate(2015.336914 0.015625)" xlink:href="#DejaVuSans-45"/>
     <use transform="translate(2051.420898 0.015625)" xlink:href="#DejaVuSans-50"/>
     <use transform="translate(2115.043945 0.015625)" xlink:href="#DejaVuSans-48"/>
     <use transform="translate(2178.666992 0.015625)" xlink:href="#DejaVuSans-48"/>
     <use transform="translate(2242.290039 0.015625)" xlink:href="#DejaVuSans-57"/>
     <use transform="translate(2305.913086 0.015625)" xlink:href="#DejaVuSans-32"/>
     <use transform="translate(2337.700195 0.015625)" xlink:href="#DejaVuSans-40"/>
     <use transform="translate(2376.713867 0.015625)" xlink:href="#DejaVuSans-109"/>
     <use transform="translate(2474.125977 0.015625)" xlink:href="#DejaVuSans-101"/>
     <use transform="translate(2535.649414 0.015625)" xlink:href="#DejaVuSans-100"/>
     <use transform="translate(2599.125977 0.015625)" xlink:href="#DejaVuSans-105"/>
     <use transform="translate(2626.90918 0.015625)" xlink:href="#DejaVuSans-97"/>
     <use transform="translate(2688.188477 0.015625)" xlink:href="#DejaVuSans-110"/>
     <use transform="translate(2751.567383 0.015625)" xlink:href="#DejaVuSans-58"/>
     <use transform="translate(2785.258789 0.015625)" xlink:href="#DejaVuSans-32"/>
     <use transform="translate(2817.045898 0.015625)" xlink:href="#DejaVuSans-51"/>
     <use transform="translate(2880.668945 0.015625)" xlink:href="#DejaVuSans-49"/>
     <use transform="translate(2944.291992 0.015625)" xlink:href="#DejaVuSans-54"/>
     <use transform="translate(3007.915039 0.015625)" xlink:href="#DejaVuSans-46"/>
     <use transform="translate(3039.702148 0.015625)" xlink:href="#DejaVuSans-57"/>
     <use transform="translate(3103.325195 0.015625)" xlink:href="#DejaVuSans-53"/>
     <use transform="translate(3166.948242 0.015625)" xlink:href="#DejaVuSans-37"/>
     <use transform="translate(3261.967773 0.015625)" xlink:href="#DejaVuSans-44"/>
     <use transform="translate(3293.754883 0.015625)" xlink:href="#DejaVuSans-32"/>
     <use transform="translate(3325.541992 0.015625)" xlink:href="#DejaVuSans-119"/>
     <use transform="translate(3407.329102 0.015625)" xlink:href="#DejaVuSans-111"/>
     <use transform="translate(3468.510742 0.015625)" xlink:href="#DejaVuSans-114"/>
     <use transform="translate(3509.624023 0.015625)" xlink:href="#DejaVuSans-115"/>
     <use transform="translate(3561.723633 0.015625)" xlink:href="#DejaVuSans-116"/>
     <use transform="translate(3600.932617 0.015625)" xlink:href="#DejaVuSans-58"/>
     <use transform="translate(3634.624023 0.015625)" xlink:href="#DejaVuSans-32"/>
     <use transform="translate(3666.411133 0.015625)" xlink:href="#DejaVuSans-50"/>
     <use transform="translate(3730.03418 0.015625)" xlink:href="#DejaVuSans-53"/>
     <use transform="translate(3793.657227 0.015625)" xlink:href="#DejaVuSans-52"/>
     <use transform="translate(3857.280273 0.015625)" xlink:href="#DejaVuSans-46"/>
     <use transform="translate(3889.067383 0.015625)" xlink:href="#DejaVuSans-49"/>
     <use transform="translate(3952.69043 0.015625)" xlink:href="#DejaVuSans-57"/>
     <use transform="translate(4016.313477 0.015625)" xlink:href="#DejaVuSans-37"/>
     <use transform="translate(4111.333008 0.015625)" xlink:href="#DejaVuSans-44"/>
     <use transform="translate(4143.120117 0.015625)" xlink:href="#DejaVuSans-32"/>
     <use transform="translate(4174.907227 0.015625)" xlink:href="#DejaVuSans-98"/>
     <use transform="translate(4238.383789 0.015625)" xlink:href="#DejaVuSans-101"/>
     <use transform="translate(4299.907227 0.015625)" xlink:href="#DejaVuSans-115"/>
     <use transform="translate(4352.006836 0.015625)" xlink:href="#DejaVuSans-116"/>
     <use transform="translate(4391.21582 0.015625)" xlink:href="#DejaVuSans-58"/>
     <use transform="translate(4424.907227 0.015625)" xlink:href="#DejaVuSans-32"/>
     <use transform="translate(4456.694336 0.015625)" xlink:href="#DejaVuSans-50"/>
     <use transform="translate(4520.317383 0.015625)" xlink:href="#DejaVuSans-54"/>
     <use transform="translate(4583.94043 0.015625)" xlink:href="#DejaVuSans-48"/>
     <use transform="translate(4647.563477 0.015625)" xlink:href="#DejaVuSans-52"/>
     <use transform="translate(4711.186523 0.015625)" xlink:href="#DejaVuSans-46"/>
     <use transform="translate(4742.973633 0.015625)" xlink:href="#DejaVuSans-54"/>
     <use transform="translate(4806.59668 0.015625)" xlink:href="#DejaVuSans-48"/>
     <use transform="translate(4870.219727 0.015625)" xlink:href="#DejaVuSans-37"/>
     <use transform="translate(4965.239258 0.015625)" xlink:href="#DejaVuSans-41"/>
    </g>
   </g>
   <g id="legend_1">
    <g id="patch_7">
     <path d="M 79 103.874375 
L 275.05625 103.874375 
Q 277.05625 103.874375 277.05625 101.874375 
L 277.05625 58.84 
Q 277.05625 56.84 275.05625 56.84 
L 79 56.84 
Q 77 56.84 77 58.84 
L 77 101.874375 
Q 77 103.874375 79 103.874375 
z
" style="fill:#ffffff;opacity:0.8;stroke:#cccccc;stroke-linejoin:miter;"/>
    </g>
    <g id="line2d_28"/>
    <g id="line2d_29">
     <g>
      <use style="fill:#1f77b4;stroke:#1f77b4;" x="91" xlink:href="#mccda90756b" y="64.938437"/>
     </g>
    </g>
    <g id="text_16">
     <!-- Bayesian Optimization (BO) -->
     <g transform="translate(109 68.438437)scale(0.1 -0.1)">
      <defs>
       <path d="M 19.671875 34.8125 
L 19.671875 8.109375 
L 35.5 8.109375 
Q 43.453125 8.109375 47.28125 11.40625 
Q 51.125 14.703125 51.125 21.484375 
Q 51.125 28.328125 47.28125 31.5625 
Q 43.453125 34.8125 35.5 34.8125 
z
M 19.671875 64.796875 
L 19.671875 42.828125 
L 34.28125 42.828125 
Q 41.5 42.828125 45.03125 45.53125 
Q 48.578125 48.25 48.578125 53.8125 
Q 48.578125 59.328125 45.03125 62.0625 
Q 41.5 64.796875 34.28125 64.796875 
z
M 9.8125 72.90625 
L 35.015625 72.90625 
Q 46.296875 72.90625 52.390625 68.21875 
Q 58.5 63.53125 58.5 54.890625 
Q 58.5 48.1875 55.375 44.234375 
Q 52.25 40.28125 46.1875 39.3125 
Q 53.46875 37.75 57.5 32.78125 
Q 61.53125 27.828125 61.53125 20.40625 
Q 61.53125 10.640625 54.890625 5.3125 
Q 48.25 0 35.984375 0 
L 9.8125 0 
z
" id="DejaVuSans-66"/>
       <path d="M 32.171875 -5.078125 
Q 28.375 -14.84375 24.75 -17.8125 
Q 21.140625 -20.796875 15.09375 -20.796875 
L 7.90625 -20.796875 
L 7.90625 -13.28125 
L 13.1875 -13.28125 
Q 16.890625 -13.28125 18.9375 -11.515625 
Q 21 -9.765625 23.484375 -3.21875 
L 25.09375 0.875 
L 2.984375 54.6875 
L 12.5 54.6875 
L 29.59375 11.921875 
L 46.6875 54.6875 
L 56.203125 54.6875 
z
" id="DejaVuSans-121"/>
       <path d="M 39.40625 66.21875 
Q 28.65625 66.21875 22.328125 58.203125 
Q 16.015625 50.203125 16.015625 36.375 
Q 16.015625 22.609375 22.328125 14.59375 
Q 28.65625 6.59375 39.40625 6.59375 
Q 50.140625 6.59375 56.421875 14.59375 
Q 62.703125 22.609375 62.703125 36.375 
Q 62.703125 50.203125 56.421875 58.203125 
Q 50.140625 66.21875 39.40625 66.21875 
z
M 39.40625 74.21875 
Q 54.734375 74.21875 63.90625 63.9375 
Q 73.09375 53.65625 73.09375 36.375 
Q 73.09375 19.140625 63.90625 8.859375 
Q 54.734375 -1.421875 39.40625 -1.421875 
Q 24.03125 -1.421875 14.8125 8.828125 
Q 5.609375 19.09375 5.609375 36.375 
Q 5.609375 53.65625 14.8125 63.9375 
Q 24.03125 74.21875 39.40625 74.21875 
z
" id="DejaVuSans-79"/>
       <path d="M 5.515625 54.6875 
L 48.1875 54.6875 
L 48.1875 46.484375 
L 14.40625 7.171875 
L 48.1875 7.171875 
L 48.1875 0 
L 4.296875 0 
L 4.296875 8.203125 
L 38.09375 47.515625 
L 5.515625 47.515625 
z
" id="DejaVuSans-122"/>
      </defs>
      <use xlink:href="#DejaVuSans-66"/>
      <use x="68.603516" xlink:href="#DejaVuSans-97"/>
      <use x="129.882812" xlink:href="#DejaVuSans-121"/>
      <use x="189.0625" xlink:href="#DejaVuSans-101"/>
      <use x="250.585938" xlink:href="#DejaVuSans-115"/>
      <use x="302.685547" xlink:href="#DejaVuSans-105"/>
      <use x="330.46875" xlink:href="#DejaVuSans-97"/>
      <use x="391.748047" xlink:href="#DejaVuSans-110"/>
      <use x="455.126953" xlink:href="#DejaVuSans-32"/>
      <use x="486.914062" xlink:href="#DejaVuSans-79"/>
      <use x="565.625" xlink:href="#DejaVuSans-112"/>
      <use x="629.101562" xlink:href="#DejaVuSans-116"/>
      <use x="668.310547" xlink:href="#DejaVuSans-105"/>
      <use x="696.09375" xlink:href="#DejaVuSans-109"/>
      <use x="793.505859" xlink:href="#DejaVuSans-105"/>
      <use x="821.289062" xlink:href="#DejaVuSans-122"/>
      <use x="873.779297" xlink:href="#DejaVuSans-97"/>
      <use x="935.058594" xlink:href="#DejaVuSans-116"/>
      <use x="974.267578" xlink:href="#DejaVuSans-105"/>
      <use x="1002.050781" xlink:href="#DejaVuSans-111"/>
      <use x="1063.232422" xlink:href="#DejaVuSans-110"/>
      <use x="1126.611328" xlink:href="#DejaVuSans-32"/>
      <use x="1158.398438" xlink:href="#DejaVuSans-40"/>
      <use x="1197.412109" xlink:href="#DejaVuSans-66"/>
      <use x="1264.265625" xlink:href="#DejaVuSans-79"/>
      <use x="1342.976562" xlink:href="#DejaVuSans-41"/>
     </g>
    </g>
    <g id="line2d_30">
     <path d="M 81 79.616562 
L 101 79.616562 
" style="fill:none;stroke:#000000;stroke-dasharray:5.55,2.4;stroke-dashoffset:0;stroke-width:1.5;"/>
    </g>
    <g id="line2d_31"/>
    <g id="text_17">
     <!-- Random (uniform) search (Rand) -->
     <g transform="translate(109 83.116562)scale(0.1 -0.1)">
      <defs>
       <path d="M 44.390625 34.1875 
Q 47.5625 33.109375 50.5625 29.59375 
Q 53.5625 26.078125 56.59375 19.921875 
L 66.609375 0 
L 56 0 
L 46.6875 18.703125 
Q 43.0625 26.03125 39.671875 28.421875 
Q 36.28125 30.8125 30.421875 30.8125 
L 19.671875 30.8125 
L 19.671875 0 
L 9.8125 0 
L 9.8125 72.90625 
L 32.078125 72.90625 
Q 44.578125 72.90625 50.734375 67.671875 
Q 56.890625 62.453125 56.890625 51.90625 
Q 56.890625 45.015625 53.6875 40.46875 
Q 50.484375 35.9375 44.390625 34.1875 
z
M 19.671875 64.796875 
L 19.671875 38.921875 
L 32.078125 38.921875 
Q 39.203125 38.921875 42.84375 42.21875 
Q 46.484375 45.515625 46.484375 51.90625 
Q 46.484375 58.296875 42.84375 61.546875 
Q 39.203125 64.796875 32.078125 64.796875 
z
" id="DejaVuSans-82"/>
       <path d="M 37.109375 75.984375 
L 37.109375 68.5 
L 28.515625 68.5 
Q 23.6875 68.5 21.796875 66.546875 
Q 19.921875 64.59375 19.921875 59.515625 
L 19.921875 54.6875 
L 34.71875 54.6875 
L 34.71875 47.703125 
L 19.921875 47.703125 
L 19.921875 0 
L 10.890625 0 
L 10.890625 47.703125 
L 2.296875 47.703125 
L 2.296875 54.6875 
L 10.890625 54.6875 
L 10.890625 58.5 
Q 10.890625 67.625 15.140625 71.796875 
Q 19.390625 75.984375 28.609375 75.984375 
z
" id="DejaVuSans-102"/>
       <path d="M 54.890625 33.015625 
L 54.890625 0 
L 45.90625 0 
L 45.90625 32.71875 
Q 45.90625 40.484375 42.875 44.328125 
Q 39.84375 48.1875 33.796875 48.1875 
Q 26.515625 48.1875 22.3125 43.546875 
Q 18.109375 38.921875 18.109375 30.90625 
L 18.109375 0 
L 9.078125 0 
L 9.078125 75.984375 
L 18.109375 75.984375 
L 18.109375 46.1875 
Q 21.34375 51.125 25.703125 53.5625 
Q 30.078125 56 35.796875 56 
Q 45.21875 56 50.046875 50.171875 
Q 54.890625 44.34375 54.890625 33.015625 
z
" id="DejaVuSans-104"/>
      </defs>
      <use xlink:href="#DejaVuSans-82"/>
      <use x="67.232422" xlink:href="#DejaVuSans-97"/>
      <use x="128.511719" xlink:href="#DejaVuSans-110"/>
      <use x="191.890625" xlink:href="#DejaVuSans-100"/>
      <use x="255.367188" xlink:href="#DejaVuSans-111"/>
      <use x="316.548828" xlink:href="#DejaVuSans-109"/>
      <use x="413.960938" xlink:href="#DejaVuSans-32"/>
      <use x="445.748047" xlink:href="#DejaVuSans-40"/>
      <use x="484.761719" xlink:href="#DejaVuSans-117"/>
      <use x="548.140625" xlink:href="#DejaVuSans-110"/>
      <use x="611.519531" xlink:href="#DejaVuSans-105"/>
      <use x="639.302734" xlink:href="#DejaVuSans-102"/>
      <use x="674.507812" xlink:href="#DejaVuSans-111"/>
      <use x="735.689453" xlink:href="#DejaVuSans-114"/>
      <use x="775.052734" xlink:href="#DejaVuSans-109"/>
      <use x="872.464844" xlink:href="#DejaVuSans-41"/>
      <use x="911.478516" xlink:href="#DejaVuSans-32"/>
      <use x="943.265625" xlink:href="#DejaVuSans-115"/>
      <use x="995.365234" xlink:href="#DejaVuSans-101"/>
      <use x="1056.888672" xlink:href="#DejaVuSans-97"/>
      <use x="1118.167969" xlink:href="#DejaVuSans-114"/>
      <use x="1157.03125" xlink:href="#DejaVuSans-99"/>
      <use x="1212.011719" xlink:href="#DejaVuSans-104"/>
      <use x="1275.390625" xlink:href="#DejaVuSans-32"/>
      <use x="1307.177734" xlink:href="#DejaVuSans-40"/>
      <use x="1346.191406" xlink:href="#DejaVuSans-82"/>
      <use x="1413.423828" xlink:href="#DejaVuSans-97"/>
      <use x="1474.703125" xlink:href="#DejaVuSans-110"/>
      <use x="1538.082031" xlink:href="#DejaVuSans-100"/>
      <use x="1601.558594" xlink:href="#DejaVuSans-41"/>
     </g>
    </g>
    <g id="line2d_32">
     <path d="M 81 94.294687 
L 101 94.294687 
" style="fill:none;stroke:#0000ff;stroke-linecap:square;stroke-width:1.5;"/>
    </g>
    <g id="line2d_33"/>
    <g id="text_18">
     <!-- Differential Evolution (DE) -->
     <g transform="translate(109 97.794687)scale(0.1 -0.1)">
      <defs>
       <path d="M 19.671875 64.796875 
L 19.671875 8.109375 
L 31.59375 8.109375 
Q 46.6875 8.109375 53.6875 14.9375 
Q 60.6875 21.78125 60.6875 36.53125 
Q 60.6875 51.171875 53.6875 57.984375 
Q 46.6875 64.796875 31.59375 64.796875 
z
M 9.8125 72.90625 
L 30.078125 72.90625 
Q 51.265625 72.90625 61.171875 64.09375 
Q 71.09375 55.28125 71.09375 36.53125 
Q 71.09375 17.671875 61.125 8.828125 
Q 51.171875 0 30.078125 0 
L 9.8125 0 
z
" id="DejaVuSans-68"/>
      </defs>
      <use xlink:href="#DejaVuSans-68"/>
      <use x="77.001953" xlink:href="#DejaVuSans-105"/>
      <use x="104.785156" xlink:href="#DejaVuSans-102"/>
      <use x="139.990234" xlink:href="#DejaVuSans-102"/>
      <use x="175.195312" xlink:href="#DejaVuSans-101"/>
      <use x="236.71875" xlink:href="#DejaVuSans-114"/>
      <use x="275.582031" xlink:href="#DejaVuSans-101"/>
      <use x="337.105469" xlink:href="#DejaVuSans-110"/>
      <use x="400.484375" xlink:href="#DejaVuSans-116"/>
      <use x="439.693359" xlink:href="#DejaVuSans-105"/>
      <use x="467.476562" xlink:href="#DejaVuSans-97"/>
      <use x="528.755859" xlink:href="#DejaVuSans-108"/>
      <use x="556.539062" xlink:href="#DejaVuSans-32"/>
      <use x="588.326172" xlink:href="#DejaVuSans-69"/>
      <use x="651.509766" xlink:href="#DejaVuSans-118"/>
      <use x="710.689453" xlink:href="#DejaVuSans-111"/>
      <use x="771.871094" xlink:href="#DejaVuSans-108"/>
      <use x="799.654297" xlink:href="#DejaVuSans-117"/>
      <use x="863.033203" xlink:href="#DejaVuSans-116"/>
      <use x="902.242188" xlink:href="#DejaVuSans-105"/>
      <use x="930.025391" xlink:href="#DejaVuSans-111"/>
      <use x="991.207031" xlink:href="#DejaVuSans-110"/>
      <use x="1054.585938" xlink:href="#DejaVuSans-32"/>
      <use x="1086.373047" xlink:href="#DejaVuSans-40"/>
      <use x="1125.386719" xlink:href="#DejaVuSans-68"/>
      <use x="1202.388672" xlink:href="#DejaVuSans-69"/>
      <use x="1265.572266" xlink:href="#DejaVuSans-41"/>
     </g>
    </g>
   </g>
  </g>
 </g>
 <defs>
  <clipPath id="p593aa062e6">
   <rect height="326.16" width="446.4" x="72" y="51.84"/>
  </clipPath>
 </defs>
</svg>
