<?xml version="1.0" encoding="utf-8" standalone="no"?>
<!DOCTYPE svg PUBLIC "-//W3C//DTD SVG 1.1//EN"
  "http://www.w3.org/Graphics/SVG/1.1/DTD/svg11.dtd">
<!-- Created with matplotlib (https://matplotlib.org/) -->
<svg height="432pt" version="1.1" viewBox="0 0 576 432" width="576pt" xmlns="http://www.w3.org/2000/svg" xmlns:xlink="http://www.w3.org/1999/xlink">
 <metadata>
  <rdf:RDF xmlns:cc="http://creativecommons.org/ns#" xmlns:dc="http://purl.org/dc/elements/1.1/" xmlns:rdf="http://www.w3.org/1999/02/22-rdf-syntax-ns#">
   <cc:Work>
    <dc:type rdf:resource="http://purl.org/dc/dcmitype/StillImage"/>
    <dc:date>2021-10-12T21:45:07.907659</dc:date>
    <dc:format>image/svg+xml</dc:format>
    <dc:creator>
     <cc:Agent>
      <dc:title>Matplotlib v3.3.4, https://matplotlib.org/</dc:title>
     </cc:Agent>
    </dc:creator>
   </cc:Work>
  </rdf:RDF>
 </metadata>
 <defs>
  <style type="text/css">*{stroke-linecap:butt;stroke-linejoin:round;}</style>
 </defs>
 <g id="figure_1">
  <g id="patch_1">
   <path d="M 0 432 
L 576 432 
L 576 0 
L 0 0 
z
" style="fill:none;"/>
  </g>
  <g id="axes_1">
   <g id="patch_2">
    <path d="M 72 378 
L 518.4 378 
L 518.4 51.84 
L 72 51.84 
z
" style="fill:#ffffff;"/>
   </g>
   <g id="matplotlib.axis_1">
    <g id="xtick_1">
     <g id="line2d_1">
      <path clip-path="url(#p1b632fae0f)" d="M 92.290909 378 
L 92.290909 51.84 
" style="fill:none;stroke:#b0b0b0;stroke-linecap:square;stroke-width:0.8;"/>
     </g>
     <g id="line2d_2">
      <defs>
       <path d="M 0 0 
L 0 3.5 
" id="m7014fbe377" style="stroke:#000000;stroke-width:0.8;"/>
      </defs>
      <g>
       <use style="stroke:#000000;stroke-width:0.8;" x="92.290909" xlink:href="#m7014fbe377" y="378"/>
      </g>
     </g>
     <g id="text_1">
      <!-- 0 -->
      <g transform="translate(89.109659 392.598437)scale(0.1 -0.1)">
       <defs>
        <path d="M 31.78125 66.40625 
Q 24.171875 66.40625 20.328125 58.90625 
Q 16.5 51.421875 16.5 36.375 
Q 16.5 21.390625 20.328125 13.890625 
Q 24.171875 6.390625 31.78125 6.390625 
Q 39.453125 6.390625 43.28125 13.890625 
Q 47.125 21.390625 47.125 36.375 
Q 47.125 51.421875 43.28125 58.90625 
Q 39.453125 66.40625 31.78125 66.40625 
z
M 31.78125 74.21875 
Q 44.046875 74.21875 50.515625 64.515625 
Q 56.984375 54.828125 56.984375 36.375 
Q 56.984375 17.96875 50.515625 8.265625 
Q 44.046875 -1.421875 31.78125 -1.421875 
Q 19.53125 -1.421875 13.0625 8.265625 
Q 6.59375 17.96875 6.59375 36.375 
Q 6.59375 54.828125 13.0625 64.515625 
Q 19.53125 74.21875 31.78125 74.21875 
z
" id="DejaVuSans-48"/>
       </defs>
       <use xlink:href="#DejaVuSans-48"/>
      </g>
     </g>
    </g>
    <g id="xtick_2">
     <g id="line2d_3">
      <path clip-path="url(#p1b632fae0f)" d="M 183.6914 378 
L 183.6914 51.84 
" style="fill:none;stroke:#b0b0b0;stroke-linecap:square;stroke-width:0.8;"/>
     </g>
     <g id="line2d_4">
      <g>
       <use style="stroke:#000000;stroke-width:0.8;" x="183.6914" xlink:href="#m7014fbe377" y="378"/>
      </g>
     </g>
     <g id="text_2">
      <!-- 50 -->
      <g transform="translate(177.3289 392.598437)scale(0.1 -0.1)">
       <defs>
        <path d="M 10.796875 72.90625 
L 49.515625 72.90625 
L 49.515625 64.59375 
L 19.828125 64.59375 
L 19.828125 46.734375 
Q 21.96875 47.46875 24.109375 47.828125 
Q 26.265625 48.1875 28.421875 48.1875 
Q 40.625 48.1875 47.75 41.5 
Q 54.890625 34.8125 54.890625 23.390625 
Q 54.890625 11.625 47.5625 5.09375 
Q 40.234375 -1.421875 26.90625 -1.421875 
Q 22.3125 -1.421875 17.546875 -0.640625 
Q 12.796875 0.140625 7.71875 1.703125 
L 7.71875 11.625 
Q 12.109375 9.234375 16.796875 8.0625 
Q 21.484375 6.890625 26.703125 6.890625 
Q 35.15625 6.890625 40.078125 11.328125 
Q 45.015625 15.765625 45.015625 23.390625 
Q 45.015625 31 40.078125 35.4375 
Q 35.15625 39.890625 26.703125 39.890625 
Q 22.75 39.890625 18.8125 39.015625 
Q 14.890625 38.140625 10.796875 36.28125 
z
" id="DejaVuSans-53"/>
       </defs>
       <use xlink:href="#DejaVuSans-53"/>
       <use x="63.623047" xlink:href="#DejaVuSans-48"/>
      </g>
     </g>
    </g>
    <g id="xtick_3">
     <g id="line2d_5">
      <path clip-path="url(#p1b632fae0f)" d="M 275.091892 378 
L 275.091892 51.84 
" style="fill:none;stroke:#b0b0b0;stroke-linecap:square;stroke-width:0.8;"/>
     </g>
     <g id="line2d_6">
      <g>
       <use style="stroke:#000000;stroke-width:0.8;" x="275.091892" xlink:href="#m7014fbe377" y="378"/>
      </g>
     </g>
     <g id="text_3">
      <!-- 100 -->
      <g transform="translate(265.548142 392.598437)scale(0.1 -0.1)">
       <defs>
        <path d="M 12.40625 8.296875 
L 28.515625 8.296875 
L 28.515625 63.921875 
L 10.984375 60.40625 
L 10.984375 69.390625 
L 28.421875 72.90625 
L 38.28125 72.90625 
L 38.28125 8.296875 
L 54.390625 8.296875 
L 54.390625 0 
L 12.40625 0 
z
" id="DejaVuSans-49"/>
       </defs>
       <use xlink:href="#DejaVuSans-49"/>
       <use x="63.623047" xlink:href="#DejaVuSans-48"/>
       <use x="127.246094" xlink:href="#DejaVuSans-48"/>
      </g>
     </g>
    </g>
    <g id="xtick_4">
     <g id="line2d_7">
      <path clip-path="url(#p1b632fae0f)" d="M 366.492383 378 
L 366.492383 51.84 
" style="fill:none;stroke:#b0b0b0;stroke-linecap:square;stroke-width:0.8;"/>
     </g>
     <g id="line2d_8">
      <g>
       <use style="stroke:#000000;stroke-width:0.8;" x="366.492383" xlink:href="#m7014fbe377" y="378"/>
      </g>
     </g>
     <g id="text_4">
      <!-- 150 -->
      <g transform="translate(356.948633 392.598437)scale(0.1 -0.1)">
       <use xlink:href="#DejaVuSans-49"/>
       <use x="63.623047" xlink:href="#DejaVuSans-53"/>
       <use x="127.246094" xlink:href="#DejaVuSans-48"/>
      </g>
     </g>
    </g>
    <g id="xtick_5">
     <g id="line2d_9">
      <path clip-path="url(#p1b632fae0f)" d="M 457.892875 378 
L 457.892875 51.84 
" style="fill:none;stroke:#b0b0b0;stroke-linecap:square;stroke-width:0.8;"/>
     </g>
     <g id="line2d_10">
      <g>
       <use style="stroke:#000000;stroke-width:0.8;" x="457.892875" xlink:href="#m7014fbe377" y="378"/>
      </g>
     </g>
     <g id="text_5">
      <!-- 200 -->
      <g transform="translate(448.349125 392.598437)scale(0.1 -0.1)">
       <defs>
        <path d="M 19.1875 8.296875 
L 53.609375 8.296875 
L 53.609375 0 
L 7.328125 0 
L 7.328125 8.296875 
Q 12.9375 14.109375 22.625 23.890625 
Q 32.328125 33.6875 34.8125 36.53125 
Q 39.546875 41.84375 41.421875 45.53125 
Q 43.3125 49.21875 43.3125 52.78125 
Q 43.3125 58.59375 39.234375 62.25 
Q 35.15625 65.921875 28.609375 65.921875 
Q 23.96875 65.921875 18.8125 64.3125 
Q 13.671875 62.703125 7.8125 59.421875 
L 7.8125 69.390625 
Q 13.765625 71.78125 18.9375 73 
Q 24.125 74.21875 28.421875 74.21875 
Q 39.75 74.21875 46.484375 68.546875 
Q 53.21875 62.890625 53.21875 53.421875 
Q 53.21875 48.921875 51.53125 44.890625 
Q 49.859375 40.875 45.40625 35.40625 
Q 44.1875 33.984375 37.640625 27.21875 
Q 31.109375 20.453125 19.1875 8.296875 
z
" id="DejaVuSans-50"/>
       </defs>
       <use xlink:href="#DejaVuSans-50"/>
       <use x="63.623047" xlink:href="#DejaVuSans-48"/>
       <use x="127.246094" xlink:href="#DejaVuSans-48"/>
      </g>
     </g>
    </g>
    <g id="text_6">
     <!-- # Fitness Evaluations -->
     <g transform="translate(241.528125 406.276563)scale(0.1 -0.1)">
      <defs>
       <path d="M 51.125 44 
L 36.921875 44 
L 32.8125 27.6875 
L 47.125 27.6875 
z
M 43.796875 71.78125 
L 38.71875 51.515625 
L 52.984375 51.515625 
L 58.109375 71.78125 
L 65.921875 71.78125 
L 60.890625 51.515625 
L 76.125 51.515625 
L 76.125 44 
L 58.984375 44 
L 54.984375 27.6875 
L 70.515625 27.6875 
L 70.515625 20.21875 
L 53.078125 20.21875 
L 48 0 
L 40.1875 0 
L 45.21875 20.21875 
L 30.90625 20.21875 
L 25.875 0 
L 18.015625 0 
L 23.09375 20.21875 
L 7.71875 20.21875 
L 7.71875 27.6875 
L 24.90625 27.6875 
L 29 44 
L 13.28125 44 
L 13.28125 51.515625 
L 30.90625 51.515625 
L 35.890625 71.78125 
z
" id="DejaVuSans-35"/>
       <path id="DejaVuSans-32"/>
       <path d="M 9.8125 72.90625 
L 51.703125 72.90625 
L 51.703125 64.59375 
L 19.671875 64.59375 
L 19.671875 43.109375 
L 48.578125 43.109375 
L 48.578125 34.8125 
L 19.671875 34.8125 
L 19.671875 0 
L 9.8125 0 
z
" id="DejaVuSans-70"/>
       <path d="M 9.421875 54.6875 
L 18.40625 54.6875 
L 18.40625 0 
L 9.421875 0 
z
M 9.421875 75.984375 
L 18.40625 75.984375 
L 18.40625 64.59375 
L 9.421875 64.59375 
z
" id="DejaVuSans-105"/>
       <path d="M 18.3125 70.21875 
L 18.3125 54.6875 
L 36.8125 54.6875 
L 36.8125 47.703125 
L 18.3125 47.703125 
L 18.3125 18.015625 
Q 18.3125 11.328125 20.140625 9.421875 
Q 21.96875 7.515625 27.59375 7.515625 
L 36.8125 7.515625 
L 36.8125 0 
L 27.59375 0 
Q 17.1875 0 13.234375 3.875 
Q 9.28125 7.765625 9.28125 18.015625 
L 9.28125 47.703125 
L 2.6875 47.703125 
L 2.6875 54.6875 
L 9.28125 54.6875 
L 9.28125 70.21875 
z
" id="DejaVuSans-116"/>
       <path d="M 54.890625 33.015625 
L 54.890625 0 
L 45.90625 0 
L 45.90625 32.71875 
Q 45.90625 40.484375 42.875 44.328125 
Q 39.84375 48.1875 33.796875 48.1875 
Q 26.515625 48.1875 22.3125 43.546875 
Q 18.109375 38.921875 18.109375 30.90625 
L 18.109375 0 
L 9.078125 0 
L 9.078125 54.6875 
L 18.109375 54.6875 
L 18.109375 46.1875 
Q 21.34375 51.125 25.703125 53.5625 
Q 30.078125 56 35.796875 56 
Q 45.21875 56 50.046875 50.171875 
Q 54.890625 44.34375 54.890625 33.015625 
z
" id="DejaVuSans-110"/>
       <path d="M 56.203125 29.59375 
L 56.203125 25.203125 
L 14.890625 25.203125 
Q 15.484375 15.921875 20.484375 11.0625 
Q 25.484375 6.203125 34.421875 6.203125 
Q 39.59375 6.203125 44.453125 7.46875 
Q 49.3125 8.734375 54.109375 11.28125 
L 54.109375 2.78125 
Q 49.265625 0.734375 44.1875 -0.34375 
Q 39.109375 -1.421875 33.890625 -1.421875 
Q 20.796875 -1.421875 13.15625 6.1875 
Q 5.515625 13.8125 5.515625 26.8125 
Q 5.515625 40.234375 12.765625 48.109375 
Q 20.015625 56 32.328125 56 
Q 43.359375 56 49.78125 48.890625 
Q 56.203125 41.796875 56.203125 29.59375 
z
M 47.21875 32.234375 
Q 47.125 39.59375 43.09375 43.984375 
Q 39.0625 48.390625 32.421875 48.390625 
Q 24.90625 48.390625 20.390625 44.140625 
Q 15.875 39.890625 15.1875 32.171875 
z
" id="DejaVuSans-101"/>
       <path d="M 44.28125 53.078125 
L 44.28125 44.578125 
Q 40.484375 46.53125 36.375 47.5 
Q 32.28125 48.484375 27.875 48.484375 
Q 21.1875 48.484375 17.84375 46.4375 
Q 14.5 44.390625 14.5 40.28125 
Q 14.5 37.15625 16.890625 35.375 
Q 19.28125 33.59375 26.515625 31.984375 
L 29.59375 31.296875 
Q 39.15625 29.25 43.1875 25.515625 
Q 47.21875 21.78125 47.21875 15.09375 
Q 47.21875 7.46875 41.1875 3.015625 
Q 35.15625 -1.421875 24.609375 -1.421875 
Q 20.21875 -1.421875 15.453125 -0.5625 
Q 10.6875 0.296875 5.421875 2 
L 5.421875 11.28125 
Q 10.40625 8.6875 15.234375 7.390625 
Q 20.0625 6.109375 24.8125 6.109375 
Q 31.15625 6.109375 34.5625 8.28125 
Q 37.984375 10.453125 37.984375 14.40625 
Q 37.984375 18.0625 35.515625 20.015625 
Q 33.0625 21.96875 24.703125 23.78125 
L 21.578125 24.515625 
Q 13.234375 26.265625 9.515625 29.90625 
Q 5.8125 33.546875 5.8125 39.890625 
Q 5.8125 47.609375 11.28125 51.796875 
Q 16.75 56 26.8125 56 
Q 31.78125 56 36.171875 55.265625 
Q 40.578125 54.546875 44.28125 53.078125 
z
" id="DejaVuSans-115"/>
       <path d="M 9.8125 72.90625 
L 55.90625 72.90625 
L 55.90625 64.59375 
L 19.671875 64.59375 
L 19.671875 43.015625 
L 54.390625 43.015625 
L 54.390625 34.71875 
L 19.671875 34.71875 
L 19.671875 8.296875 
L 56.78125 8.296875 
L 56.78125 0 
L 9.8125 0 
z
" id="DejaVuSans-69"/>
       <path d="M 2.984375 54.6875 
L 12.5 54.6875 
L 29.59375 8.796875 
L 46.6875 54.6875 
L 56.203125 54.6875 
L 35.6875 0 
L 23.484375 0 
z
" id="DejaVuSans-118"/>
       <path d="M 34.28125 27.484375 
Q 23.390625 27.484375 19.1875 25 
Q 14.984375 22.515625 14.984375 16.5 
Q 14.984375 11.71875 18.140625 8.90625 
Q 21.296875 6.109375 26.703125 6.109375 
Q 34.1875 6.109375 38.703125 11.40625 
Q 43.21875 16.703125 43.21875 25.484375 
L 43.21875 27.484375 
z
M 52.203125 31.203125 
L 52.203125 0 
L 43.21875 0 
L 43.21875 8.296875 
Q 40.140625 3.328125 35.546875 0.953125 
Q 30.953125 -1.421875 24.3125 -1.421875 
Q 15.921875 -1.421875 10.953125 3.296875 
Q 6 8.015625 6 15.921875 
Q 6 25.140625 12.171875 29.828125 
Q 18.359375 34.515625 30.609375 34.515625 
L 43.21875 34.515625 
L 43.21875 35.40625 
Q 43.21875 41.609375 39.140625 45 
Q 35.0625 48.390625 27.6875 48.390625 
Q 23 48.390625 18.546875 47.265625 
Q 14.109375 46.140625 10.015625 43.890625 
L 10.015625 52.203125 
Q 14.9375 54.109375 19.578125 55.046875 
Q 24.21875 56 28.609375 56 
Q 40.484375 56 46.34375 49.84375 
Q 52.203125 43.703125 52.203125 31.203125 
z
" id="DejaVuSans-97"/>
       <path d="M 9.421875 75.984375 
L 18.40625 75.984375 
L 18.40625 0 
L 9.421875 0 
z
" id="DejaVuSans-108"/>
       <path d="M 8.5 21.578125 
L 8.5 54.6875 
L 17.484375 54.6875 
L 17.484375 21.921875 
Q 17.484375 14.15625 20.5 10.265625 
Q 23.53125 6.390625 29.59375 6.390625 
Q 36.859375 6.390625 41.078125 11.03125 
Q 45.3125 15.671875 45.3125 23.6875 
L 45.3125 54.6875 
L 54.296875 54.6875 
L 54.296875 0 
L 45.3125 0 
L 45.3125 8.40625 
Q 42.046875 3.421875 37.71875 1 
Q 33.40625 -1.421875 27.6875 -1.421875 
Q 18.265625 -1.421875 13.375 4.4375 
Q 8.5 10.296875 8.5 21.578125 
z
M 31.109375 56 
z
" id="DejaVuSans-117"/>
       <path d="M 30.609375 48.390625 
Q 23.390625 48.390625 19.1875 42.75 
Q 14.984375 37.109375 14.984375 27.296875 
Q 14.984375 17.484375 19.15625 11.84375 
Q 23.34375 6.203125 30.609375 6.203125 
Q 37.796875 6.203125 41.984375 11.859375 
Q 46.1875 17.53125 46.1875 27.296875 
Q 46.1875 37.015625 41.984375 42.703125 
Q 37.796875 48.390625 30.609375 48.390625 
z
M 30.609375 56 
Q 42.328125 56 49.015625 48.375 
Q 55.71875 40.765625 55.71875 27.296875 
Q 55.71875 13.875 49.015625 6.21875 
Q 42.328125 -1.421875 30.609375 -1.421875 
Q 18.84375 -1.421875 12.171875 6.21875 
Q 5.515625 13.875 5.515625 27.296875 
Q 5.515625 40.765625 12.171875 48.375 
Q 18.84375 56 30.609375 56 
z
" id="DejaVuSans-111"/>
      </defs>
      <use xlink:href="#DejaVuSans-35"/>
      <use x="83.789062" xlink:href="#DejaVuSans-32"/>
      <use x="115.576172" xlink:href="#DejaVuSans-70"/>
      <use x="165.845703" xlink:href="#DejaVuSans-105"/>
      <use x="193.628906" xlink:href="#DejaVuSans-116"/>
      <use x="232.837891" xlink:href="#DejaVuSans-110"/>
      <use x="296.216797" xlink:href="#DejaVuSans-101"/>
      <use x="357.740234" xlink:href="#DejaVuSans-115"/>
      <use x="409.839844" xlink:href="#DejaVuSans-115"/>
      <use x="461.939453" xlink:href="#DejaVuSans-32"/>
      <use x="493.726562" xlink:href="#DejaVuSans-69"/>
      <use x="556.910156" xlink:href="#DejaVuSans-118"/>
      <use x="616.089844" xlink:href="#DejaVuSans-97"/>
      <use x="677.369141" xlink:href="#DejaVuSans-108"/>
      <use x="705.152344" xlink:href="#DejaVuSans-117"/>
      <use x="768.53125" xlink:href="#DejaVuSans-97"/>
      <use x="829.810547" xlink:href="#DejaVuSans-116"/>
      <use x="869.019531" xlink:href="#DejaVuSans-105"/>
      <use x="896.802734" xlink:href="#DejaVuSans-111"/>
      <use x="957.984375" xlink:href="#DejaVuSans-110"/>
      <use x="1021.363281" xlink:href="#DejaVuSans-115"/>
     </g>
    </g>
   </g>
   <g id="matplotlib.axis_2">
    <g id="ytick_1">
     <g id="line2d_11">
      <path clip-path="url(#p1b632fae0f)" d="M 72 325.171121 
L 518.4 325.171121 
" style="fill:none;stroke:#b0b0b0;stroke-linecap:square;stroke-width:0.8;"/>
     </g>
     <g id="line2d_12">
      <defs>
       <path d="M 0 0 
L -3.5 0 
" id="m51c54b8430" style="stroke:#000000;stroke-width:0.8;"/>
      </defs>
      <g>
       <use style="stroke:#000000;stroke-width:0.8;" x="72" xlink:href="#m51c54b8430" y="325.171121"/>
      </g>
     </g>
     <g id="text_7">
      <!-- 55 -->
      <g transform="translate(52.275 328.970339)scale(0.1 -0.1)">
       <use xlink:href="#DejaVuSans-53"/>
       <use x="63.623047" xlink:href="#DejaVuSans-53"/>
      </g>
     </g>
    </g>
    <g id="ytick_2">
     <g id="line2d_13">
      <path clip-path="url(#p1b632fae0f)" d="M 72 264.915929 
L 518.4 264.915929 
" style="fill:none;stroke:#b0b0b0;stroke-linecap:square;stroke-width:0.8;"/>
     </g>
     <g id="line2d_14">
      <g>
       <use style="stroke:#000000;stroke-width:0.8;" x="72" xlink:href="#m51c54b8430" y="264.915929"/>
      </g>
     </g>
     <g id="text_8">
      <!-- 60 -->
      <g transform="translate(52.275 268.715147)scale(0.1 -0.1)">
       <defs>
        <path d="M 33.015625 40.375 
Q 26.375 40.375 22.484375 35.828125 
Q 18.609375 31.296875 18.609375 23.390625 
Q 18.609375 15.53125 22.484375 10.953125 
Q 26.375 6.390625 33.015625 6.390625 
Q 39.65625 6.390625 43.53125 10.953125 
Q 47.40625 15.53125 47.40625 23.390625 
Q 47.40625 31.296875 43.53125 35.828125 
Q 39.65625 40.375 33.015625 40.375 
z
M 52.59375 71.296875 
L 52.59375 62.3125 
Q 48.875 64.0625 45.09375 64.984375 
Q 41.3125 65.921875 37.59375 65.921875 
Q 27.828125 65.921875 22.671875 59.328125 
Q 17.53125 52.734375 16.796875 39.40625 
Q 19.671875 43.65625 24.015625 45.921875 
Q 28.375 48.1875 33.59375 48.1875 
Q 44.578125 48.1875 50.953125 41.515625 
Q 57.328125 34.859375 57.328125 23.390625 
Q 57.328125 12.15625 50.6875 5.359375 
Q 44.046875 -1.421875 33.015625 -1.421875 
Q 20.359375 -1.421875 13.671875 8.265625 
Q 6.984375 17.96875 6.984375 36.375 
Q 6.984375 53.65625 15.1875 63.9375 
Q 23.390625 74.21875 37.203125 74.21875 
Q 40.921875 74.21875 44.703125 73.484375 
Q 48.484375 72.75 52.59375 71.296875 
z
" id="DejaVuSans-54"/>
       </defs>
       <use xlink:href="#DejaVuSans-54"/>
       <use x="63.623047" xlink:href="#DejaVuSans-48"/>
      </g>
     </g>
    </g>
    <g id="ytick_3">
     <g id="line2d_15">
      <path clip-path="url(#p1b632fae0f)" d="M 72 204.660736 
L 518.4 204.660736 
" style="fill:none;stroke:#b0b0b0;stroke-linecap:square;stroke-width:0.8;"/>
     </g>
     <g id="line2d_16">
      <g>
       <use style="stroke:#000000;stroke-width:0.8;" x="72" xlink:href="#m51c54b8430" y="204.660736"/>
      </g>
     </g>
     <g id="text_9">
      <!-- 65 -->
      <g transform="translate(52.275 208.459955)scale(0.1 -0.1)">
       <use xlink:href="#DejaVuSans-54"/>
       <use x="63.623047" xlink:href="#DejaVuSans-53"/>
      </g>
     </g>
    </g>
    <g id="ytick_4">
     <g id="line2d_17">
      <path clip-path="url(#p1b632fae0f)" d="M 72 144.405544 
L 518.4 144.405544 
" style="fill:none;stroke:#b0b0b0;stroke-linecap:square;stroke-width:0.8;"/>
     </g>
     <g id="line2d_18">
      <g>
       <use style="stroke:#000000;stroke-width:0.8;" x="72" xlink:href="#m51c54b8430" y="144.405544"/>
      </g>
     </g>
     <g id="text_10">
      <!-- 70 -->
      <g transform="translate(52.275 148.204763)scale(0.1 -0.1)">
       <defs>
        <path d="M 8.203125 72.90625 
L 55.078125 72.90625 
L 55.078125 68.703125 
L 28.609375 0 
L 18.3125 0 
L 43.21875 64.59375 
L 8.203125 64.59375 
z
" id="DejaVuSans-55"/>
       </defs>
       <use xlink:href="#DejaVuSans-55"/>
       <use x="63.623047" xlink:href="#DejaVuSans-48"/>
      </g>
     </g>
    </g>
    <g id="ytick_5">
     <g id="line2d_19">
      <path clip-path="url(#p1b632fae0f)" d="M 72 84.150352 
L 518.4 84.150352 
" style="fill:none;stroke:#b0b0b0;stroke-linecap:square;stroke-width:0.8;"/>
     </g>
     <g id="line2d_20">
      <g>
       <use style="stroke:#000000;stroke-width:0.8;" x="72" xlink:href="#m51c54b8430" y="84.150352"/>
      </g>
     </g>
     <g id="text_11">
      <!-- 75 -->
      <g transform="translate(52.275 87.949571)scale(0.1 -0.1)">
       <use xlink:href="#DejaVuSans-55"/>
       <use x="63.623047" xlink:href="#DejaVuSans-53"/>
      </g>
     </g>
    </g>
    <g id="text_12">
     <!-- 100 - SMAPE% -->
     <g transform="translate(46.195312 251.279375)rotate(-90)scale(0.1 -0.1)">
      <defs>
       <path d="M 4.890625 31.390625 
L 31.203125 31.390625 
L 31.203125 23.390625 
L 4.890625 23.390625 
z
" id="DejaVuSans-45"/>
       <path d="M 53.515625 70.515625 
L 53.515625 60.890625 
Q 47.90625 63.578125 42.921875 64.890625 
Q 37.9375 66.21875 33.296875 66.21875 
Q 25.25 66.21875 20.875 63.09375 
Q 16.5 59.96875 16.5 54.203125 
Q 16.5 49.359375 19.40625 46.890625 
Q 22.3125 44.4375 30.421875 42.921875 
L 36.375 41.703125 
Q 47.40625 39.59375 52.65625 34.296875 
Q 57.90625 29 57.90625 20.125 
Q 57.90625 9.515625 50.796875 4.046875 
Q 43.703125 -1.421875 29.984375 -1.421875 
Q 24.8125 -1.421875 18.96875 -0.25 
Q 13.140625 0.921875 6.890625 3.21875 
L 6.890625 13.375 
Q 12.890625 10.015625 18.65625 8.296875 
Q 24.421875 6.59375 29.984375 6.59375 
Q 38.421875 6.59375 43.015625 9.90625 
Q 47.609375 13.234375 47.609375 19.390625 
Q 47.609375 24.75 44.3125 27.78125 
Q 41.015625 30.8125 33.5 32.328125 
L 27.484375 33.5 
Q 16.453125 35.6875 11.515625 40.375 
Q 6.59375 45.0625 6.59375 53.421875 
Q 6.59375 63.09375 13.40625 68.65625 
Q 20.21875 74.21875 32.171875 74.21875 
Q 37.3125 74.21875 42.625 73.28125 
Q 47.953125 72.359375 53.515625 70.515625 
z
" id="DejaVuSans-83"/>
       <path d="M 9.8125 72.90625 
L 24.515625 72.90625 
L 43.109375 23.296875 
L 61.8125 72.90625 
L 76.515625 72.90625 
L 76.515625 0 
L 66.890625 0 
L 66.890625 64.015625 
L 48.09375 14.015625 
L 38.1875 14.015625 
L 19.390625 64.015625 
L 19.390625 0 
L 9.8125 0 
z
" id="DejaVuSans-77"/>
       <path d="M 34.1875 63.1875 
L 20.796875 26.90625 
L 47.609375 26.90625 
z
M 28.609375 72.90625 
L 39.796875 72.90625 
L 67.578125 0 
L 57.328125 0 
L 50.6875 18.703125 
L 17.828125 18.703125 
L 11.1875 0 
L 0.78125 0 
z
" id="DejaVuSans-65"/>
       <path d="M 19.671875 64.796875 
L 19.671875 37.40625 
L 32.078125 37.40625 
Q 38.96875 37.40625 42.71875 40.96875 
Q 46.484375 44.53125 46.484375 51.125 
Q 46.484375 57.671875 42.71875 61.234375 
Q 38.96875 64.796875 32.078125 64.796875 
z
M 9.8125 72.90625 
L 32.078125 72.90625 
Q 44.34375 72.90625 50.609375 67.359375 
Q 56.890625 61.8125 56.890625 51.125 
Q 56.890625 40.328125 50.609375 34.8125 
Q 44.34375 29.296875 32.078125 29.296875 
L 19.671875 29.296875 
L 19.671875 0 
L 9.8125 0 
z
" id="DejaVuSans-80"/>
       <path d="M 72.703125 32.078125 
Q 68.453125 32.078125 66.03125 28.46875 
Q 63.625 24.859375 63.625 18.40625 
Q 63.625 12.0625 66.03125 8.421875 
Q 68.453125 4.78125 72.703125 4.78125 
Q 76.859375 4.78125 79.265625 8.421875 
Q 81.6875 12.0625 81.6875 18.40625 
Q 81.6875 24.8125 79.265625 28.4375 
Q 76.859375 32.078125 72.703125 32.078125 
z
M 72.703125 38.28125 
Q 80.421875 38.28125 84.953125 32.90625 
Q 89.5 27.546875 89.5 18.40625 
Q 89.5 9.28125 84.9375 3.921875 
Q 80.375 -1.421875 72.703125 -1.421875 
Q 64.890625 -1.421875 60.34375 3.921875 
Q 55.8125 9.28125 55.8125 18.40625 
Q 55.8125 27.59375 60.375 32.9375 
Q 64.9375 38.28125 72.703125 38.28125 
z
M 22.3125 68.015625 
Q 18.109375 68.015625 15.6875 64.375 
Q 13.28125 60.75 13.28125 54.390625 
Q 13.28125 47.953125 15.671875 44.328125 
Q 18.0625 40.71875 22.3125 40.71875 
Q 26.5625 40.71875 28.96875 44.328125 
Q 31.390625 47.953125 31.390625 54.390625 
Q 31.390625 60.6875 28.953125 64.34375 
Q 26.515625 68.015625 22.3125 68.015625 
z
M 66.40625 74.21875 
L 74.21875 74.21875 
L 28.609375 -1.421875 
L 20.796875 -1.421875 
z
M 22.3125 74.21875 
Q 30.03125 74.21875 34.609375 68.875 
Q 39.203125 63.53125 39.203125 54.390625 
Q 39.203125 45.171875 34.640625 39.84375 
Q 30.078125 34.515625 22.3125 34.515625 
Q 14.546875 34.515625 10.03125 39.859375 
Q 5.515625 45.21875 5.515625 54.390625 
Q 5.515625 63.484375 10.046875 68.84375 
Q 14.59375 74.21875 22.3125 74.21875 
z
" id="DejaVuSans-37"/>
      </defs>
      <use xlink:href="#DejaVuSans-49"/>
      <use x="63.623047" xlink:href="#DejaVuSans-48"/>
      <use x="127.246094" xlink:href="#DejaVuSans-48"/>
      <use x="190.869141" xlink:href="#DejaVuSans-32"/>
      <use x="222.65625" xlink:href="#DejaVuSans-45"/>
      <use x="258.740234" xlink:href="#DejaVuSans-32"/>
      <use x="290.527344" xlink:href="#DejaVuSans-83"/>
      <use x="354.003906" xlink:href="#DejaVuSans-77"/>
      <use x="440.283203" xlink:href="#DejaVuSans-65"/>
      <use x="508.691406" xlink:href="#DejaVuSans-80"/>
      <use x="568.994141" xlink:href="#DejaVuSans-69"/>
      <use x="632.177734" xlink:href="#DejaVuSans-37"/>
     </g>
    </g>
   </g>
   <g id="line2d_21">
    <defs>
     <path d="M -3 3 
L 3 -3 
M -3 -3 
L 3 3 
" id="m0415466139" style="stroke:#1f77b4;"/>
    </defs>
    <g clip-path="url(#p1b632fae0f)">
     <use style="fill:#1f77b4;stroke:#1f77b4;" x="92.290909" xlink:href="#m0415466139" y="96.39387"/>
     <use style="fill:#1f77b4;stroke:#1f77b4;" x="94.118919" xlink:href="#m0415466139" y="87.2495"/>
     <use style="fill:#1f77b4;stroke:#1f77b4;" x="103.258968" xlink:href="#m0415466139" y="237.097897"/>
     <use style="fill:#1f77b4;stroke:#1f77b4;" x="110.571007" xlink:href="#m0415466139" y="166.611316"/>
     <use style="fill:#1f77b4;stroke:#1f77b4;" x="114.227027" xlink:href="#m0415466139" y="87.836115"/>
     <use style="fill:#1f77b4;stroke:#1f77b4;" x="127.023096" xlink:href="#m0415466139" y="248.032665"/>
     <use style="fill:#1f77b4;stroke:#1f77b4;" x="128.851106" xlink:href="#m0415466139" y="84.08335"/>
     <use style="fill:#1f77b4;stroke:#1f77b4;" x="145.303194" xlink:href="#m0415466139" y="84.067827"/>
     <use style="fill:#1f77b4;stroke:#1f77b4;" x="147.131204" xlink:href="#m0415466139" y="235.707619"/>
     <use style="fill:#1f77b4;stroke:#1f77b4;" x="161.755283" xlink:href="#m0415466139" y="140.246696"/>
     <use style="fill:#1f77b4;stroke:#1f77b4;" x="192.83145" xlink:href="#m0415466139" y="105.631596"/>
     <use style="fill:#1f77b4;stroke:#1f77b4;" x="200.143489" xlink:href="#m0415466139" y="96.57722"/>
     <use style="fill:#1f77b4;stroke:#1f77b4;" x="209.283538" xlink:href="#m0415466139" y="138.135956"/>
     <use style="fill:#1f77b4;stroke:#1f77b4;" x="227.563636" xlink:href="#m0415466139" y="77.415558"/>
     <use style="fill:#1f77b4;stroke:#1f77b4;" x="244.015725" xlink:href="#m0415466139" y="127.6568"/>
     <use style="fill:#1f77b4;stroke:#1f77b4;" x="280.575921" xlink:href="#m0415466139" y="135.451512"/>
     <use style="fill:#1f77b4;stroke:#1f77b4;" x="298.85602" xlink:href="#m0415466139" y="104.60658"/>
     <use style="fill:#1f77b4;stroke:#1f77b4;" x="306.168059" xlink:href="#m0415466139" y="88.726366"/>
     <use style="fill:#1f77b4;stroke:#1f77b4;" x="320.792138" xlink:href="#m0415466139" y="101.589017"/>
     <use style="fill:#1f77b4;stroke:#1f77b4;" x="329.932187" xlink:href="#m0415466139" y="81.316045"/>
     <use style="fill:#1f77b4;stroke:#1f77b4;" x="340.900246" xlink:href="#m0415466139" y="94.164421"/>
     <use style="fill:#1f77b4;stroke:#1f77b4;" x="362.836364" xlink:href="#m0415466139" y="114.049927"/>
     <use style="fill:#1f77b4;stroke:#1f77b4;" x="377.460442" xlink:href="#m0415466139" y="100.187949"/>
    </g>
   </g>
   <g id="line2d_22">
    <defs>
     <path d="M 0 1.5 
C 0.397805 1.5 0.77937 1.341951 1.06066 1.06066 
C 1.341951 0.77937 1.5 0.397805 1.5 0 
C 1.5 -0.397805 1.341951 -0.77937 1.06066 -1.06066 
C 0.77937 -1.341951 0.397805 -1.5 0 -1.5 
C -0.397805 -1.5 -0.77937 -1.341951 -1.06066 -1.06066 
C -1.341951 -0.77937 -1.5 -0.397805 -1.5 0 
C -1.5 0.397805 -1.341951 0.77937 -1.06066 1.06066 
C -0.77937 1.341951 -0.397805 1.5 0 1.5 
z
" id="m605f86467f" style="stroke:#ff7f0e;"/>
    </defs>
    <g clip-path="url(#p1b632fae0f)">
     <use style="fill:#ff7f0e;stroke:#ff7f0e;" x="95.946929" xlink:href="#m605f86467f" y="120.724724"/>
     <use style="fill:#ff7f0e;stroke:#ff7f0e;" x="106.914988" xlink:href="#m605f86467f" y="134.687436"/>
     <use style="fill:#ff7f0e;stroke:#ff7f0e;" x="180.035381" xlink:href="#m605f86467f" y="156.242597"/>
     <use style="fill:#ff7f0e;stroke:#ff7f0e;" x="189.17543" xlink:href="#m605f86467f" y="248.923799"/>
     <use style="fill:#ff7f0e;stroke:#ff7f0e;" x="196.487469" xlink:href="#m605f86467f" y="237.984087"/>
     <use style="fill:#ff7f0e;stroke:#ff7f0e;" x="205.627518" xlink:href="#m605f86467f" y="226.831101"/>
     <use style="fill:#ff7f0e;stroke:#ff7f0e;" x="222.079607" xlink:href="#m605f86467f" y="78.294701"/>
     <use style="fill:#ff7f0e;stroke:#ff7f0e;" x="236.703686" xlink:href="#m605f86467f" y="79.653956"/>
     <use style="fill:#ff7f0e;stroke:#ff7f0e;" x="242.187715" xlink:href="#m605f86467f" y="71.756103"/>
     <use style="fill:#ff7f0e;stroke:#ff7f0e;" x="254.983784" xlink:href="#m605f86467f" y="75.762695"/>
     <use style="fill:#ff7f0e;stroke:#ff7f0e;" x="256.811794" xlink:href="#m605f86467f" y="90.792828"/>
     <use style="fill:#ff7f0e;stroke:#ff7f0e;" x="258.639803" xlink:href="#m605f86467f" y="96.912246"/>
     <use style="fill:#ff7f0e;stroke:#ff7f0e;" x="287.887961" xlink:href="#m605f86467f" y="78.128268"/>
     <use style="fill:#ff7f0e;stroke:#ff7f0e;" x="289.715971" xlink:href="#m605f86467f" y="100.399749"/>
     <use style="fill:#ff7f0e;stroke:#ff7f0e;" x="293.37199" xlink:href="#m605f86467f" y="135.429555"/>
     <use style="fill:#ff7f0e;stroke:#ff7f0e;" x="313.480098" xlink:href="#m605f86467f" y="201.869507"/>
     <use style="fill:#ff7f0e;stroke:#ff7f0e;" x="315.308108" xlink:href="#m605f86467f" y="83.806069"/>
     <use style="fill:#ff7f0e;stroke:#ff7f0e;" x="333.588206" xlink:href="#m605f86467f" y="214.098977"/>
     <use style="fill:#ff7f0e;stroke:#ff7f0e;" x="366.492383" xlink:href="#m605f86467f" y="93.980376"/>
     <use style="fill:#ff7f0e;stroke:#ff7f0e;" x="368.320393" xlink:href="#m605f86467f" y="126.649633"/>
     <use style="fill:#ff7f0e;stroke:#ff7f0e;" x="370.148403" xlink:href="#m605f86467f" y="154.564125"/>
     <use style="fill:#ff7f0e;stroke:#ff7f0e;" x="382.944472" xlink:href="#m605f86467f" y="250.729052"/>
     <use style="fill:#ff7f0e;stroke:#ff7f0e;" x="384.772482" xlink:href="#m605f86467f" y="129.279814"/>
    </g>
   </g>
   <g id="line2d_23">
    <defs>
     <path d="M 0 -3 
L -3 3 
L 3 3 
z
" id="me73a06de61" style="stroke:#2ca02c;stroke-linejoin:miter;"/>
    </defs>
    <g clip-path="url(#p1b632fae0f)">
     <use style="fill:#2ca02c;stroke:#2ca02c;stroke-linejoin:miter;" x="97.774939" xlink:href="#me73a06de61" y="242.85464"/>
     <use style="fill:#2ca02c;stroke:#2ca02c;stroke-linejoin:miter;" x="105.086978" xlink:href="#me73a06de61" y="94.826923"/>
     <use style="fill:#2ca02c;stroke:#2ca02c;stroke-linejoin:miter;" x="116.055037" xlink:href="#me73a06de61" y="82.08768"/>
     <use style="fill:#2ca02c;stroke:#2ca02c;stroke-linejoin:miter;" x="121.539066" xlink:href="#me73a06de61" y="230.68003"/>
     <use style="fill:#2ca02c;stroke:#2ca02c;stroke-linejoin:miter;" x="123.367076" xlink:href="#me73a06de61" y="86.671658"/>
     <use style="fill:#2ca02c;stroke:#2ca02c;stroke-linejoin:miter;" x="134.335135" xlink:href="#me73a06de61" y="91.360705"/>
     <use style="fill:#2ca02c;stroke:#2ca02c;stroke-linejoin:miter;" x="143.475184" xlink:href="#me73a06de61" y="162.737342"/>
     <use style="fill:#2ca02c;stroke:#2ca02c;stroke-linejoin:miter;" x="158.099263" xlink:href="#me73a06de61" y="86.320089"/>
     <use style="fill:#2ca02c;stroke:#2ca02c;stroke-linejoin:miter;" x="163.583292" xlink:href="#me73a06de61" y="116.393346"/>
     <use style="fill:#2ca02c;stroke:#2ca02c;stroke-linejoin:miter;" x="176.379361" xlink:href="#me73a06de61" y="208.429061"/>
     <use style="fill:#2ca02c;stroke:#2ca02c;stroke-linejoin:miter;" x="181.863391" xlink:href="#me73a06de61" y="200.360324"/>
     <use style="fill:#2ca02c;stroke:#2ca02c;stroke-linejoin:miter;" x="187.34742" xlink:href="#me73a06de61" y="85.549436"/>
     <use style="fill:#2ca02c;stroke:#2ca02c;stroke-linejoin:miter;" x="194.659459" xlink:href="#me73a06de61" y="76.553184"/>
     <use style="fill:#2ca02c;stroke:#2ca02c;stroke-linejoin:miter;" x="198.315479" xlink:href="#me73a06de61" y="89.875932"/>
     <use style="fill:#2ca02c;stroke:#2ca02c;stroke-linejoin:miter;" x="207.455528" xlink:href="#me73a06de61" y="118.947048"/>
     <use style="fill:#2ca02c;stroke:#2ca02c;stroke-linejoin:miter;" x="212.939558" xlink:href="#me73a06de61" y="168.786173"/>
     <use style="fill:#2ca02c;stroke:#2ca02c;stroke-linejoin:miter;" x="225.735627" xlink:href="#me73a06de61" y="84.212443"/>
     <use style="fill:#2ca02c;stroke:#2ca02c;stroke-linejoin:miter;" x="233.047666" xlink:href="#me73a06de61" y="135.147707"/>
     <use style="fill:#2ca02c;stroke:#2ca02c;stroke-linejoin:miter;" x="249.499754" xlink:href="#me73a06de61" y="162.437275"/>
     <use style="fill:#2ca02c;stroke:#2ca02c;stroke-linejoin:miter;" x="253.155774" xlink:href="#me73a06de61" y="90.072877"/>
     <use style="fill:#2ca02c;stroke:#2ca02c;stroke-linejoin:miter;" x="260.467813" xlink:href="#me73a06de61" y="198.707664"/>
     <use style="fill:#2ca02c;stroke:#2ca02c;stroke-linejoin:miter;" x="265.951843" xlink:href="#me73a06de61" y="96.79164"/>
     <use style="fill:#2ca02c;stroke:#2ca02c;stroke-linejoin:miter;" x="267.779853" xlink:href="#me73a06de61" y="74.892641"/>
     <use style="fill:#2ca02c;stroke:#2ca02c;stroke-linejoin:miter;" x="269.607862" xlink:href="#me73a06de61" y="70.998754"/>
     <use style="fill:#2ca02c;stroke:#2ca02c;stroke-linejoin:miter;" x="275.091892" xlink:href="#me73a06de61" y="363.174545"/>
     <use style="fill:#2ca02c;stroke:#2ca02c;stroke-linejoin:miter;" x="282.403931" xlink:href="#me73a06de61" y="79.299132"/>
     <use style="fill:#2ca02c;stroke:#2ca02c;stroke-linejoin:miter;" x="284.231941" xlink:href="#me73a06de61" y="77.636793"/>
     <use style="fill:#2ca02c;stroke:#2ca02c;stroke-linejoin:miter;" x="295.2" xlink:href="#me73a06de61" y="86.795829"/>
     <use style="fill:#2ca02c;stroke:#2ca02c;stroke-linejoin:miter;" x="307.996069" xlink:href="#me73a06de61" y="95.247922"/>
     <use style="fill:#2ca02c;stroke:#2ca02c;stroke-linejoin:miter;" x="318.964128" xlink:href="#me73a06de61" y="79.98633"/>
     <use style="fill:#2ca02c;stroke:#2ca02c;stroke-linejoin:miter;" x="322.620147" xlink:href="#me73a06de61" y="84.300564"/>
     <use style="fill:#2ca02c;stroke:#2ca02c;stroke-linejoin:miter;" x="328.104177" xlink:href="#me73a06de61" y="79.375969"/>
     <use style="fill:#2ca02c;stroke:#2ca02c;stroke-linejoin:miter;" x="331.760197" xlink:href="#me73a06de61" y="81.203839"/>
     <use style="fill:#2ca02c;stroke:#2ca02c;stroke-linejoin:miter;" x="335.416216" xlink:href="#me73a06de61" y="87.652519"/>
     <use style="fill:#2ca02c;stroke:#2ca02c;stroke-linejoin:miter;" x="346.384275" xlink:href="#me73a06de61" y="84.362441"/>
     <use style="fill:#2ca02c;stroke:#2ca02c;stroke-linejoin:miter;" x="348.212285" xlink:href="#me73a06de61" y="183.243837"/>
     <use style="fill:#2ca02c;stroke:#2ca02c;stroke-linejoin:miter;" x="355.524324" xlink:href="#me73a06de61" y="111.775043"/>
     <use style="fill:#2ca02c;stroke:#2ca02c;stroke-linejoin:miter;" x="357.352334" xlink:href="#me73a06de61" y="130.187551"/>
     <use style="fill:#2ca02c;stroke:#2ca02c;stroke-linejoin:miter;" x="364.664373" xlink:href="#me73a06de61" y="77.483627"/>
     <use style="fill:#2ca02c;stroke:#2ca02c;stroke-linejoin:miter;" x="371.976413" xlink:href="#me73a06de61" y="68.426357"/>
     <use style="fill:#2ca02c;stroke:#2ca02c;stroke-linejoin:miter;" x="375.632432" xlink:href="#me73a06de61" y="171.373337"/>
     <use style="fill:#2ca02c;stroke:#2ca02c;stroke-linejoin:miter;" x="392.084521" xlink:href="#me73a06de61" y="74.059943"/>
    </g>
   </g>
   <g id="line2d_24">
    <defs>
     <path d="M -3 0 
L 3 0 
M 0 3 
L 0 -3 
" id="m4a76dfb52c" style="stroke:#d62728;"/>
    </defs>
    <g clip-path="url(#p1b632fae0f)">
     <use style="fill:#d62728;stroke:#d62728;" x="99.602948" xlink:href="#m4a76dfb52c" y="178.935512"/>
     <use style="fill:#d62728;stroke:#d62728;" x="101.430958" xlink:href="#m4a76dfb52c" y="219.203318"/>
     <use style="fill:#d62728;stroke:#d62728;" x="112.399017" xlink:href="#m4a76dfb52c" y="136.494948"/>
     <use style="fill:#d62728;stroke:#d62728;" x="119.711057" xlink:href="#m4a76dfb52c" y="106.085997"/>
     <use style="fill:#d62728;stroke:#d62728;" x="130.679115" xlink:href="#m4a76dfb52c" y="205.891895"/>
     <use style="fill:#d62728;stroke:#d62728;" x="136.163145" xlink:href="#m4a76dfb52c" y="85.729846"/>
     <use style="fill:#d62728;stroke:#d62728;" x="139.819165" xlink:href="#m4a76dfb52c" y="102.397088"/>
     <use style="fill:#d62728;stroke:#d62728;" x="141.647174" xlink:href="#m4a76dfb52c" y="209.638254"/>
     <use style="fill:#d62728;stroke:#d62728;" x="150.787224" xlink:href="#m4a76dfb52c" y="81.177268"/>
     <use style="fill:#d62728;stroke:#d62728;" x="152.615233" xlink:href="#m4a76dfb52c" y="88.879786"/>
     <use style="fill:#d62728;stroke:#d62728;" x="154.443243" xlink:href="#m4a76dfb52c" y="94.888225"/>
     <use style="fill:#d62728;stroke:#d62728;" x="156.271253" xlink:href="#m4a76dfb52c" y="127.856692"/>
     <use style="fill:#d62728;stroke:#d62728;" x="167.239312" xlink:href="#m4a76dfb52c" y="96.223673"/>
     <use style="fill:#d62728;stroke:#d62728;" x="172.723342" xlink:href="#m4a76dfb52c" y="82.228519"/>
     <use style="fill:#d62728;stroke:#d62728;" x="174.551351" xlink:href="#m4a76dfb52c" y="115.887072"/>
     <use style="fill:#d62728;stroke:#d62728;" x="178.207371" xlink:href="#m4a76dfb52c" y="73.324396"/>
     <use style="fill:#d62728;stroke:#d62728;" x="191.00344" xlink:href="#m4a76dfb52c" y="184.702105"/>
     <use style="fill:#d62728;stroke:#d62728;" x="201.971499" xlink:href="#m4a76dfb52c" y="167.555817"/>
     <use style="fill:#d62728;stroke:#d62728;" x="214.767568" xlink:href="#m4a76dfb52c" y="70.329732"/>
     <use style="fill:#d62728;stroke:#d62728;" x="216.595577" xlink:href="#m4a76dfb52c" y="100.261417"/>
     <use style="fill:#d62728;stroke:#d62728;" x="220.251597" xlink:href="#m4a76dfb52c" y="73.158876"/>
     <use style="fill:#d62728;stroke:#d62728;" x="223.907617" xlink:href="#m4a76dfb52c" y="75.937423"/>
     <use style="fill:#d62728;stroke:#d62728;" x="231.219656" xlink:href="#m4a76dfb52c" y="104.454342"/>
     <use style="fill:#d62728;stroke:#d62728;" x="240.359705" xlink:href="#m4a76dfb52c" y="217.398261"/>
     <use style="fill:#d62728;stroke:#d62728;" x="247.671744" xlink:href="#m4a76dfb52c" y="196.201859"/>
     <use style="fill:#d62728;stroke:#d62728;" x="251.327764" xlink:href="#m4a76dfb52c" y="118.877433"/>
     <use style="fill:#d62728;stroke:#d62728;" x="262.295823" xlink:href="#m4a76dfb52c" y="69.006835"/>
     <use style="fill:#d62728;stroke:#d62728;" x="271.435872" xlink:href="#m4a76dfb52c" y="72.836488"/>
     <use style="fill:#d62728;stroke:#d62728;" x="276.919902" xlink:href="#m4a76dfb52c" y="78.623253"/>
     <use style="fill:#d62728;stroke:#d62728;" x="278.747912" xlink:href="#m4a76dfb52c" y="196.152791"/>
     <use style="fill:#d62728;stroke:#d62728;" x="286.059951" xlink:href="#m4a76dfb52c" y="127.847635"/>
     <use style="fill:#d62728;stroke:#d62728;" x="297.02801" xlink:href="#m4a76dfb52c" y="175.981506"/>
     <use style="fill:#d62728;stroke:#d62728;" x="304.340049" xlink:href="#m4a76dfb52c" y="69.061968"/>
     <use style="fill:#d62728;stroke:#d62728;" x="311.652088" xlink:href="#m4a76dfb52c" y="76.034255"/>
     <use style="fill:#d62728;stroke:#d62728;" x="317.136118" xlink:href="#m4a76dfb52c" y="157.916013"/>
     <use style="fill:#d62728;stroke:#d62728;" x="326.276167" xlink:href="#m4a76dfb52c" y="82.588186"/>
     <use style="fill:#d62728;stroke:#d62728;" x="351.868305" xlink:href="#m4a76dfb52c" y="84.156659"/>
     <use style="fill:#d62728;stroke:#d62728;" x="359.180344" xlink:href="#m4a76dfb52c" y="75.876496"/>
     <use style="fill:#d62728;stroke:#d62728;" x="361.008354" xlink:href="#m4a76dfb52c" y="79.519519"/>
     <use style="fill:#d62728;stroke:#d62728;" x="379.288452" xlink:href="#m4a76dfb52c" y="102.213625"/>
     <use style="fill:#d62728;stroke:#d62728;" x="388.428501" xlink:href="#m4a76dfb52c" y="116.205331"/>
     <use style="fill:#d62728;stroke:#d62728;" x="393.912531" xlink:href="#m4a76dfb52c" y="74.438864"/>
    </g>
   </g>
   <g id="line2d_25">
    <defs>
     <path d="M -0 3 
L 3 -3 
L -3 -3 
z
" id="md02020d7aa" style="stroke:#9467bd;stroke-linejoin:miter;"/>
    </defs>
    <g clip-path="url(#p1b632fae0f)">
     <use style="fill:#9467bd;stroke:#9467bd;stroke-linejoin:miter;" x="108.742998" xlink:href="#md02020d7aa" y="177.479727"/>
     <use style="fill:#9467bd;stroke:#9467bd;stroke-linejoin:miter;" x="117.883047" xlink:href="#md02020d7aa" y="72.403822"/>
     <use style="fill:#9467bd;stroke:#9467bd;stroke-linejoin:miter;" x="125.195086" xlink:href="#md02020d7aa" y="113.98475"/>
     <use style="fill:#9467bd;stroke:#9467bd;stroke-linejoin:miter;" x="132.507125" xlink:href="#md02020d7aa" y="248.792503"/>
     <use style="fill:#9467bd;stroke:#9467bd;stroke-linejoin:miter;" x="137.991155" xlink:href="#md02020d7aa" y="125.736993"/>
     <use style="fill:#9467bd;stroke:#9467bd;stroke-linejoin:miter;" x="148.959214" xlink:href="#md02020d7aa" y="86.412758"/>
     <use style="fill:#9467bd;stroke:#9467bd;stroke-linejoin:miter;" x="159.927273" xlink:href="#md02020d7aa" y="187.592333"/>
     <use style="fill:#9467bd;stroke:#9467bd;stroke-linejoin:miter;" x="165.411302" xlink:href="#md02020d7aa" y="240.735607"/>
     <use style="fill:#9467bd;stroke:#9467bd;stroke-linejoin:miter;" x="169.067322" xlink:href="#md02020d7aa" y="208.067256"/>
     <use style="fill:#9467bd;stroke:#9467bd;stroke-linejoin:miter;" x="170.895332" xlink:href="#md02020d7aa" y="78.160362"/>
     <use style="fill:#9467bd;stroke:#9467bd;stroke-linejoin:miter;" x="183.6914" xlink:href="#md02020d7aa" y="98.43816"/>
     <use style="fill:#9467bd;stroke:#9467bd;stroke-linejoin:miter;" x="185.51941" xlink:href="#md02020d7aa" y="80.432781"/>
     <use style="fill:#9467bd;stroke:#9467bd;stroke-linejoin:miter;" x="203.799509" xlink:href="#md02020d7aa" y="116.655816"/>
     <use style="fill:#9467bd;stroke:#9467bd;stroke-linejoin:miter;" x="211.111548" xlink:href="#md02020d7aa" y="96.846862"/>
     <use style="fill:#9467bd;stroke:#9467bd;stroke-linejoin:miter;" x="218.423587" xlink:href="#md02020d7aa" y="69.59519"/>
     <use style="fill:#9467bd;stroke:#9467bd;stroke-linejoin:miter;" x="229.391646" xlink:href="#md02020d7aa" y="66.665455"/>
     <use style="fill:#9467bd;stroke:#9467bd;stroke-linejoin:miter;" x="234.875676" xlink:href="#md02020d7aa" y="86.498943"/>
     <use style="fill:#9467bd;stroke:#9467bd;stroke-linejoin:miter;" x="238.531695" xlink:href="#md02020d7aa" y="79.798154"/>
     <use style="fill:#9467bd;stroke:#9467bd;stroke-linejoin:miter;" x="245.843735" xlink:href="#md02020d7aa" y="68.017746"/>
     <use style="fill:#9467bd;stroke:#9467bd;stroke-linejoin:miter;" x="264.123833" xlink:href="#md02020d7aa" y="232.652471"/>
     <use style="fill:#9467bd;stroke:#9467bd;stroke-linejoin:miter;" x="273.263882" xlink:href="#md02020d7aa" y="69.390158"/>
     <use style="fill:#9467bd;stroke:#9467bd;stroke-linejoin:miter;" x="291.54398" xlink:href="#md02020d7aa" y="68.878951"/>
     <use style="fill:#9467bd;stroke:#9467bd;stroke-linejoin:miter;" x="300.684029" xlink:href="#md02020d7aa" y="92.280546"/>
     <use style="fill:#9467bd;stroke:#9467bd;stroke-linejoin:miter;" x="302.512039" xlink:href="#md02020d7aa" y="98.095466"/>
     <use style="fill:#9467bd;stroke:#9467bd;stroke-linejoin:miter;" x="309.824079" xlink:href="#md02020d7aa" y="78.565451"/>
     <use style="fill:#9467bd;stroke:#9467bd;stroke-linejoin:miter;" x="324.448157" xlink:href="#md02020d7aa" y="86.944504"/>
     <use style="fill:#9467bd;stroke:#9467bd;stroke-linejoin:miter;" x="337.244226" xlink:href="#md02020d7aa" y="89.338199"/>
     <use style="fill:#9467bd;stroke:#9467bd;stroke-linejoin:miter;" x="339.072236" xlink:href="#md02020d7aa" y="188.397004"/>
     <use style="fill:#9467bd;stroke:#9467bd;stroke-linejoin:miter;" x="342.728256" xlink:href="#md02020d7aa" y="69.086986"/>
     <use style="fill:#9467bd;stroke:#9467bd;stroke-linejoin:miter;" x="344.556265" xlink:href="#md02020d7aa" y="109.000975"/>
     <use style="fill:#9467bd;stroke:#9467bd;stroke-linejoin:miter;" x="350.040295" xlink:href="#md02020d7aa" y="76.91486"/>
     <use style="fill:#9467bd;stroke:#9467bd;stroke-linejoin:miter;" x="353.696314" xlink:href="#md02020d7aa" y="95.385728"/>
     <use style="fill:#9467bd;stroke:#9467bd;stroke-linejoin:miter;" x="373.804423" xlink:href="#md02020d7aa" y="84.287459"/>
     <use style="fill:#9467bd;stroke:#9467bd;stroke-linejoin:miter;" x="381.116462" xlink:href="#md02020d7aa" y="191.121286"/>
     <use style="fill:#9467bd;stroke:#9467bd;stroke-linejoin:miter;" x="386.600491" xlink:href="#md02020d7aa" y="69.897877"/>
     <use style="fill:#9467bd;stroke:#9467bd;stroke-linejoin:miter;" x="390.256511" xlink:href="#md02020d7aa" y="73.402035"/>
    </g>
   </g>
   <g id="line2d_26">
    <defs>
     <path d="M 0 0 
L 0 3 
M 0 0 
L 2.4 -1.5 
M 0 0 
L -2.4 -1.5 
" id="md4fad9272f" style="stroke:#8c564b;"/>
    </defs>
    <g clip-path="url(#p1b632fae0f)">
     <use style="fill:#8c564b;stroke:#8c564b;" x="395.740541" xlink:href="#md4fad9272f" y="74.236247"/>
     <use style="fill:#8c564b;stroke:#8c564b;" x="397.56855" xlink:href="#md4fad9272f" y="75.61616"/>
     <use style="fill:#8c564b;stroke:#8c564b;" x="399.39656" xlink:href="#md4fad9272f" y="122.566458"/>
     <use style="fill:#8c564b;stroke:#8c564b;" x="401.22457" xlink:href="#md4fad9272f" y="70.129026"/>
     <use style="fill:#8c564b;stroke:#8c564b;" x="403.05258" xlink:href="#md4fad9272f" y="188.778179"/>
     <use style="fill:#8c564b;stroke:#8c564b;" x="404.88059" xlink:href="#md4fad9272f" y="71.974776"/>
     <use style="fill:#8c564b;stroke:#8c564b;" x="406.7086" xlink:href="#md4fad9272f" y="189.907849"/>
     <use style="fill:#8c564b;stroke:#8c564b;" x="408.536609" xlink:href="#md4fad9272f" y="190.82616"/>
     <use style="fill:#8c564b;stroke:#8c564b;" x="410.364619" xlink:href="#md4fad9272f" y="70.571976"/>
     <use style="fill:#8c564b;stroke:#8c564b;" x="412.192629" xlink:href="#md4fad9272f" y="69.822464"/>
     <use style="fill:#8c564b;stroke:#8c564b;" x="414.020639" xlink:href="#md4fad9272f" y="67.826229"/>
     <use style="fill:#8c564b;stroke:#8c564b;" x="415.848649" xlink:href="#md4fad9272f" y="70.214539"/>
     <use style="fill:#8c564b;stroke:#8c564b;" x="417.676658" xlink:href="#md4fad9272f" y="111.260263"/>
     <use style="fill:#8c564b;stroke:#8c564b;" x="419.504668" xlink:href="#md4fad9272f" y="129.207979"/>
     <use style="fill:#8c564b;stroke:#8c564b;" x="421.332678" xlink:href="#md4fad9272f" y="218.264157"/>
     <use style="fill:#8c564b;stroke:#8c564b;" x="423.160688" xlink:href="#md4fad9272f" y="193.753793"/>
     <use style="fill:#8c564b;stroke:#8c564b;" x="424.988698" xlink:href="#md4fad9272f" y="69.31803"/>
     <use style="fill:#8c564b;stroke:#8c564b;" x="426.816708" xlink:href="#md4fad9272f" y="165.787585"/>
     <use style="fill:#8c564b;stroke:#8c564b;" x="428.644717" xlink:href="#md4fad9272f" y="194.090601"/>
     <use style="fill:#8c564b;stroke:#8c564b;" x="430.472727" xlink:href="#md4fad9272f" y="197.90416"/>
     <use style="fill:#8c564b;stroke:#8c564b;" x="432.300737" xlink:href="#md4fad9272f" y="193.017271"/>
     <use style="fill:#8c564b;stroke:#8c564b;" x="434.128747" xlink:href="#md4fad9272f" y="195.325992"/>
     <use style="fill:#8c564b;stroke:#8c564b;" x="435.956757" xlink:href="#md4fad9272f" y="77.660432"/>
     <use style="fill:#8c564b;stroke:#8c564b;" x="437.784767" xlink:href="#md4fad9272f" y="211.711658"/>
     <use style="fill:#8c564b;stroke:#8c564b;" x="439.612776" xlink:href="#md4fad9272f" y="196.081546"/>
     <use style="fill:#8c564b;stroke:#8c564b;" x="441.440786" xlink:href="#md4fad9272f" y="192.796291"/>
     <use style="fill:#8c564b;stroke:#8c564b;" x="443.268796" xlink:href="#md4fad9272f" y="189.607224"/>
     <use style="fill:#8c564b;stroke:#8c564b;" x="445.096806" xlink:href="#md4fad9272f" y="110.458409"/>
     <use style="fill:#8c564b;stroke:#8c564b;" x="446.924816" xlink:href="#md4fad9272f" y="191.471982"/>
     <use style="fill:#8c564b;stroke:#8c564b;" x="448.752826" xlink:href="#md4fad9272f" y="101.484222"/>
     <use style="fill:#8c564b;stroke:#8c564b;" x="450.580835" xlink:href="#md4fad9272f" y="104.892346"/>
     <use style="fill:#8c564b;stroke:#8c564b;" x="452.408845" xlink:href="#md4fad9272f" y="190.127948"/>
     <use style="fill:#8c564b;stroke:#8c564b;" x="454.236855" xlink:href="#md4fad9272f" y="191.804672"/>
     <use style="fill:#8c564b;stroke:#8c564b;" x="456.064865" xlink:href="#md4fad9272f" y="173.961955"/>
     <use style="fill:#8c564b;stroke:#8c564b;" x="457.892875" xlink:href="#md4fad9272f" y="92.385433"/>
     <use style="fill:#8c564b;stroke:#8c564b;" x="459.720885" xlink:href="#md4fad9272f" y="79.742536"/>
     <use style="fill:#8c564b;stroke:#8c564b;" x="461.548894" xlink:href="#md4fad9272f" y="191.639888"/>
     <use style="fill:#8c564b;stroke:#8c564b;" x="463.376904" xlink:href="#md4fad9272f" y="67.78295"/>
     <use style="fill:#8c564b;stroke:#8c564b;" x="465.204914" xlink:href="#md4fad9272f" y="77.836815"/>
     <use style="fill:#8c564b;stroke:#8c564b;" x="467.032924" xlink:href="#md4fad9272f" y="240.25512"/>
     <use style="fill:#8c564b;stroke:#8c564b;" x="468.860934" xlink:href="#md4fad9272f" y="67.936616"/>
     <use style="fill:#8c564b;stroke:#8c564b;" x="470.688943" xlink:href="#md4fad9272f" y="76.395838"/>
     <use style="fill:#8c564b;stroke:#8c564b;" x="472.516953" xlink:href="#md4fad9272f" y="68.239567"/>
     <use style="fill:#8c564b;stroke:#8c564b;" x="474.344963" xlink:href="#md4fad9272f" y="75.304902"/>
     <use style="fill:#8c564b;stroke:#8c564b;" x="476.172973" xlink:href="#md4fad9272f" y="77.215005"/>
     <use style="fill:#8c564b;stroke:#8c564b;" x="478.000983" xlink:href="#md4fad9272f" y="68.178336"/>
     <use style="fill:#8c564b;stroke:#8c564b;" x="479.828993" xlink:href="#md4fad9272f" y="75.283432"/>
     <use style="fill:#8c564b;stroke:#8c564b;" x="481.657002" xlink:href="#md4fad9272f" y="75.739135"/>
     <use style="fill:#8c564b;stroke:#8c564b;" x="483.485012" xlink:href="#md4fad9272f" y="72.539496"/>
     <use style="fill:#8c564b;stroke:#8c564b;" x="485.313022" xlink:href="#md4fad9272f" y="72.989153"/>
     <use style="fill:#8c564b;stroke:#8c564b;" x="487.141032" xlink:href="#md4fad9272f" y="74.875222"/>
     <use style="fill:#8c564b;stroke:#8c564b;" x="488.969042" xlink:href="#md4fad9272f" y="72.348065"/>
     <use style="fill:#8c564b;stroke:#8c564b;" x="490.797052" xlink:href="#md4fad9272f" y="72.268133"/>
     <use style="fill:#8c564b;stroke:#8c564b;" x="492.625061" xlink:href="#md4fad9272f" y="76.093425"/>
     <use style="fill:#8c564b;stroke:#8c564b;" x="494.453071" xlink:href="#md4fad9272f" y="121.916868"/>
     <use style="fill:#8c564b;stroke:#8c564b;" x="496.281081" xlink:href="#md4fad9272f" y="88.055292"/>
     <use style="fill:#8c564b;stroke:#8c564b;" x="498.109091" xlink:href="#md4fad9272f" y="73.837789"/>
    </g>
   </g>
   <g id="line2d_27">
    <path clip-path="url(#p1b632fae0f)" d="M 92.290909 134.849556 
L 498.109091 107.671245 
L 498.109091 107.671245 
" style="fill:none;stroke:#000000;stroke-dasharray:5.55,2.4;stroke-dashoffset:0;stroke-width:1.5;"/>
   </g>
   <g id="line2d_28">
    <path clip-path="url(#p1b632fae0f)" d="M 92.290909 96.39387 
L 94.118919 87.2495 
L 114.227027 87.2495 
L 116.055037 82.08768 
L 117.883047 72.403822 
L 212.939558 72.403822 
L 214.767568 70.329732 
L 216.595577 70.329732 
L 218.423587 69.59519 
L 227.563636 69.59519 
L 229.391646 66.665455 
L 498.109091 66.665455 
L 498.109091 66.665455 
" style="fill:none;stroke:#0000ff;stroke-linecap:square;stroke-width:1.5;"/>
   </g>
   <g id="patch_3">
    <path d="M 72 378 
L 72 51.84 
" style="fill:none;stroke:#000000;stroke-linecap:square;stroke-linejoin:miter;stroke-width:0.8;"/>
   </g>
   <g id="patch_4">
    <path d="M 518.4 378 
L 518.4 51.84 
" style="fill:none;stroke:#000000;stroke-linecap:square;stroke-linejoin:miter;stroke-width:0.8;"/>
   </g>
   <g id="patch_5">
    <path d="M 72 378 
L 518.4 378 
" style="fill:none;stroke:#000000;stroke-linecap:square;stroke-linejoin:miter;stroke-width:0.8;"/>
   </g>
   <g id="patch_6">
    <path d="M 72 51.84 
L 518.4 51.84 
" style="fill:none;stroke:#000000;stroke-linecap:square;stroke-linejoin:miter;stroke-width:0.8;"/>
   </g>
   <g id="text_13">
    <!-- Island Transpeciation - $O_3$ train CV 2000-2009 (median: 74.00%, worst: 51.85%, best: 76.45%) -->
    <g transform="translate(10.32 45.84)scale(0.12 -0.12)">
     <defs>
      <path d="M 9.8125 72.90625 
L 19.671875 72.90625 
L 19.671875 0 
L 9.8125 0 
z
" id="DejaVuSans-73"/>
      <path d="M 45.40625 46.390625 
L 45.40625 75.984375 
L 54.390625 75.984375 
L 54.390625 0 
L 45.40625 0 
L 45.40625 8.203125 
Q 42.578125 3.328125 38.25 0.953125 
Q 33.9375 -1.421875 27.875 -1.421875 
Q 17.96875 -1.421875 11.734375 6.484375 
Q 5.515625 14.40625 5.515625 27.296875 
Q 5.515625 40.1875 11.734375 48.09375 
Q 17.96875 56 27.875 56 
Q 33.9375 56 38.25 53.625 
Q 42.578125 51.265625 45.40625 46.390625 
z
M 14.796875 27.296875 
Q 14.796875 17.390625 18.875 11.75 
Q 22.953125 6.109375 30.078125 6.109375 
Q 37.203125 6.109375 41.296875 11.75 
Q 45.40625 17.390625 45.40625 27.296875 
Q 45.40625 37.203125 41.296875 42.84375 
Q 37.203125 48.484375 30.078125 48.484375 
Q 22.953125 48.484375 18.875 42.84375 
Q 14.796875 37.203125 14.796875 27.296875 
z
" id="DejaVuSans-100"/>
      <path d="M -0.296875 72.90625 
L 61.375 72.90625 
L 61.375 64.59375 
L 35.5 64.59375 
L 35.5 0 
L 25.59375 0 
L 25.59375 64.59375 
L -0.296875 64.59375 
z
" id="DejaVuSans-84"/>
      <path d="M 41.109375 46.296875 
Q 39.59375 47.171875 37.8125 47.578125 
Q 36.03125 48 33.890625 48 
Q 26.265625 48 22.1875 43.046875 
Q 18.109375 38.09375 18.109375 28.8125 
L 18.109375 0 
L 9.078125 0 
L 9.078125 54.6875 
L 18.109375 54.6875 
L 18.109375 46.1875 
Q 20.953125 51.171875 25.484375 53.578125 
Q 30.03125 56 36.53125 56 
Q 37.453125 56 38.578125 55.875 
Q 39.703125 55.765625 41.0625 55.515625 
z
" id="DejaVuSans-114"/>
      <path d="M 18.109375 8.203125 
L 18.109375 -20.796875 
L 9.078125 -20.796875 
L 9.078125 54.6875 
L 18.109375 54.6875 
L 18.109375 46.390625 
Q 20.953125 51.265625 25.265625 53.625 
Q 29.59375 56 35.59375 56 
Q 45.5625 56 51.78125 48.09375 
Q 58.015625 40.1875 58.015625 27.296875 
Q 58.015625 14.40625 51.78125 6.484375 
Q 45.5625 -1.421875 35.59375 -1.421875 
Q 29.59375 -1.421875 25.265625 0.953125 
Q 20.953125 3.328125 18.109375 8.203125 
z
M 48.6875 27.296875 
Q 48.6875 37.203125 44.609375 42.84375 
Q 40.53125 48.484375 33.40625 48.484375 
Q 26.265625 48.484375 22.1875 42.84375 
Q 18.109375 37.203125 18.109375 27.296875 
Q 18.109375 17.390625 22.1875 11.75 
Q 26.265625 6.109375 33.40625 6.109375 
Q 40.53125 6.109375 44.609375 11.75 
Q 48.6875 17.390625 48.6875 27.296875 
z
" id="DejaVuSans-112"/>
      <path d="M 48.78125 52.59375 
L 48.78125 44.1875 
Q 44.96875 46.296875 41.140625 47.34375 
Q 37.3125 48.390625 33.40625 48.390625 
Q 24.65625 48.390625 19.8125 42.84375 
Q 14.984375 37.3125 14.984375 27.296875 
Q 14.984375 17.28125 19.8125 11.734375 
Q 24.65625 6.203125 33.40625 6.203125 
Q 37.3125 6.203125 41.140625 7.25 
Q 44.96875 8.296875 48.78125 10.40625 
L 48.78125 2.09375 
Q 45.015625 0.34375 40.984375 -0.53125 
Q 36.96875 -1.421875 32.421875 -1.421875 
Q 20.0625 -1.421875 12.78125 6.34375 
Q 5.515625 14.109375 5.515625 27.296875 
Q 5.515625 40.671875 12.859375 48.328125 
Q 20.21875 56 33.015625 56 
Q 37.15625 56 41.109375 55.140625 
Q 45.0625 54.296875 48.78125 52.59375 
z
" id="DejaVuSans-99"/>
      <path d="M 45.609375 66.21875 
Q 37.5 66.21875 31.296875 62.28125 
Q 25.09375 58.34375 20.515625 50.296875 
Q 17.578125 45.171875 16.03125 39.40625 
Q 14.5 33.640625 14.5 27.78125 
Q 14.5 17.625 19.359375 12.109375 
Q 24.21875 6.59375 33.109375 6.59375 
Q 41.109375 6.59375 47.375 10.5625 
Q 53.65625 14.546875 58.109375 22.40625 
Q 61.078125 27.6875 62.640625 33.46875 
Q 64.203125 39.265625 64.203125 45.015625 
Q 64.203125 55.125 59.3125 60.671875 
Q 54.4375 66.21875 45.609375 66.21875 
z
M 32.8125 -1.421875 
Q 19.390625 -1.421875 11.6875 6.53125 
Q 4 14.5 4 28.328125 
Q 4 36.234375 7 44.484375 
Q 10.015625 52.734375 15.28125 59.1875 
Q 21.484375 66.75 29.09375 70.484375 
Q 36.71875 74.21875 45.90625 74.21875 
Q 59.28125 74.21875 66.984375 66.328125 
Q 74.703125 58.453125 74.703125 44.828125 
Q 74.703125 36.421875 71.765625 28.3125 
Q 68.84375 20.21875 63.375 13.625 
Q 57.125 6 49.578125 2.28125 
Q 42.046875 -1.421875 32.8125 -1.421875 
z
" id="DejaVuSans-Oblique-79"/>
      <path d="M 40.578125 39.3125 
Q 47.65625 37.796875 51.625 33 
Q 55.609375 28.21875 55.609375 21.1875 
Q 55.609375 10.40625 48.1875 4.484375 
Q 40.765625 -1.421875 27.09375 -1.421875 
Q 22.515625 -1.421875 17.65625 -0.515625 
Q 12.796875 0.390625 7.625 2.203125 
L 7.625 11.71875 
Q 11.71875 9.328125 16.59375 8.109375 
Q 21.484375 6.890625 26.8125 6.890625 
Q 36.078125 6.890625 40.9375 10.546875 
Q 45.796875 14.203125 45.796875 21.1875 
Q 45.796875 27.640625 41.28125 31.265625 
Q 36.765625 34.90625 28.71875 34.90625 
L 20.21875 34.90625 
L 20.21875 43.015625 
L 29.109375 43.015625 
Q 36.375 43.015625 40.234375 45.921875 
Q 44.09375 48.828125 44.09375 54.296875 
Q 44.09375 59.90625 40.109375 62.90625 
Q 36.140625 65.921875 28.71875 65.921875 
Q 24.65625 65.921875 20.015625 65.03125 
Q 15.375 64.15625 9.8125 62.3125 
L 9.8125 71.09375 
Q 15.4375 72.65625 20.34375 73.4375 
Q 25.25 74.21875 29.59375 74.21875 
Q 40.828125 74.21875 47.359375 69.109375 
Q 53.90625 64.015625 53.90625 55.328125 
Q 53.90625 49.265625 50.4375 45.09375 
Q 46.96875 40.921875 40.578125 39.3125 
z
" id="DejaVuSans-51"/>
      <path d="M 64.40625 67.28125 
L 64.40625 56.890625 
Q 59.421875 61.53125 53.78125 63.8125 
Q 48.140625 66.109375 41.796875 66.109375 
Q 29.296875 66.109375 22.65625 58.46875 
Q 16.015625 50.828125 16.015625 36.375 
Q 16.015625 21.96875 22.65625 14.328125 
Q 29.296875 6.6875 41.796875 6.6875 
Q 48.140625 6.6875 53.78125 8.984375 
Q 59.421875 11.28125 64.40625 15.921875 
L 64.40625 5.609375 
Q 59.234375 2.09375 53.4375 0.328125 
Q 47.65625 -1.421875 41.21875 -1.421875 
Q 24.65625 -1.421875 15.125 8.703125 
Q 5.609375 18.84375 5.609375 36.375 
Q 5.609375 53.953125 15.125 64.078125 
Q 24.65625 74.21875 41.21875 74.21875 
Q 47.75 74.21875 53.53125 72.484375 
Q 59.328125 70.75 64.40625 67.28125 
z
" id="DejaVuSans-67"/>
      <path d="M 28.609375 0 
L 0.78125 72.90625 
L 11.078125 72.90625 
L 34.1875 11.53125 
L 57.328125 72.90625 
L 67.578125 72.90625 
L 39.796875 0 
z
" id="DejaVuSans-86"/>
      <path d="M 10.984375 1.515625 
L 10.984375 10.5 
Q 14.703125 8.734375 18.5 7.8125 
Q 22.3125 6.890625 25.984375 6.890625 
Q 35.75 6.890625 40.890625 13.453125 
Q 46.046875 20.015625 46.78125 33.40625 
Q 43.953125 29.203125 39.59375 26.953125 
Q 35.25 24.703125 29.984375 24.703125 
Q 19.046875 24.703125 12.671875 31.3125 
Q 6.296875 37.9375 6.296875 49.421875 
Q 6.296875 60.640625 12.9375 67.421875 
Q 19.578125 74.21875 30.609375 74.21875 
Q 43.265625 74.21875 49.921875 64.515625 
Q 56.59375 54.828125 56.59375 36.375 
Q 56.59375 19.140625 48.40625 8.859375 
Q 40.234375 -1.421875 26.421875 -1.421875 
Q 22.703125 -1.421875 18.890625 -0.6875 
Q 15.09375 0.046875 10.984375 1.515625 
z
M 30.609375 32.421875 
Q 37.25 32.421875 41.125 36.953125 
Q 45.015625 41.5 45.015625 49.421875 
Q 45.015625 57.28125 41.125 61.84375 
Q 37.25 66.40625 30.609375 66.40625 
Q 23.96875 66.40625 20.09375 61.84375 
Q 16.21875 57.28125 16.21875 49.421875 
Q 16.21875 41.5 20.09375 36.953125 
Q 23.96875 32.421875 30.609375 32.421875 
z
" id="DejaVuSans-57"/>
      <path d="M 31 75.875 
Q 24.46875 64.65625 21.28125 53.65625 
Q 18.109375 42.671875 18.109375 31.390625 
Q 18.109375 20.125 21.3125 9.0625 
Q 24.515625 -2 31 -13.1875 
L 23.1875 -13.1875 
Q 15.875 -1.703125 12.234375 9.375 
Q 8.59375 20.453125 8.59375 31.390625 
Q 8.59375 42.28125 12.203125 53.3125 
Q 15.828125 64.359375 23.1875 75.875 
z
" id="DejaVuSans-40"/>
      <path d="M 52 44.1875 
Q 55.375 50.25 60.0625 53.125 
Q 64.75 56 71.09375 56 
Q 79.640625 56 84.28125 50.015625 
Q 88.921875 44.046875 88.921875 33.015625 
L 88.921875 0 
L 79.890625 0 
L 79.890625 32.71875 
Q 79.890625 40.578125 77.09375 44.375 
Q 74.3125 48.1875 68.609375 48.1875 
Q 61.625 48.1875 57.5625 43.546875 
Q 53.515625 38.921875 53.515625 30.90625 
L 53.515625 0 
L 44.484375 0 
L 44.484375 32.71875 
Q 44.484375 40.625 41.703125 44.40625 
Q 38.921875 48.1875 33.109375 48.1875 
Q 26.21875 48.1875 22.15625 43.53125 
Q 18.109375 38.875 18.109375 30.90625 
L 18.109375 0 
L 9.078125 0 
L 9.078125 54.6875 
L 18.109375 54.6875 
L 18.109375 46.1875 
Q 21.1875 51.21875 25.484375 53.609375 
Q 29.78125 56 35.6875 56 
Q 41.65625 56 45.828125 52.96875 
Q 50 49.953125 52 44.1875 
z
" id="DejaVuSans-109"/>
      <path d="M 11.71875 12.40625 
L 22.015625 12.40625 
L 22.015625 0 
L 11.71875 0 
z
M 11.71875 51.703125 
L 22.015625 51.703125 
L 22.015625 39.3125 
L 11.71875 39.3125 
z
" id="DejaVuSans-58"/>
      <path d="M 37.796875 64.3125 
L 12.890625 25.390625 
L 37.796875 25.390625 
z
M 35.203125 72.90625 
L 47.609375 72.90625 
L 47.609375 25.390625 
L 58.015625 25.390625 
L 58.015625 17.1875 
L 47.609375 17.1875 
L 47.609375 0 
L 37.796875 0 
L 37.796875 17.1875 
L 4.890625 17.1875 
L 4.890625 26.703125 
z
" id="DejaVuSans-52"/>
      <path d="M 10.6875 12.40625 
L 21 12.40625 
L 21 0 
L 10.6875 0 
z
" id="DejaVuSans-46"/>
      <path d="M 11.71875 12.40625 
L 22.015625 12.40625 
L 22.015625 4 
L 14.015625 -11.625 
L 7.71875 -11.625 
L 11.71875 4 
z
" id="DejaVuSans-44"/>
      <path d="M 4.203125 54.6875 
L 13.1875 54.6875 
L 24.421875 12.015625 
L 35.59375 54.6875 
L 46.1875 54.6875 
L 57.421875 12.015625 
L 68.609375 54.6875 
L 77.59375 54.6875 
L 63.28125 0 
L 52.6875 0 
L 40.921875 44.828125 
L 29.109375 0 
L 18.5 0 
z
" id="DejaVuSans-119"/>
      <path d="M 31.78125 34.625 
Q 24.75 34.625 20.71875 30.859375 
Q 16.703125 27.09375 16.703125 20.515625 
Q 16.703125 13.921875 20.71875 10.15625 
Q 24.75 6.390625 31.78125 6.390625 
Q 38.8125 6.390625 42.859375 10.171875 
Q 46.921875 13.96875 46.921875 20.515625 
Q 46.921875 27.09375 42.890625 30.859375 
Q 38.875 34.625 31.78125 34.625 
z
M 21.921875 38.8125 
Q 15.578125 40.375 12.03125 44.71875 
Q 8.5 49.078125 8.5 55.328125 
Q 8.5 64.0625 14.71875 69.140625 
Q 20.953125 74.21875 31.78125 74.21875 
Q 42.671875 74.21875 48.875 69.140625 
Q 55.078125 64.0625 55.078125 55.328125 
Q 55.078125 49.078125 51.53125 44.71875 
Q 48 40.375 41.703125 38.8125 
Q 48.828125 37.15625 52.796875 32.3125 
Q 56.78125 27.484375 56.78125 20.515625 
Q 56.78125 9.90625 50.3125 4.234375 
Q 43.84375 -1.421875 31.78125 -1.421875 
Q 19.734375 -1.421875 13.25 4.234375 
Q 6.78125 9.90625 6.78125 20.515625 
Q 6.78125 27.484375 10.78125 32.3125 
Q 14.796875 37.15625 21.921875 38.8125 
z
M 18.3125 54.390625 
Q 18.3125 48.734375 21.84375 45.5625 
Q 25.390625 42.390625 31.78125 42.390625 
Q 38.140625 42.390625 41.71875 45.5625 
Q 45.3125 48.734375 45.3125 54.390625 
Q 45.3125 60.0625 41.71875 63.234375 
Q 38.140625 66.40625 31.78125 66.40625 
Q 25.390625 66.40625 21.84375 63.234375 
Q 18.3125 60.0625 18.3125 54.390625 
z
" id="DejaVuSans-56"/>
      <path d="M 48.6875 27.296875 
Q 48.6875 37.203125 44.609375 42.84375 
Q 40.53125 48.484375 33.40625 48.484375 
Q 26.265625 48.484375 22.1875 42.84375 
Q 18.109375 37.203125 18.109375 27.296875 
Q 18.109375 17.390625 22.1875 11.75 
Q 26.265625 6.109375 33.40625 6.109375 
Q 40.53125 6.109375 44.609375 11.75 
Q 48.6875 17.390625 48.6875 27.296875 
z
M 18.109375 46.390625 
Q 20.953125 51.265625 25.265625 53.625 
Q 29.59375 56 35.59375 56 
Q 45.5625 56 51.78125 48.09375 
Q 58.015625 40.1875 58.015625 27.296875 
Q 58.015625 14.40625 51.78125 6.484375 
Q 45.5625 -1.421875 35.59375 -1.421875 
Q 29.59375 -1.421875 25.265625 0.953125 
Q 20.953125 3.328125 18.109375 8.203125 
L 18.109375 0 
L 9.078125 0 
L 9.078125 75.984375 
L 18.109375 75.984375 
z
" id="DejaVuSans-98"/>
      <path d="M 8.015625 75.875 
L 15.828125 75.875 
Q 23.140625 64.359375 26.78125 53.3125 
Q 30.421875 42.28125 30.421875 31.390625 
Q 30.421875 20.453125 26.78125 9.375 
Q 23.140625 -1.703125 15.828125 -13.1875 
L 8.015625 -13.1875 
Q 14.5 -2 17.703125 9.0625 
Q 20.90625 20.125 20.90625 31.390625 
Q 20.90625 42.671875 17.703125 53.65625 
Q 14.5 64.65625 8.015625 75.875 
z
" id="DejaVuSans-41"/>
     </defs>
     <use transform="translate(0 0.015625)" xlink:href="#DejaVuSans-73"/>
     <use transform="translate(29.492188 0.015625)" xlink:href="#DejaVuSans-115"/>
     <use transform="translate(81.591797 0.015625)" xlink:href="#DejaVuSans-108"/>
     <use transform="translate(109.375 0.015625)" xlink:href="#DejaVuSans-97"/>
     <use transform="translate(170.654297 0.015625)" xlink:href="#DejaVuSans-110"/>
     <use transform="translate(234.033203 0.015625)" xlink:href="#DejaVuSans-100"/>
     <use transform="translate(297.509766 0.015625)" xlink:href="#DejaVuSans-32"/>
     <use transform="translate(329.296875 0.015625)" xlink:href="#DejaVuSans-84"/>
     <use transform="translate(390.380859 0.015625)" xlink:href="#DejaVuSans-114"/>
     <use transform="translate(431.494141 0.015625)" xlink:href="#DejaVuSans-97"/>
     <use transform="translate(492.773438 0.015625)" xlink:href="#DejaVuSans-110"/>
     <use transform="translate(556.152344 0.015625)" xlink:href="#DejaVuSans-115"/>
     <use transform="translate(608.251953 0.015625)" xlink:href="#DejaVuSans-112"/>
     <use transform="translate(671.728516 0.015625)" xlink:href="#DejaVuSans-101"/>
     <use transform="translate(733.251953 0.015625)" xlink:href="#DejaVuSans-99"/>
     <use transform="translate(788.232422 0.015625)" xlink:href="#DejaVuSans-105"/>
     <use transform="translate(816.015625 0.015625)" xlink:href="#DejaVuSans-97"/>
     <use transform="translate(877.294922 0.015625)" xlink:href="#DejaVuSans-116"/>
     <use transform="translate(916.503906 0.015625)" xlink:href="#DejaVuSans-105"/>
     <use transform="translate(944.287109 0.015625)" xlink:href="#DejaVuSans-111"/>
     <use transform="translate(1005.46875 0.015625)" xlink:href="#DejaVuSans-110"/>
     <use transform="translate(1068.847656 0.015625)" xlink:href="#DejaVuSans-32"/>
     <use transform="translate(1100.634766 0.015625)" xlink:href="#DejaVuSans-45"/>
     <use transform="translate(1136.71875 0.015625)" xlink:href="#DejaVuSans-32"/>
     <use transform="translate(1168.505859 0.015625)" xlink:href="#DejaVuSans-Oblique-79"/>
     <use transform="translate(1247.216797 -16.390625)scale(0.7)" xlink:href="#DejaVuSans-51"/>
     <use transform="translate(1294.487305 0.015625)" xlink:href="#DejaVuSans-32"/>
     <use transform="translate(1326.274414 0.015625)" xlink:href="#DejaVuSans-116"/>
     <use transform="translate(1365.483398 0.015625)" xlink:href="#DejaVuSans-114"/>
     <use transform="translate(1406.59668 0.015625)" xlink:href="#DejaVuSans-97"/>
     <use transform="translate(1467.875977 0.015625)" xlink:href="#DejaVuSans-105"/>
     <use transform="translate(1495.65918 0.015625)" xlink:href="#DejaVuSans-110"/>
     <use transform="translate(1559.038086 0.015625)" xlink:href="#DejaVuSans-32"/>
     <use transform="translate(1590.825195 0.015625)" xlink:href="#DejaVuSans-67"/>
     <use transform="translate(1660.649414 0.015625)" xlink:href="#DejaVuSans-86"/>
     <use transform="translate(1729.057617 0.015625)" xlink:href="#DejaVuSans-32"/>
     <use transform="translate(1760.844727 0.015625)" xlink:href="#DejaVuSans-50"/>
     <use transform="translate(1824.467773 0.015625)" xlink:href="#DejaVuSans-48"/>
     <use transform="translate(1888.09082 0.015625)" xlink:href="#DejaVuSans-48"/>
     <use transform="translate(1951.713867 0.015625)" xlink:href="#DejaVuSans-48"/>
     <use transform="translate(2015.336914 0.015625)" xlink:href="#DejaVuSans-45"/>
     <use transform="translate(2051.420898 0.015625)" xlink:href="#DejaVuSans-50"/>
     <use transform="translate(2115.043945 0.015625)" xlink:href="#DejaVuSans-48"/>
     <use transform="translate(2178.666992 0.015625)" xlink:href="#DejaVuSans-48"/>
     <use transform="translate(2242.290039 0.015625)" xlink:href="#DejaVuSans-57"/>
     <use transform="translate(2305.913086 0.015625)" xlink:href="#DejaVuSans-32"/>
     <use transform="translate(2337.700195 0.015625)" xlink:href="#DejaVuSans-40"/>
     <use transform="translate(2376.713867 0.015625)" xlink:href="#DejaVuSans-109"/>
     <use transform="translate(2474.125977 0.015625)" xlink:href="#DejaVuSans-101"/>
     <use transform="translate(2535.649414 0.015625)" xlink:href="#DejaVuSans-100"/>
     <use transform="translate(2599.125977 0.015625)" xlink:href="#DejaVuSans-105"/>
     <use transform="translate(2626.90918 0.015625)" xlink:href="#DejaVuSans-97"/>
     <use transform="translate(2688.188477 0.015625)" xlink:href="#DejaVuSans-110"/>
     <use transform="translate(2751.567383 0.015625)" xlink:href="#DejaVuSans-58"/>
     <use transform="translate(2785.258789 0.015625)" xlink:href="#DejaVuSans-32"/>
     <use transform="translate(2817.045898 0.015625)" xlink:href="#DejaVuSans-55"/>
     <use transform="translate(2880.668945 0.015625)" xlink:href="#DejaVuSans-52"/>
     <use transform="translate(2944.291992 0.015625)" xlink:href="#DejaVuSans-46"/>
     <use transform="translate(2976.079102 0.015625)" xlink:href="#DejaVuSans-48"/>
     <use transform="translate(3039.702148 0.015625)" xlink:href="#DejaVuSans-48"/>
     <use transform="translate(3103.325195 0.015625)" xlink:href="#DejaVuSans-37"/>
     <use transform="translate(3198.344727 0.015625)" xlink:href="#DejaVuSans-44"/>
     <use transform="translate(3230.131836 0.015625)" xlink:href="#DejaVuSans-32"/>
     <use transform="translate(3261.918945 0.015625)" xlink:href="#DejaVuSans-119"/>
     <use transform="translate(3343.706055 0.015625)" xlink:href="#DejaVuSans-111"/>
     <use transform="translate(3404.887695 0.015625)" xlink:href="#DejaVuSans-114"/>
     <use transform="translate(3446.000977 0.015625)" xlink:href="#DejaVuSans-115"/>
     <use transform="translate(3498.100586 0.015625)" xlink:href="#DejaVuSans-116"/>
     <use transform="translate(3537.30957 0.015625)" xlink:href="#DejaVuSans-58"/>
     <use transform="translate(3571.000977 0.015625)" xlink:href="#DejaVuSans-32"/>
     <use transform="translate(3602.788086 0.015625)" xlink:href="#DejaVuSans-53"/>
     <use transform="translate(3666.411133 0.015625)" xlink:href="#DejaVuSans-49"/>
     <use transform="translate(3730.03418 0.015625)" xlink:href="#DejaVuSans-46"/>
     <use transform="translate(3759.196289 0.015625)" xlink:href="#DejaVuSans-56"/>
     <use transform="translate(3822.819336 0.015625)" xlink:href="#DejaVuSans-53"/>
     <use transform="translate(3886.442383 0.015625)" xlink:href="#DejaVuSans-37"/>
     <use transform="translate(3981.461914 0.015625)" xlink:href="#DejaVuSans-44"/>
     <use transform="translate(4013.249023 0.015625)" xlink:href="#DejaVuSans-32"/>
     <use transform="translate(4045.036133 0.015625)" xlink:href="#DejaVuSans-98"/>
     <use transform="translate(4108.512695 0.015625)" xlink:href="#DejaVuSans-101"/>
     <use transform="translate(4170.036133 0.015625)" xlink:href="#DejaVuSans-115"/>
     <use transform="translate(4222.135742 0.015625)" xlink:href="#DejaVuSans-116"/>
     <use transform="translate(4261.344727 0.015625)" xlink:href="#DejaVuSans-58"/>
     <use transform="translate(4295.036133 0.015625)" xlink:href="#DejaVuSans-32"/>
     <use transform="translate(4326.823242 0.015625)" xlink:href="#DejaVuSans-55"/>
     <use transform="translate(4390.446289 0.015625)" xlink:href="#DejaVuSans-54"/>
     <use transform="translate(4454.069336 0.015625)" xlink:href="#DejaVuSans-46"/>
     <use transform="translate(4485.856445 0.015625)" xlink:href="#DejaVuSans-52"/>
     <use transform="translate(4549.479492 0.015625)" xlink:href="#DejaVuSans-53"/>
     <use transform="translate(4613.102539 0.015625)" xlink:href="#DejaVuSans-37"/>
     <use transform="translate(4708.12207 0.015625)" xlink:href="#DejaVuSans-41"/>
    </g>
   </g>
   <g id="legend_1">
    <g id="patch_7">
     <path d="M 306.565625 373 
L 511.4 373 
Q 513.4 373 513.4 371 
L 513.4 254.575 
Q 513.4 252.575 511.4 252.575 
L 306.565625 252.575 
Q 304.565625 252.575 304.565625 254.575 
L 304.565625 371 
Q 304.565625 373 306.565625 373 
z
" style="fill:#ffffff;opacity:0.8;stroke:#cccccc;stroke-linejoin:miter;"/>
    </g>
    <g id="line2d_29"/>
    <g id="line2d_30">
     <g>
      <use style="fill:#1f77b4;stroke:#1f77b4;" x="318.565625" xlink:href="#m0415466139" y="260.673438"/>
     </g>
    </g>
    <g id="text_14">
     <!-- Bayesian Optimization (BO) -->
     <g transform="translate(336.565625 264.173438)scale(0.1 -0.1)">
      <defs>
       <path d="M 19.671875 34.8125 
L 19.671875 8.109375 
L 35.5 8.109375 
Q 43.453125 8.109375 47.28125 11.40625 
Q 51.125 14.703125 51.125 21.484375 
Q 51.125 28.328125 47.28125 31.5625 
Q 43.453125 34.8125 35.5 34.8125 
z
M 19.671875 64.796875 
L 19.671875 42.828125 
L 34.28125 42.828125 
Q 41.5 42.828125 45.03125 45.53125 
Q 48.578125 48.25 48.578125 53.8125 
Q 48.578125 59.328125 45.03125 62.0625 
Q 41.5 64.796875 34.28125 64.796875 
z
M 9.8125 72.90625 
L 35.015625 72.90625 
Q 46.296875 72.90625 52.390625 68.21875 
Q 58.5 63.53125 58.5 54.890625 
Q 58.5 48.1875 55.375 44.234375 
Q 52.25 40.28125 46.1875 39.3125 
Q 53.46875 37.75 57.5 32.78125 
Q 61.53125 27.828125 61.53125 20.40625 
Q 61.53125 10.640625 54.890625 5.3125 
Q 48.25 0 35.984375 0 
L 9.8125 0 
z
" id="DejaVuSans-66"/>
       <path d="M 32.171875 -5.078125 
Q 28.375 -14.84375 24.75 -17.8125 
Q 21.140625 -20.796875 15.09375 -20.796875 
L 7.90625 -20.796875 
L 7.90625 -13.28125 
L 13.1875 -13.28125 
Q 16.890625 -13.28125 18.9375 -11.515625 
Q 21 -9.765625 23.484375 -3.21875 
L 25.09375 0.875 
L 2.984375 54.6875 
L 12.5 54.6875 
L 29.59375 11.921875 
L 46.6875 54.6875 
L 56.203125 54.6875 
z
" id="DejaVuSans-121"/>
       <path d="M 39.40625 66.21875 
Q 28.65625 66.21875 22.328125 58.203125 
Q 16.015625 50.203125 16.015625 36.375 
Q 16.015625 22.609375 22.328125 14.59375 
Q 28.65625 6.59375 39.40625 6.59375 
Q 50.140625 6.59375 56.421875 14.59375 
Q 62.703125 22.609375 62.703125 36.375 
Q 62.703125 50.203125 56.421875 58.203125 
Q 50.140625 66.21875 39.40625 66.21875 
z
M 39.40625 74.21875 
Q 54.734375 74.21875 63.90625 63.9375 
Q 73.09375 53.65625 73.09375 36.375 
Q 73.09375 19.140625 63.90625 8.859375 
Q 54.734375 -1.421875 39.40625 -1.421875 
Q 24.03125 -1.421875 14.8125 8.828125 
Q 5.609375 19.09375 5.609375 36.375 
Q 5.609375 53.65625 14.8125 63.9375 
Q 24.03125 74.21875 39.40625 74.21875 
z
" id="DejaVuSans-79"/>
       <path d="M 5.515625 54.6875 
L 48.1875 54.6875 
L 48.1875 46.484375 
L 14.40625 7.171875 
L 48.1875 7.171875 
L 48.1875 0 
L 4.296875 0 
L 4.296875 8.203125 
L 38.09375 47.515625 
L 5.515625 47.515625 
z
" id="DejaVuSans-122"/>
      </defs>
      <use xlink:href="#DejaVuSans-66"/>
      <use x="68.603516" xlink:href="#DejaVuSans-97"/>
      <use x="129.882812" xlink:href="#DejaVuSans-121"/>
      <use x="189.0625" xlink:href="#DejaVuSans-101"/>
      <use x="250.585938" xlink:href="#DejaVuSans-115"/>
      <use x="302.685547" xlink:href="#DejaVuSans-105"/>
      <use x="330.46875" xlink:href="#DejaVuSans-97"/>
      <use x="391.748047" xlink:href="#DejaVuSans-110"/>
      <use x="455.126953" xlink:href="#DejaVuSans-32"/>
      <use x="486.914062" xlink:href="#DejaVuSans-79"/>
      <use x="565.625" xlink:href="#DejaVuSans-112"/>
      <use x="629.101562" xlink:href="#DejaVuSans-116"/>
      <use x="668.310547" xlink:href="#DejaVuSans-105"/>
      <use x="696.09375" xlink:href="#DejaVuSans-109"/>
      <use x="793.505859" xlink:href="#DejaVuSans-105"/>
      <use x="821.289062" xlink:href="#DejaVuSans-122"/>
      <use x="873.779297" xlink:href="#DejaVuSans-97"/>
      <use x="935.058594" xlink:href="#DejaVuSans-116"/>
      <use x="974.267578" xlink:href="#DejaVuSans-105"/>
      <use x="1002.050781" xlink:href="#DejaVuSans-111"/>
      <use x="1063.232422" xlink:href="#DejaVuSans-110"/>
      <use x="1126.611328" xlink:href="#DejaVuSans-32"/>
      <use x="1158.398438" xlink:href="#DejaVuSans-40"/>
      <use x="1197.412109" xlink:href="#DejaVuSans-66"/>
      <use x="1264.265625" xlink:href="#DejaVuSans-79"/>
      <use x="1342.976562" xlink:href="#DejaVuSans-41"/>
     </g>
    </g>
    <g id="line2d_31"/>
    <g id="line2d_32">
     <g>
      <use style="fill:#ff7f0e;stroke:#ff7f0e;" x="318.565625" xlink:href="#m605f86467f" y="275.351563"/>
     </g>
    </g>
    <g id="text_15">
     <!-- Random (uniform) search (Rand) -->
     <g transform="translate(336.565625 278.851563)scale(0.1 -0.1)">
      <defs>
       <path d="M 44.390625 34.1875 
Q 47.5625 33.109375 50.5625 29.59375 
Q 53.5625 26.078125 56.59375 19.921875 
L 66.609375 0 
L 56 0 
L 46.6875 18.703125 
Q 43.0625 26.03125 39.671875 28.421875 
Q 36.28125 30.8125 30.421875 30.8125 
L 19.671875 30.8125 
L 19.671875 0 
L 9.8125 0 
L 9.8125 72.90625 
L 32.078125 72.90625 
Q 44.578125 72.90625 50.734375 67.671875 
Q 56.890625 62.453125 56.890625 51.90625 
Q 56.890625 45.015625 53.6875 40.46875 
Q 50.484375 35.9375 44.390625 34.1875 
z
M 19.671875 64.796875 
L 19.671875 38.921875 
L 32.078125 38.921875 
Q 39.203125 38.921875 42.84375 42.21875 
Q 46.484375 45.515625 46.484375 51.90625 
Q 46.484375 58.296875 42.84375 61.546875 
Q 39.203125 64.796875 32.078125 64.796875 
z
" id="DejaVuSans-82"/>
       <path d="M 37.109375 75.984375 
L 37.109375 68.5 
L 28.515625 68.5 
Q 23.6875 68.5 21.796875 66.546875 
Q 19.921875 64.59375 19.921875 59.515625 
L 19.921875 54.6875 
L 34.71875 54.6875 
L 34.71875 47.703125 
L 19.921875 47.703125 
L 19.921875 0 
L 10.890625 0 
L 10.890625 47.703125 
L 2.296875 47.703125 
L 2.296875 54.6875 
L 10.890625 54.6875 
L 10.890625 58.5 
Q 10.890625 67.625 15.140625 71.796875 
Q 19.390625 75.984375 28.609375 75.984375 
z
" id="DejaVuSans-102"/>
       <path d="M 54.890625 33.015625 
L 54.890625 0 
L 45.90625 0 
L 45.90625 32.71875 
Q 45.90625 40.484375 42.875 44.328125 
Q 39.84375 48.1875 33.796875 48.1875 
Q 26.515625 48.1875 22.3125 43.546875 
Q 18.109375 38.921875 18.109375 30.90625 
L 18.109375 0 
L 9.078125 0 
L 9.078125 75.984375 
L 18.109375 75.984375 
L 18.109375 46.1875 
Q 21.34375 51.125 25.703125 53.5625 
Q 30.078125 56 35.796875 56 
Q 45.21875 56 50.046875 50.171875 
Q 54.890625 44.34375 54.890625 33.015625 
z
" id="DejaVuSans-104"/>
      </defs>
      <use xlink:href="#DejaVuSans-82"/>
      <use x="67.232422" xlink:href="#DejaVuSans-97"/>
      <use x="128.511719" xlink:href="#DejaVuSans-110"/>
      <use x="191.890625" xlink:href="#DejaVuSans-100"/>
      <use x="255.367188" xlink:href="#DejaVuSans-111"/>
      <use x="316.548828" xlink:href="#DejaVuSans-109"/>
      <use x="413.960938" xlink:href="#DejaVuSans-32"/>
      <use x="445.748047" xlink:href="#DejaVuSans-40"/>
      <use x="484.761719" xlink:href="#DejaVuSans-117"/>
      <use x="548.140625" xlink:href="#DejaVuSans-110"/>
      <use x="611.519531" xlink:href="#DejaVuSans-105"/>
      <use x="639.302734" xlink:href="#DejaVuSans-102"/>
      <use x="674.507812" xlink:href="#DejaVuSans-111"/>
      <use x="735.689453" xlink:href="#DejaVuSans-114"/>
      <use x="775.052734" xlink:href="#DejaVuSans-109"/>
      <use x="872.464844" xlink:href="#DejaVuSans-41"/>
      <use x="911.478516" xlink:href="#DejaVuSans-32"/>
      <use x="943.265625" xlink:href="#DejaVuSans-115"/>
      <use x="995.365234" xlink:href="#DejaVuSans-101"/>
      <use x="1056.888672" xlink:href="#DejaVuSans-97"/>
      <use x="1118.167969" xlink:href="#DejaVuSans-114"/>
      <use x="1157.03125" xlink:href="#DejaVuSans-99"/>
      <use x="1212.011719" xlink:href="#DejaVuSans-104"/>
      <use x="1275.390625" xlink:href="#DejaVuSans-32"/>
      <use x="1307.177734" xlink:href="#DejaVuSans-40"/>
      <use x="1346.191406" xlink:href="#DejaVuSans-82"/>
      <use x="1413.423828" xlink:href="#DejaVuSans-97"/>
      <use x="1474.703125" xlink:href="#DejaVuSans-110"/>
      <use x="1538.082031" xlink:href="#DejaVuSans-100"/>
      <use x="1601.558594" xlink:href="#DejaVuSans-41"/>
     </g>
    </g>
    <g id="line2d_33"/>
    <g id="line2d_34">
     <g>
      <use style="fill:#2ca02c;stroke:#2ca02c;stroke-linejoin:miter;" x="318.565625" xlink:href="#me73a06de61" y="290.029688"/>
     </g>
    </g>
    <g id="text_16">
     <!-- Differential Evolution (DE) -->
     <g transform="translate(336.565625 293.529688)scale(0.1 -0.1)">
      <defs>
       <path d="M 19.671875 64.796875 
L 19.671875 8.109375 
L 31.59375 8.109375 
Q 46.6875 8.109375 53.6875 14.9375 
Q 60.6875 21.78125 60.6875 36.53125 
Q 60.6875 51.171875 53.6875 57.984375 
Q 46.6875 64.796875 31.59375 64.796875 
z
M 9.8125 72.90625 
L 30.078125 72.90625 
Q 51.265625 72.90625 61.171875 64.09375 
Q 71.09375 55.28125 71.09375 36.53125 
Q 71.09375 17.671875 61.125 8.828125 
Q 51.171875 0 30.078125 0 
L 9.8125 0 
z
" id="DejaVuSans-68"/>
      </defs>
      <use xlink:href="#DejaVuSans-68"/>
      <use x="77.001953" xlink:href="#DejaVuSans-105"/>
      <use x="104.785156" xlink:href="#DejaVuSans-102"/>
      <use x="139.990234" xlink:href="#DejaVuSans-102"/>
      <use x="175.195312" xlink:href="#DejaVuSans-101"/>
      <use x="236.71875" xlink:href="#DejaVuSans-114"/>
      <use x="275.582031" xlink:href="#DejaVuSans-101"/>
      <use x="337.105469" xlink:href="#DejaVuSans-110"/>
      <use x="400.484375" xlink:href="#DejaVuSans-116"/>
      <use x="439.693359" xlink:href="#DejaVuSans-105"/>
      <use x="467.476562" xlink:href="#DejaVuSans-97"/>
      <use x="528.755859" xlink:href="#DejaVuSans-108"/>
      <use x="556.539062" xlink:href="#DejaVuSans-32"/>
      <use x="588.326172" xlink:href="#DejaVuSans-69"/>
      <use x="651.509766" xlink:href="#DejaVuSans-118"/>
      <use x="710.689453" xlink:href="#DejaVuSans-111"/>
      <use x="771.871094" xlink:href="#DejaVuSans-108"/>
      <use x="799.654297" xlink:href="#DejaVuSans-117"/>
      <use x="863.033203" xlink:href="#DejaVuSans-116"/>
      <use x="902.242188" xlink:href="#DejaVuSans-105"/>
      <use x="930.025391" xlink:href="#DejaVuSans-111"/>
      <use x="991.207031" xlink:href="#DejaVuSans-110"/>
      <use x="1054.585938" xlink:href="#DejaVuSans-32"/>
      <use x="1086.373047" xlink:href="#DejaVuSans-40"/>
      <use x="1125.386719" xlink:href="#DejaVuSans-68"/>
      <use x="1202.388672" xlink:href="#DejaVuSans-69"/>
      <use x="1265.572266" xlink:href="#DejaVuSans-41"/>
     </g>
    </g>
    <g id="line2d_35"/>
    <g id="line2d_36">
     <g>
      <use style="fill:#d62728;stroke:#d62728;" x="318.565625" xlink:href="#m4a76dfb52c" y="304.707813"/>
     </g>
    </g>
    <g id="text_17">
     <!-- Particle Swarm Optimization (PSO) -->
     <g transform="translate(336.565625 308.207813)scale(0.1 -0.1)">
      <use xlink:href="#DejaVuSans-80"/>
      <use x="55.802734" xlink:href="#DejaVuSans-97"/>
      <use x="117.082031" xlink:href="#DejaVuSans-114"/>
      <use x="158.195312" xlink:href="#DejaVuSans-116"/>
      <use x="197.404297" xlink:href="#DejaVuSans-105"/>
      <use x="225.1875" xlink:href="#DejaVuSans-99"/>
      <use x="280.167969" xlink:href="#DejaVuSans-108"/>
      <use x="307.951172" xlink:href="#DejaVuSans-101"/>
      <use x="369.474609" xlink:href="#DejaVuSans-32"/>
      <use x="401.261719" xlink:href="#DejaVuSans-83"/>
      <use x="464.738281" xlink:href="#DejaVuSans-119"/>
      <use x="546.525391" xlink:href="#DejaVuSans-97"/>
      <use x="607.804688" xlink:href="#DejaVuSans-114"/>
      <use x="647.167969" xlink:href="#DejaVuSans-109"/>
      <use x="744.580078" xlink:href="#DejaVuSans-32"/>
      <use x="776.367188" xlink:href="#DejaVuSans-79"/>
      <use x="855.078125" xlink:href="#DejaVuSans-112"/>
      <use x="918.554688" xlink:href="#DejaVuSans-116"/>
      <use x="957.763672" xlink:href="#DejaVuSans-105"/>
      <use x="985.546875" xlink:href="#DejaVuSans-109"/>
      <use x="1082.958984" xlink:href="#DejaVuSans-105"/>
      <use x="1110.742188" xlink:href="#DejaVuSans-122"/>
      <use x="1163.232422" xlink:href="#DejaVuSans-97"/>
      <use x="1224.511719" xlink:href="#DejaVuSans-116"/>
      <use x="1263.720703" xlink:href="#DejaVuSans-105"/>
      <use x="1291.503906" xlink:href="#DejaVuSans-111"/>
      <use x="1352.685547" xlink:href="#DejaVuSans-110"/>
      <use x="1416.064453" xlink:href="#DejaVuSans-32"/>
      <use x="1447.851562" xlink:href="#DejaVuSans-40"/>
      <use x="1486.865234" xlink:href="#DejaVuSans-80"/>
      <use x="1547.167969" xlink:href="#DejaVuSans-83"/>
      <use x="1610.644531" xlink:href="#DejaVuSans-79"/>
      <use x="1689.355469" xlink:href="#DejaVuSans-41"/>
     </g>
    </g>
    <g id="line2d_37"/>
    <g id="line2d_38">
     <g>
      <use style="fill:#9467bd;stroke:#9467bd;stroke-linejoin:miter;" x="318.565625" xlink:href="#md02020d7aa" y="319.385938"/>
     </g>
    </g>
    <g id="text_18">
     <!-- Genetic Algorithm (GA) -->
     <g transform="translate(336.565625 322.885938)scale(0.1 -0.1)">
      <defs>
       <path d="M 59.515625 10.40625 
L 59.515625 29.984375 
L 43.40625 29.984375 
L 43.40625 38.09375 
L 69.28125 38.09375 
L 69.28125 6.78125 
Q 63.578125 2.734375 56.6875 0.65625 
Q 49.8125 -1.421875 42 -1.421875 
Q 24.90625 -1.421875 15.25 8.5625 
Q 5.609375 18.5625 5.609375 36.375 
Q 5.609375 54.25 15.25 64.234375 
Q 24.90625 74.21875 42 74.21875 
Q 49.125 74.21875 55.546875 72.453125 
Q 61.96875 70.703125 67.390625 67.28125 
L 67.390625 56.78125 
Q 61.921875 61.421875 55.765625 63.765625 
Q 49.609375 66.109375 42.828125 66.109375 
Q 29.4375 66.109375 22.71875 58.640625 
Q 16.015625 51.171875 16.015625 36.375 
Q 16.015625 21.625 22.71875 14.15625 
Q 29.4375 6.6875 42.828125 6.6875 
Q 48.046875 6.6875 52.140625 7.59375 
Q 56.25 8.5 59.515625 10.40625 
z
" id="DejaVuSans-71"/>
       <path d="M 45.40625 27.984375 
Q 45.40625 37.75 41.375 43.109375 
Q 37.359375 48.484375 30.078125 48.484375 
Q 22.859375 48.484375 18.828125 43.109375 
Q 14.796875 37.75 14.796875 27.984375 
Q 14.796875 18.265625 18.828125 12.890625 
Q 22.859375 7.515625 30.078125 7.515625 
Q 37.359375 7.515625 41.375 12.890625 
Q 45.40625 18.265625 45.40625 27.984375 
z
M 54.390625 6.78125 
Q 54.390625 -7.171875 48.1875 -13.984375 
Q 42 -20.796875 29.203125 -20.796875 
Q 24.46875 -20.796875 20.265625 -20.09375 
Q 16.0625 -19.390625 12.109375 -17.921875 
L 12.109375 -9.1875 
Q 16.0625 -11.328125 19.921875 -12.34375 
Q 23.78125 -13.375 27.78125 -13.375 
Q 36.625 -13.375 41.015625 -8.765625 
Q 45.40625 -4.15625 45.40625 5.171875 
L 45.40625 9.625 
Q 42.625 4.78125 38.28125 2.390625 
Q 33.9375 0 27.875 0 
Q 17.828125 0 11.671875 7.65625 
Q 5.515625 15.328125 5.515625 27.984375 
Q 5.515625 40.671875 11.671875 48.328125 
Q 17.828125 56 27.875 56 
Q 33.9375 56 38.28125 53.609375 
Q 42.625 51.21875 45.40625 46.390625 
L 45.40625 54.6875 
L 54.390625 54.6875 
z
" id="DejaVuSans-103"/>
      </defs>
      <use xlink:href="#DejaVuSans-71"/>
      <use x="77.490234" xlink:href="#DejaVuSans-101"/>
      <use x="139.013672" xlink:href="#DejaVuSans-110"/>
      <use x="202.392578" xlink:href="#DejaVuSans-101"/>
      <use x="263.916016" xlink:href="#DejaVuSans-116"/>
      <use x="303.125" xlink:href="#DejaVuSans-105"/>
      <use x="330.908203" xlink:href="#DejaVuSans-99"/>
      <use x="385.888672" xlink:href="#DejaVuSans-32"/>
      <use x="417.675781" xlink:href="#DejaVuSans-65"/>
      <use x="486.083984" xlink:href="#DejaVuSans-108"/>
      <use x="513.867188" xlink:href="#DejaVuSans-103"/>
      <use x="577.34375" xlink:href="#DejaVuSans-111"/>
      <use x="638.525391" xlink:href="#DejaVuSans-114"/>
      <use x="679.638672" xlink:href="#DejaVuSans-105"/>
      <use x="707.421875" xlink:href="#DejaVuSans-116"/>
      <use x="746.630859" xlink:href="#DejaVuSans-104"/>
      <use x="810.009766" xlink:href="#DejaVuSans-109"/>
      <use x="907.421875" xlink:href="#DejaVuSans-32"/>
      <use x="939.208984" xlink:href="#DejaVuSans-40"/>
      <use x="978.222656" xlink:href="#DejaVuSans-71"/>
      <use x="1055.712891" xlink:href="#DejaVuSans-65"/>
      <use x="1124.121094" xlink:href="#DejaVuSans-41"/>
     </g>
    </g>
    <g id="line2d_39"/>
    <g id="line2d_40">
     <g>
      <use style="fill:#8c564b;stroke:#8c564b;" x="318.565625" xlink:href="#md4fad9272f" y="334.064063"/>
     </g>
    </g>
    <g id="text_19">
     <!-- Local Search (LS) -->
     <g transform="translate(336.565625 337.564063)scale(0.1 -0.1)">
      <defs>
       <path d="M 9.8125 72.90625 
L 19.671875 72.90625 
L 19.671875 8.296875 
L 55.171875 8.296875 
L 55.171875 0 
L 9.8125 0 
z
" id="DejaVuSans-76"/>
      </defs>
      <use xlink:href="#DejaVuSans-76"/>
      <use x="53.962891" xlink:href="#DejaVuSans-111"/>
      <use x="115.144531" xlink:href="#DejaVuSans-99"/>
      <use x="170.125" xlink:href="#DejaVuSans-97"/>
      <use x="231.404297" xlink:href="#DejaVuSans-108"/>
      <use x="259.1875" xlink:href="#DejaVuSans-32"/>
      <use x="290.974609" xlink:href="#DejaVuSans-83"/>
      <use x="354.451172" xlink:href="#DejaVuSans-101"/>
      <use x="415.974609" xlink:href="#DejaVuSans-97"/>
      <use x="477.253906" xlink:href="#DejaVuSans-114"/>
      <use x="516.117188" xlink:href="#DejaVuSans-99"/>
      <use x="571.097656" xlink:href="#DejaVuSans-104"/>
      <use x="634.476562" xlink:href="#DejaVuSans-32"/>
      <use x="666.263672" xlink:href="#DejaVuSans-40"/>
      <use x="705.277344" xlink:href="#DejaVuSans-76"/>
      <use x="760.990234" xlink:href="#DejaVuSans-83"/>
      <use x="824.466797" xlink:href="#DejaVuSans-41"/>
     </g>
    </g>
    <g id="line2d_41">
     <path d="M 308.565625 348.742188 
L 328.565625 348.742188 
" style="fill:none;stroke:#000000;stroke-dasharray:5.55,2.4;stroke-dashoffset:0;stroke-width:1.5;"/>
    </g>
    <g id="line2d_42"/>
    <g id="text_20">
     <!-- trend: 0.010*x + 70.793 -->
     <g transform="translate(336.565625 352.242188)scale(0.1 -0.1)">
      <defs>
       <path d="M 47.015625 60.890625 
L 29.5 51.421875 
L 47.015625 41.890625 
L 44.1875 37.109375 
L 27.78125 47.015625 
L 27.78125 28.609375 
L 22.21875 28.609375 
L 22.21875 47.015625 
L 5.8125 37.109375 
L 2.984375 41.890625 
L 20.515625 51.421875 
L 2.984375 60.890625 
L 5.8125 65.71875 
L 22.21875 55.8125 
L 22.21875 74.21875 
L 27.78125 74.21875 
L 27.78125 55.8125 
L 44.1875 65.71875 
z
" id="DejaVuSans-42"/>
       <path d="M 54.890625 54.6875 
L 35.109375 28.078125 
L 55.90625 0 
L 45.3125 0 
L 29.390625 21.484375 
L 13.484375 0 
L 2.875 0 
L 24.125 28.609375 
L 4.6875 54.6875 
L 15.28125 54.6875 
L 29.78125 35.203125 
L 44.28125 54.6875 
z
" id="DejaVuSans-120"/>
       <path d="M 46 62.703125 
L 46 35.5 
L 73.1875 35.5 
L 73.1875 27.203125 
L 46 27.203125 
L 46 0 
L 37.796875 0 
L 37.796875 27.203125 
L 10.59375 27.203125 
L 10.59375 35.5 
L 37.796875 35.5 
L 37.796875 62.703125 
z
" id="DejaVuSans-43"/>
      </defs>
      <use xlink:href="#DejaVuSans-116"/>
      <use x="39.208984" xlink:href="#DejaVuSans-114"/>
      <use x="78.072266" xlink:href="#DejaVuSans-101"/>
      <use x="139.595703" xlink:href="#DejaVuSans-110"/>
      <use x="202.974609" xlink:href="#DejaVuSans-100"/>
      <use x="266.451172" xlink:href="#DejaVuSans-58"/>
      <use x="300.142578" xlink:href="#DejaVuSans-32"/>
      <use x="331.929688" xlink:href="#DejaVuSans-48"/>
      <use x="395.552734" xlink:href="#DejaVuSans-46"/>
      <use x="427.339844" xlink:href="#DejaVuSans-48"/>
      <use x="490.962891" xlink:href="#DejaVuSans-49"/>
      <use x="554.585938" xlink:href="#DejaVuSans-48"/>
      <use x="618.208984" xlink:href="#DejaVuSans-42"/>
      <use x="668.208984" xlink:href="#DejaVuSans-120"/>
      <use x="727.388672" xlink:href="#DejaVuSans-32"/>
      <use x="759.175781" xlink:href="#DejaVuSans-43"/>
      <use x="842.964844" xlink:href="#DejaVuSans-32"/>
      <use x="874.751953" xlink:href="#DejaVuSans-55"/>
      <use x="938.375" xlink:href="#DejaVuSans-48"/>
      <use x="1001.998047" xlink:href="#DejaVuSans-46"/>
      <use x="1033.785156" xlink:href="#DejaVuSans-55"/>
      <use x="1097.408203" xlink:href="#DejaVuSans-57"/>
      <use x="1161.03125" xlink:href="#DejaVuSans-51"/>
     </g>
    </g>
    <g id="line2d_43">
     <path d="M 308.565625 363.420313 
L 328.565625 363.420313 
" style="fill:none;stroke:#0000ff;stroke-linecap:square;stroke-width:1.5;"/>
    </g>
    <g id="line2d_44"/>
    <g id="text_21">
     <!-- Best model -->
     <g transform="translate(336.565625 366.920313)scale(0.1 -0.1)">
      <use xlink:href="#DejaVuSans-66"/>
      <use x="68.603516" xlink:href="#DejaVuSans-101"/>
      <use x="130.126953" xlink:href="#DejaVuSans-115"/>
      <use x="182.226562" xlink:href="#DejaVuSans-116"/>
      <use x="221.435547" xlink:href="#DejaVuSans-32"/>
      <use x="253.222656" xlink:href="#DejaVuSans-109"/>
      <use x="350.634766" xlink:href="#DejaVuSans-111"/>
      <use x="411.816406" xlink:href="#DejaVuSans-100"/>
      <use x="475.292969" xlink:href="#DejaVuSans-101"/>
      <use x="536.816406" xlink:href="#DejaVuSans-108"/>
     </g>
    </g>
   </g>
  </g>
 </g>
 <defs>
  <clipPath id="p1b632fae0f">
   <rect height="326.16" width="446.4" x="72" y="51.84"/>
  </clipPath>
 </defs>
</svg>
