<?xml version="1.0" encoding="utf-8" standalone="no"?>
<!DOCTYPE svg PUBLIC "-//W3C//DTD SVG 1.1//EN"
  "http://www.w3.org/Graphics/SVG/1.1/DTD/svg11.dtd">
<!-- Created with matplotlib (https://matplotlib.org/) -->
<svg height="432pt" version="1.1" viewBox="0 0 576 432" width="576pt" xmlns="http://www.w3.org/2000/svg" xmlns:xlink="http://www.w3.org/1999/xlink">
 <metadata>
  <rdf:RDF xmlns:cc="http://creativecommons.org/ns#" xmlns:dc="http://purl.org/dc/elements/1.1/" xmlns:rdf="http://www.w3.org/1999/02/22-rdf-syntax-ns#">
   <cc:Work>
    <dc:type rdf:resource="http://purl.org/dc/dcmitype/StillImage"/>
    <dc:date>2021-10-12T21:45:08.457659</dc:date>
    <dc:format>image/svg+xml</dc:format>
    <dc:creator>
     <cc:Agent>
      <dc:title>Matplotlib v3.3.4, https://matplotlib.org/</dc:title>
     </cc:Agent>
    </dc:creator>
   </cc:Work>
  </rdf:RDF>
 </metadata>
 <defs>
  <style type="text/css">*{stroke-linecap:butt;stroke-linejoin:round;}</style>
 </defs>
 <g id="figure_1">
  <g id="patch_1">
   <path d="M 0 432 
L 576 432 
L 576 0 
L 0 0 
z
" style="fill:none;"/>
  </g>
  <g id="axes_1">
   <g id="patch_2">
    <path d="M 72 378 
L 518.4 378 
L 518.4 51.84 
L 72 51.84 
z
" style="fill:#ffffff;"/>
   </g>
   <g id="matplotlib.axis_1">
    <g id="xtick_1">
     <g id="line2d_1">
      <path clip-path="url(#pb6e3e3847a)" d="M 92.290909 378 
L 92.290909 51.84 
" style="fill:none;stroke:#b0b0b0;stroke-linecap:square;stroke-width:0.8;"/>
     </g>
     <g id="line2d_2">
      <defs>
       <path d="M 0 0 
L 0 3.5 
" id="m4c950ffaa1" style="stroke:#000000;stroke-width:0.8;"/>
      </defs>
      <g>
       <use style="stroke:#000000;stroke-width:0.8;" x="92.290909" xlink:href="#m4c950ffaa1" y="378"/>
      </g>
     </g>
     <g id="text_1">
      <!-- 0 -->
      <g transform="translate(89.109659 392.598437)scale(0.1 -0.1)">
       <defs>
        <path d="M 31.78125 66.40625 
Q 24.171875 66.40625 20.328125 58.90625 
Q 16.5 51.421875 16.5 36.375 
Q 16.5 21.390625 20.328125 13.890625 
Q 24.171875 6.390625 31.78125 6.390625 
Q 39.453125 6.390625 43.28125 13.890625 
Q 47.125 21.390625 47.125 36.375 
Q 47.125 51.421875 43.28125 58.90625 
Q 39.453125 66.40625 31.78125 66.40625 
z
M 31.78125 74.21875 
Q 44.046875 74.21875 50.515625 64.515625 
Q 56.984375 54.828125 56.984375 36.375 
Q 56.984375 17.96875 50.515625 8.265625 
Q 44.046875 -1.421875 31.78125 -1.421875 
Q 19.53125 -1.421875 13.0625 8.265625 
Q 6.59375 17.96875 6.59375 36.375 
Q 6.59375 54.828125 13.0625 64.515625 
Q 19.53125 74.21875 31.78125 74.21875 
z
" id="DejaVuSans-48"/>
       </defs>
       <use xlink:href="#DejaVuSans-48"/>
      </g>
     </g>
    </g>
    <g id="xtick_2">
     <g id="line2d_3">
      <path clip-path="url(#pb6e3e3847a)" d="M 182.875325 378 
L 182.875325 51.84 
" style="fill:none;stroke:#b0b0b0;stroke-linecap:square;stroke-width:0.8;"/>
     </g>
     <g id="line2d_4">
      <g>
       <use style="stroke:#000000;stroke-width:0.8;" x="182.875325" xlink:href="#m4c950ffaa1" y="378"/>
      </g>
     </g>
     <g id="text_2">
      <!-- 50 -->
      <g transform="translate(176.512825 392.598437)scale(0.1 -0.1)">
       <defs>
        <path d="M 10.796875 72.90625 
L 49.515625 72.90625 
L 49.515625 64.59375 
L 19.828125 64.59375 
L 19.828125 46.734375 
Q 21.96875 47.46875 24.109375 47.828125 
Q 26.265625 48.1875 28.421875 48.1875 
Q 40.625 48.1875 47.75 41.5 
Q 54.890625 34.8125 54.890625 23.390625 
Q 54.890625 11.625 47.5625 5.09375 
Q 40.234375 -1.421875 26.90625 -1.421875 
Q 22.3125 -1.421875 17.546875 -0.640625 
Q 12.796875 0.140625 7.71875 1.703125 
L 7.71875 11.625 
Q 12.109375 9.234375 16.796875 8.0625 
Q 21.484375 6.890625 26.703125 6.890625 
Q 35.15625 6.890625 40.078125 11.328125 
Q 45.015625 15.765625 45.015625 23.390625 
Q 45.015625 31 40.078125 35.4375 
Q 35.15625 39.890625 26.703125 39.890625 
Q 22.75 39.890625 18.8125 39.015625 
Q 14.890625 38.140625 10.796875 36.28125 
z
" id="DejaVuSans-53"/>
       </defs>
       <use xlink:href="#DejaVuSans-53"/>
       <use x="63.623047" xlink:href="#DejaVuSans-48"/>
      </g>
     </g>
    </g>
    <g id="xtick_3">
     <g id="line2d_5">
      <path clip-path="url(#pb6e3e3847a)" d="M 273.45974 378 
L 273.45974 51.84 
" style="fill:none;stroke:#b0b0b0;stroke-linecap:square;stroke-width:0.8;"/>
     </g>
     <g id="line2d_6">
      <g>
       <use style="stroke:#000000;stroke-width:0.8;" x="273.45974" xlink:href="#m4c950ffaa1" y="378"/>
      </g>
     </g>
     <g id="text_3">
      <!-- 100 -->
      <g transform="translate(263.91599 392.598437)scale(0.1 -0.1)">
       <defs>
        <path d="M 12.40625 8.296875 
L 28.515625 8.296875 
L 28.515625 63.921875 
L 10.984375 60.40625 
L 10.984375 69.390625 
L 28.421875 72.90625 
L 38.28125 72.90625 
L 38.28125 8.296875 
L 54.390625 8.296875 
L 54.390625 0 
L 12.40625 0 
z
" id="DejaVuSans-49"/>
       </defs>
       <use xlink:href="#DejaVuSans-49"/>
       <use x="63.623047" xlink:href="#DejaVuSans-48"/>
       <use x="127.246094" xlink:href="#DejaVuSans-48"/>
      </g>
     </g>
    </g>
    <g id="xtick_4">
     <g id="line2d_7">
      <path clip-path="url(#pb6e3e3847a)" d="M 364.044156 378 
L 364.044156 51.84 
" style="fill:none;stroke:#b0b0b0;stroke-linecap:square;stroke-width:0.8;"/>
     </g>
     <g id="line2d_8">
      <g>
       <use style="stroke:#000000;stroke-width:0.8;" x="364.044156" xlink:href="#m4c950ffaa1" y="378"/>
      </g>
     </g>
     <g id="text_4">
      <!-- 150 -->
      <g transform="translate(354.500406 392.598437)scale(0.1 -0.1)">
       <use xlink:href="#DejaVuSans-49"/>
       <use x="63.623047" xlink:href="#DejaVuSans-53"/>
       <use x="127.246094" xlink:href="#DejaVuSans-48"/>
      </g>
     </g>
    </g>
    <g id="xtick_5">
     <g id="line2d_9">
      <path clip-path="url(#pb6e3e3847a)" d="M 454.628571 378 
L 454.628571 51.84 
" style="fill:none;stroke:#b0b0b0;stroke-linecap:square;stroke-width:0.8;"/>
     </g>
     <g id="line2d_10">
      <g>
       <use style="stroke:#000000;stroke-width:0.8;" x="454.628571" xlink:href="#m4c950ffaa1" y="378"/>
      </g>
     </g>
     <g id="text_5">
      <!-- 200 -->
      <g transform="translate(445.084821 392.598437)scale(0.1 -0.1)">
       <defs>
        <path d="M 19.1875 8.296875 
L 53.609375 8.296875 
L 53.609375 0 
L 7.328125 0 
L 7.328125 8.296875 
Q 12.9375 14.109375 22.625 23.890625 
Q 32.328125 33.6875 34.8125 36.53125 
Q 39.546875 41.84375 41.421875 45.53125 
Q 43.3125 49.21875 43.3125 52.78125 
Q 43.3125 58.59375 39.234375 62.25 
Q 35.15625 65.921875 28.609375 65.921875 
Q 23.96875 65.921875 18.8125 64.3125 
Q 13.671875 62.703125 7.8125 59.421875 
L 7.8125 69.390625 
Q 13.765625 71.78125 18.9375 73 
Q 24.125 74.21875 28.421875 74.21875 
Q 39.75 74.21875 46.484375 68.546875 
Q 53.21875 62.890625 53.21875 53.421875 
Q 53.21875 48.921875 51.53125 44.890625 
Q 49.859375 40.875 45.40625 35.40625 
Q 44.1875 33.984375 37.640625 27.21875 
Q 31.109375 20.453125 19.1875 8.296875 
z
" id="DejaVuSans-50"/>
       </defs>
       <use xlink:href="#DejaVuSans-50"/>
       <use x="63.623047" xlink:href="#DejaVuSans-48"/>
       <use x="127.246094" xlink:href="#DejaVuSans-48"/>
      </g>
     </g>
    </g>
    <g id="text_6">
     <!-- # Fitness Evaluations -->
     <g transform="translate(241.528125 406.276563)scale(0.1 -0.1)">
      <defs>
       <path d="M 51.125 44 
L 36.921875 44 
L 32.8125 27.6875 
L 47.125 27.6875 
z
M 43.796875 71.78125 
L 38.71875 51.515625 
L 52.984375 51.515625 
L 58.109375 71.78125 
L 65.921875 71.78125 
L 60.890625 51.515625 
L 76.125 51.515625 
L 76.125 44 
L 58.984375 44 
L 54.984375 27.6875 
L 70.515625 27.6875 
L 70.515625 20.21875 
L 53.078125 20.21875 
L 48 0 
L 40.1875 0 
L 45.21875 20.21875 
L 30.90625 20.21875 
L 25.875 0 
L 18.015625 0 
L 23.09375 20.21875 
L 7.71875 20.21875 
L 7.71875 27.6875 
L 24.90625 27.6875 
L 29 44 
L 13.28125 44 
L 13.28125 51.515625 
L 30.90625 51.515625 
L 35.890625 71.78125 
z
" id="DejaVuSans-35"/>
       <path id="DejaVuSans-32"/>
       <path d="M 9.8125 72.90625 
L 51.703125 72.90625 
L 51.703125 64.59375 
L 19.671875 64.59375 
L 19.671875 43.109375 
L 48.578125 43.109375 
L 48.578125 34.8125 
L 19.671875 34.8125 
L 19.671875 0 
L 9.8125 0 
z
" id="DejaVuSans-70"/>
       <path d="M 9.421875 54.6875 
L 18.40625 54.6875 
L 18.40625 0 
L 9.421875 0 
z
M 9.421875 75.984375 
L 18.40625 75.984375 
L 18.40625 64.59375 
L 9.421875 64.59375 
z
" id="DejaVuSans-105"/>
       <path d="M 18.3125 70.21875 
L 18.3125 54.6875 
L 36.8125 54.6875 
L 36.8125 47.703125 
L 18.3125 47.703125 
L 18.3125 18.015625 
Q 18.3125 11.328125 20.140625 9.421875 
Q 21.96875 7.515625 27.59375 7.515625 
L 36.8125 7.515625 
L 36.8125 0 
L 27.59375 0 
Q 17.1875 0 13.234375 3.875 
Q 9.28125 7.765625 9.28125 18.015625 
L 9.28125 47.703125 
L 2.6875 47.703125 
L 2.6875 54.6875 
L 9.28125 54.6875 
L 9.28125 70.21875 
z
" id="DejaVuSans-116"/>
       <path d="M 54.890625 33.015625 
L 54.890625 0 
L 45.90625 0 
L 45.90625 32.71875 
Q 45.90625 40.484375 42.875 44.328125 
Q 39.84375 48.1875 33.796875 48.1875 
Q 26.515625 48.1875 22.3125 43.546875 
Q 18.109375 38.921875 18.109375 30.90625 
L 18.109375 0 
L 9.078125 0 
L 9.078125 54.6875 
L 18.109375 54.6875 
L 18.109375 46.1875 
Q 21.34375 51.125 25.703125 53.5625 
Q 30.078125 56 35.796875 56 
Q 45.21875 56 50.046875 50.171875 
Q 54.890625 44.34375 54.890625 33.015625 
z
" id="DejaVuSans-110"/>
       <path d="M 56.203125 29.59375 
L 56.203125 25.203125 
L 14.890625 25.203125 
Q 15.484375 15.921875 20.484375 11.0625 
Q 25.484375 6.203125 34.421875 6.203125 
Q 39.59375 6.203125 44.453125 7.46875 
Q 49.3125 8.734375 54.109375 11.28125 
L 54.109375 2.78125 
Q 49.265625 0.734375 44.1875 -0.34375 
Q 39.109375 -1.421875 33.890625 -1.421875 
Q 20.796875 -1.421875 13.15625 6.1875 
Q 5.515625 13.8125 5.515625 26.8125 
Q 5.515625 40.234375 12.765625 48.109375 
Q 20.015625 56 32.328125 56 
Q 43.359375 56 49.78125 48.890625 
Q 56.203125 41.796875 56.203125 29.59375 
z
M 47.21875 32.234375 
Q 47.125 39.59375 43.09375 43.984375 
Q 39.0625 48.390625 32.421875 48.390625 
Q 24.90625 48.390625 20.390625 44.140625 
Q 15.875 39.890625 15.1875 32.171875 
z
" id="DejaVuSans-101"/>
       <path d="M 44.28125 53.078125 
L 44.28125 44.578125 
Q 40.484375 46.53125 36.375 47.5 
Q 32.28125 48.484375 27.875 48.484375 
Q 21.1875 48.484375 17.84375 46.4375 
Q 14.5 44.390625 14.5 40.28125 
Q 14.5 37.15625 16.890625 35.375 
Q 19.28125 33.59375 26.515625 31.984375 
L 29.59375 31.296875 
Q 39.15625 29.25 43.1875 25.515625 
Q 47.21875 21.78125 47.21875 15.09375 
Q 47.21875 7.46875 41.1875 3.015625 
Q 35.15625 -1.421875 24.609375 -1.421875 
Q 20.21875 -1.421875 15.453125 -0.5625 
Q 10.6875 0.296875 5.421875 2 
L 5.421875 11.28125 
Q 10.40625 8.6875 15.234375 7.390625 
Q 20.0625 6.109375 24.8125 6.109375 
Q 31.15625 6.109375 34.5625 8.28125 
Q 37.984375 10.453125 37.984375 14.40625 
Q 37.984375 18.0625 35.515625 20.015625 
Q 33.0625 21.96875 24.703125 23.78125 
L 21.578125 24.515625 
Q 13.234375 26.265625 9.515625 29.90625 
Q 5.8125 33.546875 5.8125 39.890625 
Q 5.8125 47.609375 11.28125 51.796875 
Q 16.75 56 26.8125 56 
Q 31.78125 56 36.171875 55.265625 
Q 40.578125 54.546875 44.28125 53.078125 
z
" id="DejaVuSans-115"/>
       <path d="M 9.8125 72.90625 
L 55.90625 72.90625 
L 55.90625 64.59375 
L 19.671875 64.59375 
L 19.671875 43.015625 
L 54.390625 43.015625 
L 54.390625 34.71875 
L 19.671875 34.71875 
L 19.671875 8.296875 
L 56.78125 8.296875 
L 56.78125 0 
L 9.8125 0 
z
" id="DejaVuSans-69"/>
       <path d="M 2.984375 54.6875 
L 12.5 54.6875 
L 29.59375 8.796875 
L 46.6875 54.6875 
L 56.203125 54.6875 
L 35.6875 0 
L 23.484375 0 
z
" id="DejaVuSans-118"/>
       <path d="M 34.28125 27.484375 
Q 23.390625 27.484375 19.1875 25 
Q 14.984375 22.515625 14.984375 16.5 
Q 14.984375 11.71875 18.140625 8.90625 
Q 21.296875 6.109375 26.703125 6.109375 
Q 34.1875 6.109375 38.703125 11.40625 
Q 43.21875 16.703125 43.21875 25.484375 
L 43.21875 27.484375 
z
M 52.203125 31.203125 
L 52.203125 0 
L 43.21875 0 
L 43.21875 8.296875 
Q 40.140625 3.328125 35.546875 0.953125 
Q 30.953125 -1.421875 24.3125 -1.421875 
Q 15.921875 -1.421875 10.953125 3.296875 
Q 6 8.015625 6 15.921875 
Q 6 25.140625 12.171875 29.828125 
Q 18.359375 34.515625 30.609375 34.515625 
L 43.21875 34.515625 
L 43.21875 35.40625 
Q 43.21875 41.609375 39.140625 45 
Q 35.0625 48.390625 27.6875 48.390625 
Q 23 48.390625 18.546875 47.265625 
Q 14.109375 46.140625 10.015625 43.890625 
L 10.015625 52.203125 
Q 14.9375 54.109375 19.578125 55.046875 
Q 24.21875 56 28.609375 56 
Q 40.484375 56 46.34375 49.84375 
Q 52.203125 43.703125 52.203125 31.203125 
z
" id="DejaVuSans-97"/>
       <path d="M 9.421875 75.984375 
L 18.40625 75.984375 
L 18.40625 0 
L 9.421875 0 
z
" id="DejaVuSans-108"/>
       <path d="M 8.5 21.578125 
L 8.5 54.6875 
L 17.484375 54.6875 
L 17.484375 21.921875 
Q 17.484375 14.15625 20.5 10.265625 
Q 23.53125 6.390625 29.59375 6.390625 
Q 36.859375 6.390625 41.078125 11.03125 
Q 45.3125 15.671875 45.3125 23.6875 
L 45.3125 54.6875 
L 54.296875 54.6875 
L 54.296875 0 
L 45.3125 0 
L 45.3125 8.40625 
Q 42.046875 3.421875 37.71875 1 
Q 33.40625 -1.421875 27.6875 -1.421875 
Q 18.265625 -1.421875 13.375 4.4375 
Q 8.5 10.296875 8.5 21.578125 
z
M 31.109375 56 
z
" id="DejaVuSans-117"/>
       <path d="M 30.609375 48.390625 
Q 23.390625 48.390625 19.1875 42.75 
Q 14.984375 37.109375 14.984375 27.296875 
Q 14.984375 17.484375 19.15625 11.84375 
Q 23.34375 6.203125 30.609375 6.203125 
Q 37.796875 6.203125 41.984375 11.859375 
Q 46.1875 17.53125 46.1875 27.296875 
Q 46.1875 37.015625 41.984375 42.703125 
Q 37.796875 48.390625 30.609375 48.390625 
z
M 30.609375 56 
Q 42.328125 56 49.015625 48.375 
Q 55.71875 40.765625 55.71875 27.296875 
Q 55.71875 13.875 49.015625 6.21875 
Q 42.328125 -1.421875 30.609375 -1.421875 
Q 18.84375 -1.421875 12.171875 6.21875 
Q 5.515625 13.875 5.515625 27.296875 
Q 5.515625 40.765625 12.171875 48.375 
Q 18.84375 56 30.609375 56 
z
" id="DejaVuSans-111"/>
      </defs>
      <use xlink:href="#DejaVuSans-35"/>
      <use x="83.789062" xlink:href="#DejaVuSans-32"/>
      <use x="115.576172" xlink:href="#DejaVuSans-70"/>
      <use x="165.845703" xlink:href="#DejaVuSans-105"/>
      <use x="193.628906" xlink:href="#DejaVuSans-116"/>
      <use x="232.837891" xlink:href="#DejaVuSans-110"/>
      <use x="296.216797" xlink:href="#DejaVuSans-101"/>
      <use x="357.740234" xlink:href="#DejaVuSans-115"/>
      <use x="409.839844" xlink:href="#DejaVuSans-115"/>
      <use x="461.939453" xlink:href="#DejaVuSans-32"/>
      <use x="493.726562" xlink:href="#DejaVuSans-69"/>
      <use x="556.910156" xlink:href="#DejaVuSans-118"/>
      <use x="616.089844" xlink:href="#DejaVuSans-97"/>
      <use x="677.369141" xlink:href="#DejaVuSans-108"/>
      <use x="705.152344" xlink:href="#DejaVuSans-117"/>
      <use x="768.53125" xlink:href="#DejaVuSans-97"/>
      <use x="829.810547" xlink:href="#DejaVuSans-116"/>
      <use x="869.019531" xlink:href="#DejaVuSans-105"/>
      <use x="896.802734" xlink:href="#DejaVuSans-111"/>
      <use x="957.984375" xlink:href="#DejaVuSans-110"/>
      <use x="1021.363281" xlink:href="#DejaVuSans-115"/>
     </g>
    </g>
   </g>
   <g id="matplotlib.axis_2">
    <g id="ytick_1">
     <g id="line2d_11">
      <path clip-path="url(#pb6e3e3847a)" d="M 72 359.169502 
L 518.4 359.169502 
" style="fill:none;stroke:#b0b0b0;stroke-linecap:square;stroke-width:0.8;"/>
     </g>
     <g id="line2d_12">
      <defs>
       <path d="M 0 0 
L -3.5 0 
" id="m1c638fe9ee" style="stroke:#000000;stroke-width:0.8;"/>
      </defs>
      <g>
       <use style="stroke:#000000;stroke-width:0.8;" x="72" xlink:href="#m1c638fe9ee" y="359.169502"/>
      </g>
     </g>
     <g id="text_7">
      <!-- 60.0 -->
      <g transform="translate(42.734375 362.96872)scale(0.1 -0.1)">
       <defs>
        <path d="M 33.015625 40.375 
Q 26.375 40.375 22.484375 35.828125 
Q 18.609375 31.296875 18.609375 23.390625 
Q 18.609375 15.53125 22.484375 10.953125 
Q 26.375 6.390625 33.015625 6.390625 
Q 39.65625 6.390625 43.53125 10.953125 
Q 47.40625 15.53125 47.40625 23.390625 
Q 47.40625 31.296875 43.53125 35.828125 
Q 39.65625 40.375 33.015625 40.375 
z
M 52.59375 71.296875 
L 52.59375 62.3125 
Q 48.875 64.0625 45.09375 64.984375 
Q 41.3125 65.921875 37.59375 65.921875 
Q 27.828125 65.921875 22.671875 59.328125 
Q 17.53125 52.734375 16.796875 39.40625 
Q 19.671875 43.65625 24.015625 45.921875 
Q 28.375 48.1875 33.59375 48.1875 
Q 44.578125 48.1875 50.953125 41.515625 
Q 57.328125 34.859375 57.328125 23.390625 
Q 57.328125 12.15625 50.6875 5.359375 
Q 44.046875 -1.421875 33.015625 -1.421875 
Q 20.359375 -1.421875 13.671875 8.265625 
Q 6.984375 17.96875 6.984375 36.375 
Q 6.984375 53.65625 15.1875 63.9375 
Q 23.390625 74.21875 37.203125 74.21875 
Q 40.921875 74.21875 44.703125 73.484375 
Q 48.484375 72.75 52.59375 71.296875 
z
" id="DejaVuSans-54"/>
        <path d="M 10.6875 12.40625 
L 21 12.40625 
L 21 0 
L 10.6875 0 
z
" id="DejaVuSans-46"/>
       </defs>
       <use xlink:href="#DejaVuSans-54"/>
       <use x="63.623047" xlink:href="#DejaVuSans-48"/>
       <use x="127.246094" xlink:href="#DejaVuSans-46"/>
       <use x="159.033203" xlink:href="#DejaVuSans-48"/>
      </g>
     </g>
    </g>
    <g id="ytick_2">
     <g id="line2d_13">
      <path clip-path="url(#pb6e3e3847a)" d="M 72 315.998483 
L 518.4 315.998483 
" style="fill:none;stroke:#b0b0b0;stroke-linecap:square;stroke-width:0.8;"/>
     </g>
     <g id="line2d_14">
      <g>
       <use style="stroke:#000000;stroke-width:0.8;" x="72" xlink:href="#m1c638fe9ee" y="315.998483"/>
      </g>
     </g>
     <g id="text_8">
      <!-- 62.5 -->
      <g transform="translate(42.734375 319.797701)scale(0.1 -0.1)">
       <use xlink:href="#DejaVuSans-54"/>
       <use x="63.623047" xlink:href="#DejaVuSans-50"/>
       <use x="127.246094" xlink:href="#DejaVuSans-46"/>
       <use x="159.033203" xlink:href="#DejaVuSans-53"/>
      </g>
     </g>
    </g>
    <g id="ytick_3">
     <g id="line2d_15">
      <path clip-path="url(#pb6e3e3847a)" d="M 72 272.827464 
L 518.4 272.827464 
" style="fill:none;stroke:#b0b0b0;stroke-linecap:square;stroke-width:0.8;"/>
     </g>
     <g id="line2d_16">
      <g>
       <use style="stroke:#000000;stroke-width:0.8;" x="72" xlink:href="#m1c638fe9ee" y="272.827464"/>
      </g>
     </g>
     <g id="text_9">
      <!-- 65.0 -->
      <g transform="translate(42.734375 276.626682)scale(0.1 -0.1)">
       <use xlink:href="#DejaVuSans-54"/>
       <use x="63.623047" xlink:href="#DejaVuSans-53"/>
       <use x="127.246094" xlink:href="#DejaVuSans-46"/>
       <use x="159.033203" xlink:href="#DejaVuSans-48"/>
      </g>
     </g>
    </g>
    <g id="ytick_4">
     <g id="line2d_17">
      <path clip-path="url(#pb6e3e3847a)" d="M 72 229.656445 
L 518.4 229.656445 
" style="fill:none;stroke:#b0b0b0;stroke-linecap:square;stroke-width:0.8;"/>
     </g>
     <g id="line2d_18">
      <g>
       <use style="stroke:#000000;stroke-width:0.8;" x="72" xlink:href="#m1c638fe9ee" y="229.656445"/>
      </g>
     </g>
     <g id="text_10">
      <!-- 67.5 -->
      <g transform="translate(42.734375 233.455663)scale(0.1 -0.1)">
       <defs>
        <path d="M 8.203125 72.90625 
L 55.078125 72.90625 
L 55.078125 68.703125 
L 28.609375 0 
L 18.3125 0 
L 43.21875 64.59375 
L 8.203125 64.59375 
z
" id="DejaVuSans-55"/>
       </defs>
       <use xlink:href="#DejaVuSans-54"/>
       <use x="63.623047" xlink:href="#DejaVuSans-55"/>
       <use x="127.246094" xlink:href="#DejaVuSans-46"/>
       <use x="159.033203" xlink:href="#DejaVuSans-53"/>
      </g>
     </g>
    </g>
    <g id="ytick_5">
     <g id="line2d_19">
      <path clip-path="url(#pb6e3e3847a)" d="M 72 186.485426 
L 518.4 186.485426 
" style="fill:none;stroke:#b0b0b0;stroke-linecap:square;stroke-width:0.8;"/>
     </g>
     <g id="line2d_20">
      <g>
       <use style="stroke:#000000;stroke-width:0.8;" x="72" xlink:href="#m1c638fe9ee" y="186.485426"/>
      </g>
     </g>
     <g id="text_11">
      <!-- 70.0 -->
      <g transform="translate(42.734375 190.284644)scale(0.1 -0.1)">
       <use xlink:href="#DejaVuSans-55"/>
       <use x="63.623047" xlink:href="#DejaVuSans-48"/>
       <use x="127.246094" xlink:href="#DejaVuSans-46"/>
       <use x="159.033203" xlink:href="#DejaVuSans-48"/>
      </g>
     </g>
    </g>
    <g id="ytick_6">
     <g id="line2d_21">
      <path clip-path="url(#pb6e3e3847a)" d="M 72 143.314407 
L 518.4 143.314407 
" style="fill:none;stroke:#b0b0b0;stroke-linecap:square;stroke-width:0.8;"/>
     </g>
     <g id="line2d_22">
      <g>
       <use style="stroke:#000000;stroke-width:0.8;" x="72" xlink:href="#m1c638fe9ee" y="143.314407"/>
      </g>
     </g>
     <g id="text_12">
      <!-- 72.5 -->
      <g transform="translate(42.734375 147.113625)scale(0.1 -0.1)">
       <use xlink:href="#DejaVuSans-55"/>
       <use x="63.623047" xlink:href="#DejaVuSans-50"/>
       <use x="127.246094" xlink:href="#DejaVuSans-46"/>
       <use x="159.033203" xlink:href="#DejaVuSans-53"/>
      </g>
     </g>
    </g>
    <g id="ytick_7">
     <g id="line2d_23">
      <path clip-path="url(#pb6e3e3847a)" d="M 72 100.143388 
L 518.4 100.143388 
" style="fill:none;stroke:#b0b0b0;stroke-linecap:square;stroke-width:0.8;"/>
     </g>
     <g id="line2d_24">
      <g>
       <use style="stroke:#000000;stroke-width:0.8;" x="72" xlink:href="#m1c638fe9ee" y="100.143388"/>
      </g>
     </g>
     <g id="text_13">
      <!-- 75.0 -->
      <g transform="translate(42.734375 103.942606)scale(0.1 -0.1)">
       <use xlink:href="#DejaVuSans-55"/>
       <use x="63.623047" xlink:href="#DejaVuSans-53"/>
       <use x="127.246094" xlink:href="#DejaVuSans-46"/>
       <use x="159.033203" xlink:href="#DejaVuSans-48"/>
      </g>
     </g>
    </g>
    <g id="ytick_8">
     <g id="line2d_25">
      <path clip-path="url(#pb6e3e3847a)" d="M 72 56.972369 
L 518.4 56.972369 
" style="fill:none;stroke:#b0b0b0;stroke-linecap:square;stroke-width:0.8;"/>
     </g>
     <g id="line2d_26">
      <g>
       <use style="stroke:#000000;stroke-width:0.8;" x="72" xlink:href="#m1c638fe9ee" y="56.972369"/>
      </g>
     </g>
     <g id="text_14">
      <!-- 77.5 -->
      <g transform="translate(42.734375 60.771587)scale(0.1 -0.1)">
       <use xlink:href="#DejaVuSans-55"/>
       <use x="63.623047" xlink:href="#DejaVuSans-55"/>
       <use x="127.246094" xlink:href="#DejaVuSans-46"/>
       <use x="159.033203" xlink:href="#DejaVuSans-53"/>
      </g>
     </g>
    </g>
    <g id="text_15">
     <!-- 100 - SMAPE% -->
     <g transform="translate(36.654687 251.279375)rotate(-90)scale(0.1 -0.1)">
      <defs>
       <path d="M 4.890625 31.390625 
L 31.203125 31.390625 
L 31.203125 23.390625 
L 4.890625 23.390625 
z
" id="DejaVuSans-45"/>
       <path d="M 53.515625 70.515625 
L 53.515625 60.890625 
Q 47.90625 63.578125 42.921875 64.890625 
Q 37.9375 66.21875 33.296875 66.21875 
Q 25.25 66.21875 20.875 63.09375 
Q 16.5 59.96875 16.5 54.203125 
Q 16.5 49.359375 19.40625 46.890625 
Q 22.3125 44.4375 30.421875 42.921875 
L 36.375 41.703125 
Q 47.40625 39.59375 52.65625 34.296875 
Q 57.90625 29 57.90625 20.125 
Q 57.90625 9.515625 50.796875 4.046875 
Q 43.703125 -1.421875 29.984375 -1.421875 
Q 24.8125 -1.421875 18.96875 -0.25 
Q 13.140625 0.921875 6.890625 3.21875 
L 6.890625 13.375 
Q 12.890625 10.015625 18.65625 8.296875 
Q 24.421875 6.59375 29.984375 6.59375 
Q 38.421875 6.59375 43.015625 9.90625 
Q 47.609375 13.234375 47.609375 19.390625 
Q 47.609375 24.75 44.3125 27.78125 
Q 41.015625 30.8125 33.5 32.328125 
L 27.484375 33.5 
Q 16.453125 35.6875 11.515625 40.375 
Q 6.59375 45.0625 6.59375 53.421875 
Q 6.59375 63.09375 13.40625 68.65625 
Q 20.21875 74.21875 32.171875 74.21875 
Q 37.3125 74.21875 42.625 73.28125 
Q 47.953125 72.359375 53.515625 70.515625 
z
" id="DejaVuSans-83"/>
       <path d="M 9.8125 72.90625 
L 24.515625 72.90625 
L 43.109375 23.296875 
L 61.8125 72.90625 
L 76.515625 72.90625 
L 76.515625 0 
L 66.890625 0 
L 66.890625 64.015625 
L 48.09375 14.015625 
L 38.1875 14.015625 
L 19.390625 64.015625 
L 19.390625 0 
L 9.8125 0 
z
" id="DejaVuSans-77"/>
       <path d="M 34.1875 63.1875 
L 20.796875 26.90625 
L 47.609375 26.90625 
z
M 28.609375 72.90625 
L 39.796875 72.90625 
L 67.578125 0 
L 57.328125 0 
L 50.6875 18.703125 
L 17.828125 18.703125 
L 11.1875 0 
L 0.78125 0 
z
" id="DejaVuSans-65"/>
       <path d="M 19.671875 64.796875 
L 19.671875 37.40625 
L 32.078125 37.40625 
Q 38.96875 37.40625 42.71875 40.96875 
Q 46.484375 44.53125 46.484375 51.125 
Q 46.484375 57.671875 42.71875 61.234375 
Q 38.96875 64.796875 32.078125 64.796875 
z
M 9.8125 72.90625 
L 32.078125 72.90625 
Q 44.34375 72.90625 50.609375 67.359375 
Q 56.890625 61.8125 56.890625 51.125 
Q 56.890625 40.328125 50.609375 34.8125 
Q 44.34375 29.296875 32.078125 29.296875 
L 19.671875 29.296875 
L 19.671875 0 
L 9.8125 0 
z
" id="DejaVuSans-80"/>
       <path d="M 72.703125 32.078125 
Q 68.453125 32.078125 66.03125 28.46875 
Q 63.625 24.859375 63.625 18.40625 
Q 63.625 12.0625 66.03125 8.421875 
Q 68.453125 4.78125 72.703125 4.78125 
Q 76.859375 4.78125 79.265625 8.421875 
Q 81.6875 12.0625 81.6875 18.40625 
Q 81.6875 24.8125 79.265625 28.4375 
Q 76.859375 32.078125 72.703125 32.078125 
z
M 72.703125 38.28125 
Q 80.421875 38.28125 84.953125 32.90625 
Q 89.5 27.546875 89.5 18.40625 
Q 89.5 9.28125 84.9375 3.921875 
Q 80.375 -1.421875 72.703125 -1.421875 
Q 64.890625 -1.421875 60.34375 3.921875 
Q 55.8125 9.28125 55.8125 18.40625 
Q 55.8125 27.59375 60.375 32.9375 
Q 64.9375 38.28125 72.703125 38.28125 
z
M 22.3125 68.015625 
Q 18.109375 68.015625 15.6875 64.375 
Q 13.28125 60.75 13.28125 54.390625 
Q 13.28125 47.953125 15.671875 44.328125 
Q 18.0625 40.71875 22.3125 40.71875 
Q 26.5625 40.71875 28.96875 44.328125 
Q 31.390625 47.953125 31.390625 54.390625 
Q 31.390625 60.6875 28.953125 64.34375 
Q 26.515625 68.015625 22.3125 68.015625 
z
M 66.40625 74.21875 
L 74.21875 74.21875 
L 28.609375 -1.421875 
L 20.796875 -1.421875 
z
M 22.3125 74.21875 
Q 30.03125 74.21875 34.609375 68.875 
Q 39.203125 63.53125 39.203125 54.390625 
Q 39.203125 45.171875 34.640625 39.84375 
Q 30.078125 34.515625 22.3125 34.515625 
Q 14.546875 34.515625 10.03125 39.859375 
Q 5.515625 45.21875 5.515625 54.390625 
Q 5.515625 63.484375 10.046875 68.84375 
Q 14.59375 74.21875 22.3125 74.21875 
z
" id="DejaVuSans-37"/>
      </defs>
      <use xlink:href="#DejaVuSans-49"/>
      <use x="63.623047" xlink:href="#DejaVuSans-48"/>
      <use x="127.246094" xlink:href="#DejaVuSans-48"/>
      <use x="190.869141" xlink:href="#DejaVuSans-32"/>
      <use x="222.65625" xlink:href="#DejaVuSans-45"/>
      <use x="258.740234" xlink:href="#DejaVuSans-32"/>
      <use x="290.527344" xlink:href="#DejaVuSans-83"/>
      <use x="354.003906" xlink:href="#DejaVuSans-77"/>
      <use x="440.283203" xlink:href="#DejaVuSans-65"/>
      <use x="508.691406" xlink:href="#DejaVuSans-80"/>
      <use x="568.994141" xlink:href="#DejaVuSans-69"/>
      <use x="632.177734" xlink:href="#DejaVuSans-37"/>
     </g>
    </g>
   </g>
   <g id="line2d_27">
    <defs>
     <path d="M -3 3 
L 3 -3 
M -3 -3 
L 3 3 
" id="m410f8b3ac0" style="stroke:#1f77b4;"/>
    </defs>
    <g clip-path="url(#pb6e3e3847a)">
     <use style="fill:#1f77b4;stroke:#1f77b4;" x="92.290909" xlink:href="#m410f8b3ac0" y="96.879306"/>
     <use style="fill:#1f77b4;stroke:#1f77b4;" x="99.537662" xlink:href="#m410f8b3ac0" y="286.975709"/>
     <use style="fill:#1f77b4;stroke:#1f77b4;" x="103.161039" xlink:href="#m410f8b3ac0" y="88.534529"/>
     <use style="fill:#1f77b4;stroke:#1f77b4;" x="121.277922" xlink:href="#m410f8b3ac0" y="205.172282"/>
     <use style="fill:#1f77b4;stroke:#1f77b4;" x="126.712987" xlink:href="#m410f8b3ac0" y="335.419178"/>
     <use style="fill:#1f77b4;stroke:#1f77b4;" x="150.264935" xlink:href="#m410f8b3ac0" y="77.206301"/>
     <use style="fill:#1f77b4;stroke:#1f77b4;" x="155.7" xlink:href="#m410f8b3ac0" y="102.784716"/>
     <use style="fill:#1f77b4;stroke:#1f77b4;" x="159.323377" xlink:href="#m410f8b3ac0" y="103.475471"/>
     <use style="fill:#1f77b4;stroke:#1f77b4;" x="162.946753" xlink:href="#m410f8b3ac0" y="168.478222"/>
     <use style="fill:#1f77b4;stroke:#1f77b4;" x="173.816883" xlink:href="#m410f8b3ac0" y="110.976675"/>
     <use style="fill:#1f77b4;stroke:#1f77b4;" x="177.44026" xlink:href="#m410f8b3ac0" y="72.897843"/>
     <use style="fill:#1f77b4;stroke:#1f77b4;" x="181.063636" xlink:href="#m410f8b3ac0" y="250.117825"/>
     <use style="fill:#1f77b4;stroke:#1f77b4;" x="190.122078" xlink:href="#m410f8b3ac0" y="191.78551"/>
     <use style="fill:#1f77b4;stroke:#1f77b4;" x="200.992208" xlink:href="#m410f8b3ac0" y="335.421019"/>
     <use style="fill:#1f77b4;stroke:#1f77b4;" x="427.453247" xlink:href="#m410f8b3ac0" y="81.097901"/>
    </g>
   </g>
   <g id="line2d_28">
    <defs>
     <path d="M 0 1.5 
C 0.397805 1.5 0.77937 1.341951 1.06066 1.06066 
C 1.341951 0.77937 1.5 0.397805 1.5 0 
C 1.5 -0.397805 1.341951 -0.77937 1.06066 -1.06066 
C 0.77937 -1.341951 0.397805 -1.5 0 -1.5 
C -0.397805 -1.5 -0.77937 -1.341951 -1.06066 -1.06066 
C -1.341951 -0.77937 -1.5 -0.397805 -1.5 0 
C -1.5 0.397805 -1.341951 0.77937 -1.06066 1.06066 
C -0.77937 1.341951 -0.397805 1.5 0 1.5 
z
" id="me77e0663ed" style="stroke:#ff7f0e;"/>
    </defs>
    <g clip-path="url(#pb6e3e3847a)">
     <use style="fill:#ff7f0e;stroke:#ff7f0e;" x="94.102597" xlink:href="#me77e0663ed" y="319.665986"/>
     <use style="fill:#ff7f0e;stroke:#ff7f0e;" x="95.914286" xlink:href="#me77e0663ed" y="98.887272"/>
     <use style="fill:#ff7f0e;stroke:#ff7f0e;" x="112.219481" xlink:href="#me77e0663ed" y="321.12615"/>
     <use style="fill:#ff7f0e;stroke:#ff7f0e;" x="117.654545" xlink:href="#me77e0663ed" y="159.583628"/>
     <use style="fill:#ff7f0e;stroke:#ff7f0e;" x="130.336364" xlink:href="#me77e0663ed" y="132.311874"/>
     <use style="fill:#ff7f0e;stroke:#ff7f0e;" x="135.771429" xlink:href="#me77e0663ed" y="124.465804"/>
     <use style="fill:#ff7f0e;stroke:#ff7f0e;" x="137.583117" xlink:href="#me77e0663ed" y="221.342523"/>
     <use style="fill:#ff7f0e;stroke:#ff7f0e;" x="144.82987" xlink:href="#me77e0663ed" y="117.277772"/>
     <use style="fill:#ff7f0e;stroke:#ff7f0e;" x="152.076623" xlink:href="#me77e0663ed" y="111.482727"/>
     <use style="fill:#ff7f0e;stroke:#ff7f0e;" x="157.511688" xlink:href="#me77e0663ed" y="106.313766"/>
     <use style="fill:#ff7f0e;stroke:#ff7f0e;" x="166.57013" xlink:href="#me77e0663ed" y="314.159613"/>
     <use style="fill:#ff7f0e;stroke:#ff7f0e;" x="195.557143" xlink:href="#me77e0663ed" y="335.237859"/>
     <use style="fill:#ff7f0e;stroke:#ff7f0e;" x="197.368831" xlink:href="#me77e0663ed" y="239.473331"/>
     <use style="fill:#ff7f0e;stroke:#ff7f0e;" x="208.238961" xlink:href="#me77e0663ed" y="363.174545"/>
     <use style="fill:#ff7f0e;stroke:#ff7f0e;" x="498.109091" xlink:href="#me77e0663ed" y="133.623776"/>
    </g>
   </g>
   <g id="line2d_29">
    <defs>
     <path d="M 0 -3 
L -3 3 
L 3 3 
z
" id="m8836eb7027" style="stroke:#2ca02c;stroke-linejoin:miter;"/>
    </defs>
    <g clip-path="url(#pb6e3e3847a)">
     <use style="fill:#2ca02c;stroke:#2ca02c;stroke-linejoin:miter;" x="97.725974" xlink:href="#m8836eb7027" y="144.059813"/>
     <use style="fill:#2ca02c;stroke:#2ca02c;stroke-linejoin:miter;" x="104.972727" xlink:href="#m8836eb7027" y="93.392408"/>
     <use style="fill:#2ca02c;stroke:#2ca02c;stroke-linejoin:miter;" x="110.407792" xlink:href="#m8836eb7027" y="331.930673"/>
     <use style="fill:#2ca02c;stroke:#2ca02c;stroke-linejoin:miter;" x="143.018182" xlink:href="#m8836eb7027" y="96.616457"/>
     <use style="fill:#2ca02c;stroke:#2ca02c;stroke-linejoin:miter;" x="186.498701" xlink:href="#m8836eb7027" y="293.152125"/>
     <use style="fill:#2ca02c;stroke:#2ca02c;stroke-linejoin:miter;" x="193.745455" xlink:href="#m8836eb7027" y="143.433765"/>
     <use style="fill:#2ca02c;stroke:#2ca02c;stroke-linejoin:miter;" x="204.615584" xlink:href="#m8836eb7027" y="250.994499"/>
     <use style="fill:#2ca02c;stroke:#2ca02c;stroke-linejoin:miter;" x="258.966234" xlink:href="#m8836eb7027" y="100.61182"/>
    </g>
   </g>
   <g id="line2d_30">
    <defs>
     <path d="M -3 0 
L 3 0 
M 0 3 
L 0 -3 
" id="m1940defbf1" style="stroke:#d62728;"/>
    </defs>
    <g clip-path="url(#pb6e3e3847a)">
     <use style="fill:#d62728;stroke:#d62728;" x="101.349351" xlink:href="#m1940defbf1" y="94.026421"/>
     <use style="fill:#d62728;stroke:#d62728;" x="114.031169" xlink:href="#m1940defbf1" y="212.885208"/>
     <use style="fill:#d62728;stroke:#d62728;" x="115.842857" xlink:href="#m1940defbf1" y="125.683158"/>
     <use style="fill:#d62728;stroke:#d62728;" x="119.466234" xlink:href="#m1940defbf1" y="251.995596"/>
     <use style="fill:#d62728;stroke:#d62728;" x="146.641558" xlink:href="#m1940defbf1" y="259.304778"/>
     <use style="fill:#d62728;stroke:#d62728;" x="148.453247" xlink:href="#m1940defbf1" y="78.109826"/>
     <use style="fill:#d62728;stroke:#d62728;" x="153.888312" xlink:href="#m1940defbf1" y="162.07795"/>
     <use style="fill:#d62728;stroke:#d62728;" x="168.381818" xlink:href="#m1940defbf1" y="169.678679"/>
     <use style="fill:#d62728;stroke:#d62728;" x="170.193506" xlink:href="#m1940defbf1" y="252.213306"/>
     <use style="fill:#d62728;stroke:#d62728;" x="175.628571" xlink:href="#m1940defbf1" y="105.429208"/>
     <use style="fill:#d62728;stroke:#d62728;" x="184.687013" xlink:href="#m1940defbf1" y="248.659829"/>
     <use style="fill:#d62728;stroke:#d62728;" x="188.31039" xlink:href="#m1940defbf1" y="77.708193"/>
     <use style="fill:#d62728;stroke:#d62728;" x="191.933766" xlink:href="#m1940defbf1" y="71.935801"/>
     <use style="fill:#d62728;stroke:#d62728;" x="202.803896" xlink:href="#m1940defbf1" y="83.678927"/>
     <use style="fill:#d62728;stroke:#d62728;" x="210.050649" xlink:href="#m1940defbf1" y="255.137202"/>
    </g>
   </g>
   <g id="line2d_31">
    <defs>
     <path d="M -0 3 
L 3 -3 
L -3 -3 
z
" id="m45d704422c" style="stroke:#9467bd;stroke-linejoin:miter;"/>
    </defs>
    <g clip-path="url(#pb6e3e3847a)">
     <use style="fill:#9467bd;stroke:#9467bd;stroke-linejoin:miter;" x="106.784416" xlink:href="#m45d704422c" y="268.673656"/>
     <use style="fill:#9467bd;stroke:#9467bd;stroke-linejoin:miter;" x="108.596104" xlink:href="#m45d704422c" y="335.157415"/>
     <use style="fill:#9467bd;stroke:#9467bd;stroke-linejoin:miter;" x="123.08961" xlink:href="#m45d704422c" y="163.465308"/>
     <use style="fill:#9467bd;stroke:#9467bd;stroke-linejoin:miter;" x="124.901299" xlink:href="#m45d704422c" y="94.728312"/>
     <use style="fill:#9467bd;stroke:#9467bd;stroke-linejoin:miter;" x="128.524675" xlink:href="#m45d704422c" y="263.701288"/>
     <use style="fill:#9467bd;stroke:#9467bd;stroke-linejoin:miter;" x="132.148052" xlink:href="#m45d704422c" y="99.503559"/>
     <use style="fill:#9467bd;stroke:#9467bd;stroke-linejoin:miter;" x="133.95974" xlink:href="#m45d704422c" y="149.974628"/>
     <use style="fill:#9467bd;stroke:#9467bd;stroke-linejoin:miter;" x="139.394805" xlink:href="#m45d704422c" y="115.163549"/>
     <use style="fill:#9467bd;stroke:#9467bd;stroke-linejoin:miter;" x="141.206494" xlink:href="#m45d704422c" y="90.771298"/>
     <use style="fill:#9467bd;stroke:#9467bd;stroke-linejoin:miter;" x="161.135065" xlink:href="#m45d704422c" y="94.245365"/>
     <use style="fill:#9467bd;stroke:#9467bd;stroke-linejoin:miter;" x="164.758442" xlink:href="#m45d704422c" y="322.176191"/>
     <use style="fill:#9467bd;stroke:#9467bd;stroke-linejoin:miter;" x="172.005195" xlink:href="#m45d704422c" y="94.345357"/>
     <use style="fill:#9467bd;stroke:#9467bd;stroke-linejoin:miter;" x="179.251948" xlink:href="#m45d704422c" y="334.393635"/>
     <use style="fill:#9467bd;stroke:#9467bd;stroke-linejoin:miter;" x="182.875325" xlink:href="#m45d704422c" y="110.726244"/>
     <use style="fill:#9467bd;stroke:#9467bd;stroke-linejoin:miter;" x="199.180519" xlink:href="#m45d704422c" y="186.082157"/>
     <use style="fill:#9467bd;stroke:#9467bd;stroke-linejoin:miter;" x="206.427273" xlink:href="#m45d704422c" y="147.40482"/>
     <use style="fill:#9467bd;stroke:#9467bd;stroke-linejoin:miter;" x="211.862338" xlink:href="#m45d704422c" y="153.46664"/>
     <use style="fill:#9467bd;stroke:#9467bd;stroke-linejoin:miter;" x="496.297403" xlink:href="#m45d704422c" y="128.730687"/>
    </g>
   </g>
   <g id="line2d_32">
    <defs>
     <path d="M 0 0 
L 0 3 
M 0 0 
L 2.4 -1.5 
M 0 0 
L -2.4 -1.5 
" id="m43f7987a86" style="stroke:#8c564b;"/>
    </defs>
    <g clip-path="url(#pb6e3e3847a)">
     <use style="fill:#8c564b;stroke:#8c564b;" x="213.674026" xlink:href="#m43f7987a86" y="70.528036"/>
     <use style="fill:#8c564b;stroke:#8c564b;" x="215.485714" xlink:href="#m43f7987a86" y="69.849433"/>
     <use style="fill:#8c564b;stroke:#8c564b;" x="217.297403" xlink:href="#m43f7987a86" y="68.680659"/>
     <use style="fill:#8c564b;stroke:#8c564b;" x="219.109091" xlink:href="#m43f7987a86" y="69.103392"/>
     <use style="fill:#8c564b;stroke:#8c564b;" x="220.920779" xlink:href="#m43f7987a86" y="91.137376"/>
     <use style="fill:#8c564b;stroke:#8c564b;" x="222.732468" xlink:href="#m43f7987a86" y="68.886877"/>
     <use style="fill:#8c564b;stroke:#8c564b;" x="224.544156" xlink:href="#m43f7987a86" y="68.569074"/>
     <use style="fill:#8c564b;stroke:#8c564b;" x="226.355844" xlink:href="#m43f7987a86" y="69.272916"/>
     <use style="fill:#8c564b;stroke:#8c564b;" x="228.167532" xlink:href="#m43f7987a86" y="87.378169"/>
     <use style="fill:#8c564b;stroke:#8c564b;" x="229.979221" xlink:href="#m43f7987a86" y="67.537459"/>
     <use style="fill:#8c564b;stroke:#8c564b;" x="231.790909" xlink:href="#m43f7987a86" y="69.029717"/>
     <use style="fill:#8c564b;stroke:#8c564b;" x="233.602597" xlink:href="#m43f7987a86" y="70.661192"/>
     <use style="fill:#8c564b;stroke:#8c564b;" x="235.414286" xlink:href="#m43f7987a86" y="79.874316"/>
     <use style="fill:#8c564b;stroke:#8c564b;" x="237.225974" xlink:href="#m43f7987a86" y="67.172296"/>
     <use style="fill:#8c564b;stroke:#8c564b;" x="239.037662" xlink:href="#m43f7987a86" y="68.944984"/>
     <use style="fill:#8c564b;stroke:#8c564b;" x="240.849351" xlink:href="#m43f7987a86" y="68.427943"/>
     <use style="fill:#8c564b;stroke:#8c564b;" x="242.661039" xlink:href="#m43f7987a86" y="68.965963"/>
     <use style="fill:#8c564b;stroke:#8c564b;" x="244.472727" xlink:href="#m43f7987a86" y="68.099655"/>
     <use style="fill:#8c564b;stroke:#8c564b;" x="246.284416" xlink:href="#m43f7987a86" y="69.816392"/>
     <use style="fill:#8c564b;stroke:#8c564b;" x="248.096104" xlink:href="#m43f7987a86" y="68.682507"/>
     <use style="fill:#8c564b;stroke:#8c564b;" x="249.907792" xlink:href="#m43f7987a86" y="75.833804"/>
     <use style="fill:#8c564b;stroke:#8c564b;" x="251.719481" xlink:href="#m43f7987a86" y="71.432641"/>
     <use style="fill:#8c564b;stroke:#8c564b;" x="253.531169" xlink:href="#m43f7987a86" y="69.198596"/>
     <use style="fill:#8c564b;stroke:#8c564b;" x="255.342857" xlink:href="#m43f7987a86" y="167.319906"/>
     <use style="fill:#8c564b;stroke:#8c564b;" x="257.154545" xlink:href="#m43f7987a86" y="67.744638"/>
     <use style="fill:#8c564b;stroke:#8c564b;" x="260.777922" xlink:href="#m43f7987a86" y="68.428397"/>
     <use style="fill:#8c564b;stroke:#8c564b;" x="262.58961" xlink:href="#m43f7987a86" y="66.854755"/>
     <use style="fill:#8c564b;stroke:#8c564b;" x="264.401299" xlink:href="#m43f7987a86" y="69.12414"/>
     <use style="fill:#8c564b;stroke:#8c564b;" x="266.212987" xlink:href="#m43f7987a86" y="68.363001"/>
     <use style="fill:#8c564b;stroke:#8c564b;" x="268.024675" xlink:href="#m43f7987a86" y="74.962479"/>
     <use style="fill:#8c564b;stroke:#8c564b;" x="269.836364" xlink:href="#m43f7987a86" y="67.869069"/>
     <use style="fill:#8c564b;stroke:#8c564b;" x="271.648052" xlink:href="#m43f7987a86" y="72.027697"/>
     <use style="fill:#8c564b;stroke:#8c564b;" x="273.45974" xlink:href="#m43f7987a86" y="79.955628"/>
     <use style="fill:#8c564b;stroke:#8c564b;" x="275.271429" xlink:href="#m43f7987a86" y="71.177014"/>
     <use style="fill:#8c564b;stroke:#8c564b;" x="277.083117" xlink:href="#m43f7987a86" y="68.54238"/>
     <use style="fill:#8c564b;stroke:#8c564b;" x="278.894805" xlink:href="#m43f7987a86" y="87.081987"/>
     <use style="fill:#8c564b;stroke:#8c564b;" x="280.706494" xlink:href="#m43f7987a86" y="77.5377"/>
     <use style="fill:#8c564b;stroke:#8c564b;" x="282.518182" xlink:href="#m43f7987a86" y="68.587931"/>
     <use style="fill:#8c564b;stroke:#8c564b;" x="284.32987" xlink:href="#m43f7987a86" y="68.246882"/>
     <use style="fill:#8c564b;stroke:#8c564b;" x="286.141558" xlink:href="#m43f7987a86" y="77.421238"/>
     <use style="fill:#8c564b;stroke:#8c564b;" x="287.953247" xlink:href="#m43f7987a86" y="69.700359"/>
     <use style="fill:#8c564b;stroke:#8c564b;" x="289.764935" xlink:href="#m43f7987a86" y="72.549143"/>
     <use style="fill:#8c564b;stroke:#8c564b;" x="291.576623" xlink:href="#m43f7987a86" y="68.186423"/>
     <use style="fill:#8c564b;stroke:#8c564b;" x="293.388312" xlink:href="#m43f7987a86" y="68.872936"/>
     <use style="fill:#8c564b;stroke:#8c564b;" x="295.2" xlink:href="#m43f7987a86" y="249.664721"/>
     <use style="fill:#8c564b;stroke:#8c564b;" x="297.011688" xlink:href="#m43f7987a86" y="70.120305"/>
     <use style="fill:#8c564b;stroke:#8c564b;" x="298.823377" xlink:href="#m43f7987a86" y="247.644544"/>
     <use style="fill:#8c564b;stroke:#8c564b;" x="300.635065" xlink:href="#m43f7987a86" y="262.878398"/>
     <use style="fill:#8c564b;stroke:#8c564b;" x="302.446753" xlink:href="#m43f7987a86" y="70.288923"/>
     <use style="fill:#8c564b;stroke:#8c564b;" x="304.258442" xlink:href="#m43f7987a86" y="246.42093"/>
     <use style="fill:#8c564b;stroke:#8c564b;" x="306.07013" xlink:href="#m43f7987a86" y="265.436488"/>
     <use style="fill:#8c564b;stroke:#8c564b;" x="307.881818" xlink:href="#m43f7987a86" y="255.514236"/>
     <use style="fill:#8c564b;stroke:#8c564b;" x="309.693506" xlink:href="#m43f7987a86" y="267.036299"/>
     <use style="fill:#8c564b;stroke:#8c564b;" x="311.505195" xlink:href="#m43f7987a86" y="75.810501"/>
     <use style="fill:#8c564b;stroke:#8c564b;" x="313.316883" xlink:href="#m43f7987a86" y="333.671755"/>
     <use style="fill:#8c564b;stroke:#8c564b;" x="315.128571" xlink:href="#m43f7987a86" y="68.675404"/>
     <use style="fill:#8c564b;stroke:#8c564b;" x="316.94026" xlink:href="#m43f7987a86" y="264.782808"/>
     <use style="fill:#8c564b;stroke:#8c564b;" x="318.751948" xlink:href="#m43f7987a86" y="267.678966"/>
     <use style="fill:#8c564b;stroke:#8c564b;" x="320.563636" xlink:href="#m43f7987a86" y="68.539563"/>
     <use style="fill:#8c564b;stroke:#8c564b;" x="322.375325" xlink:href="#m43f7987a86" y="270.012492"/>
     <use style="fill:#8c564b;stroke:#8c564b;" x="324.187013" xlink:href="#m43f7987a86" y="247.157185"/>
     <use style="fill:#8c564b;stroke:#8c564b;" x="325.998701" xlink:href="#m43f7987a86" y="334.043299"/>
     <use style="fill:#8c564b;stroke:#8c564b;" x="327.81039" xlink:href="#m43f7987a86" y="270.453292"/>
     <use style="fill:#8c564b;stroke:#8c564b;" x="329.622078" xlink:href="#m43f7987a86" y="95.076445"/>
     <use style="fill:#8c564b;stroke:#8c564b;" x="331.433766" xlink:href="#m43f7987a86" y="69.088056"/>
     <use style="fill:#8c564b;stroke:#8c564b;" x="333.245455" xlink:href="#m43f7987a86" y="333.571474"/>
     <use style="fill:#8c564b;stroke:#8c564b;" x="335.057143" xlink:href="#m43f7987a86" y="258.346429"/>
     <use style="fill:#8c564b;stroke:#8c564b;" x="336.868831" xlink:href="#m43f7987a86" y="253.282457"/>
     <use style="fill:#8c564b;stroke:#8c564b;" x="338.680519" xlink:href="#m43f7987a86" y="71.888698"/>
     <use style="fill:#8c564b;stroke:#8c564b;" x="340.492208" xlink:href="#m43f7987a86" y="256.217107"/>
     <use style="fill:#8c564b;stroke:#8c564b;" x="342.303896" xlink:href="#m43f7987a86" y="69.869308"/>
     <use style="fill:#8c564b;stroke:#8c564b;" x="344.115584" xlink:href="#m43f7987a86" y="261.21169"/>
     <use style="fill:#8c564b;stroke:#8c564b;" x="345.927273" xlink:href="#m43f7987a86" y="254.460862"/>
     <use style="fill:#8c564b;stroke:#8c564b;" x="347.738961" xlink:href="#m43f7987a86" y="70.860891"/>
     <use style="fill:#8c564b;stroke:#8c564b;" x="349.550649" xlink:href="#m43f7987a86" y="273.139016"/>
     <use style="fill:#8c564b;stroke:#8c564b;" x="351.362338" xlink:href="#m43f7987a86" y="74.019044"/>
     <use style="fill:#8c564b;stroke:#8c564b;" x="353.174026" xlink:href="#m43f7987a86" y="244.61824"/>
     <use style="fill:#8c564b;stroke:#8c564b;" x="354.985714" xlink:href="#m43f7987a86" y="260.349031"/>
     <use style="fill:#8c564b;stroke:#8c564b;" x="356.797403" xlink:href="#m43f7987a86" y="67.701611"/>
     <use style="fill:#8c564b;stroke:#8c564b;" x="358.609091" xlink:href="#m43f7987a86" y="265.993119"/>
     <use style="fill:#8c564b;stroke:#8c564b;" x="360.420779" xlink:href="#m43f7987a86" y="259.183288"/>
     <use style="fill:#8c564b;stroke:#8c564b;" x="362.232468" xlink:href="#m43f7987a86" y="69.466829"/>
     <use style="fill:#8c564b;stroke:#8c564b;" x="364.044156" xlink:href="#m43f7987a86" y="272.55661"/>
     <use style="fill:#8c564b;stroke:#8c564b;" x="365.855844" xlink:href="#m43f7987a86" y="68.234069"/>
     <use style="fill:#8c564b;stroke:#8c564b;" x="367.667532" xlink:href="#m43f7987a86" y="334.765488"/>
     <use style="fill:#8c564b;stroke:#8c564b;" x="369.479221" xlink:href="#m43f7987a86" y="66.665455"/>
     <use style="fill:#8c564b;stroke:#8c564b;" x="371.290909" xlink:href="#m43f7987a86" y="259.155904"/>
     <use style="fill:#8c564b;stroke:#8c564b;" x="373.102597" xlink:href="#m43f7987a86" y="70.862068"/>
     <use style="fill:#8c564b;stroke:#8c564b;" x="374.914286" xlink:href="#m43f7987a86" y="74.357221"/>
     <use style="fill:#8c564b;stroke:#8c564b;" x="376.725974" xlink:href="#m43f7987a86" y="83.843395"/>
     <use style="fill:#8c564b;stroke:#8c564b;" x="378.537662" xlink:href="#m43f7987a86" y="69.13221"/>
     <use style="fill:#8c564b;stroke:#8c564b;" x="380.349351" xlink:href="#m43f7987a86" y="79.816647"/>
     <use style="fill:#8c564b;stroke:#8c564b;" x="382.161039" xlink:href="#m43f7987a86" y="70.151837"/>
     <use style="fill:#8c564b;stroke:#8c564b;" x="383.972727" xlink:href="#m43f7987a86" y="68.92726"/>
     <use style="fill:#8c564b;stroke:#8c564b;" x="385.784416" xlink:href="#m43f7987a86" y="71.789875"/>
     <use style="fill:#8c564b;stroke:#8c564b;" x="387.596104" xlink:href="#m43f7987a86" y="69.184329"/>
     <use style="fill:#8c564b;stroke:#8c564b;" x="389.407792" xlink:href="#m43f7987a86" y="166.740881"/>
     <use style="fill:#8c564b;stroke:#8c564b;" x="391.219481" xlink:href="#m43f7987a86" y="68.200851"/>
     <use style="fill:#8c564b;stroke:#8c564b;" x="393.031169" xlink:href="#m43f7987a86" y="68.423659"/>
     <use style="fill:#8c564b;stroke:#8c564b;" x="394.842857" xlink:href="#m43f7987a86" y="73.744182"/>
     <use style="fill:#8c564b;stroke:#8c564b;" x="396.654545" xlink:href="#m43f7987a86" y="78.482479"/>
     <use style="fill:#8c564b;stroke:#8c564b;" x="398.466234" xlink:href="#m43f7987a86" y="82.790129"/>
     <use style="fill:#8c564b;stroke:#8c564b;" x="400.277922" xlink:href="#m43f7987a86" y="249.142218"/>
     <use style="fill:#8c564b;stroke:#8c564b;" x="402.08961" xlink:href="#m43f7987a86" y="71.828176"/>
     <use style="fill:#8c564b;stroke:#8c564b;" x="403.901299" xlink:href="#m43f7987a86" y="77.029461"/>
     <use style="fill:#8c564b;stroke:#8c564b;" x="405.712987" xlink:href="#m43f7987a86" y="69.323203"/>
     <use style="fill:#8c564b;stroke:#8c564b;" x="407.524675" xlink:href="#m43f7987a86" y="70.175508"/>
     <use style="fill:#8c564b;stroke:#8c564b;" x="409.336364" xlink:href="#m43f7987a86" y="166.92849"/>
     <use style="fill:#8c564b;stroke:#8c564b;" x="411.148052" xlink:href="#m43f7987a86" y="72.479068"/>
     <use style="fill:#8c564b;stroke:#8c564b;" x="412.95974" xlink:href="#m43f7987a86" y="78.740744"/>
     <use style="fill:#8c564b;stroke:#8c564b;" x="414.771429" xlink:href="#m43f7987a86" y="70.531097"/>
     <use style="fill:#8c564b;stroke:#8c564b;" x="416.583117" xlink:href="#m43f7987a86" y="72.483012"/>
     <use style="fill:#8c564b;stroke:#8c564b;" x="418.394805" xlink:href="#m43f7987a86" y="71.708361"/>
     <use style="fill:#8c564b;stroke:#8c564b;" x="420.206494" xlink:href="#m43f7987a86" y="70.598351"/>
     <use style="fill:#8c564b;stroke:#8c564b;" x="422.018182" xlink:href="#m43f7987a86" y="75.467526"/>
     <use style="fill:#8c564b;stroke:#8c564b;" x="423.82987" xlink:href="#m43f7987a86" y="70.860208"/>
     <use style="fill:#8c564b;stroke:#8c564b;" x="425.641558" xlink:href="#m43f7987a86" y="69.969793"/>
     <use style="fill:#8c564b;stroke:#8c564b;" x="429.264935" xlink:href="#m43f7987a86" y="74.446931"/>
     <use style="fill:#8c564b;stroke:#8c564b;" x="431.076623" xlink:href="#m43f7987a86" y="70.363364"/>
     <use style="fill:#8c564b;stroke:#8c564b;" x="432.888312" xlink:href="#m43f7987a86" y="67.962707"/>
     <use style="fill:#8c564b;stroke:#8c564b;" x="434.7" xlink:href="#m43f7987a86" y="71.966584"/>
     <use style="fill:#8c564b;stroke:#8c564b;" x="436.511688" xlink:href="#m43f7987a86" y="70.373844"/>
     <use style="fill:#8c564b;stroke:#8c564b;" x="438.323377" xlink:href="#m43f7987a86" y="77.969677"/>
     <use style="fill:#8c564b;stroke:#8c564b;" x="440.135065" xlink:href="#m43f7987a86" y="74.550622"/>
     <use style="fill:#8c564b;stroke:#8c564b;" x="441.946753" xlink:href="#m43f7987a86" y="78.752121"/>
     <use style="fill:#8c564b;stroke:#8c564b;" x="443.758442" xlink:href="#m43f7987a86" y="69.940086"/>
     <use style="fill:#8c564b;stroke:#8c564b;" x="445.57013" xlink:href="#m43f7987a86" y="70.362617"/>
     <use style="fill:#8c564b;stroke:#8c564b;" x="447.381818" xlink:href="#m43f7987a86" y="70.204716"/>
     <use style="fill:#8c564b;stroke:#8c564b;" x="449.193506" xlink:href="#m43f7987a86" y="68.361787"/>
     <use style="fill:#8c564b;stroke:#8c564b;" x="451.005195" xlink:href="#m43f7987a86" y="77.774525"/>
     <use style="fill:#8c564b;stroke:#8c564b;" x="452.816883" xlink:href="#m43f7987a86" y="70.192148"/>
     <use style="fill:#8c564b;stroke:#8c564b;" x="454.628571" xlink:href="#m43f7987a86" y="333.659695"/>
     <use style="fill:#8c564b;stroke:#8c564b;" x="456.44026" xlink:href="#m43f7987a86" y="69.906572"/>
     <use style="fill:#8c564b;stroke:#8c564b;" x="458.251948" xlink:href="#m43f7987a86" y="68.926996"/>
     <use style="fill:#8c564b;stroke:#8c564b;" x="460.063636" xlink:href="#m43f7987a86" y="68.95505"/>
     <use style="fill:#8c564b;stroke:#8c564b;" x="461.875325" xlink:href="#m43f7987a86" y="69.044709"/>
     <use style="fill:#8c564b;stroke:#8c564b;" x="463.687013" xlink:href="#m43f7987a86" y="70.534107"/>
     <use style="fill:#8c564b;stroke:#8c564b;" x="465.498701" xlink:href="#m43f7987a86" y="77.071249"/>
     <use style="fill:#8c564b;stroke:#8c564b;" x="467.31039" xlink:href="#m43f7987a86" y="68.425582"/>
     <use style="fill:#8c564b;stroke:#8c564b;" x="469.122078" xlink:href="#m43f7987a86" y="84.839978"/>
     <use style="fill:#8c564b;stroke:#8c564b;" x="470.933766" xlink:href="#m43f7987a86" y="71.38807"/>
     <use style="fill:#8c564b;stroke:#8c564b;" x="472.745455" xlink:href="#m43f7987a86" y="67.856414"/>
     <use style="fill:#8c564b;stroke:#8c564b;" x="474.557143" xlink:href="#m43f7987a86" y="70.373034"/>
     <use style="fill:#8c564b;stroke:#8c564b;" x="476.368831" xlink:href="#m43f7987a86" y="72.171342"/>
     <use style="fill:#8c564b;stroke:#8c564b;" x="478.180519" xlink:href="#m43f7987a86" y="70.369751"/>
     <use style="fill:#8c564b;stroke:#8c564b;" x="479.992208" xlink:href="#m43f7987a86" y="335.7254"/>
     <use style="fill:#8c564b;stroke:#8c564b;" x="481.803896" xlink:href="#m43f7987a86" y="69.448622"/>
     <use style="fill:#8c564b;stroke:#8c564b;" x="483.615584" xlink:href="#m43f7987a86" y="72.560583"/>
     <use style="fill:#8c564b;stroke:#8c564b;" x="485.427273" xlink:href="#m43f7987a86" y="71.805898"/>
     <use style="fill:#8c564b;stroke:#8c564b;" x="487.238961" xlink:href="#m43f7987a86" y="70.358242"/>
     <use style="fill:#8c564b;stroke:#8c564b;" x="489.050649" xlink:href="#m43f7987a86" y="81.605146"/>
     <use style="fill:#8c564b;stroke:#8c564b;" x="490.862338" xlink:href="#m43f7987a86" y="73.036605"/>
     <use style="fill:#8c564b;stroke:#8c564b;" x="492.674026" xlink:href="#m43f7987a86" y="68.012224"/>
     <use style="fill:#8c564b;stroke:#8c564b;" x="494.485714" xlink:href="#m43f7987a86" y="68.110309"/>
    </g>
   </g>
   <g id="line2d_33">
    <path clip-path="url(#pb6e3e3847a)" d="M 92.290909 179.503223 
L 498.109091 89.786402 
L 498.109091 89.786402 
" style="fill:none;stroke:#000000;stroke-dasharray:5.55,2.4;stroke-dashoffset:0;stroke-width:1.5;"/>
   </g>
   <g id="line2d_34">
    <path clip-path="url(#pb6e3e3847a)" d="M 92.290909 96.879306 
L 99.537662 96.879306 
L 101.349351 94.026421 
L 103.161039 88.534529 
L 146.641558 88.534529 
L 148.453247 78.109826 
L 150.264935 77.206301 
L 175.628571 77.206301 
L 177.44026 72.897843 
L 190.122078 72.897843 
L 191.933766 71.935801 
L 211.862338 71.935801 
L 213.674026 70.528036 
L 215.485714 69.849433 
L 217.297403 68.680659 
L 222.732468 68.680659 
L 224.544156 68.569074 
L 228.167532 68.569074 
L 229.979221 67.537459 
L 235.414286 67.537459 
L 237.225974 67.172296 
L 260.777922 67.172296 
L 262.58961 66.854755 
L 367.667532 66.854755 
L 369.479221 66.665455 
L 498.109091 66.665455 
L 498.109091 66.665455 
" style="fill:none;stroke:#0000ff;stroke-linecap:square;stroke-width:1.5;"/>
   </g>
   <g id="patch_3">
    <path d="M 72 378 
L 72 51.84 
" style="fill:none;stroke:#000000;stroke-linecap:square;stroke-linejoin:miter;stroke-width:0.8;"/>
   </g>
   <g id="patch_4">
    <path d="M 518.4 378 
L 518.4 51.84 
" style="fill:none;stroke:#000000;stroke-linecap:square;stroke-linejoin:miter;stroke-width:0.8;"/>
   </g>
   <g id="patch_5">
    <path d="M 72 378 
L 518.4 378 
" style="fill:none;stroke:#000000;stroke-linecap:square;stroke-linejoin:miter;stroke-width:0.8;"/>
   </g>
   <g id="patch_6">
    <path d="M 72 51.84 
L 518.4 51.84 
" style="fill:none;stroke:#000000;stroke-linecap:square;stroke-linejoin:miter;stroke-width:0.8;"/>
   </g>
   <g id="text_16">
    <!-- Island Transpeciation - $O_3$ train CV 2000-2009 (median: 76.24%, worst: 59.77%, best: 76.94%) -->
    <g transform="translate(11.4 45.84)scale(0.12 -0.12)">
     <defs>
      <path d="M 9.8125 72.90625 
L 19.671875 72.90625 
L 19.671875 0 
L 9.8125 0 
z
" id="DejaVuSans-73"/>
      <path d="M 45.40625 46.390625 
L 45.40625 75.984375 
L 54.390625 75.984375 
L 54.390625 0 
L 45.40625 0 
L 45.40625 8.203125 
Q 42.578125 3.328125 38.25 0.953125 
Q 33.9375 -1.421875 27.875 -1.421875 
Q 17.96875 -1.421875 11.734375 6.484375 
Q 5.515625 14.40625 5.515625 27.296875 
Q 5.515625 40.1875 11.734375 48.09375 
Q 17.96875 56 27.875 56 
Q 33.9375 56 38.25 53.625 
Q 42.578125 51.265625 45.40625 46.390625 
z
M 14.796875 27.296875 
Q 14.796875 17.390625 18.875 11.75 
Q 22.953125 6.109375 30.078125 6.109375 
Q 37.203125 6.109375 41.296875 11.75 
Q 45.40625 17.390625 45.40625 27.296875 
Q 45.40625 37.203125 41.296875 42.84375 
Q 37.203125 48.484375 30.078125 48.484375 
Q 22.953125 48.484375 18.875 42.84375 
Q 14.796875 37.203125 14.796875 27.296875 
z
" id="DejaVuSans-100"/>
      <path d="M -0.296875 72.90625 
L 61.375 72.90625 
L 61.375 64.59375 
L 35.5 64.59375 
L 35.5 0 
L 25.59375 0 
L 25.59375 64.59375 
L -0.296875 64.59375 
z
" id="DejaVuSans-84"/>
      <path d="M 41.109375 46.296875 
Q 39.59375 47.171875 37.8125 47.578125 
Q 36.03125 48 33.890625 48 
Q 26.265625 48 22.1875 43.046875 
Q 18.109375 38.09375 18.109375 28.8125 
L 18.109375 0 
L 9.078125 0 
L 9.078125 54.6875 
L 18.109375 54.6875 
L 18.109375 46.1875 
Q 20.953125 51.171875 25.484375 53.578125 
Q 30.03125 56 36.53125 56 
Q 37.453125 56 38.578125 55.875 
Q 39.703125 55.765625 41.0625 55.515625 
z
" id="DejaVuSans-114"/>
      <path d="M 18.109375 8.203125 
L 18.109375 -20.796875 
L 9.078125 -20.796875 
L 9.078125 54.6875 
L 18.109375 54.6875 
L 18.109375 46.390625 
Q 20.953125 51.265625 25.265625 53.625 
Q 29.59375 56 35.59375 56 
Q 45.5625 56 51.78125 48.09375 
Q 58.015625 40.1875 58.015625 27.296875 
Q 58.015625 14.40625 51.78125 6.484375 
Q 45.5625 -1.421875 35.59375 -1.421875 
Q 29.59375 -1.421875 25.265625 0.953125 
Q 20.953125 3.328125 18.109375 8.203125 
z
M 48.6875 27.296875 
Q 48.6875 37.203125 44.609375 42.84375 
Q 40.53125 48.484375 33.40625 48.484375 
Q 26.265625 48.484375 22.1875 42.84375 
Q 18.109375 37.203125 18.109375 27.296875 
Q 18.109375 17.390625 22.1875 11.75 
Q 26.265625 6.109375 33.40625 6.109375 
Q 40.53125 6.109375 44.609375 11.75 
Q 48.6875 17.390625 48.6875 27.296875 
z
" id="DejaVuSans-112"/>
      <path d="M 48.78125 52.59375 
L 48.78125 44.1875 
Q 44.96875 46.296875 41.140625 47.34375 
Q 37.3125 48.390625 33.40625 48.390625 
Q 24.65625 48.390625 19.8125 42.84375 
Q 14.984375 37.3125 14.984375 27.296875 
Q 14.984375 17.28125 19.8125 11.734375 
Q 24.65625 6.203125 33.40625 6.203125 
Q 37.3125 6.203125 41.140625 7.25 
Q 44.96875 8.296875 48.78125 10.40625 
L 48.78125 2.09375 
Q 45.015625 0.34375 40.984375 -0.53125 
Q 36.96875 -1.421875 32.421875 -1.421875 
Q 20.0625 -1.421875 12.78125 6.34375 
Q 5.515625 14.109375 5.515625 27.296875 
Q 5.515625 40.671875 12.859375 48.328125 
Q 20.21875 56 33.015625 56 
Q 37.15625 56 41.109375 55.140625 
Q 45.0625 54.296875 48.78125 52.59375 
z
" id="DejaVuSans-99"/>
      <path d="M 45.609375 66.21875 
Q 37.5 66.21875 31.296875 62.28125 
Q 25.09375 58.34375 20.515625 50.296875 
Q 17.578125 45.171875 16.03125 39.40625 
Q 14.5 33.640625 14.5 27.78125 
Q 14.5 17.625 19.359375 12.109375 
Q 24.21875 6.59375 33.109375 6.59375 
Q 41.109375 6.59375 47.375 10.5625 
Q 53.65625 14.546875 58.109375 22.40625 
Q 61.078125 27.6875 62.640625 33.46875 
Q 64.203125 39.265625 64.203125 45.015625 
Q 64.203125 55.125 59.3125 60.671875 
Q 54.4375 66.21875 45.609375 66.21875 
z
M 32.8125 -1.421875 
Q 19.390625 -1.421875 11.6875 6.53125 
Q 4 14.5 4 28.328125 
Q 4 36.234375 7 44.484375 
Q 10.015625 52.734375 15.28125 59.1875 
Q 21.484375 66.75 29.09375 70.484375 
Q 36.71875 74.21875 45.90625 74.21875 
Q 59.28125 74.21875 66.984375 66.328125 
Q 74.703125 58.453125 74.703125 44.828125 
Q 74.703125 36.421875 71.765625 28.3125 
Q 68.84375 20.21875 63.375 13.625 
Q 57.125 6 49.578125 2.28125 
Q 42.046875 -1.421875 32.8125 -1.421875 
z
" id="DejaVuSans-Oblique-79"/>
      <path d="M 40.578125 39.3125 
Q 47.65625 37.796875 51.625 33 
Q 55.609375 28.21875 55.609375 21.1875 
Q 55.609375 10.40625 48.1875 4.484375 
Q 40.765625 -1.421875 27.09375 -1.421875 
Q 22.515625 -1.421875 17.65625 -0.515625 
Q 12.796875 0.390625 7.625 2.203125 
L 7.625 11.71875 
Q 11.71875 9.328125 16.59375 8.109375 
Q 21.484375 6.890625 26.8125 6.890625 
Q 36.078125 6.890625 40.9375 10.546875 
Q 45.796875 14.203125 45.796875 21.1875 
Q 45.796875 27.640625 41.28125 31.265625 
Q 36.765625 34.90625 28.71875 34.90625 
L 20.21875 34.90625 
L 20.21875 43.015625 
L 29.109375 43.015625 
Q 36.375 43.015625 40.234375 45.921875 
Q 44.09375 48.828125 44.09375 54.296875 
Q 44.09375 59.90625 40.109375 62.90625 
Q 36.140625 65.921875 28.71875 65.921875 
Q 24.65625 65.921875 20.015625 65.03125 
Q 15.375 64.15625 9.8125 62.3125 
L 9.8125 71.09375 
Q 15.4375 72.65625 20.34375 73.4375 
Q 25.25 74.21875 29.59375 74.21875 
Q 40.828125 74.21875 47.359375 69.109375 
Q 53.90625 64.015625 53.90625 55.328125 
Q 53.90625 49.265625 50.4375 45.09375 
Q 46.96875 40.921875 40.578125 39.3125 
z
" id="DejaVuSans-51"/>
      <path d="M 64.40625 67.28125 
L 64.40625 56.890625 
Q 59.421875 61.53125 53.78125 63.8125 
Q 48.140625 66.109375 41.796875 66.109375 
Q 29.296875 66.109375 22.65625 58.46875 
Q 16.015625 50.828125 16.015625 36.375 
Q 16.015625 21.96875 22.65625 14.328125 
Q 29.296875 6.6875 41.796875 6.6875 
Q 48.140625 6.6875 53.78125 8.984375 
Q 59.421875 11.28125 64.40625 15.921875 
L 64.40625 5.609375 
Q 59.234375 2.09375 53.4375 0.328125 
Q 47.65625 -1.421875 41.21875 -1.421875 
Q 24.65625 -1.421875 15.125 8.703125 
Q 5.609375 18.84375 5.609375 36.375 
Q 5.609375 53.953125 15.125 64.078125 
Q 24.65625 74.21875 41.21875 74.21875 
Q 47.75 74.21875 53.53125 72.484375 
Q 59.328125 70.75 64.40625 67.28125 
z
" id="DejaVuSans-67"/>
      <path d="M 28.609375 0 
L 0.78125 72.90625 
L 11.078125 72.90625 
L 34.1875 11.53125 
L 57.328125 72.90625 
L 67.578125 72.90625 
L 39.796875 0 
z
" id="DejaVuSans-86"/>
      <path d="M 10.984375 1.515625 
L 10.984375 10.5 
Q 14.703125 8.734375 18.5 7.8125 
Q 22.3125 6.890625 25.984375 6.890625 
Q 35.75 6.890625 40.890625 13.453125 
Q 46.046875 20.015625 46.78125 33.40625 
Q 43.953125 29.203125 39.59375 26.953125 
Q 35.25 24.703125 29.984375 24.703125 
Q 19.046875 24.703125 12.671875 31.3125 
Q 6.296875 37.9375 6.296875 49.421875 
Q 6.296875 60.640625 12.9375 67.421875 
Q 19.578125 74.21875 30.609375 74.21875 
Q 43.265625 74.21875 49.921875 64.515625 
Q 56.59375 54.828125 56.59375 36.375 
Q 56.59375 19.140625 48.40625 8.859375 
Q 40.234375 -1.421875 26.421875 -1.421875 
Q 22.703125 -1.421875 18.890625 -0.6875 
Q 15.09375 0.046875 10.984375 1.515625 
z
M 30.609375 32.421875 
Q 37.25 32.421875 41.125 36.953125 
Q 45.015625 41.5 45.015625 49.421875 
Q 45.015625 57.28125 41.125 61.84375 
Q 37.25 66.40625 30.609375 66.40625 
Q 23.96875 66.40625 20.09375 61.84375 
Q 16.21875 57.28125 16.21875 49.421875 
Q 16.21875 41.5 20.09375 36.953125 
Q 23.96875 32.421875 30.609375 32.421875 
z
" id="DejaVuSans-57"/>
      <path d="M 31 75.875 
Q 24.46875 64.65625 21.28125 53.65625 
Q 18.109375 42.671875 18.109375 31.390625 
Q 18.109375 20.125 21.3125 9.0625 
Q 24.515625 -2 31 -13.1875 
L 23.1875 -13.1875 
Q 15.875 -1.703125 12.234375 9.375 
Q 8.59375 20.453125 8.59375 31.390625 
Q 8.59375 42.28125 12.203125 53.3125 
Q 15.828125 64.359375 23.1875 75.875 
z
" id="DejaVuSans-40"/>
      <path d="M 52 44.1875 
Q 55.375 50.25 60.0625 53.125 
Q 64.75 56 71.09375 56 
Q 79.640625 56 84.28125 50.015625 
Q 88.921875 44.046875 88.921875 33.015625 
L 88.921875 0 
L 79.890625 0 
L 79.890625 32.71875 
Q 79.890625 40.578125 77.09375 44.375 
Q 74.3125 48.1875 68.609375 48.1875 
Q 61.625 48.1875 57.5625 43.546875 
Q 53.515625 38.921875 53.515625 30.90625 
L 53.515625 0 
L 44.484375 0 
L 44.484375 32.71875 
Q 44.484375 40.625 41.703125 44.40625 
Q 38.921875 48.1875 33.109375 48.1875 
Q 26.21875 48.1875 22.15625 43.53125 
Q 18.109375 38.875 18.109375 30.90625 
L 18.109375 0 
L 9.078125 0 
L 9.078125 54.6875 
L 18.109375 54.6875 
L 18.109375 46.1875 
Q 21.1875 51.21875 25.484375 53.609375 
Q 29.78125 56 35.6875 56 
Q 41.65625 56 45.828125 52.96875 
Q 50 49.953125 52 44.1875 
z
" id="DejaVuSans-109"/>
      <path d="M 11.71875 12.40625 
L 22.015625 12.40625 
L 22.015625 0 
L 11.71875 0 
z
M 11.71875 51.703125 
L 22.015625 51.703125 
L 22.015625 39.3125 
L 11.71875 39.3125 
z
" id="DejaVuSans-58"/>
      <path d="M 37.796875 64.3125 
L 12.890625 25.390625 
L 37.796875 25.390625 
z
M 35.203125 72.90625 
L 47.609375 72.90625 
L 47.609375 25.390625 
L 58.015625 25.390625 
L 58.015625 17.1875 
L 47.609375 17.1875 
L 47.609375 0 
L 37.796875 0 
L 37.796875 17.1875 
L 4.890625 17.1875 
L 4.890625 26.703125 
z
" id="DejaVuSans-52"/>
      <path d="M 11.71875 12.40625 
L 22.015625 12.40625 
L 22.015625 4 
L 14.015625 -11.625 
L 7.71875 -11.625 
L 11.71875 4 
z
" id="DejaVuSans-44"/>
      <path d="M 4.203125 54.6875 
L 13.1875 54.6875 
L 24.421875 12.015625 
L 35.59375 54.6875 
L 46.1875 54.6875 
L 57.421875 12.015625 
L 68.609375 54.6875 
L 77.59375 54.6875 
L 63.28125 0 
L 52.6875 0 
L 40.921875 44.828125 
L 29.109375 0 
L 18.5 0 
z
" id="DejaVuSans-119"/>
      <path d="M 48.6875 27.296875 
Q 48.6875 37.203125 44.609375 42.84375 
Q 40.53125 48.484375 33.40625 48.484375 
Q 26.265625 48.484375 22.1875 42.84375 
Q 18.109375 37.203125 18.109375 27.296875 
Q 18.109375 17.390625 22.1875 11.75 
Q 26.265625 6.109375 33.40625 6.109375 
Q 40.53125 6.109375 44.609375 11.75 
Q 48.6875 17.390625 48.6875 27.296875 
z
M 18.109375 46.390625 
Q 20.953125 51.265625 25.265625 53.625 
Q 29.59375 56 35.59375 56 
Q 45.5625 56 51.78125 48.09375 
Q 58.015625 40.1875 58.015625 27.296875 
Q 58.015625 14.40625 51.78125 6.484375 
Q 45.5625 -1.421875 35.59375 -1.421875 
Q 29.59375 -1.421875 25.265625 0.953125 
Q 20.953125 3.328125 18.109375 8.203125 
L 18.109375 0 
L 9.078125 0 
L 9.078125 75.984375 
L 18.109375 75.984375 
z
" id="DejaVuSans-98"/>
      <path d="M 8.015625 75.875 
L 15.828125 75.875 
Q 23.140625 64.359375 26.78125 53.3125 
Q 30.421875 42.28125 30.421875 31.390625 
Q 30.421875 20.453125 26.78125 9.375 
Q 23.140625 -1.703125 15.828125 -13.1875 
L 8.015625 -13.1875 
Q 14.5 -2 17.703125 9.0625 
Q 20.90625 20.125 20.90625 31.390625 
Q 20.90625 42.671875 17.703125 53.65625 
Q 14.5 64.65625 8.015625 75.875 
z
" id="DejaVuSans-41"/>
     </defs>
     <use transform="translate(0 0.015625)" xlink:href="#DejaVuSans-73"/>
     <use transform="translate(29.492188 0.015625)" xlink:href="#DejaVuSans-115"/>
     <use transform="translate(81.591797 0.015625)" xlink:href="#DejaVuSans-108"/>
     <use transform="translate(109.375 0.015625)" xlink:href="#DejaVuSans-97"/>
     <use transform="translate(170.654297 0.015625)" xlink:href="#DejaVuSans-110"/>
     <use transform="translate(234.033203 0.015625)" xlink:href="#DejaVuSans-100"/>
     <use transform="translate(297.509766 0.015625)" xlink:href="#DejaVuSans-32"/>
     <use transform="translate(329.296875 0.015625)" xlink:href="#DejaVuSans-84"/>
     <use transform="translate(390.380859 0.015625)" xlink:href="#DejaVuSans-114"/>
     <use transform="translate(431.494141 0.015625)" xlink:href="#DejaVuSans-97"/>
     <use transform="translate(492.773438 0.015625)" xlink:href="#DejaVuSans-110"/>
     <use transform="translate(556.152344 0.015625)" xlink:href="#DejaVuSans-115"/>
     <use transform="translate(608.251953 0.015625)" xlink:href="#DejaVuSans-112"/>
     <use transform="translate(671.728516 0.015625)" xlink:href="#DejaVuSans-101"/>
     <use transform="translate(733.251953 0.015625)" xlink:href="#DejaVuSans-99"/>
     <use transform="translate(788.232422 0.015625)" xlink:href="#DejaVuSans-105"/>
     <use transform="translate(816.015625 0.015625)" xlink:href="#DejaVuSans-97"/>
     <use transform="translate(877.294922 0.015625)" xlink:href="#DejaVuSans-116"/>
     <use transform="translate(916.503906 0.015625)" xlink:href="#DejaVuSans-105"/>
     <use transform="translate(944.287109 0.015625)" xlink:href="#DejaVuSans-111"/>
     <use transform="translate(1005.46875 0.015625)" xlink:href="#DejaVuSans-110"/>
     <use transform="translate(1068.847656 0.015625)" xlink:href="#DejaVuSans-32"/>
     <use transform="translate(1100.634766 0.015625)" xlink:href="#DejaVuSans-45"/>
     <use transform="translate(1136.71875 0.015625)" xlink:href="#DejaVuSans-32"/>
     <use transform="translate(1168.505859 0.015625)" xlink:href="#DejaVuSans-Oblique-79"/>
     <use transform="translate(1247.216797 -16.390625)scale(0.7)" xlink:href="#DejaVuSans-51"/>
     <use transform="translate(1294.487305 0.015625)" xlink:href="#DejaVuSans-32"/>
     <use transform="translate(1326.274414 0.015625)" xlink:href="#DejaVuSans-116"/>
     <use transform="translate(1365.483398 0.015625)" xlink:href="#DejaVuSans-114"/>
     <use transform="translate(1406.59668 0.015625)" xlink:href="#DejaVuSans-97"/>
     <use transform="translate(1467.875977 0.015625)" xlink:href="#DejaVuSans-105"/>
     <use transform="translate(1495.65918 0.015625)" xlink:href="#DejaVuSans-110"/>
     <use transform="translate(1559.038086 0.015625)" xlink:href="#DejaVuSans-32"/>
     <use transform="translate(1590.825195 0.015625)" xlink:href="#DejaVuSans-67"/>
     <use transform="translate(1660.649414 0.015625)" xlink:href="#DejaVuSans-86"/>
     <use transform="translate(1729.057617 0.015625)" xlink:href="#DejaVuSans-32"/>
     <use transform="translate(1760.844727 0.015625)" xlink:href="#DejaVuSans-50"/>
     <use transform="translate(1824.467773 0.015625)" xlink:href="#DejaVuSans-48"/>
     <use transform="translate(1888.09082 0.015625)" xlink:href="#DejaVuSans-48"/>
     <use transform="translate(1951.713867 0.015625)" xlink:href="#DejaVuSans-48"/>
     <use transform="translate(2015.336914 0.015625)" xlink:href="#DejaVuSans-45"/>
     <use transform="translate(2051.420898 0.015625)" xlink:href="#DejaVuSans-50"/>
     <use transform="translate(2115.043945 0.015625)" xlink:href="#DejaVuSans-48"/>
     <use transform="translate(2178.666992 0.015625)" xlink:href="#DejaVuSans-48"/>
     <use transform="translate(2242.290039 0.015625)" xlink:href="#DejaVuSans-57"/>
     <use transform="translate(2305.913086 0.015625)" xlink:href="#DejaVuSans-32"/>
     <use transform="translate(2337.700195 0.015625)" xlink:href="#DejaVuSans-40"/>
     <use transform="translate(2376.713867 0.015625)" xlink:href="#DejaVuSans-109"/>
     <use transform="translate(2474.125977 0.015625)" xlink:href="#DejaVuSans-101"/>
     <use transform="translate(2535.649414 0.015625)" xlink:href="#DejaVuSans-100"/>
     <use transform="translate(2599.125977 0.015625)" xlink:href="#DejaVuSans-105"/>
     <use transform="translate(2626.90918 0.015625)" xlink:href="#DejaVuSans-97"/>
     <use transform="translate(2688.188477 0.015625)" xlink:href="#DejaVuSans-110"/>
     <use transform="translate(2751.567383 0.015625)" xlink:href="#DejaVuSans-58"/>
     <use transform="translate(2785.258789 0.015625)" xlink:href="#DejaVuSans-32"/>
     <use transform="translate(2817.045898 0.015625)" xlink:href="#DejaVuSans-55"/>
     <use transform="translate(2880.668945 0.015625)" xlink:href="#DejaVuSans-54"/>
     <use transform="translate(2944.291992 0.015625)" xlink:href="#DejaVuSans-46"/>
     <use transform="translate(2970.579102 0.015625)" xlink:href="#DejaVuSans-50"/>
     <use transform="translate(3034.202148 0.015625)" xlink:href="#DejaVuSans-52"/>
     <use transform="translate(3097.825195 0.015625)" xlink:href="#DejaVuSans-37"/>
     <use transform="translate(3192.844727 0.015625)" xlink:href="#DejaVuSans-44"/>
     <use transform="translate(3224.631836 0.015625)" xlink:href="#DejaVuSans-32"/>
     <use transform="translate(3256.418945 0.015625)" xlink:href="#DejaVuSans-119"/>
     <use transform="translate(3338.206055 0.015625)" xlink:href="#DejaVuSans-111"/>
     <use transform="translate(3399.387695 0.015625)" xlink:href="#DejaVuSans-114"/>
     <use transform="translate(3440.500977 0.015625)" xlink:href="#DejaVuSans-115"/>
     <use transform="translate(3492.600586 0.015625)" xlink:href="#DejaVuSans-116"/>
     <use transform="translate(3531.80957 0.015625)" xlink:href="#DejaVuSans-58"/>
     <use transform="translate(3565.500977 0.015625)" xlink:href="#DejaVuSans-32"/>
     <use transform="translate(3597.288086 0.015625)" xlink:href="#DejaVuSans-53"/>
     <use transform="translate(3655.411133 0.015625)" xlink:href="#DejaVuSans-57"/>
     <use transform="translate(3719.03418 0.015625)" xlink:href="#DejaVuSans-46"/>
     <use transform="translate(3743.071289 0.015625)" xlink:href="#DejaVuSans-55"/>
     <use transform="translate(3804.944336 0.015625)" xlink:href="#DejaVuSans-55"/>
     <use transform="translate(3868.567383 0.015625)" xlink:href="#DejaVuSans-37"/>
     <use transform="translate(3963.586914 0.015625)" xlink:href="#DejaVuSans-44"/>
     <use transform="translate(3995.374023 0.015625)" xlink:href="#DejaVuSans-32"/>
     <use transform="translate(4027.161133 0.015625)" xlink:href="#DejaVuSans-98"/>
     <use transform="translate(4090.637695 0.015625)" xlink:href="#DejaVuSans-101"/>
     <use transform="translate(4152.161133 0.015625)" xlink:href="#DejaVuSans-115"/>
     <use transform="translate(4204.260742 0.015625)" xlink:href="#DejaVuSans-116"/>
     <use transform="translate(4243.469727 0.015625)" xlink:href="#DejaVuSans-58"/>
     <use transform="translate(4277.161133 0.015625)" xlink:href="#DejaVuSans-32"/>
     <use transform="translate(4308.948242 0.015625)" xlink:href="#DejaVuSans-55"/>
     <use transform="translate(4372.571289 0.015625)" xlink:href="#DejaVuSans-54"/>
     <use transform="translate(4436.194336 0.015625)" xlink:href="#DejaVuSans-46"/>
     <use transform="translate(4467.981445 0.015625)" xlink:href="#DejaVuSans-57"/>
     <use transform="translate(4531.604492 0.015625)" xlink:href="#DejaVuSans-52"/>
     <use transform="translate(4595.227539 0.015625)" xlink:href="#DejaVuSans-37"/>
     <use transform="translate(4690.24707 0.015625)" xlink:href="#DejaVuSans-41"/>
    </g>
   </g>
   <g id="legend_1">
    <g id="patch_7">
     <path d="M 79 373 
L 283.834375 373 
Q 285.834375 373 285.834375 371 
L 285.834375 254.575 
Q 285.834375 252.575 283.834375 252.575 
L 79 252.575 
Q 77 252.575 77 254.575 
L 77 371 
Q 77 373 79 373 
z
" style="fill:#ffffff;opacity:0.8;stroke:#cccccc;stroke-linejoin:miter;"/>
    </g>
    <g id="line2d_35"/>
    <g id="line2d_36">
     <g>
      <use style="fill:#1f77b4;stroke:#1f77b4;" x="91" xlink:href="#m410f8b3ac0" y="260.673438"/>
     </g>
    </g>
    <g id="text_17">
     <!-- Bayesian Optimization (BO) -->
     <g transform="translate(109 264.173438)scale(0.1 -0.1)">
      <defs>
       <path d="M 19.671875 34.8125 
L 19.671875 8.109375 
L 35.5 8.109375 
Q 43.453125 8.109375 47.28125 11.40625 
Q 51.125 14.703125 51.125 21.484375 
Q 51.125 28.328125 47.28125 31.5625 
Q 43.453125 34.8125 35.5 34.8125 
z
M 19.671875 64.796875 
L 19.671875 42.828125 
L 34.28125 42.828125 
Q 41.5 42.828125 45.03125 45.53125 
Q 48.578125 48.25 48.578125 53.8125 
Q 48.578125 59.328125 45.03125 62.0625 
Q 41.5 64.796875 34.28125 64.796875 
z
M 9.8125 72.90625 
L 35.015625 72.90625 
Q 46.296875 72.90625 52.390625 68.21875 
Q 58.5 63.53125 58.5 54.890625 
Q 58.5 48.1875 55.375 44.234375 
Q 52.25 40.28125 46.1875 39.3125 
Q 53.46875 37.75 57.5 32.78125 
Q 61.53125 27.828125 61.53125 20.40625 
Q 61.53125 10.640625 54.890625 5.3125 
Q 48.25 0 35.984375 0 
L 9.8125 0 
z
" id="DejaVuSans-66"/>
       <path d="M 32.171875 -5.078125 
Q 28.375 -14.84375 24.75 -17.8125 
Q 21.140625 -20.796875 15.09375 -20.796875 
L 7.90625 -20.796875 
L 7.90625 -13.28125 
L 13.1875 -13.28125 
Q 16.890625 -13.28125 18.9375 -11.515625 
Q 21 -9.765625 23.484375 -3.21875 
L 25.09375 0.875 
L 2.984375 54.6875 
L 12.5 54.6875 
L 29.59375 11.921875 
L 46.6875 54.6875 
L 56.203125 54.6875 
z
" id="DejaVuSans-121"/>
       <path d="M 39.40625 66.21875 
Q 28.65625 66.21875 22.328125 58.203125 
Q 16.015625 50.203125 16.015625 36.375 
Q 16.015625 22.609375 22.328125 14.59375 
Q 28.65625 6.59375 39.40625 6.59375 
Q 50.140625 6.59375 56.421875 14.59375 
Q 62.703125 22.609375 62.703125 36.375 
Q 62.703125 50.203125 56.421875 58.203125 
Q 50.140625 66.21875 39.40625 66.21875 
z
M 39.40625 74.21875 
Q 54.734375 74.21875 63.90625 63.9375 
Q 73.09375 53.65625 73.09375 36.375 
Q 73.09375 19.140625 63.90625 8.859375 
Q 54.734375 -1.421875 39.40625 -1.421875 
Q 24.03125 -1.421875 14.8125 8.828125 
Q 5.609375 19.09375 5.609375 36.375 
Q 5.609375 53.65625 14.8125 63.9375 
Q 24.03125 74.21875 39.40625 74.21875 
z
" id="DejaVuSans-79"/>
       <path d="M 5.515625 54.6875 
L 48.1875 54.6875 
L 48.1875 46.484375 
L 14.40625 7.171875 
L 48.1875 7.171875 
L 48.1875 0 
L 4.296875 0 
L 4.296875 8.203125 
L 38.09375 47.515625 
L 5.515625 47.515625 
z
" id="DejaVuSans-122"/>
      </defs>
      <use xlink:href="#DejaVuSans-66"/>
      <use x="68.603516" xlink:href="#DejaVuSans-97"/>
      <use x="129.882812" xlink:href="#DejaVuSans-121"/>
      <use x="189.0625" xlink:href="#DejaVuSans-101"/>
      <use x="250.585938" xlink:href="#DejaVuSans-115"/>
      <use x="302.685547" xlink:href="#DejaVuSans-105"/>
      <use x="330.46875" xlink:href="#DejaVuSans-97"/>
      <use x="391.748047" xlink:href="#DejaVuSans-110"/>
      <use x="455.126953" xlink:href="#DejaVuSans-32"/>
      <use x="486.914062" xlink:href="#DejaVuSans-79"/>
      <use x="565.625" xlink:href="#DejaVuSans-112"/>
      <use x="629.101562" xlink:href="#DejaVuSans-116"/>
      <use x="668.310547" xlink:href="#DejaVuSans-105"/>
      <use x="696.09375" xlink:href="#DejaVuSans-109"/>
      <use x="793.505859" xlink:href="#DejaVuSans-105"/>
      <use x="821.289062" xlink:href="#DejaVuSans-122"/>
      <use x="873.779297" xlink:href="#DejaVuSans-97"/>
      <use x="935.058594" xlink:href="#DejaVuSans-116"/>
      <use x="974.267578" xlink:href="#DejaVuSans-105"/>
      <use x="1002.050781" xlink:href="#DejaVuSans-111"/>
      <use x="1063.232422" xlink:href="#DejaVuSans-110"/>
      <use x="1126.611328" xlink:href="#DejaVuSans-32"/>
      <use x="1158.398438" xlink:href="#DejaVuSans-40"/>
      <use x="1197.412109" xlink:href="#DejaVuSans-66"/>
      <use x="1264.265625" xlink:href="#DejaVuSans-79"/>
      <use x="1342.976562" xlink:href="#DejaVuSans-41"/>
     </g>
    </g>
    <g id="line2d_37"/>
    <g id="line2d_38">
     <g>
      <use style="fill:#ff7f0e;stroke:#ff7f0e;" x="91" xlink:href="#me77e0663ed" y="275.351563"/>
     </g>
    </g>
    <g id="text_18">
     <!-- Random (uniform) search (Rand) -->
     <g transform="translate(109 278.851563)scale(0.1 -0.1)">
      <defs>
       <path d="M 44.390625 34.1875 
Q 47.5625 33.109375 50.5625 29.59375 
Q 53.5625 26.078125 56.59375 19.921875 
L 66.609375 0 
L 56 0 
L 46.6875 18.703125 
Q 43.0625 26.03125 39.671875 28.421875 
Q 36.28125 30.8125 30.421875 30.8125 
L 19.671875 30.8125 
L 19.671875 0 
L 9.8125 0 
L 9.8125 72.90625 
L 32.078125 72.90625 
Q 44.578125 72.90625 50.734375 67.671875 
Q 56.890625 62.453125 56.890625 51.90625 
Q 56.890625 45.015625 53.6875 40.46875 
Q 50.484375 35.9375 44.390625 34.1875 
z
M 19.671875 64.796875 
L 19.671875 38.921875 
L 32.078125 38.921875 
Q 39.203125 38.921875 42.84375 42.21875 
Q 46.484375 45.515625 46.484375 51.90625 
Q 46.484375 58.296875 42.84375 61.546875 
Q 39.203125 64.796875 32.078125 64.796875 
z
" id="DejaVuSans-82"/>
       <path d="M 37.109375 75.984375 
L 37.109375 68.5 
L 28.515625 68.5 
Q 23.6875 68.5 21.796875 66.546875 
Q 19.921875 64.59375 19.921875 59.515625 
L 19.921875 54.6875 
L 34.71875 54.6875 
L 34.71875 47.703125 
L 19.921875 47.703125 
L 19.921875 0 
L 10.890625 0 
L 10.890625 47.703125 
L 2.296875 47.703125 
L 2.296875 54.6875 
L 10.890625 54.6875 
L 10.890625 58.5 
Q 10.890625 67.625 15.140625 71.796875 
Q 19.390625 75.984375 28.609375 75.984375 
z
" id="DejaVuSans-102"/>
       <path d="M 54.890625 33.015625 
L 54.890625 0 
L 45.90625 0 
L 45.90625 32.71875 
Q 45.90625 40.484375 42.875 44.328125 
Q 39.84375 48.1875 33.796875 48.1875 
Q 26.515625 48.1875 22.3125 43.546875 
Q 18.109375 38.921875 18.109375 30.90625 
L 18.109375 0 
L 9.078125 0 
L 9.078125 75.984375 
L 18.109375 75.984375 
L 18.109375 46.1875 
Q 21.34375 51.125 25.703125 53.5625 
Q 30.078125 56 35.796875 56 
Q 45.21875 56 50.046875 50.171875 
Q 54.890625 44.34375 54.890625 33.015625 
z
" id="DejaVuSans-104"/>
      </defs>
      <use xlink:href="#DejaVuSans-82"/>
      <use x="67.232422" xlink:href="#DejaVuSans-97"/>
      <use x="128.511719" xlink:href="#DejaVuSans-110"/>
      <use x="191.890625" xlink:href="#DejaVuSans-100"/>
      <use x="255.367188" xlink:href="#DejaVuSans-111"/>
      <use x="316.548828" xlink:href="#DejaVuSans-109"/>
      <use x="413.960938" xlink:href="#DejaVuSans-32"/>
      <use x="445.748047" xlink:href="#DejaVuSans-40"/>
      <use x="484.761719" xlink:href="#DejaVuSans-117"/>
      <use x="548.140625" xlink:href="#DejaVuSans-110"/>
      <use x="611.519531" xlink:href="#DejaVuSans-105"/>
      <use x="639.302734" xlink:href="#DejaVuSans-102"/>
      <use x="674.507812" xlink:href="#DejaVuSans-111"/>
      <use x="735.689453" xlink:href="#DejaVuSans-114"/>
      <use x="775.052734" xlink:href="#DejaVuSans-109"/>
      <use x="872.464844" xlink:href="#DejaVuSans-41"/>
      <use x="911.478516" xlink:href="#DejaVuSans-32"/>
      <use x="943.265625" xlink:href="#DejaVuSans-115"/>
      <use x="995.365234" xlink:href="#DejaVuSans-101"/>
      <use x="1056.888672" xlink:href="#DejaVuSans-97"/>
      <use x="1118.167969" xlink:href="#DejaVuSans-114"/>
      <use x="1157.03125" xlink:href="#DejaVuSans-99"/>
      <use x="1212.011719" xlink:href="#DejaVuSans-104"/>
      <use x="1275.390625" xlink:href="#DejaVuSans-32"/>
      <use x="1307.177734" xlink:href="#DejaVuSans-40"/>
      <use x="1346.191406" xlink:href="#DejaVuSans-82"/>
      <use x="1413.423828" xlink:href="#DejaVuSans-97"/>
      <use x="1474.703125" xlink:href="#DejaVuSans-110"/>
      <use x="1538.082031" xlink:href="#DejaVuSans-100"/>
      <use x="1601.558594" xlink:href="#DejaVuSans-41"/>
     </g>
    </g>
    <g id="line2d_39"/>
    <g id="line2d_40">
     <g>
      <use style="fill:#2ca02c;stroke:#2ca02c;stroke-linejoin:miter;" x="91" xlink:href="#m8836eb7027" y="290.029688"/>
     </g>
    </g>
    <g id="text_19">
     <!-- Differential Evolution (DE) -->
     <g transform="translate(109 293.529688)scale(0.1 -0.1)">
      <defs>
       <path d="M 19.671875 64.796875 
L 19.671875 8.109375 
L 31.59375 8.109375 
Q 46.6875 8.109375 53.6875 14.9375 
Q 60.6875 21.78125 60.6875 36.53125 
Q 60.6875 51.171875 53.6875 57.984375 
Q 46.6875 64.796875 31.59375 64.796875 
z
M 9.8125 72.90625 
L 30.078125 72.90625 
Q 51.265625 72.90625 61.171875 64.09375 
Q 71.09375 55.28125 71.09375 36.53125 
Q 71.09375 17.671875 61.125 8.828125 
Q 51.171875 0 30.078125 0 
L 9.8125 0 
z
" id="DejaVuSans-68"/>
      </defs>
      <use xlink:href="#DejaVuSans-68"/>
      <use x="77.001953" xlink:href="#DejaVuSans-105"/>
      <use x="104.785156" xlink:href="#DejaVuSans-102"/>
      <use x="139.990234" xlink:href="#DejaVuSans-102"/>
      <use x="175.195312" xlink:href="#DejaVuSans-101"/>
      <use x="236.71875" xlink:href="#DejaVuSans-114"/>
      <use x="275.582031" xlink:href="#DejaVuSans-101"/>
      <use x="337.105469" xlink:href="#DejaVuSans-110"/>
      <use x="400.484375" xlink:href="#DejaVuSans-116"/>
      <use x="439.693359" xlink:href="#DejaVuSans-105"/>
      <use x="467.476562" xlink:href="#DejaVuSans-97"/>
      <use x="528.755859" xlink:href="#DejaVuSans-108"/>
      <use x="556.539062" xlink:href="#DejaVuSans-32"/>
      <use x="588.326172" xlink:href="#DejaVuSans-69"/>
      <use x="651.509766" xlink:href="#DejaVuSans-118"/>
      <use x="710.689453" xlink:href="#DejaVuSans-111"/>
      <use x="771.871094" xlink:href="#DejaVuSans-108"/>
      <use x="799.654297" xlink:href="#DejaVuSans-117"/>
      <use x="863.033203" xlink:href="#DejaVuSans-116"/>
      <use x="902.242188" xlink:href="#DejaVuSans-105"/>
      <use x="930.025391" xlink:href="#DejaVuSans-111"/>
      <use x="991.207031" xlink:href="#DejaVuSans-110"/>
      <use x="1054.585938" xlink:href="#DejaVuSans-32"/>
      <use x="1086.373047" xlink:href="#DejaVuSans-40"/>
      <use x="1125.386719" xlink:href="#DejaVuSans-68"/>
      <use x="1202.388672" xlink:href="#DejaVuSans-69"/>
      <use x="1265.572266" xlink:href="#DejaVuSans-41"/>
     </g>
    </g>
    <g id="line2d_41"/>
    <g id="line2d_42">
     <g>
      <use style="fill:#d62728;stroke:#d62728;" x="91" xlink:href="#m1940defbf1" y="304.707813"/>
     </g>
    </g>
    <g id="text_20">
     <!-- Particle Swarm Optimization (PSO) -->
     <g transform="translate(109 308.207813)scale(0.1 -0.1)">
      <use xlink:href="#DejaVuSans-80"/>
      <use x="55.802734" xlink:href="#DejaVuSans-97"/>
      <use x="117.082031" xlink:href="#DejaVuSans-114"/>
      <use x="158.195312" xlink:href="#DejaVuSans-116"/>
      <use x="197.404297" xlink:href="#DejaVuSans-105"/>
      <use x="225.1875" xlink:href="#DejaVuSans-99"/>
      <use x="280.167969" xlink:href="#DejaVuSans-108"/>
      <use x="307.951172" xlink:href="#DejaVuSans-101"/>
      <use x="369.474609" xlink:href="#DejaVuSans-32"/>
      <use x="401.261719" xlink:href="#DejaVuSans-83"/>
      <use x="464.738281" xlink:href="#DejaVuSans-119"/>
      <use x="546.525391" xlink:href="#DejaVuSans-97"/>
      <use x="607.804688" xlink:href="#DejaVuSans-114"/>
      <use x="647.167969" xlink:href="#DejaVuSans-109"/>
      <use x="744.580078" xlink:href="#DejaVuSans-32"/>
      <use x="776.367188" xlink:href="#DejaVuSans-79"/>
      <use x="855.078125" xlink:href="#DejaVuSans-112"/>
      <use x="918.554688" xlink:href="#DejaVuSans-116"/>
      <use x="957.763672" xlink:href="#DejaVuSans-105"/>
      <use x="985.546875" xlink:href="#DejaVuSans-109"/>
      <use x="1082.958984" xlink:href="#DejaVuSans-105"/>
      <use x="1110.742188" xlink:href="#DejaVuSans-122"/>
      <use x="1163.232422" xlink:href="#DejaVuSans-97"/>
      <use x="1224.511719" xlink:href="#DejaVuSans-116"/>
      <use x="1263.720703" xlink:href="#DejaVuSans-105"/>
      <use x="1291.503906" xlink:href="#DejaVuSans-111"/>
      <use x="1352.685547" xlink:href="#DejaVuSans-110"/>
      <use x="1416.064453" xlink:href="#DejaVuSans-32"/>
      <use x="1447.851562" xlink:href="#DejaVuSans-40"/>
      <use x="1486.865234" xlink:href="#DejaVuSans-80"/>
      <use x="1547.167969" xlink:href="#DejaVuSans-83"/>
      <use x="1610.644531" xlink:href="#DejaVuSans-79"/>
      <use x="1689.355469" xlink:href="#DejaVuSans-41"/>
     </g>
    </g>
    <g id="line2d_43"/>
    <g id="line2d_44">
     <g>
      <use style="fill:#9467bd;stroke:#9467bd;stroke-linejoin:miter;" x="91" xlink:href="#m45d704422c" y="319.385938"/>
     </g>
    </g>
    <g id="text_21">
     <!-- Genetic Algorithm (GA) -->
     <g transform="translate(109 322.885938)scale(0.1 -0.1)">
      <defs>
       <path d="M 59.515625 10.40625 
L 59.515625 29.984375 
L 43.40625 29.984375 
L 43.40625 38.09375 
L 69.28125 38.09375 
L 69.28125 6.78125 
Q 63.578125 2.734375 56.6875 0.65625 
Q 49.8125 -1.421875 42 -1.421875 
Q 24.90625 -1.421875 15.25 8.5625 
Q 5.609375 18.5625 5.609375 36.375 
Q 5.609375 54.25 15.25 64.234375 
Q 24.90625 74.21875 42 74.21875 
Q 49.125 74.21875 55.546875 72.453125 
Q 61.96875 70.703125 67.390625 67.28125 
L 67.390625 56.78125 
Q 61.921875 61.421875 55.765625 63.765625 
Q 49.609375 66.109375 42.828125 66.109375 
Q 29.4375 66.109375 22.71875 58.640625 
Q 16.015625 51.171875 16.015625 36.375 
Q 16.015625 21.625 22.71875 14.15625 
Q 29.4375 6.6875 42.828125 6.6875 
Q 48.046875 6.6875 52.140625 7.59375 
Q 56.25 8.5 59.515625 10.40625 
z
" id="DejaVuSans-71"/>
       <path d="M 45.40625 27.984375 
Q 45.40625 37.75 41.375 43.109375 
Q 37.359375 48.484375 30.078125 48.484375 
Q 22.859375 48.484375 18.828125 43.109375 
Q 14.796875 37.75 14.796875 27.984375 
Q 14.796875 18.265625 18.828125 12.890625 
Q 22.859375 7.515625 30.078125 7.515625 
Q 37.359375 7.515625 41.375 12.890625 
Q 45.40625 18.265625 45.40625 27.984375 
z
M 54.390625 6.78125 
Q 54.390625 -7.171875 48.1875 -13.984375 
Q 42 -20.796875 29.203125 -20.796875 
Q 24.46875 -20.796875 20.265625 -20.09375 
Q 16.0625 -19.390625 12.109375 -17.921875 
L 12.109375 -9.1875 
Q 16.0625 -11.328125 19.921875 -12.34375 
Q 23.78125 -13.375 27.78125 -13.375 
Q 36.625 -13.375 41.015625 -8.765625 
Q 45.40625 -4.15625 45.40625 5.171875 
L 45.40625 9.625 
Q 42.625 4.78125 38.28125 2.390625 
Q 33.9375 0 27.875 0 
Q 17.828125 0 11.671875 7.65625 
Q 5.515625 15.328125 5.515625 27.984375 
Q 5.515625 40.671875 11.671875 48.328125 
Q 17.828125 56 27.875 56 
Q 33.9375 56 38.28125 53.609375 
Q 42.625 51.21875 45.40625 46.390625 
L 45.40625 54.6875 
L 54.390625 54.6875 
z
" id="DejaVuSans-103"/>
      </defs>
      <use xlink:href="#DejaVuSans-71"/>
      <use x="77.490234" xlink:href="#DejaVuSans-101"/>
      <use x="139.013672" xlink:href="#DejaVuSans-110"/>
      <use x="202.392578" xlink:href="#DejaVuSans-101"/>
      <use x="263.916016" xlink:href="#DejaVuSans-116"/>
      <use x="303.125" xlink:href="#DejaVuSans-105"/>
      <use x="330.908203" xlink:href="#DejaVuSans-99"/>
      <use x="385.888672" xlink:href="#DejaVuSans-32"/>
      <use x="417.675781" xlink:href="#DejaVuSans-65"/>
      <use x="486.083984" xlink:href="#DejaVuSans-108"/>
      <use x="513.867188" xlink:href="#DejaVuSans-103"/>
      <use x="577.34375" xlink:href="#DejaVuSans-111"/>
      <use x="638.525391" xlink:href="#DejaVuSans-114"/>
      <use x="679.638672" xlink:href="#DejaVuSans-105"/>
      <use x="707.421875" xlink:href="#DejaVuSans-116"/>
      <use x="746.630859" xlink:href="#DejaVuSans-104"/>
      <use x="810.009766" xlink:href="#DejaVuSans-109"/>
      <use x="907.421875" xlink:href="#DejaVuSans-32"/>
      <use x="939.208984" xlink:href="#DejaVuSans-40"/>
      <use x="978.222656" xlink:href="#DejaVuSans-71"/>
      <use x="1055.712891" xlink:href="#DejaVuSans-65"/>
      <use x="1124.121094" xlink:href="#DejaVuSans-41"/>
     </g>
    </g>
    <g id="line2d_45"/>
    <g id="line2d_46">
     <g>
      <use style="fill:#8c564b;stroke:#8c564b;" x="91" xlink:href="#m43f7987a86" y="334.064063"/>
     </g>
    </g>
    <g id="text_22">
     <!-- Local Search (LS) -->
     <g transform="translate(109 337.564063)scale(0.1 -0.1)">
      <defs>
       <path d="M 9.8125 72.90625 
L 19.671875 72.90625 
L 19.671875 8.296875 
L 55.171875 8.296875 
L 55.171875 0 
L 9.8125 0 
z
" id="DejaVuSans-76"/>
      </defs>
      <use xlink:href="#DejaVuSans-76"/>
      <use x="53.962891" xlink:href="#DejaVuSans-111"/>
      <use x="115.144531" xlink:href="#DejaVuSans-99"/>
      <use x="170.125" xlink:href="#DejaVuSans-97"/>
      <use x="231.404297" xlink:href="#DejaVuSans-108"/>
      <use x="259.1875" xlink:href="#DejaVuSans-32"/>
      <use x="290.974609" xlink:href="#DejaVuSans-83"/>
      <use x="354.451172" xlink:href="#DejaVuSans-101"/>
      <use x="415.974609" xlink:href="#DejaVuSans-97"/>
      <use x="477.253906" xlink:href="#DejaVuSans-114"/>
      <use x="516.117188" xlink:href="#DejaVuSans-99"/>
      <use x="571.097656" xlink:href="#DejaVuSans-104"/>
      <use x="634.476562" xlink:href="#DejaVuSans-32"/>
      <use x="666.263672" xlink:href="#DejaVuSans-40"/>
      <use x="705.277344" xlink:href="#DejaVuSans-76"/>
      <use x="760.990234" xlink:href="#DejaVuSans-83"/>
      <use x="824.466797" xlink:href="#DejaVuSans-41"/>
     </g>
    </g>
    <g id="line2d_47">
     <path d="M 81 348.742188 
L 101 348.742188 
" style="fill:none;stroke:#000000;stroke-dasharray:5.55,2.4;stroke-dashoffset:0;stroke-width:1.5;"/>
    </g>
    <g id="line2d_48"/>
    <g id="text_23">
     <!-- trend: 0.023*x + 70.404 -->
     <g transform="translate(109 352.242188)scale(0.1 -0.1)">
      <defs>
       <path d="M 47.015625 60.890625 
L 29.5 51.421875 
L 47.015625 41.890625 
L 44.1875 37.109375 
L 27.78125 47.015625 
L 27.78125 28.609375 
L 22.21875 28.609375 
L 22.21875 47.015625 
L 5.8125 37.109375 
L 2.984375 41.890625 
L 20.515625 51.421875 
L 2.984375 60.890625 
L 5.8125 65.71875 
L 22.21875 55.8125 
L 22.21875 74.21875 
L 27.78125 74.21875 
L 27.78125 55.8125 
L 44.1875 65.71875 
z
" id="DejaVuSans-42"/>
       <path d="M 54.890625 54.6875 
L 35.109375 28.078125 
L 55.90625 0 
L 45.3125 0 
L 29.390625 21.484375 
L 13.484375 0 
L 2.875 0 
L 24.125 28.609375 
L 4.6875 54.6875 
L 15.28125 54.6875 
L 29.78125 35.203125 
L 44.28125 54.6875 
z
" id="DejaVuSans-120"/>
       <path d="M 46 62.703125 
L 46 35.5 
L 73.1875 35.5 
L 73.1875 27.203125 
L 46 27.203125 
L 46 0 
L 37.796875 0 
L 37.796875 27.203125 
L 10.59375 27.203125 
L 10.59375 35.5 
L 37.796875 35.5 
L 37.796875 62.703125 
z
" id="DejaVuSans-43"/>
      </defs>
      <use xlink:href="#DejaVuSans-116"/>
      <use x="39.208984" xlink:href="#DejaVuSans-114"/>
      <use x="78.072266" xlink:href="#DejaVuSans-101"/>
      <use x="139.595703" xlink:href="#DejaVuSans-110"/>
      <use x="202.974609" xlink:href="#DejaVuSans-100"/>
      <use x="266.451172" xlink:href="#DejaVuSans-58"/>
      <use x="300.142578" xlink:href="#DejaVuSans-32"/>
      <use x="331.929688" xlink:href="#DejaVuSans-48"/>
      <use x="395.552734" xlink:href="#DejaVuSans-46"/>
      <use x="427.339844" xlink:href="#DejaVuSans-48"/>
      <use x="490.962891" xlink:href="#DejaVuSans-50"/>
      <use x="554.585938" xlink:href="#DejaVuSans-51"/>
      <use x="618.208984" xlink:href="#DejaVuSans-42"/>
      <use x="668.208984" xlink:href="#DejaVuSans-120"/>
      <use x="727.388672" xlink:href="#DejaVuSans-32"/>
      <use x="759.175781" xlink:href="#DejaVuSans-43"/>
      <use x="842.964844" xlink:href="#DejaVuSans-32"/>
      <use x="874.751953" xlink:href="#DejaVuSans-55"/>
      <use x="938.375" xlink:href="#DejaVuSans-48"/>
      <use x="1001.998047" xlink:href="#DejaVuSans-46"/>
      <use x="1033.785156" xlink:href="#DejaVuSans-52"/>
      <use x="1097.408203" xlink:href="#DejaVuSans-48"/>
      <use x="1161.03125" xlink:href="#DejaVuSans-52"/>
     </g>
    </g>
    <g id="line2d_49">
     <path d="M 81 363.420313 
L 101 363.420313 
" style="fill:none;stroke:#0000ff;stroke-linecap:square;stroke-width:1.5;"/>
    </g>
    <g id="line2d_50"/>
    <g id="text_24">
     <!-- Best model -->
     <g transform="translate(109 366.920313)scale(0.1 -0.1)">
      <use xlink:href="#DejaVuSans-66"/>
      <use x="68.603516" xlink:href="#DejaVuSans-101"/>
      <use x="130.126953" xlink:href="#DejaVuSans-115"/>
      <use x="182.226562" xlink:href="#DejaVuSans-116"/>
      <use x="221.435547" xlink:href="#DejaVuSans-32"/>
      <use x="253.222656" xlink:href="#DejaVuSans-109"/>
      <use x="350.634766" xlink:href="#DejaVuSans-111"/>
      <use x="411.816406" xlink:href="#DejaVuSans-100"/>
      <use x="475.292969" xlink:href="#DejaVuSans-101"/>
      <use x="536.816406" xlink:href="#DejaVuSans-108"/>
     </g>
    </g>
   </g>
  </g>
 </g>
 <defs>
  <clipPath id="pb6e3e3847a">
   <rect height="326.16" width="446.4" x="72" y="51.84"/>
  </clipPath>
 </defs>
</svg>
