<?xml version="1.0" encoding="utf-8" standalone="no"?>
<!DOCTYPE svg PUBLIC "-//W3C//DTD SVG 1.1//EN"
  "http://www.w3.org/Graphics/SVG/1.1/DTD/svg11.dtd">
<!-- Created with matplotlib (https://matplotlib.org/) -->
<svg height="432pt" version="1.1" viewBox="0 0 576 432" width="576pt" xmlns="http://www.w3.org/2000/svg" xmlns:xlink="http://www.w3.org/1999/xlink">
 <defs>
  <style type="text/css">
*{stroke-linecap:butt;stroke-linejoin:round;white-space:pre;}
  </style>
 </defs>
 <g id="figure_1">
  <g id="patch_1">
   <path d="M 0 432 
L 576 432 
L 576 0 
L 0 0 
z
" style="fill:#ffffff;"/>
  </g>
  <g id="axes_1">
   <g id="patch_2">
    <path d="M 72 378 
L 518.4 378 
L 518.4 51.84 
L 72 51.84 
z
" style="fill:#ffffff;"/>
   </g>
   <g id="matplotlib.axis_1">
    <g id="xtick_1">
     <g id="line2d_1">
      <path clip-path="url(#p54bff164ed)" d="M 92.290909 378 
L 92.290909 51.84 
" style="fill:none;stroke:#b0b0b0;stroke-linecap:square;stroke-width:0.8;"/>
     </g>
     <g id="line2d_2">
      <defs>
       <path d="M 0 0 
L 0 3.5 
" id="me24f8f8ed5" style="stroke:#000000;stroke-width:0.8;"/>
      </defs>
      <g>
       <use style="stroke:#000000;stroke-width:0.8;" x="92.290909" xlink:href="#me24f8f8ed5" y="378"/>
      </g>
     </g>
     <g id="text_1">
      <!-- 0 -->
      <defs>
       <path d="M 31.78125 66.40625 
Q 24.171875 66.40625 20.328125 58.90625 
Q 16.5 51.421875 16.5 36.375 
Q 16.5 21.390625 20.328125 13.890625 
Q 24.171875 6.390625 31.78125 6.390625 
Q 39.453125 6.390625 43.28125 13.890625 
Q 47.125 21.390625 47.125 36.375 
Q 47.125 51.421875 43.28125 58.90625 
Q 39.453125 66.40625 31.78125 66.40625 
z
M 31.78125 74.21875 
Q 44.046875 74.21875 50.515625 64.515625 
Q 56.984375 54.828125 56.984375 36.375 
Q 56.984375 17.96875 50.515625 8.265625 
Q 44.046875 -1.421875 31.78125 -1.421875 
Q 19.53125 -1.421875 13.0625 8.265625 
Q 6.59375 17.96875 6.59375 36.375 
Q 6.59375 54.828125 13.0625 64.515625 
Q 19.53125 74.21875 31.78125 74.21875 
z
" id="DejaVuSans-48"/>
      </defs>
      <g transform="translate(89.109659 392.598437)scale(0.1 -0.1)">
       <use xlink:href="#DejaVuSans-48"/>
      </g>
     </g>
    </g>
    <g id="xtick_2">
     <g id="line2d_3">
      <path clip-path="url(#p54bff164ed)" d="M 173.131184 378 
L 173.131184 51.84 
" style="fill:none;stroke:#b0b0b0;stroke-linecap:square;stroke-width:0.8;"/>
     </g>
     <g id="line2d_4">
      <g>
       <use style="stroke:#000000;stroke-width:0.8;" x="173.131184" xlink:href="#me24f8f8ed5" y="378"/>
      </g>
     </g>
     <g id="text_2">
      <!-- 50 -->
      <defs>
       <path d="M 10.796875 72.90625 
L 49.515625 72.90625 
L 49.515625 64.59375 
L 19.828125 64.59375 
L 19.828125 46.734375 
Q 21.96875 47.46875 24.109375 47.828125 
Q 26.265625 48.1875 28.421875 48.1875 
Q 40.625 48.1875 47.75 41.5 
Q 54.890625 34.8125 54.890625 23.390625 
Q 54.890625 11.625 47.5625 5.09375 
Q 40.234375 -1.421875 26.90625 -1.421875 
Q 22.3125 -1.421875 17.546875 -0.640625 
Q 12.796875 0.140625 7.71875 1.703125 
L 7.71875 11.625 
Q 12.109375 9.234375 16.796875 8.0625 
Q 21.484375 6.890625 26.703125 6.890625 
Q 35.15625 6.890625 40.078125 11.328125 
Q 45.015625 15.765625 45.015625 23.390625 
Q 45.015625 31 40.078125 35.4375 
Q 35.15625 39.890625 26.703125 39.890625 
Q 22.75 39.890625 18.8125 39.015625 
Q 14.890625 38.140625 10.796875 36.28125 
z
" id="DejaVuSans-53"/>
      </defs>
      <g transform="translate(166.768684 392.598437)scale(0.1 -0.1)">
       <use xlink:href="#DejaVuSans-53"/>
       <use x="63.623047" xlink:href="#DejaVuSans-48"/>
      </g>
     </g>
    </g>
    <g id="xtick_3">
     <g id="line2d_5">
      <path clip-path="url(#p54bff164ed)" d="M 253.97146 378 
L 253.97146 51.84 
" style="fill:none;stroke:#b0b0b0;stroke-linecap:square;stroke-width:0.8;"/>
     </g>
     <g id="line2d_6">
      <g>
       <use style="stroke:#000000;stroke-width:0.8;" x="253.97146" xlink:href="#me24f8f8ed5" y="378"/>
      </g>
     </g>
     <g id="text_3">
      <!-- 100 -->
      <defs>
       <path d="M 12.40625 8.296875 
L 28.515625 8.296875 
L 28.515625 63.921875 
L 10.984375 60.40625 
L 10.984375 69.390625 
L 28.421875 72.90625 
L 38.28125 72.90625 
L 38.28125 8.296875 
L 54.390625 8.296875 
L 54.390625 0 
L 12.40625 0 
z
" id="DejaVuSans-49"/>
      </defs>
      <g transform="translate(244.42771 392.598437)scale(0.1 -0.1)">
       <use xlink:href="#DejaVuSans-49"/>
       <use x="63.623047" xlink:href="#DejaVuSans-48"/>
       <use x="127.246094" xlink:href="#DejaVuSans-48"/>
      </g>
     </g>
    </g>
    <g id="xtick_4">
     <g id="line2d_7">
      <path clip-path="url(#p54bff164ed)" d="M 334.811735 378 
L 334.811735 51.84 
" style="fill:none;stroke:#b0b0b0;stroke-linecap:square;stroke-width:0.8;"/>
     </g>
     <g id="line2d_8">
      <g>
       <use style="stroke:#000000;stroke-width:0.8;" x="334.811735" xlink:href="#me24f8f8ed5" y="378"/>
      </g>
     </g>
     <g id="text_4">
      <!-- 150 -->
      <g transform="translate(325.267985 392.598437)scale(0.1 -0.1)">
       <use xlink:href="#DejaVuSans-49"/>
       <use x="63.623047" xlink:href="#DejaVuSans-53"/>
       <use x="127.246094" xlink:href="#DejaVuSans-48"/>
      </g>
     </g>
    </g>
    <g id="xtick_5">
     <g id="line2d_9">
      <path clip-path="url(#p54bff164ed)" d="M 415.65201 378 
L 415.65201 51.84 
" style="fill:none;stroke:#b0b0b0;stroke-linecap:square;stroke-width:0.8;"/>
     </g>
     <g id="line2d_10">
      <g>
       <use style="stroke:#000000;stroke-width:0.8;" x="415.65201" xlink:href="#me24f8f8ed5" y="378"/>
      </g>
     </g>
     <g id="text_5">
      <!-- 200 -->
      <defs>
       <path d="M 19.1875 8.296875 
L 53.609375 8.296875 
L 53.609375 0 
L 7.328125 0 
L 7.328125 8.296875 
Q 12.9375 14.109375 22.625 23.890625 
Q 32.328125 33.6875 34.8125 36.53125 
Q 39.546875 41.84375 41.421875 45.53125 
Q 43.3125 49.21875 43.3125 52.78125 
Q 43.3125 58.59375 39.234375 62.25 
Q 35.15625 65.921875 28.609375 65.921875 
Q 23.96875 65.921875 18.8125 64.3125 
Q 13.671875 62.703125 7.8125 59.421875 
L 7.8125 69.390625 
Q 13.765625 71.78125 18.9375 73 
Q 24.125 74.21875 28.421875 74.21875 
Q 39.75 74.21875 46.484375 68.546875 
Q 53.21875 62.890625 53.21875 53.421875 
Q 53.21875 48.921875 51.53125 44.890625 
Q 49.859375 40.875 45.40625 35.40625 
Q 44.1875 33.984375 37.640625 27.21875 
Q 31.109375 20.453125 19.1875 8.296875 
z
" id="DejaVuSans-50"/>
      </defs>
      <g transform="translate(406.10826 392.598437)scale(0.1 -0.1)">
       <use xlink:href="#DejaVuSans-50"/>
       <use x="63.623047" xlink:href="#DejaVuSans-48"/>
       <use x="127.246094" xlink:href="#DejaVuSans-48"/>
      </g>
     </g>
    </g>
    <g id="xtick_6">
     <g id="line2d_11">
      <path clip-path="url(#p54bff164ed)" d="M 496.492285 378 
L 496.492285 51.84 
" style="fill:none;stroke:#b0b0b0;stroke-linecap:square;stroke-width:0.8;"/>
     </g>
     <g id="line2d_12">
      <g>
       <use style="stroke:#000000;stroke-width:0.8;" x="496.492285" xlink:href="#me24f8f8ed5" y="378"/>
      </g>
     </g>
     <g id="text_6">
      <!-- 250 -->
      <g transform="translate(486.948535 392.598437)scale(0.1 -0.1)">
       <use xlink:href="#DejaVuSans-50"/>
       <use x="63.623047" xlink:href="#DejaVuSans-53"/>
       <use x="127.246094" xlink:href="#DejaVuSans-48"/>
      </g>
     </g>
    </g>
    <g id="text_7">
     <!-- # Fitness Evaluations -->
     <defs>
      <path d="M 51.125 44 
L 36.921875 44 
L 32.8125 27.6875 
L 47.125 27.6875 
z
M 43.796875 71.78125 
L 38.71875 51.515625 
L 52.984375 51.515625 
L 58.109375 71.78125 
L 65.921875 71.78125 
L 60.890625 51.515625 
L 76.125 51.515625 
L 76.125 44 
L 58.984375 44 
L 54.984375 27.6875 
L 70.515625 27.6875 
L 70.515625 20.21875 
L 53.078125 20.21875 
L 48 0 
L 40.1875 0 
L 45.21875 20.21875 
L 30.90625 20.21875 
L 25.875 0 
L 18.015625 0 
L 23.09375 20.21875 
L 7.71875 20.21875 
L 7.71875 27.6875 
L 24.90625 27.6875 
L 29 44 
L 13.28125 44 
L 13.28125 51.515625 
L 30.90625 51.515625 
L 35.890625 71.78125 
z
" id="DejaVuSans-35"/>
      <path id="DejaVuSans-32"/>
      <path d="M 9.8125 72.90625 
L 51.703125 72.90625 
L 51.703125 64.59375 
L 19.671875 64.59375 
L 19.671875 43.109375 
L 48.578125 43.109375 
L 48.578125 34.8125 
L 19.671875 34.8125 
L 19.671875 0 
L 9.8125 0 
z
" id="DejaVuSans-70"/>
      <path d="M 9.421875 54.6875 
L 18.40625 54.6875 
L 18.40625 0 
L 9.421875 0 
z
M 9.421875 75.984375 
L 18.40625 75.984375 
L 18.40625 64.59375 
L 9.421875 64.59375 
z
" id="DejaVuSans-105"/>
      <path d="M 18.3125 70.21875 
L 18.3125 54.6875 
L 36.8125 54.6875 
L 36.8125 47.703125 
L 18.3125 47.703125 
L 18.3125 18.015625 
Q 18.3125 11.328125 20.140625 9.421875 
Q 21.96875 7.515625 27.59375 7.515625 
L 36.8125 7.515625 
L 36.8125 0 
L 27.59375 0 
Q 17.1875 0 13.234375 3.875 
Q 9.28125 7.765625 9.28125 18.015625 
L 9.28125 47.703125 
L 2.6875 47.703125 
L 2.6875 54.6875 
L 9.28125 54.6875 
L 9.28125 70.21875 
z
" id="DejaVuSans-116"/>
      <path d="M 54.890625 33.015625 
L 54.890625 0 
L 45.90625 0 
L 45.90625 32.71875 
Q 45.90625 40.484375 42.875 44.328125 
Q 39.84375 48.1875 33.796875 48.1875 
Q 26.515625 48.1875 22.3125 43.546875 
Q 18.109375 38.921875 18.109375 30.90625 
L 18.109375 0 
L 9.078125 0 
L 9.078125 54.6875 
L 18.109375 54.6875 
L 18.109375 46.1875 
Q 21.34375 51.125 25.703125 53.5625 
Q 30.078125 56 35.796875 56 
Q 45.21875 56 50.046875 50.171875 
Q 54.890625 44.34375 54.890625 33.015625 
z
" id="DejaVuSans-110"/>
      <path d="M 56.203125 29.59375 
L 56.203125 25.203125 
L 14.890625 25.203125 
Q 15.484375 15.921875 20.484375 11.0625 
Q 25.484375 6.203125 34.421875 6.203125 
Q 39.59375 6.203125 44.453125 7.46875 
Q 49.3125 8.734375 54.109375 11.28125 
L 54.109375 2.78125 
Q 49.265625 0.734375 44.1875 -0.34375 
Q 39.109375 -1.421875 33.890625 -1.421875 
Q 20.796875 -1.421875 13.15625 6.1875 
Q 5.515625 13.8125 5.515625 26.8125 
Q 5.515625 40.234375 12.765625 48.109375 
Q 20.015625 56 32.328125 56 
Q 43.359375 56 49.78125 48.890625 
Q 56.203125 41.796875 56.203125 29.59375 
z
M 47.21875 32.234375 
Q 47.125 39.59375 43.09375 43.984375 
Q 39.0625 48.390625 32.421875 48.390625 
Q 24.90625 48.390625 20.390625 44.140625 
Q 15.875 39.890625 15.1875 32.171875 
z
" id="DejaVuSans-101"/>
      <path d="M 44.28125 53.078125 
L 44.28125 44.578125 
Q 40.484375 46.53125 36.375 47.5 
Q 32.28125 48.484375 27.875 48.484375 
Q 21.1875 48.484375 17.84375 46.4375 
Q 14.5 44.390625 14.5 40.28125 
Q 14.5 37.15625 16.890625 35.375 
Q 19.28125 33.59375 26.515625 31.984375 
L 29.59375 31.296875 
Q 39.15625 29.25 43.1875 25.515625 
Q 47.21875 21.78125 47.21875 15.09375 
Q 47.21875 7.46875 41.1875 3.015625 
Q 35.15625 -1.421875 24.609375 -1.421875 
Q 20.21875 -1.421875 15.453125 -0.5625 
Q 10.6875 0.296875 5.421875 2 
L 5.421875 11.28125 
Q 10.40625 8.6875 15.234375 7.390625 
Q 20.0625 6.109375 24.8125 6.109375 
Q 31.15625 6.109375 34.5625 8.28125 
Q 37.984375 10.453125 37.984375 14.40625 
Q 37.984375 18.0625 35.515625 20.015625 
Q 33.0625 21.96875 24.703125 23.78125 
L 21.578125 24.515625 
Q 13.234375 26.265625 9.515625 29.90625 
Q 5.8125 33.546875 5.8125 39.890625 
Q 5.8125 47.609375 11.28125 51.796875 
Q 16.75 56 26.8125 56 
Q 31.78125 56 36.171875 55.265625 
Q 40.578125 54.546875 44.28125 53.078125 
z
" id="DejaVuSans-115"/>
      <path d="M 9.8125 72.90625 
L 55.90625 72.90625 
L 55.90625 64.59375 
L 19.671875 64.59375 
L 19.671875 43.015625 
L 54.390625 43.015625 
L 54.390625 34.71875 
L 19.671875 34.71875 
L 19.671875 8.296875 
L 56.78125 8.296875 
L 56.78125 0 
L 9.8125 0 
z
" id="DejaVuSans-69"/>
      <path d="M 2.984375 54.6875 
L 12.5 54.6875 
L 29.59375 8.796875 
L 46.6875 54.6875 
L 56.203125 54.6875 
L 35.6875 0 
L 23.484375 0 
z
" id="DejaVuSans-118"/>
      <path d="M 34.28125 27.484375 
Q 23.390625 27.484375 19.1875 25 
Q 14.984375 22.515625 14.984375 16.5 
Q 14.984375 11.71875 18.140625 8.90625 
Q 21.296875 6.109375 26.703125 6.109375 
Q 34.1875 6.109375 38.703125 11.40625 
Q 43.21875 16.703125 43.21875 25.484375 
L 43.21875 27.484375 
z
M 52.203125 31.203125 
L 52.203125 0 
L 43.21875 0 
L 43.21875 8.296875 
Q 40.140625 3.328125 35.546875 0.953125 
Q 30.953125 -1.421875 24.3125 -1.421875 
Q 15.921875 -1.421875 10.953125 3.296875 
Q 6 8.015625 6 15.921875 
Q 6 25.140625 12.171875 29.828125 
Q 18.359375 34.515625 30.609375 34.515625 
L 43.21875 34.515625 
L 43.21875 35.40625 
Q 43.21875 41.609375 39.140625 45 
Q 35.0625 48.390625 27.6875 48.390625 
Q 23 48.390625 18.546875 47.265625 
Q 14.109375 46.140625 10.015625 43.890625 
L 10.015625 52.203125 
Q 14.9375 54.109375 19.578125 55.046875 
Q 24.21875 56 28.609375 56 
Q 40.484375 56 46.34375 49.84375 
Q 52.203125 43.703125 52.203125 31.203125 
z
" id="DejaVuSans-97"/>
      <path d="M 9.421875 75.984375 
L 18.40625 75.984375 
L 18.40625 0 
L 9.421875 0 
z
" id="DejaVuSans-108"/>
      <path d="M 8.5 21.578125 
L 8.5 54.6875 
L 17.484375 54.6875 
L 17.484375 21.921875 
Q 17.484375 14.15625 20.5 10.265625 
Q 23.53125 6.390625 29.59375 6.390625 
Q 36.859375 6.390625 41.078125 11.03125 
Q 45.3125 15.671875 45.3125 23.6875 
L 45.3125 54.6875 
L 54.296875 54.6875 
L 54.296875 0 
L 45.3125 0 
L 45.3125 8.40625 
Q 42.046875 3.421875 37.71875 1 
Q 33.40625 -1.421875 27.6875 -1.421875 
Q 18.265625 -1.421875 13.375 4.4375 
Q 8.5 10.296875 8.5 21.578125 
z
M 31.109375 56 
z
" id="DejaVuSans-117"/>
      <path d="M 30.609375 48.390625 
Q 23.390625 48.390625 19.1875 42.75 
Q 14.984375 37.109375 14.984375 27.296875 
Q 14.984375 17.484375 19.15625 11.84375 
Q 23.34375 6.203125 30.609375 6.203125 
Q 37.796875 6.203125 41.984375 11.859375 
Q 46.1875 17.53125 46.1875 27.296875 
Q 46.1875 37.015625 41.984375 42.703125 
Q 37.796875 48.390625 30.609375 48.390625 
z
M 30.609375 56 
Q 42.328125 56 49.015625 48.375 
Q 55.71875 40.765625 55.71875 27.296875 
Q 55.71875 13.875 49.015625 6.21875 
Q 42.328125 -1.421875 30.609375 -1.421875 
Q 18.84375 -1.421875 12.171875 6.21875 
Q 5.515625 13.875 5.515625 27.296875 
Q 5.515625 40.765625 12.171875 48.375 
Q 18.84375 56 30.609375 56 
z
" id="DejaVuSans-111"/>
     </defs>
     <g transform="translate(241.171094 406.276563)scale(0.1 -0.1)">
      <use xlink:href="#DejaVuSans-35"/>
      <use x="83.789062" xlink:href="#DejaVuSans-32"/>
      <use x="115.576172" xlink:href="#DejaVuSans-70"/>
      <use x="172.986328" xlink:href="#DejaVuSans-105"/>
      <use x="200.769531" xlink:href="#DejaVuSans-116"/>
      <use x="239.978516" xlink:href="#DejaVuSans-110"/>
      <use x="303.357422" xlink:href="#DejaVuSans-101"/>
      <use x="364.880859" xlink:href="#DejaVuSans-115"/>
      <use x="416.980469" xlink:href="#DejaVuSans-115"/>
      <use x="469.080078" xlink:href="#DejaVuSans-32"/>
      <use x="500.867188" xlink:href="#DejaVuSans-69"/>
      <use x="564.050781" xlink:href="#DejaVuSans-118"/>
      <use x="623.230469" xlink:href="#DejaVuSans-97"/>
      <use x="684.509766" xlink:href="#DejaVuSans-108"/>
      <use x="712.292969" xlink:href="#DejaVuSans-117"/>
      <use x="775.671875" xlink:href="#DejaVuSans-97"/>
      <use x="836.951172" xlink:href="#DejaVuSans-116"/>
      <use x="876.160156" xlink:href="#DejaVuSans-105"/>
      <use x="903.943359" xlink:href="#DejaVuSans-111"/>
      <use x="965.125" xlink:href="#DejaVuSans-110"/>
      <use x="1028.503906" xlink:href="#DejaVuSans-115"/>
     </g>
    </g>
   </g>
   <g id="matplotlib.axis_2">
    <g id="ytick_1">
     <g id="line2d_13">
      <path clip-path="url(#p54bff164ed)" d="M 72 373.303811 
L 518.4 373.303811 
" style="fill:none;stroke:#b0b0b0;stroke-linecap:square;stroke-width:0.8;"/>
     </g>
     <g id="line2d_14">
      <defs>
       <path d="M 0 0 
L -3.5 0 
" id="m79a95d7336" style="stroke:#000000;stroke-width:0.8;"/>
      </defs>
      <g>
       <use style="stroke:#000000;stroke-width:0.8;" x="72" xlink:href="#m79a95d7336" y="373.303811"/>
      </g>
     </g>
     <g id="text_8">
      <!-- 10 -->
      <g transform="translate(52.275 377.10303)scale(0.1 -0.1)">
       <use xlink:href="#DejaVuSans-49"/>
       <use x="63.623047" xlink:href="#DejaVuSans-48"/>
      </g>
     </g>
    </g>
    <g id="ytick_2">
     <g id="line2d_15">
      <path clip-path="url(#p54bff164ed)" d="M 72 326.155582 
L 518.4 326.155582 
" style="fill:none;stroke:#b0b0b0;stroke-linecap:square;stroke-width:0.8;"/>
     </g>
     <g id="line2d_16">
      <g>
       <use style="stroke:#000000;stroke-width:0.8;" x="72" xlink:href="#m79a95d7336" y="326.155582"/>
      </g>
     </g>
     <g id="text_9">
      <!-- 20 -->
      <g transform="translate(52.275 329.9548)scale(0.1 -0.1)">
       <use xlink:href="#DejaVuSans-50"/>
       <use x="63.623047" xlink:href="#DejaVuSans-48"/>
      </g>
     </g>
    </g>
    <g id="ytick_3">
     <g id="line2d_17">
      <path clip-path="url(#p54bff164ed)" d="M 72 279.007352 
L 518.4 279.007352 
" style="fill:none;stroke:#b0b0b0;stroke-linecap:square;stroke-width:0.8;"/>
     </g>
     <g id="line2d_18">
      <g>
       <use style="stroke:#000000;stroke-width:0.8;" x="72" xlink:href="#m79a95d7336" y="279.007352"/>
      </g>
     </g>
     <g id="text_10">
      <!-- 30 -->
      <defs>
       <path d="M 40.578125 39.3125 
Q 47.65625 37.796875 51.625 33 
Q 55.609375 28.21875 55.609375 21.1875 
Q 55.609375 10.40625 48.1875 4.484375 
Q 40.765625 -1.421875 27.09375 -1.421875 
Q 22.515625 -1.421875 17.65625 -0.515625 
Q 12.796875 0.390625 7.625 2.203125 
L 7.625 11.71875 
Q 11.71875 9.328125 16.59375 8.109375 
Q 21.484375 6.890625 26.8125 6.890625 
Q 36.078125 6.890625 40.9375 10.546875 
Q 45.796875 14.203125 45.796875 21.1875 
Q 45.796875 27.640625 41.28125 31.265625 
Q 36.765625 34.90625 28.71875 34.90625 
L 20.21875 34.90625 
L 20.21875 43.015625 
L 29.109375 43.015625 
Q 36.375 43.015625 40.234375 45.921875 
Q 44.09375 48.828125 44.09375 54.296875 
Q 44.09375 59.90625 40.109375 62.90625 
Q 36.140625 65.921875 28.71875 65.921875 
Q 24.65625 65.921875 20.015625 65.03125 
Q 15.375 64.15625 9.8125 62.3125 
L 9.8125 71.09375 
Q 15.4375 72.65625 20.34375 73.4375 
Q 25.25 74.21875 29.59375 74.21875 
Q 40.828125 74.21875 47.359375 69.109375 
Q 53.90625 64.015625 53.90625 55.328125 
Q 53.90625 49.265625 50.4375 45.09375 
Q 46.96875 40.921875 40.578125 39.3125 
z
" id="DejaVuSans-51"/>
      </defs>
      <g transform="translate(52.275 282.806571)scale(0.1 -0.1)">
       <use xlink:href="#DejaVuSans-51"/>
       <use x="63.623047" xlink:href="#DejaVuSans-48"/>
      </g>
     </g>
    </g>
    <g id="ytick_4">
     <g id="line2d_19">
      <path clip-path="url(#p54bff164ed)" d="M 72 231.859123 
L 518.4 231.859123 
" style="fill:none;stroke:#b0b0b0;stroke-linecap:square;stroke-width:0.8;"/>
     </g>
     <g id="line2d_20">
      <g>
       <use style="stroke:#000000;stroke-width:0.8;" x="72" xlink:href="#m79a95d7336" y="231.859123"/>
      </g>
     </g>
     <g id="text_11">
      <!-- 40 -->
      <defs>
       <path d="M 37.796875 64.3125 
L 12.890625 25.390625 
L 37.796875 25.390625 
z
M 35.203125 72.90625 
L 47.609375 72.90625 
L 47.609375 25.390625 
L 58.015625 25.390625 
L 58.015625 17.1875 
L 47.609375 17.1875 
L 47.609375 0 
L 37.796875 0 
L 37.796875 17.1875 
L 4.890625 17.1875 
L 4.890625 26.703125 
z
" id="DejaVuSans-52"/>
      </defs>
      <g transform="translate(52.275 235.658342)scale(0.1 -0.1)">
       <use xlink:href="#DejaVuSans-52"/>
       <use x="63.623047" xlink:href="#DejaVuSans-48"/>
      </g>
     </g>
    </g>
    <g id="ytick_5">
     <g id="line2d_21">
      <path clip-path="url(#p54bff164ed)" d="M 72 184.710894 
L 518.4 184.710894 
" style="fill:none;stroke:#b0b0b0;stroke-linecap:square;stroke-width:0.8;"/>
     </g>
     <g id="line2d_22">
      <g>
       <use style="stroke:#000000;stroke-width:0.8;" x="72" xlink:href="#m79a95d7336" y="184.710894"/>
      </g>
     </g>
     <g id="text_12">
      <!-- 50 -->
      <g transform="translate(52.275 188.510113)scale(0.1 -0.1)">
       <use xlink:href="#DejaVuSans-53"/>
       <use x="63.623047" xlink:href="#DejaVuSans-48"/>
      </g>
     </g>
    </g>
    <g id="ytick_6">
     <g id="line2d_23">
      <path clip-path="url(#p54bff164ed)" d="M 72 137.562665 
L 518.4 137.562665 
" style="fill:none;stroke:#b0b0b0;stroke-linecap:square;stroke-width:0.8;"/>
     </g>
     <g id="line2d_24">
      <g>
       <use style="stroke:#000000;stroke-width:0.8;" x="72" xlink:href="#m79a95d7336" y="137.562665"/>
      </g>
     </g>
     <g id="text_13">
      <!-- 60 -->
      <defs>
       <path d="M 33.015625 40.375 
Q 26.375 40.375 22.484375 35.828125 
Q 18.609375 31.296875 18.609375 23.390625 
Q 18.609375 15.53125 22.484375 10.953125 
Q 26.375 6.390625 33.015625 6.390625 
Q 39.65625 6.390625 43.53125 10.953125 
Q 47.40625 15.53125 47.40625 23.390625 
Q 47.40625 31.296875 43.53125 35.828125 
Q 39.65625 40.375 33.015625 40.375 
z
M 52.59375 71.296875 
L 52.59375 62.3125 
Q 48.875 64.0625 45.09375 64.984375 
Q 41.3125 65.921875 37.59375 65.921875 
Q 27.828125 65.921875 22.671875 59.328125 
Q 17.53125 52.734375 16.796875 39.40625 
Q 19.671875 43.65625 24.015625 45.921875 
Q 28.375 48.1875 33.59375 48.1875 
Q 44.578125 48.1875 50.953125 41.515625 
Q 57.328125 34.859375 57.328125 23.390625 
Q 57.328125 12.15625 50.6875 5.359375 
Q 44.046875 -1.421875 33.015625 -1.421875 
Q 20.359375 -1.421875 13.671875 8.265625 
Q 6.984375 17.96875 6.984375 36.375 
Q 6.984375 53.65625 15.1875 63.9375 
Q 23.390625 74.21875 37.203125 74.21875 
Q 40.921875 74.21875 44.703125 73.484375 
Q 48.484375 72.75 52.59375 71.296875 
z
" id="DejaVuSans-54"/>
      </defs>
      <g transform="translate(52.275 141.361884)scale(0.1 -0.1)">
       <use xlink:href="#DejaVuSans-54"/>
       <use x="63.623047" xlink:href="#DejaVuSans-48"/>
      </g>
     </g>
    </g>
    <g id="ytick_7">
     <g id="line2d_25">
      <path clip-path="url(#p54bff164ed)" d="M 72 90.414436 
L 518.4 90.414436 
" style="fill:none;stroke:#b0b0b0;stroke-linecap:square;stroke-width:0.8;"/>
     </g>
     <g id="line2d_26">
      <g>
       <use style="stroke:#000000;stroke-width:0.8;" x="72" xlink:href="#m79a95d7336" y="90.414436"/>
      </g>
     </g>
     <g id="text_14">
      <!-- 70 -->
      <defs>
       <path d="M 8.203125 72.90625 
L 55.078125 72.90625 
L 55.078125 68.703125 
L 28.609375 0 
L 18.3125 0 
L 43.21875 64.59375 
L 8.203125 64.59375 
z
" id="DejaVuSans-55"/>
      </defs>
      <g transform="translate(52.275 94.213654)scale(0.1 -0.1)">
       <use xlink:href="#DejaVuSans-55"/>
       <use x="63.623047" xlink:href="#DejaVuSans-48"/>
      </g>
     </g>
    </g>
    <g id="text_15">
     <!-- 100 - SMAPE% -->
     <defs>
      <path d="M 4.890625 31.390625 
L 31.203125 31.390625 
L 31.203125 23.390625 
L 4.890625 23.390625 
z
" id="DejaVuSans-45"/>
      <path d="M 53.515625 70.515625 
L 53.515625 60.890625 
Q 47.90625 63.578125 42.921875 64.890625 
Q 37.9375 66.21875 33.296875 66.21875 
Q 25.25 66.21875 20.875 63.09375 
Q 16.5 59.96875 16.5 54.203125 
Q 16.5 49.359375 19.40625 46.890625 
Q 22.3125 44.4375 30.421875 42.921875 
L 36.375 41.703125 
Q 47.40625 39.59375 52.65625 34.296875 
Q 57.90625 29 57.90625 20.125 
Q 57.90625 9.515625 50.796875 4.046875 
Q 43.703125 -1.421875 29.984375 -1.421875 
Q 24.8125 -1.421875 18.96875 -0.25 
Q 13.140625 0.921875 6.890625 3.21875 
L 6.890625 13.375 
Q 12.890625 10.015625 18.65625 8.296875 
Q 24.421875 6.59375 29.984375 6.59375 
Q 38.421875 6.59375 43.015625 9.90625 
Q 47.609375 13.234375 47.609375 19.390625 
Q 47.609375 24.75 44.3125 27.78125 
Q 41.015625 30.8125 33.5 32.328125 
L 27.484375 33.5 
Q 16.453125 35.6875 11.515625 40.375 
Q 6.59375 45.0625 6.59375 53.421875 
Q 6.59375 63.09375 13.40625 68.65625 
Q 20.21875 74.21875 32.171875 74.21875 
Q 37.3125 74.21875 42.625 73.28125 
Q 47.953125 72.359375 53.515625 70.515625 
z
" id="DejaVuSans-83"/>
      <path d="M 9.8125 72.90625 
L 24.515625 72.90625 
L 43.109375 23.296875 
L 61.8125 72.90625 
L 76.515625 72.90625 
L 76.515625 0 
L 66.890625 0 
L 66.890625 64.015625 
L 48.09375 14.015625 
L 38.1875 14.015625 
L 19.390625 64.015625 
L 19.390625 0 
L 9.8125 0 
z
" id="DejaVuSans-77"/>
      <path d="M 34.1875 63.1875 
L 20.796875 26.90625 
L 47.609375 26.90625 
z
M 28.609375 72.90625 
L 39.796875 72.90625 
L 67.578125 0 
L 57.328125 0 
L 50.6875 18.703125 
L 17.828125 18.703125 
L 11.1875 0 
L 0.78125 0 
z
" id="DejaVuSans-65"/>
      <path d="M 19.671875 64.796875 
L 19.671875 37.40625 
L 32.078125 37.40625 
Q 38.96875 37.40625 42.71875 40.96875 
Q 46.484375 44.53125 46.484375 51.125 
Q 46.484375 57.671875 42.71875 61.234375 
Q 38.96875 64.796875 32.078125 64.796875 
z
M 9.8125 72.90625 
L 32.078125 72.90625 
Q 44.34375 72.90625 50.609375 67.359375 
Q 56.890625 61.8125 56.890625 51.125 
Q 56.890625 40.328125 50.609375 34.8125 
Q 44.34375 29.296875 32.078125 29.296875 
L 19.671875 29.296875 
L 19.671875 0 
L 9.8125 0 
z
" id="DejaVuSans-80"/>
      <path d="M 72.703125 32.078125 
Q 68.453125 32.078125 66.03125 28.46875 
Q 63.625 24.859375 63.625 18.40625 
Q 63.625 12.0625 66.03125 8.421875 
Q 68.453125 4.78125 72.703125 4.78125 
Q 76.859375 4.78125 79.265625 8.421875 
Q 81.6875 12.0625 81.6875 18.40625 
Q 81.6875 24.8125 79.265625 28.4375 
Q 76.859375 32.078125 72.703125 32.078125 
z
M 72.703125 38.28125 
Q 80.421875 38.28125 84.953125 32.90625 
Q 89.5 27.546875 89.5 18.40625 
Q 89.5 9.28125 84.9375 3.921875 
Q 80.375 -1.421875 72.703125 -1.421875 
Q 64.890625 -1.421875 60.34375 3.921875 
Q 55.8125 9.28125 55.8125 18.40625 
Q 55.8125 27.59375 60.375 32.9375 
Q 64.9375 38.28125 72.703125 38.28125 
z
M 22.3125 68.015625 
Q 18.109375 68.015625 15.6875 64.375 
Q 13.28125 60.75 13.28125 54.390625 
Q 13.28125 47.953125 15.671875 44.328125 
Q 18.0625 40.71875 22.3125 40.71875 
Q 26.5625 40.71875 28.96875 44.328125 
Q 31.390625 47.953125 31.390625 54.390625 
Q 31.390625 60.6875 28.953125 64.34375 
Q 26.515625 68.015625 22.3125 68.015625 
z
M 66.40625 74.21875 
L 74.21875 74.21875 
L 28.609375 -1.421875 
L 20.796875 -1.421875 
z
M 22.3125 74.21875 
Q 30.03125 74.21875 34.609375 68.875 
Q 39.203125 63.53125 39.203125 54.390625 
Q 39.203125 45.171875 34.640625 39.84375 
Q 30.078125 34.515625 22.3125 34.515625 
Q 14.546875 34.515625 10.03125 39.859375 
Q 5.515625 45.21875 5.515625 54.390625 
Q 5.515625 63.484375 10.046875 68.84375 
Q 14.59375 74.21875 22.3125 74.21875 
z
" id="DejaVuSans-37"/>
     </defs>
     <g transform="translate(46.195312 251.279375)rotate(-90)scale(0.1 -0.1)">
      <use xlink:href="#DejaVuSans-49"/>
      <use x="63.623047" xlink:href="#DejaVuSans-48"/>
      <use x="127.246094" xlink:href="#DejaVuSans-48"/>
      <use x="190.869141" xlink:href="#DejaVuSans-32"/>
      <use x="222.65625" xlink:href="#DejaVuSans-45"/>
      <use x="258.740234" xlink:href="#DejaVuSans-32"/>
      <use x="290.527344" xlink:href="#DejaVuSans-83"/>
      <use x="354.003906" xlink:href="#DejaVuSans-77"/>
      <use x="440.283203" xlink:href="#DejaVuSans-65"/>
      <use x="508.691406" xlink:href="#DejaVuSans-80"/>
      <use x="568.994141" xlink:href="#DejaVuSans-69"/>
      <use x="632.177734" xlink:href="#DejaVuSans-37"/>
     </g>
    </g>
   </g>
   <g id="line2d_27">
    <defs>
     <path d="M -3 3 
L 3 -3 
M -3 -3 
L 3 3 
" id="ma70110db17" style="stroke:#1f77b4;"/>
    </defs>
    <g clip-path="url(#p54bff164ed)">
     <use style="fill:#1f77b4;stroke:#1f77b4;" x="92.290909" xlink:href="#ma70110db17" y="121.594808"/>
     <use style="fill:#1f77b4;stroke:#1f77b4;" x="93.907715" xlink:href="#ma70110db17" y="101.140581"/>
     <use style="fill:#1f77b4;stroke:#1f77b4;" x="95.52452" xlink:href="#ma70110db17" y="79.905087"/>
     <use style="fill:#1f77b4;stroke:#1f77b4;" x="97.141326" xlink:href="#ma70110db17" y="95.386944"/>
     <use style="fill:#1f77b4;stroke:#1f77b4;" x="98.758131" xlink:href="#ma70110db17" y="69.30239"/>
     <use style="fill:#1f77b4;stroke:#1f77b4;" x="100.374937" xlink:href="#ma70110db17" y="76.910694"/>
     <use style="fill:#1f77b4;stroke:#1f77b4;" x="101.991742" xlink:href="#ma70110db17" y="112.773299"/>
     <use style="fill:#1f77b4;stroke:#1f77b4;" x="103.608548" xlink:href="#ma70110db17" y="105.913547"/>
     <use style="fill:#1f77b4;stroke:#1f77b4;" x="105.225353" xlink:href="#ma70110db17" y="77.154829"/>
     <use style="fill:#1f77b4;stroke:#1f77b4;" x="106.842159" xlink:href="#ma70110db17" y="71.527904"/>
     <use style="fill:#1f77b4;stroke:#1f77b4;" x="108.458964" xlink:href="#ma70110db17" y="110.964257"/>
     <use style="fill:#1f77b4;stroke:#1f77b4;" x="110.07577" xlink:href="#ma70110db17" y="93.762529"/>
     <use style="fill:#1f77b4;stroke:#1f77b4;" x="111.692575" xlink:href="#ma70110db17" y="110.802675"/>
     <use style="fill:#1f77b4;stroke:#1f77b4;" x="113.309381" xlink:href="#ma70110db17" y="70.165539"/>
     <use style="fill:#1f77b4;stroke:#1f77b4;" x="114.926186" xlink:href="#ma70110db17" y="74.588287"/>
     <use style="fill:#1f77b4;stroke:#1f77b4;" x="116.542992" xlink:href="#ma70110db17" y="99.150595"/>
     <use style="fill:#1f77b4;stroke:#1f77b4;" x="118.159797" xlink:href="#ma70110db17" y="71.339276"/>
     <use style="fill:#1f77b4;stroke:#1f77b4;" x="119.776603" xlink:href="#ma70110db17" y="72.176734"/>
     <use style="fill:#1f77b4;stroke:#1f77b4;" x="121.393408" xlink:href="#ma70110db17" y="78.786174"/>
     <use style="fill:#1f77b4;stroke:#1f77b4;" x="123.010214" xlink:href="#ma70110db17" y="79.324097"/>
     <use style="fill:#1f77b4;stroke:#1f77b4;" x="124.627019" xlink:href="#ma70110db17" y="78.563076"/>
     <use style="fill:#1f77b4;stroke:#1f77b4;" x="126.243825" xlink:href="#ma70110db17" y="112.60255"/>
     <use style="fill:#1f77b4;stroke:#1f77b4;" x="127.86063" xlink:href="#ma70110db17" y="107.869812"/>
     <use style="fill:#1f77b4;stroke:#1f77b4;" x="129.477436" xlink:href="#ma70110db17" y="107.974049"/>
     <use style="fill:#1f77b4;stroke:#1f77b4;" x="131.094241" xlink:href="#ma70110db17" y="70.362423"/>
     <use style="fill:#1f77b4;stroke:#1f77b4;" x="132.711047" xlink:href="#ma70110db17" y="97.126236"/>
     <use style="fill:#1f77b4;stroke:#1f77b4;" x="134.327852" xlink:href="#ma70110db17" y="76.324745"/>
     <use style="fill:#1f77b4;stroke:#1f77b4;" x="135.944658" xlink:href="#ma70110db17" y="105.357283"/>
     <use style="fill:#1f77b4;stroke:#1f77b4;" x="137.561463" xlink:href="#ma70110db17" y="68.613192"/>
     <use style="fill:#1f77b4;stroke:#1f77b4;" x="139.178269" xlink:href="#ma70110db17" y="84.77079"/>
     <use style="fill:#1f77b4;stroke:#1f77b4;" x="140.795074" xlink:href="#ma70110db17" y="77.167006"/>
     <use style="fill:#1f77b4;stroke:#1f77b4;" x="142.41188" xlink:href="#ma70110db17" y="77.425322"/>
     <use style="fill:#1f77b4;stroke:#1f77b4;" x="144.028685" xlink:href="#ma70110db17" y="82.478886"/>
     <use style="fill:#1f77b4;stroke:#1f77b4;" x="145.645491" xlink:href="#ma70110db17" y="94.332048"/>
     <use style="fill:#1f77b4;stroke:#1f77b4;" x="147.262296" xlink:href="#ma70110db17" y="71.909592"/>
     <use style="fill:#1f77b4;stroke:#1f77b4;" x="148.879102" xlink:href="#ma70110db17" y="109.681981"/>
     <use style="fill:#1f77b4;stroke:#1f77b4;" x="150.495907" xlink:href="#ma70110db17" y="87.367072"/>
     <use style="fill:#1f77b4;stroke:#1f77b4;" x="152.112713" xlink:href="#ma70110db17" y="89.005517"/>
     <use style="fill:#1f77b4;stroke:#1f77b4;" x="153.729518" xlink:href="#ma70110db17" y="75.1272"/>
     <use style="fill:#1f77b4;stroke:#1f77b4;" x="155.346324" xlink:href="#ma70110db17" y="103.715269"/>
     <use style="fill:#1f77b4;stroke:#1f77b4;" x="156.963129" xlink:href="#ma70110db17" y="75.45552"/>
     <use style="fill:#1f77b4;stroke:#1f77b4;" x="158.579935" xlink:href="#ma70110db17" y="68.781066"/>
     <use style="fill:#1f77b4;stroke:#1f77b4;" x="160.19674" xlink:href="#ma70110db17" y="111.266085"/>
     <use style="fill:#1f77b4;stroke:#1f77b4;" x="161.813546" xlink:href="#ma70110db17" y="86.557669"/>
     <use style="fill:#1f77b4;stroke:#1f77b4;" x="163.430351" xlink:href="#ma70110db17" y="76.342957"/>
     <use style="fill:#1f77b4;stroke:#1f77b4;" x="165.047157" xlink:href="#ma70110db17" y="72.535905"/>
     <use style="fill:#1f77b4;stroke:#1f77b4;" x="166.663962" xlink:href="#ma70110db17" y="87.811985"/>
     <use style="fill:#1f77b4;stroke:#1f77b4;" x="168.280768" xlink:href="#ma70110db17" y="95.356477"/>
     <use style="fill:#1f77b4;stroke:#1f77b4;" x="169.897573" xlink:href="#ma70110db17" y="76.499944"/>
     <use style="fill:#1f77b4;stroke:#1f77b4;" x="171.514379" xlink:href="#ma70110db17" y="96.086164"/>
     <use style="fill:#1f77b4;stroke:#1f77b4;" x="173.131184" xlink:href="#ma70110db17" y="71.320383"/>
     <use style="fill:#1f77b4;stroke:#1f77b4;" x="174.74799" xlink:href="#ma70110db17" y="85.267016"/>
     <use style="fill:#1f77b4;stroke:#1f77b4;" x="176.364795" xlink:href="#ma70110db17" y="119.282986"/>
     <use style="fill:#1f77b4;stroke:#1f77b4;" x="177.981601" xlink:href="#ma70110db17" y="83.907828"/>
     <use style="fill:#1f77b4;stroke:#1f77b4;" x="179.598406" xlink:href="#ma70110db17" y="75.920713"/>
     <use style="fill:#1f77b4;stroke:#1f77b4;" x="181.215212" xlink:href="#ma70110db17" y="88.257535"/>
     <use style="fill:#1f77b4;stroke:#1f77b4;" x="182.832017" xlink:href="#ma70110db17" y="92.51497"/>
     <use style="fill:#1f77b4;stroke:#1f77b4;" x="184.448823" xlink:href="#ma70110db17" y="81.749619"/>
     <use style="fill:#1f77b4;stroke:#1f77b4;" x="186.065628" xlink:href="#ma70110db17" y="83.318588"/>
     <use style="fill:#1f77b4;stroke:#1f77b4;" x="187.682434" xlink:href="#ma70110db17" y="122.067627"/>
     <use style="fill:#1f77b4;stroke:#1f77b4;" x="189.299239" xlink:href="#ma70110db17" y="122.823284"/>
     <use style="fill:#1f77b4;stroke:#1f77b4;" x="190.916045" xlink:href="#ma70110db17" y="74.813896"/>
     <use style="fill:#1f77b4;stroke:#1f77b4;" x="192.53285" xlink:href="#ma70110db17" y="83.644323"/>
     <use style="fill:#1f77b4;stroke:#1f77b4;" x="194.149656" xlink:href="#ma70110db17" y="75.416656"/>
     <use style="fill:#1f77b4;stroke:#1f77b4;" x="195.766461" xlink:href="#ma70110db17" y="80.835235"/>
     <use style="fill:#1f77b4;stroke:#1f77b4;" x="197.383267" xlink:href="#ma70110db17" y="137.589761"/>
     <use style="fill:#1f77b4;stroke:#1f77b4;" x="199.000072" xlink:href="#ma70110db17" y="87.486884"/>
     <use style="fill:#1f77b4;stroke:#1f77b4;" x="200.616878" xlink:href="#ma70110db17" y="79.210538"/>
     <use style="fill:#1f77b4;stroke:#1f77b4;" x="202.233683" xlink:href="#ma70110db17" y="110.997098"/>
     <use style="fill:#1f77b4;stroke:#1f77b4;" x="203.850489" xlink:href="#ma70110db17" y="78.236965"/>
     <use style="fill:#1f77b4;stroke:#1f77b4;" x="205.467294" xlink:href="#ma70110db17" y="80.424165"/>
     <use style="fill:#1f77b4;stroke:#1f77b4;" x="207.0841" xlink:href="#ma70110db17" y="109.035984"/>
     <use style="fill:#1f77b4;stroke:#1f77b4;" x="208.700905" xlink:href="#ma70110db17" y="71.977554"/>
     <use style="fill:#1f77b4;stroke:#1f77b4;" x="210.317711" xlink:href="#ma70110db17" y="85.873864"/>
     <use style="fill:#1f77b4;stroke:#1f77b4;" x="211.934516" xlink:href="#ma70110db17" y="118.92171"/>
     <use style="fill:#1f77b4;stroke:#1f77b4;" x="213.551322" xlink:href="#ma70110db17" y="77.548272"/>
     <use style="fill:#1f77b4;stroke:#1f77b4;" x="215.168127" xlink:href="#ma70110db17" y="94.62358"/>
     <use style="fill:#1f77b4;stroke:#1f77b4;" x="216.784933" xlink:href="#ma70110db17" y="95.013944"/>
     <use style="fill:#1f77b4;stroke:#1f77b4;" x="218.401739" xlink:href="#ma70110db17" y="73.863116"/>
     <use style="fill:#1f77b4;stroke:#1f77b4;" x="220.018544" xlink:href="#ma70110db17" y="92.748118"/>
     <use style="fill:#1f77b4;stroke:#1f77b4;" x="221.63535" xlink:href="#ma70110db17" y="114.84628"/>
     <use style="fill:#1f77b4;stroke:#1f77b4;" x="223.252155" xlink:href="#ma70110db17" y="93.55249"/>
     <use style="fill:#1f77b4;stroke:#1f77b4;" x="224.868961" xlink:href="#ma70110db17" y="71.463719"/>
     <use style="fill:#1f77b4;stroke:#1f77b4;" x="226.485766" xlink:href="#ma70110db17" y="87.366768"/>
     <use style="fill:#1f77b4;stroke:#1f77b4;" x="228.102572" xlink:href="#ma70110db17" y="123.531027"/>
     <use style="fill:#1f77b4;stroke:#1f77b4;" x="229.719377" xlink:href="#ma70110db17" y="113.051254"/>
     <use style="fill:#1f77b4;stroke:#1f77b4;" x="231.336183" xlink:href="#ma70110db17" y="106.714094"/>
     <use style="fill:#1f77b4;stroke:#1f77b4;" x="232.952988" xlink:href="#ma70110db17" y="87.030326"/>
     <use style="fill:#1f77b4;stroke:#1f77b4;" x="234.569794" xlink:href="#ma70110db17" y="78.200824"/>
     <use style="fill:#1f77b4;stroke:#1f77b4;" x="236.186599" xlink:href="#ma70110db17" y="72.504415"/>
     <use style="fill:#1f77b4;stroke:#1f77b4;" x="237.803405" xlink:href="#ma70110db17" y="80.606311"/>
     <use style="fill:#1f77b4;stroke:#1f77b4;" x="239.42021" xlink:href="#ma70110db17" y="82.449842"/>
     <use style="fill:#1f77b4;stroke:#1f77b4;" x="241.037016" xlink:href="#ma70110db17" y="105.61487"/>
     <use style="fill:#1f77b4;stroke:#1f77b4;" x="242.653821" xlink:href="#ma70110db17" y="82.806754"/>
     <use style="fill:#1f77b4;stroke:#1f77b4;" x="244.270627" xlink:href="#ma70110db17" y="82.732066"/>
     <use style="fill:#1f77b4;stroke:#1f77b4;" x="245.887432" xlink:href="#ma70110db17" y="70.646818"/>
     <use style="fill:#1f77b4;stroke:#1f77b4;" x="247.504238" xlink:href="#ma70110db17" y="76.592135"/>
     <use style="fill:#1f77b4;stroke:#1f77b4;" x="249.121043" xlink:href="#ma70110db17" y="73.934983"/>
     <use style="fill:#1f77b4;stroke:#1f77b4;" x="250.737849" xlink:href="#ma70110db17" y="71.666956"/>
     <use style="fill:#1f77b4;stroke:#1f77b4;" x="252.354654" xlink:href="#ma70110db17" y="77.733957"/>
     <use style="fill:#1f77b4;stroke:#1f77b4;" x="253.97146" xlink:href="#ma70110db17" y="96.213555"/>
     <use style="fill:#1f77b4;stroke:#1f77b4;" x="255.588265" xlink:href="#ma70110db17" y="107.744088"/>
     <use style="fill:#1f77b4;stroke:#1f77b4;" x="257.205071" xlink:href="#ma70110db17" y="77.914917"/>
     <use style="fill:#1f77b4;stroke:#1f77b4;" x="258.821876" xlink:href="#ma70110db17" y="114.890149"/>
     <use style="fill:#1f77b4;stroke:#1f77b4;" x="260.438682" xlink:href="#ma70110db17" y="81.054701"/>
     <use style="fill:#1f77b4;stroke:#1f77b4;" x="262.055487" xlink:href="#ma70110db17" y="111.800341"/>
     <use style="fill:#1f77b4;stroke:#1f77b4;" x="263.672293" xlink:href="#ma70110db17" y="102.736807"/>
     <use style="fill:#1f77b4;stroke:#1f77b4;" x="265.289098" xlink:href="#ma70110db17" y="70.857177"/>
     <use style="fill:#1f77b4;stroke:#1f77b4;" x="266.905904" xlink:href="#ma70110db17" y="92.990548"/>
     <use style="fill:#1f77b4;stroke:#1f77b4;" x="268.522709" xlink:href="#ma70110db17" y="363.174545"/>
     <use style="fill:#1f77b4;stroke:#1f77b4;" x="270.139515" xlink:href="#ma70110db17" y="81.059196"/>
     <use style="fill:#1f77b4;stroke:#1f77b4;" x="271.75632" xlink:href="#ma70110db17" y="79.430848"/>
     <use style="fill:#1f77b4;stroke:#1f77b4;" x="273.373126" xlink:href="#ma70110db17" y="94.504705"/>
     <use style="fill:#1f77b4;stroke:#1f77b4;" x="274.989931" xlink:href="#ma70110db17" y="74.488793"/>
     <use style="fill:#1f77b4;stroke:#1f77b4;" x="276.606737" xlink:href="#ma70110db17" y="76.271022"/>
     <use style="fill:#1f77b4;stroke:#1f77b4;" x="278.223542" xlink:href="#ma70110db17" y="74.871811"/>
     <use style="fill:#1f77b4;stroke:#1f77b4;" x="279.840348" xlink:href="#ma70110db17" y="70.633359"/>
     <use style="fill:#1f77b4;stroke:#1f77b4;" x="281.457153" xlink:href="#ma70110db17" y="109.673757"/>
     <use style="fill:#1f77b4;stroke:#1f77b4;" x="283.073959" xlink:href="#ma70110db17" y="112.068941"/>
     <use style="fill:#1f77b4;stroke:#1f77b4;" x="284.690764" xlink:href="#ma70110db17" y="111.05027"/>
     <use style="fill:#1f77b4;stroke:#1f77b4;" x="286.30757" xlink:href="#ma70110db17" y="143.348298"/>
     <use style="fill:#1f77b4;stroke:#1f77b4;" x="287.924375" xlink:href="#ma70110db17" y="76.760388"/>
     <use style="fill:#1f77b4;stroke:#1f77b4;" x="289.541181" xlink:href="#ma70110db17" y="120.644456"/>
     <use style="fill:#1f77b4;stroke:#1f77b4;" x="291.157986" xlink:href="#ma70110db17" y="77.500896"/>
     <use style="fill:#1f77b4;stroke:#1f77b4;" x="292.774792" xlink:href="#ma70110db17" y="77.71746"/>
     <use style="fill:#1f77b4;stroke:#1f77b4;" x="294.391597" xlink:href="#ma70110db17" y="74.777371"/>
     <use style="fill:#1f77b4;stroke:#1f77b4;" x="296.008403" xlink:href="#ma70110db17" y="125.417257"/>
     <use style="fill:#1f77b4;stroke:#1f77b4;" x="297.625208" xlink:href="#ma70110db17" y="80.985455"/>
     <use style="fill:#1f77b4;stroke:#1f77b4;" x="299.242014" xlink:href="#ma70110db17" y="124.284939"/>
     <use style="fill:#1f77b4;stroke:#1f77b4;" x="300.858819" xlink:href="#ma70110db17" y="99.954596"/>
     <use style="fill:#1f77b4;stroke:#1f77b4;" x="302.475625" xlink:href="#ma70110db17" y="93.52159"/>
     <use style="fill:#1f77b4;stroke:#1f77b4;" x="304.09243" xlink:href="#ma70110db17" y="74.598288"/>
     <use style="fill:#1f77b4;stroke:#1f77b4;" x="305.709236" xlink:href="#ma70110db17" y="85.456644"/>
     <use style="fill:#1f77b4;stroke:#1f77b4;" x="307.326041" xlink:href="#ma70110db17" y="80.312532"/>
     <use style="fill:#1f77b4;stroke:#1f77b4;" x="308.942847" xlink:href="#ma70110db17" y="112.299772"/>
     <use style="fill:#1f77b4;stroke:#1f77b4;" x="310.559652" xlink:href="#ma70110db17" y="115.228921"/>
     <use style="fill:#1f77b4;stroke:#1f77b4;" x="312.176458" xlink:href="#ma70110db17" y="99.678856"/>
     <use style="fill:#1f77b4;stroke:#1f77b4;" x="313.793263" xlink:href="#ma70110db17" y="82.839987"/>
     <use style="fill:#1f77b4;stroke:#1f77b4;" x="315.410069" xlink:href="#ma70110db17" y="81.76221"/>
     <use style="fill:#1f77b4;stroke:#1f77b4;" x="317.026874" xlink:href="#ma70110db17" y="119.202762"/>
     <use style="fill:#1f77b4;stroke:#1f77b4;" x="318.64368" xlink:href="#ma70110db17" y="79.096932"/>
     <use style="fill:#1f77b4;stroke:#1f77b4;" x="320.260485" xlink:href="#ma70110db17" y="82.337052"/>
     <use style="fill:#1f77b4;stroke:#1f77b4;" x="321.877291" xlink:href="#ma70110db17" y="68.990392"/>
     <use style="fill:#1f77b4;stroke:#1f77b4;" x="323.494096" xlink:href="#ma70110db17" y="103.858417"/>
     <use style="fill:#1f77b4;stroke:#1f77b4;" x="325.110902" xlink:href="#ma70110db17" y="114.814772"/>
     <use style="fill:#1f77b4;stroke:#1f77b4;" x="326.727707" xlink:href="#ma70110db17" y="81.024858"/>
     <use style="fill:#1f77b4;stroke:#1f77b4;" x="328.344513" xlink:href="#ma70110db17" y="117.514015"/>
     <use style="fill:#1f77b4;stroke:#1f77b4;" x="329.961318" xlink:href="#ma70110db17" y="77.136209"/>
     <use style="fill:#1f77b4;stroke:#1f77b4;" x="331.578124" xlink:href="#ma70110db17" y="79.216672"/>
     <use style="fill:#1f77b4;stroke:#1f77b4;" x="333.194929" xlink:href="#ma70110db17" y="128.160045"/>
     <use style="fill:#1f77b4;stroke:#1f77b4;" x="334.811735" xlink:href="#ma70110db17" y="88.6577"/>
     <use style="fill:#1f77b4;stroke:#1f77b4;" x="336.42854" xlink:href="#ma70110db17" y="74.38326"/>
     <use style="fill:#1f77b4;stroke:#1f77b4;" x="338.045346" xlink:href="#ma70110db17" y="81.23307"/>
     <use style="fill:#1f77b4;stroke:#1f77b4;" x="339.662151" xlink:href="#ma70110db17" y="159.054839"/>
     <use style="fill:#1f77b4;stroke:#1f77b4;" x="341.278957" xlink:href="#ma70110db17" y="108.527952"/>
     <use style="fill:#1f77b4;stroke:#1f77b4;" x="342.895762" xlink:href="#ma70110db17" y="79.546192"/>
     <use style="fill:#1f77b4;stroke:#1f77b4;" x="344.512568" xlink:href="#ma70110db17" y="76.315136"/>
     <use style="fill:#1f77b4;stroke:#1f77b4;" x="346.129373" xlink:href="#ma70110db17" y="88.831264"/>
     <use style="fill:#1f77b4;stroke:#1f77b4;" x="347.746179" xlink:href="#ma70110db17" y="72.564049"/>
     <use style="fill:#1f77b4;stroke:#1f77b4;" x="349.362984" xlink:href="#ma70110db17" y="76.494975"/>
     <use style="fill:#1f77b4;stroke:#1f77b4;" x="350.97979" xlink:href="#ma70110db17" y="88.423777"/>
     <use style="fill:#1f77b4;stroke:#1f77b4;" x="352.596595" xlink:href="#ma70110db17" y="95.870312"/>
     <use style="fill:#1f77b4;stroke:#1f77b4;" x="354.213401" xlink:href="#ma70110db17" y="87.987743"/>
     <use style="fill:#1f77b4;stroke:#1f77b4;" x="355.830206" xlink:href="#ma70110db17" y="79.496405"/>
     <use style="fill:#1f77b4;stroke:#1f77b4;" x="357.447012" xlink:href="#ma70110db17" y="100.379593"/>
     <use style="fill:#1f77b4;stroke:#1f77b4;" x="359.063817" xlink:href="#ma70110db17" y="84.609886"/>
     <use style="fill:#1f77b4;stroke:#1f77b4;" x="360.680623" xlink:href="#ma70110db17" y="118.450325"/>
     <use style="fill:#1f77b4;stroke:#1f77b4;" x="362.297428" xlink:href="#ma70110db17" y="83.572148"/>
     <use style="fill:#1f77b4;stroke:#1f77b4;" x="363.914234" xlink:href="#ma70110db17" y="67.835088"/>
     <use style="fill:#1f77b4;stroke:#1f77b4;" x="365.531039" xlink:href="#ma70110db17" y="80.261665"/>
     <use style="fill:#1f77b4;stroke:#1f77b4;" x="367.147845" xlink:href="#ma70110db17" y="103.205894"/>
     <use style="fill:#1f77b4;stroke:#1f77b4;" x="368.76465" xlink:href="#ma70110db17" y="75.794407"/>
     <use style="fill:#1f77b4;stroke:#1f77b4;" x="370.381456" xlink:href="#ma70110db17" y="87.398514"/>
     <use style="fill:#1f77b4;stroke:#1f77b4;" x="371.998261" xlink:href="#ma70110db17" y="102.216586"/>
     <use style="fill:#1f77b4;stroke:#1f77b4;" x="373.615067" xlink:href="#ma70110db17" y="115.642273"/>
     <use style="fill:#1f77b4;stroke:#1f77b4;" x="375.231873" xlink:href="#ma70110db17" y="110.208549"/>
     <use style="fill:#1f77b4;stroke:#1f77b4;" x="376.848678" xlink:href="#ma70110db17" y="107.088623"/>
     <use style="fill:#1f77b4;stroke:#1f77b4;" x="378.465484" xlink:href="#ma70110db17" y="76.930127"/>
     <use style="fill:#1f77b4;stroke:#1f77b4;" x="380.082289" xlink:href="#ma70110db17" y="89.78078"/>
     <use style="fill:#1f77b4;stroke:#1f77b4;" x="381.699095" xlink:href="#ma70110db17" y="72.491981"/>
     <use style="fill:#1f77b4;stroke:#1f77b4;" x="383.3159" xlink:href="#ma70110db17" y="69.587601"/>
     <use style="fill:#1f77b4;stroke:#1f77b4;" x="384.932706" xlink:href="#ma70110db17" y="71.125616"/>
     <use style="fill:#1f77b4;stroke:#1f77b4;" x="386.549511" xlink:href="#ma70110db17" y="87.329078"/>
     <use style="fill:#1f77b4;stroke:#1f77b4;" x="388.166317" xlink:href="#ma70110db17" y="326.077389"/>
     <use style="fill:#1f77b4;stroke:#1f77b4;" x="389.783122" xlink:href="#ma70110db17" y="81.980231"/>
     <use style="fill:#1f77b4;stroke:#1f77b4;" x="391.399928" xlink:href="#ma70110db17" y="118.305441"/>
     <use style="fill:#1f77b4;stroke:#1f77b4;" x="393.016733" xlink:href="#ma70110db17" y="70.779948"/>
     <use style="fill:#1f77b4;stroke:#1f77b4;" x="394.633539" xlink:href="#ma70110db17" y="66.665455"/>
     <use style="fill:#1f77b4;stroke:#1f77b4;" x="396.250344" xlink:href="#ma70110db17" y="87.156289"/>
     <use style="fill:#1f77b4;stroke:#1f77b4;" x="397.86715" xlink:href="#ma70110db17" y="104.012404"/>
     <use style="fill:#1f77b4;stroke:#1f77b4;" x="399.483955" xlink:href="#ma70110db17" y="77.326793"/>
     <use style="fill:#1f77b4;stroke:#1f77b4;" x="401.100761" xlink:href="#ma70110db17" y="72.369963"/>
     <use style="fill:#1f77b4;stroke:#1f77b4;" x="402.717566" xlink:href="#ma70110db17" y="70.859628"/>
     <use style="fill:#1f77b4;stroke:#1f77b4;" x="404.334372" xlink:href="#ma70110db17" y="72.717773"/>
     <use style="fill:#1f77b4;stroke:#1f77b4;" x="405.951177" xlink:href="#ma70110db17" y="74.587517"/>
     <use style="fill:#1f77b4;stroke:#1f77b4;" x="407.567983" xlink:href="#ma70110db17" y="106.66868"/>
     <use style="fill:#1f77b4;stroke:#1f77b4;" x="409.184788" xlink:href="#ma70110db17" y="75.72367"/>
     <use style="fill:#1f77b4;stroke:#1f77b4;" x="410.801594" xlink:href="#ma70110db17" y="72.25482"/>
     <use style="fill:#1f77b4;stroke:#1f77b4;" x="412.418399" xlink:href="#ma70110db17" y="85.975474"/>
     <use style="fill:#1f77b4;stroke:#1f77b4;" x="414.035205" xlink:href="#ma70110db17" y="127.852944"/>
     <use style="fill:#1f77b4;stroke:#1f77b4;" x="415.65201" xlink:href="#ma70110db17" y="114.029537"/>
     <use style="fill:#1f77b4;stroke:#1f77b4;" x="417.268816" xlink:href="#ma70110db17" y="69.881515"/>
     <use style="fill:#1f77b4;stroke:#1f77b4;" x="418.885621" xlink:href="#ma70110db17" y="67.97727"/>
     <use style="fill:#1f77b4;stroke:#1f77b4;" x="420.502427" xlink:href="#ma70110db17" y="123.420925"/>
     <use style="fill:#1f77b4;stroke:#1f77b4;" x="422.119232" xlink:href="#ma70110db17" y="111.87159"/>
     <use style="fill:#1f77b4;stroke:#1f77b4;" x="423.736038" xlink:href="#ma70110db17" y="115.693499"/>
     <use style="fill:#1f77b4;stroke:#1f77b4;" x="425.352843" xlink:href="#ma70110db17" y="171.113463"/>
     <use style="fill:#1f77b4;stroke:#1f77b4;" x="426.969649" xlink:href="#ma70110db17" y="80.245077"/>
     <use style="fill:#1f77b4;stroke:#1f77b4;" x="428.586454" xlink:href="#ma70110db17" y="72.858615"/>
     <use style="fill:#1f77b4;stroke:#1f77b4;" x="430.20326" xlink:href="#ma70110db17" y="126.758245"/>
     <use style="fill:#1f77b4;stroke:#1f77b4;" x="431.820065" xlink:href="#ma70110db17" y="73.091158"/>
     <use style="fill:#1f77b4;stroke:#1f77b4;" x="433.436871" xlink:href="#ma70110db17" y="73.684867"/>
     <use style="fill:#1f77b4;stroke:#1f77b4;" x="435.053676" xlink:href="#ma70110db17" y="123.398413"/>
     <use style="fill:#1f77b4;stroke:#1f77b4;" x="436.670482" xlink:href="#ma70110db17" y="122.04233"/>
     <use style="fill:#1f77b4;stroke:#1f77b4;" x="438.287287" xlink:href="#ma70110db17" y="120.573487"/>
     <use style="fill:#1f77b4;stroke:#1f77b4;" x="439.904093" xlink:href="#ma70110db17" y="96.015621"/>
     <use style="fill:#1f77b4;stroke:#1f77b4;" x="441.520898" xlink:href="#ma70110db17" y="115.51817"/>
     <use style="fill:#1f77b4;stroke:#1f77b4;" x="443.137704" xlink:href="#ma70110db17" y="117.445023"/>
     <use style="fill:#1f77b4;stroke:#1f77b4;" x="444.754509" xlink:href="#ma70110db17" y="90.655088"/>
     <use style="fill:#1f77b4;stroke:#1f77b4;" x="446.371315" xlink:href="#ma70110db17" y="73.709426"/>
     <use style="fill:#1f77b4;stroke:#1f77b4;" x="447.98812" xlink:href="#ma70110db17" y="81.291498"/>
     <use style="fill:#1f77b4;stroke:#1f77b4;" x="449.604926" xlink:href="#ma70110db17" y="114.695725"/>
     <use style="fill:#1f77b4;stroke:#1f77b4;" x="451.221731" xlink:href="#ma70110db17" y="107.471659"/>
     <use style="fill:#1f77b4;stroke:#1f77b4;" x="452.838537" xlink:href="#ma70110db17" y="72.996811"/>
     <use style="fill:#1f77b4;stroke:#1f77b4;" x="454.455342" xlink:href="#ma70110db17" y="101.897794"/>
     <use style="fill:#1f77b4;stroke:#1f77b4;" x="456.072148" xlink:href="#ma70110db17" y="108.77952"/>
     <use style="fill:#1f77b4;stroke:#1f77b4;" x="457.688953" xlink:href="#ma70110db17" y="79.047493"/>
     <use style="fill:#1f77b4;stroke:#1f77b4;" x="459.305759" xlink:href="#ma70110db17" y="105.119163"/>
     <use style="fill:#1f77b4;stroke:#1f77b4;" x="460.922564" xlink:href="#ma70110db17" y="84.534943"/>
     <use style="fill:#1f77b4;stroke:#1f77b4;" x="462.53937" xlink:href="#ma70110db17" y="111.479766"/>
     <use style="fill:#1f77b4;stroke:#1f77b4;" x="464.156175" xlink:href="#ma70110db17" y="69.350509"/>
     <use style="fill:#1f77b4;stroke:#1f77b4;" x="465.772981" xlink:href="#ma70110db17" y="84.298105"/>
     <use style="fill:#1f77b4;stroke:#1f77b4;" x="467.389786" xlink:href="#ma70110db17" y="100.001129"/>
     <use style="fill:#1f77b4;stroke:#1f77b4;" x="469.006592" xlink:href="#ma70110db17" y="79.39168"/>
     <use style="fill:#1f77b4;stroke:#1f77b4;" x="470.623397" xlink:href="#ma70110db17" y="77.787694"/>
     <use style="fill:#1f77b4;stroke:#1f77b4;" x="472.240203" xlink:href="#ma70110db17" y="69.501662"/>
     <use style="fill:#1f77b4;stroke:#1f77b4;" x="473.857008" xlink:href="#ma70110db17" y="72.873714"/>
     <use style="fill:#1f77b4;stroke:#1f77b4;" x="475.473814" xlink:href="#ma70110db17" y="76.998108"/>
     <use style="fill:#1f77b4;stroke:#1f77b4;" x="477.090619" xlink:href="#ma70110db17" y="71.268166"/>
     <use style="fill:#1f77b4;stroke:#1f77b4;" x="478.707425" xlink:href="#ma70110db17" y="85.919646"/>
     <use style="fill:#1f77b4;stroke:#1f77b4;" x="480.32423" xlink:href="#ma70110db17" y="75.281373"/>
     <use style="fill:#1f77b4;stroke:#1f77b4;" x="481.941036" xlink:href="#ma70110db17" y="123.650739"/>
     <use style="fill:#1f77b4;stroke:#1f77b4;" x="483.557841" xlink:href="#ma70110db17" y="113.683136"/>
     <use style="fill:#1f77b4;stroke:#1f77b4;" x="485.174647" xlink:href="#ma70110db17" y="105.572202"/>
     <use style="fill:#1f77b4;stroke:#1f77b4;" x="486.791452" xlink:href="#ma70110db17" y="81.386057"/>
     <use style="fill:#1f77b4;stroke:#1f77b4;" x="488.408258" xlink:href="#ma70110db17" y="77.930786"/>
     <use style="fill:#1f77b4;stroke:#1f77b4;" x="490.025063" xlink:href="#ma70110db17" y="95.205287"/>
     <use style="fill:#1f77b4;stroke:#1f77b4;" x="491.641869" xlink:href="#ma70110db17" y="97.29436"/>
     <use style="fill:#1f77b4;stroke:#1f77b4;" x="493.258674" xlink:href="#ma70110db17" y="83.215844"/>
     <use style="fill:#1f77b4;stroke:#1f77b4;" x="494.87548" xlink:href="#ma70110db17" y="72.82636"/>
     <use style="fill:#1f77b4;stroke:#1f77b4;" x="496.492285" xlink:href="#ma70110db17" y="79.276489"/>
     <use style="fill:#1f77b4;stroke:#1f77b4;" x="498.109091" xlink:href="#ma70110db17" y="73.756349"/>
    </g>
   </g>
   <g id="line2d_28">
    <path clip-path="url(#p54bff164ed)" d="M 92.290909 90.378219 
L 498.109091 95.440231 
L 498.109091 95.440231 
" style="fill:none;stroke:#000000;stroke-dasharray:5.55,2.4;stroke-dashoffset:0;stroke-width:1.5;"/>
   </g>
   <g id="line2d_29">
    <path clip-path="url(#p54bff164ed)" d="M 92.290909 121.594808 
L 95.52452 79.905087 
L 97.141326 79.905087 
L 98.758131 69.30239 
L 135.944658 69.30239 
L 137.561463 68.613192 
L 362.297428 68.613192 
L 363.914234 67.835088 
L 393.016733 67.835088 
L 394.633539 66.665455 
L 498.109091 66.665455 
L 498.109091 66.665455 
" style="fill:none;stroke:#0000ff;stroke-linecap:square;stroke-width:1.5;"/>
   </g>
   <g id="patch_3">
    <path d="M 72 378 
L 72 51.84 
" style="fill:none;stroke:#000000;stroke-linecap:square;stroke-linejoin:miter;stroke-width:0.8;"/>
   </g>
   <g id="patch_4">
    <path d="M 518.4 378 
L 518.4 51.84 
" style="fill:none;stroke:#000000;stroke-linecap:square;stroke-linejoin:miter;stroke-width:0.8;"/>
   </g>
   <g id="patch_5">
    <path d="M 72 378 
L 518.4 378 
" style="fill:none;stroke:#000000;stroke-linecap:square;stroke-linejoin:miter;stroke-width:0.8;"/>
   </g>
   <g id="patch_6">
    <path d="M 72 51.84 
L 518.4 51.84 
" style="fill:none;stroke:#000000;stroke-linecap:square;stroke-linejoin:miter;stroke-width:0.8;"/>
   </g>
   <g id="text_16">
    <!-- Island Transpeciation - $O_3$ train CV 2000-2009 (median: 71.27%, worst: 12.15%, best: 75.04%) -->
    <defs>
     <path d="M 9.8125 72.90625 
L 19.671875 72.90625 
L 19.671875 0 
L 9.8125 0 
z
" id="DejaVuSans-73"/>
     <path d="M 45.40625 46.390625 
L 45.40625 75.984375 
L 54.390625 75.984375 
L 54.390625 0 
L 45.40625 0 
L 45.40625 8.203125 
Q 42.578125 3.328125 38.25 0.953125 
Q 33.9375 -1.421875 27.875 -1.421875 
Q 17.96875 -1.421875 11.734375 6.484375 
Q 5.515625 14.40625 5.515625 27.296875 
Q 5.515625 40.1875 11.734375 48.09375 
Q 17.96875 56 27.875 56 
Q 33.9375 56 38.25 53.625 
Q 42.578125 51.265625 45.40625 46.390625 
z
M 14.796875 27.296875 
Q 14.796875 17.390625 18.875 11.75 
Q 22.953125 6.109375 30.078125 6.109375 
Q 37.203125 6.109375 41.296875 11.75 
Q 45.40625 17.390625 45.40625 27.296875 
Q 45.40625 37.203125 41.296875 42.84375 
Q 37.203125 48.484375 30.078125 48.484375 
Q 22.953125 48.484375 18.875 42.84375 
Q 14.796875 37.203125 14.796875 27.296875 
z
" id="DejaVuSans-100"/>
     <path d="M -0.296875 72.90625 
L 61.375 72.90625 
L 61.375 64.59375 
L 35.5 64.59375 
L 35.5 0 
L 25.59375 0 
L 25.59375 64.59375 
L -0.296875 64.59375 
z
" id="DejaVuSans-84"/>
     <path d="M 41.109375 46.296875 
Q 39.59375 47.171875 37.8125 47.578125 
Q 36.03125 48 33.890625 48 
Q 26.265625 48 22.1875 43.046875 
Q 18.109375 38.09375 18.109375 28.8125 
L 18.109375 0 
L 9.078125 0 
L 9.078125 54.6875 
L 18.109375 54.6875 
L 18.109375 46.1875 
Q 20.953125 51.171875 25.484375 53.578125 
Q 30.03125 56 36.53125 56 
Q 37.453125 56 38.578125 55.875 
Q 39.703125 55.765625 41.0625 55.515625 
z
" id="DejaVuSans-114"/>
     <path d="M 18.109375 8.203125 
L 18.109375 -20.796875 
L 9.078125 -20.796875 
L 9.078125 54.6875 
L 18.109375 54.6875 
L 18.109375 46.390625 
Q 20.953125 51.265625 25.265625 53.625 
Q 29.59375 56 35.59375 56 
Q 45.5625 56 51.78125 48.09375 
Q 58.015625 40.1875 58.015625 27.296875 
Q 58.015625 14.40625 51.78125 6.484375 
Q 45.5625 -1.421875 35.59375 -1.421875 
Q 29.59375 -1.421875 25.265625 0.953125 
Q 20.953125 3.328125 18.109375 8.203125 
z
M 48.6875 27.296875 
Q 48.6875 37.203125 44.609375 42.84375 
Q 40.53125 48.484375 33.40625 48.484375 
Q 26.265625 48.484375 22.1875 42.84375 
Q 18.109375 37.203125 18.109375 27.296875 
Q 18.109375 17.390625 22.1875 11.75 
Q 26.265625 6.109375 33.40625 6.109375 
Q 40.53125 6.109375 44.609375 11.75 
Q 48.6875 17.390625 48.6875 27.296875 
z
" id="DejaVuSans-112"/>
     <path d="M 48.78125 52.59375 
L 48.78125 44.1875 
Q 44.96875 46.296875 41.140625 47.34375 
Q 37.3125 48.390625 33.40625 48.390625 
Q 24.65625 48.390625 19.8125 42.84375 
Q 14.984375 37.3125 14.984375 27.296875 
Q 14.984375 17.28125 19.8125 11.734375 
Q 24.65625 6.203125 33.40625 6.203125 
Q 37.3125 6.203125 41.140625 7.25 
Q 44.96875 8.296875 48.78125 10.40625 
L 48.78125 2.09375 
Q 45.015625 0.34375 40.984375 -0.53125 
Q 36.96875 -1.421875 32.421875 -1.421875 
Q 20.0625 -1.421875 12.78125 6.34375 
Q 5.515625 14.109375 5.515625 27.296875 
Q 5.515625 40.671875 12.859375 48.328125 
Q 20.21875 56 33.015625 56 
Q 37.15625 56 41.109375 55.140625 
Q 45.0625 54.296875 48.78125 52.59375 
z
" id="DejaVuSans-99"/>
     <path d="M 45.609375 66.21875 
Q 37.5 66.21875 31.296875 62.28125 
Q 25.09375 58.34375 20.515625 50.296875 
Q 17.578125 45.171875 16.03125 39.40625 
Q 14.5 33.640625 14.5 27.78125 
Q 14.5 17.625 19.359375 12.109375 
Q 24.21875 6.59375 33.109375 6.59375 
Q 41.109375 6.59375 47.375 10.5625 
Q 53.65625 14.546875 58.109375 22.40625 
Q 61.078125 27.6875 62.640625 33.46875 
Q 64.203125 39.265625 64.203125 45.015625 
Q 64.203125 55.125 59.3125 60.671875 
Q 54.4375 66.21875 45.609375 66.21875 
z
M 32.8125 -1.421875 
Q 19.390625 -1.421875 11.6875 6.53125 
Q 4 14.5 4 28.328125 
Q 4 36.234375 7 44.484375 
Q 10.015625 52.734375 15.28125 59.1875 
Q 21.484375 66.75 29.09375 70.484375 
Q 36.71875 74.21875 45.90625 74.21875 
Q 59.28125 74.21875 66.984375 66.328125 
Q 74.703125 58.453125 74.703125 44.828125 
Q 74.703125 36.421875 71.765625 28.3125 
Q 68.84375 20.21875 63.375 13.625 
Q 57.125 6 49.578125 2.28125 
Q 42.046875 -1.421875 32.8125 -1.421875 
z
" id="DejaVuSans-Oblique-79"/>
     <path d="M 64.40625 67.28125 
L 64.40625 56.890625 
Q 59.421875 61.53125 53.78125 63.8125 
Q 48.140625 66.109375 41.796875 66.109375 
Q 29.296875 66.109375 22.65625 58.46875 
Q 16.015625 50.828125 16.015625 36.375 
Q 16.015625 21.96875 22.65625 14.328125 
Q 29.296875 6.6875 41.796875 6.6875 
Q 48.140625 6.6875 53.78125 8.984375 
Q 59.421875 11.28125 64.40625 15.921875 
L 64.40625 5.609375 
Q 59.234375 2.09375 53.4375 0.328125 
Q 47.65625 -1.421875 41.21875 -1.421875 
Q 24.65625 -1.421875 15.125 8.703125 
Q 5.609375 18.84375 5.609375 36.375 
Q 5.609375 53.953125 15.125 64.078125 
Q 24.65625 74.21875 41.21875 74.21875 
Q 47.75 74.21875 53.53125 72.484375 
Q 59.328125 70.75 64.40625 67.28125 
z
" id="DejaVuSans-67"/>
     <path d="M 28.609375 0 
L 0.78125 72.90625 
L 11.078125 72.90625 
L 34.1875 11.53125 
L 57.328125 72.90625 
L 67.578125 72.90625 
L 39.796875 0 
z
" id="DejaVuSans-86"/>
     <path d="M 10.984375 1.515625 
L 10.984375 10.5 
Q 14.703125 8.734375 18.5 7.8125 
Q 22.3125 6.890625 25.984375 6.890625 
Q 35.75 6.890625 40.890625 13.453125 
Q 46.046875 20.015625 46.78125 33.40625 
Q 43.953125 29.203125 39.59375 26.953125 
Q 35.25 24.703125 29.984375 24.703125 
Q 19.046875 24.703125 12.671875 31.3125 
Q 6.296875 37.9375 6.296875 49.421875 
Q 6.296875 60.640625 12.9375 67.421875 
Q 19.578125 74.21875 30.609375 74.21875 
Q 43.265625 74.21875 49.921875 64.515625 
Q 56.59375 54.828125 56.59375 36.375 
Q 56.59375 19.140625 48.40625 8.859375 
Q 40.234375 -1.421875 26.421875 -1.421875 
Q 22.703125 -1.421875 18.890625 -0.6875 
Q 15.09375 0.046875 10.984375 1.515625 
z
M 30.609375 32.421875 
Q 37.25 32.421875 41.125 36.953125 
Q 45.015625 41.5 45.015625 49.421875 
Q 45.015625 57.28125 41.125 61.84375 
Q 37.25 66.40625 30.609375 66.40625 
Q 23.96875 66.40625 20.09375 61.84375 
Q 16.21875 57.28125 16.21875 49.421875 
Q 16.21875 41.5 20.09375 36.953125 
Q 23.96875 32.421875 30.609375 32.421875 
z
" id="DejaVuSans-57"/>
     <path d="M 31 75.875 
Q 24.46875 64.65625 21.28125 53.65625 
Q 18.109375 42.671875 18.109375 31.390625 
Q 18.109375 20.125 21.3125 9.0625 
Q 24.515625 -2 31 -13.1875 
L 23.1875 -13.1875 
Q 15.875 -1.703125 12.234375 9.375 
Q 8.59375 20.453125 8.59375 31.390625 
Q 8.59375 42.28125 12.203125 53.3125 
Q 15.828125 64.359375 23.1875 75.875 
z
" id="DejaVuSans-40"/>
     <path d="M 52 44.1875 
Q 55.375 50.25 60.0625 53.125 
Q 64.75 56 71.09375 56 
Q 79.640625 56 84.28125 50.015625 
Q 88.921875 44.046875 88.921875 33.015625 
L 88.921875 0 
L 79.890625 0 
L 79.890625 32.71875 
Q 79.890625 40.578125 77.09375 44.375 
Q 74.3125 48.1875 68.609375 48.1875 
Q 61.625 48.1875 57.5625 43.546875 
Q 53.515625 38.921875 53.515625 30.90625 
L 53.515625 0 
L 44.484375 0 
L 44.484375 32.71875 
Q 44.484375 40.625 41.703125 44.40625 
Q 38.921875 48.1875 33.109375 48.1875 
Q 26.21875 48.1875 22.15625 43.53125 
Q 18.109375 38.875 18.109375 30.90625 
L 18.109375 0 
L 9.078125 0 
L 9.078125 54.6875 
L 18.109375 54.6875 
L 18.109375 46.1875 
Q 21.1875 51.21875 25.484375 53.609375 
Q 29.78125 56 35.6875 56 
Q 41.65625 56 45.828125 52.96875 
Q 50 49.953125 52 44.1875 
z
" id="DejaVuSans-109"/>
     <path d="M 11.71875 12.40625 
L 22.015625 12.40625 
L 22.015625 0 
L 11.71875 0 
z
M 11.71875 51.703125 
L 22.015625 51.703125 
L 22.015625 39.3125 
L 11.71875 39.3125 
z
" id="DejaVuSans-58"/>
     <path d="M 10.6875 12.40625 
L 21 12.40625 
L 21 0 
L 10.6875 0 
z
" id="DejaVuSans-46"/>
     <path d="M 11.71875 12.40625 
L 22.015625 12.40625 
L 22.015625 4 
L 14.015625 -11.625 
L 7.71875 -11.625 
L 11.71875 4 
z
" id="DejaVuSans-44"/>
     <path d="M 4.203125 54.6875 
L 13.1875 54.6875 
L 24.421875 12.015625 
L 35.59375 54.6875 
L 46.1875 54.6875 
L 57.421875 12.015625 
L 68.609375 54.6875 
L 77.59375 54.6875 
L 63.28125 0 
L 52.6875 0 
L 40.921875 44.828125 
L 29.109375 0 
L 18.5 0 
z
" id="DejaVuSans-119"/>
     <path d="M 48.6875 27.296875 
Q 48.6875 37.203125 44.609375 42.84375 
Q 40.53125 48.484375 33.40625 48.484375 
Q 26.265625 48.484375 22.1875 42.84375 
Q 18.109375 37.203125 18.109375 27.296875 
Q 18.109375 17.390625 22.1875 11.75 
Q 26.265625 6.109375 33.40625 6.109375 
Q 40.53125 6.109375 44.609375 11.75 
Q 48.6875 17.390625 48.6875 27.296875 
z
M 18.109375 46.390625 
Q 20.953125 51.265625 25.265625 53.625 
Q 29.59375 56 35.59375 56 
Q 45.5625 56 51.78125 48.09375 
Q 58.015625 40.1875 58.015625 27.296875 
Q 58.015625 14.40625 51.78125 6.484375 
Q 45.5625 -1.421875 35.59375 -1.421875 
Q 29.59375 -1.421875 25.265625 0.953125 
Q 20.953125 3.328125 18.109375 8.203125 
L 18.109375 0 
L 9.078125 0 
L 9.078125 75.984375 
L 18.109375 75.984375 
z
" id="DejaVuSans-98"/>
     <path d="M 8.015625 75.875 
L 15.828125 75.875 
Q 23.140625 64.359375 26.78125 53.3125 
Q 30.421875 42.28125 30.421875 31.390625 
Q 30.421875 20.453125 26.78125 9.375 
Q 23.140625 -1.703125 15.828125 -13.1875 
L 8.015625 -13.1875 
Q 14.5 -2 17.703125 9.0625 
Q 20.90625 20.125 20.90625 31.390625 
Q 20.90625 42.671875 17.703125 53.65625 
Q 14.5 64.65625 8.015625 75.875 
z
" id="DejaVuSans-41"/>
    </defs>
    <g transform="translate(10.2 45.84)scale(0.12 -0.12)">
     <use transform="translate(0 0.015625)" xlink:href="#DejaVuSans-73"/>
     <use transform="translate(29.492188 0.015625)" xlink:href="#DejaVuSans-115"/>
     <use transform="translate(81.591797 0.015625)" xlink:href="#DejaVuSans-108"/>
     <use transform="translate(109.375 0.015625)" xlink:href="#DejaVuSans-97"/>
     <use transform="translate(170.654297 0.015625)" xlink:href="#DejaVuSans-110"/>
     <use transform="translate(234.033203 0.015625)" xlink:href="#DejaVuSans-100"/>
     <use transform="translate(297.509766 0.015625)" xlink:href="#DejaVuSans-32"/>
     <use transform="translate(329.296875 0.015625)" xlink:href="#DejaVuSans-84"/>
     <use transform="translate(390.380859 0.015625)" xlink:href="#DejaVuSans-114"/>
     <use transform="translate(431.494141 0.015625)" xlink:href="#DejaVuSans-97"/>
     <use transform="translate(492.773438 0.015625)" xlink:href="#DejaVuSans-110"/>
     <use transform="translate(556.152344 0.015625)" xlink:href="#DejaVuSans-115"/>
     <use transform="translate(608.251953 0.015625)" xlink:href="#DejaVuSans-112"/>
     <use transform="translate(671.728516 0.015625)" xlink:href="#DejaVuSans-101"/>
     <use transform="translate(733.251953 0.015625)" xlink:href="#DejaVuSans-99"/>
     <use transform="translate(788.232422 0.015625)" xlink:href="#DejaVuSans-105"/>
     <use transform="translate(816.015625 0.015625)" xlink:href="#DejaVuSans-97"/>
     <use transform="translate(877.294922 0.015625)" xlink:href="#DejaVuSans-116"/>
     <use transform="translate(916.503906 0.015625)" xlink:href="#DejaVuSans-105"/>
     <use transform="translate(944.287109 0.015625)" xlink:href="#DejaVuSans-111"/>
     <use transform="translate(1005.46875 0.015625)" xlink:href="#DejaVuSans-110"/>
     <use transform="translate(1068.847656 0.015625)" xlink:href="#DejaVuSans-32"/>
     <use transform="translate(1100.634766 0.015625)" xlink:href="#DejaVuSans-45"/>
     <use transform="translate(1136.71875 0.015625)" xlink:href="#DejaVuSans-32"/>
     <use transform="translate(1168.505859 0.015625)" xlink:href="#DejaVuSans-Oblique-79"/>
     <use transform="translate(1247.216797 -16.390625)scale(0.7)" xlink:href="#DejaVuSans-51"/>
     <use transform="translate(1294.487305 0.015625)" xlink:href="#DejaVuSans-32"/>
     <use transform="translate(1326.274414 0.015625)" xlink:href="#DejaVuSans-116"/>
     <use transform="translate(1365.483398 0.015625)" xlink:href="#DejaVuSans-114"/>
     <use transform="translate(1406.59668 0.015625)" xlink:href="#DejaVuSans-97"/>
     <use transform="translate(1467.875977 0.015625)" xlink:href="#DejaVuSans-105"/>
     <use transform="translate(1495.65918 0.015625)" xlink:href="#DejaVuSans-110"/>
     <use transform="translate(1559.038086 0.015625)" xlink:href="#DejaVuSans-32"/>
     <use transform="translate(1590.825195 0.015625)" xlink:href="#DejaVuSans-67"/>
     <use transform="translate(1660.649414 0.015625)" xlink:href="#DejaVuSans-86"/>
     <use transform="translate(1729.057617 0.015625)" xlink:href="#DejaVuSans-32"/>
     <use transform="translate(1760.844727 0.015625)" xlink:href="#DejaVuSans-50"/>
     <use transform="translate(1824.467773 0.015625)" xlink:href="#DejaVuSans-48"/>
     <use transform="translate(1888.09082 0.015625)" xlink:href="#DejaVuSans-48"/>
     <use transform="translate(1951.713867 0.015625)" xlink:href="#DejaVuSans-48"/>
     <use transform="translate(2015.336914 0.015625)" xlink:href="#DejaVuSans-45"/>
     <use transform="translate(2051.420898 0.015625)" xlink:href="#DejaVuSans-50"/>
     <use transform="translate(2115.043945 0.015625)" xlink:href="#DejaVuSans-48"/>
     <use transform="translate(2178.666992 0.015625)" xlink:href="#DejaVuSans-48"/>
     <use transform="translate(2242.290039 0.015625)" xlink:href="#DejaVuSans-57"/>
     <use transform="translate(2305.913086 0.015625)" xlink:href="#DejaVuSans-32"/>
     <use transform="translate(2337.700195 0.015625)" xlink:href="#DejaVuSans-40"/>
     <use transform="translate(2376.713867 0.015625)" xlink:href="#DejaVuSans-109"/>
     <use transform="translate(2474.125977 0.015625)" xlink:href="#DejaVuSans-101"/>
     <use transform="translate(2535.649414 0.015625)" xlink:href="#DejaVuSans-100"/>
     <use transform="translate(2599.125977 0.015625)" xlink:href="#DejaVuSans-105"/>
     <use transform="translate(2626.90918 0.015625)" xlink:href="#DejaVuSans-97"/>
     <use transform="translate(2688.188477 0.015625)" xlink:href="#DejaVuSans-110"/>
     <use transform="translate(2751.567383 0.015625)" xlink:href="#DejaVuSans-58"/>
     <use transform="translate(2785.258789 0.015625)" xlink:href="#DejaVuSans-32"/>
     <use transform="translate(2817.045898 0.015625)" xlink:href="#DejaVuSans-55"/>
     <use transform="translate(2880.668945 0.015625)" xlink:href="#DejaVuSans-49"/>
     <use transform="translate(2944.291992 0.015625)" xlink:href="#DejaVuSans-46"/>
     <use transform="translate(2976.000977 0.015625)" xlink:href="#DejaVuSans-50"/>
     <use transform="translate(3039.624023 0.015625)" xlink:href="#DejaVuSans-55"/>
     <use transform="translate(3103.24707 0.015625)" xlink:href="#DejaVuSans-37"/>
     <use transform="translate(3198.266602 0.015625)" xlink:href="#DejaVuSans-44"/>
     <use transform="translate(3230.053711 0.015625)" xlink:href="#DejaVuSans-32"/>
     <use transform="translate(3261.84082 0.015625)" xlink:href="#DejaVuSans-119"/>
     <use transform="translate(3343.62793 0.015625)" xlink:href="#DejaVuSans-111"/>
     <use transform="translate(3404.80957 0.015625)" xlink:href="#DejaVuSans-114"/>
     <use transform="translate(3445.922852 0.015625)" xlink:href="#DejaVuSans-115"/>
     <use transform="translate(3498.022461 0.015625)" xlink:href="#DejaVuSans-116"/>
     <use transform="translate(3537.231445 0.015625)" xlink:href="#DejaVuSans-58"/>
     <use transform="translate(3570.922852 0.015625)" xlink:href="#DejaVuSans-32"/>
     <use transform="translate(3602.709961 0.015625)" xlink:href="#DejaVuSans-49"/>
     <use transform="translate(3666.333008 0.015625)" xlink:href="#DejaVuSans-50"/>
     <use transform="translate(3729.956055 0.015625)" xlink:href="#DejaVuSans-46"/>
     <use transform="translate(3761.743164 0.015625)" xlink:href="#DejaVuSans-49"/>
     <use transform="translate(3825.366211 0.015625)" xlink:href="#DejaVuSans-53"/>
     <use transform="translate(3888.989258 0.015625)" xlink:href="#DejaVuSans-37"/>
     <use transform="translate(3984.008789 0.015625)" xlink:href="#DejaVuSans-44"/>
     <use transform="translate(4015.795898 0.015625)" xlink:href="#DejaVuSans-32"/>
     <use transform="translate(4047.583008 0.015625)" xlink:href="#DejaVuSans-98"/>
     <use transform="translate(4111.05957 0.015625)" xlink:href="#DejaVuSans-101"/>
     <use transform="translate(4172.583008 0.015625)" xlink:href="#DejaVuSans-115"/>
     <use transform="translate(4224.682617 0.015625)" xlink:href="#DejaVuSans-116"/>
     <use transform="translate(4263.891602 0.015625)" xlink:href="#DejaVuSans-58"/>
     <use transform="translate(4297.583008 0.015625)" xlink:href="#DejaVuSans-32"/>
     <use transform="translate(4329.370117 0.015625)" xlink:href="#DejaVuSans-55"/>
     <use transform="translate(4392.993164 0.015625)" xlink:href="#DejaVuSans-53"/>
     <use transform="translate(4456.616211 0.015625)" xlink:href="#DejaVuSans-46"/>
     <use transform="translate(4488.40332 0.015625)" xlink:href="#DejaVuSans-48"/>
     <use transform="translate(4552.026367 0.015625)" xlink:href="#DejaVuSans-52"/>
     <use transform="translate(4615.649414 0.015625)" xlink:href="#DejaVuSans-37"/>
     <use transform="translate(4710.668945 0.015625)" xlink:href="#DejaVuSans-41"/>
    </g>
   </g>
   <g id="legend_1">
    <g id="patch_7">
     <path d="M 314.504687 238.437187 
L 511.4 238.437187 
Q 513.4 238.437187 513.4 236.437187 
L 513.4 193.402812 
Q 513.4 191.402812 511.4 191.402812 
L 314.504687 191.402812 
Q 312.504687 191.402812 312.504687 193.402812 
L 312.504687 236.437187 
Q 312.504687 238.437187 314.504687 238.437187 
z
" style="fill:#ffffff;opacity:0.8;stroke:#cccccc;stroke-linejoin:miter;"/>
    </g>
    <g id="line2d_30"/>
    <g id="line2d_31">
     <g>
      <use style="fill:#1f77b4;stroke:#1f77b4;" x="326.504687" xlink:href="#ma70110db17" y="199.50125"/>
     </g>
    </g>
    <g id="text_17">
     <!-- Bayesian Optimization (BO) -->
     <defs>
      <path d="M 19.671875 34.8125 
L 19.671875 8.109375 
L 35.5 8.109375 
Q 43.453125 8.109375 47.28125 11.40625 
Q 51.125 14.703125 51.125 21.484375 
Q 51.125 28.328125 47.28125 31.5625 
Q 43.453125 34.8125 35.5 34.8125 
z
M 19.671875 64.796875 
L 19.671875 42.828125 
L 34.28125 42.828125 
Q 41.5 42.828125 45.03125 45.53125 
Q 48.578125 48.25 48.578125 53.8125 
Q 48.578125 59.328125 45.03125 62.0625 
Q 41.5 64.796875 34.28125 64.796875 
z
M 9.8125 72.90625 
L 35.015625 72.90625 
Q 46.296875 72.90625 52.390625 68.21875 
Q 58.5 63.53125 58.5 54.890625 
Q 58.5 48.1875 55.375 44.234375 
Q 52.25 40.28125 46.1875 39.3125 
Q 53.46875 37.75 57.5 32.78125 
Q 61.53125 27.828125 61.53125 20.40625 
Q 61.53125 10.640625 54.890625 5.3125 
Q 48.25 0 35.984375 0 
L 9.8125 0 
z
" id="DejaVuSans-66"/>
      <path d="M 32.171875 -5.078125 
Q 28.375 -14.84375 24.75 -17.8125 
Q 21.140625 -20.796875 15.09375 -20.796875 
L 7.90625 -20.796875 
L 7.90625 -13.28125 
L 13.1875 -13.28125 
Q 16.890625 -13.28125 18.9375 -11.515625 
Q 21 -9.765625 23.484375 -3.21875 
L 25.09375 0.875 
L 2.984375 54.6875 
L 12.5 54.6875 
L 29.59375 11.921875 
L 46.6875 54.6875 
L 56.203125 54.6875 
z
" id="DejaVuSans-121"/>
      <path d="M 39.40625 66.21875 
Q 28.65625 66.21875 22.328125 58.203125 
Q 16.015625 50.203125 16.015625 36.375 
Q 16.015625 22.609375 22.328125 14.59375 
Q 28.65625 6.59375 39.40625 6.59375 
Q 50.140625 6.59375 56.421875 14.59375 
Q 62.703125 22.609375 62.703125 36.375 
Q 62.703125 50.203125 56.421875 58.203125 
Q 50.140625 66.21875 39.40625 66.21875 
z
M 39.40625 74.21875 
Q 54.734375 74.21875 63.90625 63.9375 
Q 73.09375 53.65625 73.09375 36.375 
Q 73.09375 19.140625 63.90625 8.859375 
Q 54.734375 -1.421875 39.40625 -1.421875 
Q 24.03125 -1.421875 14.8125 8.828125 
Q 5.609375 19.09375 5.609375 36.375 
Q 5.609375 53.65625 14.8125 63.9375 
Q 24.03125 74.21875 39.40625 74.21875 
z
" id="DejaVuSans-79"/>
      <path d="M 5.515625 54.6875 
L 48.1875 54.6875 
L 48.1875 46.484375 
L 14.40625 7.171875 
L 48.1875 7.171875 
L 48.1875 0 
L 4.296875 0 
L 4.296875 8.203125 
L 38.09375 47.515625 
L 5.515625 47.515625 
z
" id="DejaVuSans-122"/>
     </defs>
     <g transform="translate(344.504687 203.00125)scale(0.1 -0.1)">
      <use xlink:href="#DejaVuSans-66"/>
      <use x="68.603516" xlink:href="#DejaVuSans-97"/>
      <use x="129.882812" xlink:href="#DejaVuSans-121"/>
      <use x="189.0625" xlink:href="#DejaVuSans-101"/>
      <use x="250.585938" xlink:href="#DejaVuSans-115"/>
      <use x="302.685547" xlink:href="#DejaVuSans-105"/>
      <use x="330.46875" xlink:href="#DejaVuSans-97"/>
      <use x="391.748047" xlink:href="#DejaVuSans-110"/>
      <use x="455.126953" xlink:href="#DejaVuSans-32"/>
      <use x="486.914062" xlink:href="#DejaVuSans-79"/>
      <use x="565.625" xlink:href="#DejaVuSans-112"/>
      <use x="629.101562" xlink:href="#DejaVuSans-116"/>
      <use x="668.310547" xlink:href="#DejaVuSans-105"/>
      <use x="696.09375" xlink:href="#DejaVuSans-109"/>
      <use x="793.505859" xlink:href="#DejaVuSans-105"/>
      <use x="821.289062" xlink:href="#DejaVuSans-122"/>
      <use x="873.779297" xlink:href="#DejaVuSans-97"/>
      <use x="935.058594" xlink:href="#DejaVuSans-116"/>
      <use x="974.267578" xlink:href="#DejaVuSans-105"/>
      <use x="1002.050781" xlink:href="#DejaVuSans-111"/>
      <use x="1063.232422" xlink:href="#DejaVuSans-110"/>
      <use x="1126.611328" xlink:href="#DejaVuSans-32"/>
      <use x="1158.398438" xlink:href="#DejaVuSans-40"/>
      <use x="1197.412109" xlink:href="#DejaVuSans-66"/>
      <use x="1266" xlink:href="#DejaVuSans-79"/>
      <use x="1344.710938" xlink:href="#DejaVuSans-41"/>
     </g>
    </g>
    <g id="line2d_32">
     <path d="M 316.504687 214.179375 
L 336.504687 214.179375 
" style="fill:none;stroke:#000000;stroke-dasharray:5.55,2.4;stroke-dashoffset:0;stroke-width:1.5;"/>
    </g>
    <g id="line2d_33"/>
    <g id="text_18">
     <!-- Random (uniform) search (Rand) -->
     <defs>
      <path d="M 44.390625 34.1875 
Q 47.5625 33.109375 50.5625 29.59375 
Q 53.5625 26.078125 56.59375 19.921875 
L 66.609375 0 
L 56 0 
L 46.6875 18.703125 
Q 43.0625 26.03125 39.671875 28.421875 
Q 36.28125 30.8125 30.421875 30.8125 
L 19.671875 30.8125 
L 19.671875 0 
L 9.8125 0 
L 9.8125 72.90625 
L 32.078125 72.90625 
Q 44.578125 72.90625 50.734375 67.671875 
Q 56.890625 62.453125 56.890625 51.90625 
Q 56.890625 45.015625 53.6875 40.46875 
Q 50.484375 35.9375 44.390625 34.1875 
z
M 19.671875 64.796875 
L 19.671875 38.921875 
L 32.078125 38.921875 
Q 39.203125 38.921875 42.84375 42.21875 
Q 46.484375 45.515625 46.484375 51.90625 
Q 46.484375 58.296875 42.84375 61.546875 
Q 39.203125 64.796875 32.078125 64.796875 
z
" id="DejaVuSans-82"/>
      <path d="M 37.109375 75.984375 
L 37.109375 68.5 
L 28.515625 68.5 
Q 23.6875 68.5 21.796875 66.546875 
Q 19.921875 64.59375 19.921875 59.515625 
L 19.921875 54.6875 
L 34.71875 54.6875 
L 34.71875 47.703125 
L 19.921875 47.703125 
L 19.921875 0 
L 10.890625 0 
L 10.890625 47.703125 
L 2.296875 47.703125 
L 2.296875 54.6875 
L 10.890625 54.6875 
L 10.890625 58.5 
Q 10.890625 67.625 15.140625 71.796875 
Q 19.390625 75.984375 28.609375 75.984375 
z
" id="DejaVuSans-102"/>
      <path d="M 54.890625 33.015625 
L 54.890625 0 
L 45.90625 0 
L 45.90625 32.71875 
Q 45.90625 40.484375 42.875 44.328125 
Q 39.84375 48.1875 33.796875 48.1875 
Q 26.515625 48.1875 22.3125 43.546875 
Q 18.109375 38.921875 18.109375 30.90625 
L 18.109375 0 
L 9.078125 0 
L 9.078125 75.984375 
L 18.109375 75.984375 
L 18.109375 46.1875 
Q 21.34375 51.125 25.703125 53.5625 
Q 30.078125 56 35.796875 56 
Q 45.21875 56 50.046875 50.171875 
Q 54.890625 44.34375 54.890625 33.015625 
z
" id="DejaVuSans-104"/>
     </defs>
     <g transform="translate(344.504687 217.679375)scale(0.1 -0.1)">
      <use xlink:href="#DejaVuSans-82"/>
      <use x="69.451172" xlink:href="#DejaVuSans-97"/>
      <use x="130.730469" xlink:href="#DejaVuSans-110"/>
      <use x="194.109375" xlink:href="#DejaVuSans-100"/>
      <use x="257.585938" xlink:href="#DejaVuSans-111"/>
      <use x="318.767578" xlink:href="#DejaVuSans-109"/>
      <use x="416.179688" xlink:href="#DejaVuSans-32"/>
      <use x="447.966797" xlink:href="#DejaVuSans-40"/>
      <use x="486.980469" xlink:href="#DejaVuSans-117"/>
      <use x="550.359375" xlink:href="#DejaVuSans-110"/>
      <use x="613.738281" xlink:href="#DejaVuSans-105"/>
      <use x="641.521484" xlink:href="#DejaVuSans-102"/>
      <use x="676.726562" xlink:href="#DejaVuSans-111"/>
      <use x="737.908203" xlink:href="#DejaVuSans-114"/>
      <use x="779.005859" xlink:href="#DejaVuSans-109"/>
      <use x="876.417969" xlink:href="#DejaVuSans-41"/>
      <use x="915.431641" xlink:href="#DejaVuSans-32"/>
      <use x="947.21875" xlink:href="#DejaVuSans-115"/>
      <use x="999.318359" xlink:href="#DejaVuSans-101"/>
      <use x="1060.841797" xlink:href="#DejaVuSans-97"/>
      <use x="1122.121094" xlink:href="#DejaVuSans-114"/>
      <use x="1163.203125" xlink:href="#DejaVuSans-99"/>
      <use x="1218.183594" xlink:href="#DejaVuSans-104"/>
      <use x="1281.5625" xlink:href="#DejaVuSans-32"/>
      <use x="1313.349609" xlink:href="#DejaVuSans-40"/>
      <use x="1352.363281" xlink:href="#DejaVuSans-82"/>
      <use x="1421.814453" xlink:href="#DejaVuSans-97"/>
      <use x="1483.09375" xlink:href="#DejaVuSans-110"/>
      <use x="1546.472656" xlink:href="#DejaVuSans-100"/>
      <use x="1609.949219" xlink:href="#DejaVuSans-41"/>
     </g>
    </g>
    <g id="line2d_34">
     <path d="M 316.504687 228.8575 
L 336.504687 228.8575 
" style="fill:none;stroke:#0000ff;stroke-linecap:square;stroke-width:1.5;"/>
    </g>
    <g id="line2d_35"/>
    <g id="text_19">
     <!-- Differential Evolution (DE) -->
     <defs>
      <path d="M 19.671875 64.796875 
L 19.671875 8.109375 
L 31.59375 8.109375 
Q 46.6875 8.109375 53.6875 14.9375 
Q 60.6875 21.78125 60.6875 36.53125 
Q 60.6875 51.171875 53.6875 57.984375 
Q 46.6875 64.796875 31.59375 64.796875 
z
M 9.8125 72.90625 
L 30.078125 72.90625 
Q 51.265625 72.90625 61.171875 64.09375 
Q 71.09375 55.28125 71.09375 36.53125 
Q 71.09375 17.671875 61.125 8.828125 
Q 51.171875 0 30.078125 0 
L 9.8125 0 
z
" id="DejaVuSans-68"/>
     </defs>
     <g transform="translate(344.504687 232.3575)scale(0.1 -0.1)">
      <use xlink:href="#DejaVuSans-68"/>
      <use x="77.001953" xlink:href="#DejaVuSans-105"/>
      <use x="104.785156" xlink:href="#DejaVuSans-102"/>
      <use x="139.990234" xlink:href="#DejaVuSans-102"/>
      <use x="175.195312" xlink:href="#DejaVuSans-101"/>
      <use x="236.71875" xlink:href="#DejaVuSans-114"/>
      <use x="277.800781" xlink:href="#DejaVuSans-101"/>
      <use x="339.324219" xlink:href="#DejaVuSans-110"/>
      <use x="402.703125" xlink:href="#DejaVuSans-116"/>
      <use x="441.912109" xlink:href="#DejaVuSans-105"/>
      <use x="469.695312" xlink:href="#DejaVuSans-97"/>
      <use x="530.974609" xlink:href="#DejaVuSans-108"/>
      <use x="558.757812" xlink:href="#DejaVuSans-32"/>
      <use x="590.544922" xlink:href="#DejaVuSans-69"/>
      <use x="653.728516" xlink:href="#DejaVuSans-118"/>
      <use x="712.908203" xlink:href="#DejaVuSans-111"/>
      <use x="774.089844" xlink:href="#DejaVuSans-108"/>
      <use x="801.873047" xlink:href="#DejaVuSans-117"/>
      <use x="865.251953" xlink:href="#DejaVuSans-116"/>
      <use x="904.460938" xlink:href="#DejaVuSans-105"/>
      <use x="932.244141" xlink:href="#DejaVuSans-111"/>
      <use x="993.425781" xlink:href="#DejaVuSans-110"/>
      <use x="1056.804688" xlink:href="#DejaVuSans-32"/>
      <use x="1088.591797" xlink:href="#DejaVuSans-40"/>
      <use x="1127.605469" xlink:href="#DejaVuSans-68"/>
      <use x="1204.607422" xlink:href="#DejaVuSans-69"/>
      <use x="1267.791016" xlink:href="#DejaVuSans-41"/>
     </g>
    </g>
   </g>
  </g>
 </g>
 <defs>
  <clipPath id="p54bff164ed">
   <rect height="326.16" width="446.4" x="72" y="51.84"/>
  </clipPath>
 </defs>
</svg>
