<?xml version="1.0" encoding="utf-8" standalone="no"?>
<!DOCTYPE svg PUBLIC "-//W3C//DTD SVG 1.1//EN"
  "http://www.w3.org/Graphics/SVG/1.1/DTD/svg11.dtd">
<!-- Created with matplotlib (https://matplotlib.org/) -->
<svg height="432pt" version="1.1" viewBox="0 0 576 432" width="576pt" xmlns="http://www.w3.org/2000/svg" xmlns:xlink="http://www.w3.org/1999/xlink">
 <metadata>
  <rdf:RDF xmlns:cc="http://creativecommons.org/ns#" xmlns:dc="http://purl.org/dc/elements/1.1/" xmlns:rdf="http://www.w3.org/1999/02/22-rdf-syntax-ns#">
   <cc:Work>
    <dc:type rdf:resource="http://purl.org/dc/dcmitype/StillImage"/>
    <dc:date>2020-11-07T02:24:49.673609</dc:date>
    <dc:format>image/svg+xml</dc:format>
    <dc:creator>
     <cc:Agent>
      <dc:title>Matplotlib v3.3.2, https://matplotlib.org/</dc:title>
     </cc:Agent>
    </dc:creator>
   </cc:Work>
  </rdf:RDF>
 </metadata>
 <defs>
  <style type="text/css">*{stroke-linecap:butt;stroke-linejoin:round;}</style>
 </defs>
 <g id="figure_1">
  <g id="patch_1">
   <path d="M 0 432 
L 576 432 
L 576 0 
L 0 0 
z
" style="fill:none;"/>
  </g>
  <g id="axes_1">
   <g id="patch_2">
    <path d="M 72 378 
L 518.4 378 
L 518.4 51.84 
L 72 51.84 
z
" style="fill:#ffffff;"/>
   </g>
   <g id="matplotlib.axis_1">
    <g id="xtick_1">
     <g id="line2d_1">
      <path clip-path="url(#p1675bc945d)" d="M 92.290909 378 
L 92.290909 51.84 
" style="fill:none;stroke:#b0b0b0;stroke-linecap:square;stroke-width:0.8;"/>
     </g>
     <g id="line2d_2">
      <defs>
       <path d="M 0 0 
L 0 3.5 
" id="m75b39fe14c" style="stroke:#000000;stroke-width:0.8;"/>
      </defs>
      <g>
       <use style="stroke:#000000;stroke-width:0.8;" x="92.290909" xlink:href="#m75b39fe14c" y="378"/>
      </g>
     </g>
     <g id="text_1">
      <!-- 0 -->
      <g transform="translate(89.109659 392.598437)scale(0.1 -0.1)">
       <defs>
        <path d="M 31.78125 66.40625 
Q 24.171875 66.40625 20.328125 58.90625 
Q 16.5 51.421875 16.5 36.375 
Q 16.5 21.390625 20.328125 13.890625 
Q 24.171875 6.390625 31.78125 6.390625 
Q 39.453125 6.390625 43.28125 13.890625 
Q 47.125 21.390625 47.125 36.375 
Q 47.125 51.421875 43.28125 58.90625 
Q 39.453125 66.40625 31.78125 66.40625 
z
M 31.78125 74.21875 
Q 44.046875 74.21875 50.515625 64.515625 
Q 56.984375 54.828125 56.984375 36.375 
Q 56.984375 17.96875 50.515625 8.265625 
Q 44.046875 -1.421875 31.78125 -1.421875 
Q 19.53125 -1.421875 13.0625 8.265625 
Q 6.59375 17.96875 6.59375 36.375 
Q 6.59375 54.828125 13.0625 64.515625 
Q 19.53125 74.21875 31.78125 74.21875 
z
" id="DejaVuSans-48"/>
       </defs>
       <use xlink:href="#DejaVuSans-48"/>
      </g>
     </g>
    </g>
    <g id="xtick_2">
     <g id="line2d_3">
      <path clip-path="url(#p1675bc945d)" d="M 166.88984 378 
L 166.88984 51.84 
" style="fill:none;stroke:#b0b0b0;stroke-linecap:square;stroke-width:0.8;"/>
     </g>
     <g id="line2d_4">
      <g>
       <use style="stroke:#000000;stroke-width:0.8;" x="166.88984" xlink:href="#m75b39fe14c" y="378"/>
      </g>
     </g>
     <g id="text_2">
      <!-- 50 -->
      <g transform="translate(160.52734 392.598437)scale(0.1 -0.1)">
       <defs>
        <path d="M 10.796875 72.90625 
L 49.515625 72.90625 
L 49.515625 64.59375 
L 19.828125 64.59375 
L 19.828125 46.734375 
Q 21.96875 47.46875 24.109375 47.828125 
Q 26.265625 48.1875 28.421875 48.1875 
Q 40.625 48.1875 47.75 41.5 
Q 54.890625 34.8125 54.890625 23.390625 
Q 54.890625 11.625 47.5625 5.09375 
Q 40.234375 -1.421875 26.90625 -1.421875 
Q 22.3125 -1.421875 17.546875 -0.640625 
Q 12.796875 0.140625 7.71875 1.703125 
L 7.71875 11.625 
Q 12.109375 9.234375 16.796875 8.0625 
Q 21.484375 6.890625 26.703125 6.890625 
Q 35.15625 6.890625 40.078125 11.328125 
Q 45.015625 15.765625 45.015625 23.390625 
Q 45.015625 31 40.078125 35.4375 
Q 35.15625 39.890625 26.703125 39.890625 
Q 22.75 39.890625 18.8125 39.015625 
Q 14.890625 38.140625 10.796875 36.28125 
z
" id="DejaVuSans-53"/>
       </defs>
       <use xlink:href="#DejaVuSans-53"/>
       <use x="63.623047" xlink:href="#DejaVuSans-48"/>
      </g>
     </g>
    </g>
    <g id="xtick_3">
     <g id="line2d_5">
      <path clip-path="url(#p1675bc945d)" d="M 241.48877 378 
L 241.48877 51.84 
" style="fill:none;stroke:#b0b0b0;stroke-linecap:square;stroke-width:0.8;"/>
     </g>
     <g id="line2d_6">
      <g>
       <use style="stroke:#000000;stroke-width:0.8;" x="241.48877" xlink:href="#m75b39fe14c" y="378"/>
      </g>
     </g>
     <g id="text_3">
      <!-- 100 -->
      <g transform="translate(231.94502 392.598437)scale(0.1 -0.1)">
       <defs>
        <path d="M 12.40625 8.296875 
L 28.515625 8.296875 
L 28.515625 63.921875 
L 10.984375 60.40625 
L 10.984375 69.390625 
L 28.421875 72.90625 
L 38.28125 72.90625 
L 38.28125 8.296875 
L 54.390625 8.296875 
L 54.390625 0 
L 12.40625 0 
z
" id="DejaVuSans-49"/>
       </defs>
       <use xlink:href="#DejaVuSans-49"/>
       <use x="63.623047" xlink:href="#DejaVuSans-48"/>
       <use x="127.246094" xlink:href="#DejaVuSans-48"/>
      </g>
     </g>
    </g>
    <g id="xtick_4">
     <g id="line2d_7">
      <path clip-path="url(#p1675bc945d)" d="M 316.087701 378 
L 316.087701 51.84 
" style="fill:none;stroke:#b0b0b0;stroke-linecap:square;stroke-width:0.8;"/>
     </g>
     <g id="line2d_8">
      <g>
       <use style="stroke:#000000;stroke-width:0.8;" x="316.087701" xlink:href="#m75b39fe14c" y="378"/>
      </g>
     </g>
     <g id="text_4">
      <!-- 150 -->
      <g transform="translate(306.543951 392.598437)scale(0.1 -0.1)">
       <use xlink:href="#DejaVuSans-49"/>
       <use x="63.623047" xlink:href="#DejaVuSans-53"/>
       <use x="127.246094" xlink:href="#DejaVuSans-48"/>
      </g>
     </g>
    </g>
    <g id="xtick_5">
     <g id="line2d_9">
      <path clip-path="url(#p1675bc945d)" d="M 390.686631 378 
L 390.686631 51.84 
" style="fill:none;stroke:#b0b0b0;stroke-linecap:square;stroke-width:0.8;"/>
     </g>
     <g id="line2d_10">
      <g>
       <use style="stroke:#000000;stroke-width:0.8;" x="390.686631" xlink:href="#m75b39fe14c" y="378"/>
      </g>
     </g>
     <g id="text_5">
      <!-- 200 -->
      <g transform="translate(381.142881 392.598437)scale(0.1 -0.1)">
       <defs>
        <path d="M 19.1875 8.296875 
L 53.609375 8.296875 
L 53.609375 0 
L 7.328125 0 
L 7.328125 8.296875 
Q 12.9375 14.109375 22.625 23.890625 
Q 32.328125 33.6875 34.8125 36.53125 
Q 39.546875 41.84375 41.421875 45.53125 
Q 43.3125 49.21875 43.3125 52.78125 
Q 43.3125 58.59375 39.234375 62.25 
Q 35.15625 65.921875 28.609375 65.921875 
Q 23.96875 65.921875 18.8125 64.3125 
Q 13.671875 62.703125 7.8125 59.421875 
L 7.8125 69.390625 
Q 13.765625 71.78125 18.9375 73 
Q 24.125 74.21875 28.421875 74.21875 
Q 39.75 74.21875 46.484375 68.546875 
Q 53.21875 62.890625 53.21875 53.421875 
Q 53.21875 48.921875 51.53125 44.890625 
Q 49.859375 40.875 45.40625 35.40625 
Q 44.1875 33.984375 37.640625 27.21875 
Q 31.109375 20.453125 19.1875 8.296875 
z
" id="DejaVuSans-50"/>
       </defs>
       <use xlink:href="#DejaVuSans-50"/>
       <use x="63.623047" xlink:href="#DejaVuSans-48"/>
       <use x="127.246094" xlink:href="#DejaVuSans-48"/>
      </g>
     </g>
    </g>
    <g id="xtick_6">
     <g id="line2d_11">
      <path clip-path="url(#p1675bc945d)" d="M 465.285561 378 
L 465.285561 51.84 
" style="fill:none;stroke:#b0b0b0;stroke-linecap:square;stroke-width:0.8;"/>
     </g>
     <g id="line2d_12">
      <g>
       <use style="stroke:#000000;stroke-width:0.8;" x="465.285561" xlink:href="#m75b39fe14c" y="378"/>
      </g>
     </g>
     <g id="text_6">
      <!-- 250 -->
      <g transform="translate(455.741811 392.598437)scale(0.1 -0.1)">
       <use xlink:href="#DejaVuSans-50"/>
       <use x="63.623047" xlink:href="#DejaVuSans-53"/>
       <use x="127.246094" xlink:href="#DejaVuSans-48"/>
      </g>
     </g>
    </g>
    <g id="text_7">
     <!-- # Fitness Evaluations -->
     <g transform="translate(241.528125 406.276563)scale(0.1 -0.1)">
      <defs>
       <path d="M 51.125 44 
L 36.921875 44 
L 32.8125 27.6875 
L 47.125 27.6875 
z
M 43.796875 71.78125 
L 38.71875 51.515625 
L 52.984375 51.515625 
L 58.109375 71.78125 
L 65.921875 71.78125 
L 60.890625 51.515625 
L 76.125 51.515625 
L 76.125 44 
L 58.984375 44 
L 54.984375 27.6875 
L 70.515625 27.6875 
L 70.515625 20.21875 
L 53.078125 20.21875 
L 48 0 
L 40.1875 0 
L 45.21875 20.21875 
L 30.90625 20.21875 
L 25.875 0 
L 18.015625 0 
L 23.09375 20.21875 
L 7.71875 20.21875 
L 7.71875 27.6875 
L 24.90625 27.6875 
L 29 44 
L 13.28125 44 
L 13.28125 51.515625 
L 30.90625 51.515625 
L 35.890625 71.78125 
z
" id="DejaVuSans-35"/>
       <path id="DejaVuSans-32"/>
       <path d="M 9.8125 72.90625 
L 51.703125 72.90625 
L 51.703125 64.59375 
L 19.671875 64.59375 
L 19.671875 43.109375 
L 48.578125 43.109375 
L 48.578125 34.8125 
L 19.671875 34.8125 
L 19.671875 0 
L 9.8125 0 
z
" id="DejaVuSans-70"/>
       <path d="M 9.421875 54.6875 
L 18.40625 54.6875 
L 18.40625 0 
L 9.421875 0 
z
M 9.421875 75.984375 
L 18.40625 75.984375 
L 18.40625 64.59375 
L 9.421875 64.59375 
z
" id="DejaVuSans-105"/>
       <path d="M 18.3125 70.21875 
L 18.3125 54.6875 
L 36.8125 54.6875 
L 36.8125 47.703125 
L 18.3125 47.703125 
L 18.3125 18.015625 
Q 18.3125 11.328125 20.140625 9.421875 
Q 21.96875 7.515625 27.59375 7.515625 
L 36.8125 7.515625 
L 36.8125 0 
L 27.59375 0 
Q 17.1875 0 13.234375 3.875 
Q 9.28125 7.765625 9.28125 18.015625 
L 9.28125 47.703125 
L 2.6875 47.703125 
L 2.6875 54.6875 
L 9.28125 54.6875 
L 9.28125 70.21875 
z
" id="DejaVuSans-116"/>
       <path d="M 54.890625 33.015625 
L 54.890625 0 
L 45.90625 0 
L 45.90625 32.71875 
Q 45.90625 40.484375 42.875 44.328125 
Q 39.84375 48.1875 33.796875 48.1875 
Q 26.515625 48.1875 22.3125 43.546875 
Q 18.109375 38.921875 18.109375 30.90625 
L 18.109375 0 
L 9.078125 0 
L 9.078125 54.6875 
L 18.109375 54.6875 
L 18.109375 46.1875 
Q 21.34375 51.125 25.703125 53.5625 
Q 30.078125 56 35.796875 56 
Q 45.21875 56 50.046875 50.171875 
Q 54.890625 44.34375 54.890625 33.015625 
z
" id="DejaVuSans-110"/>
       <path d="M 56.203125 29.59375 
L 56.203125 25.203125 
L 14.890625 25.203125 
Q 15.484375 15.921875 20.484375 11.0625 
Q 25.484375 6.203125 34.421875 6.203125 
Q 39.59375 6.203125 44.453125 7.46875 
Q 49.3125 8.734375 54.109375 11.28125 
L 54.109375 2.78125 
Q 49.265625 0.734375 44.1875 -0.34375 
Q 39.109375 -1.421875 33.890625 -1.421875 
Q 20.796875 -1.421875 13.15625 6.1875 
Q 5.515625 13.8125 5.515625 26.8125 
Q 5.515625 40.234375 12.765625 48.109375 
Q 20.015625 56 32.328125 56 
Q 43.359375 56 49.78125 48.890625 
Q 56.203125 41.796875 56.203125 29.59375 
z
M 47.21875 32.234375 
Q 47.125 39.59375 43.09375 43.984375 
Q 39.0625 48.390625 32.421875 48.390625 
Q 24.90625 48.390625 20.390625 44.140625 
Q 15.875 39.890625 15.1875 32.171875 
z
" id="DejaVuSans-101"/>
       <path d="M 44.28125 53.078125 
L 44.28125 44.578125 
Q 40.484375 46.53125 36.375 47.5 
Q 32.28125 48.484375 27.875 48.484375 
Q 21.1875 48.484375 17.84375 46.4375 
Q 14.5 44.390625 14.5 40.28125 
Q 14.5 37.15625 16.890625 35.375 
Q 19.28125 33.59375 26.515625 31.984375 
L 29.59375 31.296875 
Q 39.15625 29.25 43.1875 25.515625 
Q 47.21875 21.78125 47.21875 15.09375 
Q 47.21875 7.46875 41.1875 3.015625 
Q 35.15625 -1.421875 24.609375 -1.421875 
Q 20.21875 -1.421875 15.453125 -0.5625 
Q 10.6875 0.296875 5.421875 2 
L 5.421875 11.28125 
Q 10.40625 8.6875 15.234375 7.390625 
Q 20.0625 6.109375 24.8125 6.109375 
Q 31.15625 6.109375 34.5625 8.28125 
Q 37.984375 10.453125 37.984375 14.40625 
Q 37.984375 18.0625 35.515625 20.015625 
Q 33.0625 21.96875 24.703125 23.78125 
L 21.578125 24.515625 
Q 13.234375 26.265625 9.515625 29.90625 
Q 5.8125 33.546875 5.8125 39.890625 
Q 5.8125 47.609375 11.28125 51.796875 
Q 16.75 56 26.8125 56 
Q 31.78125 56 36.171875 55.265625 
Q 40.578125 54.546875 44.28125 53.078125 
z
" id="DejaVuSans-115"/>
       <path d="M 9.8125 72.90625 
L 55.90625 72.90625 
L 55.90625 64.59375 
L 19.671875 64.59375 
L 19.671875 43.015625 
L 54.390625 43.015625 
L 54.390625 34.71875 
L 19.671875 34.71875 
L 19.671875 8.296875 
L 56.78125 8.296875 
L 56.78125 0 
L 9.8125 0 
z
" id="DejaVuSans-69"/>
       <path d="M 2.984375 54.6875 
L 12.5 54.6875 
L 29.59375 8.796875 
L 46.6875 54.6875 
L 56.203125 54.6875 
L 35.6875 0 
L 23.484375 0 
z
" id="DejaVuSans-118"/>
       <path d="M 34.28125 27.484375 
Q 23.390625 27.484375 19.1875 25 
Q 14.984375 22.515625 14.984375 16.5 
Q 14.984375 11.71875 18.140625 8.90625 
Q 21.296875 6.109375 26.703125 6.109375 
Q 34.1875 6.109375 38.703125 11.40625 
Q 43.21875 16.703125 43.21875 25.484375 
L 43.21875 27.484375 
z
M 52.203125 31.203125 
L 52.203125 0 
L 43.21875 0 
L 43.21875 8.296875 
Q 40.140625 3.328125 35.546875 0.953125 
Q 30.953125 -1.421875 24.3125 -1.421875 
Q 15.921875 -1.421875 10.953125 3.296875 
Q 6 8.015625 6 15.921875 
Q 6 25.140625 12.171875 29.828125 
Q 18.359375 34.515625 30.609375 34.515625 
L 43.21875 34.515625 
L 43.21875 35.40625 
Q 43.21875 41.609375 39.140625 45 
Q 35.0625 48.390625 27.6875 48.390625 
Q 23 48.390625 18.546875 47.265625 
Q 14.109375 46.140625 10.015625 43.890625 
L 10.015625 52.203125 
Q 14.9375 54.109375 19.578125 55.046875 
Q 24.21875 56 28.609375 56 
Q 40.484375 56 46.34375 49.84375 
Q 52.203125 43.703125 52.203125 31.203125 
z
" id="DejaVuSans-97"/>
       <path d="M 9.421875 75.984375 
L 18.40625 75.984375 
L 18.40625 0 
L 9.421875 0 
z
" id="DejaVuSans-108"/>
       <path d="M 8.5 21.578125 
L 8.5 54.6875 
L 17.484375 54.6875 
L 17.484375 21.921875 
Q 17.484375 14.15625 20.5 10.265625 
Q 23.53125 6.390625 29.59375 6.390625 
Q 36.859375 6.390625 41.078125 11.03125 
Q 45.3125 15.671875 45.3125 23.6875 
L 45.3125 54.6875 
L 54.296875 54.6875 
L 54.296875 0 
L 45.3125 0 
L 45.3125 8.40625 
Q 42.046875 3.421875 37.71875 1 
Q 33.40625 -1.421875 27.6875 -1.421875 
Q 18.265625 -1.421875 13.375 4.4375 
Q 8.5 10.296875 8.5 21.578125 
z
M 31.109375 56 
z
" id="DejaVuSans-117"/>
       <path d="M 30.609375 48.390625 
Q 23.390625 48.390625 19.1875 42.75 
Q 14.984375 37.109375 14.984375 27.296875 
Q 14.984375 17.484375 19.15625 11.84375 
Q 23.34375 6.203125 30.609375 6.203125 
Q 37.796875 6.203125 41.984375 11.859375 
Q 46.1875 17.53125 46.1875 27.296875 
Q 46.1875 37.015625 41.984375 42.703125 
Q 37.796875 48.390625 30.609375 48.390625 
z
M 30.609375 56 
Q 42.328125 56 49.015625 48.375 
Q 55.71875 40.765625 55.71875 27.296875 
Q 55.71875 13.875 49.015625 6.21875 
Q 42.328125 -1.421875 30.609375 -1.421875 
Q 18.84375 -1.421875 12.171875 6.21875 
Q 5.515625 13.875 5.515625 27.296875 
Q 5.515625 40.765625 12.171875 48.375 
Q 18.84375 56 30.609375 56 
z
" id="DejaVuSans-111"/>
      </defs>
      <use xlink:href="#DejaVuSans-35"/>
      <use x="83.789062" xlink:href="#DejaVuSans-32"/>
      <use x="115.576172" xlink:href="#DejaVuSans-70"/>
      <use x="165.845703" xlink:href="#DejaVuSans-105"/>
      <use x="193.628906" xlink:href="#DejaVuSans-116"/>
      <use x="232.837891" xlink:href="#DejaVuSans-110"/>
      <use x="296.216797" xlink:href="#DejaVuSans-101"/>
      <use x="357.740234" xlink:href="#DejaVuSans-115"/>
      <use x="409.839844" xlink:href="#DejaVuSans-115"/>
      <use x="461.939453" xlink:href="#DejaVuSans-32"/>
      <use x="493.726562" xlink:href="#DejaVuSans-69"/>
      <use x="556.910156" xlink:href="#DejaVuSans-118"/>
      <use x="616.089844" xlink:href="#DejaVuSans-97"/>
      <use x="677.369141" xlink:href="#DejaVuSans-108"/>
      <use x="705.152344" xlink:href="#DejaVuSans-117"/>
      <use x="768.53125" xlink:href="#DejaVuSans-97"/>
      <use x="829.810547" xlink:href="#DejaVuSans-116"/>
      <use x="869.019531" xlink:href="#DejaVuSans-105"/>
      <use x="896.802734" xlink:href="#DejaVuSans-111"/>
      <use x="957.984375" xlink:href="#DejaVuSans-110"/>
      <use x="1021.363281" xlink:href="#DejaVuSans-115"/>
     </g>
    </g>
   </g>
   <g id="matplotlib.axis_2">
    <g id="ytick_1">
     <g id="line2d_13">
      <path clip-path="url(#p1675bc945d)" d="M 72 363.451309 
L 518.4 363.451309 
" style="fill:none;stroke:#b0b0b0;stroke-linecap:square;stroke-width:0.8;"/>
     </g>
     <g id="line2d_14">
      <defs>
       <path d="M 0 0 
L -3.5 0 
" id="m7bcaf1e4c6" style="stroke:#000000;stroke-width:0.8;"/>
      </defs>
      <g>
       <use style="stroke:#000000;stroke-width:0.8;" x="72" xlink:href="#m7bcaf1e4c6" y="363.451309"/>
      </g>
     </g>
     <g id="text_8">
      <!-- 250 -->
      <g transform="translate(45.9125 367.250528)scale(0.1 -0.1)">
       <use xlink:href="#DejaVuSans-50"/>
       <use x="63.623047" xlink:href="#DejaVuSans-53"/>
       <use x="127.246094" xlink:href="#DejaVuSans-48"/>
      </g>
     </g>
    </g>
    <g id="ytick_2">
     <g id="line2d_15">
      <path clip-path="url(#p1675bc945d)" d="M 72 324.645273 
L 518.4 324.645273 
" style="fill:none;stroke:#b0b0b0;stroke-linecap:square;stroke-width:0.8;"/>
     </g>
     <g id="line2d_16">
      <g>
       <use style="stroke:#000000;stroke-width:0.8;" x="72" xlink:href="#m7bcaf1e4c6" y="324.645273"/>
      </g>
     </g>
     <g id="text_9">
      <!-- 500 -->
      <g transform="translate(45.9125 328.444491)scale(0.1 -0.1)">
       <use xlink:href="#DejaVuSans-53"/>
       <use x="63.623047" xlink:href="#DejaVuSans-48"/>
       <use x="127.246094" xlink:href="#DejaVuSans-48"/>
      </g>
     </g>
    </g>
    <g id="ytick_3">
     <g id="line2d_17">
      <path clip-path="url(#p1675bc945d)" d="M 72 285.839236 
L 518.4 285.839236 
" style="fill:none;stroke:#b0b0b0;stroke-linecap:square;stroke-width:0.8;"/>
     </g>
     <g id="line2d_18">
      <g>
       <use style="stroke:#000000;stroke-width:0.8;" x="72" xlink:href="#m7bcaf1e4c6" y="285.839236"/>
      </g>
     </g>
     <g id="text_10">
      <!-- 750 -->
      <g transform="translate(45.9125 289.638455)scale(0.1 -0.1)">
       <defs>
        <path d="M 8.203125 72.90625 
L 55.078125 72.90625 
L 55.078125 68.703125 
L 28.609375 0 
L 18.3125 0 
L 43.21875 64.59375 
L 8.203125 64.59375 
z
" id="DejaVuSans-55"/>
       </defs>
       <use xlink:href="#DejaVuSans-55"/>
       <use x="63.623047" xlink:href="#DejaVuSans-53"/>
       <use x="127.246094" xlink:href="#DejaVuSans-48"/>
      </g>
     </g>
    </g>
    <g id="ytick_4">
     <g id="line2d_19">
      <path clip-path="url(#p1675bc945d)" d="M 72 247.0332 
L 518.4 247.0332 
" style="fill:none;stroke:#b0b0b0;stroke-linecap:square;stroke-width:0.8;"/>
     </g>
     <g id="line2d_20">
      <g>
       <use style="stroke:#000000;stroke-width:0.8;" x="72" xlink:href="#m7bcaf1e4c6" y="247.0332"/>
      </g>
     </g>
     <g id="text_11">
      <!-- 1000 -->
      <g transform="translate(39.55 250.832419)scale(0.1 -0.1)">
       <use xlink:href="#DejaVuSans-49"/>
       <use x="63.623047" xlink:href="#DejaVuSans-48"/>
       <use x="127.246094" xlink:href="#DejaVuSans-48"/>
       <use x="190.869141" xlink:href="#DejaVuSans-48"/>
      </g>
     </g>
    </g>
    <g id="ytick_5">
     <g id="line2d_21">
      <path clip-path="url(#p1675bc945d)" d="M 72 208.227164 
L 518.4 208.227164 
" style="fill:none;stroke:#b0b0b0;stroke-linecap:square;stroke-width:0.8;"/>
     </g>
     <g id="line2d_22">
      <g>
       <use style="stroke:#000000;stroke-width:0.8;" x="72" xlink:href="#m7bcaf1e4c6" y="208.227164"/>
      </g>
     </g>
     <g id="text_12">
      <!-- 1250 -->
      <g transform="translate(39.55 212.026382)scale(0.1 -0.1)">
       <use xlink:href="#DejaVuSans-49"/>
       <use x="63.623047" xlink:href="#DejaVuSans-50"/>
       <use x="127.246094" xlink:href="#DejaVuSans-53"/>
       <use x="190.869141" xlink:href="#DejaVuSans-48"/>
      </g>
     </g>
    </g>
    <g id="ytick_6">
     <g id="line2d_23">
      <path clip-path="url(#p1675bc945d)" d="M 72 169.421127 
L 518.4 169.421127 
" style="fill:none;stroke:#b0b0b0;stroke-linecap:square;stroke-width:0.8;"/>
     </g>
     <g id="line2d_24">
      <g>
       <use style="stroke:#000000;stroke-width:0.8;" x="72" xlink:href="#m7bcaf1e4c6" y="169.421127"/>
      </g>
     </g>
     <g id="text_13">
      <!-- 1500 -->
      <g transform="translate(39.55 173.220346)scale(0.1 -0.1)">
       <use xlink:href="#DejaVuSans-49"/>
       <use x="63.623047" xlink:href="#DejaVuSans-53"/>
       <use x="127.246094" xlink:href="#DejaVuSans-48"/>
       <use x="190.869141" xlink:href="#DejaVuSans-48"/>
      </g>
     </g>
    </g>
    <g id="ytick_7">
     <g id="line2d_25">
      <path clip-path="url(#p1675bc945d)" d="M 72 130.615091 
L 518.4 130.615091 
" style="fill:none;stroke:#b0b0b0;stroke-linecap:square;stroke-width:0.8;"/>
     </g>
     <g id="line2d_26">
      <g>
       <use style="stroke:#000000;stroke-width:0.8;" x="72" xlink:href="#m7bcaf1e4c6" y="130.615091"/>
      </g>
     </g>
     <g id="text_14">
      <!-- 1750 -->
      <g transform="translate(39.55 134.41431)scale(0.1 -0.1)">
       <use xlink:href="#DejaVuSans-49"/>
       <use x="63.623047" xlink:href="#DejaVuSans-55"/>
       <use x="127.246094" xlink:href="#DejaVuSans-53"/>
       <use x="190.869141" xlink:href="#DejaVuSans-48"/>
      </g>
     </g>
    </g>
    <g id="ytick_8">
     <g id="line2d_27">
      <path clip-path="url(#p1675bc945d)" d="M 72 91.809055 
L 518.4 91.809055 
" style="fill:none;stroke:#b0b0b0;stroke-linecap:square;stroke-width:0.8;"/>
     </g>
     <g id="line2d_28">
      <g>
       <use style="stroke:#000000;stroke-width:0.8;" x="72" xlink:href="#m7bcaf1e4c6" y="91.809055"/>
      </g>
     </g>
     <g id="text_15">
      <!-- 2000 -->
      <g transform="translate(39.55 95.608273)scale(0.1 -0.1)">
       <use xlink:href="#DejaVuSans-50"/>
       <use x="63.623047" xlink:href="#DejaVuSans-48"/>
       <use x="127.246094" xlink:href="#DejaVuSans-48"/>
       <use x="190.869141" xlink:href="#DejaVuSans-48"/>
      </g>
     </g>
    </g>
    <g id="ytick_9">
     <g id="line2d_29">
      <path clip-path="url(#p1675bc945d)" d="M 72 53.003018 
L 518.4 53.003018 
" style="fill:none;stroke:#b0b0b0;stroke-linecap:square;stroke-width:0.8;"/>
     </g>
     <g id="line2d_30">
      <g>
       <use style="stroke:#000000;stroke-width:0.8;" x="72" xlink:href="#m7bcaf1e4c6" y="53.003018"/>
      </g>
     </g>
     <g id="text_16">
      <!-- 2250 -->
      <g transform="translate(39.55 56.802237)scale(0.1 -0.1)">
       <use xlink:href="#DejaVuSans-50"/>
       <use x="63.623047" xlink:href="#DejaVuSans-50"/>
       <use x="127.246094" xlink:href="#DejaVuSans-53"/>
       <use x="190.869141" xlink:href="#DejaVuSans-48"/>
      </g>
     </g>
    </g>
    <g id="text_17">
     <!-- 100 - SMAPE% -->
     <g transform="translate(33.470312 251.279375)rotate(-90)scale(0.1 -0.1)">
      <defs>
       <path d="M 4.890625 31.390625 
L 31.203125 31.390625 
L 31.203125 23.390625 
L 4.890625 23.390625 
z
" id="DejaVuSans-45"/>
       <path d="M 53.515625 70.515625 
L 53.515625 60.890625 
Q 47.90625 63.578125 42.921875 64.890625 
Q 37.9375 66.21875 33.296875 66.21875 
Q 25.25 66.21875 20.875 63.09375 
Q 16.5 59.96875 16.5 54.203125 
Q 16.5 49.359375 19.40625 46.890625 
Q 22.3125 44.4375 30.421875 42.921875 
L 36.375 41.703125 
Q 47.40625 39.59375 52.65625 34.296875 
Q 57.90625 29 57.90625 20.125 
Q 57.90625 9.515625 50.796875 4.046875 
Q 43.703125 -1.421875 29.984375 -1.421875 
Q 24.8125 -1.421875 18.96875 -0.25 
Q 13.140625 0.921875 6.890625 3.21875 
L 6.890625 13.375 
Q 12.890625 10.015625 18.65625 8.296875 
Q 24.421875 6.59375 29.984375 6.59375 
Q 38.421875 6.59375 43.015625 9.90625 
Q 47.609375 13.234375 47.609375 19.390625 
Q 47.609375 24.75 44.3125 27.78125 
Q 41.015625 30.8125 33.5 32.328125 
L 27.484375 33.5 
Q 16.453125 35.6875 11.515625 40.375 
Q 6.59375 45.0625 6.59375 53.421875 
Q 6.59375 63.09375 13.40625 68.65625 
Q 20.21875 74.21875 32.171875 74.21875 
Q 37.3125 74.21875 42.625 73.28125 
Q 47.953125 72.359375 53.515625 70.515625 
z
" id="DejaVuSans-83"/>
       <path d="M 9.8125 72.90625 
L 24.515625 72.90625 
L 43.109375 23.296875 
L 61.8125 72.90625 
L 76.515625 72.90625 
L 76.515625 0 
L 66.890625 0 
L 66.890625 64.015625 
L 48.09375 14.015625 
L 38.1875 14.015625 
L 19.390625 64.015625 
L 19.390625 0 
L 9.8125 0 
z
" id="DejaVuSans-77"/>
       <path d="M 34.1875 63.1875 
L 20.796875 26.90625 
L 47.609375 26.90625 
z
M 28.609375 72.90625 
L 39.796875 72.90625 
L 67.578125 0 
L 57.328125 0 
L 50.6875 18.703125 
L 17.828125 18.703125 
L 11.1875 0 
L 0.78125 0 
z
" id="DejaVuSans-65"/>
       <path d="M 19.671875 64.796875 
L 19.671875 37.40625 
L 32.078125 37.40625 
Q 38.96875 37.40625 42.71875 40.96875 
Q 46.484375 44.53125 46.484375 51.125 
Q 46.484375 57.671875 42.71875 61.234375 
Q 38.96875 64.796875 32.078125 64.796875 
z
M 9.8125 72.90625 
L 32.078125 72.90625 
Q 44.34375 72.90625 50.609375 67.359375 
Q 56.890625 61.8125 56.890625 51.125 
Q 56.890625 40.328125 50.609375 34.8125 
Q 44.34375 29.296875 32.078125 29.296875 
L 19.671875 29.296875 
L 19.671875 0 
L 9.8125 0 
z
" id="DejaVuSans-80"/>
       <path d="M 72.703125 32.078125 
Q 68.453125 32.078125 66.03125 28.46875 
Q 63.625 24.859375 63.625 18.40625 
Q 63.625 12.0625 66.03125 8.421875 
Q 68.453125 4.78125 72.703125 4.78125 
Q 76.859375 4.78125 79.265625 8.421875 
Q 81.6875 12.0625 81.6875 18.40625 
Q 81.6875 24.8125 79.265625 28.4375 
Q 76.859375 32.078125 72.703125 32.078125 
z
M 72.703125 38.28125 
Q 80.421875 38.28125 84.953125 32.90625 
Q 89.5 27.546875 89.5 18.40625 
Q 89.5 9.28125 84.9375 3.921875 
Q 80.375 -1.421875 72.703125 -1.421875 
Q 64.890625 -1.421875 60.34375 3.921875 
Q 55.8125 9.28125 55.8125 18.40625 
Q 55.8125 27.59375 60.375 32.9375 
Q 64.9375 38.28125 72.703125 38.28125 
z
M 22.3125 68.015625 
Q 18.109375 68.015625 15.6875 64.375 
Q 13.28125 60.75 13.28125 54.390625 
Q 13.28125 47.953125 15.671875 44.328125 
Q 18.0625 40.71875 22.3125 40.71875 
Q 26.5625 40.71875 28.96875 44.328125 
Q 31.390625 47.953125 31.390625 54.390625 
Q 31.390625 60.6875 28.953125 64.34375 
Q 26.515625 68.015625 22.3125 68.015625 
z
M 66.40625 74.21875 
L 74.21875 74.21875 
L 28.609375 -1.421875 
L 20.796875 -1.421875 
z
M 22.3125 74.21875 
Q 30.03125 74.21875 34.609375 68.875 
Q 39.203125 63.53125 39.203125 54.390625 
Q 39.203125 45.171875 34.640625 39.84375 
Q 30.078125 34.515625 22.3125 34.515625 
Q 14.546875 34.515625 10.03125 39.859375 
Q 5.515625 45.21875 5.515625 54.390625 
Q 5.515625 63.484375 10.046875 68.84375 
Q 14.59375 74.21875 22.3125 74.21875 
z
" id="DejaVuSans-37"/>
      </defs>
      <use xlink:href="#DejaVuSans-49"/>
      <use x="63.623047" xlink:href="#DejaVuSans-48"/>
      <use x="127.246094" xlink:href="#DejaVuSans-48"/>
      <use x="190.869141" xlink:href="#DejaVuSans-32"/>
      <use x="222.65625" xlink:href="#DejaVuSans-45"/>
      <use x="258.740234" xlink:href="#DejaVuSans-32"/>
      <use x="290.527344" xlink:href="#DejaVuSans-83"/>
      <use x="354.003906" xlink:href="#DejaVuSans-77"/>
      <use x="440.283203" xlink:href="#DejaVuSans-65"/>
      <use x="508.691406" xlink:href="#DejaVuSans-80"/>
      <use x="568.994141" xlink:href="#DejaVuSans-69"/>
      <use x="632.177734" xlink:href="#DejaVuSans-37"/>
     </g>
    </g>
   </g>
   <g id="line2d_31">
    <defs>
     <path d="M -3 3 
L 3 -3 
M -3 -3 
L 3 3 
" id="me91435e590" style="stroke:#1f77b4;"/>
    </defs>
    <g clip-path="url(#p1675bc945d)">
     <use style="fill:#1f77b4;stroke:#1f77b4;" x="92.290909" xlink:href="#me91435e590" y="359.577389"/>
     <use style="fill:#1f77b4;stroke:#1f77b4;" x="93.782888" xlink:href="#me91435e590" y="357.904018"/>
     <use style="fill:#1f77b4;stroke:#1f77b4;" x="95.274866" xlink:href="#me91435e590" y="347.722305"/>
     <use style="fill:#1f77b4;stroke:#1f77b4;" x="96.766845" xlink:href="#me91435e590" y="354.278049"/>
     <use style="fill:#1f77b4;stroke:#1f77b4;" x="98.258824" xlink:href="#me91435e590" y="359.551425"/>
     <use style="fill:#1f77b4;stroke:#1f77b4;" x="99.750802" xlink:href="#me91435e590" y="357.048962"/>
     <use style="fill:#1f77b4;stroke:#1f77b4;" x="101.242781" xlink:href="#me91435e590" y="344.379694"/>
     <use style="fill:#1f77b4;stroke:#1f77b4;" x="102.734759" xlink:href="#me91435e590" y="189.555082"/>
     <use style="fill:#1f77b4;stroke:#1f77b4;" x="104.226738" xlink:href="#me91435e590" y="353.634515"/>
     <use style="fill:#1f77b4;stroke:#1f77b4;" x="105.718717" xlink:href="#me91435e590" y="357.422328"/>
     <use style="fill:#1f77b4;stroke:#1f77b4;" x="107.210695" xlink:href="#me91435e590" y="356.408739"/>
     <use style="fill:#1f77b4;stroke:#1f77b4;" x="108.702674" xlink:href="#me91435e590" y="346.307327"/>
     <use style="fill:#1f77b4;stroke:#1f77b4;" x="110.194652" xlink:href="#me91435e590" y="363.174545"/>
     <use style="fill:#1f77b4;stroke:#1f77b4;" x="111.686631" xlink:href="#me91435e590" y="357.445736"/>
     <use style="fill:#1f77b4;stroke:#1f77b4;" x="113.17861" xlink:href="#me91435e590" y="294.985202"/>
     <use style="fill:#1f77b4;stroke:#1f77b4;" x="114.670588" xlink:href="#me91435e590" y="358.465162"/>
     <use style="fill:#1f77b4;stroke:#1f77b4;" x="116.162567" xlink:href="#me91435e590" y="359.164726"/>
     <use style="fill:#1f77b4;stroke:#1f77b4;" x="117.654545" xlink:href="#me91435e590" y="303.973442"/>
     <use style="fill:#1f77b4;stroke:#1f77b4;" x="119.146524" xlink:href="#me91435e590" y="336.105215"/>
     <use style="fill:#1f77b4;stroke:#1f77b4;" x="120.638503" xlink:href="#me91435e590" y="359.564554"/>
     <use style="fill:#1f77b4;stroke:#1f77b4;" x="122.130481" xlink:href="#me91435e590" y="354.309035"/>
     <use style="fill:#1f77b4;stroke:#1f77b4;" x="123.62246" xlink:href="#me91435e590" y="352.573262"/>
     <use style="fill:#1f77b4;stroke:#1f77b4;" x="125.114439" xlink:href="#me91435e590" y="359.005436"/>
     <use style="fill:#1f77b4;stroke:#1f77b4;" x="126.606417" xlink:href="#me91435e590" y="277.29457"/>
     <use style="fill:#1f77b4;stroke:#1f77b4;" x="128.098396" xlink:href="#me91435e590" y="362.709899"/>
     <use style="fill:#1f77b4;stroke:#1f77b4;" x="129.590374" xlink:href="#me91435e590" y="308.195268"/>
     <use style="fill:#1f77b4;stroke:#1f77b4;" x="131.082353" xlink:href="#me91435e590" y="357.387661"/>
     <use style="fill:#1f77b4;stroke:#1f77b4;" x="132.574332" xlink:href="#me91435e590" y="359.074526"/>
     <use style="fill:#1f77b4;stroke:#1f77b4;" x="134.06631" xlink:href="#me91435e590" y="360.21647"/>
     <use style="fill:#1f77b4;stroke:#1f77b4;" x="135.558289" xlink:href="#me91435e590" y="358.652422"/>
     <use style="fill:#1f77b4;stroke:#1f77b4;" x="137.050267" xlink:href="#me91435e590" y="323.134452"/>
     <use style="fill:#1f77b4;stroke:#1f77b4;" x="138.542246" xlink:href="#me91435e590" y="361.711055"/>
     <use style="fill:#1f77b4;stroke:#1f77b4;" x="140.034225" xlink:href="#me91435e590" y="276.362557"/>
     <use style="fill:#1f77b4;stroke:#1f77b4;" x="141.526203" xlink:href="#me91435e590" y="329.357436"/>
     <use style="fill:#1f77b4;stroke:#1f77b4;" x="143.018182" xlink:href="#me91435e590" y="361.489768"/>
     <use style="fill:#1f77b4;stroke:#1f77b4;" x="144.51016" xlink:href="#me91435e590" y="361.378751"/>
     <use style="fill:#1f77b4;stroke:#1f77b4;" x="146.002139" xlink:href="#me91435e590" y="360.704197"/>
     <use style="fill:#1f77b4;stroke:#1f77b4;" x="147.494118" xlink:href="#me91435e590" y="277.435564"/>
     <use style="fill:#1f77b4;stroke:#1f77b4;" x="148.986096" xlink:href="#me91435e590" y="358.772237"/>
     <use style="fill:#1f77b4;stroke:#1f77b4;" x="150.478075" xlink:href="#me91435e590" y="360.440667"/>
     <use style="fill:#1f77b4;stroke:#1f77b4;" x="151.970053" xlink:href="#me91435e590" y="359.894863"/>
     <use style="fill:#1f77b4;stroke:#1f77b4;" x="153.462032" xlink:href="#me91435e590" y="359.625159"/>
     <use style="fill:#1f77b4;stroke:#1f77b4;" x="154.954011" xlink:href="#me91435e590" y="362.016289"/>
     <use style="fill:#1f77b4;stroke:#1f77b4;" x="156.445989" xlink:href="#me91435e590" y="253.765012"/>
     <use style="fill:#1f77b4;stroke:#1f77b4;" x="157.937968" xlink:href="#me91435e590" y="345.224802"/>
     <use style="fill:#1f77b4;stroke:#1f77b4;" x="159.429947" xlink:href="#me91435e590" y="357.12618"/>
     <use style="fill:#1f77b4;stroke:#1f77b4;" x="160.921925" xlink:href="#me91435e590" y="351.208268"/>
     <use style="fill:#1f77b4;stroke:#1f77b4;" x="162.413904" xlink:href="#me91435e590" y="344.899779"/>
     <use style="fill:#1f77b4;stroke:#1f77b4;" x="163.905882" xlink:href="#me91435e590" y="358.927007"/>
     <use style="fill:#1f77b4;stroke:#1f77b4;" x="165.397861" xlink:href="#me91435e590" y="355.635258"/>
     <use style="fill:#1f77b4;stroke:#1f77b4;" x="166.88984" xlink:href="#me91435e590" y="311.428414"/>
     <use style="fill:#1f77b4;stroke:#1f77b4;" x="168.381818" xlink:href="#me91435e590" y="358.883224"/>
     <use style="fill:#1f77b4;stroke:#1f77b4;" x="169.873797" xlink:href="#me91435e590" y="359.6015"/>
     <use style="fill:#1f77b4;stroke:#1f77b4;" x="171.365775" xlink:href="#me91435e590" y="359.664168"/>
     <use style="fill:#1f77b4;stroke:#1f77b4;" x="172.857754" xlink:href="#me91435e590" y="345.035877"/>
     <use style="fill:#1f77b4;stroke:#1f77b4;" x="174.349733" xlink:href="#me91435e590" y="354.841115"/>
     <use style="fill:#1f77b4;stroke:#1f77b4;" x="175.841711" xlink:href="#me91435e590" y="277.370736"/>
     <use style="fill:#1f77b4;stroke:#1f77b4;" x="177.33369" xlink:href="#me91435e590" y="361.418575"/>
     <use style="fill:#1f77b4;stroke:#1f77b4;" x="178.825668" xlink:href="#me91435e590" y="361.596837"/>
     <use style="fill:#1f77b4;stroke:#1f77b4;" x="180.317647" xlink:href="#me91435e590" y="180.411369"/>
     <use style="fill:#1f77b4;stroke:#1f77b4;" x="181.809626" xlink:href="#me91435e590" y="359.110372"/>
     <use style="fill:#1f77b4;stroke:#1f77b4;" x="183.301604" xlink:href="#me91435e590" y="360.059006"/>
     <use style="fill:#1f77b4;stroke:#1f77b4;" x="184.793583" xlink:href="#me91435e590" y="356.095751"/>
     <use style="fill:#1f77b4;stroke:#1f77b4;" x="186.285561" xlink:href="#me91435e590" y="349.912117"/>
     <use style="fill:#1f77b4;stroke:#1f77b4;" x="187.77754" xlink:href="#me91435e590" y="348.904491"/>
     <use style="fill:#1f77b4;stroke:#1f77b4;" x="189.269519" xlink:href="#me91435e590" y="259.778968"/>
     <use style="fill:#1f77b4;stroke:#1f77b4;" x="190.761497" xlink:href="#me91435e590" y="346.007375"/>
     <use style="fill:#1f77b4;stroke:#1f77b4;" x="192.253476" xlink:href="#me91435e590" y="358.339784"/>
     <use style="fill:#1f77b4;stroke:#1f77b4;" x="193.745455" xlink:href="#me91435e590" y="278.62029"/>
     <use style="fill:#1f77b4;stroke:#1f77b4;" x="195.237433" xlink:href="#me91435e590" y="336.236464"/>
     <use style="fill:#1f77b4;stroke:#1f77b4;" x="196.729412" xlink:href="#me91435e590" y="336.32682"/>
     <use style="fill:#1f77b4;stroke:#1f77b4;" x="198.22139" xlink:href="#me91435e590" y="340.889618"/>
     <use style="fill:#1f77b4;stroke:#1f77b4;" x="199.713369" xlink:href="#me91435e590" y="282.501453"/>
     <use style="fill:#1f77b4;stroke:#1f77b4;" x="201.205348" xlink:href="#me91435e590" y="358.500637"/>
     <use style="fill:#1f77b4;stroke:#1f77b4;" x="202.697326" xlink:href="#me91435e590" y="333.510061"/>
     <use style="fill:#1f77b4;stroke:#1f77b4;" x="204.189305" xlink:href="#me91435e590" y="350.629627"/>
     <use style="fill:#1f77b4;stroke:#1f77b4;" x="205.681283" xlink:href="#me91435e590" y="341.082669"/>
     <use style="fill:#1f77b4;stroke:#1f77b4;" x="207.173262" xlink:href="#me91435e590" y="316.075204"/>
     <use style="fill:#1f77b4;stroke:#1f77b4;" x="208.665241" xlink:href="#me91435e590" y="359.259669"/>
     <use style="fill:#1f77b4;stroke:#1f77b4;" x="210.157219" xlink:href="#me91435e590" y="260.796584"/>
     <use style="fill:#1f77b4;stroke:#1f77b4;" x="211.649198" xlink:href="#me91435e590" y="277.366361"/>
     <use style="fill:#1f77b4;stroke:#1f77b4;" x="213.141176" xlink:href="#me91435e590" y="291.291551"/>
     <use style="fill:#1f77b4;stroke:#1f77b4;" x="214.633155" xlink:href="#me91435e590" y="355.722636"/>
     <use style="fill:#1f77b4;stroke:#1f77b4;" x="216.125134" xlink:href="#me91435e590" y="360.765514"/>
     <use style="fill:#1f77b4;stroke:#1f77b4;" x="217.617112" xlink:href="#me91435e590" y="277.584725"/>
     <use style="fill:#1f77b4;stroke:#1f77b4;" x="219.109091" xlink:href="#me91435e590" y="317.180637"/>
     <use style="fill:#1f77b4;stroke:#1f77b4;" x="220.60107" xlink:href="#me91435e590" y="352.85518"/>
     <use style="fill:#1f77b4;stroke:#1f77b4;" x="222.093048" xlink:href="#me91435e590" y="358.591878"/>
     <use style="fill:#1f77b4;stroke:#1f77b4;" x="223.585027" xlink:href="#me91435e590" y="357.033935"/>
     <use style="fill:#1f77b4;stroke:#1f77b4;" x="225.077005" xlink:href="#me91435e590" y="360.970503"/>
     <use style="fill:#1f77b4;stroke:#1f77b4;" x="226.568984" xlink:href="#me91435e590" y="66.665455"/>
     <use style="fill:#1f77b4;stroke:#1f77b4;" x="228.060963" xlink:href="#me91435e590" y="340.92704"/>
     <use style="fill:#1f77b4;stroke:#1f77b4;" x="229.552941" xlink:href="#me91435e590" y="359.386566"/>
     <use style="fill:#1f77b4;stroke:#1f77b4;" x="231.04492" xlink:href="#me91435e590" y="361.216025"/>
     <use style="fill:#1f77b4;stroke:#1f77b4;" x="232.536898" xlink:href="#me91435e590" y="360.924427"/>
     <use style="fill:#1f77b4;stroke:#1f77b4;" x="234.028877" xlink:href="#me91435e590" y="294.294635"/>
     <use style="fill:#1f77b4;stroke:#1f77b4;" x="235.520856" xlink:href="#me91435e590" y="361.19874"/>
     <use style="fill:#1f77b4;stroke:#1f77b4;" x="237.012834" xlink:href="#me91435e590" y="361.976467"/>
     <use style="fill:#1f77b4;stroke:#1f77b4;" x="238.504813" xlink:href="#me91435e590" y="349.711412"/>
     <use style="fill:#1f77b4;stroke:#1f77b4;" x="239.996791" xlink:href="#me91435e590" y="357.613897"/>
     <use style="fill:#1f77b4;stroke:#1f77b4;" x="241.48877" xlink:href="#me91435e590" y="359.257349"/>
     <use style="fill:#1f77b4;stroke:#1f77b4;" x="242.980749" xlink:href="#me91435e590" y="359.42815"/>
     <use style="fill:#1f77b4;stroke:#1f77b4;" x="244.472727" xlink:href="#me91435e590" y="358.651646"/>
     <use style="fill:#1f77b4;stroke:#1f77b4;" x="245.964706" xlink:href="#me91435e590" y="320.309138"/>
     <use style="fill:#1f77b4;stroke:#1f77b4;" x="247.456684" xlink:href="#me91435e590" y="326.856851"/>
     <use style="fill:#1f77b4;stroke:#1f77b4;" x="248.948663" xlink:href="#me91435e590" y="317.945903"/>
     <use style="fill:#1f77b4;stroke:#1f77b4;" x="250.440642" xlink:href="#me91435e590" y="265.231868"/>
     <use style="fill:#1f77b4;stroke:#1f77b4;" x="251.93262" xlink:href="#me91435e590" y="302.503367"/>
     <use style="fill:#1f77b4;stroke:#1f77b4;" x="253.424599" xlink:href="#me91435e590" y="359.379654"/>
     <use style="fill:#1f77b4;stroke:#1f77b4;" x="254.916578" xlink:href="#me91435e590" y="353.266345"/>
     <use style="fill:#1f77b4;stroke:#1f77b4;" x="256.408556" xlink:href="#me91435e590" y="358.479319"/>
     <use style="fill:#1f77b4;stroke:#1f77b4;" x="257.900535" xlink:href="#me91435e590" y="326.010403"/>
     <use style="fill:#1f77b4;stroke:#1f77b4;" x="259.392513" xlink:href="#me91435e590" y="339.577833"/>
     <use style="fill:#1f77b4;stroke:#1f77b4;" x="260.884492" xlink:href="#me91435e590" y="357.559929"/>
     <use style="fill:#1f77b4;stroke:#1f77b4;" x="262.376471" xlink:href="#me91435e590" y="354.833183"/>
     <use style="fill:#1f77b4;stroke:#1f77b4;" x="263.868449" xlink:href="#me91435e590" y="360.478734"/>
     <use style="fill:#1f77b4;stroke:#1f77b4;" x="265.360428" xlink:href="#me91435e590" y="358.331398"/>
     <use style="fill:#1f77b4;stroke:#1f77b4;" x="266.852406" xlink:href="#me91435e590" y="347.903075"/>
     <use style="fill:#1f77b4;stroke:#1f77b4;" x="268.344385" xlink:href="#me91435e590" y="359.474904"/>
     <use style="fill:#1f77b4;stroke:#1f77b4;" x="269.836364" xlink:href="#me91435e590" y="277.487078"/>
     <use style="fill:#1f77b4;stroke:#1f77b4;" x="271.328342" xlink:href="#me91435e590" y="357.583039"/>
     <use style="fill:#1f77b4;stroke:#1f77b4;" x="272.820321" xlink:href="#me91435e590" y="320.281854"/>
     <use style="fill:#1f77b4;stroke:#1f77b4;" x="274.312299" xlink:href="#me91435e590" y="361.112246"/>
     <use style="fill:#1f77b4;stroke:#1f77b4;" x="275.804278" xlink:href="#me91435e590" y="355.588036"/>
     <use style="fill:#1f77b4;stroke:#1f77b4;" x="277.296257" xlink:href="#me91435e590" y="344.758935"/>
     <use style="fill:#1f77b4;stroke:#1f77b4;" x="278.788235" xlink:href="#me91435e590" y="346.926271"/>
     <use style="fill:#1f77b4;stroke:#1f77b4;" x="280.280214" xlink:href="#me91435e590" y="359.507078"/>
     <use style="fill:#1f77b4;stroke:#1f77b4;" x="281.772193" xlink:href="#me91435e590" y="356.981607"/>
     <use style="fill:#1f77b4;stroke:#1f77b4;" x="283.264171" xlink:href="#me91435e590" y="357.79308"/>
     <use style="fill:#1f77b4;stroke:#1f77b4;" x="284.75615" xlink:href="#me91435e590" y="341.434097"/>
     <use style="fill:#1f77b4;stroke:#1f77b4;" x="286.248128" xlink:href="#me91435e590" y="360.494724"/>
     <use style="fill:#1f77b4;stroke:#1f77b4;" x="287.740107" xlink:href="#me91435e590" y="300.756446"/>
     <use style="fill:#1f77b4;stroke:#1f77b4;" x="289.232086" xlink:href="#me91435e590" y="352.303892"/>
     <use style="fill:#1f77b4;stroke:#1f77b4;" x="290.724064" xlink:href="#me91435e590" y="348.88136"/>
     <use style="fill:#1f77b4;stroke:#1f77b4;" x="292.216043" xlink:href="#me91435e590" y="357.163595"/>
     <use style="fill:#1f77b4;stroke:#1f77b4;" x="293.708021" xlink:href="#me91435e590" y="356.094896"/>
     <use style="fill:#1f77b4;stroke:#1f77b4;" x="295.2" xlink:href="#me91435e590" y="291.313771"/>
     <use style="fill:#1f77b4;stroke:#1f77b4;" x="296.691979" xlink:href="#me91435e590" y="329.159794"/>
     <use style="fill:#1f77b4;stroke:#1f77b4;" x="298.183957" xlink:href="#me91435e590" y="360.24434"/>
     <use style="fill:#1f77b4;stroke:#1f77b4;" x="299.675936" xlink:href="#me91435e590" y="336.186379"/>
     <use style="fill:#1f77b4;stroke:#1f77b4;" x="301.167914" xlink:href="#me91435e590" y="358.192227"/>
     <use style="fill:#1f77b4;stroke:#1f77b4;" x="302.659893" xlink:href="#me91435e590" y="359.811283"/>
     <use style="fill:#1f77b4;stroke:#1f77b4;" x="304.151872" xlink:href="#me91435e590" y="354.836392"/>
     <use style="fill:#1f77b4;stroke:#1f77b4;" x="305.64385" xlink:href="#me91435e590" y="326.389257"/>
     <use style="fill:#1f77b4;stroke:#1f77b4;" x="307.135829" xlink:href="#me91435e590" y="359.277747"/>
     <use style="fill:#1f77b4;stroke:#1f77b4;" x="308.627807" xlink:href="#me91435e590" y="341.948955"/>
     <use style="fill:#1f77b4;stroke:#1f77b4;" x="310.119786" xlink:href="#me91435e590" y="355.035268"/>
     <use style="fill:#1f77b4;stroke:#1f77b4;" x="311.611765" xlink:href="#me91435e590" y="345.530022"/>
     <use style="fill:#1f77b4;stroke:#1f77b4;" x="313.103743" xlink:href="#me91435e590" y="359.027668"/>
     <use style="fill:#1f77b4;stroke:#1f77b4;" x="314.595722" xlink:href="#me91435e590" y="360.581097"/>
     <use style="fill:#1f77b4;stroke:#1f77b4;" x="316.087701" xlink:href="#me91435e590" y="361.19475"/>
     <use style="fill:#1f77b4;stroke:#1f77b4;" x="317.579679" xlink:href="#me91435e590" y="358.517625"/>
     <use style="fill:#1f77b4;stroke:#1f77b4;" x="319.071658" xlink:href="#me91435e590" y="360.54012"/>
     <use style="fill:#1f77b4;stroke:#1f77b4;" x="320.563636" xlink:href="#me91435e590" y="360.561543"/>
     <use style="fill:#1f77b4;stroke:#1f77b4;" x="322.055615" xlink:href="#me91435e590" y="325.731925"/>
     <use style="fill:#1f77b4;stroke:#1f77b4;" x="323.547594" xlink:href="#me91435e590" y="341.754989"/>
     <use style="fill:#1f77b4;stroke:#1f77b4;" x="325.039572" xlink:href="#me91435e590" y="320.237487"/>
     <use style="fill:#1f77b4;stroke:#1f77b4;" x="326.531551" xlink:href="#me91435e590" y="323.537013"/>
     <use style="fill:#1f77b4;stroke:#1f77b4;" x="328.023529" xlink:href="#me91435e590" y="276.674839"/>
     <use style="fill:#1f77b4;stroke:#1f77b4;" x="329.515508" xlink:href="#me91435e590" y="359.26946"/>
     <use style="fill:#1f77b4;stroke:#1f77b4;" x="331.007487" xlink:href="#me91435e590" y="357.466878"/>
     <use style="fill:#1f77b4;stroke:#1f77b4;" x="332.499465" xlink:href="#me91435e590" y="360.891985"/>
     <use style="fill:#1f77b4;stroke:#1f77b4;" x="333.991444" xlink:href="#me91435e590" y="357.97009"/>
     <use style="fill:#1f77b4;stroke:#1f77b4;" x="335.483422" xlink:href="#me91435e590" y="360.12555"/>
     <use style="fill:#1f77b4;stroke:#1f77b4;" x="336.975401" xlink:href="#me91435e590" y="359.522563"/>
     <use style="fill:#1f77b4;stroke:#1f77b4;" x="338.46738" xlink:href="#me91435e590" y="354.021176"/>
     <use style="fill:#1f77b4;stroke:#1f77b4;" x="339.959358" xlink:href="#me91435e590" y="343.102691"/>
     <use style="fill:#1f77b4;stroke:#1f77b4;" x="341.451337" xlink:href="#me91435e590" y="355.233555"/>
     <use style="fill:#1f77b4;stroke:#1f77b4;" x="342.943316" xlink:href="#me91435e590" y="348.709836"/>
     <use style="fill:#1f77b4;stroke:#1f77b4;" x="344.435294" xlink:href="#me91435e590" y="359.817373"/>
     <use style="fill:#1f77b4;stroke:#1f77b4;" x="345.927273" xlink:href="#me91435e590" y="353.420852"/>
     <use style="fill:#1f77b4;stroke:#1f77b4;" x="347.419251" xlink:href="#me91435e590" y="350.418189"/>
     <use style="fill:#1f77b4;stroke:#1f77b4;" x="348.91123" xlink:href="#me91435e590" y="337.465889"/>
     <use style="fill:#1f77b4;stroke:#1f77b4;" x="350.403209" xlink:href="#me91435e590" y="314.903333"/>
     <use style="fill:#1f77b4;stroke:#1f77b4;" x="351.895187" xlink:href="#me91435e590" y="360.939083"/>
     <use style="fill:#1f77b4;stroke:#1f77b4;" x="353.387166" xlink:href="#me91435e590" y="277.31965"/>
     <use style="fill:#1f77b4;stroke:#1f77b4;" x="354.879144" xlink:href="#me91435e590" y="357.626396"/>
     <use style="fill:#1f77b4;stroke:#1f77b4;" x="356.371123" xlink:href="#me91435e590" y="284.08815"/>
     <use style="fill:#1f77b4;stroke:#1f77b4;" x="357.863102" xlink:href="#me91435e590" y="356.507505"/>
     <use style="fill:#1f77b4;stroke:#1f77b4;" x="359.35508" xlink:href="#me91435e590" y="357.093046"/>
     <use style="fill:#1f77b4;stroke:#1f77b4;" x="360.847059" xlink:href="#me91435e590" y="361.759583"/>
     <use style="fill:#1f77b4;stroke:#1f77b4;" x="362.339037" xlink:href="#me91435e590" y="356.907195"/>
     <use style="fill:#1f77b4;stroke:#1f77b4;" x="363.831016" xlink:href="#me91435e590" y="354.242802"/>
     <use style="fill:#1f77b4;stroke:#1f77b4;" x="365.322995" xlink:href="#me91435e590" y="310.964401"/>
     <use style="fill:#1f77b4;stroke:#1f77b4;" x="366.814973" xlink:href="#me91435e590" y="357.81091"/>
     <use style="fill:#1f77b4;stroke:#1f77b4;" x="368.306952" xlink:href="#me91435e590" y="357.526426"/>
     <use style="fill:#1f77b4;stroke:#1f77b4;" x="369.79893" xlink:href="#me91435e590" y="281.752889"/>
     <use style="fill:#1f77b4;stroke:#1f77b4;" x="371.290909" xlink:href="#me91435e590" y="355.028794"/>
     <use style="fill:#1f77b4;stroke:#1f77b4;" x="372.782888" xlink:href="#me91435e590" y="355.001197"/>
     <use style="fill:#1f77b4;stroke:#1f77b4;" x="374.274866" xlink:href="#me91435e590" y="358.244505"/>
     <use style="fill:#1f77b4;stroke:#1f77b4;" x="375.766845" xlink:href="#me91435e590" y="347.898643"/>
     <use style="fill:#1f77b4;stroke:#1f77b4;" x="377.258824" xlink:href="#me91435e590" y="361.2133"/>
     <use style="fill:#1f77b4;stroke:#1f77b4;" x="378.750802" xlink:href="#me91435e590" y="341.381028"/>
     <use style="fill:#1f77b4;stroke:#1f77b4;" x="380.242781" xlink:href="#me91435e590" y="307.241296"/>
     <use style="fill:#1f77b4;stroke:#1f77b4;" x="381.734759" xlink:href="#me91435e590" y="299.486903"/>
     <use style="fill:#1f77b4;stroke:#1f77b4;" x="383.226738" xlink:href="#me91435e590" y="330.612717"/>
     <use style="fill:#1f77b4;stroke:#1f77b4;" x="384.718717" xlink:href="#me91435e590" y="360.068715"/>
     <use style="fill:#1f77b4;stroke:#1f77b4;" x="386.210695" xlink:href="#me91435e590" y="275.051274"/>
     <use style="fill:#1f77b4;stroke:#1f77b4;" x="387.702674" xlink:href="#me91435e590" y="357.791082"/>
     <use style="fill:#1f77b4;stroke:#1f77b4;" x="389.194652" xlink:href="#me91435e590" y="334.557779"/>
     <use style="fill:#1f77b4;stroke:#1f77b4;" x="390.686631" xlink:href="#me91435e590" y="227.74847"/>
     <use style="fill:#1f77b4;stroke:#1f77b4;" x="392.17861" xlink:href="#me91435e590" y="343.022077"/>
     <use style="fill:#1f77b4;stroke:#1f77b4;" x="393.670588" xlink:href="#me91435e590" y="277.427593"/>
     <use style="fill:#1f77b4;stroke:#1f77b4;" x="395.162567" xlink:href="#me91435e590" y="360.514792"/>
     <use style="fill:#1f77b4;stroke:#1f77b4;" x="396.654545" xlink:href="#me91435e590" y="277.35199"/>
     <use style="fill:#1f77b4;stroke:#1f77b4;" x="398.146524" xlink:href="#me91435e590" y="295.697372"/>
     <use style="fill:#1f77b4;stroke:#1f77b4;" x="399.638503" xlink:href="#me91435e590" y="277.481623"/>
     <use style="fill:#1f77b4;stroke:#1f77b4;" x="401.130481" xlink:href="#me91435e590" y="359.178449"/>
     <use style="fill:#1f77b4;stroke:#1f77b4;" x="402.62246" xlink:href="#me91435e590" y="353.930875"/>
     <use style="fill:#1f77b4;stroke:#1f77b4;" x="404.114439" xlink:href="#me91435e590" y="360.172926"/>
     <use style="fill:#1f77b4;stroke:#1f77b4;" x="405.606417" xlink:href="#me91435e590" y="361.784906"/>
     <use style="fill:#1f77b4;stroke:#1f77b4;" x="407.098396" xlink:href="#me91435e590" y="360.971746"/>
     <use style="fill:#1f77b4;stroke:#1f77b4;" x="408.590374" xlink:href="#me91435e590" y="333.596869"/>
     <use style="fill:#1f77b4;stroke:#1f77b4;" x="410.082353" xlink:href="#me91435e590" y="357.683741"/>
     <use style="fill:#1f77b4;stroke:#1f77b4;" x="411.574332" xlink:href="#me91435e590" y="345.248554"/>
     <use style="fill:#1f77b4;stroke:#1f77b4;" x="413.06631" xlink:href="#me91435e590" y="359.701638"/>
     <use style="fill:#1f77b4;stroke:#1f77b4;" x="414.558289" xlink:href="#me91435e590" y="305.069124"/>
     <use style="fill:#1f77b4;stroke:#1f77b4;" x="416.050267" xlink:href="#me91435e590" y="345.818065"/>
     <use style="fill:#1f77b4;stroke:#1f77b4;" x="417.542246" xlink:href="#me91435e590" y="345.458261"/>
     <use style="fill:#1f77b4;stroke:#1f77b4;" x="419.034225" xlink:href="#me91435e590" y="329.555185"/>
     <use style="fill:#1f77b4;stroke:#1f77b4;" x="420.526203" xlink:href="#me91435e590" y="358.609638"/>
     <use style="fill:#1f77b4;stroke:#1f77b4;" x="422.018182" xlink:href="#me91435e590" y="359.196823"/>
     <use style="fill:#1f77b4;stroke:#1f77b4;" x="423.51016" xlink:href="#me91435e590" y="301.412996"/>
     <use style="fill:#1f77b4;stroke:#1f77b4;" x="425.002139" xlink:href="#me91435e590" y="326.249229"/>
     <use style="fill:#1f77b4;stroke:#1f77b4;" x="426.494118" xlink:href="#me91435e590" y="328.02289"/>
     <use style="fill:#1f77b4;stroke:#1f77b4;" x="427.986096" xlink:href="#me91435e590" y="345.569149"/>
     <use style="fill:#1f77b4;stroke:#1f77b4;" x="429.478075" xlink:href="#me91435e590" y="306.965895"/>
     <use style="fill:#1f77b4;stroke:#1f77b4;" x="430.970053" xlink:href="#me91435e590" y="359.579397"/>
     <use style="fill:#1f77b4;stroke:#1f77b4;" x="432.462032" xlink:href="#me91435e590" y="352.066449"/>
     <use style="fill:#1f77b4;stroke:#1f77b4;" x="433.954011" xlink:href="#me91435e590" y="358.408056"/>
     <use style="fill:#1f77b4;stroke:#1f77b4;" x="435.445989" xlink:href="#me91435e590" y="355.491683"/>
     <use style="fill:#1f77b4;stroke:#1f77b4;" x="436.937968" xlink:href="#me91435e590" y="276.797394"/>
     <use style="fill:#1f77b4;stroke:#1f77b4;" x="438.429947" xlink:href="#me91435e590" y="354.561371"/>
     <use style="fill:#1f77b4;stroke:#1f77b4;" x="439.921925" xlink:href="#me91435e590" y="361.530686"/>
     <use style="fill:#1f77b4;stroke:#1f77b4;" x="441.413904" xlink:href="#me91435e590" y="360.326551"/>
     <use style="fill:#1f77b4;stroke:#1f77b4;" x="442.905882" xlink:href="#me91435e590" y="334.078806"/>
     <use style="fill:#1f77b4;stroke:#1f77b4;" x="444.397861" xlink:href="#me91435e590" y="331.517853"/>
     <use style="fill:#1f77b4;stroke:#1f77b4;" x="445.88984" xlink:href="#me91435e590" y="353.713492"/>
     <use style="fill:#1f77b4;stroke:#1f77b4;" x="447.381818" xlink:href="#me91435e590" y="356.176986"/>
     <use style="fill:#1f77b4;stroke:#1f77b4;" x="448.873797" xlink:href="#me91435e590" y="360.206606"/>
     <use style="fill:#1f77b4;stroke:#1f77b4;" x="450.365775" xlink:href="#me91435e590" y="353.807507"/>
     <use style="fill:#1f77b4;stroke:#1f77b4;" x="451.857754" xlink:href="#me91435e590" y="289.6625"/>
     <use style="fill:#1f77b4;stroke:#1f77b4;" x="453.349733" xlink:href="#me91435e590" y="323.672082"/>
     <use style="fill:#1f77b4;stroke:#1f77b4;" x="454.841711" xlink:href="#me91435e590" y="339.316954"/>
     <use style="fill:#1f77b4;stroke:#1f77b4;" x="456.33369" xlink:href="#me91435e590" y="357.166658"/>
     <use style="fill:#1f77b4;stroke:#1f77b4;" x="457.825668" xlink:href="#me91435e590" y="238.253178"/>
     <use style="fill:#1f77b4;stroke:#1f77b4;" x="459.317647" xlink:href="#me91435e590" y="359.675883"/>
     <use style="fill:#1f77b4;stroke:#1f77b4;" x="460.809626" xlink:href="#me91435e590" y="297.068995"/>
     <use style="fill:#1f77b4;stroke:#1f77b4;" x="462.301604" xlink:href="#me91435e590" y="360.120791"/>
     <use style="fill:#1f77b4;stroke:#1f77b4;" x="463.793583" xlink:href="#me91435e590" y="348.013446"/>
     <use style="fill:#1f77b4;stroke:#1f77b4;" x="465.285561" xlink:href="#me91435e590" y="357.238163"/>
     <use style="fill:#1f77b4;stroke:#1f77b4;" x="466.77754" xlink:href="#me91435e590" y="355.384165"/>
     <use style="fill:#1f77b4;stroke:#1f77b4;" x="468.269519" xlink:href="#me91435e590" y="336.346173"/>
     <use style="fill:#1f77b4;stroke:#1f77b4;" x="469.761497" xlink:href="#me91435e590" y="349.973604"/>
     <use style="fill:#1f77b4;stroke:#1f77b4;" x="471.253476" xlink:href="#me91435e590" y="360.166631"/>
     <use style="fill:#1f77b4;stroke:#1f77b4;" x="472.745455" xlink:href="#me91435e590" y="350.976623"/>
     <use style="fill:#1f77b4;stroke:#1f77b4;" x="474.237433" xlink:href="#me91435e590" y="286.221767"/>
     <use style="fill:#1f77b4;stroke:#1f77b4;" x="475.729412" xlink:href="#me91435e590" y="297.315045"/>
     <use style="fill:#1f77b4;stroke:#1f77b4;" x="477.22139" xlink:href="#me91435e590" y="344.098517"/>
     <use style="fill:#1f77b4;stroke:#1f77b4;" x="478.713369" xlink:href="#me91435e590" y="256.398658"/>
     <use style="fill:#1f77b4;stroke:#1f77b4;" x="480.205348" xlink:href="#me91435e590" y="359.014642"/>
     <use style="fill:#1f77b4;stroke:#1f77b4;" x="481.697326" xlink:href="#me91435e590" y="327.124643"/>
     <use style="fill:#1f77b4;stroke:#1f77b4;" x="483.189305" xlink:href="#me91435e590" y="349.174645"/>
     <use style="fill:#1f77b4;stroke:#1f77b4;" x="484.681283" xlink:href="#me91435e590" y="329.745833"/>
     <use style="fill:#1f77b4;stroke:#1f77b4;" x="486.173262" xlink:href="#me91435e590" y="277.352857"/>
     <use style="fill:#1f77b4;stroke:#1f77b4;" x="487.665241" xlink:href="#me91435e590" y="359.782151"/>
     <use style="fill:#1f77b4;stroke:#1f77b4;" x="489.157219" xlink:href="#me91435e590" y="361.135126"/>
     <use style="fill:#1f77b4;stroke:#1f77b4;" x="490.649198" xlink:href="#me91435e590" y="358.729525"/>
     <use style="fill:#1f77b4;stroke:#1f77b4;" x="492.141176" xlink:href="#me91435e590" y="347.754186"/>
     <use style="fill:#1f77b4;stroke:#1f77b4;" x="493.633155" xlink:href="#me91435e590" y="327.968596"/>
     <use style="fill:#1f77b4;stroke:#1f77b4;" x="495.125134" xlink:href="#me91435e590" y="337.133129"/>
     <use style="fill:#1f77b4;stroke:#1f77b4;" x="496.617112" xlink:href="#me91435e590" y="360.413515"/>
     <use style="fill:#1f77b4;stroke:#1f77b4;" x="498.109091" xlink:href="#me91435e590" y="337.17898"/>
    </g>
   </g>
   <g id="line2d_32">
    <path clip-path="url(#p1675bc945d)" d="M 92.290909 338.420105 
L 498.109091 336.744807 
L 498.109091 336.744807 
" style="fill:none;stroke:#000000;stroke-dasharray:5.55,2.4;stroke-dashoffset:0;stroke-width:1.5;"/>
   </g>
   <g id="line2d_33">
    <path clip-path="url(#p1675bc945d)" d="M 92.290909 359.577389 
L 108.702674 359.577389 
L 110.194652 363.174545 
L 498.109091 363.174545 
L 498.109091 363.174545 
" style="fill:none;stroke:#0000ff;stroke-linecap:square;stroke-width:1.5;"/>
   </g>
   <g id="patch_3">
    <path d="M 72 378 
L 72 51.84 
" style="fill:none;stroke:#000000;stroke-linecap:square;stroke-linejoin:miter;stroke-width:0.8;"/>
   </g>
   <g id="patch_4">
    <path d="M 518.4 378 
L 518.4 51.84 
" style="fill:none;stroke:#000000;stroke-linecap:square;stroke-linejoin:miter;stroke-width:0.8;"/>
   </g>
   <g id="patch_5">
    <path d="M 72 378 
L 518.4 378 
" style="fill:none;stroke:#000000;stroke-linecap:square;stroke-linejoin:miter;stroke-width:0.8;"/>
   </g>
   <g id="patch_6">
    <path d="M 72 51.84 
L 518.4 51.84 
" style="fill:none;stroke:#000000;stroke-linecap:square;stroke-linejoin:miter;stroke-width:0.8;"/>
   </g>
   <g id="text_18">
    <!-- Island Transpeciation - $O_3$ train CV 2000-2009 (median: 310.75%, worst: 251.78%, best: 2161.98%) -->
    <g transform="translate(-4.14 45.84)scale(0.12 -0.12)">
     <defs>
      <path d="M 9.8125 72.90625 
L 19.671875 72.90625 
L 19.671875 0 
L 9.8125 0 
z
" id="DejaVuSans-73"/>
      <path d="M 45.40625 46.390625 
L 45.40625 75.984375 
L 54.390625 75.984375 
L 54.390625 0 
L 45.40625 0 
L 45.40625 8.203125 
Q 42.578125 3.328125 38.25 0.953125 
Q 33.9375 -1.421875 27.875 -1.421875 
Q 17.96875 -1.421875 11.734375 6.484375 
Q 5.515625 14.40625 5.515625 27.296875 
Q 5.515625 40.1875 11.734375 48.09375 
Q 17.96875 56 27.875 56 
Q 33.9375 56 38.25 53.625 
Q 42.578125 51.265625 45.40625 46.390625 
z
M 14.796875 27.296875 
Q 14.796875 17.390625 18.875 11.75 
Q 22.953125 6.109375 30.078125 6.109375 
Q 37.203125 6.109375 41.296875 11.75 
Q 45.40625 17.390625 45.40625 27.296875 
Q 45.40625 37.203125 41.296875 42.84375 
Q 37.203125 48.484375 30.078125 48.484375 
Q 22.953125 48.484375 18.875 42.84375 
Q 14.796875 37.203125 14.796875 27.296875 
z
" id="DejaVuSans-100"/>
      <path d="M -0.296875 72.90625 
L 61.375 72.90625 
L 61.375 64.59375 
L 35.5 64.59375 
L 35.5 0 
L 25.59375 0 
L 25.59375 64.59375 
L -0.296875 64.59375 
z
" id="DejaVuSans-84"/>
      <path d="M 41.109375 46.296875 
Q 39.59375 47.171875 37.8125 47.578125 
Q 36.03125 48 33.890625 48 
Q 26.265625 48 22.1875 43.046875 
Q 18.109375 38.09375 18.109375 28.8125 
L 18.109375 0 
L 9.078125 0 
L 9.078125 54.6875 
L 18.109375 54.6875 
L 18.109375 46.1875 
Q 20.953125 51.171875 25.484375 53.578125 
Q 30.03125 56 36.53125 56 
Q 37.453125 56 38.578125 55.875 
Q 39.703125 55.765625 41.0625 55.515625 
z
" id="DejaVuSans-114"/>
      <path d="M 18.109375 8.203125 
L 18.109375 -20.796875 
L 9.078125 -20.796875 
L 9.078125 54.6875 
L 18.109375 54.6875 
L 18.109375 46.390625 
Q 20.953125 51.265625 25.265625 53.625 
Q 29.59375 56 35.59375 56 
Q 45.5625 56 51.78125 48.09375 
Q 58.015625 40.1875 58.015625 27.296875 
Q 58.015625 14.40625 51.78125 6.484375 
Q 45.5625 -1.421875 35.59375 -1.421875 
Q 29.59375 -1.421875 25.265625 0.953125 
Q 20.953125 3.328125 18.109375 8.203125 
z
M 48.6875 27.296875 
Q 48.6875 37.203125 44.609375 42.84375 
Q 40.53125 48.484375 33.40625 48.484375 
Q 26.265625 48.484375 22.1875 42.84375 
Q 18.109375 37.203125 18.109375 27.296875 
Q 18.109375 17.390625 22.1875 11.75 
Q 26.265625 6.109375 33.40625 6.109375 
Q 40.53125 6.109375 44.609375 11.75 
Q 48.6875 17.390625 48.6875 27.296875 
z
" id="DejaVuSans-112"/>
      <path d="M 48.78125 52.59375 
L 48.78125 44.1875 
Q 44.96875 46.296875 41.140625 47.34375 
Q 37.3125 48.390625 33.40625 48.390625 
Q 24.65625 48.390625 19.8125 42.84375 
Q 14.984375 37.3125 14.984375 27.296875 
Q 14.984375 17.28125 19.8125 11.734375 
Q 24.65625 6.203125 33.40625 6.203125 
Q 37.3125 6.203125 41.140625 7.25 
Q 44.96875 8.296875 48.78125 10.40625 
L 48.78125 2.09375 
Q 45.015625 0.34375 40.984375 -0.53125 
Q 36.96875 -1.421875 32.421875 -1.421875 
Q 20.0625 -1.421875 12.78125 6.34375 
Q 5.515625 14.109375 5.515625 27.296875 
Q 5.515625 40.671875 12.859375 48.328125 
Q 20.21875 56 33.015625 56 
Q 37.15625 56 41.109375 55.140625 
Q 45.0625 54.296875 48.78125 52.59375 
z
" id="DejaVuSans-99"/>
      <path d="M 45.609375 66.21875 
Q 37.5 66.21875 31.296875 62.28125 
Q 25.09375 58.34375 20.515625 50.296875 
Q 17.578125 45.171875 16.03125 39.40625 
Q 14.5 33.640625 14.5 27.78125 
Q 14.5 17.625 19.359375 12.109375 
Q 24.21875 6.59375 33.109375 6.59375 
Q 41.109375 6.59375 47.375 10.5625 
Q 53.65625 14.546875 58.109375 22.40625 
Q 61.078125 27.6875 62.640625 33.46875 
Q 64.203125 39.265625 64.203125 45.015625 
Q 64.203125 55.125 59.3125 60.671875 
Q 54.4375 66.21875 45.609375 66.21875 
z
M 32.8125 -1.421875 
Q 19.390625 -1.421875 11.6875 6.53125 
Q 4 14.5 4 28.328125 
Q 4 36.234375 7 44.484375 
Q 10.015625 52.734375 15.28125 59.1875 
Q 21.484375 66.75 29.09375 70.484375 
Q 36.71875 74.21875 45.90625 74.21875 
Q 59.28125 74.21875 66.984375 66.328125 
Q 74.703125 58.453125 74.703125 44.828125 
Q 74.703125 36.421875 71.765625 28.3125 
Q 68.84375 20.21875 63.375 13.625 
Q 57.125 6 49.578125 2.28125 
Q 42.046875 -1.421875 32.8125 -1.421875 
z
" id="DejaVuSans-Oblique-79"/>
      <path d="M 40.578125 39.3125 
Q 47.65625 37.796875 51.625 33 
Q 55.609375 28.21875 55.609375 21.1875 
Q 55.609375 10.40625 48.1875 4.484375 
Q 40.765625 -1.421875 27.09375 -1.421875 
Q 22.515625 -1.421875 17.65625 -0.515625 
Q 12.796875 0.390625 7.625 2.203125 
L 7.625 11.71875 
Q 11.71875 9.328125 16.59375 8.109375 
Q 21.484375 6.890625 26.8125 6.890625 
Q 36.078125 6.890625 40.9375 10.546875 
Q 45.796875 14.203125 45.796875 21.1875 
Q 45.796875 27.640625 41.28125 31.265625 
Q 36.765625 34.90625 28.71875 34.90625 
L 20.21875 34.90625 
L 20.21875 43.015625 
L 29.109375 43.015625 
Q 36.375 43.015625 40.234375 45.921875 
Q 44.09375 48.828125 44.09375 54.296875 
Q 44.09375 59.90625 40.109375 62.90625 
Q 36.140625 65.921875 28.71875 65.921875 
Q 24.65625 65.921875 20.015625 65.03125 
Q 15.375 64.15625 9.8125 62.3125 
L 9.8125 71.09375 
Q 15.4375 72.65625 20.34375 73.4375 
Q 25.25 74.21875 29.59375 74.21875 
Q 40.828125 74.21875 47.359375 69.109375 
Q 53.90625 64.015625 53.90625 55.328125 
Q 53.90625 49.265625 50.4375 45.09375 
Q 46.96875 40.921875 40.578125 39.3125 
z
" id="DejaVuSans-51"/>
      <path d="M 64.40625 67.28125 
L 64.40625 56.890625 
Q 59.421875 61.53125 53.78125 63.8125 
Q 48.140625 66.109375 41.796875 66.109375 
Q 29.296875 66.109375 22.65625 58.46875 
Q 16.015625 50.828125 16.015625 36.375 
Q 16.015625 21.96875 22.65625 14.328125 
Q 29.296875 6.6875 41.796875 6.6875 
Q 48.140625 6.6875 53.78125 8.984375 
Q 59.421875 11.28125 64.40625 15.921875 
L 64.40625 5.609375 
Q 59.234375 2.09375 53.4375 0.328125 
Q 47.65625 -1.421875 41.21875 -1.421875 
Q 24.65625 -1.421875 15.125 8.703125 
Q 5.609375 18.84375 5.609375 36.375 
Q 5.609375 53.953125 15.125 64.078125 
Q 24.65625 74.21875 41.21875 74.21875 
Q 47.75 74.21875 53.53125 72.484375 
Q 59.328125 70.75 64.40625 67.28125 
z
" id="DejaVuSans-67"/>
      <path d="M 28.609375 0 
L 0.78125 72.90625 
L 11.078125 72.90625 
L 34.1875 11.53125 
L 57.328125 72.90625 
L 67.578125 72.90625 
L 39.796875 0 
z
" id="DejaVuSans-86"/>
      <path d="M 10.984375 1.515625 
L 10.984375 10.5 
Q 14.703125 8.734375 18.5 7.8125 
Q 22.3125 6.890625 25.984375 6.890625 
Q 35.75 6.890625 40.890625 13.453125 
Q 46.046875 20.015625 46.78125 33.40625 
Q 43.953125 29.203125 39.59375 26.953125 
Q 35.25 24.703125 29.984375 24.703125 
Q 19.046875 24.703125 12.671875 31.3125 
Q 6.296875 37.9375 6.296875 49.421875 
Q 6.296875 60.640625 12.9375 67.421875 
Q 19.578125 74.21875 30.609375 74.21875 
Q 43.265625 74.21875 49.921875 64.515625 
Q 56.59375 54.828125 56.59375 36.375 
Q 56.59375 19.140625 48.40625 8.859375 
Q 40.234375 -1.421875 26.421875 -1.421875 
Q 22.703125 -1.421875 18.890625 -0.6875 
Q 15.09375 0.046875 10.984375 1.515625 
z
M 30.609375 32.421875 
Q 37.25 32.421875 41.125 36.953125 
Q 45.015625 41.5 45.015625 49.421875 
Q 45.015625 57.28125 41.125 61.84375 
Q 37.25 66.40625 30.609375 66.40625 
Q 23.96875 66.40625 20.09375 61.84375 
Q 16.21875 57.28125 16.21875 49.421875 
Q 16.21875 41.5 20.09375 36.953125 
Q 23.96875 32.421875 30.609375 32.421875 
z
" id="DejaVuSans-57"/>
      <path d="M 31 75.875 
Q 24.46875 64.65625 21.28125 53.65625 
Q 18.109375 42.671875 18.109375 31.390625 
Q 18.109375 20.125 21.3125 9.0625 
Q 24.515625 -2 31 -13.1875 
L 23.1875 -13.1875 
Q 15.875 -1.703125 12.234375 9.375 
Q 8.59375 20.453125 8.59375 31.390625 
Q 8.59375 42.28125 12.203125 53.3125 
Q 15.828125 64.359375 23.1875 75.875 
z
" id="DejaVuSans-40"/>
      <path d="M 52 44.1875 
Q 55.375 50.25 60.0625 53.125 
Q 64.75 56 71.09375 56 
Q 79.640625 56 84.28125 50.015625 
Q 88.921875 44.046875 88.921875 33.015625 
L 88.921875 0 
L 79.890625 0 
L 79.890625 32.71875 
Q 79.890625 40.578125 77.09375 44.375 
Q 74.3125 48.1875 68.609375 48.1875 
Q 61.625 48.1875 57.5625 43.546875 
Q 53.515625 38.921875 53.515625 30.90625 
L 53.515625 0 
L 44.484375 0 
L 44.484375 32.71875 
Q 44.484375 40.625 41.703125 44.40625 
Q 38.921875 48.1875 33.109375 48.1875 
Q 26.21875 48.1875 22.15625 43.53125 
Q 18.109375 38.875 18.109375 30.90625 
L 18.109375 0 
L 9.078125 0 
L 9.078125 54.6875 
L 18.109375 54.6875 
L 18.109375 46.1875 
Q 21.1875 51.21875 25.484375 53.609375 
Q 29.78125 56 35.6875 56 
Q 41.65625 56 45.828125 52.96875 
Q 50 49.953125 52 44.1875 
z
" id="DejaVuSans-109"/>
      <path d="M 11.71875 12.40625 
L 22.015625 12.40625 
L 22.015625 0 
L 11.71875 0 
z
M 11.71875 51.703125 
L 22.015625 51.703125 
L 22.015625 39.3125 
L 11.71875 39.3125 
z
" id="DejaVuSans-58"/>
      <path d="M 10.6875 12.40625 
L 21 12.40625 
L 21 0 
L 10.6875 0 
z
" id="DejaVuSans-46"/>
      <path d="M 11.71875 12.40625 
L 22.015625 12.40625 
L 22.015625 4 
L 14.015625 -11.625 
L 7.71875 -11.625 
L 11.71875 4 
z
" id="DejaVuSans-44"/>
      <path d="M 4.203125 54.6875 
L 13.1875 54.6875 
L 24.421875 12.015625 
L 35.59375 54.6875 
L 46.1875 54.6875 
L 57.421875 12.015625 
L 68.609375 54.6875 
L 77.59375 54.6875 
L 63.28125 0 
L 52.6875 0 
L 40.921875 44.828125 
L 29.109375 0 
L 18.5 0 
z
" id="DejaVuSans-119"/>
      <path d="M 31.78125 34.625 
Q 24.75 34.625 20.71875 30.859375 
Q 16.703125 27.09375 16.703125 20.515625 
Q 16.703125 13.921875 20.71875 10.15625 
Q 24.75 6.390625 31.78125 6.390625 
Q 38.8125 6.390625 42.859375 10.171875 
Q 46.921875 13.96875 46.921875 20.515625 
Q 46.921875 27.09375 42.890625 30.859375 
Q 38.875 34.625 31.78125 34.625 
z
M 21.921875 38.8125 
Q 15.578125 40.375 12.03125 44.71875 
Q 8.5 49.078125 8.5 55.328125 
Q 8.5 64.0625 14.71875 69.140625 
Q 20.953125 74.21875 31.78125 74.21875 
Q 42.671875 74.21875 48.875 69.140625 
Q 55.078125 64.0625 55.078125 55.328125 
Q 55.078125 49.078125 51.53125 44.71875 
Q 48 40.375 41.703125 38.8125 
Q 48.828125 37.15625 52.796875 32.3125 
Q 56.78125 27.484375 56.78125 20.515625 
Q 56.78125 9.90625 50.3125 4.234375 
Q 43.84375 -1.421875 31.78125 -1.421875 
Q 19.734375 -1.421875 13.25 4.234375 
Q 6.78125 9.90625 6.78125 20.515625 
Q 6.78125 27.484375 10.78125 32.3125 
Q 14.796875 37.15625 21.921875 38.8125 
z
M 18.3125 54.390625 
Q 18.3125 48.734375 21.84375 45.5625 
Q 25.390625 42.390625 31.78125 42.390625 
Q 38.140625 42.390625 41.71875 45.5625 
Q 45.3125 48.734375 45.3125 54.390625 
Q 45.3125 60.0625 41.71875 63.234375 
Q 38.140625 66.40625 31.78125 66.40625 
Q 25.390625 66.40625 21.84375 63.234375 
Q 18.3125 60.0625 18.3125 54.390625 
z
" id="DejaVuSans-56"/>
      <path d="M 48.6875 27.296875 
Q 48.6875 37.203125 44.609375 42.84375 
Q 40.53125 48.484375 33.40625 48.484375 
Q 26.265625 48.484375 22.1875 42.84375 
Q 18.109375 37.203125 18.109375 27.296875 
Q 18.109375 17.390625 22.1875 11.75 
Q 26.265625 6.109375 33.40625 6.109375 
Q 40.53125 6.109375 44.609375 11.75 
Q 48.6875 17.390625 48.6875 27.296875 
z
M 18.109375 46.390625 
Q 20.953125 51.265625 25.265625 53.625 
Q 29.59375 56 35.59375 56 
Q 45.5625 56 51.78125 48.09375 
Q 58.015625 40.1875 58.015625 27.296875 
Q 58.015625 14.40625 51.78125 6.484375 
Q 45.5625 -1.421875 35.59375 -1.421875 
Q 29.59375 -1.421875 25.265625 0.953125 
Q 20.953125 3.328125 18.109375 8.203125 
L 18.109375 0 
L 9.078125 0 
L 9.078125 75.984375 
L 18.109375 75.984375 
z
" id="DejaVuSans-98"/>
      <path d="M 33.015625 40.375 
Q 26.375 40.375 22.484375 35.828125 
Q 18.609375 31.296875 18.609375 23.390625 
Q 18.609375 15.53125 22.484375 10.953125 
Q 26.375 6.390625 33.015625 6.390625 
Q 39.65625 6.390625 43.53125 10.953125 
Q 47.40625 15.53125 47.40625 23.390625 
Q 47.40625 31.296875 43.53125 35.828125 
Q 39.65625 40.375 33.015625 40.375 
z
M 52.59375 71.296875 
L 52.59375 62.3125 
Q 48.875 64.0625 45.09375 64.984375 
Q 41.3125 65.921875 37.59375 65.921875 
Q 27.828125 65.921875 22.671875 59.328125 
Q 17.53125 52.734375 16.796875 39.40625 
Q 19.671875 43.65625 24.015625 45.921875 
Q 28.375 48.1875 33.59375 48.1875 
Q 44.578125 48.1875 50.953125 41.515625 
Q 57.328125 34.859375 57.328125 23.390625 
Q 57.328125 12.15625 50.6875 5.359375 
Q 44.046875 -1.421875 33.015625 -1.421875 
Q 20.359375 -1.421875 13.671875 8.265625 
Q 6.984375 17.96875 6.984375 36.375 
Q 6.984375 53.65625 15.1875 63.9375 
Q 23.390625 74.21875 37.203125 74.21875 
Q 40.921875 74.21875 44.703125 73.484375 
Q 48.484375 72.75 52.59375 71.296875 
z
" id="DejaVuSans-54"/>
      <path d="M 8.015625 75.875 
L 15.828125 75.875 
Q 23.140625 64.359375 26.78125 53.3125 
Q 30.421875 42.28125 30.421875 31.390625 
Q 30.421875 20.453125 26.78125 9.375 
Q 23.140625 -1.703125 15.828125 -13.1875 
L 8.015625 -13.1875 
Q 14.5 -2 17.703125 9.0625 
Q 20.90625 20.125 20.90625 31.390625 
Q 20.90625 42.671875 17.703125 53.65625 
Q 14.5 64.65625 8.015625 75.875 
z
" id="DejaVuSans-41"/>
     </defs>
     <use transform="translate(0 0.015625)" xlink:href="#DejaVuSans-73"/>
     <use transform="translate(29.492188 0.015625)" xlink:href="#DejaVuSans-115"/>
     <use transform="translate(81.591797 0.015625)" xlink:href="#DejaVuSans-108"/>
     <use transform="translate(109.375 0.015625)" xlink:href="#DejaVuSans-97"/>
     <use transform="translate(170.654297 0.015625)" xlink:href="#DejaVuSans-110"/>
     <use transform="translate(234.033203 0.015625)" xlink:href="#DejaVuSans-100"/>
     <use transform="translate(297.509766 0.015625)" xlink:href="#DejaVuSans-32"/>
     <use transform="translate(329.296875 0.015625)" xlink:href="#DejaVuSans-84"/>
     <use transform="translate(390.380859 0.015625)" xlink:href="#DejaVuSans-114"/>
     <use transform="translate(431.494141 0.015625)" xlink:href="#DejaVuSans-97"/>
     <use transform="translate(492.773438 0.015625)" xlink:href="#DejaVuSans-110"/>
     <use transform="translate(556.152344 0.015625)" xlink:href="#DejaVuSans-115"/>
     <use transform="translate(608.251953 0.015625)" xlink:href="#DejaVuSans-112"/>
     <use transform="translate(671.728516 0.015625)" xlink:href="#DejaVuSans-101"/>
     <use transform="translate(733.251953 0.015625)" xlink:href="#DejaVuSans-99"/>
     <use transform="translate(788.232422 0.015625)" xlink:href="#DejaVuSans-105"/>
     <use transform="translate(816.015625 0.015625)" xlink:href="#DejaVuSans-97"/>
     <use transform="translate(877.294922 0.015625)" xlink:href="#DejaVuSans-116"/>
     <use transform="translate(916.503906 0.015625)" xlink:href="#DejaVuSans-105"/>
     <use transform="translate(944.287109 0.015625)" xlink:href="#DejaVuSans-111"/>
     <use transform="translate(1005.46875 0.015625)" xlink:href="#DejaVuSans-110"/>
     <use transform="translate(1068.847656 0.015625)" xlink:href="#DejaVuSans-32"/>
     <use transform="translate(1100.634766 0.015625)" xlink:href="#DejaVuSans-45"/>
     <use transform="translate(1136.71875 0.015625)" xlink:href="#DejaVuSans-32"/>
     <use transform="translate(1168.505859 0.015625)" xlink:href="#DejaVuSans-Oblique-79"/>
     <use transform="translate(1247.216797 -16.390625)scale(0.7)" xlink:href="#DejaVuSans-51"/>
     <use transform="translate(1294.487305 0.015625)" xlink:href="#DejaVuSans-32"/>
     <use transform="translate(1326.274414 0.015625)" xlink:href="#DejaVuSans-116"/>
     <use transform="translate(1365.483398 0.015625)" xlink:href="#DejaVuSans-114"/>
     <use transform="translate(1406.59668 0.015625)" xlink:href="#DejaVuSans-97"/>
     <use transform="translate(1467.875977 0.015625)" xlink:href="#DejaVuSans-105"/>
     <use transform="translate(1495.65918 0.015625)" xlink:href="#DejaVuSans-110"/>
     <use transform="translate(1559.038086 0.015625)" xlink:href="#DejaVuSans-32"/>
     <use transform="translate(1590.825195 0.015625)" xlink:href="#DejaVuSans-67"/>
     <use transform="translate(1660.649414 0.015625)" xlink:href="#DejaVuSans-86"/>
     <use transform="translate(1729.057617 0.015625)" xlink:href="#DejaVuSans-32"/>
     <use transform="translate(1760.844727 0.015625)" xlink:href="#DejaVuSans-50"/>
     <use transform="translate(1824.467773 0.015625)" xlink:href="#DejaVuSans-48"/>
     <use transform="translate(1888.09082 0.015625)" xlink:href="#DejaVuSans-48"/>
     <use transform="translate(1951.713867 0.015625)" xlink:href="#DejaVuSans-48"/>
     <use transform="translate(2015.336914 0.015625)" xlink:href="#DejaVuSans-45"/>
     <use transform="translate(2051.420898 0.015625)" xlink:href="#DejaVuSans-50"/>
     <use transform="translate(2115.043945 0.015625)" xlink:href="#DejaVuSans-48"/>
     <use transform="translate(2178.666992 0.015625)" xlink:href="#DejaVuSans-48"/>
     <use transform="translate(2242.290039 0.015625)" xlink:href="#DejaVuSans-57"/>
     <use transform="translate(2305.913086 0.015625)" xlink:href="#DejaVuSans-32"/>
     <use transform="translate(2337.700195 0.015625)" xlink:href="#DejaVuSans-40"/>
     <use transform="translate(2376.713867 0.015625)" xlink:href="#DejaVuSans-109"/>
     <use transform="translate(2474.125977 0.015625)" xlink:href="#DejaVuSans-101"/>
     <use transform="translate(2535.649414 0.015625)" xlink:href="#DejaVuSans-100"/>
     <use transform="translate(2599.125977 0.015625)" xlink:href="#DejaVuSans-105"/>
     <use transform="translate(2626.90918 0.015625)" xlink:href="#DejaVuSans-97"/>
     <use transform="translate(2688.188477 0.015625)" xlink:href="#DejaVuSans-110"/>
     <use transform="translate(2751.567383 0.015625)" xlink:href="#DejaVuSans-58"/>
     <use transform="translate(2785.258789 0.015625)" xlink:href="#DejaVuSans-32"/>
     <use transform="translate(2817.045898 0.015625)" xlink:href="#DejaVuSans-51"/>
     <use transform="translate(2880.668945 0.015625)" xlink:href="#DejaVuSans-49"/>
     <use transform="translate(2944.291992 0.015625)" xlink:href="#DejaVuSans-48"/>
     <use transform="translate(3007.915039 0.015625)" xlink:href="#DejaVuSans-46"/>
     <use transform="translate(3031.952148 0.015625)" xlink:href="#DejaVuSans-55"/>
     <use transform="translate(3095.575195 0.015625)" xlink:href="#DejaVuSans-53"/>
     <use transform="translate(3159.198242 0.015625)" xlink:href="#DejaVuSans-37"/>
     <use transform="translate(3254.217773 0.015625)" xlink:href="#DejaVuSans-44"/>
     <use transform="translate(3286.004883 0.015625)" xlink:href="#DejaVuSans-32"/>
     <use transform="translate(3317.791992 0.015625)" xlink:href="#DejaVuSans-119"/>
     <use transform="translate(3399.579102 0.015625)" xlink:href="#DejaVuSans-111"/>
     <use transform="translate(3460.760742 0.015625)" xlink:href="#DejaVuSans-114"/>
     <use transform="translate(3501.874023 0.015625)" xlink:href="#DejaVuSans-115"/>
     <use transform="translate(3553.973633 0.015625)" xlink:href="#DejaVuSans-116"/>
     <use transform="translate(3593.182617 0.015625)" xlink:href="#DejaVuSans-58"/>
     <use transform="translate(3626.874023 0.015625)" xlink:href="#DejaVuSans-32"/>
     <use transform="translate(3658.661133 0.015625)" xlink:href="#DejaVuSans-50"/>
     <use transform="translate(3722.28418 0.015625)" xlink:href="#DejaVuSans-53"/>
     <use transform="translate(3785.907227 0.015625)" xlink:href="#DejaVuSans-49"/>
     <use transform="translate(3849.530273 0.015625)" xlink:href="#DejaVuSans-46"/>
     <use transform="translate(3873.567383 0.015625)" xlink:href="#DejaVuSans-55"/>
     <use transform="translate(3937.19043 0.015625)" xlink:href="#DejaVuSans-56"/>
     <use transform="translate(4000.813477 0.015625)" xlink:href="#DejaVuSans-37"/>
     <use transform="translate(4095.833008 0.015625)" xlink:href="#DejaVuSans-44"/>
     <use transform="translate(4127.620117 0.015625)" xlink:href="#DejaVuSans-32"/>
     <use transform="translate(4159.407227 0.015625)" xlink:href="#DejaVuSans-98"/>
     <use transform="translate(4222.883789 0.015625)" xlink:href="#DejaVuSans-101"/>
     <use transform="translate(4284.407227 0.015625)" xlink:href="#DejaVuSans-115"/>
     <use transform="translate(4336.506836 0.015625)" xlink:href="#DejaVuSans-116"/>
     <use transform="translate(4375.71582 0.015625)" xlink:href="#DejaVuSans-58"/>
     <use transform="translate(4409.407227 0.015625)" xlink:href="#DejaVuSans-32"/>
     <use transform="translate(4441.194336 0.015625)" xlink:href="#DejaVuSans-50"/>
     <use transform="translate(4504.817383 0.015625)" xlink:href="#DejaVuSans-49"/>
     <use transform="translate(4568.44043 0.015625)" xlink:href="#DejaVuSans-54"/>
     <use transform="translate(4632.063477 0.015625)" xlink:href="#DejaVuSans-49"/>
     <use transform="translate(4695.686523 0.015625)" xlink:href="#DejaVuSans-46"/>
     <use transform="translate(4727.473633 0.015625)" xlink:href="#DejaVuSans-57"/>
     <use transform="translate(4791.09668 0.015625)" xlink:href="#DejaVuSans-56"/>
     <use transform="translate(4854.719727 0.015625)" xlink:href="#DejaVuSans-37"/>
     <use transform="translate(4949.739258 0.015625)" xlink:href="#DejaVuSans-41"/>
    </g>
   </g>
   <g id="legend_1">
    <g id="patch_7">
     <path d="M 315.34375 103.874375 
L 511.4 103.874375 
Q 513.4 103.874375 513.4 101.874375 
L 513.4 58.84 
Q 513.4 56.84 511.4 56.84 
L 315.34375 56.84 
Q 313.34375 56.84 313.34375 58.84 
L 313.34375 101.874375 
Q 313.34375 103.874375 315.34375 103.874375 
z
" style="fill:#ffffff;opacity:0.8;stroke:#cccccc;stroke-linejoin:miter;"/>
    </g>
    <g id="line2d_34"/>
    <g id="line2d_35">
     <g>
      <use style="fill:#1f77b4;stroke:#1f77b4;" x="327.34375" xlink:href="#me91435e590" y="64.938437"/>
     </g>
    </g>
    <g id="text_19">
     <!-- Bayesian Optimization (BO) -->
     <g transform="translate(345.34375 68.438437)scale(0.1 -0.1)">
      <defs>
       <path d="M 19.671875 34.8125 
L 19.671875 8.109375 
L 35.5 8.109375 
Q 43.453125 8.109375 47.28125 11.40625 
Q 51.125 14.703125 51.125 21.484375 
Q 51.125 28.328125 47.28125 31.5625 
Q 43.453125 34.8125 35.5 34.8125 
z
M 19.671875 64.796875 
L 19.671875 42.828125 
L 34.28125 42.828125 
Q 41.5 42.828125 45.03125 45.53125 
Q 48.578125 48.25 48.578125 53.8125 
Q 48.578125 59.328125 45.03125 62.0625 
Q 41.5 64.796875 34.28125 64.796875 
z
M 9.8125 72.90625 
L 35.015625 72.90625 
Q 46.296875 72.90625 52.390625 68.21875 
Q 58.5 63.53125 58.5 54.890625 
Q 58.5 48.1875 55.375 44.234375 
Q 52.25 40.28125 46.1875 39.3125 
Q 53.46875 37.75 57.5 32.78125 
Q 61.53125 27.828125 61.53125 20.40625 
Q 61.53125 10.640625 54.890625 5.3125 
Q 48.25 0 35.984375 0 
L 9.8125 0 
z
" id="DejaVuSans-66"/>
       <path d="M 32.171875 -5.078125 
Q 28.375 -14.84375 24.75 -17.8125 
Q 21.140625 -20.796875 15.09375 -20.796875 
L 7.90625 -20.796875 
L 7.90625 -13.28125 
L 13.1875 -13.28125 
Q 16.890625 -13.28125 18.9375 -11.515625 
Q 21 -9.765625 23.484375 -3.21875 
L 25.09375 0.875 
L 2.984375 54.6875 
L 12.5 54.6875 
L 29.59375 11.921875 
L 46.6875 54.6875 
L 56.203125 54.6875 
z
" id="DejaVuSans-121"/>
       <path d="M 39.40625 66.21875 
Q 28.65625 66.21875 22.328125 58.203125 
Q 16.015625 50.203125 16.015625 36.375 
Q 16.015625 22.609375 22.328125 14.59375 
Q 28.65625 6.59375 39.40625 6.59375 
Q 50.140625 6.59375 56.421875 14.59375 
Q 62.703125 22.609375 62.703125 36.375 
Q 62.703125 50.203125 56.421875 58.203125 
Q 50.140625 66.21875 39.40625 66.21875 
z
M 39.40625 74.21875 
Q 54.734375 74.21875 63.90625 63.9375 
Q 73.09375 53.65625 73.09375 36.375 
Q 73.09375 19.140625 63.90625 8.859375 
Q 54.734375 -1.421875 39.40625 -1.421875 
Q 24.03125 -1.421875 14.8125 8.828125 
Q 5.609375 19.09375 5.609375 36.375 
Q 5.609375 53.65625 14.8125 63.9375 
Q 24.03125 74.21875 39.40625 74.21875 
z
" id="DejaVuSans-79"/>
       <path d="M 5.515625 54.6875 
L 48.1875 54.6875 
L 48.1875 46.484375 
L 14.40625 7.171875 
L 48.1875 7.171875 
L 48.1875 0 
L 4.296875 0 
L 4.296875 8.203125 
L 38.09375 47.515625 
L 5.515625 47.515625 
z
" id="DejaVuSans-122"/>
      </defs>
      <use xlink:href="#DejaVuSans-66"/>
      <use x="68.603516" xlink:href="#DejaVuSans-97"/>
      <use x="129.882812" xlink:href="#DejaVuSans-121"/>
      <use x="189.0625" xlink:href="#DejaVuSans-101"/>
      <use x="250.585938" xlink:href="#DejaVuSans-115"/>
      <use x="302.685547" xlink:href="#DejaVuSans-105"/>
      <use x="330.46875" xlink:href="#DejaVuSans-97"/>
      <use x="391.748047" xlink:href="#DejaVuSans-110"/>
      <use x="455.126953" xlink:href="#DejaVuSans-32"/>
      <use x="486.914062" xlink:href="#DejaVuSans-79"/>
      <use x="565.625" xlink:href="#DejaVuSans-112"/>
      <use x="629.101562" xlink:href="#DejaVuSans-116"/>
      <use x="668.310547" xlink:href="#DejaVuSans-105"/>
      <use x="696.09375" xlink:href="#DejaVuSans-109"/>
      <use x="793.505859" xlink:href="#DejaVuSans-105"/>
      <use x="821.289062" xlink:href="#DejaVuSans-122"/>
      <use x="873.779297" xlink:href="#DejaVuSans-97"/>
      <use x="935.058594" xlink:href="#DejaVuSans-116"/>
      <use x="974.267578" xlink:href="#DejaVuSans-105"/>
      <use x="1002.050781" xlink:href="#DejaVuSans-111"/>
      <use x="1063.232422" xlink:href="#DejaVuSans-110"/>
      <use x="1126.611328" xlink:href="#DejaVuSans-32"/>
      <use x="1158.398438" xlink:href="#DejaVuSans-40"/>
      <use x="1197.412109" xlink:href="#DejaVuSans-66"/>
      <use x="1264.265625" xlink:href="#DejaVuSans-79"/>
      <use x="1342.976562" xlink:href="#DejaVuSans-41"/>
     </g>
    </g>
    <g id="line2d_36">
     <path d="M 317.34375 79.616562 
L 337.34375 79.616562 
" style="fill:none;stroke:#000000;stroke-dasharray:5.55,2.4;stroke-dashoffset:0;stroke-width:1.5;"/>
    </g>
    <g id="line2d_37"/>
    <g id="text_20">
     <!-- Random (uniform) search (Rand) -->
     <g transform="translate(345.34375 83.116562)scale(0.1 -0.1)">
      <defs>
       <path d="M 44.390625 34.1875 
Q 47.5625 33.109375 50.5625 29.59375 
Q 53.5625 26.078125 56.59375 19.921875 
L 66.609375 0 
L 56 0 
L 46.6875 18.703125 
Q 43.0625 26.03125 39.671875 28.421875 
Q 36.28125 30.8125 30.421875 30.8125 
L 19.671875 30.8125 
L 19.671875 0 
L 9.8125 0 
L 9.8125 72.90625 
L 32.078125 72.90625 
Q 44.578125 72.90625 50.734375 67.671875 
Q 56.890625 62.453125 56.890625 51.90625 
Q 56.890625 45.015625 53.6875 40.46875 
Q 50.484375 35.9375 44.390625 34.1875 
z
M 19.671875 64.796875 
L 19.671875 38.921875 
L 32.078125 38.921875 
Q 39.203125 38.921875 42.84375 42.21875 
Q 46.484375 45.515625 46.484375 51.90625 
Q 46.484375 58.296875 42.84375 61.546875 
Q 39.203125 64.796875 32.078125 64.796875 
z
" id="DejaVuSans-82"/>
       <path d="M 37.109375 75.984375 
L 37.109375 68.5 
L 28.515625 68.5 
Q 23.6875 68.5 21.796875 66.546875 
Q 19.921875 64.59375 19.921875 59.515625 
L 19.921875 54.6875 
L 34.71875 54.6875 
L 34.71875 47.703125 
L 19.921875 47.703125 
L 19.921875 0 
L 10.890625 0 
L 10.890625 47.703125 
L 2.296875 47.703125 
L 2.296875 54.6875 
L 10.890625 54.6875 
L 10.890625 58.5 
Q 10.890625 67.625 15.140625 71.796875 
Q 19.390625 75.984375 28.609375 75.984375 
z
" id="DejaVuSans-102"/>
       <path d="M 54.890625 33.015625 
L 54.890625 0 
L 45.90625 0 
L 45.90625 32.71875 
Q 45.90625 40.484375 42.875 44.328125 
Q 39.84375 48.1875 33.796875 48.1875 
Q 26.515625 48.1875 22.3125 43.546875 
Q 18.109375 38.921875 18.109375 30.90625 
L 18.109375 0 
L 9.078125 0 
L 9.078125 75.984375 
L 18.109375 75.984375 
L 18.109375 46.1875 
Q 21.34375 51.125 25.703125 53.5625 
Q 30.078125 56 35.796875 56 
Q 45.21875 56 50.046875 50.171875 
Q 54.890625 44.34375 54.890625 33.015625 
z
" id="DejaVuSans-104"/>
      </defs>
      <use xlink:href="#DejaVuSans-82"/>
      <use x="67.232422" xlink:href="#DejaVuSans-97"/>
      <use x="128.511719" xlink:href="#DejaVuSans-110"/>
      <use x="191.890625" xlink:href="#DejaVuSans-100"/>
      <use x="255.367188" xlink:href="#DejaVuSans-111"/>
      <use x="316.548828" xlink:href="#DejaVuSans-109"/>
      <use x="413.960938" xlink:href="#DejaVuSans-32"/>
      <use x="445.748047" xlink:href="#DejaVuSans-40"/>
      <use x="484.761719" xlink:href="#DejaVuSans-117"/>
      <use x="548.140625" xlink:href="#DejaVuSans-110"/>
      <use x="611.519531" xlink:href="#DejaVuSans-105"/>
      <use x="639.302734" xlink:href="#DejaVuSans-102"/>
      <use x="674.507812" xlink:href="#DejaVuSans-111"/>
      <use x="735.689453" xlink:href="#DejaVuSans-114"/>
      <use x="775.052734" xlink:href="#DejaVuSans-109"/>
      <use x="872.464844" xlink:href="#DejaVuSans-41"/>
      <use x="911.478516" xlink:href="#DejaVuSans-32"/>
      <use x="943.265625" xlink:href="#DejaVuSans-115"/>
      <use x="995.365234" xlink:href="#DejaVuSans-101"/>
      <use x="1056.888672" xlink:href="#DejaVuSans-97"/>
      <use x="1118.167969" xlink:href="#DejaVuSans-114"/>
      <use x="1157.03125" xlink:href="#DejaVuSans-99"/>
      <use x="1212.011719" xlink:href="#DejaVuSans-104"/>
      <use x="1275.390625" xlink:href="#DejaVuSans-32"/>
      <use x="1307.177734" xlink:href="#DejaVuSans-40"/>
      <use x="1346.191406" xlink:href="#DejaVuSans-82"/>
      <use x="1413.423828" xlink:href="#DejaVuSans-97"/>
      <use x="1474.703125" xlink:href="#DejaVuSans-110"/>
      <use x="1538.082031" xlink:href="#DejaVuSans-100"/>
      <use x="1601.558594" xlink:href="#DejaVuSans-41"/>
     </g>
    </g>
    <g id="line2d_38">
     <path d="M 317.34375 94.294687 
L 337.34375 94.294687 
" style="fill:none;stroke:#0000ff;stroke-linecap:square;stroke-width:1.5;"/>
    </g>
    <g id="line2d_39"/>
    <g id="text_21">
     <!-- Differential Evolution (DE) -->
     <g transform="translate(345.34375 97.794687)scale(0.1 -0.1)">
      <defs>
       <path d="M 19.671875 64.796875 
L 19.671875 8.109375 
L 31.59375 8.109375 
Q 46.6875 8.109375 53.6875 14.9375 
Q 60.6875 21.78125 60.6875 36.53125 
Q 60.6875 51.171875 53.6875 57.984375 
Q 46.6875 64.796875 31.59375 64.796875 
z
M 9.8125 72.90625 
L 30.078125 72.90625 
Q 51.265625 72.90625 61.171875 64.09375 
Q 71.09375 55.28125 71.09375 36.53125 
Q 71.09375 17.671875 61.125 8.828125 
Q 51.171875 0 30.078125 0 
L 9.8125 0 
z
" id="DejaVuSans-68"/>
      </defs>
      <use xlink:href="#DejaVuSans-68"/>
      <use x="77.001953" xlink:href="#DejaVuSans-105"/>
      <use x="104.785156" xlink:href="#DejaVuSans-102"/>
      <use x="139.990234" xlink:href="#DejaVuSans-102"/>
      <use x="175.195312" xlink:href="#DejaVuSans-101"/>
      <use x="236.71875" xlink:href="#DejaVuSans-114"/>
      <use x="275.582031" xlink:href="#DejaVuSans-101"/>
      <use x="337.105469" xlink:href="#DejaVuSans-110"/>
      <use x="400.484375" xlink:href="#DejaVuSans-116"/>
      <use x="439.693359" xlink:href="#DejaVuSans-105"/>
      <use x="467.476562" xlink:href="#DejaVuSans-97"/>
      <use x="528.755859" xlink:href="#DejaVuSans-108"/>
      <use x="556.539062" xlink:href="#DejaVuSans-32"/>
      <use x="588.326172" xlink:href="#DejaVuSans-69"/>
      <use x="651.509766" xlink:href="#DejaVuSans-118"/>
      <use x="710.689453" xlink:href="#DejaVuSans-111"/>
      <use x="771.871094" xlink:href="#DejaVuSans-108"/>
      <use x="799.654297" xlink:href="#DejaVuSans-117"/>
      <use x="863.033203" xlink:href="#DejaVuSans-116"/>
      <use x="902.242188" xlink:href="#DejaVuSans-105"/>
      <use x="930.025391" xlink:href="#DejaVuSans-111"/>
      <use x="991.207031" xlink:href="#DejaVuSans-110"/>
      <use x="1054.585938" xlink:href="#DejaVuSans-32"/>
      <use x="1086.373047" xlink:href="#DejaVuSans-40"/>
      <use x="1125.386719" xlink:href="#DejaVuSans-68"/>
      <use x="1202.388672" xlink:href="#DejaVuSans-69"/>
      <use x="1265.572266" xlink:href="#DejaVuSans-41"/>
     </g>
    </g>
   </g>
  </g>
 </g>
 <defs>
  <clipPath id="p1675bc945d">
   <rect height="326.16" width="446.4" x="72" y="51.84"/>
  </clipPath>
 </defs>
</svg>
