<?xml version="1.0" encoding="utf-8" standalone="no"?>
<!DOCTYPE svg PUBLIC "-//W3C//DTD SVG 1.1//EN"
  "http://www.w3.org/Graphics/SVG/1.1/DTD/svg11.dtd">
<!-- Created with matplotlib (https://matplotlib.org/) -->
<svg height="432pt" version="1.1" viewBox="0 0 576 432" width="576pt" xmlns="http://www.w3.org/2000/svg" xmlns:xlink="http://www.w3.org/1999/xlink">
 <defs>
  <style type="text/css">
*{stroke-linecap:butt;stroke-linejoin:round;white-space:pre;}
  </style>
 </defs>
 <g id="figure_1">
  <g id="patch_1">
   <path d="M 0 432 
L 576 432 
L 576 0 
L 0 0 
z
" style="fill:#ffffff;"/>
  </g>
  <g id="axes_1">
   <g id="patch_2">
    <path d="M 72 378 
L 518.4 378 
L 518.4 51.84 
L 72 51.84 
z
" style="fill:#ffffff;"/>
   </g>
   <g id="matplotlib.axis_1">
    <g id="xtick_1">
     <g id="line2d_1">
      <path clip-path="url(#pee53354f0b)" d="M 92.290909 378 
L 92.290909 51.84 
" style="fill:none;stroke:#b0b0b0;stroke-linecap:square;stroke-width:0.8;"/>
     </g>
     <g id="line2d_2">
      <defs>
       <path d="M 0 0 
L 0 3.5 
" id="m2104825f20" style="stroke:#000000;stroke-width:0.8;"/>
      </defs>
      <g>
       <use style="stroke:#000000;stroke-width:0.8;" x="92.290909" xlink:href="#m2104825f20" y="378"/>
      </g>
     </g>
     <g id="text_1">
      <!-- 2018-01 -->
      <defs>
       <path d="M 19.1875 8.296875 
L 53.609375 8.296875 
L 53.609375 0 
L 7.328125 0 
L 7.328125 8.296875 
Q 12.9375 14.109375 22.625 23.890625 
Q 32.328125 33.6875 34.8125 36.53125 
Q 39.546875 41.84375 41.421875 45.53125 
Q 43.3125 49.21875 43.3125 52.78125 
Q 43.3125 58.59375 39.234375 62.25 
Q 35.15625 65.921875 28.609375 65.921875 
Q 23.96875 65.921875 18.8125 64.3125 
Q 13.671875 62.703125 7.8125 59.421875 
L 7.8125 69.390625 
Q 13.765625 71.78125 18.9375 73 
Q 24.125 74.21875 28.421875 74.21875 
Q 39.75 74.21875 46.484375 68.546875 
Q 53.21875 62.890625 53.21875 53.421875 
Q 53.21875 48.921875 51.53125 44.890625 
Q 49.859375 40.875 45.40625 35.40625 
Q 44.1875 33.984375 37.640625 27.21875 
Q 31.109375 20.453125 19.1875 8.296875 
z
" id="DejaVuSans-50"/>
       <path d="M 31.78125 66.40625 
Q 24.171875 66.40625 20.328125 58.90625 
Q 16.5 51.421875 16.5 36.375 
Q 16.5 21.390625 20.328125 13.890625 
Q 24.171875 6.390625 31.78125 6.390625 
Q 39.453125 6.390625 43.28125 13.890625 
Q 47.125 21.390625 47.125 36.375 
Q 47.125 51.421875 43.28125 58.90625 
Q 39.453125 66.40625 31.78125 66.40625 
z
M 31.78125 74.21875 
Q 44.046875 74.21875 50.515625 64.515625 
Q 56.984375 54.828125 56.984375 36.375 
Q 56.984375 17.96875 50.515625 8.265625 
Q 44.046875 -1.421875 31.78125 -1.421875 
Q 19.53125 -1.421875 13.0625 8.265625 
Q 6.59375 17.96875 6.59375 36.375 
Q 6.59375 54.828125 13.0625 64.515625 
Q 19.53125 74.21875 31.78125 74.21875 
z
" id="DejaVuSans-48"/>
       <path d="M 12.40625 8.296875 
L 28.515625 8.296875 
L 28.515625 63.921875 
L 10.984375 60.40625 
L 10.984375 69.390625 
L 28.421875 72.90625 
L 38.28125 72.90625 
L 38.28125 8.296875 
L 54.390625 8.296875 
L 54.390625 0 
L 12.40625 0 
z
" id="DejaVuSans-49"/>
       <path d="M 31.78125 34.625 
Q 24.75 34.625 20.71875 30.859375 
Q 16.703125 27.09375 16.703125 20.515625 
Q 16.703125 13.921875 20.71875 10.15625 
Q 24.75 6.390625 31.78125 6.390625 
Q 38.8125 6.390625 42.859375 10.171875 
Q 46.921875 13.96875 46.921875 20.515625 
Q 46.921875 27.09375 42.890625 30.859375 
Q 38.875 34.625 31.78125 34.625 
z
M 21.921875 38.8125 
Q 15.578125 40.375 12.03125 44.71875 
Q 8.5 49.078125 8.5 55.328125 
Q 8.5 64.0625 14.71875 69.140625 
Q 20.953125 74.21875 31.78125 74.21875 
Q 42.671875 74.21875 48.875 69.140625 
Q 55.078125 64.0625 55.078125 55.328125 
Q 55.078125 49.078125 51.53125 44.71875 
Q 48 40.375 41.703125 38.8125 
Q 48.828125 37.15625 52.796875 32.3125 
Q 56.78125 27.484375 56.78125 20.515625 
Q 56.78125 9.90625 50.3125 4.234375 
Q 43.84375 -1.421875 31.78125 -1.421875 
Q 19.734375 -1.421875 13.25 4.234375 
Q 6.78125 9.90625 6.78125 20.515625 
Q 6.78125 27.484375 10.78125 32.3125 
Q 14.796875 37.15625 21.921875 38.8125 
z
M 18.3125 54.390625 
Q 18.3125 48.734375 21.84375 45.5625 
Q 25.390625 42.390625 31.78125 42.390625 
Q 38.140625 42.390625 41.71875 45.5625 
Q 45.3125 48.734375 45.3125 54.390625 
Q 45.3125 60.0625 41.71875 63.234375 
Q 38.140625 66.40625 31.78125 66.40625 
Q 25.390625 66.40625 21.84375 63.234375 
Q 18.3125 60.0625 18.3125 54.390625 
z
" id="DejaVuSans-56"/>
       <path d="M 4.890625 31.390625 
L 31.203125 31.390625 
L 31.203125 23.390625 
L 4.890625 23.390625 
z
" id="DejaVuSans-45"/>
      </defs>
      <g transform="translate(71.399503 392.598437)scale(0.1 -0.1)">
       <use xlink:href="#DejaVuSans-50"/>
       <use x="63.623047" xlink:href="#DejaVuSans-48"/>
       <use x="127.246094" xlink:href="#DejaVuSans-49"/>
       <use x="190.869141" xlink:href="#DejaVuSans-56"/>
       <use x="254.492188" xlink:href="#DejaVuSans-45"/>
       <use x="290.576172" xlink:href="#DejaVuSans-48"/>
       <use x="354.199219" xlink:href="#DejaVuSans-49"/>
      </g>
     </g>
    </g>
    <g id="xtick_2">
     <g id="line2d_3">
      <path clip-path="url(#pee53354f0b)" d="M 158.069131 378 
L 158.069131 51.84 
" style="fill:none;stroke:#b0b0b0;stroke-linecap:square;stroke-width:0.8;"/>
     </g>
     <g id="line2d_4">
      <g>
       <use style="stroke:#000000;stroke-width:0.8;" x="158.069131" xlink:href="#m2104825f20" y="378"/>
      </g>
     </g>
     <g id="text_2">
      <!-- 2018-03 -->
      <defs>
       <path d="M 40.578125 39.3125 
Q 47.65625 37.796875 51.625 33 
Q 55.609375 28.21875 55.609375 21.1875 
Q 55.609375 10.40625 48.1875 4.484375 
Q 40.765625 -1.421875 27.09375 -1.421875 
Q 22.515625 -1.421875 17.65625 -0.515625 
Q 12.796875 0.390625 7.625 2.203125 
L 7.625 11.71875 
Q 11.71875 9.328125 16.59375 8.109375 
Q 21.484375 6.890625 26.8125 6.890625 
Q 36.078125 6.890625 40.9375 10.546875 
Q 45.796875 14.203125 45.796875 21.1875 
Q 45.796875 27.640625 41.28125 31.265625 
Q 36.765625 34.90625 28.71875 34.90625 
L 20.21875 34.90625 
L 20.21875 43.015625 
L 29.109375 43.015625 
Q 36.375 43.015625 40.234375 45.921875 
Q 44.09375 48.828125 44.09375 54.296875 
Q 44.09375 59.90625 40.109375 62.90625 
Q 36.140625 65.921875 28.71875 65.921875 
Q 24.65625 65.921875 20.015625 65.03125 
Q 15.375 64.15625 9.8125 62.3125 
L 9.8125 71.09375 
Q 15.4375 72.65625 20.34375 73.4375 
Q 25.25 74.21875 29.59375 74.21875 
Q 40.828125 74.21875 47.359375 69.109375 
Q 53.90625 64.015625 53.90625 55.328125 
Q 53.90625 49.265625 50.4375 45.09375 
Q 46.96875 40.921875 40.578125 39.3125 
z
" id="DejaVuSans-51"/>
      </defs>
      <g transform="translate(137.177725 392.598437)scale(0.1 -0.1)">
       <use xlink:href="#DejaVuSans-50"/>
       <use x="63.623047" xlink:href="#DejaVuSans-48"/>
       <use x="127.246094" xlink:href="#DejaVuSans-49"/>
       <use x="190.869141" xlink:href="#DejaVuSans-56"/>
       <use x="254.492188" xlink:href="#DejaVuSans-45"/>
       <use x="290.576172" xlink:href="#DejaVuSans-48"/>
       <use x="354.199219" xlink:href="#DejaVuSans-51"/>
      </g>
     </g>
    </g>
    <g id="xtick_3">
     <g id="line2d_5">
      <path clip-path="url(#pee53354f0b)" d="M 226.077123 378 
L 226.077123 51.84 
" style="fill:none;stroke:#b0b0b0;stroke-linecap:square;stroke-width:0.8;"/>
     </g>
     <g id="line2d_6">
      <g>
       <use style="stroke:#000000;stroke-width:0.8;" x="226.077123" xlink:href="#m2104825f20" y="378"/>
      </g>
     </g>
     <g id="text_3">
      <!-- 2018-05 -->
      <defs>
       <path d="M 10.796875 72.90625 
L 49.515625 72.90625 
L 49.515625 64.59375 
L 19.828125 64.59375 
L 19.828125 46.734375 
Q 21.96875 47.46875 24.109375 47.828125 
Q 26.265625 48.1875 28.421875 48.1875 
Q 40.625 48.1875 47.75 41.5 
Q 54.890625 34.8125 54.890625 23.390625 
Q 54.890625 11.625 47.5625 5.09375 
Q 40.234375 -1.421875 26.90625 -1.421875 
Q 22.3125 -1.421875 17.546875 -0.640625 
Q 12.796875 0.140625 7.71875 1.703125 
L 7.71875 11.625 
Q 12.109375 9.234375 16.796875 8.0625 
Q 21.484375 6.890625 26.703125 6.890625 
Q 35.15625 6.890625 40.078125 11.328125 
Q 45.015625 15.765625 45.015625 23.390625 
Q 45.015625 31 40.078125 35.4375 
Q 35.15625 39.890625 26.703125 39.890625 
Q 22.75 39.890625 18.8125 39.015625 
Q 14.890625 38.140625 10.796875 36.28125 
z
" id="DejaVuSans-53"/>
      </defs>
      <g transform="translate(205.185717 392.598437)scale(0.1 -0.1)">
       <use xlink:href="#DejaVuSans-50"/>
       <use x="63.623047" xlink:href="#DejaVuSans-48"/>
       <use x="127.246094" xlink:href="#DejaVuSans-49"/>
       <use x="190.869141" xlink:href="#DejaVuSans-56"/>
       <use x="254.492188" xlink:href="#DejaVuSans-45"/>
       <use x="290.576172" xlink:href="#DejaVuSans-48"/>
       <use x="354.199219" xlink:href="#DejaVuSans-53"/>
      </g>
     </g>
    </g>
    <g id="xtick_4">
     <g id="line2d_7">
      <path clip-path="url(#pee53354f0b)" d="M 294.085115 378 
L 294.085115 51.84 
" style="fill:none;stroke:#b0b0b0;stroke-linecap:square;stroke-width:0.8;"/>
     </g>
     <g id="line2d_8">
      <g>
       <use style="stroke:#000000;stroke-width:0.8;" x="294.085115" xlink:href="#m2104825f20" y="378"/>
      </g>
     </g>
     <g id="text_4">
      <!-- 2018-07 -->
      <defs>
       <path d="M 8.203125 72.90625 
L 55.078125 72.90625 
L 55.078125 68.703125 
L 28.609375 0 
L 18.3125 0 
L 43.21875 64.59375 
L 8.203125 64.59375 
z
" id="DejaVuSans-55"/>
      </defs>
      <g transform="translate(273.193709 392.598437)scale(0.1 -0.1)">
       <use xlink:href="#DejaVuSans-50"/>
       <use x="63.623047" xlink:href="#DejaVuSans-48"/>
       <use x="127.246094" xlink:href="#DejaVuSans-49"/>
       <use x="190.869141" xlink:href="#DejaVuSans-56"/>
       <use x="254.492188" xlink:href="#DejaVuSans-45"/>
       <use x="290.576172" xlink:href="#DejaVuSans-48"/>
       <use x="354.199219" xlink:href="#DejaVuSans-55"/>
      </g>
     </g>
    </g>
    <g id="xtick_5">
     <g id="line2d_9">
      <path clip-path="url(#pee53354f0b)" d="M 363.207992 378 
L 363.207992 51.84 
" style="fill:none;stroke:#b0b0b0;stroke-linecap:square;stroke-width:0.8;"/>
     </g>
     <g id="line2d_10">
      <g>
       <use style="stroke:#000000;stroke-width:0.8;" x="363.207992" xlink:href="#m2104825f20" y="378"/>
      </g>
     </g>
     <g id="text_5">
      <!-- 2018-09 -->
      <defs>
       <path d="M 10.984375 1.515625 
L 10.984375 10.5 
Q 14.703125 8.734375 18.5 7.8125 
Q 22.3125 6.890625 25.984375 6.890625 
Q 35.75 6.890625 40.890625 13.453125 
Q 46.046875 20.015625 46.78125 33.40625 
Q 43.953125 29.203125 39.59375 26.953125 
Q 35.25 24.703125 29.984375 24.703125 
Q 19.046875 24.703125 12.671875 31.3125 
Q 6.296875 37.9375 6.296875 49.421875 
Q 6.296875 60.640625 12.9375 67.421875 
Q 19.578125 74.21875 30.609375 74.21875 
Q 43.265625 74.21875 49.921875 64.515625 
Q 56.59375 54.828125 56.59375 36.375 
Q 56.59375 19.140625 48.40625 8.859375 
Q 40.234375 -1.421875 26.421875 -1.421875 
Q 22.703125 -1.421875 18.890625 -0.6875 
Q 15.09375 0.046875 10.984375 1.515625 
z
M 30.609375 32.421875 
Q 37.25 32.421875 41.125 36.953125 
Q 45.015625 41.5 45.015625 49.421875 
Q 45.015625 57.28125 41.125 61.84375 
Q 37.25 66.40625 30.609375 66.40625 
Q 23.96875 66.40625 20.09375 61.84375 
Q 16.21875 57.28125 16.21875 49.421875 
Q 16.21875 41.5 20.09375 36.953125 
Q 23.96875 32.421875 30.609375 32.421875 
z
" id="DejaVuSans-57"/>
      </defs>
      <g transform="translate(342.316586 392.598437)scale(0.1 -0.1)">
       <use xlink:href="#DejaVuSans-50"/>
       <use x="63.623047" xlink:href="#DejaVuSans-48"/>
       <use x="127.246094" xlink:href="#DejaVuSans-49"/>
       <use x="190.869141" xlink:href="#DejaVuSans-56"/>
       <use x="254.492188" xlink:href="#DejaVuSans-45"/>
       <use x="290.576172" xlink:href="#DejaVuSans-48"/>
       <use x="354.199219" xlink:href="#DejaVuSans-57"/>
      </g>
     </g>
    </g>
    <g id="xtick_6">
     <g id="line2d_11">
      <path clip-path="url(#pee53354f0b)" d="M 431.215984 378 
L 431.215984 51.84 
" style="fill:none;stroke:#b0b0b0;stroke-linecap:square;stroke-width:0.8;"/>
     </g>
     <g id="line2d_12">
      <g>
       <use style="stroke:#000000;stroke-width:0.8;" x="431.215984" xlink:href="#m2104825f20" y="378"/>
      </g>
     </g>
     <g id="text_6">
      <!-- 2018-11 -->
      <g transform="translate(410.324578 392.598437)scale(0.1 -0.1)">
       <use xlink:href="#DejaVuSans-50"/>
       <use x="63.623047" xlink:href="#DejaVuSans-48"/>
       <use x="127.246094" xlink:href="#DejaVuSans-49"/>
       <use x="190.869141" xlink:href="#DejaVuSans-56"/>
       <use x="254.492188" xlink:href="#DejaVuSans-45"/>
       <use x="290.576172" xlink:href="#DejaVuSans-49"/>
       <use x="354.199219" xlink:href="#DejaVuSans-49"/>
      </g>
     </g>
    </g>
    <g id="xtick_7">
     <g id="line2d_13">
      <path clip-path="url(#pee53354f0b)" d="M 499.223976 378 
L 499.223976 51.84 
" style="fill:none;stroke:#b0b0b0;stroke-linecap:square;stroke-width:0.8;"/>
     </g>
     <g id="line2d_14">
      <g>
       <use style="stroke:#000000;stroke-width:0.8;" x="499.223976" xlink:href="#m2104825f20" y="378"/>
      </g>
     </g>
     <g id="text_7">
      <!-- 2019-01 -->
      <g transform="translate(478.33257 392.598437)scale(0.1 -0.1)">
       <use xlink:href="#DejaVuSans-50"/>
       <use x="63.623047" xlink:href="#DejaVuSans-48"/>
       <use x="127.246094" xlink:href="#DejaVuSans-49"/>
       <use x="190.869141" xlink:href="#DejaVuSans-57"/>
       <use x="254.492188" xlink:href="#DejaVuSans-45"/>
       <use x="290.576172" xlink:href="#DejaVuSans-48"/>
       <use x="354.199219" xlink:href="#DejaVuSans-49"/>
      </g>
     </g>
    </g>
    <g id="text_8">
     <!-- Day -->
     <defs>
      <path d="M 19.671875 64.796875 
L 19.671875 8.109375 
L 31.59375 8.109375 
Q 46.6875 8.109375 53.6875 14.9375 
Q 60.6875 21.78125 60.6875 36.53125 
Q 60.6875 51.171875 53.6875 57.984375 
Q 46.6875 64.796875 31.59375 64.796875 
z
M 9.8125 72.90625 
L 30.078125 72.90625 
Q 51.265625 72.90625 61.171875 64.09375 
Q 71.09375 55.28125 71.09375 36.53125 
Q 71.09375 17.671875 61.125 8.828125 
Q 51.171875 0 30.078125 0 
L 9.8125 0 
z
" id="DejaVuSans-68"/>
      <path d="M 34.28125 27.484375 
Q 23.390625 27.484375 19.1875 25 
Q 14.984375 22.515625 14.984375 16.5 
Q 14.984375 11.71875 18.140625 8.90625 
Q 21.296875 6.109375 26.703125 6.109375 
Q 34.1875 6.109375 38.703125 11.40625 
Q 43.21875 16.703125 43.21875 25.484375 
L 43.21875 27.484375 
z
M 52.203125 31.203125 
L 52.203125 0 
L 43.21875 0 
L 43.21875 8.296875 
Q 40.140625 3.328125 35.546875 0.953125 
Q 30.953125 -1.421875 24.3125 -1.421875 
Q 15.921875 -1.421875 10.953125 3.296875 
Q 6 8.015625 6 15.921875 
Q 6 25.140625 12.171875 29.828125 
Q 18.359375 34.515625 30.609375 34.515625 
L 43.21875 34.515625 
L 43.21875 35.40625 
Q 43.21875 41.609375 39.140625 45 
Q 35.0625 48.390625 27.6875 48.390625 
Q 23 48.390625 18.546875 47.265625 
Q 14.109375 46.140625 10.015625 43.890625 
L 10.015625 52.203125 
Q 14.9375 54.109375 19.578125 55.046875 
Q 24.21875 56 28.609375 56 
Q 40.484375 56 46.34375 49.84375 
Q 52.203125 43.703125 52.203125 31.203125 
z
" id="DejaVuSans-97"/>
      <path d="M 32.171875 -5.078125 
Q 28.375 -14.84375 24.75 -17.8125 
Q 21.140625 -20.796875 15.09375 -20.796875 
L 7.90625 -20.796875 
L 7.90625 -13.28125 
L 13.1875 -13.28125 
Q 16.890625 -13.28125 18.9375 -11.515625 
Q 21 -9.765625 23.484375 -3.21875 
L 25.09375 0.875 
L 2.984375 54.6875 
L 12.5 54.6875 
L 29.59375 11.921875 
L 46.6875 54.6875 
L 56.203125 54.6875 
z
" id="DejaVuSans-121"/>
     </defs>
     <g transform="translate(285.326562 406.276563)scale(0.1 -0.1)">
      <use xlink:href="#DejaVuSans-68"/>
      <use x="77.001953" xlink:href="#DejaVuSans-97"/>
      <use x="138.28125" xlink:href="#DejaVuSans-121"/>
     </g>
    </g>
   </g>
   <g id="matplotlib.axis_2">
    <g id="ytick_1">
     <g id="line2d_15">
      <path clip-path="url(#pee53354f0b)" d="M 72 363.174545 
L 518.4 363.174545 
" style="fill:none;stroke:#b0b0b0;stroke-linecap:square;stroke-width:0.8;"/>
     </g>
     <g id="line2d_16">
      <defs>
       <path d="M 0 0 
L -3.5 0 
" id="m53f9025d76" style="stroke:#000000;stroke-width:0.8;"/>
      </defs>
      <g>
       <use style="stroke:#000000;stroke-width:0.8;" x="72" xlink:href="#m53f9025d76" y="363.174545"/>
      </g>
     </g>
     <g id="text_9">
      <!-- −1.00 -->
      <defs>
       <path d="M 10.59375 35.5 
L 73.1875 35.5 
L 73.1875 27.203125 
L 10.59375 27.203125 
z
" id="DejaVuSans-8722"/>
       <path d="M 10.6875 12.40625 
L 21 12.40625 
L 21 0 
L 10.6875 0 
z
" id="DejaVuSans-46"/>
      </defs>
      <g transform="translate(34.354687 366.973764)scale(0.1 -0.1)">
       <use xlink:href="#DejaVuSans-8722"/>
       <use x="83.789062" xlink:href="#DejaVuSans-49"/>
       <use x="147.412109" xlink:href="#DejaVuSans-46"/>
       <use x="179.199219" xlink:href="#DejaVuSans-48"/>
       <use x="242.822266" xlink:href="#DejaVuSans-48"/>
      </g>
     </g>
    </g>
    <g id="ytick_2">
     <g id="line2d_17">
      <path clip-path="url(#pee53354f0b)" d="M 72 326.110909 
L 518.4 326.110909 
" style="fill:none;stroke:#b0b0b0;stroke-linecap:square;stroke-width:0.8;"/>
     </g>
     <g id="line2d_18">
      <g>
       <use style="stroke:#000000;stroke-width:0.8;" x="72" xlink:href="#m53f9025d76" y="326.110909"/>
      </g>
     </g>
     <g id="text_10">
      <!-- −0.75 -->
      <g transform="translate(34.354687 329.910128)scale(0.1 -0.1)">
       <use xlink:href="#DejaVuSans-8722"/>
       <use x="83.789062" xlink:href="#DejaVuSans-48"/>
       <use x="147.412109" xlink:href="#DejaVuSans-46"/>
       <use x="179.199219" xlink:href="#DejaVuSans-55"/>
       <use x="242.822266" xlink:href="#DejaVuSans-53"/>
      </g>
     </g>
    </g>
    <g id="ytick_3">
     <g id="line2d_19">
      <path clip-path="url(#pee53354f0b)" d="M 72 289.047273 
L 518.4 289.047273 
" style="fill:none;stroke:#b0b0b0;stroke-linecap:square;stroke-width:0.8;"/>
     </g>
     <g id="line2d_20">
      <g>
       <use style="stroke:#000000;stroke-width:0.8;" x="72" xlink:href="#m53f9025d76" y="289.047273"/>
      </g>
     </g>
     <g id="text_11">
      <!-- −0.50 -->
      <g transform="translate(34.354687 292.846491)scale(0.1 -0.1)">
       <use xlink:href="#DejaVuSans-8722"/>
       <use x="83.789062" xlink:href="#DejaVuSans-48"/>
       <use x="147.412109" xlink:href="#DejaVuSans-46"/>
       <use x="179.199219" xlink:href="#DejaVuSans-53"/>
       <use x="242.822266" xlink:href="#DejaVuSans-48"/>
      </g>
     </g>
    </g>
    <g id="ytick_4">
     <g id="line2d_21">
      <path clip-path="url(#pee53354f0b)" d="M 72 251.983636 
L 518.4 251.983636 
" style="fill:none;stroke:#b0b0b0;stroke-linecap:square;stroke-width:0.8;"/>
     </g>
     <g id="line2d_22">
      <g>
       <use style="stroke:#000000;stroke-width:0.8;" x="72" xlink:href="#m53f9025d76" y="251.983636"/>
      </g>
     </g>
     <g id="text_12">
      <!-- −0.25 -->
      <g transform="translate(34.354687 255.782855)scale(0.1 -0.1)">
       <use xlink:href="#DejaVuSans-8722"/>
       <use x="83.789062" xlink:href="#DejaVuSans-48"/>
       <use x="147.412109" xlink:href="#DejaVuSans-46"/>
       <use x="179.199219" xlink:href="#DejaVuSans-50"/>
       <use x="242.822266" xlink:href="#DejaVuSans-53"/>
      </g>
     </g>
    </g>
    <g id="ytick_5">
     <g id="line2d_23">
      <path clip-path="url(#pee53354f0b)" d="M 72 214.92 
L 518.4 214.92 
" style="fill:none;stroke:#b0b0b0;stroke-linecap:square;stroke-width:0.8;"/>
     </g>
     <g id="line2d_24">
      <g>
       <use style="stroke:#000000;stroke-width:0.8;" x="72" xlink:href="#m53f9025d76" y="214.92"/>
      </g>
     </g>
     <g id="text_13">
      <!-- 0.00 -->
      <g transform="translate(42.734375 218.719219)scale(0.1 -0.1)">
       <use xlink:href="#DejaVuSans-48"/>
       <use x="63.623047" xlink:href="#DejaVuSans-46"/>
       <use x="95.410156" xlink:href="#DejaVuSans-48"/>
       <use x="159.033203" xlink:href="#DejaVuSans-48"/>
      </g>
     </g>
    </g>
    <g id="ytick_6">
     <g id="line2d_25">
      <path clip-path="url(#pee53354f0b)" d="M 72 177.856364 
L 518.4 177.856364 
" style="fill:none;stroke:#b0b0b0;stroke-linecap:square;stroke-width:0.8;"/>
     </g>
     <g id="line2d_26">
      <g>
       <use style="stroke:#000000;stroke-width:0.8;" x="72" xlink:href="#m53f9025d76" y="177.856364"/>
      </g>
     </g>
     <g id="text_14">
      <!-- 0.25 -->
      <g transform="translate(42.734375 181.655582)scale(0.1 -0.1)">
       <use xlink:href="#DejaVuSans-48"/>
       <use x="63.623047" xlink:href="#DejaVuSans-46"/>
       <use x="95.410156" xlink:href="#DejaVuSans-50"/>
       <use x="159.033203" xlink:href="#DejaVuSans-53"/>
      </g>
     </g>
    </g>
    <g id="ytick_7">
     <g id="line2d_27">
      <path clip-path="url(#pee53354f0b)" d="M 72 140.792727 
L 518.4 140.792727 
" style="fill:none;stroke:#b0b0b0;stroke-linecap:square;stroke-width:0.8;"/>
     </g>
     <g id="line2d_28">
      <g>
       <use style="stroke:#000000;stroke-width:0.8;" x="72" xlink:href="#m53f9025d76" y="140.792727"/>
      </g>
     </g>
     <g id="text_15">
      <!-- 0.50 -->
      <g transform="translate(42.734375 144.591946)scale(0.1 -0.1)">
       <use xlink:href="#DejaVuSans-48"/>
       <use x="63.623047" xlink:href="#DejaVuSans-46"/>
       <use x="95.410156" xlink:href="#DejaVuSans-53"/>
       <use x="159.033203" xlink:href="#DejaVuSans-48"/>
      </g>
     </g>
    </g>
    <g id="ytick_8">
     <g id="line2d_29">
      <path clip-path="url(#pee53354f0b)" d="M 72 103.729091 
L 518.4 103.729091 
" style="fill:none;stroke:#b0b0b0;stroke-linecap:square;stroke-width:0.8;"/>
     </g>
     <g id="line2d_30">
      <g>
       <use style="stroke:#000000;stroke-width:0.8;" x="72" xlink:href="#m53f9025d76" y="103.729091"/>
      </g>
     </g>
     <g id="text_16">
      <!-- 0.75 -->
      <g transform="translate(42.734375 107.52831)scale(0.1 -0.1)">
       <use xlink:href="#DejaVuSans-48"/>
       <use x="63.623047" xlink:href="#DejaVuSans-46"/>
       <use x="95.410156" xlink:href="#DejaVuSans-55"/>
       <use x="159.033203" xlink:href="#DejaVuSans-53"/>
      </g>
     </g>
    </g>
    <g id="ytick_9">
     <g id="line2d_31">
      <path clip-path="url(#pee53354f0b)" d="M 72 66.665455 
L 518.4 66.665455 
" style="fill:none;stroke:#b0b0b0;stroke-linecap:square;stroke-width:0.8;"/>
     </g>
     <g id="line2d_32">
      <g>
       <use style="stroke:#000000;stroke-width:0.8;" x="72" xlink:href="#m53f9025d76" y="66.665455"/>
      </g>
     </g>
     <g id="text_17">
      <!-- 1.00 -->
      <g transform="translate(42.734375 70.464673)scale(0.1 -0.1)">
       <use xlink:href="#DejaVuSans-49"/>
       <use x="63.623047" xlink:href="#DejaVuSans-46"/>
       <use x="95.410156" xlink:href="#DejaVuSans-48"/>
       <use x="159.033203" xlink:href="#DejaVuSans-48"/>
      </g>
     </g>
    </g>
    <g id="text_18">
     <!-- Cyclical Value -->
     <defs>
      <path d="M 64.40625 67.28125 
L 64.40625 56.890625 
Q 59.421875 61.53125 53.78125 63.8125 
Q 48.140625 66.109375 41.796875 66.109375 
Q 29.296875 66.109375 22.65625 58.46875 
Q 16.015625 50.828125 16.015625 36.375 
Q 16.015625 21.96875 22.65625 14.328125 
Q 29.296875 6.6875 41.796875 6.6875 
Q 48.140625 6.6875 53.78125 8.984375 
Q 59.421875 11.28125 64.40625 15.921875 
L 64.40625 5.609375 
Q 59.234375 2.09375 53.4375 0.328125 
Q 47.65625 -1.421875 41.21875 -1.421875 
Q 24.65625 -1.421875 15.125 8.703125 
Q 5.609375 18.84375 5.609375 36.375 
Q 5.609375 53.953125 15.125 64.078125 
Q 24.65625 74.21875 41.21875 74.21875 
Q 47.75 74.21875 53.53125 72.484375 
Q 59.328125 70.75 64.40625 67.28125 
z
" id="DejaVuSans-67"/>
      <path d="M 48.78125 52.59375 
L 48.78125 44.1875 
Q 44.96875 46.296875 41.140625 47.34375 
Q 37.3125 48.390625 33.40625 48.390625 
Q 24.65625 48.390625 19.8125 42.84375 
Q 14.984375 37.3125 14.984375 27.296875 
Q 14.984375 17.28125 19.8125 11.734375 
Q 24.65625 6.203125 33.40625 6.203125 
Q 37.3125 6.203125 41.140625 7.25 
Q 44.96875 8.296875 48.78125 10.40625 
L 48.78125 2.09375 
Q 45.015625 0.34375 40.984375 -0.53125 
Q 36.96875 -1.421875 32.421875 -1.421875 
Q 20.0625 -1.421875 12.78125 6.34375 
Q 5.515625 14.109375 5.515625 27.296875 
Q 5.515625 40.671875 12.859375 48.328125 
Q 20.21875 56 33.015625 56 
Q 37.15625 56 41.109375 55.140625 
Q 45.0625 54.296875 48.78125 52.59375 
z
" id="DejaVuSans-99"/>
      <path d="M 9.421875 75.984375 
L 18.40625 75.984375 
L 18.40625 0 
L 9.421875 0 
z
" id="DejaVuSans-108"/>
      <path d="M 9.421875 54.6875 
L 18.40625 54.6875 
L 18.40625 0 
L 9.421875 0 
z
M 9.421875 75.984375 
L 18.40625 75.984375 
L 18.40625 64.59375 
L 9.421875 64.59375 
z
" id="DejaVuSans-105"/>
      <path id="DejaVuSans-32"/>
      <path d="M 28.609375 0 
L 0.78125 72.90625 
L 11.078125 72.90625 
L 34.1875 11.53125 
L 57.328125 72.90625 
L 67.578125 72.90625 
L 39.796875 0 
z
" id="DejaVuSans-86"/>
      <path d="M 8.5 21.578125 
L 8.5 54.6875 
L 17.484375 54.6875 
L 17.484375 21.921875 
Q 17.484375 14.15625 20.5 10.265625 
Q 23.53125 6.390625 29.59375 6.390625 
Q 36.859375 6.390625 41.078125 11.03125 
Q 45.3125 15.671875 45.3125 23.6875 
L 45.3125 54.6875 
L 54.296875 54.6875 
L 54.296875 0 
L 45.3125 0 
L 45.3125 8.40625 
Q 42.046875 3.421875 37.71875 1 
Q 33.40625 -1.421875 27.6875 -1.421875 
Q 18.265625 -1.421875 13.375 4.4375 
Q 8.5 10.296875 8.5 21.578125 
z
M 31.109375 56 
z
" id="DejaVuSans-117"/>
      <path d="M 56.203125 29.59375 
L 56.203125 25.203125 
L 14.890625 25.203125 
Q 15.484375 15.921875 20.484375 11.0625 
Q 25.484375 6.203125 34.421875 6.203125 
Q 39.59375 6.203125 44.453125 7.46875 
Q 49.3125 8.734375 54.109375 11.28125 
L 54.109375 2.78125 
Q 49.265625 0.734375 44.1875 -0.34375 
Q 39.109375 -1.421875 33.890625 -1.421875 
Q 20.796875 -1.421875 13.15625 6.1875 
Q 5.515625 13.8125 5.515625 26.8125 
Q 5.515625 40.234375 12.765625 48.109375 
Q 20.015625 56 32.328125 56 
Q 43.359375 56 49.78125 48.890625 
Q 56.203125 41.796875 56.203125 29.59375 
z
M 47.21875 32.234375 
Q 47.125 39.59375 43.09375 43.984375 
Q 39.0625 48.390625 32.421875 48.390625 
Q 24.90625 48.390625 20.390625 44.140625 
Q 15.875 39.890625 15.1875 32.171875 
z
" id="DejaVuSans-101"/>
     </defs>
     <g transform="translate(28.275 249.802812)rotate(-90)scale(0.1 -0.1)">
      <use xlink:href="#DejaVuSans-67"/>
      <use x="69.824219" xlink:href="#DejaVuSans-121"/>
      <use x="129.003906" xlink:href="#DejaVuSans-99"/>
      <use x="183.984375" xlink:href="#DejaVuSans-108"/>
      <use x="211.767578" xlink:href="#DejaVuSans-105"/>
      <use x="239.550781" xlink:href="#DejaVuSans-99"/>
      <use x="294.53125" xlink:href="#DejaVuSans-97"/>
      <use x="355.810547" xlink:href="#DejaVuSans-108"/>
      <use x="383.59375" xlink:href="#DejaVuSans-32"/>
      <use x="415.380859" xlink:href="#DejaVuSans-86"/>
      <use x="483.679688" xlink:href="#DejaVuSans-97"/>
      <use x="544.958984" xlink:href="#DejaVuSans-108"/>
      <use x="572.742188" xlink:href="#DejaVuSans-117"/>
      <use x="636.121094" xlink:href="#DejaVuSans-101"/>
     </g>
    </g>
   </g>
   <g id="line2d_33">
    <path clip-path="url(#pee53354f0b)" d="M 432.330869 343.312203 
L 433.445754 343.312203 
L 434.560639 214.92 
L 435.675524 214.92 
L 436.79041 86.527797 
L 437.905295 86.527797 
L 439.02018 214.92 
L 440.135065 343.312203 
L 441.24995 343.312203 
L 442.364835 214.92 
L 443.47972 214.92 
L 444.594605 86.527797 
L 445.709491 86.527797 
L 446.824376 214.92 
L 447.939261 343.312203 
L 449.054146 343.312203 
L 450.169031 214.92 
L 451.283916 214.92 
L 452.398801 86.527797 
L 453.513686 86.527797 
L 454.628571 214.92 
L 455.743457 343.312203 
L 456.858342 343.312203 
L 457.973227 214.92 
L 459.088112 214.92 
L 460.202997 86.527797 
L 461.317882 86.527797 
L 462.432767 214.92 
L 463.547652 343.312203 
L 464.662537 343.312203 
L 465.777423 214.92 
L 466.892308 214.92 
L 468.007193 86.527797 
L 469.122078 86.527797 
L 470.236963 214.92 
L 471.351848 343.312203 
L 472.466733 343.312203 
L 473.581618 214.92 
L 474.696503 214.92 
L 475.811389 86.527797 
L 476.926274 86.527797 
L 478.041159 214.92 
L 479.156044 343.312203 
L 480.270929 343.312203 
L 481.385814 214.92 
L 482.500699 214.92 
L 483.615584 86.527797 
L 484.73047 86.527797 
L 485.845355 214.92 
L 486.96024 343.312203 
L 488.075125 343.312203 
L 489.19001 214.92 
L 490.304895 214.92 
L 491.41978 86.527797 
L 492.534665 86.527797 
L 493.64955 214.92 
L 494.764436 343.312203 
L 495.879321 343.312203 
L 496.994206 214.92 
L 498.109091 214.92 
" style="fill:none;stroke:#1f77b4;stroke-linecap:square;stroke-width:1.5;"/>
   </g>
   <g id="line2d_34">
    <path clip-path="url(#pee53354f0b)" d="M 432.330869 289.047273 
L 433.445754 140.792727 
L 434.560639 66.665455 
L 435.675524 66.665455 
L 436.79041 140.792727 
L 437.905295 289.047273 
L 439.02018 363.174545 
L 440.135065 289.047273 
L 441.24995 140.792727 
L 442.364835 66.665455 
L 443.47972 66.665455 
L 444.594605 140.792727 
L 445.709491 289.047273 
L 446.824376 363.174545 
L 447.939261 289.047273 
L 449.054146 140.792727 
L 450.169031 66.665455 
L 451.283916 66.665455 
L 452.398801 140.792727 
L 453.513686 289.047273 
L 454.628571 363.174545 
L 455.743457 289.047273 
L 456.858342 140.792727 
L 457.973227 66.665455 
L 459.088112 66.665455 
L 460.202997 140.792727 
L 461.317882 289.047273 
L 462.432767 363.174545 
L 463.547652 289.047273 
L 464.662537 140.792727 
L 465.777423 66.665455 
L 466.892308 66.665455 
L 468.007193 140.792727 
L 469.122078 289.047273 
L 470.236963 363.174545 
L 471.351848 289.047273 
L 472.466733 140.792727 
L 473.581618 66.665455 
L 474.696503 66.665455 
L 475.811389 140.792727 
L 476.926274 289.047273 
L 478.041159 363.174545 
L 479.156044 289.047273 
L 480.270929 140.792727 
L 481.385814 66.665455 
L 482.500699 66.665455 
L 483.615584 140.792727 
L 484.73047 289.047273 
L 485.845355 363.174545 
L 486.96024 289.047273 
L 488.075125 140.792727 
L 489.19001 66.665455 
L 490.304895 66.665455 
L 491.41978 140.792727 
L 492.534665 289.047273 
L 493.64955 363.174545 
L 494.764436 289.047273 
L 495.879321 140.792727 
L 496.994206 66.665455 
L 498.109091 66.665455 
" style="fill:none;stroke:#ff7f0e;stroke-linecap:square;stroke-width:1.5;"/>
   </g>
   <g id="line2d_35">
    <path clip-path="url(#pee53354f0b)" d="M 92.290909 214.92 
L 106.784416 182.107521 
L 114.588611 165.011992 
L 121.277922 150.922537 
L 126.852348 139.693406 
L 132.426773 129.018188 
L 136.886314 120.929807 
L 141.345854 113.284451 
L 145.805395 106.118159 
L 150.264935 99.464707 
L 153.60959 94.830132 
L 156.954246 90.514014 
L 160.298901 86.527797 
L 163.643556 82.882054 
L 166.988212 79.586452 
L 170.332867 76.64973 
L 173.677522 74.079676 
L 177.022178 71.883105 
L 180.366833 70.065842 
L 182.596603 69.067482 
L 184.826374 68.241043 
L 187.056144 67.587498 
L 189.285914 67.10762 
L 191.515684 66.801972 
L 193.745455 66.670916 
L 195.975225 66.714606 
L 198.204995 66.93299 
L 200.434765 67.325811 
L 202.664535 67.892606 
L 204.894306 68.632706 
L 207.124076 69.545241 
L 209.353846 70.629133 
L 211.583616 71.883105 
L 214.928272 74.079676 
L 218.272927 76.64973 
L 221.617582 79.586452 
L 224.962238 82.882054 
L 228.306893 86.527797 
L 231.651548 90.514014 
L 234.996204 94.830132 
L 238.340859 99.464707 
L 241.685514 104.405449 
L 246.145055 111.446607 
L 250.604595 118.975489 
L 255.064136 126.95661 
L 259.523676 135.35235 
L 265.098102 146.369623 
L 270.672527 157.89165 
L 277.361838 172.264681 
L 285.166034 189.593714 
L 297.42977 217.464986 
L 310.808392 247.732479 
L 318.612587 264.828008 
L 325.301898 278.917463 
L 330.876324 290.146594 
L 336.450749 300.821812 
L 340.91029 308.910193 
L 345.36983 316.555549 
L 349.829371 323.721841 
L 354.288911 330.375293 
L 357.633566 335.009868 
L 360.978222 339.325986 
L 364.322877 343.312203 
L 367.667532 346.957946 
L 371.012188 350.253548 
L 374.356843 353.19027 
L 377.701499 355.760324 
L 381.046154 357.956895 
L 384.390809 359.774158 
L 386.620579 360.772518 
L 388.85035 361.598957 
L 391.08012 362.252502 
L 393.30989 362.73238 
L 395.53966 363.038028 
L 397.769431 363.169084 
L 399.999201 363.125394 
L 402.228971 362.90701 
L 404.458741 362.514189 
L 406.688511 361.947394 
L 408.918282 361.207294 
L 411.148052 360.294759 
L 413.377822 359.210867 
L 415.607592 357.956895 
L 418.952248 355.760324 
L 422.296903 353.19027 
L 425.641558 350.253548 
L 428.986214 346.957946 
L 432.330869 343.312203 
L 435.675524 339.325986 
L 439.02018 335.009868 
L 442.364835 330.375293 
L 445.709491 325.434551 
L 450.169031 318.393393 
L 454.628571 310.864511 
L 459.088112 302.88339 
L 463.547652 294.48765 
L 469.122078 283.470377 
L 474.696503 271.94835 
L 481.385814 257.575319 
L 489.19001 240.246286 
L 498.109091 220.009223 
L 498.109091 220.009223 
" style="fill:none;stroke:#2ca02c;stroke-linecap:square;stroke-width:1.5;"/>
   </g>
   <g id="line2d_36">
    <path clip-path="url(#pee53354f0b)" d="M 92.290909 66.665455 
L 94.520679 66.752831 
L 96.75045 67.014856 
L 98.98022 67.451222 
L 101.20999 68.061414 
L 103.43976 68.844713 
L 105.66953 69.800195 
L 107.899301 70.926735 
L 111.243956 72.934317 
L 114.588611 75.31842 
L 117.933267 78.072722 
L 121.277922 81.189917 
L 124.622577 84.661741 
L 127.967233 88.478986 
L 131.311888 92.63153 
L 134.656543 97.108361 
L 138.001199 101.897608 
L 142.460739 108.747183 
L 146.92028 116.097207 
L 151.37982 123.913037 
L 155.839361 132.157831 
L 161.413786 143.007673 
L 166.988212 154.387025 
L 173.677522 168.622988 
L 181.481718 185.840977 
L 192.630569 211.102755 
L 208.238961 246.49029 
L 216.043157 263.627901 
L 222.732468 277.767235 
L 228.306893 289.047273 
L 233.881319 299.781491 
L 238.340859 307.922611 
L 242.8004 315.62536 
L 247.25994 322.853431 
L 251.719481 329.572753 
L 255.064136 334.259232 
L 258.408791 338.629245 
L 261.753447 342.671203 
L 265.098102 346.374388 
L 268.442757 349.728979 
L 271.787413 352.726081 
L 275.132068 355.357746 
L 278.476723 357.616996 
L 281.821379 359.497839 
L 284.051149 360.539003 
L 286.280919 361.408522 
L 288.510689 362.10537 
L 290.74046 362.628726 
L 292.97023 362.977973 
L 295.2 363.1527 
L 297.42977 363.1527 
L 299.65954 362.977973 
L 301.889311 362.628726 
L 304.119081 362.10537 
L 306.348851 361.408522 
L 308.578621 360.539003 
L 310.808392 359.497839 
L 313.038162 358.286256 
L 316.382817 356.152525 
L 319.727473 353.644272 
L 323.072128 350.768146 
L 326.416783 347.531776 
L 329.761439 343.943743 
L 333.106094 340.013562 
L 336.450749 335.751656 
L 339.795405 331.169326 
L 343.14006 326.278723 
L 347.5996 319.300914 
L 352.059141 311.831102 
L 356.518681 303.904495 
L 360.978222 295.558457 
L 366.552647 284.596188 
L 372.127073 273.120875 
L 378.816384 258.792479 
L 386.620579 241.499187 
L 398.884316 213.64746 
L 412.262937 183.34971 
L 420.067133 166.212099 
L 426.756444 152.072765 
L 432.330869 140.792727 
L 437.905295 130.058509 
L 442.364835 121.917389 
L 446.824376 114.21464 
L 451.283916 106.986569 
L 455.743457 100.267247 
L 459.088112 95.580768 
L 462.432767 91.210755 
L 465.777423 87.168797 
L 469.122078 83.465612 
L 472.466733 80.111021 
L 475.811389 77.113919 
L 479.156044 74.482254 
L 482.500699 72.223004 
L 485.845355 70.342161 
L 488.075125 69.300997 
L 490.304895 68.431478 
L 492.534665 67.73463 
L 494.764436 67.211274 
L 496.994206 66.862027 
L 498.109091 66.752831 
L 498.109091 66.752831 
" style="fill:none;stroke:#d62728;stroke-linecap:square;stroke-width:1.5;"/>
   </g>
   <g id="line2d_37">
    <path clip-path="url(#pee53354f0b)" d="M 92.290909 214.92 
L 98.98022 214.92 
L 100.095105 197.385465 
L 106.784416 197.385465 
L 107.899301 180.097076 
L 114.588611 180.097076 
L 115.703497 163.297525 
L 122.392807 163.297525 
L 123.507692 147.22264 
L 130.197003 147.22264 
L 131.311888 132.098078 
L 138.001199 132.098078 
L 139.116084 118.136154 
L 145.805395 118.136154 
L 146.92028 105.532863 
L 153.60959 105.532863 
L 154.724476 94.465127 
L 161.413786 94.465127 
L 162.528671 85.088314 
L 169.217982 85.088314 
L 170.332867 77.534053 
L 177.022178 77.534053 
L 178.137063 71.90839 
L 184.826374 71.90839 
L 185.941259 68.290297 
L 192.630569 68.290297 
L 193.745455 66.730563 
L 200.434765 66.730563 
L 201.54965 67.251083 
L 208.238961 67.251083 
L 209.353846 69.844552 
L 216.043157 69.844552 
L 217.158042 74.474562 
L 223.847353 74.474562 
L 224.962238 81.076118 
L 231.651548 81.076118 
L 232.766434 89.556549 
L 239.455744 89.556549 
L 240.570629 99.796808 
L 247.25994 99.796808 
L 248.374825 111.653144 
L 255.064136 111.653144 
L 256.179021 124.95912 
L 262.868332 124.95912 
L 263.983217 139.52795 
L 270.672527 139.52795 
L 271.787413 155.155119 
L 278.476723 155.155119 
L 279.591608 171.621256 
L 286.280919 171.621256 
L 287.395804 188.695213 
L 294.085115 188.695213 
L 295.2 206.137308 
L 301.889311 206.137308 
L 303.004196 223.702692 
L 309.693506 223.702692 
L 310.808392 241.144787 
L 317.497702 241.144787 
L 318.612587 258.218744 
L 325.301898 258.218744 
L 326.416783 274.684881 
L 333.106094 274.684881 
L 334.220979 290.31205 
L 340.91029 290.31205 
L 342.025175 304.88088 
L 348.714486 304.88088 
L 349.829371 318.186856 
L 356.518681 318.186856 
L 357.633566 330.043192 
L 364.322877 330.043192 
L 365.437762 340.283451 
L 372.127073 340.283451 
L 373.241958 348.763882 
L 379.931269 348.763882 
L 381.046154 355.365438 
L 387.735465 355.365438 
L 388.85035 359.995448 
L 395.53966 359.995448 
L 396.654545 362.588917 
L 403.343856 362.588917 
L 404.458741 363.109437 
L 411.148052 363.109437 
L 412.262937 361.549703 
L 418.952248 361.549703 
L 420.067133 357.93161 
L 426.756444 357.93161 
L 427.871329 352.305947 
L 434.560639 352.305947 
L 435.675524 344.751686 
L 442.364835 344.751686 
L 443.47972 335.374873 
L 450.169031 335.374873 
L 451.283916 324.307137 
L 457.973227 324.307137 
L 459.088112 311.703846 
L 465.777423 311.703846 
L 466.892308 297.741922 
L 473.581618 297.741922 
L 474.696503 282.61736 
L 481.385814 282.61736 
L 482.500699 266.542475 
L 489.19001 266.542475 
L 490.304895 249.742924 
L 496.994206 249.742924 
L 498.109091 214.92 
L 498.109091 214.92 
" style="fill:none;stroke:#9467bd;stroke-linecap:square;stroke-width:1.5;"/>
   </g>
   <g id="line2d_38">
    <path clip-path="url(#pee53354f0b)" d="M 92.290909 66.665455 
L 98.98022 66.665455 
L 100.095105 67.706039 
L 106.784416 67.706039 
L 107.899301 70.813185 
L 114.588611 70.813185 
L 115.703497 75.943274 
L 122.392807 75.943274 
L 123.507692 83.024292 
L 130.197003 83.024292 
L 131.311888 91.956837 
L 138.001199 91.956837 
L 139.116084 102.615515 
L 145.805395 102.615515 
L 146.92028 114.850702 
L 153.60959 114.850702 
L 154.724476 128.490642 
L 161.413786 128.490642 
L 162.528671 143.343861 
L 169.217982 143.343861 
L 170.332867 159.201853 
L 177.022178 159.201853 
L 178.137063 175.842005 
L 184.826374 175.842005 
L 185.941259 193.030726 
L 192.630569 193.030726 
L 193.745455 210.526724 
L 200.434765 210.526724 
L 201.54965 228.084395 
L 208.238961 228.084395 
L 209.353846 245.457266 
L 216.043157 245.457266 
L 217.158042 262.401462 
L 223.847353 262.401462 
L 224.962238 278.679121 
L 231.651548 278.679121 
L 232.766434 294.061742 
L 239.455744 294.061742 
L 240.570629 308.333387 
L 247.25994 308.333387 
L 248.374825 321.293712 
L 255.064136 321.293712 
L 256.179021 332.760784 
L 262.868332 332.760784 
L 263.983217 342.573629 
L 270.672527 342.573629 
L 271.787413 350.594498 
L 278.476723 350.594498 
L 279.591608 356.710793 
L 286.280919 356.710793 
L 287.395804 360.836657 
L 294.085115 360.836657 
L 295.2 362.914171 
L 309.693506 362.914171 
L 310.808392 360.836657 
L 317.497702 360.836657 
L 318.612587 356.710793 
L 325.301898 356.710793 
L 326.416783 350.594498 
L 333.106094 350.594498 
L 334.220979 342.573629 
L 340.91029 342.573629 
L 342.025175 332.760784 
L 348.714486 332.760784 
L 349.829371 321.293712 
L 356.518681 321.293712 
L 357.633566 308.333387 
L 364.322877 308.333387 
L 365.437762 294.061742 
L 372.127073 294.061742 
L 373.241958 278.679121 
L 379.931269 278.679121 
L 381.046154 262.401462 
L 387.735465 262.401462 
L 388.85035 245.457266 
L 395.53966 245.457266 
L 396.654545 228.084395 
L 403.343856 228.084395 
L 404.458741 210.526724 
L 411.148052 210.526724 
L 412.262937 193.030726 
L 418.952248 193.030726 
L 420.067133 175.842005 
L 426.756444 175.842005 
L 427.871329 159.201853 
L 434.560639 159.201853 
L 435.675524 143.343861 
L 442.364835 143.343861 
L 443.47972 128.490642 
L 450.169031 128.490642 
L 451.283916 114.850702 
L 457.973227 114.850702 
L 459.088112 102.615515 
L 465.777423 102.615515 
L 466.892308 91.956837 
L 473.581618 91.956837 
L 474.696503 83.024292 
L 481.385814 83.024292 
L 482.500699 75.943274 
L 489.19001 75.943274 
L 490.304895 70.813185 
L 496.994206 70.813185 
L 498.109091 66.665455 
L 498.109091 66.665455 
" style="fill:none;stroke:#8c564b;stroke-linecap:square;stroke-width:1.5;"/>
   </g>
   <g id="line2d_39">
    <path clip-path="url(#pee53354f0b)" d="M 92.290909 214.92 
L 125.737463 214.92 
L 126.852348 140.792727 
L 156.954246 140.792727 
L 158.069131 86.527797 
L 191.515684 86.527797 
L 192.630569 66.665455 
L 224.962238 66.665455 
L 226.077123 86.527797 
L 259.523676 86.527797 
L 260.638561 140.792727 
L 292.97023 140.792727 
L 294.085115 214.92 
L 327.531668 214.92 
L 328.646553 289.047273 
L 362.093107 289.047273 
L 363.207992 343.312203 
L 395.53966 343.312203 
L 396.654545 363.174545 
L 430.101099 363.174545 
L 431.215984 343.312203 
L 463.547652 343.312203 
L 464.662537 289.047273 
L 498.109091 289.047273 
L 498.109091 289.047273 
" style="fill:none;stroke:#e377c2;stroke-linecap:square;stroke-width:1.5;"/>
   </g>
   <g id="line2d_40">
    <path clip-path="url(#pee53354f0b)" d="M 92.290909 66.665455 
L 125.737463 66.665455 
L 126.852348 86.527797 
L 156.954246 86.527797 
L 158.069131 140.792727 
L 191.515684 140.792727 
L 192.630569 214.92 
L 224.962238 214.92 
L 226.077123 289.047273 
L 259.523676 289.047273 
L 260.638561 343.312203 
L 292.97023 343.312203 
L 294.085115 363.174545 
L 327.531668 363.174545 
L 328.646553 343.312203 
L 362.093107 343.312203 
L 363.207992 289.047273 
L 395.53966 289.047273 
L 396.654545 214.92 
L 430.101099 214.92 
L 431.215984 140.792727 
L 463.547652 140.792727 
L 464.662537 86.527797 
L 498.109091 86.527797 
L 498.109091 86.527797 
" style="fill:none;stroke:#7f7f7f;stroke-linecap:square;stroke-width:1.5;"/>
   </g>
   <g id="patch_3">
    <path d="M 72 378 
L 72 51.84 
" style="fill:none;stroke:#000000;stroke-linecap:square;stroke-linejoin:miter;stroke-width:0.8;"/>
   </g>
   <g id="patch_4">
    <path d="M 518.4 378 
L 518.4 51.84 
" style="fill:none;stroke:#000000;stroke-linecap:square;stroke-linejoin:miter;stroke-width:0.8;"/>
   </g>
   <g id="patch_5">
    <path d="M 72 378 
L 518.4 378 
" style="fill:none;stroke:#000000;stroke-linecap:square;stroke-linejoin:miter;stroke-width:0.8;"/>
   </g>
   <g id="patch_6">
    <path d="M 72 51.84 
L 518.4 51.84 
" style="fill:none;stroke:#000000;stroke-linecap:square;stroke-linejoin:miter;stroke-width:0.8;"/>
   </g>
   <g id="text_19">
    <!-- Calendar-to-cyclical features (month, day of week/year, week of year) -->
    <defs>
     <path d="M 54.890625 33.015625 
L 54.890625 0 
L 45.90625 0 
L 45.90625 32.71875 
Q 45.90625 40.484375 42.875 44.328125 
Q 39.84375 48.1875 33.796875 48.1875 
Q 26.515625 48.1875 22.3125 43.546875 
Q 18.109375 38.921875 18.109375 30.90625 
L 18.109375 0 
L 9.078125 0 
L 9.078125 54.6875 
L 18.109375 54.6875 
L 18.109375 46.1875 
Q 21.34375 51.125 25.703125 53.5625 
Q 30.078125 56 35.796875 56 
Q 45.21875 56 50.046875 50.171875 
Q 54.890625 44.34375 54.890625 33.015625 
z
" id="DejaVuSans-110"/>
     <path d="M 45.40625 46.390625 
L 45.40625 75.984375 
L 54.390625 75.984375 
L 54.390625 0 
L 45.40625 0 
L 45.40625 8.203125 
Q 42.578125 3.328125 38.25 0.953125 
Q 33.9375 -1.421875 27.875 -1.421875 
Q 17.96875 -1.421875 11.734375 6.484375 
Q 5.515625 14.40625 5.515625 27.296875 
Q 5.515625 40.1875 11.734375 48.09375 
Q 17.96875 56 27.875 56 
Q 33.9375 56 38.25 53.625 
Q 42.578125 51.265625 45.40625 46.390625 
z
M 14.796875 27.296875 
Q 14.796875 17.390625 18.875 11.75 
Q 22.953125 6.109375 30.078125 6.109375 
Q 37.203125 6.109375 41.296875 11.75 
Q 45.40625 17.390625 45.40625 27.296875 
Q 45.40625 37.203125 41.296875 42.84375 
Q 37.203125 48.484375 30.078125 48.484375 
Q 22.953125 48.484375 18.875 42.84375 
Q 14.796875 37.203125 14.796875 27.296875 
z
" id="DejaVuSans-100"/>
     <path d="M 41.109375 46.296875 
Q 39.59375 47.171875 37.8125 47.578125 
Q 36.03125 48 33.890625 48 
Q 26.265625 48 22.1875 43.046875 
Q 18.109375 38.09375 18.109375 28.8125 
L 18.109375 0 
L 9.078125 0 
L 9.078125 54.6875 
L 18.109375 54.6875 
L 18.109375 46.1875 
Q 20.953125 51.171875 25.484375 53.578125 
Q 30.03125 56 36.53125 56 
Q 37.453125 56 38.578125 55.875 
Q 39.703125 55.765625 41.0625 55.515625 
z
" id="DejaVuSans-114"/>
     <path d="M 18.3125 70.21875 
L 18.3125 54.6875 
L 36.8125 54.6875 
L 36.8125 47.703125 
L 18.3125 47.703125 
L 18.3125 18.015625 
Q 18.3125 11.328125 20.140625 9.421875 
Q 21.96875 7.515625 27.59375 7.515625 
L 36.8125 7.515625 
L 36.8125 0 
L 27.59375 0 
Q 17.1875 0 13.234375 3.875 
Q 9.28125 7.765625 9.28125 18.015625 
L 9.28125 47.703125 
L 2.6875 47.703125 
L 2.6875 54.6875 
L 9.28125 54.6875 
L 9.28125 70.21875 
z
" id="DejaVuSans-116"/>
     <path d="M 30.609375 48.390625 
Q 23.390625 48.390625 19.1875 42.75 
Q 14.984375 37.109375 14.984375 27.296875 
Q 14.984375 17.484375 19.15625 11.84375 
Q 23.34375 6.203125 30.609375 6.203125 
Q 37.796875 6.203125 41.984375 11.859375 
Q 46.1875 17.53125 46.1875 27.296875 
Q 46.1875 37.015625 41.984375 42.703125 
Q 37.796875 48.390625 30.609375 48.390625 
z
M 30.609375 56 
Q 42.328125 56 49.015625 48.375 
Q 55.71875 40.765625 55.71875 27.296875 
Q 55.71875 13.875 49.015625 6.21875 
Q 42.328125 -1.421875 30.609375 -1.421875 
Q 18.84375 -1.421875 12.171875 6.21875 
Q 5.515625 13.875 5.515625 27.296875 
Q 5.515625 40.765625 12.171875 48.375 
Q 18.84375 56 30.609375 56 
z
" id="DejaVuSans-111"/>
     <path d="M 37.109375 75.984375 
L 37.109375 68.5 
L 28.515625 68.5 
Q 23.6875 68.5 21.796875 66.546875 
Q 19.921875 64.59375 19.921875 59.515625 
L 19.921875 54.6875 
L 34.71875 54.6875 
L 34.71875 47.703125 
L 19.921875 47.703125 
L 19.921875 0 
L 10.890625 0 
L 10.890625 47.703125 
L 2.296875 47.703125 
L 2.296875 54.6875 
L 10.890625 54.6875 
L 10.890625 58.5 
Q 10.890625 67.625 15.140625 71.796875 
Q 19.390625 75.984375 28.609375 75.984375 
z
" id="DejaVuSans-102"/>
     <path d="M 44.28125 53.078125 
L 44.28125 44.578125 
Q 40.484375 46.53125 36.375 47.5 
Q 32.28125 48.484375 27.875 48.484375 
Q 21.1875 48.484375 17.84375 46.4375 
Q 14.5 44.390625 14.5 40.28125 
Q 14.5 37.15625 16.890625 35.375 
Q 19.28125 33.59375 26.515625 31.984375 
L 29.59375 31.296875 
Q 39.15625 29.25 43.1875 25.515625 
Q 47.21875 21.78125 47.21875 15.09375 
Q 47.21875 7.46875 41.1875 3.015625 
Q 35.15625 -1.421875 24.609375 -1.421875 
Q 20.21875 -1.421875 15.453125 -0.5625 
Q 10.6875 0.296875 5.421875 2 
L 5.421875 11.28125 
Q 10.40625 8.6875 15.234375 7.390625 
Q 20.0625 6.109375 24.8125 6.109375 
Q 31.15625 6.109375 34.5625 8.28125 
Q 37.984375 10.453125 37.984375 14.40625 
Q 37.984375 18.0625 35.515625 20.015625 
Q 33.0625 21.96875 24.703125 23.78125 
L 21.578125 24.515625 
Q 13.234375 26.265625 9.515625 29.90625 
Q 5.8125 33.546875 5.8125 39.890625 
Q 5.8125 47.609375 11.28125 51.796875 
Q 16.75 56 26.8125 56 
Q 31.78125 56 36.171875 55.265625 
Q 40.578125 54.546875 44.28125 53.078125 
z
" id="DejaVuSans-115"/>
     <path d="M 31 75.875 
Q 24.46875 64.65625 21.28125 53.65625 
Q 18.109375 42.671875 18.109375 31.390625 
Q 18.109375 20.125 21.3125 9.0625 
Q 24.515625 -2 31 -13.1875 
L 23.1875 -13.1875 
Q 15.875 -1.703125 12.234375 9.375 
Q 8.59375 20.453125 8.59375 31.390625 
Q 8.59375 42.28125 12.203125 53.3125 
Q 15.828125 64.359375 23.1875 75.875 
z
" id="DejaVuSans-40"/>
     <path d="M 52 44.1875 
Q 55.375 50.25 60.0625 53.125 
Q 64.75 56 71.09375 56 
Q 79.640625 56 84.28125 50.015625 
Q 88.921875 44.046875 88.921875 33.015625 
L 88.921875 0 
L 79.890625 0 
L 79.890625 32.71875 
Q 79.890625 40.578125 77.09375 44.375 
Q 74.3125 48.1875 68.609375 48.1875 
Q 61.625 48.1875 57.5625 43.546875 
Q 53.515625 38.921875 53.515625 30.90625 
L 53.515625 0 
L 44.484375 0 
L 44.484375 32.71875 
Q 44.484375 40.625 41.703125 44.40625 
Q 38.921875 48.1875 33.109375 48.1875 
Q 26.21875 48.1875 22.15625 43.53125 
Q 18.109375 38.875 18.109375 30.90625 
L 18.109375 0 
L 9.078125 0 
L 9.078125 54.6875 
L 18.109375 54.6875 
L 18.109375 46.1875 
Q 21.1875 51.21875 25.484375 53.609375 
Q 29.78125 56 35.6875 56 
Q 41.65625 56 45.828125 52.96875 
Q 50 49.953125 52 44.1875 
z
" id="DejaVuSans-109"/>
     <path d="M 54.890625 33.015625 
L 54.890625 0 
L 45.90625 0 
L 45.90625 32.71875 
Q 45.90625 40.484375 42.875 44.328125 
Q 39.84375 48.1875 33.796875 48.1875 
Q 26.515625 48.1875 22.3125 43.546875 
Q 18.109375 38.921875 18.109375 30.90625 
L 18.109375 0 
L 9.078125 0 
L 9.078125 75.984375 
L 18.109375 75.984375 
L 18.109375 46.1875 
Q 21.34375 51.125 25.703125 53.5625 
Q 30.078125 56 35.796875 56 
Q 45.21875 56 50.046875 50.171875 
Q 54.890625 44.34375 54.890625 33.015625 
z
" id="DejaVuSans-104"/>
     <path d="M 11.71875 12.40625 
L 22.015625 12.40625 
L 22.015625 4 
L 14.015625 -11.625 
L 7.71875 -11.625 
L 11.71875 4 
z
" id="DejaVuSans-44"/>
     <path d="M 4.203125 54.6875 
L 13.1875 54.6875 
L 24.421875 12.015625 
L 35.59375 54.6875 
L 46.1875 54.6875 
L 57.421875 12.015625 
L 68.609375 54.6875 
L 77.59375 54.6875 
L 63.28125 0 
L 52.6875 0 
L 40.921875 44.828125 
L 29.109375 0 
L 18.5 0 
z
" id="DejaVuSans-119"/>
     <path d="M 9.078125 75.984375 
L 18.109375 75.984375 
L 18.109375 31.109375 
L 44.921875 54.6875 
L 56.390625 54.6875 
L 27.390625 29.109375 
L 57.625 0 
L 45.90625 0 
L 18.109375 26.703125 
L 18.109375 0 
L 9.078125 0 
z
" id="DejaVuSans-107"/>
     <path d="M 25.390625 72.90625 
L 33.6875 72.90625 
L 8.296875 -9.28125 
L 0 -9.28125 
z
" id="DejaVuSans-47"/>
     <path d="M 8.015625 75.875 
L 15.828125 75.875 
Q 23.140625 64.359375 26.78125 53.3125 
Q 30.421875 42.28125 30.421875 31.390625 
Q 30.421875 20.453125 26.78125 9.375 
Q 23.140625 -1.703125 15.828125 -13.1875 
L 8.015625 -13.1875 
Q 14.5 -2 17.703125 9.0625 
Q 20.90625 20.125 20.90625 31.390625 
Q 20.90625 42.671875 17.703125 53.65625 
Q 14.5 64.65625 8.015625 75.875 
z
" id="DejaVuSans-41"/>
    </defs>
    <g transform="translate(84.675938 45.84)scale(0.12 -0.12)">
     <use xlink:href="#DejaVuSans-67"/>
     <use x="69.824219" xlink:href="#DejaVuSans-97"/>
     <use x="131.103516" xlink:href="#DejaVuSans-108"/>
     <use x="158.886719" xlink:href="#DejaVuSans-101"/>
     <use x="220.410156" xlink:href="#DejaVuSans-110"/>
     <use x="283.789062" xlink:href="#DejaVuSans-100"/>
     <use x="347.265625" xlink:href="#DejaVuSans-97"/>
     <use x="408.544922" xlink:href="#DejaVuSans-114"/>
     <use x="449.564453" xlink:href="#DejaVuSans-45"/>
     <use x="485.648438" xlink:href="#DejaVuSans-116"/>
     <use x="524.857422" xlink:href="#DejaVuSans-111"/>
     <use x="586.054688" xlink:href="#DejaVuSans-45"/>
     <use x="622.138672" xlink:href="#DejaVuSans-99"/>
     <use x="677.119141" xlink:href="#DejaVuSans-121"/>
     <use x="736.298828" xlink:href="#DejaVuSans-99"/>
     <use x="791.279297" xlink:href="#DejaVuSans-108"/>
     <use x="819.0625" xlink:href="#DejaVuSans-105"/>
     <use x="846.845703" xlink:href="#DejaVuSans-99"/>
     <use x="901.826172" xlink:href="#DejaVuSans-97"/>
     <use x="963.105469" xlink:href="#DejaVuSans-108"/>
     <use x="990.888672" xlink:href="#DejaVuSans-32"/>
     <use x="1022.675781" xlink:href="#DejaVuSans-102"/>
     <use x="1057.880859" xlink:href="#DejaVuSans-101"/>
     <use x="1119.404297" xlink:href="#DejaVuSans-97"/>
     <use x="1180.683594" xlink:href="#DejaVuSans-116"/>
     <use x="1219.892578" xlink:href="#DejaVuSans-117"/>
     <use x="1283.271484" xlink:href="#DejaVuSans-114"/>
     <use x="1324.353516" xlink:href="#DejaVuSans-101"/>
     <use x="1385.876953" xlink:href="#DejaVuSans-115"/>
     <use x="1437.976562" xlink:href="#DejaVuSans-32"/>
     <use x="1469.763672" xlink:href="#DejaVuSans-40"/>
     <use x="1508.777344" xlink:href="#DejaVuSans-109"/>
     <use x="1606.189453" xlink:href="#DejaVuSans-111"/>
     <use x="1667.371094" xlink:href="#DejaVuSans-110"/>
     <use x="1730.75" xlink:href="#DejaVuSans-116"/>
     <use x="1769.958984" xlink:href="#DejaVuSans-104"/>
     <use x="1833.337891" xlink:href="#DejaVuSans-44"/>
     <use x="1865.125" xlink:href="#DejaVuSans-32"/>
     <use x="1896.912109" xlink:href="#DejaVuSans-100"/>
     <use x="1960.388672" xlink:href="#DejaVuSans-97"/>
     <use x="2021.667969" xlink:href="#DejaVuSans-121"/>
     <use x="2080.847656" xlink:href="#DejaVuSans-32"/>
     <use x="2112.634766" xlink:href="#DejaVuSans-111"/>
     <use x="2173.816406" xlink:href="#DejaVuSans-102"/>
     <use x="2209.021484" xlink:href="#DejaVuSans-32"/>
     <use x="2240.808594" xlink:href="#DejaVuSans-119"/>
     <use x="2322.595703" xlink:href="#DejaVuSans-101"/>
     <use x="2384.119141" xlink:href="#DejaVuSans-101"/>
     <use x="2445.642578" xlink:href="#DejaVuSans-107"/>
     <use x="2503.552734" xlink:href="#DejaVuSans-47"/>
     <use x="2537.244141" xlink:href="#DejaVuSans-121"/>
     <use x="2596.423828" xlink:href="#DejaVuSans-101"/>
     <use x="2657.947266" xlink:href="#DejaVuSans-97"/>
     <use x="2719.226562" xlink:href="#DejaVuSans-114"/>
     <use x="2760.339844" xlink:href="#DejaVuSans-44"/>
     <use x="2792.126953" xlink:href="#DejaVuSans-32"/>
     <use x="2823.914062" xlink:href="#DejaVuSans-119"/>
     <use x="2905.701172" xlink:href="#DejaVuSans-101"/>
     <use x="2967.224609" xlink:href="#DejaVuSans-101"/>
     <use x="3028.748047" xlink:href="#DejaVuSans-107"/>
     <use x="3086.658203" xlink:href="#DejaVuSans-32"/>
     <use x="3118.445312" xlink:href="#DejaVuSans-111"/>
     <use x="3179.626953" xlink:href="#DejaVuSans-102"/>
     <use x="3214.832031" xlink:href="#DejaVuSans-32"/>
     <use x="3246.619141" xlink:href="#DejaVuSans-121"/>
     <use x="3305.798828" xlink:href="#DejaVuSans-101"/>
     <use x="3367.322266" xlink:href="#DejaVuSans-97"/>
     <use x="3428.601562" xlink:href="#DejaVuSans-114"/>
     <use x="3469.714844" xlink:href="#DejaVuSans-41"/>
    </g>
   </g>
   <g id="legend_1">
    <g id="patch_7">
     <path d="M 79 373 
L 195.776563 373 
Q 197.776563 373 197.776563 371 
L 197.776563 254.575 
Q 197.776563 252.575 195.776563 252.575 
L 79 252.575 
Q 77 252.575 77 254.575 
L 77 371 
Q 77 373 79 373 
z
" style="fill:#ffffff;opacity:0.8;stroke:#cccccc;stroke-linejoin:miter;"/>
    </g>
    <g id="line2d_41">
     <path d="M 81 260.673438 
L 101 260.673438 
" style="fill:none;stroke:#1f77b4;stroke-linecap:square;stroke-width:1.5;"/>
    </g>
    <g id="line2d_42"/>
    <g id="text_20">
     <!-- cos(dayOfWeek) -->
     <defs>
      <path d="M 39.40625 66.21875 
Q 28.65625 66.21875 22.328125 58.203125 
Q 16.015625 50.203125 16.015625 36.375 
Q 16.015625 22.609375 22.328125 14.59375 
Q 28.65625 6.59375 39.40625 6.59375 
Q 50.140625 6.59375 56.421875 14.59375 
Q 62.703125 22.609375 62.703125 36.375 
Q 62.703125 50.203125 56.421875 58.203125 
Q 50.140625 66.21875 39.40625 66.21875 
z
M 39.40625 74.21875 
Q 54.734375 74.21875 63.90625 63.9375 
Q 73.09375 53.65625 73.09375 36.375 
Q 73.09375 19.140625 63.90625 8.859375 
Q 54.734375 -1.421875 39.40625 -1.421875 
Q 24.03125 -1.421875 14.8125 8.828125 
Q 5.609375 19.09375 5.609375 36.375 
Q 5.609375 53.65625 14.8125 63.9375 
Q 24.03125 74.21875 39.40625 74.21875 
z
" id="DejaVuSans-79"/>
      <path d="M 3.328125 72.90625 
L 13.28125 72.90625 
L 28.609375 11.28125 
L 43.890625 72.90625 
L 54.984375 72.90625 
L 70.3125 11.28125 
L 85.59375 72.90625 
L 95.609375 72.90625 
L 77.296875 0 
L 64.890625 0 
L 49.515625 63.28125 
L 33.984375 0 
L 21.578125 0 
z
" id="DejaVuSans-87"/>
     </defs>
     <g transform="translate(109 264.173438)scale(0.1 -0.1)">
      <use xlink:href="#DejaVuSans-99"/>
      <use x="54.980469" xlink:href="#DejaVuSans-111"/>
      <use x="116.162109" xlink:href="#DejaVuSans-115"/>
      <use x="168.261719" xlink:href="#DejaVuSans-40"/>
      <use x="207.275391" xlink:href="#DejaVuSans-100"/>
      <use x="270.751953" xlink:href="#DejaVuSans-97"/>
      <use x="332.03125" xlink:href="#DejaVuSans-121"/>
      <use x="391.210938" xlink:href="#DejaVuSans-79"/>
      <use x="469.921875" xlink:href="#DejaVuSans-102"/>
      <use x="505.126953" xlink:href="#DejaVuSans-87"/>
      <use x="603.925781" xlink:href="#DejaVuSans-101"/>
      <use x="665.449219" xlink:href="#DejaVuSans-101"/>
      <use x="726.972656" xlink:href="#DejaVuSans-107"/>
      <use x="784.882812" xlink:href="#DejaVuSans-41"/>
     </g>
    </g>
    <g id="line2d_43">
     <path d="M 81 275.351563 
L 101 275.351563 
" style="fill:none;stroke:#ff7f0e;stroke-linecap:square;stroke-width:1.5;"/>
    </g>
    <g id="line2d_44"/>
    <g id="text_21">
     <!-- sin(dayOfWeek) -->
     <g transform="translate(109 278.851563)scale(0.1 -0.1)">
      <use xlink:href="#DejaVuSans-115"/>
      <use x="52.099609" xlink:href="#DejaVuSans-105"/>
      <use x="79.882812" xlink:href="#DejaVuSans-110"/>
      <use x="143.261719" xlink:href="#DejaVuSans-40"/>
      <use x="182.275391" xlink:href="#DejaVuSans-100"/>
      <use x="245.751953" xlink:href="#DejaVuSans-97"/>
      <use x="307.03125" xlink:href="#DejaVuSans-121"/>
      <use x="366.210938" xlink:href="#DejaVuSans-79"/>
      <use x="444.921875" xlink:href="#DejaVuSans-102"/>
      <use x="480.126953" xlink:href="#DejaVuSans-87"/>
      <use x="578.925781" xlink:href="#DejaVuSans-101"/>
      <use x="640.449219" xlink:href="#DejaVuSans-101"/>
      <use x="701.972656" xlink:href="#DejaVuSans-107"/>
      <use x="759.882812" xlink:href="#DejaVuSans-41"/>
     </g>
    </g>
    <g id="line2d_45">
     <path d="M 81 290.029688 
L 101 290.029688 
" style="fill:none;stroke:#2ca02c;stroke-linecap:square;stroke-width:1.5;"/>
    </g>
    <g id="line2d_46"/>
    <g id="text_22">
     <!-- cos(month) -->
     <g transform="translate(109 293.529688)scale(0.1 -0.1)">
      <use xlink:href="#DejaVuSans-99"/>
      <use x="54.980469" xlink:href="#DejaVuSans-111"/>
      <use x="116.162109" xlink:href="#DejaVuSans-115"/>
      <use x="168.261719" xlink:href="#DejaVuSans-40"/>
      <use x="207.275391" xlink:href="#DejaVuSans-109"/>
      <use x="304.6875" xlink:href="#DejaVuSans-111"/>
      <use x="365.869141" xlink:href="#DejaVuSans-110"/>
      <use x="429.248047" xlink:href="#DejaVuSans-116"/>
      <use x="468.457031" xlink:href="#DejaVuSans-104"/>
      <use x="531.835938" xlink:href="#DejaVuSans-41"/>
     </g>
    </g>
    <g id="line2d_47">
     <path d="M 81 304.707813 
L 101 304.707813 
" style="fill:none;stroke:#d62728;stroke-linecap:square;stroke-width:1.5;"/>
    </g>
    <g id="line2d_48"/>
    <g id="text_23">
     <!-- sin(month) -->
     <g transform="translate(109 308.207813)scale(0.1 -0.1)">
      <use xlink:href="#DejaVuSans-115"/>
      <use x="52.099609" xlink:href="#DejaVuSans-105"/>
      <use x="79.882812" xlink:href="#DejaVuSans-110"/>
      <use x="143.261719" xlink:href="#DejaVuSans-40"/>
      <use x="182.275391" xlink:href="#DejaVuSans-109"/>
      <use x="279.6875" xlink:href="#DejaVuSans-111"/>
      <use x="340.869141" xlink:href="#DejaVuSans-110"/>
      <use x="404.248047" xlink:href="#DejaVuSans-116"/>
      <use x="443.457031" xlink:href="#DejaVuSans-104"/>
      <use x="506.835938" xlink:href="#DejaVuSans-41"/>
     </g>
    </g>
    <g id="line2d_49">
     <path d="M 81 319.385938 
L 101 319.385938 
" style="fill:none;stroke:#9467bd;stroke-linecap:square;stroke-width:1.5;"/>
    </g>
    <g id="line2d_50"/>
    <g id="text_24">
     <!-- cos(dayOfYear) -->
     <defs>
      <path d="M -0.203125 72.90625 
L 10.40625 72.90625 
L 30.609375 42.921875 
L 50.6875 72.90625 
L 61.28125 72.90625 
L 35.5 34.71875 
L 35.5 0 
L 25.59375 0 
L 25.59375 34.71875 
z
" id="DejaVuSans-89"/>
     </defs>
     <g transform="translate(109 322.885938)scale(0.1 -0.1)">
      <use xlink:href="#DejaVuSans-99"/>
      <use x="54.980469" xlink:href="#DejaVuSans-111"/>
      <use x="116.162109" xlink:href="#DejaVuSans-115"/>
      <use x="168.261719" xlink:href="#DejaVuSans-40"/>
      <use x="207.275391" xlink:href="#DejaVuSans-100"/>
      <use x="270.751953" xlink:href="#DejaVuSans-97"/>
      <use x="332.03125" xlink:href="#DejaVuSans-121"/>
      <use x="391.210938" xlink:href="#DejaVuSans-79"/>
      <use x="469.921875" xlink:href="#DejaVuSans-102"/>
      <use x="505.126953" xlink:href="#DejaVuSans-89"/>
      <use x="566.007812" xlink:href="#DejaVuSans-101"/>
      <use x="627.53125" xlink:href="#DejaVuSans-97"/>
      <use x="688.810547" xlink:href="#DejaVuSans-114"/>
      <use x="729.923828" xlink:href="#DejaVuSans-41"/>
     </g>
    </g>
    <g id="line2d_51">
     <path d="M 81 334.064063 
L 101 334.064063 
" style="fill:none;stroke:#8c564b;stroke-linecap:square;stroke-width:1.5;"/>
    </g>
    <g id="line2d_52"/>
    <g id="text_25">
     <!-- sin(dayOfYear) -->
     <g transform="translate(109 337.564063)scale(0.1 -0.1)">
      <use xlink:href="#DejaVuSans-115"/>
      <use x="52.099609" xlink:href="#DejaVuSans-105"/>
      <use x="79.882812" xlink:href="#DejaVuSans-110"/>
      <use x="143.261719" xlink:href="#DejaVuSans-40"/>
      <use x="182.275391" xlink:href="#DejaVuSans-100"/>
      <use x="245.751953" xlink:href="#DejaVuSans-97"/>
      <use x="307.03125" xlink:href="#DejaVuSans-121"/>
      <use x="366.210938" xlink:href="#DejaVuSans-79"/>
      <use x="444.921875" xlink:href="#DejaVuSans-102"/>
      <use x="480.126953" xlink:href="#DejaVuSans-89"/>
      <use x="541.007812" xlink:href="#DejaVuSans-101"/>
      <use x="602.53125" xlink:href="#DejaVuSans-97"/>
      <use x="663.810547" xlink:href="#DejaVuSans-114"/>
      <use x="704.923828" xlink:href="#DejaVuSans-41"/>
     </g>
    </g>
    <g id="line2d_53">
     <path d="M 81 348.742188 
L 101 348.742188 
" style="fill:none;stroke:#e377c2;stroke-linecap:square;stroke-width:1.5;"/>
    </g>
    <g id="line2d_54"/>
    <g id="text_26">
     <!-- cos(weekOfYear) -->
     <g transform="translate(109 352.242188)scale(0.1 -0.1)">
      <use xlink:href="#DejaVuSans-99"/>
      <use x="54.980469" xlink:href="#DejaVuSans-111"/>
      <use x="116.162109" xlink:href="#DejaVuSans-115"/>
      <use x="168.261719" xlink:href="#DejaVuSans-40"/>
      <use x="207.275391" xlink:href="#DejaVuSans-119"/>
      <use x="289.0625" xlink:href="#DejaVuSans-101"/>
      <use x="350.585938" xlink:href="#DejaVuSans-101"/>
      <use x="412.109375" xlink:href="#DejaVuSans-107"/>
      <use x="470.019531" xlink:href="#DejaVuSans-79"/>
      <use x="548.730469" xlink:href="#DejaVuSans-102"/>
      <use x="583.935547" xlink:href="#DejaVuSans-89"/>
      <use x="644.816406" xlink:href="#DejaVuSans-101"/>
      <use x="706.339844" xlink:href="#DejaVuSans-97"/>
      <use x="767.619141" xlink:href="#DejaVuSans-114"/>
      <use x="808.732422" xlink:href="#DejaVuSans-41"/>
     </g>
    </g>
    <g id="line2d_55">
     <path d="M 81 363.420313 
L 101 363.420313 
" style="fill:none;stroke:#7f7f7f;stroke-linecap:square;stroke-width:1.5;"/>
    </g>
    <g id="line2d_56"/>
    <g id="text_27">
     <!-- sin(weekOfYear) -->
     <g transform="translate(109 366.920313)scale(0.1 -0.1)">
      <use xlink:href="#DejaVuSans-115"/>
      <use x="52.099609" xlink:href="#DejaVuSans-105"/>
      <use x="79.882812" xlink:href="#DejaVuSans-110"/>
      <use x="143.261719" xlink:href="#DejaVuSans-40"/>
      <use x="182.275391" xlink:href="#DejaVuSans-119"/>
      <use x="264.0625" xlink:href="#DejaVuSans-101"/>
      <use x="325.585938" xlink:href="#DejaVuSans-101"/>
      <use x="387.109375" xlink:href="#DejaVuSans-107"/>
      <use x="445.019531" xlink:href="#DejaVuSans-79"/>
      <use x="523.730469" xlink:href="#DejaVuSans-102"/>
      <use x="558.935547" xlink:href="#DejaVuSans-89"/>
      <use x="619.816406" xlink:href="#DejaVuSans-101"/>
      <use x="681.339844" xlink:href="#DejaVuSans-97"/>
      <use x="742.619141" xlink:href="#DejaVuSans-114"/>
      <use x="783.732422" xlink:href="#DejaVuSans-41"/>
     </g>
    </g>
   </g>
  </g>
 </g>
 <defs>
  <clipPath id="pee53354f0b">
   <rect height="326.16" width="446.4" x="72" y="51.84"/>
  </clipPath>
 </defs>
</svg>
