<?xml version="1.0" encoding="utf-8" standalone="no"?>
<!DOCTYPE svg PUBLIC "-//W3C//DTD SVG 1.1//EN"
  "http://www.w3.org/Graphics/SVG/1.1/DTD/svg11.dtd">
<!-- Created with matplotlib (https://matplotlib.org/) -->
<svg height="432pt" version="1.1" viewBox="0 0 576 432" width="576pt" xmlns="http://www.w3.org/2000/svg" xmlns:xlink="http://www.w3.org/1999/xlink">
 <defs>
  <style type="text/css">
*{stroke-linecap:butt;stroke-linejoin:round;white-space:pre;}
  </style>
 </defs>
 <g id="figure_1">
  <g id="patch_1">
   <path d="M 0 432 
L 576 432 
L 576 0 
L 0 0 
z
" style="fill:#ffffff;"/>
  </g>
  <g id="axes_1">
   <g id="patch_2">
    <path d="M 72 378 
L 518.4 378 
L 518.4 51.84 
L 72 51.84 
z
" style="fill:#eaeaf2;"/>
   </g>
   <g id="matplotlib.axis_1">
    <g id="xtick_1">
     <g id="line2d_1">
      <path clip-path="url(#p87a7fc5102)" d="M 132.872727 378 
L 132.872727 51.84 
" style="fill:none;stroke:#ffffff;stroke-linecap:round;"/>
     </g>
     <g id="text_1">
      <!-- First -->
      <defs>
       <path d="M 8.203125 0 
L 8.203125 71.578125 
L 56.5 71.578125 
L 56.5 63.140625 
L 17.671875 63.140625 
L 17.671875 40.96875 
L 51.265625 40.96875 
L 51.265625 32.515625 
L 17.671875 32.515625 
L 17.671875 0 
z
" id="ArialMT-70"/>
       <path d="M 6.640625 61.46875 
L 6.640625 71.578125 
L 15.4375 71.578125 
L 15.4375 61.46875 
z
M 6.640625 0 
L 6.640625 51.859375 
L 15.4375 51.859375 
L 15.4375 0 
z
" id="ArialMT-105"/>
       <path d="M 6.5 0 
L 6.5 51.859375 
L 14.40625 51.859375 
L 14.40625 44 
Q 17.4375 49.515625 20 51.265625 
Q 22.5625 53.03125 25.640625 53.03125 
Q 30.078125 53.03125 34.671875 50.203125 
L 31.640625 42.046875 
Q 28.421875 43.953125 25.203125 43.953125 
Q 22.3125 43.953125 20.015625 42.21875 
Q 17.71875 40.484375 16.75 37.40625 
Q 15.28125 32.71875 15.28125 27.15625 
L 15.28125 0 
z
" id="ArialMT-114"/>
       <path d="M 3.078125 15.484375 
L 11.765625 16.84375 
Q 12.5 11.625 15.84375 8.84375 
Q 19.1875 6.0625 25.203125 6.0625 
Q 31.25 6.0625 34.171875 8.515625 
Q 37.109375 10.984375 37.109375 14.3125 
Q 37.109375 17.28125 34.515625 19 
Q 32.71875 20.171875 25.53125 21.96875 
Q 15.875 24.421875 12.140625 26.203125 
Q 8.40625 27.984375 6.46875 31.125 
Q 4.546875 34.28125 4.546875 38.09375 
Q 4.546875 41.546875 6.125 44.5 
Q 7.71875 47.46875 10.453125 49.421875 
Q 12.5 50.921875 16.03125 51.96875 
Q 19.578125 53.03125 23.640625 53.03125 
Q 29.734375 53.03125 34.34375 51.265625 
Q 38.96875 49.515625 41.15625 46.5 
Q 43.359375 43.5 44.1875 38.484375 
L 35.59375 37.3125 
Q 35.015625 41.3125 32.203125 43.546875 
Q 29.390625 45.796875 24.265625 45.796875 
Q 18.21875 45.796875 15.625 43.796875 
Q 13.03125 41.796875 13.03125 39.109375 
Q 13.03125 37.40625 14.109375 36.03125 
Q 15.1875 34.625 17.484375 33.6875 
Q 18.796875 33.203125 25.25 31.453125 
Q 34.578125 28.953125 38.25 27.359375 
Q 41.9375 25.78125 44.03125 22.75 
Q 46.140625 19.734375 46.140625 15.234375 
Q 46.140625 10.84375 43.578125 6.953125 
Q 41.015625 3.078125 36.171875 0.953125 
Q 31.34375 -1.171875 25.25 -1.171875 
Q 15.140625 -1.171875 9.84375 3.03125 
Q 4.546875 7.234375 3.078125 15.484375 
z
" id="ArialMT-115"/>
       <path d="M 25.78125 7.859375 
L 27.046875 0.09375 
Q 23.34375 -0.6875 20.40625 -0.6875 
Q 15.625 -0.6875 12.984375 0.828125 
Q 10.359375 2.34375 9.28125 4.8125 
Q 8.203125 7.28125 8.203125 15.1875 
L 8.203125 45.015625 
L 1.765625 45.015625 
L 1.765625 51.859375 
L 8.203125 51.859375 
L 8.203125 64.703125 
L 16.9375 69.96875 
L 16.9375 51.859375 
L 25.78125 51.859375 
L 25.78125 45.015625 
L 16.9375 45.015625 
L 16.9375 14.703125 
Q 16.9375 10.9375 17.40625 9.859375 
Q 17.875 8.796875 18.921875 8.15625 
Q 19.96875 7.515625 21.921875 7.515625 
Q 23.390625 7.515625 25.78125 7.859375 
z
" id="ArialMT-116"/>
      </defs>
      <g style="fill:#262626;" transform="translate(111.491477 403.247187)scale(0.22 -0.22)">
       <use xlink:href="#ArialMT-70"/>
       <use x="61.083984" xlink:href="#ArialMT-105"/>
       <use x="83.300781" xlink:href="#ArialMT-114"/>
       <use x="116.601562" xlink:href="#ArialMT-115"/>
       <use x="166.601562" xlink:href="#ArialMT-116"/>
      </g>
     </g>
    </g>
    <g id="xtick_2">
     <g id="line2d_2">
      <path clip-path="url(#p87a7fc5102)" d="M 295.2 378 
L 295.2 51.84 
" style="fill:none;stroke:#ffffff;stroke-linecap:round;"/>
     </g>
     <g id="text_2">
      <!-- Second -->
      <defs>
       <path d="M 4.5 23 
L 13.421875 23.78125 
Q 14.0625 18.40625 16.375 14.96875 
Q 18.703125 11.53125 23.578125 9.40625 
Q 28.46875 7.28125 34.578125 7.28125 
Q 39.984375 7.28125 44.140625 8.890625 
Q 48.296875 10.5 50.3125 13.296875 
Q 52.34375 16.109375 52.34375 19.4375 
Q 52.34375 22.796875 50.390625 25.3125 
Q 48.4375 27.828125 43.953125 29.546875 
Q 41.0625 30.671875 31.203125 33.03125 
Q 21.34375 35.40625 17.390625 37.5 
Q 12.25 40.1875 9.734375 44.15625 
Q 7.234375 48.140625 7.234375 53.078125 
Q 7.234375 58.5 10.296875 63.203125 
Q 13.375 67.921875 19.28125 70.359375 
Q 25.203125 72.796875 32.421875 72.796875 
Q 40.375 72.796875 46.453125 70.234375 
Q 52.546875 67.671875 55.8125 62.6875 
Q 59.078125 57.71875 59.328125 51.421875 
L 50.25 50.734375 
Q 49.515625 57.515625 45.28125 60.984375 
Q 41.0625 64.453125 32.8125 64.453125 
Q 24.21875 64.453125 20.28125 61.296875 
Q 16.359375 58.15625 16.359375 53.71875 
Q 16.359375 49.859375 19.140625 47.359375 
Q 21.875 44.875 33.421875 42.265625 
Q 44.96875 39.65625 49.265625 37.703125 
Q 55.515625 34.8125 58.484375 30.390625 
Q 61.46875 25.984375 61.46875 20.21875 
Q 61.46875 14.5 58.203125 9.4375 
Q 54.9375 4.390625 48.796875 1.578125 
Q 42.671875 -1.21875 35.015625 -1.21875 
Q 25.296875 -1.21875 18.71875 1.609375 
Q 12.15625 4.4375 8.421875 10.125 
Q 4.6875 15.828125 4.5 23 
z
" id="ArialMT-83"/>
       <path d="M 42.09375 16.703125 
L 51.171875 15.578125 
Q 49.03125 7.625 43.21875 3.21875 
Q 37.40625 -1.171875 28.375 -1.171875 
Q 17 -1.171875 10.328125 5.828125 
Q 3.65625 12.84375 3.65625 25.484375 
Q 3.65625 38.578125 10.390625 45.796875 
Q 17.140625 53.03125 27.875 53.03125 
Q 38.28125 53.03125 44.875 45.953125 
Q 51.46875 38.875 51.46875 26.03125 
Q 51.46875 25.25 51.421875 23.6875 
L 12.75 23.6875 
Q 13.234375 15.140625 17.578125 10.59375 
Q 21.921875 6.0625 28.421875 6.0625 
Q 33.25 6.0625 36.671875 8.59375 
Q 40.09375 11.140625 42.09375 16.703125 
z
M 13.234375 30.90625 
L 42.1875 30.90625 
Q 41.609375 37.453125 38.875 40.71875 
Q 34.671875 45.796875 27.984375 45.796875 
Q 21.921875 45.796875 17.796875 41.75 
Q 13.671875 37.703125 13.234375 30.90625 
z
" id="ArialMT-101"/>
       <path d="M 40.4375 19 
L 49.078125 17.875 
Q 47.65625 8.9375 41.8125 3.875 
Q 35.984375 -1.171875 27.484375 -1.171875 
Q 16.84375 -1.171875 10.375 5.78125 
Q 3.90625 12.75 3.90625 25.734375 
Q 3.90625 34.125 6.6875 40.421875 
Q 9.46875 46.734375 15.15625 49.875 
Q 20.84375 53.03125 27.546875 53.03125 
Q 35.984375 53.03125 41.359375 48.75 
Q 46.734375 44.484375 48.25 36.625 
L 39.703125 35.296875 
Q 38.484375 40.53125 35.375 43.15625 
Q 32.28125 45.796875 27.875 45.796875 
Q 21.234375 45.796875 17.078125 41.03125 
Q 12.9375 36.28125 12.9375 25.984375 
Q 12.9375 15.53125 16.9375 10.796875 
Q 20.953125 6.0625 27.390625 6.0625 
Q 32.5625 6.0625 36.03125 9.234375 
Q 39.5 12.40625 40.4375 19 
z
" id="ArialMT-99"/>
       <path d="M 3.328125 25.921875 
Q 3.328125 40.328125 11.328125 47.265625 
Q 18.015625 53.03125 27.640625 53.03125 
Q 38.328125 53.03125 45.109375 46.015625 
Q 51.90625 39.015625 51.90625 26.65625 
Q 51.90625 16.65625 48.90625 10.90625 
Q 45.90625 5.171875 40.15625 2 
Q 34.421875 -1.171875 27.640625 -1.171875 
Q 16.75 -1.171875 10.03125 5.8125 
Q 3.328125 12.796875 3.328125 25.921875 
z
M 12.359375 25.921875 
Q 12.359375 15.96875 16.703125 11.015625 
Q 21.046875 6.0625 27.640625 6.0625 
Q 34.1875 6.0625 38.53125 11.03125 
Q 42.875 16.015625 42.875 26.21875 
Q 42.875 35.84375 38.5 40.796875 
Q 34.125 45.75 27.640625 45.75 
Q 21.046875 45.75 16.703125 40.8125 
Q 12.359375 35.890625 12.359375 25.921875 
z
" id="ArialMT-111"/>
       <path d="M 6.59375 0 
L 6.59375 51.859375 
L 14.5 51.859375 
L 14.5 44.484375 
Q 20.21875 53.03125 31 53.03125 
Q 35.6875 53.03125 39.625 51.34375 
Q 43.5625 49.65625 45.515625 46.921875 
Q 47.46875 44.1875 48.25 40.4375 
Q 48.734375 37.984375 48.734375 31.890625 
L 48.734375 0 
L 39.9375 0 
L 39.9375 31.546875 
Q 39.9375 36.921875 38.90625 39.578125 
Q 37.890625 42.234375 35.28125 43.8125 
Q 32.671875 45.40625 29.15625 45.40625 
Q 23.53125 45.40625 19.453125 41.84375 
Q 15.375 38.28125 15.375 28.328125 
L 15.375 0 
z
" id="ArialMT-110"/>
       <path d="M 40.234375 0 
L 40.234375 6.546875 
Q 35.296875 -1.171875 25.734375 -1.171875 
Q 19.53125 -1.171875 14.328125 2.25 
Q 9.125 5.671875 6.265625 11.796875 
Q 3.421875 17.921875 3.421875 25.875 
Q 3.421875 33.640625 6 39.96875 
Q 8.59375 46.296875 13.765625 49.65625 
Q 18.953125 53.03125 25.34375 53.03125 
Q 30.03125 53.03125 33.6875 51.046875 
Q 37.359375 49.078125 39.65625 45.90625 
L 39.65625 71.578125 
L 48.390625 71.578125 
L 48.390625 0 
z
M 12.453125 25.875 
Q 12.453125 15.921875 16.640625 10.984375 
Q 20.84375 6.0625 26.5625 6.0625 
Q 32.328125 6.0625 36.34375 10.765625 
Q 40.375 15.484375 40.375 25.140625 
Q 40.375 35.796875 36.265625 40.765625 
Q 32.171875 45.75 26.171875 45.75 
Q 20.3125 45.75 16.375 40.96875 
Q 12.453125 36.1875 12.453125 25.875 
z
" id="ArialMT-100"/>
      </defs>
      <g style="fill:#262626;" transform="translate(257.894531 403.247187)scale(0.22 -0.22)">
       <use xlink:href="#ArialMT-83"/>
       <use x="66.699219" xlink:href="#ArialMT-101"/>
       <use x="122.314453" xlink:href="#ArialMT-99"/>
       <use x="172.314453" xlink:href="#ArialMT-111"/>
       <use x="227.929688" xlink:href="#ArialMT-110"/>
       <use x="283.544922" xlink:href="#ArialMT-100"/>
      </g>
     </g>
    </g>
    <g id="xtick_3">
     <g id="line2d_3">
      <path clip-path="url(#p87a7fc5102)" d="M 457.527273 378 
L 457.527273 51.84 
" style="fill:none;stroke:#ffffff;stroke-linecap:round;"/>
     </g>
     <g id="text_3">
      <!-- Third -->
      <defs>
       <path d="M 25.921875 0 
L 25.921875 63.140625 
L 2.34375 63.140625 
L 2.34375 71.578125 
L 59.078125 71.578125 
L 59.078125 63.140625 
L 35.40625 63.140625 
L 35.40625 0 
z
" id="ArialMT-84"/>
       <path d="M 6.59375 0 
L 6.59375 71.578125 
L 15.375 71.578125 
L 15.375 45.90625 
Q 21.53125 53.03125 30.90625 53.03125 
Q 36.671875 53.03125 40.921875 50.75 
Q 45.171875 48.484375 47 44.484375 
Q 48.828125 40.484375 48.828125 32.859375 
L 48.828125 0 
L 40.046875 0 
L 40.046875 32.859375 
Q 40.046875 39.453125 37.1875 42.453125 
Q 34.328125 45.453125 29.109375 45.453125 
Q 25.203125 45.453125 21.75 43.421875 
Q 18.3125 41.40625 16.84375 37.9375 
Q 15.375 34.46875 15.375 28.375 
L 15.375 0 
z
" id="ArialMT-104"/>
      </defs>
      <g style="fill:#262626;" transform="translate(432.467898 403.247187)scale(0.22 -0.22)">
       <use xlink:href="#ArialMT-84"/>
       <use x="61.083984" xlink:href="#ArialMT-104"/>
       <use x="116.699219" xlink:href="#ArialMT-105"/>
       <use x="138.916016" xlink:href="#ArialMT-114"/>
       <use x="172.216797" xlink:href="#ArialMT-100"/>
      </g>
     </g>
    </g>
    <g id="text_4">
     <!-- RNN Layers -->
     <defs>
      <path d="M 7.859375 0 
L 7.859375 71.578125 
L 39.59375 71.578125 
Q 49.171875 71.578125 54.140625 69.640625 
Q 59.125 67.71875 62.109375 62.828125 
Q 65.09375 57.953125 65.09375 52.046875 
Q 65.09375 44.4375 60.15625 39.203125 
Q 55.21875 33.984375 44.921875 32.5625 
Q 48.6875 30.765625 50.640625 29 
Q 54.78125 25.203125 58.5 19.484375 
L 70.953125 0 
L 59.03125 0 
L 49.5625 14.890625 
Q 45.40625 21.34375 42.71875 24.75 
Q 40.046875 28.171875 37.921875 29.53125 
Q 35.796875 30.90625 33.59375 31.453125 
Q 31.984375 31.78125 28.328125 31.78125 
L 17.328125 31.78125 
L 17.328125 0 
z
M 17.328125 39.984375 
L 37.703125 39.984375 
Q 44.1875 39.984375 47.84375 41.328125 
Q 51.515625 42.671875 53.421875 45.625 
Q 55.328125 48.578125 55.328125 52.046875 
Q 55.328125 57.125 51.640625 60.390625 
Q 47.953125 63.671875 39.984375 63.671875 
L 17.328125 63.671875 
z
" id="ArialMT-82"/>
      <path d="M 7.625 0 
L 7.625 71.578125 
L 17.328125 71.578125 
L 54.9375 15.375 
L 54.9375 71.578125 
L 64.015625 71.578125 
L 64.015625 0 
L 54.296875 0 
L 16.703125 56.25 
L 16.703125 0 
z
" id="ArialMT-78"/>
      <path id="ArialMT-32"/>
      <path d="M 7.328125 0 
L 7.328125 71.578125 
L 16.796875 71.578125 
L 16.796875 8.453125 
L 52.046875 8.453125 
L 52.046875 0 
z
" id="ArialMT-76"/>
      <path d="M 40.4375 6.390625 
Q 35.546875 2.25 31.03125 0.53125 
Q 26.515625 -1.171875 21.34375 -1.171875 
Q 12.796875 -1.171875 8.203125 3 
Q 3.609375 7.171875 3.609375 13.671875 
Q 3.609375 17.484375 5.34375 20.625 
Q 7.078125 23.78125 9.890625 25.6875 
Q 12.703125 27.59375 16.21875 28.5625 
Q 18.796875 29.25 24.03125 29.890625 
Q 34.671875 31.15625 39.703125 32.90625 
Q 39.75 34.71875 39.75 35.203125 
Q 39.75 40.578125 37.25 42.78125 
Q 33.890625 45.75 27.25 45.75 
Q 21.046875 45.75 18.09375 43.578125 
Q 15.140625 41.40625 13.71875 35.890625 
L 5.125 37.0625 
Q 6.296875 42.578125 8.984375 45.96875 
Q 11.671875 49.359375 16.75 51.1875 
Q 21.828125 53.03125 28.515625 53.03125 
Q 35.15625 53.03125 39.296875 51.46875 
Q 43.453125 49.90625 45.40625 47.53125 
Q 47.359375 45.171875 48.140625 41.546875 
Q 48.578125 39.3125 48.578125 33.453125 
L 48.578125 21.734375 
Q 48.578125 9.46875 49.140625 6.21875 
Q 49.703125 2.984375 51.375 0 
L 42.1875 0 
Q 40.828125 2.734375 40.4375 6.390625 
z
M 39.703125 26.03125 
Q 34.90625 24.078125 25.34375 22.703125 
Q 19.921875 21.921875 17.671875 20.9375 
Q 15.4375 19.96875 14.203125 18.09375 
Q 12.984375 16.21875 12.984375 13.921875 
Q 12.984375 10.40625 15.640625 8.0625 
Q 18.3125 5.71875 23.4375 5.71875 
Q 28.515625 5.71875 32.46875 7.9375 
Q 36.421875 10.15625 38.28125 14.015625 
Q 39.703125 17 39.703125 22.796875 
z
" id="ArialMT-97"/>
      <path d="M 6.203125 -19.96875 
L 5.21875 -11.71875 
Q 8.109375 -12.5 10.25 -12.5 
Q 13.1875 -12.5 14.9375 -11.515625 
Q 16.703125 -10.546875 17.828125 -8.796875 
Q 18.65625 -7.46875 20.515625 -2.25 
Q 20.75 -1.515625 21.296875 -0.09375 
L 1.609375 51.859375 
L 11.078125 51.859375 
L 21.875 21.828125 
Q 23.96875 16.109375 25.640625 9.8125 
Q 27.15625 15.875 29.25 21.625 
L 40.328125 51.859375 
L 49.125 51.859375 
L 29.390625 -0.875 
Q 26.21875 -9.421875 24.46875 -12.640625 
Q 22.125 -17 19.09375 -19.015625 
Q 16.0625 -21.046875 11.859375 -21.046875 
Q 9.328125 -21.046875 6.203125 -19.96875 
z
" id="ArialMT-121"/>
     </defs>
     <g style="fill:#262626;" transform="translate(229.8525 428.798437)scale(0.24 -0.24)">
      <use xlink:href="#ArialMT-82"/>
      <use x="72.216797" xlink:href="#ArialMT-78"/>
      <use x="144.433594" xlink:href="#ArialMT-78"/>
      <use x="216.650391" xlink:href="#ArialMT-32"/>
      <use x="244.433594" xlink:href="#ArialMT-76"/>
      <use x="300.048828" xlink:href="#ArialMT-97"/>
      <use x="355.664062" xlink:href="#ArialMT-121"/>
      <use x="405.664062" xlink:href="#ArialMT-101"/>
      <use x="461.279297" xlink:href="#ArialMT-114"/>
      <use x="494.580078" xlink:href="#ArialMT-115"/>
     </g>
    </g>
   </g>
   <g id="matplotlib.axis_2">
    <g id="ytick_1">
     <g id="line2d_4">
      <path clip-path="url(#p87a7fc5102)" d="M 72 375.529091 
L 518.4 375.529091 
" style="fill:none;stroke:#ffffff;stroke-linecap:round;"/>
     </g>
     <g id="text_5">
      <!-- 0.00 -->
      <defs>
       <path d="M 4.15625 35.296875 
Q 4.15625 48 6.765625 55.734375 
Q 9.375 63.484375 14.515625 67.671875 
Q 19.671875 71.875 27.484375 71.875 
Q 33.25 71.875 37.59375 69.546875 
Q 41.9375 67.234375 44.765625 62.859375 
Q 47.609375 58.5 49.21875 52.21875 
Q 50.828125 45.953125 50.828125 35.296875 
Q 50.828125 22.703125 48.234375 14.96875 
Q 45.65625 7.234375 40.5 3 
Q 35.359375 -1.21875 27.484375 -1.21875 
Q 17.140625 -1.21875 11.234375 6.203125 
Q 4.15625 15.140625 4.15625 35.296875 
z
M 13.1875 35.296875 
Q 13.1875 17.671875 17.3125 11.828125 
Q 21.4375 6 27.484375 6 
Q 33.546875 6 37.671875 11.859375 
Q 41.796875 17.71875 41.796875 35.296875 
Q 41.796875 52.984375 37.671875 58.78125 
Q 33.546875 64.59375 27.390625 64.59375 
Q 21.34375 64.59375 17.71875 59.46875 
Q 13.1875 52.9375 13.1875 35.296875 
z
" id="ArialMT-48"/>
       <path d="M 9.078125 0 
L 9.078125 10.015625 
L 19.09375 10.015625 
L 19.09375 0 
z
" id="ArialMT-46"/>
      </defs>
      <g style="fill:#262626;" transform="translate(19.685938 383.402685)scale(0.22 -0.22)">
       <use xlink:href="#ArialMT-48"/>
       <use x="55.615234" xlink:href="#ArialMT-46"/>
       <use x="83.398438" xlink:href="#ArialMT-48"/>
       <use x="139.013672" xlink:href="#ArialMT-48"/>
      </g>
     </g>
    </g>
    <g id="ytick_2">
     <g id="line2d_5">
      <path clip-path="url(#p87a7fc5102)" d="M 72 313.756364 
L 518.4 313.756364 
" style="fill:none;stroke:#ffffff;stroke-linecap:round;"/>
     </g>
     <g id="text_6">
      <!-- 0.05 -->
      <defs>
       <path d="M 4.15625 18.75 
L 13.375 19.53125 
Q 14.40625 12.796875 18.140625 9.390625 
Q 21.875 6 27.15625 6 
Q 33.5 6 37.890625 10.78125 
Q 42.28125 15.578125 42.28125 23.484375 
Q 42.28125 31 38.0625 35.34375 
Q 33.84375 39.703125 27 39.703125 
Q 22.75 39.703125 19.328125 37.765625 
Q 15.921875 35.84375 13.96875 32.765625 
L 5.71875 33.84375 
L 12.640625 70.609375 
L 48.25 70.609375 
L 48.25 62.203125 
L 19.671875 62.203125 
L 15.828125 42.96875 
Q 22.265625 47.46875 29.34375 47.46875 
Q 38.71875 47.46875 45.15625 40.96875 
Q 51.609375 34.46875 51.609375 24.265625 
Q 51.609375 14.546875 45.953125 7.46875 
Q 39.0625 -1.21875 27.15625 -1.21875 
Q 17.390625 -1.21875 11.203125 4.25 
Q 5.03125 9.71875 4.15625 18.75 
z
" id="ArialMT-53"/>
      </defs>
      <g style="fill:#262626;" transform="translate(19.685938 321.629957)scale(0.22 -0.22)">
       <use xlink:href="#ArialMT-48"/>
       <use x="55.615234" xlink:href="#ArialMT-46"/>
       <use x="83.398438" xlink:href="#ArialMT-48"/>
       <use x="139.013672" xlink:href="#ArialMT-53"/>
      </g>
     </g>
    </g>
    <g id="ytick_3">
     <g id="line2d_6">
      <path clip-path="url(#p87a7fc5102)" d="M 72 251.983636 
L 518.4 251.983636 
" style="fill:none;stroke:#ffffff;stroke-linecap:round;"/>
     </g>
     <g id="text_7">
      <!-- 0.10 -->
      <defs>
       <path d="M 37.25 0 
L 28.46875 0 
L 28.46875 56 
Q 25.296875 52.984375 20.140625 49.953125 
Q 14.984375 46.921875 10.890625 45.40625 
L 10.890625 53.90625 
Q 18.265625 57.375 23.78125 62.296875 
Q 29.296875 67.234375 31.59375 71.875 
L 37.25 71.875 
z
" id="ArialMT-49"/>
      </defs>
      <g style="fill:#262626;" transform="translate(19.685938 259.85723)scale(0.22 -0.22)">
       <use xlink:href="#ArialMT-48"/>
       <use x="55.615234" xlink:href="#ArialMT-46"/>
       <use x="83.398438" xlink:href="#ArialMT-49"/>
       <use x="139.013672" xlink:href="#ArialMT-48"/>
      </g>
     </g>
    </g>
    <g id="ytick_4">
     <g id="line2d_7">
      <path clip-path="url(#p87a7fc5102)" d="M 72 190.210909 
L 518.4 190.210909 
" style="fill:none;stroke:#ffffff;stroke-linecap:round;"/>
     </g>
     <g id="text_8">
      <!-- 0.15 -->
      <g style="fill:#262626;" transform="translate(19.685938 198.084503)scale(0.22 -0.22)">
       <use xlink:href="#ArialMT-48"/>
       <use x="55.615234" xlink:href="#ArialMT-46"/>
       <use x="83.398438" xlink:href="#ArialMT-49"/>
       <use x="139.013672" xlink:href="#ArialMT-53"/>
      </g>
     </g>
    </g>
    <g id="ytick_5">
     <g id="line2d_8">
      <path clip-path="url(#p87a7fc5102)" d="M 72 128.438182 
L 518.4 128.438182 
" style="fill:none;stroke:#ffffff;stroke-linecap:round;"/>
     </g>
     <g id="text_9">
      <!-- 0.20 -->
      <defs>
       <path d="M 50.34375 8.453125 
L 50.34375 0 
L 3.03125 0 
Q 2.9375 3.171875 4.046875 6.109375 
Q 5.859375 10.9375 9.828125 15.625 
Q 13.8125 20.3125 21.34375 26.46875 
Q 33.015625 36.03125 37.109375 41.625 
Q 41.21875 47.21875 41.21875 52.203125 
Q 41.21875 57.421875 37.46875 61 
Q 33.734375 64.59375 27.734375 64.59375 
Q 21.390625 64.59375 17.578125 60.78125 
Q 13.765625 56.984375 13.71875 50.25 
L 4.6875 51.171875 
Q 5.609375 61.28125 11.65625 66.578125 
Q 17.71875 71.875 27.9375 71.875 
Q 38.234375 71.875 44.234375 66.15625 
Q 50.25 60.453125 50.25 52 
Q 50.25 47.703125 48.484375 43.546875 
Q 46.734375 39.40625 42.65625 34.8125 
Q 38.578125 30.21875 29.109375 22.21875 
Q 21.1875 15.578125 18.9375 13.203125 
Q 16.703125 10.84375 15.234375 8.453125 
z
" id="ArialMT-50"/>
      </defs>
      <g style="fill:#262626;" transform="translate(19.685938 136.311776)scale(0.22 -0.22)">
       <use xlink:href="#ArialMT-48"/>
       <use x="55.615234" xlink:href="#ArialMT-46"/>
       <use x="83.398438" xlink:href="#ArialMT-50"/>
       <use x="139.013672" xlink:href="#ArialMT-48"/>
      </g>
     </g>
    </g>
    <g id="ytick_6">
     <g id="line2d_9">
      <path clip-path="url(#p87a7fc5102)" d="M 72 66.665455 
L 518.4 66.665455 
" style="fill:none;stroke:#ffffff;stroke-linecap:round;"/>
     </g>
     <g id="text_10">
      <!-- 0.25 -->
      <g style="fill:#262626;" transform="translate(19.685938 74.539048)scale(0.22 -0.22)">
       <use xlink:href="#ArialMT-48"/>
       <use x="55.615234" xlink:href="#ArialMT-46"/>
       <use x="83.398438" xlink:href="#ArialMT-50"/>
       <use x="139.013672" xlink:href="#ArialMT-53"/>
      </g>
     </g>
    </g>
    <g id="text_11">
     <!-- Dropout ratio (%) -->
     <defs>
      <path d="M 7.71875 0 
L 7.71875 71.578125 
L 32.375 71.578125 
Q 40.71875 71.578125 45.125 70.5625 
Q 51.265625 69.140625 55.609375 65.4375 
Q 61.28125 60.640625 64.078125 53.1875 
Q 66.890625 45.75 66.890625 36.1875 
Q 66.890625 28.03125 64.984375 21.734375 
Q 63.09375 15.4375 60.109375 11.296875 
Q 57.125 7.171875 53.578125 4.796875 
Q 50.046875 2.4375 45.046875 1.21875 
Q 40.046875 0 33.546875 0 
z
M 17.1875 8.453125 
L 32.46875 8.453125 
Q 39.546875 8.453125 43.578125 9.765625 
Q 47.609375 11.078125 50 13.484375 
Q 53.375 16.84375 55.25 22.53125 
Q 57.125 28.21875 57.125 36.328125 
Q 57.125 47.5625 53.4375 53.59375 
Q 49.75 59.625 44.484375 61.671875 
Q 40.671875 63.140625 32.234375 63.140625 
L 17.1875 63.140625 
z
" id="ArialMT-68"/>
      <path d="M 6.59375 -19.875 
L 6.59375 51.859375 
L 14.59375 51.859375 
L 14.59375 45.125 
Q 17.4375 49.078125 21 51.046875 
Q 24.5625 53.03125 29.640625 53.03125 
Q 36.28125 53.03125 41.359375 49.609375 
Q 46.4375 46.1875 49.015625 39.953125 
Q 51.609375 33.734375 51.609375 26.3125 
Q 51.609375 18.359375 48.75 11.984375 
Q 45.90625 5.609375 40.453125 2.21875 
Q 35.015625 -1.171875 29 -1.171875 
Q 24.609375 -1.171875 21.109375 0.6875 
Q 17.625 2.546875 15.375 5.375 
L 15.375 -19.875 
z
M 14.546875 25.640625 
Q 14.546875 15.625 18.59375 10.84375 
Q 22.65625 6.0625 28.421875 6.0625 
Q 34.28125 6.0625 38.453125 11.015625 
Q 42.625 15.96875 42.625 26.375 
Q 42.625 36.28125 38.546875 41.203125 
Q 34.46875 46.140625 28.8125 46.140625 
Q 23.1875 46.140625 18.859375 40.890625 
Q 14.546875 35.640625 14.546875 25.640625 
z
" id="ArialMT-112"/>
      <path d="M 40.578125 0 
L 40.578125 7.625 
Q 34.515625 -1.171875 24.125 -1.171875 
Q 19.53125 -1.171875 15.546875 0.578125 
Q 11.578125 2.34375 9.640625 5 
Q 7.71875 7.671875 6.9375 11.53125 
Q 6.390625 14.109375 6.390625 19.734375 
L 6.390625 51.859375 
L 15.1875 51.859375 
L 15.1875 23.09375 
Q 15.1875 16.21875 15.71875 13.8125 
Q 16.546875 10.359375 19.234375 8.375 
Q 21.921875 6.390625 25.875 6.390625 
Q 29.828125 6.390625 33.296875 8.421875 
Q 36.765625 10.453125 38.203125 13.9375 
Q 39.65625 17.4375 39.65625 24.078125 
L 39.65625 51.859375 
L 48.4375 51.859375 
L 48.4375 0 
z
" id="ArialMT-117"/>
      <path d="M 23.390625 -21.046875 
Q 16.109375 -11.859375 11.078125 0.4375 
Q 6.0625 12.75 6.0625 25.921875 
Q 6.0625 37.546875 9.8125 48.1875 
Q 14.203125 60.546875 23.390625 72.796875 
L 29.6875 72.796875 
Q 23.78125 62.640625 21.875 58.296875 
Q 18.890625 51.5625 17.1875 44.234375 
Q 15.09375 35.109375 15.09375 25.875 
Q 15.09375 2.390625 29.6875 -21.046875 
z
" id="ArialMT-40"/>
      <path d="M 5.8125 54.390625 
Q 5.8125 62.0625 9.671875 67.421875 
Q 13.53125 72.796875 20.84375 72.796875 
Q 27.59375 72.796875 32 67.984375 
Q 36.421875 63.1875 36.421875 53.859375 
Q 36.421875 44.78125 31.953125 39.875 
Q 27.484375 34.96875 20.953125 34.96875 
Q 14.453125 34.96875 10.125 39.796875 
Q 5.8125 44.625 5.8125 54.390625 
z
M 21.09375 66.75 
Q 17.828125 66.75 15.65625 63.90625 
Q 13.484375 61.078125 13.484375 53.515625 
Q 13.484375 46.625 15.671875 43.8125 
Q 17.875 41.015625 21.09375 41.015625 
Q 24.421875 41.015625 26.59375 43.84375 
Q 28.765625 46.6875 28.765625 54.203125 
Q 28.765625 61.140625 26.5625 63.9375 
Q 24.359375 66.75 21.09375 66.75 
z
M 21.140625 -2.640625 
L 60.296875 72.796875 
L 67.4375 72.796875 
L 28.421875 -2.640625 
z
M 52.09375 16.796875 
Q 52.09375 24.515625 55.953125 29.859375 
Q 59.8125 35.203125 67.1875 35.203125 
Q 73.921875 35.203125 78.34375 30.390625 
Q 82.765625 25.59375 82.765625 16.265625 
Q 82.765625 7.171875 78.296875 2.265625 
Q 73.828125 -2.640625 67.234375 -2.640625 
Q 60.75 -2.640625 56.421875 2.21875 
Q 52.09375 7.078125 52.09375 16.796875 
z
M 67.4375 29.15625 
Q 64.109375 29.15625 61.9375 26.3125 
Q 59.765625 23.484375 59.765625 15.921875 
Q 59.765625 9.078125 61.953125 6.25 
Q 64.15625 3.421875 67.390625 3.421875 
Q 70.75 3.421875 72.921875 6.25 
Q 75.09375 9.078125 75.09375 16.609375 
Q 75.09375 23.53125 72.890625 26.34375 
Q 70.703125 29.15625 67.4375 29.15625 
z
" id="ArialMT-37"/>
      <path d="M 12.359375 -21.046875 
L 6.0625 -21.046875 
Q 20.65625 2.390625 20.65625 25.875 
Q 20.65625 35.0625 18.5625 44.09375 
Q 16.890625 51.421875 13.921875 58.15625 
Q 12.015625 62.546875 6.0625 72.796875 
L 12.359375 72.796875 
Q 21.53125 60.546875 25.921875 48.1875 
Q 29.6875 37.546875 29.6875 25.921875 
Q 29.6875 12.75 24.625 0.4375 
Q 19.578125 -11.859375 12.359375 -21.046875 
z
" id="ArialMT-41"/>
     </defs>
     <g style="fill:#262626;" transform="translate(10.634687 306.279375)rotate(-90)scale(0.24 -0.24)">
      <use xlink:href="#ArialMT-68"/>
      <use x="72.216797" xlink:href="#ArialMT-114"/>
      <use x="105.517578" xlink:href="#ArialMT-111"/>
      <use x="161.132812" xlink:href="#ArialMT-112"/>
      <use x="216.748047" xlink:href="#ArialMT-111"/>
      <use x="272.363281" xlink:href="#ArialMT-117"/>
      <use x="327.978516" xlink:href="#ArialMT-116"/>
      <use x="355.761719" xlink:href="#ArialMT-32"/>
      <use x="383.544922" xlink:href="#ArialMT-114"/>
      <use x="416.845703" xlink:href="#ArialMT-97"/>
      <use x="472.460938" xlink:href="#ArialMT-116"/>
      <use x="500.244141" xlink:href="#ArialMT-105"/>
      <use x="522.460938" xlink:href="#ArialMT-111"/>
      <use x="578.076172" xlink:href="#ArialMT-32"/>
      <use x="605.859375" xlink:href="#ArialMT-40"/>
      <use x="639.160156" xlink:href="#ArialMT-37"/>
      <use x="728.076172" xlink:href="#ArialMT-41"/>
     </g>
    </g>
   </g>
   <g id="PolyCollection_1">
    <defs>
     <path d="M 148.483285 -70.580299 
L 117.262169 -70.580299 
L 115.754127 -73.557614 
L 114.250649 -76.53493 
L 112.773695 -79.512245 
L 111.344957 -82.489561 
L 109.984783 -85.466877 
L 108.711044 -88.444192 
L 107.538014 -91.421508 
L 106.475351 -94.398824 
L 105.527276 -97.376139 
L 104.692026 -100.353455 
L 103.961687 -103.33077 
L 103.322444 -106.308086 
L 102.755306 -109.285402 
L 102.237275 -112.262717 
L 101.742951 -115.240033 
L 101.246444 -118.217349 
L 100.723503 -121.194664 
L 100.15368 -124.17198 
L 99.522358 -127.149295 
L 98.822465 -130.126611 
L 98.055691 -133.103927 
L 97.233076 -136.081242 
L 96.374869 -139.058558 
L 95.509623 -142.035874 
L 94.672557 -145.013189 
L 93.903282 -147.990505 
L 93.243056 -150.96782 
L 92.731777 -153.945136 
L 92.404952 -156.922452 
L 92.290909 -159.899767 
L 92.408474 -162.877083 
L 92.765317 -165.854399 
L 93.357116 -168.831714 
L 94.167586 -171.80903 
L 95.169386 -174.786345 
L 96.325804 -177.763661 
L 97.593062 -180.740977 
L 98.923063 -183.718292 
L 100.266318 -186.695608 
L 101.574854 -189.672924 
L 102.804864 -192.650239 
L 103.918923 -195.627555 
L 104.887654 -198.60487 
L 105.690754 -201.582186 
L 106.31737 -204.559502 
L 106.765863 -207.536817 
L 107.043026 -210.514133 
L 107.162877 -213.491449 
L 107.145136 -216.468764 
L 107.013532 -219.44608 
L 106.794048 -222.423395 
L 106.513236 -225.400711 
L 106.196678 -228.378027 
L 105.867695 -231.355342 
L 105.546338 -234.332658 
L 105.248707 -237.309974 
L 104.986608 -240.287289 
L 104.767552 -243.264605 
L 104.595048 -246.24192 
L 104.469166 -249.219236 
L 104.387303 -252.196552 
L 104.345064 -255.173867 
L 104.337195 -258.151183 
L 104.358476 -261.128499 
L 104.404483 -264.105814 
L 104.47218 -267.08313 
L 104.560267 -270.060445 
L 104.669282 -273.037761 
L 104.801459 -276.015077 
L 104.96037 -278.992392 
L 105.150408 -281.969708 
L 105.376195 -284.947024 
L 105.64197 -287.924339 
L 105.951051 -290.901655 
L 106.305429 -293.87897 
L 106.705534 -296.856286 
L 107.150193 -299.833602 
L 107.636779 -302.810917 
L 108.161519 -305.788233 
L 108.719905 -308.765549 
L 109.307171 -311.742864 
L 109.918753 -314.72018 
L 110.55069 -317.697495 
L 111.199925 -320.674811 
L 111.864467 -323.652127 
L 112.543419 -326.629442 
L 113.236871 -329.606758 
L 113.94568 -332.584074 
L 114.671183 -335.561389 
L 115.414854 -338.538705 
L 116.177967 -341.51602 
L 116.96128 -344.493336 
L 117.764773 -347.470652 
L 118.587457 -350.447967 
L 119.427257 -353.425283 
L 120.280983 -356.402599 
L 121.144364 -359.379914 
L 122.012168 -362.35723 
L 122.87836 -365.334545 
L 142.867095 -365.334545 
L 142.867095 -365.334545 
L 143.733287 -362.35723 
L 144.60109 -359.379914 
L 145.464472 -356.402599 
L 146.318197 -353.425283 
L 147.157998 -350.447967 
L 147.980681 -347.470652 
L 148.784174 -344.493336 
L 149.567487 -341.51602 
L 150.3306 -338.538705 
L 151.074271 -335.561389 
L 151.799774 -332.584074 
L 152.508584 -329.606758 
L 153.202035 -326.629442 
L 153.880987 -323.652127 
L 154.54553 -320.674811 
L 155.194765 -317.697495 
L 155.826702 -314.72018 
L 156.438284 -311.742864 
L 157.02555 -308.765549 
L 157.583936 -305.788233 
L 158.108675 -302.810917 
L 158.595262 -299.833602 
L 159.039921 -296.856286 
L 159.440025 -293.87897 
L 159.794404 -290.901655 
L 160.103485 -287.924339 
L 160.369259 -284.947024 
L 160.595046 -281.969708 
L 160.785085 -278.992392 
L 160.943995 -276.015077 
L 161.076172 -273.037761 
L 161.185188 -270.060445 
L 161.273274 -267.08313 
L 161.340971 -264.105814 
L 161.386979 -261.128499 
L 161.408259 -258.151183 
L 161.400391 -255.173867 
L 161.358151 -252.196552 
L 161.276288 -249.219236 
L 161.150407 -246.24192 
L 160.977902 -243.264605 
L 160.758846 -240.287289 
L 160.496748 -237.309974 
L 160.199116 -234.332658 
L 159.87776 -231.355342 
L 159.548777 -228.378027 
L 159.232219 -225.400711 
L 158.951406 -222.423395 
L 158.731922 -219.44608 
L 158.600318 -216.468764 
L 158.582578 -213.491449 
L 158.702428 -210.514133 
L 158.979591 -207.536817 
L 159.428084 -204.559502 
L 160.054701 -201.582186 
L 160.857801 -198.60487 
L 161.826532 -195.627555 
L 162.940591 -192.650239 
L 164.1706 -189.672924 
L 165.479137 -186.695608 
L 166.822392 -183.718292 
L 168.152392 -180.740977 
L 169.419651 -177.763661 
L 170.576068 -174.786345 
L 171.577869 -171.80903 
L 172.388339 -168.831714 
L 172.980137 -165.854399 
L 173.336981 -162.877083 
L 173.454545 -159.899767 
L 173.340503 -156.922452 
L 173.013678 -153.945136 
L 172.502398 -150.96782 
L 171.842173 -147.990505 
L 171.072898 -145.013189 
L 170.235831 -142.035874 
L 169.370585 -139.058558 
L 168.512379 -136.081242 
L 167.689764 -133.103927 
L 166.92299 -130.126611 
L 166.223097 -127.149295 
L 165.591775 -124.17198 
L 165.021951 -121.194664 
L 164.49901 -118.217349 
L 164.002503 -115.240033 
L 163.508179 -112.262717 
L 162.990149 -109.285402 
L 162.42301 -106.308086 
L 161.783768 -103.33077 
L 161.053429 -100.353455 
L 160.218179 -97.376139 
L 159.270103 -94.398824 
L 158.207441 -91.421508 
L 157.034411 -88.444192 
L 155.760671 -85.466877 
L 154.400498 -82.489561 
L 152.97176 -79.512245 
L 151.494806 -76.53493 
L 149.991328 -73.557614 
L 148.483285 -70.580299 
z
" id="me7251ea5d4" style="stroke:#ffffff;stroke-opacity:0.3;"/>
    </defs>
    <g clip-path="url(#p87a7fc5102)">
     <use style="fill:#4c72b0;fill-opacity:0.3;stroke:#ffffff;stroke-opacity:0.3;" x="0" xlink:href="#me7251ea5d4" y="432"/>
    </g>
   </g>
   <g id="PolyCollection_2">
    <defs>
     <path d="M 315.469569 -68.825455 
L 274.930431 -68.825455 
L 273.645112 -71.820496 
L 272.443755 -74.815537 
L 271.335646 -77.810579 
L 270.325224 -80.80562 
L 269.411885 -83.800661 
L 268.590136 -86.795702 
L 267.85007 -89.790744 
L 267.178158 -92.785785 
L 266.558278 -95.780826 
L 265.972925 -98.775868 
L 265.404493 -101.770909 
L 264.836542 -104.76595 
L 264.254951 -107.760992 
L 263.648871 -110.756033 
L 263.01142 -113.751074 
L 262.340059 -116.746116 
L 261.636659 -119.741157 
L 260.907241 -122.736198 
L 260.161444 -125.73124 
L 259.411761 -128.726281 
L 258.672626 -131.721322 
L 257.959409 -134.716364 
L 257.287415 -137.711405 
L 256.670946 -140.706446 
L 256.122497 -143.701488 
L 255.652124 -146.696529 
L 255.267024 -149.69157 
L 254.971336 -152.686612 
L 254.766167 -155.681653 
L 254.649818 -158.676694 
L 254.618182 -161.671736 
L 254.66528 -164.666777 
L 254.783877 -167.661818 
L 254.966132 -170.65686 
L 255.204232 -173.651901 
L 255.490948 -176.646942 
L 255.82009 -179.641983 
L 256.186811 -182.637025 
L 256.587741 -185.632066 
L 257.020953 -188.627107 
L 257.485761 -191.622149 
L 257.982381 -194.61719 
L 258.511477 -197.612231 
L 259.07366 -200.607273 
L 259.668978 -203.602314 
L 260.296454 -206.597355 
L 260.953723 -209.592397 
L 261.636805 -212.587438 
L 262.340037 -215.582479 
L 263.056179 -218.577521 
L 263.776674 -221.572562 
L 264.492045 -224.567603 
L 265.192381 -227.562645 
L 265.867877 -230.557686 
L 266.509363 -233.552727 
L 267.108784 -236.547769 
L 267.659588 -239.54281 
L 268.156984 -242.537851 
L 268.598073 -245.532893 
L 268.981837 -248.527934 
L 269.309 -251.522975 
L 269.581797 -254.518017 
L 269.803672 -257.513058 
L 269.978941 -260.508099 
L 270.112465 -263.50314 
L 270.209351 -266.498182 
L 270.274713 -269.493223 
L 270.313512 -272.488264 
L 270.330465 -275.483306 
L 270.33004 -278.478347 
L 270.316512 -281.473388 
L 270.294069 -284.46843 
L 270.266945 -287.463471 
L 270.239559 -290.458512 
L 270.216632 -293.453554 
L 270.203273 -296.448595 
L 270.205009 -299.443636 
L 270.227755 -302.438678 
L 270.277724 -305.433719 
L 270.36128 -308.42876 
L 270.484746 -311.423802 
L 270.654182 -314.418843 
L 270.875154 -317.413884 
L 271.152519 -320.408926 
L 271.490228 -323.403967 
L 271.891181 -326.399008 
L 272.357131 -329.39405 
L 272.888642 -332.389091 
L 273.485096 -335.384132 
L 274.144743 -338.379174 
L 274.864785 -341.374215 
L 275.641465 -344.369256 
L 276.470171 -347.364298 
L 277.345527 -350.359339 
L 278.261469 -353.35438 
L 279.211323 -356.349421 
L 280.187857 -359.344463 
L 281.18335 -362.339504 
L 282.189666 -365.334545 
L 308.210334 -365.334545 
L 308.210334 -365.334545 
L 309.21665 -362.339504 
L 310.212143 -359.344463 
L 311.188677 -356.349421 
L 312.138531 -353.35438 
L 313.054473 -350.359339 
L 313.929829 -347.364298 
L 314.758535 -344.369256 
L 315.535215 -341.374215 
L 316.255257 -338.379174 
L 316.914904 -335.384132 
L 317.511358 -332.389091 
L 318.042869 -329.39405 
L 318.508819 -326.399008 
L 318.909772 -323.403967 
L 319.247481 -320.408926 
L 319.524846 -317.413884 
L 319.745818 -314.418843 
L 319.915254 -311.423802 
L 320.03872 -308.42876 
L 320.122276 -305.433719 
L 320.172245 -302.438678 
L 320.194991 -299.443636 
L 320.196727 -296.448595 
L 320.183368 -293.453554 
L 320.160441 -290.458512 
L 320.133055 -287.463471 
L 320.105931 -284.46843 
L 320.083488 -281.473388 
L 320.06996 -278.478347 
L 320.069535 -275.483306 
L 320.086488 -272.488264 
L 320.125287 -269.493223 
L 320.190649 -266.498182 
L 320.287535 -263.50314 
L 320.421059 -260.508099 
L 320.596328 -257.513058 
L 320.818203 -254.518017 
L 321.091 -251.522975 
L 321.418163 -248.527934 
L 321.801927 -245.532893 
L 322.243016 -242.537851 
L 322.740412 -239.54281 
L 323.291216 -236.547769 
L 323.890637 -233.552727 
L 324.532123 -230.557686 
L 325.207619 -227.562645 
L 325.907955 -224.567603 
L 326.623326 -221.572562 
L 327.343821 -218.577521 
L 328.059963 -215.582479 
L 328.763195 -212.587438 
L 329.446277 -209.592397 
L 330.103546 -206.597355 
L 330.731022 -203.602314 
L 331.32634 -200.607273 
L 331.888523 -197.612231 
L 332.417619 -194.61719 
L 332.914239 -191.622149 
L 333.379047 -188.627107 
L 333.812259 -185.632066 
L 334.213189 -182.637025 
L 334.57991 -179.641983 
L 334.909052 -176.646942 
L 335.195768 -173.651901 
L 335.433868 -170.65686 
L 335.616123 -167.661818 
L 335.73472 -164.666777 
L 335.781818 -161.671736 
L 335.750182 -158.676694 
L 335.633833 -155.681653 
L 335.428664 -152.686612 
L 335.132976 -149.69157 
L 334.747876 -146.696529 
L 334.277503 -143.701488 
L 333.729054 -140.706446 
L 333.112585 -137.711405 
L 332.440591 -134.716364 
L 331.727374 -131.721322 
L 330.988239 -128.726281 
L 330.238556 -125.73124 
L 329.492759 -122.736198 
L 328.763341 -119.741157 
L 328.059941 -116.746116 
L 327.38858 -113.751074 
L 326.751129 -110.756033 
L 326.145049 -107.760992 
L 325.563458 -104.76595 
L 324.995507 -101.770909 
L 324.427075 -98.775868 
L 323.841722 -95.780826 
L 323.221842 -92.785785 
L 322.54993 -89.790744 
L 321.809864 -86.795702 
L 320.988115 -83.800661 
L 320.074776 -80.80562 
L 319.064354 -77.810579 
L 317.956245 -74.815537 
L 316.754888 -71.820496 
L 315.469569 -68.825455 
z
" id="maece65efa6" style="stroke:#ffffff;stroke-opacity:0.3;"/>
    </defs>
    <g clip-path="url(#p87a7fc5102)">
     <use style="fill:#4c72b0;fill-opacity:0.3;stroke:#ffffff;stroke-opacity:0.3;" x="0" xlink:href="#maece65efa6" y="432"/>
    </g>
   </g>
   <g id="PolyCollection_3">
    <defs>
     <path d="M 485.740626 -68.825455 
L 429.313919 -68.825455 
L 427.907188 -71.747678 
L 426.661005 -74.669901 
L 425.594234 -77.592124 
L 424.72075 -80.514347 
L 424.048872 -83.43657 
L 423.581035 -86.358793 
L 423.31373 -89.281016 
L 423.237702 -92.203239 
L 423.338408 -95.125462 
L 423.596693 -98.047685 
L 423.989638 -100.969908 
L 424.491547 -103.892131 
L 425.074986 -106.814354 
L 425.711853 -109.736578 
L 426.374381 -112.658801 
L 427.036064 -115.581024 
L 427.672448 -118.503247 
L 428.261756 -121.42547 
L 428.785351 -124.347693 
L 429.228025 -127.269916 
L 429.578114 -130.192139 
L 429.827478 -133.114362 
L 429.971356 -136.036585 
L 430.008127 -138.958808 
L 429.939013 -141.881031 
L 429.767741 -144.803254 
L 429.500199 -147.725477 
L 429.144098 -150.6477 
L 428.708663 -153.569924 
L 428.204349 -156.492147 
L 427.642591 -159.41437 
L 427.035591 -162.336593 
L 426.396125 -165.258816 
L 425.737365 -168.181039 
L 425.07271 -171.103262 
L 424.415609 -174.025485 
L 423.779371 -176.947708 
L 423.176954 -179.869931 
L 422.620726 -182.792154 
L 422.1222 -185.714377 
L 421.691746 -188.6366 
L 421.33829 -191.558823 
L 421.069003 -194.481046 
L 420.889013 -197.40327 
L 420.801129 -200.325493 
L 420.805631 -203.247716 
L 420.900117 -206.169939 
L 421.079438 -209.092162 
L 421.335732 -212.014385 
L 421.658573 -214.936608 
L 422.035228 -217.858831 
L 422.451028 -220.781054 
L 422.889839 -223.703277 
L 423.334619 -226.6255 
L 423.768032 -229.547723 
L 424.173094 -232.469946 
L 424.533816 -235.392169 
L 424.835816 -238.314393 
L 425.066856 -241.236616 
L 425.217291 -244.158839 
L 425.280389 -247.081062 
L 425.252516 -250.003285 
L 425.133182 -252.925508 
L 424.924931 -255.847731 
L 424.63311 -258.769954 
L 424.265507 -261.692177 
L 423.831916 -264.6144 
L 423.343623 -267.536623 
L 422.812882 -270.458846 
L 422.252391 -273.381069 
L 421.674805 -276.303292 
L 421.092329 -279.225515 
L 420.516388 -282.147739 
L 419.957416 -285.069962 
L 419.424746 -287.992185 
L 418.926618 -290.914408 
L 418.470283 -293.836631 
L 418.062183 -296.758854 
L 417.708192 -299.681077 
L 417.413881 -302.6033 
L 417.184782 -305.525523 
L 417.026614 -308.447746 
L 416.945455 -311.369969 
L 416.947829 -314.292192 
L 417.0407 -317.214415 
L 417.231361 -320.136638 
L 417.527221 -323.058861 
L 417.935505 -325.981085 
L 418.462877 -328.903308 
L 419.115018 -331.825531 
L 419.89618 -334.747754 
L 420.808758 -337.669977 
L 421.852898 -340.5922 
L 423.02619 -343.514423 
L 424.323449 -346.436646 
L 425.736622 -349.358869 
L 427.254827 -352.281092 
L 428.864522 -355.203315 
L 430.549809 -358.125538 
L 484.504737 -358.125538 
L 484.504737 -358.125538 
L 486.190023 -355.203315 
L 487.799718 -352.281092 
L 489.317923 -349.358869 
L 490.731096 -346.436646 
L 492.028355 -343.514423 
L 493.201647 -340.5922 
L 494.245788 -337.669977 
L 495.158365 -334.747754 
L 495.939527 -331.825531 
L 496.591668 -328.903308 
L 497.11904 -325.981085 
L 497.527324 -323.058861 
L 497.823184 -320.136638 
L 498.013845 -317.214415 
L 498.106717 -314.292192 
L 498.109091 -311.369969 
L 498.027932 -308.447746 
L 497.869764 -305.525523 
L 497.640664 -302.6033 
L 497.346354 -299.681077 
L 496.992363 -296.758854 
L 496.584263 -293.836631 
L 496.127928 -290.914408 
L 495.6298 -287.992185 
L 495.09713 -285.069962 
L 494.538157 -282.147739 
L 493.962216 -279.225515 
L 493.37974 -276.303292 
L 492.802155 -273.381069 
L 492.241663 -270.458846 
L 491.710923 -267.536623 
L 491.22263 -264.6144 
L 490.789038 -261.692177 
L 490.421436 -258.769954 
L 490.129614 -255.847731 
L 489.921364 -252.925508 
L 489.80203 -250.003285 
L 489.774157 -247.081062 
L 489.837254 -244.158839 
L 489.987689 -241.236616 
L 490.21873 -238.314393 
L 490.52073 -235.392169 
L 490.881452 -232.469946 
L 491.286513 -229.547723 
L 491.719927 -226.6255 
L 492.164707 -223.703277 
L 492.603518 -220.781054 
L 493.019317 -217.858831 
L 493.395972 -214.936608 
L 493.718813 -212.014385 
L 493.975108 -209.092162 
L 494.154428 -206.169939 
L 494.248914 -203.247716 
L 494.253417 -200.325493 
L 494.165533 -197.40327 
L 493.985542 -194.481046 
L 493.716256 -191.558823 
L 493.362799 -188.6366 
L 492.932345 -185.714377 
L 492.433819 -182.792154 
L 491.877591 -179.869931 
L 491.275175 -176.947708 
L 490.638937 -174.025485 
L 489.981836 -171.103262 
L 489.31718 -168.181039 
L 488.65842 -165.258816 
L 488.018954 -162.336593 
L 487.411955 -159.41437 
L 486.850197 -156.492147 
L 486.345882 -153.569924 
L 485.910447 -150.6477 
L 485.554347 -147.725477 
L 485.286804 -144.803254 
L 485.115532 -141.881031 
L 485.046418 -138.958808 
L 485.08319 -136.036585 
L 485.227068 -133.114362 
L 485.476432 -130.192139 
L 485.82652 -127.269916 
L 486.269194 -124.347693 
L 486.79279 -121.42547 
L 487.382098 -118.503247 
L 488.018481 -115.581024 
L 488.680165 -112.658801 
L 489.342692 -109.736578 
L 489.979559 -106.814354 
L 490.562999 -103.892131 
L 491.064907 -100.969908 
L 491.457853 -98.047685 
L 491.716137 -95.125462 
L 491.816844 -92.203239 
L 491.740816 -89.281016 
L 491.47351 -86.358793 
L 491.005674 -83.43657 
L 490.333796 -80.514347 
L 489.460312 -77.592124 
L 488.39354 -74.669901 
L 487.147358 -71.747678 
L 485.740626 -68.825455 
z
" id="m98446e1aa4" style="stroke:#ffffff;stroke-opacity:0.3;"/>
    </defs>
    <g clip-path="url(#p87a7fc5102)">
     <use style="fill:#4c72b0;fill-opacity:0.3;stroke:#ffffff;stroke-opacity:0.3;" x="0" xlink:href="#m98446e1aa4" y="432"/>
    </g>
   </g>
   <g id="LineCollection_1">
    <path clip-path="url(#p87a7fc5102)" d="M 112.581818 66.665455 
L 153.163636 66.665455 
" style="fill:none;stroke:#4c72b0;stroke-width:1.5;"/>
    <path clip-path="url(#p87a7fc5102)" d="M 274.909091 66.665455 
L 315.490909 66.665455 
" style="fill:none;stroke:#4c72b0;stroke-width:1.5;"/>
    <path clip-path="url(#p87a7fc5102)" d="M 437.236364 73.874462 
L 477.818182 73.874462 
" style="fill:none;stroke:#4c72b0;stroke-width:1.5;"/>
   </g>
   <g id="LineCollection_2">
    <path clip-path="url(#p87a7fc5102)" d="M 112.581818 361.419701 
L 153.163636 361.419701 
" style="fill:none;stroke:#4c72b0;stroke-width:1.5;"/>
    <path clip-path="url(#p87a7fc5102)" d="M 274.909091 363.174545 
L 315.490909 363.174545 
" style="fill:none;stroke:#4c72b0;stroke-width:1.5;"/>
    <path clip-path="url(#p87a7fc5102)" d="M 437.236364 363.174545 
L 477.818182 363.174545 
" style="fill:none;stroke:#4c72b0;stroke-width:1.5;"/>
   </g>
   <g id="LineCollection_3">
    <path clip-path="url(#p87a7fc5102)" d="M 132.872727 361.419701 
L 132.872727 66.665455 
" style="fill:none;stroke:#4c72b0;stroke-width:1.5;"/>
    <path clip-path="url(#p87a7fc5102)" d="M 295.2 363.174545 
L 295.2 66.665455 
" style="fill:none;stroke:#4c72b0;stroke-width:1.5;"/>
    <path clip-path="url(#p87a7fc5102)" d="M 457.527273 363.174545 
L 457.527273 73.874462 
" style="fill:none;stroke:#4c72b0;stroke-width:1.5;"/>
   </g>
   <g id="LineCollection_4">
    <path clip-path="url(#p87a7fc5102)" d="M 112.581818 254.945524 
L 153.163636 254.945524 
" style="fill:none;stroke:#4c72b0;stroke-width:1.5;"/>
    <path clip-path="url(#p87a7fc5102)" d="M 274.909091 236.157217 
L 315.490909 236.157217 
" style="fill:none;stroke:#4c72b0;stroke-width:1.5;"/>
    <path clip-path="url(#p87a7fc5102)" d="M 437.236364 219.161916 
L 477.818182 219.161916 
" style="fill:none;stroke:#4c72b0;stroke-width:1.5;"/>
   </g>
   <g id="patch_3">
    <path d="M 72 378 
L 72 51.84 
" style="fill:none;stroke:#ffffff;stroke-linecap:square;stroke-linejoin:miter;stroke-width:1.25;"/>
   </g>
   <g id="patch_4">
    <path d="M 518.4 378 
L 518.4 51.84 
" style="fill:none;stroke:#ffffff;stroke-linecap:square;stroke-linejoin:miter;stroke-width:1.25;"/>
   </g>
   <g id="patch_5">
    <path d="M 72 378 
L 518.4 378 
" style="fill:none;stroke:#ffffff;stroke-linecap:square;stroke-linejoin:miter;stroke-width:1.25;"/>
   </g>
   <g id="patch_6">
    <path d="M 72 51.84 
L 518.4 51.84 
" style="fill:none;stroke:#ffffff;stroke-linecap:square;stroke-linejoin:miter;stroke-width:1.25;"/>
   </g>
   <g id="text_12">
    <!-- Dropout ratio: Island DNN (top 307 models) -->
    <defs>
     <path d="M 9.03125 41.84375 
L 9.03125 51.859375 
L 19.046875 51.859375 
L 19.046875 41.84375 
z
M 9.03125 0 
L 9.03125 10.015625 
L 19.046875 10.015625 
L 19.046875 0 
z
" id="ArialMT-58"/>
     <path d="M 9.328125 0 
L 9.328125 71.578125 
L 18.796875 71.578125 
L 18.796875 0 
z
" id="ArialMT-73"/>
     <path d="M 6.390625 0 
L 6.390625 71.578125 
L 15.1875 71.578125 
L 15.1875 0 
z
" id="ArialMT-108"/>
     <path d="M 4.203125 18.890625 
L 12.984375 20.0625 
Q 14.5 12.59375 18.140625 9.296875 
Q 21.78125 6 27 6 
Q 33.203125 6 37.46875 10.296875 
Q 41.75 14.59375 41.75 20.953125 
Q 41.75 27 37.796875 30.921875 
Q 33.84375 34.859375 27.734375 34.859375 
Q 25.25 34.859375 21.53125 33.890625 
L 22.515625 41.609375 
Q 23.390625 41.5 23.921875 41.5 
Q 29.546875 41.5 34.03125 44.421875 
Q 38.53125 47.359375 38.53125 53.46875 
Q 38.53125 58.296875 35.25 61.46875 
Q 31.984375 64.65625 26.8125 64.65625 
Q 21.6875 64.65625 18.265625 61.421875 
Q 14.84375 58.203125 13.875 51.765625 
L 5.078125 53.328125 
Q 6.6875 62.15625 12.390625 67.015625 
Q 18.109375 71.875 26.609375 71.875 
Q 32.46875 71.875 37.390625 69.359375 
Q 42.328125 66.84375 44.9375 62.5 
Q 47.5625 58.15625 47.5625 53.265625 
Q 47.5625 48.640625 45.0625 44.828125 
Q 42.578125 41.015625 37.703125 38.765625 
Q 44.046875 37.3125 47.5625 32.6875 
Q 51.078125 28.078125 51.078125 21.140625 
Q 51.078125 11.765625 44.234375 5.25 
Q 37.40625 -1.265625 26.953125 -1.265625 
Q 17.53125 -1.265625 11.296875 4.34375 
Q 5.078125 9.96875 4.203125 18.890625 
z
" id="ArialMT-51"/>
     <path d="M 4.734375 62.203125 
L 4.734375 70.65625 
L 51.078125 70.65625 
L 51.078125 63.8125 
Q 44.234375 56.546875 37.515625 44.484375 
Q 30.8125 32.421875 27.15625 19.671875 
Q 24.515625 10.6875 23.78125 0 
L 14.75 0 
Q 14.890625 8.453125 18.0625 20.40625 
Q 21.234375 32.375 27.171875 43.484375 
Q 33.109375 54.59375 39.796875 62.203125 
z
" id="ArialMT-55"/>
     <path d="M 6.59375 0 
L 6.59375 51.859375 
L 14.453125 51.859375 
L 14.453125 44.578125 
Q 16.890625 48.390625 20.9375 50.703125 
Q 25 53.03125 30.171875 53.03125 
Q 35.9375 53.03125 39.625 50.640625 
Q 43.3125 48.25 44.828125 43.953125 
Q 50.984375 53.03125 60.84375 53.03125 
Q 68.5625 53.03125 72.703125 48.75 
Q 76.859375 44.484375 76.859375 35.59375 
L 76.859375 0 
L 68.109375 0 
L 68.109375 32.671875 
Q 68.109375 37.9375 67.25 40.25 
Q 66.40625 42.578125 64.15625 43.984375 
Q 61.921875 45.40625 58.890625 45.40625 
Q 53.421875 45.40625 49.796875 41.765625 
Q 46.1875 38.140625 46.1875 30.125 
L 46.1875 0 
L 37.40625 0 
L 37.40625 33.6875 
Q 37.40625 39.546875 35.25 42.46875 
Q 33.109375 45.40625 28.21875 45.40625 
Q 24.515625 45.40625 21.359375 43.453125 
Q 18.21875 41.5 16.796875 37.734375 
Q 15.375 33.984375 15.375 26.90625 
L 15.375 0 
z
" id="ArialMT-109"/>
    </defs>
    <g style="fill:#262626;" transform="translate(64.44375 45.84)scale(0.24 -0.24)">
     <use xlink:href="#ArialMT-68"/>
     <use x="72.216797" xlink:href="#ArialMT-114"/>
     <use x="105.517578" xlink:href="#ArialMT-111"/>
     <use x="161.132812" xlink:href="#ArialMT-112"/>
     <use x="216.748047" xlink:href="#ArialMT-111"/>
     <use x="272.363281" xlink:href="#ArialMT-117"/>
     <use x="327.978516" xlink:href="#ArialMT-116"/>
     <use x="355.761719" xlink:href="#ArialMT-32"/>
     <use x="383.544922" xlink:href="#ArialMT-114"/>
     <use x="416.845703" xlink:href="#ArialMT-97"/>
     <use x="472.460938" xlink:href="#ArialMT-116"/>
     <use x="500.244141" xlink:href="#ArialMT-105"/>
     <use x="522.460938" xlink:href="#ArialMT-111"/>
     <use x="578.076172" xlink:href="#ArialMT-58"/>
     <use x="605.859375" xlink:href="#ArialMT-32"/>
     <use x="633.642578" xlink:href="#ArialMT-73"/>
     <use x="661.425781" xlink:href="#ArialMT-115"/>
     <use x="711.425781" xlink:href="#ArialMT-108"/>
     <use x="733.642578" xlink:href="#ArialMT-97"/>
     <use x="789.257812" xlink:href="#ArialMT-110"/>
     <use x="844.873047" xlink:href="#ArialMT-100"/>
     <use x="900.488281" xlink:href="#ArialMT-32"/>
     <use x="928.271484" xlink:href="#ArialMT-68"/>
     <use x="1000.488281" xlink:href="#ArialMT-78"/>
     <use x="1072.705078" xlink:href="#ArialMT-78"/>
     <use x="1144.921875" xlink:href="#ArialMT-32"/>
     <use x="1172.705078" xlink:href="#ArialMT-40"/>
     <use x="1206.005859" xlink:href="#ArialMT-116"/>
     <use x="1233.789062" xlink:href="#ArialMT-111"/>
     <use x="1289.404297" xlink:href="#ArialMT-112"/>
     <use x="1345.019531" xlink:href="#ArialMT-32"/>
     <use x="1372.802734" xlink:href="#ArialMT-51"/>
     <use x="1428.417969" xlink:href="#ArialMT-48"/>
     <use x="1484.033203" xlink:href="#ArialMT-55"/>
     <use x="1539.648438" xlink:href="#ArialMT-32"/>
     <use x="1567.431641" xlink:href="#ArialMT-109"/>
     <use x="1650.732422" xlink:href="#ArialMT-111"/>
     <use x="1706.347656" xlink:href="#ArialMT-100"/>
     <use x="1761.962891" xlink:href="#ArialMT-101"/>
     <use x="1817.578125" xlink:href="#ArialMT-108"/>
     <use x="1839.794922" xlink:href="#ArialMT-115"/>
     <use x="1889.794922" xlink:href="#ArialMT-41"/>
    </g>
   </g>
  </g>
 </g>
 <defs>
  <clipPath id="p87a7fc5102">
   <rect height="326.16" width="446.4" x="72" y="51.84"/>
  </clipPath>
 </defs>
</svg>
