<?xml version="1.0" encoding="utf-8" standalone="no"?>
<!DOCTYPE svg PUBLIC "-//W3C//DTD SVG 1.1//EN"
  "http://www.w3.org/Graphics/SVG/1.1/DTD/svg11.dtd">
<!-- Created with matplotlib (https://matplotlib.org/) -->
<svg height="432pt" version="1.1" viewBox="0 0 576 432" width="576pt" xmlns="http://www.w3.org/2000/svg" xmlns:xlink="http://www.w3.org/1999/xlink">
 <defs>
  <style type="text/css">
*{stroke-linecap:butt;stroke-linejoin:round;white-space:pre;}
  </style>
 </defs>
 <g id="figure_1">
  <g id="patch_1">
   <path d="M 0 432 
L 576 432 
L 576 0 
L 0 0 
z
" style="fill:#ffffff;"/>
  </g>
  <g id="axes_1">
   <g id="patch_2">
    <path d="M 72 378 
L 518.4 378 
L 518.4 51.84 
L 72 51.84 
z
" style="fill:#eaeaf2;"/>
   </g>
   <g id="matplotlib.axis_1">
    <g id="xtick_1">
     <g id="line2d_1">
      <path clip-path="url(#pca492fb294)" d="M 132.872727 378 
L 132.872727 51.84 
" style="fill:none;stroke:#ffffff;stroke-linecap:round;"/>
     </g>
     <g id="text_1">
      <!-- First -->
      <defs>
       <path d="M 8.203125 0 
L 8.203125 71.578125 
L 56.5 71.578125 
L 56.5 63.140625 
L 17.671875 63.140625 
L 17.671875 40.96875 
L 51.265625 40.96875 
L 51.265625 32.515625 
L 17.671875 32.515625 
L 17.671875 0 
z
" id="ArialMT-70"/>
       <path d="M 6.640625 61.46875 
L 6.640625 71.578125 
L 15.4375 71.578125 
L 15.4375 61.46875 
z
M 6.640625 0 
L 6.640625 51.859375 
L 15.4375 51.859375 
L 15.4375 0 
z
" id="ArialMT-105"/>
       <path d="M 6.5 0 
L 6.5 51.859375 
L 14.40625 51.859375 
L 14.40625 44 
Q 17.4375 49.515625 20 51.265625 
Q 22.5625 53.03125 25.640625 53.03125 
Q 30.078125 53.03125 34.671875 50.203125 
L 31.640625 42.046875 
Q 28.421875 43.953125 25.203125 43.953125 
Q 22.3125 43.953125 20.015625 42.21875 
Q 17.71875 40.484375 16.75 37.40625 
Q 15.28125 32.71875 15.28125 27.15625 
L 15.28125 0 
z
" id="ArialMT-114"/>
       <path d="M 3.078125 15.484375 
L 11.765625 16.84375 
Q 12.5 11.625 15.84375 8.84375 
Q 19.1875 6.0625 25.203125 6.0625 
Q 31.25 6.0625 34.171875 8.515625 
Q 37.109375 10.984375 37.109375 14.3125 
Q 37.109375 17.28125 34.515625 19 
Q 32.71875 20.171875 25.53125 21.96875 
Q 15.875 24.421875 12.140625 26.203125 
Q 8.40625 27.984375 6.46875 31.125 
Q 4.546875 34.28125 4.546875 38.09375 
Q 4.546875 41.546875 6.125 44.5 
Q 7.71875 47.46875 10.453125 49.421875 
Q 12.5 50.921875 16.03125 51.96875 
Q 19.578125 53.03125 23.640625 53.03125 
Q 29.734375 53.03125 34.34375 51.265625 
Q 38.96875 49.515625 41.15625 46.5 
Q 43.359375 43.5 44.1875 38.484375 
L 35.59375 37.3125 
Q 35.015625 41.3125 32.203125 43.546875 
Q 29.390625 45.796875 24.265625 45.796875 
Q 18.21875 45.796875 15.625 43.796875 
Q 13.03125 41.796875 13.03125 39.109375 
Q 13.03125 37.40625 14.109375 36.03125 
Q 15.1875 34.625 17.484375 33.6875 
Q 18.796875 33.203125 25.25 31.453125 
Q 34.578125 28.953125 38.25 27.359375 
Q 41.9375 25.78125 44.03125 22.75 
Q 46.140625 19.734375 46.140625 15.234375 
Q 46.140625 10.84375 43.578125 6.953125 
Q 41.015625 3.078125 36.171875 0.953125 
Q 31.34375 -1.171875 25.25 -1.171875 
Q 15.140625 -1.171875 9.84375 3.03125 
Q 4.546875 7.234375 3.078125 15.484375 
z
" id="ArialMT-115"/>
       <path d="M 25.78125 7.859375 
L 27.046875 0.09375 
Q 23.34375 -0.6875 20.40625 -0.6875 
Q 15.625 -0.6875 12.984375 0.828125 
Q 10.359375 2.34375 9.28125 4.8125 
Q 8.203125 7.28125 8.203125 15.1875 
L 8.203125 45.015625 
L 1.765625 45.015625 
L 1.765625 51.859375 
L 8.203125 51.859375 
L 8.203125 64.703125 
L 16.9375 69.96875 
L 16.9375 51.859375 
L 25.78125 51.859375 
L 25.78125 45.015625 
L 16.9375 45.015625 
L 16.9375 14.703125 
Q 16.9375 10.9375 17.40625 9.859375 
Q 17.875 8.796875 18.921875 8.15625 
Q 19.96875 7.515625 21.921875 7.515625 
Q 23.390625 7.515625 25.78125 7.859375 
z
" id="ArialMT-116"/>
      </defs>
      <g style="fill:#262626;" transform="translate(111.491477 403.247187)scale(0.22 -0.22)">
       <use xlink:href="#ArialMT-70"/>
       <use x="61.083984" xlink:href="#ArialMT-105"/>
       <use x="83.300781" xlink:href="#ArialMT-114"/>
       <use x="116.601562" xlink:href="#ArialMT-115"/>
       <use x="166.601562" xlink:href="#ArialMT-116"/>
      </g>
     </g>
    </g>
    <g id="xtick_2">
     <g id="line2d_2">
      <path clip-path="url(#pca492fb294)" d="M 295.2 378 
L 295.2 51.84 
" style="fill:none;stroke:#ffffff;stroke-linecap:round;"/>
     </g>
     <g id="text_2">
      <!-- Second -->
      <defs>
       <path d="M 4.5 23 
L 13.421875 23.78125 
Q 14.0625 18.40625 16.375 14.96875 
Q 18.703125 11.53125 23.578125 9.40625 
Q 28.46875 7.28125 34.578125 7.28125 
Q 39.984375 7.28125 44.140625 8.890625 
Q 48.296875 10.5 50.3125 13.296875 
Q 52.34375 16.109375 52.34375 19.4375 
Q 52.34375 22.796875 50.390625 25.3125 
Q 48.4375 27.828125 43.953125 29.546875 
Q 41.0625 30.671875 31.203125 33.03125 
Q 21.34375 35.40625 17.390625 37.5 
Q 12.25 40.1875 9.734375 44.15625 
Q 7.234375 48.140625 7.234375 53.078125 
Q 7.234375 58.5 10.296875 63.203125 
Q 13.375 67.921875 19.28125 70.359375 
Q 25.203125 72.796875 32.421875 72.796875 
Q 40.375 72.796875 46.453125 70.234375 
Q 52.546875 67.671875 55.8125 62.6875 
Q 59.078125 57.71875 59.328125 51.421875 
L 50.25 50.734375 
Q 49.515625 57.515625 45.28125 60.984375 
Q 41.0625 64.453125 32.8125 64.453125 
Q 24.21875 64.453125 20.28125 61.296875 
Q 16.359375 58.15625 16.359375 53.71875 
Q 16.359375 49.859375 19.140625 47.359375 
Q 21.875 44.875 33.421875 42.265625 
Q 44.96875 39.65625 49.265625 37.703125 
Q 55.515625 34.8125 58.484375 30.390625 
Q 61.46875 25.984375 61.46875 20.21875 
Q 61.46875 14.5 58.203125 9.4375 
Q 54.9375 4.390625 48.796875 1.578125 
Q 42.671875 -1.21875 35.015625 -1.21875 
Q 25.296875 -1.21875 18.71875 1.609375 
Q 12.15625 4.4375 8.421875 10.125 
Q 4.6875 15.828125 4.5 23 
z
" id="ArialMT-83"/>
       <path d="M 42.09375 16.703125 
L 51.171875 15.578125 
Q 49.03125 7.625 43.21875 3.21875 
Q 37.40625 -1.171875 28.375 -1.171875 
Q 17 -1.171875 10.328125 5.828125 
Q 3.65625 12.84375 3.65625 25.484375 
Q 3.65625 38.578125 10.390625 45.796875 
Q 17.140625 53.03125 27.875 53.03125 
Q 38.28125 53.03125 44.875 45.953125 
Q 51.46875 38.875 51.46875 26.03125 
Q 51.46875 25.25 51.421875 23.6875 
L 12.75 23.6875 
Q 13.234375 15.140625 17.578125 10.59375 
Q 21.921875 6.0625 28.421875 6.0625 
Q 33.25 6.0625 36.671875 8.59375 
Q 40.09375 11.140625 42.09375 16.703125 
z
M 13.234375 30.90625 
L 42.1875 30.90625 
Q 41.609375 37.453125 38.875 40.71875 
Q 34.671875 45.796875 27.984375 45.796875 
Q 21.921875 45.796875 17.796875 41.75 
Q 13.671875 37.703125 13.234375 30.90625 
z
" id="ArialMT-101"/>
       <path d="M 40.4375 19 
L 49.078125 17.875 
Q 47.65625 8.9375 41.8125 3.875 
Q 35.984375 -1.171875 27.484375 -1.171875 
Q 16.84375 -1.171875 10.375 5.78125 
Q 3.90625 12.75 3.90625 25.734375 
Q 3.90625 34.125 6.6875 40.421875 
Q 9.46875 46.734375 15.15625 49.875 
Q 20.84375 53.03125 27.546875 53.03125 
Q 35.984375 53.03125 41.359375 48.75 
Q 46.734375 44.484375 48.25 36.625 
L 39.703125 35.296875 
Q 38.484375 40.53125 35.375 43.15625 
Q 32.28125 45.796875 27.875 45.796875 
Q 21.234375 45.796875 17.078125 41.03125 
Q 12.9375 36.28125 12.9375 25.984375 
Q 12.9375 15.53125 16.9375 10.796875 
Q 20.953125 6.0625 27.390625 6.0625 
Q 32.5625 6.0625 36.03125 9.234375 
Q 39.5 12.40625 40.4375 19 
z
" id="ArialMT-99"/>
       <path d="M 3.328125 25.921875 
Q 3.328125 40.328125 11.328125 47.265625 
Q 18.015625 53.03125 27.640625 53.03125 
Q 38.328125 53.03125 45.109375 46.015625 
Q 51.90625 39.015625 51.90625 26.65625 
Q 51.90625 16.65625 48.90625 10.90625 
Q 45.90625 5.171875 40.15625 2 
Q 34.421875 -1.171875 27.640625 -1.171875 
Q 16.75 -1.171875 10.03125 5.8125 
Q 3.328125 12.796875 3.328125 25.921875 
z
M 12.359375 25.921875 
Q 12.359375 15.96875 16.703125 11.015625 
Q 21.046875 6.0625 27.640625 6.0625 
Q 34.1875 6.0625 38.53125 11.03125 
Q 42.875 16.015625 42.875 26.21875 
Q 42.875 35.84375 38.5 40.796875 
Q 34.125 45.75 27.640625 45.75 
Q 21.046875 45.75 16.703125 40.8125 
Q 12.359375 35.890625 12.359375 25.921875 
z
" id="ArialMT-111"/>
       <path d="M 6.59375 0 
L 6.59375 51.859375 
L 14.5 51.859375 
L 14.5 44.484375 
Q 20.21875 53.03125 31 53.03125 
Q 35.6875 53.03125 39.625 51.34375 
Q 43.5625 49.65625 45.515625 46.921875 
Q 47.46875 44.1875 48.25 40.4375 
Q 48.734375 37.984375 48.734375 31.890625 
L 48.734375 0 
L 39.9375 0 
L 39.9375 31.546875 
Q 39.9375 36.921875 38.90625 39.578125 
Q 37.890625 42.234375 35.28125 43.8125 
Q 32.671875 45.40625 29.15625 45.40625 
Q 23.53125 45.40625 19.453125 41.84375 
Q 15.375 38.28125 15.375 28.328125 
L 15.375 0 
z
" id="ArialMT-110"/>
       <path d="M 40.234375 0 
L 40.234375 6.546875 
Q 35.296875 -1.171875 25.734375 -1.171875 
Q 19.53125 -1.171875 14.328125 2.25 
Q 9.125 5.671875 6.265625 11.796875 
Q 3.421875 17.921875 3.421875 25.875 
Q 3.421875 33.640625 6 39.96875 
Q 8.59375 46.296875 13.765625 49.65625 
Q 18.953125 53.03125 25.34375 53.03125 
Q 30.03125 53.03125 33.6875 51.046875 
Q 37.359375 49.078125 39.65625 45.90625 
L 39.65625 71.578125 
L 48.390625 71.578125 
L 48.390625 0 
z
M 12.453125 25.875 
Q 12.453125 15.921875 16.640625 10.984375 
Q 20.84375 6.0625 26.5625 6.0625 
Q 32.328125 6.0625 36.34375 10.765625 
Q 40.375 15.484375 40.375 25.140625 
Q 40.375 35.796875 36.265625 40.765625 
Q 32.171875 45.75 26.171875 45.75 
Q 20.3125 45.75 16.375 40.96875 
Q 12.453125 36.1875 12.453125 25.875 
z
" id="ArialMT-100"/>
      </defs>
      <g style="fill:#262626;" transform="translate(257.894531 403.247187)scale(0.22 -0.22)">
       <use xlink:href="#ArialMT-83"/>
       <use x="66.699219" xlink:href="#ArialMT-101"/>
       <use x="122.314453" xlink:href="#ArialMT-99"/>
       <use x="172.314453" xlink:href="#ArialMT-111"/>
       <use x="227.929688" xlink:href="#ArialMT-110"/>
       <use x="283.544922" xlink:href="#ArialMT-100"/>
      </g>
     </g>
    </g>
    <g id="xtick_3">
     <g id="line2d_3">
      <path clip-path="url(#pca492fb294)" d="M 457.527273 378 
L 457.527273 51.84 
" style="fill:none;stroke:#ffffff;stroke-linecap:round;"/>
     </g>
     <g id="text_3">
      <!-- Third -->
      <defs>
       <path d="M 25.921875 0 
L 25.921875 63.140625 
L 2.34375 63.140625 
L 2.34375 71.578125 
L 59.078125 71.578125 
L 59.078125 63.140625 
L 35.40625 63.140625 
L 35.40625 0 
z
" id="ArialMT-84"/>
       <path d="M 6.59375 0 
L 6.59375 71.578125 
L 15.375 71.578125 
L 15.375 45.90625 
Q 21.53125 53.03125 30.90625 53.03125 
Q 36.671875 53.03125 40.921875 50.75 
Q 45.171875 48.484375 47 44.484375 
Q 48.828125 40.484375 48.828125 32.859375 
L 48.828125 0 
L 40.046875 0 
L 40.046875 32.859375 
Q 40.046875 39.453125 37.1875 42.453125 
Q 34.328125 45.453125 29.109375 45.453125 
Q 25.203125 45.453125 21.75 43.421875 
Q 18.3125 41.40625 16.84375 37.9375 
Q 15.375 34.46875 15.375 28.375 
L 15.375 0 
z
" id="ArialMT-104"/>
      </defs>
      <g style="fill:#262626;" transform="translate(432.467898 403.247187)scale(0.22 -0.22)">
       <use xlink:href="#ArialMT-84"/>
       <use x="61.083984" xlink:href="#ArialMT-104"/>
       <use x="116.699219" xlink:href="#ArialMT-105"/>
       <use x="138.916016" xlink:href="#ArialMT-114"/>
       <use x="172.216797" xlink:href="#ArialMT-100"/>
      </g>
     </g>
    </g>
    <g id="text_4">
     <!-- RNN Layers -->
     <defs>
      <path d="M 7.859375 0 
L 7.859375 71.578125 
L 39.59375 71.578125 
Q 49.171875 71.578125 54.140625 69.640625 
Q 59.125 67.71875 62.109375 62.828125 
Q 65.09375 57.953125 65.09375 52.046875 
Q 65.09375 44.4375 60.15625 39.203125 
Q 55.21875 33.984375 44.921875 32.5625 
Q 48.6875 30.765625 50.640625 29 
Q 54.78125 25.203125 58.5 19.484375 
L 70.953125 0 
L 59.03125 0 
L 49.5625 14.890625 
Q 45.40625 21.34375 42.71875 24.75 
Q 40.046875 28.171875 37.921875 29.53125 
Q 35.796875 30.90625 33.59375 31.453125 
Q 31.984375 31.78125 28.328125 31.78125 
L 17.328125 31.78125 
L 17.328125 0 
z
M 17.328125 39.984375 
L 37.703125 39.984375 
Q 44.1875 39.984375 47.84375 41.328125 
Q 51.515625 42.671875 53.421875 45.625 
Q 55.328125 48.578125 55.328125 52.046875 
Q 55.328125 57.125 51.640625 60.390625 
Q 47.953125 63.671875 39.984375 63.671875 
L 17.328125 63.671875 
z
" id="ArialMT-82"/>
      <path d="M 7.625 0 
L 7.625 71.578125 
L 17.328125 71.578125 
L 54.9375 15.375 
L 54.9375 71.578125 
L 64.015625 71.578125 
L 64.015625 0 
L 54.296875 0 
L 16.703125 56.25 
L 16.703125 0 
z
" id="ArialMT-78"/>
      <path id="ArialMT-32"/>
      <path d="M 7.328125 0 
L 7.328125 71.578125 
L 16.796875 71.578125 
L 16.796875 8.453125 
L 52.046875 8.453125 
L 52.046875 0 
z
" id="ArialMT-76"/>
      <path d="M 40.4375 6.390625 
Q 35.546875 2.25 31.03125 0.53125 
Q 26.515625 -1.171875 21.34375 -1.171875 
Q 12.796875 -1.171875 8.203125 3 
Q 3.609375 7.171875 3.609375 13.671875 
Q 3.609375 17.484375 5.34375 20.625 
Q 7.078125 23.78125 9.890625 25.6875 
Q 12.703125 27.59375 16.21875 28.5625 
Q 18.796875 29.25 24.03125 29.890625 
Q 34.671875 31.15625 39.703125 32.90625 
Q 39.75 34.71875 39.75 35.203125 
Q 39.75 40.578125 37.25 42.78125 
Q 33.890625 45.75 27.25 45.75 
Q 21.046875 45.75 18.09375 43.578125 
Q 15.140625 41.40625 13.71875 35.890625 
L 5.125 37.0625 
Q 6.296875 42.578125 8.984375 45.96875 
Q 11.671875 49.359375 16.75 51.1875 
Q 21.828125 53.03125 28.515625 53.03125 
Q 35.15625 53.03125 39.296875 51.46875 
Q 43.453125 49.90625 45.40625 47.53125 
Q 47.359375 45.171875 48.140625 41.546875 
Q 48.578125 39.3125 48.578125 33.453125 
L 48.578125 21.734375 
Q 48.578125 9.46875 49.140625 6.21875 
Q 49.703125 2.984375 51.375 0 
L 42.1875 0 
Q 40.828125 2.734375 40.4375 6.390625 
z
M 39.703125 26.03125 
Q 34.90625 24.078125 25.34375 22.703125 
Q 19.921875 21.921875 17.671875 20.9375 
Q 15.4375 19.96875 14.203125 18.09375 
Q 12.984375 16.21875 12.984375 13.921875 
Q 12.984375 10.40625 15.640625 8.0625 
Q 18.3125 5.71875 23.4375 5.71875 
Q 28.515625 5.71875 32.46875 7.9375 
Q 36.421875 10.15625 38.28125 14.015625 
Q 39.703125 17 39.703125 22.796875 
z
" id="ArialMT-97"/>
      <path d="M 6.203125 -19.96875 
L 5.21875 -11.71875 
Q 8.109375 -12.5 10.25 -12.5 
Q 13.1875 -12.5 14.9375 -11.515625 
Q 16.703125 -10.546875 17.828125 -8.796875 
Q 18.65625 -7.46875 20.515625 -2.25 
Q 20.75 -1.515625 21.296875 -0.09375 
L 1.609375 51.859375 
L 11.078125 51.859375 
L 21.875 21.828125 
Q 23.96875 16.109375 25.640625 9.8125 
Q 27.15625 15.875 29.25 21.625 
L 40.328125 51.859375 
L 49.125 51.859375 
L 29.390625 -0.875 
Q 26.21875 -9.421875 24.46875 -12.640625 
Q 22.125 -17 19.09375 -19.015625 
Q 16.0625 -21.046875 11.859375 -21.046875 
Q 9.328125 -21.046875 6.203125 -19.96875 
z
" id="ArialMT-121"/>
     </defs>
     <g style="fill:#262626;" transform="translate(229.8525 428.798437)scale(0.24 -0.24)">
      <use xlink:href="#ArialMT-82"/>
      <use x="72.216797" xlink:href="#ArialMT-78"/>
      <use x="144.433594" xlink:href="#ArialMT-78"/>
      <use x="216.650391" xlink:href="#ArialMT-32"/>
      <use x="244.433594" xlink:href="#ArialMT-76"/>
      <use x="300.048828" xlink:href="#ArialMT-97"/>
      <use x="355.664062" xlink:href="#ArialMT-121"/>
      <use x="405.664062" xlink:href="#ArialMT-101"/>
      <use x="461.279297" xlink:href="#ArialMT-114"/>
      <use x="494.580078" xlink:href="#ArialMT-115"/>
     </g>
    </g>
   </g>
   <g id="matplotlib.axis_2">
    <g id="ytick_1">
     <g id="line2d_4">
      <path clip-path="url(#pca492fb294)" d="M 72 320.049454 
L 518.4 320.049454 
" style="fill:none;stroke:#ffffff;stroke-linecap:round;"/>
     </g>
     <g id="text_5">
      <!-- 0.05 -->
      <defs>
       <path d="M 4.15625 35.296875 
Q 4.15625 48 6.765625 55.734375 
Q 9.375 63.484375 14.515625 67.671875 
Q 19.671875 71.875 27.484375 71.875 
Q 33.25 71.875 37.59375 69.546875 
Q 41.9375 67.234375 44.765625 62.859375 
Q 47.609375 58.5 49.21875 52.21875 
Q 50.828125 45.953125 50.828125 35.296875 
Q 50.828125 22.703125 48.234375 14.96875 
Q 45.65625 7.234375 40.5 3 
Q 35.359375 -1.21875 27.484375 -1.21875 
Q 17.140625 -1.21875 11.234375 6.203125 
Q 4.15625 15.140625 4.15625 35.296875 
z
M 13.1875 35.296875 
Q 13.1875 17.671875 17.3125 11.828125 
Q 21.4375 6 27.484375 6 
Q 33.546875 6 37.671875 11.859375 
Q 41.796875 17.71875 41.796875 35.296875 
Q 41.796875 52.984375 37.671875 58.78125 
Q 33.546875 64.59375 27.390625 64.59375 
Q 21.34375 64.59375 17.71875 59.46875 
Q 13.1875 52.9375 13.1875 35.296875 
z
" id="ArialMT-48"/>
       <path d="M 9.078125 0 
L 9.078125 10.015625 
L 19.09375 10.015625 
L 19.09375 0 
z
" id="ArialMT-46"/>
       <path d="M 4.15625 18.75 
L 13.375 19.53125 
Q 14.40625 12.796875 18.140625 9.390625 
Q 21.875 6 27.15625 6 
Q 33.5 6 37.890625 10.78125 
Q 42.28125 15.578125 42.28125 23.484375 
Q 42.28125 31 38.0625 35.34375 
Q 33.84375 39.703125 27 39.703125 
Q 22.75 39.703125 19.328125 37.765625 
Q 15.921875 35.84375 13.96875 32.765625 
L 5.71875 33.84375 
L 12.640625 70.609375 
L 48.25 70.609375 
L 48.25 62.203125 
L 19.671875 62.203125 
L 15.828125 42.96875 
Q 22.265625 47.46875 29.34375 47.46875 
Q 38.71875 47.46875 45.15625 40.96875 
Q 51.609375 34.46875 51.609375 24.265625 
Q 51.609375 14.546875 45.953125 7.46875 
Q 39.0625 -1.21875 27.15625 -1.21875 
Q 17.390625 -1.21875 11.203125 4.25 
Q 5.03125 9.71875 4.15625 18.75 
z
" id="ArialMT-53"/>
      </defs>
      <g style="fill:#262626;" transform="translate(19.685938 327.923048)scale(0.22 -0.22)">
       <use xlink:href="#ArialMT-48"/>
       <use x="55.615234" xlink:href="#ArialMT-46"/>
       <use x="83.398438" xlink:href="#ArialMT-48"/>
       <use x="139.013672" xlink:href="#ArialMT-53"/>
      </g>
     </g>
    </g>
    <g id="ytick_2">
     <g id="line2d_5">
      <path clip-path="url(#pca492fb294)" d="M 72 255.428784 
L 518.4 255.428784 
" style="fill:none;stroke:#ffffff;stroke-linecap:round;"/>
     </g>
     <g id="text_6">
      <!-- 0.10 -->
      <defs>
       <path d="M 37.25 0 
L 28.46875 0 
L 28.46875 56 
Q 25.296875 52.984375 20.140625 49.953125 
Q 14.984375 46.921875 10.890625 45.40625 
L 10.890625 53.90625 
Q 18.265625 57.375 23.78125 62.296875 
Q 29.296875 67.234375 31.59375 71.875 
L 37.25 71.875 
z
" id="ArialMT-49"/>
      </defs>
      <g style="fill:#262626;" transform="translate(19.685938 263.302378)scale(0.22 -0.22)">
       <use xlink:href="#ArialMT-48"/>
       <use x="55.615234" xlink:href="#ArialMT-46"/>
       <use x="83.398438" xlink:href="#ArialMT-49"/>
       <use x="139.013672" xlink:href="#ArialMT-48"/>
      </g>
     </g>
    </g>
    <g id="ytick_3">
     <g id="line2d_6">
      <path clip-path="url(#pca492fb294)" d="M 72 190.808114 
L 518.4 190.808114 
" style="fill:none;stroke:#ffffff;stroke-linecap:round;"/>
     </g>
     <g id="text_7">
      <!-- 0.15 -->
      <g style="fill:#262626;" transform="translate(19.685938 198.681708)scale(0.22 -0.22)">
       <use xlink:href="#ArialMT-48"/>
       <use x="55.615234" xlink:href="#ArialMT-46"/>
       <use x="83.398438" xlink:href="#ArialMT-49"/>
       <use x="139.013672" xlink:href="#ArialMT-53"/>
      </g>
     </g>
    </g>
    <g id="ytick_4">
     <g id="line2d_7">
      <path clip-path="url(#pca492fb294)" d="M 72 126.187444 
L 518.4 126.187444 
" style="fill:none;stroke:#ffffff;stroke-linecap:round;"/>
     </g>
     <g id="text_8">
      <!-- 0.20 -->
      <defs>
       <path d="M 50.34375 8.453125 
L 50.34375 0 
L 3.03125 0 
Q 2.9375 3.171875 4.046875 6.109375 
Q 5.859375 10.9375 9.828125 15.625 
Q 13.8125 20.3125 21.34375 26.46875 
Q 33.015625 36.03125 37.109375 41.625 
Q 41.21875 47.21875 41.21875 52.203125 
Q 41.21875 57.421875 37.46875 61 
Q 33.734375 64.59375 27.734375 64.59375 
Q 21.390625 64.59375 17.578125 60.78125 
Q 13.765625 56.984375 13.71875 50.25 
L 4.6875 51.171875 
Q 5.609375 61.28125 11.65625 66.578125 
Q 17.71875 71.875 27.9375 71.875 
Q 38.234375 71.875 44.234375 66.15625 
Q 50.25 60.453125 50.25 52 
Q 50.25 47.703125 48.484375 43.546875 
Q 46.734375 39.40625 42.65625 34.8125 
Q 38.578125 30.21875 29.109375 22.21875 
Q 21.1875 15.578125 18.9375 13.203125 
Q 16.703125 10.84375 15.234375 8.453125 
z
" id="ArialMT-50"/>
      </defs>
      <g style="fill:#262626;" transform="translate(19.685938 134.061038)scale(0.22 -0.22)">
       <use xlink:href="#ArialMT-48"/>
       <use x="55.615234" xlink:href="#ArialMT-46"/>
       <use x="83.398438" xlink:href="#ArialMT-50"/>
       <use x="139.013672" xlink:href="#ArialMT-48"/>
      </g>
     </g>
    </g>
    <g id="ytick_5">
     <g id="line2d_8">
      <path clip-path="url(#pca492fb294)" d="M 72 61.566774 
L 518.4 61.566774 
" style="fill:none;stroke:#ffffff;stroke-linecap:round;"/>
     </g>
     <g id="text_9">
      <!-- 0.25 -->
      <g style="fill:#262626;" transform="translate(19.685938 69.440368)scale(0.22 -0.22)">
       <use xlink:href="#ArialMT-48"/>
       <use x="55.615234" xlink:href="#ArialMT-46"/>
       <use x="83.398438" xlink:href="#ArialMT-50"/>
       <use x="139.013672" xlink:href="#ArialMT-53"/>
      </g>
     </g>
    </g>
    <g id="text_10">
     <!-- Dropout ratio (%) -->
     <defs>
      <path d="M 7.71875 0 
L 7.71875 71.578125 
L 32.375 71.578125 
Q 40.71875 71.578125 45.125 70.5625 
Q 51.265625 69.140625 55.609375 65.4375 
Q 61.28125 60.640625 64.078125 53.1875 
Q 66.890625 45.75 66.890625 36.1875 
Q 66.890625 28.03125 64.984375 21.734375 
Q 63.09375 15.4375 60.109375 11.296875 
Q 57.125 7.171875 53.578125 4.796875 
Q 50.046875 2.4375 45.046875 1.21875 
Q 40.046875 0 33.546875 0 
z
M 17.1875 8.453125 
L 32.46875 8.453125 
Q 39.546875 8.453125 43.578125 9.765625 
Q 47.609375 11.078125 50 13.484375 
Q 53.375 16.84375 55.25 22.53125 
Q 57.125 28.21875 57.125 36.328125 
Q 57.125 47.5625 53.4375 53.59375 
Q 49.75 59.625 44.484375 61.671875 
Q 40.671875 63.140625 32.234375 63.140625 
L 17.1875 63.140625 
z
" id="ArialMT-68"/>
      <path d="M 6.59375 -19.875 
L 6.59375 51.859375 
L 14.59375 51.859375 
L 14.59375 45.125 
Q 17.4375 49.078125 21 51.046875 
Q 24.5625 53.03125 29.640625 53.03125 
Q 36.28125 53.03125 41.359375 49.609375 
Q 46.4375 46.1875 49.015625 39.953125 
Q 51.609375 33.734375 51.609375 26.3125 
Q 51.609375 18.359375 48.75 11.984375 
Q 45.90625 5.609375 40.453125 2.21875 
Q 35.015625 -1.171875 29 -1.171875 
Q 24.609375 -1.171875 21.109375 0.6875 
Q 17.625 2.546875 15.375 5.375 
L 15.375 -19.875 
z
M 14.546875 25.640625 
Q 14.546875 15.625 18.59375 10.84375 
Q 22.65625 6.0625 28.421875 6.0625 
Q 34.28125 6.0625 38.453125 11.015625 
Q 42.625 15.96875 42.625 26.375 
Q 42.625 36.28125 38.546875 41.203125 
Q 34.46875 46.140625 28.8125 46.140625 
Q 23.1875 46.140625 18.859375 40.890625 
Q 14.546875 35.640625 14.546875 25.640625 
z
" id="ArialMT-112"/>
      <path d="M 40.578125 0 
L 40.578125 7.625 
Q 34.515625 -1.171875 24.125 -1.171875 
Q 19.53125 -1.171875 15.546875 0.578125 
Q 11.578125 2.34375 9.640625 5 
Q 7.71875 7.671875 6.9375 11.53125 
Q 6.390625 14.109375 6.390625 19.734375 
L 6.390625 51.859375 
L 15.1875 51.859375 
L 15.1875 23.09375 
Q 15.1875 16.21875 15.71875 13.8125 
Q 16.546875 10.359375 19.234375 8.375 
Q 21.921875 6.390625 25.875 6.390625 
Q 29.828125 6.390625 33.296875 8.421875 
Q 36.765625 10.453125 38.203125 13.9375 
Q 39.65625 17.4375 39.65625 24.078125 
L 39.65625 51.859375 
L 48.4375 51.859375 
L 48.4375 0 
z
" id="ArialMT-117"/>
      <path d="M 23.390625 -21.046875 
Q 16.109375 -11.859375 11.078125 0.4375 
Q 6.0625 12.75 6.0625 25.921875 
Q 6.0625 37.546875 9.8125 48.1875 
Q 14.203125 60.546875 23.390625 72.796875 
L 29.6875 72.796875 
Q 23.78125 62.640625 21.875 58.296875 
Q 18.890625 51.5625 17.1875 44.234375 
Q 15.09375 35.109375 15.09375 25.875 
Q 15.09375 2.390625 29.6875 -21.046875 
z
" id="ArialMT-40"/>
      <path d="M 5.8125 54.390625 
Q 5.8125 62.0625 9.671875 67.421875 
Q 13.53125 72.796875 20.84375 72.796875 
Q 27.59375 72.796875 32 67.984375 
Q 36.421875 63.1875 36.421875 53.859375 
Q 36.421875 44.78125 31.953125 39.875 
Q 27.484375 34.96875 20.953125 34.96875 
Q 14.453125 34.96875 10.125 39.796875 
Q 5.8125 44.625 5.8125 54.390625 
z
M 21.09375 66.75 
Q 17.828125 66.75 15.65625 63.90625 
Q 13.484375 61.078125 13.484375 53.515625 
Q 13.484375 46.625 15.671875 43.8125 
Q 17.875 41.015625 21.09375 41.015625 
Q 24.421875 41.015625 26.59375 43.84375 
Q 28.765625 46.6875 28.765625 54.203125 
Q 28.765625 61.140625 26.5625 63.9375 
Q 24.359375 66.75 21.09375 66.75 
z
M 21.140625 -2.640625 
L 60.296875 72.796875 
L 67.4375 72.796875 
L 28.421875 -2.640625 
z
M 52.09375 16.796875 
Q 52.09375 24.515625 55.953125 29.859375 
Q 59.8125 35.203125 67.1875 35.203125 
Q 73.921875 35.203125 78.34375 30.390625 
Q 82.765625 25.59375 82.765625 16.265625 
Q 82.765625 7.171875 78.296875 2.265625 
Q 73.828125 -2.640625 67.234375 -2.640625 
Q 60.75 -2.640625 56.421875 2.21875 
Q 52.09375 7.078125 52.09375 16.796875 
z
M 67.4375 29.15625 
Q 64.109375 29.15625 61.9375 26.3125 
Q 59.765625 23.484375 59.765625 15.921875 
Q 59.765625 9.078125 61.953125 6.25 
Q 64.15625 3.421875 67.390625 3.421875 
Q 70.75 3.421875 72.921875 6.25 
Q 75.09375 9.078125 75.09375 16.609375 
Q 75.09375 23.53125 72.890625 26.34375 
Q 70.703125 29.15625 67.4375 29.15625 
z
" id="ArialMT-37"/>
      <path d="M 12.359375 -21.046875 
L 6.0625 -21.046875 
Q 20.65625 2.390625 20.65625 25.875 
Q 20.65625 35.0625 18.5625 44.09375 
Q 16.890625 51.421875 13.921875 58.15625 
Q 12.015625 62.546875 6.0625 72.796875 
L 12.359375 72.796875 
Q 21.53125 60.546875 25.921875 48.1875 
Q 29.6875 37.546875 29.6875 25.921875 
Q 29.6875 12.75 24.625 0.4375 
Q 19.578125 -11.859375 12.359375 -21.046875 
z
" id="ArialMT-41"/>
     </defs>
     <g style="fill:#262626;" transform="translate(10.634687 306.279375)rotate(-90)scale(0.24 -0.24)">
      <use xlink:href="#ArialMT-68"/>
      <use x="72.216797" xlink:href="#ArialMT-114"/>
      <use x="105.517578" xlink:href="#ArialMT-111"/>
      <use x="161.132812" xlink:href="#ArialMT-112"/>
      <use x="216.748047" xlink:href="#ArialMT-111"/>
      <use x="272.363281" xlink:href="#ArialMT-117"/>
      <use x="327.978516" xlink:href="#ArialMT-116"/>
      <use x="355.761719" xlink:href="#ArialMT-32"/>
      <use x="383.544922" xlink:href="#ArialMT-114"/>
      <use x="416.845703" xlink:href="#ArialMT-97"/>
      <use x="472.460938" xlink:href="#ArialMT-116"/>
      <use x="500.244141" xlink:href="#ArialMT-105"/>
      <use x="522.460938" xlink:href="#ArialMT-111"/>
      <use x="578.076172" xlink:href="#ArialMT-32"/>
      <use x="605.859375" xlink:href="#ArialMT-40"/>
      <use x="639.160156" xlink:href="#ArialMT-37"/>
      <use x="728.076172" xlink:href="#ArialMT-41"/>
     </g>
    </g>
   </g>
   <g id="PolyCollection_1">
    <defs>
     <path d="M 168.545494 -68.825455 
L 97.199961 -68.825455 
L 96.309936 -71.381573 
L 95.497228 -73.937692 
L 94.767318 -76.49381 
L 94.125056 -79.049929 
L 93.574604 -81.606047 
L 93.119378 -84.162166 
L 92.762007 -86.718284 
L 92.504301 -89.274402 
L 92.347228 -91.830521 
L 92.290909 -94.386639 
L 92.334618 -96.942758 
L 92.476799 -99.498876 
L 92.715091 -102.054995 
L 93.046367 -104.611113 
L 93.466781 -107.167232 
L 93.971827 -109.72335 
L 94.556401 -112.279469 
L 95.214878 -114.835587 
L 95.941182 -117.391706 
L 96.728879 -119.947824 
L 97.57125 -122.503943 
L 98.461385 -125.060061 
L 99.392263 -127.61618 
L 100.356839 -130.172298 
L 101.348121 -132.728417 
L 102.359251 -135.284535 
L 103.38357 -137.840654 
L 104.414689 -140.396772 
L 105.446543 -142.952891 
L 106.473442 -145.509009 
L 107.490114 -148.065128 
L 108.491738 -150.621246 
L 109.47397 -153.177365 
L 110.432965 -155.733483 
L 111.365379 -158.289602 
L 112.268376 -160.84572 
L 113.139624 -163.401839 
L 113.977279 -165.957957 
L 114.779969 -168.514076 
L 115.546774 -171.070194 
L 116.277192 -173.626313 
L 116.971115 -176.182431 
L 117.628789 -178.73855 
L 118.250776 -181.294668 
L 118.837923 -183.850787 
L 119.391313 -186.406905 
L 119.912233 -188.963024 
L 120.40213 -191.519142 
L 120.862575 -194.075261 
L 121.295225 -196.631379 
L 121.701787 -199.187498 
L 122.083986 -201.743616 
L 122.443537 -204.299735 
L 122.782114 -206.855853 
L 123.101326 -209.411972 
L 123.402698 -211.96809 
L 123.687654 -214.524209 
L 123.957502 -217.080327 
L 124.213419 -219.636446 
L 124.456454 -222.192564 
L 124.687515 -224.748683 
L 124.907373 -227.304801 
L 125.116664 -229.86092 
L 125.315895 -232.417038 
L 125.505453 -234.973157 
L 125.685616 -237.529275 
L 125.856562 -240.085394 
L 126.018391 -242.641512 
L 126.171135 -245.197631 
L 126.314778 -247.753749 
L 126.449274 -250.309868 
L 126.574562 -252.865986 
L 126.690589 -255.422105 
L 126.797321 -257.978223 
L 126.894764 -260.534342 
L 126.982976 -263.09046 
L 127.062081 -265.646579 
L 127.132279 -268.202697 
L 127.193858 -270.758816 
L 127.247196 -273.314934 
L 127.292766 -275.871052 
L 127.33114 -278.427171 
L 127.362984 -280.983289 
L 127.389053 -283.539408 
L 127.41019 -286.095526 
L 127.42731 -288.651645 
L 127.441392 -291.207763 
L 127.453467 -293.763882 
L 127.464601 -296.32 
L 127.475878 -298.876119 
L 127.488389 -301.432237 
L 127.503208 -303.988356 
L 127.521379 -306.544474 
L 127.543897 -309.100593 
L 127.571694 -311.656711 
L 127.605622 -314.21283 
L 127.646441 -316.768948 
L 127.694806 -319.325067 
L 127.751257 -321.881185 
L 137.994198 -321.881185 
L 137.994198 -321.881185 
L 138.050649 -319.325067 
L 138.099014 -316.768948 
L 138.139833 -314.21283 
L 138.173761 -311.656711 
L 138.201558 -309.100593 
L 138.224076 -306.544474 
L 138.242247 -303.988356 
L 138.257065 -301.432237 
L 138.269576 -298.876119 
L 138.280854 -296.32 
L 138.291987 -293.763882 
L 138.304062 -291.207763 
L 138.318145 -288.651645 
L 138.335264 -286.095526 
L 138.356401 -283.539408 
L 138.382471 -280.983289 
L 138.414314 -278.427171 
L 138.452688 -275.871052 
L 138.498259 -273.314934 
L 138.551596 -270.758816 
L 138.613175 -268.202697 
L 138.683374 -265.646579 
L 138.762479 -263.09046 
L 138.85069 -260.534342 
L 138.948133 -257.978223 
L 139.054865 -255.422105 
L 139.170892 -252.865986 
L 139.296181 -250.309868 
L 139.430676 -247.753749 
L 139.57432 -245.197631 
L 139.727064 -242.641512 
L 139.888893 -240.085394 
L 140.059839 -237.529275 
L 140.240001 -234.973157 
L 140.429559 -232.417038 
L 140.628791 -229.86092 
L 140.838082 -227.304801 
L 141.057939 -224.748683 
L 141.289 -222.192564 
L 141.532035 -219.636446 
L 141.787953 -217.080327 
L 142.0578 -214.524209 
L 142.342757 -211.96809 
L 142.644129 -209.411972 
L 142.963341 -206.855853 
L 143.301917 -204.299735 
L 143.661468 -201.743616 
L 144.043668 -199.187498 
L 144.45023 -196.631379 
L 144.882879 -194.075261 
L 145.343325 -191.519142 
L 145.833222 -188.963024 
L 146.354142 -186.406905 
L 146.907532 -183.850787 
L 147.494678 -181.294668 
L 148.116666 -178.73855 
L 148.774339 -176.182431 
L 149.468262 -173.626313 
L 150.198681 -171.070194 
L 150.965486 -168.514076 
L 151.768176 -165.957957 
L 152.605831 -163.401839 
L 153.477078 -160.84572 
L 154.380076 -158.289602 
L 155.31249 -155.733483 
L 156.271484 -153.177365 
L 157.253717 -150.621246 
L 158.255341 -148.065128 
L 159.272012 -145.509009 
L 160.298911 -142.952891 
L 161.330765 -140.396772 
L 162.361885 -137.840654 
L 163.386204 -135.284535 
L 164.397333 -132.728417 
L 165.388616 -130.172298 
L 166.353191 -127.61618 
L 167.284069 -125.060061 
L 168.174204 -122.503943 
L 169.016575 -119.947824 
L 169.804272 -117.391706 
L 170.530577 -114.835587 
L 171.189053 -112.279469 
L 171.773627 -109.72335 
L 172.278673 -107.167232 
L 172.699087 -104.611113 
L 173.030363 -102.054995 
L 173.268655 -99.498876 
L 173.410836 -96.942758 
L 173.454545 -94.386639 
L 173.398227 -91.830521 
L 173.241154 -89.274402 
L 172.983447 -86.718284 
L 172.626076 -84.162166 
L 172.17085 -81.606047 
L 171.620398 -79.049929 
L 170.978137 -76.49381 
L 170.248227 -73.937692 
L 169.435519 -71.381573 
L 168.545494 -68.825455 
z
" id="md5481eb2f9" style="stroke:#ffffff;stroke-opacity:0.3;"/>
    </defs>
    <g clip-path="url(#pca492fb294)">
     <use style="fill:#4c72b0;fill-opacity:0.3;stroke:#ffffff;stroke-opacity:0.3;" x="0" xlink:href="#md5481eb2f9" y="432"/>
    </g>
   </g>
   <g id="PolyCollection_2">
    <defs>
     <path d="M 331.166245 -89.729469 
L 259.233755 -89.729469 
L 258.629986 -92.265251 
L 258.063902 -94.801033 
L 257.53713 -97.336815 
L 257.051129 -99.872597 
L 256.607181 -102.408379 
L 256.206379 -104.944161 
L 255.849624 -107.479943 
L 255.537613 -110.015725 
L 255.270841 -112.551508 
L 255.049594 -115.08729 
L 254.873945 -117.623072 
L 254.743759 -120.158854 
L 254.658689 -122.694636 
L 254.618182 -125.230418 
L 254.621479 -127.7662 
L 254.667622 -130.301982 
L 254.755461 -132.837764 
L 254.883657 -135.373546 
L 255.050697 -137.909328 
L 255.254896 -140.44511 
L 255.494413 -142.980892 
L 255.767258 -145.516674 
L 256.071306 -148.052456 
L 256.404309 -150.588238 
L 256.76391 -153.12402 
L 257.14765 -155.659802 
L 257.552991 -158.195584 
L 257.977323 -160.731367 
L 258.417979 -163.267149 
L 258.872253 -165.802931 
L 259.337407 -168.338713 
L 259.810691 -170.874495 
L 260.289353 -173.410277 
L 260.770657 -175.946059 
L 261.251888 -178.481841 
L 261.730374 -181.017623 
L 262.203493 -183.553405 
L 262.668686 -186.089187 
L 263.123472 -188.624969 
L 263.565454 -191.160751 
L 263.992335 -193.696533 
L 264.401924 -196.232315 
L 264.79215 -198.768097 
L 265.161068 -201.303879 
L 265.506871 -203.839661 
L 265.827897 -206.375443 
L 266.122634 -208.911226 
L 266.389734 -211.447008 
L 266.628011 -213.98279 
L 266.836457 -216.518572 
L 267.014237 -219.054354 
L 267.160704 -221.590136 
L 267.275393 -224.125918 
L 267.358033 -226.6617 
L 267.408543 -229.197482 
L 267.42704 -231.733264 
L 267.413833 -234.269046 
L 267.369428 -236.804828 
L 267.294525 -239.34061 
L 267.190016 -241.876392 
L 267.056984 -244.412174 
L 266.896695 -246.947956 
L 266.710597 -249.483738 
L 266.500312 -252.01952 
L 266.267627 -254.555302 
L 266.01449 -257.091085 
L 265.742997 -259.626867 
L 265.455381 -262.162649 
L 265.154004 -264.698431 
L 264.84134 -267.234213 
L 264.519964 -269.769995 
L 264.192538 -272.305777 
L 263.861793 -274.841559 
L 263.530515 -277.377341 
L 263.201528 -279.913123 
L 262.877675 -282.448905 
L 262.561803 -284.984687 
L 262.256743 -287.520469 
L 261.965292 -290.056251 
L 261.690197 -292.592033 
L 261.434134 -295.127815 
L 261.199691 -297.663597 
L 260.989352 -300.199379 
L 260.805482 -302.735161 
L 260.650306 -305.270944 
L 260.525897 -307.806726 
L 260.434163 -310.342508 
L 260.376834 -312.87829 
L 260.355448 -315.414072 
L 260.371343 -317.949854 
L 260.42565 -320.485636 
L 260.51928 -323.021418 
L 260.652928 -325.5572 
L 260.82706 -328.092982 
L 261.041917 -330.628764 
L 261.297514 -333.164546 
L 261.593638 -335.700328 
L 261.929857 -338.23611 
L 262.305521 -340.771892 
L 328.094479 -340.771892 
L 328.094479 -340.771892 
L 328.470143 -338.23611 
L 328.806362 -335.700328 
L 329.102486 -333.164546 
L 329.358083 -330.628764 
L 329.57294 -328.092982 
L 329.747072 -325.5572 
L 329.88072 -323.021418 
L 329.97435 -320.485636 
L 330.028657 -317.949854 
L 330.044552 -315.414072 
L 330.023166 -312.87829 
L 329.965837 -310.342508 
L 329.874103 -307.806726 
L 329.749694 -305.270944 
L 329.594518 -302.735161 
L 329.410648 -300.199379 
L 329.200309 -297.663597 
L 328.965866 -295.127815 
L 328.709803 -292.592033 
L 328.434708 -290.056251 
L 328.143257 -287.520469 
L 327.838197 -284.984687 
L 327.522325 -282.448905 
L 327.198472 -279.913123 
L 326.869485 -277.377341 
L 326.538207 -274.841559 
L 326.207462 -272.305777 
L 325.880036 -269.769995 
L 325.55866 -267.234213 
L 325.245996 -264.698431 
L 324.944619 -262.162649 
L 324.657003 -259.626867 
L 324.38551 -257.091085 
L 324.132373 -254.555302 
L 323.899688 -252.01952 
L 323.689403 -249.483738 
L 323.503305 -246.947956 
L 323.343016 -244.412174 
L 323.209984 -241.876392 
L 323.105475 -239.34061 
L 323.030572 -236.804828 
L 322.986167 -234.269046 
L 322.97296 -231.733264 
L 322.991457 -229.197482 
L 323.041967 -226.6617 
L 323.124607 -224.125918 
L 323.239296 -221.590136 
L 323.385763 -219.054354 
L 323.563543 -216.518572 
L 323.771989 -213.98279 
L 324.010266 -211.447008 
L 324.277366 -208.911226 
L 324.572103 -206.375443 
L 324.893129 -203.839661 
L 325.238932 -201.303879 
L 325.60785 -198.768097 
L 325.998076 -196.232315 
L 326.407665 -193.696533 
L 326.834546 -191.160751 
L 327.276528 -188.624969 
L 327.731314 -186.089187 
L 328.196507 -183.553405 
L 328.669626 -181.017623 
L 329.148112 -178.481841 
L 329.629343 -175.946059 
L 330.110647 -173.410277 
L 330.589309 -170.874495 
L 331.062593 -168.338713 
L 331.527747 -165.802931 
L 331.982021 -163.267149 
L 332.422677 -160.731367 
L 332.847009 -158.195584 
L 333.25235 -155.659802 
L 333.63609 -153.12402 
L 333.995691 -150.588238 
L 334.328694 -148.052456 
L 334.632742 -145.516674 
L 334.905587 -142.980892 
L 335.145104 -140.44511 
L 335.349303 -137.909328 
L 335.516343 -135.373546 
L 335.644539 -132.837764 
L 335.732378 -130.301982 
L 335.778521 -127.7662 
L 335.781818 -125.230418 
L 335.741311 -122.694636 
L 335.656241 -120.158854 
L 335.526055 -117.623072 
L 335.350406 -115.08729 
L 335.129159 -112.551508 
L 334.862387 -110.015725 
L 334.550376 -107.479943 
L 334.193621 -104.944161 
L 333.792819 -102.408379 
L 333.348871 -99.872597 
L 332.86287 -97.336815 
L 332.336098 -94.801033 
L 331.770014 -92.265251 
L 331.166245 -89.729469 
z
" id="mee9086b04a" style="stroke:#ffffff;stroke-opacity:0.3;"/>
    </defs>
    <g clip-path="url(#pca492fb294)">
     <use style="fill:#4c72b0;fill-opacity:0.3;stroke:#ffffff;stroke-opacity:0.3;" x="0" xlink:href="#mee9086b04a" y="432"/>
    </g>
   </g>
   <g id="PolyCollection_3">
    <defs>
     <path d="M 463.734093 -101.723602 
L 451.320453 -101.723602 
L 451.27204 -104.386339 
L 451.236031 -107.049076 
L 451.210582 -109.711813 
L 451.193456 -112.37455 
L 451.182034 -115.037286 
L 451.173335 -117.700023 
L 451.164039 -120.36276 
L 451.150519 -123.025497 
L 451.128877 -125.688234 
L 451.094993 -128.35097 
L 451.044568 -131.013707 
L 450.973185 -133.676444 
L 450.876361 -136.339181 
L 450.749613 -139.001918 
L 450.588524 -141.664654 
L 450.388804 -144.327391 
L 450.146364 -146.990128 
L 449.857381 -149.652865 
L 449.518364 -152.315602 
L 449.126219 -154.978338 
L 448.678312 -157.641075 
L 448.172524 -160.303812 
L 447.607306 -162.966549 
L 446.981723 -165.629286 
L 446.295492 -168.292022 
L 445.549013 -170.954759 
L 444.74339 -173.617496 
L 443.88044 -176.280233 
L 442.962697 -178.94297 
L 441.993397 -181.605706 
L 440.976456 -184.268443 
L 439.916439 -186.93118 
L 438.818512 -189.593917 
L 437.688389 -192.256654 
L 436.532259 -194.91939 
L 435.356718 -197.582127 
L 434.168683 -200.244864 
L 432.975297 -202.907601 
L 431.783842 -205.570338 
L 430.601631 -208.233074 
L 429.435916 -210.895811 
L 428.293786 -213.558548 
L 427.182069 -216.221285 
L 426.107246 -218.884022 
L 425.075361 -221.546758 
L 424.091949 -224.209495 
L 423.161968 -226.872232 
L 422.289749 -229.534969 
L 421.478952 -232.197706 
L 420.732541 -234.860442 
L 420.052767 -237.523179 
L 419.441172 -240.185916 
L 418.898599 -242.848653 
L 418.425225 -245.51139 
L 418.020594 -248.174126 
L 417.683666 -250.836863 
L 417.412881 -253.4996 
L 417.206221 -256.162337 
L 417.06128 -258.825074 
L 416.975342 -261.48781 
L 416.945455 -264.150547 
L 416.968508 -266.813284 
L 417.041305 -269.476021 
L 417.160633 -272.138757 
L 417.32333 -274.801494 
L 417.526337 -277.464231 
L 417.766754 -280.126968 
L 418.041878 -282.789705 
L 418.349236 -285.452441 
L 418.686612 -288.115178 
L 419.052056 -290.777915 
L 419.443896 -293.440652 
L 419.860729 -296.103389 
L 420.301417 -298.766125 
L 420.765068 -301.428862 
L 421.251015 -304.091599 
L 421.758786 -306.754336 
L 422.288076 -309.417073 
L 422.838713 -312.079809 
L 423.410622 -314.742546 
L 424.003793 -317.405283 
L 424.618238 -320.06802 
L 425.253966 -322.730757 
L 425.910943 -325.393493 
L 426.589065 -328.05623 
L 427.288129 -330.718967 
L 428.007809 -333.381704 
L 428.747638 -336.044441 
L 429.506985 -338.707177 
L 430.285047 -341.369914 
L 431.080838 -344.032651 
L 431.893184 -346.695388 
L 432.720721 -349.358125 
L 433.561899 -352.020861 
L 434.414985 -354.683598 
L 435.27808 -357.346335 
L 436.149124 -360.009072 
L 437.025917 -362.671809 
L 437.906138 -365.334545 
L 477.148407 -365.334545 
L 477.148407 -365.334545 
L 478.028628 -362.671809 
L 478.905422 -360.009072 
L 479.776466 -357.346335 
L 480.63956 -354.683598 
L 481.492647 -352.020861 
L 482.333824 -349.358125 
L 483.161361 -346.695388 
L 483.973707 -344.032651 
L 484.769498 -341.369914 
L 485.547561 -338.707177 
L 486.306908 -336.044441 
L 487.046736 -333.381704 
L 487.766417 -330.718967 
L 488.465481 -328.05623 
L 489.143602 -325.393493 
L 489.800579 -322.730757 
L 490.436307 -320.06802 
L 491.050753 -317.405283 
L 491.643923 -314.742546 
L 492.215833 -312.079809 
L 492.766469 -309.417073 
L 493.295759 -306.754336 
L 493.80353 -304.091599 
L 494.289477 -301.428862 
L 494.753129 -298.766125 
L 495.193817 -296.103389 
L 495.61065 -293.440652 
L 496.002489 -290.777915 
L 496.367933 -288.115178 
L 496.705309 -285.452441 
L 497.012668 -282.789705 
L 497.287792 -280.126968 
L 497.528208 -277.464231 
L 497.731216 -274.801494 
L 497.893912 -272.138757 
L 498.013241 -269.476021 
L 498.086038 -266.813284 
L 498.109091 -264.150547 
L 498.079204 -261.48781 
L 497.993266 -258.825074 
L 497.848325 -256.162337 
L 497.641664 -253.4996 
L 497.37088 -250.836863 
L 497.033952 -248.174126 
L 496.62932 -245.51139 
L 496.155946 -242.848653 
L 495.613374 -240.185916 
L 495.001778 -237.523179 
L 494.322004 -234.860442 
L 493.575593 -232.197706 
L 492.764797 -229.534969 
L 491.892578 -226.872232 
L 490.962597 -224.209495 
L 489.979184 -221.546758 
L 488.947299 -218.884022 
L 487.872476 -216.221285 
L 486.76076 -213.558548 
L 485.61863 -210.895811 
L 484.452915 -208.233074 
L 483.270704 -205.570338 
L 482.079248 -202.907601 
L 480.885863 -200.244864 
L 479.697827 -197.582127 
L 478.522287 -194.91939 
L 477.366157 -192.256654 
L 476.236033 -189.593917 
L 475.138107 -186.93118 
L 474.07809 -184.268443 
L 473.061149 -181.605706 
L 472.091848 -178.94297 
L 471.174105 -176.280233 
L 470.311156 -173.617496 
L 469.505532 -170.954759 
L 468.759053 -168.292022 
L 468.072822 -165.629286 
L 467.447239 -162.966549 
L 466.882022 -160.303812 
L 466.376234 -157.641075 
L 465.928327 -154.978338 
L 465.536181 -152.315602 
L 465.197164 -149.652865 
L 464.908181 -146.990128 
L 464.665741 -144.327391 
L 464.466022 -141.664654 
L 464.304932 -139.001918 
L 464.178184 -136.339181 
L 464.08136 -133.676444 
L 464.009977 -131.013707 
L 463.959553 -128.35097 
L 463.925668 -125.688234 
L 463.904027 -123.025497 
L 463.890506 -120.36276 
L 463.88121 -117.700023 
L 463.872512 -115.037286 
L 463.86109 -112.37455 
L 463.843963 -109.711813 
L 463.818514 -107.049076 
L 463.782505 -104.386339 
L 463.734093 -101.723602 
z
" id="me1884dfdf5" style="stroke:#ffffff;stroke-opacity:0.3;"/>
    </defs>
    <g clip-path="url(#pca492fb294)">
     <use style="fill:#4c72b0;fill-opacity:0.3;stroke:#ffffff;stroke-opacity:0.3;" x="0" xlink:href="#me1884dfdf5" y="432"/>
    </g>
   </g>
   <g id="LineCollection_1">
    <path clip-path="url(#pca492fb294)" d="M 112.581818 110.118815 
L 153.163636 110.118815 
" style="fill:none;stroke:#4c72b0;stroke-width:1.5;"/>
    <path clip-path="url(#pca492fb294)" d="M 274.909091 91.228108 
L 315.490909 91.228108 
" style="fill:none;stroke:#4c72b0;stroke-width:1.5;"/>
    <path clip-path="url(#pca492fb294)" d="M 437.236364 66.665455 
L 477.818182 66.665455 
" style="fill:none;stroke:#4c72b0;stroke-width:1.5;"/>
   </g>
   <g id="LineCollection_2">
    <path clip-path="url(#pca492fb294)" d="M 112.581818 363.174545 
L 153.163636 363.174545 
" style="fill:none;stroke:#4c72b0;stroke-width:1.5;"/>
    <path clip-path="url(#pca492fb294)" d="M 274.909091 342.270531 
L 315.490909 342.270531 
" style="fill:none;stroke:#4c72b0;stroke-width:1.5;"/>
    <path clip-path="url(#pca492fb294)" d="M 437.236364 330.276398 
L 477.818182 330.276398 
" style="fill:none;stroke:#4c72b0;stroke-width:1.5;"/>
   </g>
   <g id="LineCollection_3">
    <path clip-path="url(#pca492fb294)" d="M 132.872727 363.174545 
L 132.872727 110.118815 
" style="fill:none;stroke:#4c72b0;stroke-width:1.5;"/>
    <path clip-path="url(#pca492fb294)" d="M 295.2 342.270531 
L 295.2 91.228108 
" style="fill:none;stroke:#4c72b0;stroke-width:1.5;"/>
    <path clip-path="url(#pca492fb294)" d="M 457.527273 330.276398 
L 457.527273 66.665455 
" style="fill:none;stroke:#4c72b0;stroke-width:1.5;"/>
   </g>
   <g id="LineCollection_4">
    <path clip-path="url(#pca492fb294)" d="M 112.581818 335.082618 
L 153.163636 335.082618 
" style="fill:none;stroke:#4c72b0;stroke-width:1.5;"/>
    <path clip-path="url(#pca492fb294)" d="M 274.909091 244.190665 
L 315.490909 244.190665 
" style="fill:none;stroke:#4c72b0;stroke-width:1.5;"/>
    <path clip-path="url(#pca492fb294)" d="M 437.236364 166.543626 
L 477.818182 166.543626 
" style="fill:none;stroke:#4c72b0;stroke-width:1.5;"/>
   </g>
   <g id="patch_3">
    <path d="M 72 378 
L 72 51.84 
" style="fill:none;stroke:#ffffff;stroke-linecap:square;stroke-linejoin:miter;stroke-width:1.25;"/>
   </g>
   <g id="patch_4">
    <path d="M 518.4 378 
L 518.4 51.84 
" style="fill:none;stroke:#ffffff;stroke-linecap:square;stroke-linejoin:miter;stroke-width:1.25;"/>
   </g>
   <g id="patch_5">
    <path d="M 72 378 
L 518.4 378 
" style="fill:none;stroke:#ffffff;stroke-linecap:square;stroke-linejoin:miter;stroke-width:1.25;"/>
   </g>
   <g id="patch_6">
    <path d="M 72 51.84 
L 518.4 51.84 
" style="fill:none;stroke:#ffffff;stroke-linecap:square;stroke-linejoin:miter;stroke-width:1.25;"/>
   </g>
   <g id="text_11">
    <!-- Dropout ratio: Island DNN (top 12 models) -->
    <defs>
     <path d="M 9.03125 41.84375 
L 9.03125 51.859375 
L 19.046875 51.859375 
L 19.046875 41.84375 
z
M 9.03125 0 
L 9.03125 10.015625 
L 19.046875 10.015625 
L 19.046875 0 
z
" id="ArialMT-58"/>
     <path d="M 9.328125 0 
L 9.328125 71.578125 
L 18.796875 71.578125 
L 18.796875 0 
z
" id="ArialMT-73"/>
     <path d="M 6.390625 0 
L 6.390625 71.578125 
L 15.1875 71.578125 
L 15.1875 0 
z
" id="ArialMT-108"/>
     <path d="M 6.59375 0 
L 6.59375 51.859375 
L 14.453125 51.859375 
L 14.453125 44.578125 
Q 16.890625 48.390625 20.9375 50.703125 
Q 25 53.03125 30.171875 53.03125 
Q 35.9375 53.03125 39.625 50.640625 
Q 43.3125 48.25 44.828125 43.953125 
Q 50.984375 53.03125 60.84375 53.03125 
Q 68.5625 53.03125 72.703125 48.75 
Q 76.859375 44.484375 76.859375 35.59375 
L 76.859375 0 
L 68.109375 0 
L 68.109375 32.671875 
Q 68.109375 37.9375 67.25 40.25 
Q 66.40625 42.578125 64.15625 43.984375 
Q 61.921875 45.40625 58.890625 45.40625 
Q 53.421875 45.40625 49.796875 41.765625 
Q 46.1875 38.140625 46.1875 30.125 
L 46.1875 0 
L 37.40625 0 
L 37.40625 33.6875 
Q 37.40625 39.546875 35.25 42.46875 
Q 33.109375 45.40625 28.21875 45.40625 
Q 24.515625 45.40625 21.359375 43.453125 
Q 18.21875 41.5 16.796875 37.734375 
Q 15.375 33.984375 15.375 26.90625 
L 15.375 0 
z
" id="ArialMT-109"/>
    </defs>
    <g style="fill:#262626;" transform="translate(71.116875 45.84)scale(0.24 -0.24)">
     <use xlink:href="#ArialMT-68"/>
     <use x="72.216797" xlink:href="#ArialMT-114"/>
     <use x="105.517578" xlink:href="#ArialMT-111"/>
     <use x="161.132812" xlink:href="#ArialMT-112"/>
     <use x="216.748047" xlink:href="#ArialMT-111"/>
     <use x="272.363281" xlink:href="#ArialMT-117"/>
     <use x="327.978516" xlink:href="#ArialMT-116"/>
     <use x="355.761719" xlink:href="#ArialMT-32"/>
     <use x="383.544922" xlink:href="#ArialMT-114"/>
     <use x="416.845703" xlink:href="#ArialMT-97"/>
     <use x="472.460938" xlink:href="#ArialMT-116"/>
     <use x="500.244141" xlink:href="#ArialMT-105"/>
     <use x="522.460938" xlink:href="#ArialMT-111"/>
     <use x="578.076172" xlink:href="#ArialMT-58"/>
     <use x="605.859375" xlink:href="#ArialMT-32"/>
     <use x="633.642578" xlink:href="#ArialMT-73"/>
     <use x="661.425781" xlink:href="#ArialMT-115"/>
     <use x="711.425781" xlink:href="#ArialMT-108"/>
     <use x="733.642578" xlink:href="#ArialMT-97"/>
     <use x="789.257812" xlink:href="#ArialMT-110"/>
     <use x="844.873047" xlink:href="#ArialMT-100"/>
     <use x="900.488281" xlink:href="#ArialMT-32"/>
     <use x="928.271484" xlink:href="#ArialMT-68"/>
     <use x="1000.488281" xlink:href="#ArialMT-78"/>
     <use x="1072.705078" xlink:href="#ArialMT-78"/>
     <use x="1144.921875" xlink:href="#ArialMT-32"/>
     <use x="1172.705078" xlink:href="#ArialMT-40"/>
     <use x="1206.005859" xlink:href="#ArialMT-116"/>
     <use x="1233.789062" xlink:href="#ArialMT-111"/>
     <use x="1289.404297" xlink:href="#ArialMT-112"/>
     <use x="1345.019531" xlink:href="#ArialMT-32"/>
     <use x="1372.802734" xlink:href="#ArialMT-49"/>
     <use x="1428.417969" xlink:href="#ArialMT-50"/>
     <use x="1484.033203" xlink:href="#ArialMT-32"/>
     <use x="1511.816406" xlink:href="#ArialMT-109"/>
     <use x="1595.117188" xlink:href="#ArialMT-111"/>
     <use x="1650.732422" xlink:href="#ArialMT-100"/>
     <use x="1706.347656" xlink:href="#ArialMT-101"/>
     <use x="1761.962891" xlink:href="#ArialMT-108"/>
     <use x="1784.179688" xlink:href="#ArialMT-115"/>
     <use x="1834.179688" xlink:href="#ArialMT-41"/>
    </g>
   </g>
  </g>
 </g>
 <defs>
  <clipPath id="pca492fb294">
   <rect height="326.16" width="446.4" x="72" y="51.84"/>
  </clipPath>
 </defs>
</svg>
