<?xml version="1.0" encoding="utf-8" standalone="no"?>
<!DOCTYPE svg PUBLIC "-//W3C//DTD SVG 1.1//EN"
  "http://www.w3.org/Graphics/SVG/1.1/DTD/svg11.dtd">
<!-- Created with matplotlib (https://matplotlib.org/) -->
<svg height="432pt" version="1.1" viewBox="0 0 576 432" width="576pt" xmlns="http://www.w3.org/2000/svg" xmlns:xlink="http://www.w3.org/1999/xlink">
 <metadata>
  <rdf:RDF xmlns:cc="http://creativecommons.org/ns#" xmlns:dc="http://purl.org/dc/elements/1.1/" xmlns:rdf="http://www.w3.org/1999/02/22-rdf-syntax-ns#">
   <cc:Work>
    <dc:type rdf:resource="http://purl.org/dc/dcmitype/StillImage"/>
    <dc:date>2021-04-08T23:10:53.125829</dc:date>
    <dc:format>image/svg+xml</dc:format>
    <dc:creator>
     <cc:Agent>
      <dc:title>Matplotlib v3.3.4, https://matplotlib.org/</dc:title>
     </cc:Agent>
    </dc:creator>
   </cc:Work>
  </rdf:RDF>
 </metadata>
 <defs>
  <style type="text/css">*{stroke-linecap:butt;stroke-linejoin:round;}</style>
 </defs>
 <g id="figure_1">
  <g id="patch_1">
   <path d="M 0 432 
L 576 432 
L 576 0 
L 0 0 
z
" style="fill:#ffffff;"/>
  </g>
  <g id="axes_1">
   <g id="patch_2">
    <path d="M 72 378 
L 518.4 378 
L 518.4 51.84 
L 72 51.84 
z
" style="fill:#eaeaf2;"/>
   </g>
   <g id="matplotlib.axis_1">
    <g id="xtick_1">
     <g id="line2d_1">
      <path clip-path="url(#pef42f5adf3)" d="M 132.872727 378 
L 132.872727 51.84 
" style="fill:none;stroke:#ffffff;stroke-linecap:round;"/>
     </g>
     <g id="text_1">
      <!-- First -->
      <g style="fill:#262626;" transform="translate(111.491477 403.247187)scale(0.22 -0.22)">
       <defs>
        <path d="M 8.203125 0 
L 8.203125 71.578125 
L 56.5 71.578125 
L 56.5 63.140625 
L 17.671875 63.140625 
L 17.671875 40.96875 
L 51.265625 40.96875 
L 51.265625 32.515625 
L 17.671875 32.515625 
L 17.671875 0 
z
" id="ArialMT-70"/>
        <path d="M 6.640625 61.46875 
L 6.640625 71.578125 
L 15.4375 71.578125 
L 15.4375 61.46875 
z
M 6.640625 0 
L 6.640625 51.859375 
L 15.4375 51.859375 
L 15.4375 0 
z
" id="ArialMT-105"/>
        <path d="M 6.5 0 
L 6.5 51.859375 
L 14.40625 51.859375 
L 14.40625 44 
Q 17.4375 49.515625 20 51.265625 
Q 22.5625 53.03125 25.640625 53.03125 
Q 30.078125 53.03125 34.671875 50.203125 
L 31.640625 42.046875 
Q 28.421875 43.953125 25.203125 43.953125 
Q 22.3125 43.953125 20.015625 42.21875 
Q 17.71875 40.484375 16.75 37.40625 
Q 15.28125 32.71875 15.28125 27.15625 
L 15.28125 0 
z
" id="ArialMT-114"/>
        <path d="M 3.078125 15.484375 
L 11.765625 16.84375 
Q 12.5 11.625 15.84375 8.84375 
Q 19.1875 6.0625 25.203125 6.0625 
Q 31.25 6.0625 34.171875 8.515625 
Q 37.109375 10.984375 37.109375 14.3125 
Q 37.109375 17.28125 34.515625 19 
Q 32.71875 20.171875 25.53125 21.96875 
Q 15.875 24.421875 12.140625 26.203125 
Q 8.40625 27.984375 6.46875 31.125 
Q 4.546875 34.28125 4.546875 38.09375 
Q 4.546875 41.546875 6.125 44.5 
Q 7.71875 47.46875 10.453125 49.421875 
Q 12.5 50.921875 16.03125 51.96875 
Q 19.578125 53.03125 23.640625 53.03125 
Q 29.734375 53.03125 34.34375 51.265625 
Q 38.96875 49.515625 41.15625 46.5 
Q 43.359375 43.5 44.1875 38.484375 
L 35.59375 37.3125 
Q 35.015625 41.3125 32.203125 43.546875 
Q 29.390625 45.796875 24.265625 45.796875 
Q 18.21875 45.796875 15.625 43.796875 
Q 13.03125 41.796875 13.03125 39.109375 
Q 13.03125 37.40625 14.109375 36.03125 
Q 15.1875 34.625 17.484375 33.6875 
Q 18.796875 33.203125 25.25 31.453125 
Q 34.578125 28.953125 38.25 27.359375 
Q 41.9375 25.78125 44.03125 22.75 
Q 46.140625 19.734375 46.140625 15.234375 
Q 46.140625 10.84375 43.578125 6.953125 
Q 41.015625 3.078125 36.171875 0.953125 
Q 31.34375 -1.171875 25.25 -1.171875 
Q 15.140625 -1.171875 9.84375 3.03125 
Q 4.546875 7.234375 3.078125 15.484375 
z
" id="ArialMT-115"/>
        <path d="M 25.78125 7.859375 
L 27.046875 0.09375 
Q 23.34375 -0.6875 20.40625 -0.6875 
Q 15.625 -0.6875 12.984375 0.828125 
Q 10.359375 2.34375 9.28125 4.8125 
Q 8.203125 7.28125 8.203125 15.1875 
L 8.203125 45.015625 
L 1.765625 45.015625 
L 1.765625 51.859375 
L 8.203125 51.859375 
L 8.203125 64.703125 
L 16.9375 69.96875 
L 16.9375 51.859375 
L 25.78125 51.859375 
L 25.78125 45.015625 
L 16.9375 45.015625 
L 16.9375 14.703125 
Q 16.9375 10.9375 17.40625 9.859375 
Q 17.875 8.796875 18.921875 8.15625 
Q 19.96875 7.515625 21.921875 7.515625 
Q 23.390625 7.515625 25.78125 7.859375 
z
" id="ArialMT-116"/>
       </defs>
       <use xlink:href="#ArialMT-70"/>
       <use x="61.083984" xlink:href="#ArialMT-105"/>
       <use x="83.300781" xlink:href="#ArialMT-114"/>
       <use x="116.601562" xlink:href="#ArialMT-115"/>
       <use x="166.601562" xlink:href="#ArialMT-116"/>
      </g>
     </g>
    </g>
    <g id="xtick_2">
     <g id="line2d_2">
      <path clip-path="url(#pef42f5adf3)" d="M 295.2 378 
L 295.2 51.84 
" style="fill:none;stroke:#ffffff;stroke-linecap:round;"/>
     </g>
     <g id="text_2">
      <!-- Second -->
      <g style="fill:#262626;" transform="translate(257.894531 403.247187)scale(0.22 -0.22)">
       <defs>
        <path d="M 4.5 23 
L 13.421875 23.78125 
Q 14.0625 18.40625 16.375 14.96875 
Q 18.703125 11.53125 23.578125 9.40625 
Q 28.46875 7.28125 34.578125 7.28125 
Q 39.984375 7.28125 44.140625 8.890625 
Q 48.296875 10.5 50.3125 13.296875 
Q 52.34375 16.109375 52.34375 19.4375 
Q 52.34375 22.796875 50.390625 25.3125 
Q 48.4375 27.828125 43.953125 29.546875 
Q 41.0625 30.671875 31.203125 33.03125 
Q 21.34375 35.40625 17.390625 37.5 
Q 12.25 40.1875 9.734375 44.15625 
Q 7.234375 48.140625 7.234375 53.078125 
Q 7.234375 58.5 10.296875 63.203125 
Q 13.375 67.921875 19.28125 70.359375 
Q 25.203125 72.796875 32.421875 72.796875 
Q 40.375 72.796875 46.453125 70.234375 
Q 52.546875 67.671875 55.8125 62.6875 
Q 59.078125 57.71875 59.328125 51.421875 
L 50.25 50.734375 
Q 49.515625 57.515625 45.28125 60.984375 
Q 41.0625 64.453125 32.8125 64.453125 
Q 24.21875 64.453125 20.28125 61.296875 
Q 16.359375 58.15625 16.359375 53.71875 
Q 16.359375 49.859375 19.140625 47.359375 
Q 21.875 44.875 33.421875 42.265625 
Q 44.96875 39.65625 49.265625 37.703125 
Q 55.515625 34.8125 58.484375 30.390625 
Q 61.46875 25.984375 61.46875 20.21875 
Q 61.46875 14.5 58.203125 9.4375 
Q 54.9375 4.390625 48.796875 1.578125 
Q 42.671875 -1.21875 35.015625 -1.21875 
Q 25.296875 -1.21875 18.71875 1.609375 
Q 12.15625 4.4375 8.421875 10.125 
Q 4.6875 15.828125 4.5 23 
z
" id="ArialMT-83"/>
        <path d="M 42.09375 16.703125 
L 51.171875 15.578125 
Q 49.03125 7.625 43.21875 3.21875 
Q 37.40625 -1.171875 28.375 -1.171875 
Q 17 -1.171875 10.328125 5.828125 
Q 3.65625 12.84375 3.65625 25.484375 
Q 3.65625 38.578125 10.390625 45.796875 
Q 17.140625 53.03125 27.875 53.03125 
Q 38.28125 53.03125 44.875 45.953125 
Q 51.46875 38.875 51.46875 26.03125 
Q 51.46875 25.25 51.421875 23.6875 
L 12.75 23.6875 
Q 13.234375 15.140625 17.578125 10.59375 
Q 21.921875 6.0625 28.421875 6.0625 
Q 33.25 6.0625 36.671875 8.59375 
Q 40.09375 11.140625 42.09375 16.703125 
z
M 13.234375 30.90625 
L 42.1875 30.90625 
Q 41.609375 37.453125 38.875 40.71875 
Q 34.671875 45.796875 27.984375 45.796875 
Q 21.921875 45.796875 17.796875 41.75 
Q 13.671875 37.703125 13.234375 30.90625 
z
" id="ArialMT-101"/>
        <path d="M 40.4375 19 
L 49.078125 17.875 
Q 47.65625 8.9375 41.8125 3.875 
Q 35.984375 -1.171875 27.484375 -1.171875 
Q 16.84375 -1.171875 10.375 5.78125 
Q 3.90625 12.75 3.90625 25.734375 
Q 3.90625 34.125 6.6875 40.421875 
Q 9.46875 46.734375 15.15625 49.875 
Q 20.84375 53.03125 27.546875 53.03125 
Q 35.984375 53.03125 41.359375 48.75 
Q 46.734375 44.484375 48.25 36.625 
L 39.703125 35.296875 
Q 38.484375 40.53125 35.375 43.15625 
Q 32.28125 45.796875 27.875 45.796875 
Q 21.234375 45.796875 17.078125 41.03125 
Q 12.9375 36.28125 12.9375 25.984375 
Q 12.9375 15.53125 16.9375 10.796875 
Q 20.953125 6.0625 27.390625 6.0625 
Q 32.5625 6.0625 36.03125 9.234375 
Q 39.5 12.40625 40.4375 19 
z
" id="ArialMT-99"/>
        <path d="M 3.328125 25.921875 
Q 3.328125 40.328125 11.328125 47.265625 
Q 18.015625 53.03125 27.640625 53.03125 
Q 38.328125 53.03125 45.109375 46.015625 
Q 51.90625 39.015625 51.90625 26.65625 
Q 51.90625 16.65625 48.90625 10.90625 
Q 45.90625 5.171875 40.15625 2 
Q 34.421875 -1.171875 27.640625 -1.171875 
Q 16.75 -1.171875 10.03125 5.8125 
Q 3.328125 12.796875 3.328125 25.921875 
z
M 12.359375 25.921875 
Q 12.359375 15.96875 16.703125 11.015625 
Q 21.046875 6.0625 27.640625 6.0625 
Q 34.1875 6.0625 38.53125 11.03125 
Q 42.875 16.015625 42.875 26.21875 
Q 42.875 35.84375 38.5 40.796875 
Q 34.125 45.75 27.640625 45.75 
Q 21.046875 45.75 16.703125 40.8125 
Q 12.359375 35.890625 12.359375 25.921875 
z
" id="ArialMT-111"/>
        <path d="M 6.59375 0 
L 6.59375 51.859375 
L 14.5 51.859375 
L 14.5 44.484375 
Q 20.21875 53.03125 31 53.03125 
Q 35.6875 53.03125 39.625 51.34375 
Q 43.5625 49.65625 45.515625 46.921875 
Q 47.46875 44.1875 48.25 40.4375 
Q 48.734375 37.984375 48.734375 31.890625 
L 48.734375 0 
L 39.9375 0 
L 39.9375 31.546875 
Q 39.9375 36.921875 38.90625 39.578125 
Q 37.890625 42.234375 35.28125 43.8125 
Q 32.671875 45.40625 29.15625 45.40625 
Q 23.53125 45.40625 19.453125 41.84375 
Q 15.375 38.28125 15.375 28.328125 
L 15.375 0 
z
" id="ArialMT-110"/>
        <path d="M 40.234375 0 
L 40.234375 6.546875 
Q 35.296875 -1.171875 25.734375 -1.171875 
Q 19.53125 -1.171875 14.328125 2.25 
Q 9.125 5.671875 6.265625 11.796875 
Q 3.421875 17.921875 3.421875 25.875 
Q 3.421875 33.640625 6 39.96875 
Q 8.59375 46.296875 13.765625 49.65625 
Q 18.953125 53.03125 25.34375 53.03125 
Q 30.03125 53.03125 33.6875 51.046875 
Q 37.359375 49.078125 39.65625 45.90625 
L 39.65625 71.578125 
L 48.390625 71.578125 
L 48.390625 0 
z
M 12.453125 25.875 
Q 12.453125 15.921875 16.640625 10.984375 
Q 20.84375 6.0625 26.5625 6.0625 
Q 32.328125 6.0625 36.34375 10.765625 
Q 40.375 15.484375 40.375 25.140625 
Q 40.375 35.796875 36.265625 40.765625 
Q 32.171875 45.75 26.171875 45.75 
Q 20.3125 45.75 16.375 40.96875 
Q 12.453125 36.1875 12.453125 25.875 
z
" id="ArialMT-100"/>
       </defs>
       <use xlink:href="#ArialMT-83"/>
       <use x="66.699219" xlink:href="#ArialMT-101"/>
       <use x="122.314453" xlink:href="#ArialMT-99"/>
       <use x="172.314453" xlink:href="#ArialMT-111"/>
       <use x="227.929688" xlink:href="#ArialMT-110"/>
       <use x="283.544922" xlink:href="#ArialMT-100"/>
      </g>
     </g>
    </g>
    <g id="xtick_3">
     <g id="line2d_3">
      <path clip-path="url(#pef42f5adf3)" d="M 457.527273 378 
L 457.527273 51.84 
" style="fill:none;stroke:#ffffff;stroke-linecap:round;"/>
     </g>
     <g id="text_3">
      <!-- Third -->
      <g style="fill:#262626;" transform="translate(432.467898 403.247187)scale(0.22 -0.22)">
       <defs>
        <path d="M 25.921875 0 
L 25.921875 63.140625 
L 2.34375 63.140625 
L 2.34375 71.578125 
L 59.078125 71.578125 
L 59.078125 63.140625 
L 35.40625 63.140625 
L 35.40625 0 
z
" id="ArialMT-84"/>
        <path d="M 6.59375 0 
L 6.59375 71.578125 
L 15.375 71.578125 
L 15.375 45.90625 
Q 21.53125 53.03125 30.90625 53.03125 
Q 36.671875 53.03125 40.921875 50.75 
Q 45.171875 48.484375 47 44.484375 
Q 48.828125 40.484375 48.828125 32.859375 
L 48.828125 0 
L 40.046875 0 
L 40.046875 32.859375 
Q 40.046875 39.453125 37.1875 42.453125 
Q 34.328125 45.453125 29.109375 45.453125 
Q 25.203125 45.453125 21.75 43.421875 
Q 18.3125 41.40625 16.84375 37.9375 
Q 15.375 34.46875 15.375 28.375 
L 15.375 0 
z
" id="ArialMT-104"/>
       </defs>
       <use xlink:href="#ArialMT-84"/>
       <use x="61.083984" xlink:href="#ArialMT-104"/>
       <use x="116.699219" xlink:href="#ArialMT-105"/>
       <use x="138.916016" xlink:href="#ArialMT-114"/>
       <use x="172.216797" xlink:href="#ArialMT-100"/>
      </g>
     </g>
    </g>
    <g id="text_4">
     <!-- RNN Layers -->
     <g style="fill:#262626;" transform="translate(229.8525 428.798437)scale(0.24 -0.24)">
      <defs>
       <path d="M 7.859375 0 
L 7.859375 71.578125 
L 39.59375 71.578125 
Q 49.171875 71.578125 54.140625 69.640625 
Q 59.125 67.71875 62.109375 62.828125 
Q 65.09375 57.953125 65.09375 52.046875 
Q 65.09375 44.4375 60.15625 39.203125 
Q 55.21875 33.984375 44.921875 32.5625 
Q 48.6875 30.765625 50.640625 29 
Q 54.78125 25.203125 58.5 19.484375 
L 70.953125 0 
L 59.03125 0 
L 49.5625 14.890625 
Q 45.40625 21.34375 42.71875 24.75 
Q 40.046875 28.171875 37.921875 29.53125 
Q 35.796875 30.90625 33.59375 31.453125 
Q 31.984375 31.78125 28.328125 31.78125 
L 17.328125 31.78125 
L 17.328125 0 
z
M 17.328125 39.984375 
L 37.703125 39.984375 
Q 44.1875 39.984375 47.84375 41.328125 
Q 51.515625 42.671875 53.421875 45.625 
Q 55.328125 48.578125 55.328125 52.046875 
Q 55.328125 57.125 51.640625 60.390625 
Q 47.953125 63.671875 39.984375 63.671875 
L 17.328125 63.671875 
z
" id="ArialMT-82"/>
       <path d="M 7.625 0 
L 7.625 71.578125 
L 17.328125 71.578125 
L 54.9375 15.375 
L 54.9375 71.578125 
L 64.015625 71.578125 
L 64.015625 0 
L 54.296875 0 
L 16.703125 56.25 
L 16.703125 0 
z
" id="ArialMT-78"/>
       <path id="ArialMT-32"/>
       <path d="M 7.328125 0 
L 7.328125 71.578125 
L 16.796875 71.578125 
L 16.796875 8.453125 
L 52.046875 8.453125 
L 52.046875 0 
z
" id="ArialMT-76"/>
       <path d="M 40.4375 6.390625 
Q 35.546875 2.25 31.03125 0.53125 
Q 26.515625 -1.171875 21.34375 -1.171875 
Q 12.796875 -1.171875 8.203125 3 
Q 3.609375 7.171875 3.609375 13.671875 
Q 3.609375 17.484375 5.34375 20.625 
Q 7.078125 23.78125 9.890625 25.6875 
Q 12.703125 27.59375 16.21875 28.5625 
Q 18.796875 29.25 24.03125 29.890625 
Q 34.671875 31.15625 39.703125 32.90625 
Q 39.75 34.71875 39.75 35.203125 
Q 39.75 40.578125 37.25 42.78125 
Q 33.890625 45.75 27.25 45.75 
Q 21.046875 45.75 18.09375 43.578125 
Q 15.140625 41.40625 13.71875 35.890625 
L 5.125 37.0625 
Q 6.296875 42.578125 8.984375 45.96875 
Q 11.671875 49.359375 16.75 51.1875 
Q 21.828125 53.03125 28.515625 53.03125 
Q 35.15625 53.03125 39.296875 51.46875 
Q 43.453125 49.90625 45.40625 47.53125 
Q 47.359375 45.171875 48.140625 41.546875 
Q 48.578125 39.3125 48.578125 33.453125 
L 48.578125 21.734375 
Q 48.578125 9.46875 49.140625 6.21875 
Q 49.703125 2.984375 51.375 0 
L 42.1875 0 
Q 40.828125 2.734375 40.4375 6.390625 
z
M 39.703125 26.03125 
Q 34.90625 24.078125 25.34375 22.703125 
Q 19.921875 21.921875 17.671875 20.9375 
Q 15.4375 19.96875 14.203125 18.09375 
Q 12.984375 16.21875 12.984375 13.921875 
Q 12.984375 10.40625 15.640625 8.0625 
Q 18.3125 5.71875 23.4375 5.71875 
Q 28.515625 5.71875 32.46875 7.9375 
Q 36.421875 10.15625 38.28125 14.015625 
Q 39.703125 17 39.703125 22.796875 
z
" id="ArialMT-97"/>
       <path d="M 6.203125 -19.96875 
L 5.21875 -11.71875 
Q 8.109375 -12.5 10.25 -12.5 
Q 13.1875 -12.5 14.9375 -11.515625 
Q 16.703125 -10.546875 17.828125 -8.796875 
Q 18.65625 -7.46875 20.515625 -2.25 
Q 20.75 -1.515625 21.296875 -0.09375 
L 1.609375 51.859375 
L 11.078125 51.859375 
L 21.875 21.828125 
Q 23.96875 16.109375 25.640625 9.8125 
Q 27.15625 15.875 29.25 21.625 
L 40.328125 51.859375 
L 49.125 51.859375 
L 29.390625 -0.875 
Q 26.21875 -9.421875 24.46875 -12.640625 
Q 22.125 -17 19.09375 -19.015625 
Q 16.0625 -21.046875 11.859375 -21.046875 
Q 9.328125 -21.046875 6.203125 -19.96875 
z
" id="ArialMT-121"/>
      </defs>
      <use xlink:href="#ArialMT-82"/>
      <use x="72.216797" xlink:href="#ArialMT-78"/>
      <use x="144.433594" xlink:href="#ArialMT-78"/>
      <use x="216.650391" xlink:href="#ArialMT-32"/>
      <use x="244.433594" xlink:href="#ArialMT-76"/>
      <use x="300.048828" xlink:href="#ArialMT-97"/>
      <use x="355.664062" xlink:href="#ArialMT-121"/>
      <use x="405.664062" xlink:href="#ArialMT-101"/>
      <use x="461.279297" xlink:href="#ArialMT-114"/>
      <use x="494.580078" xlink:href="#ArialMT-115"/>
     </g>
    </g>
   </g>
   <g id="matplotlib.axis_2">
    <g id="ytick_1">
     <g id="line2d_4">
      <path clip-path="url(#pef42f5adf3)" d="M 72 316.154324 
L 518.4 316.154324 
" style="fill:none;stroke:#ffffff;stroke-linecap:round;"/>
     </g>
     <g id="text_5">
      <!-- 0.05 -->
      <g style="fill:#262626;" transform="translate(19.685938 324.027918)scale(0.22 -0.22)">
       <defs>
        <path d="M 4.15625 35.296875 
Q 4.15625 48 6.765625 55.734375 
Q 9.375 63.484375 14.515625 67.671875 
Q 19.671875 71.875 27.484375 71.875 
Q 33.25 71.875 37.59375 69.546875 
Q 41.9375 67.234375 44.765625 62.859375 
Q 47.609375 58.5 49.21875 52.21875 
Q 50.828125 45.953125 50.828125 35.296875 
Q 50.828125 22.703125 48.234375 14.96875 
Q 45.65625 7.234375 40.5 3 
Q 35.359375 -1.21875 27.484375 -1.21875 
Q 17.140625 -1.21875 11.234375 6.203125 
Q 4.15625 15.140625 4.15625 35.296875 
z
M 13.1875 35.296875 
Q 13.1875 17.671875 17.3125 11.828125 
Q 21.4375 6 27.484375 6 
Q 33.546875 6 37.671875 11.859375 
Q 41.796875 17.71875 41.796875 35.296875 
Q 41.796875 52.984375 37.671875 58.78125 
Q 33.546875 64.59375 27.390625 64.59375 
Q 21.34375 64.59375 17.71875 59.46875 
Q 13.1875 52.9375 13.1875 35.296875 
z
" id="ArialMT-48"/>
        <path d="M 9.078125 0 
L 9.078125 10.015625 
L 19.09375 10.015625 
L 19.09375 0 
z
" id="ArialMT-46"/>
        <path d="M 4.15625 18.75 
L 13.375 19.53125 
Q 14.40625 12.796875 18.140625 9.390625 
Q 21.875 6 27.15625 6 
Q 33.5 6 37.890625 10.78125 
Q 42.28125 15.578125 42.28125 23.484375 
Q 42.28125 31 38.0625 35.34375 
Q 33.84375 39.703125 27 39.703125 
Q 22.75 39.703125 19.328125 37.765625 
Q 15.921875 35.84375 13.96875 32.765625 
L 5.71875 33.84375 
L 12.640625 70.609375 
L 48.25 70.609375 
L 48.25 62.203125 
L 19.671875 62.203125 
L 15.828125 42.96875 
Q 22.265625 47.46875 29.34375 47.46875 
Q 38.71875 47.46875 45.15625 40.96875 
Q 51.609375 34.46875 51.609375 24.265625 
Q 51.609375 14.546875 45.953125 7.46875 
Q 39.0625 -1.21875 27.15625 -1.21875 
Q 17.390625 -1.21875 11.203125 4.25 
Q 5.03125 9.71875 4.15625 18.75 
z
" id="ArialMT-53"/>
       </defs>
       <use xlink:href="#ArialMT-48"/>
       <use x="55.615234" xlink:href="#ArialMT-46"/>
       <use x="83.398438" xlink:href="#ArialMT-48"/>
       <use x="139.013672" xlink:href="#ArialMT-53"/>
      </g>
     </g>
    </g>
    <g id="ytick_2">
     <g id="line2d_5">
      <path clip-path="url(#pef42f5adf3)" d="M 72 245.697008 
L 518.4 245.697008 
" style="fill:none;stroke:#ffffff;stroke-linecap:round;"/>
     </g>
     <g id="text_6">
      <!-- 0.10 -->
      <g style="fill:#262626;" transform="translate(19.685938 253.570602)scale(0.22 -0.22)">
       <defs>
        <path d="M 37.25 0 
L 28.46875 0 
L 28.46875 56 
Q 25.296875 52.984375 20.140625 49.953125 
Q 14.984375 46.921875 10.890625 45.40625 
L 10.890625 53.90625 
Q 18.265625 57.375 23.78125 62.296875 
Q 29.296875 67.234375 31.59375 71.875 
L 37.25 71.875 
z
" id="ArialMT-49"/>
       </defs>
       <use xlink:href="#ArialMT-48"/>
       <use x="55.615234" xlink:href="#ArialMT-46"/>
       <use x="83.398438" xlink:href="#ArialMT-49"/>
       <use x="139.013672" xlink:href="#ArialMT-48"/>
      </g>
     </g>
    </g>
    <g id="ytick_3">
     <g id="line2d_6">
      <path clip-path="url(#pef42f5adf3)" d="M 72 175.239692 
L 518.4 175.239692 
" style="fill:none;stroke:#ffffff;stroke-linecap:round;"/>
     </g>
     <g id="text_7">
      <!-- 0.15 -->
      <g style="fill:#262626;" transform="translate(19.685938 183.113286)scale(0.22 -0.22)">
       <use xlink:href="#ArialMT-48"/>
       <use x="55.615234" xlink:href="#ArialMT-46"/>
       <use x="83.398438" xlink:href="#ArialMT-49"/>
       <use x="139.013672" xlink:href="#ArialMT-53"/>
      </g>
     </g>
    </g>
    <g id="ytick_4">
     <g id="line2d_7">
      <path clip-path="url(#pef42f5adf3)" d="M 72 104.782376 
L 518.4 104.782376 
" style="fill:none;stroke:#ffffff;stroke-linecap:round;"/>
     </g>
     <g id="text_8">
      <!-- 0.20 -->
      <g style="fill:#262626;" transform="translate(19.685938 112.65597)scale(0.22 -0.22)">
       <defs>
        <path d="M 50.34375 8.453125 
L 50.34375 0 
L 3.03125 0 
Q 2.9375 3.171875 4.046875 6.109375 
Q 5.859375 10.9375 9.828125 15.625 
Q 13.8125 20.3125 21.34375 26.46875 
Q 33.015625 36.03125 37.109375 41.625 
Q 41.21875 47.21875 41.21875 52.203125 
Q 41.21875 57.421875 37.46875 61 
Q 33.734375 64.59375 27.734375 64.59375 
Q 21.390625 64.59375 17.578125 60.78125 
Q 13.765625 56.984375 13.71875 50.25 
L 4.6875 51.171875 
Q 5.609375 61.28125 11.65625 66.578125 
Q 17.71875 71.875 27.9375 71.875 
Q 38.234375 71.875 44.234375 66.15625 
Q 50.25 60.453125 50.25 52 
Q 50.25 47.703125 48.484375 43.546875 
Q 46.734375 39.40625 42.65625 34.8125 
Q 38.578125 30.21875 29.109375 22.21875 
Q 21.1875 15.578125 18.9375 13.203125 
Q 16.703125 10.84375 15.234375 8.453125 
z
" id="ArialMT-50"/>
       </defs>
       <use xlink:href="#ArialMT-48"/>
       <use x="55.615234" xlink:href="#ArialMT-46"/>
       <use x="83.398438" xlink:href="#ArialMT-50"/>
       <use x="139.013672" xlink:href="#ArialMT-48"/>
      </g>
     </g>
    </g>
    <g id="text_9">
     <!-- Dropout ratio (%) -->
     <g style="fill:#262626;" transform="translate(10.634687 306.279375)rotate(-90)scale(0.24 -0.24)">
      <defs>
       <path d="M 7.71875 0 
L 7.71875 71.578125 
L 32.375 71.578125 
Q 40.71875 71.578125 45.125 70.5625 
Q 51.265625 69.140625 55.609375 65.4375 
Q 61.28125 60.640625 64.078125 53.1875 
Q 66.890625 45.75 66.890625 36.1875 
Q 66.890625 28.03125 64.984375 21.734375 
Q 63.09375 15.4375 60.109375 11.296875 
Q 57.125 7.171875 53.578125 4.796875 
Q 50.046875 2.4375 45.046875 1.21875 
Q 40.046875 0 33.546875 0 
z
M 17.1875 8.453125 
L 32.46875 8.453125 
Q 39.546875 8.453125 43.578125 9.765625 
Q 47.609375 11.078125 50 13.484375 
Q 53.375 16.84375 55.25 22.53125 
Q 57.125 28.21875 57.125 36.328125 
Q 57.125 47.5625 53.4375 53.59375 
Q 49.75 59.625 44.484375 61.671875 
Q 40.671875 63.140625 32.234375 63.140625 
L 17.1875 63.140625 
z
" id="ArialMT-68"/>
       <path d="M 6.59375 -19.875 
L 6.59375 51.859375 
L 14.59375 51.859375 
L 14.59375 45.125 
Q 17.4375 49.078125 21 51.046875 
Q 24.5625 53.03125 29.640625 53.03125 
Q 36.28125 53.03125 41.359375 49.609375 
Q 46.4375 46.1875 49.015625 39.953125 
Q 51.609375 33.734375 51.609375 26.3125 
Q 51.609375 18.359375 48.75 11.984375 
Q 45.90625 5.609375 40.453125 2.21875 
Q 35.015625 -1.171875 29 -1.171875 
Q 24.609375 -1.171875 21.109375 0.6875 
Q 17.625 2.546875 15.375 5.375 
L 15.375 -19.875 
z
M 14.546875 25.640625 
Q 14.546875 15.625 18.59375 10.84375 
Q 22.65625 6.0625 28.421875 6.0625 
Q 34.28125 6.0625 38.453125 11.015625 
Q 42.625 15.96875 42.625 26.375 
Q 42.625 36.28125 38.546875 41.203125 
Q 34.46875 46.140625 28.8125 46.140625 
Q 23.1875 46.140625 18.859375 40.890625 
Q 14.546875 35.640625 14.546875 25.640625 
z
" id="ArialMT-112"/>
       <path d="M 40.578125 0 
L 40.578125 7.625 
Q 34.515625 -1.171875 24.125 -1.171875 
Q 19.53125 -1.171875 15.546875 0.578125 
Q 11.578125 2.34375 9.640625 5 
Q 7.71875 7.671875 6.9375 11.53125 
Q 6.390625 14.109375 6.390625 19.734375 
L 6.390625 51.859375 
L 15.1875 51.859375 
L 15.1875 23.09375 
Q 15.1875 16.21875 15.71875 13.8125 
Q 16.546875 10.359375 19.234375 8.375 
Q 21.921875 6.390625 25.875 6.390625 
Q 29.828125 6.390625 33.296875 8.421875 
Q 36.765625 10.453125 38.203125 13.9375 
Q 39.65625 17.4375 39.65625 24.078125 
L 39.65625 51.859375 
L 48.4375 51.859375 
L 48.4375 0 
z
" id="ArialMT-117"/>
       <path d="M 23.390625 -21.046875 
Q 16.109375 -11.859375 11.078125 0.4375 
Q 6.0625 12.75 6.0625 25.921875 
Q 6.0625 37.546875 9.8125 48.1875 
Q 14.203125 60.546875 23.390625 72.796875 
L 29.6875 72.796875 
Q 23.78125 62.640625 21.875 58.296875 
Q 18.890625 51.5625 17.1875 44.234375 
Q 15.09375 35.109375 15.09375 25.875 
Q 15.09375 2.390625 29.6875 -21.046875 
z
" id="ArialMT-40"/>
       <path d="M 5.8125 54.390625 
Q 5.8125 62.0625 9.671875 67.421875 
Q 13.53125 72.796875 20.84375 72.796875 
Q 27.59375 72.796875 32 67.984375 
Q 36.421875 63.1875 36.421875 53.859375 
Q 36.421875 44.78125 31.953125 39.875 
Q 27.484375 34.96875 20.953125 34.96875 
Q 14.453125 34.96875 10.125 39.796875 
Q 5.8125 44.625 5.8125 54.390625 
z
M 21.09375 66.75 
Q 17.828125 66.75 15.65625 63.90625 
Q 13.484375 61.078125 13.484375 53.515625 
Q 13.484375 46.625 15.671875 43.8125 
Q 17.875 41.015625 21.09375 41.015625 
Q 24.421875 41.015625 26.59375 43.84375 
Q 28.765625 46.6875 28.765625 54.203125 
Q 28.765625 61.140625 26.5625 63.9375 
Q 24.359375 66.75 21.09375 66.75 
z
M 21.140625 -2.640625 
L 60.296875 72.796875 
L 67.4375 72.796875 
L 28.421875 -2.640625 
z
M 52.09375 16.796875 
Q 52.09375 24.515625 55.953125 29.859375 
Q 59.8125 35.203125 67.1875 35.203125 
Q 73.921875 35.203125 78.34375 30.390625 
Q 82.765625 25.59375 82.765625 16.265625 
Q 82.765625 7.171875 78.296875 2.265625 
Q 73.828125 -2.640625 67.234375 -2.640625 
Q 60.75 -2.640625 56.421875 2.21875 
Q 52.09375 7.078125 52.09375 16.796875 
z
M 67.4375 29.15625 
Q 64.109375 29.15625 61.9375 26.3125 
Q 59.765625 23.484375 59.765625 15.921875 
Q 59.765625 9.078125 61.953125 6.25 
Q 64.15625 3.421875 67.390625 3.421875 
Q 70.75 3.421875 72.921875 6.25 
Q 75.09375 9.078125 75.09375 16.609375 
Q 75.09375 23.53125 72.890625 26.34375 
Q 70.703125 29.15625 67.4375 29.15625 
z
" id="ArialMT-37"/>
       <path d="M 12.359375 -21.046875 
L 6.0625 -21.046875 
Q 20.65625 2.390625 20.65625 25.875 
Q 20.65625 35.0625 18.5625 44.09375 
Q 16.890625 51.421875 13.921875 58.15625 
Q 12.015625 62.546875 6.0625 72.796875 
L 12.359375 72.796875 
Q 21.53125 60.546875 25.921875 48.1875 
Q 29.6875 37.546875 29.6875 25.921875 
Q 29.6875 12.75 24.625 0.4375 
Q 19.578125 -11.859375 12.359375 -21.046875 
z
" id="ArialMT-41"/>
      </defs>
      <use xlink:href="#ArialMT-68"/>
      <use x="72.216797" xlink:href="#ArialMT-114"/>
      <use x="105.517578" xlink:href="#ArialMT-111"/>
      <use x="161.132812" xlink:href="#ArialMT-112"/>
      <use x="216.748047" xlink:href="#ArialMT-111"/>
      <use x="272.363281" xlink:href="#ArialMT-117"/>
      <use x="327.978516" xlink:href="#ArialMT-116"/>
      <use x="355.761719" xlink:href="#ArialMT-32"/>
      <use x="383.544922" xlink:href="#ArialMT-114"/>
      <use x="416.845703" xlink:href="#ArialMT-97"/>
      <use x="472.460938" xlink:href="#ArialMT-116"/>
      <use x="500.244141" xlink:href="#ArialMT-105"/>
      <use x="522.460938" xlink:href="#ArialMT-111"/>
      <use x="578.076172" xlink:href="#ArialMT-32"/>
      <use x="605.859375" xlink:href="#ArialMT-40"/>
      <use x="639.160156" xlink:href="#ArialMT-37"/>
      <use x="728.076172" xlink:href="#ArialMT-41"/>
     </g>
    </g>
   </g>
   <g id="PolyCollection_1">
    <defs>
     <path d="M 169.970787 -68.825455 
L 95.774667 -68.825455 
L 95.313048 -71.612446 
L 94.883169 -74.399437 
L 94.485652 -77.186429 
L 94.120988 -79.97342 
L 93.789542 -82.760411 
L 93.491544 -85.547403 
L 93.227097 -88.334394 
L 92.996176 -91.121385 
L 92.798628 -93.908377 
L 92.634181 -96.695368 
L 92.502443 -99.482359 
L 92.402908 -102.269351 
L 92.334966 -105.056342 
L 92.297902 -107.843334 
L 92.290909 -110.630325 
L 92.313093 -113.417316 
L 92.36348 -116.204308 
L 92.441025 -118.991299 
L 92.544623 -121.77829 
L 92.673113 -124.565282 
L 92.825288 -127.352273 
L 92.999907 -130.139264 
L 93.1957 -132.926256 
L 93.411377 -135.713247 
L 93.64564 -138.500238 
L 93.897185 -141.28723 
L 94.164713 -144.074221 
L 94.446939 -146.861212 
L 94.742594 -149.648204 
L 95.050436 -152.435195 
L 95.369254 -155.222187 
L 95.69787 -158.009178 
L 96.035149 -160.796169 
L 96.380001 -163.583161 
L 96.73138 -166.370152 
L 97.088294 -169.157143 
L 97.449803 -171.944135 
L 97.81502 -174.731126 
L 98.183115 -177.518117 
L 98.553311 -180.305109 
L 98.92489 -183.0921 
L 99.297186 -185.879091 
L 99.66959 -188.666083 
L 100.041545 -191.453074 
L 100.412546 -194.240065 
L 100.782136 -197.027057 
L 101.149908 -199.814048 
L 101.515499 -202.60104 
L 101.878589 -205.388031 
L 102.238899 -208.175022 
L 102.596187 -210.962014 
L 102.950248 -213.749005 
L 103.300909 -216.535996 
L 103.648028 -219.322988 
L 103.99149 -222.109979 
L 104.331209 -224.89697 
L 104.66712 -227.683962 
L 104.999183 -230.470953 
L 105.327376 -233.257944 
L 105.651699 -236.044936 
L 105.972168 -238.831927 
L 106.288816 -241.618919 
L 106.601692 -244.40591 
L 106.91086 -247.192901 
L 107.216398 -249.979893 
L 107.518398 -252.766884 
L 107.816967 -255.553875 
L 108.112223 -258.340867 
L 108.404298 -261.127858 
L 108.693337 -263.914849 
L 108.979496 -266.701841 
L 109.262946 -269.488832 
L 109.543869 -272.275823 
L 109.822459 -275.062815 
L 110.09892 -277.849806 
L 110.37347 -280.636797 
L 110.646336 -283.423789 
L 110.917755 -286.21078 
L 111.187973 -288.997772 
L 111.457245 -291.784763 
L 111.725832 -294.571754 
L 111.994 -297.358746 
L 112.262022 -300.145737 
L 112.53017 -302.932728 
L 112.798719 -305.71972 
L 113.067942 -308.506711 
L 113.338111 -311.293702 
L 113.609491 -314.080694 
L 113.882339 -316.867685 
L 114.156905 -319.654676 
L 114.433426 -322.441668 
L 114.712124 -325.228659 
L 114.993208 -328.01565 
L 115.276866 -330.802642 
L 115.563266 -333.589633 
L 115.852554 -336.376625 
L 116.144853 -339.163616 
L 116.440259 -341.950607 
L 116.738841 -344.737599 
L 149.006614 -344.737599 
L 149.006614 -344.737599 
L 149.305195 -341.950607 
L 149.600601 -339.163616 
L 149.8929 -336.376625 
L 150.182189 -333.589633 
L 150.468589 -330.802642 
L 150.752247 -328.01565 
L 151.03333 -325.228659 
L 151.312029 -322.441668 
L 151.58855 -319.654676 
L 151.863116 -316.867685 
L 152.135964 -314.080694 
L 152.407343 -311.293702 
L 152.677512 -308.506711 
L 152.946736 -305.71972 
L 153.215285 -302.932728 
L 153.483433 -300.145737 
L 153.751454 -297.358746 
L 154.019623 -294.571754 
L 154.288209 -291.784763 
L 154.557481 -288.997772 
L 154.827699 -286.21078 
L 155.099118 -283.423789 
L 155.371984 -280.636797 
L 155.646535 -277.849806 
L 155.922996 -275.062815 
L 156.201585 -272.275823 
L 156.482508 -269.488832 
L 156.765958 -266.701841 
L 157.052118 -263.914849 
L 157.341157 -261.127858 
L 157.633232 -258.340867 
L 157.928487 -255.553875 
L 158.227056 -252.766884 
L 158.529057 -249.979893 
L 158.834595 -247.192901 
L 159.143763 -244.40591 
L 159.456638 -241.618919 
L 159.773286 -238.831927 
L 160.093755 -236.044936 
L 160.418078 -233.257944 
L 160.746272 -230.470953 
L 161.078334 -227.683962 
L 161.414246 -224.89697 
L 161.753964 -222.109979 
L 162.097427 -219.322988 
L 162.444545 -216.535996 
L 162.795206 -213.749005 
L 163.149267 -210.962014 
L 163.506556 -208.175022 
L 163.866866 -205.388031 
L 164.229956 -202.60104 
L 164.595546 -199.814048 
L 164.963318 -197.027057 
L 165.332909 -194.240065 
L 165.703909 -191.453074 
L 166.075864 -188.666083 
L 166.448269 -185.879091 
L 166.820565 -183.0921 
L 167.192144 -180.305109 
L 167.56234 -177.518117 
L 167.930434 -174.731126 
L 168.295651 -171.944135 
L 168.65716 -169.157143 
L 169.014075 -166.370152 
L 169.365454 -163.583161 
L 169.710305 -160.796169 
L 170.047584 -158.009178 
L 170.376201 -155.222187 
L 170.695018 -152.435195 
L 171.00286 -149.648204 
L 171.298516 -146.861212 
L 171.580741 -144.074221 
L 171.84827 -141.28723 
L 172.099814 -138.500238 
L 172.334077 -135.713247 
L 172.549755 -132.926256 
L 172.745548 -130.139264 
L 172.920167 -127.352273 
L 173.072342 -124.565282 
L 173.200831 -121.77829 
L 173.304429 -118.991299 
L 173.381975 -116.204308 
L 173.432362 -113.417316 
L 173.454545 -110.630325 
L 173.447553 -107.843334 
L 173.410489 -105.056342 
L 173.342546 -102.269351 
L 173.243012 -99.482359 
L 173.111274 -96.695368 
L 172.946826 -93.908377 
L 172.749279 -91.121385 
L 172.518357 -88.334394 
L 172.253911 -85.547403 
L 171.955913 -82.760411 
L 171.624466 -79.97342 
L 171.259803 -77.186429 
L 170.862285 -74.399437 
L 170.432406 -71.612446 
L 169.970787 -68.825455 
z
" id="maa5b41b18f" style="stroke:#ffffff;stroke-opacity:0.3;"/>
    </defs>
    <g clip-path="url(#pef42f5adf3)">
     <use style="fill:#4c72b0;fill-opacity:0.3;stroke:#ffffff;stroke-opacity:0.3;" x="0" xlink:href="#maa5b41b18f" y="432"/>
    </g>
   </g>
   <g id="PolyCollection_2">
    <defs>
     <path d="M 324.092862 -112.974591 
L 266.307138 -112.974591 
L 265.956532 -115.523681 
L 265.621816 -118.072772 
L 265.303247 -120.621862 
L 265.001022 -123.170952 
L 264.715275 -125.720043 
L 264.446085 -128.269133 
L 264.193464 -130.818224 
L 263.957365 -133.367314 
L 263.737679 -135.916405 
L 263.534235 -138.465495 
L 263.346801 -141.014586 
L 263.175084 -143.563676 
L 263.018734 -146.112767 
L 262.87734 -148.661857 
L 262.750438 -151.210947 
L 262.637507 -153.760038 
L 262.537976 -156.309128 
L 262.451223 -158.858219 
L 262.376581 -161.407309 
L 262.313337 -163.9564 
L 262.260736 -166.50549 
L 262.217989 -169.054581 
L 262.184269 -171.603671 
L 262.158721 -174.152762 
L 262.140461 -176.701852 
L 262.128585 -179.250942 
L 262.122168 -181.800033 
L 262.120272 -184.349123 
L 262.121948 -186.898214 
L 262.126241 -189.447304 
L 262.132197 -191.996395 
L 262.138864 -194.545485 
L 262.145297 -197.094576 
L 262.150564 -199.643666 
L 262.153752 -202.192757 
L 262.153966 -204.741847 
L 262.150341 -207.290937 
L 262.14204 -209.840028 
L 262.128262 -212.389118 
L 262.108246 -214.938209 
L 262.081273 -217.487299 
L 262.046672 -220.03639 
L 262.003824 -222.58548 
L 261.952165 -225.134571 
L 261.891189 -227.683661 
L 261.820454 -230.232751 
L 261.739581 -232.781842 
L 261.648259 -235.330932 
L 261.54625 -237.880023 
L 261.433385 -240.429113 
L 261.309572 -242.978204 
L 261.174797 -245.527294 
L 261.029122 -248.076385 
L 260.872687 -250.625475 
L 260.705712 -253.174566 
L 260.528499 -255.723656 
L 260.341427 -258.272746 
L 260.144955 -260.821837 
L 259.939619 -263.370927 
L 259.726034 -265.920018 
L 259.504888 -268.469108 
L 259.276944 -271.018199 
L 259.043033 -273.567289 
L 258.804055 -276.11638 
L 258.560974 -278.66547 
L 258.314814 -281.214561 
L 258.066655 -283.763651 
L 257.817629 -286.312741 
L 257.568916 -288.861832 
L 257.321736 -291.410922 
L 257.077346 -293.960013 
L 256.837035 -296.509103 
L 256.602115 -299.058194 
L 256.373918 -301.607284 
L 256.153786 -304.156375 
L 255.94307 -306.705465 
L 255.743117 -309.254556 
L 255.555268 -311.803646 
L 255.380849 -314.352736 
L 255.221167 -316.901827 
L 255.077498 -319.450917 
L 254.951085 -322.000008 
L 254.843132 -324.549098 
L 254.754793 -327.098189 
L 254.687171 -329.647279 
L 254.641307 -332.19637 
L 254.618182 -334.74546 
L 254.618702 -337.29455 
L 254.643701 -339.843641 
L 254.693933 -342.392731 
L 254.770069 -344.941822 
L 254.872691 -347.490912 
L 255.002292 -350.040003 
L 255.159272 -352.589093 
L 255.343935 -355.138184 
L 255.556489 -357.687274 
L 255.797041 -360.236365 
L 256.065602 -362.785455 
L 256.362084 -365.334545 
L 334.037916 -365.334545 
L 334.037916 -365.334545 
L 334.334398 -362.785455 
L 334.602959 -360.236365 
L 334.843511 -357.687274 
L 335.056065 -355.138184 
L 335.240728 -352.589093 
L 335.397708 -350.040003 
L 335.527309 -347.490912 
L 335.629931 -344.941822 
L 335.706067 -342.392731 
L 335.756299 -339.843641 
L 335.781298 -337.29455 
L 335.781818 -334.74546 
L 335.758693 -332.19637 
L 335.712829 -329.647279 
L 335.645207 -327.098189 
L 335.556868 -324.549098 
L 335.448915 -322.000008 
L 335.322502 -319.450917 
L 335.178833 -316.901827 
L 335.019151 -314.352736 
L 334.844732 -311.803646 
L 334.656883 -309.254556 
L 334.45693 -306.705465 
L 334.246214 -304.156375 
L 334.026082 -301.607284 
L 333.797885 -299.058194 
L 333.562965 -296.509103 
L 333.322654 -293.960013 
L 333.078264 -291.410922 
L 332.831084 -288.861832 
L 332.582371 -286.312741 
L 332.333345 -283.763651 
L 332.085186 -281.214561 
L 331.839026 -278.66547 
L 331.595945 -276.11638 
L 331.356967 -273.567289 
L 331.123056 -271.018199 
L 330.895112 -268.469108 
L 330.673966 -265.920018 
L 330.460381 -263.370927 
L 330.255045 -260.821837 
L 330.058573 -258.272746 
L 329.871501 -255.723656 
L 329.694288 -253.174566 
L 329.527313 -250.625475 
L 329.370878 -248.076385 
L 329.225203 -245.527294 
L 329.090428 -242.978204 
L 328.966615 -240.429113 
L 328.85375 -237.880023 
L 328.751741 -235.330932 
L 328.660419 -232.781842 
L 328.579546 -230.232751 
L 328.508811 -227.683661 
L 328.447835 -225.134571 
L 328.396176 -222.58548 
L 328.353328 -220.03639 
L 328.318727 -217.487299 
L 328.291754 -214.938209 
L 328.271738 -212.389118 
L 328.25796 -209.840028 
L 328.249659 -207.290937 
L 328.246034 -204.741847 
L 328.246248 -202.192757 
L 328.249436 -199.643666 
L 328.254703 -197.094576 
L 328.261136 -194.545485 
L 328.267803 -191.996395 
L 328.273759 -189.447304 
L 328.278052 -186.898214 
L 328.279728 -184.349123 
L 328.277832 -181.800033 
L 328.271415 -179.250942 
L 328.259539 -176.701852 
L 328.241279 -174.152762 
L 328.215731 -171.603671 
L 328.182011 -169.054581 
L 328.139264 -166.50549 
L 328.086663 -163.9564 
L 328.023419 -161.407309 
L 327.948777 -158.858219 
L 327.862024 -156.309128 
L 327.762493 -153.760038 
L 327.649562 -151.210947 
L 327.52266 -148.661857 
L 327.381266 -146.112767 
L 327.224916 -143.563676 
L 327.053199 -141.014586 
L 326.865765 -138.465495 
L 326.662321 -135.916405 
L 326.442635 -133.367314 
L 326.206536 -130.818224 
L 325.953915 -128.269133 
L 325.684725 -125.720043 
L 325.398978 -123.170952 
L 325.096753 -120.621862 
L 324.778184 -118.072772 
L 324.443468 -115.523681 
L 324.092862 -112.974591 
z
" id="ma2fe8d7a75" style="stroke:#ffffff;stroke-opacity:0.3;"/>
    </defs>
    <g clip-path="url(#pef42f5adf3)">
     <use style="fill:#4c72b0;fill-opacity:0.3;stroke:#ffffff;stroke-opacity:0.3;" x="0" xlink:href="#ma2fe8d7a75" y="432"/>
    </g>
   </g>
   <g id="PolyCollection_3">
    <defs>
     <path d="M 486.294924 -242.682382 
L 428.759621 -242.682382 
L 428.105573 -243.672106 
L 427.462972 -244.66183 
L 426.83281 -245.651554 
L 426.216046 -246.641278 
L 425.613601 -247.631002 
L 425.026361 -248.620726 
L 424.455173 -249.61045 
L 423.90084 -250.600174 
L 423.364128 -251.589898 
L 422.845756 -252.579622 
L 422.346401 -253.569346 
L 421.866695 -254.55907 
L 421.407223 -255.548794 
L 420.968525 -256.538518 
L 420.551094 -257.528242 
L 420.155376 -258.517966 
L 419.781769 -259.507689 
L 419.430623 -260.497413 
L 419.102241 -261.487137 
L 418.796874 -262.476861 
L 418.514726 -263.466585 
L 418.255952 -264.456309 
L 418.020655 -265.446033 
L 417.808889 -266.435757 
L 417.620656 -267.425481 
L 417.45591 -268.415205 
L 417.314551 -269.404929 
L 417.196427 -270.394653 
L 417.101337 -271.384377 
L 417.029025 -272.374101 
L 416.979187 -273.363825 
L 416.951466 -274.353549 
L 416.945455 -275.343273 
L 416.960695 -276.332996 
L 416.996682 -277.32272 
L 417.052862 -278.312444 
L 417.128636 -279.302168 
L 417.223359 -280.291892 
L 417.336346 -281.281616 
L 417.466875 -282.27134 
L 417.614182 -283.261064 
L 417.777477 -284.250788 
L 417.955935 -285.240512 
L 418.14871 -286.230236 
L 418.354933 -287.21996 
L 418.57372 -288.209684 
L 418.804174 -289.199408 
L 419.045394 -290.189132 
L 419.296477 -291.178856 
L 419.556526 -292.16858 
L 419.824652 -293.158303 
L 420.099985 -294.148027 
L 420.381673 -295.137751 
L 420.668895 -296.127475 
L 420.960859 -297.117199 
L 421.256813 -298.106923 
L 421.556048 -299.096647 
L 421.8579 -300.086371 
L 422.161759 -301.076095 
L 422.46707 -302.065819 
L 422.773337 -303.055543 
L 423.080127 -304.045267 
L 423.38707 -305.034991 
L 423.693863 -306.024715 
L 424.000269 -307.014439 
L 424.306122 -308.004163 
L 424.611322 -308.993887 
L 424.915835 -309.98361 
L 425.219695 -310.973334 
L 425.522998 -311.963058 
L 425.825902 -312.952782 
L 426.128623 -313.942506 
L 426.431432 -314.93223 
L 426.734647 -315.921954 
L 427.038634 -316.911678 
L 427.343797 -317.901402 
L 427.650576 -318.891126 
L 427.959437 -319.88085 
L 428.270869 -320.870574 
L 428.585379 -321.860298 
L 428.90348 -322.850022 
L 429.22569 -323.839746 
L 429.552523 -324.82947 
L 429.884481 -325.819194 
L 430.222052 -326.808917 
L 430.565699 -327.798641 
L 430.915859 -328.788365 
L 431.272932 -329.778089 
L 431.637281 -330.767813 
L 432.009225 -331.757537 
L 432.389032 -332.747261 
L 432.776923 -333.736985 
L 433.173058 -334.726709 
L 433.577542 -335.716433 
L 433.99042 -336.706157 
L 434.411674 -337.695881 
L 434.841223 -338.685605 
L 435.278926 -339.675329 
L 435.724574 -340.665053 
L 479.329972 -340.665053 
L 479.329972 -340.665053 
L 479.77562 -339.675329 
L 480.213322 -338.685605 
L 480.642872 -337.695881 
L 481.064126 -336.706157 
L 481.477004 -335.716433 
L 481.881488 -334.726709 
L 482.277623 -333.736985 
L 482.665513 -332.747261 
L 483.045321 -331.757537 
L 483.417264 -330.767813 
L 483.781614 -329.778089 
L 484.138687 -328.788365 
L 484.488846 -327.798641 
L 484.832494 -326.808917 
L 485.170064 -325.819194 
L 485.502023 -324.82947 
L 485.828855 -323.839746 
L 486.151065 -322.850022 
L 486.469166 -321.860298 
L 486.783676 -320.870574 
L 487.095109 -319.88085 
L 487.40397 -318.891126 
L 487.710748 -317.901402 
L 488.015912 -316.911678 
L 488.319899 -315.921954 
L 488.623114 -314.93223 
L 488.925922 -313.942506 
L 489.228644 -312.952782 
L 489.531548 -311.963058 
L 489.834851 -310.973334 
L 490.138711 -309.98361 
L 490.443224 -308.993887 
L 490.748423 -308.004163 
L 491.054276 -307.014439 
L 491.360683 -306.024715 
L 491.667475 -305.034991 
L 491.974418 -304.045267 
L 492.281208 -303.055543 
L 492.587475 -302.065819 
L 492.892787 -301.076095 
L 493.196646 -300.086371 
L 493.498498 -299.096647 
L 493.797732 -298.106923 
L 494.093686 -297.117199 
L 494.38565 -296.127475 
L 494.672872 -295.137751 
L 494.954561 -294.148027 
L 495.229893 -293.158303 
L 495.49802 -292.16858 
L 495.758068 -291.178856 
L 496.009152 -290.189132 
L 496.250372 -289.199408 
L 496.480826 -288.209684 
L 496.699612 -287.21996 
L 496.905835 -286.230236 
L 497.09861 -285.240512 
L 497.277069 -284.250788 
L 497.440363 -283.261064 
L 497.587671 -282.27134 
L 497.718199 -281.281616 
L 497.831187 -280.291892 
L 497.92591 -279.302168 
L 498.001683 -278.312444 
L 498.057863 -277.32272 
L 498.09385 -276.332996 
L 498.109091 -275.343273 
L 498.103079 -274.353549 
L 498.075358 -273.363825 
L 498.02552 -272.374101 
L 497.953209 -271.384377 
L 497.858118 -270.394653 
L 497.739995 -269.404929 
L 497.598635 -268.415205 
L 497.433889 -267.425481 
L 497.245657 -266.435757 
L 497.033891 -265.446033 
L 496.798594 -264.456309 
L 496.539819 -263.466585 
L 496.257672 -262.476861 
L 495.952305 -261.487137 
L 495.623922 -260.497413 
L 495.272776 -259.507689 
L 494.89917 -258.517966 
L 494.503452 -257.528242 
L 494.086021 -256.538518 
L 493.647323 -255.548794 
L 493.187851 -254.55907 
L 492.708144 -253.569346 
L 492.208789 -252.579622 
L 491.690417 -251.589898 
L 491.153705 -250.600174 
L 490.599373 -249.61045 
L 490.028184 -248.620726 
L 489.440944 -247.631002 
L 488.8385 -246.641278 
L 488.221735 -245.651554 
L 487.591574 -244.66183 
L 486.948973 -243.672106 
L 486.294924 -242.682382 
z
" id="m8e06120636" style="stroke:#ffffff;stroke-opacity:0.3;"/>
    </defs>
    <g clip-path="url(#pef42f5adf3)">
     <use style="fill:#4c72b0;fill-opacity:0.3;stroke:#ffffff;stroke-opacity:0.3;" x="0" xlink:href="#m8e06120636" y="432"/>
    </g>
   </g>
   <g id="LineCollection_1">
    <path clip-path="url(#pef42f5adf3)" d="M 112.581818 87.262401 
L 153.163636 87.262401 
" style="fill:none;stroke:#4c72b0;stroke-width:1.5;"/>
    <path clip-path="url(#pef42f5adf3)" d="M 274.909091 66.665455 
L 315.490909 66.665455 
" style="fill:none;stroke:#4c72b0;stroke-width:1.5;"/>
    <path clip-path="url(#pef42f5adf3)" d="M 437.236364 91.334947 
L 477.818182 91.334947 
" style="fill:none;stroke:#4c72b0;stroke-width:1.5;"/>
   </g>
   <g id="LineCollection_2">
    <path clip-path="url(#pef42f5adf3)" d="M 112.581818 363.174545 
L 153.163636 363.174545 
" style="fill:none;stroke:#4c72b0;stroke-width:1.5;"/>
    <path clip-path="url(#pef42f5adf3)" d="M 274.909091 319.025409 
L 315.490909 319.025409 
" style="fill:none;stroke:#4c72b0;stroke-width:1.5;"/>
    <path clip-path="url(#pef42f5adf3)" d="M 437.236364 189.317618 
L 477.818182 189.317618 
" style="fill:none;stroke:#4c72b0;stroke-width:1.5;"/>
   </g>
   <g id="LineCollection_3">
    <path clip-path="url(#pef42f5adf3)" d="M 132.872727 363.174545 
L 132.872727 87.262401 
" style="fill:none;stroke:#4c72b0;stroke-width:1.5;"/>
    <path clip-path="url(#pef42f5adf3)" d="M 295.2 319.025409 
L 295.2 66.665455 
" style="fill:none;stroke:#4c72b0;stroke-width:1.5;"/>
    <path clip-path="url(#pef42f5adf3)" d="M 457.527273 189.317618 
L 457.527273 91.334947 
" style="fill:none;stroke:#4c72b0;stroke-width:1.5;"/>
   </g>
   <g id="LineCollection_4">
    <path clip-path="url(#pef42f5adf3)" d="M 112.581818 298.804259 
L 153.163636 298.804259 
" style="fill:none;stroke:#4c72b0;stroke-width:1.5;"/>
    <path clip-path="url(#pef42f5adf3)" d="M 274.909091 149.148554 
L 315.490909 149.148554 
" style="fill:none;stroke:#4c72b0;stroke-width:1.5;"/>
    <path clip-path="url(#pef42f5adf3)" d="M 437.236364 148.783596 
L 477.818182 148.783596 
" style="fill:none;stroke:#4c72b0;stroke-width:1.5;"/>
   </g>
   <g id="patch_3">
    <path d="M 72 378 
L 72 51.84 
" style="fill:none;stroke:#ffffff;stroke-linecap:square;stroke-linejoin:miter;stroke-width:1.25;"/>
   </g>
   <g id="patch_4">
    <path d="M 518.4 378 
L 518.4 51.84 
" style="fill:none;stroke:#ffffff;stroke-linecap:square;stroke-linejoin:miter;stroke-width:1.25;"/>
   </g>
   <g id="patch_5">
    <path d="M 72 378 
L 518.4 378 
" style="fill:none;stroke:#ffffff;stroke-linecap:square;stroke-linejoin:miter;stroke-width:1.25;"/>
   </g>
   <g id="patch_6">
    <path d="M 72 51.84 
L 518.4 51.84 
" style="fill:none;stroke:#ffffff;stroke-linecap:square;stroke-linejoin:miter;stroke-width:1.25;"/>
   </g>
   <g id="text_10">
    <!-- Dropout ratio: Island DNN (top 6 models) -->
    <g style="fill:#262626;" transform="translate(77.79 45.84)scale(0.24 -0.24)">
     <defs>
      <path d="M 9.03125 41.84375 
L 9.03125 51.859375 
L 19.046875 51.859375 
L 19.046875 41.84375 
z
M 9.03125 0 
L 9.03125 10.015625 
L 19.046875 10.015625 
L 19.046875 0 
z
" id="ArialMT-58"/>
      <path d="M 9.328125 0 
L 9.328125 71.578125 
L 18.796875 71.578125 
L 18.796875 0 
z
" id="ArialMT-73"/>
      <path d="M 6.390625 0 
L 6.390625 71.578125 
L 15.1875 71.578125 
L 15.1875 0 
z
" id="ArialMT-108"/>
      <path d="M 49.75 54.046875 
L 41.015625 53.375 
Q 39.84375 58.546875 37.703125 60.890625 
Q 34.125 64.65625 28.90625 64.65625 
Q 24.703125 64.65625 21.53125 62.3125 
Q 17.390625 59.28125 14.984375 53.46875 
Q 12.59375 47.65625 12.5 36.921875 
Q 15.671875 41.75 20.265625 44.09375 
Q 24.859375 46.4375 29.890625 46.4375 
Q 38.671875 46.4375 44.84375 39.96875 
Q 51.03125 33.5 51.03125 23.25 
Q 51.03125 16.5 48.125 10.71875 
Q 45.21875 4.9375 40.140625 1.859375 
Q 35.0625 -1.21875 28.609375 -1.21875 
Q 17.625 -1.21875 10.6875 6.859375 
Q 3.765625 14.9375 3.765625 33.5 
Q 3.765625 54.25 11.421875 63.671875 
Q 18.109375 71.875 29.4375 71.875 
Q 37.890625 71.875 43.28125 67.140625 
Q 48.6875 62.40625 49.75 54.046875 
z
M 13.875 23.1875 
Q 13.875 18.65625 15.796875 14.5 
Q 17.71875 10.359375 21.1875 8.171875 
Q 24.65625 6 28.46875 6 
Q 34.03125 6 38.03125 10.484375 
Q 42.046875 14.984375 42.046875 22.703125 
Q 42.046875 30.125 38.078125 34.390625 
Q 34.125 38.671875 28.125 38.671875 
Q 22.171875 38.671875 18.015625 34.390625 
Q 13.875 30.125 13.875 23.1875 
z
" id="ArialMT-54"/>
      <path d="M 6.59375 0 
L 6.59375 51.859375 
L 14.453125 51.859375 
L 14.453125 44.578125 
Q 16.890625 48.390625 20.9375 50.703125 
Q 25 53.03125 30.171875 53.03125 
Q 35.9375 53.03125 39.625 50.640625 
Q 43.3125 48.25 44.828125 43.953125 
Q 50.984375 53.03125 60.84375 53.03125 
Q 68.5625 53.03125 72.703125 48.75 
Q 76.859375 44.484375 76.859375 35.59375 
L 76.859375 0 
L 68.109375 0 
L 68.109375 32.671875 
Q 68.109375 37.9375 67.25 40.25 
Q 66.40625 42.578125 64.15625 43.984375 
Q 61.921875 45.40625 58.890625 45.40625 
Q 53.421875 45.40625 49.796875 41.765625 
Q 46.1875 38.140625 46.1875 30.125 
L 46.1875 0 
L 37.40625 0 
L 37.40625 33.6875 
Q 37.40625 39.546875 35.25 42.46875 
Q 33.109375 45.40625 28.21875 45.40625 
Q 24.515625 45.40625 21.359375 43.453125 
Q 18.21875 41.5 16.796875 37.734375 
Q 15.375 33.984375 15.375 26.90625 
L 15.375 0 
z
" id="ArialMT-109"/>
     </defs>
     <use xlink:href="#ArialMT-68"/>
     <use x="72.216797" xlink:href="#ArialMT-114"/>
     <use x="105.517578" xlink:href="#ArialMT-111"/>
     <use x="161.132812" xlink:href="#ArialMT-112"/>
     <use x="216.748047" xlink:href="#ArialMT-111"/>
     <use x="272.363281" xlink:href="#ArialMT-117"/>
     <use x="327.978516" xlink:href="#ArialMT-116"/>
     <use x="355.761719" xlink:href="#ArialMT-32"/>
     <use x="383.544922" xlink:href="#ArialMT-114"/>
     <use x="416.845703" xlink:href="#ArialMT-97"/>
     <use x="472.460938" xlink:href="#ArialMT-116"/>
     <use x="500.244141" xlink:href="#ArialMT-105"/>
     <use x="522.460938" xlink:href="#ArialMT-111"/>
     <use x="578.076172" xlink:href="#ArialMT-58"/>
     <use x="605.859375" xlink:href="#ArialMT-32"/>
     <use x="633.642578" xlink:href="#ArialMT-73"/>
     <use x="661.425781" xlink:href="#ArialMT-115"/>
     <use x="711.425781" xlink:href="#ArialMT-108"/>
     <use x="733.642578" xlink:href="#ArialMT-97"/>
     <use x="789.257812" xlink:href="#ArialMT-110"/>
     <use x="844.873047" xlink:href="#ArialMT-100"/>
     <use x="900.488281" xlink:href="#ArialMT-32"/>
     <use x="928.271484" xlink:href="#ArialMT-68"/>
     <use x="1000.488281" xlink:href="#ArialMT-78"/>
     <use x="1072.705078" xlink:href="#ArialMT-78"/>
     <use x="1144.921875" xlink:href="#ArialMT-32"/>
     <use x="1172.705078" xlink:href="#ArialMT-40"/>
     <use x="1206.005859" xlink:href="#ArialMT-116"/>
     <use x="1233.789062" xlink:href="#ArialMT-111"/>
     <use x="1289.404297" xlink:href="#ArialMT-112"/>
     <use x="1345.019531" xlink:href="#ArialMT-32"/>
     <use x="1372.802734" xlink:href="#ArialMT-54"/>
     <use x="1428.417969" xlink:href="#ArialMT-32"/>
     <use x="1456.201172" xlink:href="#ArialMT-109"/>
     <use x="1539.501953" xlink:href="#ArialMT-111"/>
     <use x="1595.117188" xlink:href="#ArialMT-100"/>
     <use x="1650.732422" xlink:href="#ArialMT-101"/>
     <use x="1706.347656" xlink:href="#ArialMT-108"/>
     <use x="1728.564453" xlink:href="#ArialMT-115"/>
     <use x="1778.564453" xlink:href="#ArialMT-41"/>
    </g>
   </g>
  </g>
 </g>
 <defs>
  <clipPath id="pef42f5adf3">
   <rect height="326.16" width="446.4" x="72" y="51.84"/>
  </clipPath>
 </defs>
</svg>
