<?xml version="1.0" encoding="utf-8" standalone="no"?>
<!DOCTYPE svg PUBLIC "-//W3C//DTD SVG 1.1//EN"
  "http://www.w3.org/Graphics/SVG/1.1/DTD/svg11.dtd">
<!-- Created with matplotlib (https://matplotlib.org/) -->
<svg height="432pt" version="1.1" viewBox="0 0 576 432" width="576pt" xmlns="http://www.w3.org/2000/svg" xmlns:xlink="http://www.w3.org/1999/xlink">
 <defs>
  <style type="text/css">
*{stroke-linecap:butt;stroke-linejoin:round;white-space:pre;}
  </style>
 </defs>
 <g id="figure_1">
  <g id="patch_1">
   <path d="M 0 432 
L 576 432 
L 576 0 
L 0 0 
z
" style="fill:#ffffff;"/>
  </g>
  <g id="axes_1">
   <g id="patch_2">
    <path d="M 72 378 
L 518.4 378 
L 518.4 51.84 
L 72 51.84 
z
" style="fill:#eaeaf2;"/>
   </g>
   <g id="matplotlib.axis_1">
    <g id="xtick_1">
     <g id="line2d_1">
      <path clip-path="url(#pd8cc938fd9)" d="M 132.872727 378 
L 132.872727 51.84 
" style="fill:none;stroke:#ffffff;stroke-linecap:round;"/>
     </g>
     <g id="text_1">
      <!-- First -->
      <defs>
       <path d="M 8.203125 0 
L 8.203125 71.578125 
L 56.5 71.578125 
L 56.5 63.140625 
L 17.671875 63.140625 
L 17.671875 40.96875 
L 51.265625 40.96875 
L 51.265625 32.515625 
L 17.671875 32.515625 
L 17.671875 0 
z
" id="ArialMT-70"/>
       <path d="M 6.640625 61.46875 
L 6.640625 71.578125 
L 15.4375 71.578125 
L 15.4375 61.46875 
z
M 6.640625 0 
L 6.640625 51.859375 
L 15.4375 51.859375 
L 15.4375 0 
z
" id="ArialMT-105"/>
       <path d="M 6.5 0 
L 6.5 51.859375 
L 14.40625 51.859375 
L 14.40625 44 
Q 17.4375 49.515625 20 51.265625 
Q 22.5625 53.03125 25.640625 53.03125 
Q 30.078125 53.03125 34.671875 50.203125 
L 31.640625 42.046875 
Q 28.421875 43.953125 25.203125 43.953125 
Q 22.3125 43.953125 20.015625 42.21875 
Q 17.71875 40.484375 16.75 37.40625 
Q 15.28125 32.71875 15.28125 27.15625 
L 15.28125 0 
z
" id="ArialMT-114"/>
       <path d="M 3.078125 15.484375 
L 11.765625 16.84375 
Q 12.5 11.625 15.84375 8.84375 
Q 19.1875 6.0625 25.203125 6.0625 
Q 31.25 6.0625 34.171875 8.515625 
Q 37.109375 10.984375 37.109375 14.3125 
Q 37.109375 17.28125 34.515625 19 
Q 32.71875 20.171875 25.53125 21.96875 
Q 15.875 24.421875 12.140625 26.203125 
Q 8.40625 27.984375 6.46875 31.125 
Q 4.546875 34.28125 4.546875 38.09375 
Q 4.546875 41.546875 6.125 44.5 
Q 7.71875 47.46875 10.453125 49.421875 
Q 12.5 50.921875 16.03125 51.96875 
Q 19.578125 53.03125 23.640625 53.03125 
Q 29.734375 53.03125 34.34375 51.265625 
Q 38.96875 49.515625 41.15625 46.5 
Q 43.359375 43.5 44.1875 38.484375 
L 35.59375 37.3125 
Q 35.015625 41.3125 32.203125 43.546875 
Q 29.390625 45.796875 24.265625 45.796875 
Q 18.21875 45.796875 15.625 43.796875 
Q 13.03125 41.796875 13.03125 39.109375 
Q 13.03125 37.40625 14.109375 36.03125 
Q 15.1875 34.625 17.484375 33.6875 
Q 18.796875 33.203125 25.25 31.453125 
Q 34.578125 28.953125 38.25 27.359375 
Q 41.9375 25.78125 44.03125 22.75 
Q 46.140625 19.734375 46.140625 15.234375 
Q 46.140625 10.84375 43.578125 6.953125 
Q 41.015625 3.078125 36.171875 0.953125 
Q 31.34375 -1.171875 25.25 -1.171875 
Q 15.140625 -1.171875 9.84375 3.03125 
Q 4.546875 7.234375 3.078125 15.484375 
z
" id="ArialMT-115"/>
       <path d="M 25.78125 7.859375 
L 27.046875 0.09375 
Q 23.34375 -0.6875 20.40625 -0.6875 
Q 15.625 -0.6875 12.984375 0.828125 
Q 10.359375 2.34375 9.28125 4.8125 
Q 8.203125 7.28125 8.203125 15.1875 
L 8.203125 45.015625 
L 1.765625 45.015625 
L 1.765625 51.859375 
L 8.203125 51.859375 
L 8.203125 64.703125 
L 16.9375 69.96875 
L 16.9375 51.859375 
L 25.78125 51.859375 
L 25.78125 45.015625 
L 16.9375 45.015625 
L 16.9375 14.703125 
Q 16.9375 10.9375 17.40625 9.859375 
Q 17.875 8.796875 18.921875 8.15625 
Q 19.96875 7.515625 21.921875 7.515625 
Q 23.390625 7.515625 25.78125 7.859375 
z
" id="ArialMT-116"/>
      </defs>
      <g style="fill:#262626;" transform="translate(111.491477 403.247187)scale(0.22 -0.22)">
       <use xlink:href="#ArialMT-70"/>
       <use x="61.083984" xlink:href="#ArialMT-105"/>
       <use x="83.300781" xlink:href="#ArialMT-114"/>
       <use x="116.601562" xlink:href="#ArialMT-115"/>
       <use x="166.601562" xlink:href="#ArialMT-116"/>
      </g>
     </g>
    </g>
    <g id="xtick_2">
     <g id="line2d_2">
      <path clip-path="url(#pd8cc938fd9)" d="M 295.2 378 
L 295.2 51.84 
" style="fill:none;stroke:#ffffff;stroke-linecap:round;"/>
     </g>
     <g id="text_2">
      <!-- Second -->
      <defs>
       <path d="M 4.5 23 
L 13.421875 23.78125 
Q 14.0625 18.40625 16.375 14.96875 
Q 18.703125 11.53125 23.578125 9.40625 
Q 28.46875 7.28125 34.578125 7.28125 
Q 39.984375 7.28125 44.140625 8.890625 
Q 48.296875 10.5 50.3125 13.296875 
Q 52.34375 16.109375 52.34375 19.4375 
Q 52.34375 22.796875 50.390625 25.3125 
Q 48.4375 27.828125 43.953125 29.546875 
Q 41.0625 30.671875 31.203125 33.03125 
Q 21.34375 35.40625 17.390625 37.5 
Q 12.25 40.1875 9.734375 44.15625 
Q 7.234375 48.140625 7.234375 53.078125 
Q 7.234375 58.5 10.296875 63.203125 
Q 13.375 67.921875 19.28125 70.359375 
Q 25.203125 72.796875 32.421875 72.796875 
Q 40.375 72.796875 46.453125 70.234375 
Q 52.546875 67.671875 55.8125 62.6875 
Q 59.078125 57.71875 59.328125 51.421875 
L 50.25 50.734375 
Q 49.515625 57.515625 45.28125 60.984375 
Q 41.0625 64.453125 32.8125 64.453125 
Q 24.21875 64.453125 20.28125 61.296875 
Q 16.359375 58.15625 16.359375 53.71875 
Q 16.359375 49.859375 19.140625 47.359375 
Q 21.875 44.875 33.421875 42.265625 
Q 44.96875 39.65625 49.265625 37.703125 
Q 55.515625 34.8125 58.484375 30.390625 
Q 61.46875 25.984375 61.46875 20.21875 
Q 61.46875 14.5 58.203125 9.4375 
Q 54.9375 4.390625 48.796875 1.578125 
Q 42.671875 -1.21875 35.015625 -1.21875 
Q 25.296875 -1.21875 18.71875 1.609375 
Q 12.15625 4.4375 8.421875 10.125 
Q 4.6875 15.828125 4.5 23 
z
" id="ArialMT-83"/>
       <path d="M 42.09375 16.703125 
L 51.171875 15.578125 
Q 49.03125 7.625 43.21875 3.21875 
Q 37.40625 -1.171875 28.375 -1.171875 
Q 17 -1.171875 10.328125 5.828125 
Q 3.65625 12.84375 3.65625 25.484375 
Q 3.65625 38.578125 10.390625 45.796875 
Q 17.140625 53.03125 27.875 53.03125 
Q 38.28125 53.03125 44.875 45.953125 
Q 51.46875 38.875 51.46875 26.03125 
Q 51.46875 25.25 51.421875 23.6875 
L 12.75 23.6875 
Q 13.234375 15.140625 17.578125 10.59375 
Q 21.921875 6.0625 28.421875 6.0625 
Q 33.25 6.0625 36.671875 8.59375 
Q 40.09375 11.140625 42.09375 16.703125 
z
M 13.234375 30.90625 
L 42.1875 30.90625 
Q 41.609375 37.453125 38.875 40.71875 
Q 34.671875 45.796875 27.984375 45.796875 
Q 21.921875 45.796875 17.796875 41.75 
Q 13.671875 37.703125 13.234375 30.90625 
z
" id="ArialMT-101"/>
       <path d="M 40.4375 19 
L 49.078125 17.875 
Q 47.65625 8.9375 41.8125 3.875 
Q 35.984375 -1.171875 27.484375 -1.171875 
Q 16.84375 -1.171875 10.375 5.78125 
Q 3.90625 12.75 3.90625 25.734375 
Q 3.90625 34.125 6.6875 40.421875 
Q 9.46875 46.734375 15.15625 49.875 
Q 20.84375 53.03125 27.546875 53.03125 
Q 35.984375 53.03125 41.359375 48.75 
Q 46.734375 44.484375 48.25 36.625 
L 39.703125 35.296875 
Q 38.484375 40.53125 35.375 43.15625 
Q 32.28125 45.796875 27.875 45.796875 
Q 21.234375 45.796875 17.078125 41.03125 
Q 12.9375 36.28125 12.9375 25.984375 
Q 12.9375 15.53125 16.9375 10.796875 
Q 20.953125 6.0625 27.390625 6.0625 
Q 32.5625 6.0625 36.03125 9.234375 
Q 39.5 12.40625 40.4375 19 
z
" id="ArialMT-99"/>
       <path d="M 3.328125 25.921875 
Q 3.328125 40.328125 11.328125 47.265625 
Q 18.015625 53.03125 27.640625 53.03125 
Q 38.328125 53.03125 45.109375 46.015625 
Q 51.90625 39.015625 51.90625 26.65625 
Q 51.90625 16.65625 48.90625 10.90625 
Q 45.90625 5.171875 40.15625 2 
Q 34.421875 -1.171875 27.640625 -1.171875 
Q 16.75 -1.171875 10.03125 5.8125 
Q 3.328125 12.796875 3.328125 25.921875 
z
M 12.359375 25.921875 
Q 12.359375 15.96875 16.703125 11.015625 
Q 21.046875 6.0625 27.640625 6.0625 
Q 34.1875 6.0625 38.53125 11.03125 
Q 42.875 16.015625 42.875 26.21875 
Q 42.875 35.84375 38.5 40.796875 
Q 34.125 45.75 27.640625 45.75 
Q 21.046875 45.75 16.703125 40.8125 
Q 12.359375 35.890625 12.359375 25.921875 
z
" id="ArialMT-111"/>
       <path d="M 6.59375 0 
L 6.59375 51.859375 
L 14.5 51.859375 
L 14.5 44.484375 
Q 20.21875 53.03125 31 53.03125 
Q 35.6875 53.03125 39.625 51.34375 
Q 43.5625 49.65625 45.515625 46.921875 
Q 47.46875 44.1875 48.25 40.4375 
Q 48.734375 37.984375 48.734375 31.890625 
L 48.734375 0 
L 39.9375 0 
L 39.9375 31.546875 
Q 39.9375 36.921875 38.90625 39.578125 
Q 37.890625 42.234375 35.28125 43.8125 
Q 32.671875 45.40625 29.15625 45.40625 
Q 23.53125 45.40625 19.453125 41.84375 
Q 15.375 38.28125 15.375 28.328125 
L 15.375 0 
z
" id="ArialMT-110"/>
       <path d="M 40.234375 0 
L 40.234375 6.546875 
Q 35.296875 -1.171875 25.734375 -1.171875 
Q 19.53125 -1.171875 14.328125 2.25 
Q 9.125 5.671875 6.265625 11.796875 
Q 3.421875 17.921875 3.421875 25.875 
Q 3.421875 33.640625 6 39.96875 
Q 8.59375 46.296875 13.765625 49.65625 
Q 18.953125 53.03125 25.34375 53.03125 
Q 30.03125 53.03125 33.6875 51.046875 
Q 37.359375 49.078125 39.65625 45.90625 
L 39.65625 71.578125 
L 48.390625 71.578125 
L 48.390625 0 
z
M 12.453125 25.875 
Q 12.453125 15.921875 16.640625 10.984375 
Q 20.84375 6.0625 26.5625 6.0625 
Q 32.328125 6.0625 36.34375 10.765625 
Q 40.375 15.484375 40.375 25.140625 
Q 40.375 35.796875 36.265625 40.765625 
Q 32.171875 45.75 26.171875 45.75 
Q 20.3125 45.75 16.375 40.96875 
Q 12.453125 36.1875 12.453125 25.875 
z
" id="ArialMT-100"/>
      </defs>
      <g style="fill:#262626;" transform="translate(257.894531 403.247187)scale(0.22 -0.22)">
       <use xlink:href="#ArialMT-83"/>
       <use x="66.699219" xlink:href="#ArialMT-101"/>
       <use x="122.314453" xlink:href="#ArialMT-99"/>
       <use x="172.314453" xlink:href="#ArialMT-111"/>
       <use x="227.929688" xlink:href="#ArialMT-110"/>
       <use x="283.544922" xlink:href="#ArialMT-100"/>
      </g>
     </g>
    </g>
    <g id="xtick_3">
     <g id="line2d_3">
      <path clip-path="url(#pd8cc938fd9)" d="M 457.527273 378 
L 457.527273 51.84 
" style="fill:none;stroke:#ffffff;stroke-linecap:round;"/>
     </g>
     <g id="text_3">
      <!-- Third -->
      <defs>
       <path d="M 25.921875 0 
L 25.921875 63.140625 
L 2.34375 63.140625 
L 2.34375 71.578125 
L 59.078125 71.578125 
L 59.078125 63.140625 
L 35.40625 63.140625 
L 35.40625 0 
z
" id="ArialMT-84"/>
       <path d="M 6.59375 0 
L 6.59375 71.578125 
L 15.375 71.578125 
L 15.375 45.90625 
Q 21.53125 53.03125 30.90625 53.03125 
Q 36.671875 53.03125 40.921875 50.75 
Q 45.171875 48.484375 47 44.484375 
Q 48.828125 40.484375 48.828125 32.859375 
L 48.828125 0 
L 40.046875 0 
L 40.046875 32.859375 
Q 40.046875 39.453125 37.1875 42.453125 
Q 34.328125 45.453125 29.109375 45.453125 
Q 25.203125 45.453125 21.75 43.421875 
Q 18.3125 41.40625 16.84375 37.9375 
Q 15.375 34.46875 15.375 28.375 
L 15.375 0 
z
" id="ArialMT-104"/>
      </defs>
      <g style="fill:#262626;" transform="translate(432.467898 403.247187)scale(0.22 -0.22)">
       <use xlink:href="#ArialMT-84"/>
       <use x="61.083984" xlink:href="#ArialMT-104"/>
       <use x="116.699219" xlink:href="#ArialMT-105"/>
       <use x="138.916016" xlink:href="#ArialMT-114"/>
       <use x="172.216797" xlink:href="#ArialMT-100"/>
      </g>
     </g>
    </g>
    <g id="text_4">
     <!-- RNN Layers -->
     <defs>
      <path d="M 7.859375 0 
L 7.859375 71.578125 
L 39.59375 71.578125 
Q 49.171875 71.578125 54.140625 69.640625 
Q 59.125 67.71875 62.109375 62.828125 
Q 65.09375 57.953125 65.09375 52.046875 
Q 65.09375 44.4375 60.15625 39.203125 
Q 55.21875 33.984375 44.921875 32.5625 
Q 48.6875 30.765625 50.640625 29 
Q 54.78125 25.203125 58.5 19.484375 
L 70.953125 0 
L 59.03125 0 
L 49.5625 14.890625 
Q 45.40625 21.34375 42.71875 24.75 
Q 40.046875 28.171875 37.921875 29.53125 
Q 35.796875 30.90625 33.59375 31.453125 
Q 31.984375 31.78125 28.328125 31.78125 
L 17.328125 31.78125 
L 17.328125 0 
z
M 17.328125 39.984375 
L 37.703125 39.984375 
Q 44.1875 39.984375 47.84375 41.328125 
Q 51.515625 42.671875 53.421875 45.625 
Q 55.328125 48.578125 55.328125 52.046875 
Q 55.328125 57.125 51.640625 60.390625 
Q 47.953125 63.671875 39.984375 63.671875 
L 17.328125 63.671875 
z
" id="ArialMT-82"/>
      <path d="M 7.625 0 
L 7.625 71.578125 
L 17.328125 71.578125 
L 54.9375 15.375 
L 54.9375 71.578125 
L 64.015625 71.578125 
L 64.015625 0 
L 54.296875 0 
L 16.703125 56.25 
L 16.703125 0 
z
" id="ArialMT-78"/>
      <path id="ArialMT-32"/>
      <path d="M 7.328125 0 
L 7.328125 71.578125 
L 16.796875 71.578125 
L 16.796875 8.453125 
L 52.046875 8.453125 
L 52.046875 0 
z
" id="ArialMT-76"/>
      <path d="M 40.4375 6.390625 
Q 35.546875 2.25 31.03125 0.53125 
Q 26.515625 -1.171875 21.34375 -1.171875 
Q 12.796875 -1.171875 8.203125 3 
Q 3.609375 7.171875 3.609375 13.671875 
Q 3.609375 17.484375 5.34375 20.625 
Q 7.078125 23.78125 9.890625 25.6875 
Q 12.703125 27.59375 16.21875 28.5625 
Q 18.796875 29.25 24.03125 29.890625 
Q 34.671875 31.15625 39.703125 32.90625 
Q 39.75 34.71875 39.75 35.203125 
Q 39.75 40.578125 37.25 42.78125 
Q 33.890625 45.75 27.25 45.75 
Q 21.046875 45.75 18.09375 43.578125 
Q 15.140625 41.40625 13.71875 35.890625 
L 5.125 37.0625 
Q 6.296875 42.578125 8.984375 45.96875 
Q 11.671875 49.359375 16.75 51.1875 
Q 21.828125 53.03125 28.515625 53.03125 
Q 35.15625 53.03125 39.296875 51.46875 
Q 43.453125 49.90625 45.40625 47.53125 
Q 47.359375 45.171875 48.140625 41.546875 
Q 48.578125 39.3125 48.578125 33.453125 
L 48.578125 21.734375 
Q 48.578125 9.46875 49.140625 6.21875 
Q 49.703125 2.984375 51.375 0 
L 42.1875 0 
Q 40.828125 2.734375 40.4375 6.390625 
z
M 39.703125 26.03125 
Q 34.90625 24.078125 25.34375 22.703125 
Q 19.921875 21.921875 17.671875 20.9375 
Q 15.4375 19.96875 14.203125 18.09375 
Q 12.984375 16.21875 12.984375 13.921875 
Q 12.984375 10.40625 15.640625 8.0625 
Q 18.3125 5.71875 23.4375 5.71875 
Q 28.515625 5.71875 32.46875 7.9375 
Q 36.421875 10.15625 38.28125 14.015625 
Q 39.703125 17 39.703125 22.796875 
z
" id="ArialMT-97"/>
      <path d="M 6.203125 -19.96875 
L 5.21875 -11.71875 
Q 8.109375 -12.5 10.25 -12.5 
Q 13.1875 -12.5 14.9375 -11.515625 
Q 16.703125 -10.546875 17.828125 -8.796875 
Q 18.65625 -7.46875 20.515625 -2.25 
Q 20.75 -1.515625 21.296875 -0.09375 
L 1.609375 51.859375 
L 11.078125 51.859375 
L 21.875 21.828125 
Q 23.96875 16.109375 25.640625 9.8125 
Q 27.15625 15.875 29.25 21.625 
L 40.328125 51.859375 
L 49.125 51.859375 
L 29.390625 -0.875 
Q 26.21875 -9.421875 24.46875 -12.640625 
Q 22.125 -17 19.09375 -19.015625 
Q 16.0625 -21.046875 11.859375 -21.046875 
Q 9.328125 -21.046875 6.203125 -19.96875 
z
" id="ArialMT-121"/>
     </defs>
     <g style="fill:#262626;" transform="translate(229.8525 428.798437)scale(0.24 -0.24)">
      <use xlink:href="#ArialMT-82"/>
      <use x="72.216797" xlink:href="#ArialMT-78"/>
      <use x="144.433594" xlink:href="#ArialMT-78"/>
      <use x="216.650391" xlink:href="#ArialMT-32"/>
      <use x="244.433594" xlink:href="#ArialMT-76"/>
      <use x="300.048828" xlink:href="#ArialMT-97"/>
      <use x="355.664062" xlink:href="#ArialMT-121"/>
      <use x="405.664062" xlink:href="#ArialMT-101"/>
      <use x="461.279297" xlink:href="#ArialMT-114"/>
      <use x="494.580078" xlink:href="#ArialMT-115"/>
     </g>
    </g>
   </g>
   <g id="matplotlib.axis_2">
    <g id="ytick_1">
     <g id="line2d_4">
      <path clip-path="url(#pd8cc938fd9)" d="M 72 335.510551 
L 518.4 335.510551 
" style="fill:none;stroke:#ffffff;stroke-linecap:round;"/>
     </g>
     <g id="text_5">
      <!-- 0.00 -->
      <defs>
       <path d="M 4.15625 35.296875 
Q 4.15625 48 6.765625 55.734375 
Q 9.375 63.484375 14.515625 67.671875 
Q 19.671875 71.875 27.484375 71.875 
Q 33.25 71.875 37.59375 69.546875 
Q 41.9375 67.234375 44.765625 62.859375 
Q 47.609375 58.5 49.21875 52.21875 
Q 50.828125 45.953125 50.828125 35.296875 
Q 50.828125 22.703125 48.234375 14.96875 
Q 45.65625 7.234375 40.5 3 
Q 35.359375 -1.21875 27.484375 -1.21875 
Q 17.140625 -1.21875 11.234375 6.203125 
Q 4.15625 15.140625 4.15625 35.296875 
z
M 13.1875 35.296875 
Q 13.1875 17.671875 17.3125 11.828125 
Q 21.4375 6 27.484375 6 
Q 33.546875 6 37.671875 11.859375 
Q 41.796875 17.71875 41.796875 35.296875 
Q 41.796875 52.984375 37.671875 58.78125 
Q 33.546875 64.59375 27.390625 64.59375 
Q 21.34375 64.59375 17.71875 59.46875 
Q 13.1875 52.9375 13.1875 35.296875 
z
" id="ArialMT-48"/>
       <path d="M 9.078125 0 
L 9.078125 10.015625 
L 19.09375 10.015625 
L 19.09375 0 
z
" id="ArialMT-46"/>
      </defs>
      <g style="fill:#262626;" transform="translate(19.685938 343.384145)scale(0.22 -0.22)">
       <use xlink:href="#ArialMT-48"/>
       <use x="55.615234" xlink:href="#ArialMT-46"/>
       <use x="83.398438" xlink:href="#ArialMT-48"/>
       <use x="139.013672" xlink:href="#ArialMT-48"/>
      </g>
     </g>
    </g>
    <g id="ytick_2">
     <g id="line2d_5">
      <path clip-path="url(#pd8cc938fd9)" d="M 72 281.741534 
L 518.4 281.741534 
" style="fill:none;stroke:#ffffff;stroke-linecap:round;"/>
     </g>
     <g id="text_6">
      <!-- 0.05 -->
      <defs>
       <path d="M 4.15625 18.75 
L 13.375 19.53125 
Q 14.40625 12.796875 18.140625 9.390625 
Q 21.875 6 27.15625 6 
Q 33.5 6 37.890625 10.78125 
Q 42.28125 15.578125 42.28125 23.484375 
Q 42.28125 31 38.0625 35.34375 
Q 33.84375 39.703125 27 39.703125 
Q 22.75 39.703125 19.328125 37.765625 
Q 15.921875 35.84375 13.96875 32.765625 
L 5.71875 33.84375 
L 12.640625 70.609375 
L 48.25 70.609375 
L 48.25 62.203125 
L 19.671875 62.203125 
L 15.828125 42.96875 
Q 22.265625 47.46875 29.34375 47.46875 
Q 38.71875 47.46875 45.15625 40.96875 
Q 51.609375 34.46875 51.609375 24.265625 
Q 51.609375 14.546875 45.953125 7.46875 
Q 39.0625 -1.21875 27.15625 -1.21875 
Q 17.390625 -1.21875 11.203125 4.25 
Q 5.03125 9.71875 4.15625 18.75 
z
" id="ArialMT-53"/>
      </defs>
      <g style="fill:#262626;" transform="translate(19.685938 289.615128)scale(0.22 -0.22)">
       <use xlink:href="#ArialMT-48"/>
       <use x="55.615234" xlink:href="#ArialMT-46"/>
       <use x="83.398438" xlink:href="#ArialMT-48"/>
       <use x="139.013672" xlink:href="#ArialMT-53"/>
      </g>
     </g>
    </g>
    <g id="ytick_3">
     <g id="line2d_6">
      <path clip-path="url(#pd8cc938fd9)" d="M 72 227.972517 
L 518.4 227.972517 
" style="fill:none;stroke:#ffffff;stroke-linecap:round;"/>
     </g>
     <g id="text_7">
      <!-- 0.10 -->
      <defs>
       <path d="M 37.25 0 
L 28.46875 0 
L 28.46875 56 
Q 25.296875 52.984375 20.140625 49.953125 
Q 14.984375 46.921875 10.890625 45.40625 
L 10.890625 53.90625 
Q 18.265625 57.375 23.78125 62.296875 
Q 29.296875 67.234375 31.59375 71.875 
L 37.25 71.875 
z
" id="ArialMT-49"/>
      </defs>
      <g style="fill:#262626;" transform="translate(19.685938 235.846111)scale(0.22 -0.22)">
       <use xlink:href="#ArialMT-48"/>
       <use x="55.615234" xlink:href="#ArialMT-46"/>
       <use x="83.398438" xlink:href="#ArialMT-49"/>
       <use x="139.013672" xlink:href="#ArialMT-48"/>
      </g>
     </g>
    </g>
    <g id="ytick_4">
     <g id="line2d_7">
      <path clip-path="url(#pd8cc938fd9)" d="M 72 174.2035 
L 518.4 174.2035 
" style="fill:none;stroke:#ffffff;stroke-linecap:round;"/>
     </g>
     <g id="text_8">
      <!-- 0.15 -->
      <g style="fill:#262626;" transform="translate(19.685938 182.077093)scale(0.22 -0.22)">
       <use xlink:href="#ArialMT-48"/>
       <use x="55.615234" xlink:href="#ArialMT-46"/>
       <use x="83.398438" xlink:href="#ArialMT-49"/>
       <use x="139.013672" xlink:href="#ArialMT-53"/>
      </g>
     </g>
    </g>
    <g id="ytick_5">
     <g id="line2d_8">
      <path clip-path="url(#pd8cc938fd9)" d="M 72 120.434482 
L 518.4 120.434482 
" style="fill:none;stroke:#ffffff;stroke-linecap:round;"/>
     </g>
     <g id="text_9">
      <!-- 0.20 -->
      <defs>
       <path d="M 50.34375 8.453125 
L 50.34375 0 
L 3.03125 0 
Q 2.9375 3.171875 4.046875 6.109375 
Q 5.859375 10.9375 9.828125 15.625 
Q 13.8125 20.3125 21.34375 26.46875 
Q 33.015625 36.03125 37.109375 41.625 
Q 41.21875 47.21875 41.21875 52.203125 
Q 41.21875 57.421875 37.46875 61 
Q 33.734375 64.59375 27.734375 64.59375 
Q 21.390625 64.59375 17.578125 60.78125 
Q 13.765625 56.984375 13.71875 50.25 
L 4.6875 51.171875 
Q 5.609375 61.28125 11.65625 66.578125 
Q 17.71875 71.875 27.9375 71.875 
Q 38.234375 71.875 44.234375 66.15625 
Q 50.25 60.453125 50.25 52 
Q 50.25 47.703125 48.484375 43.546875 
Q 46.734375 39.40625 42.65625 34.8125 
Q 38.578125 30.21875 29.109375 22.21875 
Q 21.1875 15.578125 18.9375 13.203125 
Q 16.703125 10.84375 15.234375 8.453125 
z
" id="ArialMT-50"/>
      </defs>
      <g style="fill:#262626;" transform="translate(19.685938 128.308076)scale(0.22 -0.22)">
       <use xlink:href="#ArialMT-48"/>
       <use x="55.615234" xlink:href="#ArialMT-46"/>
       <use x="83.398438" xlink:href="#ArialMT-50"/>
       <use x="139.013672" xlink:href="#ArialMT-48"/>
      </g>
     </g>
    </g>
    <g id="ytick_6">
     <g id="line2d_9">
      <path clip-path="url(#pd8cc938fd9)" d="M 72 66.665465 
L 518.4 66.665465 
" style="fill:none;stroke:#ffffff;stroke-linecap:round;"/>
     </g>
     <g id="text_10">
      <!-- 0.25 -->
      <g style="fill:#262626;" transform="translate(19.685938 74.539059)scale(0.22 -0.22)">
       <use xlink:href="#ArialMT-48"/>
       <use x="55.615234" xlink:href="#ArialMT-46"/>
       <use x="83.398438" xlink:href="#ArialMT-50"/>
       <use x="139.013672" xlink:href="#ArialMT-53"/>
      </g>
     </g>
    </g>
    <g id="text_11">
     <!-- Dropout ratio (%) -->
     <defs>
      <path d="M 7.71875 0 
L 7.71875 71.578125 
L 32.375 71.578125 
Q 40.71875 71.578125 45.125 70.5625 
Q 51.265625 69.140625 55.609375 65.4375 
Q 61.28125 60.640625 64.078125 53.1875 
Q 66.890625 45.75 66.890625 36.1875 
Q 66.890625 28.03125 64.984375 21.734375 
Q 63.09375 15.4375 60.109375 11.296875 
Q 57.125 7.171875 53.578125 4.796875 
Q 50.046875 2.4375 45.046875 1.21875 
Q 40.046875 0 33.546875 0 
z
M 17.1875 8.453125 
L 32.46875 8.453125 
Q 39.546875 8.453125 43.578125 9.765625 
Q 47.609375 11.078125 50 13.484375 
Q 53.375 16.84375 55.25 22.53125 
Q 57.125 28.21875 57.125 36.328125 
Q 57.125 47.5625 53.4375 53.59375 
Q 49.75 59.625 44.484375 61.671875 
Q 40.671875 63.140625 32.234375 63.140625 
L 17.1875 63.140625 
z
" id="ArialMT-68"/>
      <path d="M 6.59375 -19.875 
L 6.59375 51.859375 
L 14.59375 51.859375 
L 14.59375 45.125 
Q 17.4375 49.078125 21 51.046875 
Q 24.5625 53.03125 29.640625 53.03125 
Q 36.28125 53.03125 41.359375 49.609375 
Q 46.4375 46.1875 49.015625 39.953125 
Q 51.609375 33.734375 51.609375 26.3125 
Q 51.609375 18.359375 48.75 11.984375 
Q 45.90625 5.609375 40.453125 2.21875 
Q 35.015625 -1.171875 29 -1.171875 
Q 24.609375 -1.171875 21.109375 0.6875 
Q 17.625 2.546875 15.375 5.375 
L 15.375 -19.875 
z
M 14.546875 25.640625 
Q 14.546875 15.625 18.59375 10.84375 
Q 22.65625 6.0625 28.421875 6.0625 
Q 34.28125 6.0625 38.453125 11.015625 
Q 42.625 15.96875 42.625 26.375 
Q 42.625 36.28125 38.546875 41.203125 
Q 34.46875 46.140625 28.8125 46.140625 
Q 23.1875 46.140625 18.859375 40.890625 
Q 14.546875 35.640625 14.546875 25.640625 
z
" id="ArialMT-112"/>
      <path d="M 40.578125 0 
L 40.578125 7.625 
Q 34.515625 -1.171875 24.125 -1.171875 
Q 19.53125 -1.171875 15.546875 0.578125 
Q 11.578125 2.34375 9.640625 5 
Q 7.71875 7.671875 6.9375 11.53125 
Q 6.390625 14.109375 6.390625 19.734375 
L 6.390625 51.859375 
L 15.1875 51.859375 
L 15.1875 23.09375 
Q 15.1875 16.21875 15.71875 13.8125 
Q 16.546875 10.359375 19.234375 8.375 
Q 21.921875 6.390625 25.875 6.390625 
Q 29.828125 6.390625 33.296875 8.421875 
Q 36.765625 10.453125 38.203125 13.9375 
Q 39.65625 17.4375 39.65625 24.078125 
L 39.65625 51.859375 
L 48.4375 51.859375 
L 48.4375 0 
z
" id="ArialMT-117"/>
      <path d="M 23.390625 -21.046875 
Q 16.109375 -11.859375 11.078125 0.4375 
Q 6.0625 12.75 6.0625 25.921875 
Q 6.0625 37.546875 9.8125 48.1875 
Q 14.203125 60.546875 23.390625 72.796875 
L 29.6875 72.796875 
Q 23.78125 62.640625 21.875 58.296875 
Q 18.890625 51.5625 17.1875 44.234375 
Q 15.09375 35.109375 15.09375 25.875 
Q 15.09375 2.390625 29.6875 -21.046875 
z
" id="ArialMT-40"/>
      <path d="M 5.8125 54.390625 
Q 5.8125 62.0625 9.671875 67.421875 
Q 13.53125 72.796875 20.84375 72.796875 
Q 27.59375 72.796875 32 67.984375 
Q 36.421875 63.1875 36.421875 53.859375 
Q 36.421875 44.78125 31.953125 39.875 
Q 27.484375 34.96875 20.953125 34.96875 
Q 14.453125 34.96875 10.125 39.796875 
Q 5.8125 44.625 5.8125 54.390625 
z
M 21.09375 66.75 
Q 17.828125 66.75 15.65625 63.90625 
Q 13.484375 61.078125 13.484375 53.515625 
Q 13.484375 46.625 15.671875 43.8125 
Q 17.875 41.015625 21.09375 41.015625 
Q 24.421875 41.015625 26.59375 43.84375 
Q 28.765625 46.6875 28.765625 54.203125 
Q 28.765625 61.140625 26.5625 63.9375 
Q 24.359375 66.75 21.09375 66.75 
z
M 21.140625 -2.640625 
L 60.296875 72.796875 
L 67.4375 72.796875 
L 28.421875 -2.640625 
z
M 52.09375 16.796875 
Q 52.09375 24.515625 55.953125 29.859375 
Q 59.8125 35.203125 67.1875 35.203125 
Q 73.921875 35.203125 78.34375 30.390625 
Q 82.765625 25.59375 82.765625 16.265625 
Q 82.765625 7.171875 78.296875 2.265625 
Q 73.828125 -2.640625 67.234375 -2.640625 
Q 60.75 -2.640625 56.421875 2.21875 
Q 52.09375 7.078125 52.09375 16.796875 
z
M 67.4375 29.15625 
Q 64.109375 29.15625 61.9375 26.3125 
Q 59.765625 23.484375 59.765625 15.921875 
Q 59.765625 9.078125 61.953125 6.25 
Q 64.15625 3.421875 67.390625 3.421875 
Q 70.75 3.421875 72.921875 6.25 
Q 75.09375 9.078125 75.09375 16.609375 
Q 75.09375 23.53125 72.890625 26.34375 
Q 70.703125 29.15625 67.4375 29.15625 
z
" id="ArialMT-37"/>
      <path d="M 12.359375 -21.046875 
L 6.0625 -21.046875 
Q 20.65625 2.390625 20.65625 25.875 
Q 20.65625 35.0625 18.5625 44.09375 
Q 16.890625 51.421875 13.921875 58.15625 
Q 12.015625 62.546875 6.0625 72.796875 
L 12.359375 72.796875 
Q 21.53125 60.546875 25.921875 48.1875 
Q 29.6875 37.546875 29.6875 25.921875 
Q 29.6875 12.75 24.625 0.4375 
Q 19.578125 -11.859375 12.359375 -21.046875 
z
" id="ArialMT-41"/>
     </defs>
     <g style="fill:#262626;" transform="translate(10.634687 306.279375)rotate(-90)scale(0.24 -0.24)">
      <use xlink:href="#ArialMT-68"/>
      <use x="72.216797" xlink:href="#ArialMT-114"/>
      <use x="105.517578" xlink:href="#ArialMT-111"/>
      <use x="161.132812" xlink:href="#ArialMT-112"/>
      <use x="216.748047" xlink:href="#ArialMT-111"/>
      <use x="272.363281" xlink:href="#ArialMT-117"/>
      <use x="327.978516" xlink:href="#ArialMT-116"/>
      <use x="355.761719" xlink:href="#ArialMT-32"/>
      <use x="383.544922" xlink:href="#ArialMT-114"/>
      <use x="416.845703" xlink:href="#ArialMT-97"/>
      <use x="472.460938" xlink:href="#ArialMT-116"/>
      <use x="500.244141" xlink:href="#ArialMT-105"/>
      <use x="522.460938" xlink:href="#ArialMT-111"/>
      <use x="578.076172" xlink:href="#ArialMT-32"/>
      <use x="605.859375" xlink:href="#ArialMT-40"/>
      <use x="639.160156" xlink:href="#ArialMT-37"/>
      <use x="728.076172" xlink:href="#ArialMT-41"/>
     </g>
    </g>
   </g>
   <g id="PolyCollection_1">
    <defs>
     <path d="M 148.056117 -107.243252 
L 117.689337 -107.243252 
L 115.342253 -109.850235 
L 113.060603 -112.457218 
L 110.895422 -115.064201 
L 108.879591 -117.671183 
L 107.030145 -120.278166 
L 105.353447 -122.885149 
L 103.850846 -125.492132 
L 102.522609 -128.099114 
L 101.368911 -130.706097 
L 100.388061 -133.31308 
L 99.57329 -135.920063 
L 98.910014 -138.527045 
L 98.375228 -141.134028 
L 97.939905 -143.741011 
L 97.574125 -146.347994 
L 97.253573 -148.954976 
L 96.965333 -151.561959 
L 96.710771 -154.168942 
L 96.503885 -156.775925 
L 96.364781 -159.382908 
L 96.309558 -161.98989 
L 96.339437 -164.596873 
L 96.43282 -167.203856 
L 96.543654 -169.810839 
L 96.607978 -172.417821 
L 96.558153 -175.024804 
L 96.341695 -177.631787 
L 95.939802 -180.23877 
L 95.380116 -182.845752 
L 94.739322 -185.452735 
L 94.133643 -188.059718 
L 93.698439 -190.666701 
L 93.561176 -193.273683 
L 93.81401 -195.880666 
L 94.4926 -198.487649 
L 95.566303 -201.094632 
L 96.941982 -203.701614 
L 98.480179 -206.308597 
L 100.01934 -208.91558 
L 101.402128 -211.522563 
L 102.497941 -214.129545 
L 103.217457 -216.736528 
L 103.517577 -219.343511 
L 103.397758 -221.950494 
L 102.890608 -224.557476 
L 102.050491 -227.164459 
L 100.943597 -229.771442 
L 99.641858 -232.378425 
L 98.221384 -234.985408 
L 96.764307 -237.59239 
L 95.361476 -240.199373 
L 94.112792 -242.806356 
L 93.122608 -245.413339 
L 92.489346 -248.020321 
L 92.290909 -250.627304 
L 92.569623 -253.234287 
L 93.3213 -255.84127 
L 94.492252 -258.448252 
L 95.985749 -261.055235 
L 97.676571 -263.662218 
L 99.430056 -266.269201 
L 101.121152 -268.876183 
L 102.649654 -271.483166 
L 103.949474 -274.090149 
L 104.991574 -276.697132 
L 105.781469 -279.304114 
L 106.352704 -281.911097 
L 106.757635 -284.51808 
L 107.056665 -287.125063 
L 107.307058 -289.732045 
L 107.552629 -292.339028 
L 107.815849 -294.946011 
L 108.093789 -297.552994 
L 108.35886 -300.159976 
L 108.564386 -302.766959 
L 108.654018 -305.373942 
L 108.573093 -307.980925 
L 108.279646 -310.587908 
L 107.752884 -313.19489 
L 106.9977 -315.801873 
L 106.044801 -318.408856 
L 104.947146 -321.015839 
L 103.774141 -323.622821 
L 102.60523 -326.229804 
L 101.524106 -328.836787 
L 100.613961 -331.44377 
L 99.953347 -334.050752 
L 99.611887 -336.657735 
L 99.645321 -339.264718 
L 100.090189 -341.871701 
L 100.9593 -344.478683 
L 102.239545 -347.085666 
L 103.893212 -349.692649 
L 105.862873 -352.299632 
L 108.078645 -354.906614 
L 110.465816 -357.513597 
L 112.950858 -360.12058 
L 115.464781 -362.727563 
L 117.944026 -365.334545 
L 147.801429 -365.334545 
L 147.801429 -365.334545 
L 150.280674 -362.727563 
L 152.794597 -360.12058 
L 155.279639 -357.513597 
L 157.66681 -354.906614 
L 159.882582 -352.299632 
L 161.852242 -349.692649 
L 163.50591 -347.085666 
L 164.786155 -344.478683 
L 165.655266 -341.871701 
L 166.100134 -339.264718 
L 166.133568 -336.657735 
L 165.792107 -334.050752 
L 165.131493 -331.44377 
L 164.221348 -328.836787 
L 163.140225 -326.229804 
L 161.971313 -323.622821 
L 160.798308 -321.015839 
L 159.700654 -318.408856 
L 158.747755 -315.801873 
L 157.992571 -313.19489 
L 157.465809 -310.587908 
L 157.172361 -307.980925 
L 157.091437 -305.373942 
L 157.181069 -302.766959 
L 157.386595 -300.159976 
L 157.651666 -297.552994 
L 157.929606 -294.946011 
L 158.192826 -292.339028 
L 158.438397 -289.732045 
L 158.688789 -287.125063 
L 158.98782 -284.51808 
L 159.392751 -281.911097 
L 159.963985 -279.304114 
L 160.753881 -276.697132 
L 161.79598 -274.090149 
L 163.095801 -271.483166 
L 164.624303 -268.876183 
L 166.315399 -266.269201 
L 168.068884 -263.662218 
L 169.759706 -261.055235 
L 171.253202 -258.448252 
L 172.424155 -255.84127 
L 173.175832 -253.234287 
L 173.454545 -250.627304 
L 173.256109 -248.020321 
L 172.622846 -245.413339 
L 171.632663 -242.806356 
L 170.383979 -240.199373 
L 168.981147 -237.59239 
L 167.524071 -234.985408 
L 166.103596 -232.378425 
L 164.801857 -229.771442 
L 163.694963 -227.164459 
L 162.854846 -224.557476 
L 162.347697 -221.950494 
L 162.227878 -219.343511 
L 162.527998 -216.736528 
L 163.247513 -214.129545 
L 164.343326 -211.522563 
L 165.726114 -208.91558 
L 167.265276 -206.308597 
L 168.803473 -203.701614 
L 170.179152 -201.094632 
L 171.252854 -198.487649 
L 171.931445 -195.880666 
L 172.184279 -193.273683 
L 172.047016 -190.666701 
L 171.611812 -188.059718 
L 171.006132 -185.452735 
L 170.365339 -182.845752 
L 169.805653 -180.23877 
L 169.40376 -177.631787 
L 169.187301 -175.024804 
L 169.137476 -172.417821 
L 169.201801 -169.810839 
L 169.312634 -167.203856 
L 169.406018 -164.596873 
L 169.435897 -161.98989 
L 169.380673 -159.382908 
L 169.241569 -156.775925 
L 169.034684 -154.168942 
L 168.780121 -151.561959 
L 168.491882 -148.954976 
L 168.171329 -146.347994 
L 167.80555 -143.741011 
L 167.370227 -141.134028 
L 166.835441 -138.527045 
L 166.172165 -135.920063 
L 165.357394 -133.31308 
L 164.376543 -130.706097 
L 163.222846 -128.099114 
L 161.894609 -125.492132 
L 160.392008 -122.885149 
L 158.71531 -120.278166 
L 156.865864 -117.671183 
L 154.850033 -115.064201 
L 152.684851 -112.457218 
L 150.403202 -109.850235 
L 148.056117 -107.243252 
z
" id="m64b942478d" style="stroke:#ffffff;stroke-opacity:0.3;"/>
    </defs>
    <g clip-path="url(#pd8cc938fd9)">
     <use style="fill:#4c72b0;fill-opacity:0.3;stroke:#ffffff;stroke-opacity:0.3;" x="0" xlink:href="#m64b942478d" y="432"/>
    </g>
   </g>
   <g id="PolyCollection_2">
    <defs>
     <path d="M 320.812385 -107.243252 
L 269.587615 -107.243252 
L 266.13821 -109.850235 
L 263.083699 -112.457218 
L 260.591669 -115.0642 
L 258.781359 -117.671183 
L 257.707841 -120.278166 
L 257.355535 -122.885148 
L 257.642374 -125.492131 
L 258.433707 -128.099114 
L 259.563118 -130.706096 
L 260.856073 -133.313079 
L 262.152201 -135.920061 
L 263.322749 -138.527044 
L 264.281229 -141.134027 
L 264.986723 -143.741009 
L 265.440591 -146.347992 
L 265.678015 -148.954975 
L 265.756179 -151.561957 
L 265.740981 -154.16894 
L 265.694206 -156.775923 
L 265.663069 -159.382905 
L 265.673802 -161.989888 
L 265.730391 -164.596871 
L 265.818568 -167.203853 
L 265.913956 -169.810836 
L 265.992144 -172.417819 
L 266.037887 -175.024801 
L 266.050799 -177.631784 
L 266.045918 -180.238767 
L 266.049034 -182.845749 
L 266.088249 -185.452732 
L 266.184324 -188.059714 
L 266.342642 -190.666697 
L 266.549069 -193.27368 
L 266.770729 -195.880662 
L 266.961349 -198.487645 
L 267.069597 -201.094628 
L 267.048223 -203.70161 
L 266.861834 -206.308593 
L 266.491674 -208.915576 
L 265.936701 -211.522558 
L 265.211251 -214.129541 
L 264.340381 -216.736524 
L 263.354534 -219.343506 
L 262.285181 -221.950489 
L 261.162675 -224.557472 
L 260.016708 -227.164454 
L 258.878765 -229.771437 
L 257.785168 -232.37842 
L 256.778987 -234.985402 
L 255.909465 -237.592385 
L 255.22851 -240.199367 
L 254.784964 -242.80635 
L 254.618182 -245.413333 
L 254.752693 -248.020315 
L 255.195261 -250.627298 
L 255.934682 -253.234281 
L 256.943752 -255.841263 
L 258.182318 -258.448246 
L 259.600432 -261.055229 
L 261.141204 -263.662211 
L 262.743602 -266.269194 
L 264.345833 -268.876177 
L 265.889703 -271.483159 
L 267.325732 -274.090142 
L 268.61804 -276.697125 
L 269.747541 -279.304107 
L 270.712167 -281.91109 
L 271.523546 -284.518073 
L 272.200713 -287.125055 
L 272.762408 -289.732038 
L 273.220047 -292.33902 
L 273.573287 -294.946003 
L 273.809311 -297.552986 
L 273.905866 -300.159968 
L 273.83706 -302.766951 
L 273.580311 -305.373934 
L 273.122772 -307.980916 
L 272.465954 -310.587899 
L 271.627919 -313.194882 
L 270.643042 -315.801864 
L 269.559808 -318.408847 
L 268.437265 -321.01583 
L 267.340717 -323.622812 
L 266.337122 -326.229795 
L 265.490517 -328.836778 
L 264.857808 -331.44376 
L 264.485242 -334.050743 
L 264.405987 -336.657726 
L 264.639127 -339.264708 
L 265.190202 -341.871691 
L 266.053044 -344.478673 
L 267.212296 -347.085656 
L 268.645789 -349.692639 
L 270.326005 -352.299621 
L 272.220221 -354.906604 
L 274.289558 -357.513587 
L 276.487661 -360.120569 
L 278.760111 -362.727552 
L 281.045486 -365.334535 
L 309.354514 -365.334535 
L 309.354514 -365.334535 
L 311.639889 -362.727552 
L 313.912339 -360.120569 
L 316.110442 -357.513587 
L 318.179779 -354.906604 
L 320.073995 -352.299621 
L 321.754211 -349.692639 
L 323.187704 -347.085656 
L 324.346956 -344.478673 
L 325.209798 -341.871691 
L 325.760873 -339.264708 
L 325.994013 -336.657726 
L 325.914758 -334.050743 
L 325.542192 -331.44376 
L 324.909483 -328.836778 
L 324.062878 -326.229795 
L 323.059283 -323.622812 
L 321.962735 -321.01583 
L 320.840192 -318.408847 
L 319.756958 -315.801864 
L 318.772081 -313.194882 
L 317.934046 -310.587899 
L 317.277228 -307.980916 
L 316.819689 -305.373934 
L 316.56294 -302.766951 
L 316.494134 -300.159968 
L 316.590689 -297.552986 
L 316.826713 -294.946003 
L 317.179953 -292.33902 
L 317.637592 -289.732038 
L 318.199287 -287.125055 
L 318.876454 -284.518073 
L 319.687833 -281.91109 
L 320.652459 -279.304107 
L 321.78196 -276.697125 
L 323.074268 -274.090142 
L 324.510297 -271.483159 
L 326.054167 -268.876177 
L 327.656398 -266.269194 
L 329.258796 -263.662211 
L 330.799568 -261.055229 
L 332.217682 -258.448246 
L 333.456248 -255.841263 
L 334.465318 -253.234281 
L 335.204739 -250.627298 
L 335.647307 -248.020315 
L 335.781818 -245.413333 
L 335.615036 -242.80635 
L 335.17149 -240.199367 
L 334.490535 -237.592385 
L 333.621013 -234.985402 
L 332.614832 -232.37842 
L 331.521235 -229.771437 
L 330.383292 -227.164454 
L 329.237325 -224.557472 
L 328.114819 -221.950489 
L 327.045466 -219.343506 
L 326.059619 -216.736524 
L 325.188749 -214.129541 
L 324.463299 -211.522558 
L 323.908326 -208.915576 
L 323.538166 -206.308593 
L 323.351777 -203.70161 
L 323.330403 -201.094628 
L 323.438651 -198.487645 
L 323.629271 -195.880662 
L 323.850931 -193.27368 
L 324.057358 -190.666697 
L 324.215676 -188.059714 
L 324.311751 -185.452732 
L 324.350966 -182.845749 
L 324.354082 -180.238767 
L 324.349201 -177.631784 
L 324.362113 -175.024801 
L 324.407856 -172.417819 
L 324.486044 -169.810836 
L 324.581432 -167.203853 
L 324.669609 -164.596871 
L 324.726198 -161.989888 
L 324.736931 -159.382905 
L 324.705794 -156.775923 
L 324.659019 -154.16894 
L 324.643821 -151.561957 
L 324.721985 -148.954975 
L 324.959409 -146.347992 
L 325.413277 -143.741009 
L 326.118771 -141.134027 
L 327.077251 -138.527044 
L 328.247799 -135.920061 
L 329.543927 -133.313079 
L 330.836882 -130.706096 
L 331.966293 -128.099114 
L 332.757626 -125.492131 
L 333.044465 -122.885148 
L 332.692159 -120.278166 
L 331.618641 -117.671183 
L 329.808331 -115.0642 
L 327.316301 -112.457218 
L 324.26179 -109.850235 
L 320.812385 -107.243252 
z
" id="m586c7c1079" style="stroke:#ffffff;stroke-opacity:0.3;"/>
    </defs>
    <g clip-path="url(#pd8cc938fd9)">
     <use style="fill:#4c72b0;fill-opacity:0.3;stroke:#ffffff;stroke-opacity:0.3;" x="0" xlink:href="#m586c7c1079" y="432"/>
    </g>
   </g>
   <g id="PolyCollection_3">
    <defs>
     <path d="M 457.822345 -68.825455 
L 457.2322 -68.825455 
L 457.120536 -71.820496 
L 456.924558 -74.815537 
L 456.587852 -77.810579 
L 456.035853 -80.80562 
L 455.179971 -83.800661 
L 453.927659 -86.795702 
L 452.19872 -89.790744 
L 449.946062 -92.785785 
L 447.176761 -95.780826 
L 443.967497 -98.775868 
L 440.468416 -101.770909 
L 436.891587 -104.76595 
L 433.484249 -107.760992 
L 430.491607 -110.756033 
L 428.117392 -113.751074 
L 426.491367 -116.746116 
L 425.651113 -119.741157 
L 425.541379 -122.736198 
L 426.029616 -125.73124 
L 426.932552 -128.726281 
L 428.046938 -131.721322 
L 429.178114 -134.716364 
L 430.162172 -137.711405 
L 430.880136 -140.706446 
L 431.264561 -143.701488 
L 431.299879 -146.696529 
L 431.017657 -149.69157 
L 430.487539 -152.686612 
L 429.804502 -155.681653 
L 429.073626 -158.676694 
L 428.394393 -161.671736 
L 427.847173 -164.666777 
L 427.484377 -167.661818 
L 427.327625 -170.65686 
L 427.370566 -173.651901 
L 427.585234 -176.646942 
L 427.928886 -179.641983 
L 428.348493 -182.637025 
L 428.781583 -185.632066 
L 429.154326 -188.627107 
L 429.379846 -191.622149 
L 429.360766 -194.61719 
L 428.999354 -197.612231 
L 428.216296 -200.607273 
L 426.975564 -203.602314 
L 425.309182 -206.597355 
L 423.333318 -209.592397 
L 421.247349 -212.587438 
L 419.311169 -215.582479 
L 417.802405 -218.577521 
L 416.96245 -221.572562 
L 416.945455 -224.567603 
L 417.785019 -227.562645 
L 419.388541 -230.557686 
L 421.560571 -233.552727 
L 424.047492 -236.547769 
L 426.589988 -239.54281 
L 428.969098 -242.537851 
L 431.035732 -245.532893 
L 432.719986 -248.527934 
L 434.02247 -251.522975 
L 434.993434 -254.518017 
L 435.706259 -257.513058 
L 436.231077 -260.508099 
L 436.612941 -263.50314 
L 436.857854 -266.498182 
L 436.929017 -269.493223 
L 436.754412 -272.488264 
L 436.245019 -275.483306 
L 435.320704 -278.478347 
L 433.938659 -281.473388 
L 432.117879 -284.46843 
L 429.953113 -287.463471 
L 427.613368 -290.458512 
L 425.323186 -293.453554 
L 423.329162 -296.448595 
L 421.858301 -299.443636 
L 421.077629 -302.438678 
L 421.064653 -305.433719 
L 421.795612 -308.42876 
L 423.153587 -311.423802 
L 424.953274 -314.418843 
L 426.97535 -317.413884 
L 429.002167 -320.408926 
L 430.847868 -323.403967 
L 432.379004 -326.399008 
L 433.524806 -329.39405 
L 434.278372 -332.389091 
L 434.690834 -335.384132 
L 434.860403 -338.379174 
L 434.917675 -341.374215 
L 435.008307 -344.369256 
L 435.274281 -347.364298 
L 435.835391 -350.359339 
L 436.773086 -353.35438 
L 438.11901 -356.349421 
L 439.850396 -359.344463 
L 441.893594 -362.339504 
L 444.135647 -365.334545 
L 470.918898 -365.334545 
L 470.918898 -365.334545 
L 473.160951 -362.339504 
L 475.204149 -359.344463 
L 476.935536 -356.349421 
L 478.28146 -353.35438 
L 479.219154 -350.359339 
L 479.780264 -347.364298 
L 480.046239 -344.369256 
L 480.136871 -341.374215 
L 480.194142 -338.379174 
L 480.363711 -335.384132 
L 480.776173 -332.389091 
L 481.529739 -329.39405 
L 482.675541 -326.399008 
L 484.206677 -323.403967 
L 486.052378 -320.408926 
L 488.079195 -317.413884 
L 490.101271 -314.418843 
L 491.900958 -311.423802 
L 493.258934 -308.42876 
L 493.989892 -305.433719 
L 493.976916 -302.438678 
L 493.196244 -299.443636 
L 491.725384 -296.448595 
L 489.731359 -293.453554 
L 487.441178 -290.458512 
L 485.101433 -287.463471 
L 482.936667 -284.46843 
L 481.115886 -281.473388 
L 479.733841 -278.478347 
L 478.809526 -275.483306 
L 478.300133 -272.488264 
L 478.125529 -269.493223 
L 478.196692 -266.498182 
L 478.441605 -263.50314 
L 478.823468 -260.508099 
L 479.348286 -257.513058 
L 480.061111 -254.518017 
L 481.032075 -251.522975 
L 482.33456 -248.527934 
L 484.018813 -245.532893 
L 486.085448 -242.537851 
L 488.464558 -239.54281 
L 491.007054 -236.547769 
L 493.493974 -233.552727 
L 495.666004 -230.557686 
L 497.269526 -227.562645 
L 498.109091 -224.567603 
L 498.092096 -221.572562 
L 497.25214 -218.577521 
L 495.743376 -215.582479 
L 493.807197 -212.587438 
L 491.721228 -209.592397 
L 489.745363 -206.597355 
L 488.078981 -203.602314 
L 486.838249 -200.607273 
L 486.055191 -197.612231 
L 485.693779 -194.61719 
L 485.674699 -191.622149 
L 485.900219 -188.627107 
L 486.272962 -185.632066 
L 486.706053 -182.637025 
L 487.12566 -179.641983 
L 487.469311 -176.646942 
L 487.68398 -173.651901 
L 487.726921 -170.65686 
L 487.570169 -167.661818 
L 487.207372 -164.666777 
L 486.660152 -161.671736 
L 485.980919 -158.676694 
L 485.250043 -155.681653 
L 484.567007 -152.686612 
L 484.036888 -149.69157 
L 483.754667 -146.696529 
L 483.789984 -143.701488 
L 484.174409 -140.706446 
L 484.892373 -137.711405 
L 485.876432 -134.716364 
L 487.007607 -131.721322 
L 488.121994 -128.726281 
L 489.02493 -125.73124 
L 489.513167 -122.736198 
L 489.403432 -119.741157 
L 488.563178 -116.746116 
L 486.937153 -113.751074 
L 484.562938 -110.756033 
L 481.570297 -107.760992 
L 478.162959 -104.76595 
L 474.58613 -101.770909 
L 471.087049 -98.775868 
L 467.877785 -95.780826 
L 465.108483 -92.785785 
L 462.855825 -89.790744 
L 461.126886 -86.795702 
L 459.874575 -83.800661 
L 459.018693 -80.80562 
L 458.466693 -77.810579 
L 458.129987 -74.815537 
L 457.934009 -71.820496 
L 457.822345 -68.825455 
z
" id="mdb9476cb54" style="stroke:#ffffff;stroke-opacity:0.3;"/>
    </defs>
    <g clip-path="url(#pd8cc938fd9)">
     <use style="fill:#4c72b0;fill-opacity:0.3;stroke:#ffffff;stroke-opacity:0.3;" x="0" xlink:href="#mdb9476cb54" y="432"/>
    </g>
   </g>
   <g id="LineCollection_1">
    <path clip-path="url(#pd8cc938fd9)" d="M 112.581818 66.665455 
L 153.163636 66.665455 
" style="fill:none;stroke:#4c72b0;stroke-width:1.5;"/>
    <path clip-path="url(#pd8cc938fd9)" d="M 274.909091 66.665465 
L 315.490909 66.665465 
" style="fill:none;stroke:#4c72b0;stroke-width:1.5;"/>
    <path clip-path="url(#pd8cc938fd9)" d="M 437.236364 66.665455 
L 477.818182 66.665455 
" style="fill:none;stroke:#4c72b0;stroke-width:1.5;"/>
   </g>
   <g id="LineCollection_2">
    <path clip-path="url(#pd8cc938fd9)" d="M 112.581818 324.756748 
L 153.163636 324.756748 
" style="fill:none;stroke:#4c72b0;stroke-width:1.5;"/>
    <path clip-path="url(#pd8cc938fd9)" d="M 274.909091 324.756748 
L 315.490909 324.756748 
" style="fill:none;stroke:#4c72b0;stroke-width:1.5;"/>
    <path clip-path="url(#pd8cc938fd9)" d="M 437.236364 363.174545 
L 477.818182 363.174545 
" style="fill:none;stroke:#4c72b0;stroke-width:1.5;"/>
   </g>
   <g id="LineCollection_3">
    <path clip-path="url(#pd8cc938fd9)" d="M 132.872727 324.756748 
L 132.872727 66.665455 
" style="fill:none;stroke:#4c72b0;stroke-width:1.5;"/>
    <path clip-path="url(#pd8cc938fd9)" d="M 295.2 324.756748 
L 295.2 66.665465 
" style="fill:none;stroke:#4c72b0;stroke-width:1.5;"/>
    <path clip-path="url(#pd8cc938fd9)" d="M 457.527273 363.174545 
L 457.527273 66.665455 
" style="fill:none;stroke:#4c72b0;stroke-width:1.5;"/>
   </g>
   <g id="LineCollection_4">
    <path clip-path="url(#pd8cc938fd9)" d="M 112.581818 199.077969 
L 153.163636 199.077969 
" style="fill:none;stroke:#4c72b0;stroke-width:1.5;"/>
    <path clip-path="url(#pd8cc938fd9)" d="M 274.909091 201.421263 
L 315.490909 201.421263 
" style="fill:none;stroke:#4c72b0;stroke-width:1.5;"/>
    <path clip-path="url(#pd8cc938fd9)" d="M 437.236364 208.082977 
L 477.818182 208.082977 
" style="fill:none;stroke:#4c72b0;stroke-width:1.5;"/>
   </g>
   <g id="patch_3">
    <path d="M 72 378 
L 72 51.84 
" style="fill:none;stroke:#ffffff;stroke-linecap:square;stroke-linejoin:miter;stroke-width:1.25;"/>
   </g>
   <g id="patch_4">
    <path d="M 518.4 378 
L 518.4 51.84 
" style="fill:none;stroke:#ffffff;stroke-linecap:square;stroke-linejoin:miter;stroke-width:1.25;"/>
   </g>
   <g id="patch_5">
    <path d="M 72 378 
L 518.4 378 
" style="fill:none;stroke:#ffffff;stroke-linecap:square;stroke-linejoin:miter;stroke-width:1.25;"/>
   </g>
   <g id="patch_6">
    <path d="M 72 51.84 
L 518.4 51.84 
" style="fill:none;stroke:#ffffff;stroke-linecap:square;stroke-linejoin:miter;stroke-width:1.25;"/>
   </g>
   <g id="text_12">
    <!-- Dropout ratio: Island DNN (all 6659 models) -->
    <defs>
     <path d="M 9.03125 41.84375 
L 9.03125 51.859375 
L 19.046875 51.859375 
L 19.046875 41.84375 
z
M 9.03125 0 
L 9.03125 10.015625 
L 19.046875 10.015625 
L 19.046875 0 
z
" id="ArialMT-58"/>
     <path d="M 9.328125 0 
L 9.328125 71.578125 
L 18.796875 71.578125 
L 18.796875 0 
z
" id="ArialMT-73"/>
     <path d="M 6.390625 0 
L 6.390625 71.578125 
L 15.1875 71.578125 
L 15.1875 0 
z
" id="ArialMT-108"/>
     <path d="M 49.75 54.046875 
L 41.015625 53.375 
Q 39.84375 58.546875 37.703125 60.890625 
Q 34.125 64.65625 28.90625 64.65625 
Q 24.703125 64.65625 21.53125 62.3125 
Q 17.390625 59.28125 14.984375 53.46875 
Q 12.59375 47.65625 12.5 36.921875 
Q 15.671875 41.75 20.265625 44.09375 
Q 24.859375 46.4375 29.890625 46.4375 
Q 38.671875 46.4375 44.84375 39.96875 
Q 51.03125 33.5 51.03125 23.25 
Q 51.03125 16.5 48.125 10.71875 
Q 45.21875 4.9375 40.140625 1.859375 
Q 35.0625 -1.21875 28.609375 -1.21875 
Q 17.625 -1.21875 10.6875 6.859375 
Q 3.765625 14.9375 3.765625 33.5 
Q 3.765625 54.25 11.421875 63.671875 
Q 18.109375 71.875 29.4375 71.875 
Q 37.890625 71.875 43.28125 67.140625 
Q 48.6875 62.40625 49.75 54.046875 
z
M 13.875 23.1875 
Q 13.875 18.65625 15.796875 14.5 
Q 17.71875 10.359375 21.1875 8.171875 
Q 24.65625 6 28.46875 6 
Q 34.03125 6 38.03125 10.484375 
Q 42.046875 14.984375 42.046875 22.703125 
Q 42.046875 30.125 38.078125 34.390625 
Q 34.125 38.671875 28.125 38.671875 
Q 22.171875 38.671875 18.015625 34.390625 
Q 13.875 30.125 13.875 23.1875 
z
" id="ArialMT-54"/>
     <path d="M 5.46875 16.546875 
L 13.921875 17.328125 
Q 14.984375 11.375 18.015625 8.6875 
Q 21.046875 6 25.78125 6 
Q 29.828125 6 32.875 7.859375 
Q 35.9375 9.71875 37.890625 12.8125 
Q 39.84375 15.921875 41.15625 21.1875 
Q 42.484375 26.46875 42.484375 31.9375 
Q 42.484375 32.515625 42.4375 33.6875 
Q 39.796875 29.5 35.234375 26.875 
Q 30.671875 24.265625 25.34375 24.265625 
Q 16.453125 24.265625 10.296875 30.703125 
Q 4.15625 37.15625 4.15625 47.703125 
Q 4.15625 58.59375 10.578125 65.234375 
Q 17 71.875 26.65625 71.875 
Q 33.640625 71.875 39.421875 68.109375 
Q 45.21875 64.359375 48.21875 57.390625 
Q 51.21875 50.4375 51.21875 37.25 
Q 51.21875 23.53125 48.234375 15.40625 
Q 45.265625 7.28125 39.375 3.03125 
Q 33.5 -1.21875 25.59375 -1.21875 
Q 17.1875 -1.21875 11.859375 3.4375 
Q 6.546875 8.109375 5.46875 16.546875 
z
M 41.453125 48.140625 
Q 41.453125 55.71875 37.421875 60.15625 
Q 33.40625 64.59375 27.734375 64.59375 
Q 21.875 64.59375 17.53125 59.8125 
Q 13.1875 55.03125 13.1875 47.40625 
Q 13.1875 40.578125 17.3125 36.296875 
Q 21.4375 32.03125 27.484375 32.03125 
Q 33.59375 32.03125 37.515625 36.296875 
Q 41.453125 40.578125 41.453125 48.140625 
z
" id="ArialMT-57"/>
     <path d="M 6.59375 0 
L 6.59375 51.859375 
L 14.453125 51.859375 
L 14.453125 44.578125 
Q 16.890625 48.390625 20.9375 50.703125 
Q 25 53.03125 30.171875 53.03125 
Q 35.9375 53.03125 39.625 50.640625 
Q 43.3125 48.25 44.828125 43.953125 
Q 50.984375 53.03125 60.84375 53.03125 
Q 68.5625 53.03125 72.703125 48.75 
Q 76.859375 44.484375 76.859375 35.59375 
L 76.859375 0 
L 68.109375 0 
L 68.109375 32.671875 
Q 68.109375 37.9375 67.25 40.25 
Q 66.40625 42.578125 64.15625 43.984375 
Q 61.921875 45.40625 58.890625 45.40625 
Q 53.421875 45.40625 49.796875 41.765625 
Q 46.1875 38.140625 46.1875 30.125 
L 46.1875 0 
L 37.40625 0 
L 37.40625 33.6875 
Q 37.40625 39.546875 35.25 42.46875 
Q 33.109375 45.40625 28.21875 45.40625 
Q 24.515625 45.40625 21.359375 43.453125 
Q 18.21875 41.5 16.796875 37.734375 
Q 15.375 33.984375 15.375 26.90625 
L 15.375 0 
z
" id="ArialMT-109"/>
    </defs>
    <g style="fill:#262626;" transform="translate(62.445 45.84)scale(0.24 -0.24)">
     <use xlink:href="#ArialMT-68"/>
     <use x="72.216797" xlink:href="#ArialMT-114"/>
     <use x="105.517578" xlink:href="#ArialMT-111"/>
     <use x="161.132812" xlink:href="#ArialMT-112"/>
     <use x="216.748047" xlink:href="#ArialMT-111"/>
     <use x="272.363281" xlink:href="#ArialMT-117"/>
     <use x="327.978516" xlink:href="#ArialMT-116"/>
     <use x="355.761719" xlink:href="#ArialMT-32"/>
     <use x="383.544922" xlink:href="#ArialMT-114"/>
     <use x="416.845703" xlink:href="#ArialMT-97"/>
     <use x="472.460938" xlink:href="#ArialMT-116"/>
     <use x="500.244141" xlink:href="#ArialMT-105"/>
     <use x="522.460938" xlink:href="#ArialMT-111"/>
     <use x="578.076172" xlink:href="#ArialMT-58"/>
     <use x="605.859375" xlink:href="#ArialMT-32"/>
     <use x="633.642578" xlink:href="#ArialMT-73"/>
     <use x="661.425781" xlink:href="#ArialMT-115"/>
     <use x="711.425781" xlink:href="#ArialMT-108"/>
     <use x="733.642578" xlink:href="#ArialMT-97"/>
     <use x="789.257812" xlink:href="#ArialMT-110"/>
     <use x="844.873047" xlink:href="#ArialMT-100"/>
     <use x="900.488281" xlink:href="#ArialMT-32"/>
     <use x="928.271484" xlink:href="#ArialMT-68"/>
     <use x="1000.488281" xlink:href="#ArialMT-78"/>
     <use x="1072.705078" xlink:href="#ArialMT-78"/>
     <use x="1144.921875" xlink:href="#ArialMT-32"/>
     <use x="1172.705078" xlink:href="#ArialMT-40"/>
     <use x="1206.005859" xlink:href="#ArialMT-97"/>
     <use x="1261.621094" xlink:href="#ArialMT-108"/>
     <use x="1283.837891" xlink:href="#ArialMT-108"/>
     <use x="1306.054688" xlink:href="#ArialMT-32"/>
     <use x="1333.837891" xlink:href="#ArialMT-54"/>
     <use x="1389.453125" xlink:href="#ArialMT-54"/>
     <use x="1445.068359" xlink:href="#ArialMT-53"/>
     <use x="1500.683594" xlink:href="#ArialMT-57"/>
     <use x="1556.298828" xlink:href="#ArialMT-32"/>
     <use x="1584.082031" xlink:href="#ArialMT-109"/>
     <use x="1667.382812" xlink:href="#ArialMT-111"/>
     <use x="1722.998047" xlink:href="#ArialMT-100"/>
     <use x="1778.613281" xlink:href="#ArialMT-101"/>
     <use x="1834.228516" xlink:href="#ArialMT-108"/>
     <use x="1856.445312" xlink:href="#ArialMT-115"/>
     <use x="1906.445312" xlink:href="#ArialMT-41"/>
    </g>
   </g>
  </g>
 </g>
 <defs>
  <clipPath id="pd8cc938fd9">
   <rect height="326.16" width="446.4" x="72" y="51.84"/>
  </clipPath>
 </defs>
</svg>
