<?xml version="1.0" encoding="utf-8" standalone="no"?>
<!DOCTYPE svg PUBLIC "-//W3C//DTD SVG 1.1//EN"
  "http://www.w3.org/Graphics/SVG/1.1/DTD/svg11.dtd">
<!-- Created with matplotlib (https://matplotlib.org/) -->
<svg height="432pt" version="1.1" viewBox="0 0 576 432" width="576pt" xmlns="http://www.w3.org/2000/svg" xmlns:xlink="http://www.w3.org/1999/xlink">
 <metadata>
  <rdf:RDF xmlns:cc="http://creativecommons.org/ns#" xmlns:dc="http://purl.org/dc/elements/1.1/" xmlns:rdf="http://www.w3.org/1999/02/22-rdf-syntax-ns#">
   <cc:Work>
    <dc:type rdf:resource="http://purl.org/dc/dcmitype/StillImage"/>
    <dc:date>2021-04-02T10:54:22.648010</dc:date>
    <dc:format>image/svg+xml</dc:format>
    <dc:creator>
     <cc:Agent>
      <dc:title>Matplotlib v3.3.4, https://matplotlib.org/</dc:title>
     </cc:Agent>
    </dc:creator>
   </cc:Work>
  </rdf:RDF>
 </metadata>
 <defs>
  <style type="text/css">*{stroke-linecap:butt;stroke-linejoin:round;}</style>
 </defs>
 <g id="figure_1">
  <g id="patch_1">
   <path d="M 0 432 
L 576 432 
L 576 0 
L 0 0 
z
" style="fill:#ffffff;"/>
  </g>
  <g id="axes_1">
   <g id="patch_2">
    <path d="M 72 378 
L 518.4 378 
L 518.4 51.84 
L 72 51.84 
z
" style="fill:#eaeaf2;"/>
   </g>
   <g id="matplotlib.axis_1">
    <g id="xtick_1">
     <g id="line2d_1">
      <path clip-path="url(#pfb7df13a3b)" d="M 132.872727 378 
L 132.872727 51.84 
" style="fill:none;stroke:#ffffff;stroke-linecap:round;"/>
     </g>
     <g id="text_1">
      <!-- First -->
      <g style="fill:#262626;" transform="translate(111.491477 403.247187)scale(0.22 -0.22)">
       <defs>
        <path d="M 8.203125 0 
L 8.203125 71.578125 
L 56.5 71.578125 
L 56.5 63.140625 
L 17.671875 63.140625 
L 17.671875 40.96875 
L 51.265625 40.96875 
L 51.265625 32.515625 
L 17.671875 32.515625 
L 17.671875 0 
z
" id="ArialMT-70"/>
        <path d="M 6.640625 61.46875 
L 6.640625 71.578125 
L 15.4375 71.578125 
L 15.4375 61.46875 
z
M 6.640625 0 
L 6.640625 51.859375 
L 15.4375 51.859375 
L 15.4375 0 
z
" id="ArialMT-105"/>
        <path d="M 6.5 0 
L 6.5 51.859375 
L 14.40625 51.859375 
L 14.40625 44 
Q 17.4375 49.515625 20 51.265625 
Q 22.5625 53.03125 25.640625 53.03125 
Q 30.078125 53.03125 34.671875 50.203125 
L 31.640625 42.046875 
Q 28.421875 43.953125 25.203125 43.953125 
Q 22.3125 43.953125 20.015625 42.21875 
Q 17.71875 40.484375 16.75 37.40625 
Q 15.28125 32.71875 15.28125 27.15625 
L 15.28125 0 
z
" id="ArialMT-114"/>
        <path d="M 3.078125 15.484375 
L 11.765625 16.84375 
Q 12.5 11.625 15.84375 8.84375 
Q 19.1875 6.0625 25.203125 6.0625 
Q 31.25 6.0625 34.171875 8.515625 
Q 37.109375 10.984375 37.109375 14.3125 
Q 37.109375 17.28125 34.515625 19 
Q 32.71875 20.171875 25.53125 21.96875 
Q 15.875 24.421875 12.140625 26.203125 
Q 8.40625 27.984375 6.46875 31.125 
Q 4.546875 34.28125 4.546875 38.09375 
Q 4.546875 41.546875 6.125 44.5 
Q 7.71875 47.46875 10.453125 49.421875 
Q 12.5 50.921875 16.03125 51.96875 
Q 19.578125 53.03125 23.640625 53.03125 
Q 29.734375 53.03125 34.34375 51.265625 
Q 38.96875 49.515625 41.15625 46.5 
Q 43.359375 43.5 44.1875 38.484375 
L 35.59375 37.3125 
Q 35.015625 41.3125 32.203125 43.546875 
Q 29.390625 45.796875 24.265625 45.796875 
Q 18.21875 45.796875 15.625 43.796875 
Q 13.03125 41.796875 13.03125 39.109375 
Q 13.03125 37.40625 14.109375 36.03125 
Q 15.1875 34.625 17.484375 33.6875 
Q 18.796875 33.203125 25.25 31.453125 
Q 34.578125 28.953125 38.25 27.359375 
Q 41.9375 25.78125 44.03125 22.75 
Q 46.140625 19.734375 46.140625 15.234375 
Q 46.140625 10.84375 43.578125 6.953125 
Q 41.015625 3.078125 36.171875 0.953125 
Q 31.34375 -1.171875 25.25 -1.171875 
Q 15.140625 -1.171875 9.84375 3.03125 
Q 4.546875 7.234375 3.078125 15.484375 
z
" id="ArialMT-115"/>
        <path d="M 25.78125 7.859375 
L 27.046875 0.09375 
Q 23.34375 -0.6875 20.40625 -0.6875 
Q 15.625 -0.6875 12.984375 0.828125 
Q 10.359375 2.34375 9.28125 4.8125 
Q 8.203125 7.28125 8.203125 15.1875 
L 8.203125 45.015625 
L 1.765625 45.015625 
L 1.765625 51.859375 
L 8.203125 51.859375 
L 8.203125 64.703125 
L 16.9375 69.96875 
L 16.9375 51.859375 
L 25.78125 51.859375 
L 25.78125 45.015625 
L 16.9375 45.015625 
L 16.9375 14.703125 
Q 16.9375 10.9375 17.40625 9.859375 
Q 17.875 8.796875 18.921875 8.15625 
Q 19.96875 7.515625 21.921875 7.515625 
Q 23.390625 7.515625 25.78125 7.859375 
z
" id="ArialMT-116"/>
       </defs>
       <use xlink:href="#ArialMT-70"/>
       <use x="61.083984" xlink:href="#ArialMT-105"/>
       <use x="83.300781" xlink:href="#ArialMT-114"/>
       <use x="116.601562" xlink:href="#ArialMT-115"/>
       <use x="166.601562" xlink:href="#ArialMT-116"/>
      </g>
     </g>
    </g>
    <g id="xtick_2">
     <g id="line2d_2">
      <path clip-path="url(#pfb7df13a3b)" d="M 295.2 378 
L 295.2 51.84 
" style="fill:none;stroke:#ffffff;stroke-linecap:round;"/>
     </g>
     <g id="text_2">
      <!-- Second -->
      <g style="fill:#262626;" transform="translate(257.894531 403.247187)scale(0.22 -0.22)">
       <defs>
        <path d="M 4.5 23 
L 13.421875 23.78125 
Q 14.0625 18.40625 16.375 14.96875 
Q 18.703125 11.53125 23.578125 9.40625 
Q 28.46875 7.28125 34.578125 7.28125 
Q 39.984375 7.28125 44.140625 8.890625 
Q 48.296875 10.5 50.3125 13.296875 
Q 52.34375 16.109375 52.34375 19.4375 
Q 52.34375 22.796875 50.390625 25.3125 
Q 48.4375 27.828125 43.953125 29.546875 
Q 41.0625 30.671875 31.203125 33.03125 
Q 21.34375 35.40625 17.390625 37.5 
Q 12.25 40.1875 9.734375 44.15625 
Q 7.234375 48.140625 7.234375 53.078125 
Q 7.234375 58.5 10.296875 63.203125 
Q 13.375 67.921875 19.28125 70.359375 
Q 25.203125 72.796875 32.421875 72.796875 
Q 40.375 72.796875 46.453125 70.234375 
Q 52.546875 67.671875 55.8125 62.6875 
Q 59.078125 57.71875 59.328125 51.421875 
L 50.25 50.734375 
Q 49.515625 57.515625 45.28125 60.984375 
Q 41.0625 64.453125 32.8125 64.453125 
Q 24.21875 64.453125 20.28125 61.296875 
Q 16.359375 58.15625 16.359375 53.71875 
Q 16.359375 49.859375 19.140625 47.359375 
Q 21.875 44.875 33.421875 42.265625 
Q 44.96875 39.65625 49.265625 37.703125 
Q 55.515625 34.8125 58.484375 30.390625 
Q 61.46875 25.984375 61.46875 20.21875 
Q 61.46875 14.5 58.203125 9.4375 
Q 54.9375 4.390625 48.796875 1.578125 
Q 42.671875 -1.21875 35.015625 -1.21875 
Q 25.296875 -1.21875 18.71875 1.609375 
Q 12.15625 4.4375 8.421875 10.125 
Q 4.6875 15.828125 4.5 23 
z
" id="ArialMT-83"/>
        <path d="M 42.09375 16.703125 
L 51.171875 15.578125 
Q 49.03125 7.625 43.21875 3.21875 
Q 37.40625 -1.171875 28.375 -1.171875 
Q 17 -1.171875 10.328125 5.828125 
Q 3.65625 12.84375 3.65625 25.484375 
Q 3.65625 38.578125 10.390625 45.796875 
Q 17.140625 53.03125 27.875 53.03125 
Q 38.28125 53.03125 44.875 45.953125 
Q 51.46875 38.875 51.46875 26.03125 
Q 51.46875 25.25 51.421875 23.6875 
L 12.75 23.6875 
Q 13.234375 15.140625 17.578125 10.59375 
Q 21.921875 6.0625 28.421875 6.0625 
Q 33.25 6.0625 36.671875 8.59375 
Q 40.09375 11.140625 42.09375 16.703125 
z
M 13.234375 30.90625 
L 42.1875 30.90625 
Q 41.609375 37.453125 38.875 40.71875 
Q 34.671875 45.796875 27.984375 45.796875 
Q 21.921875 45.796875 17.796875 41.75 
Q 13.671875 37.703125 13.234375 30.90625 
z
" id="ArialMT-101"/>
        <path d="M 40.4375 19 
L 49.078125 17.875 
Q 47.65625 8.9375 41.8125 3.875 
Q 35.984375 -1.171875 27.484375 -1.171875 
Q 16.84375 -1.171875 10.375 5.78125 
Q 3.90625 12.75 3.90625 25.734375 
Q 3.90625 34.125 6.6875 40.421875 
Q 9.46875 46.734375 15.15625 49.875 
Q 20.84375 53.03125 27.546875 53.03125 
Q 35.984375 53.03125 41.359375 48.75 
Q 46.734375 44.484375 48.25 36.625 
L 39.703125 35.296875 
Q 38.484375 40.53125 35.375 43.15625 
Q 32.28125 45.796875 27.875 45.796875 
Q 21.234375 45.796875 17.078125 41.03125 
Q 12.9375 36.28125 12.9375 25.984375 
Q 12.9375 15.53125 16.9375 10.796875 
Q 20.953125 6.0625 27.390625 6.0625 
Q 32.5625 6.0625 36.03125 9.234375 
Q 39.5 12.40625 40.4375 19 
z
" id="ArialMT-99"/>
        <path d="M 3.328125 25.921875 
Q 3.328125 40.328125 11.328125 47.265625 
Q 18.015625 53.03125 27.640625 53.03125 
Q 38.328125 53.03125 45.109375 46.015625 
Q 51.90625 39.015625 51.90625 26.65625 
Q 51.90625 16.65625 48.90625 10.90625 
Q 45.90625 5.171875 40.15625 2 
Q 34.421875 -1.171875 27.640625 -1.171875 
Q 16.75 -1.171875 10.03125 5.8125 
Q 3.328125 12.796875 3.328125 25.921875 
z
M 12.359375 25.921875 
Q 12.359375 15.96875 16.703125 11.015625 
Q 21.046875 6.0625 27.640625 6.0625 
Q 34.1875 6.0625 38.53125 11.03125 
Q 42.875 16.015625 42.875 26.21875 
Q 42.875 35.84375 38.5 40.796875 
Q 34.125 45.75 27.640625 45.75 
Q 21.046875 45.75 16.703125 40.8125 
Q 12.359375 35.890625 12.359375 25.921875 
z
" id="ArialMT-111"/>
        <path d="M 6.59375 0 
L 6.59375 51.859375 
L 14.5 51.859375 
L 14.5 44.484375 
Q 20.21875 53.03125 31 53.03125 
Q 35.6875 53.03125 39.625 51.34375 
Q 43.5625 49.65625 45.515625 46.921875 
Q 47.46875 44.1875 48.25 40.4375 
Q 48.734375 37.984375 48.734375 31.890625 
L 48.734375 0 
L 39.9375 0 
L 39.9375 31.546875 
Q 39.9375 36.921875 38.90625 39.578125 
Q 37.890625 42.234375 35.28125 43.8125 
Q 32.671875 45.40625 29.15625 45.40625 
Q 23.53125 45.40625 19.453125 41.84375 
Q 15.375 38.28125 15.375 28.328125 
L 15.375 0 
z
" id="ArialMT-110"/>
        <path d="M 40.234375 0 
L 40.234375 6.546875 
Q 35.296875 -1.171875 25.734375 -1.171875 
Q 19.53125 -1.171875 14.328125 2.25 
Q 9.125 5.671875 6.265625 11.796875 
Q 3.421875 17.921875 3.421875 25.875 
Q 3.421875 33.640625 6 39.96875 
Q 8.59375 46.296875 13.765625 49.65625 
Q 18.953125 53.03125 25.34375 53.03125 
Q 30.03125 53.03125 33.6875 51.046875 
Q 37.359375 49.078125 39.65625 45.90625 
L 39.65625 71.578125 
L 48.390625 71.578125 
L 48.390625 0 
z
M 12.453125 25.875 
Q 12.453125 15.921875 16.640625 10.984375 
Q 20.84375 6.0625 26.5625 6.0625 
Q 32.328125 6.0625 36.34375 10.765625 
Q 40.375 15.484375 40.375 25.140625 
Q 40.375 35.796875 36.265625 40.765625 
Q 32.171875 45.75 26.171875 45.75 
Q 20.3125 45.75 16.375 40.96875 
Q 12.453125 36.1875 12.453125 25.875 
z
" id="ArialMT-100"/>
       </defs>
       <use xlink:href="#ArialMT-83"/>
       <use x="66.699219" xlink:href="#ArialMT-101"/>
       <use x="122.314453" xlink:href="#ArialMT-99"/>
       <use x="172.314453" xlink:href="#ArialMT-111"/>
       <use x="227.929688" xlink:href="#ArialMT-110"/>
       <use x="283.544922" xlink:href="#ArialMT-100"/>
      </g>
     </g>
    </g>
    <g id="xtick_3">
     <g id="line2d_3">
      <path clip-path="url(#pfb7df13a3b)" d="M 457.527273 378 
L 457.527273 51.84 
" style="fill:none;stroke:#ffffff;stroke-linecap:round;"/>
     </g>
     <g id="text_3">
      <!-- Third -->
      <g style="fill:#262626;" transform="translate(432.467898 403.247187)scale(0.22 -0.22)">
       <defs>
        <path d="M 25.921875 0 
L 25.921875 63.140625 
L 2.34375 63.140625 
L 2.34375 71.578125 
L 59.078125 71.578125 
L 59.078125 63.140625 
L 35.40625 63.140625 
L 35.40625 0 
z
" id="ArialMT-84"/>
        <path d="M 6.59375 0 
L 6.59375 71.578125 
L 15.375 71.578125 
L 15.375 45.90625 
Q 21.53125 53.03125 30.90625 53.03125 
Q 36.671875 53.03125 40.921875 50.75 
Q 45.171875 48.484375 47 44.484375 
Q 48.828125 40.484375 48.828125 32.859375 
L 48.828125 0 
L 40.046875 0 
L 40.046875 32.859375 
Q 40.046875 39.453125 37.1875 42.453125 
Q 34.328125 45.453125 29.109375 45.453125 
Q 25.203125 45.453125 21.75 43.421875 
Q 18.3125 41.40625 16.84375 37.9375 
Q 15.375 34.46875 15.375 28.375 
L 15.375 0 
z
" id="ArialMT-104"/>
       </defs>
       <use xlink:href="#ArialMT-84"/>
       <use x="61.083984" xlink:href="#ArialMT-104"/>
       <use x="116.699219" xlink:href="#ArialMT-105"/>
       <use x="138.916016" xlink:href="#ArialMT-114"/>
       <use x="172.216797" xlink:href="#ArialMT-100"/>
      </g>
     </g>
    </g>
    <g id="text_4">
     <!-- RNN Layers -->
     <g style="fill:#262626;" transform="translate(229.8525 428.798437)scale(0.24 -0.24)">
      <defs>
       <path d="M 7.859375 0 
L 7.859375 71.578125 
L 39.59375 71.578125 
Q 49.171875 71.578125 54.140625 69.640625 
Q 59.125 67.71875 62.109375 62.828125 
Q 65.09375 57.953125 65.09375 52.046875 
Q 65.09375 44.4375 60.15625 39.203125 
Q 55.21875 33.984375 44.921875 32.5625 
Q 48.6875 30.765625 50.640625 29 
Q 54.78125 25.203125 58.5 19.484375 
L 70.953125 0 
L 59.03125 0 
L 49.5625 14.890625 
Q 45.40625 21.34375 42.71875 24.75 
Q 40.046875 28.171875 37.921875 29.53125 
Q 35.796875 30.90625 33.59375 31.453125 
Q 31.984375 31.78125 28.328125 31.78125 
L 17.328125 31.78125 
L 17.328125 0 
z
M 17.328125 39.984375 
L 37.703125 39.984375 
Q 44.1875 39.984375 47.84375 41.328125 
Q 51.515625 42.671875 53.421875 45.625 
Q 55.328125 48.578125 55.328125 52.046875 
Q 55.328125 57.125 51.640625 60.390625 
Q 47.953125 63.671875 39.984375 63.671875 
L 17.328125 63.671875 
z
" id="ArialMT-82"/>
       <path d="M 7.625 0 
L 7.625 71.578125 
L 17.328125 71.578125 
L 54.9375 15.375 
L 54.9375 71.578125 
L 64.015625 71.578125 
L 64.015625 0 
L 54.296875 0 
L 16.703125 56.25 
L 16.703125 0 
z
" id="ArialMT-78"/>
       <path id="ArialMT-32"/>
       <path d="M 7.328125 0 
L 7.328125 71.578125 
L 16.796875 71.578125 
L 16.796875 8.453125 
L 52.046875 8.453125 
L 52.046875 0 
z
" id="ArialMT-76"/>
       <path d="M 40.4375 6.390625 
Q 35.546875 2.25 31.03125 0.53125 
Q 26.515625 -1.171875 21.34375 -1.171875 
Q 12.796875 -1.171875 8.203125 3 
Q 3.609375 7.171875 3.609375 13.671875 
Q 3.609375 17.484375 5.34375 20.625 
Q 7.078125 23.78125 9.890625 25.6875 
Q 12.703125 27.59375 16.21875 28.5625 
Q 18.796875 29.25 24.03125 29.890625 
Q 34.671875 31.15625 39.703125 32.90625 
Q 39.75 34.71875 39.75 35.203125 
Q 39.75 40.578125 37.25 42.78125 
Q 33.890625 45.75 27.25 45.75 
Q 21.046875 45.75 18.09375 43.578125 
Q 15.140625 41.40625 13.71875 35.890625 
L 5.125 37.0625 
Q 6.296875 42.578125 8.984375 45.96875 
Q 11.671875 49.359375 16.75 51.1875 
Q 21.828125 53.03125 28.515625 53.03125 
Q 35.15625 53.03125 39.296875 51.46875 
Q 43.453125 49.90625 45.40625 47.53125 
Q 47.359375 45.171875 48.140625 41.546875 
Q 48.578125 39.3125 48.578125 33.453125 
L 48.578125 21.734375 
Q 48.578125 9.46875 49.140625 6.21875 
Q 49.703125 2.984375 51.375 0 
L 42.1875 0 
Q 40.828125 2.734375 40.4375 6.390625 
z
M 39.703125 26.03125 
Q 34.90625 24.078125 25.34375 22.703125 
Q 19.921875 21.921875 17.671875 20.9375 
Q 15.4375 19.96875 14.203125 18.09375 
Q 12.984375 16.21875 12.984375 13.921875 
Q 12.984375 10.40625 15.640625 8.0625 
Q 18.3125 5.71875 23.4375 5.71875 
Q 28.515625 5.71875 32.46875 7.9375 
Q 36.421875 10.15625 38.28125 14.015625 
Q 39.703125 17 39.703125 22.796875 
z
" id="ArialMT-97"/>
       <path d="M 6.203125 -19.96875 
L 5.21875 -11.71875 
Q 8.109375 -12.5 10.25 -12.5 
Q 13.1875 -12.5 14.9375 -11.515625 
Q 16.703125 -10.546875 17.828125 -8.796875 
Q 18.65625 -7.46875 20.515625 -2.25 
Q 20.75 -1.515625 21.296875 -0.09375 
L 1.609375 51.859375 
L 11.078125 51.859375 
L 21.875 21.828125 
Q 23.96875 16.109375 25.640625 9.8125 
Q 27.15625 15.875 29.25 21.625 
L 40.328125 51.859375 
L 49.125 51.859375 
L 29.390625 -0.875 
Q 26.21875 -9.421875 24.46875 -12.640625 
Q 22.125 -17 19.09375 -19.015625 
Q 16.0625 -21.046875 11.859375 -21.046875 
Q 9.328125 -21.046875 6.203125 -19.96875 
z
" id="ArialMT-121"/>
      </defs>
      <use xlink:href="#ArialMT-82"/>
      <use x="72.216797" xlink:href="#ArialMT-78"/>
      <use x="144.433594" xlink:href="#ArialMT-78"/>
      <use x="216.650391" xlink:href="#ArialMT-32"/>
      <use x="244.433594" xlink:href="#ArialMT-76"/>
      <use x="300.048828" xlink:href="#ArialMT-97"/>
      <use x="355.664062" xlink:href="#ArialMT-121"/>
      <use x="405.664062" xlink:href="#ArialMT-101"/>
      <use x="461.279297" xlink:href="#ArialMT-114"/>
      <use x="494.580078" xlink:href="#ArialMT-115"/>
     </g>
    </g>
   </g>
   <g id="matplotlib.axis_2">
    <g id="ytick_1">
     <g id="line2d_4">
      <path clip-path="url(#pfb7df13a3b)" d="M 72 375.529091 
L 518.4 375.529091 
" style="fill:none;stroke:#ffffff;stroke-linecap:round;"/>
     </g>
     <g id="text_5">
      <!-- 0.00 -->
      <g style="fill:#262626;" transform="translate(19.685938 383.402685)scale(0.22 -0.22)">
       <defs>
        <path d="M 4.15625 35.296875 
Q 4.15625 48 6.765625 55.734375 
Q 9.375 63.484375 14.515625 67.671875 
Q 19.671875 71.875 27.484375 71.875 
Q 33.25 71.875 37.59375 69.546875 
Q 41.9375 67.234375 44.765625 62.859375 
Q 47.609375 58.5 49.21875 52.21875 
Q 50.828125 45.953125 50.828125 35.296875 
Q 50.828125 22.703125 48.234375 14.96875 
Q 45.65625 7.234375 40.5 3 
Q 35.359375 -1.21875 27.484375 -1.21875 
Q 17.140625 -1.21875 11.234375 6.203125 
Q 4.15625 15.140625 4.15625 35.296875 
z
M 13.1875 35.296875 
Q 13.1875 17.671875 17.3125 11.828125 
Q 21.4375 6 27.484375 6 
Q 33.546875 6 37.671875 11.859375 
Q 41.796875 17.71875 41.796875 35.296875 
Q 41.796875 52.984375 37.671875 58.78125 
Q 33.546875 64.59375 27.390625 64.59375 
Q 21.34375 64.59375 17.71875 59.46875 
Q 13.1875 52.9375 13.1875 35.296875 
z
" id="ArialMT-48"/>
        <path d="M 9.078125 0 
L 9.078125 10.015625 
L 19.09375 10.015625 
L 19.09375 0 
z
" id="ArialMT-46"/>
       </defs>
       <use xlink:href="#ArialMT-48"/>
       <use x="55.615234" xlink:href="#ArialMT-46"/>
       <use x="83.398438" xlink:href="#ArialMT-48"/>
       <use x="139.013672" xlink:href="#ArialMT-48"/>
      </g>
     </g>
    </g>
    <g id="ytick_2">
     <g id="line2d_5">
      <path clip-path="url(#pfb7df13a3b)" d="M 72 313.756364 
L 518.4 313.756364 
" style="fill:none;stroke:#ffffff;stroke-linecap:round;"/>
     </g>
     <g id="text_6">
      <!-- 0.05 -->
      <g style="fill:#262626;" transform="translate(19.685938 321.629957)scale(0.22 -0.22)">
       <defs>
        <path d="M 4.15625 18.75 
L 13.375 19.53125 
Q 14.40625 12.796875 18.140625 9.390625 
Q 21.875 6 27.15625 6 
Q 33.5 6 37.890625 10.78125 
Q 42.28125 15.578125 42.28125 23.484375 
Q 42.28125 31 38.0625 35.34375 
Q 33.84375 39.703125 27 39.703125 
Q 22.75 39.703125 19.328125 37.765625 
Q 15.921875 35.84375 13.96875 32.765625 
L 5.71875 33.84375 
L 12.640625 70.609375 
L 48.25 70.609375 
L 48.25 62.203125 
L 19.671875 62.203125 
L 15.828125 42.96875 
Q 22.265625 47.46875 29.34375 47.46875 
Q 38.71875 47.46875 45.15625 40.96875 
Q 51.609375 34.46875 51.609375 24.265625 
Q 51.609375 14.546875 45.953125 7.46875 
Q 39.0625 -1.21875 27.15625 -1.21875 
Q 17.390625 -1.21875 11.203125 4.25 
Q 5.03125 9.71875 4.15625 18.75 
z
" id="ArialMT-53"/>
       </defs>
       <use xlink:href="#ArialMT-48"/>
       <use x="55.615234" xlink:href="#ArialMT-46"/>
       <use x="83.398438" xlink:href="#ArialMT-48"/>
       <use x="139.013672" xlink:href="#ArialMT-53"/>
      </g>
     </g>
    </g>
    <g id="ytick_3">
     <g id="line2d_6">
      <path clip-path="url(#pfb7df13a3b)" d="M 72 251.983636 
L 518.4 251.983636 
" style="fill:none;stroke:#ffffff;stroke-linecap:round;"/>
     </g>
     <g id="text_7">
      <!-- 0.10 -->
      <g style="fill:#262626;" transform="translate(19.685938 259.85723)scale(0.22 -0.22)">
       <defs>
        <path d="M 37.25 0 
L 28.46875 0 
L 28.46875 56 
Q 25.296875 52.984375 20.140625 49.953125 
Q 14.984375 46.921875 10.890625 45.40625 
L 10.890625 53.90625 
Q 18.265625 57.375 23.78125 62.296875 
Q 29.296875 67.234375 31.59375 71.875 
L 37.25 71.875 
z
" id="ArialMT-49"/>
       </defs>
       <use xlink:href="#ArialMT-48"/>
       <use x="55.615234" xlink:href="#ArialMT-46"/>
       <use x="83.398438" xlink:href="#ArialMT-49"/>
       <use x="139.013672" xlink:href="#ArialMT-48"/>
      </g>
     </g>
    </g>
    <g id="ytick_4">
     <g id="line2d_7">
      <path clip-path="url(#pfb7df13a3b)" d="M 72 190.210909 
L 518.4 190.210909 
" style="fill:none;stroke:#ffffff;stroke-linecap:round;"/>
     </g>
     <g id="text_8">
      <!-- 0.15 -->
      <g style="fill:#262626;" transform="translate(19.685938 198.084503)scale(0.22 -0.22)">
       <use xlink:href="#ArialMT-48"/>
       <use x="55.615234" xlink:href="#ArialMT-46"/>
       <use x="83.398438" xlink:href="#ArialMT-49"/>
       <use x="139.013672" xlink:href="#ArialMT-53"/>
      </g>
     </g>
    </g>
    <g id="ytick_5">
     <g id="line2d_8">
      <path clip-path="url(#pfb7df13a3b)" d="M 72 128.438182 
L 518.4 128.438182 
" style="fill:none;stroke:#ffffff;stroke-linecap:round;"/>
     </g>
     <g id="text_9">
      <!-- 0.20 -->
      <g style="fill:#262626;" transform="translate(19.685938 136.311776)scale(0.22 -0.22)">
       <defs>
        <path d="M 50.34375 8.453125 
L 50.34375 0 
L 3.03125 0 
Q 2.9375 3.171875 4.046875 6.109375 
Q 5.859375 10.9375 9.828125 15.625 
Q 13.8125 20.3125 21.34375 26.46875 
Q 33.015625 36.03125 37.109375 41.625 
Q 41.21875 47.21875 41.21875 52.203125 
Q 41.21875 57.421875 37.46875 61 
Q 33.734375 64.59375 27.734375 64.59375 
Q 21.390625 64.59375 17.578125 60.78125 
Q 13.765625 56.984375 13.71875 50.25 
L 4.6875 51.171875 
Q 5.609375 61.28125 11.65625 66.578125 
Q 17.71875 71.875 27.9375 71.875 
Q 38.234375 71.875 44.234375 66.15625 
Q 50.25 60.453125 50.25 52 
Q 50.25 47.703125 48.484375 43.546875 
Q 46.734375 39.40625 42.65625 34.8125 
Q 38.578125 30.21875 29.109375 22.21875 
Q 21.1875 15.578125 18.9375 13.203125 
Q 16.703125 10.84375 15.234375 8.453125 
z
" id="ArialMT-50"/>
       </defs>
       <use xlink:href="#ArialMT-48"/>
       <use x="55.615234" xlink:href="#ArialMT-46"/>
       <use x="83.398438" xlink:href="#ArialMT-50"/>
       <use x="139.013672" xlink:href="#ArialMT-48"/>
      </g>
     </g>
    </g>
    <g id="ytick_6">
     <g id="line2d_9">
      <path clip-path="url(#pfb7df13a3b)" d="M 72 66.665455 
L 518.4 66.665455 
" style="fill:none;stroke:#ffffff;stroke-linecap:round;"/>
     </g>
     <g id="text_10">
      <!-- 0.25 -->
      <g style="fill:#262626;" transform="translate(19.685938 74.539048)scale(0.22 -0.22)">
       <use xlink:href="#ArialMT-48"/>
       <use x="55.615234" xlink:href="#ArialMT-46"/>
       <use x="83.398438" xlink:href="#ArialMT-50"/>
       <use x="139.013672" xlink:href="#ArialMT-53"/>
      </g>
     </g>
    </g>
    <g id="text_11">
     <!-- Dropout ratio (%) -->
     <g style="fill:#262626;" transform="translate(10.634687 306.279375)rotate(-90)scale(0.24 -0.24)">
      <defs>
       <path d="M 7.71875 0 
L 7.71875 71.578125 
L 32.375 71.578125 
Q 40.71875 71.578125 45.125 70.5625 
Q 51.265625 69.140625 55.609375 65.4375 
Q 61.28125 60.640625 64.078125 53.1875 
Q 66.890625 45.75 66.890625 36.1875 
Q 66.890625 28.03125 64.984375 21.734375 
Q 63.09375 15.4375 60.109375 11.296875 
Q 57.125 7.171875 53.578125 4.796875 
Q 50.046875 2.4375 45.046875 1.21875 
Q 40.046875 0 33.546875 0 
z
M 17.1875 8.453125 
L 32.46875 8.453125 
Q 39.546875 8.453125 43.578125 9.765625 
Q 47.609375 11.078125 50 13.484375 
Q 53.375 16.84375 55.25 22.53125 
Q 57.125 28.21875 57.125 36.328125 
Q 57.125 47.5625 53.4375 53.59375 
Q 49.75 59.625 44.484375 61.671875 
Q 40.671875 63.140625 32.234375 63.140625 
L 17.1875 63.140625 
z
" id="ArialMT-68"/>
       <path d="M 6.59375 -19.875 
L 6.59375 51.859375 
L 14.59375 51.859375 
L 14.59375 45.125 
Q 17.4375 49.078125 21 51.046875 
Q 24.5625 53.03125 29.640625 53.03125 
Q 36.28125 53.03125 41.359375 49.609375 
Q 46.4375 46.1875 49.015625 39.953125 
Q 51.609375 33.734375 51.609375 26.3125 
Q 51.609375 18.359375 48.75 11.984375 
Q 45.90625 5.609375 40.453125 2.21875 
Q 35.015625 -1.171875 29 -1.171875 
Q 24.609375 -1.171875 21.109375 0.6875 
Q 17.625 2.546875 15.375 5.375 
L 15.375 -19.875 
z
M 14.546875 25.640625 
Q 14.546875 15.625 18.59375 10.84375 
Q 22.65625 6.0625 28.421875 6.0625 
Q 34.28125 6.0625 38.453125 11.015625 
Q 42.625 15.96875 42.625 26.375 
Q 42.625 36.28125 38.546875 41.203125 
Q 34.46875 46.140625 28.8125 46.140625 
Q 23.1875 46.140625 18.859375 40.890625 
Q 14.546875 35.640625 14.546875 25.640625 
z
" id="ArialMT-112"/>
       <path d="M 40.578125 0 
L 40.578125 7.625 
Q 34.515625 -1.171875 24.125 -1.171875 
Q 19.53125 -1.171875 15.546875 0.578125 
Q 11.578125 2.34375 9.640625 5 
Q 7.71875 7.671875 6.9375 11.53125 
Q 6.390625 14.109375 6.390625 19.734375 
L 6.390625 51.859375 
L 15.1875 51.859375 
L 15.1875 23.09375 
Q 15.1875 16.21875 15.71875 13.8125 
Q 16.546875 10.359375 19.234375 8.375 
Q 21.921875 6.390625 25.875 6.390625 
Q 29.828125 6.390625 33.296875 8.421875 
Q 36.765625 10.453125 38.203125 13.9375 
Q 39.65625 17.4375 39.65625 24.078125 
L 39.65625 51.859375 
L 48.4375 51.859375 
L 48.4375 0 
z
" id="ArialMT-117"/>
       <path d="M 23.390625 -21.046875 
Q 16.109375 -11.859375 11.078125 0.4375 
Q 6.0625 12.75 6.0625 25.921875 
Q 6.0625 37.546875 9.8125 48.1875 
Q 14.203125 60.546875 23.390625 72.796875 
L 29.6875 72.796875 
Q 23.78125 62.640625 21.875 58.296875 
Q 18.890625 51.5625 17.1875 44.234375 
Q 15.09375 35.109375 15.09375 25.875 
Q 15.09375 2.390625 29.6875 -21.046875 
z
" id="ArialMT-40"/>
       <path d="M 5.8125 54.390625 
Q 5.8125 62.0625 9.671875 67.421875 
Q 13.53125 72.796875 20.84375 72.796875 
Q 27.59375 72.796875 32 67.984375 
Q 36.421875 63.1875 36.421875 53.859375 
Q 36.421875 44.78125 31.953125 39.875 
Q 27.484375 34.96875 20.953125 34.96875 
Q 14.453125 34.96875 10.125 39.796875 
Q 5.8125 44.625 5.8125 54.390625 
z
M 21.09375 66.75 
Q 17.828125 66.75 15.65625 63.90625 
Q 13.484375 61.078125 13.484375 53.515625 
Q 13.484375 46.625 15.671875 43.8125 
Q 17.875 41.015625 21.09375 41.015625 
Q 24.421875 41.015625 26.59375 43.84375 
Q 28.765625 46.6875 28.765625 54.203125 
Q 28.765625 61.140625 26.5625 63.9375 
Q 24.359375 66.75 21.09375 66.75 
z
M 21.140625 -2.640625 
L 60.296875 72.796875 
L 67.4375 72.796875 
L 28.421875 -2.640625 
z
M 52.09375 16.796875 
Q 52.09375 24.515625 55.953125 29.859375 
Q 59.8125 35.203125 67.1875 35.203125 
Q 73.921875 35.203125 78.34375 30.390625 
Q 82.765625 25.59375 82.765625 16.265625 
Q 82.765625 7.171875 78.296875 2.265625 
Q 73.828125 -2.640625 67.234375 -2.640625 
Q 60.75 -2.640625 56.421875 2.21875 
Q 52.09375 7.078125 52.09375 16.796875 
z
M 67.4375 29.15625 
Q 64.109375 29.15625 61.9375 26.3125 
Q 59.765625 23.484375 59.765625 15.921875 
Q 59.765625 9.078125 61.953125 6.25 
Q 64.15625 3.421875 67.390625 3.421875 
Q 70.75 3.421875 72.921875 6.25 
Q 75.09375 9.078125 75.09375 16.609375 
Q 75.09375 23.53125 72.890625 26.34375 
Q 70.703125 29.15625 67.4375 29.15625 
z
" id="ArialMT-37"/>
       <path d="M 12.359375 -21.046875 
L 6.0625 -21.046875 
Q 20.65625 2.390625 20.65625 25.875 
Q 20.65625 35.0625 18.5625 44.09375 
Q 16.890625 51.421875 13.921875 58.15625 
Q 12.015625 62.546875 6.0625 72.796875 
L 12.359375 72.796875 
Q 21.53125 60.546875 25.921875 48.1875 
Q 29.6875 37.546875 29.6875 25.921875 
Q 29.6875 12.75 24.625 0.4375 
Q 19.578125 -11.859375 12.359375 -21.046875 
z
" id="ArialMT-41"/>
      </defs>
      <use xlink:href="#ArialMT-68"/>
      <use x="72.216797" xlink:href="#ArialMT-114"/>
      <use x="105.517578" xlink:href="#ArialMT-111"/>
      <use x="161.132812" xlink:href="#ArialMT-112"/>
      <use x="216.748047" xlink:href="#ArialMT-111"/>
      <use x="272.363281" xlink:href="#ArialMT-117"/>
      <use x="327.978516" xlink:href="#ArialMT-116"/>
      <use x="355.761719" xlink:href="#ArialMT-32"/>
      <use x="383.544922" xlink:href="#ArialMT-114"/>
      <use x="416.845703" xlink:href="#ArialMT-97"/>
      <use x="472.460938" xlink:href="#ArialMT-116"/>
      <use x="500.244141" xlink:href="#ArialMT-105"/>
      <use x="522.460938" xlink:href="#ArialMT-111"/>
      <use x="578.076172" xlink:href="#ArialMT-32"/>
      <use x="605.859375" xlink:href="#ArialMT-40"/>
      <use x="639.160156" xlink:href="#ArialMT-37"/>
      <use x="728.076172" xlink:href="#ArialMT-41"/>
     </g>
    </g>
   </g>
   <g id="PolyCollection_1">
    <defs>
     <path d="M 149.735383 -70.580299 
L 116.010072 -70.580299 
L 114.460714 -73.555788 
L 112.926153 -76.531278 
L 111.428994 -79.506768 
L 109.991244 -82.482257 
L 108.633209 -85.457747 
L 107.372352 -88.433237 
L 106.222185 -91.408726 
L 105.191293 -94.384216 
L 104.282564 -97.359706 
L 103.492729 -100.335195 
L 102.812285 -103.310685 
L 102.225849 -106.286175 
L 101.712988 -109.261665 
L 101.249494 -112.237154 
L 100.809056 -115.212644 
L 100.365245 -118.188134 
L 99.893662 -121.163623 
L 99.374093 -124.139113 
L 98.792499 -127.114603 
L 98.142648 -130.090092 
L 97.427228 -133.065582 
L 96.658323 -136.041072 
L 95.85714 -139.016561 
L 95.053001 -141.992051 
L 94.281614 -144.967541 
L 93.582742 -147.943031 
L 92.99745 -150.91852 
L 92.565115 -153.89401 
L 92.320472 -156.8695 
L 92.290909 -159.844989 
L 92.494256 -162.820479 
L 92.937242 -165.795969 
L 93.614747 -168.771458 
L 94.509905 -171.746948 
L 95.595045 -174.722438 
L 96.833364 -177.697927 
L 98.181206 -180.673417 
L 99.590725 -183.648907 
L 101.012737 -186.624396 
L 102.399528 -189.599886 
L 103.707413 -192.575376 
L 104.898891 -195.550866 
L 105.944248 -198.526355 
L 106.822573 -201.501845 
L 107.522134 -204.477335 
L 108.040174 -207.452824 
L 108.382188 -210.428314 
L 108.560773 -213.403804 
L 108.594193 -216.379293 
L 108.504763 -219.354783 
L 108.317174 -222.330273 
L 108.05689 -225.305762 
L 107.748684 -228.281252 
L 107.415401 -231.256742 
L 107.077008 -234.232232 
L 106.749948 -237.207721 
L 106.446812 -240.183211 
L 106.176328 -243.158701 
L 105.943628 -246.13419 
L 105.75075 -249.10968 
L 105.59732 -252.08517 
L 105.481329 -255.060659 
L 105.399956 -258.036149 
L 105.350331 -261.011639 
L 105.330195 -263.987128 
L 105.338397 -266.962618 
L 105.375176 -269.938108 
L 105.442235 -272.913598 
L 105.542605 -275.889087 
L 105.680324 -278.864577 
L 105.859989 -281.840067 
L 106.086232 -284.815556 
L 106.363191 -287.791046 
L 106.694036 -290.766536 
L 107.0806 -293.742025 
L 107.523153 -296.717515 
L 108.020336 -299.693005 
L 108.569256 -302.668494 
L 109.16571 -305.643984 
L 109.804522 -308.619474 
L 110.479929 -311.594963 
L 111.185982 -314.570453 
L 111.916922 -317.545943 
L 112.667478 -320.521433 
L 113.433089 -323.496922 
L 114.210012 -326.472412 
L 114.99534 -329.447902 
L 115.786923 -332.423391 
L 116.583229 -335.398881 
L 117.383149 -338.374371 
L 118.18579 -341.34986 
L 118.990262 -344.32535 
L 119.795497 -347.30084 
L 120.600089 -350.276329 
L 121.402192 -353.251819 
L 122.199457 -356.227309 
L 122.989023 -359.202799 
L 123.767554 -362.178288 
L 124.53131 -365.153778 
L 141.214144 -365.153778 
L 141.214144 -365.153778 
L 141.9779 -362.178288 
L 142.756431 -359.202799 
L 143.545998 -356.227309 
L 144.343263 -353.251819 
L 145.145366 -350.276329 
L 145.949958 -347.30084 
L 146.755192 -344.32535 
L 147.559665 -341.34986 
L 148.362305 -338.374371 
L 149.162225 -335.398881 
L 149.958531 -332.423391 
L 150.750115 -329.447902 
L 151.535443 -326.472412 
L 152.312366 -323.496922 
L 153.077977 -320.521433 
L 153.828533 -317.545943 
L 154.559472 -314.570453 
L 155.265526 -311.594963 
L 155.940932 -308.619474 
L 156.579745 -305.643984 
L 157.176199 -302.668494 
L 157.725118 -299.693005 
L 158.222302 -296.717515 
L 158.664854 -293.742025 
L 159.051418 -290.766536 
L 159.382263 -287.791046 
L 159.659223 -284.815556 
L 159.885466 -281.840067 
L 160.065131 -278.864577 
L 160.20285 -275.889087 
L 160.30322 -272.913598 
L 160.370279 -269.938108 
L 160.407057 -266.962618 
L 160.415259 -263.987128 
L 160.395124 -261.011639 
L 160.345499 -258.036149 
L 160.264125 -255.060659 
L 160.148135 -252.08517 
L 159.994704 -249.10968 
L 159.801827 -246.13419 
L 159.569127 -243.158701 
L 159.298643 -240.183211 
L 158.995506 -237.207721 
L 158.668446 -234.232232 
L 158.330054 -231.256742 
L 157.996771 -228.281252 
L 157.688564 -225.305762 
L 157.42828 -222.330273 
L 157.240692 -219.354783 
L 157.151261 -216.379293 
L 157.184682 -213.403804 
L 157.363267 -210.428314 
L 157.70528 -207.452824 
L 158.223321 -204.477335 
L 158.922882 -201.501845 
L 159.801207 -198.526355 
L 160.846564 -195.550866 
L 162.038041 -192.575376 
L 163.345927 -189.599886 
L 164.732717 -186.624396 
L 166.154729 -183.648907 
L 167.564248 -180.673417 
L 168.91209 -177.697927 
L 170.15041 -174.722438 
L 171.235549 -171.746948 
L 172.130708 -168.771458 
L 172.808212 -165.795969 
L 173.251198 -162.820479 
L 173.454545 -159.844989 
L 173.424983 -156.8695 
L 173.18034 -153.89401 
L 172.748005 -150.91852 
L 172.162712 -147.943031 
L 171.463841 -144.967541 
L 170.692453 -141.992051 
L 169.888315 -139.016561 
L 169.087132 -136.041072 
L 168.318226 -133.065582 
L 167.602807 -130.090092 
L 166.952955 -127.114603 
L 166.371362 -124.139113 
L 165.851793 -121.163623 
L 165.380209 -118.188134 
L 164.936399 -115.212644 
L 164.495961 -112.237154 
L 164.032466 -109.261665 
L 163.519606 -106.286175 
L 162.93317 -103.310685 
L 162.252725 -100.335195 
L 161.462891 -97.359706 
L 160.554162 -94.384216 
L 159.52327 -91.408726 
L 158.373103 -88.433237 
L 157.112245 -85.457747 
L 155.75421 -82.482257 
L 154.316461 -79.506768 
L 152.819301 -76.531278 
L 151.28474 -73.555788 
L 149.735383 -70.580299 
z
" id="m446385224f" style="stroke:#ffffff;stroke-opacity:0.3;"/>
    </defs>
    <g clip-path="url(#pfb7df13a3b)">
     <use style="fill:#4c72b0;fill-opacity:0.3;stroke:#ffffff;stroke-opacity:0.3;" x="0" xlink:href="#m446385224f" y="432"/>
    </g>
   </g>
   <g id="PolyCollection_2">
    <defs>
     <path d="M 313.789043 -68.825455 
L 276.610957 -68.825455 
L 275.482571 -71.820496 
L 274.417683 -74.815537 
L 273.421586 -77.810579 
L 272.495764 -80.80562 
L 271.637842 -83.800661 
L 270.841791 -86.795702 
L 270.098377 -89.790744 
L 269.395827 -92.785785 
L 268.720667 -95.780826 
L 268.058687 -98.775868 
L 267.395954 -101.770909 
L 266.719802 -104.76595 
L 266.019746 -107.760992 
L 265.28823 -110.756033 
L 264.521187 -113.751074 
L 263.718354 -116.746116 
L 262.883334 -119.741157 
L 262.023409 -122.736198 
L 261.149119 -125.73124 
L 260.273644 -128.726281 
L 259.412048 -131.721322 
L 258.580424 -134.716364 
L 257.795017 -137.711405 
L 257.071383 -140.706446 
L 256.42363 -143.701488 
L 255.863794 -146.696529 
L 255.401387 -149.69157 
L 255.043127 -152.686612 
L 254.792863 -155.681653 
L 254.651683 -158.676694 
L 254.618182 -161.671736 
L 254.688855 -164.666777 
L 254.858575 -167.661818 
L 255.121111 -170.65686 
L 255.469626 -173.651901 
L 255.897132 -176.646942 
L 256.396838 -179.641983 
L 256.962385 -182.637025 
L 257.587938 -185.632066 
L 258.268145 -188.627107 
L 258.997966 -191.622149 
L 259.772407 -194.61719 
L 260.586199 -197.612231 
L 261.433451 -200.607273 
L 262.307349 -203.602314 
L 263.199922 -206.597355 
L 264.101929 -209.592397 
L 265.002882 -212.587438 
L 265.891228 -215.582479 
L 266.754668 -218.577521 
L 267.580613 -221.572562 
L 268.35672 -224.567603 
L 269.071485 -227.562645 
L 269.714824 -230.557686 
L 270.278604 -233.552727 
L 270.757072 -236.547769 
L 271.147145 -239.54281 
L 271.448539 -242.537851 
L 271.663734 -245.532893 
L 271.797766 -248.527934 
L 271.857881 -251.522975 
L 271.853079 -254.518017 
L 271.793581 -257.513058 
L 271.690273 -260.508099 
L 271.554164 -263.50314 
L 271.395894 -266.498182 
L 271.225337 -269.493223 
L 271.051302 -272.488264 
L 270.881364 -275.483306 
L 270.721806 -278.478347 
L 270.577678 -281.473388 
L 270.452945 -284.46843 
L 270.350702 -287.463471 
L 270.273425 -290.458512 
L 270.223238 -293.453554 
L 270.202157 -296.448595 
L 270.212291 -299.443636 
L 270.255987 -302.438678 
L 270.335905 -305.433719 
L 270.455023 -308.42876 
L 270.616568 -311.423802 
L 270.823901 -314.418843 
L 271.080353 -317.413884 
L 271.389044 -320.408926 
L 271.752692 -323.403967 
L 272.173446 -326.399008 
L 272.652727 -329.39405 
L 273.191122 -332.389091 
L 273.788309 -335.384132 
L 274.443015 -338.379174 
L 275.153024 -341.374215 
L 275.915196 -344.369256 
L 276.725519 -347.364298 
L 277.57917 -350.359339 
L 278.470581 -353.35438 
L 279.393525 -356.349421 
L 280.341189 -359.344463 
L 281.306271 -362.339504 
L 282.281079 -365.334545 
L 308.118921 -365.334545 
L 308.118921 -365.334545 
L 309.093729 -362.339504 
L 310.058811 -359.344463 
L 311.006475 -356.349421 
L 311.929419 -353.35438 
L 312.82083 -350.359339 
L 313.674481 -347.364298 
L 314.484804 -344.369256 
L 315.246976 -341.374215 
L 315.956985 -338.379174 
L 316.611691 -335.384132 
L 317.208878 -332.389091 
L 317.747273 -329.39405 
L 318.226554 -326.399008 
L 318.647308 -323.403967 
L 319.010956 -320.408926 
L 319.319647 -317.413884 
L 319.576099 -314.418843 
L 319.783432 -311.423802 
L 319.944977 -308.42876 
L 320.064095 -305.433719 
L 320.144013 -302.438678 
L 320.187709 -299.443636 
L 320.197843 -296.448595 
L 320.176762 -293.453554 
L 320.126575 -290.458512 
L 320.049298 -287.463471 
L 319.947055 -284.46843 
L 319.822322 -281.473388 
L 319.678194 -278.478347 
L 319.518636 -275.483306 
L 319.348698 -272.488264 
L 319.174663 -269.493223 
L 319.004106 -266.498182 
L 318.845836 -263.50314 
L 318.709727 -260.508099 
L 318.606419 -257.513058 
L 318.546921 -254.518017 
L 318.542119 -251.522975 
L 318.602234 -248.527934 
L 318.736266 -245.532893 
L 318.951461 -242.537851 
L 319.252855 -239.54281 
L 319.642928 -236.547769 
L 320.121396 -233.552727 
L 320.685176 -230.557686 
L 321.328515 -227.562645 
L 322.04328 -224.567603 
L 322.819387 -221.572562 
L 323.645332 -218.577521 
L 324.508772 -215.582479 
L 325.397118 -212.587438 
L 326.298071 -209.592397 
L 327.200078 -206.597355 
L 328.092651 -203.602314 
L 328.966549 -200.607273 
L 329.813801 -197.612231 
L 330.627593 -194.61719 
L 331.402034 -191.622149 
L 332.131855 -188.627107 
L 332.812062 -185.632066 
L 333.437615 -182.637025 
L 334.003162 -179.641983 
L 334.502868 -176.646942 
L 334.930374 -173.651901 
L 335.278889 -170.65686 
L 335.541425 -167.661818 
L 335.711145 -164.666777 
L 335.781818 -161.671736 
L 335.748317 -158.676694 
L 335.607137 -155.681653 
L 335.356873 -152.686612 
L 334.998613 -149.69157 
L 334.536206 -146.696529 
L 333.97637 -143.701488 
L 333.328617 -140.706446 
L 332.604983 -137.711405 
L 331.819576 -134.716364 
L 330.987952 -131.721322 
L 330.126356 -128.726281 
L 329.250881 -125.73124 
L 328.376591 -122.736198 
L 327.516666 -119.741157 
L 326.681646 -116.746116 
L 325.878813 -113.751074 
L 325.11177 -110.756033 
L 324.380254 -107.760992 
L 323.680198 -104.76595 
L 323.004046 -101.770909 
L 322.341313 -98.775868 
L 321.679333 -95.780826 
L 321.004173 -92.785785 
L 320.301623 -89.790744 
L 319.558209 -86.795702 
L 318.762158 -83.800661 
L 317.904236 -80.80562 
L 316.978414 -77.810579 
L 315.982317 -74.815537 
L 314.917429 -71.820496 
L 313.789043 -68.825455 
z
" id="m686d62b653" style="stroke:#ffffff;stroke-opacity:0.3;"/>
    </defs>
    <g clip-path="url(#pfb7df13a3b)">
     <use style="fill:#4c72b0;fill-opacity:0.3;stroke:#ffffff;stroke-opacity:0.3;" x="0" xlink:href="#m686d62b653" y="432"/>
    </g>
   </g>
   <g id="PolyCollection_3">
    <defs>
     <path d="M 487.117535 -69.599972 
L 427.937011 -69.599972 
L 426.6134 -72.509966 
L 425.450699 -75.419959 
L 424.465305 -78.329952 
L 423.669216 -81.239945 
L 423.069595 -84.149939 
L 422.66853 -87.059932 
L 422.462995 -89.969925 
L 422.445021 -92.879918 
L 422.602045 -95.789912 
L 422.917448 -98.699905 
L 423.371211 -101.609898 
L 423.940682 -104.519891 
L 424.601405 -107.429885 
L 425.327957 -110.339878 
L 426.094773 -113.249871 
L 426.87691 -116.159864 
L 427.650725 -119.069857 
L 428.394455 -121.979851 
L 429.088668 -124.889844 
L 429.7166 -127.799837 
L 430.264369 -130.70983 
L 430.721077 -133.619824 
L 431.078816 -136.529817 
L 431.332599 -139.43981 
L 431.480215 -142.349803 
L 431.52205 -145.259797 
L 431.460871 -148.16979 
L 431.301592 -151.079783 
L 431.051039 -153.989776 
L 430.7177 -156.89977 
L 430.31149 -159.809763 
L 429.843511 -162.719756 
L 429.325814 -165.629749 
L 428.771156 -168.539743 
L 428.192761 -171.449736 
L 427.60406 -174.359729 
L 427.018431 -177.269722 
L 426.448917 -180.179715 
L 425.907946 -183.089709 
L 425.407033 -185.999702 
L 424.956491 -188.909695 
L 424.565138 -191.819688 
L 424.240032 -194.729682 
L 423.986231 -197.639675 
L 423.806593 -200.549668 
L 423.701633 -203.459661 
L 423.66945 -206.369655 
L 423.705721 -209.279648 
L 423.80379 -212.189641 
L 423.954844 -215.099634 
L 424.148172 -218.009628 
L 424.371509 -220.919621 
L 424.611461 -223.829614 
L 424.853974 -226.739607 
L 425.084849 -229.649601 
L 425.290276 -232.559594 
L 425.457353 -235.469587 
L 425.574568 -238.37958 
L 425.632232 -241.289573 
L 425.622825 -244.199567 
L 425.541244 -247.10956 
L 425.384943 -250.019553 
L 425.153962 -252.929546 
L 424.850838 -255.83954 
L 424.480415 -258.749533 
L 424.049561 -261.659526 
L 423.56682 -264.569519 
L 423.042011 -267.479513 
L 422.485819 -270.389506 
L 421.90938 -273.299499 
L 421.323906 -276.209492 
L 420.74036 -279.119486 
L 420.169196 -282.029479 
L 419.620191 -284.939472 
L 419.102343 -287.849465 
L 418.623861 -290.759459 
L 418.192222 -293.669452 
L 417.814279 -296.579445 
L 417.496414 -299.489438 
L 417.244697 -302.399431 
L 417.065037 -305.309425 
L 416.963315 -308.219418 
L 416.945455 -311.129411 
L 417.017442 -314.039404 
L 417.185277 -316.949398 
L 417.454844 -319.859391 
L 417.831727 -322.769384 
L 418.320963 -325.679377 
L 418.926751 -328.589371 
L 419.652145 -331.499364 
L 420.498744 -334.409357 
L 421.466406 -337.31935 
L 422.553004 -340.229344 
L 423.754255 -343.139337 
L 425.063617 -346.04933 
L 426.472291 -348.959323 
L 427.969309 -351.869317 
L 429.541725 -354.77931 
L 431.174893 -357.689303 
L 483.879653 -357.689303 
L 483.879653 -357.689303 
L 485.51282 -354.77931 
L 487.085236 -351.869317 
L 488.582254 -348.959323 
L 489.990928 -346.04933 
L 491.300291 -343.139337 
L 492.501541 -340.229344 
L 493.58814 -337.31935 
L 494.555801 -334.409357 
L 495.4024 -331.499364 
L 496.127794 -328.589371 
L 496.733582 -325.679377 
L 497.222818 -322.769384 
L 497.599702 -319.859391 
L 497.869269 -316.949398 
L 498.037103 -314.039404 
L 498.109091 -311.129411 
L 498.09123 -308.219418 
L 497.989508 -305.309425 
L 497.809849 -302.399431 
L 497.558131 -299.489438 
L 497.240266 -296.579445 
L 496.862324 -293.669452 
L 496.430684 -290.759459 
L 495.952202 -287.849465 
L 495.434354 -284.939472 
L 494.885349 -282.029479 
L 494.314186 -279.119486 
L 493.730639 -276.209492 
L 493.145165 -273.299499 
L 492.568726 -270.389506 
L 492.012534 -267.479513 
L 491.487726 -264.569519 
L 491.004984 -261.659526 
L 490.57413 -258.749533 
L 490.203707 -255.83954 
L 489.900584 -252.929546 
L 489.669603 -250.019553 
L 489.513302 -247.10956 
L 489.43172 -244.199567 
L 489.422313 -241.289573 
L 489.479978 -238.37958 
L 489.597193 -235.469587 
L 489.764269 -232.559594 
L 489.969697 -229.649601 
L 490.200572 -226.739607 
L 490.443084 -223.829614 
L 490.683036 -220.919621 
L 490.906374 -218.009628 
L 491.099701 -215.099634 
L 491.250755 -212.189641 
L 491.348825 -209.279648 
L 491.385095 -206.369655 
L 491.352912 -203.459661 
L 491.247953 -200.549668 
L 491.068315 -197.639675 
L 490.814514 -194.729682 
L 490.489408 -191.819688 
L 490.098054 -188.909695 
L 489.647512 -185.999702 
L 489.1466 -183.089709 
L 488.605629 -180.179715 
L 488.036115 -177.269722 
L 487.450485 -174.359729 
L 486.861784 -171.449736 
L 486.283389 -168.539743 
L 485.728732 -165.629749 
L 485.211034 -162.719756 
L 484.743055 -159.809763 
L 484.336846 -156.89977 
L 484.003507 -153.989776 
L 483.752953 -151.079783 
L 483.593675 -148.16979 
L 483.532495 -145.259797 
L 483.57433 -142.349803 
L 483.721946 -139.43981 
L 483.975729 -136.529817 
L 484.333469 -133.619824 
L 484.790176 -130.70983 
L 485.337945 -127.799837 
L 485.965877 -124.889844 
L 486.66009 -121.979851 
L 487.40382 -119.069857 
L 488.177636 -116.159864 
L 488.959772 -113.249871 
L 489.726588 -110.339878 
L 490.45314 -107.429885 
L 491.113863 -104.519891 
L 491.683335 -101.609898 
L 492.137097 -98.699905 
L 492.4525 -95.789912 
L 492.609525 -92.879918 
L 492.59155 -89.969925 
L 492.386016 -87.059932 
L 491.984951 -84.149939 
L 491.38533 -81.239945 
L 490.589241 -78.329952 
L 489.603847 -75.419959 
L 488.441146 -72.509966 
L 487.117535 -69.599972 
z
" id="me3dde6eb4f" style="stroke:#ffffff;stroke-opacity:0.3;"/>
    </defs>
    <g clip-path="url(#pfb7df13a3b)">
     <use style="fill:#4c72b0;fill-opacity:0.3;stroke:#ffffff;stroke-opacity:0.3;" x="0" xlink:href="#me3dde6eb4f" y="432"/>
    </g>
   </g>
   <g id="LineCollection_1">
    <path clip-path="url(#pfb7df13a3b)" d="M 112.581818 66.846222 
L 153.163636 66.846222 
" style="fill:none;stroke:#4c72b0;stroke-width:1.5;"/>
    <path clip-path="url(#pfb7df13a3b)" d="M 274.909091 66.665455 
L 315.490909 66.665455 
" style="fill:none;stroke:#4c72b0;stroke-width:1.5;"/>
    <path clip-path="url(#pfb7df13a3b)" d="M 437.236364 74.310697 
L 477.818182 74.310697 
" style="fill:none;stroke:#4c72b0;stroke-width:1.5;"/>
   </g>
   <g id="LineCollection_2">
    <path clip-path="url(#pfb7df13a3b)" d="M 112.581818 361.419701 
L 153.163636 361.419701 
" style="fill:none;stroke:#4c72b0;stroke-width:1.5;"/>
    <path clip-path="url(#pfb7df13a3b)" d="M 274.909091 363.174545 
L 315.490909 363.174545 
" style="fill:none;stroke:#4c72b0;stroke-width:1.5;"/>
    <path clip-path="url(#pfb7df13a3b)" d="M 437.236364 362.400028 
L 477.818182 362.400028 
" style="fill:none;stroke:#4c72b0;stroke-width:1.5;"/>
   </g>
   <g id="LineCollection_3">
    <path clip-path="url(#pfb7df13a3b)" d="M 132.872727 361.419701 
L 132.872727 66.846222 
" style="fill:none;stroke:#4c72b0;stroke-width:1.5;"/>
    <path clip-path="url(#pfb7df13a3b)" d="M 295.2 363.174545 
L 295.2 66.665455 
" style="fill:none;stroke:#4c72b0;stroke-width:1.5;"/>
    <path clip-path="url(#pfb7df13a3b)" d="M 457.527273 362.400028 
L 457.527273 74.310697 
" style="fill:none;stroke:#4c72b0;stroke-width:1.5;"/>
   </g>
   <g id="LineCollection_4">
    <path clip-path="url(#pfb7df13a3b)" d="M 112.581818 259.295813 
L 153.163636 259.295813 
" style="fill:none;stroke:#4c72b0;stroke-width:1.5;"/>
    <path clip-path="url(#pfb7df13a3b)" d="M 274.909091 236.157217 
L 315.490909 236.157217 
" style="fill:none;stroke:#4c72b0;stroke-width:1.5;"/>
    <path clip-path="url(#pfb7df13a3b)" d="M 437.236364 219.161916 
L 477.818182 219.161916 
" style="fill:none;stroke:#4c72b0;stroke-width:1.5;"/>
   </g>
   <g id="patch_3">
    <path d="M 72 378 
L 72 51.84 
" style="fill:none;stroke:#ffffff;stroke-linecap:square;stroke-linejoin:miter;stroke-width:1.25;"/>
   </g>
   <g id="patch_4">
    <path d="M 518.4 378 
L 518.4 51.84 
" style="fill:none;stroke:#ffffff;stroke-linecap:square;stroke-linejoin:miter;stroke-width:1.25;"/>
   </g>
   <g id="patch_5">
    <path d="M 72 378 
L 518.4 378 
" style="fill:none;stroke:#ffffff;stroke-linecap:square;stroke-linejoin:miter;stroke-width:1.25;"/>
   </g>
   <g id="patch_6">
    <path d="M 72 51.84 
L 518.4 51.84 
" style="fill:none;stroke:#ffffff;stroke-linecap:square;stroke-linejoin:miter;stroke-width:1.25;"/>
   </g>
   <g id="text_12">
    <!-- Dropout ratio: Island DNN (top 266 models) -->
    <g style="fill:#262626;" transform="translate(64.44375 45.84)scale(0.24 -0.24)">
     <defs>
      <path d="M 9.03125 41.84375 
L 9.03125 51.859375 
L 19.046875 51.859375 
L 19.046875 41.84375 
z
M 9.03125 0 
L 9.03125 10.015625 
L 19.046875 10.015625 
L 19.046875 0 
z
" id="ArialMT-58"/>
      <path d="M 9.328125 0 
L 9.328125 71.578125 
L 18.796875 71.578125 
L 18.796875 0 
z
" id="ArialMT-73"/>
      <path d="M 6.390625 0 
L 6.390625 71.578125 
L 15.1875 71.578125 
L 15.1875 0 
z
" id="ArialMT-108"/>
      <path d="M 49.75 54.046875 
L 41.015625 53.375 
Q 39.84375 58.546875 37.703125 60.890625 
Q 34.125 64.65625 28.90625 64.65625 
Q 24.703125 64.65625 21.53125 62.3125 
Q 17.390625 59.28125 14.984375 53.46875 
Q 12.59375 47.65625 12.5 36.921875 
Q 15.671875 41.75 20.265625 44.09375 
Q 24.859375 46.4375 29.890625 46.4375 
Q 38.671875 46.4375 44.84375 39.96875 
Q 51.03125 33.5 51.03125 23.25 
Q 51.03125 16.5 48.125 10.71875 
Q 45.21875 4.9375 40.140625 1.859375 
Q 35.0625 -1.21875 28.609375 -1.21875 
Q 17.625 -1.21875 10.6875 6.859375 
Q 3.765625 14.9375 3.765625 33.5 
Q 3.765625 54.25 11.421875 63.671875 
Q 18.109375 71.875 29.4375 71.875 
Q 37.890625 71.875 43.28125 67.140625 
Q 48.6875 62.40625 49.75 54.046875 
z
M 13.875 23.1875 
Q 13.875 18.65625 15.796875 14.5 
Q 17.71875 10.359375 21.1875 8.171875 
Q 24.65625 6 28.46875 6 
Q 34.03125 6 38.03125 10.484375 
Q 42.046875 14.984375 42.046875 22.703125 
Q 42.046875 30.125 38.078125 34.390625 
Q 34.125 38.671875 28.125 38.671875 
Q 22.171875 38.671875 18.015625 34.390625 
Q 13.875 30.125 13.875 23.1875 
z
" id="ArialMT-54"/>
      <path d="M 6.59375 0 
L 6.59375 51.859375 
L 14.453125 51.859375 
L 14.453125 44.578125 
Q 16.890625 48.390625 20.9375 50.703125 
Q 25 53.03125 30.171875 53.03125 
Q 35.9375 53.03125 39.625 50.640625 
Q 43.3125 48.25 44.828125 43.953125 
Q 50.984375 53.03125 60.84375 53.03125 
Q 68.5625 53.03125 72.703125 48.75 
Q 76.859375 44.484375 76.859375 35.59375 
L 76.859375 0 
L 68.109375 0 
L 68.109375 32.671875 
Q 68.109375 37.9375 67.25 40.25 
Q 66.40625 42.578125 64.15625 43.984375 
Q 61.921875 45.40625 58.890625 45.40625 
Q 53.421875 45.40625 49.796875 41.765625 
Q 46.1875 38.140625 46.1875 30.125 
L 46.1875 0 
L 37.40625 0 
L 37.40625 33.6875 
Q 37.40625 39.546875 35.25 42.46875 
Q 33.109375 45.40625 28.21875 45.40625 
Q 24.515625 45.40625 21.359375 43.453125 
Q 18.21875 41.5 16.796875 37.734375 
Q 15.375 33.984375 15.375 26.90625 
L 15.375 0 
z
" id="ArialMT-109"/>
     </defs>
     <use xlink:href="#ArialMT-68"/>
     <use x="72.216797" xlink:href="#ArialMT-114"/>
     <use x="105.517578" xlink:href="#ArialMT-111"/>
     <use x="161.132812" xlink:href="#ArialMT-112"/>
     <use x="216.748047" xlink:href="#ArialMT-111"/>
     <use x="272.363281" xlink:href="#ArialMT-117"/>
     <use x="327.978516" xlink:href="#ArialMT-116"/>
     <use x="355.761719" xlink:href="#ArialMT-32"/>
     <use x="383.544922" xlink:href="#ArialMT-114"/>
     <use x="416.845703" xlink:href="#ArialMT-97"/>
     <use x="472.460938" xlink:href="#ArialMT-116"/>
     <use x="500.244141" xlink:href="#ArialMT-105"/>
     <use x="522.460938" xlink:href="#ArialMT-111"/>
     <use x="578.076172" xlink:href="#ArialMT-58"/>
     <use x="605.859375" xlink:href="#ArialMT-32"/>
     <use x="633.642578" xlink:href="#ArialMT-73"/>
     <use x="661.425781" xlink:href="#ArialMT-115"/>
     <use x="711.425781" xlink:href="#ArialMT-108"/>
     <use x="733.642578" xlink:href="#ArialMT-97"/>
     <use x="789.257812" xlink:href="#ArialMT-110"/>
     <use x="844.873047" xlink:href="#ArialMT-100"/>
     <use x="900.488281" xlink:href="#ArialMT-32"/>
     <use x="928.271484" xlink:href="#ArialMT-68"/>
     <use x="1000.488281" xlink:href="#ArialMT-78"/>
     <use x="1072.705078" xlink:href="#ArialMT-78"/>
     <use x="1144.921875" xlink:href="#ArialMT-32"/>
     <use x="1172.705078" xlink:href="#ArialMT-40"/>
     <use x="1206.005859" xlink:href="#ArialMT-116"/>
     <use x="1233.789062" xlink:href="#ArialMT-111"/>
     <use x="1289.404297" xlink:href="#ArialMT-112"/>
     <use x="1345.019531" xlink:href="#ArialMT-32"/>
     <use x="1372.802734" xlink:href="#ArialMT-50"/>
     <use x="1428.417969" xlink:href="#ArialMT-54"/>
     <use x="1484.033203" xlink:href="#ArialMT-54"/>
     <use x="1539.648438" xlink:href="#ArialMT-32"/>
     <use x="1567.431641" xlink:href="#ArialMT-109"/>
     <use x="1650.732422" xlink:href="#ArialMT-111"/>
     <use x="1706.347656" xlink:href="#ArialMT-100"/>
     <use x="1761.962891" xlink:href="#ArialMT-101"/>
     <use x="1817.578125" xlink:href="#ArialMT-108"/>
     <use x="1839.794922" xlink:href="#ArialMT-115"/>
     <use x="1889.794922" xlink:href="#ArialMT-41"/>
    </g>
   </g>
  </g>
 </g>
 <defs>
  <clipPath id="pfb7df13a3b">
   <rect height="326.16" width="446.4" x="72" y="51.84"/>
  </clipPath>
 </defs>
</svg>
