<?xml version="1.0" encoding="utf-8" standalone="no"?>
<!DOCTYPE svg PUBLIC "-//W3C//DTD SVG 1.1//EN"
  "http://www.w3.org/Graphics/SVG/1.1/DTD/svg11.dtd">
<!-- Created with matplotlib (https://matplotlib.org/) -->
<svg height="432pt" version="1.1" viewBox="0 0 576 432" width="576pt" xmlns="http://www.w3.org/2000/svg" xmlns:xlink="http://www.w3.org/1999/xlink">
 <metadata>
  <rdf:RDF xmlns:cc="http://creativecommons.org/ns#" xmlns:dc="http://purl.org/dc/elements/1.1/" xmlns:rdf="http://www.w3.org/1999/02/22-rdf-syntax-ns#">
   <cc:Work>
    <dc:type rdf:resource="http://purl.org/dc/dcmitype/StillImage"/>
    <dc:date>2021-04-02T10:54:22.960005</dc:date>
    <dc:format>image/svg+xml</dc:format>
    <dc:creator>
     <cc:Agent>
      <dc:title>Matplotlib v3.3.4, https://matplotlib.org/</dc:title>
     </cc:Agent>
    </dc:creator>
   </cc:Work>
  </rdf:RDF>
 </metadata>
 <defs>
  <style type="text/css">*{stroke-linecap:butt;stroke-linejoin:round;}</style>
 </defs>
 <g id="figure_1">
  <g id="patch_1">
   <path d="M 0 432 
L 576 432 
L 576 0 
L 0 0 
z
" style="fill:#ffffff;"/>
  </g>
  <g id="axes_1">
   <g id="patch_2">
    <path d="M 72 378 
L 518.4 378 
L 518.4 51.84 
L 72 51.84 
z
" style="fill:#eaeaf2;"/>
   </g>
   <g id="matplotlib.axis_1">
    <g id="xtick_1">
     <g id="line2d_1">
      <path clip-path="url(#pb3bdade72e)" d="M 132.872727 378 
L 132.872727 51.84 
" style="fill:none;stroke:#ffffff;stroke-linecap:round;"/>
     </g>
     <g id="text_1">
      <!-- First -->
      <g style="fill:#262626;" transform="translate(111.491477 403.247187)scale(0.22 -0.22)">
       <defs>
        <path d="M 8.203125 0 
L 8.203125 71.578125 
L 56.5 71.578125 
L 56.5 63.140625 
L 17.671875 63.140625 
L 17.671875 40.96875 
L 51.265625 40.96875 
L 51.265625 32.515625 
L 17.671875 32.515625 
L 17.671875 0 
z
" id="ArialMT-70"/>
        <path d="M 6.640625 61.46875 
L 6.640625 71.578125 
L 15.4375 71.578125 
L 15.4375 61.46875 
z
M 6.640625 0 
L 6.640625 51.859375 
L 15.4375 51.859375 
L 15.4375 0 
z
" id="ArialMT-105"/>
        <path d="M 6.5 0 
L 6.5 51.859375 
L 14.40625 51.859375 
L 14.40625 44 
Q 17.4375 49.515625 20 51.265625 
Q 22.5625 53.03125 25.640625 53.03125 
Q 30.078125 53.03125 34.671875 50.203125 
L 31.640625 42.046875 
Q 28.421875 43.953125 25.203125 43.953125 
Q 22.3125 43.953125 20.015625 42.21875 
Q 17.71875 40.484375 16.75 37.40625 
Q 15.28125 32.71875 15.28125 27.15625 
L 15.28125 0 
z
" id="ArialMT-114"/>
        <path d="M 3.078125 15.484375 
L 11.765625 16.84375 
Q 12.5 11.625 15.84375 8.84375 
Q 19.1875 6.0625 25.203125 6.0625 
Q 31.25 6.0625 34.171875 8.515625 
Q 37.109375 10.984375 37.109375 14.3125 
Q 37.109375 17.28125 34.515625 19 
Q 32.71875 20.171875 25.53125 21.96875 
Q 15.875 24.421875 12.140625 26.203125 
Q 8.40625 27.984375 6.46875 31.125 
Q 4.546875 34.28125 4.546875 38.09375 
Q 4.546875 41.546875 6.125 44.5 
Q 7.71875 47.46875 10.453125 49.421875 
Q 12.5 50.921875 16.03125 51.96875 
Q 19.578125 53.03125 23.640625 53.03125 
Q 29.734375 53.03125 34.34375 51.265625 
Q 38.96875 49.515625 41.15625 46.5 
Q 43.359375 43.5 44.1875 38.484375 
L 35.59375 37.3125 
Q 35.015625 41.3125 32.203125 43.546875 
Q 29.390625 45.796875 24.265625 45.796875 
Q 18.21875 45.796875 15.625 43.796875 
Q 13.03125 41.796875 13.03125 39.109375 
Q 13.03125 37.40625 14.109375 36.03125 
Q 15.1875 34.625 17.484375 33.6875 
Q 18.796875 33.203125 25.25 31.453125 
Q 34.578125 28.953125 38.25 27.359375 
Q 41.9375 25.78125 44.03125 22.75 
Q 46.140625 19.734375 46.140625 15.234375 
Q 46.140625 10.84375 43.578125 6.953125 
Q 41.015625 3.078125 36.171875 0.953125 
Q 31.34375 -1.171875 25.25 -1.171875 
Q 15.140625 -1.171875 9.84375 3.03125 
Q 4.546875 7.234375 3.078125 15.484375 
z
" id="ArialMT-115"/>
        <path d="M 25.78125 7.859375 
L 27.046875 0.09375 
Q 23.34375 -0.6875 20.40625 -0.6875 
Q 15.625 -0.6875 12.984375 0.828125 
Q 10.359375 2.34375 9.28125 4.8125 
Q 8.203125 7.28125 8.203125 15.1875 
L 8.203125 45.015625 
L 1.765625 45.015625 
L 1.765625 51.859375 
L 8.203125 51.859375 
L 8.203125 64.703125 
L 16.9375 69.96875 
L 16.9375 51.859375 
L 25.78125 51.859375 
L 25.78125 45.015625 
L 16.9375 45.015625 
L 16.9375 14.703125 
Q 16.9375 10.9375 17.40625 9.859375 
Q 17.875 8.796875 18.921875 8.15625 
Q 19.96875 7.515625 21.921875 7.515625 
Q 23.390625 7.515625 25.78125 7.859375 
z
" id="ArialMT-116"/>
       </defs>
       <use xlink:href="#ArialMT-70"/>
       <use x="61.083984" xlink:href="#ArialMT-105"/>
       <use x="83.300781" xlink:href="#ArialMT-114"/>
       <use x="116.601562" xlink:href="#ArialMT-115"/>
       <use x="166.601562" xlink:href="#ArialMT-116"/>
      </g>
     </g>
    </g>
    <g id="xtick_2">
     <g id="line2d_2">
      <path clip-path="url(#pb3bdade72e)" d="M 295.2 378 
L 295.2 51.84 
" style="fill:none;stroke:#ffffff;stroke-linecap:round;"/>
     </g>
     <g id="text_2">
      <!-- Second -->
      <g style="fill:#262626;" transform="translate(257.894531 403.247187)scale(0.22 -0.22)">
       <defs>
        <path d="M 4.5 23 
L 13.421875 23.78125 
Q 14.0625 18.40625 16.375 14.96875 
Q 18.703125 11.53125 23.578125 9.40625 
Q 28.46875 7.28125 34.578125 7.28125 
Q 39.984375 7.28125 44.140625 8.890625 
Q 48.296875 10.5 50.3125 13.296875 
Q 52.34375 16.109375 52.34375 19.4375 
Q 52.34375 22.796875 50.390625 25.3125 
Q 48.4375 27.828125 43.953125 29.546875 
Q 41.0625 30.671875 31.203125 33.03125 
Q 21.34375 35.40625 17.390625 37.5 
Q 12.25 40.1875 9.734375 44.15625 
Q 7.234375 48.140625 7.234375 53.078125 
Q 7.234375 58.5 10.296875 63.203125 
Q 13.375 67.921875 19.28125 70.359375 
Q 25.203125 72.796875 32.421875 72.796875 
Q 40.375 72.796875 46.453125 70.234375 
Q 52.546875 67.671875 55.8125 62.6875 
Q 59.078125 57.71875 59.328125 51.421875 
L 50.25 50.734375 
Q 49.515625 57.515625 45.28125 60.984375 
Q 41.0625 64.453125 32.8125 64.453125 
Q 24.21875 64.453125 20.28125 61.296875 
Q 16.359375 58.15625 16.359375 53.71875 
Q 16.359375 49.859375 19.140625 47.359375 
Q 21.875 44.875 33.421875 42.265625 
Q 44.96875 39.65625 49.265625 37.703125 
Q 55.515625 34.8125 58.484375 30.390625 
Q 61.46875 25.984375 61.46875 20.21875 
Q 61.46875 14.5 58.203125 9.4375 
Q 54.9375 4.390625 48.796875 1.578125 
Q 42.671875 -1.21875 35.015625 -1.21875 
Q 25.296875 -1.21875 18.71875 1.609375 
Q 12.15625 4.4375 8.421875 10.125 
Q 4.6875 15.828125 4.5 23 
z
" id="ArialMT-83"/>
        <path d="M 42.09375 16.703125 
L 51.171875 15.578125 
Q 49.03125 7.625 43.21875 3.21875 
Q 37.40625 -1.171875 28.375 -1.171875 
Q 17 -1.171875 10.328125 5.828125 
Q 3.65625 12.84375 3.65625 25.484375 
Q 3.65625 38.578125 10.390625 45.796875 
Q 17.140625 53.03125 27.875 53.03125 
Q 38.28125 53.03125 44.875 45.953125 
Q 51.46875 38.875 51.46875 26.03125 
Q 51.46875 25.25 51.421875 23.6875 
L 12.75 23.6875 
Q 13.234375 15.140625 17.578125 10.59375 
Q 21.921875 6.0625 28.421875 6.0625 
Q 33.25 6.0625 36.671875 8.59375 
Q 40.09375 11.140625 42.09375 16.703125 
z
M 13.234375 30.90625 
L 42.1875 30.90625 
Q 41.609375 37.453125 38.875 40.71875 
Q 34.671875 45.796875 27.984375 45.796875 
Q 21.921875 45.796875 17.796875 41.75 
Q 13.671875 37.703125 13.234375 30.90625 
z
" id="ArialMT-101"/>
        <path d="M 40.4375 19 
L 49.078125 17.875 
Q 47.65625 8.9375 41.8125 3.875 
Q 35.984375 -1.171875 27.484375 -1.171875 
Q 16.84375 -1.171875 10.375 5.78125 
Q 3.90625 12.75 3.90625 25.734375 
Q 3.90625 34.125 6.6875 40.421875 
Q 9.46875 46.734375 15.15625 49.875 
Q 20.84375 53.03125 27.546875 53.03125 
Q 35.984375 53.03125 41.359375 48.75 
Q 46.734375 44.484375 48.25 36.625 
L 39.703125 35.296875 
Q 38.484375 40.53125 35.375 43.15625 
Q 32.28125 45.796875 27.875 45.796875 
Q 21.234375 45.796875 17.078125 41.03125 
Q 12.9375 36.28125 12.9375 25.984375 
Q 12.9375 15.53125 16.9375 10.796875 
Q 20.953125 6.0625 27.390625 6.0625 
Q 32.5625 6.0625 36.03125 9.234375 
Q 39.5 12.40625 40.4375 19 
z
" id="ArialMT-99"/>
        <path d="M 3.328125 25.921875 
Q 3.328125 40.328125 11.328125 47.265625 
Q 18.015625 53.03125 27.640625 53.03125 
Q 38.328125 53.03125 45.109375 46.015625 
Q 51.90625 39.015625 51.90625 26.65625 
Q 51.90625 16.65625 48.90625 10.90625 
Q 45.90625 5.171875 40.15625 2 
Q 34.421875 -1.171875 27.640625 -1.171875 
Q 16.75 -1.171875 10.03125 5.8125 
Q 3.328125 12.796875 3.328125 25.921875 
z
M 12.359375 25.921875 
Q 12.359375 15.96875 16.703125 11.015625 
Q 21.046875 6.0625 27.640625 6.0625 
Q 34.1875 6.0625 38.53125 11.03125 
Q 42.875 16.015625 42.875 26.21875 
Q 42.875 35.84375 38.5 40.796875 
Q 34.125 45.75 27.640625 45.75 
Q 21.046875 45.75 16.703125 40.8125 
Q 12.359375 35.890625 12.359375 25.921875 
z
" id="ArialMT-111"/>
        <path d="M 6.59375 0 
L 6.59375 51.859375 
L 14.5 51.859375 
L 14.5 44.484375 
Q 20.21875 53.03125 31 53.03125 
Q 35.6875 53.03125 39.625 51.34375 
Q 43.5625 49.65625 45.515625 46.921875 
Q 47.46875 44.1875 48.25 40.4375 
Q 48.734375 37.984375 48.734375 31.890625 
L 48.734375 0 
L 39.9375 0 
L 39.9375 31.546875 
Q 39.9375 36.921875 38.90625 39.578125 
Q 37.890625 42.234375 35.28125 43.8125 
Q 32.671875 45.40625 29.15625 45.40625 
Q 23.53125 45.40625 19.453125 41.84375 
Q 15.375 38.28125 15.375 28.328125 
L 15.375 0 
z
" id="ArialMT-110"/>
        <path d="M 40.234375 0 
L 40.234375 6.546875 
Q 35.296875 -1.171875 25.734375 -1.171875 
Q 19.53125 -1.171875 14.328125 2.25 
Q 9.125 5.671875 6.265625 11.796875 
Q 3.421875 17.921875 3.421875 25.875 
Q 3.421875 33.640625 6 39.96875 
Q 8.59375 46.296875 13.765625 49.65625 
Q 18.953125 53.03125 25.34375 53.03125 
Q 30.03125 53.03125 33.6875 51.046875 
Q 37.359375 49.078125 39.65625 45.90625 
L 39.65625 71.578125 
L 48.390625 71.578125 
L 48.390625 0 
z
M 12.453125 25.875 
Q 12.453125 15.921875 16.640625 10.984375 
Q 20.84375 6.0625 26.5625 6.0625 
Q 32.328125 6.0625 36.34375 10.765625 
Q 40.375 15.484375 40.375 25.140625 
Q 40.375 35.796875 36.265625 40.765625 
Q 32.171875 45.75 26.171875 45.75 
Q 20.3125 45.75 16.375 40.96875 
Q 12.453125 36.1875 12.453125 25.875 
z
" id="ArialMT-100"/>
       </defs>
       <use xlink:href="#ArialMT-83"/>
       <use x="66.699219" xlink:href="#ArialMT-101"/>
       <use x="122.314453" xlink:href="#ArialMT-99"/>
       <use x="172.314453" xlink:href="#ArialMT-111"/>
       <use x="227.929688" xlink:href="#ArialMT-110"/>
       <use x="283.544922" xlink:href="#ArialMT-100"/>
      </g>
     </g>
    </g>
    <g id="xtick_3">
     <g id="line2d_3">
      <path clip-path="url(#pb3bdade72e)" d="M 457.527273 378 
L 457.527273 51.84 
" style="fill:none;stroke:#ffffff;stroke-linecap:round;"/>
     </g>
     <g id="text_3">
      <!-- Third -->
      <g style="fill:#262626;" transform="translate(432.467898 403.247187)scale(0.22 -0.22)">
       <defs>
        <path d="M 25.921875 0 
L 25.921875 63.140625 
L 2.34375 63.140625 
L 2.34375 71.578125 
L 59.078125 71.578125 
L 59.078125 63.140625 
L 35.40625 63.140625 
L 35.40625 0 
z
" id="ArialMT-84"/>
        <path d="M 6.59375 0 
L 6.59375 71.578125 
L 15.375 71.578125 
L 15.375 45.90625 
Q 21.53125 53.03125 30.90625 53.03125 
Q 36.671875 53.03125 40.921875 50.75 
Q 45.171875 48.484375 47 44.484375 
Q 48.828125 40.484375 48.828125 32.859375 
L 48.828125 0 
L 40.046875 0 
L 40.046875 32.859375 
Q 40.046875 39.453125 37.1875 42.453125 
Q 34.328125 45.453125 29.109375 45.453125 
Q 25.203125 45.453125 21.75 43.421875 
Q 18.3125 41.40625 16.84375 37.9375 
Q 15.375 34.46875 15.375 28.375 
L 15.375 0 
z
" id="ArialMT-104"/>
       </defs>
       <use xlink:href="#ArialMT-84"/>
       <use x="61.083984" xlink:href="#ArialMT-104"/>
       <use x="116.699219" xlink:href="#ArialMT-105"/>
       <use x="138.916016" xlink:href="#ArialMT-114"/>
       <use x="172.216797" xlink:href="#ArialMT-100"/>
      </g>
     </g>
    </g>
    <g id="text_4">
     <!-- RNN Layers -->
     <g style="fill:#262626;" transform="translate(229.8525 428.798437)scale(0.24 -0.24)">
      <defs>
       <path d="M 7.859375 0 
L 7.859375 71.578125 
L 39.59375 71.578125 
Q 49.171875 71.578125 54.140625 69.640625 
Q 59.125 67.71875 62.109375 62.828125 
Q 65.09375 57.953125 65.09375 52.046875 
Q 65.09375 44.4375 60.15625 39.203125 
Q 55.21875 33.984375 44.921875 32.5625 
Q 48.6875 30.765625 50.640625 29 
Q 54.78125 25.203125 58.5 19.484375 
L 70.953125 0 
L 59.03125 0 
L 49.5625 14.890625 
Q 45.40625 21.34375 42.71875 24.75 
Q 40.046875 28.171875 37.921875 29.53125 
Q 35.796875 30.90625 33.59375 31.453125 
Q 31.984375 31.78125 28.328125 31.78125 
L 17.328125 31.78125 
L 17.328125 0 
z
M 17.328125 39.984375 
L 37.703125 39.984375 
Q 44.1875 39.984375 47.84375 41.328125 
Q 51.515625 42.671875 53.421875 45.625 
Q 55.328125 48.578125 55.328125 52.046875 
Q 55.328125 57.125 51.640625 60.390625 
Q 47.953125 63.671875 39.984375 63.671875 
L 17.328125 63.671875 
z
" id="ArialMT-82"/>
       <path d="M 7.625 0 
L 7.625 71.578125 
L 17.328125 71.578125 
L 54.9375 15.375 
L 54.9375 71.578125 
L 64.015625 71.578125 
L 64.015625 0 
L 54.296875 0 
L 16.703125 56.25 
L 16.703125 0 
z
" id="ArialMT-78"/>
       <path id="ArialMT-32"/>
       <path d="M 7.328125 0 
L 7.328125 71.578125 
L 16.796875 71.578125 
L 16.796875 8.453125 
L 52.046875 8.453125 
L 52.046875 0 
z
" id="ArialMT-76"/>
       <path d="M 40.4375 6.390625 
Q 35.546875 2.25 31.03125 0.53125 
Q 26.515625 -1.171875 21.34375 -1.171875 
Q 12.796875 -1.171875 8.203125 3 
Q 3.609375 7.171875 3.609375 13.671875 
Q 3.609375 17.484375 5.34375 20.625 
Q 7.078125 23.78125 9.890625 25.6875 
Q 12.703125 27.59375 16.21875 28.5625 
Q 18.796875 29.25 24.03125 29.890625 
Q 34.671875 31.15625 39.703125 32.90625 
Q 39.75 34.71875 39.75 35.203125 
Q 39.75 40.578125 37.25 42.78125 
Q 33.890625 45.75 27.25 45.75 
Q 21.046875 45.75 18.09375 43.578125 
Q 15.140625 41.40625 13.71875 35.890625 
L 5.125 37.0625 
Q 6.296875 42.578125 8.984375 45.96875 
Q 11.671875 49.359375 16.75 51.1875 
Q 21.828125 53.03125 28.515625 53.03125 
Q 35.15625 53.03125 39.296875 51.46875 
Q 43.453125 49.90625 45.40625 47.53125 
Q 47.359375 45.171875 48.140625 41.546875 
Q 48.578125 39.3125 48.578125 33.453125 
L 48.578125 21.734375 
Q 48.578125 9.46875 49.140625 6.21875 
Q 49.703125 2.984375 51.375 0 
L 42.1875 0 
Q 40.828125 2.734375 40.4375 6.390625 
z
M 39.703125 26.03125 
Q 34.90625 24.078125 25.34375 22.703125 
Q 19.921875 21.921875 17.671875 20.9375 
Q 15.4375 19.96875 14.203125 18.09375 
Q 12.984375 16.21875 12.984375 13.921875 
Q 12.984375 10.40625 15.640625 8.0625 
Q 18.3125 5.71875 23.4375 5.71875 
Q 28.515625 5.71875 32.46875 7.9375 
Q 36.421875 10.15625 38.28125 14.015625 
Q 39.703125 17 39.703125 22.796875 
z
" id="ArialMT-97"/>
       <path d="M 6.203125 -19.96875 
L 5.21875 -11.71875 
Q 8.109375 -12.5 10.25 -12.5 
Q 13.1875 -12.5 14.9375 -11.515625 
Q 16.703125 -10.546875 17.828125 -8.796875 
Q 18.65625 -7.46875 20.515625 -2.25 
Q 20.75 -1.515625 21.296875 -0.09375 
L 1.609375 51.859375 
L 11.078125 51.859375 
L 21.875 21.828125 
Q 23.96875 16.109375 25.640625 9.8125 
Q 27.15625 15.875 29.25 21.625 
L 40.328125 51.859375 
L 49.125 51.859375 
L 29.390625 -0.875 
Q 26.21875 -9.421875 24.46875 -12.640625 
Q 22.125 -17 19.09375 -19.015625 
Q 16.0625 -21.046875 11.859375 -21.046875 
Q 9.328125 -21.046875 6.203125 -19.96875 
z
" id="ArialMT-121"/>
      </defs>
      <use xlink:href="#ArialMT-82"/>
      <use x="72.216797" xlink:href="#ArialMT-78"/>
      <use x="144.433594" xlink:href="#ArialMT-78"/>
      <use x="216.650391" xlink:href="#ArialMT-32"/>
      <use x="244.433594" xlink:href="#ArialMT-76"/>
      <use x="300.048828" xlink:href="#ArialMT-97"/>
      <use x="355.664062" xlink:href="#ArialMT-121"/>
      <use x="405.664062" xlink:href="#ArialMT-101"/>
      <use x="461.279297" xlink:href="#ArialMT-114"/>
      <use x="494.580078" xlink:href="#ArialMT-115"/>
     </g>
    </g>
   </g>
   <g id="matplotlib.axis_2">
    <g id="ytick_1">
     <g id="line2d_4">
      <path clip-path="url(#pb3bdade72e)" d="M 72 363.364507 
L 518.4 363.364507 
" style="fill:none;stroke:#ffffff;stroke-linecap:round;"/>
     </g>
     <g id="text_5">
      <!-- 0.1 -->
      <g style="fill:#262626;" transform="translate(31.92 371.238101)scale(0.22 -0.22)">
       <defs>
        <path d="M 4.15625 35.296875 
Q 4.15625 48 6.765625 55.734375 
Q 9.375 63.484375 14.515625 67.671875 
Q 19.671875 71.875 27.484375 71.875 
Q 33.25 71.875 37.59375 69.546875 
Q 41.9375 67.234375 44.765625 62.859375 
Q 47.609375 58.5 49.21875 52.21875 
Q 50.828125 45.953125 50.828125 35.296875 
Q 50.828125 22.703125 48.234375 14.96875 
Q 45.65625 7.234375 40.5 3 
Q 35.359375 -1.21875 27.484375 -1.21875 
Q 17.140625 -1.21875 11.234375 6.203125 
Q 4.15625 15.140625 4.15625 35.296875 
z
M 13.1875 35.296875 
Q 13.1875 17.671875 17.3125 11.828125 
Q 21.4375 6 27.484375 6 
Q 33.546875 6 37.671875 11.859375 
Q 41.796875 17.71875 41.796875 35.296875 
Q 41.796875 52.984375 37.671875 58.78125 
Q 33.546875 64.59375 27.390625 64.59375 
Q 21.34375 64.59375 17.71875 59.46875 
Q 13.1875 52.9375 13.1875 35.296875 
z
" id="ArialMT-48"/>
        <path d="M 9.078125 0 
L 9.078125 10.015625 
L 19.09375 10.015625 
L 19.09375 0 
z
" id="ArialMT-46"/>
        <path d="M 37.25 0 
L 28.46875 0 
L 28.46875 56 
Q 25.296875 52.984375 20.140625 49.953125 
Q 14.984375 46.921875 10.890625 45.40625 
L 10.890625 53.90625 
Q 18.265625 57.375 23.78125 62.296875 
Q 29.296875 67.234375 31.59375 71.875 
L 37.25 71.875 
z
" id="ArialMT-49"/>
       </defs>
       <use xlink:href="#ArialMT-48"/>
       <use x="55.615234" xlink:href="#ArialMT-46"/>
       <use x="83.398438" xlink:href="#ArialMT-49"/>
      </g>
     </g>
    </g>
    <g id="ytick_2">
     <g id="line2d_5">
      <path clip-path="url(#pb3bdade72e)" d="M 72 287.819167 
L 518.4 287.819167 
" style="fill:none;stroke:#ffffff;stroke-linecap:round;"/>
     </g>
     <g id="text_6">
      <!-- 0.2 -->
      <g style="fill:#262626;" transform="translate(31.92 295.692761)scale(0.22 -0.22)">
       <defs>
        <path d="M 50.34375 8.453125 
L 50.34375 0 
L 3.03125 0 
Q 2.9375 3.171875 4.046875 6.109375 
Q 5.859375 10.9375 9.828125 15.625 
Q 13.8125 20.3125 21.34375 26.46875 
Q 33.015625 36.03125 37.109375 41.625 
Q 41.21875 47.21875 41.21875 52.203125 
Q 41.21875 57.421875 37.46875 61 
Q 33.734375 64.59375 27.734375 64.59375 
Q 21.390625 64.59375 17.578125 60.78125 
Q 13.765625 56.984375 13.71875 50.25 
L 4.6875 51.171875 
Q 5.609375 61.28125 11.65625 66.578125 
Q 17.71875 71.875 27.9375 71.875 
Q 38.234375 71.875 44.234375 66.15625 
Q 50.25 60.453125 50.25 52 
Q 50.25 47.703125 48.484375 43.546875 
Q 46.734375 39.40625 42.65625 34.8125 
Q 38.578125 30.21875 29.109375 22.21875 
Q 21.1875 15.578125 18.9375 13.203125 
Q 16.703125 10.84375 15.234375 8.453125 
z
" id="ArialMT-50"/>
       </defs>
       <use xlink:href="#ArialMT-48"/>
       <use x="55.615234" xlink:href="#ArialMT-46"/>
       <use x="83.398438" xlink:href="#ArialMT-50"/>
      </g>
     </g>
    </g>
    <g id="ytick_3">
     <g id="line2d_6">
      <path clip-path="url(#pb3bdade72e)" d="M 72 212.273827 
L 518.4 212.273827 
" style="fill:none;stroke:#ffffff;stroke-linecap:round;"/>
     </g>
     <g id="text_7">
      <!-- 0.3 -->
      <g style="fill:#262626;" transform="translate(31.92 220.147421)scale(0.22 -0.22)">
       <defs>
        <path d="M 4.203125 18.890625 
L 12.984375 20.0625 
Q 14.5 12.59375 18.140625 9.296875 
Q 21.78125 6 27 6 
Q 33.203125 6 37.46875 10.296875 
Q 41.75 14.59375 41.75 20.953125 
Q 41.75 27 37.796875 30.921875 
Q 33.84375 34.859375 27.734375 34.859375 
Q 25.25 34.859375 21.53125 33.890625 
L 22.515625 41.609375 
Q 23.390625 41.5 23.921875 41.5 
Q 29.546875 41.5 34.03125 44.421875 
Q 38.53125 47.359375 38.53125 53.46875 
Q 38.53125 58.296875 35.25 61.46875 
Q 31.984375 64.65625 26.8125 64.65625 
Q 21.6875 64.65625 18.265625 61.421875 
Q 14.84375 58.203125 13.875 51.765625 
L 5.078125 53.328125 
Q 6.6875 62.15625 12.390625 67.015625 
Q 18.109375 71.875 26.609375 71.875 
Q 32.46875 71.875 37.390625 69.359375 
Q 42.328125 66.84375 44.9375 62.5 
Q 47.5625 58.15625 47.5625 53.265625 
Q 47.5625 48.640625 45.0625 44.828125 
Q 42.578125 41.015625 37.703125 38.765625 
Q 44.046875 37.3125 47.5625 32.6875 
Q 51.078125 28.078125 51.078125 21.140625 
Q 51.078125 11.765625 44.234375 5.25 
Q 37.40625 -1.265625 26.953125 -1.265625 
Q 17.53125 -1.265625 11.296875 4.34375 
Q 5.078125 9.96875 4.203125 18.890625 
z
" id="ArialMT-51"/>
       </defs>
       <use xlink:href="#ArialMT-48"/>
       <use x="55.615234" xlink:href="#ArialMT-46"/>
       <use x="83.398438" xlink:href="#ArialMT-51"/>
      </g>
     </g>
    </g>
    <g id="ytick_4">
     <g id="line2d_7">
      <path clip-path="url(#pb3bdade72e)" d="M 72 136.728487 
L 518.4 136.728487 
" style="fill:none;stroke:#ffffff;stroke-linecap:round;"/>
     </g>
     <g id="text_8">
      <!-- 0.4 -->
      <g style="fill:#262626;" transform="translate(31.92 144.602081)scale(0.22 -0.22)">
       <defs>
        <path d="M 32.328125 0 
L 32.328125 17.140625 
L 1.265625 17.140625 
L 1.265625 25.203125 
L 33.9375 71.578125 
L 41.109375 71.578125 
L 41.109375 25.203125 
L 50.78125 25.203125 
L 50.78125 17.140625 
L 41.109375 17.140625 
L 41.109375 0 
z
M 32.328125 25.203125 
L 32.328125 57.46875 
L 9.90625 25.203125 
z
" id="ArialMT-52"/>
       </defs>
       <use xlink:href="#ArialMT-48"/>
       <use x="55.615234" xlink:href="#ArialMT-46"/>
       <use x="83.398438" xlink:href="#ArialMT-52"/>
      </g>
     </g>
    </g>
    <g id="ytick_5">
     <g id="line2d_8">
      <path clip-path="url(#pb3bdade72e)" d="M 72 61.183147 
L 518.4 61.183147 
" style="fill:none;stroke:#ffffff;stroke-linecap:round;"/>
     </g>
     <g id="text_9">
      <!-- 0.5 -->
      <g style="fill:#262626;" transform="translate(31.92 69.056741)scale(0.22 -0.22)">
       <defs>
        <path d="M 4.15625 18.75 
L 13.375 19.53125 
Q 14.40625 12.796875 18.140625 9.390625 
Q 21.875 6 27.15625 6 
Q 33.5 6 37.890625 10.78125 
Q 42.28125 15.578125 42.28125 23.484375 
Q 42.28125 31 38.0625 35.34375 
Q 33.84375 39.703125 27 39.703125 
Q 22.75 39.703125 19.328125 37.765625 
Q 15.921875 35.84375 13.96875 32.765625 
L 5.71875 33.84375 
L 12.640625 70.609375 
L 48.25 70.609375 
L 48.25 62.203125 
L 19.671875 62.203125 
L 15.828125 42.96875 
Q 22.265625 47.46875 29.34375 47.46875 
Q 38.71875 47.46875 45.15625 40.96875 
Q 51.609375 34.46875 51.609375 24.265625 
Q 51.609375 14.546875 45.953125 7.46875 
Q 39.0625 -1.21875 27.15625 -1.21875 
Q 17.390625 -1.21875 11.203125 4.25 
Q 5.03125 9.71875 4.15625 18.75 
z
" id="ArialMT-53"/>
       </defs>
       <use xlink:href="#ArialMT-48"/>
       <use x="55.615234" xlink:href="#ArialMT-46"/>
       <use x="83.398438" xlink:href="#ArialMT-53"/>
      </g>
     </g>
    </g>
    <g id="text_10">
     <!-- STD -->
     <g style="fill:#262626;" transform="translate(23.15 238.92)rotate(-90)scale(0.24 -0.24)">
      <defs>
       <path d="M 7.71875 0 
L 7.71875 71.578125 
L 32.375 71.578125 
Q 40.71875 71.578125 45.125 70.5625 
Q 51.265625 69.140625 55.609375 65.4375 
Q 61.28125 60.640625 64.078125 53.1875 
Q 66.890625 45.75 66.890625 36.1875 
Q 66.890625 28.03125 64.984375 21.734375 
Q 63.09375 15.4375 60.109375 11.296875 
Q 57.125 7.171875 53.578125 4.796875 
Q 50.046875 2.4375 45.046875 1.21875 
Q 40.046875 0 33.546875 0 
z
M 17.1875 8.453125 
L 32.46875 8.453125 
Q 39.546875 8.453125 43.578125 9.765625 
Q 47.609375 11.078125 50 13.484375 
Q 53.375 16.84375 55.25 22.53125 
Q 57.125 28.21875 57.125 36.328125 
Q 57.125 47.5625 53.4375 53.59375 
Q 49.75 59.625 44.484375 61.671875 
Q 40.671875 63.140625 32.234375 63.140625 
L 17.1875 63.140625 
z
" id="ArialMT-68"/>
      </defs>
      <use xlink:href="#ArialMT-83"/>
      <use x="66.699219" xlink:href="#ArialMT-84"/>
      <use x="127.783203" xlink:href="#ArialMT-68"/>
     </g>
    </g>
   </g>
   <g id="PolyCollection_1">
    <defs>
     <path d="M 149.071021 -75.598795 
L 116.674434 -75.598795 
L 115.276187 -78.525418 
L 113.853413 -81.452042 
L 112.413333 -84.378666 
L 110.96337 -87.30529 
L 109.511242 -90.231913 
L 108.065073 -93.158537 
L 106.633489 -96.085161 
L 105.225681 -99.011785 
L 103.851407 -101.938408 
L 102.520917 -104.865032 
L 101.244793 -107.791656 
L 100.033695 -110.71828 
L 98.898027 -113.644903 
L 97.847534 -116.571527 
L 96.890853 -119.498151 
L 96.035049 -122.424775 
L 95.285174 -125.351398 
L 94.64388 -128.278022 
L 94.111116 -131.204646 
L 93.683957 -134.13127 
L 93.356568 -137.057893 
L 93.120335 -139.984517 
L 92.964166 -142.911141 
L 92.874948 -145.837765 
L 92.838157 -148.764388 
L 92.83858 -151.691012 
L 92.861107 -154.617636 
L 92.891559 -157.54426 
L 92.917477 -160.470883 
L 92.928826 -163.397507 
L 92.918565 -166.324131 
L 92.883023 -169.250755 
L 92.822073 -172.177378 
L 92.739059 -175.104002 
L 92.640508 -178.030626 
L 92.535628 -180.95725 
L 92.435644 -183.883873 
L 92.353019 -186.810497 
L 92.300623 -189.737121 
L 92.290909 -192.663745 
L 92.335165 -195.590368 
L 92.442873 -198.516992 
L 92.621231 -201.443616 
L 92.874836 -204.37024 
L 93.205546 -207.296863 
L 93.612493 -210.223487 
L 94.092241 -213.150111 
L 94.639029 -216.076734 
L 95.245098 -219.003358 
L 95.90104 -221.929982 
L 96.596158 -224.856606 
L 97.318808 -227.783229 
L 98.056716 -230.709853 
L 98.797258 -233.636477 
L 99.527708 -236.563101 
L 100.235454 -239.489724 
L 100.90819 -242.416348 
L 101.534097 -245.342972 
L 102.102007 -248.269596 
L 102.601562 -251.196219 
L 103.023379 -254.122843 
L 103.359213 -257.049467 
L 103.602122 -259.976091 
L 103.746644 -262.902714 
L 103.788975 -265.829338 
L 103.727156 -268.755962 
L 103.561257 -271.682586 
L 103.293554 -274.609209 
L 102.928695 -277.535833 
L 102.473824 -280.462457 
L 101.938667 -283.389081 
L 101.335548 -286.315704 
L 100.679327 -289.242328 
L 99.987235 -292.168952 
L 99.278611 -295.095576 
L 98.574528 -298.022199 
L 97.897314 -300.948823 
L 97.269993 -303.875447 
L 96.715648 -306.802071 
L 96.25675 -309.728694 
L 95.914475 -312.655318 
L 95.708041 -315.581942 
L 95.654098 -318.508566 
L 95.766195 -321.435189 
L 96.054345 -324.361813 
L 96.524709 -327.288437 
L 97.1794 -330.215061 
L 98.016417 -333.141684 
L 99.029702 -336.068308 
L 100.209325 -338.994932 
L 101.541768 -341.921555 
L 103.010322 -344.848179 
L 104.595566 -347.774803 
L 106.275917 -350.701427 
L 108.028244 -353.62805 
L 109.82851 -356.554674 
L 111.65244 -359.481298 
L 113.476179 -362.407922 
L 115.276923 -365.334545 
L 150.468532 -365.334545 
L 150.468532 -365.334545 
L 152.269276 -362.407922 
L 154.093015 -359.481298 
L 155.916945 -356.554674 
L 157.717211 -353.62805 
L 159.469538 -350.701427 
L 161.149889 -347.774803 
L 162.735133 -344.848179 
L 164.203687 -341.921555 
L 165.53613 -338.994932 
L 166.715752 -336.068308 
L 167.729038 -333.141684 
L 168.566054 -330.215061 
L 169.220745 -327.288437 
L 169.69111 -324.361813 
L 169.97926 -321.435189 
L 170.091357 -318.508566 
L 170.037414 -315.581942 
L 169.83098 -312.655318 
L 169.488705 -309.728694 
L 169.029806 -306.802071 
L 168.475461 -303.875447 
L 167.84814 -300.948823 
L 167.170927 -298.022199 
L 166.466843 -295.095576 
L 165.75822 -292.168952 
L 165.066128 -289.242328 
L 164.409907 -286.315704 
L 163.806788 -283.389081 
L 163.27163 -280.462457 
L 162.816759 -277.535833 
L 162.4519 -274.609209 
L 162.184198 -271.682586 
L 162.018299 -268.755962 
L 161.95648 -265.829338 
L 161.998811 -262.902714 
L 162.143332 -259.976091 
L 162.386241 -257.049467 
L 162.722075 -254.122843 
L 163.143893 -251.196219 
L 163.643448 -248.269596 
L 164.211357 -245.342972 
L 164.837265 -242.416348 
L 165.510001 -239.489724 
L 166.217746 -236.563101 
L 166.948196 -233.636477 
L 167.688738 -230.709853 
L 168.426646 -227.783229 
L 169.149296 -224.856606 
L 169.844414 -221.929982 
L 170.500357 -219.003358 
L 171.106426 -216.076734 
L 171.653214 -213.150111 
L 172.132961 -210.223487 
L 172.539909 -207.296863 
L 172.870618 -204.37024 
L 173.124224 -201.443616 
L 173.302581 -198.516992 
L 173.41029 -195.590368 
L 173.454545 -192.663745 
L 173.444832 -189.737121 
L 173.392436 -186.810497 
L 173.309811 -183.883873 
L 173.209827 -180.95725 
L 173.104947 -178.030626 
L 173.006396 -175.104002 
L 172.923382 -172.177378 
L 172.862431 -169.250755 
L 172.82689 -166.324131 
L 172.816628 -163.397507 
L 172.827977 -160.470883 
L 172.853895 -157.54426 
L 172.884348 -154.617636 
L 172.906875 -151.691012 
L 172.907297 -148.764388 
L 172.870506 -145.837765 
L 172.781288 -142.911141 
L 172.625119 -139.984517 
L 172.388887 -137.057893 
L 172.061497 -134.13127 
L 171.634339 -131.204646 
L 171.101575 -128.278022 
L 170.46028 -125.351398 
L 169.710406 -122.424775 
L 168.854602 -119.498151 
L 167.897921 -116.571527 
L 166.847428 -113.644903 
L 165.71176 -110.71828 
L 164.500662 -107.791656 
L 163.224537 -104.865032 
L 161.894047 -101.938408 
L 160.519773 -99.011785 
L 159.111966 -96.085161 
L 157.680382 -93.158537 
L 156.234213 -90.231913 
L 154.782084 -87.30529 
L 153.332121 -84.378666 
L 151.892042 -81.452042 
L 150.469268 -78.525418 
L 149.071021 -75.598795 
z
" id="m262d5fe698" style="stroke:#ffffff;stroke-opacity:0.3;"/>
    </defs>
    <g clip-path="url(#pb3bdade72e)">
     <use style="fill:#4c72b0;fill-opacity:0.3;stroke:#ffffff;stroke-opacity:0.3;" x="0" xlink:href="#m262d5fe698" y="432"/>
    </g>
   </g>
   <g id="PolyCollection_2">
    <defs>
     <path d="M 317.813593 -68.825455 
L 272.586407 -68.825455 
L 271.165562 -71.79878 
L 269.804394 -74.772105 
L 268.514738 -77.74543 
L 267.30633 -80.718755 
L 266.186679 -83.69208 
L 265.161072 -86.665405 
L 264.232724 -89.638731 
L 263.403038 -92.612056 
L 262.671962 -95.585381 
L 262.038401 -98.558706 
L 261.500655 -101.532031 
L 261.056829 -104.505356 
L 260.705193 -107.478682 
L 260.444435 -110.452007 
L 260.273806 -113.425332 
L 260.193126 -116.398657 
L 260.202654 -119.371982 
L 260.302819 -122.345307 
L 260.493858 -125.318632 
L 260.775357 -128.291958 
L 261.145759 -131.265283 
L 261.60187 -134.238608 
L 262.138398 -137.211933 
L 262.747583 -140.185258 
L 263.418935 -143.158583 
L 264.139123 -146.131909 
L 264.892022 -149.105234 
L 265.658934 -152.078559 
L 266.418986 -155.051884 
L 267.149677 -158.025209 
L 267.827579 -160.998534 
L 268.429137 -163.971859 
L 268.931551 -166.945185 
L 269.313701 -169.91851 
L 269.557052 -172.891835 
L 269.646522 -175.86516 
L 269.571251 -178.838485 
L 269.325233 -181.81181 
L 268.90778 -184.785136 
L 268.323781 -187.758461 
L 267.583737 -190.731786 
L 266.70356 -193.705111 
L 265.704131 -196.678436 
L 264.610632 -199.651761 
L 263.451677 -202.625086 
L 262.258265 -205.598412 
L 261.062621 -208.571737 
L 259.89696 -211.545062 
L 258.792239 -214.518387 
L 257.776969 -217.491712 
L 256.87613 -220.465037 
L 256.110249 -223.438363 
L 255.494695 -226.411688 
L 255.039203 -229.385013 
L 254.747666 -232.358338 
L 254.618182 -235.331663 
L 254.643357 -238.304988 
L 254.810828 -241.278313 
L 255.10397 -244.251639 
L 255.502756 -247.224964 
L 255.984694 -250.198289 
L 256.52582 -253.171614 
L 257.101669 -256.144939 
L 257.688204 -259.118264 
L 258.262649 -262.09159 
L 258.804212 -265.064915 
L 259.29467 -268.03824 
L 259.718812 -271.011565 
L 260.064742 -273.98489 
L 260.324045 -276.958215 
L 260.491835 -279.93154 
L 260.56669 -282.904866 
L 260.550511 -285.878191 
L 260.448302 -288.851516 
L 260.267907 -291.824841 
L 260.019704 -294.798166 
L 259.716277 -297.771491 
L 259.372073 -300.744817 
L 259.003054 -303.718142 
L 258.626331 -306.691467 
L 258.259803 -309.664792 
L 257.921791 -312.638117 
L 257.63066 -315.611442 
L 257.404439 -318.584767 
L 257.260438 -321.558093 
L 257.214858 -324.531418 
L 257.282404 -327.504743 
L 257.475914 -330.478068 
L 257.805996 -333.451393 
L 258.280706 -336.424718 
L 258.905266 -339.398044 
L 259.681844 -342.371369 
L 260.609402 -345.344694 
L 261.683636 -348.318019 
L 262.897009 -351.291344 
L 264.238886 -354.264669 
L 265.69577 -357.237994 
L 267.251646 -360.21132 
L 268.888405 -363.184645 
L 321.511595 -363.184645 
L 321.511595 -363.184645 
L 323.148354 -360.21132 
L 324.70423 -357.237994 
L 326.161114 -354.264669 
L 327.502991 -351.291344 
L 328.716364 -348.318019 
L 329.790598 -345.344694 
L 330.718156 -342.371369 
L 331.494734 -339.398044 
L 332.119294 -336.424718 
L 332.594004 -333.451393 
L 332.924086 -330.478068 
L 333.117596 -327.504743 
L 333.185142 -324.531418 
L 333.139562 -321.558093 
L 332.995561 -318.584767 
L 332.76934 -315.611442 
L 332.478209 -312.638117 
L 332.140197 -309.664792 
L 331.773669 -306.691467 
L 331.396946 -303.718142 
L 331.027927 -300.744817 
L 330.683723 -297.771491 
L 330.380296 -294.798166 
L 330.132093 -291.824841 
L 329.951698 -288.851516 
L 329.849489 -285.878191 
L 329.83331 -282.904866 
L 329.908165 -279.93154 
L 330.075955 -276.958215 
L 330.335258 -273.98489 
L 330.681188 -271.011565 
L 331.10533 -268.03824 
L 331.595788 -265.064915 
L 332.137351 -262.09159 
L 332.711796 -259.118264 
L 333.298331 -256.144939 
L 333.87418 -253.171614 
L 334.415306 -250.198289 
L 334.897244 -247.224964 
L 335.29603 -244.251639 
L 335.589172 -241.278313 
L 335.756643 -238.304988 
L 335.781818 -235.331663 
L 335.652334 -232.358338 
L 335.360797 -229.385013 
L 334.905305 -226.411688 
L 334.289751 -223.438363 
L 333.52387 -220.465037 
L 332.623031 -217.491712 
L 331.607761 -214.518387 
L 330.50304 -211.545062 
L 329.337379 -208.571737 
L 328.141735 -205.598412 
L 326.948323 -202.625086 
L 325.789368 -199.651761 
L 324.695869 -196.678436 
L 323.69644 -193.705111 
L 322.816263 -190.731786 
L 322.076219 -187.758461 
L 321.49222 -184.785136 
L 321.074767 -181.81181 
L 320.828749 -178.838485 
L 320.753478 -175.86516 
L 320.842948 -172.891835 
L 321.086299 -169.91851 
L 321.468449 -166.945185 
L 321.970863 -163.971859 
L 322.572421 -160.998534 
L 323.250323 -158.025209 
L 323.981014 -155.051884 
L 324.741066 -152.078559 
L 325.507978 -149.105234 
L 326.260877 -146.131909 
L 326.981065 -143.158583 
L 327.652417 -140.185258 
L 328.261602 -137.211933 
L 328.79813 -134.238608 
L 329.254241 -131.265283 
L 329.624643 -128.291958 
L 329.906142 -125.318632 
L 330.097181 -122.345307 
L 330.197346 -119.371982 
L 330.206874 -116.398657 
L 330.126194 -113.425332 
L 329.955565 -110.452007 
L 329.694807 -107.478682 
L 329.343171 -104.505356 
L 328.899345 -101.532031 
L 328.361599 -98.558706 
L 327.728038 -95.585381 
L 326.996962 -92.612056 
L 326.167276 -89.638731 
L 325.238928 -86.665405 
L 324.213321 -83.69208 
L 323.09367 -80.718755 
L 321.885262 -77.74543 
L 320.595606 -74.772105 
L 319.234438 -71.79878 
L 317.813593 -68.825455 
z
" id="m0b48bde283" style="stroke:#ffffff;stroke-opacity:0.3;"/>
    </defs>
    <g clip-path="url(#pb3bdade72e)">
     <use style="fill:#4c72b0;fill-opacity:0.3;stroke:#ffffff;stroke-opacity:0.3;" x="0" xlink:href="#m0b48bde283" y="432"/>
    </g>
   </g>
   <g id="PolyCollection_3">
    <defs>
     <path d="M 469.026476 -69.318191 
L 446.028069 -69.318191 
L 444.703727 -72.306671 
L 443.321909 -75.29515 
L 441.894474 -78.28363 
L 440.434918 -81.272109 
L 438.958056 -84.260588 
L 437.47964 -87.249068 
L 436.015926 -90.237547 
L 434.58321 -93.226027 
L 433.197357 -96.214506 
L 431.873356 -99.202985 
L 430.624918 -102.191465 
L 429.464136 -105.179944 
L 428.401229 -108.168423 
L 427.444374 -111.156903 
L 426.599628 -114.145382 
L 425.870936 -117.133862 
L 425.260214 -120.122341 
L 424.767494 -123.11082 
L 424.391113 -126.0993 
L 424.127933 -129.087779 
L 423.973567 -132.076258 
L 423.922616 -135.064738 
L 423.96889 -138.053217 
L 424.105618 -141.041697 
L 424.325643 -144.030176 
L 424.621598 -147.018655 
L 424.986066 -150.007135 
L 425.411718 -152.995614 
L 425.891443 -155.984094 
L 426.418439 -158.972573 
L 426.986286 -161.961052 
L 427.588981 -164.949532 
L 428.220935 -167.938011 
L 428.876921 -170.92649 
L 429.551977 -173.91497 
L 430.241271 -176.903449 
L 430.939928 -179.891929 
L 431.64283 -182.880408 
L 432.344421 -185.868887 
L 433.03852 -188.857367 
L 433.718169 -191.845846 
L 434.375544 -194.834325 
L 435.001934 -197.822805 
L 435.587803 -200.811284 
L 436.122944 -203.799764 
L 436.596717 -206.788243 
L 436.998359 -209.776722 
L 437.317351 -212.765202 
L 437.543814 -215.753681 
L 437.668909 -218.742161 
L 437.685216 -221.73064 
L 437.587053 -224.719119 
L 437.370736 -227.707599 
L 437.034741 -230.696078 
L 436.579781 -233.684557 
L 436.008786 -236.673037 
L 435.326807 -239.661516 
L 434.540852 -242.649996 
L 433.659685 -245.638475 
L 432.693595 -248.626954 
L 431.654176 -251.615434 
L 430.554118 -254.603913 
L 429.407028 -257.592392 
L 428.227283 -260.580872 
L 427.029909 -263.569351 
L 425.830472 -266.557831 
L 424.644971 -269.54631 
L 423.489712 -272.534789 
L 422.381136 -275.523269 
L 421.335617 -278.511748 
L 420.36919 -281.500228 
L 419.497247 -284.488707 
L 418.734193 -287.477186 
L 418.093093 -290.465666 
L 417.585342 -293.454145 
L 417.22037 -296.442624 
L 417.005426 -299.431104 
L 416.945455 -302.419583 
L 417.043064 -305.408063 
L 417.298601 -308.396542 
L 417.710314 -311.385021 
L 418.274571 -314.373501 
L 418.986125 -317.36198 
L 419.838373 -320.35046 
L 420.823602 -323.338939 
L 421.933176 -326.327418 
L 423.157668 -329.315898 
L 424.48693 -332.304377 
L 425.910099 -335.292856 
L 427.415576 -338.281336 
L 428.990987 -341.269815 
L 430.623157 -344.258295 
L 432.298132 -347.246774 
L 434.001255 -350.235253 
L 435.717324 -353.223733 
L 437.43082 -356.212212 
L 439.126212 -359.200691 
L 440.78831 -362.189171 
L 442.402648 -365.17765 
L 472.651897 -365.17765 
L 472.651897 -365.17765 
L 474.266236 -362.189171 
L 475.928333 -359.200691 
L 477.623725 -356.212212 
L 479.337222 -353.223733 
L 481.053291 -350.235253 
L 482.756414 -347.246774 
L 484.431389 -344.258295 
L 486.063559 -341.269815 
L 487.63897 -338.281336 
L 489.144447 -335.292856 
L 490.567616 -332.304377 
L 491.896877 -329.315898 
L 493.12137 -326.327418 
L 494.230943 -323.338939 
L 495.216172 -320.35046 
L 496.068421 -317.36198 
L 496.779974 -314.373501 
L 497.344231 -311.385021 
L 497.755944 -308.396542 
L 498.011482 -305.408063 
L 498.109091 -302.419583 
L 498.049119 -299.431104 
L 497.834176 -296.442624 
L 497.469203 -293.454145 
L 496.961452 -290.465666 
L 496.320353 -287.477186 
L 495.557298 -284.488707 
L 494.685355 -281.500228 
L 493.718928 -278.511748 
L 492.673409 -275.523269 
L 491.564834 -272.534789 
L 490.409574 -269.54631 
L 489.224074 -266.557831 
L 488.024637 -263.569351 
L 486.827262 -260.580872 
L 485.647517 -257.592392 
L 484.500428 -254.603913 
L 483.40037 -251.615434 
L 482.360951 -248.626954 
L 481.394861 -245.638475 
L 480.513693 -242.649996 
L 479.727739 -239.661516 
L 479.045759 -236.673037 
L 478.474764 -233.684557 
L 478.019804 -230.696078 
L 477.68381 -227.707599 
L 477.467493 -224.719119 
L 477.36933 -221.73064 
L 477.385636 -218.742161 
L 477.510732 -215.753681 
L 477.737195 -212.765202 
L 478.056187 -209.776722 
L 478.457829 -206.788243 
L 478.931602 -203.799764 
L 479.466743 -200.811284 
L 480.052612 -197.822805 
L 480.679001 -194.834325 
L 481.336377 -191.845846 
L 482.016026 -188.857367 
L 482.710124 -185.868887 
L 483.411716 -182.880408 
L 484.114618 -179.891929 
L 484.813274 -176.903449 
L 485.502569 -173.91497 
L 486.177625 -170.92649 
L 486.83361 -167.938011 
L 487.465564 -164.949532 
L 488.06826 -161.961052 
L 488.636107 -158.972573 
L 489.163102 -155.984094 
L 489.642827 -152.995614 
L 490.06848 -150.007135 
L 490.432947 -147.018655 
L 490.728902 -144.030176 
L 490.948928 -141.041697 
L 491.085656 -138.053217 
L 491.13193 -135.064738 
L 491.080979 -132.076258 
L 490.926613 -129.087779 
L 490.663432 -126.0993 
L 490.287052 -123.11082 
L 489.794331 -120.122341 
L 489.183609 -117.133862 
L 488.454917 -114.145382 
L 487.610172 -111.156903 
L 486.653317 -108.168423 
L 485.59041 -105.179944 
L 484.429627 -102.191465 
L 483.181189 -99.202985 
L 481.857189 -96.214506 
L 480.471336 -93.226027 
L 479.038619 -90.237547 
L 477.574906 -87.249068 
L 476.09649 -84.260588 
L 474.619627 -81.272109 
L 473.160071 -78.28363 
L 471.732637 -75.29515 
L 470.350818 -72.306671 
L 469.026476 -69.318191 
z
" id="mbbb801fc06" style="stroke:#ffffff;stroke-opacity:0.3;"/>
    </defs>
    <g clip-path="url(#pb3bdade72e)">
     <use style="fill:#4c72b0;fill-opacity:0.3;stroke:#ffffff;stroke-opacity:0.3;" x="0" xlink:href="#mbbb801fc06" y="432"/>
    </g>
   </g>
   <g id="LineCollection_1">
    <path clip-path="url(#pb3bdade72e)" d="M 112.581818 66.665455 
L 153.163636 66.665455 
" style="fill:none;stroke:#4c72b0;stroke-width:1.5;"/>
    <path clip-path="url(#pb3bdade72e)" d="M 274.909091 68.815355 
L 315.490909 68.815355 
" style="fill:none;stroke:#4c72b0;stroke-width:1.5;"/>
    <path clip-path="url(#pb3bdade72e)" d="M 437.236364 66.82235 
L 477.818182 66.82235 
" style="fill:none;stroke:#4c72b0;stroke-width:1.5;"/>
   </g>
   <g id="LineCollection_2">
    <path clip-path="url(#pb3bdade72e)" d="M 112.581818 356.401205 
L 153.163636 356.401205 
" style="fill:none;stroke:#4c72b0;stroke-width:1.5;"/>
    <path clip-path="url(#pb3bdade72e)" d="M 274.909091 363.174545 
L 315.490909 363.174545 
" style="fill:none;stroke:#4c72b0;stroke-width:1.5;"/>
    <path clip-path="url(#pb3bdade72e)" d="M 437.236364 362.681809 
L 477.818182 362.681809 
" style="fill:none;stroke:#4c72b0;stroke-width:1.5;"/>
   </g>
   <g id="LineCollection_3">
    <path clip-path="url(#pb3bdade72e)" d="M 132.872727 356.401205 
L 132.872727 66.665455 
" style="fill:none;stroke:#4c72b0;stroke-width:1.5;"/>
    <path clip-path="url(#pb3bdade72e)" d="M 295.2 363.174545 
L 295.2 68.815355 
" style="fill:none;stroke:#4c72b0;stroke-width:1.5;"/>
    <path clip-path="url(#pb3bdade72e)" d="M 457.527273 362.681809 
L 457.527273 66.82235 
" style="fill:none;stroke:#4c72b0;stroke-width:1.5;"/>
   </g>
   <g id="LineCollection_4">
    <path clip-path="url(#pb3bdade72e)" d="M 112.581818 217.691892 
L 153.163636 217.691892 
" style="fill:none;stroke:#4c72b0;stroke-width:1.5;"/>
    <path clip-path="url(#pb3bdade72e)" d="M 274.909091 208.151072 
L 315.490909 208.151072 
" style="fill:none;stroke:#4c72b0;stroke-width:1.5;"/>
    <path clip-path="url(#pb3bdade72e)" d="M 437.236364 189.957554 
L 477.818182 189.957554 
" style="fill:none;stroke:#4c72b0;stroke-width:1.5;"/>
   </g>
   <g id="patch_3">
    <path d="M 72 378 
L 72 51.84 
" style="fill:none;stroke:#ffffff;stroke-linecap:square;stroke-linejoin:miter;stroke-width:1.25;"/>
   </g>
   <g id="patch_4">
    <path d="M 518.4 378 
L 518.4 51.84 
" style="fill:none;stroke:#ffffff;stroke-linecap:square;stroke-linejoin:miter;stroke-width:1.25;"/>
   </g>
   <g id="patch_5">
    <path d="M 72 378 
L 518.4 378 
" style="fill:none;stroke:#ffffff;stroke-linecap:square;stroke-linejoin:miter;stroke-width:1.25;"/>
   </g>
   <g id="patch_6">
    <path d="M 72 51.84 
L 518.4 51.84 
" style="fill:none;stroke:#ffffff;stroke-linecap:square;stroke-linejoin:miter;stroke-width:1.25;"/>
   </g>
   <g id="text_11">
    <!-- Gaussian noise STD: Island DNN (top 266 models) -->
    <g style="fill:#262626;" transform="translate(23.761875 45.84)scale(0.24 -0.24)">
     <defs>
      <path d="M 41.21875 28.078125 
L 41.21875 36.46875 
L 71.53125 36.53125 
L 71.53125 9.96875 
Q 64.546875 4.390625 57.125 1.578125 
Q 49.703125 -1.21875 41.890625 -1.21875 
Q 31.34375 -1.21875 22.71875 3.296875 
Q 14.109375 7.8125 9.71875 16.359375 
Q 5.328125 24.90625 5.328125 35.453125 
Q 5.328125 45.90625 9.6875 54.953125 
Q 14.0625 64.015625 22.265625 68.40625 
Q 30.46875 72.796875 41.15625 72.796875 
Q 48.921875 72.796875 55.1875 70.28125 
Q 61.46875 67.78125 65.03125 63.28125 
Q 68.609375 58.796875 70.453125 51.5625 
L 61.921875 49.21875 
Q 60.296875 54.6875 57.90625 57.8125 
Q 55.515625 60.9375 51.0625 62.8125 
Q 46.625 64.703125 41.21875 64.703125 
Q 34.71875 64.703125 29.984375 62.71875 
Q 25.25 60.75 22.34375 57.515625 
Q 19.4375 54.296875 17.828125 50.4375 
Q 15.09375 43.796875 15.09375 36.03125 
Q 15.09375 26.46875 18.390625 20.015625 
Q 21.6875 13.578125 27.984375 10.453125 
Q 34.28125 7.328125 41.359375 7.328125 
Q 47.515625 7.328125 53.375 9.6875 
Q 59.234375 12.0625 62.25 14.75 
L 62.25 28.078125 
z
" id="ArialMT-71"/>
      <path d="M 40.578125 0 
L 40.578125 7.625 
Q 34.515625 -1.171875 24.125 -1.171875 
Q 19.53125 -1.171875 15.546875 0.578125 
Q 11.578125 2.34375 9.640625 5 
Q 7.71875 7.671875 6.9375 11.53125 
Q 6.390625 14.109375 6.390625 19.734375 
L 6.390625 51.859375 
L 15.1875 51.859375 
L 15.1875 23.09375 
Q 15.1875 16.21875 15.71875 13.8125 
Q 16.546875 10.359375 19.234375 8.375 
Q 21.921875 6.390625 25.875 6.390625 
Q 29.828125 6.390625 33.296875 8.421875 
Q 36.765625 10.453125 38.203125 13.9375 
Q 39.65625 17.4375 39.65625 24.078125 
L 39.65625 51.859375 
L 48.4375 51.859375 
L 48.4375 0 
z
" id="ArialMT-117"/>
      <path d="M 9.03125 41.84375 
L 9.03125 51.859375 
L 19.046875 51.859375 
L 19.046875 41.84375 
z
M 9.03125 0 
L 9.03125 10.015625 
L 19.046875 10.015625 
L 19.046875 0 
z
" id="ArialMT-58"/>
      <path d="M 9.328125 0 
L 9.328125 71.578125 
L 18.796875 71.578125 
L 18.796875 0 
z
" id="ArialMT-73"/>
      <path d="M 6.390625 0 
L 6.390625 71.578125 
L 15.1875 71.578125 
L 15.1875 0 
z
" id="ArialMT-108"/>
      <path d="M 23.390625 -21.046875 
Q 16.109375 -11.859375 11.078125 0.4375 
Q 6.0625 12.75 6.0625 25.921875 
Q 6.0625 37.546875 9.8125 48.1875 
Q 14.203125 60.546875 23.390625 72.796875 
L 29.6875 72.796875 
Q 23.78125 62.640625 21.875 58.296875 
Q 18.890625 51.5625 17.1875 44.234375 
Q 15.09375 35.109375 15.09375 25.875 
Q 15.09375 2.390625 29.6875 -21.046875 
z
" id="ArialMT-40"/>
      <path d="M 6.59375 -19.875 
L 6.59375 51.859375 
L 14.59375 51.859375 
L 14.59375 45.125 
Q 17.4375 49.078125 21 51.046875 
Q 24.5625 53.03125 29.640625 53.03125 
Q 36.28125 53.03125 41.359375 49.609375 
Q 46.4375 46.1875 49.015625 39.953125 
Q 51.609375 33.734375 51.609375 26.3125 
Q 51.609375 18.359375 48.75 11.984375 
Q 45.90625 5.609375 40.453125 2.21875 
Q 35.015625 -1.171875 29 -1.171875 
Q 24.609375 -1.171875 21.109375 0.6875 
Q 17.625 2.546875 15.375 5.375 
L 15.375 -19.875 
z
M 14.546875 25.640625 
Q 14.546875 15.625 18.59375 10.84375 
Q 22.65625 6.0625 28.421875 6.0625 
Q 34.28125 6.0625 38.453125 11.015625 
Q 42.625 15.96875 42.625 26.375 
Q 42.625 36.28125 38.546875 41.203125 
Q 34.46875 46.140625 28.8125 46.140625 
Q 23.1875 46.140625 18.859375 40.890625 
Q 14.546875 35.640625 14.546875 25.640625 
z
" id="ArialMT-112"/>
      <path d="M 49.75 54.046875 
L 41.015625 53.375 
Q 39.84375 58.546875 37.703125 60.890625 
Q 34.125 64.65625 28.90625 64.65625 
Q 24.703125 64.65625 21.53125 62.3125 
Q 17.390625 59.28125 14.984375 53.46875 
Q 12.59375 47.65625 12.5 36.921875 
Q 15.671875 41.75 20.265625 44.09375 
Q 24.859375 46.4375 29.890625 46.4375 
Q 38.671875 46.4375 44.84375 39.96875 
Q 51.03125 33.5 51.03125 23.25 
Q 51.03125 16.5 48.125 10.71875 
Q 45.21875 4.9375 40.140625 1.859375 
Q 35.0625 -1.21875 28.609375 -1.21875 
Q 17.625 -1.21875 10.6875 6.859375 
Q 3.765625 14.9375 3.765625 33.5 
Q 3.765625 54.25 11.421875 63.671875 
Q 18.109375 71.875 29.4375 71.875 
Q 37.890625 71.875 43.28125 67.140625 
Q 48.6875 62.40625 49.75 54.046875 
z
M 13.875 23.1875 
Q 13.875 18.65625 15.796875 14.5 
Q 17.71875 10.359375 21.1875 8.171875 
Q 24.65625 6 28.46875 6 
Q 34.03125 6 38.03125 10.484375 
Q 42.046875 14.984375 42.046875 22.703125 
Q 42.046875 30.125 38.078125 34.390625 
Q 34.125 38.671875 28.125 38.671875 
Q 22.171875 38.671875 18.015625 34.390625 
Q 13.875 30.125 13.875 23.1875 
z
" id="ArialMT-54"/>
      <path d="M 6.59375 0 
L 6.59375 51.859375 
L 14.453125 51.859375 
L 14.453125 44.578125 
Q 16.890625 48.390625 20.9375 50.703125 
Q 25 53.03125 30.171875 53.03125 
Q 35.9375 53.03125 39.625 50.640625 
Q 43.3125 48.25 44.828125 43.953125 
Q 50.984375 53.03125 60.84375 53.03125 
Q 68.5625 53.03125 72.703125 48.75 
Q 76.859375 44.484375 76.859375 35.59375 
L 76.859375 0 
L 68.109375 0 
L 68.109375 32.671875 
Q 68.109375 37.9375 67.25 40.25 
Q 66.40625 42.578125 64.15625 43.984375 
Q 61.921875 45.40625 58.890625 45.40625 
Q 53.421875 45.40625 49.796875 41.765625 
Q 46.1875 38.140625 46.1875 30.125 
L 46.1875 0 
L 37.40625 0 
L 37.40625 33.6875 
Q 37.40625 39.546875 35.25 42.46875 
Q 33.109375 45.40625 28.21875 45.40625 
Q 24.515625 45.40625 21.359375 43.453125 
Q 18.21875 41.5 16.796875 37.734375 
Q 15.375 33.984375 15.375 26.90625 
L 15.375 0 
z
" id="ArialMT-109"/>
      <path d="M 12.359375 -21.046875 
L 6.0625 -21.046875 
Q 20.65625 2.390625 20.65625 25.875 
Q 20.65625 35.0625 18.5625 44.09375 
Q 16.890625 51.421875 13.921875 58.15625 
Q 12.015625 62.546875 6.0625 72.796875 
L 12.359375 72.796875 
Q 21.53125 60.546875 25.921875 48.1875 
Q 29.6875 37.546875 29.6875 25.921875 
Q 29.6875 12.75 24.625 0.4375 
Q 19.578125 -11.859375 12.359375 -21.046875 
z
" id="ArialMT-41"/>
     </defs>
     <use xlink:href="#ArialMT-71"/>
     <use x="77.783203" xlink:href="#ArialMT-97"/>
     <use x="133.398438" xlink:href="#ArialMT-117"/>
     <use x="189.013672" xlink:href="#ArialMT-115"/>
     <use x="239.013672" xlink:href="#ArialMT-115"/>
     <use x="289.013672" xlink:href="#ArialMT-105"/>
     <use x="311.230469" xlink:href="#ArialMT-97"/>
     <use x="366.845703" xlink:href="#ArialMT-110"/>
     <use x="422.460938" xlink:href="#ArialMT-32"/>
     <use x="450.244141" xlink:href="#ArialMT-110"/>
     <use x="505.859375" xlink:href="#ArialMT-111"/>
     <use x="561.474609" xlink:href="#ArialMT-105"/>
     <use x="583.691406" xlink:href="#ArialMT-115"/>
     <use x="633.691406" xlink:href="#ArialMT-101"/>
     <use x="689.306641" xlink:href="#ArialMT-32"/>
     <use x="717.089844" xlink:href="#ArialMT-83"/>
     <use x="783.789062" xlink:href="#ArialMT-84"/>
     <use x="844.873047" xlink:href="#ArialMT-68"/>
     <use x="917.089844" xlink:href="#ArialMT-58"/>
     <use x="944.873047" xlink:href="#ArialMT-32"/>
     <use x="972.65625" xlink:href="#ArialMT-73"/>
     <use x="1000.439453" xlink:href="#ArialMT-115"/>
     <use x="1050.439453" xlink:href="#ArialMT-108"/>
     <use x="1072.65625" xlink:href="#ArialMT-97"/>
     <use x="1128.271484" xlink:href="#ArialMT-110"/>
     <use x="1183.886719" xlink:href="#ArialMT-100"/>
     <use x="1239.501953" xlink:href="#ArialMT-32"/>
     <use x="1267.285156" xlink:href="#ArialMT-68"/>
     <use x="1339.501953" xlink:href="#ArialMT-78"/>
     <use x="1411.71875" xlink:href="#ArialMT-78"/>
     <use x="1483.935547" xlink:href="#ArialMT-32"/>
     <use x="1511.71875" xlink:href="#ArialMT-40"/>
     <use x="1545.019531" xlink:href="#ArialMT-116"/>
     <use x="1572.802734" xlink:href="#ArialMT-111"/>
     <use x="1628.417969" xlink:href="#ArialMT-112"/>
     <use x="1684.033203" xlink:href="#ArialMT-32"/>
     <use x="1711.816406" xlink:href="#ArialMT-50"/>
     <use x="1767.431641" xlink:href="#ArialMT-54"/>
     <use x="1823.046875" xlink:href="#ArialMT-54"/>
     <use x="1878.662109" xlink:href="#ArialMT-32"/>
     <use x="1906.445312" xlink:href="#ArialMT-109"/>
     <use x="1989.746094" xlink:href="#ArialMT-111"/>
     <use x="2045.361328" xlink:href="#ArialMT-100"/>
     <use x="2100.976562" xlink:href="#ArialMT-101"/>
     <use x="2156.591797" xlink:href="#ArialMT-108"/>
     <use x="2178.808594" xlink:href="#ArialMT-115"/>
     <use x="2228.808594" xlink:href="#ArialMT-41"/>
    </g>
   </g>
  </g>
 </g>
 <defs>
  <clipPath id="pb3bdade72e">
   <rect height="326.16" width="446.4" x="72" y="51.84"/>
  </clipPath>
 </defs>
</svg>
