<?xml version="1.0" encoding="utf-8" standalone="no"?>
<!DOCTYPE svg PUBLIC "-//W3C//DTD SVG 1.1//EN"
  "http://www.w3.org/Graphics/SVG/1.1/DTD/svg11.dtd">
<!-- Created with matplotlib (https://matplotlib.org/) -->
<svg height="432pt" version="1.1" viewBox="0 0 576 432" width="576pt" xmlns="http://www.w3.org/2000/svg" xmlns:xlink="http://www.w3.org/1999/xlink">
 <defs>
  <style type="text/css">
*{stroke-linecap:butt;stroke-linejoin:round;white-space:pre;}
  </style>
 </defs>
 <g id="figure_1">
  <g id="patch_1">
   <path d="M 0 432 
L 576 432 
L 576 0 
L 0 0 
z
" style="fill:#ffffff;"/>
  </g>
  <g id="axes_1">
   <g id="patch_2">
    <path d="M 72 378 
L 518.4 378 
L 518.4 51.84 
L 72 51.84 
z
" style="fill:#eaeaf2;"/>
   </g>
   <g id="matplotlib.axis_1">
    <g id="xtick_1">
     <g id="line2d_1">
      <path clip-path="url(#p8451589ec8)" d="M 132.872727 378 
L 132.872727 51.84 
" style="fill:none;stroke:#ffffff;stroke-linecap:round;"/>
     </g>
     <g id="text_1">
      <!-- First -->
      <defs>
       <path d="M 8.203125 0 
L 8.203125 71.578125 
L 56.5 71.578125 
L 56.5 63.140625 
L 17.671875 63.140625 
L 17.671875 40.96875 
L 51.265625 40.96875 
L 51.265625 32.515625 
L 17.671875 32.515625 
L 17.671875 0 
z
" id="ArialMT-70"/>
       <path d="M 6.640625 61.46875 
L 6.640625 71.578125 
L 15.4375 71.578125 
L 15.4375 61.46875 
z
M 6.640625 0 
L 6.640625 51.859375 
L 15.4375 51.859375 
L 15.4375 0 
z
" id="ArialMT-105"/>
       <path d="M 6.5 0 
L 6.5 51.859375 
L 14.40625 51.859375 
L 14.40625 44 
Q 17.4375 49.515625 20 51.265625 
Q 22.5625 53.03125 25.640625 53.03125 
Q 30.078125 53.03125 34.671875 50.203125 
L 31.640625 42.046875 
Q 28.421875 43.953125 25.203125 43.953125 
Q 22.3125 43.953125 20.015625 42.21875 
Q 17.71875 40.484375 16.75 37.40625 
Q 15.28125 32.71875 15.28125 27.15625 
L 15.28125 0 
z
" id="ArialMT-114"/>
       <path d="M 3.078125 15.484375 
L 11.765625 16.84375 
Q 12.5 11.625 15.84375 8.84375 
Q 19.1875 6.0625 25.203125 6.0625 
Q 31.25 6.0625 34.171875 8.515625 
Q 37.109375 10.984375 37.109375 14.3125 
Q 37.109375 17.28125 34.515625 19 
Q 32.71875 20.171875 25.53125 21.96875 
Q 15.875 24.421875 12.140625 26.203125 
Q 8.40625 27.984375 6.46875 31.125 
Q 4.546875 34.28125 4.546875 38.09375 
Q 4.546875 41.546875 6.125 44.5 
Q 7.71875 47.46875 10.453125 49.421875 
Q 12.5 50.921875 16.03125 51.96875 
Q 19.578125 53.03125 23.640625 53.03125 
Q 29.734375 53.03125 34.34375 51.265625 
Q 38.96875 49.515625 41.15625 46.5 
Q 43.359375 43.5 44.1875 38.484375 
L 35.59375 37.3125 
Q 35.015625 41.3125 32.203125 43.546875 
Q 29.390625 45.796875 24.265625 45.796875 
Q 18.21875 45.796875 15.625 43.796875 
Q 13.03125 41.796875 13.03125 39.109375 
Q 13.03125 37.40625 14.109375 36.03125 
Q 15.1875 34.625 17.484375 33.6875 
Q 18.796875 33.203125 25.25 31.453125 
Q 34.578125 28.953125 38.25 27.359375 
Q 41.9375 25.78125 44.03125 22.75 
Q 46.140625 19.734375 46.140625 15.234375 
Q 46.140625 10.84375 43.578125 6.953125 
Q 41.015625 3.078125 36.171875 0.953125 
Q 31.34375 -1.171875 25.25 -1.171875 
Q 15.140625 -1.171875 9.84375 3.03125 
Q 4.546875 7.234375 3.078125 15.484375 
z
" id="ArialMT-115"/>
       <path d="M 25.78125 7.859375 
L 27.046875 0.09375 
Q 23.34375 -0.6875 20.40625 -0.6875 
Q 15.625 -0.6875 12.984375 0.828125 
Q 10.359375 2.34375 9.28125 4.8125 
Q 8.203125 7.28125 8.203125 15.1875 
L 8.203125 45.015625 
L 1.765625 45.015625 
L 1.765625 51.859375 
L 8.203125 51.859375 
L 8.203125 64.703125 
L 16.9375 69.96875 
L 16.9375 51.859375 
L 25.78125 51.859375 
L 25.78125 45.015625 
L 16.9375 45.015625 
L 16.9375 14.703125 
Q 16.9375 10.9375 17.40625 9.859375 
Q 17.875 8.796875 18.921875 8.15625 
Q 19.96875 7.515625 21.921875 7.515625 
Q 23.390625 7.515625 25.78125 7.859375 
z
" id="ArialMT-116"/>
      </defs>
      <g style="fill:#262626;" transform="translate(111.491477 403.247187)scale(0.22 -0.22)">
       <use xlink:href="#ArialMT-70"/>
       <use x="61.083984" xlink:href="#ArialMT-105"/>
       <use x="83.300781" xlink:href="#ArialMT-114"/>
       <use x="116.601562" xlink:href="#ArialMT-115"/>
       <use x="166.601562" xlink:href="#ArialMT-116"/>
      </g>
     </g>
    </g>
    <g id="xtick_2">
     <g id="line2d_2">
      <path clip-path="url(#p8451589ec8)" d="M 295.2 378 
L 295.2 51.84 
" style="fill:none;stroke:#ffffff;stroke-linecap:round;"/>
     </g>
     <g id="text_2">
      <!-- Second -->
      <defs>
       <path d="M 4.5 23 
L 13.421875 23.78125 
Q 14.0625 18.40625 16.375 14.96875 
Q 18.703125 11.53125 23.578125 9.40625 
Q 28.46875 7.28125 34.578125 7.28125 
Q 39.984375 7.28125 44.140625 8.890625 
Q 48.296875 10.5 50.3125 13.296875 
Q 52.34375 16.109375 52.34375 19.4375 
Q 52.34375 22.796875 50.390625 25.3125 
Q 48.4375 27.828125 43.953125 29.546875 
Q 41.0625 30.671875 31.203125 33.03125 
Q 21.34375 35.40625 17.390625 37.5 
Q 12.25 40.1875 9.734375 44.15625 
Q 7.234375 48.140625 7.234375 53.078125 
Q 7.234375 58.5 10.296875 63.203125 
Q 13.375 67.921875 19.28125 70.359375 
Q 25.203125 72.796875 32.421875 72.796875 
Q 40.375 72.796875 46.453125 70.234375 
Q 52.546875 67.671875 55.8125 62.6875 
Q 59.078125 57.71875 59.328125 51.421875 
L 50.25 50.734375 
Q 49.515625 57.515625 45.28125 60.984375 
Q 41.0625 64.453125 32.8125 64.453125 
Q 24.21875 64.453125 20.28125 61.296875 
Q 16.359375 58.15625 16.359375 53.71875 
Q 16.359375 49.859375 19.140625 47.359375 
Q 21.875 44.875 33.421875 42.265625 
Q 44.96875 39.65625 49.265625 37.703125 
Q 55.515625 34.8125 58.484375 30.390625 
Q 61.46875 25.984375 61.46875 20.21875 
Q 61.46875 14.5 58.203125 9.4375 
Q 54.9375 4.390625 48.796875 1.578125 
Q 42.671875 -1.21875 35.015625 -1.21875 
Q 25.296875 -1.21875 18.71875 1.609375 
Q 12.15625 4.4375 8.421875 10.125 
Q 4.6875 15.828125 4.5 23 
z
" id="ArialMT-83"/>
       <path d="M 42.09375 16.703125 
L 51.171875 15.578125 
Q 49.03125 7.625 43.21875 3.21875 
Q 37.40625 -1.171875 28.375 -1.171875 
Q 17 -1.171875 10.328125 5.828125 
Q 3.65625 12.84375 3.65625 25.484375 
Q 3.65625 38.578125 10.390625 45.796875 
Q 17.140625 53.03125 27.875 53.03125 
Q 38.28125 53.03125 44.875 45.953125 
Q 51.46875 38.875 51.46875 26.03125 
Q 51.46875 25.25 51.421875 23.6875 
L 12.75 23.6875 
Q 13.234375 15.140625 17.578125 10.59375 
Q 21.921875 6.0625 28.421875 6.0625 
Q 33.25 6.0625 36.671875 8.59375 
Q 40.09375 11.140625 42.09375 16.703125 
z
M 13.234375 30.90625 
L 42.1875 30.90625 
Q 41.609375 37.453125 38.875 40.71875 
Q 34.671875 45.796875 27.984375 45.796875 
Q 21.921875 45.796875 17.796875 41.75 
Q 13.671875 37.703125 13.234375 30.90625 
z
" id="ArialMT-101"/>
       <path d="M 40.4375 19 
L 49.078125 17.875 
Q 47.65625 8.9375 41.8125 3.875 
Q 35.984375 -1.171875 27.484375 -1.171875 
Q 16.84375 -1.171875 10.375 5.78125 
Q 3.90625 12.75 3.90625 25.734375 
Q 3.90625 34.125 6.6875 40.421875 
Q 9.46875 46.734375 15.15625 49.875 
Q 20.84375 53.03125 27.546875 53.03125 
Q 35.984375 53.03125 41.359375 48.75 
Q 46.734375 44.484375 48.25 36.625 
L 39.703125 35.296875 
Q 38.484375 40.53125 35.375 43.15625 
Q 32.28125 45.796875 27.875 45.796875 
Q 21.234375 45.796875 17.078125 41.03125 
Q 12.9375 36.28125 12.9375 25.984375 
Q 12.9375 15.53125 16.9375 10.796875 
Q 20.953125 6.0625 27.390625 6.0625 
Q 32.5625 6.0625 36.03125 9.234375 
Q 39.5 12.40625 40.4375 19 
z
" id="ArialMT-99"/>
       <path d="M 3.328125 25.921875 
Q 3.328125 40.328125 11.328125 47.265625 
Q 18.015625 53.03125 27.640625 53.03125 
Q 38.328125 53.03125 45.109375 46.015625 
Q 51.90625 39.015625 51.90625 26.65625 
Q 51.90625 16.65625 48.90625 10.90625 
Q 45.90625 5.171875 40.15625 2 
Q 34.421875 -1.171875 27.640625 -1.171875 
Q 16.75 -1.171875 10.03125 5.8125 
Q 3.328125 12.796875 3.328125 25.921875 
z
M 12.359375 25.921875 
Q 12.359375 15.96875 16.703125 11.015625 
Q 21.046875 6.0625 27.640625 6.0625 
Q 34.1875 6.0625 38.53125 11.03125 
Q 42.875 16.015625 42.875 26.21875 
Q 42.875 35.84375 38.5 40.796875 
Q 34.125 45.75 27.640625 45.75 
Q 21.046875 45.75 16.703125 40.8125 
Q 12.359375 35.890625 12.359375 25.921875 
z
" id="ArialMT-111"/>
       <path d="M 6.59375 0 
L 6.59375 51.859375 
L 14.5 51.859375 
L 14.5 44.484375 
Q 20.21875 53.03125 31 53.03125 
Q 35.6875 53.03125 39.625 51.34375 
Q 43.5625 49.65625 45.515625 46.921875 
Q 47.46875 44.1875 48.25 40.4375 
Q 48.734375 37.984375 48.734375 31.890625 
L 48.734375 0 
L 39.9375 0 
L 39.9375 31.546875 
Q 39.9375 36.921875 38.90625 39.578125 
Q 37.890625 42.234375 35.28125 43.8125 
Q 32.671875 45.40625 29.15625 45.40625 
Q 23.53125 45.40625 19.453125 41.84375 
Q 15.375 38.28125 15.375 28.328125 
L 15.375 0 
z
" id="ArialMT-110"/>
       <path d="M 40.234375 0 
L 40.234375 6.546875 
Q 35.296875 -1.171875 25.734375 -1.171875 
Q 19.53125 -1.171875 14.328125 2.25 
Q 9.125 5.671875 6.265625 11.796875 
Q 3.421875 17.921875 3.421875 25.875 
Q 3.421875 33.640625 6 39.96875 
Q 8.59375 46.296875 13.765625 49.65625 
Q 18.953125 53.03125 25.34375 53.03125 
Q 30.03125 53.03125 33.6875 51.046875 
Q 37.359375 49.078125 39.65625 45.90625 
L 39.65625 71.578125 
L 48.390625 71.578125 
L 48.390625 0 
z
M 12.453125 25.875 
Q 12.453125 15.921875 16.640625 10.984375 
Q 20.84375 6.0625 26.5625 6.0625 
Q 32.328125 6.0625 36.34375 10.765625 
Q 40.375 15.484375 40.375 25.140625 
Q 40.375 35.796875 36.265625 40.765625 
Q 32.171875 45.75 26.171875 45.75 
Q 20.3125 45.75 16.375 40.96875 
Q 12.453125 36.1875 12.453125 25.875 
z
" id="ArialMT-100"/>
      </defs>
      <g style="fill:#262626;" transform="translate(257.894531 403.247187)scale(0.22 -0.22)">
       <use xlink:href="#ArialMT-83"/>
       <use x="66.699219" xlink:href="#ArialMT-101"/>
       <use x="122.314453" xlink:href="#ArialMT-99"/>
       <use x="172.314453" xlink:href="#ArialMT-111"/>
       <use x="227.929688" xlink:href="#ArialMT-110"/>
       <use x="283.544922" xlink:href="#ArialMT-100"/>
      </g>
     </g>
    </g>
    <g id="xtick_3">
     <g id="line2d_3">
      <path clip-path="url(#p8451589ec8)" d="M 457.527273 378 
L 457.527273 51.84 
" style="fill:none;stroke:#ffffff;stroke-linecap:round;"/>
     </g>
     <g id="text_3">
      <!-- Third -->
      <defs>
       <path d="M 25.921875 0 
L 25.921875 63.140625 
L 2.34375 63.140625 
L 2.34375 71.578125 
L 59.078125 71.578125 
L 59.078125 63.140625 
L 35.40625 63.140625 
L 35.40625 0 
z
" id="ArialMT-84"/>
       <path d="M 6.59375 0 
L 6.59375 71.578125 
L 15.375 71.578125 
L 15.375 45.90625 
Q 21.53125 53.03125 30.90625 53.03125 
Q 36.671875 53.03125 40.921875 50.75 
Q 45.171875 48.484375 47 44.484375 
Q 48.828125 40.484375 48.828125 32.859375 
L 48.828125 0 
L 40.046875 0 
L 40.046875 32.859375 
Q 40.046875 39.453125 37.1875 42.453125 
Q 34.328125 45.453125 29.109375 45.453125 
Q 25.203125 45.453125 21.75 43.421875 
Q 18.3125 41.40625 16.84375 37.9375 
Q 15.375 34.46875 15.375 28.375 
L 15.375 0 
z
" id="ArialMT-104"/>
      </defs>
      <g style="fill:#262626;" transform="translate(432.467898 403.247187)scale(0.22 -0.22)">
       <use xlink:href="#ArialMT-84"/>
       <use x="61.083984" xlink:href="#ArialMT-104"/>
       <use x="116.699219" xlink:href="#ArialMT-105"/>
       <use x="138.916016" xlink:href="#ArialMT-114"/>
       <use x="172.216797" xlink:href="#ArialMT-100"/>
      </g>
     </g>
    </g>
    <g id="text_4">
     <!-- RNN Layers -->
     <defs>
      <path d="M 7.859375 0 
L 7.859375 71.578125 
L 39.59375 71.578125 
Q 49.171875 71.578125 54.140625 69.640625 
Q 59.125 67.71875 62.109375 62.828125 
Q 65.09375 57.953125 65.09375 52.046875 
Q 65.09375 44.4375 60.15625 39.203125 
Q 55.21875 33.984375 44.921875 32.5625 
Q 48.6875 30.765625 50.640625 29 
Q 54.78125 25.203125 58.5 19.484375 
L 70.953125 0 
L 59.03125 0 
L 49.5625 14.890625 
Q 45.40625 21.34375 42.71875 24.75 
Q 40.046875 28.171875 37.921875 29.53125 
Q 35.796875 30.90625 33.59375 31.453125 
Q 31.984375 31.78125 28.328125 31.78125 
L 17.328125 31.78125 
L 17.328125 0 
z
M 17.328125 39.984375 
L 37.703125 39.984375 
Q 44.1875 39.984375 47.84375 41.328125 
Q 51.515625 42.671875 53.421875 45.625 
Q 55.328125 48.578125 55.328125 52.046875 
Q 55.328125 57.125 51.640625 60.390625 
Q 47.953125 63.671875 39.984375 63.671875 
L 17.328125 63.671875 
z
" id="ArialMT-82"/>
      <path d="M 7.625 0 
L 7.625 71.578125 
L 17.328125 71.578125 
L 54.9375 15.375 
L 54.9375 71.578125 
L 64.015625 71.578125 
L 64.015625 0 
L 54.296875 0 
L 16.703125 56.25 
L 16.703125 0 
z
" id="ArialMT-78"/>
      <path id="ArialMT-32"/>
      <path d="M 7.328125 0 
L 7.328125 71.578125 
L 16.796875 71.578125 
L 16.796875 8.453125 
L 52.046875 8.453125 
L 52.046875 0 
z
" id="ArialMT-76"/>
      <path d="M 40.4375 6.390625 
Q 35.546875 2.25 31.03125 0.53125 
Q 26.515625 -1.171875 21.34375 -1.171875 
Q 12.796875 -1.171875 8.203125 3 
Q 3.609375 7.171875 3.609375 13.671875 
Q 3.609375 17.484375 5.34375 20.625 
Q 7.078125 23.78125 9.890625 25.6875 
Q 12.703125 27.59375 16.21875 28.5625 
Q 18.796875 29.25 24.03125 29.890625 
Q 34.671875 31.15625 39.703125 32.90625 
Q 39.75 34.71875 39.75 35.203125 
Q 39.75 40.578125 37.25 42.78125 
Q 33.890625 45.75 27.25 45.75 
Q 21.046875 45.75 18.09375 43.578125 
Q 15.140625 41.40625 13.71875 35.890625 
L 5.125 37.0625 
Q 6.296875 42.578125 8.984375 45.96875 
Q 11.671875 49.359375 16.75 51.1875 
Q 21.828125 53.03125 28.515625 53.03125 
Q 35.15625 53.03125 39.296875 51.46875 
Q 43.453125 49.90625 45.40625 47.53125 
Q 47.359375 45.171875 48.140625 41.546875 
Q 48.578125 39.3125 48.578125 33.453125 
L 48.578125 21.734375 
Q 48.578125 9.46875 49.140625 6.21875 
Q 49.703125 2.984375 51.375 0 
L 42.1875 0 
Q 40.828125 2.734375 40.4375 6.390625 
z
M 39.703125 26.03125 
Q 34.90625 24.078125 25.34375 22.703125 
Q 19.921875 21.921875 17.671875 20.9375 
Q 15.4375 19.96875 14.203125 18.09375 
Q 12.984375 16.21875 12.984375 13.921875 
Q 12.984375 10.40625 15.640625 8.0625 
Q 18.3125 5.71875 23.4375 5.71875 
Q 28.515625 5.71875 32.46875 7.9375 
Q 36.421875 10.15625 38.28125 14.015625 
Q 39.703125 17 39.703125 22.796875 
z
" id="ArialMT-97"/>
      <path d="M 6.203125 -19.96875 
L 5.21875 -11.71875 
Q 8.109375 -12.5 10.25 -12.5 
Q 13.1875 -12.5 14.9375 -11.515625 
Q 16.703125 -10.546875 17.828125 -8.796875 
Q 18.65625 -7.46875 20.515625 -2.25 
Q 20.75 -1.515625 21.296875 -0.09375 
L 1.609375 51.859375 
L 11.078125 51.859375 
L 21.875 21.828125 
Q 23.96875 16.109375 25.640625 9.8125 
Q 27.15625 15.875 29.25 21.625 
L 40.328125 51.859375 
L 49.125 51.859375 
L 29.390625 -0.875 
Q 26.21875 -9.421875 24.46875 -12.640625 
Q 22.125 -17 19.09375 -19.015625 
Q 16.0625 -21.046875 11.859375 -21.046875 
Q 9.328125 -21.046875 6.203125 -19.96875 
z
" id="ArialMT-121"/>
     </defs>
     <g style="fill:#262626;" transform="translate(229.8525 428.798437)scale(0.24 -0.24)">
      <use xlink:href="#ArialMT-82"/>
      <use x="72.216797" xlink:href="#ArialMT-78"/>
      <use x="144.433594" xlink:href="#ArialMT-78"/>
      <use x="216.650391" xlink:href="#ArialMT-32"/>
      <use x="244.433594" xlink:href="#ArialMT-76"/>
      <use x="300.048828" xlink:href="#ArialMT-97"/>
      <use x="355.664062" xlink:href="#ArialMT-121"/>
      <use x="405.664062" xlink:href="#ArialMT-101"/>
      <use x="461.279297" xlink:href="#ArialMT-114"/>
      <use x="494.580078" xlink:href="#ArialMT-115"/>
     </g>
    </g>
   </g>
   <g id="matplotlib.axis_2">
    <g id="ytick_1">
     <g id="line2d_4">
      <path clip-path="url(#p8451589ec8)" d="M 72 363.174545 
L 518.4 363.174545 
" style="fill:none;stroke:#ffffff;stroke-linecap:round;"/>
     </g>
     <g id="text_5">
      <!-- 0.1 -->
      <defs>
       <path d="M 4.15625 35.296875 
Q 4.15625 48 6.765625 55.734375 
Q 9.375 63.484375 14.515625 67.671875 
Q 19.671875 71.875 27.484375 71.875 
Q 33.25 71.875 37.59375 69.546875 
Q 41.9375 67.234375 44.765625 62.859375 
Q 47.609375 58.5 49.21875 52.21875 
Q 50.828125 45.953125 50.828125 35.296875 
Q 50.828125 22.703125 48.234375 14.96875 
Q 45.65625 7.234375 40.5 3 
Q 35.359375 -1.21875 27.484375 -1.21875 
Q 17.140625 -1.21875 11.234375 6.203125 
Q 4.15625 15.140625 4.15625 35.296875 
z
M 13.1875 35.296875 
Q 13.1875 17.671875 17.3125 11.828125 
Q 21.4375 6 27.484375 6 
Q 33.546875 6 37.671875 11.859375 
Q 41.796875 17.71875 41.796875 35.296875 
Q 41.796875 52.984375 37.671875 58.78125 
Q 33.546875 64.59375 27.390625 64.59375 
Q 21.34375 64.59375 17.71875 59.46875 
Q 13.1875 52.9375 13.1875 35.296875 
z
" id="ArialMT-48"/>
       <path d="M 9.078125 0 
L 9.078125 10.015625 
L 19.09375 10.015625 
L 19.09375 0 
z
" id="ArialMT-46"/>
       <path d="M 37.25 0 
L 28.46875 0 
L 28.46875 56 
Q 25.296875 52.984375 20.140625 49.953125 
Q 14.984375 46.921875 10.890625 45.40625 
L 10.890625 53.90625 
Q 18.265625 57.375 23.78125 62.296875 
Q 29.296875 67.234375 31.59375 71.875 
L 37.25 71.875 
z
" id="ArialMT-49"/>
      </defs>
      <g style="fill:#262626;" transform="translate(31.92 371.048139)scale(0.22 -0.22)">
       <use xlink:href="#ArialMT-48"/>
       <use x="55.615234" xlink:href="#ArialMT-46"/>
       <use x="83.398438" xlink:href="#ArialMT-49"/>
      </g>
     </g>
    </g>
    <g id="ytick_2">
     <g id="line2d_5">
      <path clip-path="url(#p8451589ec8)" d="M 72 289.047275 
L 518.4 289.047275 
" style="fill:none;stroke:#ffffff;stroke-linecap:round;"/>
     </g>
     <g id="text_6">
      <!-- 0.2 -->
      <defs>
       <path d="M 50.34375 8.453125 
L 50.34375 0 
L 3.03125 0 
Q 2.9375 3.171875 4.046875 6.109375 
Q 5.859375 10.9375 9.828125 15.625 
Q 13.8125 20.3125 21.34375 26.46875 
Q 33.015625 36.03125 37.109375 41.625 
Q 41.21875 47.21875 41.21875 52.203125 
Q 41.21875 57.421875 37.46875 61 
Q 33.734375 64.59375 27.734375 64.59375 
Q 21.390625 64.59375 17.578125 60.78125 
Q 13.765625 56.984375 13.71875 50.25 
L 4.6875 51.171875 
Q 5.609375 61.28125 11.65625 66.578125 
Q 17.71875 71.875 27.9375 71.875 
Q 38.234375 71.875 44.234375 66.15625 
Q 50.25 60.453125 50.25 52 
Q 50.25 47.703125 48.484375 43.546875 
Q 46.734375 39.40625 42.65625 34.8125 
Q 38.578125 30.21875 29.109375 22.21875 
Q 21.1875 15.578125 18.9375 13.203125 
Q 16.703125 10.84375 15.234375 8.453125 
z
" id="ArialMT-50"/>
      </defs>
      <g style="fill:#262626;" transform="translate(31.92 296.920868)scale(0.22 -0.22)">
       <use xlink:href="#ArialMT-48"/>
       <use x="55.615234" xlink:href="#ArialMT-46"/>
       <use x="83.398438" xlink:href="#ArialMT-50"/>
      </g>
     </g>
    </g>
    <g id="ytick_3">
     <g id="line2d_6">
      <path clip-path="url(#p8451589ec8)" d="M 72 214.920004 
L 518.4 214.920004 
" style="fill:none;stroke:#ffffff;stroke-linecap:round;"/>
     </g>
     <g id="text_7">
      <!-- 0.3 -->
      <defs>
       <path d="M 4.203125 18.890625 
L 12.984375 20.0625 
Q 14.5 12.59375 18.140625 9.296875 
Q 21.78125 6 27 6 
Q 33.203125 6 37.46875 10.296875 
Q 41.75 14.59375 41.75 20.953125 
Q 41.75 27 37.796875 30.921875 
Q 33.84375 34.859375 27.734375 34.859375 
Q 25.25 34.859375 21.53125 33.890625 
L 22.515625 41.609375 
Q 23.390625 41.5 23.921875 41.5 
Q 29.546875 41.5 34.03125 44.421875 
Q 38.53125 47.359375 38.53125 53.46875 
Q 38.53125 58.296875 35.25 61.46875 
Q 31.984375 64.65625 26.8125 64.65625 
Q 21.6875 64.65625 18.265625 61.421875 
Q 14.84375 58.203125 13.875 51.765625 
L 5.078125 53.328125 
Q 6.6875 62.15625 12.390625 67.015625 
Q 18.109375 71.875 26.609375 71.875 
Q 32.46875 71.875 37.390625 69.359375 
Q 42.328125 66.84375 44.9375 62.5 
Q 47.5625 58.15625 47.5625 53.265625 
Q 47.5625 48.640625 45.0625 44.828125 
Q 42.578125 41.015625 37.703125 38.765625 
Q 44.046875 37.3125 47.5625 32.6875 
Q 51.078125 28.078125 51.078125 21.140625 
Q 51.078125 11.765625 44.234375 5.25 
Q 37.40625 -1.265625 26.953125 -1.265625 
Q 17.53125 -1.265625 11.296875 4.34375 
Q 5.078125 9.96875 4.203125 18.890625 
z
" id="ArialMT-51"/>
      </defs>
      <g style="fill:#262626;" transform="translate(31.92 222.793597)scale(0.22 -0.22)">
       <use xlink:href="#ArialMT-48"/>
       <use x="55.615234" xlink:href="#ArialMT-46"/>
       <use x="83.398438" xlink:href="#ArialMT-51"/>
      </g>
     </g>
    </g>
    <g id="ytick_4">
     <g id="line2d_7">
      <path clip-path="url(#p8451589ec8)" d="M 72 140.792733 
L 518.4 140.792733 
" style="fill:none;stroke:#ffffff;stroke-linecap:round;"/>
     </g>
     <g id="text_8">
      <!-- 0.4 -->
      <defs>
       <path d="M 32.328125 0 
L 32.328125 17.140625 
L 1.265625 17.140625 
L 1.265625 25.203125 
L 33.9375 71.578125 
L 41.109375 71.578125 
L 41.109375 25.203125 
L 50.78125 25.203125 
L 50.78125 17.140625 
L 41.109375 17.140625 
L 41.109375 0 
z
M 32.328125 25.203125 
L 32.328125 57.46875 
L 9.90625 25.203125 
z
" id="ArialMT-52"/>
      </defs>
      <g style="fill:#262626;" transform="translate(31.92 148.666327)scale(0.22 -0.22)">
       <use xlink:href="#ArialMT-48"/>
       <use x="55.615234" xlink:href="#ArialMT-46"/>
       <use x="83.398438" xlink:href="#ArialMT-52"/>
      </g>
     </g>
    </g>
    <g id="ytick_5">
     <g id="line2d_8">
      <path clip-path="url(#p8451589ec8)" d="M 72 66.665462 
L 518.4 66.665462 
" style="fill:none;stroke:#ffffff;stroke-linecap:round;"/>
     </g>
     <g id="text_9">
      <!-- 0.5 -->
      <defs>
       <path d="M 4.15625 18.75 
L 13.375 19.53125 
Q 14.40625 12.796875 18.140625 9.390625 
Q 21.875 6 27.15625 6 
Q 33.5 6 37.890625 10.78125 
Q 42.28125 15.578125 42.28125 23.484375 
Q 42.28125 31 38.0625 35.34375 
Q 33.84375 39.703125 27 39.703125 
Q 22.75 39.703125 19.328125 37.765625 
Q 15.921875 35.84375 13.96875 32.765625 
L 5.71875 33.84375 
L 12.640625 70.609375 
L 48.25 70.609375 
L 48.25 62.203125 
L 19.671875 62.203125 
L 15.828125 42.96875 
Q 22.265625 47.46875 29.34375 47.46875 
Q 38.71875 47.46875 45.15625 40.96875 
Q 51.609375 34.46875 51.609375 24.265625 
Q 51.609375 14.546875 45.953125 7.46875 
Q 39.0625 -1.21875 27.15625 -1.21875 
Q 17.390625 -1.21875 11.203125 4.25 
Q 5.03125 9.71875 4.15625 18.75 
z
" id="ArialMT-53"/>
      </defs>
      <g style="fill:#262626;" transform="translate(31.92 74.539056)scale(0.22 -0.22)">
       <use xlink:href="#ArialMT-48"/>
       <use x="55.615234" xlink:href="#ArialMT-46"/>
       <use x="83.398438" xlink:href="#ArialMT-53"/>
      </g>
     </g>
    </g>
    <g id="text_10">
     <!-- STD -->
     <defs>
      <path d="M 7.71875 0 
L 7.71875 71.578125 
L 32.375 71.578125 
Q 40.71875 71.578125 45.125 70.5625 
Q 51.265625 69.140625 55.609375 65.4375 
Q 61.28125 60.640625 64.078125 53.1875 
Q 66.890625 45.75 66.890625 36.1875 
Q 66.890625 28.03125 64.984375 21.734375 
Q 63.09375 15.4375 60.109375 11.296875 
Q 57.125 7.171875 53.578125 4.796875 
Q 50.046875 2.4375 45.046875 1.21875 
Q 40.046875 0 33.546875 0 
z
M 17.1875 8.453125 
L 32.46875 8.453125 
Q 39.546875 8.453125 43.578125 9.765625 
Q 47.609375 11.078125 50 13.484375 
Q 53.375 16.84375 55.25 22.53125 
Q 57.125 28.21875 57.125 36.328125 
Q 57.125 47.5625 53.4375 53.59375 
Q 49.75 59.625 44.484375 61.671875 
Q 40.671875 63.140625 32.234375 63.140625 
L 17.1875 63.140625 
z
" id="ArialMT-68"/>
     </defs>
     <g style="fill:#262626;" transform="translate(23.15 238.92)rotate(-90)scale(0.24 -0.24)">
      <use xlink:href="#ArialMT-83"/>
      <use x="66.699219" xlink:href="#ArialMT-84"/>
      <use x="127.783203" xlink:href="#ArialMT-68"/>
     </g>
    </g>
   </g>
   <g id="PolyCollection_1">
    <defs>
     <path d="M 149.03179 -68.825455 
L 116.713664 -68.825455 
L 114.339853 -71.820496 
L 112.108156 -74.815537 
L 110.094639 -77.810579 
L 108.347586 -80.80562 
L 106.883028 -83.800661 
L 105.686078 -86.795702 
L 104.717364 -89.790744 
L 103.92257 -92.785785 
L 103.242532 -95.780826 
L 102.621601 -98.775868 
L 102.013097 -101.770909 
L 101.382013 -104.76595 
L 100.706185 -107.760992 
L 99.977363 -110.756033 
L 99.202949 -113.751074 
L 98.407847 -116.746116 
L 97.634795 -119.741157 
L 96.941163 -122.736198 
L 96.391015 -125.73124 
L 96.042998 -128.726281 
L 95.936553 -131.721322 
L 96.080268 -134.716364 
L 96.446115 -137.711405 
L 96.971861 -140.706446 
L 97.571424 -143.701488 
L 98.150508 -146.696529 
L 98.623217 -149.69157 
L 98.925254 -152.686612 
L 99.020653 -155.681653 
L 98.901298 -158.676694 
L 98.580815 -161.671736 
L 98.086037 -164.666777 
L 97.449497 -167.661818 
L 96.705446 -170.65686 
L 95.889977 -173.651901 
L 95.043966 -176.646942 
L 94.216288 -179.641983 
L 93.464698 -182.637025 
L 92.852867 -185.632066 
L 92.443737 -188.627107 
L 92.290909 -191.622149 
L 92.430593 -194.61719 
L 92.876353 -197.612231 
L 93.617833 -200.607273 
L 94.623293 -203.602314 
L 95.844789 -206.597355 
L 97.224449 -209.592397 
L 98.700551 -212.587438 
L 100.212643 -215.582479 
L 101.705416 -218.577521 
L 103.131302 -221.572562 
L 104.451733 -224.567603 
L 105.637037 -227.562645 
L 106.665064 -230.557686 
L 107.518963 -233.552727 
L 108.184879 -236.547769 
L 108.650519 -239.54281 
L 108.905372 -242.537851 
L 108.942872 -245.532893 
L 108.764147 -248.527934 
L 108.382375 -251.522975 
L 107.826359 -254.518017 
L 107.141992 -257.513058 
L 106.390572 -260.508099 
L 105.643685 -263.50314 
L 104.975151 -266.498182 
L 104.451367 -269.493223 
L 104.121858 -272.488264 
L 104.01193 -275.483306 
L 104.118839 -278.478347 
L 104.412076 -281.473388 
L 104.837438 -284.46843 
L 105.323857 -287.463471 
L 105.79165 -290.458512 
L 106.160988 -293.453554 
L 106.359734 -296.448595 
L 106.330188 -299.443636 
L 106.034457 -302.438678 
L 105.458244 -305.433719 
L 104.612756 -308.42876 
L 103.534506 -311.423802 
L 102.282914 -314.418843 
L 100.935895 -317.413884 
L 99.583923 -320.408926 
L 98.323235 -323.403967 
L 97.248902 -326.399008 
L 96.448367 -329.39405 
L 95.995959 -332.389091 
L 95.948648 -335.384132 
L 96.343228 -338.379174 
L 97.194935 -341.374215 
L 98.497417 -344.369256 
L 100.22385 -347.364298 
L 102.328935 -350.359339 
L 104.751502 -353.35438 
L 107.417544 -356.349421 
L 110.243637 -359.344463 
L 113.140823 -362.339504 
L 116.019073 -365.334545 
L 149.726381 -365.334545 
L 149.726381 -365.334545 
L 152.604632 -362.339504 
L 155.501818 -359.344463 
L 158.32791 -356.349421 
L 160.993952 -353.35438 
L 163.416519 -350.359339 
L 165.521605 -347.364298 
L 167.248038 -344.369256 
L 168.550519 -341.374215 
L 169.402226 -338.379174 
L 169.796807 -335.384132 
L 169.749496 -332.389091 
L 169.297088 -329.39405 
L 168.496553 -326.399008 
L 167.422219 -323.403967 
L 166.161532 -320.408926 
L 164.809559 -317.413884 
L 163.46254 -314.418843 
L 162.210948 -311.423802 
L 161.132699 -308.42876 
L 160.287211 -305.433719 
L 159.710997 -302.438678 
L 159.415267 -299.443636 
L 159.38572 -296.448595 
L 159.584467 -293.453554 
L 159.953804 -290.458512 
L 160.421598 -287.463471 
L 160.908017 -284.46843 
L 161.333379 -281.473388 
L 161.626616 -278.478347 
L 161.733525 -275.483306 
L 161.623597 -272.488264 
L 161.294088 -269.493223 
L 160.770303 -266.498182 
L 160.10177 -263.50314 
L 159.354883 -260.508099 
L 158.603463 -257.513058 
L 157.919095 -254.518017 
L 157.36308 -251.522975 
L 156.981307 -248.527934 
L 156.802583 -245.532893 
L 156.840082 -242.537851 
L 157.094935 -239.54281 
L 157.560576 -236.547769 
L 158.226492 -233.552727 
L 159.08039 -230.557686 
L 160.108418 -227.562645 
L 161.293722 -224.567603 
L 162.614152 -221.572562 
L 164.040038 -218.577521 
L 165.532812 -215.582479 
L 167.044903 -212.587438 
L 168.521006 -209.592397 
L 169.900665 -206.597355 
L 171.122161 -203.602314 
L 172.127621 -200.607273 
L 172.869101 -197.612231 
L 173.314862 -194.61719 
L 173.454545 -191.622149 
L 173.301717 -188.627107 
L 172.892587 -185.632066 
L 172.280757 -182.637025 
L 171.529166 -179.641983 
L 170.701488 -176.646942 
L 169.855478 -173.651901 
L 169.040008 -170.65686 
L 168.295957 -167.661818 
L 167.659418 -164.666777 
L 167.164639 -161.671736 
L 166.844157 -158.676694 
L 166.724801 -155.681653 
L 166.8202 -152.686612 
L 167.122237 -149.69157 
L 167.594947 -146.696529 
L 168.174031 -143.701488 
L 168.773594 -140.706446 
L 169.29934 -137.711405 
L 169.665187 -134.716364 
L 169.808901 -131.721322 
L 169.702457 -128.726281 
L 169.35444 -125.73124 
L 168.804292 -122.736198 
L 168.110659 -119.741157 
L 167.337608 -116.746116 
L 166.542505 -113.751074 
L 165.768091 -110.756033 
L 165.03927 -107.760992 
L 164.363441 -104.76595 
L 163.732358 -101.770909 
L 163.123854 -98.775868 
L 162.502923 -95.780826 
L 161.822884 -92.785785 
L 161.028091 -89.790744 
L 160.059376 -86.795702 
L 158.862427 -83.800661 
L 157.397869 -80.80562 
L 155.650816 -77.810579 
L 153.637299 -74.815537 
L 151.405601 -71.820496 
L 149.03179 -68.825455 
z
" id="m5e0d8fb9f0" style="stroke:#ffffff;stroke-opacity:0.3;"/>
    </defs>
    <g clip-path="url(#p8451589ec8)">
     <use style="fill:#4c72b0;fill-opacity:0.3;stroke:#ffffff;stroke-opacity:0.3;" x="0" xlink:href="#m5e0d8fb9f0" y="432"/>
    </g>
   </g>
   <g id="PolyCollection_2">
    <defs>
     <path d="M 310.392238 -68.825455 
L 280.007762 -68.825455 
L 278.026787 -71.820496 
L 276.16475 -74.815537 
L 274.451784 -77.810578 
L 272.896341 -80.80562 
L 271.488975 -83.800661 
L 270.209388 -86.795702 
L 269.034527 -89.790743 
L 267.945147 -92.785785 
L 266.928808 -95.780826 
L 265.978511 -98.775867 
L 265.08777 -101.770908 
L 264.244372 -104.76595 
L 263.425863 -107.760991 
L 262.599429 -110.756032 
L 261.727499 -113.751073 
L 260.778319 -116.746115 
L 259.73876 -119.741156 
L 258.625405 -122.736197 
L 257.489993 -125.731238 
L 256.416671 -128.726279 
L 255.510691 -131.721321 
L 254.88065 -134.716362 
L 254.618182 -137.711403 
L 254.779766 -140.706444 
L 255.3748 -143.701486 
L 256.362509 -146.696527 
L 257.658129 -149.691568 
L 259.146713 -152.686609 
L 260.701342 -155.681651 
L 262.201898 -158.676692 
L 263.550793 -161.671733 
L 264.68307 -164.666774 
L 265.569762 -167.661816 
L 266.214779 -170.656857 
L 266.6468 -173.651898 
L 266.908293 -176.646939 
L 267.043941 -179.641981 
L 267.09058 -182.637022 
L 267.070268 -185.632063 
L 266.987559 -188.627104 
L 266.831449 -191.622146 
L 266.581705 -194.617187 
L 266.218452 -197.612228 
L 265.733064 -200.607269 
L 265.137681 -203.602311 
L 264.470574 -206.597352 
L 263.795143 -209.592393 
L 263.191776 -212.587434 
L 262.743702 -215.582476 
L 262.51992 -218.577517 
L 262.559414 -221.572558 
L 262.860941 -224.567599 
L 263.381308 -227.562641 
L 264.042876 -230.557682 
L 264.748511 -233.552723 
L 265.400347 -236.547764 
L 265.917918 -239.542806 
L 266.251698 -242.537847 
L 266.389622 -245.532888 
L 266.355995 -248.527929 
L 266.203973 -251.522971 
L 266.00388 -254.518012 
L 265.829991 -257.513053 
L 265.74813 -260.508094 
L 265.805871 -263.503136 
L 266.02638 -266.498177 
L 266.406377 -269.493218 
L 266.918133 -272.488259 
L 267.514916 -275.483301 
L 268.13884 -278.478342 
L 268.729683 -281.473383 
L 269.233092 -284.468424 
L 269.606798 -287.463466 
L 269.823991 -290.458507 
L 269.873751 -293.453548 
L 269.759107 -296.448589 
L 269.493758 -299.443631 
L 269.098556 -302.438672 
L 268.598597 -305.433713 
L 268.021304 -308.428754 
L 267.395441 -311.423796 
L 266.750657 -314.418837 
L 266.11707 -317.413878 
L 265.524565 -320.408919 
L 265.001758 -323.403961 
L 264.574957 -326.399002 
L 264.267647 -329.394043 
L 264.10101 -332.389084 
L 264.095634 -335.384126 
L 264.274004 -338.379167 
L 264.662744 -341.374208 
L 265.293264 -344.369249 
L 266.199593 -347.364291 
L 267.412919 -350.359332 
L 268.953473 -353.354373 
L 270.821557 -356.349414 
L 272.990251 -359.344456 
L 275.402267 -362.339497 
L 277.972546 -365.334538 
L 312.427454 -365.334538 
L 312.427454 -365.334538 
L 314.997733 -362.339497 
L 317.409749 -359.344456 
L 319.578443 -356.349414 
L 321.446527 -353.354373 
L 322.987081 -350.359332 
L 324.200407 -347.364291 
L 325.106736 -344.369249 
L 325.737256 -341.374208 
L 326.125996 -338.379167 
L 326.304366 -335.384126 
L 326.29899 -332.389084 
L 326.132353 -329.394043 
L 325.825043 -326.399002 
L 325.398242 -323.403961 
L 324.875435 -320.408919 
L 324.28293 -317.413878 
L 323.649343 -314.418837 
L 323.004559 -311.423796 
L 322.378696 -308.428754 
L 321.801403 -305.433713 
L 321.301444 -302.438672 
L 320.906242 -299.443631 
L 320.640893 -296.448589 
L 320.526249 -293.453548 
L 320.576009 -290.458507 
L 320.793202 -287.463466 
L 321.166908 -284.468424 
L 321.670317 -281.473383 
L 322.26116 -278.478342 
L 322.885084 -275.483301 
L 323.481867 -272.488259 
L 323.993623 -269.493218 
L 324.37362 -266.498177 
L 324.594129 -263.503136 
L 324.65187 -260.508094 
L 324.570009 -257.513053 
L 324.39612 -254.518012 
L 324.196027 -251.522971 
L 324.044005 -248.527929 
L 324.010378 -245.532888 
L 324.148302 -242.537847 
L 324.482082 -239.542806 
L 324.999653 -236.547764 
L 325.651489 -233.552723 
L 326.357124 -230.557682 
L 327.018692 -227.562641 
L 327.539059 -224.567599 
L 327.840586 -221.572558 
L 327.88008 -218.577517 
L 327.656298 -215.582476 
L 327.208224 -212.587434 
L 326.604857 -209.592393 
L 325.929426 -206.597352 
L 325.262319 -203.602311 
L 324.666936 -200.607269 
L 324.181548 -197.612228 
L 323.818295 -194.617187 
L 323.568551 -191.622146 
L 323.412441 -188.627104 
L 323.329732 -185.632063 
L 323.30942 -182.637022 
L 323.356059 -179.641981 
L 323.491707 -176.646939 
L 323.7532 -173.651898 
L 324.185221 -170.656857 
L 324.830238 -167.661816 
L 325.71693 -164.666774 
L 326.849207 -161.671733 
L 328.198102 -158.676692 
L 329.698658 -155.681651 
L 331.253287 -152.686609 
L 332.741871 -149.691568 
L 334.037491 -146.696527 
L 335.0252 -143.701486 
L 335.620234 -140.706444 
L 335.781818 -137.711403 
L 335.51935 -134.716362 
L 334.889309 -131.721321 
L 333.983329 -128.726279 
L 332.910007 -125.731238 
L 331.774595 -122.736197 
L 330.66124 -119.741156 
L 329.621681 -116.746115 
L 328.672501 -113.751073 
L 327.800571 -110.756032 
L 326.974137 -107.760991 
L 326.155628 -104.76595 
L 325.31223 -101.770908 
L 324.421489 -98.775867 
L 323.471192 -95.780826 
L 322.454853 -92.785785 
L 321.365473 -89.790743 
L 320.190612 -86.795702 
L 318.911025 -83.800661 
L 317.503659 -80.80562 
L 315.948216 -77.810578 
L 314.23525 -74.815537 
L 312.373213 -71.820496 
L 310.392238 -68.825455 
z
" id="m14abccef0d" style="stroke:#ffffff;stroke-opacity:0.3;"/>
    </defs>
    <g clip-path="url(#p8451589ec8)">
     <use style="fill:#4c72b0;fill-opacity:0.3;stroke:#ffffff;stroke-opacity:0.3;" x="0" xlink:href="#m14abccef0d" y="432"/>
    </g>
   </g>
   <g id="PolyCollection_3">
    <defs>
     <path d="M 476.232647 -68.825455 
L 438.821899 -68.825455 
L 436.486791 -71.820496 
L 434.272575 -74.815537 
L 432.206091 -77.810579 
L 430.291264 -80.80562 
L 428.513705 -83.800661 
L 426.848857 -86.795702 
L 425.2716 -89.790744 
L 423.765096 -92.785785 
L 422.327076 -95.780826 
L 420.972682 -98.775868 
L 419.733936 -101.770909 
L 418.656558 -104.76595 
L 417.795058 -107.760992 
L 417.206808 -110.756033 
L 416.945455 -113.751074 
L 417.053825 -116.746116 
L 417.556675 -119.741157 
L 418.45411 -122.736198 
L 419.717051 -125.73124 
L 421.28627 -128.726281 
L 423.076105 -131.721322 
L 424.982958 -134.716364 
L 426.897344 -137.711405 
L 428.717204 -140.706446 
L 430.359717 -143.701488 
L 431.769213 -146.696529 
L 432.919885 -149.69157 
L 433.813383 -152.686612 
L 434.472613 -155.681653 
L 434.933759 -158.676694 
L 435.238558 -161.671736 
L 435.428267 -164.666777 
L 435.539916 -167.661818 
L 435.604587 -170.65686 
L 435.646983 -173.651901 
L 435.685444 -176.646942 
L 435.731854 -179.641983 
L 435.791349 -182.637025 
L 435.862176 -185.632066 
L 435.936236 -188.627107 
L 436.000785 -191.622149 
L 436.041332 -194.61719 
L 436.045344 -197.612231 
L 436.005863 -200.607273 
L 435.924 -203.602314 
L 435.809432 -206.597355 
L 435.678512 -209.592397 
L 435.550348 -212.587438 
L 435.441801 -215.582479 
L 435.362762 -218.577521 
L 435.312948 -221.572562 
L 435.281026 -224.567603 
L 435.246113 -227.562645 
L 435.181085 -230.557686 
L 435.05672 -233.552727 
L 434.845764 -236.547769 
L 434.526399 -239.54281 
L 434.085034 -242.537851 
L 433.518708 -245.532893 
L 432.83733 -248.527934 
L 432.065614 -251.522975 
L 431.244062 -254.518017 
L 430.427975 -257.513058 
L 429.683541 -260.508099 
L 429.080645 -263.50314 
L 428.683028 -266.498182 
L 428.537471 -269.493223 
L 428.664366 -272.488264 
L 429.052109 -275.483306 
L 429.656993 -278.478347 
L 430.409021 -281.473388 
L 431.222581 -284.46843 
L 432.009712 -287.463471 
L 432.693106 -290.458512 
L 433.216204 -293.453554 
L 433.54857 -296.448595 
L 433.68597 -299.443636 
L 433.645826 -302.438678 
L 433.459649 -305.433719 
L 433.164522 -308.42876 
L 432.795641 -311.423802 
L 432.381443 -314.418843 
L 431.942084 -317.413884 
L 431.491225 -320.408926 
L 431.040319 -323.403967 
L 430.604076 -326.399008 
L 430.205581 -329.39405 
L 429.879595 -332.389091 
L 429.672997 -335.384132 
L 429.641933 -338.379174 
L 429.845916 -341.374215 
L 430.339844 -344.369256 
L 431.165339 -347.364298 
L 432.343049 -350.359339 
L 433.867382 -353.35438 
L 435.704723 -356.349421 
L 437.795529 -359.344463 
L 440.05997 -362.339504 
L 442.406184 -365.334545 
L 472.648361 -365.334545 
L 472.648361 -365.334545 
L 474.994576 -362.339504 
L 477.259017 -359.344463 
L 479.349823 -356.349421 
L 481.187164 -353.35438 
L 482.711496 -350.359339 
L 483.889206 -347.364298 
L 484.714701 -344.369256 
L 485.208629 -341.374215 
L 485.412612 -338.379174 
L 485.381548 -335.384132 
L 485.174951 -332.389091 
L 484.848964 -329.39405 
L 484.450469 -326.399008 
L 484.014227 -323.403967 
L 483.56332 -320.408926 
L 483.112462 -317.413884 
L 482.673103 -314.418843 
L 482.258904 -311.423802 
L 481.890023 -308.42876 
L 481.594896 -305.433719 
L 481.408719 -302.438678 
L 481.368575 -299.443636 
L 481.505975 -296.448595 
L 481.838341 -293.453554 
L 482.36144 -290.458512 
L 483.044834 -287.463471 
L 483.831965 -284.46843 
L 484.645525 -281.473388 
L 485.397552 -278.478347 
L 486.002436 -275.483306 
L 486.390179 -272.488264 
L 486.517075 -269.493223 
L 486.371517 -266.498182 
L 485.973901 -263.50314 
L 485.371004 -260.508099 
L 484.62657 -257.513058 
L 483.810483 -254.518017 
L 482.988931 -251.522975 
L 482.217215 -248.527934 
L 481.535837 -245.532893 
L 480.969511 -242.537851 
L 480.528146 -239.54281 
L 480.208781 -236.547769 
L 479.997826 -233.552727 
L 479.87346 -230.557686 
L 479.808433 -227.562645 
L 479.77352 -224.567603 
L 479.741597 -221.572562 
L 479.691784 -218.577521 
L 479.612744 -215.582479 
L 479.504197 -212.587438 
L 479.376033 -209.592397 
L 479.245114 -206.597355 
L 479.130545 -203.602314 
L 479.048683 -200.607273 
L 479.009201 -197.612231 
L 479.013213 -194.61719 
L 479.05376 -191.622149 
L 479.118309 -188.627107 
L 479.19237 -185.632066 
L 479.263196 -182.637025 
L 479.322691 -179.641983 
L 479.369101 -176.646942 
L 479.407563 -173.651901 
L 479.449959 -170.65686 
L 479.514629 -167.661818 
L 479.626278 -164.666777 
L 479.815988 -161.671736 
L 480.120786 -158.676694 
L 480.581933 -155.681653 
L 481.241162 -152.686612 
L 482.13466 -149.69157 
L 483.285332 -146.696529 
L 484.694828 -143.701488 
L 486.337341 -140.706446 
L 488.157201 -137.711405 
L 490.071587 -134.716364 
L 491.97844 -131.721322 
L 493.768276 -128.726281 
L 495.337494 -125.73124 
L 496.600436 -122.736198 
L 497.497871 -119.741157 
L 498.00072 -116.746116 
L 498.109091 -113.751074 
L 497.847738 -110.756033 
L 497.259488 -107.760992 
L 496.397987 -104.76595 
L 495.32061 -101.770909 
L 494.081864 -98.775868 
L 492.727469 -95.780826 
L 491.289449 -92.785785 
L 489.782946 -89.790744 
L 488.205689 -86.795702 
L 486.54084 -83.800661 
L 484.763281 -80.80562 
L 482.848454 -77.810579 
L 480.78197 -74.815537 
L 478.567754 -71.820496 
L 476.232647 -68.825455 
z
" id="ma523469023" style="stroke:#ffffff;stroke-opacity:0.3;"/>
    </defs>
    <g clip-path="url(#p8451589ec8)">
     <use style="fill:#4c72b0;fill-opacity:0.3;stroke:#ffffff;stroke-opacity:0.3;" x="0" xlink:href="#ma523469023" y="432"/>
    </g>
   </g>
   <g id="LineCollection_1">
    <path clip-path="url(#p8451589ec8)" d="M 112.581818 66.665455 
L 153.163636 66.665455 
" style="fill:none;stroke:#4c72b0;stroke-width:1.5;"/>
    <path clip-path="url(#p8451589ec8)" d="M 274.909091 66.665462 
L 315.490909 66.665462 
" style="fill:none;stroke:#4c72b0;stroke-width:1.5;"/>
    <path clip-path="url(#p8451589ec8)" d="M 437.236364 66.665455 
L 477.818182 66.665455 
" style="fill:none;stroke:#4c72b0;stroke-width:1.5;"/>
   </g>
   <g id="LineCollection_2">
    <path clip-path="url(#p8451589ec8)" d="M 112.581818 363.174545 
L 153.163636 363.174545 
" style="fill:none;stroke:#4c72b0;stroke-width:1.5;"/>
    <path clip-path="url(#p8451589ec8)" d="M 274.909091 363.174545 
L 315.490909 363.174545 
" style="fill:none;stroke:#4c72b0;stroke-width:1.5;"/>
    <path clip-path="url(#p8451589ec8)" d="M 437.236364 363.174545 
L 477.818182 363.174545 
" style="fill:none;stroke:#4c72b0;stroke-width:1.5;"/>
   </g>
   <g id="LineCollection_3">
    <path clip-path="url(#p8451589ec8)" d="M 132.872727 363.174545 
L 132.872727 66.665455 
" style="fill:none;stroke:#4c72b0;stroke-width:1.5;"/>
    <path clip-path="url(#p8451589ec8)" d="M 295.2 363.174545 
L 295.2 66.665462 
" style="fill:none;stroke:#4c72b0;stroke-width:1.5;"/>
    <path clip-path="url(#p8451589ec8)" d="M 457.527273 363.174545 
L 457.527273 66.665455 
" style="fill:none;stroke:#4c72b0;stroke-width:1.5;"/>
   </g>
   <g id="LineCollection_4">
    <path clip-path="url(#p8451589ec8)" d="M 112.581818 226.63015 
L 153.163636 226.63015 
" style="fill:none;stroke:#4c72b0;stroke-width:1.5;"/>
    <path clip-path="url(#p8451589ec8)" d="M 274.909091 216.99459 
L 315.490909 216.99459 
" style="fill:none;stroke:#4c72b0;stroke-width:1.5;"/>
    <path clip-path="url(#p8451589ec8)" d="M 437.236364 225.32461 
L 477.818182 225.32461 
" style="fill:none;stroke:#4c72b0;stroke-width:1.5;"/>
   </g>
   <g id="patch_3">
    <path d="M 72 378 
L 72 51.84 
" style="fill:none;stroke:#ffffff;stroke-linecap:square;stroke-linejoin:miter;stroke-width:1.25;"/>
   </g>
   <g id="patch_4">
    <path d="M 518.4 378 
L 518.4 51.84 
" style="fill:none;stroke:#ffffff;stroke-linecap:square;stroke-linejoin:miter;stroke-width:1.25;"/>
   </g>
   <g id="patch_5">
    <path d="M 72 378 
L 518.4 378 
" style="fill:none;stroke:#ffffff;stroke-linecap:square;stroke-linejoin:miter;stroke-width:1.25;"/>
   </g>
   <g id="patch_6">
    <path d="M 72 51.84 
L 518.4 51.84 
" style="fill:none;stroke:#ffffff;stroke-linecap:square;stroke-linejoin:miter;stroke-width:1.25;"/>
   </g>
   <g id="text_11">
    <!-- Gaussian noise STD: Island DNN (all 6659 models) -->
    <defs>
     <path d="M 41.21875 28.078125 
L 41.21875 36.46875 
L 71.53125 36.53125 
L 71.53125 9.96875 
Q 64.546875 4.390625 57.125 1.578125 
Q 49.703125 -1.21875 41.890625 -1.21875 
Q 31.34375 -1.21875 22.71875 3.296875 
Q 14.109375 7.8125 9.71875 16.359375 
Q 5.328125 24.90625 5.328125 35.453125 
Q 5.328125 45.90625 9.6875 54.953125 
Q 14.0625 64.015625 22.265625 68.40625 
Q 30.46875 72.796875 41.15625 72.796875 
Q 48.921875 72.796875 55.1875 70.28125 
Q 61.46875 67.78125 65.03125 63.28125 
Q 68.609375 58.796875 70.453125 51.5625 
L 61.921875 49.21875 
Q 60.296875 54.6875 57.90625 57.8125 
Q 55.515625 60.9375 51.0625 62.8125 
Q 46.625 64.703125 41.21875 64.703125 
Q 34.71875 64.703125 29.984375 62.71875 
Q 25.25 60.75 22.34375 57.515625 
Q 19.4375 54.296875 17.828125 50.4375 
Q 15.09375 43.796875 15.09375 36.03125 
Q 15.09375 26.46875 18.390625 20.015625 
Q 21.6875 13.578125 27.984375 10.453125 
Q 34.28125 7.328125 41.359375 7.328125 
Q 47.515625 7.328125 53.375 9.6875 
Q 59.234375 12.0625 62.25 14.75 
L 62.25 28.078125 
z
" id="ArialMT-71"/>
     <path d="M 40.578125 0 
L 40.578125 7.625 
Q 34.515625 -1.171875 24.125 -1.171875 
Q 19.53125 -1.171875 15.546875 0.578125 
Q 11.578125 2.34375 9.640625 5 
Q 7.71875 7.671875 6.9375 11.53125 
Q 6.390625 14.109375 6.390625 19.734375 
L 6.390625 51.859375 
L 15.1875 51.859375 
L 15.1875 23.09375 
Q 15.1875 16.21875 15.71875 13.8125 
Q 16.546875 10.359375 19.234375 8.375 
Q 21.921875 6.390625 25.875 6.390625 
Q 29.828125 6.390625 33.296875 8.421875 
Q 36.765625 10.453125 38.203125 13.9375 
Q 39.65625 17.4375 39.65625 24.078125 
L 39.65625 51.859375 
L 48.4375 51.859375 
L 48.4375 0 
z
" id="ArialMT-117"/>
     <path d="M 9.03125 41.84375 
L 9.03125 51.859375 
L 19.046875 51.859375 
L 19.046875 41.84375 
z
M 9.03125 0 
L 9.03125 10.015625 
L 19.046875 10.015625 
L 19.046875 0 
z
" id="ArialMT-58"/>
     <path d="M 9.328125 0 
L 9.328125 71.578125 
L 18.796875 71.578125 
L 18.796875 0 
z
" id="ArialMT-73"/>
     <path d="M 6.390625 0 
L 6.390625 71.578125 
L 15.1875 71.578125 
L 15.1875 0 
z
" id="ArialMT-108"/>
     <path d="M 23.390625 -21.046875 
Q 16.109375 -11.859375 11.078125 0.4375 
Q 6.0625 12.75 6.0625 25.921875 
Q 6.0625 37.546875 9.8125 48.1875 
Q 14.203125 60.546875 23.390625 72.796875 
L 29.6875 72.796875 
Q 23.78125 62.640625 21.875 58.296875 
Q 18.890625 51.5625 17.1875 44.234375 
Q 15.09375 35.109375 15.09375 25.875 
Q 15.09375 2.390625 29.6875 -21.046875 
z
" id="ArialMT-40"/>
     <path d="M 49.75 54.046875 
L 41.015625 53.375 
Q 39.84375 58.546875 37.703125 60.890625 
Q 34.125 64.65625 28.90625 64.65625 
Q 24.703125 64.65625 21.53125 62.3125 
Q 17.390625 59.28125 14.984375 53.46875 
Q 12.59375 47.65625 12.5 36.921875 
Q 15.671875 41.75 20.265625 44.09375 
Q 24.859375 46.4375 29.890625 46.4375 
Q 38.671875 46.4375 44.84375 39.96875 
Q 51.03125 33.5 51.03125 23.25 
Q 51.03125 16.5 48.125 10.71875 
Q 45.21875 4.9375 40.140625 1.859375 
Q 35.0625 -1.21875 28.609375 -1.21875 
Q 17.625 -1.21875 10.6875 6.859375 
Q 3.765625 14.9375 3.765625 33.5 
Q 3.765625 54.25 11.421875 63.671875 
Q 18.109375 71.875 29.4375 71.875 
Q 37.890625 71.875 43.28125 67.140625 
Q 48.6875 62.40625 49.75 54.046875 
z
M 13.875 23.1875 
Q 13.875 18.65625 15.796875 14.5 
Q 17.71875 10.359375 21.1875 8.171875 
Q 24.65625 6 28.46875 6 
Q 34.03125 6 38.03125 10.484375 
Q 42.046875 14.984375 42.046875 22.703125 
Q 42.046875 30.125 38.078125 34.390625 
Q 34.125 38.671875 28.125 38.671875 
Q 22.171875 38.671875 18.015625 34.390625 
Q 13.875 30.125 13.875 23.1875 
z
" id="ArialMT-54"/>
     <path d="M 5.46875 16.546875 
L 13.921875 17.328125 
Q 14.984375 11.375 18.015625 8.6875 
Q 21.046875 6 25.78125 6 
Q 29.828125 6 32.875 7.859375 
Q 35.9375 9.71875 37.890625 12.8125 
Q 39.84375 15.921875 41.15625 21.1875 
Q 42.484375 26.46875 42.484375 31.9375 
Q 42.484375 32.515625 42.4375 33.6875 
Q 39.796875 29.5 35.234375 26.875 
Q 30.671875 24.265625 25.34375 24.265625 
Q 16.453125 24.265625 10.296875 30.703125 
Q 4.15625 37.15625 4.15625 47.703125 
Q 4.15625 58.59375 10.578125 65.234375 
Q 17 71.875 26.65625 71.875 
Q 33.640625 71.875 39.421875 68.109375 
Q 45.21875 64.359375 48.21875 57.390625 
Q 51.21875 50.4375 51.21875 37.25 
Q 51.21875 23.53125 48.234375 15.40625 
Q 45.265625 7.28125 39.375 3.03125 
Q 33.5 -1.21875 25.59375 -1.21875 
Q 17.1875 -1.21875 11.859375 3.4375 
Q 6.546875 8.109375 5.46875 16.546875 
z
M 41.453125 48.140625 
Q 41.453125 55.71875 37.421875 60.15625 
Q 33.40625 64.59375 27.734375 64.59375 
Q 21.875 64.59375 17.53125 59.8125 
Q 13.1875 55.03125 13.1875 47.40625 
Q 13.1875 40.578125 17.3125 36.296875 
Q 21.4375 32.03125 27.484375 32.03125 
Q 33.59375 32.03125 37.515625 36.296875 
Q 41.453125 40.578125 41.453125 48.140625 
z
" id="ArialMT-57"/>
     <path d="M 6.59375 0 
L 6.59375 51.859375 
L 14.453125 51.859375 
L 14.453125 44.578125 
Q 16.890625 48.390625 20.9375 50.703125 
Q 25 53.03125 30.171875 53.03125 
Q 35.9375 53.03125 39.625 50.640625 
Q 43.3125 48.25 44.828125 43.953125 
Q 50.984375 53.03125 60.84375 53.03125 
Q 68.5625 53.03125 72.703125 48.75 
Q 76.859375 44.484375 76.859375 35.59375 
L 76.859375 0 
L 68.109375 0 
L 68.109375 32.671875 
Q 68.109375 37.9375 67.25 40.25 
Q 66.40625 42.578125 64.15625 43.984375 
Q 61.921875 45.40625 58.890625 45.40625 
Q 53.421875 45.40625 49.796875 41.765625 
Q 46.1875 38.140625 46.1875 30.125 
L 46.1875 0 
L 37.40625 0 
L 37.40625 33.6875 
Q 37.40625 39.546875 35.25 42.46875 
Q 33.109375 45.40625 28.21875 45.40625 
Q 24.515625 45.40625 21.359375 43.453125 
Q 18.21875 41.5 16.796875 37.734375 
Q 15.375 33.984375 15.375 26.90625 
L 15.375 0 
z
" id="ArialMT-109"/>
     <path d="M 12.359375 -21.046875 
L 6.0625 -21.046875 
Q 20.65625 2.390625 20.65625 25.875 
Q 20.65625 35.0625 18.5625 44.09375 
Q 16.890625 51.421875 13.921875 58.15625 
Q 12.015625 62.546875 6.0625 72.796875 
L 12.359375 72.796875 
Q 21.53125 60.546875 25.921875 48.1875 
Q 29.6875 37.546875 29.6875 25.921875 
Q 29.6875 12.75 24.625 0.4375 
Q 19.578125 -11.859375 12.359375 -21.046875 
z
" id="ArialMT-41"/>
    </defs>
    <g style="fill:#262626;" transform="translate(21.763125 45.84)scale(0.24 -0.24)">
     <use xlink:href="#ArialMT-71"/>
     <use x="77.783203" xlink:href="#ArialMT-97"/>
     <use x="133.398438" xlink:href="#ArialMT-117"/>
     <use x="189.013672" xlink:href="#ArialMT-115"/>
     <use x="239.013672" xlink:href="#ArialMT-115"/>
     <use x="289.013672" xlink:href="#ArialMT-105"/>
     <use x="311.230469" xlink:href="#ArialMT-97"/>
     <use x="366.845703" xlink:href="#ArialMT-110"/>
     <use x="422.460938" xlink:href="#ArialMT-32"/>
     <use x="450.244141" xlink:href="#ArialMT-110"/>
     <use x="505.859375" xlink:href="#ArialMT-111"/>
     <use x="561.474609" xlink:href="#ArialMT-105"/>
     <use x="583.691406" xlink:href="#ArialMT-115"/>
     <use x="633.691406" xlink:href="#ArialMT-101"/>
     <use x="689.306641" xlink:href="#ArialMT-32"/>
     <use x="717.089844" xlink:href="#ArialMT-83"/>
     <use x="783.789062" xlink:href="#ArialMT-84"/>
     <use x="844.873047" xlink:href="#ArialMT-68"/>
     <use x="917.089844" xlink:href="#ArialMT-58"/>
     <use x="944.873047" xlink:href="#ArialMT-32"/>
     <use x="972.65625" xlink:href="#ArialMT-73"/>
     <use x="1000.439453" xlink:href="#ArialMT-115"/>
     <use x="1050.439453" xlink:href="#ArialMT-108"/>
     <use x="1072.65625" xlink:href="#ArialMT-97"/>
     <use x="1128.271484" xlink:href="#ArialMT-110"/>
     <use x="1183.886719" xlink:href="#ArialMT-100"/>
     <use x="1239.501953" xlink:href="#ArialMT-32"/>
     <use x="1267.285156" xlink:href="#ArialMT-68"/>
     <use x="1339.501953" xlink:href="#ArialMT-78"/>
     <use x="1411.71875" xlink:href="#ArialMT-78"/>
     <use x="1483.935547" xlink:href="#ArialMT-32"/>
     <use x="1511.71875" xlink:href="#ArialMT-40"/>
     <use x="1545.019531" xlink:href="#ArialMT-97"/>
     <use x="1600.634766" xlink:href="#ArialMT-108"/>
     <use x="1622.851562" xlink:href="#ArialMT-108"/>
     <use x="1645.068359" xlink:href="#ArialMT-32"/>
     <use x="1672.851562" xlink:href="#ArialMT-54"/>
     <use x="1728.466797" xlink:href="#ArialMT-54"/>
     <use x="1784.082031" xlink:href="#ArialMT-53"/>
     <use x="1839.697266" xlink:href="#ArialMT-57"/>
     <use x="1895.3125" xlink:href="#ArialMT-32"/>
     <use x="1923.095703" xlink:href="#ArialMT-109"/>
     <use x="2006.396484" xlink:href="#ArialMT-111"/>
     <use x="2062.011719" xlink:href="#ArialMT-100"/>
     <use x="2117.626953" xlink:href="#ArialMT-101"/>
     <use x="2173.242188" xlink:href="#ArialMT-108"/>
     <use x="2195.458984" xlink:href="#ArialMT-115"/>
     <use x="2245.458984" xlink:href="#ArialMT-41"/>
    </g>
   </g>
  </g>
 </g>
 <defs>
  <clipPath id="p8451589ec8">
   <rect height="326.16" width="446.4" x="72" y="51.84"/>
  </clipPath>
 </defs>
</svg>
