<?xml version="1.0" encoding="utf-8" standalone="no"?>
<!DOCTYPE svg PUBLIC "-//W3C//DTD SVG 1.1//EN"
  "http://www.w3.org/Graphics/SVG/1.1/DTD/svg11.dtd">
<!-- Created with matplotlib (https://matplotlib.org/) -->
<svg height="432pt" version="1.1" viewBox="0 0 576 432" width="576pt" xmlns="http://www.w3.org/2000/svg" xmlns:xlink="http://www.w3.org/1999/xlink">
 <defs>
  <style type="text/css">
*{stroke-linecap:butt;stroke-linejoin:round;white-space:pre;}
  </style>
 </defs>
 <g id="figure_1">
  <g id="patch_1">
   <path d="M 0 432 
L 576 432 
L 576 0 
L 0 0 
z
" style="fill:#ffffff;"/>
  </g>
  <g id="axes_1">
   <g id="patch_2">
    <path d="M 72 378 
L 518.4 378 
L 518.4 51.84 
L 72 51.84 
z
" style="fill:#eaeaf2;"/>
   </g>
   <g id="matplotlib.axis_1">
    <g id="xtick_1">
     <g id="line2d_1">
      <path clip-path="url(#pe66305043d)" d="M 132.872727 378 
L 132.872727 51.84 
" style="fill:none;stroke:#ffffff;stroke-linecap:round;"/>
     </g>
     <g id="text_1">
      <!-- First -->
      <defs>
       <path d="M 8.203125 0 
L 8.203125 71.578125 
L 56.5 71.578125 
L 56.5 63.140625 
L 17.671875 63.140625 
L 17.671875 40.96875 
L 51.265625 40.96875 
L 51.265625 32.515625 
L 17.671875 32.515625 
L 17.671875 0 
z
" id="ArialMT-70"/>
       <path d="M 6.640625 61.46875 
L 6.640625 71.578125 
L 15.4375 71.578125 
L 15.4375 61.46875 
z
M 6.640625 0 
L 6.640625 51.859375 
L 15.4375 51.859375 
L 15.4375 0 
z
" id="ArialMT-105"/>
       <path d="M 6.5 0 
L 6.5 51.859375 
L 14.40625 51.859375 
L 14.40625 44 
Q 17.4375 49.515625 20 51.265625 
Q 22.5625 53.03125 25.640625 53.03125 
Q 30.078125 53.03125 34.671875 50.203125 
L 31.640625 42.046875 
Q 28.421875 43.953125 25.203125 43.953125 
Q 22.3125 43.953125 20.015625 42.21875 
Q 17.71875 40.484375 16.75 37.40625 
Q 15.28125 32.71875 15.28125 27.15625 
L 15.28125 0 
z
" id="ArialMT-114"/>
       <path d="M 3.078125 15.484375 
L 11.765625 16.84375 
Q 12.5 11.625 15.84375 8.84375 
Q 19.1875 6.0625 25.203125 6.0625 
Q 31.25 6.0625 34.171875 8.515625 
Q 37.109375 10.984375 37.109375 14.3125 
Q 37.109375 17.28125 34.515625 19 
Q 32.71875 20.171875 25.53125 21.96875 
Q 15.875 24.421875 12.140625 26.203125 
Q 8.40625 27.984375 6.46875 31.125 
Q 4.546875 34.28125 4.546875 38.09375 
Q 4.546875 41.546875 6.125 44.5 
Q 7.71875 47.46875 10.453125 49.421875 
Q 12.5 50.921875 16.03125 51.96875 
Q 19.578125 53.03125 23.640625 53.03125 
Q 29.734375 53.03125 34.34375 51.265625 
Q 38.96875 49.515625 41.15625 46.5 
Q 43.359375 43.5 44.1875 38.484375 
L 35.59375 37.3125 
Q 35.015625 41.3125 32.203125 43.546875 
Q 29.390625 45.796875 24.265625 45.796875 
Q 18.21875 45.796875 15.625 43.796875 
Q 13.03125 41.796875 13.03125 39.109375 
Q 13.03125 37.40625 14.109375 36.03125 
Q 15.1875 34.625 17.484375 33.6875 
Q 18.796875 33.203125 25.25 31.453125 
Q 34.578125 28.953125 38.25 27.359375 
Q 41.9375 25.78125 44.03125 22.75 
Q 46.140625 19.734375 46.140625 15.234375 
Q 46.140625 10.84375 43.578125 6.953125 
Q 41.015625 3.078125 36.171875 0.953125 
Q 31.34375 -1.171875 25.25 -1.171875 
Q 15.140625 -1.171875 9.84375 3.03125 
Q 4.546875 7.234375 3.078125 15.484375 
z
" id="ArialMT-115"/>
       <path d="M 25.78125 7.859375 
L 27.046875 0.09375 
Q 23.34375 -0.6875 20.40625 -0.6875 
Q 15.625 -0.6875 12.984375 0.828125 
Q 10.359375 2.34375 9.28125 4.8125 
Q 8.203125 7.28125 8.203125 15.1875 
L 8.203125 45.015625 
L 1.765625 45.015625 
L 1.765625 51.859375 
L 8.203125 51.859375 
L 8.203125 64.703125 
L 16.9375 69.96875 
L 16.9375 51.859375 
L 25.78125 51.859375 
L 25.78125 45.015625 
L 16.9375 45.015625 
L 16.9375 14.703125 
Q 16.9375 10.9375 17.40625 9.859375 
Q 17.875 8.796875 18.921875 8.15625 
Q 19.96875 7.515625 21.921875 7.515625 
Q 23.390625 7.515625 25.78125 7.859375 
z
" id="ArialMT-116"/>
      </defs>
      <g style="fill:#262626;" transform="translate(111.491477 403.247187)scale(0.22 -0.22)">
       <use xlink:href="#ArialMT-70"/>
       <use x="61.083984" xlink:href="#ArialMT-105"/>
       <use x="83.300781" xlink:href="#ArialMT-114"/>
       <use x="116.601562" xlink:href="#ArialMT-115"/>
       <use x="166.601562" xlink:href="#ArialMT-116"/>
      </g>
     </g>
    </g>
    <g id="xtick_2">
     <g id="line2d_2">
      <path clip-path="url(#pe66305043d)" d="M 295.2 378 
L 295.2 51.84 
" style="fill:none;stroke:#ffffff;stroke-linecap:round;"/>
     </g>
     <g id="text_2">
      <!-- Second -->
      <defs>
       <path d="M 4.5 23 
L 13.421875 23.78125 
Q 14.0625 18.40625 16.375 14.96875 
Q 18.703125 11.53125 23.578125 9.40625 
Q 28.46875 7.28125 34.578125 7.28125 
Q 39.984375 7.28125 44.140625 8.890625 
Q 48.296875 10.5 50.3125 13.296875 
Q 52.34375 16.109375 52.34375 19.4375 
Q 52.34375 22.796875 50.390625 25.3125 
Q 48.4375 27.828125 43.953125 29.546875 
Q 41.0625 30.671875 31.203125 33.03125 
Q 21.34375 35.40625 17.390625 37.5 
Q 12.25 40.1875 9.734375 44.15625 
Q 7.234375 48.140625 7.234375 53.078125 
Q 7.234375 58.5 10.296875 63.203125 
Q 13.375 67.921875 19.28125 70.359375 
Q 25.203125 72.796875 32.421875 72.796875 
Q 40.375 72.796875 46.453125 70.234375 
Q 52.546875 67.671875 55.8125 62.6875 
Q 59.078125 57.71875 59.328125 51.421875 
L 50.25 50.734375 
Q 49.515625 57.515625 45.28125 60.984375 
Q 41.0625 64.453125 32.8125 64.453125 
Q 24.21875 64.453125 20.28125 61.296875 
Q 16.359375 58.15625 16.359375 53.71875 
Q 16.359375 49.859375 19.140625 47.359375 
Q 21.875 44.875 33.421875 42.265625 
Q 44.96875 39.65625 49.265625 37.703125 
Q 55.515625 34.8125 58.484375 30.390625 
Q 61.46875 25.984375 61.46875 20.21875 
Q 61.46875 14.5 58.203125 9.4375 
Q 54.9375 4.390625 48.796875 1.578125 
Q 42.671875 -1.21875 35.015625 -1.21875 
Q 25.296875 -1.21875 18.71875 1.609375 
Q 12.15625 4.4375 8.421875 10.125 
Q 4.6875 15.828125 4.5 23 
z
" id="ArialMT-83"/>
       <path d="M 42.09375 16.703125 
L 51.171875 15.578125 
Q 49.03125 7.625 43.21875 3.21875 
Q 37.40625 -1.171875 28.375 -1.171875 
Q 17 -1.171875 10.328125 5.828125 
Q 3.65625 12.84375 3.65625 25.484375 
Q 3.65625 38.578125 10.390625 45.796875 
Q 17.140625 53.03125 27.875 53.03125 
Q 38.28125 53.03125 44.875 45.953125 
Q 51.46875 38.875 51.46875 26.03125 
Q 51.46875 25.25 51.421875 23.6875 
L 12.75 23.6875 
Q 13.234375 15.140625 17.578125 10.59375 
Q 21.921875 6.0625 28.421875 6.0625 
Q 33.25 6.0625 36.671875 8.59375 
Q 40.09375 11.140625 42.09375 16.703125 
z
M 13.234375 30.90625 
L 42.1875 30.90625 
Q 41.609375 37.453125 38.875 40.71875 
Q 34.671875 45.796875 27.984375 45.796875 
Q 21.921875 45.796875 17.796875 41.75 
Q 13.671875 37.703125 13.234375 30.90625 
z
" id="ArialMT-101"/>
       <path d="M 40.4375 19 
L 49.078125 17.875 
Q 47.65625 8.9375 41.8125 3.875 
Q 35.984375 -1.171875 27.484375 -1.171875 
Q 16.84375 -1.171875 10.375 5.78125 
Q 3.90625 12.75 3.90625 25.734375 
Q 3.90625 34.125 6.6875 40.421875 
Q 9.46875 46.734375 15.15625 49.875 
Q 20.84375 53.03125 27.546875 53.03125 
Q 35.984375 53.03125 41.359375 48.75 
Q 46.734375 44.484375 48.25 36.625 
L 39.703125 35.296875 
Q 38.484375 40.53125 35.375 43.15625 
Q 32.28125 45.796875 27.875 45.796875 
Q 21.234375 45.796875 17.078125 41.03125 
Q 12.9375 36.28125 12.9375 25.984375 
Q 12.9375 15.53125 16.9375 10.796875 
Q 20.953125 6.0625 27.390625 6.0625 
Q 32.5625 6.0625 36.03125 9.234375 
Q 39.5 12.40625 40.4375 19 
z
" id="ArialMT-99"/>
       <path d="M 3.328125 25.921875 
Q 3.328125 40.328125 11.328125 47.265625 
Q 18.015625 53.03125 27.640625 53.03125 
Q 38.328125 53.03125 45.109375 46.015625 
Q 51.90625 39.015625 51.90625 26.65625 
Q 51.90625 16.65625 48.90625 10.90625 
Q 45.90625 5.171875 40.15625 2 
Q 34.421875 -1.171875 27.640625 -1.171875 
Q 16.75 -1.171875 10.03125 5.8125 
Q 3.328125 12.796875 3.328125 25.921875 
z
M 12.359375 25.921875 
Q 12.359375 15.96875 16.703125 11.015625 
Q 21.046875 6.0625 27.640625 6.0625 
Q 34.1875 6.0625 38.53125 11.03125 
Q 42.875 16.015625 42.875 26.21875 
Q 42.875 35.84375 38.5 40.796875 
Q 34.125 45.75 27.640625 45.75 
Q 21.046875 45.75 16.703125 40.8125 
Q 12.359375 35.890625 12.359375 25.921875 
z
" id="ArialMT-111"/>
       <path d="M 6.59375 0 
L 6.59375 51.859375 
L 14.5 51.859375 
L 14.5 44.484375 
Q 20.21875 53.03125 31 53.03125 
Q 35.6875 53.03125 39.625 51.34375 
Q 43.5625 49.65625 45.515625 46.921875 
Q 47.46875 44.1875 48.25 40.4375 
Q 48.734375 37.984375 48.734375 31.890625 
L 48.734375 0 
L 39.9375 0 
L 39.9375 31.546875 
Q 39.9375 36.921875 38.90625 39.578125 
Q 37.890625 42.234375 35.28125 43.8125 
Q 32.671875 45.40625 29.15625 45.40625 
Q 23.53125 45.40625 19.453125 41.84375 
Q 15.375 38.28125 15.375 28.328125 
L 15.375 0 
z
" id="ArialMT-110"/>
       <path d="M 40.234375 0 
L 40.234375 6.546875 
Q 35.296875 -1.171875 25.734375 -1.171875 
Q 19.53125 -1.171875 14.328125 2.25 
Q 9.125 5.671875 6.265625 11.796875 
Q 3.421875 17.921875 3.421875 25.875 
Q 3.421875 33.640625 6 39.96875 
Q 8.59375 46.296875 13.765625 49.65625 
Q 18.953125 53.03125 25.34375 53.03125 
Q 30.03125 53.03125 33.6875 51.046875 
Q 37.359375 49.078125 39.65625 45.90625 
L 39.65625 71.578125 
L 48.390625 71.578125 
L 48.390625 0 
z
M 12.453125 25.875 
Q 12.453125 15.921875 16.640625 10.984375 
Q 20.84375 6.0625 26.5625 6.0625 
Q 32.328125 6.0625 36.34375 10.765625 
Q 40.375 15.484375 40.375 25.140625 
Q 40.375 35.796875 36.265625 40.765625 
Q 32.171875 45.75 26.171875 45.75 
Q 20.3125 45.75 16.375 40.96875 
Q 12.453125 36.1875 12.453125 25.875 
z
" id="ArialMT-100"/>
      </defs>
      <g style="fill:#262626;" transform="translate(257.894531 403.247187)scale(0.22 -0.22)">
       <use xlink:href="#ArialMT-83"/>
       <use x="66.699219" xlink:href="#ArialMT-101"/>
       <use x="122.314453" xlink:href="#ArialMT-99"/>
       <use x="172.314453" xlink:href="#ArialMT-111"/>
       <use x="227.929688" xlink:href="#ArialMT-110"/>
       <use x="283.544922" xlink:href="#ArialMT-100"/>
      </g>
     </g>
    </g>
    <g id="xtick_3">
     <g id="line2d_3">
      <path clip-path="url(#pe66305043d)" d="M 457.527273 378 
L 457.527273 51.84 
" style="fill:none;stroke:#ffffff;stroke-linecap:round;"/>
     </g>
     <g id="text_3">
      <!-- Third -->
      <defs>
       <path d="M 25.921875 0 
L 25.921875 63.140625 
L 2.34375 63.140625 
L 2.34375 71.578125 
L 59.078125 71.578125 
L 59.078125 63.140625 
L 35.40625 63.140625 
L 35.40625 0 
z
" id="ArialMT-84"/>
       <path d="M 6.59375 0 
L 6.59375 71.578125 
L 15.375 71.578125 
L 15.375 45.90625 
Q 21.53125 53.03125 30.90625 53.03125 
Q 36.671875 53.03125 40.921875 50.75 
Q 45.171875 48.484375 47 44.484375 
Q 48.828125 40.484375 48.828125 32.859375 
L 48.828125 0 
L 40.046875 0 
L 40.046875 32.859375 
Q 40.046875 39.453125 37.1875 42.453125 
Q 34.328125 45.453125 29.109375 45.453125 
Q 25.203125 45.453125 21.75 43.421875 
Q 18.3125 41.40625 16.84375 37.9375 
Q 15.375 34.46875 15.375 28.375 
L 15.375 0 
z
" id="ArialMT-104"/>
      </defs>
      <g style="fill:#262626;" transform="translate(432.467898 403.247187)scale(0.22 -0.22)">
       <use xlink:href="#ArialMT-84"/>
       <use x="61.083984" xlink:href="#ArialMT-104"/>
       <use x="116.699219" xlink:href="#ArialMT-105"/>
       <use x="138.916016" xlink:href="#ArialMT-114"/>
       <use x="172.216797" xlink:href="#ArialMT-100"/>
      </g>
     </g>
    </g>
    <g id="text_4">
     <!-- RNN Layers -->
     <defs>
      <path d="M 7.859375 0 
L 7.859375 71.578125 
L 39.59375 71.578125 
Q 49.171875 71.578125 54.140625 69.640625 
Q 59.125 67.71875 62.109375 62.828125 
Q 65.09375 57.953125 65.09375 52.046875 
Q 65.09375 44.4375 60.15625 39.203125 
Q 55.21875 33.984375 44.921875 32.5625 
Q 48.6875 30.765625 50.640625 29 
Q 54.78125 25.203125 58.5 19.484375 
L 70.953125 0 
L 59.03125 0 
L 49.5625 14.890625 
Q 45.40625 21.34375 42.71875 24.75 
Q 40.046875 28.171875 37.921875 29.53125 
Q 35.796875 30.90625 33.59375 31.453125 
Q 31.984375 31.78125 28.328125 31.78125 
L 17.328125 31.78125 
L 17.328125 0 
z
M 17.328125 39.984375 
L 37.703125 39.984375 
Q 44.1875 39.984375 47.84375 41.328125 
Q 51.515625 42.671875 53.421875 45.625 
Q 55.328125 48.578125 55.328125 52.046875 
Q 55.328125 57.125 51.640625 60.390625 
Q 47.953125 63.671875 39.984375 63.671875 
L 17.328125 63.671875 
z
" id="ArialMT-82"/>
      <path d="M 7.625 0 
L 7.625 71.578125 
L 17.328125 71.578125 
L 54.9375 15.375 
L 54.9375 71.578125 
L 64.015625 71.578125 
L 64.015625 0 
L 54.296875 0 
L 16.703125 56.25 
L 16.703125 0 
z
" id="ArialMT-78"/>
      <path id="ArialMT-32"/>
      <path d="M 7.328125 0 
L 7.328125 71.578125 
L 16.796875 71.578125 
L 16.796875 8.453125 
L 52.046875 8.453125 
L 52.046875 0 
z
" id="ArialMT-76"/>
      <path d="M 40.4375 6.390625 
Q 35.546875 2.25 31.03125 0.53125 
Q 26.515625 -1.171875 21.34375 -1.171875 
Q 12.796875 -1.171875 8.203125 3 
Q 3.609375 7.171875 3.609375 13.671875 
Q 3.609375 17.484375 5.34375 20.625 
Q 7.078125 23.78125 9.890625 25.6875 
Q 12.703125 27.59375 16.21875 28.5625 
Q 18.796875 29.25 24.03125 29.890625 
Q 34.671875 31.15625 39.703125 32.90625 
Q 39.75 34.71875 39.75 35.203125 
Q 39.75 40.578125 37.25 42.78125 
Q 33.890625 45.75 27.25 45.75 
Q 21.046875 45.75 18.09375 43.578125 
Q 15.140625 41.40625 13.71875 35.890625 
L 5.125 37.0625 
Q 6.296875 42.578125 8.984375 45.96875 
Q 11.671875 49.359375 16.75 51.1875 
Q 21.828125 53.03125 28.515625 53.03125 
Q 35.15625 53.03125 39.296875 51.46875 
Q 43.453125 49.90625 45.40625 47.53125 
Q 47.359375 45.171875 48.140625 41.546875 
Q 48.578125 39.3125 48.578125 33.453125 
L 48.578125 21.734375 
Q 48.578125 9.46875 49.140625 6.21875 
Q 49.703125 2.984375 51.375 0 
L 42.1875 0 
Q 40.828125 2.734375 40.4375 6.390625 
z
M 39.703125 26.03125 
Q 34.90625 24.078125 25.34375 22.703125 
Q 19.921875 21.921875 17.671875 20.9375 
Q 15.4375 19.96875 14.203125 18.09375 
Q 12.984375 16.21875 12.984375 13.921875 
Q 12.984375 10.40625 15.640625 8.0625 
Q 18.3125 5.71875 23.4375 5.71875 
Q 28.515625 5.71875 32.46875 7.9375 
Q 36.421875 10.15625 38.28125 14.015625 
Q 39.703125 17 39.703125 22.796875 
z
" id="ArialMT-97"/>
      <path d="M 6.203125 -19.96875 
L 5.21875 -11.71875 
Q 8.109375 -12.5 10.25 -12.5 
Q 13.1875 -12.5 14.9375 -11.515625 
Q 16.703125 -10.546875 17.828125 -8.796875 
Q 18.65625 -7.46875 20.515625 -2.25 
Q 20.75 -1.515625 21.296875 -0.09375 
L 1.609375 51.859375 
L 11.078125 51.859375 
L 21.875 21.828125 
Q 23.96875 16.109375 25.640625 9.8125 
Q 27.15625 15.875 29.25 21.625 
L 40.328125 51.859375 
L 49.125 51.859375 
L 29.390625 -0.875 
Q 26.21875 -9.421875 24.46875 -12.640625 
Q 22.125 -17 19.09375 -19.015625 
Q 16.0625 -21.046875 11.859375 -21.046875 
Q 9.328125 -21.046875 6.203125 -19.96875 
z
" id="ArialMT-121"/>
     </defs>
     <g style="fill:#262626;" transform="translate(229.8525 428.798437)scale(0.24 -0.24)">
      <use xlink:href="#ArialMT-82"/>
      <use x="72.216797" xlink:href="#ArialMT-78"/>
      <use x="144.433594" xlink:href="#ArialMT-78"/>
      <use x="216.650391" xlink:href="#ArialMT-32"/>
      <use x="244.433594" xlink:href="#ArialMT-76"/>
      <use x="300.048828" xlink:href="#ArialMT-97"/>
      <use x="355.664062" xlink:href="#ArialMT-121"/>
      <use x="405.664062" xlink:href="#ArialMT-101"/>
      <use x="461.279297" xlink:href="#ArialMT-114"/>
      <use x="494.580078" xlink:href="#ArialMT-115"/>
     </g>
    </g>
   </g>
   <g id="matplotlib.axis_2">
    <g id="ytick_1">
     <g id="line2d_4">
      <path clip-path="url(#pe66305043d)" d="M 72 363.174545 
L 518.4 363.174545 
" style="fill:none;stroke:#ffffff;stroke-linecap:round;"/>
     </g>
     <g id="text_5">
      <!-- 0.1 -->
      <defs>
       <path d="M 4.15625 35.296875 
Q 4.15625 48 6.765625 55.734375 
Q 9.375 63.484375 14.515625 67.671875 
Q 19.671875 71.875 27.484375 71.875 
Q 33.25 71.875 37.59375 69.546875 
Q 41.9375 67.234375 44.765625 62.859375 
Q 47.609375 58.5 49.21875 52.21875 
Q 50.828125 45.953125 50.828125 35.296875 
Q 50.828125 22.703125 48.234375 14.96875 
Q 45.65625 7.234375 40.5 3 
Q 35.359375 -1.21875 27.484375 -1.21875 
Q 17.140625 -1.21875 11.234375 6.203125 
Q 4.15625 15.140625 4.15625 35.296875 
z
M 13.1875 35.296875 
Q 13.1875 17.671875 17.3125 11.828125 
Q 21.4375 6 27.484375 6 
Q 33.546875 6 37.671875 11.859375 
Q 41.796875 17.71875 41.796875 35.296875 
Q 41.796875 52.984375 37.671875 58.78125 
Q 33.546875 64.59375 27.390625 64.59375 
Q 21.34375 64.59375 17.71875 59.46875 
Q 13.1875 52.9375 13.1875 35.296875 
z
" id="ArialMT-48"/>
       <path d="M 9.078125 0 
L 9.078125 10.015625 
L 19.09375 10.015625 
L 19.09375 0 
z
" id="ArialMT-46"/>
       <path d="M 37.25 0 
L 28.46875 0 
L 28.46875 56 
Q 25.296875 52.984375 20.140625 49.953125 
Q 14.984375 46.921875 10.890625 45.40625 
L 10.890625 53.90625 
Q 18.265625 57.375 23.78125 62.296875 
Q 29.296875 67.234375 31.59375 71.875 
L 37.25 71.875 
z
" id="ArialMT-49"/>
      </defs>
      <g style="fill:#262626;" transform="translate(31.92 371.048139)scale(0.22 -0.22)">
       <use xlink:href="#ArialMT-48"/>
       <use x="55.615234" xlink:href="#ArialMT-46"/>
       <use x="83.398438" xlink:href="#ArialMT-49"/>
      </g>
     </g>
    </g>
    <g id="ytick_2">
     <g id="line2d_5">
      <path clip-path="url(#pe66305043d)" d="M 72 288.972131 
L 518.4 288.972131 
" style="fill:none;stroke:#ffffff;stroke-linecap:round;"/>
     </g>
     <g id="text_6">
      <!-- 0.2 -->
      <defs>
       <path d="M 50.34375 8.453125 
L 50.34375 0 
L 3.03125 0 
Q 2.9375 3.171875 4.046875 6.109375 
Q 5.859375 10.9375 9.828125 15.625 
Q 13.8125 20.3125 21.34375 26.46875 
Q 33.015625 36.03125 37.109375 41.625 
Q 41.21875 47.21875 41.21875 52.203125 
Q 41.21875 57.421875 37.46875 61 
Q 33.734375 64.59375 27.734375 64.59375 
Q 21.390625 64.59375 17.578125 60.78125 
Q 13.765625 56.984375 13.71875 50.25 
L 4.6875 51.171875 
Q 5.609375 61.28125 11.65625 66.578125 
Q 17.71875 71.875 27.9375 71.875 
Q 38.234375 71.875 44.234375 66.15625 
Q 50.25 60.453125 50.25 52 
Q 50.25 47.703125 48.484375 43.546875 
Q 46.734375 39.40625 42.65625 34.8125 
Q 38.578125 30.21875 29.109375 22.21875 
Q 21.1875 15.578125 18.9375 13.203125 
Q 16.703125 10.84375 15.234375 8.453125 
z
" id="ArialMT-50"/>
      </defs>
      <g style="fill:#262626;" transform="translate(31.92 296.845725)scale(0.22 -0.22)">
       <use xlink:href="#ArialMT-48"/>
       <use x="55.615234" xlink:href="#ArialMT-46"/>
       <use x="83.398438" xlink:href="#ArialMT-50"/>
      </g>
     </g>
    </g>
    <g id="ytick_3">
     <g id="line2d_6">
      <path clip-path="url(#pe66305043d)" d="M 72 214.769717 
L 518.4 214.769717 
" style="fill:none;stroke:#ffffff;stroke-linecap:round;"/>
     </g>
     <g id="text_7">
      <!-- 0.3 -->
      <defs>
       <path d="M 4.203125 18.890625 
L 12.984375 20.0625 
Q 14.5 12.59375 18.140625 9.296875 
Q 21.78125 6 27 6 
Q 33.203125 6 37.46875 10.296875 
Q 41.75 14.59375 41.75 20.953125 
Q 41.75 27 37.796875 30.921875 
Q 33.84375 34.859375 27.734375 34.859375 
Q 25.25 34.859375 21.53125 33.890625 
L 22.515625 41.609375 
Q 23.390625 41.5 23.921875 41.5 
Q 29.546875 41.5 34.03125 44.421875 
Q 38.53125 47.359375 38.53125 53.46875 
Q 38.53125 58.296875 35.25 61.46875 
Q 31.984375 64.65625 26.8125 64.65625 
Q 21.6875 64.65625 18.265625 61.421875 
Q 14.84375 58.203125 13.875 51.765625 
L 5.078125 53.328125 
Q 6.6875 62.15625 12.390625 67.015625 
Q 18.109375 71.875 26.609375 71.875 
Q 32.46875 71.875 37.390625 69.359375 
Q 42.328125 66.84375 44.9375 62.5 
Q 47.5625 58.15625 47.5625 53.265625 
Q 47.5625 48.640625 45.0625 44.828125 
Q 42.578125 41.015625 37.703125 38.765625 
Q 44.046875 37.3125 47.5625 32.6875 
Q 51.078125 28.078125 51.078125 21.140625 
Q 51.078125 11.765625 44.234375 5.25 
Q 37.40625 -1.265625 26.953125 -1.265625 
Q 17.53125 -1.265625 11.296875 4.34375 
Q 5.078125 9.96875 4.203125 18.890625 
z
" id="ArialMT-51"/>
      </defs>
      <g style="fill:#262626;" transform="translate(31.92 222.64331)scale(0.22 -0.22)">
       <use xlink:href="#ArialMT-48"/>
       <use x="55.615234" xlink:href="#ArialMT-46"/>
       <use x="83.398438" xlink:href="#ArialMT-51"/>
      </g>
     </g>
    </g>
    <g id="ytick_4">
     <g id="line2d_7">
      <path clip-path="url(#pe66305043d)" d="M 72 140.567302 
L 518.4 140.567302 
" style="fill:none;stroke:#ffffff;stroke-linecap:round;"/>
     </g>
     <g id="text_8">
      <!-- 0.4 -->
      <defs>
       <path d="M 32.328125 0 
L 32.328125 17.140625 
L 1.265625 17.140625 
L 1.265625 25.203125 
L 33.9375 71.578125 
L 41.109375 71.578125 
L 41.109375 25.203125 
L 50.78125 25.203125 
L 50.78125 17.140625 
L 41.109375 17.140625 
L 41.109375 0 
z
M 32.328125 25.203125 
L 32.328125 57.46875 
L 9.90625 25.203125 
z
" id="ArialMT-52"/>
      </defs>
      <g style="fill:#262626;" transform="translate(31.92 148.440896)scale(0.22 -0.22)">
       <use xlink:href="#ArialMT-48"/>
       <use x="55.615234" xlink:href="#ArialMT-46"/>
       <use x="83.398438" xlink:href="#ArialMT-52"/>
      </g>
     </g>
    </g>
    <g id="ytick_5">
     <g id="line2d_8">
      <path clip-path="url(#pe66305043d)" d="M 72 66.364888 
L 518.4 66.364888 
" style="fill:none;stroke:#ffffff;stroke-linecap:round;"/>
     </g>
     <g id="text_9">
      <!-- 0.5 -->
      <defs>
       <path d="M 4.15625 18.75 
L 13.375 19.53125 
Q 14.40625 12.796875 18.140625 9.390625 
Q 21.875 6 27.15625 6 
Q 33.5 6 37.890625 10.78125 
Q 42.28125 15.578125 42.28125 23.484375 
Q 42.28125 31 38.0625 35.34375 
Q 33.84375 39.703125 27 39.703125 
Q 22.75 39.703125 19.328125 37.765625 
Q 15.921875 35.84375 13.96875 32.765625 
L 5.71875 33.84375 
L 12.640625 70.609375 
L 48.25 70.609375 
L 48.25 62.203125 
L 19.671875 62.203125 
L 15.828125 42.96875 
Q 22.265625 47.46875 29.34375 47.46875 
Q 38.71875 47.46875 45.15625 40.96875 
Q 51.609375 34.46875 51.609375 24.265625 
Q 51.609375 14.546875 45.953125 7.46875 
Q 39.0625 -1.21875 27.15625 -1.21875 
Q 17.390625 -1.21875 11.203125 4.25 
Q 5.03125 9.71875 4.15625 18.75 
z
" id="ArialMT-53"/>
      </defs>
      <g style="fill:#262626;" transform="translate(31.92 74.238481)scale(0.22 -0.22)">
       <use xlink:href="#ArialMT-48"/>
       <use x="55.615234" xlink:href="#ArialMT-46"/>
       <use x="83.398438" xlink:href="#ArialMT-53"/>
      </g>
     </g>
    </g>
    <g id="text_10">
     <!-- STD -->
     <defs>
      <path d="M 7.71875 0 
L 7.71875 71.578125 
L 32.375 71.578125 
Q 40.71875 71.578125 45.125 70.5625 
Q 51.265625 69.140625 55.609375 65.4375 
Q 61.28125 60.640625 64.078125 53.1875 
Q 66.890625 45.75 66.890625 36.1875 
Q 66.890625 28.03125 64.984375 21.734375 
Q 63.09375 15.4375 60.109375 11.296875 
Q 57.125 7.171875 53.578125 4.796875 
Q 50.046875 2.4375 45.046875 1.21875 
Q 40.046875 0 33.546875 0 
z
M 17.1875 8.453125 
L 32.46875 8.453125 
Q 39.546875 8.453125 43.578125 9.765625 
Q 47.609375 11.078125 50 13.484375 
Q 53.375 16.84375 55.25 22.53125 
Q 57.125 28.21875 57.125 36.328125 
Q 57.125 47.5625 53.4375 53.59375 
Q 49.75 59.625 44.484375 61.671875 
Q 40.671875 63.140625 32.234375 63.140625 
L 17.1875 63.140625 
z
" id="ArialMT-68"/>
     </defs>
     <g style="fill:#262626;" transform="translate(23.15 238.92)rotate(-90)scale(0.24 -0.24)">
      <use xlink:href="#ArialMT-83"/>
      <use x="66.699219" xlink:href="#ArialMT-84"/>
      <use x="127.783203" xlink:href="#ArialMT-68"/>
     </g>
    </g>
   </g>
   <g id="PolyCollection_1">
    <defs>
     <path d="M 149.49649 -75.664974 
L 116.248964 -75.664974 
L 114.782381 -78.590929 
L 113.292386 -81.516884 
L 111.787147 -84.442839 
L 110.274856 -87.368795 
L 108.763817 -90.29475 
L 107.262581 -93.220705 
L 105.780078 -96.14666 
L 104.325734 -99.072616 
L 102.909534 -101.998571 
L 101.542012 -104.924526 
L 100.234142 -107.850482 
L 98.997125 -110.776437 
L 97.842073 -113.702392 
L 96.779599 -116.628347 
L 95.819346 -119.554303 
L 94.969481 -122.480258 
L 94.236188 -125.406213 
L 93.623222 -128.332168 
L 93.131546 -131.258124 
L 92.759098 -134.184079 
L 92.50072 -137.110034 
L 92.348269 -140.03599 
L 92.290909 -142.961945 
L 92.315587 -145.8879 
L 92.407663 -148.813855 
L 92.551661 -151.739811 
L 92.732093 -154.665766 
L 92.934296 -157.591721 
L 93.145222 -160.517676 
L 93.354129 -163.443632 
L 93.553108 -166.369587 
L 93.737414 -169.295542 
L 93.905577 -172.221498 
L 94.059283 -175.147453 
L 94.203038 -178.073408 
L 94.343655 -180.999363 
L 94.489606 -183.925319 
L 94.650288 -186.851274 
L 94.835281 -189.777229 
L 95.053641 -192.703184 
L 95.313279 -195.62914 
L 95.620472 -198.555095 
L 95.979511 -201.48105 
L 96.392504 -204.407005 
L 96.85932 -207.332961 
L 97.377653 -210.258916 
L 97.943175 -213.184871 
L 98.549762 -216.110827 
L 99.189747 -219.036782 
L 99.854189 -221.962737 
L 100.533142 -224.888692 
L 101.215901 -227.814648 
L 101.891243 -230.740603 
L 102.547642 -233.666558 
L 103.173473 -236.592513 
L 103.757207 -239.518469 
L 104.287606 -242.444424 
L 104.753904 -245.370379 
L 105.146001 -248.296335 
L 105.454646 -251.22229 
L 105.671631 -254.148245 
L 105.789983 -257.0742 
L 105.804164 -260.000156 
L 105.710273 -262.926111 
L 105.506263 -265.852066 
L 105.19215 -268.778021 
L 104.770231 -271.703977 
L 104.24528 -274.629932 
L 103.624723 -277.555887 
L 102.918757 -280.481843 
L 102.140401 -283.407798 
L 101.305462 -286.333753 
L 100.432382 -289.259708 
L 99.541967 -292.185664 
L 98.656989 -295.111619 
L 97.801666 -298.037574 
L 97.001035 -300.963529 
L 96.280249 -303.889485 
L 95.663817 -306.81544 
L 95.174841 -309.741395 
L 94.834276 -312.667351 
L 94.660247 -315.593306 
L 94.667471 -318.519261 
L 94.866787 -321.445216 
L 95.264827 -324.371172 
L 95.863826 -327.297127 
L 96.661578 -330.223082 
L 97.651529 -333.149037 
L 98.822997 -336.074993 
L 100.161512 -339.000948 
L 101.649251 -341.926903 
L 103.265559 -344.852859 
L 104.987541 -347.778814 
L 106.790697 -350.704769 
L 108.6496 -353.630724 
L 110.538574 -356.55668 
L 112.432373 -359.482635 
L 114.306825 -362.40859 
L 116.139429 -365.334545 
L 149.606026 -365.334545 
L 149.606026 -365.334545 
L 151.438629 -362.40859 
L 153.313082 -359.482635 
L 155.20688 -356.55668 
L 157.095854 -353.630724 
L 158.954757 -350.704769 
L 160.757914 -347.778814 
L 162.479896 -344.852859 
L 164.096204 -341.926903 
L 165.583943 -339.000948 
L 166.922458 -336.074993 
L 168.093926 -333.149037 
L 169.083876 -330.223082 
L 169.881628 -327.297127 
L 170.480627 -324.371172 
L 170.878667 -321.445216 
L 171.077983 -318.519261 
L 171.085207 -315.593306 
L 170.911178 -312.667351 
L 170.570613 -309.741395 
L 170.081638 -306.81544 
L 169.465206 -303.889485 
L 168.74442 -300.963529 
L 167.943789 -298.037574 
L 167.088465 -295.111619 
L 166.203487 -292.185664 
L 165.313072 -289.259708 
L 164.439992 -286.333753 
L 163.605053 -283.407798 
L 162.826698 -280.481843 
L 162.120731 -277.555887 
L 161.500174 -274.629932 
L 160.975224 -271.703977 
L 160.553304 -268.778021 
L 160.239191 -265.852066 
L 160.035181 -262.926111 
L 159.941291 -260.000156 
L 159.955472 -257.0742 
L 160.073824 -254.148245 
L 160.290809 -251.22229 
L 160.599454 -248.296335 
L 160.99155 -245.370379 
L 161.457849 -242.444424 
L 161.988247 -239.518469 
L 162.571982 -236.592513 
L 163.197812 -233.666558 
L 163.854211 -230.740603 
L 164.529554 -227.814648 
L 165.212313 -224.888692 
L 165.891265 -221.962737 
L 166.555707 -219.036782 
L 167.195692 -216.110827 
L 167.80228 -213.184871 
L 168.367802 -210.258916 
L 168.886134 -207.332961 
L 169.35295 -204.407005 
L 169.765943 -201.48105 
L 170.124982 -198.555095 
L 170.432175 -195.62914 
L 170.691814 -192.703184 
L 170.910174 -189.777229 
L 171.095167 -186.851274 
L 171.255849 -183.925319 
L 171.401799 -180.999363 
L 171.542417 -178.073408 
L 171.686172 -175.147453 
L 171.839878 -172.221498 
L 172.008041 -169.295542 
L 172.192347 -166.369587 
L 172.391325 -163.443632 
L 172.600232 -160.517676 
L 172.811159 -157.591721 
L 173.013361 -154.665766 
L 173.193794 -151.739811 
L 173.337792 -148.813855 
L 173.429868 -145.8879 
L 173.454545 -142.961945 
L 173.397185 -140.03599 
L 173.244734 -137.110034 
L 172.986357 -134.184079 
L 172.613908 -131.258124 
L 172.122232 -128.332168 
L 171.509267 -125.406213 
L 170.775974 -122.480258 
L 169.926108 -119.554303 
L 168.965856 -116.628347 
L 167.903382 -113.702392 
L 166.748329 -110.776437 
L 165.511313 -107.850482 
L 164.203443 -104.924526 
L 162.835921 -101.998571 
L 161.419721 -99.072616 
L 159.965376 -96.14666 
L 158.482874 -93.220705 
L 156.981638 -90.29475 
L 155.470599 -87.368795 
L 153.958307 -84.442839 
L 152.453069 -81.516884 
L 150.963074 -78.590929 
L 149.49649 -75.664974 
z
" id="mf406002a82" style="stroke:#ffffff;stroke-opacity:0.3;"/>
    </defs>
    <g clip-path="url(#pe66305043d)">
     <use style="fill:#4c72b0;fill-opacity:0.3;stroke:#ffffff;stroke-opacity:0.3;" x="0" xlink:href="#mf406002a82" y="432"/>
    </g>
   </g>
   <g id="PolyCollection_2">
    <defs>
     <path d="M 318.049336 -69.012039 
L 272.350664 -69.012039 
L 270.797302 -71.98815 
L 269.308168 -74.96426 
L 267.898581 -77.940371 
L 266.581336 -80.916482 
L 265.366427 -83.892592 
L 264.260948 -86.868703 
L 263.269172 -89.844813 
L 262.392808 -92.820924 
L 261.63139 -95.797035 
L 260.982775 -98.773145 
L 260.443693 -101.749256 
L 260.010289 -104.725367 
L 259.678625 -107.701477 
L 259.445075 -110.677588 
L 259.306583 -113.653698 
L 259.260765 -116.629809 
L 259.305841 -119.60592 
L 259.440406 -122.58203 
L 259.663066 -125.558141 
L 259.971971 -128.534252 
L 260.364291 -131.510362 
L 260.835693 -134.486473 
L 261.379853 -137.462584 
L 261.988077 -140.438694 
L 262.649035 -143.414805 
L 263.348678 -146.390915 
L 264.070328 -149.367026 
L 264.794951 -152.343137 
L 265.501619 -155.319247 
L 266.168131 -158.295358 
L 266.771764 -161.271469 
L 267.29013 -164.247579 
L 267.702083 -167.22369 
L 267.988646 -170.1998 
L 268.133898 -173.175911 
L 268.125792 -176.152022 
L 267.95684 -179.128132 
L 267.62465 -182.104243 
L 267.132258 -185.080354 
L 266.488242 -188.056464 
L 265.706606 -191.032575 
L 264.806408 -194.008685 
L 263.811161 -196.984796 
L 262.748013 -199.960907 
L 261.646739 -202.937017 
L 260.53859 -205.913128 
L 259.455066 -208.889239 
L 258.426644 -211.865349 
L 257.481566 -214.84146 
L 256.644714 -217.817571 
L 255.936657 -220.793681 
L 255.372906 -223.769792 
L 254.963419 -226.745902 
L 254.712367 -229.722013 
L 254.618182 -232.698124 
L 254.673847 -235.674234 
L 254.867428 -238.650345 
L 255.182779 -241.626456 
L 255.600393 -244.602566 
L 256.098329 -247.578677 
L 256.653168 -250.554787 
L 257.240948 -253.530898 
L 257.838038 -256.507009 
L 258.421916 -259.483119 
L 258.971826 -262.45923 
L 259.469315 -265.435341 
L 259.898639 -268.411451 
L 260.247052 -271.387562 
L 260.504987 -274.363672 
L 260.666142 -277.339783 
L 260.727497 -280.315894 
L 260.689272 -283.292004 
L 260.554829 -286.268115 
L 260.330544 -289.244226 
L 260.025643 -292.220336 
L 259.652005 -295.196447 
L 259.223927 -298.172558 
L 258.75786 -301.148668 
L 258.272096 -304.124779 
L 257.786416 -307.100889 
L 257.321685 -310.077 
L 256.89941 -313.053111 
L 256.541242 -316.029221 
L 256.268456 -319.005332 
L 256.101391 -321.981443 
L 256.058888 -324.957553 
L 256.157724 -327.933664 
L 256.412075 -330.909774 
L 256.83302 -333.885885 
L 257.428114 -336.861996 
L 258.201048 -339.838106 
L 259.15142 -342.814217 
L 260.274632 -345.790328 
L 261.561923 -348.766438 
L 263.000553 -351.742549 
L 264.574128 -354.718659 
L 266.263065 -357.69477 
L 268.045181 -360.670881 
L 269.896377 -363.646991 
L 320.503623 -363.646991 
L 320.503623 -363.646991 
L 322.354819 -360.670881 
L 324.136935 -357.69477 
L 325.825872 -354.718659 
L 327.399447 -351.742549 
L 328.838077 -348.766438 
L 330.125368 -345.790328 
L 331.24858 -342.814217 
L 332.198952 -339.838106 
L 332.971886 -336.861996 
L 333.56698 -333.885885 
L 333.987925 -330.909774 
L 334.242276 -327.933664 
L 334.341112 -324.957553 
L 334.298609 -321.981443 
L 334.131544 -319.005332 
L 333.858758 -316.029221 
L 333.50059 -313.053111 
L 333.078315 -310.077 
L 332.613584 -307.100889 
L 332.127904 -304.124779 
L 331.64214 -301.148668 
L 331.176073 -298.172558 
L 330.747995 -295.196447 
L 330.374357 -292.220336 
L 330.069456 -289.244226 
L 329.845171 -286.268115 
L 329.710728 -283.292004 
L 329.672503 -280.315894 
L 329.733858 -277.339783 
L 329.895013 -274.363672 
L 330.152948 -271.387562 
L 330.501361 -268.411451 
L 330.930685 -265.435341 
L 331.428174 -262.45923 
L 331.978084 -259.483119 
L 332.561962 -256.507009 
L 333.159052 -253.530898 
L 333.746832 -250.554787 
L 334.301671 -247.578677 
L 334.799607 -244.602566 
L 335.217221 -241.626456 
L 335.532572 -238.650345 
L 335.726153 -235.674234 
L 335.781818 -232.698124 
L 335.687633 -229.722013 
L 335.436581 -226.745902 
L 335.027094 -223.769792 
L 334.463343 -220.793681 
L 333.755286 -217.817571 
L 332.918434 -214.84146 
L 331.973356 -211.865349 
L 330.944934 -208.889239 
L 329.86141 -205.913128 
L 328.753261 -202.937017 
L 327.651987 -199.960907 
L 326.588839 -196.984796 
L 325.593592 -194.008685 
L 324.693394 -191.032575 
L 323.911758 -188.056464 
L 323.267742 -185.080354 
L 322.77535 -182.104243 
L 322.44316 -179.128132 
L 322.274208 -176.152022 
L 322.266102 -173.175911 
L 322.411354 -170.1998 
L 322.697917 -167.22369 
L 323.10987 -164.247579 
L 323.628236 -161.271469 
L 324.231869 -158.295358 
L 324.898381 -155.319247 
L 325.605049 -152.343137 
L 326.329672 -149.367026 
L 327.051322 -146.390915 
L 327.750965 -143.414805 
L 328.411923 -140.438694 
L 329.020147 -137.462584 
L 329.564307 -134.486473 
L 330.035709 -131.510362 
L 330.428029 -128.534252 
L 330.736934 -125.558141 
L 330.959594 -122.58203 
L 331.094159 -119.60592 
L 331.139235 -116.629809 
L 331.093417 -113.653698 
L 330.954925 -110.677588 
L 330.721375 -107.701477 
L 330.389711 -104.725367 
L 329.956307 -101.749256 
L 329.417225 -98.773145 
L 328.76861 -95.797035 
L 328.007192 -92.820924 
L 327.130828 -89.844813 
L 326.139052 -86.868703 
L 325.033573 -83.892592 
L 323.818664 -80.916482 
L 322.501419 -77.940371 
L 321.091832 -74.96426 
L 319.602698 -71.98815 
L 318.049336 -69.012039 
z
" id="m0c3a2ea643" style="stroke:#ffffff;stroke-opacity:0.3;"/>
    </defs>
    <g clip-path="url(#pe66305043d)">
     <use style="fill:#4c72b0;fill-opacity:0.3;stroke:#ffffff;stroke-opacity:0.3;" x="0" xlink:href="#m0c3a2ea643" y="432"/>
    </g>
   </g>
   <g id="PolyCollection_3">
    <defs>
     <path d="M 472.741395 -68.825455 
L 442.313151 -68.825455 
L 440.742907 -71.767583 
L 439.130615 -74.709711 
L 437.491075 -77.651839 
L 435.840155 -80.593968 
L 434.194404 -83.536096 
L 432.570645 -86.478224 
L 430.985544 -89.420353 
L 429.455192 -92.362481 
L 427.99471 -95.304609 
L 426.617902 -98.246737 
L 425.336971 -101.188866 
L 424.162304 -104.130994 
L 423.102342 -107.073122 
L 422.16352 -110.01525 
L 421.350292 -112.957379 
L 420.665202 -115.899507 
L 420.109016 -118.841635 
L 419.680875 -121.783764 
L 419.378469 -124.725892 
L 419.198204 -127.66802 
L 419.135377 -130.610148 
L 419.184313 -133.552277 
L 419.338511 -136.494405 
L 419.590759 -139.436533 
L 419.933257 -142.378662 
L 420.357727 -145.32079 
L 420.855542 -148.262918 
L 421.417856 -151.205046 
L 422.035747 -154.147175 
L 422.700369 -157.089303 
L 423.403096 -160.031431 
L 424.135656 -162.97356 
L 424.890241 -165.915688 
L 425.659576 -168.857816 
L 426.436941 -171.799944 
L 427.216135 -174.742073 
L 427.991396 -177.684201 
L 428.757265 -180.626329 
L 429.508412 -183.568457 
L 430.239455 -186.510586 
L 430.944771 -189.452714 
L 431.618338 -192.394842 
L 432.253622 -195.336971 
L 432.843525 -198.279099 
L 433.380413 -201.221227 
L 433.856225 -204.163355 
L 434.262655 -207.105484 
L 434.591407 -210.047612 
L 434.8345 -212.98974 
L 434.984596 -215.931869 
L 435.035338 -218.873997 
L 434.981663 -221.816125 
L 434.820073 -224.758253 
L 434.548838 -227.700382 
L 434.168135 -230.64251 
L 433.680102 -233.584638 
L 433.088819 -236.526767 
L 432.400227 -239.468895 
L 431.621995 -242.411023 
L 430.763361 -245.353151 
L 429.834946 -248.29528 
L 428.848587 -251.237408 
L 427.817165 -254.179536 
L 426.754454 -257.121664 
L 425.674984 -260.063793 
L 424.593903 -263.005921 
L 423.526831 -265.948049 
L 422.489688 -268.890178 
L 421.498489 -271.832306 
L 420.569092 -274.774434 
L 419.716899 -277.716562 
L 418.956527 -280.658691 
L 418.301452 -283.600819 
L 417.763663 -286.542947 
L 417.353347 -289.485076 
L 417.078638 -292.427204 
L 416.945455 -295.369332 
L 416.957437 -298.31146 
L 417.116001 -301.253589 
L 417.420495 -304.195717 
L 417.868433 -307.137845 
L 418.455801 -310.079974 
L 419.177361 -313.022102 
L 420.026956 -315.96423 
L 420.997752 -318.906358 
L 422.082411 -321.848487 
L 423.273165 -324.790615 
L 424.56181 -327.732743 
L 425.93962 -330.674871 
L 427.397211 -333.617 
L 428.924393 -336.559128 
L 430.510037 -339.501256 
L 432.141996 -342.443385 
L 433.807115 -345.385513 
L 435.49133 -348.327641 
L 437.179875 -351.269769 
L 438.857584 -354.211898 
L 440.509268 -357.154026 
L 442.120145 -360.096154 
L 472.9344 -360.096154 
L 472.9344 -360.096154 
L 474.545277 -357.154026 
L 476.196962 -354.211898 
L 477.87467 -351.269769 
L 479.563215 -348.327641 
L 481.24743 -345.385513 
L 482.912549 -342.443385 
L 484.544509 -339.501256 
L 486.130152 -336.559128 
L 487.657334 -333.617 
L 489.114926 -330.674871 
L 490.492736 -327.732743 
L 491.781381 -324.790615 
L 492.972134 -321.848487 
L 494.056793 -318.906358 
L 495.02759 -315.96423 
L 495.877185 -313.022102 
L 496.598745 -310.079974 
L 497.186112 -307.137845 
L 497.634051 -304.195717 
L 497.938544 -301.253589 
L 498.097109 -298.31146 
L 498.109091 -295.369332 
L 497.975907 -292.427204 
L 497.701199 -289.485076 
L 497.290882 -286.542947 
L 496.753093 -283.600819 
L 496.098018 -280.658691 
L 495.337646 -277.716562 
L 494.485454 -274.774434 
L 493.556057 -271.832306 
L 492.564858 -268.890178 
L 491.527715 -265.948049 
L 490.460643 -263.005921 
L 489.379562 -260.063793 
L 488.300092 -257.121664 
L 487.237381 -254.179536 
L 486.205958 -251.237408 
L 485.219599 -248.29528 
L 484.291185 -245.353151 
L 483.43255 -242.411023 
L 482.654319 -239.468895 
L 481.965726 -236.526767 
L 481.374443 -233.584638 
L 480.88641 -230.64251 
L 480.505707 -227.700382 
L 480.234473 -224.758253 
L 480.072882 -221.816125 
L 480.019207 -218.873997 
L 480.069949 -215.931869 
L 480.220045 -212.98974 
L 480.463138 -210.047612 
L 480.791891 -207.105484 
L 481.198321 -204.163355 
L 481.674133 -201.221227 
L 482.211021 -198.279099 
L 482.800924 -195.336971 
L 483.436207 -192.394842 
L 484.109775 -189.452714 
L 484.815091 -186.510586 
L 485.546134 -183.568457 
L 486.297281 -180.626329 
L 487.063149 -177.684201 
L 487.838411 -174.742073 
L 488.617605 -171.799944 
L 489.394969 -168.857816 
L 490.164304 -165.915688 
L 490.91889 -162.97356 
L 491.65145 -160.031431 
L 492.354176 -157.089303 
L 493.018798 -154.147175 
L 493.63669 -151.205046 
L 494.199004 -148.262918 
L 494.696819 -145.32079 
L 495.121289 -142.378662 
L 495.463786 -139.436533 
L 495.716035 -136.494405 
L 495.870233 -133.552277 
L 495.919169 -130.610148 
L 495.856341 -127.66802 
L 495.676077 -124.725892 
L 495.37367 -121.783764 
L 494.945529 -118.841635 
L 494.389343 -115.899507 
L 493.704254 -112.957379 
L 492.891025 -110.01525 
L 491.952204 -107.073122 
L 490.892241 -104.130994 
L 489.717575 -101.188866 
L 488.436644 -98.246737 
L 487.059836 -95.304609 
L 485.599354 -92.362481 
L 484.069001 -89.420353 
L 482.4839 -86.478224 
L 480.860141 -83.536096 
L 479.214391 -80.593968 
L 477.56347 -77.651839 
L 475.923931 -74.709711 
L 474.311638 -71.767583 
L 472.741395 -68.825455 
z
" id="mab99338dd3" style="stroke:#ffffff;stroke-opacity:0.3;"/>
    </defs>
    <g clip-path="url(#pe66305043d)">
     <use style="fill:#4c72b0;fill-opacity:0.3;stroke:#ffffff;stroke-opacity:0.3;" x="0" xlink:href="#mab99338dd3" y="432"/>
    </g>
   </g>
   <g id="LineCollection_1">
    <path clip-path="url(#pe66305043d)" d="M 112.581818 66.665455 
L 153.163636 66.665455 
" style="fill:none;stroke:#4c72b0;stroke-width:1.5;"/>
    <path clip-path="url(#pe66305043d)" d="M 274.909091 68.353009 
L 315.490909 68.353009 
" style="fill:none;stroke:#4c72b0;stroke-width:1.5;"/>
    <path clip-path="url(#pe66305043d)" d="M 437.236364 71.903846 
L 477.818182 71.903846 
" style="fill:none;stroke:#4c72b0;stroke-width:1.5;"/>
   </g>
   <g id="LineCollection_2">
    <path clip-path="url(#pe66305043d)" d="M 112.581818 356.335026 
L 153.163636 356.335026 
" style="fill:none;stroke:#4c72b0;stroke-width:1.5;"/>
    <path clip-path="url(#pe66305043d)" d="M 274.909091 362.987961 
L 315.490909 362.987961 
" style="fill:none;stroke:#4c72b0;stroke-width:1.5;"/>
    <path clip-path="url(#pe66305043d)" d="M 437.236364 363.174545 
L 477.818182 363.174545 
" style="fill:none;stroke:#4c72b0;stroke-width:1.5;"/>
   </g>
   <g id="LineCollection_3">
    <path clip-path="url(#pe66305043d)" d="M 132.872727 356.335026 
L 132.872727 66.665455 
" style="fill:none;stroke:#4c72b0;stroke-width:1.5;"/>
    <path clip-path="url(#pe66305043d)" d="M 295.2 362.987961 
L 295.2 68.353009 
" style="fill:none;stroke:#4c72b0;stroke-width:1.5;"/>
    <path clip-path="url(#pe66305043d)" d="M 457.527273 363.174545 
L 457.527273 71.903846 
" style="fill:none;stroke:#4c72b0;stroke-width:1.5;"/>
   </g>
   <g id="LineCollection_4">
    <path clip-path="url(#pe66305043d)" d="M 112.581818 220.091468 
L 153.163636 220.091468 
" style="fill:none;stroke:#4c72b0;stroke-width:1.5;"/>
    <path clip-path="url(#pe66305043d)" d="M 274.909091 209.540661 
L 315.490909 209.540661 
" style="fill:none;stroke:#4c72b0;stroke-width:1.5;"/>
    <path clip-path="url(#pe66305043d)" d="M 437.236364 216.231111 
L 477.818182 216.231111 
" style="fill:none;stroke:#4c72b0;stroke-width:1.5;"/>
   </g>
   <g id="patch_3">
    <path d="M 72 378 
L 72 51.84 
" style="fill:none;stroke:#ffffff;stroke-linecap:square;stroke-linejoin:miter;stroke-width:1.25;"/>
   </g>
   <g id="patch_4">
    <path d="M 518.4 378 
L 518.4 51.84 
" style="fill:none;stroke:#ffffff;stroke-linecap:square;stroke-linejoin:miter;stroke-width:1.25;"/>
   </g>
   <g id="patch_5">
    <path d="M 72 378 
L 518.4 378 
" style="fill:none;stroke:#ffffff;stroke-linecap:square;stroke-linejoin:miter;stroke-width:1.25;"/>
   </g>
   <g id="patch_6">
    <path d="M 72 51.84 
L 518.4 51.84 
" style="fill:none;stroke:#ffffff;stroke-linecap:square;stroke-linejoin:miter;stroke-width:1.25;"/>
   </g>
   <g id="text_11">
    <!-- Gaussian noise STD: Island DNN (top 307 models) -->
    <defs>
     <path d="M 41.21875 28.078125 
L 41.21875 36.46875 
L 71.53125 36.53125 
L 71.53125 9.96875 
Q 64.546875 4.390625 57.125 1.578125 
Q 49.703125 -1.21875 41.890625 -1.21875 
Q 31.34375 -1.21875 22.71875 3.296875 
Q 14.109375 7.8125 9.71875 16.359375 
Q 5.328125 24.90625 5.328125 35.453125 
Q 5.328125 45.90625 9.6875 54.953125 
Q 14.0625 64.015625 22.265625 68.40625 
Q 30.46875 72.796875 41.15625 72.796875 
Q 48.921875 72.796875 55.1875 70.28125 
Q 61.46875 67.78125 65.03125 63.28125 
Q 68.609375 58.796875 70.453125 51.5625 
L 61.921875 49.21875 
Q 60.296875 54.6875 57.90625 57.8125 
Q 55.515625 60.9375 51.0625 62.8125 
Q 46.625 64.703125 41.21875 64.703125 
Q 34.71875 64.703125 29.984375 62.71875 
Q 25.25 60.75 22.34375 57.515625 
Q 19.4375 54.296875 17.828125 50.4375 
Q 15.09375 43.796875 15.09375 36.03125 
Q 15.09375 26.46875 18.390625 20.015625 
Q 21.6875 13.578125 27.984375 10.453125 
Q 34.28125 7.328125 41.359375 7.328125 
Q 47.515625 7.328125 53.375 9.6875 
Q 59.234375 12.0625 62.25 14.75 
L 62.25 28.078125 
z
" id="ArialMT-71"/>
     <path d="M 40.578125 0 
L 40.578125 7.625 
Q 34.515625 -1.171875 24.125 -1.171875 
Q 19.53125 -1.171875 15.546875 0.578125 
Q 11.578125 2.34375 9.640625 5 
Q 7.71875 7.671875 6.9375 11.53125 
Q 6.390625 14.109375 6.390625 19.734375 
L 6.390625 51.859375 
L 15.1875 51.859375 
L 15.1875 23.09375 
Q 15.1875 16.21875 15.71875 13.8125 
Q 16.546875 10.359375 19.234375 8.375 
Q 21.921875 6.390625 25.875 6.390625 
Q 29.828125 6.390625 33.296875 8.421875 
Q 36.765625 10.453125 38.203125 13.9375 
Q 39.65625 17.4375 39.65625 24.078125 
L 39.65625 51.859375 
L 48.4375 51.859375 
L 48.4375 0 
z
" id="ArialMT-117"/>
     <path d="M 9.03125 41.84375 
L 9.03125 51.859375 
L 19.046875 51.859375 
L 19.046875 41.84375 
z
M 9.03125 0 
L 9.03125 10.015625 
L 19.046875 10.015625 
L 19.046875 0 
z
" id="ArialMT-58"/>
     <path d="M 9.328125 0 
L 9.328125 71.578125 
L 18.796875 71.578125 
L 18.796875 0 
z
" id="ArialMT-73"/>
     <path d="M 6.390625 0 
L 6.390625 71.578125 
L 15.1875 71.578125 
L 15.1875 0 
z
" id="ArialMT-108"/>
     <path d="M 23.390625 -21.046875 
Q 16.109375 -11.859375 11.078125 0.4375 
Q 6.0625 12.75 6.0625 25.921875 
Q 6.0625 37.546875 9.8125 48.1875 
Q 14.203125 60.546875 23.390625 72.796875 
L 29.6875 72.796875 
Q 23.78125 62.640625 21.875 58.296875 
Q 18.890625 51.5625 17.1875 44.234375 
Q 15.09375 35.109375 15.09375 25.875 
Q 15.09375 2.390625 29.6875 -21.046875 
z
" id="ArialMT-40"/>
     <path d="M 6.59375 -19.875 
L 6.59375 51.859375 
L 14.59375 51.859375 
L 14.59375 45.125 
Q 17.4375 49.078125 21 51.046875 
Q 24.5625 53.03125 29.640625 53.03125 
Q 36.28125 53.03125 41.359375 49.609375 
Q 46.4375 46.1875 49.015625 39.953125 
Q 51.609375 33.734375 51.609375 26.3125 
Q 51.609375 18.359375 48.75 11.984375 
Q 45.90625 5.609375 40.453125 2.21875 
Q 35.015625 -1.171875 29 -1.171875 
Q 24.609375 -1.171875 21.109375 0.6875 
Q 17.625 2.546875 15.375 5.375 
L 15.375 -19.875 
z
M 14.546875 25.640625 
Q 14.546875 15.625 18.59375 10.84375 
Q 22.65625 6.0625 28.421875 6.0625 
Q 34.28125 6.0625 38.453125 11.015625 
Q 42.625 15.96875 42.625 26.375 
Q 42.625 36.28125 38.546875 41.203125 
Q 34.46875 46.140625 28.8125 46.140625 
Q 23.1875 46.140625 18.859375 40.890625 
Q 14.546875 35.640625 14.546875 25.640625 
z
" id="ArialMT-112"/>
     <path d="M 4.734375 62.203125 
L 4.734375 70.65625 
L 51.078125 70.65625 
L 51.078125 63.8125 
Q 44.234375 56.546875 37.515625 44.484375 
Q 30.8125 32.421875 27.15625 19.671875 
Q 24.515625 10.6875 23.78125 0 
L 14.75 0 
Q 14.890625 8.453125 18.0625 20.40625 
Q 21.234375 32.375 27.171875 43.484375 
Q 33.109375 54.59375 39.796875 62.203125 
z
" id="ArialMT-55"/>
     <path d="M 6.59375 0 
L 6.59375 51.859375 
L 14.453125 51.859375 
L 14.453125 44.578125 
Q 16.890625 48.390625 20.9375 50.703125 
Q 25 53.03125 30.171875 53.03125 
Q 35.9375 53.03125 39.625 50.640625 
Q 43.3125 48.25 44.828125 43.953125 
Q 50.984375 53.03125 60.84375 53.03125 
Q 68.5625 53.03125 72.703125 48.75 
Q 76.859375 44.484375 76.859375 35.59375 
L 76.859375 0 
L 68.109375 0 
L 68.109375 32.671875 
Q 68.109375 37.9375 67.25 40.25 
Q 66.40625 42.578125 64.15625 43.984375 
Q 61.921875 45.40625 58.890625 45.40625 
Q 53.421875 45.40625 49.796875 41.765625 
Q 46.1875 38.140625 46.1875 30.125 
L 46.1875 0 
L 37.40625 0 
L 37.40625 33.6875 
Q 37.40625 39.546875 35.25 42.46875 
Q 33.109375 45.40625 28.21875 45.40625 
Q 24.515625 45.40625 21.359375 43.453125 
Q 18.21875 41.5 16.796875 37.734375 
Q 15.375 33.984375 15.375 26.90625 
L 15.375 0 
z
" id="ArialMT-109"/>
     <path d="M 12.359375 -21.046875 
L 6.0625 -21.046875 
Q 20.65625 2.390625 20.65625 25.875 
Q 20.65625 35.0625 18.5625 44.09375 
Q 16.890625 51.421875 13.921875 58.15625 
Q 12.015625 62.546875 6.0625 72.796875 
L 12.359375 72.796875 
Q 21.53125 60.546875 25.921875 48.1875 
Q 29.6875 37.546875 29.6875 25.921875 
Q 29.6875 12.75 24.625 0.4375 
Q 19.578125 -11.859375 12.359375 -21.046875 
z
" id="ArialMT-41"/>
    </defs>
    <g style="fill:#262626;" transform="translate(23.761875 45.84)scale(0.24 -0.24)">
     <use xlink:href="#ArialMT-71"/>
     <use x="77.783203" xlink:href="#ArialMT-97"/>
     <use x="133.398438" xlink:href="#ArialMT-117"/>
     <use x="189.013672" xlink:href="#ArialMT-115"/>
     <use x="239.013672" xlink:href="#ArialMT-115"/>
     <use x="289.013672" xlink:href="#ArialMT-105"/>
     <use x="311.230469" xlink:href="#ArialMT-97"/>
     <use x="366.845703" xlink:href="#ArialMT-110"/>
     <use x="422.460938" xlink:href="#ArialMT-32"/>
     <use x="450.244141" xlink:href="#ArialMT-110"/>
     <use x="505.859375" xlink:href="#ArialMT-111"/>
     <use x="561.474609" xlink:href="#ArialMT-105"/>
     <use x="583.691406" xlink:href="#ArialMT-115"/>
     <use x="633.691406" xlink:href="#ArialMT-101"/>
     <use x="689.306641" xlink:href="#ArialMT-32"/>
     <use x="717.089844" xlink:href="#ArialMT-83"/>
     <use x="783.789062" xlink:href="#ArialMT-84"/>
     <use x="844.873047" xlink:href="#ArialMT-68"/>
     <use x="917.089844" xlink:href="#ArialMT-58"/>
     <use x="944.873047" xlink:href="#ArialMT-32"/>
     <use x="972.65625" xlink:href="#ArialMT-73"/>
     <use x="1000.439453" xlink:href="#ArialMT-115"/>
     <use x="1050.439453" xlink:href="#ArialMT-108"/>
     <use x="1072.65625" xlink:href="#ArialMT-97"/>
     <use x="1128.271484" xlink:href="#ArialMT-110"/>
     <use x="1183.886719" xlink:href="#ArialMT-100"/>
     <use x="1239.501953" xlink:href="#ArialMT-32"/>
     <use x="1267.285156" xlink:href="#ArialMT-68"/>
     <use x="1339.501953" xlink:href="#ArialMT-78"/>
     <use x="1411.71875" xlink:href="#ArialMT-78"/>
     <use x="1483.935547" xlink:href="#ArialMT-32"/>
     <use x="1511.71875" xlink:href="#ArialMT-40"/>
     <use x="1545.019531" xlink:href="#ArialMT-116"/>
     <use x="1572.802734" xlink:href="#ArialMT-111"/>
     <use x="1628.417969" xlink:href="#ArialMT-112"/>
     <use x="1684.033203" xlink:href="#ArialMT-32"/>
     <use x="1711.816406" xlink:href="#ArialMT-51"/>
     <use x="1767.431641" xlink:href="#ArialMT-48"/>
     <use x="1823.046875" xlink:href="#ArialMT-55"/>
     <use x="1878.662109" xlink:href="#ArialMT-32"/>
     <use x="1906.445312" xlink:href="#ArialMT-109"/>
     <use x="1989.746094" xlink:href="#ArialMT-111"/>
     <use x="2045.361328" xlink:href="#ArialMT-100"/>
     <use x="2100.976562" xlink:href="#ArialMT-101"/>
     <use x="2156.591797" xlink:href="#ArialMT-108"/>
     <use x="2178.808594" xlink:href="#ArialMT-115"/>
     <use x="2228.808594" xlink:href="#ArialMT-41"/>
    </g>
   </g>
  </g>
 </g>
 <defs>
  <clipPath id="pe66305043d">
   <rect height="326.16" width="446.4" x="72" y="51.84"/>
  </clipPath>
 </defs>
</svg>
