<?xml version="1.0" encoding="utf-8" standalone="no"?>
<!DOCTYPE svg PUBLIC "-//W3C//DTD SVG 1.1//EN"
  "http://www.w3.org/Graphics/SVG/1.1/DTD/svg11.dtd">
<!-- Created with matplotlib (https://matplotlib.org/) -->
<svg height="432pt" version="1.1" viewBox="0 0 576 432" width="576pt" xmlns="http://www.w3.org/2000/svg" xmlns:xlink="http://www.w3.org/1999/xlink">
 <metadata>
  <rdf:RDF xmlns:cc="http://creativecommons.org/ns#" xmlns:dc="http://purl.org/dc/elements/1.1/" xmlns:rdf="http://www.w3.org/1999/02/22-rdf-syntax-ns#">
   <cc:Work>
    <dc:type rdf:resource="http://purl.org/dc/dcmitype/StillImage"/>
    <dc:date>2021-04-08T23:10:53.371829</dc:date>
    <dc:format>image/svg+xml</dc:format>
    <dc:creator>
     <cc:Agent>
      <dc:title>Matplotlib v3.3.4, https://matplotlib.org/</dc:title>
     </cc:Agent>
    </dc:creator>
   </cc:Work>
  </rdf:RDF>
 </metadata>
 <defs>
  <style type="text/css">*{stroke-linecap:butt;stroke-linejoin:round;}</style>
 </defs>
 <g id="figure_1">
  <g id="patch_1">
   <path d="M 0 432 
L 576 432 
L 576 0 
L 0 0 
z
" style="fill:#ffffff;"/>
  </g>
  <g id="axes_1">
   <g id="patch_2">
    <path d="M 72 378 
L 518.4 378 
L 518.4 51.84 
L 72 51.84 
z
" style="fill:#eaeaf2;"/>
   </g>
   <g id="matplotlib.axis_1">
    <g id="xtick_1">
     <g id="line2d_1">
      <path clip-path="url(#pcb057307bc)" d="M 132.872727 378 
L 132.872727 51.84 
" style="fill:none;stroke:#ffffff;stroke-linecap:round;"/>
     </g>
     <g id="text_1">
      <!-- First -->
      <g style="fill:#262626;" transform="translate(111.491477 403.247187)scale(0.22 -0.22)">
       <defs>
        <path d="M 8.203125 0 
L 8.203125 71.578125 
L 56.5 71.578125 
L 56.5 63.140625 
L 17.671875 63.140625 
L 17.671875 40.96875 
L 51.265625 40.96875 
L 51.265625 32.515625 
L 17.671875 32.515625 
L 17.671875 0 
z
" id="ArialMT-70"/>
        <path d="M 6.640625 61.46875 
L 6.640625 71.578125 
L 15.4375 71.578125 
L 15.4375 61.46875 
z
M 6.640625 0 
L 6.640625 51.859375 
L 15.4375 51.859375 
L 15.4375 0 
z
" id="ArialMT-105"/>
        <path d="M 6.5 0 
L 6.5 51.859375 
L 14.40625 51.859375 
L 14.40625 44 
Q 17.4375 49.515625 20 51.265625 
Q 22.5625 53.03125 25.640625 53.03125 
Q 30.078125 53.03125 34.671875 50.203125 
L 31.640625 42.046875 
Q 28.421875 43.953125 25.203125 43.953125 
Q 22.3125 43.953125 20.015625 42.21875 
Q 17.71875 40.484375 16.75 37.40625 
Q 15.28125 32.71875 15.28125 27.15625 
L 15.28125 0 
z
" id="ArialMT-114"/>
        <path d="M 3.078125 15.484375 
L 11.765625 16.84375 
Q 12.5 11.625 15.84375 8.84375 
Q 19.1875 6.0625 25.203125 6.0625 
Q 31.25 6.0625 34.171875 8.515625 
Q 37.109375 10.984375 37.109375 14.3125 
Q 37.109375 17.28125 34.515625 19 
Q 32.71875 20.171875 25.53125 21.96875 
Q 15.875 24.421875 12.140625 26.203125 
Q 8.40625 27.984375 6.46875 31.125 
Q 4.546875 34.28125 4.546875 38.09375 
Q 4.546875 41.546875 6.125 44.5 
Q 7.71875 47.46875 10.453125 49.421875 
Q 12.5 50.921875 16.03125 51.96875 
Q 19.578125 53.03125 23.640625 53.03125 
Q 29.734375 53.03125 34.34375 51.265625 
Q 38.96875 49.515625 41.15625 46.5 
Q 43.359375 43.5 44.1875 38.484375 
L 35.59375 37.3125 
Q 35.015625 41.3125 32.203125 43.546875 
Q 29.390625 45.796875 24.265625 45.796875 
Q 18.21875 45.796875 15.625 43.796875 
Q 13.03125 41.796875 13.03125 39.109375 
Q 13.03125 37.40625 14.109375 36.03125 
Q 15.1875 34.625 17.484375 33.6875 
Q 18.796875 33.203125 25.25 31.453125 
Q 34.578125 28.953125 38.25 27.359375 
Q 41.9375 25.78125 44.03125 22.75 
Q 46.140625 19.734375 46.140625 15.234375 
Q 46.140625 10.84375 43.578125 6.953125 
Q 41.015625 3.078125 36.171875 0.953125 
Q 31.34375 -1.171875 25.25 -1.171875 
Q 15.140625 -1.171875 9.84375 3.03125 
Q 4.546875 7.234375 3.078125 15.484375 
z
" id="ArialMT-115"/>
        <path d="M 25.78125 7.859375 
L 27.046875 0.09375 
Q 23.34375 -0.6875 20.40625 -0.6875 
Q 15.625 -0.6875 12.984375 0.828125 
Q 10.359375 2.34375 9.28125 4.8125 
Q 8.203125 7.28125 8.203125 15.1875 
L 8.203125 45.015625 
L 1.765625 45.015625 
L 1.765625 51.859375 
L 8.203125 51.859375 
L 8.203125 64.703125 
L 16.9375 69.96875 
L 16.9375 51.859375 
L 25.78125 51.859375 
L 25.78125 45.015625 
L 16.9375 45.015625 
L 16.9375 14.703125 
Q 16.9375 10.9375 17.40625 9.859375 
Q 17.875 8.796875 18.921875 8.15625 
Q 19.96875 7.515625 21.921875 7.515625 
Q 23.390625 7.515625 25.78125 7.859375 
z
" id="ArialMT-116"/>
       </defs>
       <use xlink:href="#ArialMT-70"/>
       <use x="61.083984" xlink:href="#ArialMT-105"/>
       <use x="83.300781" xlink:href="#ArialMT-114"/>
       <use x="116.601562" xlink:href="#ArialMT-115"/>
       <use x="166.601562" xlink:href="#ArialMT-116"/>
      </g>
     </g>
    </g>
    <g id="xtick_2">
     <g id="line2d_2">
      <path clip-path="url(#pcb057307bc)" d="M 295.2 378 
L 295.2 51.84 
" style="fill:none;stroke:#ffffff;stroke-linecap:round;"/>
     </g>
     <g id="text_2">
      <!-- Second -->
      <g style="fill:#262626;" transform="translate(257.894531 403.247187)scale(0.22 -0.22)">
       <defs>
        <path d="M 4.5 23 
L 13.421875 23.78125 
Q 14.0625 18.40625 16.375 14.96875 
Q 18.703125 11.53125 23.578125 9.40625 
Q 28.46875 7.28125 34.578125 7.28125 
Q 39.984375 7.28125 44.140625 8.890625 
Q 48.296875 10.5 50.3125 13.296875 
Q 52.34375 16.109375 52.34375 19.4375 
Q 52.34375 22.796875 50.390625 25.3125 
Q 48.4375 27.828125 43.953125 29.546875 
Q 41.0625 30.671875 31.203125 33.03125 
Q 21.34375 35.40625 17.390625 37.5 
Q 12.25 40.1875 9.734375 44.15625 
Q 7.234375 48.140625 7.234375 53.078125 
Q 7.234375 58.5 10.296875 63.203125 
Q 13.375 67.921875 19.28125 70.359375 
Q 25.203125 72.796875 32.421875 72.796875 
Q 40.375 72.796875 46.453125 70.234375 
Q 52.546875 67.671875 55.8125 62.6875 
Q 59.078125 57.71875 59.328125 51.421875 
L 50.25 50.734375 
Q 49.515625 57.515625 45.28125 60.984375 
Q 41.0625 64.453125 32.8125 64.453125 
Q 24.21875 64.453125 20.28125 61.296875 
Q 16.359375 58.15625 16.359375 53.71875 
Q 16.359375 49.859375 19.140625 47.359375 
Q 21.875 44.875 33.421875 42.265625 
Q 44.96875 39.65625 49.265625 37.703125 
Q 55.515625 34.8125 58.484375 30.390625 
Q 61.46875 25.984375 61.46875 20.21875 
Q 61.46875 14.5 58.203125 9.4375 
Q 54.9375 4.390625 48.796875 1.578125 
Q 42.671875 -1.21875 35.015625 -1.21875 
Q 25.296875 -1.21875 18.71875 1.609375 
Q 12.15625 4.4375 8.421875 10.125 
Q 4.6875 15.828125 4.5 23 
z
" id="ArialMT-83"/>
        <path d="M 42.09375 16.703125 
L 51.171875 15.578125 
Q 49.03125 7.625 43.21875 3.21875 
Q 37.40625 -1.171875 28.375 -1.171875 
Q 17 -1.171875 10.328125 5.828125 
Q 3.65625 12.84375 3.65625 25.484375 
Q 3.65625 38.578125 10.390625 45.796875 
Q 17.140625 53.03125 27.875 53.03125 
Q 38.28125 53.03125 44.875 45.953125 
Q 51.46875 38.875 51.46875 26.03125 
Q 51.46875 25.25 51.421875 23.6875 
L 12.75 23.6875 
Q 13.234375 15.140625 17.578125 10.59375 
Q 21.921875 6.0625 28.421875 6.0625 
Q 33.25 6.0625 36.671875 8.59375 
Q 40.09375 11.140625 42.09375 16.703125 
z
M 13.234375 30.90625 
L 42.1875 30.90625 
Q 41.609375 37.453125 38.875 40.71875 
Q 34.671875 45.796875 27.984375 45.796875 
Q 21.921875 45.796875 17.796875 41.75 
Q 13.671875 37.703125 13.234375 30.90625 
z
" id="ArialMT-101"/>
        <path d="M 40.4375 19 
L 49.078125 17.875 
Q 47.65625 8.9375 41.8125 3.875 
Q 35.984375 -1.171875 27.484375 -1.171875 
Q 16.84375 -1.171875 10.375 5.78125 
Q 3.90625 12.75 3.90625 25.734375 
Q 3.90625 34.125 6.6875 40.421875 
Q 9.46875 46.734375 15.15625 49.875 
Q 20.84375 53.03125 27.546875 53.03125 
Q 35.984375 53.03125 41.359375 48.75 
Q 46.734375 44.484375 48.25 36.625 
L 39.703125 35.296875 
Q 38.484375 40.53125 35.375 43.15625 
Q 32.28125 45.796875 27.875 45.796875 
Q 21.234375 45.796875 17.078125 41.03125 
Q 12.9375 36.28125 12.9375 25.984375 
Q 12.9375 15.53125 16.9375 10.796875 
Q 20.953125 6.0625 27.390625 6.0625 
Q 32.5625 6.0625 36.03125 9.234375 
Q 39.5 12.40625 40.4375 19 
z
" id="ArialMT-99"/>
        <path d="M 3.328125 25.921875 
Q 3.328125 40.328125 11.328125 47.265625 
Q 18.015625 53.03125 27.640625 53.03125 
Q 38.328125 53.03125 45.109375 46.015625 
Q 51.90625 39.015625 51.90625 26.65625 
Q 51.90625 16.65625 48.90625 10.90625 
Q 45.90625 5.171875 40.15625 2 
Q 34.421875 -1.171875 27.640625 -1.171875 
Q 16.75 -1.171875 10.03125 5.8125 
Q 3.328125 12.796875 3.328125 25.921875 
z
M 12.359375 25.921875 
Q 12.359375 15.96875 16.703125 11.015625 
Q 21.046875 6.0625 27.640625 6.0625 
Q 34.1875 6.0625 38.53125 11.03125 
Q 42.875 16.015625 42.875 26.21875 
Q 42.875 35.84375 38.5 40.796875 
Q 34.125 45.75 27.640625 45.75 
Q 21.046875 45.75 16.703125 40.8125 
Q 12.359375 35.890625 12.359375 25.921875 
z
" id="ArialMT-111"/>
        <path d="M 6.59375 0 
L 6.59375 51.859375 
L 14.5 51.859375 
L 14.5 44.484375 
Q 20.21875 53.03125 31 53.03125 
Q 35.6875 53.03125 39.625 51.34375 
Q 43.5625 49.65625 45.515625 46.921875 
Q 47.46875 44.1875 48.25 40.4375 
Q 48.734375 37.984375 48.734375 31.890625 
L 48.734375 0 
L 39.9375 0 
L 39.9375 31.546875 
Q 39.9375 36.921875 38.90625 39.578125 
Q 37.890625 42.234375 35.28125 43.8125 
Q 32.671875 45.40625 29.15625 45.40625 
Q 23.53125 45.40625 19.453125 41.84375 
Q 15.375 38.28125 15.375 28.328125 
L 15.375 0 
z
" id="ArialMT-110"/>
        <path d="M 40.234375 0 
L 40.234375 6.546875 
Q 35.296875 -1.171875 25.734375 -1.171875 
Q 19.53125 -1.171875 14.328125 2.25 
Q 9.125 5.671875 6.265625 11.796875 
Q 3.421875 17.921875 3.421875 25.875 
Q 3.421875 33.640625 6 39.96875 
Q 8.59375 46.296875 13.765625 49.65625 
Q 18.953125 53.03125 25.34375 53.03125 
Q 30.03125 53.03125 33.6875 51.046875 
Q 37.359375 49.078125 39.65625 45.90625 
L 39.65625 71.578125 
L 48.390625 71.578125 
L 48.390625 0 
z
M 12.453125 25.875 
Q 12.453125 15.921875 16.640625 10.984375 
Q 20.84375 6.0625 26.5625 6.0625 
Q 32.328125 6.0625 36.34375 10.765625 
Q 40.375 15.484375 40.375 25.140625 
Q 40.375 35.796875 36.265625 40.765625 
Q 32.171875 45.75 26.171875 45.75 
Q 20.3125 45.75 16.375 40.96875 
Q 12.453125 36.1875 12.453125 25.875 
z
" id="ArialMT-100"/>
       </defs>
       <use xlink:href="#ArialMT-83"/>
       <use x="66.699219" xlink:href="#ArialMT-101"/>
       <use x="122.314453" xlink:href="#ArialMT-99"/>
       <use x="172.314453" xlink:href="#ArialMT-111"/>
       <use x="227.929688" xlink:href="#ArialMT-110"/>
       <use x="283.544922" xlink:href="#ArialMT-100"/>
      </g>
     </g>
    </g>
    <g id="xtick_3">
     <g id="line2d_3">
      <path clip-path="url(#pcb057307bc)" d="M 457.527273 378 
L 457.527273 51.84 
" style="fill:none;stroke:#ffffff;stroke-linecap:round;"/>
     </g>
     <g id="text_3">
      <!-- Third -->
      <g style="fill:#262626;" transform="translate(432.467898 403.247187)scale(0.22 -0.22)">
       <defs>
        <path d="M 25.921875 0 
L 25.921875 63.140625 
L 2.34375 63.140625 
L 2.34375 71.578125 
L 59.078125 71.578125 
L 59.078125 63.140625 
L 35.40625 63.140625 
L 35.40625 0 
z
" id="ArialMT-84"/>
        <path d="M 6.59375 0 
L 6.59375 71.578125 
L 15.375 71.578125 
L 15.375 45.90625 
Q 21.53125 53.03125 30.90625 53.03125 
Q 36.671875 53.03125 40.921875 50.75 
Q 45.171875 48.484375 47 44.484375 
Q 48.828125 40.484375 48.828125 32.859375 
L 48.828125 0 
L 40.046875 0 
L 40.046875 32.859375 
Q 40.046875 39.453125 37.1875 42.453125 
Q 34.328125 45.453125 29.109375 45.453125 
Q 25.203125 45.453125 21.75 43.421875 
Q 18.3125 41.40625 16.84375 37.9375 
Q 15.375 34.46875 15.375 28.375 
L 15.375 0 
z
" id="ArialMT-104"/>
       </defs>
       <use xlink:href="#ArialMT-84"/>
       <use x="61.083984" xlink:href="#ArialMT-104"/>
       <use x="116.699219" xlink:href="#ArialMT-105"/>
       <use x="138.916016" xlink:href="#ArialMT-114"/>
       <use x="172.216797" xlink:href="#ArialMT-100"/>
      </g>
     </g>
    </g>
    <g id="text_4">
     <!-- RNN Layers -->
     <g style="fill:#262626;" transform="translate(229.8525 428.798437)scale(0.24 -0.24)">
      <defs>
       <path d="M 7.859375 0 
L 7.859375 71.578125 
L 39.59375 71.578125 
Q 49.171875 71.578125 54.140625 69.640625 
Q 59.125 67.71875 62.109375 62.828125 
Q 65.09375 57.953125 65.09375 52.046875 
Q 65.09375 44.4375 60.15625 39.203125 
Q 55.21875 33.984375 44.921875 32.5625 
Q 48.6875 30.765625 50.640625 29 
Q 54.78125 25.203125 58.5 19.484375 
L 70.953125 0 
L 59.03125 0 
L 49.5625 14.890625 
Q 45.40625 21.34375 42.71875 24.75 
Q 40.046875 28.171875 37.921875 29.53125 
Q 35.796875 30.90625 33.59375 31.453125 
Q 31.984375 31.78125 28.328125 31.78125 
L 17.328125 31.78125 
L 17.328125 0 
z
M 17.328125 39.984375 
L 37.703125 39.984375 
Q 44.1875 39.984375 47.84375 41.328125 
Q 51.515625 42.671875 53.421875 45.625 
Q 55.328125 48.578125 55.328125 52.046875 
Q 55.328125 57.125 51.640625 60.390625 
Q 47.953125 63.671875 39.984375 63.671875 
L 17.328125 63.671875 
z
" id="ArialMT-82"/>
       <path d="M 7.625 0 
L 7.625 71.578125 
L 17.328125 71.578125 
L 54.9375 15.375 
L 54.9375 71.578125 
L 64.015625 71.578125 
L 64.015625 0 
L 54.296875 0 
L 16.703125 56.25 
L 16.703125 0 
z
" id="ArialMT-78"/>
       <path id="ArialMT-32"/>
       <path d="M 7.328125 0 
L 7.328125 71.578125 
L 16.796875 71.578125 
L 16.796875 8.453125 
L 52.046875 8.453125 
L 52.046875 0 
z
" id="ArialMT-76"/>
       <path d="M 40.4375 6.390625 
Q 35.546875 2.25 31.03125 0.53125 
Q 26.515625 -1.171875 21.34375 -1.171875 
Q 12.796875 -1.171875 8.203125 3 
Q 3.609375 7.171875 3.609375 13.671875 
Q 3.609375 17.484375 5.34375 20.625 
Q 7.078125 23.78125 9.890625 25.6875 
Q 12.703125 27.59375 16.21875 28.5625 
Q 18.796875 29.25 24.03125 29.890625 
Q 34.671875 31.15625 39.703125 32.90625 
Q 39.75 34.71875 39.75 35.203125 
Q 39.75 40.578125 37.25 42.78125 
Q 33.890625 45.75 27.25 45.75 
Q 21.046875 45.75 18.09375 43.578125 
Q 15.140625 41.40625 13.71875 35.890625 
L 5.125 37.0625 
Q 6.296875 42.578125 8.984375 45.96875 
Q 11.671875 49.359375 16.75 51.1875 
Q 21.828125 53.03125 28.515625 53.03125 
Q 35.15625 53.03125 39.296875 51.46875 
Q 43.453125 49.90625 45.40625 47.53125 
Q 47.359375 45.171875 48.140625 41.546875 
Q 48.578125 39.3125 48.578125 33.453125 
L 48.578125 21.734375 
Q 48.578125 9.46875 49.140625 6.21875 
Q 49.703125 2.984375 51.375 0 
L 42.1875 0 
Q 40.828125 2.734375 40.4375 6.390625 
z
M 39.703125 26.03125 
Q 34.90625 24.078125 25.34375 22.703125 
Q 19.921875 21.921875 17.671875 20.9375 
Q 15.4375 19.96875 14.203125 18.09375 
Q 12.984375 16.21875 12.984375 13.921875 
Q 12.984375 10.40625 15.640625 8.0625 
Q 18.3125 5.71875 23.4375 5.71875 
Q 28.515625 5.71875 32.46875 7.9375 
Q 36.421875 10.15625 38.28125 14.015625 
Q 39.703125 17 39.703125 22.796875 
z
" id="ArialMT-97"/>
       <path d="M 6.203125 -19.96875 
L 5.21875 -11.71875 
Q 8.109375 -12.5 10.25 -12.5 
Q 13.1875 -12.5 14.9375 -11.515625 
Q 16.703125 -10.546875 17.828125 -8.796875 
Q 18.65625 -7.46875 20.515625 -2.25 
Q 20.75 -1.515625 21.296875 -0.09375 
L 1.609375 51.859375 
L 11.078125 51.859375 
L 21.875 21.828125 
Q 23.96875 16.109375 25.640625 9.8125 
Q 27.15625 15.875 29.25 21.625 
L 40.328125 51.859375 
L 49.125 51.859375 
L 29.390625 -0.875 
Q 26.21875 -9.421875 24.46875 -12.640625 
Q 22.125 -17 19.09375 -19.015625 
Q 16.0625 -21.046875 11.859375 -21.046875 
Q 9.328125 -21.046875 6.203125 -19.96875 
z
" id="ArialMT-121"/>
      </defs>
      <use xlink:href="#ArialMT-82"/>
      <use x="72.216797" xlink:href="#ArialMT-78"/>
      <use x="144.433594" xlink:href="#ArialMT-78"/>
      <use x="216.650391" xlink:href="#ArialMT-32"/>
      <use x="244.433594" xlink:href="#ArialMT-76"/>
      <use x="300.048828" xlink:href="#ArialMT-97"/>
      <use x="355.664062" xlink:href="#ArialMT-121"/>
      <use x="405.664062" xlink:href="#ArialMT-101"/>
      <use x="461.279297" xlink:href="#ArialMT-114"/>
      <use x="494.580078" xlink:href="#ArialMT-115"/>
     </g>
    </g>
   </g>
   <g id="matplotlib.axis_2">
    <g id="ytick_1">
     <g id="line2d_4">
      <path clip-path="url(#pcb057307bc)" d="M 72 295.41133 
L 518.4 295.41133 
" style="fill:none;stroke:#ffffff;stroke-linecap:round;"/>
     </g>
     <g id="text_5">
      <!-- 0.2 -->
      <g style="fill:#262626;" transform="translate(31.92 303.284924)scale(0.22 -0.22)">
       <defs>
        <path d="M 4.15625 35.296875 
Q 4.15625 48 6.765625 55.734375 
Q 9.375 63.484375 14.515625 67.671875 
Q 19.671875 71.875 27.484375 71.875 
Q 33.25 71.875 37.59375 69.546875 
Q 41.9375 67.234375 44.765625 62.859375 
Q 47.609375 58.5 49.21875 52.21875 
Q 50.828125 45.953125 50.828125 35.296875 
Q 50.828125 22.703125 48.234375 14.96875 
Q 45.65625 7.234375 40.5 3 
Q 35.359375 -1.21875 27.484375 -1.21875 
Q 17.140625 -1.21875 11.234375 6.203125 
Q 4.15625 15.140625 4.15625 35.296875 
z
M 13.1875 35.296875 
Q 13.1875 17.671875 17.3125 11.828125 
Q 21.4375 6 27.484375 6 
Q 33.546875 6 37.671875 11.859375 
Q 41.796875 17.71875 41.796875 35.296875 
Q 41.796875 52.984375 37.671875 58.78125 
Q 33.546875 64.59375 27.390625 64.59375 
Q 21.34375 64.59375 17.71875 59.46875 
Q 13.1875 52.9375 13.1875 35.296875 
z
" id="ArialMT-48"/>
        <path d="M 9.078125 0 
L 9.078125 10.015625 
L 19.09375 10.015625 
L 19.09375 0 
z
" id="ArialMT-46"/>
        <path d="M 50.34375 8.453125 
L 50.34375 0 
L 3.03125 0 
Q 2.9375 3.171875 4.046875 6.109375 
Q 5.859375 10.9375 9.828125 15.625 
Q 13.8125 20.3125 21.34375 26.46875 
Q 33.015625 36.03125 37.109375 41.625 
Q 41.21875 47.21875 41.21875 52.203125 
Q 41.21875 57.421875 37.46875 61 
Q 33.734375 64.59375 27.734375 64.59375 
Q 21.390625 64.59375 17.578125 60.78125 
Q 13.765625 56.984375 13.71875 50.25 
L 4.6875 51.171875 
Q 5.609375 61.28125 11.65625 66.578125 
Q 17.71875 71.875 27.9375 71.875 
Q 38.234375 71.875 44.234375 66.15625 
Q 50.25 60.453125 50.25 52 
Q 50.25 47.703125 48.484375 43.546875 
Q 46.734375 39.40625 42.65625 34.8125 
Q 38.578125 30.21875 29.109375 22.21875 
Q 21.1875 15.578125 18.9375 13.203125 
Q 16.703125 10.84375 15.234375 8.453125 
z
" id="ArialMT-50"/>
       </defs>
       <use xlink:href="#ArialMT-48"/>
       <use x="55.615234" xlink:href="#ArialMT-46"/>
       <use x="83.398438" xlink:href="#ArialMT-50"/>
      </g>
     </g>
    </g>
    <g id="ytick_2">
     <g id="line2d_5">
      <path clip-path="url(#pcb057307bc)" d="M 72 209.320621 
L 518.4 209.320621 
" style="fill:none;stroke:#ffffff;stroke-linecap:round;"/>
     </g>
     <g id="text_6">
      <!-- 0.3 -->
      <g style="fill:#262626;" transform="translate(31.92 217.194215)scale(0.22 -0.22)">
       <defs>
        <path d="M 4.203125 18.890625 
L 12.984375 20.0625 
Q 14.5 12.59375 18.140625 9.296875 
Q 21.78125 6 27 6 
Q 33.203125 6 37.46875 10.296875 
Q 41.75 14.59375 41.75 20.953125 
Q 41.75 27 37.796875 30.921875 
Q 33.84375 34.859375 27.734375 34.859375 
Q 25.25 34.859375 21.53125 33.890625 
L 22.515625 41.609375 
Q 23.390625 41.5 23.921875 41.5 
Q 29.546875 41.5 34.03125 44.421875 
Q 38.53125 47.359375 38.53125 53.46875 
Q 38.53125 58.296875 35.25 61.46875 
Q 31.984375 64.65625 26.8125 64.65625 
Q 21.6875 64.65625 18.265625 61.421875 
Q 14.84375 58.203125 13.875 51.765625 
L 5.078125 53.328125 
Q 6.6875 62.15625 12.390625 67.015625 
Q 18.109375 71.875 26.609375 71.875 
Q 32.46875 71.875 37.390625 69.359375 
Q 42.328125 66.84375 44.9375 62.5 
Q 47.5625 58.15625 47.5625 53.265625 
Q 47.5625 48.640625 45.0625 44.828125 
Q 42.578125 41.015625 37.703125 38.765625 
Q 44.046875 37.3125 47.5625 32.6875 
Q 51.078125 28.078125 51.078125 21.140625 
Q 51.078125 11.765625 44.234375 5.25 
Q 37.40625 -1.265625 26.953125 -1.265625 
Q 17.53125 -1.265625 11.296875 4.34375 
Q 5.078125 9.96875 4.203125 18.890625 
z
" id="ArialMT-51"/>
       </defs>
       <use xlink:href="#ArialMT-48"/>
       <use x="55.615234" xlink:href="#ArialMT-46"/>
       <use x="83.398438" xlink:href="#ArialMT-51"/>
      </g>
     </g>
    </g>
    <g id="ytick_3">
     <g id="line2d_6">
      <path clip-path="url(#pcb057307bc)" d="M 72 123.229912 
L 518.4 123.229912 
" style="fill:none;stroke:#ffffff;stroke-linecap:round;"/>
     </g>
     <g id="text_7">
      <!-- 0.4 -->
      <g style="fill:#262626;" transform="translate(31.92 131.103506)scale(0.22 -0.22)">
       <defs>
        <path d="M 32.328125 0 
L 32.328125 17.140625 
L 1.265625 17.140625 
L 1.265625 25.203125 
L 33.9375 71.578125 
L 41.109375 71.578125 
L 41.109375 25.203125 
L 50.78125 25.203125 
L 50.78125 17.140625 
L 41.109375 17.140625 
L 41.109375 0 
z
M 32.328125 25.203125 
L 32.328125 57.46875 
L 9.90625 25.203125 
z
" id="ArialMT-52"/>
       </defs>
       <use xlink:href="#ArialMT-48"/>
       <use x="55.615234" xlink:href="#ArialMT-46"/>
       <use x="83.398438" xlink:href="#ArialMT-52"/>
      </g>
     </g>
    </g>
    <g id="text_8">
     <!-- STD -->
     <g style="fill:#262626;" transform="translate(23.15 238.92)rotate(-90)scale(0.24 -0.24)">
      <defs>
       <path d="M 7.71875 0 
L 7.71875 71.578125 
L 32.375 71.578125 
Q 40.71875 71.578125 45.125 70.5625 
Q 51.265625 69.140625 55.609375 65.4375 
Q 61.28125 60.640625 64.078125 53.1875 
Q 66.890625 45.75 66.890625 36.1875 
Q 66.890625 28.03125 64.984375 21.734375 
Q 63.09375 15.4375 60.109375 11.296875 
Q 57.125 7.171875 53.578125 4.796875 
Q 50.046875 2.4375 45.046875 1.21875 
Q 40.046875 0 33.546875 0 
z
M 17.1875 8.453125 
L 32.46875 8.453125 
Q 39.546875 8.453125 43.578125 9.765625 
Q 47.609375 11.078125 50 13.484375 
Q 53.375 16.84375 55.25 22.53125 
Q 57.125 28.21875 57.125 36.328125 
Q 57.125 47.5625 53.4375 53.59375 
Q 49.75 59.625 44.484375 61.671875 
Q 40.671875 63.140625 32.234375 63.140625 
L 17.1875 63.140625 
z
" id="ArialMT-68"/>
      </defs>
      <use xlink:href="#ArialMT-83"/>
      <use x="66.699219" xlink:href="#ArialMT-84"/>
      <use x="127.783203" xlink:href="#ArialMT-68"/>
     </g>
    </g>
   </g>
   <g id="PolyCollection_1">
    <defs>
     <path d="M 162.365622 -78.290958 
L 103.379832 -78.290958 
L 102.837339 -80.808717 
L 102.311241 -83.326476 
L 101.802043 -85.844235 
L 101.310163 -88.361994 
L 100.835928 -90.879753 
L 100.379573 -93.397512 
L 99.941243 -95.915271 
L 99.520993 -98.43303 
L 99.118792 -100.950789 
L 98.734521 -103.468548 
L 98.367981 -105.986307 
L 98.018895 -108.504066 
L 97.686913 -111.021824 
L 97.371615 -113.539583 
L 97.072521 -116.057342 
L 96.789093 -118.575101 
L 96.520746 -121.09286 
L 96.266848 -123.610619 
L 96.026737 -126.128378 
L 95.799719 -128.646137 
L 95.585083 -131.163896 
L 95.382102 -133.681655 
L 95.190048 -136.199414 
L 95.008192 -138.717173 
L 94.835818 -141.234932 
L 94.672226 -143.75269 
L 94.516739 -146.270449 
L 94.368714 -148.788208 
L 94.227541 -151.305967 
L 94.092655 -153.823726 
L 93.963538 -156.341485 
L 93.839724 -158.859244 
L 93.720802 -161.377003 
L 93.606423 -163.894762 
L 93.496299 -166.412521 
L 93.390205 -168.93028 
L 93.287984 -171.448039 
L 93.189544 -173.965797 
L 93.094861 -176.483556 
L 93.003977 -179.001315 
L 92.916996 -181.519074 
L 92.834089 -184.036833 
L 92.755486 -186.554592 
L 92.681474 -189.072351 
L 92.612398 -191.59011 
L 92.548651 -194.107869 
L 92.490672 -196.625628 
L 92.438945 -199.143387 
L 92.393988 -201.661146 
L 92.356355 -204.178905 
L 92.326622 -206.696663 
L 92.305392 -209.214422 
L 92.293278 -211.732181 
L 92.290909 -214.24994 
L 92.298915 -216.767699 
L 92.317928 -219.285458 
L 92.348574 -221.803217 
L 92.391465 -224.320976 
L 92.447202 -226.838735 
L 92.516363 -229.356494 
L 92.599501 -231.874253 
L 92.697142 -234.392012 
L 92.809778 -236.909771 
L 92.937865 -239.427529 
L 93.081822 -241.945288 
L 93.242023 -244.463047 
L 93.418803 -246.980806 
L 93.612446 -249.498565 
L 93.823194 -252.016324 
L 94.051237 -254.534083 
L 94.296717 -257.051842 
L 94.559726 -259.569601 
L 94.84031 -262.08736 
L 95.138459 -264.605119 
L 95.454121 -267.122878 
L 95.78719 -269.640637 
L 96.137517 -272.158395 
L 96.504904 -274.676154 
L 96.88911 -277.193913 
L 97.28985 -279.711672 
L 97.706797 -282.229431 
L 98.139585 -284.74719 
L 98.587808 -287.264949 
L 99.051026 -289.782708 
L 99.528763 -292.300467 
L 100.020509 -294.818226 
L 100.525727 -297.335985 
L 101.043848 -299.853744 
L 101.574277 -302.371502 
L 102.116394 -304.889261 
L 102.669555 -307.40702 
L 103.233095 -309.924779 
L 103.806329 -312.442538 
L 104.388555 -314.960297 
L 104.979052 -317.478056 
L 105.577087 -319.995815 
L 106.181912 -322.513574 
L 106.792768 -325.031333 
L 107.408887 -327.549092 
L 158.336567 -327.549092 
L 158.336567 -327.549092 
L 158.952686 -325.031333 
L 159.563543 -322.513574 
L 160.168368 -319.995815 
L 160.766402 -317.478056 
L 161.3569 -314.960297 
L 161.939125 -312.442538 
L 162.51236 -309.924779 
L 163.0759 -307.40702 
L 163.629061 -304.889261 
L 164.171177 -302.371502 
L 164.701606 -299.853744 
L 165.219727 -297.335985 
L 165.724945 -294.818226 
L 166.216692 -292.300467 
L 166.694428 -289.782708 
L 167.157646 -287.264949 
L 167.60587 -284.74719 
L 168.038658 -282.229431 
L 168.455605 -279.711672 
L 168.856345 -277.193913 
L 169.240551 -274.676154 
L 169.607938 -272.158395 
L 169.958265 -269.640637 
L 170.291334 -267.122878 
L 170.606995 -264.605119 
L 170.905145 -262.08736 
L 171.185728 -259.569601 
L 171.448738 -257.051842 
L 171.694218 -254.534083 
L 171.922261 -252.016324 
L 172.133008 -249.498565 
L 172.326652 -246.980806 
L 172.503431 -244.463047 
L 172.663633 -241.945288 
L 172.807589 -239.427529 
L 172.935677 -236.909771 
L 173.048313 -234.392012 
L 173.145953 -231.874253 
L 173.229092 -229.356494 
L 173.298253 -226.838735 
L 173.353989 -224.320976 
L 173.396881 -221.803217 
L 173.427526 -219.285458 
L 173.446539 -216.767699 
L 173.454545 -214.24994 
L 173.452176 -211.732181 
L 173.440063 -209.214422 
L 173.418832 -206.696663 
L 173.3891 -204.178905 
L 173.351466 -201.661146 
L 173.30651 -199.143387 
L 173.254783 -196.625628 
L 173.196804 -194.107869 
L 173.133056 -191.59011 
L 173.06398 -189.072351 
L 172.989969 -186.554592 
L 172.911366 -184.036833 
L 172.828459 -181.519074 
L 172.741478 -179.001315 
L 172.650593 -176.483556 
L 172.55591 -173.965797 
L 172.457471 -171.448039 
L 172.35525 -168.93028 
L 172.249156 -166.412521 
L 172.139032 -163.894762 
L 172.024652 -161.377003 
L 171.905731 -158.859244 
L 171.781917 -156.341485 
L 171.652799 -153.823726 
L 171.517914 -151.305967 
L 171.376741 -148.788208 
L 171.228715 -146.270449 
L 171.073229 -143.75269 
L 170.909637 -141.234932 
L 170.737263 -138.717173 
L 170.555407 -136.199414 
L 170.363352 -133.681655 
L 170.160372 -131.163896 
L 169.945735 -128.646137 
L 169.718718 -126.128378 
L 169.478606 -123.610619 
L 169.224709 -121.09286 
L 168.956361 -118.575101 
L 168.672934 -116.057342 
L 168.37384 -113.539583 
L 168.058542 -111.021824 
L 167.726559 -108.504066 
L 167.377474 -105.986307 
L 167.010934 -103.468548 
L 166.626663 -100.950789 
L 166.224462 -98.43303 
L 165.804212 -95.915271 
L 165.365882 -93.397512 
L 164.909527 -90.879753 
L 164.435291 -88.361994 
L 163.943411 -85.844235 
L 163.434214 -83.326476 
L 162.908115 -80.808717 
L 162.365622 -78.290958 
z
" id="m5ed5c07820" style="stroke:#ffffff;stroke-opacity:0.3;"/>
    </defs>
    <g clip-path="url(#pcb057307bc)">
     <use style="fill:#4c72b0;fill-opacity:0.3;stroke:#ffffff;stroke-opacity:0.3;" x="0" xlink:href="#m5ed5c07820" y="432"/>
    </g>
   </g>
   <g id="PolyCollection_2">
    <defs>
     <path d="M 310.767016 -71.675336 
L 279.632984 -71.675336 
L 279.364642 -74.641591 
L 279.101058 -77.607846 
L 278.84217 -80.5741 
L 278.587877 -83.540355 
L 278.338037 -86.50661 
L 278.092472 -89.472864 
L 277.85097 -92.439119 
L 277.613279 -95.405373 
L 277.379115 -98.371628 
L 277.148163 -101.337883 
L 276.920075 -104.304137 
L 276.694475 -107.270392 
L 276.470961 -110.236647 
L 276.249104 -113.202901 
L 276.028456 -116.169156 
L 275.808548 -119.135411 
L 275.588892 -122.101665 
L 275.368989 -125.06792 
L 275.148323 -128.034174 
L 274.926374 -131.000429 
L 274.702614 -133.966684 
L 274.47651 -136.932938 
L 274.24753 -139.899193 
L 274.015145 -142.865448 
L 273.778831 -145.831702 
L 273.538074 -148.797957 
L 273.292369 -151.764212 
L 273.041228 -154.730466 
L 272.784181 -157.696721 
L 272.520777 -160.662975 
L 272.250593 -163.62923 
L 271.973229 -166.595485 
L 271.688319 -169.561739 
L 271.395527 -172.527994 
L 271.094556 -175.494249 
L 270.785148 -178.460503 
L 270.467086 -181.426758 
L 270.140199 -184.393013 
L 269.804365 -187.359267 
L 269.459511 -190.325522 
L 269.105617 -193.291776 
L 268.742721 -196.258031 
L 268.370917 -199.224286 
L 267.990358 -202.19054 
L 267.601261 -205.156795 
L 267.203905 -208.12305 
L 266.798635 -211.089304 
L 266.385862 -214.055559 
L 265.966063 -217.021814 
L 265.539785 -219.988068 
L 265.107639 -222.954323 
L 264.670308 -225.920577 
L 264.228539 -228.886832 
L 263.783148 -231.853087 
L 263.335017 -234.819341 
L 262.885087 -237.785596 
L 262.434367 -240.751851 
L 261.98392 -243.718105 
L 261.534869 -246.68436 
L 261.088388 -249.650615 
L 260.645702 -252.616869 
L 260.208079 -255.583124 
L 259.77683 -258.549379 
L 259.3533 -261.515633 
L 258.938865 -264.481888 
L 258.534926 -267.448142 
L 258.142904 -270.414397 
L 257.764229 -273.380652 
L 257.400341 -276.346906 
L 257.052677 -279.313161 
L 256.722666 -282.279416 
L 256.411724 -285.24567 
L 256.121244 -288.211925 
L 255.85259 -291.17818 
L 255.607088 -294.144434 
L 255.386022 -297.110689 
L 255.190625 -300.076943 
L 255.022071 -303.043198 
L 254.881471 -306.009453 
L 254.769864 -308.975707 
L 254.688209 -311.941962 
L 254.637386 -314.908217 
L 254.618182 -317.874471 
L 254.631291 -320.840726 
L 254.677309 -323.806981 
L 254.756728 -326.773235 
L 254.869931 -329.73949 
L 255.017195 -332.705744 
L 255.198681 -335.671999 
L 255.414437 -338.638254 
L 255.664395 -341.604508 
L 255.948371 -344.570763 
L 256.266063 -347.537018 
L 256.617055 -350.503272 
L 257.000817 -353.469527 
L 257.416704 -356.435782 
L 257.863963 -359.402036 
L 258.341735 -362.368291 
L 258.849057 -365.334545 
L 331.550943 -365.334545 
L 331.550943 -365.334545 
L 332.058265 -362.368291 
L 332.536037 -359.402036 
L 332.983296 -356.435782 
L 333.399183 -353.469527 
L 333.782945 -350.503272 
L 334.133937 -347.537018 
L 334.451629 -344.570763 
L 334.735605 -341.604508 
L 334.985563 -338.638254 
L 335.201319 -335.671999 
L 335.382805 -332.705744 
L 335.530069 -329.73949 
L 335.643272 -326.773235 
L 335.722691 -323.806981 
L 335.768709 -320.840726 
L 335.781818 -317.874471 
L 335.762614 -314.908217 
L 335.711791 -311.941962 
L 335.630136 -308.975707 
L 335.518529 -306.009453 
L 335.377929 -303.043198 
L 335.209375 -300.076943 
L 335.013978 -297.110689 
L 334.792912 -294.144434 
L 334.54741 -291.17818 
L 334.278756 -288.211925 
L 333.988276 -285.24567 
L 333.677334 -282.279416 
L 333.347323 -279.313161 
L 332.999659 -276.346906 
L 332.635771 -273.380652 
L 332.257096 -270.414397 
L 331.865074 -267.448142 
L 331.461135 -264.481888 
L 331.0467 -261.515633 
L 330.62317 -258.549379 
L 330.191921 -255.583124 
L 329.754298 -252.616869 
L 329.311612 -249.650615 
L 328.865131 -246.68436 
L 328.41608 -243.718105 
L 327.965633 -240.751851 
L 327.514913 -237.785596 
L 327.064983 -234.819341 
L 326.616852 -231.853087 
L 326.171461 -228.886832 
L 325.729692 -225.920577 
L 325.292361 -222.954323 
L 324.860215 -219.988068 
L 324.433937 -217.021814 
L 324.014138 -214.055559 
L 323.601365 -211.089304 
L 323.196095 -208.12305 
L 322.798739 -205.156795 
L 322.409642 -202.19054 
L 322.029083 -199.224286 
L 321.657279 -196.258031 
L 321.294383 -193.291776 
L 320.940489 -190.325522 
L 320.595635 -187.359267 
L 320.259801 -184.393013 
L 319.932914 -181.426758 
L 319.614852 -178.460503 
L 319.305444 -175.494249 
L 319.004473 -172.527994 
L 318.711681 -169.561739 
L 318.426771 -166.595485 
L 318.149407 -163.62923 
L 317.879223 -160.662975 
L 317.615819 -157.696721 
L 317.358772 -154.730466 
L 317.107631 -151.764212 
L 316.861926 -148.797957 
L 316.621169 -145.831702 
L 316.384855 -142.865448 
L 316.15247 -139.899193 
L 315.92349 -136.932938 
L 315.697386 -133.966684 
L 315.473626 -131.000429 
L 315.251677 -128.034174 
L 315.031011 -125.06792 
L 314.811108 -122.101665 
L 314.591452 -119.135411 
L 314.371544 -116.169156 
L 314.150896 -113.202901 
L 313.929039 -110.236647 
L 313.705525 -107.270392 
L 313.479925 -104.304137 
L 313.251837 -101.337883 
L 313.020885 -98.371628 
L 312.786721 -95.405373 
L 312.54903 -92.439119 
L 312.307528 -89.472864 
L 312.061963 -86.50661 
L 311.812123 -83.540355 
L 311.55783 -80.5741 
L 311.298942 -77.607846 
L 311.035358 -74.641591 
L 310.767016 -71.675336 
z
" id="m895faf22a2" style="stroke:#ffffff;stroke-opacity:0.3;"/>
    </defs>
    <g clip-path="url(#pcb057307bc)">
     <use style="fill:#4c72b0;fill-opacity:0.3;stroke:#ffffff;stroke-opacity:0.3;" x="0" xlink:href="#m895faf22a2" y="432"/>
    </g>
   </g>
   <g id="PolyCollection_3">
    <defs>
     <path d="M 482.888533 -68.825455 
L 432.166013 -68.825455 
L 431.571453 -71.609683 
L 430.983026 -74.393911 
L 430.401474 -77.178139 
L 429.827527 -79.962368 
L 429.261894 -82.746596 
L 428.705265 -85.530824 
L 428.15831 -88.315052 
L 427.621672 -91.099281 
L 427.095969 -93.883509 
L 426.581789 -96.667737 
L 426.079692 -99.451966 
L 425.590202 -102.236194 
L 425.113813 -105.020422 
L 424.650977 -107.80465 
L 424.202111 -110.588879 
L 423.76759 -113.373107 
L 423.347747 -116.157335 
L 422.94287 -118.941564 
L 422.553203 -121.725792 
L 422.178941 -124.51002 
L 421.820232 -127.294248 
L 421.477174 -130.078477 
L 421.149813 -132.862705 
L 420.838148 -135.646933 
L 420.542122 -138.431161 
L 420.26163 -141.21539 
L 419.996516 -143.999618 
L 419.746572 -146.783846 
L 419.51154 -149.568075 
L 419.291118 -152.352303 
L 419.084953 -155.136531 
L 418.89265 -157.920759 
L 418.713775 -160.704988 
L 418.547851 -163.489216 
L 418.394368 -166.273444 
L 418.252786 -169.057672 
L 418.122535 -171.841901 
L 418.003024 -174.626129 
L 417.893643 -177.410357 
L 417.793771 -180.194586 
L 417.702776 -182.978814 
L 417.620026 -185.763042 
L 417.544894 -188.54727 
L 417.47676 -191.331499 
L 417.415021 -194.115727 
L 417.359094 -196.899955 
L 417.308425 -199.684184 
L 417.262492 -202.468412 
L 417.220813 -205.25264 
L 417.182947 -208.036868 
L 417.148507 -210.821097 
L 417.117156 -213.605325 
L 417.088619 -216.389553 
L 417.06268 -219.173781 
L 417.039194 -221.95801 
L 417.01808 -224.742238 
L 416.999332 -227.526466 
L 416.983016 -230.310695 
L 416.969273 -233.094923 
L 416.958318 -235.879151 
L 416.950442 -238.663379 
L 416.946009 -241.447608 
L 416.945455 -244.231836 
L 416.949286 -247.016064 
L 416.958076 -249.800292 
L 416.972461 -252.584521 
L 416.993137 -255.368749 
L 417.020852 -258.152977 
L 417.056405 -260.937206 
L 417.100636 -263.721434 
L 417.15442 -266.505662 
L 417.218661 -269.28989 
L 417.294287 -272.074119 
L 417.382237 -274.858347 
L 417.483455 -277.642575 
L 417.598886 -280.426804 
L 417.729461 -283.211032 
L 417.876095 -285.99526 
L 418.039673 -288.779488 
L 418.221046 -291.563717 
L 418.421022 -294.347945 
L 418.640358 -297.132173 
L 418.879752 -299.916401 
L 419.139837 -302.70063 
L 419.421173 -305.484858 
L 419.724245 -308.269086 
L 420.04945 -311.053315 
L 420.397102 -313.837543 
L 420.767417 -316.621771 
L 421.16052 -319.405999 
L 421.576433 -322.190228 
L 422.015081 -324.974456 
L 422.476283 -327.758684 
L 422.959759 -330.542913 
L 423.465123 -333.327141 
L 423.991891 -336.111369 
L 424.539478 -338.895597 
L 425.107201 -341.679826 
L 425.694285 -344.464054 
L 489.36026 -344.464054 
L 489.36026 -344.464054 
L 489.947345 -341.679826 
L 490.515068 -338.895597 
L 491.062655 -336.111369 
L 491.589423 -333.327141 
L 492.094787 -330.542913 
L 492.578262 -327.758684 
L 493.039465 -324.974456 
L 493.478112 -322.190228 
L 493.894026 -319.405999 
L 494.287128 -316.621771 
L 494.657444 -313.837543 
L 495.005095 -311.053315 
L 495.330301 -308.269086 
L 495.633372 -305.484858 
L 495.914709 -302.70063 
L 496.174793 -299.916401 
L 496.414187 -297.132173 
L 496.633523 -294.347945 
L 496.8335 -291.563717 
L 497.014873 -288.779488 
L 497.178451 -285.99526 
L 497.325084 -283.211032 
L 497.45566 -280.426804 
L 497.57109 -277.642575 
L 497.672309 -274.858347 
L 497.760258 -272.074119 
L 497.835884 -269.28989 
L 497.900126 -266.505662 
L 497.95391 -263.721434 
L 497.99814 -260.937206 
L 498.033693 -258.152977 
L 498.061408 -255.368749 
L 498.082084 -252.584521 
L 498.096469 -249.800292 
L 498.10526 -247.016064 
L 498.109091 -244.231836 
L 498.108537 -241.447608 
L 498.104103 -238.663379 
L 498.096227 -235.879151 
L 498.085272 -233.094923 
L 498.071529 -230.310695 
L 498.055213 -227.526466 
L 498.036465 -224.742238 
L 498.015352 -221.95801 
L 497.991865 -219.173781 
L 497.965927 -216.389553 
L 497.937389 -213.605325 
L 497.906039 -210.821097 
L 497.871598 -208.036868 
L 497.833733 -205.25264 
L 497.792053 -202.468412 
L 497.74612 -199.684184 
L 497.695451 -196.899955 
L 497.639524 -194.115727 
L 497.577785 -191.331499 
L 497.509651 -188.54727 
L 497.434519 -185.763042 
L 497.35177 -182.978814 
L 497.260775 -180.194586 
L 497.160902 -177.410357 
L 497.051522 -174.626129 
L 496.932011 -171.841901 
L 496.80176 -169.057672 
L 496.660177 -166.273444 
L 496.506695 -163.489216 
L 496.340771 -160.704988 
L 496.161895 -157.920759 
L 495.969593 -155.136531 
L 495.763428 -152.352303 
L 495.543005 -149.568075 
L 495.307974 -146.783846 
L 495.058029 -143.999618 
L 494.792915 -141.21539 
L 494.512423 -138.431161 
L 494.216398 -135.646933 
L 493.904732 -132.862705 
L 493.577372 -130.078477 
L 493.234313 -127.294248 
L 492.875604 -124.51002 
L 492.501342 -121.725792 
L 492.111675 -118.941564 
L 491.706798 -116.157335 
L 491.286955 -113.373107 
L 490.852434 -110.588879 
L 490.403568 -107.80465 
L 489.940733 -105.020422 
L 489.464343 -102.236194 
L 488.974854 -99.451966 
L 488.472757 -96.667737 
L 487.958577 -93.883509 
L 487.432873 -91.099281 
L 486.896235 -88.315052 
L 486.34928 -85.530824 
L 485.792652 -82.746596 
L 485.227019 -79.962368 
L 484.653071 -77.178139 
L 484.07152 -74.393911 
L 483.483092 -71.609683 
L 482.888533 -68.825455 
z
" id="m32b14f0ffb" style="stroke:#ffffff;stroke-opacity:0.3;"/>
    </defs>
    <g clip-path="url(#pcb057307bc)">
     <use style="fill:#4c72b0;fill-opacity:0.3;stroke:#ffffff;stroke-opacity:0.3;" x="0" xlink:href="#m32b14f0ffb" y="432"/>
    </g>
   </g>
   <g id="LineCollection_1">
    <path clip-path="url(#pcb057307bc)" d="M 112.581818 104.450908 
L 153.163636 104.450908 
" style="fill:none;stroke:#4c72b0;stroke-width:1.5;"/>
    <path clip-path="url(#pcb057307bc)" d="M 274.909091 66.665455 
L 315.490909 66.665455 
" style="fill:none;stroke:#4c72b0;stroke-width:1.5;"/>
    <path clip-path="url(#pcb057307bc)" d="M 437.236364 87.535946 
L 477.818182 87.535946 
" style="fill:none;stroke:#4c72b0;stroke-width:1.5;"/>
   </g>
   <g id="LineCollection_2">
    <path clip-path="url(#pcb057307bc)" d="M 112.581818 353.709042 
L 153.163636 353.709042 
" style="fill:none;stroke:#4c72b0;stroke-width:1.5;"/>
    <path clip-path="url(#pcb057307bc)" d="M 274.909091 360.324664 
L 315.490909 360.324664 
" style="fill:none;stroke:#4c72b0;stroke-width:1.5;"/>
    <path clip-path="url(#pcb057307bc)" d="M 437.236364 363.174545 
L 477.818182 363.174545 
" style="fill:none;stroke:#4c72b0;stroke-width:1.5;"/>
   </g>
   <g id="LineCollection_3">
    <path clip-path="url(#pcb057307bc)" d="M 132.872727 353.709042 
L 132.872727 104.450908 
" style="fill:none;stroke:#4c72b0;stroke-width:1.5;"/>
    <path clip-path="url(#pcb057307bc)" d="M 295.2 360.324664 
L 295.2 66.665455 
" style="fill:none;stroke:#4c72b0;stroke-width:1.5;"/>
    <path clip-path="url(#pcb057307bc)" d="M 457.527273 363.174545 
L 457.527273 87.535946 
" style="fill:none;stroke:#4c72b0;stroke-width:1.5;"/>
   </g>
   <g id="LineCollection_4">
    <path clip-path="url(#pcb057307bc)" d="M 112.581818 229.167475 
L 153.163636 229.167475 
" style="fill:none;stroke:#4c72b0;stroke-width:1.5;"/>
    <path clip-path="url(#pcb057307bc)" d="M 274.909091 138.641108 
L 315.490909 138.641108 
" style="fill:none;stroke:#4c72b0;stroke-width:1.5;"/>
    <path clip-path="url(#pcb057307bc)" d="M 437.236364 216.384115 
L 477.818182 216.384115 
" style="fill:none;stroke:#4c72b0;stroke-width:1.5;"/>
   </g>
   <g id="patch_3">
    <path d="M 72 378 
L 72 51.84 
" style="fill:none;stroke:#ffffff;stroke-linecap:square;stroke-linejoin:miter;stroke-width:1.25;"/>
   </g>
   <g id="patch_4">
    <path d="M 518.4 378 
L 518.4 51.84 
" style="fill:none;stroke:#ffffff;stroke-linecap:square;stroke-linejoin:miter;stroke-width:1.25;"/>
   </g>
   <g id="patch_5">
    <path d="M 72 378 
L 518.4 378 
" style="fill:none;stroke:#ffffff;stroke-linecap:square;stroke-linejoin:miter;stroke-width:1.25;"/>
   </g>
   <g id="patch_6">
    <path d="M 72 51.84 
L 518.4 51.84 
" style="fill:none;stroke:#ffffff;stroke-linecap:square;stroke-linejoin:miter;stroke-width:1.25;"/>
   </g>
   <g id="text_9">
    <!-- Gaussian noise STD: Island DNN (top 6 models) -->
    <g style="fill:#262626;" transform="translate(37.108125 45.84)scale(0.24 -0.24)">
     <defs>
      <path d="M 41.21875 28.078125 
L 41.21875 36.46875 
L 71.53125 36.53125 
L 71.53125 9.96875 
Q 64.546875 4.390625 57.125 1.578125 
Q 49.703125 -1.21875 41.890625 -1.21875 
Q 31.34375 -1.21875 22.71875 3.296875 
Q 14.109375 7.8125 9.71875 16.359375 
Q 5.328125 24.90625 5.328125 35.453125 
Q 5.328125 45.90625 9.6875 54.953125 
Q 14.0625 64.015625 22.265625 68.40625 
Q 30.46875 72.796875 41.15625 72.796875 
Q 48.921875 72.796875 55.1875 70.28125 
Q 61.46875 67.78125 65.03125 63.28125 
Q 68.609375 58.796875 70.453125 51.5625 
L 61.921875 49.21875 
Q 60.296875 54.6875 57.90625 57.8125 
Q 55.515625 60.9375 51.0625 62.8125 
Q 46.625 64.703125 41.21875 64.703125 
Q 34.71875 64.703125 29.984375 62.71875 
Q 25.25 60.75 22.34375 57.515625 
Q 19.4375 54.296875 17.828125 50.4375 
Q 15.09375 43.796875 15.09375 36.03125 
Q 15.09375 26.46875 18.390625 20.015625 
Q 21.6875 13.578125 27.984375 10.453125 
Q 34.28125 7.328125 41.359375 7.328125 
Q 47.515625 7.328125 53.375 9.6875 
Q 59.234375 12.0625 62.25 14.75 
L 62.25 28.078125 
z
" id="ArialMT-71"/>
      <path d="M 40.578125 0 
L 40.578125 7.625 
Q 34.515625 -1.171875 24.125 -1.171875 
Q 19.53125 -1.171875 15.546875 0.578125 
Q 11.578125 2.34375 9.640625 5 
Q 7.71875 7.671875 6.9375 11.53125 
Q 6.390625 14.109375 6.390625 19.734375 
L 6.390625 51.859375 
L 15.1875 51.859375 
L 15.1875 23.09375 
Q 15.1875 16.21875 15.71875 13.8125 
Q 16.546875 10.359375 19.234375 8.375 
Q 21.921875 6.390625 25.875 6.390625 
Q 29.828125 6.390625 33.296875 8.421875 
Q 36.765625 10.453125 38.203125 13.9375 
Q 39.65625 17.4375 39.65625 24.078125 
L 39.65625 51.859375 
L 48.4375 51.859375 
L 48.4375 0 
z
" id="ArialMT-117"/>
      <path d="M 9.03125 41.84375 
L 9.03125 51.859375 
L 19.046875 51.859375 
L 19.046875 41.84375 
z
M 9.03125 0 
L 9.03125 10.015625 
L 19.046875 10.015625 
L 19.046875 0 
z
" id="ArialMT-58"/>
      <path d="M 9.328125 0 
L 9.328125 71.578125 
L 18.796875 71.578125 
L 18.796875 0 
z
" id="ArialMT-73"/>
      <path d="M 6.390625 0 
L 6.390625 71.578125 
L 15.1875 71.578125 
L 15.1875 0 
z
" id="ArialMT-108"/>
      <path d="M 23.390625 -21.046875 
Q 16.109375 -11.859375 11.078125 0.4375 
Q 6.0625 12.75 6.0625 25.921875 
Q 6.0625 37.546875 9.8125 48.1875 
Q 14.203125 60.546875 23.390625 72.796875 
L 29.6875 72.796875 
Q 23.78125 62.640625 21.875 58.296875 
Q 18.890625 51.5625 17.1875 44.234375 
Q 15.09375 35.109375 15.09375 25.875 
Q 15.09375 2.390625 29.6875 -21.046875 
z
" id="ArialMT-40"/>
      <path d="M 6.59375 -19.875 
L 6.59375 51.859375 
L 14.59375 51.859375 
L 14.59375 45.125 
Q 17.4375 49.078125 21 51.046875 
Q 24.5625 53.03125 29.640625 53.03125 
Q 36.28125 53.03125 41.359375 49.609375 
Q 46.4375 46.1875 49.015625 39.953125 
Q 51.609375 33.734375 51.609375 26.3125 
Q 51.609375 18.359375 48.75 11.984375 
Q 45.90625 5.609375 40.453125 2.21875 
Q 35.015625 -1.171875 29 -1.171875 
Q 24.609375 -1.171875 21.109375 0.6875 
Q 17.625 2.546875 15.375 5.375 
L 15.375 -19.875 
z
M 14.546875 25.640625 
Q 14.546875 15.625 18.59375 10.84375 
Q 22.65625 6.0625 28.421875 6.0625 
Q 34.28125 6.0625 38.453125 11.015625 
Q 42.625 15.96875 42.625 26.375 
Q 42.625 36.28125 38.546875 41.203125 
Q 34.46875 46.140625 28.8125 46.140625 
Q 23.1875 46.140625 18.859375 40.890625 
Q 14.546875 35.640625 14.546875 25.640625 
z
" id="ArialMT-112"/>
      <path d="M 49.75 54.046875 
L 41.015625 53.375 
Q 39.84375 58.546875 37.703125 60.890625 
Q 34.125 64.65625 28.90625 64.65625 
Q 24.703125 64.65625 21.53125 62.3125 
Q 17.390625 59.28125 14.984375 53.46875 
Q 12.59375 47.65625 12.5 36.921875 
Q 15.671875 41.75 20.265625 44.09375 
Q 24.859375 46.4375 29.890625 46.4375 
Q 38.671875 46.4375 44.84375 39.96875 
Q 51.03125 33.5 51.03125 23.25 
Q 51.03125 16.5 48.125 10.71875 
Q 45.21875 4.9375 40.140625 1.859375 
Q 35.0625 -1.21875 28.609375 -1.21875 
Q 17.625 -1.21875 10.6875 6.859375 
Q 3.765625 14.9375 3.765625 33.5 
Q 3.765625 54.25 11.421875 63.671875 
Q 18.109375 71.875 29.4375 71.875 
Q 37.890625 71.875 43.28125 67.140625 
Q 48.6875 62.40625 49.75 54.046875 
z
M 13.875 23.1875 
Q 13.875 18.65625 15.796875 14.5 
Q 17.71875 10.359375 21.1875 8.171875 
Q 24.65625 6 28.46875 6 
Q 34.03125 6 38.03125 10.484375 
Q 42.046875 14.984375 42.046875 22.703125 
Q 42.046875 30.125 38.078125 34.390625 
Q 34.125 38.671875 28.125 38.671875 
Q 22.171875 38.671875 18.015625 34.390625 
Q 13.875 30.125 13.875 23.1875 
z
" id="ArialMT-54"/>
      <path d="M 6.59375 0 
L 6.59375 51.859375 
L 14.453125 51.859375 
L 14.453125 44.578125 
Q 16.890625 48.390625 20.9375 50.703125 
Q 25 53.03125 30.171875 53.03125 
Q 35.9375 53.03125 39.625 50.640625 
Q 43.3125 48.25 44.828125 43.953125 
Q 50.984375 53.03125 60.84375 53.03125 
Q 68.5625 53.03125 72.703125 48.75 
Q 76.859375 44.484375 76.859375 35.59375 
L 76.859375 0 
L 68.109375 0 
L 68.109375 32.671875 
Q 68.109375 37.9375 67.25 40.25 
Q 66.40625 42.578125 64.15625 43.984375 
Q 61.921875 45.40625 58.890625 45.40625 
Q 53.421875 45.40625 49.796875 41.765625 
Q 46.1875 38.140625 46.1875 30.125 
L 46.1875 0 
L 37.40625 0 
L 37.40625 33.6875 
Q 37.40625 39.546875 35.25 42.46875 
Q 33.109375 45.40625 28.21875 45.40625 
Q 24.515625 45.40625 21.359375 43.453125 
Q 18.21875 41.5 16.796875 37.734375 
Q 15.375 33.984375 15.375 26.90625 
L 15.375 0 
z
" id="ArialMT-109"/>
      <path d="M 12.359375 -21.046875 
L 6.0625 -21.046875 
Q 20.65625 2.390625 20.65625 25.875 
Q 20.65625 35.0625 18.5625 44.09375 
Q 16.890625 51.421875 13.921875 58.15625 
Q 12.015625 62.546875 6.0625 72.796875 
L 12.359375 72.796875 
Q 21.53125 60.546875 25.921875 48.1875 
Q 29.6875 37.546875 29.6875 25.921875 
Q 29.6875 12.75 24.625 0.4375 
Q 19.578125 -11.859375 12.359375 -21.046875 
z
" id="ArialMT-41"/>
     </defs>
     <use xlink:href="#ArialMT-71"/>
     <use x="77.783203" xlink:href="#ArialMT-97"/>
     <use x="133.398438" xlink:href="#ArialMT-117"/>
     <use x="189.013672" xlink:href="#ArialMT-115"/>
     <use x="239.013672" xlink:href="#ArialMT-115"/>
     <use x="289.013672" xlink:href="#ArialMT-105"/>
     <use x="311.230469" xlink:href="#ArialMT-97"/>
     <use x="366.845703" xlink:href="#ArialMT-110"/>
     <use x="422.460938" xlink:href="#ArialMT-32"/>
     <use x="450.244141" xlink:href="#ArialMT-110"/>
     <use x="505.859375" xlink:href="#ArialMT-111"/>
     <use x="561.474609" xlink:href="#ArialMT-105"/>
     <use x="583.691406" xlink:href="#ArialMT-115"/>
     <use x="633.691406" xlink:href="#ArialMT-101"/>
     <use x="689.306641" xlink:href="#ArialMT-32"/>
     <use x="717.089844" xlink:href="#ArialMT-83"/>
     <use x="783.789062" xlink:href="#ArialMT-84"/>
     <use x="844.873047" xlink:href="#ArialMT-68"/>
     <use x="917.089844" xlink:href="#ArialMT-58"/>
     <use x="944.873047" xlink:href="#ArialMT-32"/>
     <use x="972.65625" xlink:href="#ArialMT-73"/>
     <use x="1000.439453" xlink:href="#ArialMT-115"/>
     <use x="1050.439453" xlink:href="#ArialMT-108"/>
     <use x="1072.65625" xlink:href="#ArialMT-97"/>
     <use x="1128.271484" xlink:href="#ArialMT-110"/>
     <use x="1183.886719" xlink:href="#ArialMT-100"/>
     <use x="1239.501953" xlink:href="#ArialMT-32"/>
     <use x="1267.285156" xlink:href="#ArialMT-68"/>
     <use x="1339.501953" xlink:href="#ArialMT-78"/>
     <use x="1411.71875" xlink:href="#ArialMT-78"/>
     <use x="1483.935547" xlink:href="#ArialMT-32"/>
     <use x="1511.71875" xlink:href="#ArialMT-40"/>
     <use x="1545.019531" xlink:href="#ArialMT-116"/>
     <use x="1572.802734" xlink:href="#ArialMT-111"/>
     <use x="1628.417969" xlink:href="#ArialMT-112"/>
     <use x="1684.033203" xlink:href="#ArialMT-32"/>
     <use x="1711.816406" xlink:href="#ArialMT-54"/>
     <use x="1767.431641" xlink:href="#ArialMT-32"/>
     <use x="1795.214844" xlink:href="#ArialMT-109"/>
     <use x="1878.515625" xlink:href="#ArialMT-111"/>
     <use x="1934.130859" xlink:href="#ArialMT-100"/>
     <use x="1989.746094" xlink:href="#ArialMT-101"/>
     <use x="2045.361328" xlink:href="#ArialMT-108"/>
     <use x="2067.578125" xlink:href="#ArialMT-115"/>
     <use x="2117.578125" xlink:href="#ArialMT-41"/>
    </g>
   </g>
  </g>
 </g>
 <defs>
  <clipPath id="pcb057307bc">
   <rect height="326.16" width="446.4" x="72" y="51.84"/>
  </clipPath>
 </defs>
</svg>
