<?xml version="1.0" encoding="utf-8" standalone="no"?>
<!DOCTYPE svg PUBLIC "-//W3C//DTD SVG 1.1//EN"
  "http://www.w3.org/Graphics/SVG/1.1/DTD/svg11.dtd">
<!-- Created with matplotlib (https://matplotlib.org/) -->
<svg height="432pt" version="1.1" viewBox="0 0 576 432" width="576pt" xmlns="http://www.w3.org/2000/svg" xmlns:xlink="http://www.w3.org/1999/xlink">
 <defs>
  <style type="text/css">
*{stroke-linecap:butt;stroke-linejoin:round;white-space:pre;}
  </style>
 </defs>
 <g id="figure_1">
  <g id="patch_1">
   <path d="M 0 432 
L 576 432 
L 576 0 
L 0 0 
z
" style="fill:#ffffff;"/>
  </g>
  <g id="axes_1">
   <g id="patch_2">
    <path d="M 72 378 
L 518.4 378 
L 518.4 51.84 
L 72 51.84 
z
" style="fill:#eaeaf2;"/>
   </g>
   <g id="matplotlib.axis_1">
    <g id="xtick_1">
     <g id="line2d_1">
      <path clip-path="url(#pd4d40c74d2)" d="M 132.872727 378 
L 132.872727 51.84 
" style="fill:none;stroke:#ffffff;stroke-linecap:round;"/>
     </g>
     <g id="text_1">
      <!-- First -->
      <defs>
       <path d="M 8.203125 0 
L 8.203125 71.578125 
L 56.5 71.578125 
L 56.5 63.140625 
L 17.671875 63.140625 
L 17.671875 40.96875 
L 51.265625 40.96875 
L 51.265625 32.515625 
L 17.671875 32.515625 
L 17.671875 0 
z
" id="ArialMT-70"/>
       <path d="M 6.640625 61.46875 
L 6.640625 71.578125 
L 15.4375 71.578125 
L 15.4375 61.46875 
z
M 6.640625 0 
L 6.640625 51.859375 
L 15.4375 51.859375 
L 15.4375 0 
z
" id="ArialMT-105"/>
       <path d="M 6.5 0 
L 6.5 51.859375 
L 14.40625 51.859375 
L 14.40625 44 
Q 17.4375 49.515625 20 51.265625 
Q 22.5625 53.03125 25.640625 53.03125 
Q 30.078125 53.03125 34.671875 50.203125 
L 31.640625 42.046875 
Q 28.421875 43.953125 25.203125 43.953125 
Q 22.3125 43.953125 20.015625 42.21875 
Q 17.71875 40.484375 16.75 37.40625 
Q 15.28125 32.71875 15.28125 27.15625 
L 15.28125 0 
z
" id="ArialMT-114"/>
       <path d="M 3.078125 15.484375 
L 11.765625 16.84375 
Q 12.5 11.625 15.84375 8.84375 
Q 19.1875 6.0625 25.203125 6.0625 
Q 31.25 6.0625 34.171875 8.515625 
Q 37.109375 10.984375 37.109375 14.3125 
Q 37.109375 17.28125 34.515625 19 
Q 32.71875 20.171875 25.53125 21.96875 
Q 15.875 24.421875 12.140625 26.203125 
Q 8.40625 27.984375 6.46875 31.125 
Q 4.546875 34.28125 4.546875 38.09375 
Q 4.546875 41.546875 6.125 44.5 
Q 7.71875 47.46875 10.453125 49.421875 
Q 12.5 50.921875 16.03125 51.96875 
Q 19.578125 53.03125 23.640625 53.03125 
Q 29.734375 53.03125 34.34375 51.265625 
Q 38.96875 49.515625 41.15625 46.5 
Q 43.359375 43.5 44.1875 38.484375 
L 35.59375 37.3125 
Q 35.015625 41.3125 32.203125 43.546875 
Q 29.390625 45.796875 24.265625 45.796875 
Q 18.21875 45.796875 15.625 43.796875 
Q 13.03125 41.796875 13.03125 39.109375 
Q 13.03125 37.40625 14.109375 36.03125 
Q 15.1875 34.625 17.484375 33.6875 
Q 18.796875 33.203125 25.25 31.453125 
Q 34.578125 28.953125 38.25 27.359375 
Q 41.9375 25.78125 44.03125 22.75 
Q 46.140625 19.734375 46.140625 15.234375 
Q 46.140625 10.84375 43.578125 6.953125 
Q 41.015625 3.078125 36.171875 0.953125 
Q 31.34375 -1.171875 25.25 -1.171875 
Q 15.140625 -1.171875 9.84375 3.03125 
Q 4.546875 7.234375 3.078125 15.484375 
z
" id="ArialMT-115"/>
       <path d="M 25.78125 7.859375 
L 27.046875 0.09375 
Q 23.34375 -0.6875 20.40625 -0.6875 
Q 15.625 -0.6875 12.984375 0.828125 
Q 10.359375 2.34375 9.28125 4.8125 
Q 8.203125 7.28125 8.203125 15.1875 
L 8.203125 45.015625 
L 1.765625 45.015625 
L 1.765625 51.859375 
L 8.203125 51.859375 
L 8.203125 64.703125 
L 16.9375 69.96875 
L 16.9375 51.859375 
L 25.78125 51.859375 
L 25.78125 45.015625 
L 16.9375 45.015625 
L 16.9375 14.703125 
Q 16.9375 10.9375 17.40625 9.859375 
Q 17.875 8.796875 18.921875 8.15625 
Q 19.96875 7.515625 21.921875 7.515625 
Q 23.390625 7.515625 25.78125 7.859375 
z
" id="ArialMT-116"/>
      </defs>
      <g style="fill:#262626;" transform="translate(111.491477 403.247187)scale(0.22 -0.22)">
       <use xlink:href="#ArialMT-70"/>
       <use x="61.083984" xlink:href="#ArialMT-105"/>
       <use x="83.300781" xlink:href="#ArialMT-114"/>
       <use x="116.601562" xlink:href="#ArialMT-115"/>
       <use x="166.601562" xlink:href="#ArialMT-116"/>
      </g>
     </g>
    </g>
    <g id="xtick_2">
     <g id="line2d_2">
      <path clip-path="url(#pd4d40c74d2)" d="M 295.2 378 
L 295.2 51.84 
" style="fill:none;stroke:#ffffff;stroke-linecap:round;"/>
     </g>
     <g id="text_2">
      <!-- Second -->
      <defs>
       <path d="M 4.5 23 
L 13.421875 23.78125 
Q 14.0625 18.40625 16.375 14.96875 
Q 18.703125 11.53125 23.578125 9.40625 
Q 28.46875 7.28125 34.578125 7.28125 
Q 39.984375 7.28125 44.140625 8.890625 
Q 48.296875 10.5 50.3125 13.296875 
Q 52.34375 16.109375 52.34375 19.4375 
Q 52.34375 22.796875 50.390625 25.3125 
Q 48.4375 27.828125 43.953125 29.546875 
Q 41.0625 30.671875 31.203125 33.03125 
Q 21.34375 35.40625 17.390625 37.5 
Q 12.25 40.1875 9.734375 44.15625 
Q 7.234375 48.140625 7.234375 53.078125 
Q 7.234375 58.5 10.296875 63.203125 
Q 13.375 67.921875 19.28125 70.359375 
Q 25.203125 72.796875 32.421875 72.796875 
Q 40.375 72.796875 46.453125 70.234375 
Q 52.546875 67.671875 55.8125 62.6875 
Q 59.078125 57.71875 59.328125 51.421875 
L 50.25 50.734375 
Q 49.515625 57.515625 45.28125 60.984375 
Q 41.0625 64.453125 32.8125 64.453125 
Q 24.21875 64.453125 20.28125 61.296875 
Q 16.359375 58.15625 16.359375 53.71875 
Q 16.359375 49.859375 19.140625 47.359375 
Q 21.875 44.875 33.421875 42.265625 
Q 44.96875 39.65625 49.265625 37.703125 
Q 55.515625 34.8125 58.484375 30.390625 
Q 61.46875 25.984375 61.46875 20.21875 
Q 61.46875 14.5 58.203125 9.4375 
Q 54.9375 4.390625 48.796875 1.578125 
Q 42.671875 -1.21875 35.015625 -1.21875 
Q 25.296875 -1.21875 18.71875 1.609375 
Q 12.15625 4.4375 8.421875 10.125 
Q 4.6875 15.828125 4.5 23 
z
" id="ArialMT-83"/>
       <path d="M 42.09375 16.703125 
L 51.171875 15.578125 
Q 49.03125 7.625 43.21875 3.21875 
Q 37.40625 -1.171875 28.375 -1.171875 
Q 17 -1.171875 10.328125 5.828125 
Q 3.65625 12.84375 3.65625 25.484375 
Q 3.65625 38.578125 10.390625 45.796875 
Q 17.140625 53.03125 27.875 53.03125 
Q 38.28125 53.03125 44.875 45.953125 
Q 51.46875 38.875 51.46875 26.03125 
Q 51.46875 25.25 51.421875 23.6875 
L 12.75 23.6875 
Q 13.234375 15.140625 17.578125 10.59375 
Q 21.921875 6.0625 28.421875 6.0625 
Q 33.25 6.0625 36.671875 8.59375 
Q 40.09375 11.140625 42.09375 16.703125 
z
M 13.234375 30.90625 
L 42.1875 30.90625 
Q 41.609375 37.453125 38.875 40.71875 
Q 34.671875 45.796875 27.984375 45.796875 
Q 21.921875 45.796875 17.796875 41.75 
Q 13.671875 37.703125 13.234375 30.90625 
z
" id="ArialMT-101"/>
       <path d="M 40.4375 19 
L 49.078125 17.875 
Q 47.65625 8.9375 41.8125 3.875 
Q 35.984375 -1.171875 27.484375 -1.171875 
Q 16.84375 -1.171875 10.375 5.78125 
Q 3.90625 12.75 3.90625 25.734375 
Q 3.90625 34.125 6.6875 40.421875 
Q 9.46875 46.734375 15.15625 49.875 
Q 20.84375 53.03125 27.546875 53.03125 
Q 35.984375 53.03125 41.359375 48.75 
Q 46.734375 44.484375 48.25 36.625 
L 39.703125 35.296875 
Q 38.484375 40.53125 35.375 43.15625 
Q 32.28125 45.796875 27.875 45.796875 
Q 21.234375 45.796875 17.078125 41.03125 
Q 12.9375 36.28125 12.9375 25.984375 
Q 12.9375 15.53125 16.9375 10.796875 
Q 20.953125 6.0625 27.390625 6.0625 
Q 32.5625 6.0625 36.03125 9.234375 
Q 39.5 12.40625 40.4375 19 
z
" id="ArialMT-99"/>
       <path d="M 3.328125 25.921875 
Q 3.328125 40.328125 11.328125 47.265625 
Q 18.015625 53.03125 27.640625 53.03125 
Q 38.328125 53.03125 45.109375 46.015625 
Q 51.90625 39.015625 51.90625 26.65625 
Q 51.90625 16.65625 48.90625 10.90625 
Q 45.90625 5.171875 40.15625 2 
Q 34.421875 -1.171875 27.640625 -1.171875 
Q 16.75 -1.171875 10.03125 5.8125 
Q 3.328125 12.796875 3.328125 25.921875 
z
M 12.359375 25.921875 
Q 12.359375 15.96875 16.703125 11.015625 
Q 21.046875 6.0625 27.640625 6.0625 
Q 34.1875 6.0625 38.53125 11.03125 
Q 42.875 16.015625 42.875 26.21875 
Q 42.875 35.84375 38.5 40.796875 
Q 34.125 45.75 27.640625 45.75 
Q 21.046875 45.75 16.703125 40.8125 
Q 12.359375 35.890625 12.359375 25.921875 
z
" id="ArialMT-111"/>
       <path d="M 6.59375 0 
L 6.59375 51.859375 
L 14.5 51.859375 
L 14.5 44.484375 
Q 20.21875 53.03125 31 53.03125 
Q 35.6875 53.03125 39.625 51.34375 
Q 43.5625 49.65625 45.515625 46.921875 
Q 47.46875 44.1875 48.25 40.4375 
Q 48.734375 37.984375 48.734375 31.890625 
L 48.734375 0 
L 39.9375 0 
L 39.9375 31.546875 
Q 39.9375 36.921875 38.90625 39.578125 
Q 37.890625 42.234375 35.28125 43.8125 
Q 32.671875 45.40625 29.15625 45.40625 
Q 23.53125 45.40625 19.453125 41.84375 
Q 15.375 38.28125 15.375 28.328125 
L 15.375 0 
z
" id="ArialMT-110"/>
       <path d="M 40.234375 0 
L 40.234375 6.546875 
Q 35.296875 -1.171875 25.734375 -1.171875 
Q 19.53125 -1.171875 14.328125 2.25 
Q 9.125 5.671875 6.265625 11.796875 
Q 3.421875 17.921875 3.421875 25.875 
Q 3.421875 33.640625 6 39.96875 
Q 8.59375 46.296875 13.765625 49.65625 
Q 18.953125 53.03125 25.34375 53.03125 
Q 30.03125 53.03125 33.6875 51.046875 
Q 37.359375 49.078125 39.65625 45.90625 
L 39.65625 71.578125 
L 48.390625 71.578125 
L 48.390625 0 
z
M 12.453125 25.875 
Q 12.453125 15.921875 16.640625 10.984375 
Q 20.84375 6.0625 26.5625 6.0625 
Q 32.328125 6.0625 36.34375 10.765625 
Q 40.375 15.484375 40.375 25.140625 
Q 40.375 35.796875 36.265625 40.765625 
Q 32.171875 45.75 26.171875 45.75 
Q 20.3125 45.75 16.375 40.96875 
Q 12.453125 36.1875 12.453125 25.875 
z
" id="ArialMT-100"/>
      </defs>
      <g style="fill:#262626;" transform="translate(257.894531 403.247187)scale(0.22 -0.22)">
       <use xlink:href="#ArialMT-83"/>
       <use x="66.699219" xlink:href="#ArialMT-101"/>
       <use x="122.314453" xlink:href="#ArialMT-99"/>
       <use x="172.314453" xlink:href="#ArialMT-111"/>
       <use x="227.929688" xlink:href="#ArialMT-110"/>
       <use x="283.544922" xlink:href="#ArialMT-100"/>
      </g>
     </g>
    </g>
    <g id="xtick_3">
     <g id="line2d_3">
      <path clip-path="url(#pd4d40c74d2)" d="M 457.527273 378 
L 457.527273 51.84 
" style="fill:none;stroke:#ffffff;stroke-linecap:round;"/>
     </g>
     <g id="text_3">
      <!-- Third -->
      <defs>
       <path d="M 25.921875 0 
L 25.921875 63.140625 
L 2.34375 63.140625 
L 2.34375 71.578125 
L 59.078125 71.578125 
L 59.078125 63.140625 
L 35.40625 63.140625 
L 35.40625 0 
z
" id="ArialMT-84"/>
       <path d="M 6.59375 0 
L 6.59375 71.578125 
L 15.375 71.578125 
L 15.375 45.90625 
Q 21.53125 53.03125 30.90625 53.03125 
Q 36.671875 53.03125 40.921875 50.75 
Q 45.171875 48.484375 47 44.484375 
Q 48.828125 40.484375 48.828125 32.859375 
L 48.828125 0 
L 40.046875 0 
L 40.046875 32.859375 
Q 40.046875 39.453125 37.1875 42.453125 
Q 34.328125 45.453125 29.109375 45.453125 
Q 25.203125 45.453125 21.75 43.421875 
Q 18.3125 41.40625 16.84375 37.9375 
Q 15.375 34.46875 15.375 28.375 
L 15.375 0 
z
" id="ArialMT-104"/>
      </defs>
      <g style="fill:#262626;" transform="translate(432.467898 403.247187)scale(0.22 -0.22)">
       <use xlink:href="#ArialMT-84"/>
       <use x="61.083984" xlink:href="#ArialMT-104"/>
       <use x="116.699219" xlink:href="#ArialMT-105"/>
       <use x="138.916016" xlink:href="#ArialMT-114"/>
       <use x="172.216797" xlink:href="#ArialMT-100"/>
      </g>
     </g>
    </g>
    <g id="text_4">
     <!-- RNN Layers -->
     <defs>
      <path d="M 7.859375 0 
L 7.859375 71.578125 
L 39.59375 71.578125 
Q 49.171875 71.578125 54.140625 69.640625 
Q 59.125 67.71875 62.109375 62.828125 
Q 65.09375 57.953125 65.09375 52.046875 
Q 65.09375 44.4375 60.15625 39.203125 
Q 55.21875 33.984375 44.921875 32.5625 
Q 48.6875 30.765625 50.640625 29 
Q 54.78125 25.203125 58.5 19.484375 
L 70.953125 0 
L 59.03125 0 
L 49.5625 14.890625 
Q 45.40625 21.34375 42.71875 24.75 
Q 40.046875 28.171875 37.921875 29.53125 
Q 35.796875 30.90625 33.59375 31.453125 
Q 31.984375 31.78125 28.328125 31.78125 
L 17.328125 31.78125 
L 17.328125 0 
z
M 17.328125 39.984375 
L 37.703125 39.984375 
Q 44.1875 39.984375 47.84375 41.328125 
Q 51.515625 42.671875 53.421875 45.625 
Q 55.328125 48.578125 55.328125 52.046875 
Q 55.328125 57.125 51.640625 60.390625 
Q 47.953125 63.671875 39.984375 63.671875 
L 17.328125 63.671875 
z
" id="ArialMT-82"/>
      <path d="M 7.625 0 
L 7.625 71.578125 
L 17.328125 71.578125 
L 54.9375 15.375 
L 54.9375 71.578125 
L 64.015625 71.578125 
L 64.015625 0 
L 54.296875 0 
L 16.703125 56.25 
L 16.703125 0 
z
" id="ArialMT-78"/>
      <path id="ArialMT-32"/>
      <path d="M 7.328125 0 
L 7.328125 71.578125 
L 16.796875 71.578125 
L 16.796875 8.453125 
L 52.046875 8.453125 
L 52.046875 0 
z
" id="ArialMT-76"/>
      <path d="M 40.4375 6.390625 
Q 35.546875 2.25 31.03125 0.53125 
Q 26.515625 -1.171875 21.34375 -1.171875 
Q 12.796875 -1.171875 8.203125 3 
Q 3.609375 7.171875 3.609375 13.671875 
Q 3.609375 17.484375 5.34375 20.625 
Q 7.078125 23.78125 9.890625 25.6875 
Q 12.703125 27.59375 16.21875 28.5625 
Q 18.796875 29.25 24.03125 29.890625 
Q 34.671875 31.15625 39.703125 32.90625 
Q 39.75 34.71875 39.75 35.203125 
Q 39.75 40.578125 37.25 42.78125 
Q 33.890625 45.75 27.25 45.75 
Q 21.046875 45.75 18.09375 43.578125 
Q 15.140625 41.40625 13.71875 35.890625 
L 5.125 37.0625 
Q 6.296875 42.578125 8.984375 45.96875 
Q 11.671875 49.359375 16.75 51.1875 
Q 21.828125 53.03125 28.515625 53.03125 
Q 35.15625 53.03125 39.296875 51.46875 
Q 43.453125 49.90625 45.40625 47.53125 
Q 47.359375 45.171875 48.140625 41.546875 
Q 48.578125 39.3125 48.578125 33.453125 
L 48.578125 21.734375 
Q 48.578125 9.46875 49.140625 6.21875 
Q 49.703125 2.984375 51.375 0 
L 42.1875 0 
Q 40.828125 2.734375 40.4375 6.390625 
z
M 39.703125 26.03125 
Q 34.90625 24.078125 25.34375 22.703125 
Q 19.921875 21.921875 17.671875 20.9375 
Q 15.4375 19.96875 14.203125 18.09375 
Q 12.984375 16.21875 12.984375 13.921875 
Q 12.984375 10.40625 15.640625 8.0625 
Q 18.3125 5.71875 23.4375 5.71875 
Q 28.515625 5.71875 32.46875 7.9375 
Q 36.421875 10.15625 38.28125 14.015625 
Q 39.703125 17 39.703125 22.796875 
z
" id="ArialMT-97"/>
      <path d="M 6.203125 -19.96875 
L 5.21875 -11.71875 
Q 8.109375 -12.5 10.25 -12.5 
Q 13.1875 -12.5 14.9375 -11.515625 
Q 16.703125 -10.546875 17.828125 -8.796875 
Q 18.65625 -7.46875 20.515625 -2.25 
Q 20.75 -1.515625 21.296875 -0.09375 
L 1.609375 51.859375 
L 11.078125 51.859375 
L 21.875 21.828125 
Q 23.96875 16.109375 25.640625 9.8125 
Q 27.15625 15.875 29.25 21.625 
L 40.328125 51.859375 
L 49.125 51.859375 
L 29.390625 -0.875 
Q 26.21875 -9.421875 24.46875 -12.640625 
Q 22.125 -17 19.09375 -19.015625 
Q 16.0625 -21.046875 11.859375 -21.046875 
Q 9.328125 -21.046875 6.203125 -19.96875 
z
" id="ArialMT-121"/>
     </defs>
     <g style="fill:#262626;" transform="translate(229.8525 428.798437)scale(0.24 -0.24)">
      <use xlink:href="#ArialMT-82"/>
      <use x="72.216797" xlink:href="#ArialMT-78"/>
      <use x="144.433594" xlink:href="#ArialMT-78"/>
      <use x="216.650391" xlink:href="#ArialMT-32"/>
      <use x="244.433594" xlink:href="#ArialMT-76"/>
      <use x="300.048828" xlink:href="#ArialMT-97"/>
      <use x="355.664062" xlink:href="#ArialMT-121"/>
      <use x="405.664062" xlink:href="#ArialMT-101"/>
      <use x="461.279297" xlink:href="#ArialMT-114"/>
      <use x="494.580078" xlink:href="#ArialMT-115"/>
     </g>
    </g>
   </g>
   <g id="matplotlib.axis_2">
    <g id="ytick_1">
     <g id="line2d_4">
      <path clip-path="url(#pd4d40c74d2)" d="M 72 298.491527 
L 518.4 298.491527 
" style="fill:none;stroke:#ffffff;stroke-linecap:round;"/>
     </g>
     <g id="text_5">
      <!-- 0.2 -->
      <defs>
       <path d="M 4.15625 35.296875 
Q 4.15625 48 6.765625 55.734375 
Q 9.375 63.484375 14.515625 67.671875 
Q 19.671875 71.875 27.484375 71.875 
Q 33.25 71.875 37.59375 69.546875 
Q 41.9375 67.234375 44.765625 62.859375 
Q 47.609375 58.5 49.21875 52.21875 
Q 50.828125 45.953125 50.828125 35.296875 
Q 50.828125 22.703125 48.234375 14.96875 
Q 45.65625 7.234375 40.5 3 
Q 35.359375 -1.21875 27.484375 -1.21875 
Q 17.140625 -1.21875 11.234375 6.203125 
Q 4.15625 15.140625 4.15625 35.296875 
z
M 13.1875 35.296875 
Q 13.1875 17.671875 17.3125 11.828125 
Q 21.4375 6 27.484375 6 
Q 33.546875 6 37.671875 11.859375 
Q 41.796875 17.71875 41.796875 35.296875 
Q 41.796875 52.984375 37.671875 58.78125 
Q 33.546875 64.59375 27.390625 64.59375 
Q 21.34375 64.59375 17.71875 59.46875 
Q 13.1875 52.9375 13.1875 35.296875 
z
" id="ArialMT-48"/>
       <path d="M 9.078125 0 
L 9.078125 10.015625 
L 19.09375 10.015625 
L 19.09375 0 
z
" id="ArialMT-46"/>
       <path d="M 50.34375 8.453125 
L 50.34375 0 
L 3.03125 0 
Q 2.9375 3.171875 4.046875 6.109375 
Q 5.859375 10.9375 9.828125 15.625 
Q 13.8125 20.3125 21.34375 26.46875 
Q 33.015625 36.03125 37.109375 41.625 
Q 41.21875 47.21875 41.21875 52.203125 
Q 41.21875 57.421875 37.46875 61 
Q 33.734375 64.59375 27.734375 64.59375 
Q 21.390625 64.59375 17.578125 60.78125 
Q 13.765625 56.984375 13.71875 50.25 
L 4.6875 51.171875 
Q 5.609375 61.28125 11.65625 66.578125 
Q 17.71875 71.875 27.9375 71.875 
Q 38.234375 71.875 44.234375 66.15625 
Q 50.25 60.453125 50.25 52 
Q 50.25 47.703125 48.484375 43.546875 
Q 46.734375 39.40625 42.65625 34.8125 
Q 38.578125 30.21875 29.109375 22.21875 
Q 21.1875 15.578125 18.9375 13.203125 
Q 16.703125 10.84375 15.234375 8.453125 
z
" id="ArialMT-50"/>
      </defs>
      <g style="fill:#262626;" transform="translate(31.92 306.365121)scale(0.22 -0.22)">
       <use xlink:href="#ArialMT-48"/>
       <use x="55.615234" xlink:href="#ArialMT-46"/>
       <use x="83.398438" xlink:href="#ArialMT-50"/>
      </g>
     </g>
    </g>
    <g id="ytick_2">
     <g id="line2d_5">
      <path clip-path="url(#pd4d40c74d2)" d="M 72 216.314097 
L 518.4 216.314097 
" style="fill:none;stroke:#ffffff;stroke-linecap:round;"/>
     </g>
     <g id="text_6">
      <!-- 0.3 -->
      <defs>
       <path d="M 4.203125 18.890625 
L 12.984375 20.0625 
Q 14.5 12.59375 18.140625 9.296875 
Q 21.78125 6 27 6 
Q 33.203125 6 37.46875 10.296875 
Q 41.75 14.59375 41.75 20.953125 
Q 41.75 27 37.796875 30.921875 
Q 33.84375 34.859375 27.734375 34.859375 
Q 25.25 34.859375 21.53125 33.890625 
L 22.515625 41.609375 
Q 23.390625 41.5 23.921875 41.5 
Q 29.546875 41.5 34.03125 44.421875 
Q 38.53125 47.359375 38.53125 53.46875 
Q 38.53125 58.296875 35.25 61.46875 
Q 31.984375 64.65625 26.8125 64.65625 
Q 21.6875 64.65625 18.265625 61.421875 
Q 14.84375 58.203125 13.875 51.765625 
L 5.078125 53.328125 
Q 6.6875 62.15625 12.390625 67.015625 
Q 18.109375 71.875 26.609375 71.875 
Q 32.46875 71.875 37.390625 69.359375 
Q 42.328125 66.84375 44.9375 62.5 
Q 47.5625 58.15625 47.5625 53.265625 
Q 47.5625 48.640625 45.0625 44.828125 
Q 42.578125 41.015625 37.703125 38.765625 
Q 44.046875 37.3125 47.5625 32.6875 
Q 51.078125 28.078125 51.078125 21.140625 
Q 51.078125 11.765625 44.234375 5.25 
Q 37.40625 -1.265625 26.953125 -1.265625 
Q 17.53125 -1.265625 11.296875 4.34375 
Q 5.078125 9.96875 4.203125 18.890625 
z
" id="ArialMT-51"/>
      </defs>
      <g style="fill:#262626;" transform="translate(31.92 224.187691)scale(0.22 -0.22)">
       <use xlink:href="#ArialMT-48"/>
       <use x="55.615234" xlink:href="#ArialMT-46"/>
       <use x="83.398438" xlink:href="#ArialMT-51"/>
      </g>
     </g>
    </g>
    <g id="ytick_3">
     <g id="line2d_6">
      <path clip-path="url(#pd4d40c74d2)" d="M 72 134.136667 
L 518.4 134.136667 
" style="fill:none;stroke:#ffffff;stroke-linecap:round;"/>
     </g>
     <g id="text_7">
      <!-- 0.4 -->
      <defs>
       <path d="M 32.328125 0 
L 32.328125 17.140625 
L 1.265625 17.140625 
L 1.265625 25.203125 
L 33.9375 71.578125 
L 41.109375 71.578125 
L 41.109375 25.203125 
L 50.78125 25.203125 
L 50.78125 17.140625 
L 41.109375 17.140625 
L 41.109375 0 
z
M 32.328125 25.203125 
L 32.328125 57.46875 
L 9.90625 25.203125 
z
" id="ArialMT-52"/>
      </defs>
      <g style="fill:#262626;" transform="translate(31.92 142.010261)scale(0.22 -0.22)">
       <use xlink:href="#ArialMT-48"/>
       <use x="55.615234" xlink:href="#ArialMT-46"/>
       <use x="83.398438" xlink:href="#ArialMT-52"/>
      </g>
     </g>
    </g>
    <g id="ytick_4">
     <g id="line2d_7">
      <path clip-path="url(#pd4d40c74d2)" d="M 72 51.959237 
L 518.4 51.959237 
" style="fill:none;stroke:#ffffff;stroke-linecap:round;"/>
     </g>
     <g id="text_8">
      <!-- 0.5 -->
      <defs>
       <path d="M 4.15625 18.75 
L 13.375 19.53125 
Q 14.40625 12.796875 18.140625 9.390625 
Q 21.875 6 27.15625 6 
Q 33.5 6 37.890625 10.78125 
Q 42.28125 15.578125 42.28125 23.484375 
Q 42.28125 31 38.0625 35.34375 
Q 33.84375 39.703125 27 39.703125 
Q 22.75 39.703125 19.328125 37.765625 
Q 15.921875 35.84375 13.96875 32.765625 
L 5.71875 33.84375 
L 12.640625 70.609375 
L 48.25 70.609375 
L 48.25 62.203125 
L 19.671875 62.203125 
L 15.828125 42.96875 
Q 22.265625 47.46875 29.34375 47.46875 
Q 38.71875 47.46875 45.15625 40.96875 
Q 51.609375 34.46875 51.609375 24.265625 
Q 51.609375 14.546875 45.953125 7.46875 
Q 39.0625 -1.21875 27.15625 -1.21875 
Q 17.390625 -1.21875 11.203125 4.25 
Q 5.03125 9.71875 4.15625 18.75 
z
" id="ArialMT-53"/>
      </defs>
      <g style="fill:#262626;" transform="translate(31.92 59.832831)scale(0.22 -0.22)">
       <use xlink:href="#ArialMT-48"/>
       <use x="55.615234" xlink:href="#ArialMT-46"/>
       <use x="83.398438" xlink:href="#ArialMT-53"/>
      </g>
     </g>
    </g>
    <g id="text_9">
     <!-- STD -->
     <defs>
      <path d="M 7.71875 0 
L 7.71875 71.578125 
L 32.375 71.578125 
Q 40.71875 71.578125 45.125 70.5625 
Q 51.265625 69.140625 55.609375 65.4375 
Q 61.28125 60.640625 64.078125 53.1875 
Q 66.890625 45.75 66.890625 36.1875 
Q 66.890625 28.03125 64.984375 21.734375 
Q 63.09375 15.4375 60.109375 11.296875 
Q 57.125 7.171875 53.578125 4.796875 
Q 50.046875 2.4375 45.046875 1.21875 
Q 40.046875 0 33.546875 0 
z
M 17.1875 8.453125 
L 32.46875 8.453125 
Q 39.546875 8.453125 43.578125 9.765625 
Q 47.609375 11.078125 50 13.484375 
Q 53.375 16.84375 55.25 22.53125 
Q 57.125 28.21875 57.125 36.328125 
Q 57.125 47.5625 53.4375 53.59375 
Q 49.75 59.625 44.484375 61.671875 
Q 40.671875 63.140625 32.234375 63.140625 
L 17.1875 63.140625 
z
" id="ArialMT-68"/>
     </defs>
     <g style="fill:#262626;" transform="translate(23.15 238.92)rotate(-90)scale(0.24 -0.24)">
      <use xlink:href="#ArialMT-83"/>
      <use x="66.699219" xlink:href="#ArialMT-84"/>
      <use x="127.783203" xlink:href="#ArialMT-68"/>
     </g>
    </g>
   </g>
   <g id="PolyCollection_1">
    <defs>
     <path d="M 146.574316 -77.860701 
L 119.171139 -77.860701 
L 118.821271 -80.463922 
L 118.479484 -83.067144 
L 118.145944 -85.670365 
L 117.82071 -88.273586 
L 117.503735 -90.876808 
L 117.194868 -93.480029 
L 116.893861 -96.08325 
L 116.600369 -98.686471 
L 116.313962 -101.289693 
L 116.034129 -103.892914 
L 115.760291 -106.496135 
L 115.491806 -109.099357 
L 115.227982 -111.702578 
L 114.968089 -114.305799 
L 114.711369 -116.909021 
L 114.457046 -119.512242 
L 114.204341 -122.115463 
L 113.952479 -124.718684 
L 113.700701 -127.321906 
L 113.448277 -129.925127 
L 113.194508 -132.528348 
L 112.93874 -135.13157 
L 112.680368 -137.734791 
L 112.418842 -140.338012 
L 112.153671 -142.941233 
L 111.884426 -145.544455 
L 111.610741 -148.147676 
L 111.332314 -150.750897 
L 111.048906 -153.354119 
L 110.760336 -155.95734 
L 110.466481 -158.560561 
L 110.167271 -161.163782 
L 109.86268 -163.767004 
L 109.552724 -166.370225 
L 109.237452 -168.973446 
L 108.916942 -171.576668 
L 108.591291 -174.179889 
L 108.260607 -176.78311 
L 107.925006 -179.386331 
L 107.584605 -181.989553 
L 107.239514 -184.592774 
L 106.889831 -187.195995 
L 106.535643 -189.799217 
L 106.177016 -192.402438 
L 105.814 -195.005659 
L 105.446623 -197.60888 
L 105.074898 -200.212102 
L 104.69882 -202.815323 
L 104.318371 -205.418544 
L 103.933529 -208.021766 
L 103.544271 -210.624987 
L 103.150581 -213.228208 
L 102.75246 -215.831429 
L 102.349938 -218.434651 
L 101.943081 -221.037872 
L 101.532006 -223.641093 
L 101.116893 -226.244315 
L 100.697995 -228.847536 
L 100.275654 -231.450757 
L 99.850313 -234.053979 
L 99.422526 -236.6572 
L 98.992972 -239.260421 
L 98.562464 -241.863642 
L 98.131957 -244.466864 
L 97.702558 -247.070085 
L 97.275533 -249.673306 
L 96.852305 -252.276528 
L 96.434462 -254.879749 
L 96.023753 -257.48297 
L 95.622085 -260.086191 
L 95.231518 -262.689413 
L 94.854256 -265.292634 
L 94.492632 -267.895855 
L 94.1491 -270.499077 
L 93.826212 -273.102298 
L 93.526602 -275.705519 
L 93.252963 -278.30874 
L 93.008018 -280.911962 
L 92.794503 -283.515183 
L 92.61513 -286.118404 
L 92.47256 -288.721626 
L 92.369377 -291.324847 
L 92.30805 -293.928068 
L 92.290909 -296.531289 
L 92.320109 -299.134511 
L 92.397604 -301.737732 
L 92.525117 -304.340953 
L 92.704115 -306.944175 
L 92.935781 -309.547396 
L 93.221 -312.150617 
L 93.560332 -314.753838 
L 93.954006 -317.35706 
L 94.4019 -319.960281 
L 94.903542 -322.563502 
L 95.458099 -325.166724 
L 96.064387 -327.769945 
L 96.720868 -330.373166 
L 97.425666 -332.976388 
L 98.176576 -335.579609 
L 167.568878 -335.579609 
L 167.568878 -335.579609 
L 168.319789 -332.976388 
L 169.024586 -330.373166 
L 169.681068 -327.769945 
L 170.287355 -325.166724 
L 170.841913 -322.563502 
L 171.343554 -319.960281 
L 171.791449 -317.35706 
L 172.185122 -314.753838 
L 172.524455 -312.150617 
L 172.809673 -309.547396 
L 173.04134 -306.944175 
L 173.220337 -304.340953 
L 173.34785 -301.737732 
L 173.425345 -299.134511 
L 173.454545 -296.531289 
L 173.437404 -293.928068 
L 173.376078 -291.324847 
L 173.272894 -288.721626 
L 173.130325 -286.118404 
L 172.950951 -283.515183 
L 172.737436 -280.911962 
L 172.492492 -278.30874 
L 172.218852 -275.705519 
L 171.919243 -273.102298 
L 171.596355 -270.499077 
L 171.252823 -267.895855 
L 170.891199 -265.292634 
L 170.513936 -262.689413 
L 170.123369 -260.086191 
L 169.721702 -257.48297 
L 169.310993 -254.879749 
L 168.89315 -252.276528 
L 168.469922 -249.673306 
L 168.042896 -247.070085 
L 167.613498 -244.466864 
L 167.182991 -241.863642 
L 166.752482 -239.260421 
L 166.322928 -236.6572 
L 165.895142 -234.053979 
L 165.469801 -231.450757 
L 165.04746 -228.847536 
L 164.628562 -226.244315 
L 164.213448 -223.641093 
L 163.802373 -221.037872 
L 163.395516 -218.434651 
L 162.992994 -215.831429 
L 162.594874 -213.228208 
L 162.201184 -210.624987 
L 161.811925 -208.021766 
L 161.427084 -205.418544 
L 161.046635 -202.815323 
L 160.670556 -200.212102 
L 160.298831 -197.60888 
L 159.931455 -195.005659 
L 159.568438 -192.402438 
L 159.209812 -189.799217 
L 158.855623 -187.195995 
L 158.505941 -184.592774 
L 158.160849 -181.989553 
L 157.820448 -179.386331 
L 157.484848 -176.78311 
L 157.154164 -174.179889 
L 156.828512 -171.576668 
L 156.508002 -168.973446 
L 156.192731 -166.370225 
L 155.882775 -163.767004 
L 155.578184 -161.163782 
L 155.278973 -158.560561 
L 154.985119 -155.95734 
L 154.696549 -153.354119 
L 154.41314 -150.750897 
L 154.134713 -148.147676 
L 153.861028 -145.544455 
L 153.591783 -142.941233 
L 153.326612 -140.338012 
L 153.065086 -137.734791 
L 152.806715 -135.13157 
L 152.550947 -132.528348 
L 152.297178 -129.925127 
L 152.044753 -127.321906 
L 151.792976 -124.718684 
L 151.541114 -122.115463 
L 151.288408 -119.512242 
L 151.034085 -116.909021 
L 150.777365 -114.305799 
L 150.517472 -111.702578 
L 150.253649 -109.099357 
L 149.985163 -106.496135 
L 149.711325 -103.892914 
L 149.431493 -101.289693 
L 149.145086 -98.686471 
L 148.851594 -96.08325 
L 148.550586 -93.480029 
L 148.24172 -90.876808 
L 147.924744 -88.273586 
L 147.59951 -85.670365 
L 147.26597 -83.067144 
L 146.924184 -80.463922 
L 146.574316 -77.860701 
z
" id="mced807f011" style="stroke:#ffffff;stroke-opacity:0.3;"/>
    </defs>
    <g clip-path="url(#pd4d40c74d2)">
     <use style="fill:#4c72b0;fill-opacity:0.3;stroke:#ffffff;stroke-opacity:0.3;" x="0" xlink:href="#mced807f011" y="432"/>
    </g>
   </g>
   <g id="PolyCollection_2">
    <defs>
     <path d="M 321.02832 -71.545794 
L 269.37168 -71.545794 
L 268.966499 -74.386699 
L 268.581909 -77.227605 
L 268.218026 -80.06851 
L 267.87484 -82.909415 
L 267.552216 -85.750321 
L 267.249903 -88.591226 
L 266.967532 -91.432131 
L 266.704626 -94.273037 
L 266.460607 -97.113942 
L 266.234802 -99.954847 
L 266.026452 -102.795753 
L 265.83472 -105.636658 
L 265.658699 -108.477563 
L 265.497425 -111.318469 
L 265.349883 -114.159374 
L 265.215015 -117.000279 
L 265.091733 -119.841185 
L 264.978926 -122.68209 
L 264.875468 -125.522995 
L 264.780227 -128.363901 
L 264.692074 -131.204806 
L 264.609886 -134.045711 
L 264.532556 -136.886616 
L 264.458998 -139.727522 
L 264.388154 -142.568427 
L 264.318994 -145.409332 
L 264.250523 -148.250238 
L 264.181786 -151.091143 
L 264.111867 -153.932048 
L 264.039894 -156.772954 
L 263.965039 -159.613859 
L 263.886521 -162.454764 
L 263.803607 -165.29567 
L 263.71561 -168.136575 
L 263.621894 -170.97748 
L 263.52187 -173.818386 
L 263.415 -176.659291 
L 263.300797 -179.500196 
L 263.178823 -182.341102 
L 263.048691 -185.182007 
L 262.910067 -188.022912 
L 262.762671 -190.863818 
L 262.606276 -193.704723 
L 262.440711 -196.545628 
L 262.265862 -199.386533 
L 262.081676 -202.227439 
L 261.888162 -205.068344 
L 261.68539 -207.909249 
L 261.473499 -210.750155 
L 261.252696 -213.59106 
L 261.02326 -216.431965 
L 260.785542 -219.272871 
L 260.539972 -222.113776 
L 260.287056 -224.954681 
L 260.027383 -227.795587 
L 259.76162 -230.636492 
L 259.490521 -233.477397 
L 259.214924 -236.318303 
L 258.935747 -239.159208 
L 258.653996 -242.000113 
L 258.370757 -244.841019 
L 258.087199 -247.681924 
L 257.804567 -250.522829 
L 257.524182 -253.363735 
L 257.247436 -256.20464 
L 256.975786 -259.045545 
L 256.71075 -261.88645 
L 256.453901 -264.727356 
L 256.206854 -267.568261 
L 255.971267 -270.409166 
L 255.748824 -273.250072 
L 255.541232 -276.090977 
L 255.350207 -278.931882 
L 255.177464 -281.772788 
L 255.024708 -284.613693 
L 254.893621 -287.454598 
L 254.785852 -290.295504 
L 254.703003 -293.136409 
L 254.646621 -295.977314 
L 254.618182 -298.81822 
L 254.619084 -301.659125 
L 254.650631 -304.50003 
L 254.714029 -307.340936 
L 254.810367 -310.181841 
L 254.940615 -313.022746 
L 255.105611 -315.863652 
L 255.306053 -318.704557 
L 255.542495 -321.545462 
L 255.815334 -324.386367 
L 256.124811 -327.227273 
L 256.471007 -330.068178 
L 256.853832 -332.909083 
L 257.273033 -335.749989 
L 257.728187 -338.590894 
L 258.218704 -341.431799 
L 258.743829 -344.272705 
L 259.302643 -347.11361 
L 259.89407 -349.954515 
L 260.516883 -352.795421 
L 329.883117 -352.795421 
L 329.883117 -352.795421 
L 330.50593 -349.954515 
L 331.097357 -347.11361 
L 331.656171 -344.272705 
L 332.181296 -341.431799 
L 332.671813 -338.590894 
L 333.126967 -335.749989 
L 333.546168 -332.909083 
L 333.928993 -330.068178 
L 334.275189 -327.227273 
L 334.584666 -324.386367 
L 334.857505 -321.545462 
L 335.093947 -318.704557 
L 335.294389 -315.863652 
L 335.459385 -313.022746 
L 335.589633 -310.181841 
L 335.685971 -307.340936 
L 335.749369 -304.50003 
L 335.780916 -301.659125 
L 335.781818 -298.81822 
L 335.753379 -295.977314 
L 335.696997 -293.136409 
L 335.614148 -290.295504 
L 335.506379 -287.454598 
L 335.375292 -284.613693 
L 335.222536 -281.772788 
L 335.049793 -278.931882 
L 334.858768 -276.090977 
L 334.651176 -273.250072 
L 334.428733 -270.409166 
L 334.193146 -267.568261 
L 333.946099 -264.727356 
L 333.68925 -261.88645 
L 333.424214 -259.045545 
L 333.152564 -256.20464 
L 332.875818 -253.363735 
L 332.595433 -250.522829 
L 332.312801 -247.681924 
L 332.029243 -244.841019 
L 331.746004 -242.000113 
L 331.464253 -239.159208 
L 331.185076 -236.318303 
L 330.909479 -233.477397 
L 330.63838 -230.636492 
L 330.372617 -227.795587 
L 330.112944 -224.954681 
L 329.860028 -222.113776 
L 329.614458 -219.272871 
L 329.37674 -216.431965 
L 329.147304 -213.59106 
L 328.926501 -210.750155 
L 328.71461 -207.909249 
L 328.511838 -205.068344 
L 328.318324 -202.227439 
L 328.134138 -199.386533 
L 327.959289 -196.545628 
L 327.793724 -193.704723 
L 327.637329 -190.863818 
L 327.489933 -188.022912 
L 327.351309 -185.182007 
L 327.221177 -182.341102 
L 327.099203 -179.500196 
L 326.985 -176.659291 
L 326.87813 -173.818386 
L 326.778106 -170.97748 
L 326.68439 -168.136575 
L 326.596393 -165.29567 
L 326.513479 -162.454764 
L 326.434961 -159.613859 
L 326.360106 -156.772954 
L 326.288133 -153.932048 
L 326.218214 -151.091143 
L 326.149477 -148.250238 
L 326.081006 -145.409332 
L 326.011846 -142.568427 
L 325.941002 -139.727522 
L 325.867444 -136.886616 
L 325.790114 -134.045711 
L 325.707926 -131.204806 
L 325.619773 -128.363901 
L 325.524532 -125.522995 
L 325.421074 -122.68209 
L 325.308267 -119.841185 
L 325.184985 -117.000279 
L 325.050117 -114.159374 
L 324.902575 -111.318469 
L 324.741301 -108.477563 
L 324.56528 -105.636658 
L 324.373548 -102.795753 
L 324.165198 -99.954847 
L 323.939393 -97.113942 
L 323.695374 -94.273037 
L 323.432468 -91.432131 
L 323.150097 -88.591226 
L 322.847784 -85.750321 
L 322.52516 -82.909415 
L 322.181974 -80.06851 
L 321.818091 -77.227605 
L 321.433501 -74.386699 
L 321.02832 -71.545794 
z
" id="m5825c7fa1a" style="stroke:#ffffff;stroke-opacity:0.3;"/>
    </defs>
    <g clip-path="url(#pd4d40c74d2)">
     <use style="fill:#4c72b0;fill-opacity:0.3;stroke:#ffffff;stroke-opacity:0.3;" x="0" xlink:href="#m5825c7fa1a" y="432"/>
    </g>
   </g>
   <g id="PolyCollection_3">
    <defs>
     <path d="M 487.117427 -68.825455 
L 427.937119 -68.825455 
L 427.210996 -71.820496 
L 426.505442 -74.815537 
L 425.821487 -77.810579 
L 425.160035 -80.80562 
L 424.521874 -83.800661 
L 423.907677 -86.795702 
L 423.31801 -89.790744 
L 422.753343 -92.785785 
L 422.214057 -95.780826 
L 421.700454 -98.775868 
L 421.212769 -101.770909 
L 420.75118 -104.76595 
L 420.315815 -107.760992 
L 419.906767 -110.756033 
L 419.524097 -113.751074 
L 419.167846 -116.746116 
L 418.838042 -119.741157 
L 418.534701 -122.736198 
L 418.257838 -125.73124 
L 418.007461 -128.726281 
L 417.783581 -131.721322 
L 417.586204 -134.716364 
L 417.415335 -137.711405 
L 417.27097 -140.706446 
L 417.153095 -143.701488 
L 417.061677 -146.696529 
L 416.996661 -149.69157 
L 416.957962 -152.686612 
L 416.945455 -155.681653 
L 416.958968 -158.676694 
L 416.998277 -161.671736 
L 417.063095 -164.666777 
L 417.153064 -167.661818 
L 417.267754 -170.65686 
L 417.40665 -173.651901 
L 417.569152 -176.646942 
L 417.754571 -179.641983 
L 417.962125 -182.637025 
L 418.190941 -185.632066 
L 418.440052 -188.627107 
L 418.708405 -191.622149 
L 418.994859 -194.61719 
L 419.298195 -197.612231 
L 419.617118 -200.607273 
L 419.950271 -203.602314 
L 420.296241 -206.597355 
L 420.65357 -209.592397 
L 421.020769 -212.587438 
L 421.396327 -215.582479 
L 421.778727 -218.577521 
L 422.16646 -221.572562 
L 422.558038 -224.567603 
L 422.952008 -227.562645 
L 423.346967 -230.557686 
L 423.741576 -233.552727 
L 424.134571 -236.547769 
L 424.524781 -239.54281 
L 424.911133 -242.537851 
L 425.292669 -245.532893 
L 425.668552 -248.527934 
L 426.038074 -251.522975 
L 426.400666 -254.518017 
L 426.755901 -257.513058 
L 427.103499 -260.508099 
L 427.443327 -263.50314 
L 427.775403 -266.498182 
L 428.09989 -269.493223 
L 428.417098 -272.488264 
L 428.727474 -275.483306 
L 429.0316 -278.478347 
L 429.330181 -281.473388 
L 429.624039 -284.46843 
L 429.914099 -287.463471 
L 430.201376 -290.458512 
L 430.486967 -293.453554 
L 430.772029 -296.448595 
L 431.057768 -299.443636 
L 431.345424 -302.438678 
L 431.636252 -305.433719 
L 431.931505 -308.42876 
L 432.23242 -311.423802 
L 432.540201 -314.418843 
L 432.856002 -317.413884 
L 433.180912 -320.408926 
L 433.515939 -323.403967 
L 433.862001 -326.399008 
L 434.219909 -329.39405 
L 434.590357 -332.389091 
L 434.973915 -335.384132 
L 435.371018 -338.379174 
L 435.78196 -341.374215 
L 436.206892 -344.369256 
L 436.645816 -347.364298 
L 437.098587 -350.359339 
L 437.564911 -353.35438 
L 438.044349 -356.349421 
L 438.536322 -359.344463 
L 439.040116 -362.339504 
L 439.554891 -365.334545 
L 475.499654 -365.334545 
L 475.499654 -365.334545 
L 476.014429 -362.339504 
L 476.518223 -359.344463 
L 477.010197 -356.349421 
L 477.489635 -353.35438 
L 477.955958 -350.359339 
L 478.408729 -347.364298 
L 478.847654 -344.369256 
L 479.272586 -341.374215 
L 479.683528 -338.379174 
L 480.080631 -335.384132 
L 480.464189 -332.389091 
L 480.834637 -329.39405 
L 481.192545 -326.399008 
L 481.538607 -323.403967 
L 481.873634 -320.408926 
L 482.198543 -317.413884 
L 482.514344 -314.418843 
L 482.822125 -311.423802 
L 483.123041 -308.42876 
L 483.418294 -305.433719 
L 483.709121 -302.438678 
L 483.996777 -299.443636 
L 484.282517 -296.448595 
L 484.567578 -293.453554 
L 484.853169 -290.458512 
L 485.140447 -287.463471 
L 485.430506 -284.46843 
L 485.724364 -281.473388 
L 486.022946 -278.478347 
L 486.327072 -275.483306 
L 486.637448 -272.488264 
L 486.954656 -269.493223 
L 487.279143 -266.498182 
L 487.611219 -263.50314 
L 487.951047 -260.508099 
L 488.298644 -257.513058 
L 488.65388 -254.518017 
L 489.016472 -251.522975 
L 489.385994 -248.527934 
L 489.761876 -245.532893 
L 490.143412 -242.537851 
L 490.529764 -239.54281 
L 490.919974 -236.547769 
L 491.31297 -233.552727 
L 491.707578 -230.557686 
L 492.102537 -227.562645 
L 492.496507 -224.567603 
L 492.888085 -221.572562 
L 493.275818 -218.577521 
L 493.658219 -215.582479 
L 494.033777 -212.587438 
L 494.400975 -209.592397 
L 494.758305 -206.597355 
L 495.104275 -203.602314 
L 495.437428 -200.607273 
L 495.756351 -197.612231 
L 496.059686 -194.61719 
L 496.34614 -191.622149 
L 496.614493 -188.627107 
L 496.863605 -185.632066 
L 497.092421 -182.637025 
L 497.299975 -179.641983 
L 497.485393 -176.646942 
L 497.647896 -173.651901 
L 497.786791 -170.65686 
L 497.901481 -167.661818 
L 497.991451 -164.666777 
L 498.056269 -161.671736 
L 498.095578 -158.676694 
L 498.109091 -155.681653 
L 498.096583 -152.686612 
L 498.057884 -149.69157 
L 497.992869 -146.696529 
L 497.901451 -143.701488 
L 497.783575 -140.706446 
L 497.63921 -137.711405 
L 497.468341 -134.716364 
L 497.270964 -131.721322 
L 497.047084 -128.726281 
L 496.796708 -125.73124 
L 496.519844 -122.736198 
L 496.216504 -119.741157 
L 495.886699 -116.746116 
L 495.530449 -113.751074 
L 495.147779 -110.756033 
L 494.73873 -107.760992 
L 494.303365 -104.76595 
L 493.841776 -101.770909 
L 493.354092 -98.775868 
L 492.840489 -95.780826 
L 492.301203 -92.785785 
L 491.736535 -89.790744 
L 491.146868 -86.795702 
L 490.532671 -83.800661 
L 489.89451 -80.80562 
L 489.233059 -77.810579 
L 488.549103 -74.815537 
L 487.843549 -71.820496 
L 487.117427 -68.825455 
z
" id="m2b9bab4a90" style="stroke:#ffffff;stroke-opacity:0.3;"/>
    </defs>
    <g clip-path="url(#pd4d40c74d2)">
     <use style="fill:#4c72b0;fill-opacity:0.3;stroke:#ffffff;stroke-opacity:0.3;" x="0" xlink:href="#m2b9bab4a90" y="432"/>
    </g>
   </g>
   <g id="LineCollection_1">
    <path clip-path="url(#pd4d40c74d2)" d="M 112.581818 96.420391 
L 153.163636 96.420391 
" style="fill:none;stroke:#4c72b0;stroke-width:1.5;"/>
    <path clip-path="url(#pd4d40c74d2)" d="M 274.909091 79.204579 
L 315.490909 79.204579 
" style="fill:none;stroke:#4c72b0;stroke-width:1.5;"/>
    <path clip-path="url(#pd4d40c74d2)" d="M 437.236364 66.665455 
L 477.818182 66.665455 
" style="fill:none;stroke:#4c72b0;stroke-width:1.5;"/>
   </g>
   <g id="LineCollection_2">
    <path clip-path="url(#pd4d40c74d2)" d="M 112.581818 354.139299 
L 153.163636 354.139299 
" style="fill:none;stroke:#4c72b0;stroke-width:1.5;"/>
    <path clip-path="url(#pd4d40c74d2)" d="M 274.909091 360.454206 
L 315.490909 360.454206 
" style="fill:none;stroke:#4c72b0;stroke-width:1.5;"/>
    <path clip-path="url(#pd4d40c74d2)" d="M 437.236364 363.174545 
L 477.818182 363.174545 
" style="fill:none;stroke:#4c72b0;stroke-width:1.5;"/>
   </g>
   <g id="LineCollection_3">
    <path clip-path="url(#pd4d40c74d2)" d="M 132.872727 354.139299 
L 132.872727 96.420391 
" style="fill:none;stroke:#4c72b0;stroke-width:1.5;"/>
    <path clip-path="url(#pd4d40c74d2)" d="M 295.2 360.454206 
L 295.2 79.204579 
" style="fill:none;stroke:#4c72b0;stroke-width:1.5;"/>
    <path clip-path="url(#pd4d40c74d2)" d="M 457.527273 363.174545 
L 457.527273 66.665455 
" style="fill:none;stroke:#4c72b0;stroke-width:1.5;"/>
   </g>
   <g id="LineCollection_4">
    <path clip-path="url(#pd4d40c74d2)" d="M 112.581818 172.692309 
L 153.163636 172.692309 
" style="fill:none;stroke:#4c72b0;stroke-width:1.5;"/>
    <path clip-path="url(#pd4d40c74d2)" d="M 274.909091 187.119156 
L 315.490909 187.119156 
" style="fill:none;stroke:#4c72b0;stroke-width:1.5;"/>
    <path clip-path="url(#pd4d40c74d2)" d="M 437.236364 253.607595 
L 477.818182 253.607595 
" style="fill:none;stroke:#4c72b0;stroke-width:1.5;"/>
   </g>
   <g id="patch_3">
    <path d="M 72 378 
L 72 51.84 
" style="fill:none;stroke:#ffffff;stroke-linecap:square;stroke-linejoin:miter;stroke-width:1.25;"/>
   </g>
   <g id="patch_4">
    <path d="M 518.4 378 
L 518.4 51.84 
" style="fill:none;stroke:#ffffff;stroke-linecap:square;stroke-linejoin:miter;stroke-width:1.25;"/>
   </g>
   <g id="patch_5">
    <path d="M 72 378 
L 518.4 378 
" style="fill:none;stroke:#ffffff;stroke-linecap:square;stroke-linejoin:miter;stroke-width:1.25;"/>
   </g>
   <g id="patch_6">
    <path d="M 72 51.84 
L 518.4 51.84 
" style="fill:none;stroke:#ffffff;stroke-linecap:square;stroke-linejoin:miter;stroke-width:1.25;"/>
   </g>
   <g id="text_10">
    <!-- Gaussian noise STD: Island DNN (top 12 models) -->
    <defs>
     <path d="M 41.21875 28.078125 
L 41.21875 36.46875 
L 71.53125 36.53125 
L 71.53125 9.96875 
Q 64.546875 4.390625 57.125 1.578125 
Q 49.703125 -1.21875 41.890625 -1.21875 
Q 31.34375 -1.21875 22.71875 3.296875 
Q 14.109375 7.8125 9.71875 16.359375 
Q 5.328125 24.90625 5.328125 35.453125 
Q 5.328125 45.90625 9.6875 54.953125 
Q 14.0625 64.015625 22.265625 68.40625 
Q 30.46875 72.796875 41.15625 72.796875 
Q 48.921875 72.796875 55.1875 70.28125 
Q 61.46875 67.78125 65.03125 63.28125 
Q 68.609375 58.796875 70.453125 51.5625 
L 61.921875 49.21875 
Q 60.296875 54.6875 57.90625 57.8125 
Q 55.515625 60.9375 51.0625 62.8125 
Q 46.625 64.703125 41.21875 64.703125 
Q 34.71875 64.703125 29.984375 62.71875 
Q 25.25 60.75 22.34375 57.515625 
Q 19.4375 54.296875 17.828125 50.4375 
Q 15.09375 43.796875 15.09375 36.03125 
Q 15.09375 26.46875 18.390625 20.015625 
Q 21.6875 13.578125 27.984375 10.453125 
Q 34.28125 7.328125 41.359375 7.328125 
Q 47.515625 7.328125 53.375 9.6875 
Q 59.234375 12.0625 62.25 14.75 
L 62.25 28.078125 
z
" id="ArialMT-71"/>
     <path d="M 40.578125 0 
L 40.578125 7.625 
Q 34.515625 -1.171875 24.125 -1.171875 
Q 19.53125 -1.171875 15.546875 0.578125 
Q 11.578125 2.34375 9.640625 5 
Q 7.71875 7.671875 6.9375 11.53125 
Q 6.390625 14.109375 6.390625 19.734375 
L 6.390625 51.859375 
L 15.1875 51.859375 
L 15.1875 23.09375 
Q 15.1875 16.21875 15.71875 13.8125 
Q 16.546875 10.359375 19.234375 8.375 
Q 21.921875 6.390625 25.875 6.390625 
Q 29.828125 6.390625 33.296875 8.421875 
Q 36.765625 10.453125 38.203125 13.9375 
Q 39.65625 17.4375 39.65625 24.078125 
L 39.65625 51.859375 
L 48.4375 51.859375 
L 48.4375 0 
z
" id="ArialMT-117"/>
     <path d="M 9.03125 41.84375 
L 9.03125 51.859375 
L 19.046875 51.859375 
L 19.046875 41.84375 
z
M 9.03125 0 
L 9.03125 10.015625 
L 19.046875 10.015625 
L 19.046875 0 
z
" id="ArialMT-58"/>
     <path d="M 9.328125 0 
L 9.328125 71.578125 
L 18.796875 71.578125 
L 18.796875 0 
z
" id="ArialMT-73"/>
     <path d="M 6.390625 0 
L 6.390625 71.578125 
L 15.1875 71.578125 
L 15.1875 0 
z
" id="ArialMT-108"/>
     <path d="M 23.390625 -21.046875 
Q 16.109375 -11.859375 11.078125 0.4375 
Q 6.0625 12.75 6.0625 25.921875 
Q 6.0625 37.546875 9.8125 48.1875 
Q 14.203125 60.546875 23.390625 72.796875 
L 29.6875 72.796875 
Q 23.78125 62.640625 21.875 58.296875 
Q 18.890625 51.5625 17.1875 44.234375 
Q 15.09375 35.109375 15.09375 25.875 
Q 15.09375 2.390625 29.6875 -21.046875 
z
" id="ArialMT-40"/>
     <path d="M 6.59375 -19.875 
L 6.59375 51.859375 
L 14.59375 51.859375 
L 14.59375 45.125 
Q 17.4375 49.078125 21 51.046875 
Q 24.5625 53.03125 29.640625 53.03125 
Q 36.28125 53.03125 41.359375 49.609375 
Q 46.4375 46.1875 49.015625 39.953125 
Q 51.609375 33.734375 51.609375 26.3125 
Q 51.609375 18.359375 48.75 11.984375 
Q 45.90625 5.609375 40.453125 2.21875 
Q 35.015625 -1.171875 29 -1.171875 
Q 24.609375 -1.171875 21.109375 0.6875 
Q 17.625 2.546875 15.375 5.375 
L 15.375 -19.875 
z
M 14.546875 25.640625 
Q 14.546875 15.625 18.59375 10.84375 
Q 22.65625 6.0625 28.421875 6.0625 
Q 34.28125 6.0625 38.453125 11.015625 
Q 42.625 15.96875 42.625 26.375 
Q 42.625 36.28125 38.546875 41.203125 
Q 34.46875 46.140625 28.8125 46.140625 
Q 23.1875 46.140625 18.859375 40.890625 
Q 14.546875 35.640625 14.546875 25.640625 
z
" id="ArialMT-112"/>
     <path d="M 37.25 0 
L 28.46875 0 
L 28.46875 56 
Q 25.296875 52.984375 20.140625 49.953125 
Q 14.984375 46.921875 10.890625 45.40625 
L 10.890625 53.90625 
Q 18.265625 57.375 23.78125 62.296875 
Q 29.296875 67.234375 31.59375 71.875 
L 37.25 71.875 
z
" id="ArialMT-49"/>
     <path d="M 6.59375 0 
L 6.59375 51.859375 
L 14.453125 51.859375 
L 14.453125 44.578125 
Q 16.890625 48.390625 20.9375 50.703125 
Q 25 53.03125 30.171875 53.03125 
Q 35.9375 53.03125 39.625 50.640625 
Q 43.3125 48.25 44.828125 43.953125 
Q 50.984375 53.03125 60.84375 53.03125 
Q 68.5625 53.03125 72.703125 48.75 
Q 76.859375 44.484375 76.859375 35.59375 
L 76.859375 0 
L 68.109375 0 
L 68.109375 32.671875 
Q 68.109375 37.9375 67.25 40.25 
Q 66.40625 42.578125 64.15625 43.984375 
Q 61.921875 45.40625 58.890625 45.40625 
Q 53.421875 45.40625 49.796875 41.765625 
Q 46.1875 38.140625 46.1875 30.125 
L 46.1875 0 
L 37.40625 0 
L 37.40625 33.6875 
Q 37.40625 39.546875 35.25 42.46875 
Q 33.109375 45.40625 28.21875 45.40625 
Q 24.515625 45.40625 21.359375 43.453125 
Q 18.21875 41.5 16.796875 37.734375 
Q 15.375 33.984375 15.375 26.90625 
L 15.375 0 
z
" id="ArialMT-109"/>
     <path d="M 12.359375 -21.046875 
L 6.0625 -21.046875 
Q 20.65625 2.390625 20.65625 25.875 
Q 20.65625 35.0625 18.5625 44.09375 
Q 16.890625 51.421875 13.921875 58.15625 
Q 12.015625 62.546875 6.0625 72.796875 
L 12.359375 72.796875 
Q 21.53125 60.546875 25.921875 48.1875 
Q 29.6875 37.546875 29.6875 25.921875 
Q 29.6875 12.75 24.625 0.4375 
Q 19.578125 -11.859375 12.359375 -21.046875 
z
" id="ArialMT-41"/>
    </defs>
    <g style="fill:#262626;" transform="translate(30.435 45.84)scale(0.24 -0.24)">
     <use xlink:href="#ArialMT-71"/>
     <use x="77.783203" xlink:href="#ArialMT-97"/>
     <use x="133.398438" xlink:href="#ArialMT-117"/>
     <use x="189.013672" xlink:href="#ArialMT-115"/>
     <use x="239.013672" xlink:href="#ArialMT-115"/>
     <use x="289.013672" xlink:href="#ArialMT-105"/>
     <use x="311.230469" xlink:href="#ArialMT-97"/>
     <use x="366.845703" xlink:href="#ArialMT-110"/>
     <use x="422.460938" xlink:href="#ArialMT-32"/>
     <use x="450.244141" xlink:href="#ArialMT-110"/>
     <use x="505.859375" xlink:href="#ArialMT-111"/>
     <use x="561.474609" xlink:href="#ArialMT-105"/>
     <use x="583.691406" xlink:href="#ArialMT-115"/>
     <use x="633.691406" xlink:href="#ArialMT-101"/>
     <use x="689.306641" xlink:href="#ArialMT-32"/>
     <use x="717.089844" xlink:href="#ArialMT-83"/>
     <use x="783.789062" xlink:href="#ArialMT-84"/>
     <use x="844.873047" xlink:href="#ArialMT-68"/>
     <use x="917.089844" xlink:href="#ArialMT-58"/>
     <use x="944.873047" xlink:href="#ArialMT-32"/>
     <use x="972.65625" xlink:href="#ArialMT-73"/>
     <use x="1000.439453" xlink:href="#ArialMT-115"/>
     <use x="1050.439453" xlink:href="#ArialMT-108"/>
     <use x="1072.65625" xlink:href="#ArialMT-97"/>
     <use x="1128.271484" xlink:href="#ArialMT-110"/>
     <use x="1183.886719" xlink:href="#ArialMT-100"/>
     <use x="1239.501953" xlink:href="#ArialMT-32"/>
     <use x="1267.285156" xlink:href="#ArialMT-68"/>
     <use x="1339.501953" xlink:href="#ArialMT-78"/>
     <use x="1411.71875" xlink:href="#ArialMT-78"/>
     <use x="1483.935547" xlink:href="#ArialMT-32"/>
     <use x="1511.71875" xlink:href="#ArialMT-40"/>
     <use x="1545.019531" xlink:href="#ArialMT-116"/>
     <use x="1572.802734" xlink:href="#ArialMT-111"/>
     <use x="1628.417969" xlink:href="#ArialMT-112"/>
     <use x="1684.033203" xlink:href="#ArialMT-32"/>
     <use x="1711.816406" xlink:href="#ArialMT-49"/>
     <use x="1767.431641" xlink:href="#ArialMT-50"/>
     <use x="1823.046875" xlink:href="#ArialMT-32"/>
     <use x="1850.830078" xlink:href="#ArialMT-109"/>
     <use x="1934.130859" xlink:href="#ArialMT-111"/>
     <use x="1989.746094" xlink:href="#ArialMT-100"/>
     <use x="2045.361328" xlink:href="#ArialMT-101"/>
     <use x="2100.976562" xlink:href="#ArialMT-108"/>
     <use x="2123.193359" xlink:href="#ArialMT-115"/>
     <use x="2173.193359" xlink:href="#ArialMT-41"/>
    </g>
   </g>
  </g>
 </g>
 <defs>
  <clipPath id="pd4d40c74d2">
   <rect height="326.16" width="446.4" x="72" y="51.84"/>
  </clipPath>
 </defs>
</svg>
