<?xml version="1.0" encoding="utf-8" standalone="no"?>
<!DOCTYPE svg PUBLIC "-//W3C//DTD SVG 1.1//EN"
  "http://www.w3.org/Graphics/SVG/1.1/DTD/svg11.dtd">
<!-- Created with matplotlib (https://matplotlib.org/) -->
<svg height="432pt" version="1.1" viewBox="0 0 576 432" width="576pt" xmlns="http://www.w3.org/2000/svg" xmlns:xlink="http://www.w3.org/1999/xlink">
 <metadata>
  <rdf:RDF xmlns:cc="http://creativecommons.org/ns#" xmlns:dc="http://purl.org/dc/elements/1.1/" xmlns:rdf="http://www.w3.org/1999/02/22-rdf-syntax-ns#">
   <cc:Work>
    <dc:type rdf:resource="http://purl.org/dc/dcmitype/StillImage"/>
    <dc:date>2021-04-02T10:54:22.807978</dc:date>
    <dc:format>image/svg+xml</dc:format>
    <dc:creator>
     <cc:Agent>
      <dc:title>Matplotlib v3.3.4, https://matplotlib.org/</dc:title>
     </cc:Agent>
    </dc:creator>
   </cc:Work>
  </rdf:RDF>
 </metadata>
 <defs>
  <style type="text/css">*{stroke-linecap:butt;stroke-linejoin:round;}</style>
 </defs>
 <g id="figure_1">
  <g id="patch_1">
   <path d="M 0 432 
L 576 432 
L 576 0 
L 0 0 
z
" style="fill:#ffffff;"/>
  </g>
  <g id="axes_1">
   <g id="patch_2">
    <path d="M 72 378 
L 518.4 378 
L 518.4 51.84 
L 72 51.84 
z
" style="fill:#eaeaf2;"/>
   </g>
   <g id="matplotlib.axis_1">
    <g id="xtick_1">
     <g id="line2d_1">
      <path clip-path="url(#pc6fac1fc31)" d="M 132.872727 378 
L 132.872727 51.84 
" style="fill:none;stroke:#ffffff;stroke-linecap:round;"/>
     </g>
     <g id="text_1">
      <!-- First -->
      <g style="fill:#262626;" transform="translate(111.491477 403.247187)scale(0.22 -0.22)">
       <defs>
        <path d="M 8.203125 0 
L 8.203125 71.578125 
L 56.5 71.578125 
L 56.5 63.140625 
L 17.671875 63.140625 
L 17.671875 40.96875 
L 51.265625 40.96875 
L 51.265625 32.515625 
L 17.671875 32.515625 
L 17.671875 0 
z
" id="ArialMT-70"/>
        <path d="M 6.640625 61.46875 
L 6.640625 71.578125 
L 15.4375 71.578125 
L 15.4375 61.46875 
z
M 6.640625 0 
L 6.640625 51.859375 
L 15.4375 51.859375 
L 15.4375 0 
z
" id="ArialMT-105"/>
        <path d="M 6.5 0 
L 6.5 51.859375 
L 14.40625 51.859375 
L 14.40625 44 
Q 17.4375 49.515625 20 51.265625 
Q 22.5625 53.03125 25.640625 53.03125 
Q 30.078125 53.03125 34.671875 50.203125 
L 31.640625 42.046875 
Q 28.421875 43.953125 25.203125 43.953125 
Q 22.3125 43.953125 20.015625 42.21875 
Q 17.71875 40.484375 16.75 37.40625 
Q 15.28125 32.71875 15.28125 27.15625 
L 15.28125 0 
z
" id="ArialMT-114"/>
        <path d="M 3.078125 15.484375 
L 11.765625 16.84375 
Q 12.5 11.625 15.84375 8.84375 
Q 19.1875 6.0625 25.203125 6.0625 
Q 31.25 6.0625 34.171875 8.515625 
Q 37.109375 10.984375 37.109375 14.3125 
Q 37.109375 17.28125 34.515625 19 
Q 32.71875 20.171875 25.53125 21.96875 
Q 15.875 24.421875 12.140625 26.203125 
Q 8.40625 27.984375 6.46875 31.125 
Q 4.546875 34.28125 4.546875 38.09375 
Q 4.546875 41.546875 6.125 44.5 
Q 7.71875 47.46875 10.453125 49.421875 
Q 12.5 50.921875 16.03125 51.96875 
Q 19.578125 53.03125 23.640625 53.03125 
Q 29.734375 53.03125 34.34375 51.265625 
Q 38.96875 49.515625 41.15625 46.5 
Q 43.359375 43.5 44.1875 38.484375 
L 35.59375 37.3125 
Q 35.015625 41.3125 32.203125 43.546875 
Q 29.390625 45.796875 24.265625 45.796875 
Q 18.21875 45.796875 15.625 43.796875 
Q 13.03125 41.796875 13.03125 39.109375 
Q 13.03125 37.40625 14.109375 36.03125 
Q 15.1875 34.625 17.484375 33.6875 
Q 18.796875 33.203125 25.25 31.453125 
Q 34.578125 28.953125 38.25 27.359375 
Q 41.9375 25.78125 44.03125 22.75 
Q 46.140625 19.734375 46.140625 15.234375 
Q 46.140625 10.84375 43.578125 6.953125 
Q 41.015625 3.078125 36.171875 0.953125 
Q 31.34375 -1.171875 25.25 -1.171875 
Q 15.140625 -1.171875 9.84375 3.03125 
Q 4.546875 7.234375 3.078125 15.484375 
z
" id="ArialMT-115"/>
        <path d="M 25.78125 7.859375 
L 27.046875 0.09375 
Q 23.34375 -0.6875 20.40625 -0.6875 
Q 15.625 -0.6875 12.984375 0.828125 
Q 10.359375 2.34375 9.28125 4.8125 
Q 8.203125 7.28125 8.203125 15.1875 
L 8.203125 45.015625 
L 1.765625 45.015625 
L 1.765625 51.859375 
L 8.203125 51.859375 
L 8.203125 64.703125 
L 16.9375 69.96875 
L 16.9375 51.859375 
L 25.78125 51.859375 
L 25.78125 45.015625 
L 16.9375 45.015625 
L 16.9375 14.703125 
Q 16.9375 10.9375 17.40625 9.859375 
Q 17.875 8.796875 18.921875 8.15625 
Q 19.96875 7.515625 21.921875 7.515625 
Q 23.390625 7.515625 25.78125 7.859375 
z
" id="ArialMT-116"/>
       </defs>
       <use xlink:href="#ArialMT-70"/>
       <use x="61.083984" xlink:href="#ArialMT-105"/>
       <use x="83.300781" xlink:href="#ArialMT-114"/>
       <use x="116.601562" xlink:href="#ArialMT-115"/>
       <use x="166.601562" xlink:href="#ArialMT-116"/>
      </g>
     </g>
    </g>
    <g id="xtick_2">
     <g id="line2d_2">
      <path clip-path="url(#pc6fac1fc31)" d="M 295.2 378 
L 295.2 51.84 
" style="fill:none;stroke:#ffffff;stroke-linecap:round;"/>
     </g>
     <g id="text_2">
      <!-- Second -->
      <g style="fill:#262626;" transform="translate(257.894531 403.247187)scale(0.22 -0.22)">
       <defs>
        <path d="M 4.5 23 
L 13.421875 23.78125 
Q 14.0625 18.40625 16.375 14.96875 
Q 18.703125 11.53125 23.578125 9.40625 
Q 28.46875 7.28125 34.578125 7.28125 
Q 39.984375 7.28125 44.140625 8.890625 
Q 48.296875 10.5 50.3125 13.296875 
Q 52.34375 16.109375 52.34375 19.4375 
Q 52.34375 22.796875 50.390625 25.3125 
Q 48.4375 27.828125 43.953125 29.546875 
Q 41.0625 30.671875 31.203125 33.03125 
Q 21.34375 35.40625 17.390625 37.5 
Q 12.25 40.1875 9.734375 44.15625 
Q 7.234375 48.140625 7.234375 53.078125 
Q 7.234375 58.5 10.296875 63.203125 
Q 13.375 67.921875 19.28125 70.359375 
Q 25.203125 72.796875 32.421875 72.796875 
Q 40.375 72.796875 46.453125 70.234375 
Q 52.546875 67.671875 55.8125 62.6875 
Q 59.078125 57.71875 59.328125 51.421875 
L 50.25 50.734375 
Q 49.515625 57.515625 45.28125 60.984375 
Q 41.0625 64.453125 32.8125 64.453125 
Q 24.21875 64.453125 20.28125 61.296875 
Q 16.359375 58.15625 16.359375 53.71875 
Q 16.359375 49.859375 19.140625 47.359375 
Q 21.875 44.875 33.421875 42.265625 
Q 44.96875 39.65625 49.265625 37.703125 
Q 55.515625 34.8125 58.484375 30.390625 
Q 61.46875 25.984375 61.46875 20.21875 
Q 61.46875 14.5 58.203125 9.4375 
Q 54.9375 4.390625 48.796875 1.578125 
Q 42.671875 -1.21875 35.015625 -1.21875 
Q 25.296875 -1.21875 18.71875 1.609375 
Q 12.15625 4.4375 8.421875 10.125 
Q 4.6875 15.828125 4.5 23 
z
" id="ArialMT-83"/>
        <path d="M 42.09375 16.703125 
L 51.171875 15.578125 
Q 49.03125 7.625 43.21875 3.21875 
Q 37.40625 -1.171875 28.375 -1.171875 
Q 17 -1.171875 10.328125 5.828125 
Q 3.65625 12.84375 3.65625 25.484375 
Q 3.65625 38.578125 10.390625 45.796875 
Q 17.140625 53.03125 27.875 53.03125 
Q 38.28125 53.03125 44.875 45.953125 
Q 51.46875 38.875 51.46875 26.03125 
Q 51.46875 25.25 51.421875 23.6875 
L 12.75 23.6875 
Q 13.234375 15.140625 17.578125 10.59375 
Q 21.921875 6.0625 28.421875 6.0625 
Q 33.25 6.0625 36.671875 8.59375 
Q 40.09375 11.140625 42.09375 16.703125 
z
M 13.234375 30.90625 
L 42.1875 30.90625 
Q 41.609375 37.453125 38.875 40.71875 
Q 34.671875 45.796875 27.984375 45.796875 
Q 21.921875 45.796875 17.796875 41.75 
Q 13.671875 37.703125 13.234375 30.90625 
z
" id="ArialMT-101"/>
        <path d="M 40.4375 19 
L 49.078125 17.875 
Q 47.65625 8.9375 41.8125 3.875 
Q 35.984375 -1.171875 27.484375 -1.171875 
Q 16.84375 -1.171875 10.375 5.78125 
Q 3.90625 12.75 3.90625 25.734375 
Q 3.90625 34.125 6.6875 40.421875 
Q 9.46875 46.734375 15.15625 49.875 
Q 20.84375 53.03125 27.546875 53.03125 
Q 35.984375 53.03125 41.359375 48.75 
Q 46.734375 44.484375 48.25 36.625 
L 39.703125 35.296875 
Q 38.484375 40.53125 35.375 43.15625 
Q 32.28125 45.796875 27.875 45.796875 
Q 21.234375 45.796875 17.078125 41.03125 
Q 12.9375 36.28125 12.9375 25.984375 
Q 12.9375 15.53125 16.9375 10.796875 
Q 20.953125 6.0625 27.390625 6.0625 
Q 32.5625 6.0625 36.03125 9.234375 
Q 39.5 12.40625 40.4375 19 
z
" id="ArialMT-99"/>
        <path d="M 3.328125 25.921875 
Q 3.328125 40.328125 11.328125 47.265625 
Q 18.015625 53.03125 27.640625 53.03125 
Q 38.328125 53.03125 45.109375 46.015625 
Q 51.90625 39.015625 51.90625 26.65625 
Q 51.90625 16.65625 48.90625 10.90625 
Q 45.90625 5.171875 40.15625 2 
Q 34.421875 -1.171875 27.640625 -1.171875 
Q 16.75 -1.171875 10.03125 5.8125 
Q 3.328125 12.796875 3.328125 25.921875 
z
M 12.359375 25.921875 
Q 12.359375 15.96875 16.703125 11.015625 
Q 21.046875 6.0625 27.640625 6.0625 
Q 34.1875 6.0625 38.53125 11.03125 
Q 42.875 16.015625 42.875 26.21875 
Q 42.875 35.84375 38.5 40.796875 
Q 34.125 45.75 27.640625 45.75 
Q 21.046875 45.75 16.703125 40.8125 
Q 12.359375 35.890625 12.359375 25.921875 
z
" id="ArialMT-111"/>
        <path d="M 6.59375 0 
L 6.59375 51.859375 
L 14.5 51.859375 
L 14.5 44.484375 
Q 20.21875 53.03125 31 53.03125 
Q 35.6875 53.03125 39.625 51.34375 
Q 43.5625 49.65625 45.515625 46.921875 
Q 47.46875 44.1875 48.25 40.4375 
Q 48.734375 37.984375 48.734375 31.890625 
L 48.734375 0 
L 39.9375 0 
L 39.9375 31.546875 
Q 39.9375 36.921875 38.90625 39.578125 
Q 37.890625 42.234375 35.28125 43.8125 
Q 32.671875 45.40625 29.15625 45.40625 
Q 23.53125 45.40625 19.453125 41.84375 
Q 15.375 38.28125 15.375 28.328125 
L 15.375 0 
z
" id="ArialMT-110"/>
        <path d="M 40.234375 0 
L 40.234375 6.546875 
Q 35.296875 -1.171875 25.734375 -1.171875 
Q 19.53125 -1.171875 14.328125 2.25 
Q 9.125 5.671875 6.265625 11.796875 
Q 3.421875 17.921875 3.421875 25.875 
Q 3.421875 33.640625 6 39.96875 
Q 8.59375 46.296875 13.765625 49.65625 
Q 18.953125 53.03125 25.34375 53.03125 
Q 30.03125 53.03125 33.6875 51.046875 
Q 37.359375 49.078125 39.65625 45.90625 
L 39.65625 71.578125 
L 48.390625 71.578125 
L 48.390625 0 
z
M 12.453125 25.875 
Q 12.453125 15.921875 16.640625 10.984375 
Q 20.84375 6.0625 26.5625 6.0625 
Q 32.328125 6.0625 36.34375 10.765625 
Q 40.375 15.484375 40.375 25.140625 
Q 40.375 35.796875 36.265625 40.765625 
Q 32.171875 45.75 26.171875 45.75 
Q 20.3125 45.75 16.375 40.96875 
Q 12.453125 36.1875 12.453125 25.875 
z
" id="ArialMT-100"/>
       </defs>
       <use xlink:href="#ArialMT-83"/>
       <use x="66.699219" xlink:href="#ArialMT-101"/>
       <use x="122.314453" xlink:href="#ArialMT-99"/>
       <use x="172.314453" xlink:href="#ArialMT-111"/>
       <use x="227.929688" xlink:href="#ArialMT-110"/>
       <use x="283.544922" xlink:href="#ArialMT-100"/>
      </g>
     </g>
    </g>
    <g id="xtick_3">
     <g id="line2d_3">
      <path clip-path="url(#pc6fac1fc31)" d="M 457.527273 378 
L 457.527273 51.84 
" style="fill:none;stroke:#ffffff;stroke-linecap:round;"/>
     </g>
     <g id="text_3">
      <!-- Third -->
      <g style="fill:#262626;" transform="translate(432.467898 403.247187)scale(0.22 -0.22)">
       <defs>
        <path d="M 25.921875 0 
L 25.921875 63.140625 
L 2.34375 63.140625 
L 2.34375 71.578125 
L 59.078125 71.578125 
L 59.078125 63.140625 
L 35.40625 63.140625 
L 35.40625 0 
z
" id="ArialMT-84"/>
        <path d="M 6.59375 0 
L 6.59375 71.578125 
L 15.375 71.578125 
L 15.375 45.90625 
Q 21.53125 53.03125 30.90625 53.03125 
Q 36.671875 53.03125 40.921875 50.75 
Q 45.171875 48.484375 47 44.484375 
Q 48.828125 40.484375 48.828125 32.859375 
L 48.828125 0 
L 40.046875 0 
L 40.046875 32.859375 
Q 40.046875 39.453125 37.1875 42.453125 
Q 34.328125 45.453125 29.109375 45.453125 
Q 25.203125 45.453125 21.75 43.421875 
Q 18.3125 41.40625 16.84375 37.9375 
Q 15.375 34.46875 15.375 28.375 
L 15.375 0 
z
" id="ArialMT-104"/>
       </defs>
       <use xlink:href="#ArialMT-84"/>
       <use x="61.083984" xlink:href="#ArialMT-104"/>
       <use x="116.699219" xlink:href="#ArialMT-105"/>
       <use x="138.916016" xlink:href="#ArialMT-114"/>
       <use x="172.216797" xlink:href="#ArialMT-100"/>
      </g>
     </g>
    </g>
    <g id="text_4">
     <!-- RNN Layers -->
     <g style="fill:#262626;" transform="translate(229.8525 428.798437)scale(0.24 -0.24)">
      <defs>
       <path d="M 7.859375 0 
L 7.859375 71.578125 
L 39.59375 71.578125 
Q 49.171875 71.578125 54.140625 69.640625 
Q 59.125 67.71875 62.109375 62.828125 
Q 65.09375 57.953125 65.09375 52.046875 
Q 65.09375 44.4375 60.15625 39.203125 
Q 55.21875 33.984375 44.921875 32.5625 
Q 48.6875 30.765625 50.640625 29 
Q 54.78125 25.203125 58.5 19.484375 
L 70.953125 0 
L 59.03125 0 
L 49.5625 14.890625 
Q 45.40625 21.34375 42.71875 24.75 
Q 40.046875 28.171875 37.921875 29.53125 
Q 35.796875 30.90625 33.59375 31.453125 
Q 31.984375 31.78125 28.328125 31.78125 
L 17.328125 31.78125 
L 17.328125 0 
z
M 17.328125 39.984375 
L 37.703125 39.984375 
Q 44.1875 39.984375 47.84375 41.328125 
Q 51.515625 42.671875 53.421875 45.625 
Q 55.328125 48.578125 55.328125 52.046875 
Q 55.328125 57.125 51.640625 60.390625 
Q 47.953125 63.671875 39.984375 63.671875 
L 17.328125 63.671875 
z
" id="ArialMT-82"/>
       <path d="M 7.625 0 
L 7.625 71.578125 
L 17.328125 71.578125 
L 54.9375 15.375 
L 54.9375 71.578125 
L 64.015625 71.578125 
L 64.015625 0 
L 54.296875 0 
L 16.703125 56.25 
L 16.703125 0 
z
" id="ArialMT-78"/>
       <path id="ArialMT-32"/>
       <path d="M 7.328125 0 
L 7.328125 71.578125 
L 16.796875 71.578125 
L 16.796875 8.453125 
L 52.046875 8.453125 
L 52.046875 0 
z
" id="ArialMT-76"/>
       <path d="M 40.4375 6.390625 
Q 35.546875 2.25 31.03125 0.53125 
Q 26.515625 -1.171875 21.34375 -1.171875 
Q 12.796875 -1.171875 8.203125 3 
Q 3.609375 7.171875 3.609375 13.671875 
Q 3.609375 17.484375 5.34375 20.625 
Q 7.078125 23.78125 9.890625 25.6875 
Q 12.703125 27.59375 16.21875 28.5625 
Q 18.796875 29.25 24.03125 29.890625 
Q 34.671875 31.15625 39.703125 32.90625 
Q 39.75 34.71875 39.75 35.203125 
Q 39.75 40.578125 37.25 42.78125 
Q 33.890625 45.75 27.25 45.75 
Q 21.046875 45.75 18.09375 43.578125 
Q 15.140625 41.40625 13.71875 35.890625 
L 5.125 37.0625 
Q 6.296875 42.578125 8.984375 45.96875 
Q 11.671875 49.359375 16.75 51.1875 
Q 21.828125 53.03125 28.515625 53.03125 
Q 35.15625 53.03125 39.296875 51.46875 
Q 43.453125 49.90625 45.40625 47.53125 
Q 47.359375 45.171875 48.140625 41.546875 
Q 48.578125 39.3125 48.578125 33.453125 
L 48.578125 21.734375 
Q 48.578125 9.46875 49.140625 6.21875 
Q 49.703125 2.984375 51.375 0 
L 42.1875 0 
Q 40.828125 2.734375 40.4375 6.390625 
z
M 39.703125 26.03125 
Q 34.90625 24.078125 25.34375 22.703125 
Q 19.921875 21.921875 17.671875 20.9375 
Q 15.4375 19.96875 14.203125 18.09375 
Q 12.984375 16.21875 12.984375 13.921875 
Q 12.984375 10.40625 15.640625 8.0625 
Q 18.3125 5.71875 23.4375 5.71875 
Q 28.515625 5.71875 32.46875 7.9375 
Q 36.421875 10.15625 38.28125 14.015625 
Q 39.703125 17 39.703125 22.796875 
z
" id="ArialMT-97"/>
       <path d="M 6.203125 -19.96875 
L 5.21875 -11.71875 
Q 8.109375 -12.5 10.25 -12.5 
Q 13.1875 -12.5 14.9375 -11.515625 
Q 16.703125 -10.546875 17.828125 -8.796875 
Q 18.65625 -7.46875 20.515625 -2.25 
Q 20.75 -1.515625 21.296875 -0.09375 
L 1.609375 51.859375 
L 11.078125 51.859375 
L 21.875 21.828125 
Q 23.96875 16.109375 25.640625 9.8125 
Q 27.15625 15.875 29.25 21.625 
L 40.328125 51.859375 
L 49.125 51.859375 
L 29.390625 -0.875 
Q 26.21875 -9.421875 24.46875 -12.640625 
Q 22.125 -17 19.09375 -19.015625 
Q 16.0625 -21.046875 11.859375 -21.046875 
Q 9.328125 -21.046875 6.203125 -19.96875 
z
" id="ArialMT-121"/>
      </defs>
      <use xlink:href="#ArialMT-82"/>
      <use x="72.216797" xlink:href="#ArialMT-78"/>
      <use x="144.433594" xlink:href="#ArialMT-78"/>
      <use x="216.650391" xlink:href="#ArialMT-32"/>
      <use x="244.433594" xlink:href="#ArialMT-76"/>
      <use x="300.048828" xlink:href="#ArialMT-97"/>
      <use x="355.664062" xlink:href="#ArialMT-121"/>
      <use x="405.664062" xlink:href="#ArialMT-101"/>
      <use x="461.279297" xlink:href="#ArialMT-114"/>
      <use x="494.580078" xlink:href="#ArialMT-115"/>
     </g>
    </g>
   </g>
   <g id="matplotlib.axis_2">
    <g id="ytick_1">
     <g id="line2d_4">
      <path clip-path="url(#pc6fac1fc31)" d="M 72 375.529091 
L 518.4 375.529091 
" style="fill:none;stroke:#ffffff;stroke-linecap:round;"/>
     </g>
     <g id="text_5">
      <!-- 0.00 -->
      <g style="fill:#262626;" transform="translate(19.685938 383.402685)scale(0.22 -0.22)">
       <defs>
        <path d="M 4.15625 35.296875 
Q 4.15625 48 6.765625 55.734375 
Q 9.375 63.484375 14.515625 67.671875 
Q 19.671875 71.875 27.484375 71.875 
Q 33.25 71.875 37.59375 69.546875 
Q 41.9375 67.234375 44.765625 62.859375 
Q 47.609375 58.5 49.21875 52.21875 
Q 50.828125 45.953125 50.828125 35.296875 
Q 50.828125 22.703125 48.234375 14.96875 
Q 45.65625 7.234375 40.5 3 
Q 35.359375 -1.21875 27.484375 -1.21875 
Q 17.140625 -1.21875 11.234375 6.203125 
Q 4.15625 15.140625 4.15625 35.296875 
z
M 13.1875 35.296875 
Q 13.1875 17.671875 17.3125 11.828125 
Q 21.4375 6 27.484375 6 
Q 33.546875 6 37.671875 11.859375 
Q 41.796875 17.71875 41.796875 35.296875 
Q 41.796875 52.984375 37.671875 58.78125 
Q 33.546875 64.59375 27.390625 64.59375 
Q 21.34375 64.59375 17.71875 59.46875 
Q 13.1875 52.9375 13.1875 35.296875 
z
" id="ArialMT-48"/>
        <path d="M 9.078125 0 
L 9.078125 10.015625 
L 19.09375 10.015625 
L 19.09375 0 
z
" id="ArialMT-46"/>
       </defs>
       <use xlink:href="#ArialMT-48"/>
       <use x="55.615234" xlink:href="#ArialMT-46"/>
       <use x="83.398438" xlink:href="#ArialMT-48"/>
       <use x="139.013672" xlink:href="#ArialMT-48"/>
      </g>
     </g>
    </g>
    <g id="ytick_2">
     <g id="line2d_5">
      <path clip-path="url(#pc6fac1fc31)" d="M 72 313.756364 
L 518.4 313.756364 
" style="fill:none;stroke:#ffffff;stroke-linecap:round;"/>
     </g>
     <g id="text_6">
      <!-- 0.05 -->
      <g style="fill:#262626;" transform="translate(19.685938 321.629957)scale(0.22 -0.22)">
       <defs>
        <path d="M 4.15625 18.75 
L 13.375 19.53125 
Q 14.40625 12.796875 18.140625 9.390625 
Q 21.875 6 27.15625 6 
Q 33.5 6 37.890625 10.78125 
Q 42.28125 15.578125 42.28125 23.484375 
Q 42.28125 31 38.0625 35.34375 
Q 33.84375 39.703125 27 39.703125 
Q 22.75 39.703125 19.328125 37.765625 
Q 15.921875 35.84375 13.96875 32.765625 
L 5.71875 33.84375 
L 12.640625 70.609375 
L 48.25 70.609375 
L 48.25 62.203125 
L 19.671875 62.203125 
L 15.828125 42.96875 
Q 22.265625 47.46875 29.34375 47.46875 
Q 38.71875 47.46875 45.15625 40.96875 
Q 51.609375 34.46875 51.609375 24.265625 
Q 51.609375 14.546875 45.953125 7.46875 
Q 39.0625 -1.21875 27.15625 -1.21875 
Q 17.390625 -1.21875 11.203125 4.25 
Q 5.03125 9.71875 4.15625 18.75 
z
" id="ArialMT-53"/>
       </defs>
       <use xlink:href="#ArialMT-48"/>
       <use x="55.615234" xlink:href="#ArialMT-46"/>
       <use x="83.398438" xlink:href="#ArialMT-48"/>
       <use x="139.013672" xlink:href="#ArialMT-53"/>
      </g>
     </g>
    </g>
    <g id="ytick_3">
     <g id="line2d_6">
      <path clip-path="url(#pc6fac1fc31)" d="M 72 251.983636 
L 518.4 251.983636 
" style="fill:none;stroke:#ffffff;stroke-linecap:round;"/>
     </g>
     <g id="text_7">
      <!-- 0.10 -->
      <g style="fill:#262626;" transform="translate(19.685938 259.85723)scale(0.22 -0.22)">
       <defs>
        <path d="M 37.25 0 
L 28.46875 0 
L 28.46875 56 
Q 25.296875 52.984375 20.140625 49.953125 
Q 14.984375 46.921875 10.890625 45.40625 
L 10.890625 53.90625 
Q 18.265625 57.375 23.78125 62.296875 
Q 29.296875 67.234375 31.59375 71.875 
L 37.25 71.875 
z
" id="ArialMT-49"/>
       </defs>
       <use xlink:href="#ArialMT-48"/>
       <use x="55.615234" xlink:href="#ArialMT-46"/>
       <use x="83.398438" xlink:href="#ArialMT-49"/>
       <use x="139.013672" xlink:href="#ArialMT-48"/>
      </g>
     </g>
    </g>
    <g id="ytick_4">
     <g id="line2d_7">
      <path clip-path="url(#pc6fac1fc31)" d="M 72 190.210909 
L 518.4 190.210909 
" style="fill:none;stroke:#ffffff;stroke-linecap:round;"/>
     </g>
     <g id="text_8">
      <!-- 0.15 -->
      <g style="fill:#262626;" transform="translate(19.685938 198.084503)scale(0.22 -0.22)">
       <use xlink:href="#ArialMT-48"/>
       <use x="55.615234" xlink:href="#ArialMT-46"/>
       <use x="83.398438" xlink:href="#ArialMT-49"/>
       <use x="139.013672" xlink:href="#ArialMT-53"/>
      </g>
     </g>
    </g>
    <g id="ytick_5">
     <g id="line2d_8">
      <path clip-path="url(#pc6fac1fc31)" d="M 72 128.438182 
L 518.4 128.438182 
" style="fill:none;stroke:#ffffff;stroke-linecap:round;"/>
     </g>
     <g id="text_9">
      <!-- 0.20 -->
      <g style="fill:#262626;" transform="translate(19.685938 136.311776)scale(0.22 -0.22)">
       <defs>
        <path d="M 50.34375 8.453125 
L 50.34375 0 
L 3.03125 0 
Q 2.9375 3.171875 4.046875 6.109375 
Q 5.859375 10.9375 9.828125 15.625 
Q 13.8125 20.3125 21.34375 26.46875 
Q 33.015625 36.03125 37.109375 41.625 
Q 41.21875 47.21875 41.21875 52.203125 
Q 41.21875 57.421875 37.46875 61 
Q 33.734375 64.59375 27.734375 64.59375 
Q 21.390625 64.59375 17.578125 60.78125 
Q 13.765625 56.984375 13.71875 50.25 
L 4.6875 51.171875 
Q 5.609375 61.28125 11.65625 66.578125 
Q 17.71875 71.875 27.9375 71.875 
Q 38.234375 71.875 44.234375 66.15625 
Q 50.25 60.453125 50.25 52 
Q 50.25 47.703125 48.484375 43.546875 
Q 46.734375 39.40625 42.65625 34.8125 
Q 38.578125 30.21875 29.109375 22.21875 
Q 21.1875 15.578125 18.9375 13.203125 
Q 16.703125 10.84375 15.234375 8.453125 
z
" id="ArialMT-50"/>
       </defs>
       <use xlink:href="#ArialMT-48"/>
       <use x="55.615234" xlink:href="#ArialMT-46"/>
       <use x="83.398438" xlink:href="#ArialMT-50"/>
       <use x="139.013672" xlink:href="#ArialMT-48"/>
      </g>
     </g>
    </g>
    <g id="ytick_6">
     <g id="line2d_9">
      <path clip-path="url(#pc6fac1fc31)" d="M 72 66.665455 
L 518.4 66.665455 
" style="fill:none;stroke:#ffffff;stroke-linecap:round;"/>
     </g>
     <g id="text_10">
      <!-- 0.25 -->
      <g style="fill:#262626;" transform="translate(19.685938 74.539048)scale(0.22 -0.22)">
       <use xlink:href="#ArialMT-48"/>
       <use x="55.615234" xlink:href="#ArialMT-46"/>
       <use x="83.398438" xlink:href="#ArialMT-50"/>
       <use x="139.013672" xlink:href="#ArialMT-53"/>
      </g>
     </g>
    </g>
    <g id="text_11">
     <!-- Recurrent dropout ratio (%) -->
     <g style="fill:#262626;" transform="translate(10.634687 360.30375)rotate(-90)scale(0.24 -0.24)">
      <defs>
       <path d="M 40.578125 0 
L 40.578125 7.625 
Q 34.515625 -1.171875 24.125 -1.171875 
Q 19.53125 -1.171875 15.546875 0.578125 
Q 11.578125 2.34375 9.640625 5 
Q 7.71875 7.671875 6.9375 11.53125 
Q 6.390625 14.109375 6.390625 19.734375 
L 6.390625 51.859375 
L 15.1875 51.859375 
L 15.1875 23.09375 
Q 15.1875 16.21875 15.71875 13.8125 
Q 16.546875 10.359375 19.234375 8.375 
Q 21.921875 6.390625 25.875 6.390625 
Q 29.828125 6.390625 33.296875 8.421875 
Q 36.765625 10.453125 38.203125 13.9375 
Q 39.65625 17.4375 39.65625 24.078125 
L 39.65625 51.859375 
L 48.4375 51.859375 
L 48.4375 0 
z
" id="ArialMT-117"/>
       <path d="M 6.59375 -19.875 
L 6.59375 51.859375 
L 14.59375 51.859375 
L 14.59375 45.125 
Q 17.4375 49.078125 21 51.046875 
Q 24.5625 53.03125 29.640625 53.03125 
Q 36.28125 53.03125 41.359375 49.609375 
Q 46.4375 46.1875 49.015625 39.953125 
Q 51.609375 33.734375 51.609375 26.3125 
Q 51.609375 18.359375 48.75 11.984375 
Q 45.90625 5.609375 40.453125 2.21875 
Q 35.015625 -1.171875 29 -1.171875 
Q 24.609375 -1.171875 21.109375 0.6875 
Q 17.625 2.546875 15.375 5.375 
L 15.375 -19.875 
z
M 14.546875 25.640625 
Q 14.546875 15.625 18.59375 10.84375 
Q 22.65625 6.0625 28.421875 6.0625 
Q 34.28125 6.0625 38.453125 11.015625 
Q 42.625 15.96875 42.625 26.375 
Q 42.625 36.28125 38.546875 41.203125 
Q 34.46875 46.140625 28.8125 46.140625 
Q 23.1875 46.140625 18.859375 40.890625 
Q 14.546875 35.640625 14.546875 25.640625 
z
" id="ArialMT-112"/>
       <path d="M 23.390625 -21.046875 
Q 16.109375 -11.859375 11.078125 0.4375 
Q 6.0625 12.75 6.0625 25.921875 
Q 6.0625 37.546875 9.8125 48.1875 
Q 14.203125 60.546875 23.390625 72.796875 
L 29.6875 72.796875 
Q 23.78125 62.640625 21.875 58.296875 
Q 18.890625 51.5625 17.1875 44.234375 
Q 15.09375 35.109375 15.09375 25.875 
Q 15.09375 2.390625 29.6875 -21.046875 
z
" id="ArialMT-40"/>
       <path d="M 5.8125 54.390625 
Q 5.8125 62.0625 9.671875 67.421875 
Q 13.53125 72.796875 20.84375 72.796875 
Q 27.59375 72.796875 32 67.984375 
Q 36.421875 63.1875 36.421875 53.859375 
Q 36.421875 44.78125 31.953125 39.875 
Q 27.484375 34.96875 20.953125 34.96875 
Q 14.453125 34.96875 10.125 39.796875 
Q 5.8125 44.625 5.8125 54.390625 
z
M 21.09375 66.75 
Q 17.828125 66.75 15.65625 63.90625 
Q 13.484375 61.078125 13.484375 53.515625 
Q 13.484375 46.625 15.671875 43.8125 
Q 17.875 41.015625 21.09375 41.015625 
Q 24.421875 41.015625 26.59375 43.84375 
Q 28.765625 46.6875 28.765625 54.203125 
Q 28.765625 61.140625 26.5625 63.9375 
Q 24.359375 66.75 21.09375 66.75 
z
M 21.140625 -2.640625 
L 60.296875 72.796875 
L 67.4375 72.796875 
L 28.421875 -2.640625 
z
M 52.09375 16.796875 
Q 52.09375 24.515625 55.953125 29.859375 
Q 59.8125 35.203125 67.1875 35.203125 
Q 73.921875 35.203125 78.34375 30.390625 
Q 82.765625 25.59375 82.765625 16.265625 
Q 82.765625 7.171875 78.296875 2.265625 
Q 73.828125 -2.640625 67.234375 -2.640625 
Q 60.75 -2.640625 56.421875 2.21875 
Q 52.09375 7.078125 52.09375 16.796875 
z
M 67.4375 29.15625 
Q 64.109375 29.15625 61.9375 26.3125 
Q 59.765625 23.484375 59.765625 15.921875 
Q 59.765625 9.078125 61.953125 6.25 
Q 64.15625 3.421875 67.390625 3.421875 
Q 70.75 3.421875 72.921875 6.25 
Q 75.09375 9.078125 75.09375 16.609375 
Q 75.09375 23.53125 72.890625 26.34375 
Q 70.703125 29.15625 67.4375 29.15625 
z
" id="ArialMT-37"/>
       <path d="M 12.359375 -21.046875 
L 6.0625 -21.046875 
Q 20.65625 2.390625 20.65625 25.875 
Q 20.65625 35.0625 18.5625 44.09375 
Q 16.890625 51.421875 13.921875 58.15625 
Q 12.015625 62.546875 6.0625 72.796875 
L 12.359375 72.796875 
Q 21.53125 60.546875 25.921875 48.1875 
Q 29.6875 37.546875 29.6875 25.921875 
Q 29.6875 12.75 24.625 0.4375 
Q 19.578125 -11.859375 12.359375 -21.046875 
z
" id="ArialMT-41"/>
      </defs>
      <use xlink:href="#ArialMT-82"/>
      <use x="72.216797" xlink:href="#ArialMT-101"/>
      <use x="127.832031" xlink:href="#ArialMT-99"/>
      <use x="177.832031" xlink:href="#ArialMT-117"/>
      <use x="233.447266" xlink:href="#ArialMT-114"/>
      <use x="266.748047" xlink:href="#ArialMT-114"/>
      <use x="300.048828" xlink:href="#ArialMT-101"/>
      <use x="355.664062" xlink:href="#ArialMT-110"/>
      <use x="411.279297" xlink:href="#ArialMT-116"/>
      <use x="439.0625" xlink:href="#ArialMT-32"/>
      <use x="466.845703" xlink:href="#ArialMT-100"/>
      <use x="522.460938" xlink:href="#ArialMT-114"/>
      <use x="555.761719" xlink:href="#ArialMT-111"/>
      <use x="611.376953" xlink:href="#ArialMT-112"/>
      <use x="666.992188" xlink:href="#ArialMT-111"/>
      <use x="722.607422" xlink:href="#ArialMT-117"/>
      <use x="778.222656" xlink:href="#ArialMT-116"/>
      <use x="806.005859" xlink:href="#ArialMT-32"/>
      <use x="833.789062" xlink:href="#ArialMT-114"/>
      <use x="867.089844" xlink:href="#ArialMT-97"/>
      <use x="922.705078" xlink:href="#ArialMT-116"/>
      <use x="950.488281" xlink:href="#ArialMT-105"/>
      <use x="972.705078" xlink:href="#ArialMT-111"/>
      <use x="1028.320312" xlink:href="#ArialMT-32"/>
      <use x="1056.103516" xlink:href="#ArialMT-40"/>
      <use x="1089.404297" xlink:href="#ArialMT-37"/>
      <use x="1178.320312" xlink:href="#ArialMT-41"/>
     </g>
    </g>
   </g>
   <g id="PolyCollection_1">
    <defs>
     <path d="M 148.93173 -68.825455 
L 116.813724 -68.825455 
L 115.485271 -71.820496 
L 114.184577 -74.815537 
L 112.924424 -77.810579 
L 111.714862 -80.80562 
L 110.562693 -83.800661 
L 109.471165 -86.795702 
L 108.439927 -89.790744 
L 107.465237 -92.785785 
L 106.540428 -95.780826 
L 105.656603 -98.775868 
L 104.803487 -101.770909 
L 103.970401 -104.76595 
L 103.147248 -107.760992 
L 102.325456 -110.756033 
L 101.498786 -113.751074 
L 100.663948 -116.746116 
L 99.820978 -119.741157 
L 98.973341 -122.736198 
L 98.127774 -125.73124 
L 97.293872 -128.726281 
L 96.483467 -131.721322 
L 95.70986 -134.716364 
L 94.986968 -137.711405 
L 94.328462 -140.706446 
L 93.74696 -143.701488 
L 93.253345 -146.696529 
L 92.856241 -149.69157 
L 92.561688 -152.686612 
L 92.373014 -155.681653 
L 92.290909 -158.676694 
L 92.313663 -161.671736 
L 92.437532 -164.666777 
L 92.657198 -167.661818 
L 92.966253 -170.65686 
L 93.357679 -173.651901 
L 93.824274 -176.646942 
L 94.358993 -179.641983 
L 94.955187 -182.637025 
L 95.606737 -185.632066 
L 96.308082 -188.627107 
L 97.054163 -191.622149 
L 97.840293 -194.61719 
L 98.661999 -197.612231 
L 99.514839 -200.607273 
L 100.394226 -203.602314 
L 101.295288 -206.597355 
L 102.212759 -209.592397 
L 103.140919 -212.587438 
L 104.073592 -215.582479 
L 105.004179 -218.577521 
L 105.925751 -221.572562 
L 106.831167 -224.567603 
L 107.713226 -227.562645 
L 108.564848 -230.557686 
L 109.379257 -233.552727 
L 110.150175 -236.547769 
L 110.872007 -239.54281 
L 111.540005 -242.537851 
L 112.150412 -245.532893 
L 112.700555 -248.527934 
L 113.188895 -251.522975 
L 113.615015 -254.518017 
L 113.979554 -257.513058 
L 114.284076 -260.508099 
L 114.530902 -263.50314 
L 114.722892 -266.498182 
L 114.86323 -269.493223 
L 114.9552 -272.488264 
L 115.002002 -275.483306 
L 115.006623 -278.478347 
L 114.971764 -281.473388 
L 114.899862 -284.46843 
L 114.793178 -287.463471 
L 114.653966 -290.458512 
L 114.484699 -293.453554 
L 114.28832 -296.448595 
L 114.06851 -299.443636 
L 113.829922 -302.438678 
L 113.578372 -305.433719 
L 113.320944 -308.42876 
L 113.066012 -311.423802 
L 112.823157 -314.418843 
L 112.602974 -317.413884 
L 112.416792 -320.408926 
L 112.276313 -323.403967 
L 112.193181 -326.399008 
L 112.178532 -329.39405 
L 112.242516 -332.389091 
L 112.393852 -335.384132 
L 112.639411 -338.379174 
L 112.983875 -341.374215 
L 113.429463 -344.369256 
L 113.975771 -347.364298 
L 114.6197 -350.359339 
L 115.355505 -353.35438 
L 116.174949 -356.349421 
L 117.067561 -359.344463 
L 118.020986 -362.339504 
L 119.02141 -365.334545 
L 146.724044 -365.334545 
L 146.724044 -365.334545 
L 147.724468 -362.339504 
L 148.677893 -359.344463 
L 149.570506 -356.349421 
L 150.38995 -353.35438 
L 151.125754 -350.359339 
L 151.769683 -347.364298 
L 152.315991 -344.369256 
L 152.76158 -341.374215 
L 153.106043 -338.379174 
L 153.351603 -335.384132 
L 153.502938 -332.389091 
L 153.566923 -329.39405 
L 153.552273 -326.399008 
L 153.469142 -323.403967 
L 153.328662 -320.408926 
L 153.142481 -317.413884 
L 152.922297 -314.418843 
L 152.679442 -311.423802 
L 152.424511 -308.42876 
L 152.167083 -305.433719 
L 151.915532 -302.438678 
L 151.676945 -299.443636 
L 151.457135 -296.448595 
L 151.260756 -293.453554 
L 151.091489 -290.458512 
L 150.952277 -287.463471 
L 150.845593 -284.46843 
L 150.77369 -281.473388 
L 150.738832 -278.478347 
L 150.743452 -275.483306 
L 150.790255 -272.488264 
L 150.882224 -269.493223 
L 151.022562 -266.498182 
L 151.214553 -263.50314 
L 151.461378 -260.508099 
L 151.765901 -257.513058 
L 152.130439 -254.518017 
L 152.55656 -251.522975 
L 153.044899 -248.527934 
L 153.595043 -245.532893 
L 154.20545 -242.537851 
L 154.873448 -239.54281 
L 155.595279 -236.547769 
L 156.366197 -233.552727 
L 157.180606 -230.557686 
L 158.032229 -227.562645 
L 158.914288 -224.567603 
L 159.819703 -221.572562 
L 160.741275 -218.577521 
L 161.671863 -215.582479 
L 162.604535 -212.587438 
L 163.532696 -209.592397 
L 164.450167 -206.597355 
L 165.351229 -203.602314 
L 166.230616 -200.607273 
L 167.083455 -197.612231 
L 167.905162 -194.61719 
L 168.691292 -191.622149 
L 169.437372 -188.627107 
L 170.138718 -185.632066 
L 170.790268 -182.637025 
L 171.386462 -179.641983 
L 171.921181 -176.646942 
L 172.387776 -173.651901 
L 172.779202 -170.65686 
L 173.088257 -167.661818 
L 173.307922 -164.666777 
L 173.431792 -161.671736 
L 173.454545 -158.676694 
L 173.372441 -155.681653 
L 173.183767 -152.686612 
L 172.889213 -149.69157 
L 172.492109 -146.696529 
L 171.998494 -143.701488 
L 171.416993 -140.706446 
L 170.758486 -137.711405 
L 170.035595 -134.716364 
L 169.261988 -131.721322 
L 168.451582 -128.726281 
L 167.61768 -125.73124 
L 166.772114 -122.736198 
L 165.924477 -119.741157 
L 165.081506 -116.746116 
L 164.246668 -113.751074 
L 163.419998 -110.756033 
L 162.598206 -107.760992 
L 161.775053 -104.76595 
L 160.941967 -101.770909 
L 160.088852 -98.775868 
L 159.205026 -95.780826 
L 158.280218 -92.785785 
L 157.305528 -89.790744 
L 156.274289 -86.795702 
L 155.182762 -83.800661 
L 154.030592 -80.80562 
L 152.82103 -77.810579 
L 151.560877 -74.815537 
L 150.260183 -71.820496 
L 148.93173 -68.825455 
z
" id="m74d374fa89" style="stroke:#ffffff;stroke-opacity:0.3;"/>
    </defs>
    <g clip-path="url(#pc6fac1fc31)">
     <use style="fill:#4c72b0;fill-opacity:0.3;stroke:#ffffff;stroke-opacity:0.3;" x="0" xlink:href="#m74d374fa89" y="432"/>
    </g>
   </g>
   <g id="PolyCollection_2">
    <defs>
     <path d="M 317.512694 -69.352318 
L 272.887306 -69.352318 
L 272.045807 -72.341369 
L 271.325497 -75.33042 
L 270.732326 -78.319471 
L 270.26876 -81.308522 
L 269.93378 -84.297574 
L 269.723029 -87.286625 
L 269.629101 -90.275676 
L 269.641949 -93.264727 
L 269.749384 -96.253778 
L 269.937636 -99.242829 
L 270.191943 -102.23188 
L 270.497145 -105.220931 
L 270.838235 -108.209982 
L 271.200862 -111.199034 
L 271.571754 -114.188085 
L 271.939051 -117.177136 
L 272.292546 -120.166187 
L 272.623817 -123.155238 
L 272.926277 -126.144289 
L 273.195127 -129.13334 
L 273.427236 -132.122391 
L 273.620957 -135.111442 
L 273.775891 -138.100494 
L 273.892612 -141.089545 
L 273.972371 -144.078596 
L 274.016791 -147.067647 
L 274.027558 -150.056698 
L 274.006133 -153.045749 
L 273.95349 -156.0348 
L 273.869891 -159.023851 
L 273.754713 -162.012902 
L 273.606336 -165.001954 
L 273.422103 -167.991005 
L 273.198348 -170.980056 
L 272.930521 -173.969107 
L 272.613377 -176.958158 
L 272.241253 -179.947209 
L 271.808417 -182.93626 
L 271.309458 -185.925311 
L 270.739733 -188.914363 
L 270.095811 -191.903414 
L 269.375923 -194.892465 
L 268.58036 -197.881516 
L 267.711821 -200.870567 
L 266.775658 -203.859618 
L 265.780022 -206.848669 
L 264.735871 -209.83772 
L 263.656844 -212.826771 
L 262.558998 -215.815823 
L 261.460404 -218.804874 
L 260.380629 -221.793925 
L 259.340118 -224.782976 
L 258.359505 -227.772027 
L 257.458885 -230.761078 
L 256.657079 -233.750129 
L 255.970941 -236.73918 
L 255.414714 -239.728231 
L 254.999486 -242.717283 
L 254.732765 -245.706334 
L 254.618182 -248.695385 
L 254.655337 -251.684436 
L 254.8398 -254.673487 
L 255.163245 -257.662538 
L 255.613724 -260.651589 
L 256.176063 -263.64064 
L 256.832355 -266.629691 
L 257.562539 -269.618743 
L 258.345047 -272.607794 
L 259.157478 -275.596845 
L 259.977305 -278.585896 
L 260.782576 -281.574947 
L 261.552589 -284.563998 
L 262.26854 -287.553049 
L 262.914103 -290.5421 
L 263.475945 -293.531151 
L 263.944153 -296.520203 
L 264.312559 -299.509254 
L 264.578953 -302.498305 
L 264.745182 -305.487356 
L 264.817114 -308.476407 
L 264.804478 -311.465458 
L 264.720575 -314.454509 
L 264.58186 -317.44356 
L 264.407423 -320.432611 
L 264.218353 -323.421663 
L 264.03704 -326.410714 
L 263.886403 -329.399765 
L 263.789102 -332.388816 
L 263.766737 -335.377867 
L 263.839085 -338.366918 
L 264.023392 -341.355969 
L 264.333756 -344.34502 
L 264.780627 -347.334071 
L 265.37044 -350.323123 
L 266.105409 -353.312174 
L 266.983478 -356.301225 
L 267.998433 -359.290276 
L 269.140183 -362.279327 
L 270.39517 -365.268378 
L 320.00483 -365.268378 
L 320.00483 -365.268378 
L 321.259817 -362.279327 
L 322.401567 -359.290276 
L 323.416522 -356.301225 
L 324.294591 -353.312174 
L 325.02956 -350.323123 
L 325.619373 -347.334071 
L 326.066244 -344.34502 
L 326.376608 -341.355969 
L 326.560915 -338.366918 
L 326.633263 -335.377867 
L 326.610898 -332.388816 
L 326.513597 -329.399765 
L 326.36296 -326.410714 
L 326.181647 -323.421663 
L 325.992577 -320.432611 
L 325.81814 -317.44356 
L 325.679425 -314.454509 
L 325.595522 -311.465458 
L 325.582886 -308.476407 
L 325.654818 -305.487356 
L 325.821047 -302.498305 
L 326.087441 -299.509254 
L 326.455847 -296.520203 
L 326.924055 -293.531151 
L 327.485897 -290.5421 
L 328.13146 -287.553049 
L 328.847411 -284.563998 
L 329.617424 -281.574947 
L 330.422695 -278.585896 
L 331.242522 -275.596845 
L 332.054953 -272.607794 
L 332.837461 -269.618743 
L 333.567645 -266.629691 
L 334.223937 -263.64064 
L 334.786276 -260.651589 
L 335.236755 -257.662538 
L 335.5602 -254.673487 
L 335.744663 -251.684436 
L 335.781818 -248.695385 
L 335.667235 -245.706334 
L 335.400514 -242.717283 
L 334.985286 -239.728231 
L 334.429059 -236.73918 
L 333.742921 -233.750129 
L 332.941115 -230.761078 
L 332.040495 -227.772027 
L 331.059882 -224.782976 
L 330.019371 -221.793925 
L 328.939596 -218.804874 
L 327.841002 -215.815823 
L 326.743156 -212.826771 
L 325.664129 -209.83772 
L 324.619978 -206.848669 
L 323.624342 -203.859618 
L 322.688179 -200.870567 
L 321.81964 -197.881516 
L 321.024077 -194.892465 
L 320.304189 -191.903414 
L 319.660267 -188.914363 
L 319.090542 -185.925311 
L 318.591583 -182.93626 
L 318.158747 -179.947209 
L 317.786623 -176.958158 
L 317.469479 -173.969107 
L 317.201652 -170.980056 
L 316.977897 -167.991005 
L 316.793664 -165.001954 
L 316.645287 -162.012902 
L 316.530109 -159.023851 
L 316.44651 -156.0348 
L 316.393867 -153.045749 
L 316.372442 -150.056698 
L 316.383209 -147.067647 
L 316.427629 -144.078596 
L 316.507388 -141.089545 
L 316.624109 -138.100494 
L 316.779043 -135.111442 
L 316.972764 -132.122391 
L 317.204873 -129.13334 
L 317.473723 -126.144289 
L 317.776183 -123.155238 
L 318.107454 -120.166187 
L 318.460949 -117.177136 
L 318.828246 -114.188085 
L 319.199138 -111.199034 
L 319.561765 -108.209982 
L 319.902855 -105.220931 
L 320.208057 -102.23188 
L 320.462364 -99.242829 
L 320.650616 -96.253778 
L 320.758051 -93.264727 
L 320.770899 -90.275676 
L 320.676971 -87.286625 
L 320.46622 -84.297574 
L 320.13124 -81.308522 
L 319.667674 -78.319471 
L 319.074503 -75.33042 
L 318.354193 -72.341369 
L 317.512694 -69.352318 
z
" id="m002e8a2c3a" style="stroke:#ffffff;stroke-opacity:0.3;"/>
    </defs>
    <g clip-path="url(#pc6fac1fc31)">
     <use style="fill:#4c72b0;fill-opacity:0.3;stroke:#ffffff;stroke-opacity:0.3;" x="0" xlink:href="#m002e8a2c3a" y="432"/>
    </g>
   </g>
   <g id="PolyCollection_3">
    <defs>
     <path d="M 477.701345 -74.930875 
L 437.353201 -74.930875 
L 435.528122 -77.834091 
L 433.727448 -80.737308 
L 431.979712 -83.640524 
L 430.312877 -86.54374 
L 428.75312 -89.446956 
L 427.323634 -92.350173 
L 426.04354 -95.253389 
L 424.926975 -98.156605 
L 423.982444 -101.059822 
L 423.212465 -103.963038 
L 422.613561 -106.866254 
L 422.176593 -109.769471 
L 421.887415 -112.672687 
L 421.727808 -115.575903 
L 421.676617 -118.47912 
L 421.711015 -121.382336 
L 421.807787 -124.285552 
L 421.944564 -127.188768 
L 422.100892 -130.091985 
L 422.259095 -132.995201 
L 422.404869 -135.898417 
L 422.527581 -138.801634 
L 422.620286 -141.70485 
L 422.67948 -144.608066 
L 422.704632 -147.511283 
L 422.697563 -150.414499 
L 422.66172 -153.317715 
L 422.601448 -156.220932 
L 422.521283 -159.124148 
L 422.425356 -162.027364 
L 422.316931 -164.930581 
L 422.198113 -167.833797 
L 422.069722 -170.737013 
L 421.931353 -173.640229 
L 421.781572 -176.543446 
L 421.618232 -179.446662 
L 421.43888 -182.349878 
L 421.241177 -185.253095 
L 421.023327 -188.156311 
L 420.784437 -191.059527 
L 420.524798 -193.962744 
L 420.246049 -196.86596 
L 419.951204 -199.769176 
L 419.644561 -202.672393 
L 419.331475 -205.575609 
L 419.018043 -208.478825 
L 418.710714 -211.382041 
L 418.415878 -214.285258 
L 418.139459 -217.188474 
L 417.886561 -220.09169 
L 417.661205 -222.994907 
L 417.466166 -225.898123 
L 417.302938 -228.801339 
L 417.171818 -231.704556 
L 417.072102 -234.607772 
L 417.00236 -237.510988 
L 416.960769 -240.414205 
L 416.945455 -243.317421 
L 416.954813 -246.220637 
L 416.987775 -249.123854 
L 417.043983 -252.02707 
L 417.123872 -254.930286 
L 417.228633 -257.833502 
L 417.360092 -260.736719 
L 417.520487 -263.639935 
L 417.712196 -266.543151 
L 417.937428 -269.446368 
L 418.197916 -272.349584 
L 418.494637 -275.2528 
L 418.827596 -278.156017 
L 419.195672 -281.059233 
L 419.596567 -283.962449 
L 420.026845 -286.865666 
L 420.482056 -289.768882 
L 420.956955 -292.672098 
L 421.44579 -295.575314 
L 421.942635 -298.478531 
L 422.441771 -301.381747 
L 422.938069 -304.284963 
L 423.427372 -307.18818 
L 423.90685 -310.091396 
L 424.375294 -312.994612 
L 424.833355 -315.897829 
L 425.283688 -318.801045 
L 425.730995 -321.704261 
L 426.181955 -324.607478 
L 426.645032 -327.510694 
L 427.130159 -330.41391 
L 427.648312 -333.317127 
L 428.210979 -336.220343 
L 428.829549 -339.123559 
L 429.514658 -342.026775 
L 430.275526 -344.929992 
L 431.119327 -347.833208 
L 432.05063 -350.736424 
L 433.070962 -353.639641 
L 434.178527 -356.542857 
L 435.368087 -359.446073 
L 436.631052 -362.34929 
L 478.423494 -362.34929 
L 478.423494 -362.34929 
L 479.686459 -359.446073 
L 480.876019 -356.542857 
L 481.983583 -353.639641 
L 483.003916 -350.736424 
L 483.935218 -347.833208 
L 484.779019 -344.929992 
L 485.539888 -342.026775 
L 486.224997 -339.123559 
L 486.843566 -336.220343 
L 487.406233 -333.317127 
L 487.924387 -330.41391 
L 488.409514 -327.510694 
L 488.87259 -324.607478 
L 489.32355 -321.704261 
L 489.770858 -318.801045 
L 490.221191 -315.897829 
L 490.679252 -312.994612 
L 491.147696 -310.091396 
L 491.627173 -307.18818 
L 492.116477 -304.284963 
L 492.612774 -301.381747 
L 493.11191 -298.478531 
L 493.608755 -295.575314 
L 494.09759 -292.672098 
L 494.57249 -289.768882 
L 495.027701 -286.865666 
L 495.457978 -283.962449 
L 495.858874 -281.059233 
L 496.22695 -278.156017 
L 496.559908 -275.2528 
L 496.85663 -272.349584 
L 497.117117 -269.446368 
L 497.342349 -266.543151 
L 497.534058 -263.639935 
L 497.694454 -260.736719 
L 497.825912 -257.833502 
L 497.930674 -254.930286 
L 498.010562 -252.02707 
L 498.066771 -249.123854 
L 498.099732 -246.220637 
L 498.109091 -243.317421 
L 498.093776 -240.414205 
L 498.052185 -237.510988 
L 497.982443 -234.607772 
L 497.882727 -231.704556 
L 497.751608 -228.801339 
L 497.588379 -225.898123 
L 497.39334 -222.994907 
L 497.167984 -220.09169 
L 496.915087 -217.188474 
L 496.638667 -214.285258 
L 496.343831 -211.382041 
L 496.036503 -208.478825 
L 495.723071 -205.575609 
L 495.409985 -202.672393 
L 495.103341 -199.769176 
L 494.808497 -196.86596 
L 494.529747 -193.962744 
L 494.270109 -191.059527 
L 494.031218 -188.156311 
L 493.813368 -185.253095 
L 493.615666 -182.349878 
L 493.436313 -179.446662 
L 493.272974 -176.543446 
L 493.123192 -173.640229 
L 492.984823 -170.737013 
L 492.856433 -167.833797 
L 492.737614 -164.930581 
L 492.62919 -162.027364 
L 492.533262 -159.124148 
L 492.453097 -156.220932 
L 492.392825 -153.317715 
L 492.356983 -150.414499 
L 492.349913 -147.511283 
L 492.375066 -144.608066 
L 492.43426 -141.70485 
L 492.526964 -138.801634 
L 492.649676 -135.898417 
L 492.79545 -132.995201 
L 492.953654 -130.091985 
L 493.109982 -127.188768 
L 493.246758 -124.285552 
L 493.343531 -121.382336 
L 493.377928 -118.47912 
L 493.326738 -115.575903 
L 493.167131 -112.672687 
L 492.877953 -109.769471 
L 492.440984 -106.866254 
L 491.84208 -103.963038 
L 491.072101 -101.059822 
L 490.12757 -98.156605 
L 489.011006 -95.253389 
L 487.730911 -92.350173 
L 486.301425 -89.446956 
L 484.741668 -86.54374 
L 483.074834 -83.640524 
L 481.327098 -80.737308 
L 479.526423 -77.834091 
L 477.701345 -74.930875 
z
" id="m948fda6dca" style="stroke:#ffffff;stroke-opacity:0.3;"/>
    </defs>
    <g clip-path="url(#pc6fac1fc31)">
     <use style="fill:#4c72b0;fill-opacity:0.3;stroke:#ffffff;stroke-opacity:0.3;" x="0" xlink:href="#m948fda6dca" y="432"/>
    </g>
   </g>
   <g id="LineCollection_1">
    <path clip-path="url(#pc6fac1fc31)" d="M 112.581818 66.665455 
L 153.163636 66.665455 
" style="fill:none;stroke:#4c72b0;stroke-width:1.5;"/>
    <path clip-path="url(#pc6fac1fc31)" d="M 274.909091 66.731622 
L 315.490909 66.731622 
" style="fill:none;stroke:#4c72b0;stroke-width:1.5;"/>
    <path clip-path="url(#pc6fac1fc31)" d="M 437.236364 69.65071 
L 477.818182 69.65071 
" style="fill:none;stroke:#4c72b0;stroke-width:1.5;"/>
   </g>
   <g id="LineCollection_2">
    <path clip-path="url(#pc6fac1fc31)" d="M 112.581818 363.174545 
L 153.163636 363.174545 
" style="fill:none;stroke:#4c72b0;stroke-width:1.5;"/>
    <path clip-path="url(#pc6fac1fc31)" d="M 274.909091 362.647682 
L 315.490909 362.647682 
" style="fill:none;stroke:#4c72b0;stroke-width:1.5;"/>
    <path clip-path="url(#pc6fac1fc31)" d="M 437.236364 357.069125 
L 477.818182 357.069125 
" style="fill:none;stroke:#4c72b0;stroke-width:1.5;"/>
   </g>
   <g id="LineCollection_3">
    <path clip-path="url(#pc6fac1fc31)" d="M 132.872727 363.174545 
L 132.872727 66.665455 
" style="fill:none;stroke:#4c72b0;stroke-width:1.5;"/>
    <path clip-path="url(#pc6fac1fc31)" d="M 295.2 362.647682 
L 295.2 66.731622 
" style="fill:none;stroke:#4c72b0;stroke-width:1.5;"/>
    <path clip-path="url(#pc6fac1fc31)" d="M 457.527273 357.069125 
L 457.527273 69.65071 
" style="fill:none;stroke:#4c72b0;stroke-width:1.5;"/>
   </g>
   <g id="LineCollection_4">
    <path clip-path="url(#pc6fac1fc31)" d="M 112.581818 247.823346 
L 153.163636 247.823346 
" style="fill:none;stroke:#4c72b0;stroke-width:1.5;"/>
    <path clip-path="url(#pc6fac1fc31)" d="M 274.909091 192.211115 
L 315.490909 192.211115 
" style="fill:none;stroke:#4c72b0;stroke-width:1.5;"/>
    <path clip-path="url(#pc6fac1fc31)" d="M 437.236364 208.788644 
L 477.818182 208.788644 
" style="fill:none;stroke:#4c72b0;stroke-width:1.5;"/>
   </g>
   <g id="patch_3">
    <path d="M 72 378 
L 72 51.84 
" style="fill:none;stroke:#ffffff;stroke-linecap:square;stroke-linejoin:miter;stroke-width:1.25;"/>
   </g>
   <g id="patch_4">
    <path d="M 518.4 378 
L 518.4 51.84 
" style="fill:none;stroke:#ffffff;stroke-linecap:square;stroke-linejoin:miter;stroke-width:1.25;"/>
   </g>
   <g id="patch_5">
    <path d="M 72 378 
L 518.4 378 
" style="fill:none;stroke:#ffffff;stroke-linecap:square;stroke-linejoin:miter;stroke-width:1.25;"/>
   </g>
   <g id="patch_6">
    <path d="M 72 51.84 
L 518.4 51.84 
" style="fill:none;stroke:#ffffff;stroke-linecap:square;stroke-linejoin:miter;stroke-width:1.25;"/>
   </g>
   <g id="text_12">
    <!-- Recurrent dropout ratio: Island DNN (top 266 models) -->
    <g style="fill:#262626;" transform="translate(10.419375 45.84)scale(0.24 -0.24)">
     <defs>
      <path d="M 9.03125 41.84375 
L 9.03125 51.859375 
L 19.046875 51.859375 
L 19.046875 41.84375 
z
M 9.03125 0 
L 9.03125 10.015625 
L 19.046875 10.015625 
L 19.046875 0 
z
" id="ArialMT-58"/>
      <path d="M 9.328125 0 
L 9.328125 71.578125 
L 18.796875 71.578125 
L 18.796875 0 
z
" id="ArialMT-73"/>
      <path d="M 6.390625 0 
L 6.390625 71.578125 
L 15.1875 71.578125 
L 15.1875 0 
z
" id="ArialMT-108"/>
      <path d="M 7.71875 0 
L 7.71875 71.578125 
L 32.375 71.578125 
Q 40.71875 71.578125 45.125 70.5625 
Q 51.265625 69.140625 55.609375 65.4375 
Q 61.28125 60.640625 64.078125 53.1875 
Q 66.890625 45.75 66.890625 36.1875 
Q 66.890625 28.03125 64.984375 21.734375 
Q 63.09375 15.4375 60.109375 11.296875 
Q 57.125 7.171875 53.578125 4.796875 
Q 50.046875 2.4375 45.046875 1.21875 
Q 40.046875 0 33.546875 0 
z
M 17.1875 8.453125 
L 32.46875 8.453125 
Q 39.546875 8.453125 43.578125 9.765625 
Q 47.609375 11.078125 50 13.484375 
Q 53.375 16.84375 55.25 22.53125 
Q 57.125 28.21875 57.125 36.328125 
Q 57.125 47.5625 53.4375 53.59375 
Q 49.75 59.625 44.484375 61.671875 
Q 40.671875 63.140625 32.234375 63.140625 
L 17.1875 63.140625 
z
" id="ArialMT-68"/>
      <path d="M 49.75 54.046875 
L 41.015625 53.375 
Q 39.84375 58.546875 37.703125 60.890625 
Q 34.125 64.65625 28.90625 64.65625 
Q 24.703125 64.65625 21.53125 62.3125 
Q 17.390625 59.28125 14.984375 53.46875 
Q 12.59375 47.65625 12.5 36.921875 
Q 15.671875 41.75 20.265625 44.09375 
Q 24.859375 46.4375 29.890625 46.4375 
Q 38.671875 46.4375 44.84375 39.96875 
Q 51.03125 33.5 51.03125 23.25 
Q 51.03125 16.5 48.125 10.71875 
Q 45.21875 4.9375 40.140625 1.859375 
Q 35.0625 -1.21875 28.609375 -1.21875 
Q 17.625 -1.21875 10.6875 6.859375 
Q 3.765625 14.9375 3.765625 33.5 
Q 3.765625 54.25 11.421875 63.671875 
Q 18.109375 71.875 29.4375 71.875 
Q 37.890625 71.875 43.28125 67.140625 
Q 48.6875 62.40625 49.75 54.046875 
z
M 13.875 23.1875 
Q 13.875 18.65625 15.796875 14.5 
Q 17.71875 10.359375 21.1875 8.171875 
Q 24.65625 6 28.46875 6 
Q 34.03125 6 38.03125 10.484375 
Q 42.046875 14.984375 42.046875 22.703125 
Q 42.046875 30.125 38.078125 34.390625 
Q 34.125 38.671875 28.125 38.671875 
Q 22.171875 38.671875 18.015625 34.390625 
Q 13.875 30.125 13.875 23.1875 
z
" id="ArialMT-54"/>
      <path d="M 6.59375 0 
L 6.59375 51.859375 
L 14.453125 51.859375 
L 14.453125 44.578125 
Q 16.890625 48.390625 20.9375 50.703125 
Q 25 53.03125 30.171875 53.03125 
Q 35.9375 53.03125 39.625 50.640625 
Q 43.3125 48.25 44.828125 43.953125 
Q 50.984375 53.03125 60.84375 53.03125 
Q 68.5625 53.03125 72.703125 48.75 
Q 76.859375 44.484375 76.859375 35.59375 
L 76.859375 0 
L 68.109375 0 
L 68.109375 32.671875 
Q 68.109375 37.9375 67.25 40.25 
Q 66.40625 42.578125 64.15625 43.984375 
Q 61.921875 45.40625 58.890625 45.40625 
Q 53.421875 45.40625 49.796875 41.765625 
Q 46.1875 38.140625 46.1875 30.125 
L 46.1875 0 
L 37.40625 0 
L 37.40625 33.6875 
Q 37.40625 39.546875 35.25 42.46875 
Q 33.109375 45.40625 28.21875 45.40625 
Q 24.515625 45.40625 21.359375 43.453125 
Q 18.21875 41.5 16.796875 37.734375 
Q 15.375 33.984375 15.375 26.90625 
L 15.375 0 
z
" id="ArialMT-109"/>
     </defs>
     <use xlink:href="#ArialMT-82"/>
     <use x="72.216797" xlink:href="#ArialMT-101"/>
     <use x="127.832031" xlink:href="#ArialMT-99"/>
     <use x="177.832031" xlink:href="#ArialMT-117"/>
     <use x="233.447266" xlink:href="#ArialMT-114"/>
     <use x="266.748047" xlink:href="#ArialMT-114"/>
     <use x="300.048828" xlink:href="#ArialMT-101"/>
     <use x="355.664062" xlink:href="#ArialMT-110"/>
     <use x="411.279297" xlink:href="#ArialMT-116"/>
     <use x="439.0625" xlink:href="#ArialMT-32"/>
     <use x="466.845703" xlink:href="#ArialMT-100"/>
     <use x="522.460938" xlink:href="#ArialMT-114"/>
     <use x="555.761719" xlink:href="#ArialMT-111"/>
     <use x="611.376953" xlink:href="#ArialMT-112"/>
     <use x="666.992188" xlink:href="#ArialMT-111"/>
     <use x="722.607422" xlink:href="#ArialMT-117"/>
     <use x="778.222656" xlink:href="#ArialMT-116"/>
     <use x="806.005859" xlink:href="#ArialMT-32"/>
     <use x="833.789062" xlink:href="#ArialMT-114"/>
     <use x="867.089844" xlink:href="#ArialMT-97"/>
     <use x="922.705078" xlink:href="#ArialMT-116"/>
     <use x="950.488281" xlink:href="#ArialMT-105"/>
     <use x="972.705078" xlink:href="#ArialMT-111"/>
     <use x="1028.320312" xlink:href="#ArialMT-58"/>
     <use x="1056.103516" xlink:href="#ArialMT-32"/>
     <use x="1083.886719" xlink:href="#ArialMT-73"/>
     <use x="1111.669922" xlink:href="#ArialMT-115"/>
     <use x="1161.669922" xlink:href="#ArialMT-108"/>
     <use x="1183.886719" xlink:href="#ArialMT-97"/>
     <use x="1239.501953" xlink:href="#ArialMT-110"/>
     <use x="1295.117188" xlink:href="#ArialMT-100"/>
     <use x="1350.732422" xlink:href="#ArialMT-32"/>
     <use x="1378.515625" xlink:href="#ArialMT-68"/>
     <use x="1450.732422" xlink:href="#ArialMT-78"/>
     <use x="1522.949219" xlink:href="#ArialMT-78"/>
     <use x="1595.166016" xlink:href="#ArialMT-32"/>
     <use x="1622.949219" xlink:href="#ArialMT-40"/>
     <use x="1656.25" xlink:href="#ArialMT-116"/>
     <use x="1684.033203" xlink:href="#ArialMT-111"/>
     <use x="1739.648438" xlink:href="#ArialMT-112"/>
     <use x="1795.263672" xlink:href="#ArialMT-32"/>
     <use x="1823.046875" xlink:href="#ArialMT-50"/>
     <use x="1878.662109" xlink:href="#ArialMT-54"/>
     <use x="1934.277344" xlink:href="#ArialMT-54"/>
     <use x="1989.892578" xlink:href="#ArialMT-32"/>
     <use x="2017.675781" xlink:href="#ArialMT-109"/>
     <use x="2100.976562" xlink:href="#ArialMT-111"/>
     <use x="2156.591797" xlink:href="#ArialMT-100"/>
     <use x="2212.207031" xlink:href="#ArialMT-101"/>
     <use x="2267.822266" xlink:href="#ArialMT-108"/>
     <use x="2290.039062" xlink:href="#ArialMT-115"/>
     <use x="2340.039062" xlink:href="#ArialMT-41"/>
    </g>
   </g>
  </g>
 </g>
 <defs>
  <clipPath id="pc6fac1fc31">
   <rect height="326.16" width="446.4" x="72" y="51.84"/>
  </clipPath>
 </defs>
</svg>
