<?xml version="1.0" encoding="utf-8" standalone="no"?>
<!DOCTYPE svg PUBLIC "-//W3C//DTD SVG 1.1//EN"
  "http://www.w3.org/Graphics/SVG/1.1/DTD/svg11.dtd">
<!-- Created with matplotlib (https://matplotlib.org/) -->
<svg height="432pt" version="1.1" viewBox="0 0 576 432" width="576pt" xmlns="http://www.w3.org/2000/svg" xmlns:xlink="http://www.w3.org/1999/xlink">
 <metadata>
  <rdf:RDF xmlns:cc="http://creativecommons.org/ns#" xmlns:dc="http://purl.org/dc/elements/1.1/" xmlns:rdf="http://www.w3.org/1999/02/22-rdf-syntax-ns#">
   <cc:Work>
    <dc:type rdf:resource="http://purl.org/dc/dcmitype/StillImage"/>
    <dc:date>2021-04-08T23:10:53.255830</dc:date>
    <dc:format>image/svg+xml</dc:format>
    <dc:creator>
     <cc:Agent>
      <dc:title>Matplotlib v3.3.4, https://matplotlib.org/</dc:title>
     </cc:Agent>
    </dc:creator>
   </cc:Work>
  </rdf:RDF>
 </metadata>
 <defs>
  <style type="text/css">*{stroke-linecap:butt;stroke-linejoin:round;}</style>
 </defs>
 <g id="figure_1">
  <g id="patch_1">
   <path d="M 0 432 
L 576 432 
L 576 0 
L 0 0 
z
" style="fill:#ffffff;"/>
  </g>
  <g id="axes_1">
   <g id="patch_2">
    <path d="M 72 378 
L 518.4 378 
L 518.4 51.84 
L 72 51.84 
z
" style="fill:#eaeaf2;"/>
   </g>
   <g id="matplotlib.axis_1">
    <g id="xtick_1">
     <g id="line2d_1">
      <path clip-path="url(#p5e57375235)" d="M 132.872727 378 
L 132.872727 51.84 
" style="fill:none;stroke:#ffffff;stroke-linecap:round;"/>
     </g>
     <g id="text_1">
      <!-- First -->
      <g style="fill:#262626;" transform="translate(111.491477 403.247187)scale(0.22 -0.22)">
       <defs>
        <path d="M 8.203125 0 
L 8.203125 71.578125 
L 56.5 71.578125 
L 56.5 63.140625 
L 17.671875 63.140625 
L 17.671875 40.96875 
L 51.265625 40.96875 
L 51.265625 32.515625 
L 17.671875 32.515625 
L 17.671875 0 
z
" id="ArialMT-70"/>
        <path d="M 6.640625 61.46875 
L 6.640625 71.578125 
L 15.4375 71.578125 
L 15.4375 61.46875 
z
M 6.640625 0 
L 6.640625 51.859375 
L 15.4375 51.859375 
L 15.4375 0 
z
" id="ArialMT-105"/>
        <path d="M 6.5 0 
L 6.5 51.859375 
L 14.40625 51.859375 
L 14.40625 44 
Q 17.4375 49.515625 20 51.265625 
Q 22.5625 53.03125 25.640625 53.03125 
Q 30.078125 53.03125 34.671875 50.203125 
L 31.640625 42.046875 
Q 28.421875 43.953125 25.203125 43.953125 
Q 22.3125 43.953125 20.015625 42.21875 
Q 17.71875 40.484375 16.75 37.40625 
Q 15.28125 32.71875 15.28125 27.15625 
L 15.28125 0 
z
" id="ArialMT-114"/>
        <path d="M 3.078125 15.484375 
L 11.765625 16.84375 
Q 12.5 11.625 15.84375 8.84375 
Q 19.1875 6.0625 25.203125 6.0625 
Q 31.25 6.0625 34.171875 8.515625 
Q 37.109375 10.984375 37.109375 14.3125 
Q 37.109375 17.28125 34.515625 19 
Q 32.71875 20.171875 25.53125 21.96875 
Q 15.875 24.421875 12.140625 26.203125 
Q 8.40625 27.984375 6.46875 31.125 
Q 4.546875 34.28125 4.546875 38.09375 
Q 4.546875 41.546875 6.125 44.5 
Q 7.71875 47.46875 10.453125 49.421875 
Q 12.5 50.921875 16.03125 51.96875 
Q 19.578125 53.03125 23.640625 53.03125 
Q 29.734375 53.03125 34.34375 51.265625 
Q 38.96875 49.515625 41.15625 46.5 
Q 43.359375 43.5 44.1875 38.484375 
L 35.59375 37.3125 
Q 35.015625 41.3125 32.203125 43.546875 
Q 29.390625 45.796875 24.265625 45.796875 
Q 18.21875 45.796875 15.625 43.796875 
Q 13.03125 41.796875 13.03125 39.109375 
Q 13.03125 37.40625 14.109375 36.03125 
Q 15.1875 34.625 17.484375 33.6875 
Q 18.796875 33.203125 25.25 31.453125 
Q 34.578125 28.953125 38.25 27.359375 
Q 41.9375 25.78125 44.03125 22.75 
Q 46.140625 19.734375 46.140625 15.234375 
Q 46.140625 10.84375 43.578125 6.953125 
Q 41.015625 3.078125 36.171875 0.953125 
Q 31.34375 -1.171875 25.25 -1.171875 
Q 15.140625 -1.171875 9.84375 3.03125 
Q 4.546875 7.234375 3.078125 15.484375 
z
" id="ArialMT-115"/>
        <path d="M 25.78125 7.859375 
L 27.046875 0.09375 
Q 23.34375 -0.6875 20.40625 -0.6875 
Q 15.625 -0.6875 12.984375 0.828125 
Q 10.359375 2.34375 9.28125 4.8125 
Q 8.203125 7.28125 8.203125 15.1875 
L 8.203125 45.015625 
L 1.765625 45.015625 
L 1.765625 51.859375 
L 8.203125 51.859375 
L 8.203125 64.703125 
L 16.9375 69.96875 
L 16.9375 51.859375 
L 25.78125 51.859375 
L 25.78125 45.015625 
L 16.9375 45.015625 
L 16.9375 14.703125 
Q 16.9375 10.9375 17.40625 9.859375 
Q 17.875 8.796875 18.921875 8.15625 
Q 19.96875 7.515625 21.921875 7.515625 
Q 23.390625 7.515625 25.78125 7.859375 
z
" id="ArialMT-116"/>
       </defs>
       <use xlink:href="#ArialMT-70"/>
       <use x="61.083984" xlink:href="#ArialMT-105"/>
       <use x="83.300781" xlink:href="#ArialMT-114"/>
       <use x="116.601562" xlink:href="#ArialMT-115"/>
       <use x="166.601562" xlink:href="#ArialMT-116"/>
      </g>
     </g>
    </g>
    <g id="xtick_2">
     <g id="line2d_2">
      <path clip-path="url(#p5e57375235)" d="M 295.2 378 
L 295.2 51.84 
" style="fill:none;stroke:#ffffff;stroke-linecap:round;"/>
     </g>
     <g id="text_2">
      <!-- Second -->
      <g style="fill:#262626;" transform="translate(257.894531 403.247187)scale(0.22 -0.22)">
       <defs>
        <path d="M 4.5 23 
L 13.421875 23.78125 
Q 14.0625 18.40625 16.375 14.96875 
Q 18.703125 11.53125 23.578125 9.40625 
Q 28.46875 7.28125 34.578125 7.28125 
Q 39.984375 7.28125 44.140625 8.890625 
Q 48.296875 10.5 50.3125 13.296875 
Q 52.34375 16.109375 52.34375 19.4375 
Q 52.34375 22.796875 50.390625 25.3125 
Q 48.4375 27.828125 43.953125 29.546875 
Q 41.0625 30.671875 31.203125 33.03125 
Q 21.34375 35.40625 17.390625 37.5 
Q 12.25 40.1875 9.734375 44.15625 
Q 7.234375 48.140625 7.234375 53.078125 
Q 7.234375 58.5 10.296875 63.203125 
Q 13.375 67.921875 19.28125 70.359375 
Q 25.203125 72.796875 32.421875 72.796875 
Q 40.375 72.796875 46.453125 70.234375 
Q 52.546875 67.671875 55.8125 62.6875 
Q 59.078125 57.71875 59.328125 51.421875 
L 50.25 50.734375 
Q 49.515625 57.515625 45.28125 60.984375 
Q 41.0625 64.453125 32.8125 64.453125 
Q 24.21875 64.453125 20.28125 61.296875 
Q 16.359375 58.15625 16.359375 53.71875 
Q 16.359375 49.859375 19.140625 47.359375 
Q 21.875 44.875 33.421875 42.265625 
Q 44.96875 39.65625 49.265625 37.703125 
Q 55.515625 34.8125 58.484375 30.390625 
Q 61.46875 25.984375 61.46875 20.21875 
Q 61.46875 14.5 58.203125 9.4375 
Q 54.9375 4.390625 48.796875 1.578125 
Q 42.671875 -1.21875 35.015625 -1.21875 
Q 25.296875 -1.21875 18.71875 1.609375 
Q 12.15625 4.4375 8.421875 10.125 
Q 4.6875 15.828125 4.5 23 
z
" id="ArialMT-83"/>
        <path d="M 42.09375 16.703125 
L 51.171875 15.578125 
Q 49.03125 7.625 43.21875 3.21875 
Q 37.40625 -1.171875 28.375 -1.171875 
Q 17 -1.171875 10.328125 5.828125 
Q 3.65625 12.84375 3.65625 25.484375 
Q 3.65625 38.578125 10.390625 45.796875 
Q 17.140625 53.03125 27.875 53.03125 
Q 38.28125 53.03125 44.875 45.953125 
Q 51.46875 38.875 51.46875 26.03125 
Q 51.46875 25.25 51.421875 23.6875 
L 12.75 23.6875 
Q 13.234375 15.140625 17.578125 10.59375 
Q 21.921875 6.0625 28.421875 6.0625 
Q 33.25 6.0625 36.671875 8.59375 
Q 40.09375 11.140625 42.09375 16.703125 
z
M 13.234375 30.90625 
L 42.1875 30.90625 
Q 41.609375 37.453125 38.875 40.71875 
Q 34.671875 45.796875 27.984375 45.796875 
Q 21.921875 45.796875 17.796875 41.75 
Q 13.671875 37.703125 13.234375 30.90625 
z
" id="ArialMT-101"/>
        <path d="M 40.4375 19 
L 49.078125 17.875 
Q 47.65625 8.9375 41.8125 3.875 
Q 35.984375 -1.171875 27.484375 -1.171875 
Q 16.84375 -1.171875 10.375 5.78125 
Q 3.90625 12.75 3.90625 25.734375 
Q 3.90625 34.125 6.6875 40.421875 
Q 9.46875 46.734375 15.15625 49.875 
Q 20.84375 53.03125 27.546875 53.03125 
Q 35.984375 53.03125 41.359375 48.75 
Q 46.734375 44.484375 48.25 36.625 
L 39.703125 35.296875 
Q 38.484375 40.53125 35.375 43.15625 
Q 32.28125 45.796875 27.875 45.796875 
Q 21.234375 45.796875 17.078125 41.03125 
Q 12.9375 36.28125 12.9375 25.984375 
Q 12.9375 15.53125 16.9375 10.796875 
Q 20.953125 6.0625 27.390625 6.0625 
Q 32.5625 6.0625 36.03125 9.234375 
Q 39.5 12.40625 40.4375 19 
z
" id="ArialMT-99"/>
        <path d="M 3.328125 25.921875 
Q 3.328125 40.328125 11.328125 47.265625 
Q 18.015625 53.03125 27.640625 53.03125 
Q 38.328125 53.03125 45.109375 46.015625 
Q 51.90625 39.015625 51.90625 26.65625 
Q 51.90625 16.65625 48.90625 10.90625 
Q 45.90625 5.171875 40.15625 2 
Q 34.421875 -1.171875 27.640625 -1.171875 
Q 16.75 -1.171875 10.03125 5.8125 
Q 3.328125 12.796875 3.328125 25.921875 
z
M 12.359375 25.921875 
Q 12.359375 15.96875 16.703125 11.015625 
Q 21.046875 6.0625 27.640625 6.0625 
Q 34.1875 6.0625 38.53125 11.03125 
Q 42.875 16.015625 42.875 26.21875 
Q 42.875 35.84375 38.5 40.796875 
Q 34.125 45.75 27.640625 45.75 
Q 21.046875 45.75 16.703125 40.8125 
Q 12.359375 35.890625 12.359375 25.921875 
z
" id="ArialMT-111"/>
        <path d="M 6.59375 0 
L 6.59375 51.859375 
L 14.5 51.859375 
L 14.5 44.484375 
Q 20.21875 53.03125 31 53.03125 
Q 35.6875 53.03125 39.625 51.34375 
Q 43.5625 49.65625 45.515625 46.921875 
Q 47.46875 44.1875 48.25 40.4375 
Q 48.734375 37.984375 48.734375 31.890625 
L 48.734375 0 
L 39.9375 0 
L 39.9375 31.546875 
Q 39.9375 36.921875 38.90625 39.578125 
Q 37.890625 42.234375 35.28125 43.8125 
Q 32.671875 45.40625 29.15625 45.40625 
Q 23.53125 45.40625 19.453125 41.84375 
Q 15.375 38.28125 15.375 28.328125 
L 15.375 0 
z
" id="ArialMT-110"/>
        <path d="M 40.234375 0 
L 40.234375 6.546875 
Q 35.296875 -1.171875 25.734375 -1.171875 
Q 19.53125 -1.171875 14.328125 2.25 
Q 9.125 5.671875 6.265625 11.796875 
Q 3.421875 17.921875 3.421875 25.875 
Q 3.421875 33.640625 6 39.96875 
Q 8.59375 46.296875 13.765625 49.65625 
Q 18.953125 53.03125 25.34375 53.03125 
Q 30.03125 53.03125 33.6875 51.046875 
Q 37.359375 49.078125 39.65625 45.90625 
L 39.65625 71.578125 
L 48.390625 71.578125 
L 48.390625 0 
z
M 12.453125 25.875 
Q 12.453125 15.921875 16.640625 10.984375 
Q 20.84375 6.0625 26.5625 6.0625 
Q 32.328125 6.0625 36.34375 10.765625 
Q 40.375 15.484375 40.375 25.140625 
Q 40.375 35.796875 36.265625 40.765625 
Q 32.171875 45.75 26.171875 45.75 
Q 20.3125 45.75 16.375 40.96875 
Q 12.453125 36.1875 12.453125 25.875 
z
" id="ArialMT-100"/>
       </defs>
       <use xlink:href="#ArialMT-83"/>
       <use x="66.699219" xlink:href="#ArialMT-101"/>
       <use x="122.314453" xlink:href="#ArialMT-99"/>
       <use x="172.314453" xlink:href="#ArialMT-111"/>
       <use x="227.929688" xlink:href="#ArialMT-110"/>
       <use x="283.544922" xlink:href="#ArialMT-100"/>
      </g>
     </g>
    </g>
    <g id="xtick_3">
     <g id="line2d_3">
      <path clip-path="url(#p5e57375235)" d="M 457.527273 378 
L 457.527273 51.84 
" style="fill:none;stroke:#ffffff;stroke-linecap:round;"/>
     </g>
     <g id="text_3">
      <!-- Third -->
      <g style="fill:#262626;" transform="translate(432.467898 403.247187)scale(0.22 -0.22)">
       <defs>
        <path d="M 25.921875 0 
L 25.921875 63.140625 
L 2.34375 63.140625 
L 2.34375 71.578125 
L 59.078125 71.578125 
L 59.078125 63.140625 
L 35.40625 63.140625 
L 35.40625 0 
z
" id="ArialMT-84"/>
        <path d="M 6.59375 0 
L 6.59375 71.578125 
L 15.375 71.578125 
L 15.375 45.90625 
Q 21.53125 53.03125 30.90625 53.03125 
Q 36.671875 53.03125 40.921875 50.75 
Q 45.171875 48.484375 47 44.484375 
Q 48.828125 40.484375 48.828125 32.859375 
L 48.828125 0 
L 40.046875 0 
L 40.046875 32.859375 
Q 40.046875 39.453125 37.1875 42.453125 
Q 34.328125 45.453125 29.109375 45.453125 
Q 25.203125 45.453125 21.75 43.421875 
Q 18.3125 41.40625 16.84375 37.9375 
Q 15.375 34.46875 15.375 28.375 
L 15.375 0 
z
" id="ArialMT-104"/>
       </defs>
       <use xlink:href="#ArialMT-84"/>
       <use x="61.083984" xlink:href="#ArialMT-104"/>
       <use x="116.699219" xlink:href="#ArialMT-105"/>
       <use x="138.916016" xlink:href="#ArialMT-114"/>
       <use x="172.216797" xlink:href="#ArialMT-100"/>
      </g>
     </g>
    </g>
    <g id="text_4">
     <!-- RNN Layers -->
     <g style="fill:#262626;" transform="translate(229.8525 428.798437)scale(0.24 -0.24)">
      <defs>
       <path d="M 7.859375 0 
L 7.859375 71.578125 
L 39.59375 71.578125 
Q 49.171875 71.578125 54.140625 69.640625 
Q 59.125 67.71875 62.109375 62.828125 
Q 65.09375 57.953125 65.09375 52.046875 
Q 65.09375 44.4375 60.15625 39.203125 
Q 55.21875 33.984375 44.921875 32.5625 
Q 48.6875 30.765625 50.640625 29 
Q 54.78125 25.203125 58.5 19.484375 
L 70.953125 0 
L 59.03125 0 
L 49.5625 14.890625 
Q 45.40625 21.34375 42.71875 24.75 
Q 40.046875 28.171875 37.921875 29.53125 
Q 35.796875 30.90625 33.59375 31.453125 
Q 31.984375 31.78125 28.328125 31.78125 
L 17.328125 31.78125 
L 17.328125 0 
z
M 17.328125 39.984375 
L 37.703125 39.984375 
Q 44.1875 39.984375 47.84375 41.328125 
Q 51.515625 42.671875 53.421875 45.625 
Q 55.328125 48.578125 55.328125 52.046875 
Q 55.328125 57.125 51.640625 60.390625 
Q 47.953125 63.671875 39.984375 63.671875 
L 17.328125 63.671875 
z
" id="ArialMT-82"/>
       <path d="M 7.625 0 
L 7.625 71.578125 
L 17.328125 71.578125 
L 54.9375 15.375 
L 54.9375 71.578125 
L 64.015625 71.578125 
L 64.015625 0 
L 54.296875 0 
L 16.703125 56.25 
L 16.703125 0 
z
" id="ArialMT-78"/>
       <path id="ArialMT-32"/>
       <path d="M 7.328125 0 
L 7.328125 71.578125 
L 16.796875 71.578125 
L 16.796875 8.453125 
L 52.046875 8.453125 
L 52.046875 0 
z
" id="ArialMT-76"/>
       <path d="M 40.4375 6.390625 
Q 35.546875 2.25 31.03125 0.53125 
Q 26.515625 -1.171875 21.34375 -1.171875 
Q 12.796875 -1.171875 8.203125 3 
Q 3.609375 7.171875 3.609375 13.671875 
Q 3.609375 17.484375 5.34375 20.625 
Q 7.078125 23.78125 9.890625 25.6875 
Q 12.703125 27.59375 16.21875 28.5625 
Q 18.796875 29.25 24.03125 29.890625 
Q 34.671875 31.15625 39.703125 32.90625 
Q 39.75 34.71875 39.75 35.203125 
Q 39.75 40.578125 37.25 42.78125 
Q 33.890625 45.75 27.25 45.75 
Q 21.046875 45.75 18.09375 43.578125 
Q 15.140625 41.40625 13.71875 35.890625 
L 5.125 37.0625 
Q 6.296875 42.578125 8.984375 45.96875 
Q 11.671875 49.359375 16.75 51.1875 
Q 21.828125 53.03125 28.515625 53.03125 
Q 35.15625 53.03125 39.296875 51.46875 
Q 43.453125 49.90625 45.40625 47.53125 
Q 47.359375 45.171875 48.140625 41.546875 
Q 48.578125 39.3125 48.578125 33.453125 
L 48.578125 21.734375 
Q 48.578125 9.46875 49.140625 6.21875 
Q 49.703125 2.984375 51.375 0 
L 42.1875 0 
Q 40.828125 2.734375 40.4375 6.390625 
z
M 39.703125 26.03125 
Q 34.90625 24.078125 25.34375 22.703125 
Q 19.921875 21.921875 17.671875 20.9375 
Q 15.4375 19.96875 14.203125 18.09375 
Q 12.984375 16.21875 12.984375 13.921875 
Q 12.984375 10.40625 15.640625 8.0625 
Q 18.3125 5.71875 23.4375 5.71875 
Q 28.515625 5.71875 32.46875 7.9375 
Q 36.421875 10.15625 38.28125 14.015625 
Q 39.703125 17 39.703125 22.796875 
z
" id="ArialMT-97"/>
       <path d="M 6.203125 -19.96875 
L 5.21875 -11.71875 
Q 8.109375 -12.5 10.25 -12.5 
Q 13.1875 -12.5 14.9375 -11.515625 
Q 16.703125 -10.546875 17.828125 -8.796875 
Q 18.65625 -7.46875 20.515625 -2.25 
Q 20.75 -1.515625 21.296875 -0.09375 
L 1.609375 51.859375 
L 11.078125 51.859375 
L 21.875 21.828125 
Q 23.96875 16.109375 25.640625 9.8125 
Q 27.15625 15.875 29.25 21.625 
L 40.328125 51.859375 
L 49.125 51.859375 
L 29.390625 -0.875 
Q 26.21875 -9.421875 24.46875 -12.640625 
Q 22.125 -17 19.09375 -19.015625 
Q 16.0625 -21.046875 11.859375 -21.046875 
Q 9.328125 -21.046875 6.203125 -19.96875 
z
" id="ArialMT-121"/>
      </defs>
      <use xlink:href="#ArialMT-82"/>
      <use x="72.216797" xlink:href="#ArialMT-78"/>
      <use x="144.433594" xlink:href="#ArialMT-78"/>
      <use x="216.650391" xlink:href="#ArialMT-32"/>
      <use x="244.433594" xlink:href="#ArialMT-76"/>
      <use x="300.048828" xlink:href="#ArialMT-97"/>
      <use x="355.664062" xlink:href="#ArialMT-121"/>
      <use x="405.664062" xlink:href="#ArialMT-101"/>
      <use x="461.279297" xlink:href="#ArialMT-114"/>
      <use x="494.580078" xlink:href="#ArialMT-115"/>
     </g>
    </g>
   </g>
   <g id="matplotlib.axis_2">
    <g id="ytick_1">
     <g id="line2d_4">
      <path clip-path="url(#p5e57375235)" d="M 72 326.781368 
L 518.4 326.781368 
" style="fill:none;stroke:#ffffff;stroke-linecap:round;"/>
     </g>
     <g id="text_5">
      <!-- 0.05 -->
      <g style="fill:#262626;" transform="translate(19.685938 334.654962)scale(0.22 -0.22)">
       <defs>
        <path d="M 4.15625 35.296875 
Q 4.15625 48 6.765625 55.734375 
Q 9.375 63.484375 14.515625 67.671875 
Q 19.671875 71.875 27.484375 71.875 
Q 33.25 71.875 37.59375 69.546875 
Q 41.9375 67.234375 44.765625 62.859375 
Q 47.609375 58.5 49.21875 52.21875 
Q 50.828125 45.953125 50.828125 35.296875 
Q 50.828125 22.703125 48.234375 14.96875 
Q 45.65625 7.234375 40.5 3 
Q 35.359375 -1.21875 27.484375 -1.21875 
Q 17.140625 -1.21875 11.234375 6.203125 
Q 4.15625 15.140625 4.15625 35.296875 
z
M 13.1875 35.296875 
Q 13.1875 17.671875 17.3125 11.828125 
Q 21.4375 6 27.484375 6 
Q 33.546875 6 37.671875 11.859375 
Q 41.796875 17.71875 41.796875 35.296875 
Q 41.796875 52.984375 37.671875 58.78125 
Q 33.546875 64.59375 27.390625 64.59375 
Q 21.34375 64.59375 17.71875 59.46875 
Q 13.1875 52.9375 13.1875 35.296875 
z
" id="ArialMT-48"/>
        <path d="M 9.078125 0 
L 9.078125 10.015625 
L 19.09375 10.015625 
L 19.09375 0 
z
" id="ArialMT-46"/>
        <path d="M 4.15625 18.75 
L 13.375 19.53125 
Q 14.40625 12.796875 18.140625 9.390625 
Q 21.875 6 27.15625 6 
Q 33.5 6 37.890625 10.78125 
Q 42.28125 15.578125 42.28125 23.484375 
Q 42.28125 31 38.0625 35.34375 
Q 33.84375 39.703125 27 39.703125 
Q 22.75 39.703125 19.328125 37.765625 
Q 15.921875 35.84375 13.96875 32.765625 
L 5.71875 33.84375 
L 12.640625 70.609375 
L 48.25 70.609375 
L 48.25 62.203125 
L 19.671875 62.203125 
L 15.828125 42.96875 
Q 22.265625 47.46875 29.34375 47.46875 
Q 38.71875 47.46875 45.15625 40.96875 
Q 51.609375 34.46875 51.609375 24.265625 
Q 51.609375 14.546875 45.953125 7.46875 
Q 39.0625 -1.21875 27.15625 -1.21875 
Q 17.390625 -1.21875 11.203125 4.25 
Q 5.03125 9.71875 4.15625 18.75 
z
" id="ArialMT-53"/>
       </defs>
       <use xlink:href="#ArialMT-48"/>
       <use x="55.615234" xlink:href="#ArialMT-46"/>
       <use x="83.398438" xlink:href="#ArialMT-48"/>
       <use x="139.013672" xlink:href="#ArialMT-53"/>
      </g>
     </g>
    </g>
    <g id="ytick_2">
     <g id="line2d_5">
      <path clip-path="url(#p5e57375235)" d="M 72 258.675483 
L 518.4 258.675483 
" style="fill:none;stroke:#ffffff;stroke-linecap:round;"/>
     </g>
     <g id="text_6">
      <!-- 0.10 -->
      <g style="fill:#262626;" transform="translate(19.685938 266.549077)scale(0.22 -0.22)">
       <defs>
        <path d="M 37.25 0 
L 28.46875 0 
L 28.46875 56 
Q 25.296875 52.984375 20.140625 49.953125 
Q 14.984375 46.921875 10.890625 45.40625 
L 10.890625 53.90625 
Q 18.265625 57.375 23.78125 62.296875 
Q 29.296875 67.234375 31.59375 71.875 
L 37.25 71.875 
z
" id="ArialMT-49"/>
       </defs>
       <use xlink:href="#ArialMT-48"/>
       <use x="55.615234" xlink:href="#ArialMT-46"/>
       <use x="83.398438" xlink:href="#ArialMT-49"/>
       <use x="139.013672" xlink:href="#ArialMT-48"/>
      </g>
     </g>
    </g>
    <g id="ytick_3">
     <g id="line2d_6">
      <path clip-path="url(#p5e57375235)" d="M 72 190.569598 
L 518.4 190.569598 
" style="fill:none;stroke:#ffffff;stroke-linecap:round;"/>
     </g>
     <g id="text_7">
      <!-- 0.15 -->
      <g style="fill:#262626;" transform="translate(19.685938 198.443192)scale(0.22 -0.22)">
       <use xlink:href="#ArialMT-48"/>
       <use x="55.615234" xlink:href="#ArialMT-46"/>
       <use x="83.398438" xlink:href="#ArialMT-49"/>
       <use x="139.013672" xlink:href="#ArialMT-53"/>
      </g>
     </g>
    </g>
    <g id="ytick_4">
     <g id="line2d_7">
      <path clip-path="url(#p5e57375235)" d="M 72 122.463713 
L 518.4 122.463713 
" style="fill:none;stroke:#ffffff;stroke-linecap:round;"/>
     </g>
     <g id="text_8">
      <!-- 0.20 -->
      <g style="fill:#262626;" transform="translate(19.685938 130.337307)scale(0.22 -0.22)">
       <defs>
        <path d="M 50.34375 8.453125 
L 50.34375 0 
L 3.03125 0 
Q 2.9375 3.171875 4.046875 6.109375 
Q 5.859375 10.9375 9.828125 15.625 
Q 13.8125 20.3125 21.34375 26.46875 
Q 33.015625 36.03125 37.109375 41.625 
Q 41.21875 47.21875 41.21875 52.203125 
Q 41.21875 57.421875 37.46875 61 
Q 33.734375 64.59375 27.734375 64.59375 
Q 21.390625 64.59375 17.578125 60.78125 
Q 13.765625 56.984375 13.71875 50.25 
L 4.6875 51.171875 
Q 5.609375 61.28125 11.65625 66.578125 
Q 17.71875 71.875 27.9375 71.875 
Q 38.234375 71.875 44.234375 66.15625 
Q 50.25 60.453125 50.25 52 
Q 50.25 47.703125 48.484375 43.546875 
Q 46.734375 39.40625 42.65625 34.8125 
Q 38.578125 30.21875 29.109375 22.21875 
Q 21.1875 15.578125 18.9375 13.203125 
Q 16.703125 10.84375 15.234375 8.453125 
z
" id="ArialMT-50"/>
       </defs>
       <use xlink:href="#ArialMT-48"/>
       <use x="55.615234" xlink:href="#ArialMT-46"/>
       <use x="83.398438" xlink:href="#ArialMT-50"/>
       <use x="139.013672" xlink:href="#ArialMT-48"/>
      </g>
     </g>
    </g>
    <g id="ytick_5">
     <g id="line2d_8">
      <path clip-path="url(#p5e57375235)" d="M 72 54.357828 
L 518.4 54.357828 
" style="fill:none;stroke:#ffffff;stroke-linecap:round;"/>
     </g>
     <g id="text_9">
      <!-- 0.25 -->
      <g style="fill:#262626;" transform="translate(19.685938 62.231422)scale(0.22 -0.22)">
       <use xlink:href="#ArialMT-48"/>
       <use x="55.615234" xlink:href="#ArialMT-46"/>
       <use x="83.398438" xlink:href="#ArialMT-50"/>
       <use x="139.013672" xlink:href="#ArialMT-53"/>
      </g>
     </g>
    </g>
    <g id="text_10">
     <!-- Recurrent dropout ratio (%) -->
     <g style="fill:#262626;" transform="translate(10.634687 360.30375)rotate(-90)scale(0.24 -0.24)">
      <defs>
       <path d="M 40.578125 0 
L 40.578125 7.625 
Q 34.515625 -1.171875 24.125 -1.171875 
Q 19.53125 -1.171875 15.546875 0.578125 
Q 11.578125 2.34375 9.640625 5 
Q 7.71875 7.671875 6.9375 11.53125 
Q 6.390625 14.109375 6.390625 19.734375 
L 6.390625 51.859375 
L 15.1875 51.859375 
L 15.1875 23.09375 
Q 15.1875 16.21875 15.71875 13.8125 
Q 16.546875 10.359375 19.234375 8.375 
Q 21.921875 6.390625 25.875 6.390625 
Q 29.828125 6.390625 33.296875 8.421875 
Q 36.765625 10.453125 38.203125 13.9375 
Q 39.65625 17.4375 39.65625 24.078125 
L 39.65625 51.859375 
L 48.4375 51.859375 
L 48.4375 0 
z
" id="ArialMT-117"/>
       <path d="M 6.59375 -19.875 
L 6.59375 51.859375 
L 14.59375 51.859375 
L 14.59375 45.125 
Q 17.4375 49.078125 21 51.046875 
Q 24.5625 53.03125 29.640625 53.03125 
Q 36.28125 53.03125 41.359375 49.609375 
Q 46.4375 46.1875 49.015625 39.953125 
Q 51.609375 33.734375 51.609375 26.3125 
Q 51.609375 18.359375 48.75 11.984375 
Q 45.90625 5.609375 40.453125 2.21875 
Q 35.015625 -1.171875 29 -1.171875 
Q 24.609375 -1.171875 21.109375 0.6875 
Q 17.625 2.546875 15.375 5.375 
L 15.375 -19.875 
z
M 14.546875 25.640625 
Q 14.546875 15.625 18.59375 10.84375 
Q 22.65625 6.0625 28.421875 6.0625 
Q 34.28125 6.0625 38.453125 11.015625 
Q 42.625 15.96875 42.625 26.375 
Q 42.625 36.28125 38.546875 41.203125 
Q 34.46875 46.140625 28.8125 46.140625 
Q 23.1875 46.140625 18.859375 40.890625 
Q 14.546875 35.640625 14.546875 25.640625 
z
" id="ArialMT-112"/>
       <path d="M 23.390625 -21.046875 
Q 16.109375 -11.859375 11.078125 0.4375 
Q 6.0625 12.75 6.0625 25.921875 
Q 6.0625 37.546875 9.8125 48.1875 
Q 14.203125 60.546875 23.390625 72.796875 
L 29.6875 72.796875 
Q 23.78125 62.640625 21.875 58.296875 
Q 18.890625 51.5625 17.1875 44.234375 
Q 15.09375 35.109375 15.09375 25.875 
Q 15.09375 2.390625 29.6875 -21.046875 
z
" id="ArialMT-40"/>
       <path d="M 5.8125 54.390625 
Q 5.8125 62.0625 9.671875 67.421875 
Q 13.53125 72.796875 20.84375 72.796875 
Q 27.59375 72.796875 32 67.984375 
Q 36.421875 63.1875 36.421875 53.859375 
Q 36.421875 44.78125 31.953125 39.875 
Q 27.484375 34.96875 20.953125 34.96875 
Q 14.453125 34.96875 10.125 39.796875 
Q 5.8125 44.625 5.8125 54.390625 
z
M 21.09375 66.75 
Q 17.828125 66.75 15.65625 63.90625 
Q 13.484375 61.078125 13.484375 53.515625 
Q 13.484375 46.625 15.671875 43.8125 
Q 17.875 41.015625 21.09375 41.015625 
Q 24.421875 41.015625 26.59375 43.84375 
Q 28.765625 46.6875 28.765625 54.203125 
Q 28.765625 61.140625 26.5625 63.9375 
Q 24.359375 66.75 21.09375 66.75 
z
M 21.140625 -2.640625 
L 60.296875 72.796875 
L 67.4375 72.796875 
L 28.421875 -2.640625 
z
M 52.09375 16.796875 
Q 52.09375 24.515625 55.953125 29.859375 
Q 59.8125 35.203125 67.1875 35.203125 
Q 73.921875 35.203125 78.34375 30.390625 
Q 82.765625 25.59375 82.765625 16.265625 
Q 82.765625 7.171875 78.296875 2.265625 
Q 73.828125 -2.640625 67.234375 -2.640625 
Q 60.75 -2.640625 56.421875 2.21875 
Q 52.09375 7.078125 52.09375 16.796875 
z
M 67.4375 29.15625 
Q 64.109375 29.15625 61.9375 26.3125 
Q 59.765625 23.484375 59.765625 15.921875 
Q 59.765625 9.078125 61.953125 6.25 
Q 64.15625 3.421875 67.390625 3.421875 
Q 70.75 3.421875 72.921875 6.25 
Q 75.09375 9.078125 75.09375 16.609375 
Q 75.09375 23.53125 72.890625 26.34375 
Q 70.703125 29.15625 67.4375 29.15625 
z
" id="ArialMT-37"/>
       <path d="M 12.359375 -21.046875 
L 6.0625 -21.046875 
Q 20.65625 2.390625 20.65625 25.875 
Q 20.65625 35.0625 18.5625 44.09375 
Q 16.890625 51.421875 13.921875 58.15625 
Q 12.015625 62.546875 6.0625 72.796875 
L 12.359375 72.796875 
Q 21.53125 60.546875 25.921875 48.1875 
Q 29.6875 37.546875 29.6875 25.921875 
Q 29.6875 12.75 24.625 0.4375 
Q 19.578125 -11.859375 12.359375 -21.046875 
z
" id="ArialMT-41"/>
      </defs>
      <use xlink:href="#ArialMT-82"/>
      <use x="72.216797" xlink:href="#ArialMT-101"/>
      <use x="127.832031" xlink:href="#ArialMT-99"/>
      <use x="177.832031" xlink:href="#ArialMT-117"/>
      <use x="233.447266" xlink:href="#ArialMT-114"/>
      <use x="266.748047" xlink:href="#ArialMT-114"/>
      <use x="300.048828" xlink:href="#ArialMT-101"/>
      <use x="355.664062" xlink:href="#ArialMT-110"/>
      <use x="411.279297" xlink:href="#ArialMT-116"/>
      <use x="439.0625" xlink:href="#ArialMT-32"/>
      <use x="466.845703" xlink:href="#ArialMT-100"/>
      <use x="522.460938" xlink:href="#ArialMT-114"/>
      <use x="555.761719" xlink:href="#ArialMT-111"/>
      <use x="611.376953" xlink:href="#ArialMT-112"/>
      <use x="666.992188" xlink:href="#ArialMT-111"/>
      <use x="722.607422" xlink:href="#ArialMT-117"/>
      <use x="778.222656" xlink:href="#ArialMT-116"/>
      <use x="806.005859" xlink:href="#ArialMT-32"/>
      <use x="833.789062" xlink:href="#ArialMT-114"/>
      <use x="867.089844" xlink:href="#ArialMT-97"/>
      <use x="922.705078" xlink:href="#ArialMT-116"/>
      <use x="950.488281" xlink:href="#ArialMT-105"/>
      <use x="972.705078" xlink:href="#ArialMT-111"/>
      <use x="1028.320312" xlink:href="#ArialMT-32"/>
      <use x="1056.103516" xlink:href="#ArialMT-40"/>
      <use x="1089.404297" xlink:href="#ArialMT-37"/>
      <use x="1178.320312" xlink:href="#ArialMT-41"/>
     </g>
    </g>
   </g>
   <g id="PolyCollection_1">
    <defs>
     <path d="M 158.826436 -104.607667 
L 106.919018 -104.607667 
L 106.394878 -106.651435 
L 105.879815 -108.695203 
L 105.374483 -110.73897 
L 104.879507 -112.782738 
L 104.395481 -114.826506 
L 103.922964 -116.870274 
L 103.462477 -118.914041 
L 103.014502 -120.957809 
L 102.579481 -123.001577 
L 102.157812 -125.045344 
L 101.749849 -127.089112 
L 101.355898 -129.13288 
L 100.976219 -131.176648 
L 100.61102 -133.220415 
L 100.260462 -135.264183 
L 99.924651 -137.307951 
L 99.603643 -139.351719 
L 99.29744 -141.395486 
L 99.005994 -143.439254 
L 98.729201 -145.483022 
L 98.466904 -147.526789 
L 98.218896 -149.570557 
L 97.984917 -151.614325 
L 97.764656 -153.658093 
L 97.557754 -155.70186 
L 97.363804 -157.745628 
L 97.18235 -159.789396 
L 97.012897 -161.833163 
L 96.854904 -163.876931 
L 96.707795 -165.920699 
L 96.570956 -167.964467 
L 96.443741 -170.008234 
L 96.325476 -172.052002 
L 96.215461 -174.09577 
L 96.112975 -176.139537 
L 96.017281 -178.183305 
L 95.927629 -180.227073 
L 95.843263 -182.270841 
L 95.763424 -184.314608 
L 95.687355 -186.358376 
L 95.614307 -188.402144 
L 95.543545 -190.445912 
L 95.474352 -192.489679 
L 95.406035 -194.533447 
L 95.33793 -196.577215 
L 95.269407 -198.620982 
L 95.199878 -200.66475 
L 95.128797 -202.708518 
L 95.055671 -204.752286 
L 94.98006 -206.796053 
L 94.901584 -208.839821 
L 94.819923 -210.883589 
L 94.73483 -212.927356 
L 94.646123 -214.971124 
L 94.553698 -217.014892 
L 94.457525 -219.05866 
L 94.357653 -221.102427 
L 94.254211 -223.146195 
L 94.14741 -225.189963 
L 94.037542 -227.233731 
L 93.924981 -229.277498 
L 93.810183 -231.321266 
L 93.693683 -233.365034 
L 93.576094 -235.408801 
L 93.458105 -237.452569 
L 93.340479 -239.496337 
L 93.224046 -241.540105 
L 93.109703 -243.583872 
L 92.998405 -245.62764 
L 92.891164 -247.671408 
L 92.78904 -249.715175 
L 92.693137 -251.758943 
L 92.604595 -253.802711 
L 92.524582 -255.846479 
L 92.45429 -257.890246 
L 92.394925 -259.934014 
L 92.347699 -261.977782 
L 92.313824 -264.02155 
L 92.294499 -266.065317 
L 92.290909 -268.109085 
L 92.304212 -270.152853 
L 92.335531 -272.19662 
L 92.38595 -274.240388 
L 92.456499 -276.284156 
L 92.548154 -278.327924 
L 92.661828 -280.371691 
L 92.798359 -282.415459 
L 92.958512 -284.459227 
L 93.142965 -286.502994 
L 93.35231 -288.546762 
L 93.587045 -290.59053 
L 93.847571 -292.634298 
L 94.134188 -294.678065 
L 94.44709 -296.721833 
L 94.786368 -298.765601 
L 95.152005 -300.809368 
L 95.543873 -302.853136 
L 95.961739 -304.896904 
L 96.405261 -306.940672 
L 169.340193 -306.940672 
L 169.340193 -306.940672 
L 169.783715 -304.896904 
L 170.201582 -302.853136 
L 170.59345 -300.809368 
L 170.959086 -298.765601 
L 171.298364 -296.721833 
L 171.611267 -294.678065 
L 171.897883 -292.634298 
L 172.158409 -290.59053 
L 172.393144 -288.546762 
L 172.60249 -286.502994 
L 172.786943 -284.459227 
L 172.947095 -282.415459 
L 173.083627 -280.371691 
L 173.1973 -278.327924 
L 173.288956 -276.284156 
L 173.359505 -274.240388 
L 173.409923 -272.19662 
L 173.441243 -270.152853 
L 173.454545 -268.109085 
L 173.450956 -266.065317 
L 173.431631 -264.02155 
L 173.397755 -261.977782 
L 173.350529 -259.934014 
L 173.291164 -257.890246 
L 173.220873 -255.846479 
L 173.14086 -253.802711 
L 173.052317 -251.758943 
L 172.956414 -249.715175 
L 172.854291 -247.671408 
L 172.74705 -245.62764 
L 172.635752 -243.583872 
L 172.521408 -241.540105 
L 172.404975 -239.496337 
L 172.287349 -237.452569 
L 172.169361 -235.408801 
L 172.051772 -233.365034 
L 171.935271 -231.321266 
L 171.820473 -229.277498 
L 171.707913 -227.233731 
L 171.598045 -225.189963 
L 171.491244 -223.146195 
L 171.387802 -221.102427 
L 171.28793 -219.05866 
L 171.191756 -217.014892 
L 171.099331 -214.971124 
L 171.010625 -212.927356 
L 170.925531 -210.883589 
L 170.843871 -208.839821 
L 170.765394 -206.796053 
L 170.689783 -204.752286 
L 170.616657 -202.708518 
L 170.545577 -200.66475 
L 170.476048 -198.620982 
L 170.407525 -196.577215 
L 170.33942 -194.533447 
L 170.271102 -192.489679 
L 170.201909 -190.445912 
L 170.131147 -188.402144 
L 170.0581 -186.358376 
L 169.98203 -184.314608 
L 169.902191 -182.270841 
L 169.817825 -180.227073 
L 169.728174 -178.183305 
L 169.63248 -176.139537 
L 169.529994 -174.09577 
L 169.419979 -172.052002 
L 169.301713 -170.008234 
L 169.174499 -167.964467 
L 169.03766 -165.920699 
L 168.890551 -163.876931 
L 168.732558 -161.833163 
L 168.563104 -159.789396 
L 168.381651 -157.745628 
L 168.1877 -155.70186 
L 167.980798 -153.658093 
L 167.760538 -151.614325 
L 167.526559 -149.570557 
L 167.278551 -147.526789 
L 167.016254 -145.483022 
L 166.73946 -143.439254 
L 166.448014 -141.395486 
L 166.141812 -139.351719 
L 165.820804 -137.307951 
L 165.484993 -135.264183 
L 165.134434 -133.220415 
L 164.769236 -131.176648 
L 164.389557 -129.13288 
L 163.995606 -127.089112 
L 163.587643 -125.045344 
L 163.165974 -123.001577 
L 162.730953 -120.957809 
L 162.282978 -118.914041 
L 161.82249 -116.870274 
L 161.349973 -114.826506 
L 160.865947 -112.782738 
L 160.370972 -110.73897 
L 159.86564 -108.695203 
L 159.350576 -106.651435 
L 158.826436 -104.607667 
z
" id="m0e08b75974" style="stroke:#ffffff;stroke-opacity:0.3;"/>
    </defs>
    <g clip-path="url(#p5e57375235)">
     <use style="fill:#4c72b0;fill-opacity:0.3;stroke:#ffffff;stroke-opacity:0.3;" x="0" xlink:href="#m0e08b75974" y="432"/>
    </g>
   </g>
   <g id="PolyCollection_2">
    <defs>
     <path d="M 314.413308 -74.822283 
L 275.986692 -74.822283 
L 275.534753 -77.75675 
L 275.084884 -80.691218 
L 274.637061 -83.625685 
L 274.191222 -86.560152 
L 273.747266 -89.49462 
L 273.30506 -92.429087 
L 272.864441 -95.363554 
L 272.425221 -98.298021 
L 271.987193 -101.232489 
L 271.550136 -104.166956 
L 271.113819 -107.101423 
L 270.678007 -110.035891 
L 270.242468 -112.970358 
L 269.806978 -115.904825 
L 269.37133 -118.839292 
L 268.935334 -121.77376 
L 268.498828 -124.708227 
L 268.061681 -127.642694 
L 267.6238 -130.577162 
L 267.185132 -133.511629 
L 266.745675 -136.446096 
L 266.305472 -139.380564 
L 265.864627 -142.315031 
L 265.423297 -145.249498 
L 264.981701 -148.183965 
L 264.540121 -151.118433 
L 264.0989 -154.0529 
L 263.658449 -156.987367 
L 263.219239 -159.921835 
L 262.781806 -162.856302 
L 262.346749 -165.790769 
L 261.914724 -168.725237 
L 261.486445 -171.659704 
L 261.06268 -174.594171 
L 260.644245 -177.528638 
L 260.232001 -180.463106 
L 259.826849 -183.397573 
L 259.429723 -186.33204 
L 259.041587 -189.266508 
L 258.663424 -192.200975 
L 258.296235 -195.135442 
L 257.941026 -198.06991 
L 257.598808 -201.004377 
L 257.270583 -203.938844 
L 256.957344 -206.873311 
L 256.660062 -209.807779 
L 256.379684 -212.742246 
L 256.117124 -215.676713 
L 255.873259 -218.611181 
L 255.648919 -221.545648 
L 255.444888 -224.480115 
L 255.261894 -227.414582 
L 255.100608 -230.34905 
L 254.961639 -233.283517 
L 254.845531 -236.217984 
L 254.752759 -239.152452 
L 254.683731 -242.086919 
L 254.638783 -245.021386 
L 254.618182 -247.955854 
L 254.622121 -250.890321 
L 254.650726 -253.824788 
L 254.704052 -256.759255 
L 254.782086 -259.693723 
L 254.884754 -262.62819 
L 255.011914 -265.562657 
L 255.16337 -268.497125 
L 255.338866 -271.431592 
L 255.538096 -274.366059 
L 255.760706 -277.300527 
L 256.006297 -280.234994 
L 256.274428 -283.169461 
L 256.564625 -286.103928 
L 256.87638 -289.038396 
L 257.209156 -291.972863 
L 257.562393 -294.90733 
L 257.935509 -297.841798 
L 258.327905 -300.776265 
L 258.738967 -303.710732 
L 259.168069 -306.6452 
L 259.614576 -309.579667 
L 260.077842 -312.514134 
L 260.55722 -315.448601 
L 261.052054 -318.383069 
L 261.561686 -321.317536 
L 262.085453 -324.252003 
L 262.622691 -327.186471 
L 263.172732 -330.120938 
L 263.734902 -333.055405 
L 264.308527 -335.989872 
L 264.892925 -338.92434 
L 265.487409 -341.858807 
L 266.091287 -344.793274 
L 266.703858 -347.727742 
L 267.324413 -350.662209 
L 267.952234 -353.596676 
L 268.586593 -356.531144 
L 269.22675 -359.465611 
L 269.871954 -362.400078 
L 270.521445 -365.334545 
L 319.878555 -365.334545 
L 319.878555 -365.334545 
L 320.528046 -362.400078 
L 321.17325 -359.465611 
L 321.813407 -356.531144 
L 322.447766 -353.596676 
L 323.075587 -350.662209 
L 323.696142 -347.727742 
L 324.308713 -344.793274 
L 324.912591 -341.858807 
L 325.507075 -338.92434 
L 326.091473 -335.989872 
L 326.665098 -333.055405 
L 327.227268 -330.120938 
L 327.777309 -327.186471 
L 328.314547 -324.252003 
L 328.838314 -321.317536 
L 329.347946 -318.383069 
L 329.84278 -315.448601 
L 330.322158 -312.514134 
L 330.785424 -309.579667 
L 331.231931 -306.6452 
L 331.661033 -303.710732 
L 332.072095 -300.776265 
L 332.464491 -297.841798 
L 332.837607 -294.90733 
L 333.190844 -291.972863 
L 333.52362 -289.038396 
L 333.835375 -286.103928 
L 334.125572 -283.169461 
L 334.393703 -280.234994 
L 334.639294 -277.300527 
L 334.861904 -274.366059 
L 335.061134 -271.431592 
L 335.23663 -268.497125 
L 335.388086 -265.562657 
L 335.515246 -262.62819 
L 335.617914 -259.693723 
L 335.695948 -256.759255 
L 335.749274 -253.824788 
L 335.777879 -250.890321 
L 335.781818 -247.955854 
L 335.761217 -245.021386 
L 335.716269 -242.086919 
L 335.647241 -239.152452 
L 335.554469 -236.217984 
L 335.438361 -233.283517 
L 335.299392 -230.34905 
L 335.138106 -227.414582 
L 334.955112 -224.480115 
L 334.751081 -221.545648 
L 334.526741 -218.611181 
L 334.282876 -215.676713 
L 334.020316 -212.742246 
L 333.739938 -209.807779 
L 333.442656 -206.873311 
L 333.129417 -203.938844 
L 332.801192 -201.004377 
L 332.458974 -198.06991 
L 332.103765 -195.135442 
L 331.736576 -192.200975 
L 331.358413 -189.266508 
L 330.970277 -186.33204 
L 330.573151 -183.397573 
L 330.167999 -180.463106 
L 329.755755 -177.528638 
L 329.33732 -174.594171 
L 328.913555 -171.659704 
L 328.485276 -168.725237 
L 328.053251 -165.790769 
L 327.618194 -162.856302 
L 327.180761 -159.921835 
L 326.741551 -156.987367 
L 326.3011 -154.0529 
L 325.859879 -151.118433 
L 325.418299 -148.183965 
L 324.976703 -145.249498 
L 324.535373 -142.315031 
L 324.094528 -139.380564 
L 323.654325 -136.446096 
L 323.214868 -133.511629 
L 322.7762 -130.577162 
L 322.338319 -127.642694 
L 321.901172 -124.708227 
L 321.464666 -121.77376 
L 321.02867 -118.839292 
L 320.593022 -115.904825 
L 320.157532 -112.970358 
L 319.721993 -110.035891 
L 319.286181 -107.101423 
L 318.849864 -104.166956 
L 318.412807 -101.232489 
L 317.974779 -98.298021 
L 317.535559 -95.363554 
L 317.09494 -92.429087 
L 316.652734 -89.49462 
L 316.208778 -86.560152 
L 315.762939 -83.625685 
L 315.315116 -80.691218 
L 314.865247 -77.75675 
L 314.413308 -74.822283 
z
" id="mc8ed859859" style="stroke:#ffffff;stroke-opacity:0.3;"/>
    </defs>
    <g clip-path="url(#p5e57375235)">
     <use style="fill:#4c72b0;fill-opacity:0.3;stroke:#ffffff;stroke-opacity:0.3;" x="0" xlink:href="#mc8ed859859" y="432"/>
    </g>
   </g>
   <g id="PolyCollection_3">
    <defs>
     <path d="M 485.339193 -68.825455 
L 429.715352 -68.825455 
L 429.17208 -71.773374 
L 428.640284 -74.721293 
L 428.120416 -77.669213 
L 427.612873 -80.617132 
L 427.117995 -83.565051 
L 426.636064 -86.512971 
L 426.167304 -89.46089 
L 425.711887 -92.408809 
L 425.26993 -95.356729 
L 424.8415 -98.304648 
L 424.426616 -101.252568 
L 424.025254 -104.200487 
L 423.637344 -107.148406 
L 423.262781 -110.096326 
L 422.901427 -113.044245 
L 422.553111 -115.992164 
L 422.217639 -118.940084 
L 421.894791 -121.888003 
L 421.584334 -124.835922 
L 421.286017 -127.783842 
L 420.999585 -130.731761 
L 420.724771 -133.679681 
L 420.46131 -136.6276 
L 420.208938 -139.575519 
L 419.967393 -142.523439 
L 419.736424 -145.471358 
L 419.515788 -148.419277 
L 419.305252 -151.367197 
L 419.104601 -154.315116 
L 418.913632 -157.263036 
L 418.732159 -160.210955 
L 418.560013 -163.158874 
L 418.397043 -166.106794 
L 418.243115 -169.054713 
L 418.09811 -172.002632 
L 417.961927 -174.950552 
L 417.834482 -177.898471 
L 417.715702 -180.84639 
L 417.60553 -183.79431 
L 417.503918 -186.742229 
L 417.410832 -189.690149 
L 417.326244 -192.638068 
L 417.250134 -195.585987 
L 417.182488 -198.533907 
L 417.123298 -201.481826 
L 417.072558 -204.429745 
L 417.030265 -207.377665 
L 416.996416 -210.325584 
L 416.971011 -213.273503 
L 416.954049 -216.221423 
L 416.945531 -219.169342 
L 416.945455 -222.117262 
L 416.953822 -225.065181 
L 416.970634 -228.0131 
L 416.995896 -230.96102 
L 417.029613 -233.908939 
L 417.071797 -236.856858 
L 417.122465 -239.804778 
L 417.18164 -242.752697 
L 417.249357 -245.700616 
L 417.325657 -248.648536 
L 417.410597 -251.596455 
L 417.504247 -254.544375 
L 417.606691 -257.492294 
L 417.718031 -260.440213 
L 417.838387 -263.388133 
L 417.9679 -266.336052 
L 418.106727 -269.283971 
L 418.25505 -272.231891 
L 418.413069 -275.17981 
L 418.581006 -278.127729 
L 418.7591 -281.075649 
L 418.947613 -284.023568 
L 419.146823 -286.971488 
L 419.357022 -289.919407 
L 419.578518 -292.867326 
L 419.811629 -295.815246 
L 420.05668 -298.763165 
L 420.314002 -301.711084 
L 420.583926 -304.659004 
L 420.866781 -307.606923 
L 421.162886 -310.554843 
L 421.472551 -313.502762 
L 421.796069 -316.450681 
L 422.13371 -319.398601 
L 422.485721 -322.34652 
L 422.852315 -325.294439 
L 423.233673 -328.242359 
L 423.629936 -331.190278 
L 424.041199 -334.138197 
L 424.46751 -337.086117 
L 424.908866 -340.034036 
L 425.365209 -342.981956 
L 425.836423 -345.929875 
L 426.322331 -348.877794 
L 426.822693 -351.825714 
L 427.337209 -354.773633 
L 427.865509 -357.721552 
L 428.407163 -360.669472 
L 486.647383 -360.669472 
L 486.647383 -360.669472 
L 487.189036 -357.721552 
L 487.717337 -354.773633 
L 488.231852 -351.825714 
L 488.732215 -348.877794 
L 489.218123 -345.929875 
L 489.689336 -342.981956 
L 490.145679 -340.034036 
L 490.587036 -337.086117 
L 491.013347 -334.138197 
L 491.42461 -331.190278 
L 491.820872 -328.242359 
L 492.20223 -325.294439 
L 492.568825 -322.34652 
L 492.920835 -319.398601 
L 493.258476 -316.450681 
L 493.581994 -313.502762 
L 493.891659 -310.554843 
L 494.187765 -307.606923 
L 494.470619 -304.659004 
L 494.740543 -301.711084 
L 494.997866 -298.763165 
L 495.242917 -295.815246 
L 495.476027 -292.867326 
L 495.697523 -289.919407 
L 495.907723 -286.971488 
L 496.106932 -284.023568 
L 496.295445 -281.075649 
L 496.47354 -278.127729 
L 496.641476 -275.17981 
L 496.799495 -272.231891 
L 496.947818 -269.283971 
L 497.086646 -266.336052 
L 497.216158 -263.388133 
L 497.336515 -260.440213 
L 497.447855 -257.492294 
L 497.550299 -254.544375 
L 497.643948 -251.596455 
L 497.728888 -248.648536 
L 497.805189 -245.700616 
L 497.872905 -242.752697 
L 497.932081 -239.804778 
L 497.982748 -236.856858 
L 498.024932 -233.908939 
L 498.05865 -230.96102 
L 498.083911 -228.0131 
L 498.100724 -225.065181 
L 498.109091 -222.117262 
L 498.109015 -219.169342 
L 498.100496 -216.221423 
L 498.083534 -213.273503 
L 498.058129 -210.325584 
L 498.024281 -207.377665 
L 497.981987 -204.429745 
L 497.931247 -201.481826 
L 497.872057 -198.533907 
L 497.804412 -195.585987 
L 497.728302 -192.638068 
L 497.643713 -189.690149 
L 497.550627 -186.742229 
L 497.449016 -183.79431 
L 497.338843 -180.84639 
L 497.220063 -177.898471 
L 497.092618 -174.950552 
L 496.956436 -172.002632 
L 496.811431 -169.054713 
L 496.657502 -166.106794 
L 496.494532 -163.158874 
L 496.322387 -160.210955 
L 496.140914 -157.263036 
L 495.949944 -154.315116 
L 495.749293 -151.367197 
L 495.538758 -148.419277 
L 495.318121 -145.471358 
L 495.087152 -142.523439 
L 494.845608 -139.575519 
L 494.593235 -136.6276 
L 494.329775 -133.679681 
L 494.054961 -130.731761 
L 493.768528 -127.783842 
L 493.470212 -124.835922 
L 493.159754 -121.888003 
L 492.836907 -118.940084 
L 492.501434 -115.992164 
L 492.153118 -113.044245 
L 491.791764 -110.096326 
L 491.417202 -107.148406 
L 491.029292 -104.200487 
L 490.627929 -101.252568 
L 490.213046 -98.304648 
L 489.784616 -95.356729 
L 489.342659 -92.408809 
L 488.887242 -89.46089 
L 488.418482 -86.512971 
L 487.93655 -83.565051 
L 487.441672 -80.617132 
L 486.93413 -77.669213 
L 486.414262 -74.721293 
L 485.882465 -71.773374 
L 485.339193 -68.825455 
z
" id="m98792eb2be" style="stroke:#ffffff;stroke-opacity:0.3;"/>
    </defs>
    <g clip-path="url(#p5e57375235)">
     <use style="fill:#4c72b0;fill-opacity:0.3;stroke:#ffffff;stroke-opacity:0.3;" x="0" xlink:href="#m98792eb2be" y="432"/>
    </g>
   </g>
   <g id="LineCollection_1">
    <path clip-path="url(#p5e57375235)" d="M 112.581818 125.059328 
L 153.163636 125.059328 
" style="fill:none;stroke:#4c72b0;stroke-width:1.5;"/>
    <path clip-path="url(#p5e57375235)" d="M 274.909091 66.665455 
L 315.490909 66.665455 
" style="fill:none;stroke:#4c72b0;stroke-width:1.5;"/>
    <path clip-path="url(#p5e57375235)" d="M 437.236364 71.330528 
L 477.818182 71.330528 
" style="fill:none;stroke:#4c72b0;stroke-width:1.5;"/>
   </g>
   <g id="LineCollection_2">
    <path clip-path="url(#p5e57375235)" d="M 112.581818 327.392333 
L 153.163636 327.392333 
" style="fill:none;stroke:#4c72b0;stroke-width:1.5;"/>
    <path clip-path="url(#p5e57375235)" d="M 274.909091 357.177717 
L 315.490909 357.177717 
" style="fill:none;stroke:#4c72b0;stroke-width:1.5;"/>
    <path clip-path="url(#p5e57375235)" d="M 437.236364 363.174545 
L 477.818182 363.174545 
" style="fill:none;stroke:#4c72b0;stroke-width:1.5;"/>
   </g>
   <g id="LineCollection_3">
    <path clip-path="url(#p5e57375235)" d="M 132.872727 327.392333 
L 132.872727 125.059328 
" style="fill:none;stroke:#4c72b0;stroke-width:1.5;"/>
    <path clip-path="url(#p5e57375235)" d="M 295.2 357.177717 
L 295.2 66.665455 
" style="fill:none;stroke:#4c72b0;stroke-width:1.5;"/>
    <path clip-path="url(#p5e57375235)" d="M 457.527273 363.174545 
L 457.527273 71.330528 
" style="fill:none;stroke:#4c72b0;stroke-width:1.5;"/>
   </g>
   <g id="LineCollection_4">
    <path clip-path="url(#p5e57375235)" d="M 112.581818 207.049054 
L 153.163636 207.049054 
" style="fill:none;stroke:#4c72b0;stroke-width:1.5;"/>
    <path clip-path="url(#p5e57375235)" d="M 274.909091 194.201649 
L 315.490909 194.201649 
" style="fill:none;stroke:#4c72b0;stroke-width:1.5;"/>
    <path clip-path="url(#p5e57375235)" d="M 437.236364 214.416509 
L 477.818182 214.416509 
" style="fill:none;stroke:#4c72b0;stroke-width:1.5;"/>
   </g>
   <g id="patch_3">
    <path d="M 72 378 
L 72 51.84 
" style="fill:none;stroke:#ffffff;stroke-linecap:square;stroke-linejoin:miter;stroke-width:1.25;"/>
   </g>
   <g id="patch_4">
    <path d="M 518.4 378 
L 518.4 51.84 
" style="fill:none;stroke:#ffffff;stroke-linecap:square;stroke-linejoin:miter;stroke-width:1.25;"/>
   </g>
   <g id="patch_5">
    <path d="M 72 378 
L 518.4 378 
" style="fill:none;stroke:#ffffff;stroke-linecap:square;stroke-linejoin:miter;stroke-width:1.25;"/>
   </g>
   <g id="patch_6">
    <path d="M 72 51.84 
L 518.4 51.84 
" style="fill:none;stroke:#ffffff;stroke-linecap:square;stroke-linejoin:miter;stroke-width:1.25;"/>
   </g>
   <g id="text_11">
    <!-- Recurrent dropout ratio: Island DNN (top 6 models) -->
    <g style="fill:#262626;" transform="translate(23.765625 45.84)scale(0.24 -0.24)">
     <defs>
      <path d="M 9.03125 41.84375 
L 9.03125 51.859375 
L 19.046875 51.859375 
L 19.046875 41.84375 
z
M 9.03125 0 
L 9.03125 10.015625 
L 19.046875 10.015625 
L 19.046875 0 
z
" id="ArialMT-58"/>
      <path d="M 9.328125 0 
L 9.328125 71.578125 
L 18.796875 71.578125 
L 18.796875 0 
z
" id="ArialMT-73"/>
      <path d="M 6.390625 0 
L 6.390625 71.578125 
L 15.1875 71.578125 
L 15.1875 0 
z
" id="ArialMT-108"/>
      <path d="M 7.71875 0 
L 7.71875 71.578125 
L 32.375 71.578125 
Q 40.71875 71.578125 45.125 70.5625 
Q 51.265625 69.140625 55.609375 65.4375 
Q 61.28125 60.640625 64.078125 53.1875 
Q 66.890625 45.75 66.890625 36.1875 
Q 66.890625 28.03125 64.984375 21.734375 
Q 63.09375 15.4375 60.109375 11.296875 
Q 57.125 7.171875 53.578125 4.796875 
Q 50.046875 2.4375 45.046875 1.21875 
Q 40.046875 0 33.546875 0 
z
M 17.1875 8.453125 
L 32.46875 8.453125 
Q 39.546875 8.453125 43.578125 9.765625 
Q 47.609375 11.078125 50 13.484375 
Q 53.375 16.84375 55.25 22.53125 
Q 57.125 28.21875 57.125 36.328125 
Q 57.125 47.5625 53.4375 53.59375 
Q 49.75 59.625 44.484375 61.671875 
Q 40.671875 63.140625 32.234375 63.140625 
L 17.1875 63.140625 
z
" id="ArialMT-68"/>
      <path d="M 49.75 54.046875 
L 41.015625 53.375 
Q 39.84375 58.546875 37.703125 60.890625 
Q 34.125 64.65625 28.90625 64.65625 
Q 24.703125 64.65625 21.53125 62.3125 
Q 17.390625 59.28125 14.984375 53.46875 
Q 12.59375 47.65625 12.5 36.921875 
Q 15.671875 41.75 20.265625 44.09375 
Q 24.859375 46.4375 29.890625 46.4375 
Q 38.671875 46.4375 44.84375 39.96875 
Q 51.03125 33.5 51.03125 23.25 
Q 51.03125 16.5 48.125 10.71875 
Q 45.21875 4.9375 40.140625 1.859375 
Q 35.0625 -1.21875 28.609375 -1.21875 
Q 17.625 -1.21875 10.6875 6.859375 
Q 3.765625 14.9375 3.765625 33.5 
Q 3.765625 54.25 11.421875 63.671875 
Q 18.109375 71.875 29.4375 71.875 
Q 37.890625 71.875 43.28125 67.140625 
Q 48.6875 62.40625 49.75 54.046875 
z
M 13.875 23.1875 
Q 13.875 18.65625 15.796875 14.5 
Q 17.71875 10.359375 21.1875 8.171875 
Q 24.65625 6 28.46875 6 
Q 34.03125 6 38.03125 10.484375 
Q 42.046875 14.984375 42.046875 22.703125 
Q 42.046875 30.125 38.078125 34.390625 
Q 34.125 38.671875 28.125 38.671875 
Q 22.171875 38.671875 18.015625 34.390625 
Q 13.875 30.125 13.875 23.1875 
z
" id="ArialMT-54"/>
      <path d="M 6.59375 0 
L 6.59375 51.859375 
L 14.453125 51.859375 
L 14.453125 44.578125 
Q 16.890625 48.390625 20.9375 50.703125 
Q 25 53.03125 30.171875 53.03125 
Q 35.9375 53.03125 39.625 50.640625 
Q 43.3125 48.25 44.828125 43.953125 
Q 50.984375 53.03125 60.84375 53.03125 
Q 68.5625 53.03125 72.703125 48.75 
Q 76.859375 44.484375 76.859375 35.59375 
L 76.859375 0 
L 68.109375 0 
L 68.109375 32.671875 
Q 68.109375 37.9375 67.25 40.25 
Q 66.40625 42.578125 64.15625 43.984375 
Q 61.921875 45.40625 58.890625 45.40625 
Q 53.421875 45.40625 49.796875 41.765625 
Q 46.1875 38.140625 46.1875 30.125 
L 46.1875 0 
L 37.40625 0 
L 37.40625 33.6875 
Q 37.40625 39.546875 35.25 42.46875 
Q 33.109375 45.40625 28.21875 45.40625 
Q 24.515625 45.40625 21.359375 43.453125 
Q 18.21875 41.5 16.796875 37.734375 
Q 15.375 33.984375 15.375 26.90625 
L 15.375 0 
z
" id="ArialMT-109"/>
     </defs>
     <use xlink:href="#ArialMT-82"/>
     <use x="72.216797" xlink:href="#ArialMT-101"/>
     <use x="127.832031" xlink:href="#ArialMT-99"/>
     <use x="177.832031" xlink:href="#ArialMT-117"/>
     <use x="233.447266" xlink:href="#ArialMT-114"/>
     <use x="266.748047" xlink:href="#ArialMT-114"/>
     <use x="300.048828" xlink:href="#ArialMT-101"/>
     <use x="355.664062" xlink:href="#ArialMT-110"/>
     <use x="411.279297" xlink:href="#ArialMT-116"/>
     <use x="439.0625" xlink:href="#ArialMT-32"/>
     <use x="466.845703" xlink:href="#ArialMT-100"/>
     <use x="522.460938" xlink:href="#ArialMT-114"/>
     <use x="555.761719" xlink:href="#ArialMT-111"/>
     <use x="611.376953" xlink:href="#ArialMT-112"/>
     <use x="666.992188" xlink:href="#ArialMT-111"/>
     <use x="722.607422" xlink:href="#ArialMT-117"/>
     <use x="778.222656" xlink:href="#ArialMT-116"/>
     <use x="806.005859" xlink:href="#ArialMT-32"/>
     <use x="833.789062" xlink:href="#ArialMT-114"/>
     <use x="867.089844" xlink:href="#ArialMT-97"/>
     <use x="922.705078" xlink:href="#ArialMT-116"/>
     <use x="950.488281" xlink:href="#ArialMT-105"/>
     <use x="972.705078" xlink:href="#ArialMT-111"/>
     <use x="1028.320312" xlink:href="#ArialMT-58"/>
     <use x="1056.103516" xlink:href="#ArialMT-32"/>
     <use x="1083.886719" xlink:href="#ArialMT-73"/>
     <use x="1111.669922" xlink:href="#ArialMT-115"/>
     <use x="1161.669922" xlink:href="#ArialMT-108"/>
     <use x="1183.886719" xlink:href="#ArialMT-97"/>
     <use x="1239.501953" xlink:href="#ArialMT-110"/>
     <use x="1295.117188" xlink:href="#ArialMT-100"/>
     <use x="1350.732422" xlink:href="#ArialMT-32"/>
     <use x="1378.515625" xlink:href="#ArialMT-68"/>
     <use x="1450.732422" xlink:href="#ArialMT-78"/>
     <use x="1522.949219" xlink:href="#ArialMT-78"/>
     <use x="1595.166016" xlink:href="#ArialMT-32"/>
     <use x="1622.949219" xlink:href="#ArialMT-40"/>
     <use x="1656.25" xlink:href="#ArialMT-116"/>
     <use x="1684.033203" xlink:href="#ArialMT-111"/>
     <use x="1739.648438" xlink:href="#ArialMT-112"/>
     <use x="1795.263672" xlink:href="#ArialMT-32"/>
     <use x="1823.046875" xlink:href="#ArialMT-54"/>
     <use x="1878.662109" xlink:href="#ArialMT-32"/>
     <use x="1906.445312" xlink:href="#ArialMT-109"/>
     <use x="1989.746094" xlink:href="#ArialMT-111"/>
     <use x="2045.361328" xlink:href="#ArialMT-100"/>
     <use x="2100.976562" xlink:href="#ArialMT-101"/>
     <use x="2156.591797" xlink:href="#ArialMT-108"/>
     <use x="2178.808594" xlink:href="#ArialMT-115"/>
     <use x="2228.808594" xlink:href="#ArialMT-41"/>
    </g>
   </g>
  </g>
 </g>
 <defs>
  <clipPath id="p5e57375235">
   <rect height="326.16" width="446.4" x="72" y="51.84"/>
  </clipPath>
 </defs>
</svg>
