<?xml version="1.0" encoding="utf-8" standalone="no"?>
<!DOCTYPE svg PUBLIC "-//W3C//DTD SVG 1.1//EN"
  "http://www.w3.org/Graphics/SVG/1.1/DTD/svg11.dtd">
<!-- Created with matplotlib (https://matplotlib.org/) -->
<svg height="432pt" version="1.1" viewBox="0 0 576 432" width="576pt" xmlns="http://www.w3.org/2000/svg" xmlns:xlink="http://www.w3.org/1999/xlink">
 <defs>
  <style type="text/css">
*{stroke-linecap:butt;stroke-linejoin:round;white-space:pre;}
  </style>
 </defs>
 <g id="figure_1">
  <g id="patch_1">
   <path d="M 0 432 
L 576 432 
L 576 0 
L 0 0 
z
" style="fill:#ffffff;"/>
  </g>
  <g id="axes_1">
   <g id="patch_2">
    <path d="M 72 378 
L 518.4 378 
L 518.4 51.84 
L 72 51.84 
z
" style="fill:#eaeaf2;"/>
   </g>
   <g id="matplotlib.axis_1">
    <g id="xtick_1">
     <g id="line2d_1">
      <path clip-path="url(#p8fb2480584)" d="M 132.872727 378 
L 132.872727 51.84 
" style="fill:none;stroke:#ffffff;stroke-linecap:round;"/>
     </g>
     <g id="text_1">
      <!-- First -->
      <defs>
       <path d="M 8.203125 0 
L 8.203125 71.578125 
L 56.5 71.578125 
L 56.5 63.140625 
L 17.671875 63.140625 
L 17.671875 40.96875 
L 51.265625 40.96875 
L 51.265625 32.515625 
L 17.671875 32.515625 
L 17.671875 0 
z
" id="ArialMT-70"/>
       <path d="M 6.640625 61.46875 
L 6.640625 71.578125 
L 15.4375 71.578125 
L 15.4375 61.46875 
z
M 6.640625 0 
L 6.640625 51.859375 
L 15.4375 51.859375 
L 15.4375 0 
z
" id="ArialMT-105"/>
       <path d="M 6.5 0 
L 6.5 51.859375 
L 14.40625 51.859375 
L 14.40625 44 
Q 17.4375 49.515625 20 51.265625 
Q 22.5625 53.03125 25.640625 53.03125 
Q 30.078125 53.03125 34.671875 50.203125 
L 31.640625 42.046875 
Q 28.421875 43.953125 25.203125 43.953125 
Q 22.3125 43.953125 20.015625 42.21875 
Q 17.71875 40.484375 16.75 37.40625 
Q 15.28125 32.71875 15.28125 27.15625 
L 15.28125 0 
z
" id="ArialMT-114"/>
       <path d="M 3.078125 15.484375 
L 11.765625 16.84375 
Q 12.5 11.625 15.84375 8.84375 
Q 19.1875 6.0625 25.203125 6.0625 
Q 31.25 6.0625 34.171875 8.515625 
Q 37.109375 10.984375 37.109375 14.3125 
Q 37.109375 17.28125 34.515625 19 
Q 32.71875 20.171875 25.53125 21.96875 
Q 15.875 24.421875 12.140625 26.203125 
Q 8.40625 27.984375 6.46875 31.125 
Q 4.546875 34.28125 4.546875 38.09375 
Q 4.546875 41.546875 6.125 44.5 
Q 7.71875 47.46875 10.453125 49.421875 
Q 12.5 50.921875 16.03125 51.96875 
Q 19.578125 53.03125 23.640625 53.03125 
Q 29.734375 53.03125 34.34375 51.265625 
Q 38.96875 49.515625 41.15625 46.5 
Q 43.359375 43.5 44.1875 38.484375 
L 35.59375 37.3125 
Q 35.015625 41.3125 32.203125 43.546875 
Q 29.390625 45.796875 24.265625 45.796875 
Q 18.21875 45.796875 15.625 43.796875 
Q 13.03125 41.796875 13.03125 39.109375 
Q 13.03125 37.40625 14.109375 36.03125 
Q 15.1875 34.625 17.484375 33.6875 
Q 18.796875 33.203125 25.25 31.453125 
Q 34.578125 28.953125 38.25 27.359375 
Q 41.9375 25.78125 44.03125 22.75 
Q 46.140625 19.734375 46.140625 15.234375 
Q 46.140625 10.84375 43.578125 6.953125 
Q 41.015625 3.078125 36.171875 0.953125 
Q 31.34375 -1.171875 25.25 -1.171875 
Q 15.140625 -1.171875 9.84375 3.03125 
Q 4.546875 7.234375 3.078125 15.484375 
z
" id="ArialMT-115"/>
       <path d="M 25.78125 7.859375 
L 27.046875 0.09375 
Q 23.34375 -0.6875 20.40625 -0.6875 
Q 15.625 -0.6875 12.984375 0.828125 
Q 10.359375 2.34375 9.28125 4.8125 
Q 8.203125 7.28125 8.203125 15.1875 
L 8.203125 45.015625 
L 1.765625 45.015625 
L 1.765625 51.859375 
L 8.203125 51.859375 
L 8.203125 64.703125 
L 16.9375 69.96875 
L 16.9375 51.859375 
L 25.78125 51.859375 
L 25.78125 45.015625 
L 16.9375 45.015625 
L 16.9375 14.703125 
Q 16.9375 10.9375 17.40625 9.859375 
Q 17.875 8.796875 18.921875 8.15625 
Q 19.96875 7.515625 21.921875 7.515625 
Q 23.390625 7.515625 25.78125 7.859375 
z
" id="ArialMT-116"/>
      </defs>
      <g style="fill:#262626;" transform="translate(111.491477 403.247187)scale(0.22 -0.22)">
       <use xlink:href="#ArialMT-70"/>
       <use x="61.083984" xlink:href="#ArialMT-105"/>
       <use x="83.300781" xlink:href="#ArialMT-114"/>
       <use x="116.601562" xlink:href="#ArialMT-115"/>
       <use x="166.601562" xlink:href="#ArialMT-116"/>
      </g>
     </g>
    </g>
    <g id="xtick_2">
     <g id="line2d_2">
      <path clip-path="url(#p8fb2480584)" d="M 295.2 378 
L 295.2 51.84 
" style="fill:none;stroke:#ffffff;stroke-linecap:round;"/>
     </g>
     <g id="text_2">
      <!-- Second -->
      <defs>
       <path d="M 4.5 23 
L 13.421875 23.78125 
Q 14.0625 18.40625 16.375 14.96875 
Q 18.703125 11.53125 23.578125 9.40625 
Q 28.46875 7.28125 34.578125 7.28125 
Q 39.984375 7.28125 44.140625 8.890625 
Q 48.296875 10.5 50.3125 13.296875 
Q 52.34375 16.109375 52.34375 19.4375 
Q 52.34375 22.796875 50.390625 25.3125 
Q 48.4375 27.828125 43.953125 29.546875 
Q 41.0625 30.671875 31.203125 33.03125 
Q 21.34375 35.40625 17.390625 37.5 
Q 12.25 40.1875 9.734375 44.15625 
Q 7.234375 48.140625 7.234375 53.078125 
Q 7.234375 58.5 10.296875 63.203125 
Q 13.375 67.921875 19.28125 70.359375 
Q 25.203125 72.796875 32.421875 72.796875 
Q 40.375 72.796875 46.453125 70.234375 
Q 52.546875 67.671875 55.8125 62.6875 
Q 59.078125 57.71875 59.328125 51.421875 
L 50.25 50.734375 
Q 49.515625 57.515625 45.28125 60.984375 
Q 41.0625 64.453125 32.8125 64.453125 
Q 24.21875 64.453125 20.28125 61.296875 
Q 16.359375 58.15625 16.359375 53.71875 
Q 16.359375 49.859375 19.140625 47.359375 
Q 21.875 44.875 33.421875 42.265625 
Q 44.96875 39.65625 49.265625 37.703125 
Q 55.515625 34.8125 58.484375 30.390625 
Q 61.46875 25.984375 61.46875 20.21875 
Q 61.46875 14.5 58.203125 9.4375 
Q 54.9375 4.390625 48.796875 1.578125 
Q 42.671875 -1.21875 35.015625 -1.21875 
Q 25.296875 -1.21875 18.71875 1.609375 
Q 12.15625 4.4375 8.421875 10.125 
Q 4.6875 15.828125 4.5 23 
z
" id="ArialMT-83"/>
       <path d="M 42.09375 16.703125 
L 51.171875 15.578125 
Q 49.03125 7.625 43.21875 3.21875 
Q 37.40625 -1.171875 28.375 -1.171875 
Q 17 -1.171875 10.328125 5.828125 
Q 3.65625 12.84375 3.65625 25.484375 
Q 3.65625 38.578125 10.390625 45.796875 
Q 17.140625 53.03125 27.875 53.03125 
Q 38.28125 53.03125 44.875 45.953125 
Q 51.46875 38.875 51.46875 26.03125 
Q 51.46875 25.25 51.421875 23.6875 
L 12.75 23.6875 
Q 13.234375 15.140625 17.578125 10.59375 
Q 21.921875 6.0625 28.421875 6.0625 
Q 33.25 6.0625 36.671875 8.59375 
Q 40.09375 11.140625 42.09375 16.703125 
z
M 13.234375 30.90625 
L 42.1875 30.90625 
Q 41.609375 37.453125 38.875 40.71875 
Q 34.671875 45.796875 27.984375 45.796875 
Q 21.921875 45.796875 17.796875 41.75 
Q 13.671875 37.703125 13.234375 30.90625 
z
" id="ArialMT-101"/>
       <path d="M 40.4375 19 
L 49.078125 17.875 
Q 47.65625 8.9375 41.8125 3.875 
Q 35.984375 -1.171875 27.484375 -1.171875 
Q 16.84375 -1.171875 10.375 5.78125 
Q 3.90625 12.75 3.90625 25.734375 
Q 3.90625 34.125 6.6875 40.421875 
Q 9.46875 46.734375 15.15625 49.875 
Q 20.84375 53.03125 27.546875 53.03125 
Q 35.984375 53.03125 41.359375 48.75 
Q 46.734375 44.484375 48.25 36.625 
L 39.703125 35.296875 
Q 38.484375 40.53125 35.375 43.15625 
Q 32.28125 45.796875 27.875 45.796875 
Q 21.234375 45.796875 17.078125 41.03125 
Q 12.9375 36.28125 12.9375 25.984375 
Q 12.9375 15.53125 16.9375 10.796875 
Q 20.953125 6.0625 27.390625 6.0625 
Q 32.5625 6.0625 36.03125 9.234375 
Q 39.5 12.40625 40.4375 19 
z
" id="ArialMT-99"/>
       <path d="M 3.328125 25.921875 
Q 3.328125 40.328125 11.328125 47.265625 
Q 18.015625 53.03125 27.640625 53.03125 
Q 38.328125 53.03125 45.109375 46.015625 
Q 51.90625 39.015625 51.90625 26.65625 
Q 51.90625 16.65625 48.90625 10.90625 
Q 45.90625 5.171875 40.15625 2 
Q 34.421875 -1.171875 27.640625 -1.171875 
Q 16.75 -1.171875 10.03125 5.8125 
Q 3.328125 12.796875 3.328125 25.921875 
z
M 12.359375 25.921875 
Q 12.359375 15.96875 16.703125 11.015625 
Q 21.046875 6.0625 27.640625 6.0625 
Q 34.1875 6.0625 38.53125 11.03125 
Q 42.875 16.015625 42.875 26.21875 
Q 42.875 35.84375 38.5 40.796875 
Q 34.125 45.75 27.640625 45.75 
Q 21.046875 45.75 16.703125 40.8125 
Q 12.359375 35.890625 12.359375 25.921875 
z
" id="ArialMT-111"/>
       <path d="M 6.59375 0 
L 6.59375 51.859375 
L 14.5 51.859375 
L 14.5 44.484375 
Q 20.21875 53.03125 31 53.03125 
Q 35.6875 53.03125 39.625 51.34375 
Q 43.5625 49.65625 45.515625 46.921875 
Q 47.46875 44.1875 48.25 40.4375 
Q 48.734375 37.984375 48.734375 31.890625 
L 48.734375 0 
L 39.9375 0 
L 39.9375 31.546875 
Q 39.9375 36.921875 38.90625 39.578125 
Q 37.890625 42.234375 35.28125 43.8125 
Q 32.671875 45.40625 29.15625 45.40625 
Q 23.53125 45.40625 19.453125 41.84375 
Q 15.375 38.28125 15.375 28.328125 
L 15.375 0 
z
" id="ArialMT-110"/>
       <path d="M 40.234375 0 
L 40.234375 6.546875 
Q 35.296875 -1.171875 25.734375 -1.171875 
Q 19.53125 -1.171875 14.328125 2.25 
Q 9.125 5.671875 6.265625 11.796875 
Q 3.421875 17.921875 3.421875 25.875 
Q 3.421875 33.640625 6 39.96875 
Q 8.59375 46.296875 13.765625 49.65625 
Q 18.953125 53.03125 25.34375 53.03125 
Q 30.03125 53.03125 33.6875 51.046875 
Q 37.359375 49.078125 39.65625 45.90625 
L 39.65625 71.578125 
L 48.390625 71.578125 
L 48.390625 0 
z
M 12.453125 25.875 
Q 12.453125 15.921875 16.640625 10.984375 
Q 20.84375 6.0625 26.5625 6.0625 
Q 32.328125 6.0625 36.34375 10.765625 
Q 40.375 15.484375 40.375 25.140625 
Q 40.375 35.796875 36.265625 40.765625 
Q 32.171875 45.75 26.171875 45.75 
Q 20.3125 45.75 16.375 40.96875 
Q 12.453125 36.1875 12.453125 25.875 
z
" id="ArialMT-100"/>
      </defs>
      <g style="fill:#262626;" transform="translate(257.894531 403.247187)scale(0.22 -0.22)">
       <use xlink:href="#ArialMT-83"/>
       <use x="66.699219" xlink:href="#ArialMT-101"/>
       <use x="122.314453" xlink:href="#ArialMT-99"/>
       <use x="172.314453" xlink:href="#ArialMT-111"/>
       <use x="227.929688" xlink:href="#ArialMT-110"/>
       <use x="283.544922" xlink:href="#ArialMT-100"/>
      </g>
     </g>
    </g>
    <g id="xtick_3">
     <g id="line2d_3">
      <path clip-path="url(#p8fb2480584)" d="M 457.527273 378 
L 457.527273 51.84 
" style="fill:none;stroke:#ffffff;stroke-linecap:round;"/>
     </g>
     <g id="text_3">
      <!-- Third -->
      <defs>
       <path d="M 25.921875 0 
L 25.921875 63.140625 
L 2.34375 63.140625 
L 2.34375 71.578125 
L 59.078125 71.578125 
L 59.078125 63.140625 
L 35.40625 63.140625 
L 35.40625 0 
z
" id="ArialMT-84"/>
       <path d="M 6.59375 0 
L 6.59375 71.578125 
L 15.375 71.578125 
L 15.375 45.90625 
Q 21.53125 53.03125 30.90625 53.03125 
Q 36.671875 53.03125 40.921875 50.75 
Q 45.171875 48.484375 47 44.484375 
Q 48.828125 40.484375 48.828125 32.859375 
L 48.828125 0 
L 40.046875 0 
L 40.046875 32.859375 
Q 40.046875 39.453125 37.1875 42.453125 
Q 34.328125 45.453125 29.109375 45.453125 
Q 25.203125 45.453125 21.75 43.421875 
Q 18.3125 41.40625 16.84375 37.9375 
Q 15.375 34.46875 15.375 28.375 
L 15.375 0 
z
" id="ArialMT-104"/>
      </defs>
      <g style="fill:#262626;" transform="translate(432.467898 403.247187)scale(0.22 -0.22)">
       <use xlink:href="#ArialMT-84"/>
       <use x="61.083984" xlink:href="#ArialMT-104"/>
       <use x="116.699219" xlink:href="#ArialMT-105"/>
       <use x="138.916016" xlink:href="#ArialMT-114"/>
       <use x="172.216797" xlink:href="#ArialMT-100"/>
      </g>
     </g>
    </g>
    <g id="text_4">
     <!-- RNN Layers -->
     <defs>
      <path d="M 7.859375 0 
L 7.859375 71.578125 
L 39.59375 71.578125 
Q 49.171875 71.578125 54.140625 69.640625 
Q 59.125 67.71875 62.109375 62.828125 
Q 65.09375 57.953125 65.09375 52.046875 
Q 65.09375 44.4375 60.15625 39.203125 
Q 55.21875 33.984375 44.921875 32.5625 
Q 48.6875 30.765625 50.640625 29 
Q 54.78125 25.203125 58.5 19.484375 
L 70.953125 0 
L 59.03125 0 
L 49.5625 14.890625 
Q 45.40625 21.34375 42.71875 24.75 
Q 40.046875 28.171875 37.921875 29.53125 
Q 35.796875 30.90625 33.59375 31.453125 
Q 31.984375 31.78125 28.328125 31.78125 
L 17.328125 31.78125 
L 17.328125 0 
z
M 17.328125 39.984375 
L 37.703125 39.984375 
Q 44.1875 39.984375 47.84375 41.328125 
Q 51.515625 42.671875 53.421875 45.625 
Q 55.328125 48.578125 55.328125 52.046875 
Q 55.328125 57.125 51.640625 60.390625 
Q 47.953125 63.671875 39.984375 63.671875 
L 17.328125 63.671875 
z
" id="ArialMT-82"/>
      <path d="M 7.625 0 
L 7.625 71.578125 
L 17.328125 71.578125 
L 54.9375 15.375 
L 54.9375 71.578125 
L 64.015625 71.578125 
L 64.015625 0 
L 54.296875 0 
L 16.703125 56.25 
L 16.703125 0 
z
" id="ArialMT-78"/>
      <path id="ArialMT-32"/>
      <path d="M 7.328125 0 
L 7.328125 71.578125 
L 16.796875 71.578125 
L 16.796875 8.453125 
L 52.046875 8.453125 
L 52.046875 0 
z
" id="ArialMT-76"/>
      <path d="M 40.4375 6.390625 
Q 35.546875 2.25 31.03125 0.53125 
Q 26.515625 -1.171875 21.34375 -1.171875 
Q 12.796875 -1.171875 8.203125 3 
Q 3.609375 7.171875 3.609375 13.671875 
Q 3.609375 17.484375 5.34375 20.625 
Q 7.078125 23.78125 9.890625 25.6875 
Q 12.703125 27.59375 16.21875 28.5625 
Q 18.796875 29.25 24.03125 29.890625 
Q 34.671875 31.15625 39.703125 32.90625 
Q 39.75 34.71875 39.75 35.203125 
Q 39.75 40.578125 37.25 42.78125 
Q 33.890625 45.75 27.25 45.75 
Q 21.046875 45.75 18.09375 43.578125 
Q 15.140625 41.40625 13.71875 35.890625 
L 5.125 37.0625 
Q 6.296875 42.578125 8.984375 45.96875 
Q 11.671875 49.359375 16.75 51.1875 
Q 21.828125 53.03125 28.515625 53.03125 
Q 35.15625 53.03125 39.296875 51.46875 
Q 43.453125 49.90625 45.40625 47.53125 
Q 47.359375 45.171875 48.140625 41.546875 
Q 48.578125 39.3125 48.578125 33.453125 
L 48.578125 21.734375 
Q 48.578125 9.46875 49.140625 6.21875 
Q 49.703125 2.984375 51.375 0 
L 42.1875 0 
Q 40.828125 2.734375 40.4375 6.390625 
z
M 39.703125 26.03125 
Q 34.90625 24.078125 25.34375 22.703125 
Q 19.921875 21.921875 17.671875 20.9375 
Q 15.4375 19.96875 14.203125 18.09375 
Q 12.984375 16.21875 12.984375 13.921875 
Q 12.984375 10.40625 15.640625 8.0625 
Q 18.3125 5.71875 23.4375 5.71875 
Q 28.515625 5.71875 32.46875 7.9375 
Q 36.421875 10.15625 38.28125 14.015625 
Q 39.703125 17 39.703125 22.796875 
z
" id="ArialMT-97"/>
      <path d="M 6.203125 -19.96875 
L 5.21875 -11.71875 
Q 8.109375 -12.5 10.25 -12.5 
Q 13.1875 -12.5 14.9375 -11.515625 
Q 16.703125 -10.546875 17.828125 -8.796875 
Q 18.65625 -7.46875 20.515625 -2.25 
Q 20.75 -1.515625 21.296875 -0.09375 
L 1.609375 51.859375 
L 11.078125 51.859375 
L 21.875 21.828125 
Q 23.96875 16.109375 25.640625 9.8125 
Q 27.15625 15.875 29.25 21.625 
L 40.328125 51.859375 
L 49.125 51.859375 
L 29.390625 -0.875 
Q 26.21875 -9.421875 24.46875 -12.640625 
Q 22.125 -17 19.09375 -19.015625 
Q 16.0625 -21.046875 11.859375 -21.046875 
Q 9.328125 -21.046875 6.203125 -19.96875 
z
" id="ArialMT-121"/>
     </defs>
     <g style="fill:#262626;" transform="translate(229.8525 428.798437)scale(0.24 -0.24)">
      <use xlink:href="#ArialMT-82"/>
      <use x="72.216797" xlink:href="#ArialMT-78"/>
      <use x="144.433594" xlink:href="#ArialMT-78"/>
      <use x="216.650391" xlink:href="#ArialMT-32"/>
      <use x="244.433594" xlink:href="#ArialMT-76"/>
      <use x="300.048828" xlink:href="#ArialMT-97"/>
      <use x="355.664062" xlink:href="#ArialMT-121"/>
      <use x="405.664062" xlink:href="#ArialMT-101"/>
      <use x="461.279297" xlink:href="#ArialMT-114"/>
      <use x="494.580078" xlink:href="#ArialMT-115"/>
     </g>
    </g>
   </g>
   <g id="matplotlib.axis_2">
    <g id="ytick_1">
     <g id="line2d_4">
      <path clip-path="url(#p8fb2480584)" d="M 72 332.450705 
L 518.4 332.450705 
" style="fill:none;stroke:#ffffff;stroke-linecap:round;"/>
     </g>
     <g id="text_5">
      <!-- 0.00 -->
      <defs>
       <path d="M 4.15625 35.296875 
Q 4.15625 48 6.765625 55.734375 
Q 9.375 63.484375 14.515625 67.671875 
Q 19.671875 71.875 27.484375 71.875 
Q 33.25 71.875 37.59375 69.546875 
Q 41.9375 67.234375 44.765625 62.859375 
Q 47.609375 58.5 49.21875 52.21875 
Q 50.828125 45.953125 50.828125 35.296875 
Q 50.828125 22.703125 48.234375 14.96875 
Q 45.65625 7.234375 40.5 3 
Q 35.359375 -1.21875 27.484375 -1.21875 
Q 17.140625 -1.21875 11.234375 6.203125 
Q 4.15625 15.140625 4.15625 35.296875 
z
M 13.1875 35.296875 
Q 13.1875 17.671875 17.3125 11.828125 
Q 21.4375 6 27.484375 6 
Q 33.546875 6 37.671875 11.859375 
Q 41.796875 17.71875 41.796875 35.296875 
Q 41.796875 52.984375 37.671875 58.78125 
Q 33.546875 64.59375 27.390625 64.59375 
Q 21.34375 64.59375 17.71875 59.46875 
Q 13.1875 52.9375 13.1875 35.296875 
z
" id="ArialMT-48"/>
       <path d="M 9.078125 0 
L 9.078125 10.015625 
L 19.09375 10.015625 
L 19.09375 0 
z
" id="ArialMT-46"/>
      </defs>
      <g style="fill:#262626;" transform="translate(19.685938 340.324299)scale(0.22 -0.22)">
       <use xlink:href="#ArialMT-48"/>
       <use x="55.615234" xlink:href="#ArialMT-46"/>
       <use x="83.398438" xlink:href="#ArialMT-48"/>
       <use x="139.013672" xlink:href="#ArialMT-48"/>
      </g>
     </g>
    </g>
    <g id="ytick_2">
     <g id="line2d_5">
      <path clip-path="url(#p8fb2480584)" d="M 72 279.293657 
L 518.4 279.293657 
" style="fill:none;stroke:#ffffff;stroke-linecap:round;"/>
     </g>
     <g id="text_6">
      <!-- 0.05 -->
      <defs>
       <path d="M 4.15625 18.75 
L 13.375 19.53125 
Q 14.40625 12.796875 18.140625 9.390625 
Q 21.875 6 27.15625 6 
Q 33.5 6 37.890625 10.78125 
Q 42.28125 15.578125 42.28125 23.484375 
Q 42.28125 31 38.0625 35.34375 
Q 33.84375 39.703125 27 39.703125 
Q 22.75 39.703125 19.328125 37.765625 
Q 15.921875 35.84375 13.96875 32.765625 
L 5.71875 33.84375 
L 12.640625 70.609375 
L 48.25 70.609375 
L 48.25 62.203125 
L 19.671875 62.203125 
L 15.828125 42.96875 
Q 22.265625 47.46875 29.34375 47.46875 
Q 38.71875 47.46875 45.15625 40.96875 
Q 51.609375 34.46875 51.609375 24.265625 
Q 51.609375 14.546875 45.953125 7.46875 
Q 39.0625 -1.21875 27.15625 -1.21875 
Q 17.390625 -1.21875 11.203125 4.25 
Q 5.03125 9.71875 4.15625 18.75 
z
" id="ArialMT-53"/>
      </defs>
      <g style="fill:#262626;" transform="translate(19.685938 287.167251)scale(0.22 -0.22)">
       <use xlink:href="#ArialMT-48"/>
       <use x="55.615234" xlink:href="#ArialMT-46"/>
       <use x="83.398438" xlink:href="#ArialMT-48"/>
       <use x="139.013672" xlink:href="#ArialMT-53"/>
      </g>
     </g>
    </g>
    <g id="ytick_3">
     <g id="line2d_6">
      <path clip-path="url(#p8fb2480584)" d="M 72 226.136609 
L 518.4 226.136609 
" style="fill:none;stroke:#ffffff;stroke-linecap:round;"/>
     </g>
     <g id="text_7">
      <!-- 0.10 -->
      <defs>
       <path d="M 37.25 0 
L 28.46875 0 
L 28.46875 56 
Q 25.296875 52.984375 20.140625 49.953125 
Q 14.984375 46.921875 10.890625 45.40625 
L 10.890625 53.90625 
Q 18.265625 57.375 23.78125 62.296875 
Q 29.296875 67.234375 31.59375 71.875 
L 37.25 71.875 
z
" id="ArialMT-49"/>
      </defs>
      <g style="fill:#262626;" transform="translate(19.685938 234.010203)scale(0.22 -0.22)">
       <use xlink:href="#ArialMT-48"/>
       <use x="55.615234" xlink:href="#ArialMT-46"/>
       <use x="83.398438" xlink:href="#ArialMT-49"/>
       <use x="139.013672" xlink:href="#ArialMT-48"/>
      </g>
     </g>
    </g>
    <g id="ytick_4">
     <g id="line2d_7">
      <path clip-path="url(#p8fb2480584)" d="M 72 172.979561 
L 518.4 172.979561 
" style="fill:none;stroke:#ffffff;stroke-linecap:round;"/>
     </g>
     <g id="text_8">
      <!-- 0.15 -->
      <g style="fill:#262626;" transform="translate(19.685938 180.853155)scale(0.22 -0.22)">
       <use xlink:href="#ArialMT-48"/>
       <use x="55.615234" xlink:href="#ArialMT-46"/>
       <use x="83.398438" xlink:href="#ArialMT-49"/>
       <use x="139.013672" xlink:href="#ArialMT-53"/>
      </g>
     </g>
    </g>
    <g id="ytick_5">
     <g id="line2d_8">
      <path clip-path="url(#p8fb2480584)" d="M 72 119.822513 
L 518.4 119.822513 
" style="fill:none;stroke:#ffffff;stroke-linecap:round;"/>
     </g>
     <g id="text_9">
      <!-- 0.20 -->
      <defs>
       <path d="M 50.34375 8.453125 
L 50.34375 0 
L 3.03125 0 
Q 2.9375 3.171875 4.046875 6.109375 
Q 5.859375 10.9375 9.828125 15.625 
Q 13.8125 20.3125 21.34375 26.46875 
Q 33.015625 36.03125 37.109375 41.625 
Q 41.21875 47.21875 41.21875 52.203125 
Q 41.21875 57.421875 37.46875 61 
Q 33.734375 64.59375 27.734375 64.59375 
Q 21.390625 64.59375 17.578125 60.78125 
Q 13.765625 56.984375 13.71875 50.25 
L 4.6875 51.171875 
Q 5.609375 61.28125 11.65625 66.578125 
Q 17.71875 71.875 27.9375 71.875 
Q 38.234375 71.875 44.234375 66.15625 
Q 50.25 60.453125 50.25 52 
Q 50.25 47.703125 48.484375 43.546875 
Q 46.734375 39.40625 42.65625 34.8125 
Q 38.578125 30.21875 29.109375 22.21875 
Q 21.1875 15.578125 18.9375 13.203125 
Q 16.703125 10.84375 15.234375 8.453125 
z
" id="ArialMT-50"/>
      </defs>
      <g style="fill:#262626;" transform="translate(19.685938 127.696107)scale(0.22 -0.22)">
       <use xlink:href="#ArialMT-48"/>
       <use x="55.615234" xlink:href="#ArialMT-46"/>
       <use x="83.398438" xlink:href="#ArialMT-50"/>
       <use x="139.013672" xlink:href="#ArialMT-48"/>
      </g>
     </g>
    </g>
    <g id="ytick_6">
     <g id="line2d_9">
      <path clip-path="url(#p8fb2480584)" d="M 72 66.665465 
L 518.4 66.665465 
" style="fill:none;stroke:#ffffff;stroke-linecap:round;"/>
     </g>
     <g id="text_10">
      <!-- 0.25 -->
      <g style="fill:#262626;" transform="translate(19.685938 74.539059)scale(0.22 -0.22)">
       <use xlink:href="#ArialMT-48"/>
       <use x="55.615234" xlink:href="#ArialMT-46"/>
       <use x="83.398438" xlink:href="#ArialMT-50"/>
       <use x="139.013672" xlink:href="#ArialMT-53"/>
      </g>
     </g>
    </g>
    <g id="text_11">
     <!-- Recurrent dropout ratio (%) -->
     <defs>
      <path d="M 40.578125 0 
L 40.578125 7.625 
Q 34.515625 -1.171875 24.125 -1.171875 
Q 19.53125 -1.171875 15.546875 0.578125 
Q 11.578125 2.34375 9.640625 5 
Q 7.71875 7.671875 6.9375 11.53125 
Q 6.390625 14.109375 6.390625 19.734375 
L 6.390625 51.859375 
L 15.1875 51.859375 
L 15.1875 23.09375 
Q 15.1875 16.21875 15.71875 13.8125 
Q 16.546875 10.359375 19.234375 8.375 
Q 21.921875 6.390625 25.875 6.390625 
Q 29.828125 6.390625 33.296875 8.421875 
Q 36.765625 10.453125 38.203125 13.9375 
Q 39.65625 17.4375 39.65625 24.078125 
L 39.65625 51.859375 
L 48.4375 51.859375 
L 48.4375 0 
z
" id="ArialMT-117"/>
      <path d="M 6.59375 -19.875 
L 6.59375 51.859375 
L 14.59375 51.859375 
L 14.59375 45.125 
Q 17.4375 49.078125 21 51.046875 
Q 24.5625 53.03125 29.640625 53.03125 
Q 36.28125 53.03125 41.359375 49.609375 
Q 46.4375 46.1875 49.015625 39.953125 
Q 51.609375 33.734375 51.609375 26.3125 
Q 51.609375 18.359375 48.75 11.984375 
Q 45.90625 5.609375 40.453125 2.21875 
Q 35.015625 -1.171875 29 -1.171875 
Q 24.609375 -1.171875 21.109375 0.6875 
Q 17.625 2.546875 15.375 5.375 
L 15.375 -19.875 
z
M 14.546875 25.640625 
Q 14.546875 15.625 18.59375 10.84375 
Q 22.65625 6.0625 28.421875 6.0625 
Q 34.28125 6.0625 38.453125 11.015625 
Q 42.625 15.96875 42.625 26.375 
Q 42.625 36.28125 38.546875 41.203125 
Q 34.46875 46.140625 28.8125 46.140625 
Q 23.1875 46.140625 18.859375 40.890625 
Q 14.546875 35.640625 14.546875 25.640625 
z
" id="ArialMT-112"/>
      <path d="M 23.390625 -21.046875 
Q 16.109375 -11.859375 11.078125 0.4375 
Q 6.0625 12.75 6.0625 25.921875 
Q 6.0625 37.546875 9.8125 48.1875 
Q 14.203125 60.546875 23.390625 72.796875 
L 29.6875 72.796875 
Q 23.78125 62.640625 21.875 58.296875 
Q 18.890625 51.5625 17.1875 44.234375 
Q 15.09375 35.109375 15.09375 25.875 
Q 15.09375 2.390625 29.6875 -21.046875 
z
" id="ArialMT-40"/>
      <path d="M 5.8125 54.390625 
Q 5.8125 62.0625 9.671875 67.421875 
Q 13.53125 72.796875 20.84375 72.796875 
Q 27.59375 72.796875 32 67.984375 
Q 36.421875 63.1875 36.421875 53.859375 
Q 36.421875 44.78125 31.953125 39.875 
Q 27.484375 34.96875 20.953125 34.96875 
Q 14.453125 34.96875 10.125 39.796875 
Q 5.8125 44.625 5.8125 54.390625 
z
M 21.09375 66.75 
Q 17.828125 66.75 15.65625 63.90625 
Q 13.484375 61.078125 13.484375 53.515625 
Q 13.484375 46.625 15.671875 43.8125 
Q 17.875 41.015625 21.09375 41.015625 
Q 24.421875 41.015625 26.59375 43.84375 
Q 28.765625 46.6875 28.765625 54.203125 
Q 28.765625 61.140625 26.5625 63.9375 
Q 24.359375 66.75 21.09375 66.75 
z
M 21.140625 -2.640625 
L 60.296875 72.796875 
L 67.4375 72.796875 
L 28.421875 -2.640625 
z
M 52.09375 16.796875 
Q 52.09375 24.515625 55.953125 29.859375 
Q 59.8125 35.203125 67.1875 35.203125 
Q 73.921875 35.203125 78.34375 30.390625 
Q 82.765625 25.59375 82.765625 16.265625 
Q 82.765625 7.171875 78.296875 2.265625 
Q 73.828125 -2.640625 67.234375 -2.640625 
Q 60.75 -2.640625 56.421875 2.21875 
Q 52.09375 7.078125 52.09375 16.796875 
z
M 67.4375 29.15625 
Q 64.109375 29.15625 61.9375 26.3125 
Q 59.765625 23.484375 59.765625 15.921875 
Q 59.765625 9.078125 61.953125 6.25 
Q 64.15625 3.421875 67.390625 3.421875 
Q 70.75 3.421875 72.921875 6.25 
Q 75.09375 9.078125 75.09375 16.609375 
Q 75.09375 23.53125 72.890625 26.34375 
Q 70.703125 29.15625 67.4375 29.15625 
z
" id="ArialMT-37"/>
      <path d="M 12.359375 -21.046875 
L 6.0625 -21.046875 
Q 20.65625 2.390625 20.65625 25.875 
Q 20.65625 35.0625 18.5625 44.09375 
Q 16.890625 51.421875 13.921875 58.15625 
Q 12.015625 62.546875 6.0625 72.796875 
L 12.359375 72.796875 
Q 21.53125 60.546875 25.921875 48.1875 
Q 29.6875 37.546875 29.6875 25.921875 
Q 29.6875 12.75 24.625 0.4375 
Q 19.578125 -11.859375 12.359375 -21.046875 
z
" id="ArialMT-41"/>
     </defs>
     <g style="fill:#262626;" transform="translate(10.634687 360.30375)rotate(-90)scale(0.24 -0.24)">
      <use xlink:href="#ArialMT-82"/>
      <use x="72.216797" xlink:href="#ArialMT-101"/>
      <use x="127.832031" xlink:href="#ArialMT-99"/>
      <use x="177.832031" xlink:href="#ArialMT-117"/>
      <use x="233.447266" xlink:href="#ArialMT-114"/>
      <use x="266.748047" xlink:href="#ArialMT-114"/>
      <use x="300.048828" xlink:href="#ArialMT-101"/>
      <use x="355.664062" xlink:href="#ArialMT-110"/>
      <use x="411.279297" xlink:href="#ArialMT-116"/>
      <use x="439.0625" xlink:href="#ArialMT-32"/>
      <use x="466.845703" xlink:href="#ArialMT-100"/>
      <use x="522.460938" xlink:href="#ArialMT-114"/>
      <use x="555.761719" xlink:href="#ArialMT-111"/>
      <use x="611.376953" xlink:href="#ArialMT-112"/>
      <use x="666.992188" xlink:href="#ArialMT-111"/>
      <use x="722.607422" xlink:href="#ArialMT-117"/>
      <use x="778.222656" xlink:href="#ArialMT-116"/>
      <use x="806.005859" xlink:href="#ArialMT-32"/>
      <use x="833.789062" xlink:href="#ArialMT-114"/>
      <use x="867.089844" xlink:href="#ArialMT-97"/>
      <use x="922.705078" xlink:href="#ArialMT-116"/>
      <use x="950.488281" xlink:href="#ArialMT-105"/>
      <use x="972.705078" xlink:href="#ArialMT-111"/>
      <use x="1028.320312" xlink:href="#ArialMT-32"/>
      <use x="1056.103516" xlink:href="#ArialMT-40"/>
      <use x="1089.404297" xlink:href="#ArialMT-37"/>
      <use x="1178.320312" xlink:href="#ArialMT-41"/>
     </g>
    </g>
   </g>
   <g id="PolyCollection_1">
    <defs>
     <path d="M 148.986694 -110.180704 
L 116.75876 -110.180704 
L 114.423985 -112.758016 
L 112.188386 -115.335327 
L 110.097387 -117.912639 
L 108.172182 -120.48995 
L 106.411774 -123.067262 
L 104.799453 -125.644573 
L 103.311899 -128.221885 
L 101.928582 -130.799196 
L 100.639318 -133.376508 
L 99.448435 -135.953819 
L 98.374958 -138.531131 
L 97.449101 -141.108443 
L 96.706157 -143.685754 
L 96.179276 -146.263066 
L 95.89269 -148.840377 
L 95.856604 -151.417689 
L 96.064449 -153.995 
L 96.492568 -156.572312 
L 97.101976 -159.149623 
L 97.841634 -161.726935 
L 98.652698 -164.304246 
L 99.473351 -166.881558 
L 100.243875 -169.458869 
L 100.911623 -172.036181 
L 101.435373 -174.613492 
L 101.788491 -177.190804 
L 101.960348 -179.768115 
L 101.955683 -182.345427 
L 101.791911 -184.922739 
L 101.49475 -187.50005 
L 101.092774 -190.077362 
L 100.611741 -192.654673 
L 100.069702 -195.231985 
L 99.474034 -197.809296 
L 98.821495 -200.386608 
L 98.102019 -202.963919 
L 97.306094 -205.541231 
L 96.434382 -208.118542 
L 95.50699 -210.695854 
L 94.569258 -213.273165 
L 93.691364 -215.850477 
L 92.960645 -218.427788 
L 92.467884 -221.0051 
L 92.290909 -223.582411 
L 92.479999 -226.159723 
L 93.049085 -228.737034 
L 93.974859 -231.314346 
L 95.203313 -233.891658 
L 96.661022 -236.468969 
L 98.267448 -239.046281 
L 99.944966 -241.623592 
L 101.624864 -244.200904 
L 103.249405 -246.778215 
L 104.771439 -249.355527 
L 106.15347 -251.932838 
L 107.367575 -254.51015 
L 108.396542 -257.087461 
L 109.235544 -259.664773 
L 109.893121 -262.242084 
L 110.390298 -264.819396 
L 110.757272 -267.396707 
L 111.027963 -269.974019 
L 111.23349 -272.55133 
L 111.396126 -275.128642 
L 111.525295 -277.705954 
L 111.616695 -280.283265 
L 111.654843 -282.860577 
L 111.618321 -285.437888 
L 111.486135 -288.0152 
L 111.243143 -290.592511 
L 110.882713 -293.169823 
L 110.405674 -295.747134 
L 109.816003 -298.324446 
L 109.115202 -300.901757 
L 108.298205 -303.479069 
L 107.353589 -306.05638 
L 106.269551 -308.633692 
L 105.044919 -311.211003 
L 103.702065 -313.788315 
L 102.296987 -316.365626 
L 100.921834 -318.942938 
L 99.696991 -321.520249 
L 98.753113 -324.097561 
L 98.20706 -326.674873 
L 98.138207 -329.252184 
L 98.572022 -331.829496 
L 99.475858 -334.406807 
L 100.768221 -336.984119 
L 102.338679 -339.56143 
L 104.072537 -342.138742 
L 105.873414 -344.716053 
L 107.678065 -347.293365 
L 109.460613 -349.870676 
L 111.226648 -352.447988 
L 113.000287 -355.025299 
L 114.808678 -357.602611 
L 116.668275 -360.179922 
L 118.576055 -362.757234 
L 120.507031 -365.334545 
L 145.238424 -365.334545 
L 145.238424 -365.334545 
L 147.169399 -362.757234 
L 149.077179 -360.179922 
L 150.936777 -357.602611 
L 152.745167 -355.025299 
L 154.518807 -352.447988 
L 156.284841 -349.870676 
L 158.06739 -347.293365 
L 159.872041 -344.716053 
L 161.672918 -342.138742 
L 163.406776 -339.56143 
L 164.977233 -336.984119 
L 166.269596 -334.406807 
L 167.173433 -331.829496 
L 167.607247 -329.252184 
L 167.538394 -326.674873 
L 166.992341 -324.097561 
L 166.048464 -321.520249 
L 164.823621 -318.942938 
L 163.448468 -316.365626 
L 162.04339 -313.788315 
L 160.700536 -311.211003 
L 159.475904 -308.633692 
L 158.391866 -306.05638 
L 157.447249 -303.479069 
L 156.630253 -300.901757 
L 155.929452 -298.324446 
L 155.339781 -295.747134 
L 154.862741 -293.169823 
L 154.502312 -290.592511 
L 154.259319 -288.0152 
L 154.127133 -285.437888 
L 154.090612 -282.860577 
L 154.12876 -280.283265 
L 154.220159 -277.705954 
L 154.349328 -275.128642 
L 154.511965 -272.55133 
L 154.717491 -269.974019 
L 154.988182 -267.396707 
L 155.355156 -264.819396 
L 155.852333 -262.242084 
L 156.50991 -259.664773 
L 157.348913 -257.087461 
L 158.37788 -254.51015 
L 159.591985 -251.932838 
L 160.974015 -249.355527 
L 162.49605 -246.778215 
L 164.120591 -244.200904 
L 165.800488 -241.623592 
L 167.478006 -239.046281 
L 169.084432 -236.468969 
L 170.542142 -233.891658 
L 171.770596 -231.314346 
L 172.696369 -228.737034 
L 173.265455 -226.159723 
L 173.454545 -223.582411 
L 173.277571 -221.0051 
L 172.78481 -218.427788 
L 172.054091 -215.850477 
L 171.176196 -213.273165 
L 170.238465 -210.695854 
L 169.311072 -208.118542 
L 168.43936 -205.541231 
L 167.643436 -202.963919 
L 166.923959 -200.386608 
L 166.271421 -197.809296 
L 165.675753 -195.231985 
L 165.133714 -192.654673 
L 164.65268 -190.077362 
L 164.250704 -187.50005 
L 163.953543 -184.922739 
L 163.789772 -182.345427 
L 163.785106 -179.768115 
L 163.956964 -177.190804 
L 164.310082 -174.613492 
L 164.833832 -172.036181 
L 165.50158 -169.458869 
L 166.272104 -166.881558 
L 167.092756 -164.304246 
L 167.903821 -161.726935 
L 168.643478 -159.149623 
L 169.252886 -156.572312 
L 169.681005 -153.995 
L 169.888851 -151.417689 
L 169.852765 -148.840377 
L 169.566178 -146.263066 
L 169.039298 -143.685754 
L 168.296353 -141.108443 
L 167.370496 -138.531131 
L 166.297019 -135.953819 
L 165.106137 -133.376508 
L 163.816872 -130.799196 
L 162.433556 -128.221885 
L 160.946001 -125.644573 
L 159.33368 -123.067262 
L 157.573272 -120.48995 
L 155.648068 -117.912639 
L 153.557068 -115.335327 
L 151.32147 -112.758016 
L 148.986694 -110.180704 
z
" id="m65b40b7af1" style="stroke:#ffffff;stroke-opacity:0.3;"/>
    </defs>
    <g clip-path="url(#p8fb2480584)">
     <use style="fill:#4c72b0;fill-opacity:0.3;stroke:#ffffff;stroke-opacity:0.3;" x="0" xlink:href="#m65b40b7af1" y="432"/>
    </g>
   </g>
   <g id="PolyCollection_2">
    <defs>
     <path d="M 295.490754 -68.825455 
L 294.909246 -68.825455 
L 294.825252 -71.820496 
L 294.678554 -74.815537 
L 294.42355 -77.810579 
L 293.997767 -80.80562 
L 293.323172 -83.800661 
L 292.311797 -86.795702 
L 290.87655 -89.790744 
L 288.946757 -92.785785 
L 286.486126 -95.780826 
L 283.509012 -98.775868 
L 280.090007 -101.770909 
L 276.362669 -104.76595 
L 272.505852 -107.760992 
L 268.719828 -110.756033 
L 265.197831 -113.751074 
L 262.100361 -116.746116 
L 259.538561 -119.741157 
L 257.569698 -122.736198 
L 256.203479 -125.73124 
L 255.414563 -128.726281 
L 255.155453 -131.721322 
L 255.365438 -134.716364 
L 255.974297 -137.711405 
L 256.9026 -140.706446 
L 258.062081 -143.701488 
L 259.359043 -146.696529 
L 260.701572 -149.69157 
L 262.008752 -152.686612 
L 263.218462 -155.681653 
L 264.290488 -158.676694 
L 265.203541 -161.671736 
L 265.947258 -164.666777 
L 266.512356 -167.661818 
L 266.882874 -170.65686 
L 267.033692 -173.651901 
L 266.934832 -176.646942 
L 266.561877 -179.641983 
L 265.910002 -182.637025 
L 265.007743 -185.632066 
L 263.926027 -188.627107 
L 262.7784 -191.622149 
L 261.710033 -194.61719 
L 260.875971 -197.612231 
L 260.41265 -200.607273 
L 260.409659 -203.602314 
L 260.889698 -206.597355 
L 261.802886 -209.592397 
L 263.03728 -212.587438 
L 264.442354 -215.582479 
L 265.858223 -218.577521 
L 267.142271 -221.572562 
L 268.186753 -224.567603 
L 268.924932 -227.562645 
L 269.327443 -230.557686 
L 269.393339 -233.552727 
L 269.14076 -236.547769 
L 268.600654 -239.54281 
L 267.814468 -242.537851 
L 266.834368 -245.532893 
L 265.723334 -248.527934 
L 264.552708 -251.522975 
L 263.396272 -254.518017 
L 262.321846 -257.513058 
L 261.382936 -260.508099 
L 260.613306 -263.50314 
L 260.026339 -266.498182 
L 259.61911 -269.493223 
L 259.37907 -272.488264 
L 259.290183 -275.483306 
L 259.335741 -278.478347 
L 259.496839 -281.473388 
L 259.747729 -284.46843 
L 260.050953 -287.463471 
L 260.355483 -290.458512 
L 260.599963 -293.453554 
L 260.721119 -296.448595 
L 260.665427 -299.443636 
L 260.400834 -302.438678 
L 259.925151 -305.433719 
L 259.26846 -308.42876 
L 258.488371 -311.423802 
L 257.658823 -314.418843 
L 256.855083 -317.413884 
L 256.139117 -320.408926 
L 255.549976 -323.403967 
L 255.102713 -326.399008 
L 254.796652 -329.39405 
L 254.630408 -332.389091 
L 254.618182 -335.384132 
L 254.80099 -338.379174 
L 255.248029 -341.374215 
L 256.046858 -344.369256 
L 257.284975 -347.364298 
L 259.02814 -350.359339 
L 261.301477 -353.35438 
L 264.078048 -356.349421 
L 267.277179 -359.344463 
L 270.772266 -362.339504 
L 274.405994 -365.334545 
L 315.994006 -365.334545 
L 315.994006 -365.334545 
L 319.627734 -362.339504 
L 323.122821 -359.344463 
L 326.321952 -356.349421 
L 329.098523 -353.35438 
L 331.37186 -350.359339 
L 333.115025 -347.364298 
L 334.353142 -344.369256 
L 335.151971 -341.374215 
L 335.59901 -338.379174 
L 335.781818 -335.384132 
L 335.769592 -332.389091 
L 335.603348 -329.39405 
L 335.297287 -326.399008 
L 334.850024 -323.403967 
L 334.260883 -320.408926 
L 333.544917 -317.413884 
L 332.741177 -314.418843 
L 331.911629 -311.423802 
L 331.13154 -308.42876 
L 330.474849 -305.433719 
L 329.999166 -302.438678 
L 329.734573 -299.443636 
L 329.678881 -296.448595 
L 329.800037 -293.453554 
L 330.044517 -290.458512 
L 330.349047 -287.463471 
L 330.652271 -284.46843 
L 330.903161 -281.473388 
L 331.064259 -278.478347 
L 331.109817 -275.483306 
L 331.02093 -272.488264 
L 330.78089 -269.493223 
L 330.373661 -266.498182 
L 329.786694 -263.50314 
L 329.017064 -260.508099 
L 328.078154 -257.513058 
L 327.003728 -254.518017 
L 325.847292 -251.522975 
L 324.676666 -248.527934 
L 323.565632 -245.532893 
L 322.585532 -242.537851 
L 321.799346 -239.54281 
L 321.25924 -236.547769 
L 321.006661 -233.552727 
L 321.072557 -230.557686 
L 321.475068 -227.562645 
L 322.213247 -224.567603 
L 323.257729 -221.572562 
L 324.541777 -218.577521 
L 325.957646 -215.582479 
L 327.36272 -212.587438 
L 328.597114 -209.592397 
L 329.510302 -206.597355 
L 329.990341 -203.602314 
L 329.98735 -200.607273 
L 329.524029 -197.612231 
L 328.689967 -194.61719 
L 327.6216 -191.622149 
L 326.473973 -188.627107 
L 325.392257 -185.632066 
L 324.489998 -182.637025 
L 323.838123 -179.641983 
L 323.465168 -176.646942 
L 323.366308 -173.651901 
L 323.517126 -170.65686 
L 323.887644 -167.661818 
L 324.452742 -164.666777 
L 325.196459 -161.671736 
L 326.109512 -158.676694 
L 327.181538 -155.681653 
L 328.391248 -152.686612 
L 329.698428 -149.69157 
L 331.040957 -146.696529 
L 332.337919 -143.701488 
L 333.4974 -140.706446 
L 334.425703 -137.711405 
L 335.034562 -134.716364 
L 335.244547 -131.721322 
L 334.985437 -128.726281 
L 334.196521 -125.73124 
L 332.830302 -122.736198 
L 330.861439 -119.741157 
L 328.299639 -116.746116 
L 325.202169 -113.751074 
L 321.680172 -110.756033 
L 317.894148 -107.760992 
L 314.037331 -104.76595 
L 310.309993 -101.770909 
L 306.890988 -98.775868 
L 303.913874 -95.780826 
L 301.453243 -92.785785 
L 299.52345 -89.790744 
L 298.088203 -86.795702 
L 297.076828 -83.800661 
L 296.402233 -80.80562 
L 295.97645 -77.810579 
L 295.721446 -74.815537 
L 295.574748 -71.820496 
L 295.490754 -68.825455 
z
" id="m064c43952d" style="stroke:#ffffff;stroke-opacity:0.3;"/>
    </defs>
    <g clip-path="url(#p8fb2480584)">
     <use style="fill:#4c72b0;fill-opacity:0.3;stroke:#ffffff;stroke-opacity:0.3;" x="0" xlink:href="#m064c43952d" y="432"/>
    </g>
   </g>
   <g id="PolyCollection_3">
    <defs>
     <path d="M 480.633585 -110.180704 
L 434.420961 -110.180704 
L 431.135896 -112.758016 
L 428.025137 -115.335327 
L 425.196058 -117.912638 
L 422.732973 -120.48995 
L 420.692149 -123.067261 
L 419.101026 -125.644573 
L 417.961127 -128.221884 
L 417.25354 -130.799196 
L 416.945455 -133.376507 
L 416.996247 -135.953818 
L 417.361955 -138.53113 
L 417.997615 -141.108441 
L 418.857694 -143.685753 
L 419.895459 -146.263064 
L 421.062458 -148.840376 
L 422.309074 -151.417687 
L 423.586556 -153.994998 
L 424.850157 -156.57231 
L 426.062387 -159.149621 
L 427.195241 -161.726933 
L 428.230562 -164.304244 
L 429.158403 -166.881555 
L 429.973981 -169.458867 
L 430.674284 -172.036178 
L 431.255418 -174.61349 
L 431.711407 -177.190801 
L 432.034587 -179.768113 
L 432.217241 -182.345424 
L 432.253837 -184.922735 
L 432.143319 -187.500047 
L 431.891081 -190.077358 
L 431.51051 -192.65467 
L 431.024072 -195.231981 
L 430.463797 -197.809292 
L 429.870845 -200.386604 
L 429.293645 -202.963915 
L 428.784227 -205.541227 
L 428.392693 -208.118538 
L 428.160387 -210.69585 
L 428.112982 -213.273161 
L 428.255059 -215.850472 
L 428.567778 -218.427784 
L 429.010686 -221.005095 
L 429.527799 -223.582407 
L 430.057032 -226.159718 
L 430.541104 -228.73703 
L 430.93764 -231.314341 
L 431.226233 -233.891652 
L 431.410956 -236.468964 
L 431.517847 -239.046275 
L 431.588055 -241.623587 
L 431.668286 -244.200898 
L 431.800721 -246.778209 
L 432.014506 -249.355521 
L 432.320394 -251.932832 
L 432.709255 -254.510144 
L 433.154313 -257.087455 
L 433.61625 -259.664767 
L 434.049994 -262.242078 
L 434.411928 -264.819389 
L 434.666473 -267.396701 
L 434.791209 -269.974012 
L 434.779963 -272.551324 
L 434.64349 -275.128635 
L 434.407627 -277.705947 
L 434.10912 -280.283258 
L 433.789681 -282.860569 
L 433.48924 -285.437881 
L 433.239537 -288.015192 
L 433.059241 -290.592504 
L 432.951451 -293.169815 
L 432.904 -295.747126 
L 432.892379 -298.324438 
L 432.884635 -300.901749 
L 432.847316 -303.479061 
L 432.751442 -306.056372 
L 432.577618 -308.633684 
L 432.319641 -311.210995 
L 431.986232 -313.788306 
L 431.600741 -316.365618 
L 431.198928 -318.942929 
L 430.82505 -321.520241 
L 430.526723 -324.097552 
L 430.349196 -326.674864 
L 430.329872 -329.252175 
L 430.494042 -331.829486 
L 430.852677 -334.406798 
L 431.402836 -336.984109 
L 432.13067 -339.561421 
L 433.016332 -342.138732 
L 434.039529 -344.716043 
L 435.184161 -347.293355 
L 436.440702 -349.870666 
L 437.805557 -352.447978 
L 439.277599 -355.025289 
L 440.852931 -357.602601 
L 442.519544 -360.179912 
L 444.253596 -362.757223 
L 446.018578 -365.334535 
L 469.035968 -365.334535 
L 469.035968 -365.334535 
L 470.800949 -362.757223 
L 472.535001 -360.179912 
L 474.201615 -357.602601 
L 475.776947 -355.025289 
L 477.248989 -352.447978 
L 478.613844 -349.870666 
L 479.870384 -347.293355 
L 481.015017 -344.716043 
L 482.038213 -342.138732 
L 482.923876 -339.561421 
L 483.65171 -336.984109 
L 484.201869 -334.406798 
L 484.560504 -331.829486 
L 484.724673 -329.252175 
L 484.705349 -326.674864 
L 484.527822 -324.097552 
L 484.229496 -321.520241 
L 483.855618 -318.942929 
L 483.453804 -316.365618 
L 483.068314 -313.788306 
L 482.734904 -311.210995 
L 482.476928 -308.633684 
L 482.303103 -306.056372 
L 482.207229 -303.479061 
L 482.169911 -300.901749 
L 482.162166 -298.324438 
L 482.150545 -295.747126 
L 482.103095 -293.169815 
L 481.995305 -290.592504 
L 481.815008 -288.015192 
L 481.565306 -285.437881 
L 481.264864 -282.860569 
L 480.945426 -280.283258 
L 480.646918 -277.705947 
L 480.411056 -275.128635 
L 480.274583 -272.551324 
L 480.263337 -269.974012 
L 480.388073 -267.396701 
L 480.642617 -264.819389 
L 481.004551 -262.242078 
L 481.438295 -259.664767 
L 481.900233 -257.087455 
L 482.34529 -254.510144 
L 482.734152 -251.932832 
L 483.040039 -249.355521 
L 483.253825 -246.778209 
L 483.38626 -244.200898 
L 483.46649 -241.623587 
L 483.536698 -239.046275 
L 483.64359 -236.468964 
L 483.828313 -233.891652 
L 484.116905 -231.314341 
L 484.513441 -228.73703 
L 484.997514 -226.159718 
L 485.526746 -223.582407 
L 486.04386 -221.005095 
L 486.486767 -218.427784 
L 486.799486 -215.850472 
L 486.941563 -213.273161 
L 486.894158 -210.69585 
L 486.661853 -208.118538 
L 486.270318 -205.541227 
L 485.760901 -202.963915 
L 485.183701 -200.386604 
L 484.590748 -197.809292 
L 484.030474 -195.231981 
L 483.544035 -192.65467 
L 483.163465 -190.077358 
L 482.911226 -187.500047 
L 482.800708 -184.922735 
L 482.837304 -182.345424 
L 483.019958 -179.768113 
L 483.343139 -177.190801 
L 483.799127 -174.61349 
L 484.380261 -172.036178 
L 485.080565 -169.458867 
L 485.896142 -166.881555 
L 486.823983 -164.304244 
L 487.859304 -161.726933 
L 488.992159 -159.149621 
L 490.204389 -156.57231 
L 491.46799 -153.994998 
L 492.745472 -151.417687 
L 493.992087 -148.840376 
L 495.159086 -146.263064 
L 496.196851 -143.685753 
L 497.05693 -141.108441 
L 497.69259 -138.53113 
L 498.058298 -135.953818 
L 498.109091 -133.376507 
L 497.801006 -130.799196 
L 497.093418 -128.221884 
L 495.953519 -125.644573 
L 494.362396 -123.067261 
L 492.321573 -120.48995 
L 489.858487 -117.912638 
L 487.029409 -115.335327 
L 483.91865 -112.758016 
L 480.633585 -110.180704 
z
" id="m37ff76bd2d" style="stroke:#ffffff;stroke-opacity:0.3;"/>
    </defs>
    <g clip-path="url(#p8fb2480584)">
     <use style="fill:#4c72b0;fill-opacity:0.3;stroke:#ffffff;stroke-opacity:0.3;" x="0" xlink:href="#m37ff76bd2d" y="432"/>
    </g>
   </g>
   <g id="LineCollection_1">
    <path clip-path="url(#p8fb2480584)" d="M 112.581818 66.665455 
L 153.163636 66.665455 
" style="fill:none;stroke:#4c72b0;stroke-width:1.5;"/>
    <path clip-path="url(#p8fb2480584)" d="M 274.909091 66.665455 
L 315.490909 66.665455 
" style="fill:none;stroke:#4c72b0;stroke-width:1.5;"/>
    <path clip-path="url(#p8fb2480584)" d="M 437.236364 66.665465 
L 477.818182 66.665465 
" style="fill:none;stroke:#4c72b0;stroke-width:1.5;"/>
   </g>
   <g id="LineCollection_2">
    <path clip-path="url(#p8fb2480584)" d="M 112.581818 321.819296 
L 153.163636 321.819296 
" style="fill:none;stroke:#4c72b0;stroke-width:1.5;"/>
    <path clip-path="url(#p8fb2480584)" d="M 274.909091 363.174545 
L 315.490909 363.174545 
" style="fill:none;stroke:#4c72b0;stroke-width:1.5;"/>
    <path clip-path="url(#p8fb2480584)" d="M 437.236364 321.819296 
L 477.818182 321.819296 
" style="fill:none;stroke:#4c72b0;stroke-width:1.5;"/>
   </g>
   <g id="LineCollection_3">
    <path clip-path="url(#p8fb2480584)" d="M 132.872727 321.819296 
L 132.872727 66.665455 
" style="fill:none;stroke:#4c72b0;stroke-width:1.5;"/>
    <path clip-path="url(#p8fb2480584)" d="M 295.2 363.174545 
L 295.2 66.665455 
" style="fill:none;stroke:#4c72b0;stroke-width:1.5;"/>
    <path clip-path="url(#p8fb2480584)" d="M 457.527273 321.819296 
L 457.527273 66.665465 
" style="fill:none;stroke:#4c72b0;stroke-width:1.5;"/>
   </g>
   <g id="LineCollection_4">
    <path clip-path="url(#p8fb2480584)" d="M 112.581818 205.794791 
L 153.163636 205.794791 
" style="fill:none;stroke:#4c72b0;stroke-width:1.5;"/>
    <path clip-path="url(#p8fb2480584)" d="M 274.909091 189.325402 
L 315.490909 189.325402 
" style="fill:none;stroke:#4c72b0;stroke-width:1.5;"/>
    <path clip-path="url(#p8fb2480584)" d="M 437.236364 214.53085 
L 477.818182 214.53085 
" style="fill:none;stroke:#4c72b0;stroke-width:1.5;"/>
   </g>
   <g id="patch_3">
    <path d="M 72 378 
L 72 51.84 
" style="fill:none;stroke:#ffffff;stroke-linecap:square;stroke-linejoin:miter;stroke-width:1.25;"/>
   </g>
   <g id="patch_4">
    <path d="M 518.4 378 
L 518.4 51.84 
" style="fill:none;stroke:#ffffff;stroke-linecap:square;stroke-linejoin:miter;stroke-width:1.25;"/>
   </g>
   <g id="patch_5">
    <path d="M 72 378 
L 518.4 378 
" style="fill:none;stroke:#ffffff;stroke-linecap:square;stroke-linejoin:miter;stroke-width:1.25;"/>
   </g>
   <g id="patch_6">
    <path d="M 72 51.84 
L 518.4 51.84 
" style="fill:none;stroke:#ffffff;stroke-linecap:square;stroke-linejoin:miter;stroke-width:1.25;"/>
   </g>
   <g id="text_12">
    <!-- Recurrent dropout ratio: Island DNN (all 6659 models) -->
    <defs>
     <path d="M 9.03125 41.84375 
L 9.03125 51.859375 
L 19.046875 51.859375 
L 19.046875 41.84375 
z
M 9.03125 0 
L 9.03125 10.015625 
L 19.046875 10.015625 
L 19.046875 0 
z
" id="ArialMT-58"/>
     <path d="M 9.328125 0 
L 9.328125 71.578125 
L 18.796875 71.578125 
L 18.796875 0 
z
" id="ArialMT-73"/>
     <path d="M 6.390625 0 
L 6.390625 71.578125 
L 15.1875 71.578125 
L 15.1875 0 
z
" id="ArialMT-108"/>
     <path d="M 7.71875 0 
L 7.71875 71.578125 
L 32.375 71.578125 
Q 40.71875 71.578125 45.125 70.5625 
Q 51.265625 69.140625 55.609375 65.4375 
Q 61.28125 60.640625 64.078125 53.1875 
Q 66.890625 45.75 66.890625 36.1875 
Q 66.890625 28.03125 64.984375 21.734375 
Q 63.09375 15.4375 60.109375 11.296875 
Q 57.125 7.171875 53.578125 4.796875 
Q 50.046875 2.4375 45.046875 1.21875 
Q 40.046875 0 33.546875 0 
z
M 17.1875 8.453125 
L 32.46875 8.453125 
Q 39.546875 8.453125 43.578125 9.765625 
Q 47.609375 11.078125 50 13.484375 
Q 53.375 16.84375 55.25 22.53125 
Q 57.125 28.21875 57.125 36.328125 
Q 57.125 47.5625 53.4375 53.59375 
Q 49.75 59.625 44.484375 61.671875 
Q 40.671875 63.140625 32.234375 63.140625 
L 17.1875 63.140625 
z
" id="ArialMT-68"/>
     <path d="M 49.75 54.046875 
L 41.015625 53.375 
Q 39.84375 58.546875 37.703125 60.890625 
Q 34.125 64.65625 28.90625 64.65625 
Q 24.703125 64.65625 21.53125 62.3125 
Q 17.390625 59.28125 14.984375 53.46875 
Q 12.59375 47.65625 12.5 36.921875 
Q 15.671875 41.75 20.265625 44.09375 
Q 24.859375 46.4375 29.890625 46.4375 
Q 38.671875 46.4375 44.84375 39.96875 
Q 51.03125 33.5 51.03125 23.25 
Q 51.03125 16.5 48.125 10.71875 
Q 45.21875 4.9375 40.140625 1.859375 
Q 35.0625 -1.21875 28.609375 -1.21875 
Q 17.625 -1.21875 10.6875 6.859375 
Q 3.765625 14.9375 3.765625 33.5 
Q 3.765625 54.25 11.421875 63.671875 
Q 18.109375 71.875 29.4375 71.875 
Q 37.890625 71.875 43.28125 67.140625 
Q 48.6875 62.40625 49.75 54.046875 
z
M 13.875 23.1875 
Q 13.875 18.65625 15.796875 14.5 
Q 17.71875 10.359375 21.1875 8.171875 
Q 24.65625 6 28.46875 6 
Q 34.03125 6 38.03125 10.484375 
Q 42.046875 14.984375 42.046875 22.703125 
Q 42.046875 30.125 38.078125 34.390625 
Q 34.125 38.671875 28.125 38.671875 
Q 22.171875 38.671875 18.015625 34.390625 
Q 13.875 30.125 13.875 23.1875 
z
" id="ArialMT-54"/>
     <path d="M 5.46875 16.546875 
L 13.921875 17.328125 
Q 14.984375 11.375 18.015625 8.6875 
Q 21.046875 6 25.78125 6 
Q 29.828125 6 32.875 7.859375 
Q 35.9375 9.71875 37.890625 12.8125 
Q 39.84375 15.921875 41.15625 21.1875 
Q 42.484375 26.46875 42.484375 31.9375 
Q 42.484375 32.515625 42.4375 33.6875 
Q 39.796875 29.5 35.234375 26.875 
Q 30.671875 24.265625 25.34375 24.265625 
Q 16.453125 24.265625 10.296875 30.703125 
Q 4.15625 37.15625 4.15625 47.703125 
Q 4.15625 58.59375 10.578125 65.234375 
Q 17 71.875 26.65625 71.875 
Q 33.640625 71.875 39.421875 68.109375 
Q 45.21875 64.359375 48.21875 57.390625 
Q 51.21875 50.4375 51.21875 37.25 
Q 51.21875 23.53125 48.234375 15.40625 
Q 45.265625 7.28125 39.375 3.03125 
Q 33.5 -1.21875 25.59375 -1.21875 
Q 17.1875 -1.21875 11.859375 3.4375 
Q 6.546875 8.109375 5.46875 16.546875 
z
M 41.453125 48.140625 
Q 41.453125 55.71875 37.421875 60.15625 
Q 33.40625 64.59375 27.734375 64.59375 
Q 21.875 64.59375 17.53125 59.8125 
Q 13.1875 55.03125 13.1875 47.40625 
Q 13.1875 40.578125 17.3125 36.296875 
Q 21.4375 32.03125 27.484375 32.03125 
Q 33.59375 32.03125 37.515625 36.296875 
Q 41.453125 40.578125 41.453125 48.140625 
z
" id="ArialMT-57"/>
     <path d="M 6.59375 0 
L 6.59375 51.859375 
L 14.453125 51.859375 
L 14.453125 44.578125 
Q 16.890625 48.390625 20.9375 50.703125 
Q 25 53.03125 30.171875 53.03125 
Q 35.9375 53.03125 39.625 50.640625 
Q 43.3125 48.25 44.828125 43.953125 
Q 50.984375 53.03125 60.84375 53.03125 
Q 68.5625 53.03125 72.703125 48.75 
Q 76.859375 44.484375 76.859375 35.59375 
L 76.859375 0 
L 68.109375 0 
L 68.109375 32.671875 
Q 68.109375 37.9375 67.25 40.25 
Q 66.40625 42.578125 64.15625 43.984375 
Q 61.921875 45.40625 58.890625 45.40625 
Q 53.421875 45.40625 49.796875 41.765625 
Q 46.1875 38.140625 46.1875 30.125 
L 46.1875 0 
L 37.40625 0 
L 37.40625 33.6875 
Q 37.40625 39.546875 35.25 42.46875 
Q 33.109375 45.40625 28.21875 45.40625 
Q 24.515625 45.40625 21.359375 43.453125 
Q 18.21875 41.5 16.796875 37.734375 
Q 15.375 33.984375 15.375 26.90625 
L 15.375 0 
z
" id="ArialMT-109"/>
    </defs>
    <g style="fill:#262626;" transform="translate(8.420625 45.84)scale(0.24 -0.24)">
     <use xlink:href="#ArialMT-82"/>
     <use x="72.216797" xlink:href="#ArialMT-101"/>
     <use x="127.832031" xlink:href="#ArialMT-99"/>
     <use x="177.832031" xlink:href="#ArialMT-117"/>
     <use x="233.447266" xlink:href="#ArialMT-114"/>
     <use x="266.748047" xlink:href="#ArialMT-114"/>
     <use x="300.048828" xlink:href="#ArialMT-101"/>
     <use x="355.664062" xlink:href="#ArialMT-110"/>
     <use x="411.279297" xlink:href="#ArialMT-116"/>
     <use x="439.0625" xlink:href="#ArialMT-32"/>
     <use x="466.845703" xlink:href="#ArialMT-100"/>
     <use x="522.460938" xlink:href="#ArialMT-114"/>
     <use x="555.761719" xlink:href="#ArialMT-111"/>
     <use x="611.376953" xlink:href="#ArialMT-112"/>
     <use x="666.992188" xlink:href="#ArialMT-111"/>
     <use x="722.607422" xlink:href="#ArialMT-117"/>
     <use x="778.222656" xlink:href="#ArialMT-116"/>
     <use x="806.005859" xlink:href="#ArialMT-32"/>
     <use x="833.789062" xlink:href="#ArialMT-114"/>
     <use x="867.089844" xlink:href="#ArialMT-97"/>
     <use x="922.705078" xlink:href="#ArialMT-116"/>
     <use x="950.488281" xlink:href="#ArialMT-105"/>
     <use x="972.705078" xlink:href="#ArialMT-111"/>
     <use x="1028.320312" xlink:href="#ArialMT-58"/>
     <use x="1056.103516" xlink:href="#ArialMT-32"/>
     <use x="1083.886719" xlink:href="#ArialMT-73"/>
     <use x="1111.669922" xlink:href="#ArialMT-115"/>
     <use x="1161.669922" xlink:href="#ArialMT-108"/>
     <use x="1183.886719" xlink:href="#ArialMT-97"/>
     <use x="1239.501953" xlink:href="#ArialMT-110"/>
     <use x="1295.117188" xlink:href="#ArialMT-100"/>
     <use x="1350.732422" xlink:href="#ArialMT-32"/>
     <use x="1378.515625" xlink:href="#ArialMT-68"/>
     <use x="1450.732422" xlink:href="#ArialMT-78"/>
     <use x="1522.949219" xlink:href="#ArialMT-78"/>
     <use x="1595.166016" xlink:href="#ArialMT-32"/>
     <use x="1622.949219" xlink:href="#ArialMT-40"/>
     <use x="1656.25" xlink:href="#ArialMT-97"/>
     <use x="1711.865234" xlink:href="#ArialMT-108"/>
     <use x="1734.082031" xlink:href="#ArialMT-108"/>
     <use x="1756.298828" xlink:href="#ArialMT-32"/>
     <use x="1784.082031" xlink:href="#ArialMT-54"/>
     <use x="1839.697266" xlink:href="#ArialMT-54"/>
     <use x="1895.3125" xlink:href="#ArialMT-53"/>
     <use x="1950.927734" xlink:href="#ArialMT-57"/>
     <use x="2006.542969" xlink:href="#ArialMT-32"/>
     <use x="2034.326172" xlink:href="#ArialMT-109"/>
     <use x="2117.626953" xlink:href="#ArialMT-111"/>
     <use x="2173.242188" xlink:href="#ArialMT-100"/>
     <use x="2228.857422" xlink:href="#ArialMT-101"/>
     <use x="2284.472656" xlink:href="#ArialMT-108"/>
     <use x="2306.689453" xlink:href="#ArialMT-115"/>
     <use x="2356.689453" xlink:href="#ArialMT-41"/>
    </g>
   </g>
  </g>
 </g>
 <defs>
  <clipPath id="p8fb2480584">
   <rect height="326.16" width="446.4" x="72" y="51.84"/>
  </clipPath>
 </defs>
</svg>
