<?xml version="1.0" encoding="utf-8" standalone="no"?>
<!DOCTYPE svg PUBLIC "-//W3C//DTD SVG 1.1//EN"
  "http://www.w3.org/Graphics/SVG/1.1/DTD/svg11.dtd">
<!-- Created with matplotlib (https://matplotlib.org/) -->
<svg height="432pt" version="1.1" viewBox="0 0 576 432" width="576pt" xmlns="http://www.w3.org/2000/svg" xmlns:xlink="http://www.w3.org/1999/xlink">
 <defs>
  <style type="text/css">
*{stroke-linecap:butt;stroke-linejoin:round;white-space:pre;}
  </style>
 </defs>
 <g id="figure_1">
  <g id="patch_1">
   <path d="M 0 432 
L 576 432 
L 576 0 
L 0 0 
z
" style="fill:#ffffff;"/>
  </g>
  <g id="axes_1">
   <g id="patch_2">
    <path d="M 72 378 
L 518.4 378 
L 518.4 51.84 
L 72 51.84 
z
" style="fill:#eaeaf2;"/>
   </g>
   <g id="matplotlib.axis_1">
    <g id="xtick_1">
     <g id="line2d_1">
      <path clip-path="url(#p1418fb2dc2)" d="M 132.872727 378 
L 132.872727 51.84 
" style="fill:none;stroke:#ffffff;stroke-linecap:round;"/>
     </g>
     <g id="text_1">
      <!-- First -->
      <defs>
       <path d="M 8.203125 0 
L 8.203125 71.578125 
L 56.5 71.578125 
L 56.5 63.140625 
L 17.671875 63.140625 
L 17.671875 40.96875 
L 51.265625 40.96875 
L 51.265625 32.515625 
L 17.671875 32.515625 
L 17.671875 0 
z
" id="ArialMT-70"/>
       <path d="M 6.640625 61.46875 
L 6.640625 71.578125 
L 15.4375 71.578125 
L 15.4375 61.46875 
z
M 6.640625 0 
L 6.640625 51.859375 
L 15.4375 51.859375 
L 15.4375 0 
z
" id="ArialMT-105"/>
       <path d="M 6.5 0 
L 6.5 51.859375 
L 14.40625 51.859375 
L 14.40625 44 
Q 17.4375 49.515625 20 51.265625 
Q 22.5625 53.03125 25.640625 53.03125 
Q 30.078125 53.03125 34.671875 50.203125 
L 31.640625 42.046875 
Q 28.421875 43.953125 25.203125 43.953125 
Q 22.3125 43.953125 20.015625 42.21875 
Q 17.71875 40.484375 16.75 37.40625 
Q 15.28125 32.71875 15.28125 27.15625 
L 15.28125 0 
z
" id="ArialMT-114"/>
       <path d="M 3.078125 15.484375 
L 11.765625 16.84375 
Q 12.5 11.625 15.84375 8.84375 
Q 19.1875 6.0625 25.203125 6.0625 
Q 31.25 6.0625 34.171875 8.515625 
Q 37.109375 10.984375 37.109375 14.3125 
Q 37.109375 17.28125 34.515625 19 
Q 32.71875 20.171875 25.53125 21.96875 
Q 15.875 24.421875 12.140625 26.203125 
Q 8.40625 27.984375 6.46875 31.125 
Q 4.546875 34.28125 4.546875 38.09375 
Q 4.546875 41.546875 6.125 44.5 
Q 7.71875 47.46875 10.453125 49.421875 
Q 12.5 50.921875 16.03125 51.96875 
Q 19.578125 53.03125 23.640625 53.03125 
Q 29.734375 53.03125 34.34375 51.265625 
Q 38.96875 49.515625 41.15625 46.5 
Q 43.359375 43.5 44.1875 38.484375 
L 35.59375 37.3125 
Q 35.015625 41.3125 32.203125 43.546875 
Q 29.390625 45.796875 24.265625 45.796875 
Q 18.21875 45.796875 15.625 43.796875 
Q 13.03125 41.796875 13.03125 39.109375 
Q 13.03125 37.40625 14.109375 36.03125 
Q 15.1875 34.625 17.484375 33.6875 
Q 18.796875 33.203125 25.25 31.453125 
Q 34.578125 28.953125 38.25 27.359375 
Q 41.9375 25.78125 44.03125 22.75 
Q 46.140625 19.734375 46.140625 15.234375 
Q 46.140625 10.84375 43.578125 6.953125 
Q 41.015625 3.078125 36.171875 0.953125 
Q 31.34375 -1.171875 25.25 -1.171875 
Q 15.140625 -1.171875 9.84375 3.03125 
Q 4.546875 7.234375 3.078125 15.484375 
z
" id="ArialMT-115"/>
       <path d="M 25.78125 7.859375 
L 27.046875 0.09375 
Q 23.34375 -0.6875 20.40625 -0.6875 
Q 15.625 -0.6875 12.984375 0.828125 
Q 10.359375 2.34375 9.28125 4.8125 
Q 8.203125 7.28125 8.203125 15.1875 
L 8.203125 45.015625 
L 1.765625 45.015625 
L 1.765625 51.859375 
L 8.203125 51.859375 
L 8.203125 64.703125 
L 16.9375 69.96875 
L 16.9375 51.859375 
L 25.78125 51.859375 
L 25.78125 45.015625 
L 16.9375 45.015625 
L 16.9375 14.703125 
Q 16.9375 10.9375 17.40625 9.859375 
Q 17.875 8.796875 18.921875 8.15625 
Q 19.96875 7.515625 21.921875 7.515625 
Q 23.390625 7.515625 25.78125 7.859375 
z
" id="ArialMT-116"/>
      </defs>
      <g style="fill:#262626;" transform="translate(111.491477 403.247187)scale(0.22 -0.22)">
       <use xlink:href="#ArialMT-70"/>
       <use x="61.083984" xlink:href="#ArialMT-105"/>
       <use x="83.300781" xlink:href="#ArialMT-114"/>
       <use x="116.601562" xlink:href="#ArialMT-115"/>
       <use x="166.601562" xlink:href="#ArialMT-116"/>
      </g>
     </g>
    </g>
    <g id="xtick_2">
     <g id="line2d_2">
      <path clip-path="url(#p1418fb2dc2)" d="M 295.2 378 
L 295.2 51.84 
" style="fill:none;stroke:#ffffff;stroke-linecap:round;"/>
     </g>
     <g id="text_2">
      <!-- Second -->
      <defs>
       <path d="M 4.5 23 
L 13.421875 23.78125 
Q 14.0625 18.40625 16.375 14.96875 
Q 18.703125 11.53125 23.578125 9.40625 
Q 28.46875 7.28125 34.578125 7.28125 
Q 39.984375 7.28125 44.140625 8.890625 
Q 48.296875 10.5 50.3125 13.296875 
Q 52.34375 16.109375 52.34375 19.4375 
Q 52.34375 22.796875 50.390625 25.3125 
Q 48.4375 27.828125 43.953125 29.546875 
Q 41.0625 30.671875 31.203125 33.03125 
Q 21.34375 35.40625 17.390625 37.5 
Q 12.25 40.1875 9.734375 44.15625 
Q 7.234375 48.140625 7.234375 53.078125 
Q 7.234375 58.5 10.296875 63.203125 
Q 13.375 67.921875 19.28125 70.359375 
Q 25.203125 72.796875 32.421875 72.796875 
Q 40.375 72.796875 46.453125 70.234375 
Q 52.546875 67.671875 55.8125 62.6875 
Q 59.078125 57.71875 59.328125 51.421875 
L 50.25 50.734375 
Q 49.515625 57.515625 45.28125 60.984375 
Q 41.0625 64.453125 32.8125 64.453125 
Q 24.21875 64.453125 20.28125 61.296875 
Q 16.359375 58.15625 16.359375 53.71875 
Q 16.359375 49.859375 19.140625 47.359375 
Q 21.875 44.875 33.421875 42.265625 
Q 44.96875 39.65625 49.265625 37.703125 
Q 55.515625 34.8125 58.484375 30.390625 
Q 61.46875 25.984375 61.46875 20.21875 
Q 61.46875 14.5 58.203125 9.4375 
Q 54.9375 4.390625 48.796875 1.578125 
Q 42.671875 -1.21875 35.015625 -1.21875 
Q 25.296875 -1.21875 18.71875 1.609375 
Q 12.15625 4.4375 8.421875 10.125 
Q 4.6875 15.828125 4.5 23 
z
" id="ArialMT-83"/>
       <path d="M 42.09375 16.703125 
L 51.171875 15.578125 
Q 49.03125 7.625 43.21875 3.21875 
Q 37.40625 -1.171875 28.375 -1.171875 
Q 17 -1.171875 10.328125 5.828125 
Q 3.65625 12.84375 3.65625 25.484375 
Q 3.65625 38.578125 10.390625 45.796875 
Q 17.140625 53.03125 27.875 53.03125 
Q 38.28125 53.03125 44.875 45.953125 
Q 51.46875 38.875 51.46875 26.03125 
Q 51.46875 25.25 51.421875 23.6875 
L 12.75 23.6875 
Q 13.234375 15.140625 17.578125 10.59375 
Q 21.921875 6.0625 28.421875 6.0625 
Q 33.25 6.0625 36.671875 8.59375 
Q 40.09375 11.140625 42.09375 16.703125 
z
M 13.234375 30.90625 
L 42.1875 30.90625 
Q 41.609375 37.453125 38.875 40.71875 
Q 34.671875 45.796875 27.984375 45.796875 
Q 21.921875 45.796875 17.796875 41.75 
Q 13.671875 37.703125 13.234375 30.90625 
z
" id="ArialMT-101"/>
       <path d="M 40.4375 19 
L 49.078125 17.875 
Q 47.65625 8.9375 41.8125 3.875 
Q 35.984375 -1.171875 27.484375 -1.171875 
Q 16.84375 -1.171875 10.375 5.78125 
Q 3.90625 12.75 3.90625 25.734375 
Q 3.90625 34.125 6.6875 40.421875 
Q 9.46875 46.734375 15.15625 49.875 
Q 20.84375 53.03125 27.546875 53.03125 
Q 35.984375 53.03125 41.359375 48.75 
Q 46.734375 44.484375 48.25 36.625 
L 39.703125 35.296875 
Q 38.484375 40.53125 35.375 43.15625 
Q 32.28125 45.796875 27.875 45.796875 
Q 21.234375 45.796875 17.078125 41.03125 
Q 12.9375 36.28125 12.9375 25.984375 
Q 12.9375 15.53125 16.9375 10.796875 
Q 20.953125 6.0625 27.390625 6.0625 
Q 32.5625 6.0625 36.03125 9.234375 
Q 39.5 12.40625 40.4375 19 
z
" id="ArialMT-99"/>
       <path d="M 3.328125 25.921875 
Q 3.328125 40.328125 11.328125 47.265625 
Q 18.015625 53.03125 27.640625 53.03125 
Q 38.328125 53.03125 45.109375 46.015625 
Q 51.90625 39.015625 51.90625 26.65625 
Q 51.90625 16.65625 48.90625 10.90625 
Q 45.90625 5.171875 40.15625 2 
Q 34.421875 -1.171875 27.640625 -1.171875 
Q 16.75 -1.171875 10.03125 5.8125 
Q 3.328125 12.796875 3.328125 25.921875 
z
M 12.359375 25.921875 
Q 12.359375 15.96875 16.703125 11.015625 
Q 21.046875 6.0625 27.640625 6.0625 
Q 34.1875 6.0625 38.53125 11.03125 
Q 42.875 16.015625 42.875 26.21875 
Q 42.875 35.84375 38.5 40.796875 
Q 34.125 45.75 27.640625 45.75 
Q 21.046875 45.75 16.703125 40.8125 
Q 12.359375 35.890625 12.359375 25.921875 
z
" id="ArialMT-111"/>
       <path d="M 6.59375 0 
L 6.59375 51.859375 
L 14.5 51.859375 
L 14.5 44.484375 
Q 20.21875 53.03125 31 53.03125 
Q 35.6875 53.03125 39.625 51.34375 
Q 43.5625 49.65625 45.515625 46.921875 
Q 47.46875 44.1875 48.25 40.4375 
Q 48.734375 37.984375 48.734375 31.890625 
L 48.734375 0 
L 39.9375 0 
L 39.9375 31.546875 
Q 39.9375 36.921875 38.90625 39.578125 
Q 37.890625 42.234375 35.28125 43.8125 
Q 32.671875 45.40625 29.15625 45.40625 
Q 23.53125 45.40625 19.453125 41.84375 
Q 15.375 38.28125 15.375 28.328125 
L 15.375 0 
z
" id="ArialMT-110"/>
       <path d="M 40.234375 0 
L 40.234375 6.546875 
Q 35.296875 -1.171875 25.734375 -1.171875 
Q 19.53125 -1.171875 14.328125 2.25 
Q 9.125 5.671875 6.265625 11.796875 
Q 3.421875 17.921875 3.421875 25.875 
Q 3.421875 33.640625 6 39.96875 
Q 8.59375 46.296875 13.765625 49.65625 
Q 18.953125 53.03125 25.34375 53.03125 
Q 30.03125 53.03125 33.6875 51.046875 
Q 37.359375 49.078125 39.65625 45.90625 
L 39.65625 71.578125 
L 48.390625 71.578125 
L 48.390625 0 
z
M 12.453125 25.875 
Q 12.453125 15.921875 16.640625 10.984375 
Q 20.84375 6.0625 26.5625 6.0625 
Q 32.328125 6.0625 36.34375 10.765625 
Q 40.375 15.484375 40.375 25.140625 
Q 40.375 35.796875 36.265625 40.765625 
Q 32.171875 45.75 26.171875 45.75 
Q 20.3125 45.75 16.375 40.96875 
Q 12.453125 36.1875 12.453125 25.875 
z
" id="ArialMT-100"/>
      </defs>
      <g style="fill:#262626;" transform="translate(257.894531 403.247187)scale(0.22 -0.22)">
       <use xlink:href="#ArialMT-83"/>
       <use x="66.699219" xlink:href="#ArialMT-101"/>
       <use x="122.314453" xlink:href="#ArialMT-99"/>
       <use x="172.314453" xlink:href="#ArialMT-111"/>
       <use x="227.929688" xlink:href="#ArialMT-110"/>
       <use x="283.544922" xlink:href="#ArialMT-100"/>
      </g>
     </g>
    </g>
    <g id="xtick_3">
     <g id="line2d_3">
      <path clip-path="url(#p1418fb2dc2)" d="M 457.527273 378 
L 457.527273 51.84 
" style="fill:none;stroke:#ffffff;stroke-linecap:round;"/>
     </g>
     <g id="text_3">
      <!-- Third -->
      <defs>
       <path d="M 25.921875 0 
L 25.921875 63.140625 
L 2.34375 63.140625 
L 2.34375 71.578125 
L 59.078125 71.578125 
L 59.078125 63.140625 
L 35.40625 63.140625 
L 35.40625 0 
z
" id="ArialMT-84"/>
       <path d="M 6.59375 0 
L 6.59375 71.578125 
L 15.375 71.578125 
L 15.375 45.90625 
Q 21.53125 53.03125 30.90625 53.03125 
Q 36.671875 53.03125 40.921875 50.75 
Q 45.171875 48.484375 47 44.484375 
Q 48.828125 40.484375 48.828125 32.859375 
L 48.828125 0 
L 40.046875 0 
L 40.046875 32.859375 
Q 40.046875 39.453125 37.1875 42.453125 
Q 34.328125 45.453125 29.109375 45.453125 
Q 25.203125 45.453125 21.75 43.421875 
Q 18.3125 41.40625 16.84375 37.9375 
Q 15.375 34.46875 15.375 28.375 
L 15.375 0 
z
" id="ArialMT-104"/>
      </defs>
      <g style="fill:#262626;" transform="translate(432.467898 403.247187)scale(0.22 -0.22)">
       <use xlink:href="#ArialMT-84"/>
       <use x="61.083984" xlink:href="#ArialMT-104"/>
       <use x="116.699219" xlink:href="#ArialMT-105"/>
       <use x="138.916016" xlink:href="#ArialMT-114"/>
       <use x="172.216797" xlink:href="#ArialMT-100"/>
      </g>
     </g>
    </g>
    <g id="text_4">
     <!-- RNN Layers -->
     <defs>
      <path d="M 7.859375 0 
L 7.859375 71.578125 
L 39.59375 71.578125 
Q 49.171875 71.578125 54.140625 69.640625 
Q 59.125 67.71875 62.109375 62.828125 
Q 65.09375 57.953125 65.09375 52.046875 
Q 65.09375 44.4375 60.15625 39.203125 
Q 55.21875 33.984375 44.921875 32.5625 
Q 48.6875 30.765625 50.640625 29 
Q 54.78125 25.203125 58.5 19.484375 
L 70.953125 0 
L 59.03125 0 
L 49.5625 14.890625 
Q 45.40625 21.34375 42.71875 24.75 
Q 40.046875 28.171875 37.921875 29.53125 
Q 35.796875 30.90625 33.59375 31.453125 
Q 31.984375 31.78125 28.328125 31.78125 
L 17.328125 31.78125 
L 17.328125 0 
z
M 17.328125 39.984375 
L 37.703125 39.984375 
Q 44.1875 39.984375 47.84375 41.328125 
Q 51.515625 42.671875 53.421875 45.625 
Q 55.328125 48.578125 55.328125 52.046875 
Q 55.328125 57.125 51.640625 60.390625 
Q 47.953125 63.671875 39.984375 63.671875 
L 17.328125 63.671875 
z
" id="ArialMT-82"/>
      <path d="M 7.625 0 
L 7.625 71.578125 
L 17.328125 71.578125 
L 54.9375 15.375 
L 54.9375 71.578125 
L 64.015625 71.578125 
L 64.015625 0 
L 54.296875 0 
L 16.703125 56.25 
L 16.703125 0 
z
" id="ArialMT-78"/>
      <path id="ArialMT-32"/>
      <path d="M 7.328125 0 
L 7.328125 71.578125 
L 16.796875 71.578125 
L 16.796875 8.453125 
L 52.046875 8.453125 
L 52.046875 0 
z
" id="ArialMT-76"/>
      <path d="M 40.4375 6.390625 
Q 35.546875 2.25 31.03125 0.53125 
Q 26.515625 -1.171875 21.34375 -1.171875 
Q 12.796875 -1.171875 8.203125 3 
Q 3.609375 7.171875 3.609375 13.671875 
Q 3.609375 17.484375 5.34375 20.625 
Q 7.078125 23.78125 9.890625 25.6875 
Q 12.703125 27.59375 16.21875 28.5625 
Q 18.796875 29.25 24.03125 29.890625 
Q 34.671875 31.15625 39.703125 32.90625 
Q 39.75 34.71875 39.75 35.203125 
Q 39.75 40.578125 37.25 42.78125 
Q 33.890625 45.75 27.25 45.75 
Q 21.046875 45.75 18.09375 43.578125 
Q 15.140625 41.40625 13.71875 35.890625 
L 5.125 37.0625 
Q 6.296875 42.578125 8.984375 45.96875 
Q 11.671875 49.359375 16.75 51.1875 
Q 21.828125 53.03125 28.515625 53.03125 
Q 35.15625 53.03125 39.296875 51.46875 
Q 43.453125 49.90625 45.40625 47.53125 
Q 47.359375 45.171875 48.140625 41.546875 
Q 48.578125 39.3125 48.578125 33.453125 
L 48.578125 21.734375 
Q 48.578125 9.46875 49.140625 6.21875 
Q 49.703125 2.984375 51.375 0 
L 42.1875 0 
Q 40.828125 2.734375 40.4375 6.390625 
z
M 39.703125 26.03125 
Q 34.90625 24.078125 25.34375 22.703125 
Q 19.921875 21.921875 17.671875 20.9375 
Q 15.4375 19.96875 14.203125 18.09375 
Q 12.984375 16.21875 12.984375 13.921875 
Q 12.984375 10.40625 15.640625 8.0625 
Q 18.3125 5.71875 23.4375 5.71875 
Q 28.515625 5.71875 32.46875 7.9375 
Q 36.421875 10.15625 38.28125 14.015625 
Q 39.703125 17 39.703125 22.796875 
z
" id="ArialMT-97"/>
      <path d="M 6.203125 -19.96875 
L 5.21875 -11.71875 
Q 8.109375 -12.5 10.25 -12.5 
Q 13.1875 -12.5 14.9375 -11.515625 
Q 16.703125 -10.546875 17.828125 -8.796875 
Q 18.65625 -7.46875 20.515625 -2.25 
Q 20.75 -1.515625 21.296875 -0.09375 
L 1.609375 51.859375 
L 11.078125 51.859375 
L 21.875 21.828125 
Q 23.96875 16.109375 25.640625 9.8125 
Q 27.15625 15.875 29.25 21.625 
L 40.328125 51.859375 
L 49.125 51.859375 
L 29.390625 -0.875 
Q 26.21875 -9.421875 24.46875 -12.640625 
Q 22.125 -17 19.09375 -19.015625 
Q 16.0625 -21.046875 11.859375 -21.046875 
Q 9.328125 -21.046875 6.203125 -19.96875 
z
" id="ArialMT-121"/>
     </defs>
     <g style="fill:#262626;" transform="translate(229.8525 428.798437)scale(0.24 -0.24)">
      <use xlink:href="#ArialMT-82"/>
      <use x="72.216797" xlink:href="#ArialMT-78"/>
      <use x="144.433594" xlink:href="#ArialMT-78"/>
      <use x="216.650391" xlink:href="#ArialMT-32"/>
      <use x="244.433594" xlink:href="#ArialMT-76"/>
      <use x="300.048828" xlink:href="#ArialMT-97"/>
      <use x="355.664062" xlink:href="#ArialMT-121"/>
      <use x="405.664062" xlink:href="#ArialMT-101"/>
      <use x="461.279297" xlink:href="#ArialMT-114"/>
      <use x="494.580078" xlink:href="#ArialMT-115"/>
     </g>
    </g>
   </g>
   <g id="matplotlib.axis_2">
    <g id="ytick_1">
     <g id="line2d_4">
      <path clip-path="url(#p1418fb2dc2)" d="M 72 375.529091 
L 518.4 375.529091 
" style="fill:none;stroke:#ffffff;stroke-linecap:round;"/>
     </g>
     <g id="text_5">
      <!-- 0.00 -->
      <defs>
       <path d="M 4.15625 35.296875 
Q 4.15625 48 6.765625 55.734375 
Q 9.375 63.484375 14.515625 67.671875 
Q 19.671875 71.875 27.484375 71.875 
Q 33.25 71.875 37.59375 69.546875 
Q 41.9375 67.234375 44.765625 62.859375 
Q 47.609375 58.5 49.21875 52.21875 
Q 50.828125 45.953125 50.828125 35.296875 
Q 50.828125 22.703125 48.234375 14.96875 
Q 45.65625 7.234375 40.5 3 
Q 35.359375 -1.21875 27.484375 -1.21875 
Q 17.140625 -1.21875 11.234375 6.203125 
Q 4.15625 15.140625 4.15625 35.296875 
z
M 13.1875 35.296875 
Q 13.1875 17.671875 17.3125 11.828125 
Q 21.4375 6 27.484375 6 
Q 33.546875 6 37.671875 11.859375 
Q 41.796875 17.71875 41.796875 35.296875 
Q 41.796875 52.984375 37.671875 58.78125 
Q 33.546875 64.59375 27.390625 64.59375 
Q 21.34375 64.59375 17.71875 59.46875 
Q 13.1875 52.9375 13.1875 35.296875 
z
" id="ArialMT-48"/>
       <path d="M 9.078125 0 
L 9.078125 10.015625 
L 19.09375 10.015625 
L 19.09375 0 
z
" id="ArialMT-46"/>
      </defs>
      <g style="fill:#262626;" transform="translate(19.685938 383.402685)scale(0.22 -0.22)">
       <use xlink:href="#ArialMT-48"/>
       <use x="55.615234" xlink:href="#ArialMT-46"/>
       <use x="83.398438" xlink:href="#ArialMT-48"/>
       <use x="139.013672" xlink:href="#ArialMT-48"/>
      </g>
     </g>
    </g>
    <g id="ytick_2">
     <g id="line2d_5">
      <path clip-path="url(#p1418fb2dc2)" d="M 72 313.756364 
L 518.4 313.756364 
" style="fill:none;stroke:#ffffff;stroke-linecap:round;"/>
     </g>
     <g id="text_6">
      <!-- 0.05 -->
      <defs>
       <path d="M 4.15625 18.75 
L 13.375 19.53125 
Q 14.40625 12.796875 18.140625 9.390625 
Q 21.875 6 27.15625 6 
Q 33.5 6 37.890625 10.78125 
Q 42.28125 15.578125 42.28125 23.484375 
Q 42.28125 31 38.0625 35.34375 
Q 33.84375 39.703125 27 39.703125 
Q 22.75 39.703125 19.328125 37.765625 
Q 15.921875 35.84375 13.96875 32.765625 
L 5.71875 33.84375 
L 12.640625 70.609375 
L 48.25 70.609375 
L 48.25 62.203125 
L 19.671875 62.203125 
L 15.828125 42.96875 
Q 22.265625 47.46875 29.34375 47.46875 
Q 38.71875 47.46875 45.15625 40.96875 
Q 51.609375 34.46875 51.609375 24.265625 
Q 51.609375 14.546875 45.953125 7.46875 
Q 39.0625 -1.21875 27.15625 -1.21875 
Q 17.390625 -1.21875 11.203125 4.25 
Q 5.03125 9.71875 4.15625 18.75 
z
" id="ArialMT-53"/>
      </defs>
      <g style="fill:#262626;" transform="translate(19.685938 321.629957)scale(0.22 -0.22)">
       <use xlink:href="#ArialMT-48"/>
       <use x="55.615234" xlink:href="#ArialMT-46"/>
       <use x="83.398438" xlink:href="#ArialMT-48"/>
       <use x="139.013672" xlink:href="#ArialMT-53"/>
      </g>
     </g>
    </g>
    <g id="ytick_3">
     <g id="line2d_6">
      <path clip-path="url(#p1418fb2dc2)" d="M 72 251.983636 
L 518.4 251.983636 
" style="fill:none;stroke:#ffffff;stroke-linecap:round;"/>
     </g>
     <g id="text_7">
      <!-- 0.10 -->
      <defs>
       <path d="M 37.25 0 
L 28.46875 0 
L 28.46875 56 
Q 25.296875 52.984375 20.140625 49.953125 
Q 14.984375 46.921875 10.890625 45.40625 
L 10.890625 53.90625 
Q 18.265625 57.375 23.78125 62.296875 
Q 29.296875 67.234375 31.59375 71.875 
L 37.25 71.875 
z
" id="ArialMT-49"/>
      </defs>
      <g style="fill:#262626;" transform="translate(19.685938 259.85723)scale(0.22 -0.22)">
       <use xlink:href="#ArialMT-48"/>
       <use x="55.615234" xlink:href="#ArialMT-46"/>
       <use x="83.398438" xlink:href="#ArialMT-49"/>
       <use x="139.013672" xlink:href="#ArialMT-48"/>
      </g>
     </g>
    </g>
    <g id="ytick_4">
     <g id="line2d_7">
      <path clip-path="url(#p1418fb2dc2)" d="M 72 190.210909 
L 518.4 190.210909 
" style="fill:none;stroke:#ffffff;stroke-linecap:round;"/>
     </g>
     <g id="text_8">
      <!-- 0.15 -->
      <g style="fill:#262626;" transform="translate(19.685938 198.084503)scale(0.22 -0.22)">
       <use xlink:href="#ArialMT-48"/>
       <use x="55.615234" xlink:href="#ArialMT-46"/>
       <use x="83.398438" xlink:href="#ArialMT-49"/>
       <use x="139.013672" xlink:href="#ArialMT-53"/>
      </g>
     </g>
    </g>
    <g id="ytick_5">
     <g id="line2d_8">
      <path clip-path="url(#p1418fb2dc2)" d="M 72 128.438182 
L 518.4 128.438182 
" style="fill:none;stroke:#ffffff;stroke-linecap:round;"/>
     </g>
     <g id="text_9">
      <!-- 0.20 -->
      <defs>
       <path d="M 50.34375 8.453125 
L 50.34375 0 
L 3.03125 0 
Q 2.9375 3.171875 4.046875 6.109375 
Q 5.859375 10.9375 9.828125 15.625 
Q 13.8125 20.3125 21.34375 26.46875 
Q 33.015625 36.03125 37.109375 41.625 
Q 41.21875 47.21875 41.21875 52.203125 
Q 41.21875 57.421875 37.46875 61 
Q 33.734375 64.59375 27.734375 64.59375 
Q 21.390625 64.59375 17.578125 60.78125 
Q 13.765625 56.984375 13.71875 50.25 
L 4.6875 51.171875 
Q 5.609375 61.28125 11.65625 66.578125 
Q 17.71875 71.875 27.9375 71.875 
Q 38.234375 71.875 44.234375 66.15625 
Q 50.25 60.453125 50.25 52 
Q 50.25 47.703125 48.484375 43.546875 
Q 46.734375 39.40625 42.65625 34.8125 
Q 38.578125 30.21875 29.109375 22.21875 
Q 21.1875 15.578125 18.9375 13.203125 
Q 16.703125 10.84375 15.234375 8.453125 
z
" id="ArialMT-50"/>
      </defs>
      <g style="fill:#262626;" transform="translate(19.685938 136.311776)scale(0.22 -0.22)">
       <use xlink:href="#ArialMT-48"/>
       <use x="55.615234" xlink:href="#ArialMT-46"/>
       <use x="83.398438" xlink:href="#ArialMT-50"/>
       <use x="139.013672" xlink:href="#ArialMT-48"/>
      </g>
     </g>
    </g>
    <g id="ytick_6">
     <g id="line2d_9">
      <path clip-path="url(#p1418fb2dc2)" d="M 72 66.665455 
L 518.4 66.665455 
" style="fill:none;stroke:#ffffff;stroke-linecap:round;"/>
     </g>
     <g id="text_10">
      <!-- 0.25 -->
      <g style="fill:#262626;" transform="translate(19.685938 74.539048)scale(0.22 -0.22)">
       <use xlink:href="#ArialMT-48"/>
       <use x="55.615234" xlink:href="#ArialMT-46"/>
       <use x="83.398438" xlink:href="#ArialMT-50"/>
       <use x="139.013672" xlink:href="#ArialMT-53"/>
      </g>
     </g>
    </g>
    <g id="text_11">
     <!-- Recurrent dropout ratio (%) -->
     <defs>
      <path d="M 40.578125 0 
L 40.578125 7.625 
Q 34.515625 -1.171875 24.125 -1.171875 
Q 19.53125 -1.171875 15.546875 0.578125 
Q 11.578125 2.34375 9.640625 5 
Q 7.71875 7.671875 6.9375 11.53125 
Q 6.390625 14.109375 6.390625 19.734375 
L 6.390625 51.859375 
L 15.1875 51.859375 
L 15.1875 23.09375 
Q 15.1875 16.21875 15.71875 13.8125 
Q 16.546875 10.359375 19.234375 8.375 
Q 21.921875 6.390625 25.875 6.390625 
Q 29.828125 6.390625 33.296875 8.421875 
Q 36.765625 10.453125 38.203125 13.9375 
Q 39.65625 17.4375 39.65625 24.078125 
L 39.65625 51.859375 
L 48.4375 51.859375 
L 48.4375 0 
z
" id="ArialMT-117"/>
      <path d="M 6.59375 -19.875 
L 6.59375 51.859375 
L 14.59375 51.859375 
L 14.59375 45.125 
Q 17.4375 49.078125 21 51.046875 
Q 24.5625 53.03125 29.640625 53.03125 
Q 36.28125 53.03125 41.359375 49.609375 
Q 46.4375 46.1875 49.015625 39.953125 
Q 51.609375 33.734375 51.609375 26.3125 
Q 51.609375 18.359375 48.75 11.984375 
Q 45.90625 5.609375 40.453125 2.21875 
Q 35.015625 -1.171875 29 -1.171875 
Q 24.609375 -1.171875 21.109375 0.6875 
Q 17.625 2.546875 15.375 5.375 
L 15.375 -19.875 
z
M 14.546875 25.640625 
Q 14.546875 15.625 18.59375 10.84375 
Q 22.65625 6.0625 28.421875 6.0625 
Q 34.28125 6.0625 38.453125 11.015625 
Q 42.625 15.96875 42.625 26.375 
Q 42.625 36.28125 38.546875 41.203125 
Q 34.46875 46.140625 28.8125 46.140625 
Q 23.1875 46.140625 18.859375 40.890625 
Q 14.546875 35.640625 14.546875 25.640625 
z
" id="ArialMT-112"/>
      <path d="M 23.390625 -21.046875 
Q 16.109375 -11.859375 11.078125 0.4375 
Q 6.0625 12.75 6.0625 25.921875 
Q 6.0625 37.546875 9.8125 48.1875 
Q 14.203125 60.546875 23.390625 72.796875 
L 29.6875 72.796875 
Q 23.78125 62.640625 21.875 58.296875 
Q 18.890625 51.5625 17.1875 44.234375 
Q 15.09375 35.109375 15.09375 25.875 
Q 15.09375 2.390625 29.6875 -21.046875 
z
" id="ArialMT-40"/>
      <path d="M 5.8125 54.390625 
Q 5.8125 62.0625 9.671875 67.421875 
Q 13.53125 72.796875 20.84375 72.796875 
Q 27.59375 72.796875 32 67.984375 
Q 36.421875 63.1875 36.421875 53.859375 
Q 36.421875 44.78125 31.953125 39.875 
Q 27.484375 34.96875 20.953125 34.96875 
Q 14.453125 34.96875 10.125 39.796875 
Q 5.8125 44.625 5.8125 54.390625 
z
M 21.09375 66.75 
Q 17.828125 66.75 15.65625 63.90625 
Q 13.484375 61.078125 13.484375 53.515625 
Q 13.484375 46.625 15.671875 43.8125 
Q 17.875 41.015625 21.09375 41.015625 
Q 24.421875 41.015625 26.59375 43.84375 
Q 28.765625 46.6875 28.765625 54.203125 
Q 28.765625 61.140625 26.5625 63.9375 
Q 24.359375 66.75 21.09375 66.75 
z
M 21.140625 -2.640625 
L 60.296875 72.796875 
L 67.4375 72.796875 
L 28.421875 -2.640625 
z
M 52.09375 16.796875 
Q 52.09375 24.515625 55.953125 29.859375 
Q 59.8125 35.203125 67.1875 35.203125 
Q 73.921875 35.203125 78.34375 30.390625 
Q 82.765625 25.59375 82.765625 16.265625 
Q 82.765625 7.171875 78.296875 2.265625 
Q 73.828125 -2.640625 67.234375 -2.640625 
Q 60.75 -2.640625 56.421875 2.21875 
Q 52.09375 7.078125 52.09375 16.796875 
z
M 67.4375 29.15625 
Q 64.109375 29.15625 61.9375 26.3125 
Q 59.765625 23.484375 59.765625 15.921875 
Q 59.765625 9.078125 61.953125 6.25 
Q 64.15625 3.421875 67.390625 3.421875 
Q 70.75 3.421875 72.921875 6.25 
Q 75.09375 9.078125 75.09375 16.609375 
Q 75.09375 23.53125 72.890625 26.34375 
Q 70.703125 29.15625 67.4375 29.15625 
z
" id="ArialMT-37"/>
      <path d="M 12.359375 -21.046875 
L 6.0625 -21.046875 
Q 20.65625 2.390625 20.65625 25.875 
Q 20.65625 35.0625 18.5625 44.09375 
Q 16.890625 51.421875 13.921875 58.15625 
Q 12.015625 62.546875 6.0625 72.796875 
L 12.359375 72.796875 
Q 21.53125 60.546875 25.921875 48.1875 
Q 29.6875 37.546875 29.6875 25.921875 
Q 29.6875 12.75 24.625 0.4375 
Q 19.578125 -11.859375 12.359375 -21.046875 
z
" id="ArialMT-41"/>
     </defs>
     <g style="fill:#262626;" transform="translate(10.634687 360.30375)rotate(-90)scale(0.24 -0.24)">
      <use xlink:href="#ArialMT-82"/>
      <use x="72.216797" xlink:href="#ArialMT-101"/>
      <use x="127.832031" xlink:href="#ArialMT-99"/>
      <use x="177.832031" xlink:href="#ArialMT-117"/>
      <use x="233.447266" xlink:href="#ArialMT-114"/>
      <use x="266.748047" xlink:href="#ArialMT-114"/>
      <use x="300.048828" xlink:href="#ArialMT-101"/>
      <use x="355.664062" xlink:href="#ArialMT-110"/>
      <use x="411.279297" xlink:href="#ArialMT-116"/>
      <use x="439.0625" xlink:href="#ArialMT-32"/>
      <use x="466.845703" xlink:href="#ArialMT-100"/>
      <use x="522.460938" xlink:href="#ArialMT-114"/>
      <use x="555.761719" xlink:href="#ArialMT-111"/>
      <use x="611.376953" xlink:href="#ArialMT-112"/>
      <use x="666.992188" xlink:href="#ArialMT-111"/>
      <use x="722.607422" xlink:href="#ArialMT-117"/>
      <use x="778.222656" xlink:href="#ArialMT-116"/>
      <use x="806.005859" xlink:href="#ArialMT-32"/>
      <use x="833.789062" xlink:href="#ArialMT-114"/>
      <use x="867.089844" xlink:href="#ArialMT-97"/>
      <use x="922.705078" xlink:href="#ArialMT-116"/>
      <use x="950.488281" xlink:href="#ArialMT-105"/>
      <use x="972.705078" xlink:href="#ArialMT-111"/>
      <use x="1028.320312" xlink:href="#ArialMT-32"/>
      <use x="1056.103516" xlink:href="#ArialMT-40"/>
      <use x="1089.404297" xlink:href="#ArialMT-37"/>
      <use x="1178.320312" xlink:href="#ArialMT-41"/>
     </g>
    </g>
   </g>
   <g id="PolyCollection_1">
    <defs>
     <path d="M 149.593118 -68.825455 
L 116.152337 -68.825455 
L 114.719278 -71.820496 
L 113.318942 -74.815537 
L 111.966987 -77.810579 
L 110.676043 -80.80562 
L 109.455069 -83.800661 
L 108.308964 -86.795702 
L 107.238475 -89.790744 
L 106.240401 -92.785785 
L 105.3081 -95.780826 
L 104.432247 -98.775868 
L 103.601779 -101.770909 
L 102.804961 -104.76595 
L 102.030468 -107.760992 
L 101.268399 -110.756033 
L 100.511134 -113.751074 
L 99.753977 -116.746116 
L 98.995518 -119.741157 
L 98.237716 -122.736198 
L 97.48569 -125.73124 
L 96.747258 -128.726281 
L 96.032285 -131.721322 
L 95.351887 -134.716364 
L 94.717591 -137.711405 
L 94.140506 -140.706446 
L 93.630604 -143.701488 
L 93.19613 -146.696529 
L 92.843214 -149.69157 
L 92.57569 -152.686612 
L 92.395107 -155.681653 
L 92.300935 -158.676694 
L 92.290909 -161.671736 
L 92.36147 -164.666777 
L 92.508244 -167.661818 
L 92.726514 -170.65686 
L 93.011638 -173.651901 
L 93.35936 -176.646942 
L 93.766027 -179.641983 
L 94.228665 -182.637025 
L 94.744957 -185.632066 
L 95.313114 -188.627107 
L 95.93168 -191.622149 
L 96.599307 -194.61719 
L 97.314505 -197.612231 
L 98.075422 -200.607273 
L 98.879653 -203.602314 
L 99.724094 -206.597355 
L 100.604849 -209.592397 
L 101.517186 -212.587438 
L 102.455525 -215.582479 
L 103.41348 -218.577521 
L 104.383909 -221.572562 
L 105.359014 -224.567603 
L 106.330451 -227.562645 
L 107.289477 -230.557686 
L 108.227132 -233.552727 
L 109.134445 -236.547769 
L 110.002675 -239.54281 
L 110.823572 -242.537851 
L 111.589643 -245.532893 
L 112.294403 -248.527934 
L 112.932599 -251.522975 
L 113.500369 -254.518017 
L 113.995332 -257.513058 
L 114.416594 -260.508099 
L 114.76466 -263.50314 
L 115.041275 -266.498182 
L 115.249195 -269.493223 
L 115.391933 -272.488264 
L 115.473502 -275.483306 
L 115.498186 -278.478347 
L 115.470371 -281.473388 
L 115.394463 -284.46843 
L 115.274888 -287.463471 
L 115.116186 -290.458512 
L 114.923166 -293.453554 
L 114.701117 -296.448595 
L 114.456024 -299.443636 
L 114.194762 -302.438678 
L 113.925234 -305.433719 
L 113.65642 -308.42876 
L 113.398337 -311.423802 
L 113.161877 -314.418843 
L 112.958557 -317.413884 
L 112.800169 -320.408926 
L 112.69838 -323.403967 
L 112.664284 -326.399008 
L 112.707955 -329.39405 
L 112.83802 -332.389091 
L 113.061274 -335.384132 
L 113.382366 -338.379174 
L 113.803559 -341.374215 
L 114.324588 -344.369256 
L 114.942603 -347.364298 
L 115.652217 -350.359339 
L 116.445639 -353.35438 
L 117.312908 -356.349421 
L 118.242192 -359.344463 
L 119.220176 -362.339504 
L 120.232489 -365.334545 
L 145.512965 -365.334545 
L 145.512965 -365.334545 
L 146.525279 -362.339504 
L 147.503263 -359.344463 
L 148.432547 -356.349421 
L 149.299815 -353.35438 
L 150.093238 -350.359339 
L 150.802851 -347.364298 
L 151.420867 -344.369256 
L 151.941896 -341.374215 
L 152.363089 -338.379174 
L 152.68418 -335.384132 
L 152.907434 -332.389091 
L 153.037499 -329.39405 
L 153.081171 -326.399008 
L 153.047074 -323.403967 
L 152.945285 -320.408926 
L 152.786898 -317.413884 
L 152.583577 -314.418843 
L 152.347118 -311.423802 
L 152.089035 -308.42876 
L 151.820221 -305.433719 
L 151.550692 -302.438678 
L 151.289431 -299.443636 
L 151.044338 -296.448595 
L 150.822289 -293.453554 
L 150.629269 -290.458512 
L 150.470566 -287.463471 
L 150.350992 -284.46843 
L 150.275084 -281.473388 
L 150.247269 -278.478347 
L 150.271952 -275.483306 
L 150.353522 -272.488264 
L 150.49626 -269.493223 
L 150.70418 -266.498182 
L 150.980794 -263.50314 
L 151.328861 -260.508099 
L 151.750123 -257.513058 
L 152.245086 -254.518017 
L 152.812855 -251.522975 
L 153.451051 -248.527934 
L 154.155811 -245.532893 
L 154.921882 -242.537851 
L 155.74278 -239.54281 
L 156.61101 -236.547769 
L 157.518322 -233.552727 
L 158.455977 -230.557686 
L 159.415004 -227.562645 
L 160.38644 -224.567603 
L 161.361545 -221.572562 
L 162.331975 -218.577521 
L 163.289929 -215.582479 
L 164.228269 -212.587438 
L 165.140605 -209.592397 
L 166.021361 -206.597355 
L 166.865802 -203.602314 
L 167.670032 -200.607273 
L 168.430949 -197.612231 
L 169.146147 -194.61719 
L 169.813774 -191.622149 
L 170.432341 -188.627107 
L 171.000497 -185.632066 
L 171.516789 -182.637025 
L 171.979428 -179.641983 
L 172.386094 -176.646942 
L 172.733817 -173.651901 
L 173.01894 -170.65686 
L 173.237211 -167.661818 
L 173.383985 -164.666777 
L 173.454545 -161.671736 
L 173.44452 -158.676694 
L 173.350348 -155.681653 
L 173.169765 -152.686612 
L 172.90224 -149.69157 
L 172.549325 -146.696529 
L 172.11485 -143.701488 
L 171.604948 -140.706446 
L 171.027864 -137.711405 
L 170.393567 -134.716364 
L 169.71317 -131.721322 
L 168.998197 -128.726281 
L 168.259765 -125.73124 
L 167.507738 -122.736198 
L 166.749936 -119.741157 
L 165.991478 -116.746116 
L 165.23432 -113.751074 
L 164.477056 -110.756033 
L 163.714986 -107.760992 
L 162.940494 -104.76595 
L 162.143676 -101.770909 
L 161.313208 -98.775868 
L 160.437354 -95.780826 
L 159.505054 -92.785785 
L 158.50698 -89.790744 
L 157.43649 -86.795702 
L 156.290386 -83.800661 
L 155.069411 -80.80562 
L 153.778467 -77.810579 
L 152.426513 -74.815537 
L 151.026177 -71.820496 
L 149.593118 -68.825455 
z
" id="m94734d950b" style="stroke:#ffffff;stroke-opacity:0.3;"/>
    </defs>
    <g clip-path="url(#p1418fb2dc2)">
     <use style="fill:#4c72b0;fill-opacity:0.3;stroke:#ffffff;stroke-opacity:0.3;" x="0" xlink:href="#m94734d950b" y="432"/>
    </g>
   </g>
   <g id="PolyCollection_2">
    <defs>
     <path d="M 318.182038 -69.352318 
L 272.217962 -69.352318 
L 271.240923 -72.342037 
L 270.387948 -75.331757 
L 269.666746 -78.321476 
L 269.081189 -81.311196 
L 268.631283 -84.300915 
L 268.313323 -87.290635 
L 268.12021 -90.280354 
L 268.041921 -93.270074 
L 268.066073 -96.259793 
L 268.178575 -99.249513 
L 268.364301 -102.239232 
L 268.607755 -105.228952 
L 268.893691 -108.218671 
L 269.207662 -111.208391 
L 269.536465 -114.19811 
L 269.868477 -117.18783 
L 270.193877 -120.177549 
L 270.504749 -123.167268 
L 270.795079 -126.156988 
L 271.060659 -129.146707 
L 271.298913 -132.136427 
L 271.508663 -135.126146 
L 271.689852 -138.115866 
L 271.84324 -141.105585 
L 271.970086 -144.095305 
L 272.071841 -147.085024 
L 272.149837 -150.074744 
L 272.205019 -153.064463 
L 272.237693 -156.054183 
L 272.247329 -159.043902 
L 272.232401 -162.033622 
L 272.190302 -165.023341 
L 272.117312 -168.01306 
L 272.008647 -171.00278 
L 271.858583 -173.992499 
L 271.660663 -176.982219 
L 271.407978 -179.971938 
L 271.093516 -182.961658 
L 270.710582 -185.951377 
L 270.253241 -188.941097 
L 269.716802 -191.930816 
L 269.098277 -194.920536 
L 268.396823 -197.910255 
L 267.614112 -200.899975 
L 266.754615 -203.889694 
L 265.825774 -206.879414 
L 264.838035 -209.869133 
L 263.804741 -212.858853 
L 262.741874 -215.848572 
L 261.667652 -218.838291 
L 260.601997 -221.828011 
L 259.56589 -224.81773 
L 258.580657 -227.80745 
L 257.6672 -230.797169 
L 256.845225 -233.786889 
L 256.132507 -236.776608 
L 255.544206 -239.766328 
L 255.092294 -242.756047 
L 254.785098 -245.745767 
L 254.626981 -248.735486 
L 254.618182 -251.725206 
L 254.754797 -254.714925 
L 255.028925 -257.704645 
L 255.428936 -260.694364 
L 255.93988 -263.684084 
L 256.543989 -266.673803 
L 257.221274 -269.663522 
L 257.950179 -272.653242 
L 258.708283 -275.642961 
L 259.473021 -278.632681 
L 260.222407 -281.6224 
L 260.935735 -284.61212 
L 261.594243 -287.601839 
L 262.181726 -290.591559 
L 262.685067 -293.581278 
L 263.094683 -296.570998 
L 263.404873 -299.560717 
L 263.614038 -302.550437 
L 263.724784 -305.540156 
L 263.743891 -308.529876 
L 263.682136 -311.519595 
L 263.55399 -314.509314 
L 263.377175 -317.499034 
L 263.172097 -320.488753 
L 262.96118 -323.478473 
L 262.768105 -326.468192 
L 262.616986 -329.457912 
L 262.531515 -332.447631 
L 262.534103 -335.437351 
L 262.645053 -338.42707 
L 262.881802 -341.41679 
L 263.258256 -344.406509 
L 263.784265 -347.396229 
L 264.465241 -350.385948 
L 265.301959 -353.375668 
L 266.290537 -356.365387 
L 267.422605 -359.355107 
L 268.685643 -362.344826 
L 270.063495 -365.334545 
L 320.336505 -365.334545 
L 320.336505 -365.334545 
L 321.714357 -362.344826 
L 322.977395 -359.355107 
L 324.109463 -356.365387 
L 325.098041 -353.375668 
L 325.934759 -350.385948 
L 326.615735 -347.396229 
L 327.141744 -344.406509 
L 327.518198 -341.41679 
L 327.754947 -338.42707 
L 327.865897 -335.437351 
L 327.868485 -332.447631 
L 327.783014 -329.457912 
L 327.631895 -326.468192 
L 327.43882 -323.478473 
L 327.227903 -320.488753 
L 327.022825 -317.499034 
L 326.84601 -314.509314 
L 326.717864 -311.519595 
L 326.656109 -308.529876 
L 326.675216 -305.540156 
L 326.785962 -302.550437 
L 326.995127 -299.560717 
L 327.305317 -296.570998 
L 327.714933 -293.581278 
L 328.218274 -290.591559 
L 328.805757 -287.601839 
L 329.464265 -284.61212 
L 330.177593 -281.6224 
L 330.926979 -278.632681 
L 331.691717 -275.642961 
L 332.449821 -272.653242 
L 333.178726 -269.663522 
L 333.856011 -266.673803 
L 334.46012 -263.684084 
L 334.971064 -260.694364 
L 335.371075 -257.704645 
L 335.645203 -254.714925 
L 335.781818 -251.725206 
L 335.773019 -248.735486 
L 335.614902 -245.745767 
L 335.307706 -242.756047 
L 334.855794 -239.766328 
L 334.267493 -236.776608 
L 333.554775 -233.786889 
L 332.7328 -230.797169 
L 331.819343 -227.80745 
L 330.83411 -224.81773 
L 329.798003 -221.828011 
L 328.732348 -218.838291 
L 327.658126 -215.848572 
L 326.595259 -212.858853 
L 325.561965 -209.869133 
L 324.574226 -206.879414 
L 323.645385 -203.889694 
L 322.785888 -200.899975 
L 322.003177 -197.910255 
L 321.301723 -194.920536 
L 320.683198 -191.930816 
L 320.146759 -188.941097 
L 319.689418 -185.951377 
L 319.306484 -182.961658 
L 318.992022 -179.971938 
L 318.739337 -176.982219 
L 318.541417 -173.992499 
L 318.391353 -171.00278 
L 318.282688 -168.01306 
L 318.209698 -165.023341 
L 318.167599 -162.033622 
L 318.152671 -159.043902 
L 318.162307 -156.054183 
L 318.194981 -153.064463 
L 318.250163 -150.074744 
L 318.328159 -147.085024 
L 318.429914 -144.095305 
L 318.55676 -141.105585 
L 318.710148 -138.115866 
L 318.891337 -135.126146 
L 319.101087 -132.136427 
L 319.339341 -129.146707 
L 319.604921 -126.156988 
L 319.895251 -123.167268 
L 320.206123 -120.177549 
L 320.531523 -117.18783 
L 320.863535 -114.19811 
L 321.192338 -111.208391 
L 321.506309 -108.218671 
L 321.792245 -105.228952 
L 322.035699 -102.239232 
L 322.221425 -99.249513 
L 322.333927 -96.259793 
L 322.358079 -93.270074 
L 322.27979 -90.280354 
L 322.086677 -87.290635 
L 321.768717 -84.300915 
L 321.318811 -81.311196 
L 320.733254 -78.321476 
L 320.012052 -75.331757 
L 319.159077 -72.342037 
L 318.182038 -69.352318 
z
" id="m71198ce4cd" style="stroke:#ffffff;stroke-opacity:0.3;"/>
    </defs>
    <g clip-path="url(#p1418fb2dc2)">
     <use style="fill:#4c72b0;fill-opacity:0.3;stroke:#ffffff;stroke-opacity:0.3;" x="0" xlink:href="#m71198ce4cd" y="432"/>
    </g>
   </g>
   <g id="PolyCollection_3">
    <defs>
     <path d="M 475.464923 -69.194337 
L 439.589623 -69.194337 
L 437.689572 -72.155498 
L 435.773529 -75.116659 
L 433.872156 -78.07782 
L 432.017573 -81.038981 
L 430.242083 -84.000142 
L 428.576774 -86.961303 
L 427.050071 -89.922465 
L 425.686341 -92.883626 
L 424.504648 -95.844787 
L 423.517756 -98.805948 
L 422.73146 -101.767109 
L 422.144304 -104.72827 
L 421.747718 -107.689431 
L 421.526585 -110.650593 
L 421.46018 -113.611754 
L 421.52343 -116.572915 
L 421.688394 -119.534076 
L 421.925862 -122.495237 
L 422.206932 -125.456398 
L 422.504481 -128.417559 
L 422.794403 -131.378721 
L 423.056556 -134.339882 
L 423.275367 -137.301043 
L 423.440064 -140.262204 
L 423.544577 -143.223365 
L 423.58713 -146.184526 
L 423.569586 -149.145687 
L 423.496648 -152.106849 
L 423.374956 -155.06801 
L 423.21221 -158.029171 
L 423.016342 -160.990332 
L 422.794832 -163.951493 
L 422.554184 -166.912654 
L 422.2996 -169.873815 
L 422.03484 -172.834977 
L 421.762267 -175.796138 
L 421.483044 -178.757299 
L 421.197456 -181.71846 
L 420.905289 -184.679621 
L 420.606252 -187.640782 
L 420.300369 -190.601943 
L 419.988315 -193.563105 
L 419.671652 -196.524266 
L 419.352954 -199.485427 
L 419.035799 -202.446588 
L 418.724635 -205.407749 
L 418.424538 -208.36891 
L 418.140894 -211.330071 
L 417.879022 -214.291233 
L 417.643809 -217.252394 
L 417.439372 -220.213555 
L 417.268798 -223.174716 
L 417.133991 -226.135877 
L 417.03563 -229.097038 
L 416.973255 -232.058199 
L 416.945455 -235.019361 
L 416.950144 -237.980522 
L 416.984882 -240.941683 
L 417.047209 -243.902844 
L 417.13494 -246.864005 
L 417.246415 -249.825166 
L 417.380637 -252.786327 
L 417.537326 -255.747489 
L 417.716856 -258.70865 
L 417.920105 -261.669811 
L 418.148229 -264.630972 
L 418.402391 -267.592133 
L 418.683483 -270.553294 
L 418.991855 -273.514455 
L 419.3271 -276.475617 
L 419.687906 -279.436778 
L 420.071988 -282.397939 
L 420.476114 -285.3591 
L 420.896215 -288.320261 
L 421.327585 -291.281422 
L 421.765139 -294.242583 
L 422.203735 -297.203744 
L 422.638525 -300.164906 
L 423.065322 -303.126067 
L 423.480967 -306.087228 
L 423.883672 -309.048389 
L 424.273321 -312.00955 
L 424.651706 -314.970711 
L 425.022689 -317.931872 
L 425.392257 -320.893034 
L 425.768462 -323.854195 
L 426.161238 -326.815356 
L 426.582074 -329.776517 
L 427.043566 -332.737678 
L 427.55883 -335.698839 
L 428.140836 -338.66 
L 428.801659 -341.621162 
L 429.551719 -344.582323 
L 430.399043 -347.543484 
L 431.348617 -350.504645 
L 432.401861 -353.465806 
L 433.556295 -356.426967 
L 434.805416 -359.388128 
L 436.1388 -362.34929 
L 478.915746 -362.34929 
L 478.915746 -362.34929 
L 480.24913 -359.388128 
L 481.49825 -356.426967 
L 482.652685 -353.465806 
L 483.705929 -350.504645 
L 484.655502 -347.543484 
L 485.502827 -344.582323 
L 486.252886 -341.621162 
L 486.913709 -338.66 
L 487.495715 -335.698839 
L 488.01098 -332.737678 
L 488.472471 -329.776517 
L 488.893308 -326.815356 
L 489.286083 -323.854195 
L 489.662289 -320.893034 
L 490.031856 -317.931872 
L 490.402839 -314.970711 
L 490.781225 -312.00955 
L 491.170873 -309.048389 
L 491.573578 -306.087228 
L 491.989223 -303.126067 
L 492.41602 -300.164906 
L 492.85081 -297.203744 
L 493.289407 -294.242583 
L 493.726961 -291.281422 
L 494.15833 -288.320261 
L 494.578432 -285.3591 
L 494.982557 -282.397939 
L 495.36664 -279.436778 
L 495.727446 -276.475617 
L 496.062691 -273.514455 
L 496.371062 -270.553294 
L 496.652154 -267.592133 
L 496.906317 -264.630972 
L 497.13444 -261.669811 
L 497.337689 -258.70865 
L 497.517219 -255.747489 
L 497.673908 -252.786327 
L 497.80813 -249.825166 
L 497.919605 -246.864005 
L 498.007337 -243.902844 
L 498.069663 -240.941683 
L 498.104402 -237.980522 
L 498.109091 -235.019361 
L 498.081291 -232.058199 
L 498.018915 -229.097038 
L 497.920554 -226.135877 
L 497.785747 -223.174716 
L 497.615173 -220.213555 
L 497.410736 -217.252394 
L 497.175523 -214.291233 
L 496.913652 -211.330071 
L 496.630007 -208.36891 
L 496.329911 -205.407749 
L 496.018746 -202.446588 
L 495.701591 -199.485427 
L 495.382893 -196.524266 
L 495.066231 -193.563105 
L 494.754176 -190.601943 
L 494.448294 -187.640782 
L 494.149257 -184.679621 
L 493.85709 -181.71846 
L 493.571501 -178.757299 
L 493.292279 -175.796138 
L 493.019705 -172.834977 
L 492.754945 -169.873815 
L 492.500361 -166.912654 
L 492.259714 -163.951493 
L 492.038203 -160.990332 
L 491.842335 -158.029171 
L 491.679589 -155.06801 
L 491.557898 -152.106849 
L 491.484959 -149.145687 
L 491.467416 -146.184526 
L 491.509968 -143.223365 
L 491.614482 -140.262204 
L 491.779179 -137.301043 
L 491.997989 -134.339882 
L 492.260143 -131.378721 
L 492.550064 -128.417559 
L 492.847613 -125.456398 
L 493.128683 -122.495237 
L 493.366151 -119.534076 
L 493.531116 -116.572915 
L 493.594365 -113.611754 
L 493.52796 -110.650593 
L 493.306827 -107.689431 
L 492.910242 -104.72827 
L 492.323085 -101.767109 
L 491.536789 -98.805948 
L 490.549898 -95.844787 
L 489.368205 -92.883626 
L 488.004474 -89.922465 
L 486.477771 -86.961303 
L 484.812462 -84.000142 
L 483.036973 -81.038981 
L 481.182389 -78.07782 
L 479.281016 -75.116659 
L 477.364974 -72.155498 
L 475.464923 -69.194337 
z
" id="m03dff92dbe" style="stroke:#ffffff;stroke-opacity:0.3;"/>
    </defs>
    <g clip-path="url(#p1418fb2dc2)">
     <use style="fill:#4c72b0;fill-opacity:0.3;stroke:#ffffff;stroke-opacity:0.3;" x="0" xlink:href="#m03dff92dbe" y="432"/>
    </g>
   </g>
   <g id="LineCollection_1">
    <path clip-path="url(#p1418fb2dc2)" d="M 112.581818 66.665455 
L 153.163636 66.665455 
" style="fill:none;stroke:#4c72b0;stroke-width:1.5;"/>
    <path clip-path="url(#p1418fb2dc2)" d="M 274.909091 66.665455 
L 315.490909 66.665455 
" style="fill:none;stroke:#4c72b0;stroke-width:1.5;"/>
    <path clip-path="url(#p1418fb2dc2)" d="M 437.236364 69.65071 
L 477.818182 69.65071 
" style="fill:none;stroke:#4c72b0;stroke-width:1.5;"/>
   </g>
   <g id="LineCollection_2">
    <path clip-path="url(#p1418fb2dc2)" d="M 112.581818 363.174545 
L 153.163636 363.174545 
" style="fill:none;stroke:#4c72b0;stroke-width:1.5;"/>
    <path clip-path="url(#p1418fb2dc2)" d="M 274.909091 362.647682 
L 315.490909 362.647682 
" style="fill:none;stroke:#4c72b0;stroke-width:1.5;"/>
    <path clip-path="url(#p1418fb2dc2)" d="M 437.236364 362.805663 
L 477.818182 362.805663 
" style="fill:none;stroke:#4c72b0;stroke-width:1.5;"/>
   </g>
   <g id="LineCollection_3">
    <path clip-path="url(#p1418fb2dc2)" d="M 132.872727 363.174545 
L 132.872727 66.665455 
" style="fill:none;stroke:#4c72b0;stroke-width:1.5;"/>
    <path clip-path="url(#p1418fb2dc2)" d="M 295.2 362.647682 
L 295.2 66.665455 
" style="fill:none;stroke:#4c72b0;stroke-width:1.5;"/>
    <path clip-path="url(#p1418fb2dc2)" d="M 457.527273 362.805663 
L 457.527273 69.65071 
" style="fill:none;stroke:#4c72b0;stroke-width:1.5;"/>
   </g>
   <g id="LineCollection_4">
    <path clip-path="url(#p1418fb2dc2)" d="M 112.581818 247.823346 
L 153.163636 247.823346 
" style="fill:none;stroke:#4c72b0;stroke-width:1.5;"/>
    <path clip-path="url(#p1418fb2dc2)" d="M 274.909091 192.211115 
L 315.490909 192.211115 
" style="fill:none;stroke:#4c72b0;stroke-width:1.5;"/>
    <path clip-path="url(#p1418fb2dc2)" d="M 437.236364 208.788644 
L 477.818182 208.788644 
" style="fill:none;stroke:#4c72b0;stroke-width:1.5;"/>
   </g>
   <g id="patch_3">
    <path d="M 72 378 
L 72 51.84 
" style="fill:none;stroke:#ffffff;stroke-linecap:square;stroke-linejoin:miter;stroke-width:1.25;"/>
   </g>
   <g id="patch_4">
    <path d="M 518.4 378 
L 518.4 51.84 
" style="fill:none;stroke:#ffffff;stroke-linecap:square;stroke-linejoin:miter;stroke-width:1.25;"/>
   </g>
   <g id="patch_5">
    <path d="M 72 378 
L 518.4 378 
" style="fill:none;stroke:#ffffff;stroke-linecap:square;stroke-linejoin:miter;stroke-width:1.25;"/>
   </g>
   <g id="patch_6">
    <path d="M 72 51.84 
L 518.4 51.84 
" style="fill:none;stroke:#ffffff;stroke-linecap:square;stroke-linejoin:miter;stroke-width:1.25;"/>
   </g>
   <g id="text_12">
    <!-- Recurrent dropout ratio: Island DNN (top 307 models) -->
    <defs>
     <path d="M 9.03125 41.84375 
L 9.03125 51.859375 
L 19.046875 51.859375 
L 19.046875 41.84375 
z
M 9.03125 0 
L 9.03125 10.015625 
L 19.046875 10.015625 
L 19.046875 0 
z
" id="ArialMT-58"/>
     <path d="M 9.328125 0 
L 9.328125 71.578125 
L 18.796875 71.578125 
L 18.796875 0 
z
" id="ArialMT-73"/>
     <path d="M 6.390625 0 
L 6.390625 71.578125 
L 15.1875 71.578125 
L 15.1875 0 
z
" id="ArialMT-108"/>
     <path d="M 7.71875 0 
L 7.71875 71.578125 
L 32.375 71.578125 
Q 40.71875 71.578125 45.125 70.5625 
Q 51.265625 69.140625 55.609375 65.4375 
Q 61.28125 60.640625 64.078125 53.1875 
Q 66.890625 45.75 66.890625 36.1875 
Q 66.890625 28.03125 64.984375 21.734375 
Q 63.09375 15.4375 60.109375 11.296875 
Q 57.125 7.171875 53.578125 4.796875 
Q 50.046875 2.4375 45.046875 1.21875 
Q 40.046875 0 33.546875 0 
z
M 17.1875 8.453125 
L 32.46875 8.453125 
Q 39.546875 8.453125 43.578125 9.765625 
Q 47.609375 11.078125 50 13.484375 
Q 53.375 16.84375 55.25 22.53125 
Q 57.125 28.21875 57.125 36.328125 
Q 57.125 47.5625 53.4375 53.59375 
Q 49.75 59.625 44.484375 61.671875 
Q 40.671875 63.140625 32.234375 63.140625 
L 17.1875 63.140625 
z
" id="ArialMT-68"/>
     <path d="M 4.203125 18.890625 
L 12.984375 20.0625 
Q 14.5 12.59375 18.140625 9.296875 
Q 21.78125 6 27 6 
Q 33.203125 6 37.46875 10.296875 
Q 41.75 14.59375 41.75 20.953125 
Q 41.75 27 37.796875 30.921875 
Q 33.84375 34.859375 27.734375 34.859375 
Q 25.25 34.859375 21.53125 33.890625 
L 22.515625 41.609375 
Q 23.390625 41.5 23.921875 41.5 
Q 29.546875 41.5 34.03125 44.421875 
Q 38.53125 47.359375 38.53125 53.46875 
Q 38.53125 58.296875 35.25 61.46875 
Q 31.984375 64.65625 26.8125 64.65625 
Q 21.6875 64.65625 18.265625 61.421875 
Q 14.84375 58.203125 13.875 51.765625 
L 5.078125 53.328125 
Q 6.6875 62.15625 12.390625 67.015625 
Q 18.109375 71.875 26.609375 71.875 
Q 32.46875 71.875 37.390625 69.359375 
Q 42.328125 66.84375 44.9375 62.5 
Q 47.5625 58.15625 47.5625 53.265625 
Q 47.5625 48.640625 45.0625 44.828125 
Q 42.578125 41.015625 37.703125 38.765625 
Q 44.046875 37.3125 47.5625 32.6875 
Q 51.078125 28.078125 51.078125 21.140625 
Q 51.078125 11.765625 44.234375 5.25 
Q 37.40625 -1.265625 26.953125 -1.265625 
Q 17.53125 -1.265625 11.296875 4.34375 
Q 5.078125 9.96875 4.203125 18.890625 
z
" id="ArialMT-51"/>
     <path d="M 4.734375 62.203125 
L 4.734375 70.65625 
L 51.078125 70.65625 
L 51.078125 63.8125 
Q 44.234375 56.546875 37.515625 44.484375 
Q 30.8125 32.421875 27.15625 19.671875 
Q 24.515625 10.6875 23.78125 0 
L 14.75 0 
Q 14.890625 8.453125 18.0625 20.40625 
Q 21.234375 32.375 27.171875 43.484375 
Q 33.109375 54.59375 39.796875 62.203125 
z
" id="ArialMT-55"/>
     <path d="M 6.59375 0 
L 6.59375 51.859375 
L 14.453125 51.859375 
L 14.453125 44.578125 
Q 16.890625 48.390625 20.9375 50.703125 
Q 25 53.03125 30.171875 53.03125 
Q 35.9375 53.03125 39.625 50.640625 
Q 43.3125 48.25 44.828125 43.953125 
Q 50.984375 53.03125 60.84375 53.03125 
Q 68.5625 53.03125 72.703125 48.75 
Q 76.859375 44.484375 76.859375 35.59375 
L 76.859375 0 
L 68.109375 0 
L 68.109375 32.671875 
Q 68.109375 37.9375 67.25 40.25 
Q 66.40625 42.578125 64.15625 43.984375 
Q 61.921875 45.40625 58.890625 45.40625 
Q 53.421875 45.40625 49.796875 41.765625 
Q 46.1875 38.140625 46.1875 30.125 
L 46.1875 0 
L 37.40625 0 
L 37.40625 33.6875 
Q 37.40625 39.546875 35.25 42.46875 
Q 33.109375 45.40625 28.21875 45.40625 
Q 24.515625 45.40625 21.359375 43.453125 
Q 18.21875 41.5 16.796875 37.734375 
Q 15.375 33.984375 15.375 26.90625 
L 15.375 0 
z
" id="ArialMT-109"/>
    </defs>
    <g style="fill:#262626;" transform="translate(10.419375 45.84)scale(0.24 -0.24)">
     <use xlink:href="#ArialMT-82"/>
     <use x="72.216797" xlink:href="#ArialMT-101"/>
     <use x="127.832031" xlink:href="#ArialMT-99"/>
     <use x="177.832031" xlink:href="#ArialMT-117"/>
     <use x="233.447266" xlink:href="#ArialMT-114"/>
     <use x="266.748047" xlink:href="#ArialMT-114"/>
     <use x="300.048828" xlink:href="#ArialMT-101"/>
     <use x="355.664062" xlink:href="#ArialMT-110"/>
     <use x="411.279297" xlink:href="#ArialMT-116"/>
     <use x="439.0625" xlink:href="#ArialMT-32"/>
     <use x="466.845703" xlink:href="#ArialMT-100"/>
     <use x="522.460938" xlink:href="#ArialMT-114"/>
     <use x="555.761719" xlink:href="#ArialMT-111"/>
     <use x="611.376953" xlink:href="#ArialMT-112"/>
     <use x="666.992188" xlink:href="#ArialMT-111"/>
     <use x="722.607422" xlink:href="#ArialMT-117"/>
     <use x="778.222656" xlink:href="#ArialMT-116"/>
     <use x="806.005859" xlink:href="#ArialMT-32"/>
     <use x="833.789062" xlink:href="#ArialMT-114"/>
     <use x="867.089844" xlink:href="#ArialMT-97"/>
     <use x="922.705078" xlink:href="#ArialMT-116"/>
     <use x="950.488281" xlink:href="#ArialMT-105"/>
     <use x="972.705078" xlink:href="#ArialMT-111"/>
     <use x="1028.320312" xlink:href="#ArialMT-58"/>
     <use x="1056.103516" xlink:href="#ArialMT-32"/>
     <use x="1083.886719" xlink:href="#ArialMT-73"/>
     <use x="1111.669922" xlink:href="#ArialMT-115"/>
     <use x="1161.669922" xlink:href="#ArialMT-108"/>
     <use x="1183.886719" xlink:href="#ArialMT-97"/>
     <use x="1239.501953" xlink:href="#ArialMT-110"/>
     <use x="1295.117188" xlink:href="#ArialMT-100"/>
     <use x="1350.732422" xlink:href="#ArialMT-32"/>
     <use x="1378.515625" xlink:href="#ArialMT-68"/>
     <use x="1450.732422" xlink:href="#ArialMT-78"/>
     <use x="1522.949219" xlink:href="#ArialMT-78"/>
     <use x="1595.166016" xlink:href="#ArialMT-32"/>
     <use x="1622.949219" xlink:href="#ArialMT-40"/>
     <use x="1656.25" xlink:href="#ArialMT-116"/>
     <use x="1684.033203" xlink:href="#ArialMT-111"/>
     <use x="1739.648438" xlink:href="#ArialMT-112"/>
     <use x="1795.263672" xlink:href="#ArialMT-32"/>
     <use x="1823.046875" xlink:href="#ArialMT-51"/>
     <use x="1878.662109" xlink:href="#ArialMT-48"/>
     <use x="1934.277344" xlink:href="#ArialMT-55"/>
     <use x="1989.892578" xlink:href="#ArialMT-32"/>
     <use x="2017.675781" xlink:href="#ArialMT-109"/>
     <use x="2100.976562" xlink:href="#ArialMT-111"/>
     <use x="2156.591797" xlink:href="#ArialMT-100"/>
     <use x="2212.207031" xlink:href="#ArialMT-101"/>
     <use x="2267.822266" xlink:href="#ArialMT-108"/>
     <use x="2290.039062" xlink:href="#ArialMT-115"/>
     <use x="2340.039062" xlink:href="#ArialMT-41"/>
    </g>
   </g>
  </g>
 </g>
 <defs>
  <clipPath id="p1418fb2dc2">
   <rect height="326.16" width="446.4" x="72" y="51.84"/>
  </clipPath>
 </defs>
</svg>
