<?xml version="1.0" encoding="utf-8" standalone="no"?>
<!DOCTYPE svg PUBLIC "-//W3C//DTD SVG 1.1//EN"
  "http://www.w3.org/Graphics/SVG/1.1/DTD/svg11.dtd">
<!-- Created with matplotlib (https://matplotlib.org/) -->
<svg height="432pt" version="1.1" viewBox="0 0 576 432" width="576pt" xmlns="http://www.w3.org/2000/svg" xmlns:xlink="http://www.w3.org/1999/xlink">
 <defs>
  <style type="text/css">
*{stroke-linecap:butt;stroke-linejoin:round;white-space:pre;}
  </style>
 </defs>
 <g id="figure_1">
  <g id="patch_1">
   <path d="M 0 432 
L 576 432 
L 576 0 
L 0 0 
z
" style="fill:#ffffff;"/>
  </g>
  <g id="axes_1">
   <g id="patch_2">
    <path d="M 72 378 
L 518.4 378 
L 518.4 51.84 
L 72 51.84 
z
" style="fill:#eaeaf2;"/>
   </g>
   <g id="matplotlib.axis_1">
    <g id="xtick_1">
     <g id="line2d_1">
      <path clip-path="url(#pc2ed44bfce)" d="M 132.872727 378 
L 132.872727 51.84 
" style="fill:none;stroke:#ffffff;stroke-linecap:round;"/>
     </g>
     <g id="text_1">
      <!-- First -->
      <defs>
       <path d="M 8.203125 0 
L 8.203125 71.578125 
L 56.5 71.578125 
L 56.5 63.140625 
L 17.671875 63.140625 
L 17.671875 40.96875 
L 51.265625 40.96875 
L 51.265625 32.515625 
L 17.671875 32.515625 
L 17.671875 0 
z
" id="ArialMT-70"/>
       <path d="M 6.640625 61.46875 
L 6.640625 71.578125 
L 15.4375 71.578125 
L 15.4375 61.46875 
z
M 6.640625 0 
L 6.640625 51.859375 
L 15.4375 51.859375 
L 15.4375 0 
z
" id="ArialMT-105"/>
       <path d="M 6.5 0 
L 6.5 51.859375 
L 14.40625 51.859375 
L 14.40625 44 
Q 17.4375 49.515625 20 51.265625 
Q 22.5625 53.03125 25.640625 53.03125 
Q 30.078125 53.03125 34.671875 50.203125 
L 31.640625 42.046875 
Q 28.421875 43.953125 25.203125 43.953125 
Q 22.3125 43.953125 20.015625 42.21875 
Q 17.71875 40.484375 16.75 37.40625 
Q 15.28125 32.71875 15.28125 27.15625 
L 15.28125 0 
z
" id="ArialMT-114"/>
       <path d="M 3.078125 15.484375 
L 11.765625 16.84375 
Q 12.5 11.625 15.84375 8.84375 
Q 19.1875 6.0625 25.203125 6.0625 
Q 31.25 6.0625 34.171875 8.515625 
Q 37.109375 10.984375 37.109375 14.3125 
Q 37.109375 17.28125 34.515625 19 
Q 32.71875 20.171875 25.53125 21.96875 
Q 15.875 24.421875 12.140625 26.203125 
Q 8.40625 27.984375 6.46875 31.125 
Q 4.546875 34.28125 4.546875 38.09375 
Q 4.546875 41.546875 6.125 44.5 
Q 7.71875 47.46875 10.453125 49.421875 
Q 12.5 50.921875 16.03125 51.96875 
Q 19.578125 53.03125 23.640625 53.03125 
Q 29.734375 53.03125 34.34375 51.265625 
Q 38.96875 49.515625 41.15625 46.5 
Q 43.359375 43.5 44.1875 38.484375 
L 35.59375 37.3125 
Q 35.015625 41.3125 32.203125 43.546875 
Q 29.390625 45.796875 24.265625 45.796875 
Q 18.21875 45.796875 15.625 43.796875 
Q 13.03125 41.796875 13.03125 39.109375 
Q 13.03125 37.40625 14.109375 36.03125 
Q 15.1875 34.625 17.484375 33.6875 
Q 18.796875 33.203125 25.25 31.453125 
Q 34.578125 28.953125 38.25 27.359375 
Q 41.9375 25.78125 44.03125 22.75 
Q 46.140625 19.734375 46.140625 15.234375 
Q 46.140625 10.84375 43.578125 6.953125 
Q 41.015625 3.078125 36.171875 0.953125 
Q 31.34375 -1.171875 25.25 -1.171875 
Q 15.140625 -1.171875 9.84375 3.03125 
Q 4.546875 7.234375 3.078125 15.484375 
z
" id="ArialMT-115"/>
       <path d="M 25.78125 7.859375 
L 27.046875 0.09375 
Q 23.34375 -0.6875 20.40625 -0.6875 
Q 15.625 -0.6875 12.984375 0.828125 
Q 10.359375 2.34375 9.28125 4.8125 
Q 8.203125 7.28125 8.203125 15.1875 
L 8.203125 45.015625 
L 1.765625 45.015625 
L 1.765625 51.859375 
L 8.203125 51.859375 
L 8.203125 64.703125 
L 16.9375 69.96875 
L 16.9375 51.859375 
L 25.78125 51.859375 
L 25.78125 45.015625 
L 16.9375 45.015625 
L 16.9375 14.703125 
Q 16.9375 10.9375 17.40625 9.859375 
Q 17.875 8.796875 18.921875 8.15625 
Q 19.96875 7.515625 21.921875 7.515625 
Q 23.390625 7.515625 25.78125 7.859375 
z
" id="ArialMT-116"/>
      </defs>
      <g style="fill:#262626;" transform="translate(111.491477 403.247187)scale(0.22 -0.22)">
       <use xlink:href="#ArialMT-70"/>
       <use x="61.083984" xlink:href="#ArialMT-105"/>
       <use x="83.300781" xlink:href="#ArialMT-114"/>
       <use x="116.601562" xlink:href="#ArialMT-115"/>
       <use x="166.601562" xlink:href="#ArialMT-116"/>
      </g>
     </g>
    </g>
    <g id="xtick_2">
     <g id="line2d_2">
      <path clip-path="url(#pc2ed44bfce)" d="M 295.2 378 
L 295.2 51.84 
" style="fill:none;stroke:#ffffff;stroke-linecap:round;"/>
     </g>
     <g id="text_2">
      <!-- Second -->
      <defs>
       <path d="M 4.5 23 
L 13.421875 23.78125 
Q 14.0625 18.40625 16.375 14.96875 
Q 18.703125 11.53125 23.578125 9.40625 
Q 28.46875 7.28125 34.578125 7.28125 
Q 39.984375 7.28125 44.140625 8.890625 
Q 48.296875 10.5 50.3125 13.296875 
Q 52.34375 16.109375 52.34375 19.4375 
Q 52.34375 22.796875 50.390625 25.3125 
Q 48.4375 27.828125 43.953125 29.546875 
Q 41.0625 30.671875 31.203125 33.03125 
Q 21.34375 35.40625 17.390625 37.5 
Q 12.25 40.1875 9.734375 44.15625 
Q 7.234375 48.140625 7.234375 53.078125 
Q 7.234375 58.5 10.296875 63.203125 
Q 13.375 67.921875 19.28125 70.359375 
Q 25.203125 72.796875 32.421875 72.796875 
Q 40.375 72.796875 46.453125 70.234375 
Q 52.546875 67.671875 55.8125 62.6875 
Q 59.078125 57.71875 59.328125 51.421875 
L 50.25 50.734375 
Q 49.515625 57.515625 45.28125 60.984375 
Q 41.0625 64.453125 32.8125 64.453125 
Q 24.21875 64.453125 20.28125 61.296875 
Q 16.359375 58.15625 16.359375 53.71875 
Q 16.359375 49.859375 19.140625 47.359375 
Q 21.875 44.875 33.421875 42.265625 
Q 44.96875 39.65625 49.265625 37.703125 
Q 55.515625 34.8125 58.484375 30.390625 
Q 61.46875 25.984375 61.46875 20.21875 
Q 61.46875 14.5 58.203125 9.4375 
Q 54.9375 4.390625 48.796875 1.578125 
Q 42.671875 -1.21875 35.015625 -1.21875 
Q 25.296875 -1.21875 18.71875 1.609375 
Q 12.15625 4.4375 8.421875 10.125 
Q 4.6875 15.828125 4.5 23 
z
" id="ArialMT-83"/>
       <path d="M 42.09375 16.703125 
L 51.171875 15.578125 
Q 49.03125 7.625 43.21875 3.21875 
Q 37.40625 -1.171875 28.375 -1.171875 
Q 17 -1.171875 10.328125 5.828125 
Q 3.65625 12.84375 3.65625 25.484375 
Q 3.65625 38.578125 10.390625 45.796875 
Q 17.140625 53.03125 27.875 53.03125 
Q 38.28125 53.03125 44.875 45.953125 
Q 51.46875 38.875 51.46875 26.03125 
Q 51.46875 25.25 51.421875 23.6875 
L 12.75 23.6875 
Q 13.234375 15.140625 17.578125 10.59375 
Q 21.921875 6.0625 28.421875 6.0625 
Q 33.25 6.0625 36.671875 8.59375 
Q 40.09375 11.140625 42.09375 16.703125 
z
M 13.234375 30.90625 
L 42.1875 30.90625 
Q 41.609375 37.453125 38.875 40.71875 
Q 34.671875 45.796875 27.984375 45.796875 
Q 21.921875 45.796875 17.796875 41.75 
Q 13.671875 37.703125 13.234375 30.90625 
z
" id="ArialMT-101"/>
       <path d="M 40.4375 19 
L 49.078125 17.875 
Q 47.65625 8.9375 41.8125 3.875 
Q 35.984375 -1.171875 27.484375 -1.171875 
Q 16.84375 -1.171875 10.375 5.78125 
Q 3.90625 12.75 3.90625 25.734375 
Q 3.90625 34.125 6.6875 40.421875 
Q 9.46875 46.734375 15.15625 49.875 
Q 20.84375 53.03125 27.546875 53.03125 
Q 35.984375 53.03125 41.359375 48.75 
Q 46.734375 44.484375 48.25 36.625 
L 39.703125 35.296875 
Q 38.484375 40.53125 35.375 43.15625 
Q 32.28125 45.796875 27.875 45.796875 
Q 21.234375 45.796875 17.078125 41.03125 
Q 12.9375 36.28125 12.9375 25.984375 
Q 12.9375 15.53125 16.9375 10.796875 
Q 20.953125 6.0625 27.390625 6.0625 
Q 32.5625 6.0625 36.03125 9.234375 
Q 39.5 12.40625 40.4375 19 
z
" id="ArialMT-99"/>
       <path d="M 3.328125 25.921875 
Q 3.328125 40.328125 11.328125 47.265625 
Q 18.015625 53.03125 27.640625 53.03125 
Q 38.328125 53.03125 45.109375 46.015625 
Q 51.90625 39.015625 51.90625 26.65625 
Q 51.90625 16.65625 48.90625 10.90625 
Q 45.90625 5.171875 40.15625 2 
Q 34.421875 -1.171875 27.640625 -1.171875 
Q 16.75 -1.171875 10.03125 5.8125 
Q 3.328125 12.796875 3.328125 25.921875 
z
M 12.359375 25.921875 
Q 12.359375 15.96875 16.703125 11.015625 
Q 21.046875 6.0625 27.640625 6.0625 
Q 34.1875 6.0625 38.53125 11.03125 
Q 42.875 16.015625 42.875 26.21875 
Q 42.875 35.84375 38.5 40.796875 
Q 34.125 45.75 27.640625 45.75 
Q 21.046875 45.75 16.703125 40.8125 
Q 12.359375 35.890625 12.359375 25.921875 
z
" id="ArialMT-111"/>
       <path d="M 6.59375 0 
L 6.59375 51.859375 
L 14.5 51.859375 
L 14.5 44.484375 
Q 20.21875 53.03125 31 53.03125 
Q 35.6875 53.03125 39.625 51.34375 
Q 43.5625 49.65625 45.515625 46.921875 
Q 47.46875 44.1875 48.25 40.4375 
Q 48.734375 37.984375 48.734375 31.890625 
L 48.734375 0 
L 39.9375 0 
L 39.9375 31.546875 
Q 39.9375 36.921875 38.90625 39.578125 
Q 37.890625 42.234375 35.28125 43.8125 
Q 32.671875 45.40625 29.15625 45.40625 
Q 23.53125 45.40625 19.453125 41.84375 
Q 15.375 38.28125 15.375 28.328125 
L 15.375 0 
z
" id="ArialMT-110"/>
       <path d="M 40.234375 0 
L 40.234375 6.546875 
Q 35.296875 -1.171875 25.734375 -1.171875 
Q 19.53125 -1.171875 14.328125 2.25 
Q 9.125 5.671875 6.265625 11.796875 
Q 3.421875 17.921875 3.421875 25.875 
Q 3.421875 33.640625 6 39.96875 
Q 8.59375 46.296875 13.765625 49.65625 
Q 18.953125 53.03125 25.34375 53.03125 
Q 30.03125 53.03125 33.6875 51.046875 
Q 37.359375 49.078125 39.65625 45.90625 
L 39.65625 71.578125 
L 48.390625 71.578125 
L 48.390625 0 
z
M 12.453125 25.875 
Q 12.453125 15.921875 16.640625 10.984375 
Q 20.84375 6.0625 26.5625 6.0625 
Q 32.328125 6.0625 36.34375 10.765625 
Q 40.375 15.484375 40.375 25.140625 
Q 40.375 35.796875 36.265625 40.765625 
Q 32.171875 45.75 26.171875 45.75 
Q 20.3125 45.75 16.375 40.96875 
Q 12.453125 36.1875 12.453125 25.875 
z
" id="ArialMT-100"/>
      </defs>
      <g style="fill:#262626;" transform="translate(257.894531 403.247187)scale(0.22 -0.22)">
       <use xlink:href="#ArialMT-83"/>
       <use x="66.699219" xlink:href="#ArialMT-101"/>
       <use x="122.314453" xlink:href="#ArialMT-99"/>
       <use x="172.314453" xlink:href="#ArialMT-111"/>
       <use x="227.929688" xlink:href="#ArialMT-110"/>
       <use x="283.544922" xlink:href="#ArialMT-100"/>
      </g>
     </g>
    </g>
    <g id="xtick_3">
     <g id="line2d_3">
      <path clip-path="url(#pc2ed44bfce)" d="M 457.527273 378 
L 457.527273 51.84 
" style="fill:none;stroke:#ffffff;stroke-linecap:round;"/>
     </g>
     <g id="text_3">
      <!-- Third -->
      <defs>
       <path d="M 25.921875 0 
L 25.921875 63.140625 
L 2.34375 63.140625 
L 2.34375 71.578125 
L 59.078125 71.578125 
L 59.078125 63.140625 
L 35.40625 63.140625 
L 35.40625 0 
z
" id="ArialMT-84"/>
       <path d="M 6.59375 0 
L 6.59375 71.578125 
L 15.375 71.578125 
L 15.375 45.90625 
Q 21.53125 53.03125 30.90625 53.03125 
Q 36.671875 53.03125 40.921875 50.75 
Q 45.171875 48.484375 47 44.484375 
Q 48.828125 40.484375 48.828125 32.859375 
L 48.828125 0 
L 40.046875 0 
L 40.046875 32.859375 
Q 40.046875 39.453125 37.1875 42.453125 
Q 34.328125 45.453125 29.109375 45.453125 
Q 25.203125 45.453125 21.75 43.421875 
Q 18.3125 41.40625 16.84375 37.9375 
Q 15.375 34.46875 15.375 28.375 
L 15.375 0 
z
" id="ArialMT-104"/>
      </defs>
      <g style="fill:#262626;" transform="translate(432.467898 403.247187)scale(0.22 -0.22)">
       <use xlink:href="#ArialMT-84"/>
       <use x="61.083984" xlink:href="#ArialMT-104"/>
       <use x="116.699219" xlink:href="#ArialMT-105"/>
       <use x="138.916016" xlink:href="#ArialMT-114"/>
       <use x="172.216797" xlink:href="#ArialMT-100"/>
      </g>
     </g>
    </g>
    <g id="text_4">
     <!-- RNN Layers -->
     <defs>
      <path d="M 7.859375 0 
L 7.859375 71.578125 
L 39.59375 71.578125 
Q 49.171875 71.578125 54.140625 69.640625 
Q 59.125 67.71875 62.109375 62.828125 
Q 65.09375 57.953125 65.09375 52.046875 
Q 65.09375 44.4375 60.15625 39.203125 
Q 55.21875 33.984375 44.921875 32.5625 
Q 48.6875 30.765625 50.640625 29 
Q 54.78125 25.203125 58.5 19.484375 
L 70.953125 0 
L 59.03125 0 
L 49.5625 14.890625 
Q 45.40625 21.34375 42.71875 24.75 
Q 40.046875 28.171875 37.921875 29.53125 
Q 35.796875 30.90625 33.59375 31.453125 
Q 31.984375 31.78125 28.328125 31.78125 
L 17.328125 31.78125 
L 17.328125 0 
z
M 17.328125 39.984375 
L 37.703125 39.984375 
Q 44.1875 39.984375 47.84375 41.328125 
Q 51.515625 42.671875 53.421875 45.625 
Q 55.328125 48.578125 55.328125 52.046875 
Q 55.328125 57.125 51.640625 60.390625 
Q 47.953125 63.671875 39.984375 63.671875 
L 17.328125 63.671875 
z
" id="ArialMT-82"/>
      <path d="M 7.625 0 
L 7.625 71.578125 
L 17.328125 71.578125 
L 54.9375 15.375 
L 54.9375 71.578125 
L 64.015625 71.578125 
L 64.015625 0 
L 54.296875 0 
L 16.703125 56.25 
L 16.703125 0 
z
" id="ArialMT-78"/>
      <path id="ArialMT-32"/>
      <path d="M 7.328125 0 
L 7.328125 71.578125 
L 16.796875 71.578125 
L 16.796875 8.453125 
L 52.046875 8.453125 
L 52.046875 0 
z
" id="ArialMT-76"/>
      <path d="M 40.4375 6.390625 
Q 35.546875 2.25 31.03125 0.53125 
Q 26.515625 -1.171875 21.34375 -1.171875 
Q 12.796875 -1.171875 8.203125 3 
Q 3.609375 7.171875 3.609375 13.671875 
Q 3.609375 17.484375 5.34375 20.625 
Q 7.078125 23.78125 9.890625 25.6875 
Q 12.703125 27.59375 16.21875 28.5625 
Q 18.796875 29.25 24.03125 29.890625 
Q 34.671875 31.15625 39.703125 32.90625 
Q 39.75 34.71875 39.75 35.203125 
Q 39.75 40.578125 37.25 42.78125 
Q 33.890625 45.75 27.25 45.75 
Q 21.046875 45.75 18.09375 43.578125 
Q 15.140625 41.40625 13.71875 35.890625 
L 5.125 37.0625 
Q 6.296875 42.578125 8.984375 45.96875 
Q 11.671875 49.359375 16.75 51.1875 
Q 21.828125 53.03125 28.515625 53.03125 
Q 35.15625 53.03125 39.296875 51.46875 
Q 43.453125 49.90625 45.40625 47.53125 
Q 47.359375 45.171875 48.140625 41.546875 
Q 48.578125 39.3125 48.578125 33.453125 
L 48.578125 21.734375 
Q 48.578125 9.46875 49.140625 6.21875 
Q 49.703125 2.984375 51.375 0 
L 42.1875 0 
Q 40.828125 2.734375 40.4375 6.390625 
z
M 39.703125 26.03125 
Q 34.90625 24.078125 25.34375 22.703125 
Q 19.921875 21.921875 17.671875 20.9375 
Q 15.4375 19.96875 14.203125 18.09375 
Q 12.984375 16.21875 12.984375 13.921875 
Q 12.984375 10.40625 15.640625 8.0625 
Q 18.3125 5.71875 23.4375 5.71875 
Q 28.515625 5.71875 32.46875 7.9375 
Q 36.421875 10.15625 38.28125 14.015625 
Q 39.703125 17 39.703125 22.796875 
z
" id="ArialMT-97"/>
      <path d="M 6.203125 -19.96875 
L 5.21875 -11.71875 
Q 8.109375 -12.5 10.25 -12.5 
Q 13.1875 -12.5 14.9375 -11.515625 
Q 16.703125 -10.546875 17.828125 -8.796875 
Q 18.65625 -7.46875 20.515625 -2.25 
Q 20.75 -1.515625 21.296875 -0.09375 
L 1.609375 51.859375 
L 11.078125 51.859375 
L 21.875 21.828125 
Q 23.96875 16.109375 25.640625 9.8125 
Q 27.15625 15.875 29.25 21.625 
L 40.328125 51.859375 
L 49.125 51.859375 
L 29.390625 -0.875 
Q 26.21875 -9.421875 24.46875 -12.640625 
Q 22.125 -17 19.09375 -19.015625 
Q 16.0625 -21.046875 11.859375 -21.046875 
Q 9.328125 -21.046875 6.203125 -19.96875 
z
" id="ArialMT-121"/>
     </defs>
     <g style="fill:#262626;" transform="translate(229.8525 428.798437)scale(0.24 -0.24)">
      <use xlink:href="#ArialMT-82"/>
      <use x="72.216797" xlink:href="#ArialMT-78"/>
      <use x="144.433594" xlink:href="#ArialMT-78"/>
      <use x="216.650391" xlink:href="#ArialMT-32"/>
      <use x="244.433594" xlink:href="#ArialMT-76"/>
      <use x="300.048828" xlink:href="#ArialMT-97"/>
      <use x="355.664062" xlink:href="#ArialMT-121"/>
      <use x="405.664062" xlink:href="#ArialMT-101"/>
      <use x="461.279297" xlink:href="#ArialMT-114"/>
      <use x="494.580078" xlink:href="#ArialMT-115"/>
     </g>
    </g>
   </g>
   <g id="matplotlib.axis_2">
    <g id="ytick_1">
     <g id="line2d_4">
      <path clip-path="url(#pc2ed44bfce)" d="M 72 315.233422 
L 518.4 315.233422 
" style="fill:none;stroke:#ffffff;stroke-linecap:round;"/>
     </g>
     <g id="text_5">
      <!-- 0.05 -->
      <defs>
       <path d="M 4.15625 35.296875 
Q 4.15625 48 6.765625 55.734375 
Q 9.375 63.484375 14.515625 67.671875 
Q 19.671875 71.875 27.484375 71.875 
Q 33.25 71.875 37.59375 69.546875 
Q 41.9375 67.234375 44.765625 62.859375 
Q 47.609375 58.5 49.21875 52.21875 
Q 50.828125 45.953125 50.828125 35.296875 
Q 50.828125 22.703125 48.234375 14.96875 
Q 45.65625 7.234375 40.5 3 
Q 35.359375 -1.21875 27.484375 -1.21875 
Q 17.140625 -1.21875 11.234375 6.203125 
Q 4.15625 15.140625 4.15625 35.296875 
z
M 13.1875 35.296875 
Q 13.1875 17.671875 17.3125 11.828125 
Q 21.4375 6 27.484375 6 
Q 33.546875 6 37.671875 11.859375 
Q 41.796875 17.71875 41.796875 35.296875 
Q 41.796875 52.984375 37.671875 58.78125 
Q 33.546875 64.59375 27.390625 64.59375 
Q 21.34375 64.59375 17.71875 59.46875 
Q 13.1875 52.9375 13.1875 35.296875 
z
" id="ArialMT-48"/>
       <path d="M 9.078125 0 
L 9.078125 10.015625 
L 19.09375 10.015625 
L 19.09375 0 
z
" id="ArialMT-46"/>
       <path d="M 4.15625 18.75 
L 13.375 19.53125 
Q 14.40625 12.796875 18.140625 9.390625 
Q 21.875 6 27.15625 6 
Q 33.5 6 37.890625 10.78125 
Q 42.28125 15.578125 42.28125 23.484375 
Q 42.28125 31 38.0625 35.34375 
Q 33.84375 39.703125 27 39.703125 
Q 22.75 39.703125 19.328125 37.765625 
Q 15.921875 35.84375 13.96875 32.765625 
L 5.71875 33.84375 
L 12.640625 70.609375 
L 48.25 70.609375 
L 48.25 62.203125 
L 19.671875 62.203125 
L 15.828125 42.96875 
Q 22.265625 47.46875 29.34375 47.46875 
Q 38.71875 47.46875 45.15625 40.96875 
Q 51.609375 34.46875 51.609375 24.265625 
Q 51.609375 14.546875 45.953125 7.46875 
Q 39.0625 -1.21875 27.15625 -1.21875 
Q 17.390625 -1.21875 11.203125 4.25 
Q 5.03125 9.71875 4.15625 18.75 
z
" id="ArialMT-53"/>
      </defs>
      <g style="fill:#262626;" transform="translate(19.685938 323.107015)scale(0.22 -0.22)">
       <use xlink:href="#ArialMT-48"/>
       <use x="55.615234" xlink:href="#ArialMT-46"/>
       <use x="83.398438" xlink:href="#ArialMT-48"/>
       <use x="139.013672" xlink:href="#ArialMT-53"/>
      </g>
     </g>
    </g>
    <g id="ytick_2">
     <g id="line2d_5">
      <path clip-path="url(#pc2ed44bfce)" d="M 72 250.151124 
L 518.4 250.151124 
" style="fill:none;stroke:#ffffff;stroke-linecap:round;"/>
     </g>
     <g id="text_6">
      <!-- 0.10 -->
      <defs>
       <path d="M 37.25 0 
L 28.46875 0 
L 28.46875 56 
Q 25.296875 52.984375 20.140625 49.953125 
Q 14.984375 46.921875 10.890625 45.40625 
L 10.890625 53.90625 
Q 18.265625 57.375 23.78125 62.296875 
Q 29.296875 67.234375 31.59375 71.875 
L 37.25 71.875 
z
" id="ArialMT-49"/>
      </defs>
      <g style="fill:#262626;" transform="translate(19.685938 258.024717)scale(0.22 -0.22)">
       <use xlink:href="#ArialMT-48"/>
       <use x="55.615234" xlink:href="#ArialMT-46"/>
       <use x="83.398438" xlink:href="#ArialMT-49"/>
       <use x="139.013672" xlink:href="#ArialMT-48"/>
      </g>
     </g>
    </g>
    <g id="ytick_3">
     <g id="line2d_6">
      <path clip-path="url(#pc2ed44bfce)" d="M 72 185.068826 
L 518.4 185.068826 
" style="fill:none;stroke:#ffffff;stroke-linecap:round;"/>
     </g>
     <g id="text_7">
      <!-- 0.15 -->
      <g style="fill:#262626;" transform="translate(19.685938 192.942419)scale(0.22 -0.22)">
       <use xlink:href="#ArialMT-48"/>
       <use x="55.615234" xlink:href="#ArialMT-46"/>
       <use x="83.398438" xlink:href="#ArialMT-49"/>
       <use x="139.013672" xlink:href="#ArialMT-53"/>
      </g>
     </g>
    </g>
    <g id="ytick_4">
     <g id="line2d_7">
      <path clip-path="url(#pc2ed44bfce)" d="M 72 119.986528 
L 518.4 119.986528 
" style="fill:none;stroke:#ffffff;stroke-linecap:round;"/>
     </g>
     <g id="text_8">
      <!-- 0.20 -->
      <defs>
       <path d="M 50.34375 8.453125 
L 50.34375 0 
L 3.03125 0 
Q 2.9375 3.171875 4.046875 6.109375 
Q 5.859375 10.9375 9.828125 15.625 
Q 13.8125 20.3125 21.34375 26.46875 
Q 33.015625 36.03125 37.109375 41.625 
Q 41.21875 47.21875 41.21875 52.203125 
Q 41.21875 57.421875 37.46875 61 
Q 33.734375 64.59375 27.734375 64.59375 
Q 21.390625 64.59375 17.578125 60.78125 
Q 13.765625 56.984375 13.71875 50.25 
L 4.6875 51.171875 
Q 5.609375 61.28125 11.65625 66.578125 
Q 17.71875 71.875 27.9375 71.875 
Q 38.234375 71.875 44.234375 66.15625 
Q 50.25 60.453125 50.25 52 
Q 50.25 47.703125 48.484375 43.546875 
Q 46.734375 39.40625 42.65625 34.8125 
Q 38.578125 30.21875 29.109375 22.21875 
Q 21.1875 15.578125 18.9375 13.203125 
Q 16.703125 10.84375 15.234375 8.453125 
z
" id="ArialMT-50"/>
      </defs>
      <g style="fill:#262626;" transform="translate(19.685938 127.860121)scale(0.22 -0.22)">
       <use xlink:href="#ArialMT-48"/>
       <use x="55.615234" xlink:href="#ArialMT-46"/>
       <use x="83.398438" xlink:href="#ArialMT-50"/>
       <use x="139.013672" xlink:href="#ArialMT-48"/>
      </g>
     </g>
    </g>
    <g id="ytick_5">
     <g id="line2d_8">
      <path clip-path="url(#pc2ed44bfce)" d="M 72 54.90423 
L 518.4 54.90423 
" style="fill:none;stroke:#ffffff;stroke-linecap:round;"/>
     </g>
     <g id="text_9">
      <!-- 0.25 -->
      <g style="fill:#262626;" transform="translate(19.685938 62.777823)scale(0.22 -0.22)">
       <use xlink:href="#ArialMT-48"/>
       <use x="55.615234" xlink:href="#ArialMT-46"/>
       <use x="83.398438" xlink:href="#ArialMT-50"/>
       <use x="139.013672" xlink:href="#ArialMT-53"/>
      </g>
     </g>
    </g>
    <g id="text_10">
     <!-- Recurrent dropout ratio (%) -->
     <defs>
      <path d="M 40.578125 0 
L 40.578125 7.625 
Q 34.515625 -1.171875 24.125 -1.171875 
Q 19.53125 -1.171875 15.546875 0.578125 
Q 11.578125 2.34375 9.640625 5 
Q 7.71875 7.671875 6.9375 11.53125 
Q 6.390625 14.109375 6.390625 19.734375 
L 6.390625 51.859375 
L 15.1875 51.859375 
L 15.1875 23.09375 
Q 15.1875 16.21875 15.71875 13.8125 
Q 16.546875 10.359375 19.234375 8.375 
Q 21.921875 6.390625 25.875 6.390625 
Q 29.828125 6.390625 33.296875 8.421875 
Q 36.765625 10.453125 38.203125 13.9375 
Q 39.65625 17.4375 39.65625 24.078125 
L 39.65625 51.859375 
L 48.4375 51.859375 
L 48.4375 0 
z
" id="ArialMT-117"/>
      <path d="M 6.59375 -19.875 
L 6.59375 51.859375 
L 14.59375 51.859375 
L 14.59375 45.125 
Q 17.4375 49.078125 21 51.046875 
Q 24.5625 53.03125 29.640625 53.03125 
Q 36.28125 53.03125 41.359375 49.609375 
Q 46.4375 46.1875 49.015625 39.953125 
Q 51.609375 33.734375 51.609375 26.3125 
Q 51.609375 18.359375 48.75 11.984375 
Q 45.90625 5.609375 40.453125 2.21875 
Q 35.015625 -1.171875 29 -1.171875 
Q 24.609375 -1.171875 21.109375 0.6875 
Q 17.625 2.546875 15.375 5.375 
L 15.375 -19.875 
z
M 14.546875 25.640625 
Q 14.546875 15.625 18.59375 10.84375 
Q 22.65625 6.0625 28.421875 6.0625 
Q 34.28125 6.0625 38.453125 11.015625 
Q 42.625 15.96875 42.625 26.375 
Q 42.625 36.28125 38.546875 41.203125 
Q 34.46875 46.140625 28.8125 46.140625 
Q 23.1875 46.140625 18.859375 40.890625 
Q 14.546875 35.640625 14.546875 25.640625 
z
" id="ArialMT-112"/>
      <path d="M 23.390625 -21.046875 
Q 16.109375 -11.859375 11.078125 0.4375 
Q 6.0625 12.75 6.0625 25.921875 
Q 6.0625 37.546875 9.8125 48.1875 
Q 14.203125 60.546875 23.390625 72.796875 
L 29.6875 72.796875 
Q 23.78125 62.640625 21.875 58.296875 
Q 18.890625 51.5625 17.1875 44.234375 
Q 15.09375 35.109375 15.09375 25.875 
Q 15.09375 2.390625 29.6875 -21.046875 
z
" id="ArialMT-40"/>
      <path d="M 5.8125 54.390625 
Q 5.8125 62.0625 9.671875 67.421875 
Q 13.53125 72.796875 20.84375 72.796875 
Q 27.59375 72.796875 32 67.984375 
Q 36.421875 63.1875 36.421875 53.859375 
Q 36.421875 44.78125 31.953125 39.875 
Q 27.484375 34.96875 20.953125 34.96875 
Q 14.453125 34.96875 10.125 39.796875 
Q 5.8125 44.625 5.8125 54.390625 
z
M 21.09375 66.75 
Q 17.828125 66.75 15.65625 63.90625 
Q 13.484375 61.078125 13.484375 53.515625 
Q 13.484375 46.625 15.671875 43.8125 
Q 17.875 41.015625 21.09375 41.015625 
Q 24.421875 41.015625 26.59375 43.84375 
Q 28.765625 46.6875 28.765625 54.203125 
Q 28.765625 61.140625 26.5625 63.9375 
Q 24.359375 66.75 21.09375 66.75 
z
M 21.140625 -2.640625 
L 60.296875 72.796875 
L 67.4375 72.796875 
L 28.421875 -2.640625 
z
M 52.09375 16.796875 
Q 52.09375 24.515625 55.953125 29.859375 
Q 59.8125 35.203125 67.1875 35.203125 
Q 73.921875 35.203125 78.34375 30.390625 
Q 82.765625 25.59375 82.765625 16.265625 
Q 82.765625 7.171875 78.296875 2.265625 
Q 73.828125 -2.640625 67.234375 -2.640625 
Q 60.75 -2.640625 56.421875 2.21875 
Q 52.09375 7.078125 52.09375 16.796875 
z
M 67.4375 29.15625 
Q 64.109375 29.15625 61.9375 26.3125 
Q 59.765625 23.484375 59.765625 15.921875 
Q 59.765625 9.078125 61.953125 6.25 
Q 64.15625 3.421875 67.390625 3.421875 
Q 70.75 3.421875 72.921875 6.25 
Q 75.09375 9.078125 75.09375 16.609375 
Q 75.09375 23.53125 72.890625 26.34375 
Q 70.703125 29.15625 67.4375 29.15625 
z
" id="ArialMT-37"/>
      <path d="M 12.359375 -21.046875 
L 6.0625 -21.046875 
Q 20.65625 2.390625 20.65625 25.875 
Q 20.65625 35.0625 18.5625 44.09375 
Q 16.890625 51.421875 13.921875 58.15625 
Q 12.015625 62.546875 6.0625 72.796875 
L 12.359375 72.796875 
Q 21.53125 60.546875 25.921875 48.1875 
Q 29.6875 37.546875 29.6875 25.921875 
Q 29.6875 12.75 24.625 0.4375 
Q 19.578125 -11.859375 12.359375 -21.046875 
z
" id="ArialMT-41"/>
     </defs>
     <g style="fill:#262626;" transform="translate(10.634687 360.30375)rotate(-90)scale(0.24 -0.24)">
      <use xlink:href="#ArialMT-82"/>
      <use x="72.216797" xlink:href="#ArialMT-101"/>
      <use x="127.832031" xlink:href="#ArialMT-99"/>
      <use x="177.832031" xlink:href="#ArialMT-117"/>
      <use x="233.447266" xlink:href="#ArialMT-114"/>
      <use x="266.748047" xlink:href="#ArialMT-114"/>
      <use x="300.048828" xlink:href="#ArialMT-101"/>
      <use x="355.664062" xlink:href="#ArialMT-110"/>
      <use x="411.279297" xlink:href="#ArialMT-116"/>
      <use x="439.0625" xlink:href="#ArialMT-32"/>
      <use x="466.845703" xlink:href="#ArialMT-100"/>
      <use x="522.460938" xlink:href="#ArialMT-114"/>
      <use x="555.761719" xlink:href="#ArialMT-111"/>
      <use x="611.376953" xlink:href="#ArialMT-112"/>
      <use x="666.992188" xlink:href="#ArialMT-111"/>
      <use x="722.607422" xlink:href="#ArialMT-117"/>
      <use x="778.222656" xlink:href="#ArialMT-116"/>
      <use x="806.005859" xlink:href="#ArialMT-32"/>
      <use x="833.789062" xlink:href="#ArialMT-114"/>
      <use x="867.089844" xlink:href="#ArialMT-97"/>
      <use x="922.705078" xlink:href="#ArialMT-116"/>
      <use x="950.488281" xlink:href="#ArialMT-105"/>
      <use x="972.705078" xlink:href="#ArialMT-111"/>
      <use x="1028.320312" xlink:href="#ArialMT-32"/>
      <use x="1056.103516" xlink:href="#ArialMT-40"/>
      <use x="1089.404297" xlink:href="#ArialMT-37"/>
      <use x="1178.320312" xlink:href="#ArialMT-41"/>
     </g>
    </g>
   </g>
   <g id="PolyCollection_1">
    <defs>
     <path d="M 146.89622 -68.825455 
L 118.849234 -68.825455 
L 118.357288 -71.256845 
L 117.858221 -73.688235 
L 117.351597 -76.119625 
L 116.836929 -78.551016 
L 116.313693 -80.982406 
L 115.781336 -83.413796 
L 115.239293 -85.845186 
L 114.687 -88.276577 
L 114.123913 -90.707967 
L 113.549524 -93.139357 
L 112.963382 -95.570747 
L 112.365111 -98.002138 
L 111.75443 -100.433528 
L 111.131172 -102.864918 
L 110.495304 -105.296308 
L 109.846945 -107.727699 
L 109.186383 -110.159089 
L 108.514093 -112.590479 
L 107.830744 -115.021869 
L 107.13722 -117.45326 
L 106.434618 -119.88465 
L 105.724262 -122.31604 
L 105.007699 -124.747431 
L 104.286702 -127.178821 
L 103.563262 -129.610211 
L 102.839577 -132.041601 
L 102.118045 -134.472992 
L 101.401239 -136.904382 
L 100.691893 -139.335772 
L 99.992871 -141.767162 
L 99.307144 -144.198553 
L 98.637753 -146.629943 
L 97.987778 -149.061333 
L 97.360302 -151.492723 
L 96.758366 -153.924114 
L 96.184936 -156.355504 
L 95.64286 -158.786894 
L 95.134822 -161.218284 
L 94.66331 -163.649675 
L 94.230569 -166.081065 
L 93.83857 -168.512455 
L 93.488973 -170.943845 
L 93.183094 -173.375236 
L 92.921884 -175.806626 
L 92.7059 -178.238016 
L 92.535293 -180.669407 
L 92.409794 -183.100797 
L 92.328706 -185.532187 
L 92.290909 -187.963577 
L 92.294865 -190.394968 
L 92.338629 -192.826358 
L 92.419871 -195.257748 
L 92.535899 -197.689138 
L 92.683693 -200.120529 
L 92.85994 -202.551919 
L 93.061076 -204.983309 
L 93.283334 -207.414699 
L 93.522792 -209.84609 
L 93.775425 -212.27748 
L 94.037165 -214.70887 
L 94.303953 -217.14026 
L 94.571798 -219.571651 
L 94.836835 -222.003041 
L 95.095379 -224.434431 
L 95.343979 -226.865821 
L 95.579469 -229.297212 
L 95.799014 -231.728602 
L 96.000155 -234.159992 
L 96.180841 -236.591382 
L 96.339465 -239.022773 
L 96.474887 -241.454163 
L 96.586455 -243.885553 
L 96.674009 -246.316944 
L 96.737896 -248.748334 
L 96.778956 -251.179724 
L 96.798519 -253.611114 
L 96.798385 -256.042505 
L 96.780799 -258.473895 
L 96.748422 -260.905285 
L 96.704292 -263.336675 
L 96.651785 -265.768066 
L 96.594562 -268.199456 
L 96.536526 -270.630846 
L 96.481761 -273.062236 
L 96.434478 -275.493627 
L 96.398958 -277.925017 
L 96.379488 -280.356407 
L 96.380307 -282.787797 
L 96.405545 -285.219188 
L 96.459166 -287.650578 
L 96.544918 -290.081968 
L 96.666279 -292.513358 
L 96.826413 -294.944749 
L 97.02813 -297.376139 
L 97.273846 -299.807529 
L 97.565556 -302.23892 
L 97.904809 -304.67031 
L 98.292689 -307.1017 
L 98.729807 -309.53309 
L 167.015648 -309.53309 
L 167.015648 -309.53309 
L 167.452766 -307.1017 
L 167.840646 -304.67031 
L 168.179898 -302.23892 
L 168.471608 -299.807529 
L 168.717324 -297.376139 
L 168.919041 -294.944749 
L 169.079176 -292.513358 
L 169.200537 -290.081968 
L 169.286289 -287.650578 
L 169.33991 -285.219188 
L 169.365147 -282.787797 
L 169.365966 -280.356407 
L 169.346497 -277.925017 
L 169.310976 -275.493627 
L 169.263694 -273.062236 
L 169.208929 -270.630846 
L 169.150893 -268.199456 
L 169.09367 -265.768066 
L 169.041162 -263.336675 
L 168.997032 -260.905285 
L 168.964656 -258.473895 
L 168.94707 -256.042505 
L 168.946936 -253.611114 
L 168.966499 -251.179724 
L 169.007559 -248.748334 
L 169.071445 -246.316944 
L 169.159 -243.885553 
L 169.270567 -241.454163 
L 169.40599 -239.022773 
L 169.564614 -236.591382 
L 169.7453 -234.159992 
L 169.94644 -231.728602 
L 170.165986 -229.297212 
L 170.401476 -226.865821 
L 170.650076 -224.434431 
L 170.908619 -222.003041 
L 171.173657 -219.571651 
L 171.441502 -217.14026 
L 171.70829 -214.70887 
L 171.97003 -212.27748 
L 172.222663 -209.84609 
L 172.46212 -207.414699 
L 172.684378 -204.983309 
L 172.885515 -202.551919 
L 173.061762 -200.120529 
L 173.209555 -197.689138 
L 173.325584 -195.257748 
L 173.406825 -192.826358 
L 173.450589 -190.394968 
L 173.454545 -187.963577 
L 173.416749 -185.532187 
L 173.335661 -183.100797 
L 173.210161 -180.669407 
L 173.039554 -178.238016 
L 172.82357 -175.806626 
L 172.56236 -173.375236 
L 172.256482 -170.943845 
L 171.906884 -168.512455 
L 171.514885 -166.081065 
L 171.082145 -163.649675 
L 170.610632 -161.218284 
L 170.102595 -158.786894 
L 169.560518 -156.355504 
L 168.987089 -153.924114 
L 168.385153 -151.492723 
L 167.757676 -149.061333 
L 167.107702 -146.629943 
L 166.43831 -144.198553 
L 165.752583 -141.767162 
L 165.053562 -139.335772 
L 164.344215 -136.904382 
L 163.62741 -134.472992 
L 162.905877 -132.041601 
L 162.182193 -129.610211 
L 161.458752 -127.178821 
L 160.737755 -124.747431 
L 160.021193 -122.31604 
L 159.310836 -119.88465 
L 158.608235 -117.45326 
L 157.91471 -115.021869 
L 157.231362 -112.590479 
L 156.559071 -110.159089 
L 155.89851 -107.727699 
L 155.250151 -105.296308 
L 154.614282 -102.864918 
L 153.991024 -100.433528 
L 153.380343 -98.002138 
L 152.782072 -95.570747 
L 152.195931 -93.139357 
L 151.621542 -90.707967 
L 151.058455 -88.276577 
L 150.506162 -85.845186 
L 149.964118 -83.413796 
L 149.431761 -80.982406 
L 148.908525 -78.551016 
L 148.393858 -76.119625 
L 147.887234 -73.688235 
L 147.388167 -71.256845 
L 146.89622 -68.825455 
z
" id="mfac0463b43" style="stroke:#ffffff;stroke-opacity:0.3;"/>
    </defs>
    <g clip-path="url(#pc2ed44bfce)">
     <use style="fill:#4c72b0;fill-opacity:0.3;stroke:#ffffff;stroke-opacity:0.3;" x="0" xlink:href="#mfac0463b43" y="432"/>
    </g>
   </g>
   <g id="PolyCollection_2">
    <defs>
     <path d="M 326.565437 -87.719687 
L 263.834563 -87.719687 
L 263.357468 -90.523878 
L 262.919412 -93.328068 
L 262.519454 -96.132259 
L 262.156248 -98.936449 
L 261.828057 -101.74064 
L 261.532789 -104.54483 
L 261.268028 -107.349021 
L 261.031078 -110.153211 
L 260.819002 -112.957402 
L 260.62868 -115.761592 
L 260.456855 -118.565783 
L 260.30019 -121.369973 
L 260.155324 -124.174164 
L 260.018929 -126.978354 
L 259.887764 -129.782545 
L 259.758731 -132.586735 
L 259.628926 -135.390926 
L 259.495691 -138.195116 
L 259.35665 -140.999307 
L 259.209758 -143.803497 
L 259.053327 -146.607688 
L 258.88606 -149.411878 
L 258.707066 -152.216069 
L 258.515879 -155.020259 
L 258.312463 -157.82445 
L 258.097214 -160.62864 
L 257.870951 -163.432831 
L 257.634902 -166.237021 
L 257.390688 -169.041212 
L 257.14029 -171.845402 
L 256.886025 -174.649592 
L 256.6305 -177.453783 
L 256.376581 -180.257973 
L 256.127337 -183.062164 
L 255.886003 -185.866354 
L 255.655922 -188.670545 
L 255.440497 -191.474735 
L 255.243141 -194.278926 
L 255.067224 -197.083116 
L 254.916026 -199.887307 
L 254.792685 -202.691497 
L 254.700156 -205.495688 
L 254.641167 -208.299878 
L 254.618182 -211.104069 
L 254.633369 -213.908259 
L 254.688572 -216.71245 
L 254.785283 -219.51664 
L 254.924629 -222.320831 
L 255.107361 -225.125021 
L 255.333843 -227.929212 
L 255.604053 -230.733402 
L 255.917589 -233.537593 
L 256.273676 -236.341783 
L 256.671186 -239.145974 
L 257.10865 -241.950164 
L 257.584288 -244.754355 
L 258.096034 -247.558545 
L 258.641566 -250.362736 
L 259.21834 -253.166926 
L 259.823626 -255.971117 
L 260.454543 -258.775307 
L 261.108098 -261.579498 
L 261.781223 -264.383688 
L 262.470815 -267.187878 
L 263.173768 -269.992069 
L 263.887013 -272.796259 
L 264.60755 -275.60045 
L 265.332477 -278.40464 
L 266.059023 -281.208831 
L 266.784568 -284.013021 
L 267.506672 -286.817212 
L 268.223088 -289.621402 
L 268.931779 -292.425593 
L 269.630933 -295.229783 
L 270.318967 -298.033974 
L 270.994533 -300.838164 
L 271.656519 -303.642355 
L 272.304046 -306.446545 
L 272.936465 -309.250736 
L 273.553344 -312.054926 
L 274.15446 -314.859117 
L 274.739787 -317.663307 
L 275.309475 -320.467498 
L 275.86384 -323.271688 
L 276.403337 -326.075879 
L 276.928549 -328.880069 
L 277.440162 -331.68426 
L 277.938945 -334.48845 
L 278.425728 -337.292641 
L 278.901387 -340.096831 
L 279.366818 -342.901022 
L 279.822924 -345.705212 
L 280.270592 -348.509403 
L 280.710681 -351.313593 
L 281.144006 -354.117784 
L 281.571325 -356.921974 
L 281.993325 -359.726164 
L 282.410617 -362.530355 
L 282.823727 -365.334545 
L 307.576273 -365.334545 
L 307.576273 -365.334545 
L 307.989383 -362.530355 
L 308.406675 -359.726164 
L 308.828675 -356.921974 
L 309.255994 -354.117784 
L 309.689319 -351.313593 
L 310.129408 -348.509403 
L 310.577076 -345.705212 
L 311.033182 -342.901022 
L 311.498613 -340.096831 
L 311.974272 -337.292641 
L 312.461055 -334.48845 
L 312.959838 -331.68426 
L 313.471451 -328.880069 
L 313.996663 -326.075879 
L 314.53616 -323.271688 
L 315.090525 -320.467498 
L 315.660213 -317.663307 
L 316.24554 -314.859117 
L 316.846656 -312.054926 
L 317.463535 -309.250736 
L 318.095954 -306.446545 
L 318.743481 -303.642355 
L 319.405467 -300.838164 
L 320.081033 -298.033974 
L 320.769067 -295.229783 
L 321.468221 -292.425593 
L 322.176912 -289.621402 
L 322.893328 -286.817212 
L 323.615432 -284.013021 
L 324.340977 -281.208831 
L 325.067523 -278.40464 
L 325.79245 -275.60045 
L 326.512987 -272.796259 
L 327.226232 -269.992069 
L 327.929185 -267.187878 
L 328.618777 -264.383688 
L 329.291902 -261.579498 
L 329.945457 -258.775307 
L 330.576374 -255.971117 
L 331.18166 -253.166926 
L 331.758434 -250.362736 
L 332.303966 -247.558545 
L 332.815712 -244.754355 
L 333.29135 -241.950164 
L 333.728814 -239.145974 
L 334.126324 -236.341783 
L 334.482411 -233.537593 
L 334.795947 -230.733402 
L 335.066157 -227.929212 
L 335.292639 -225.125021 
L 335.475371 -222.320831 
L 335.614717 -219.51664 
L 335.711428 -216.71245 
L 335.766631 -213.908259 
L 335.781818 -211.104069 
L 335.758833 -208.299878 
L 335.699844 -205.495688 
L 335.607315 -202.691497 
L 335.483974 -199.887307 
L 335.332776 -197.083116 
L 335.156859 -194.278926 
L 334.959503 -191.474735 
L 334.744078 -188.670545 
L 334.513997 -185.866354 
L 334.272663 -183.062164 
L 334.023419 -180.257973 
L 333.7695 -177.453783 
L 333.513975 -174.649592 
L 333.25971 -171.845402 
L 333.009312 -169.041212 
L 332.765098 -166.237021 
L 332.529049 -163.432831 
L 332.302786 -160.62864 
L 332.087537 -157.82445 
L 331.884121 -155.020259 
L 331.692934 -152.216069 
L 331.51394 -149.411878 
L 331.346673 -146.607688 
L 331.190242 -143.803497 
L 331.04335 -140.999307 
L 330.904309 -138.195116 
L 330.771074 -135.390926 
L 330.641269 -132.586735 
L 330.512236 -129.782545 
L 330.381071 -126.978354 
L 330.244676 -124.174164 
L 330.09981 -121.369973 
L 329.943145 -118.565783 
L 329.77132 -115.761592 
L 329.580998 -112.957402 
L 329.368922 -110.153211 
L 329.131972 -107.349021 
L 328.867211 -104.54483 
L 328.571943 -101.74064 
L 328.243752 -98.936449 
L 327.880546 -96.132259 
L 327.480588 -93.328068 
L 327.042532 -90.523878 
L 326.565437 -87.719687 
z
" id="mf4364b0116" style="stroke:#ffffff;stroke-opacity:0.3;"/>
    </defs>
    <g clip-path="url(#pc2ed44bfce)">
     <use style="fill:#4c72b0;fill-opacity:0.3;stroke:#ffffff;stroke-opacity:0.3;" x="0" xlink:href="#mf4364b0116" y="432"/>
    </g>
   </g>
   <g id="PolyCollection_3">
    <defs>
     <path d="M 479.336719 -81.989091 
L 435.717826 -81.989091 
L 434.877837 -84.806136 
L 434.048727 -87.623181 
L 433.233115 -90.440227 
L 432.433493 -93.257272 
L 431.652202 -96.074317 
L 430.891398 -98.891363 
L 430.153029 -101.708408 
L 429.438812 -104.525453 
L 428.750208 -107.342499 
L 428.088406 -110.159544 
L 427.454312 -112.976589 
L 426.848533 -115.793635 
L 426.271377 -118.61068 
L 425.722851 -121.427725 
L 425.202664 -124.244771 
L 424.710243 -127.061816 
L 424.244741 -129.878861 
L 423.805062 -132.695907 
L 423.389887 -135.512952 
L 422.997705 -138.329997 
L 422.626844 -141.147043 
L 422.275515 -143.964088 
L 421.941851 -146.781133 
L 421.623955 -149.598179 
L 421.319941 -152.415224 
L 421.027986 -155.232269 
L 420.746375 -158.049315 
L 420.473546 -160.86636 
L 420.208135 -163.683405 
L 419.949016 -166.500451 
L 419.695336 -169.317496 
L 419.446545 -172.134541 
L 419.202425 -174.951587 
L 418.963102 -177.768632 
L 418.729062 -180.585678 
L 418.501151 -183.402723 
L 418.280569 -186.219768 
L 418.068858 -189.036814 
L 417.867881 -191.853859 
L 417.679788 -194.670904 
L 417.506984 -197.48795 
L 417.35208 -200.304995 
L 417.217848 -203.12204 
L 417.107164 -205.939086 
L 417.022947 -208.756131 
L 416.968102 -211.573176 
L 416.945455 -214.390222 
L 416.957691 -217.207267 
L 417.007298 -220.024312 
L 417.0965 -222.841358 
L 417.227216 -225.658403 
L 417.401001 -228.475448 
L 417.619013 -231.292494 
L 417.881979 -234.109539 
L 418.190167 -236.926584 
L 418.543372 -239.74363 
L 418.940913 -242.560675 
L 419.381631 -245.37772 
L 419.863908 -248.194766 
L 420.385685 -251.011811 
L 420.944495 -253.828856 
L 421.5375 -256.645902 
L 422.16154 -259.462947 
L 422.813183 -262.279992 
L 423.488782 -265.097038 
L 424.184537 -267.914083 
L 424.896552 -270.731128 
L 425.620907 -273.548174 
L 426.353712 -276.365219 
L 427.091173 -279.182265 
L 427.829647 -281.99931 
L 428.565697 -284.816355 
L 429.296137 -287.633401 
L 430.018075 -290.450446 
L 430.728947 -293.267491 
L 431.426544 -296.084537 
L 432.109031 -298.901582 
L 432.774958 -301.718627 
L 433.423263 -304.535673 
L 434.053267 -307.352718 
L 434.66466 -310.169763 
L 435.257489 -312.986809 
L 435.832122 -315.803854 
L 436.389229 -318.620899 
L 436.929739 -321.437945 
L 437.454805 -324.25499 
L 437.965762 -327.072035 
L 438.464085 -329.889081 
L 438.951344 -332.706126 
L 439.429164 -335.523171 
L 439.899183 -338.340217 
L 440.363007 -341.157262 
L 440.822181 -343.974307 
L 441.278152 -346.791353 
L 441.732235 -349.608398 
L 442.185598 -352.425443 
L 442.639231 -355.242489 
L 443.093939 -358.059534 
L 443.550324 -360.876579 
L 471.504222 -360.876579 
L 471.504222 -360.876579 
L 471.960607 -358.059534 
L 472.415314 -355.242489 
L 472.868948 -352.425443 
L 473.32231 -349.608398 
L 473.776394 -346.791353 
L 474.232364 -343.974307 
L 474.691538 -341.157262 
L 475.155363 -338.340217 
L 475.625381 -335.523171 
L 476.103202 -332.706126 
L 476.590461 -329.889081 
L 477.088783 -327.072035 
L 477.59974 -324.25499 
L 478.124806 -321.437945 
L 478.665316 -318.620899 
L 479.222423 -315.803854 
L 479.797057 -312.986809 
L 480.389885 -310.169763 
L 481.001279 -307.352718 
L 481.631282 -304.535673 
L 482.279587 -301.718627 
L 482.945514 -298.901582 
L 483.628001 -296.084537 
L 484.325599 -293.267491 
L 485.03647 -290.450446 
L 485.758408 -287.633401 
L 486.488848 -284.816355 
L 487.224898 -281.99931 
L 487.963372 -279.182265 
L 488.700834 -276.365219 
L 489.433639 -273.548174 
L 490.157993 -270.731128 
L 490.870009 -267.914083 
L 491.565763 -265.097038 
L 492.241362 -262.279992 
L 492.893006 -259.462947 
L 493.517046 -256.645902 
L 494.110051 -253.828856 
L 494.66886 -251.011811 
L 495.190637 -248.194766 
L 495.672914 -245.37772 
L 496.113633 -242.560675 
L 496.511173 -239.74363 
L 496.864379 -236.926584 
L 497.172566 -234.109539 
L 497.435532 -231.292494 
L 497.653545 -228.475448 
L 497.82733 -225.658403 
L 497.958045 -222.841358 
L 498.047248 -220.024312 
L 498.096854 -217.207267 
L 498.109091 -214.390222 
L 498.086444 -211.573176 
L 498.031598 -208.756131 
L 497.947381 -205.939086 
L 497.836697 -203.12204 
L 497.702465 -200.304995 
L 497.547562 -197.48795 
L 497.374757 -194.670904 
L 497.186664 -191.853859 
L 496.985687 -189.036814 
L 496.773977 -186.219768 
L 496.553395 -183.402723 
L 496.325484 -180.585678 
L 496.091444 -177.768632 
L 495.852121 -174.951587 
L 495.608 -172.134541 
L 495.35921 -169.317496 
L 495.105529 -166.500451 
L 494.84641 -163.683405 
L 494.580999 -160.86636 
L 494.30817 -158.049315 
L 494.026559 -155.232269 
L 493.734604 -152.415224 
L 493.43059 -149.598179 
L 493.112694 -146.781133 
L 492.779031 -143.964088 
L 492.427702 -141.147043 
L 492.056841 -138.329997 
L 491.664658 -135.512952 
L 491.249484 -132.695907 
L 490.809805 -129.878861 
L 490.344302 -127.061816 
L 489.851881 -124.244771 
L 489.331695 -121.427725 
L 488.783169 -118.61068 
L 488.206013 -115.793635 
L 487.600233 -112.976589 
L 486.966139 -110.159544 
L 486.304338 -107.342499 
L 485.615733 -104.525453 
L 484.901516 -101.708408 
L 484.163148 -98.891363 
L 483.402343 -96.074317 
L 482.621052 -93.257272 
L 481.821431 -90.440227 
L 481.005818 -87.623181 
L 480.176708 -84.806136 
L 479.336719 -81.989091 
z
" id="md0b075abb9" style="stroke:#ffffff;stroke-opacity:0.3;"/>
    </defs>
    <g clip-path="url(#pc2ed44bfce)">
     <use style="fill:#4c72b0;fill-opacity:0.3;stroke:#ffffff;stroke-opacity:0.3;" x="0" xlink:href="#md0b075abb9" y="432"/>
    </g>
   </g>
   <g id="LineCollection_1">
    <path clip-path="url(#pc2ed44bfce)" d="M 112.581818 122.46691 
L 153.163636 122.46691 
" style="fill:none;stroke:#4c72b0;stroke-width:1.5;"/>
    <path clip-path="url(#pc2ed44bfce)" d="M 274.909091 66.665455 
L 315.490909 66.665455 
" style="fill:none;stroke:#4c72b0;stroke-width:1.5;"/>
    <path clip-path="url(#pc2ed44bfce)" d="M 437.236364 71.123421 
L 477.818182 71.123421 
" style="fill:none;stroke:#4c72b0;stroke-width:1.5;"/>
   </g>
   <g id="LineCollection_2">
    <path clip-path="url(#pc2ed44bfce)" d="M 112.581818 363.174545 
L 153.163636 363.174545 
" style="fill:none;stroke:#4c72b0;stroke-width:1.5;"/>
    <path clip-path="url(#pc2ed44bfce)" d="M 274.909091 344.280313 
L 315.490909 344.280313 
" style="fill:none;stroke:#4c72b0;stroke-width:1.5;"/>
    <path clip-path="url(#pc2ed44bfce)" d="M 437.236364 350.010909 
L 477.818182 350.010909 
" style="fill:none;stroke:#4c72b0;stroke-width:1.5;"/>
   </g>
   <g id="LineCollection_3">
    <path clip-path="url(#pc2ed44bfce)" d="M 132.872727 363.174545 
L 132.872727 122.46691 
" style="fill:none;stroke:#4c72b0;stroke-width:1.5;"/>
    <path clip-path="url(#pc2ed44bfce)" d="M 295.2 344.280313 
L 295.2 66.665455 
" style="fill:none;stroke:#4c72b0;stroke-width:1.5;"/>
    <path clip-path="url(#pc2ed44bfce)" d="M 457.527273 350.010909 
L 457.527273 71.123421 
" style="fill:none;stroke:#4c72b0;stroke-width:1.5;"/>
   </g>
   <g id="LineCollection_4">
    <path clip-path="url(#pc2ed44bfce)" d="M 112.581818 237.493414 
L 153.163636 237.493414 
" style="fill:none;stroke:#4c72b0;stroke-width:1.5;"/>
    <path clip-path="url(#pc2ed44bfce)" d="M 274.909091 228.449477 
L 315.490909 228.449477 
" style="fill:none;stroke:#4c72b0;stroke-width:1.5;"/>
    <path clip-path="url(#pc2ed44bfce)" d="M 437.236364 207.857044 
L 477.818182 207.857044 
" style="fill:none;stroke:#4c72b0;stroke-width:1.5;"/>
   </g>
   <g id="patch_3">
    <path d="M 72 378 
L 72 51.84 
" style="fill:none;stroke:#ffffff;stroke-linecap:square;stroke-linejoin:miter;stroke-width:1.25;"/>
   </g>
   <g id="patch_4">
    <path d="M 518.4 378 
L 518.4 51.84 
" style="fill:none;stroke:#ffffff;stroke-linecap:square;stroke-linejoin:miter;stroke-width:1.25;"/>
   </g>
   <g id="patch_5">
    <path d="M 72 378 
L 518.4 378 
" style="fill:none;stroke:#ffffff;stroke-linecap:square;stroke-linejoin:miter;stroke-width:1.25;"/>
   </g>
   <g id="patch_6">
    <path d="M 72 51.84 
L 518.4 51.84 
" style="fill:none;stroke:#ffffff;stroke-linecap:square;stroke-linejoin:miter;stroke-width:1.25;"/>
   </g>
   <g id="text_11">
    <!-- Recurrent dropout ratio: Island DNN (top 12 models) -->
    <defs>
     <path d="M 9.03125 41.84375 
L 9.03125 51.859375 
L 19.046875 51.859375 
L 19.046875 41.84375 
z
M 9.03125 0 
L 9.03125 10.015625 
L 19.046875 10.015625 
L 19.046875 0 
z
" id="ArialMT-58"/>
     <path d="M 9.328125 0 
L 9.328125 71.578125 
L 18.796875 71.578125 
L 18.796875 0 
z
" id="ArialMT-73"/>
     <path d="M 6.390625 0 
L 6.390625 71.578125 
L 15.1875 71.578125 
L 15.1875 0 
z
" id="ArialMT-108"/>
     <path d="M 7.71875 0 
L 7.71875 71.578125 
L 32.375 71.578125 
Q 40.71875 71.578125 45.125 70.5625 
Q 51.265625 69.140625 55.609375 65.4375 
Q 61.28125 60.640625 64.078125 53.1875 
Q 66.890625 45.75 66.890625 36.1875 
Q 66.890625 28.03125 64.984375 21.734375 
Q 63.09375 15.4375 60.109375 11.296875 
Q 57.125 7.171875 53.578125 4.796875 
Q 50.046875 2.4375 45.046875 1.21875 
Q 40.046875 0 33.546875 0 
z
M 17.1875 8.453125 
L 32.46875 8.453125 
Q 39.546875 8.453125 43.578125 9.765625 
Q 47.609375 11.078125 50 13.484375 
Q 53.375 16.84375 55.25 22.53125 
Q 57.125 28.21875 57.125 36.328125 
Q 57.125 47.5625 53.4375 53.59375 
Q 49.75 59.625 44.484375 61.671875 
Q 40.671875 63.140625 32.234375 63.140625 
L 17.1875 63.140625 
z
" id="ArialMT-68"/>
     <path d="M 6.59375 0 
L 6.59375 51.859375 
L 14.453125 51.859375 
L 14.453125 44.578125 
Q 16.890625 48.390625 20.9375 50.703125 
Q 25 53.03125 30.171875 53.03125 
Q 35.9375 53.03125 39.625 50.640625 
Q 43.3125 48.25 44.828125 43.953125 
Q 50.984375 53.03125 60.84375 53.03125 
Q 68.5625 53.03125 72.703125 48.75 
Q 76.859375 44.484375 76.859375 35.59375 
L 76.859375 0 
L 68.109375 0 
L 68.109375 32.671875 
Q 68.109375 37.9375 67.25 40.25 
Q 66.40625 42.578125 64.15625 43.984375 
Q 61.921875 45.40625 58.890625 45.40625 
Q 53.421875 45.40625 49.796875 41.765625 
Q 46.1875 38.140625 46.1875 30.125 
L 46.1875 0 
L 37.40625 0 
L 37.40625 33.6875 
Q 37.40625 39.546875 35.25 42.46875 
Q 33.109375 45.40625 28.21875 45.40625 
Q 24.515625 45.40625 21.359375 43.453125 
Q 18.21875 41.5 16.796875 37.734375 
Q 15.375 33.984375 15.375 26.90625 
L 15.375 0 
z
" id="ArialMT-109"/>
    </defs>
    <g style="fill:#262626;" transform="translate(17.0925 45.84)scale(0.24 -0.24)">
     <use xlink:href="#ArialMT-82"/>
     <use x="72.216797" xlink:href="#ArialMT-101"/>
     <use x="127.832031" xlink:href="#ArialMT-99"/>
     <use x="177.832031" xlink:href="#ArialMT-117"/>
     <use x="233.447266" xlink:href="#ArialMT-114"/>
     <use x="266.748047" xlink:href="#ArialMT-114"/>
     <use x="300.048828" xlink:href="#ArialMT-101"/>
     <use x="355.664062" xlink:href="#ArialMT-110"/>
     <use x="411.279297" xlink:href="#ArialMT-116"/>
     <use x="439.0625" xlink:href="#ArialMT-32"/>
     <use x="466.845703" xlink:href="#ArialMT-100"/>
     <use x="522.460938" xlink:href="#ArialMT-114"/>
     <use x="555.761719" xlink:href="#ArialMT-111"/>
     <use x="611.376953" xlink:href="#ArialMT-112"/>
     <use x="666.992188" xlink:href="#ArialMT-111"/>
     <use x="722.607422" xlink:href="#ArialMT-117"/>
     <use x="778.222656" xlink:href="#ArialMT-116"/>
     <use x="806.005859" xlink:href="#ArialMT-32"/>
     <use x="833.789062" xlink:href="#ArialMT-114"/>
     <use x="867.089844" xlink:href="#ArialMT-97"/>
     <use x="922.705078" xlink:href="#ArialMT-116"/>
     <use x="950.488281" xlink:href="#ArialMT-105"/>
     <use x="972.705078" xlink:href="#ArialMT-111"/>
     <use x="1028.320312" xlink:href="#ArialMT-58"/>
     <use x="1056.103516" xlink:href="#ArialMT-32"/>
     <use x="1083.886719" xlink:href="#ArialMT-73"/>
     <use x="1111.669922" xlink:href="#ArialMT-115"/>
     <use x="1161.669922" xlink:href="#ArialMT-108"/>
     <use x="1183.886719" xlink:href="#ArialMT-97"/>
     <use x="1239.501953" xlink:href="#ArialMT-110"/>
     <use x="1295.117188" xlink:href="#ArialMT-100"/>
     <use x="1350.732422" xlink:href="#ArialMT-32"/>
     <use x="1378.515625" xlink:href="#ArialMT-68"/>
     <use x="1450.732422" xlink:href="#ArialMT-78"/>
     <use x="1522.949219" xlink:href="#ArialMT-78"/>
     <use x="1595.166016" xlink:href="#ArialMT-32"/>
     <use x="1622.949219" xlink:href="#ArialMT-40"/>
     <use x="1656.25" xlink:href="#ArialMT-116"/>
     <use x="1684.033203" xlink:href="#ArialMT-111"/>
     <use x="1739.648438" xlink:href="#ArialMT-112"/>
     <use x="1795.263672" xlink:href="#ArialMT-32"/>
     <use x="1823.046875" xlink:href="#ArialMT-49"/>
     <use x="1878.662109" xlink:href="#ArialMT-50"/>
     <use x="1934.277344" xlink:href="#ArialMT-32"/>
     <use x="1962.060547" xlink:href="#ArialMT-109"/>
     <use x="2045.361328" xlink:href="#ArialMT-111"/>
     <use x="2100.976562" xlink:href="#ArialMT-100"/>
     <use x="2156.591797" xlink:href="#ArialMT-101"/>
     <use x="2212.207031" xlink:href="#ArialMT-108"/>
     <use x="2234.423828" xlink:href="#ArialMT-115"/>
     <use x="2284.423828" xlink:href="#ArialMT-41"/>
    </g>
   </g>
  </g>
 </g>
 <defs>
  <clipPath id="pc2ed44bfce">
   <rect height="326.16" width="446.4" x="72" y="51.84"/>
  </clipPath>
 </defs>
</svg>
