<?xml version="1.0" encoding="utf-8" standalone="no"?>
<!DOCTYPE svg PUBLIC "-//W3C//DTD SVG 1.1//EN"
  "http://www.w3.org/Graphics/SVG/1.1/DTD/svg11.dtd">
<!-- Created with matplotlib (https://matplotlib.org/) -->
<svg height="288pt" version="1.1" viewBox="0 0 432 288" width="432pt" xmlns="http://www.w3.org/2000/svg" xmlns:xlink="http://www.w3.org/1999/xlink">
 <defs>
  <style type="text/css">
*{stroke-linecap:butt;stroke-linejoin:round;white-space:pre;}
  </style>
 </defs>
 <g id="figure_1">
  <g id="patch_1">
   <path d="M 0 288 
L 432 288 
L 432 0 
L 0 0 
z
" style="fill:#ffffff;"/>
  </g>
  <g id="axes_1">
   <g id="patch_2">
    <path d="M 54 252 
L 388.8 252 
L 388.8 34.56 
L 54 34.56 
z
" style="fill:#ffffff;"/>
   </g>
   <g id="PolyCollection_1">
    <path clip-path="url(#p845270391d)" d="M 170.672727 242.116364 
L 69.218182 242.116364 
L 69.218182 242.116364 
L 69.218182 242.116364 
L 69.218182 242.116364 
L 69.218182 242.116364 
L 69.218182 242.116364 
L 69.218182 242.116364 
L 69.218182 242.116364 
L 69.218182 242.116364 
L 69.218182 242.116364 
L 69.218182 242.116364 
L 69.218182 242.116364 
L 69.218182 242.116364 
L 69.218182 242.116364 
L 69.218182 242.116364 
L 69.218182 242.116364 
L 69.218182 242.116364 
L 69.218182 242.116364 
L 69.218182 242.116364 
L 69.218182 242.116364 
L 69.218182 242.116364 
L 69.218182 242.116364 
L 69.218182 242.116364 
L 69.218182 242.116364 
L 69.218182 242.116364 
L 69.218182 242.116364 
L 69.218182 242.116364 
L 69.218182 242.116364 
L 69.218182 242.116364 
L 69.218182 242.116364 
L 69.218182 242.116364 
L 69.218182 242.116364 
L 69.218182 242.116364 
L 69.218182 242.116364 
L 69.218182 242.116364 
L 69.218182 242.116364 
L 69.218182 242.116364 
L 69.218182 242.116364 
L 69.218182 242.116364 
L 69.218182 242.116364 
L 69.218182 242.116364 
L 69.218182 242.116364 
L 69.218182 242.116364 
L 69.218182 242.116364 
L 69.218182 242.116364 
L 69.218182 242.116364 
L 69.218182 242.116364 
L 69.218182 242.116364 
L 69.218182 242.116364 
L 69.218182 242.116364 
L 69.218182 242.116364 
L 69.218182 242.116364 
L 69.218182 242.116364 
L 69.218182 242.116364 
L 69.218182 242.116364 
L 69.218182 242.116364 
L 69.218182 242.116364 
L 69.218182 242.116364 
L 69.218182 242.116364 
L 69.218182 242.116364 
L 69.218182 242.116364 
L 69.218182 242.116364 
L 69.218182 242.116364 
L 69.218182 242.116364 
L 69.218182 242.116364 
L 69.218182 242.116364 
L 69.218182 242.116364 
L 69.218182 242.116364 
L 69.218182 242.116364 
L 69.218182 242.116364 
L 69.218182 242.116364 
L 69.218182 242.116364 
L 69.218182 242.116364 
L 69.218182 242.116364 
L 69.218182 242.116364 
L 69.218182 242.116364 
L 69.218182 242.116364 
L 69.218182 242.116364 
L 69.218182 242.116364 
L 69.218182 242.116364 
L 69.218182 242.116364 
L 69.218182 242.116364 
L 69.218182 242.116364 
L 69.218182 242.116364 
L 69.218182 242.116364 
L 69.218182 242.116364 
L 69.218182 242.116364 
L 69.218182 242.116364 
L 69.218182 242.116364 
L 69.218182 242.116364 
L 69.218182 242.116364 
L 69.218182 242.116364 
L 69.218182 242.116364 
L 69.218182 242.116364 
L 69.218182 242.116364 
L 69.218182 242.116364 
L 69.218182 242.116364 
L 69.218182 242.116364 
L 69.218182 242.116364 
L 69.218182 242.116364 
L 170.672727 242.116364 
L 170.672727 242.116364 
L 170.672727 242.116364 
L 170.672727 242.116364 
L 170.672727 242.116364 
L 170.672727 242.116364 
L 170.672727 242.116364 
L 170.672727 242.116364 
L 170.672727 242.116364 
L 170.672727 242.116364 
L 170.672727 242.116364 
L 170.672727 242.116364 
L 170.672727 242.116364 
L 170.672727 242.116364 
L 170.672727 242.116364 
L 170.672727 242.116364 
L 170.672727 242.116364 
L 170.672727 242.116364 
L 170.672727 242.116364 
L 170.672727 242.116364 
L 170.672727 242.116364 
L 170.672727 242.116364 
L 170.672727 242.116364 
L 170.672727 242.116364 
L 170.672727 242.116364 
L 170.672727 242.116364 
L 170.672727 242.116364 
L 170.672727 242.116364 
L 170.672727 242.116364 
L 170.672727 242.116364 
L 170.672727 242.116364 
L 170.672727 242.116364 
L 170.672727 242.116364 
L 170.672727 242.116364 
L 170.672727 242.116364 
L 170.672727 242.116364 
L 170.672727 242.116364 
L 170.672727 242.116364 
L 170.672727 242.116364 
L 170.672727 242.116364 
L 170.672727 242.116364 
L 170.672727 242.116364 
L 170.672727 242.116364 
L 170.672727 242.116364 
L 170.672727 242.116364 
L 170.672727 242.116364 
L 170.672727 242.116364 
L 170.672727 242.116364 
L 170.672727 242.116364 
L 170.672727 242.116364 
L 170.672727 242.116364 
L 170.672727 242.116364 
L 170.672727 242.116364 
L 170.672727 242.116364 
L 170.672727 242.116364 
L 170.672727 242.116364 
L 170.672727 242.116364 
L 170.672727 242.116364 
L 170.672727 242.116364 
L 170.672727 242.116364 
L 170.672727 242.116364 
L 170.672727 242.116364 
L 170.672727 242.116364 
L 170.672727 242.116364 
L 170.672727 242.116364 
L 170.672727 242.116364 
L 170.672727 242.116364 
L 170.672727 242.116364 
L 170.672727 242.116364 
L 170.672727 242.116364 
L 170.672727 242.116364 
L 170.672727 242.116364 
L 170.672727 242.116364 
L 170.672727 242.116364 
L 170.672727 242.116364 
L 170.672727 242.116364 
L 170.672727 242.116364 
L 170.672727 242.116364 
L 170.672727 242.116364 
L 170.672727 242.116364 
L 170.672727 242.116364 
L 170.672727 242.116364 
L 170.672727 242.116364 
L 170.672727 242.116364 
L 170.672727 242.116364 
L 170.672727 242.116364 
L 170.672727 242.116364 
L 170.672727 242.116364 
L 170.672727 242.116364 
L 170.672727 242.116364 
L 170.672727 242.116364 
L 170.672727 242.116364 
L 170.672727 242.116364 
L 170.672727 242.116364 
L 170.672727 242.116364 
L 170.672727 242.116364 
L 170.672727 242.116364 
L 170.672727 242.116364 
L 170.672727 242.116364 
L 170.672727 242.116364 
L 170.672727 242.116364 
z
" style="fill:#1f77b4;fill-opacity:0.3;"/>
   </g>
   <g id="PolyCollection_2">
    <path clip-path="url(#p845270391d)" d="M 373.581818 44.443636 
L 272.127273 44.443636 
L 272.127273 44.443636 
L 272.127273 44.443636 
L 272.127273 44.443636 
L 272.127273 44.443636 
L 272.127273 44.443636 
L 272.127273 44.443636 
L 272.127273 44.443636 
L 272.127273 44.443636 
L 272.127273 44.443636 
L 272.127273 44.443636 
L 272.127273 44.443636 
L 272.127273 44.443636 
L 272.127273 44.443636 
L 272.127273 44.443636 
L 272.127273 44.443636 
L 272.127273 44.443636 
L 272.127273 44.443636 
L 272.127273 44.443636 
L 272.127273 44.443636 
L 272.127273 44.443636 
L 272.127273 44.443636 
L 272.127273 44.443636 
L 272.127273 44.443636 
L 272.127273 44.443636 
L 272.127273 44.443636 
L 272.127273 44.443636 
L 272.127273 44.443636 
L 272.127273 44.443636 
L 272.127273 44.443636 
L 272.127273 44.443636 
L 272.127273 44.443636 
L 272.127273 44.443636 
L 272.127273 44.443636 
L 272.127273 44.443636 
L 272.127273 44.443636 
L 272.127273 44.443636 
L 272.127273 44.443636 
L 272.127273 44.443636 
L 272.127273 44.443636 
L 272.127273 44.443636 
L 272.127273 44.443636 
L 272.127273 44.443636 
L 272.127273 44.443636 
L 272.127273 44.443636 
L 272.127273 44.443636 
L 272.127273 44.443636 
L 272.127273 44.443636 
L 272.127273 44.443636 
L 272.127273 44.443636 
L 272.127273 44.443636 
L 272.127273 44.443636 
L 272.127273 44.443636 
L 272.127273 44.443636 
L 272.127273 44.443636 
L 272.127273 44.443636 
L 272.127273 44.443636 
L 272.127273 44.443636 
L 272.127273 44.443636 
L 272.127273 44.443636 
L 272.127273 44.443636 
L 272.127273 44.443636 
L 272.127273 44.443636 
L 272.127273 44.443636 
L 272.127273 44.443636 
L 272.127273 44.443636 
L 272.127273 44.443636 
L 272.127273 44.443636 
L 272.127273 44.443636 
L 272.127273 44.443636 
L 272.127273 44.443636 
L 272.127273 44.443636 
L 272.127273 44.443636 
L 272.127273 44.443636 
L 272.127273 44.443636 
L 272.127273 44.443636 
L 272.127273 44.443636 
L 272.127273 44.443636 
L 272.127273 44.443636 
L 272.127273 44.443636 
L 272.127273 44.443636 
L 272.127273 44.443636 
L 272.127273 44.443636 
L 272.127273 44.443636 
L 272.127273 44.443636 
L 272.127273 44.443636 
L 272.127273 44.443636 
L 272.127273 44.443636 
L 272.127273 44.443636 
L 272.127273 44.443636 
L 272.127273 44.443636 
L 272.127273 44.443636 
L 272.127273 44.443636 
L 272.127273 44.443636 
L 272.127273 44.443636 
L 272.127273 44.443636 
L 272.127273 44.443636 
L 272.127273 44.443636 
L 272.127273 44.443636 
L 272.127273 44.443636 
L 373.581818 44.443636 
L 373.581818 44.443636 
L 373.581818 44.443636 
L 373.581818 44.443636 
L 373.581818 44.443636 
L 373.581818 44.443636 
L 373.581818 44.443636 
L 373.581818 44.443636 
L 373.581818 44.443636 
L 373.581818 44.443636 
L 373.581818 44.443636 
L 373.581818 44.443636 
L 373.581818 44.443636 
L 373.581818 44.443636 
L 373.581818 44.443636 
L 373.581818 44.443636 
L 373.581818 44.443636 
L 373.581818 44.443636 
L 373.581818 44.443636 
L 373.581818 44.443636 
L 373.581818 44.443636 
L 373.581818 44.443636 
L 373.581818 44.443636 
L 373.581818 44.443636 
L 373.581818 44.443636 
L 373.581818 44.443636 
L 373.581818 44.443636 
L 373.581818 44.443636 
L 373.581818 44.443636 
L 373.581818 44.443636 
L 373.581818 44.443636 
L 373.581818 44.443636 
L 373.581818 44.443636 
L 373.581818 44.443636 
L 373.581818 44.443636 
L 373.581818 44.443636 
L 373.581818 44.443636 
L 373.581818 44.443636 
L 373.581818 44.443636 
L 373.581818 44.443636 
L 373.581818 44.443636 
L 373.581818 44.443636 
L 373.581818 44.443636 
L 373.581818 44.443636 
L 373.581818 44.443636 
L 373.581818 44.443636 
L 373.581818 44.443636 
L 373.581818 44.443636 
L 373.581818 44.443636 
L 373.581818 44.443636 
L 373.581818 44.443636 
L 373.581818 44.443636 
L 373.581818 44.443636 
L 373.581818 44.443636 
L 373.581818 44.443636 
L 373.581818 44.443636 
L 373.581818 44.443636 
L 373.581818 44.443636 
L 373.581818 44.443636 
L 373.581818 44.443636 
L 373.581818 44.443636 
L 373.581818 44.443636 
L 373.581818 44.443636 
L 373.581818 44.443636 
L 373.581818 44.443636 
L 373.581818 44.443636 
L 373.581818 44.443636 
L 373.581818 44.443636 
L 373.581818 44.443636 
L 373.581818 44.443636 
L 373.581818 44.443636 
L 373.581818 44.443636 
L 373.581818 44.443636 
L 373.581818 44.443636 
L 373.581818 44.443636 
L 373.581818 44.443636 
L 373.581818 44.443636 
L 373.581818 44.443636 
L 373.581818 44.443636 
L 373.581818 44.443636 
L 373.581818 44.443636 
L 373.581818 44.443636 
L 373.581818 44.443636 
L 373.581818 44.443636 
L 373.581818 44.443636 
L 373.581818 44.443636 
L 373.581818 44.443636 
L 373.581818 44.443636 
L 373.581818 44.443636 
L 373.581818 44.443636 
L 373.581818 44.443636 
L 373.581818 44.443636 
L 373.581818 44.443636 
L 373.581818 44.443636 
L 373.581818 44.443636 
L 373.581818 44.443636 
L 373.581818 44.443636 
L 373.581818 44.443636 
L 373.581818 44.443636 
L 373.581818 44.443636 
L 373.581818 44.443636 
z
" style="fill:#1f77b4;fill-opacity:0.3;"/>
   </g>
   <g id="matplotlib.axis_1">
    <g id="xtick_1">
     <g id="line2d_1">
      <defs>
       <path d="M 0 0 
L 0 3.5 
" id="mf9eb2bfa53" style="stroke:#000000;stroke-width:0.8;"/>
      </defs>
      <g>
       <use style="stroke:#000000;stroke-width:0.8;" x="119.945455" xlink:href="#mf9eb2bfa53" y="252"/>
      </g>
     </g>
     <g id="text_1">
      <!-- GTX 970 &amp; 1070Ti -->
      <defs>
       <path d="M 59.515625 10.40625 
L 59.515625 29.984375 
L 43.40625 29.984375 
L 43.40625 38.09375 
L 69.28125 38.09375 
L 69.28125 6.78125 
Q 63.578125 2.734375 56.6875 0.65625 
Q 49.8125 -1.421875 42 -1.421875 
Q 24.90625 -1.421875 15.25 8.5625 
Q 5.609375 18.5625 5.609375 36.375 
Q 5.609375 54.25 15.25 64.234375 
Q 24.90625 74.21875 42 74.21875 
Q 49.125 74.21875 55.546875 72.453125 
Q 61.96875 70.703125 67.390625 67.28125 
L 67.390625 56.78125 
Q 61.921875 61.421875 55.765625 63.765625 
Q 49.609375 66.109375 42.828125 66.109375 
Q 29.4375 66.109375 22.71875 58.640625 
Q 16.015625 51.171875 16.015625 36.375 
Q 16.015625 21.625 22.71875 14.15625 
Q 29.4375 6.6875 42.828125 6.6875 
Q 48.046875 6.6875 52.140625 7.59375 
Q 56.25 8.5 59.515625 10.40625 
z
" id="DejaVuSans-71"/>
       <path d="M -0.296875 72.90625 
L 61.375 72.90625 
L 61.375 64.59375 
L 35.5 64.59375 
L 35.5 0 
L 25.59375 0 
L 25.59375 64.59375 
L -0.296875 64.59375 
z
" id="DejaVuSans-84"/>
       <path d="M 6.296875 72.90625 
L 16.890625 72.90625 
L 35.015625 45.796875 
L 53.21875 72.90625 
L 63.8125 72.90625 
L 40.375 37.890625 
L 65.375 0 
L 54.78125 0 
L 34.28125 31 
L 13.625 0 
L 2.984375 0 
L 29 38.921875 
z
" id="DejaVuSans-88"/>
       <path id="DejaVuSans-32"/>
       <path d="M 10.984375 1.515625 
L 10.984375 10.5 
Q 14.703125 8.734375 18.5 7.8125 
Q 22.3125 6.890625 25.984375 6.890625 
Q 35.75 6.890625 40.890625 13.453125 
Q 46.046875 20.015625 46.78125 33.40625 
Q 43.953125 29.203125 39.59375 26.953125 
Q 35.25 24.703125 29.984375 24.703125 
Q 19.046875 24.703125 12.671875 31.3125 
Q 6.296875 37.9375 6.296875 49.421875 
Q 6.296875 60.640625 12.9375 67.421875 
Q 19.578125 74.21875 30.609375 74.21875 
Q 43.265625 74.21875 49.921875 64.515625 
Q 56.59375 54.828125 56.59375 36.375 
Q 56.59375 19.140625 48.40625 8.859375 
Q 40.234375 -1.421875 26.421875 -1.421875 
Q 22.703125 -1.421875 18.890625 -0.6875 
Q 15.09375 0.046875 10.984375 1.515625 
z
M 30.609375 32.421875 
Q 37.25 32.421875 41.125 36.953125 
Q 45.015625 41.5 45.015625 49.421875 
Q 45.015625 57.28125 41.125 61.84375 
Q 37.25 66.40625 30.609375 66.40625 
Q 23.96875 66.40625 20.09375 61.84375 
Q 16.21875 57.28125 16.21875 49.421875 
Q 16.21875 41.5 20.09375 36.953125 
Q 23.96875 32.421875 30.609375 32.421875 
z
" id="DejaVuSans-57"/>
       <path d="M 8.203125 72.90625 
L 55.078125 72.90625 
L 55.078125 68.703125 
L 28.609375 0 
L 18.3125 0 
L 43.21875 64.59375 
L 8.203125 64.59375 
z
" id="DejaVuSans-55"/>
       <path d="M 31.78125 66.40625 
Q 24.171875 66.40625 20.328125 58.90625 
Q 16.5 51.421875 16.5 36.375 
Q 16.5 21.390625 20.328125 13.890625 
Q 24.171875 6.390625 31.78125 6.390625 
Q 39.453125 6.390625 43.28125 13.890625 
Q 47.125 21.390625 47.125 36.375 
Q 47.125 51.421875 43.28125 58.90625 
Q 39.453125 66.40625 31.78125 66.40625 
z
M 31.78125 74.21875 
Q 44.046875 74.21875 50.515625 64.515625 
Q 56.984375 54.828125 56.984375 36.375 
Q 56.984375 17.96875 50.515625 8.265625 
Q 44.046875 -1.421875 31.78125 -1.421875 
Q 19.53125 -1.421875 13.0625 8.265625 
Q 6.59375 17.96875 6.59375 36.375 
Q 6.59375 54.828125 13.0625 64.515625 
Q 19.53125 74.21875 31.78125 74.21875 
z
" id="DejaVuSans-48"/>
       <path d="M 24.3125 39.203125 
Q 19.875 35.25 17.796875 31.3125 
Q 15.71875 27.390625 15.71875 23.09375 
Q 15.71875 15.96875 20.890625 11.234375 
Q 26.078125 6.5 33.890625 6.5 
Q 38.53125 6.5 42.578125 8.03125 
Q 46.625 9.578125 50.203125 12.703125 
z
M 31.203125 44.671875 
L 56 19.28125 
Q 58.890625 23.640625 60.5 28.59375 
Q 62.109375 33.546875 62.40625 39.109375 
L 71.484375 39.109375 
Q 70.90625 32.671875 68.359375 26.359375 
Q 65.828125 20.0625 61.28125 13.921875 
L 74.90625 0 
L 62.59375 0 
L 55.609375 7.171875 
Q 50.53125 2.828125 44.96875 0.703125 
Q 39.40625 -1.421875 33.015625 -1.421875 
Q 21.234375 -1.421875 13.765625 5.296875 
Q 6.296875 12.015625 6.296875 22.515625 
Q 6.296875 28.765625 9.5625 34.25 
Q 12.84375 39.75 19.390625 44.578125 
Q 17.046875 47.65625 15.8125 50.703125 
Q 14.59375 53.765625 14.59375 56.6875 
Q 14.59375 64.59375 20.015625 69.40625 
Q 25.4375 74.21875 34.421875 74.21875 
Q 38.484375 74.21875 42.5 73.34375 
Q 46.53125 72.46875 50.6875 70.703125 
L 50.6875 61.8125 
Q 46.4375 64.109375 42.578125 65.296875 
Q 38.71875 66.5 35.40625 66.5 
Q 30.28125 66.5 27.078125 63.78125 
Q 23.875 61.078125 23.875 56.78125 
Q 23.875 54.296875 25.3125 51.78125 
Q 26.765625 49.265625 31.203125 44.671875 
z
" id="DejaVuSans-38"/>
       <path d="M 12.40625 8.296875 
L 28.515625 8.296875 
L 28.515625 63.921875 
L 10.984375 60.40625 
L 10.984375 69.390625 
L 28.421875 72.90625 
L 38.28125 72.90625 
L 38.28125 8.296875 
L 54.390625 8.296875 
L 54.390625 0 
L 12.40625 0 
z
" id="DejaVuSans-49"/>
       <path d="M 9.421875 54.6875 
L 18.40625 54.6875 
L 18.40625 0 
L 9.421875 0 
z
M 9.421875 75.984375 
L 18.40625 75.984375 
L 18.40625 64.59375 
L 9.421875 64.59375 
z
" id="DejaVuSans-105"/>
      </defs>
      <g transform="translate(74.218892 266.598437)scale(0.1 -0.1)">
       <use xlink:href="#DejaVuSans-71"/>
       <use x="77.443359" xlink:href="#DejaVuSans-84"/>
       <use x="138.527344" xlink:href="#DejaVuSans-88"/>
       <use x="207.033203" xlink:href="#DejaVuSans-32"/>
       <use x="238.820312" xlink:href="#DejaVuSans-57"/>
       <use x="302.443359" xlink:href="#DejaVuSans-55"/>
       <use x="366.066406" xlink:href="#DejaVuSans-48"/>
       <use x="429.689453" xlink:href="#DejaVuSans-32"/>
       <use x="461.476562" xlink:href="#DejaVuSans-38"/>
       <use x="539.455078" xlink:href="#DejaVuSans-32"/>
       <use x="571.242188" xlink:href="#DejaVuSans-49"/>
       <use x="634.865234" xlink:href="#DejaVuSans-48"/>
       <use x="698.488281" xlink:href="#DejaVuSans-55"/>
       <use x="762.111328" xlink:href="#DejaVuSans-48"/>
       <use x="825.734375" xlink:href="#DejaVuSans-84"/>
       <use x="886.771484" xlink:href="#DejaVuSans-105"/>
      </g>
      <!-- ≈13.07 -->
      <defs>
       <path d="M 73.1875 30.421875 
L 73.1875 21.6875 
Q 68.0625 17.875 63.6875 16.1875 
Q 59.328125 14.5 54.59375 14.5 
Q 49.21875 14.5 42.09375 17.390625 
Q 41.609375 17.578125 41.265625 17.71875 
Q 40.96875 17.828125 40.234375 18.109375 
Q 32.671875 21.09375 28.078125 21.09375 
Q 23.78125 21.09375 19.578125 19.234375 
Q 15.375 17.390625 10.59375 13.28125 
L 10.59375 22.015625 
Q 15.71875 25.828125 20.09375 27.515625 
Q 24.46875 29.203125 29.203125 29.203125 
Q 34.578125 29.203125 41.75 26.3125 
Q 42.28125 26.078125 42.53125 25.984375 
Q 42.828125 25.875 43.5625 25.59375 
Q 51.125 22.609375 55.71875 22.609375 
Q 59.90625 22.609375 64.03125 24.4375 
Q 68.171875 26.265625 73.1875 30.421875 
z
M 73.1875 49.421875 
L 73.1875 40.71875 
Q 68.0625 36.859375 63.6875 35.171875 
Q 59.328125 33.5 54.59375 33.5 
Q 49.21875 33.5 42.09375 36.375 
Q 41.609375 36.578125 41.265625 36.71875 
Q 40.96875 36.8125 40.234375 37.109375 
Q 32.671875 40.09375 28.078125 40.09375 
Q 23.78125 40.09375 19.578125 38.234375 
Q 15.375 36.375 10.59375 32.328125 
L 10.59375 41.015625 
Q 15.71875 44.828125 20.09375 46.5 
Q 24.46875 48.1875 29.203125 48.1875 
Q 34.578125 48.1875 41.75 45.3125 
Q 42.234375 45.125 42.484375 45.015625 
Q 42.828125 44.875 43.5625 44.578125 
Q 51.125 41.609375 55.71875 41.609375 
Q 59.90625 41.609375 64.03125 43.4375 
Q 68.171875 45.265625 73.1875 49.421875 
z
" id="DejaVuSans-8776"/>
       <path d="M 40.578125 39.3125 
Q 47.65625 37.796875 51.625 33 
Q 55.609375 28.21875 55.609375 21.1875 
Q 55.609375 10.40625 48.1875 4.484375 
Q 40.765625 -1.421875 27.09375 -1.421875 
Q 22.515625 -1.421875 17.65625 -0.515625 
Q 12.796875 0.390625 7.625 2.203125 
L 7.625 11.71875 
Q 11.71875 9.328125 16.59375 8.109375 
Q 21.484375 6.890625 26.8125 6.890625 
Q 36.078125 6.890625 40.9375 10.546875 
Q 45.796875 14.203125 45.796875 21.1875 
Q 45.796875 27.640625 41.28125 31.265625 
Q 36.765625 34.90625 28.71875 34.90625 
L 20.21875 34.90625 
L 20.21875 43.015625 
L 29.109375 43.015625 
Q 36.375 43.015625 40.234375 45.921875 
Q 44.09375 48.828125 44.09375 54.296875 
Q 44.09375 59.90625 40.109375 62.90625 
Q 36.140625 65.921875 28.71875 65.921875 
Q 24.65625 65.921875 20.015625 65.03125 
Q 15.375 64.15625 9.8125 62.3125 
L 9.8125 71.09375 
Q 15.4375 72.65625 20.34375 73.4375 
Q 25.25 74.21875 29.59375 74.21875 
Q 40.828125 74.21875 47.359375 69.109375 
Q 53.90625 64.015625 53.90625 55.328125 
Q 53.90625 49.265625 50.4375 45.09375 
Q 46.96875 40.921875 40.578125 39.3125 
z
" id="DejaVuSans-51"/>
       <path d="M 10.6875 12.40625 
L 21 12.40625 
L 21 0 
L 10.6875 0 
z
" id="DejaVuSans-46"/>
      </defs>
      <g transform="translate(101.441548 277.79625)scale(0.1 -0.1)">
       <use xlink:href="#DejaVuSans-8776"/>
       <use x="83.789062" xlink:href="#DejaVuSans-49"/>
       <use x="147.412109" xlink:href="#DejaVuSans-51"/>
       <use x="211.035156" xlink:href="#DejaVuSans-46"/>
       <use x="242.822266" xlink:href="#DejaVuSans-48"/>
       <use x="306.445312" xlink:href="#DejaVuSans-55"/>
      </g>
      <!-- mins/model -->
      <defs>
       <path d="M 52 44.1875 
Q 55.375 50.25 60.0625 53.125 
Q 64.75 56 71.09375 56 
Q 79.640625 56 84.28125 50.015625 
Q 88.921875 44.046875 88.921875 33.015625 
L 88.921875 0 
L 79.890625 0 
L 79.890625 32.71875 
Q 79.890625 40.578125 77.09375 44.375 
Q 74.3125 48.1875 68.609375 48.1875 
Q 61.625 48.1875 57.5625 43.546875 
Q 53.515625 38.921875 53.515625 30.90625 
L 53.515625 0 
L 44.484375 0 
L 44.484375 32.71875 
Q 44.484375 40.625 41.703125 44.40625 
Q 38.921875 48.1875 33.109375 48.1875 
Q 26.21875 48.1875 22.15625 43.53125 
Q 18.109375 38.875 18.109375 30.90625 
L 18.109375 0 
L 9.078125 0 
L 9.078125 54.6875 
L 18.109375 54.6875 
L 18.109375 46.1875 
Q 21.1875 51.21875 25.484375 53.609375 
Q 29.78125 56 35.6875 56 
Q 41.65625 56 45.828125 52.96875 
Q 50 49.953125 52 44.1875 
z
" id="DejaVuSans-109"/>
       <path d="M 54.890625 33.015625 
L 54.890625 0 
L 45.90625 0 
L 45.90625 32.71875 
Q 45.90625 40.484375 42.875 44.328125 
Q 39.84375 48.1875 33.796875 48.1875 
Q 26.515625 48.1875 22.3125 43.546875 
Q 18.109375 38.921875 18.109375 30.90625 
L 18.109375 0 
L 9.078125 0 
L 9.078125 54.6875 
L 18.109375 54.6875 
L 18.109375 46.1875 
Q 21.34375 51.125 25.703125 53.5625 
Q 30.078125 56 35.796875 56 
Q 45.21875 56 50.046875 50.171875 
Q 54.890625 44.34375 54.890625 33.015625 
z
" id="DejaVuSans-110"/>
       <path d="M 44.28125 53.078125 
L 44.28125 44.578125 
Q 40.484375 46.53125 36.375 47.5 
Q 32.28125 48.484375 27.875 48.484375 
Q 21.1875 48.484375 17.84375 46.4375 
Q 14.5 44.390625 14.5 40.28125 
Q 14.5 37.15625 16.890625 35.375 
Q 19.28125 33.59375 26.515625 31.984375 
L 29.59375 31.296875 
Q 39.15625 29.25 43.1875 25.515625 
Q 47.21875 21.78125 47.21875 15.09375 
Q 47.21875 7.46875 41.1875 3.015625 
Q 35.15625 -1.421875 24.609375 -1.421875 
Q 20.21875 -1.421875 15.453125 -0.5625 
Q 10.6875 0.296875 5.421875 2 
L 5.421875 11.28125 
Q 10.40625 8.6875 15.234375 7.390625 
Q 20.0625 6.109375 24.8125 6.109375 
Q 31.15625 6.109375 34.5625 8.28125 
Q 37.984375 10.453125 37.984375 14.40625 
Q 37.984375 18.0625 35.515625 20.015625 
Q 33.0625 21.96875 24.703125 23.78125 
L 21.578125 24.515625 
Q 13.234375 26.265625 9.515625 29.90625 
Q 5.8125 33.546875 5.8125 39.890625 
Q 5.8125 47.609375 11.28125 51.796875 
Q 16.75 56 26.8125 56 
Q 31.78125 56 36.171875 55.265625 
Q 40.578125 54.546875 44.28125 53.078125 
z
" id="DejaVuSans-115"/>
       <path d="M 25.390625 72.90625 
L 33.6875 72.90625 
L 8.296875 -9.28125 
L 0 -9.28125 
z
" id="DejaVuSans-47"/>
       <path d="M 30.609375 48.390625 
Q 23.390625 48.390625 19.1875 42.75 
Q 14.984375 37.109375 14.984375 27.296875 
Q 14.984375 17.484375 19.15625 11.84375 
Q 23.34375 6.203125 30.609375 6.203125 
Q 37.796875 6.203125 41.984375 11.859375 
Q 46.1875 17.53125 46.1875 27.296875 
Q 46.1875 37.015625 41.984375 42.703125 
Q 37.796875 48.390625 30.609375 48.390625 
z
M 30.609375 56 
Q 42.328125 56 49.015625 48.375 
Q 55.71875 40.765625 55.71875 27.296875 
Q 55.71875 13.875 49.015625 6.21875 
Q 42.328125 -1.421875 30.609375 -1.421875 
Q 18.84375 -1.421875 12.171875 6.21875 
Q 5.515625 13.875 5.515625 27.296875 
Q 5.515625 40.765625 12.171875 48.375 
Q 18.84375 56 30.609375 56 
z
" id="DejaVuSans-111"/>
       <path d="M 45.40625 46.390625 
L 45.40625 75.984375 
L 54.390625 75.984375 
L 54.390625 0 
L 45.40625 0 
L 45.40625 8.203125 
Q 42.578125 3.328125 38.25 0.953125 
Q 33.9375 -1.421875 27.875 -1.421875 
Q 17.96875 -1.421875 11.734375 6.484375 
Q 5.515625 14.40625 5.515625 27.296875 
Q 5.515625 40.1875 11.734375 48.09375 
Q 17.96875 56 27.875 56 
Q 33.9375 56 38.25 53.625 
Q 42.578125 51.265625 45.40625 46.390625 
z
M 14.796875 27.296875 
Q 14.796875 17.390625 18.875 11.75 
Q 22.953125 6.109375 30.078125 6.109375 
Q 37.203125 6.109375 41.296875 11.75 
Q 45.40625 17.390625 45.40625 27.296875 
Q 45.40625 37.203125 41.296875 42.84375 
Q 37.203125 48.484375 30.078125 48.484375 
Q 22.953125 48.484375 18.875 42.84375 
Q 14.796875 37.203125 14.796875 27.296875 
z
" id="DejaVuSans-100"/>
       <path d="M 56.203125 29.59375 
L 56.203125 25.203125 
L 14.890625 25.203125 
Q 15.484375 15.921875 20.484375 11.0625 
Q 25.484375 6.203125 34.421875 6.203125 
Q 39.59375 6.203125 44.453125 7.46875 
Q 49.3125 8.734375 54.109375 11.28125 
L 54.109375 2.78125 
Q 49.265625 0.734375 44.1875 -0.34375 
Q 39.109375 -1.421875 33.890625 -1.421875 
Q 20.796875 -1.421875 13.15625 6.1875 
Q 5.515625 13.8125 5.515625 26.8125 
Q 5.515625 40.234375 12.765625 48.109375 
Q 20.015625 56 32.328125 56 
Q 43.359375 56 49.78125 48.890625 
Q 56.203125 41.796875 56.203125 29.59375 
z
M 47.21875 32.234375 
Q 47.125 39.59375 43.09375 43.984375 
Q 39.0625 48.390625 32.421875 48.390625 
Q 24.90625 48.390625 20.390625 44.140625 
Q 15.875 39.890625 15.1875 32.171875 
z
" id="DejaVuSans-101"/>
       <path d="M 9.421875 75.984375 
L 18.40625 75.984375 
L 18.40625 0 
L 9.421875 0 
z
" id="DejaVuSans-108"/>
      </defs>
      <g transform="translate(90.658736 288.994062)scale(0.1 -0.1)">
       <use xlink:href="#DejaVuSans-109"/>
       <use x="97.412109" xlink:href="#DejaVuSans-105"/>
       <use x="125.195312" xlink:href="#DejaVuSans-110"/>
       <use x="188.574219" xlink:href="#DejaVuSans-115"/>
       <use x="240.673828" xlink:href="#DejaVuSans-47"/>
       <use x="274.365234" xlink:href="#DejaVuSans-109"/>
       <use x="371.777344" xlink:href="#DejaVuSans-111"/>
       <use x="432.958984" xlink:href="#DejaVuSans-100"/>
       <use x="496.435547" xlink:href="#DejaVuSans-101"/>
       <use x="557.958984" xlink:href="#DejaVuSans-108"/>
      </g>
     </g>
    </g>
    <g id="xtick_2">
     <g id="line2d_2">
      <g>
       <use style="stroke:#000000;stroke-width:0.8;" x="322.854545" xlink:href="#mf9eb2bfa53" y="252"/>
      </g>
     </g>
     <g id="text_2">
      <!-- Jetson TX2 -->
      <defs>
       <path d="M 9.8125 72.90625 
L 19.671875 72.90625 
L 19.671875 5.078125 
Q 19.671875 -8.109375 14.671875 -14.0625 
Q 9.671875 -20.015625 -1.421875 -20.015625 
L -5.171875 -20.015625 
L -5.171875 -11.71875 
L -2.09375 -11.71875 
Q 4.4375 -11.71875 7.125 -8.046875 
Q 9.8125 -4.390625 9.8125 5.078125 
z
" id="DejaVuSans-74"/>
       <path d="M 18.3125 70.21875 
L 18.3125 54.6875 
L 36.8125 54.6875 
L 36.8125 47.703125 
L 18.3125 47.703125 
L 18.3125 18.015625 
Q 18.3125 11.328125 20.140625 9.421875 
Q 21.96875 7.515625 27.59375 7.515625 
L 36.8125 7.515625 
L 36.8125 0 
L 27.59375 0 
Q 17.1875 0 13.234375 3.875 
Q 9.28125 7.765625 9.28125 18.015625 
L 9.28125 47.703125 
L 2.6875 47.703125 
L 2.6875 54.6875 
L 9.28125 54.6875 
L 9.28125 70.21875 
z
" id="DejaVuSans-116"/>
       <path d="M 19.1875 8.296875 
L 53.609375 8.296875 
L 53.609375 0 
L 7.328125 0 
L 7.328125 8.296875 
Q 12.9375 14.109375 22.625 23.890625 
Q 32.328125 33.6875 34.8125 36.53125 
Q 39.546875 41.84375 41.421875 45.53125 
Q 43.3125 49.21875 43.3125 52.78125 
Q 43.3125 58.59375 39.234375 62.25 
Q 35.15625 65.921875 28.609375 65.921875 
Q 23.96875 65.921875 18.8125 64.3125 
Q 13.671875 62.703125 7.8125 59.421875 
L 7.8125 69.390625 
Q 13.765625 71.78125 18.9375 73 
Q 24.125 74.21875 28.421875 74.21875 
Q 39.75 74.21875 46.484375 68.546875 
Q 53.21875 62.890625 53.21875 53.421875 
Q 53.21875 48.921875 51.53125 44.890625 
Q 49.859375 40.875 45.40625 35.40625 
Q 44.1875 33.984375 37.640625 27.21875 
Q 31.109375 20.453125 19.1875 8.296875 
z
" id="DejaVuSans-50"/>
      </defs>
      <g transform="translate(296.260795 266.598437)scale(0.1 -0.1)">
       <use xlink:href="#DejaVuSans-74"/>
       <use x="29.492188" xlink:href="#DejaVuSans-101"/>
       <use x="91.015625" xlink:href="#DejaVuSans-116"/>
       <use x="130.224609" xlink:href="#DejaVuSans-115"/>
       <use x="182.324219" xlink:href="#DejaVuSans-111"/>
       <use x="243.505859" xlink:href="#DejaVuSans-110"/>
       <use x="306.884766" xlink:href="#DejaVuSans-32"/>
       <use x="338.671875" xlink:href="#DejaVuSans-84"/>
       <use x="399.755859" xlink:href="#DejaVuSans-88"/>
       <use x="468.261719" xlink:href="#DejaVuSans-50"/>
      </g>
      <!-- ≈37.01 -->
      <g transform="translate(304.350639 277.79625)scale(0.1 -0.1)">
       <use xlink:href="#DejaVuSans-8776"/>
       <use x="83.789062" xlink:href="#DejaVuSans-51"/>
       <use x="147.412109" xlink:href="#DejaVuSans-55"/>
       <use x="211.035156" xlink:href="#DejaVuSans-46"/>
       <use x="242.822266" xlink:href="#DejaVuSans-48"/>
       <use x="306.445312" xlink:href="#DejaVuSans-49"/>
      </g>
      <!-- mins/model -->
      <g transform="translate(293.567827 288.994062)scale(0.1 -0.1)">
       <use xlink:href="#DejaVuSans-109"/>
       <use x="97.412109" xlink:href="#DejaVuSans-105"/>
       <use x="125.195312" xlink:href="#DejaVuSans-110"/>
       <use x="188.574219" xlink:href="#DejaVuSans-115"/>
       <use x="240.673828" xlink:href="#DejaVuSans-47"/>
       <use x="274.365234" xlink:href="#DejaVuSans-109"/>
       <use x="371.777344" xlink:href="#DejaVuSans-111"/>
       <use x="432.958984" xlink:href="#DejaVuSans-100"/>
       <use x="496.435547" xlink:href="#DejaVuSans-101"/>
       <use x="557.958984" xlink:href="#DejaVuSans-108"/>
      </g>
     </g>
    </g>
    <g id="text_3">
     <!-- GPU Workers -->
     <defs>
      <path d="M 19.671875 64.796875 
L 19.671875 37.40625 
L 32.078125 37.40625 
Q 38.96875 37.40625 42.71875 40.96875 
Q 46.484375 44.53125 46.484375 51.125 
Q 46.484375 57.671875 42.71875 61.234375 
Q 38.96875 64.796875 32.078125 64.796875 
z
M 9.8125 72.90625 
L 32.078125 72.90625 
Q 44.34375 72.90625 50.609375 67.359375 
Q 56.890625 61.8125 56.890625 51.125 
Q 56.890625 40.328125 50.609375 34.8125 
Q 44.34375 29.296875 32.078125 29.296875 
L 19.671875 29.296875 
L 19.671875 0 
L 9.8125 0 
z
" id="DejaVuSans-80"/>
      <path d="M 8.6875 72.90625 
L 18.609375 72.90625 
L 18.609375 28.609375 
Q 18.609375 16.890625 22.84375 11.734375 
Q 27.09375 6.59375 36.625 6.59375 
Q 46.09375 6.59375 50.34375 11.734375 
Q 54.59375 16.890625 54.59375 28.609375 
L 54.59375 72.90625 
L 64.5 72.90625 
L 64.5 27.390625 
Q 64.5 13.140625 57.4375 5.859375 
Q 50.390625 -1.421875 36.625 -1.421875 
Q 22.796875 -1.421875 15.734375 5.859375 
Q 8.6875 13.140625 8.6875 27.390625 
z
" id="DejaVuSans-85"/>
      <path d="M 3.328125 72.90625 
L 13.28125 72.90625 
L 28.609375 11.28125 
L 43.890625 72.90625 
L 54.984375 72.90625 
L 70.3125 11.28125 
L 85.59375 72.90625 
L 95.609375 72.90625 
L 77.296875 0 
L 64.890625 0 
L 49.515625 63.28125 
L 33.984375 0 
L 21.578125 0 
z
" id="DejaVuSans-87"/>
      <path d="M 41.109375 46.296875 
Q 39.59375 47.171875 37.8125 47.578125 
Q 36.03125 48 33.890625 48 
Q 26.265625 48 22.1875 43.046875 
Q 18.109375 38.09375 18.109375 28.8125 
L 18.109375 0 
L 9.078125 0 
L 9.078125 54.6875 
L 18.109375 54.6875 
L 18.109375 46.1875 
Q 20.953125 51.171875 25.484375 53.578125 
Q 30.03125 56 36.53125 56 
Q 37.453125 56 38.578125 55.875 
Q 39.703125 55.765625 41.0625 55.515625 
z
" id="DejaVuSans-114"/>
      <path d="M 9.078125 75.984375 
L 18.109375 75.984375 
L 18.109375 31.109375 
L 44.921875 54.6875 
L 56.390625 54.6875 
L 27.390625 29.109375 
L 57.625 0 
L 45.90625 0 
L 18.109375 26.703125 
L 18.109375 0 
L 9.078125 0 
z
" id="DejaVuSans-107"/>
     </defs>
     <g transform="translate(188.578125 302.672188)scale(0.1 -0.1)">
      <use xlink:href="#DejaVuSans-71"/>
      <use x="77.490234" xlink:href="#DejaVuSans-80"/>
      <use x="137.792969" xlink:href="#DejaVuSans-85"/>
      <use x="210.986328" xlink:href="#DejaVuSans-32"/>
      <use x="242.773438" xlink:href="#DejaVuSans-87"/>
      <use x="341.572266" xlink:href="#DejaVuSans-111"/>
      <use x="402.753906" xlink:href="#DejaVuSans-114"/>
      <use x="443.867188" xlink:href="#DejaVuSans-107"/>
      <use x="501.730469" xlink:href="#DejaVuSans-101"/>
      <use x="563.253906" xlink:href="#DejaVuSans-114"/>
      <use x="604.367188" xlink:href="#DejaVuSans-115"/>
     </g>
    </g>
   </g>
   <g id="matplotlib.axis_2">
    <g id="ytick_1">
     <g id="line2d_3">
      <path clip-path="url(#p845270391d)" d="M 54 226.166341 
L 388.8 226.166341 
" style="fill:none;stroke:#b0b0b0;stroke-linecap:square;stroke-width:0.8;"/>
     </g>
     <g id="line2d_4">
      <defs>
       <path d="M 0 0 
L -3.5 0 
" id="mdf598a4484" style="stroke:#000000;stroke-width:0.8;"/>
      </defs>
      <g>
       <use style="stroke:#000000;stroke-width:0.8;" x="54" xlink:href="#mdf598a4484" y="226.166341"/>
      </g>
     </g>
     <g id="text_4">
      <!-- 15 -->
      <defs>
       <path d="M 10.796875 72.90625 
L 49.515625 72.90625 
L 49.515625 64.59375 
L 19.828125 64.59375 
L 19.828125 46.734375 
Q 21.96875 47.46875 24.109375 47.828125 
Q 26.265625 48.1875 28.421875 48.1875 
Q 40.625 48.1875 47.75 41.5 
Q 54.890625 34.8125 54.890625 23.390625 
Q 54.890625 11.625 47.5625 5.09375 
Q 40.234375 -1.421875 26.90625 -1.421875 
Q 22.3125 -1.421875 17.546875 -0.640625 
Q 12.796875 0.140625 7.71875 1.703125 
L 7.71875 11.625 
Q 12.109375 9.234375 16.796875 8.0625 
Q 21.484375 6.890625 26.703125 6.890625 
Q 35.15625 6.890625 40.078125 11.328125 
Q 45.015625 15.765625 45.015625 23.390625 
Q 45.015625 31 40.078125 35.4375 
Q 35.15625 39.890625 26.703125 39.890625 
Q 22.75 39.890625 18.8125 39.015625 
Q 14.890625 38.140625 10.796875 36.28125 
z
" id="DejaVuSans-53"/>
      </defs>
      <g transform="translate(34.275 229.96556)scale(0.1 -0.1)">
       <use xlink:href="#DejaVuSans-49"/>
       <use x="63.623047" xlink:href="#DejaVuSans-53"/>
      </g>
     </g>
    </g>
    <g id="ytick_2">
     <g id="line2d_5">
      <path clip-path="url(#p845270391d)" d="M 54 184.882044 
L 388.8 184.882044 
" style="fill:none;stroke:#b0b0b0;stroke-linecap:square;stroke-width:0.8;"/>
     </g>
     <g id="line2d_6">
      <g>
       <use style="stroke:#000000;stroke-width:0.8;" x="54" xlink:href="#mdf598a4484" y="184.882044"/>
      </g>
     </g>
     <g id="text_5">
      <!-- 20 -->
      <g transform="translate(34.275 188.681263)scale(0.1 -0.1)">
       <use xlink:href="#DejaVuSans-50"/>
       <use x="63.623047" xlink:href="#DejaVuSans-48"/>
      </g>
     </g>
    </g>
    <g id="ytick_3">
     <g id="line2d_7">
      <path clip-path="url(#p845270391d)" d="M 54 143.597747 
L 388.8 143.597747 
" style="fill:none;stroke:#b0b0b0;stroke-linecap:square;stroke-width:0.8;"/>
     </g>
     <g id="line2d_8">
      <g>
       <use style="stroke:#000000;stroke-width:0.8;" x="54" xlink:href="#mdf598a4484" y="143.597747"/>
      </g>
     </g>
     <g id="text_6">
      <!-- 25 -->
      <g transform="translate(34.275 147.396966)scale(0.1 -0.1)">
       <use xlink:href="#DejaVuSans-50"/>
       <use x="63.623047" xlink:href="#DejaVuSans-53"/>
      </g>
     </g>
    </g>
    <g id="ytick_4">
     <g id="line2d_9">
      <path clip-path="url(#p845270391d)" d="M 54 102.313451 
L 388.8 102.313451 
" style="fill:none;stroke:#b0b0b0;stroke-linecap:square;stroke-width:0.8;"/>
     </g>
     <g id="line2d_10">
      <g>
       <use style="stroke:#000000;stroke-width:0.8;" x="54" xlink:href="#mdf598a4484" y="102.313451"/>
      </g>
     </g>
     <g id="text_7">
      <!-- 30 -->
      <g transform="translate(34.275 106.112669)scale(0.1 -0.1)">
       <use xlink:href="#DejaVuSans-51"/>
       <use x="63.623047" xlink:href="#DejaVuSans-48"/>
      </g>
     </g>
    </g>
    <g id="ytick_5">
     <g id="line2d_11">
      <path clip-path="url(#p845270391d)" d="M 54 61.029154 
L 388.8 61.029154 
" style="fill:none;stroke:#b0b0b0;stroke-linecap:square;stroke-width:0.8;"/>
     </g>
     <g id="line2d_12">
      <g>
       <use style="stroke:#000000;stroke-width:0.8;" x="54" xlink:href="#mdf598a4484" y="61.029154"/>
      </g>
     </g>
     <g id="text_8">
      <!-- 35 -->
      <g transform="translate(34.275 64.828373)scale(0.1 -0.1)">
       <use xlink:href="#DejaVuSans-51"/>
       <use x="63.623047" xlink:href="#DejaVuSans-53"/>
      </g>
     </g>
    </g>
    <g id="text_9">
     <!-- Time (minutes) -->
     <defs>
      <path d="M 31 75.875 
Q 24.46875 64.65625 21.28125 53.65625 
Q 18.109375 42.671875 18.109375 31.390625 
Q 18.109375 20.125 21.3125 9.0625 
Q 24.515625 -2 31 -13.1875 
L 23.1875 -13.1875 
Q 15.875 -1.703125 12.234375 9.375 
Q 8.59375 20.453125 8.59375 31.390625 
Q 8.59375 42.28125 12.203125 53.3125 
Q 15.828125 64.359375 23.1875 75.875 
z
" id="DejaVuSans-40"/>
      <path d="M 8.5 21.578125 
L 8.5 54.6875 
L 17.484375 54.6875 
L 17.484375 21.921875 
Q 17.484375 14.15625 20.5 10.265625 
Q 23.53125 6.390625 29.59375 6.390625 
Q 36.859375 6.390625 41.078125 11.03125 
Q 45.3125 15.671875 45.3125 23.6875 
L 45.3125 54.6875 
L 54.296875 54.6875 
L 54.296875 0 
L 45.3125 0 
L 45.3125 8.40625 
Q 42.046875 3.421875 37.71875 1 
Q 33.40625 -1.421875 27.6875 -1.421875 
Q 18.265625 -1.421875 13.375 4.4375 
Q 8.5 10.296875 8.5 21.578125 
z
M 31.109375 56 
z
" id="DejaVuSans-117"/>
      <path d="M 8.015625 75.875 
L 15.828125 75.875 
Q 23.140625 64.359375 26.78125 53.3125 
Q 30.421875 42.28125 30.421875 31.390625 
Q 30.421875 20.453125 26.78125 9.375 
Q 23.140625 -1.703125 15.828125 -13.1875 
L 8.015625 -13.1875 
Q 14.5 -2 17.703125 9.0625 
Q 20.90625 20.125 20.90625 31.390625 
Q 20.90625 42.671875 17.703125 53.65625 
Q 14.5 64.65625 8.015625 75.875 
z
" id="DejaVuSans-41"/>
     </defs>
     <g transform="translate(28.195312 181.396406)rotate(-90)scale(0.1 -0.1)">
      <use xlink:href="#DejaVuSans-84"/>
      <use x="61.037109" xlink:href="#DejaVuSans-105"/>
      <use x="88.820312" xlink:href="#DejaVuSans-109"/>
      <use x="186.232422" xlink:href="#DejaVuSans-101"/>
      <use x="247.755859" xlink:href="#DejaVuSans-32"/>
      <use x="279.542969" xlink:href="#DejaVuSans-40"/>
      <use x="318.556641" xlink:href="#DejaVuSans-109"/>
      <use x="415.96875" xlink:href="#DejaVuSans-105"/>
      <use x="443.751953" xlink:href="#DejaVuSans-110"/>
      <use x="507.130859" xlink:href="#DejaVuSans-117"/>
      <use x="570.509766" xlink:href="#DejaVuSans-116"/>
      <use x="609.71875" xlink:href="#DejaVuSans-101"/>
      <use x="671.242188" xlink:href="#DejaVuSans-115"/>
      <use x="723.341797" xlink:href="#DejaVuSans-41"/>
     </g>
    </g>
   </g>
   <g id="LineCollection_1">
    <path clip-path="url(#p845270391d)" d="M 94.581818 242.116364 
L 145.309091 242.116364 
" style="fill:none;stroke:#1f77b4;stroke-width:1.5;"/>
    <path clip-path="url(#p845270391d)" d="M 297.490909 44.443636 
L 348.218182 44.443636 
" style="fill:none;stroke:#1f77b4;stroke-width:1.5;"/>
   </g>
   <g id="LineCollection_2">
    <path clip-path="url(#p845270391d)" d="M 94.581818 242.116364 
L 145.309091 242.116364 
" style="fill:none;stroke:#1f77b4;stroke-width:1.5;"/>
    <path clip-path="url(#p845270391d)" d="M 297.490909 44.443636 
L 348.218182 44.443636 
" style="fill:none;stroke:#1f77b4;stroke-width:1.5;"/>
   </g>
   <g id="LineCollection_3">
    <path clip-path="url(#p845270391d)" d="M 119.945455 242.116364 
L 119.945455 242.116364 
" style="fill:none;stroke:#1f77b4;stroke-width:1.5;"/>
    <path clip-path="url(#p845270391d)" d="M 322.854545 44.443636 
L 322.854545 44.443636 
" style="fill:none;stroke:#1f77b4;stroke-width:1.5;"/>
   </g>
   <g id="LineCollection_4">
    <path clip-path="url(#p845270391d)" d="M 94.581818 242.116364 
L 145.309091 242.116364 
" style="fill:none;stroke:#1f77b4;stroke-width:1.5;"/>
    <path clip-path="url(#p845270391d)" d="M 297.490909 44.443636 
L 348.218182 44.443636 
" style="fill:none;stroke:#1f77b4;stroke-width:1.5;"/>
   </g>
   <g id="patch_3">
    <path d="M 54 252 
L 54 34.56 
" style="fill:none;stroke:#000000;stroke-linecap:square;stroke-linejoin:miter;stroke-width:0.8;"/>
   </g>
   <g id="patch_4">
    <path d="M 388.8 252 
L 388.8 34.56 
" style="fill:none;stroke:#000000;stroke-linecap:square;stroke-linejoin:miter;stroke-width:0.8;"/>
   </g>
   <g id="patch_5">
    <path d="M 54 252 
L 388.8 252 
" style="fill:none;stroke:#000000;stroke-linecap:square;stroke-linejoin:miter;stroke-width:0.8;"/>
   </g>
   <g id="patch_6">
    <path d="M 54 34.56 
L 388.8 34.56 
" style="fill:none;stroke:#000000;stroke-linecap:square;stroke-linejoin:miter;stroke-width:0.8;"/>
   </g>
   <g id="text_10">
    <!-- Training times vs GPU (533 samples, 99.73% CI) -->
    <defs>
     <path d="M 34.28125 27.484375 
Q 23.390625 27.484375 19.1875 25 
Q 14.984375 22.515625 14.984375 16.5 
Q 14.984375 11.71875 18.140625 8.90625 
Q 21.296875 6.109375 26.703125 6.109375 
Q 34.1875 6.109375 38.703125 11.40625 
Q 43.21875 16.703125 43.21875 25.484375 
L 43.21875 27.484375 
z
M 52.203125 31.203125 
L 52.203125 0 
L 43.21875 0 
L 43.21875 8.296875 
Q 40.140625 3.328125 35.546875 0.953125 
Q 30.953125 -1.421875 24.3125 -1.421875 
Q 15.921875 -1.421875 10.953125 3.296875 
Q 6 8.015625 6 15.921875 
Q 6 25.140625 12.171875 29.828125 
Q 18.359375 34.515625 30.609375 34.515625 
L 43.21875 34.515625 
L 43.21875 35.40625 
Q 43.21875 41.609375 39.140625 45 
Q 35.0625 48.390625 27.6875 48.390625 
Q 23 48.390625 18.546875 47.265625 
Q 14.109375 46.140625 10.015625 43.890625 
L 10.015625 52.203125 
Q 14.9375 54.109375 19.578125 55.046875 
Q 24.21875 56 28.609375 56 
Q 40.484375 56 46.34375 49.84375 
Q 52.203125 43.703125 52.203125 31.203125 
z
" id="DejaVuSans-97"/>
     <path d="M 45.40625 27.984375 
Q 45.40625 37.75 41.375 43.109375 
Q 37.359375 48.484375 30.078125 48.484375 
Q 22.859375 48.484375 18.828125 43.109375 
Q 14.796875 37.75 14.796875 27.984375 
Q 14.796875 18.265625 18.828125 12.890625 
Q 22.859375 7.515625 30.078125 7.515625 
Q 37.359375 7.515625 41.375 12.890625 
Q 45.40625 18.265625 45.40625 27.984375 
z
M 54.390625 6.78125 
Q 54.390625 -7.171875 48.1875 -13.984375 
Q 42 -20.796875 29.203125 -20.796875 
Q 24.46875 -20.796875 20.265625 -20.09375 
Q 16.0625 -19.390625 12.109375 -17.921875 
L 12.109375 -9.1875 
Q 16.0625 -11.328125 19.921875 -12.34375 
Q 23.78125 -13.375 27.78125 -13.375 
Q 36.625 -13.375 41.015625 -8.765625 
Q 45.40625 -4.15625 45.40625 5.171875 
L 45.40625 9.625 
Q 42.625 4.78125 38.28125 2.390625 
Q 33.9375 0 27.875 0 
Q 17.828125 0 11.671875 7.65625 
Q 5.515625 15.328125 5.515625 27.984375 
Q 5.515625 40.671875 11.671875 48.328125 
Q 17.828125 56 27.875 56 
Q 33.9375 56 38.28125 53.609375 
Q 42.625 51.21875 45.40625 46.390625 
L 45.40625 54.6875 
L 54.390625 54.6875 
z
" id="DejaVuSans-103"/>
     <path d="M 2.984375 54.6875 
L 12.5 54.6875 
L 29.59375 8.796875 
L 46.6875 54.6875 
L 56.203125 54.6875 
L 35.6875 0 
L 23.484375 0 
z
" id="DejaVuSans-118"/>
     <path d="M 18.109375 8.203125 
L 18.109375 -20.796875 
L 9.078125 -20.796875 
L 9.078125 54.6875 
L 18.109375 54.6875 
L 18.109375 46.390625 
Q 20.953125 51.265625 25.265625 53.625 
Q 29.59375 56 35.59375 56 
Q 45.5625 56 51.78125 48.09375 
Q 58.015625 40.1875 58.015625 27.296875 
Q 58.015625 14.40625 51.78125 6.484375 
Q 45.5625 -1.421875 35.59375 -1.421875 
Q 29.59375 -1.421875 25.265625 0.953125 
Q 20.953125 3.328125 18.109375 8.203125 
z
M 48.6875 27.296875 
Q 48.6875 37.203125 44.609375 42.84375 
Q 40.53125 48.484375 33.40625 48.484375 
Q 26.265625 48.484375 22.1875 42.84375 
Q 18.109375 37.203125 18.109375 27.296875 
Q 18.109375 17.390625 22.1875 11.75 
Q 26.265625 6.109375 33.40625 6.109375 
Q 40.53125 6.109375 44.609375 11.75 
Q 48.6875 17.390625 48.6875 27.296875 
z
" id="DejaVuSans-112"/>
     <path d="M 11.71875 12.40625 
L 22.015625 12.40625 
L 22.015625 4 
L 14.015625 -11.625 
L 7.71875 -11.625 
L 11.71875 4 
z
" id="DejaVuSans-44"/>
     <path d="M 72.703125 32.078125 
Q 68.453125 32.078125 66.03125 28.46875 
Q 63.625 24.859375 63.625 18.40625 
Q 63.625 12.0625 66.03125 8.421875 
Q 68.453125 4.78125 72.703125 4.78125 
Q 76.859375 4.78125 79.265625 8.421875 
Q 81.6875 12.0625 81.6875 18.40625 
Q 81.6875 24.8125 79.265625 28.4375 
Q 76.859375 32.078125 72.703125 32.078125 
z
M 72.703125 38.28125 
Q 80.421875 38.28125 84.953125 32.90625 
Q 89.5 27.546875 89.5 18.40625 
Q 89.5 9.28125 84.9375 3.921875 
Q 80.375 -1.421875 72.703125 -1.421875 
Q 64.890625 -1.421875 60.34375 3.921875 
Q 55.8125 9.28125 55.8125 18.40625 
Q 55.8125 27.59375 60.375 32.9375 
Q 64.9375 38.28125 72.703125 38.28125 
z
M 22.3125 68.015625 
Q 18.109375 68.015625 15.6875 64.375 
Q 13.28125 60.75 13.28125 54.390625 
Q 13.28125 47.953125 15.671875 44.328125 
Q 18.0625 40.71875 22.3125 40.71875 
Q 26.5625 40.71875 28.96875 44.328125 
Q 31.390625 47.953125 31.390625 54.390625 
Q 31.390625 60.6875 28.953125 64.34375 
Q 26.515625 68.015625 22.3125 68.015625 
z
M 66.40625 74.21875 
L 74.21875 74.21875 
L 28.609375 -1.421875 
L 20.796875 -1.421875 
z
M 22.3125 74.21875 
Q 30.03125 74.21875 34.609375 68.875 
Q 39.203125 63.53125 39.203125 54.390625 
Q 39.203125 45.171875 34.640625 39.84375 
Q 30.078125 34.515625 22.3125 34.515625 
Q 14.546875 34.515625 10.03125 39.859375 
Q 5.515625 45.21875 5.515625 54.390625 
Q 5.515625 63.484375 10.046875 68.84375 
Q 14.59375 74.21875 22.3125 74.21875 
z
" id="DejaVuSans-37"/>
     <path d="M 64.40625 67.28125 
L 64.40625 56.890625 
Q 59.421875 61.53125 53.78125 63.8125 
Q 48.140625 66.109375 41.796875 66.109375 
Q 29.296875 66.109375 22.65625 58.46875 
Q 16.015625 50.828125 16.015625 36.375 
Q 16.015625 21.96875 22.65625 14.328125 
Q 29.296875 6.6875 41.796875 6.6875 
Q 48.140625 6.6875 53.78125 8.984375 
Q 59.421875 11.28125 64.40625 15.921875 
L 64.40625 5.609375 
Q 59.234375 2.09375 53.4375 0.328125 
Q 47.65625 -1.421875 41.21875 -1.421875 
Q 24.65625 -1.421875 15.125 8.703125 
Q 5.609375 18.84375 5.609375 36.375 
Q 5.609375 53.953125 15.125 64.078125 
Q 24.65625 74.21875 41.21875 74.21875 
Q 47.75 74.21875 53.53125 72.484375 
Q 59.328125 70.75 64.40625 67.28125 
z
" id="DejaVuSans-67"/>
     <path d="M 9.8125 72.90625 
L 19.671875 72.90625 
L 19.671875 0 
L 9.8125 0 
z
" id="DejaVuSans-73"/>
    </defs>
    <g transform="translate(75.674063 28.56)scale(0.12 -0.12)">
     <use xlink:href="#DejaVuSans-84"/>
     <use x="60.865234" xlink:href="#DejaVuSans-114"/>
     <use x="101.978516" xlink:href="#DejaVuSans-97"/>
     <use x="163.257812" xlink:href="#DejaVuSans-105"/>
     <use x="191.041016" xlink:href="#DejaVuSans-110"/>
     <use x="254.419922" xlink:href="#DejaVuSans-105"/>
     <use x="282.203125" xlink:href="#DejaVuSans-110"/>
     <use x="345.582031" xlink:href="#DejaVuSans-103"/>
     <use x="409.058594" xlink:href="#DejaVuSans-32"/>
     <use x="440.845703" xlink:href="#DejaVuSans-116"/>
     <use x="480.054688" xlink:href="#DejaVuSans-105"/>
     <use x="507.837891" xlink:href="#DejaVuSans-109"/>
     <use x="605.25" xlink:href="#DejaVuSans-101"/>
     <use x="666.773438" xlink:href="#DejaVuSans-115"/>
     <use x="718.873047" xlink:href="#DejaVuSans-32"/>
     <use x="750.660156" xlink:href="#DejaVuSans-118"/>
     <use x="809.839844" xlink:href="#DejaVuSans-115"/>
     <use x="861.939453" xlink:href="#DejaVuSans-32"/>
     <use x="893.726562" xlink:href="#DejaVuSans-71"/>
     <use x="971.216797" xlink:href="#DejaVuSans-80"/>
     <use x="1031.519531" xlink:href="#DejaVuSans-85"/>
     <use x="1104.712891" xlink:href="#DejaVuSans-32"/>
     <use x="1136.5" xlink:href="#DejaVuSans-40"/>
     <use x="1175.513672" xlink:href="#DejaVuSans-53"/>
     <use x="1239.136719" xlink:href="#DejaVuSans-51"/>
     <use x="1302.759766" xlink:href="#DejaVuSans-51"/>
     <use x="1366.382812" xlink:href="#DejaVuSans-32"/>
     <use x="1398.169922" xlink:href="#DejaVuSans-115"/>
     <use x="1450.269531" xlink:href="#DejaVuSans-97"/>
     <use x="1511.548828" xlink:href="#DejaVuSans-109"/>
     <use x="1608.960938" xlink:href="#DejaVuSans-112"/>
     <use x="1672.4375" xlink:href="#DejaVuSans-108"/>
     <use x="1700.220703" xlink:href="#DejaVuSans-101"/>
     <use x="1761.744141" xlink:href="#DejaVuSans-115"/>
     <use x="1813.84375" xlink:href="#DejaVuSans-44"/>
     <use x="1845.630859" xlink:href="#DejaVuSans-32"/>
     <use x="1877.417969" xlink:href="#DejaVuSans-57"/>
     <use x="1941.041016" xlink:href="#DejaVuSans-57"/>
     <use x="2004.664062" xlink:href="#DejaVuSans-46"/>
     <use x="2036.451172" xlink:href="#DejaVuSans-55"/>
     <use x="2100.074219" xlink:href="#DejaVuSans-51"/>
     <use x="2163.697266" xlink:href="#DejaVuSans-37"/>
     <use x="2258.716797" xlink:href="#DejaVuSans-32"/>
     <use x="2290.503906" xlink:href="#DejaVuSans-67"/>
     <use x="2360.328125" xlink:href="#DejaVuSans-73"/>
     <use x="2389.820312" xlink:href="#DejaVuSans-41"/>
    </g>
   </g>
  </g>
 </g>
 <defs>
  <clipPath id="p845270391d">
   <rect height="217.44" width="334.8" x="54" y="34.56"/>
  </clipPath>
 </defs>
</svg>
