<?xml version="1.0" encoding="utf-8" standalone="no"?>
<!DOCTYPE svg PUBLIC "-//W3C//DTD SVG 1.1//EN"
  "http://www.w3.org/Graphics/SVG/1.1/DTD/svg11.dtd">
<!-- Created with matplotlib (https://matplotlib.org/) -->
<svg height="288pt" version="1.1" viewBox="0 0 432 288" width="432pt" xmlns="http://www.w3.org/2000/svg" xmlns:xlink="http://www.w3.org/1999/xlink">
 <metadata>
  <rdf:RDF xmlns:cc="http://creativecommons.org/ns#" xmlns:dc="http://purl.org/dc/elements/1.1/" xmlns:rdf="http://www.w3.org/1999/02/22-rdf-syntax-ns#">
   <cc:Work>
    <dc:type rdf:resource="http://purl.org/dc/dcmitype/StillImage"/>
    <dc:date>2021-10-29T15:58:45.156919</dc:date>
    <dc:format>image/svg+xml</dc:format>
    <dc:creator>
     <cc:Agent>
      <dc:title>Matplotlib v3.3.4, https://matplotlib.org/</dc:title>
     </cc:Agent>
    </dc:creator>
   </cc:Work>
  </rdf:RDF>
 </metadata>
 <defs>
  <style type="text/css">*{stroke-linecap:butt;stroke-linejoin:round;}</style>
 </defs>
 <g id="figure_1">
  <g id="patch_1">
   <path d="M 0 288 
L 432 288 
L 432 0 
L 0 0 
z
" style="fill:none;"/>
  </g>
  <g id="axes_1">
   <g id="patch_2">
    <path d="M 54 252 
L 388.8 252 
L 388.8 34.56 
L 54 34.56 
z
" style="fill:#ffffff;"/>
   </g>
   <g id="PolyCollection_1">
    <path clip-path="url(#p769dd2e08d)" d="M 127.598792 242.116364 
L 71.710299 242.116364 
L 71.310456 240.75097 
L 70.942031 239.385576 
L 70.606358 238.020182 
L 70.304658 236.654788 
L 70.038032 235.289394 
L 69.807456 233.924 
L 69.613769 232.558606 
L 69.457675 231.193212 
L 69.339732 229.827818 
L 69.260353 228.462424 
L 69.2198 227.097031 
L 69.218182 225.731637 
L 69.255456 224.366243 
L 69.331426 223.000849 
L 69.445742 221.635455 
L 69.597906 220.270061 
L 69.78727 218.904667 
L 70.013042 217.539273 
L 70.27429 216.173879 
L 70.569946 214.808485 
L 70.898817 213.443091 
L 71.259584 212.077697 
L 71.650815 210.712304 
L 72.070973 209.34691 
L 72.51842 207.981516 
L 72.991432 206.616122 
L 73.488204 205.250728 
L 74.006864 203.885334 
L 74.545479 202.51994 
L 75.102068 201.154546 
L 75.67461 199.789152 
L 76.261059 198.423758 
L 76.859349 197.058364 
L 77.467409 195.692971 
L 78.08317 194.327577 
L 78.704577 192.962183 
L 79.329598 191.596789 
L 79.956233 190.231395 
L 80.582524 188.866001 
L 81.206561 187.500607 
L 81.826496 186.135213 
L 82.440541 184.769819 
L 83.046985 183.404425 
L 83.644194 182.039031 
L 84.230618 180.673637 
L 84.804799 179.308244 
L 85.365371 177.94285 
L 85.911068 176.577456 
L 86.440725 175.212062 
L 86.953282 173.846668 
L 87.447784 172.481274 
L 87.923384 171.11588 
L 88.379347 169.750486 
L 88.815042 168.385092 
L 89.22995 167.019698 
L 89.62366 165.654304 
L 89.995867 164.28891 
L 90.346371 162.923517 
L 90.675074 161.558123 
L 90.981981 160.192729 
L 91.26719 158.827335 
L 91.530897 157.461941 
L 91.773384 156.096547 
L 91.995023 154.731153 
L 92.196265 153.365759 
L 92.377638 152.000365 
L 92.539746 150.634971 
L 92.683255 149.269577 
L 92.808899 147.904183 
L 92.917464 146.53879 
L 93.00979 145.173396 
L 93.086765 143.808002 
L 93.149313 142.442608 
L 93.198398 141.077214 
L 93.235008 139.71182 
L 93.26016 138.346426 
L 93.274885 136.981032 
L 93.280229 135.615638 
L 93.277242 134.250244 
L 93.266978 132.88485 
L 93.250487 131.519456 
L 93.228808 130.154063 
L 93.202968 128.788669 
L 93.173974 127.423275 
L 93.142808 126.057881 
L 93.110425 124.692487 
L 93.077748 123.327093 
L 93.045663 121.961699 
L 93.015015 120.596305 
L 92.986606 119.230911 
L 92.96119 117.865517 
L 92.939474 116.500123 
L 92.922109 115.134729 
L 92.909696 113.769336 
L 92.902775 112.403942 
L 92.901833 111.038548 
L 92.907295 109.673154 
L 92.919529 108.30776 
L 92.938842 106.942366 
L 106.370249 106.942366 
L 106.370249 106.942366 
L 106.389562 108.30776 
L 106.401796 109.673154 
L 106.407258 111.038548 
L 106.406316 112.403942 
L 106.399395 113.769336 
L 106.386981 115.134729 
L 106.369617 116.500123 
L 106.347901 117.865517 
L 106.322485 119.230911 
L 106.294076 120.596305 
L 106.263428 121.961699 
L 106.231343 123.327093 
L 106.198666 124.692487 
L 106.166283 126.057881 
L 106.135117 127.423275 
L 106.106123 128.788669 
L 106.080283 130.154063 
L 106.058604 131.519456 
L 106.042113 132.88485 
L 106.031849 134.250244 
L 106.028862 135.615638 
L 106.034206 136.981032 
L 106.048931 138.346426 
L 106.074083 139.71182 
L 106.110693 141.077214 
L 106.159778 142.442608 
L 106.222326 143.808002 
L 106.299301 145.173396 
L 106.391627 146.53879 
L 106.500192 147.904183 
L 106.625836 149.269577 
L 106.769345 150.634971 
L 106.931453 152.000365 
L 107.112826 153.365759 
L 107.314068 154.731153 
L 107.535707 156.096547 
L 107.778194 157.461941 
L 108.041901 158.827335 
L 108.32711 160.192729 
L 108.634017 161.558123 
L 108.96272 162.923517 
L 109.313224 164.28891 
L 109.685431 165.654304 
L 110.079141 167.019698 
L 110.494049 168.385092 
L 110.929744 169.750486 
L 111.385707 171.11588 
L 111.861307 172.481274 
L 112.355809 173.846668 
L 112.868365 175.212062 
L 113.398022 176.577456 
L 113.94372 177.94285 
L 114.504292 179.308244 
L 115.078473 180.673637 
L 115.664897 182.039031 
L 116.262106 183.404425 
L 116.86855 184.769819 
L 117.482595 186.135213 
L 118.10253 187.500607 
L 118.726567 188.866001 
L 119.352858 190.231395 
L 119.979493 191.596789 
L 120.604514 192.962183 
L 121.225921 194.327577 
L 121.841682 195.692971 
L 122.449742 197.058364 
L 123.048032 198.423758 
L 123.634481 199.789152 
L 124.207023 201.154546 
L 124.763612 202.51994 
L 125.302227 203.885334 
L 125.820887 205.250728 
L 126.317659 206.616122 
L 126.790671 207.981516 
L 127.238118 209.34691 
L 127.658275 210.712304 
L 128.049507 212.077697 
L 128.410274 213.443091 
L 128.739144 214.808485 
L 129.034801 216.173879 
L 129.296049 217.539273 
L 129.521821 218.904667 
L 129.711185 220.270061 
L 129.863349 221.635455 
L 129.977665 223.000849 
L 130.053635 224.366243 
L 130.090909 225.731637 
L 130.089291 227.097031 
L 130.048737 228.462424 
L 129.969358 229.827818 
L 129.851416 231.193212 
L 129.695322 232.558606 
L 129.501635 233.924 
L 129.271059 235.289394 
L 129.004433 236.654788 
L 128.702733 238.020182 
L 128.36706 239.385576 
L 127.998635 240.75097 
L 127.598792 242.116364 
z
" style="fill:#1f77b4;fill-opacity:0.3;"/>
   </g>
   <g id="PolyCollection_2">
    <path clip-path="url(#p769dd2e08d)" d="M 239.05151 227.87519 
L 203.74849 227.87519 
L 203.599665 227.794096 
L 203.452954 227.713003 
L 203.308227 227.631909 
L 203.165349 227.550816 
L 203.024175 227.469722 
L 202.88455 227.388629 
L 202.746317 227.307536 
L 202.609309 227.226442 
L 202.473356 227.145349 
L 202.338281 227.064255 
L 202.203904 226.983162 
L 202.070042 226.902069 
L 201.936509 226.820975 
L 201.803116 226.739882 
L 201.669677 226.658788 
L 201.536001 226.577695 
L 201.401901 226.496601 
L 201.267192 226.415508 
L 201.131689 226.334415 
L 200.995214 226.253321 
L 200.857591 226.172228 
L 200.71865 226.091134 
L 200.578227 226.010041 
L 200.436167 225.928947 
L 200.29232 225.847854 
L 200.146548 225.766761 
L 199.998721 225.685667 
L 199.848719 225.604574 
L 199.696434 225.52348 
L 199.541772 225.442387 
L 199.38465 225.361293 
L 199.224998 225.2802 
L 199.062761 225.199107 
L 198.897898 225.118013 
L 198.730386 225.03692 
L 198.560215 224.955826 
L 198.387392 224.874733 
L 198.211941 224.79364 
L 198.033903 224.712546 
L 197.853337 224.631453 
L 197.670317 224.550359 
L 197.484939 224.469266 
L 197.297312 224.388172 
L 197.107566 224.307079 
L 196.915849 224.225986 
L 196.722323 224.144892 
L 196.527173 224.063799 
L 196.330596 223.982705 
L 196.132809 223.901612 
L 195.934044 223.820518 
L 195.734552 223.739425 
L 195.534596 223.658332 
L 195.334455 223.577238 
L 195.134425 223.496145 
L 194.934813 223.415051 
L 194.735939 223.333958 
L 194.538138 223.252864 
L 194.341752 223.171771 
L 194.147138 223.090678 
L 193.95466 223.009584 
L 193.76469 222.928491 
L 193.57761 222.847397 
L 193.393806 222.766304 
L 193.213671 222.68521 
L 193.0376 222.604117 
L 192.865994 222.523024 
L 192.699255 222.44193 
L 192.537784 222.360837 
L 192.381982 222.279743 
L 192.232252 222.19865 
L 192.088988 222.117557 
L 191.952585 222.036463 
L 191.82343 221.95537 
L 191.701904 221.874276 
L 191.588381 221.793183 
L 191.483225 221.712089 
L 191.386792 221.630996 
L 191.299426 221.549903 
L 191.221456 221.468809 
L 191.153203 221.387716 
L 191.094969 221.306622 
L 191.047045 221.225529 
L 191.009702 221.144435 
L 190.983198 221.063342 
L 190.967769 220.982249 
L 190.963636 220.901155 
L 190.971 220.820062 
L 190.990041 220.738968 
L 191.020918 220.657875 
L 191.063773 220.576781 
L 191.118722 220.495688 
L 191.185861 220.414595 
L 191.265265 220.333501 
L 191.356986 220.252408 
L 191.461052 220.171314 
L 191.577471 220.090221 
L 191.706225 220.009128 
L 191.847277 219.928034 
L 192.000565 219.846941 
L 250.799435 219.846941 
L 250.799435 219.846941 
L 250.952723 219.928034 
L 251.093775 220.009128 
L 251.222529 220.090221 
L 251.338948 220.171314 
L 251.443014 220.252408 
L 251.534735 220.333501 
L 251.614139 220.414595 
L 251.681278 220.495688 
L 251.736227 220.576781 
L 251.779082 220.657875 
L 251.809959 220.738968 
L 251.829 220.820062 
L 251.836364 220.901155 
L 251.832231 220.982249 
L 251.816802 221.063342 
L 251.790298 221.144435 
L 251.752955 221.225529 
L 251.705031 221.306622 
L 251.646797 221.387716 
L 251.578544 221.468809 
L 251.500574 221.549903 
L 251.413208 221.630996 
L 251.316775 221.712089 
L 251.211619 221.793183 
L 251.098096 221.874276 
L 250.97657 221.95537 
L 250.847415 222.036463 
L 250.711012 222.117557 
L 250.567748 222.19865 
L 250.418018 222.279743 
L 250.262216 222.360837 
L 250.100745 222.44193 
L 249.934006 222.523024 
L 249.7624 222.604117 
L 249.586329 222.68521 
L 249.406194 222.766304 
L 249.22239 222.847397 
L 249.03531 222.928491 
L 248.84534 223.009584 
L 248.652862 223.090678 
L 248.458248 223.171771 
L 248.261862 223.252864 
L 248.064061 223.333958 
L 247.865187 223.415051 
L 247.665575 223.496145 
L 247.465545 223.577238 
L 247.265404 223.658332 
L 247.065448 223.739425 
L 246.865956 223.820518 
L 246.667191 223.901612 
L 246.469404 223.982705 
L 246.272827 224.063799 
L 246.077677 224.144892 
L 245.884151 224.225986 
L 245.692434 224.307079 
L 245.502688 224.388172 
L 245.315061 224.469266 
L 245.129683 224.550359 
L 244.946663 224.631453 
L 244.766097 224.712546 
L 244.588059 224.79364 
L 244.412608 224.874733 
L 244.239785 224.955826 
L 244.069614 225.03692 
L 243.902102 225.118013 
L 243.737239 225.199107 
L 243.575002 225.2802 
L 243.41535 225.361293 
L 243.258228 225.442387 
L 243.103566 225.52348 
L 242.951281 225.604574 
L 242.801279 225.685667 
L 242.653452 225.766761 
L 242.50768 225.847854 
L 242.363833 225.928947 
L 242.221773 226.010041 
L 242.08135 226.091134 
L 241.942409 226.172228 
L 241.804786 226.253321 
L 241.668311 226.334415 
L 241.532808 226.415508 
L 241.398099 226.496601 
L 241.263999 226.577695 
L 241.130323 226.658788 
L 240.996884 226.739882 
L 240.863491 226.820975 
L 240.729958 226.902069 
L 240.596096 226.983162 
L 240.461719 227.064255 
L 240.326644 227.145349 
L 240.190691 227.226442 
L 240.053683 227.307536 
L 239.91545 227.388629 
L 239.775825 227.469722 
L 239.634651 227.550816 
L 239.491773 227.631909 
L 239.347046 227.713003 
L 239.200335 227.794096 
L 239.05151 227.87519 
z
" style="fill:#1f77b4;fill-opacity:0.3;"/>
   </g>
   <g id="PolyCollection_3">
    <path clip-path="url(#p769dd2e08d)" d="M 367.889865 181.133401 
L 318.401044 181.133401 
L 317.912188 179.752696 
L 317.438995 178.371991 
L 316.98267 176.991287 
L 316.544386 175.610582 
L 316.125277 174.229877 
L 315.726428 172.849172 
L 315.348873 171.468468 
L 314.993589 170.087763 
L 314.661489 168.707058 
L 314.353417 167.326354 
L 314.070142 165.945649 
L 313.812356 164.564944 
L 313.580667 163.18424 
L 313.375594 161.803535 
L 313.197567 160.42283 
L 313.046918 159.042126 
L 312.923885 157.661421 
L 312.828603 156.280716 
L 312.761106 154.900012 
L 312.721327 153.519307 
L 312.709091 152.138602 
L 312.724122 150.757897 
L 312.766039 149.377193 
L 312.834358 147.996488 
L 312.928494 146.615783 
L 313.047764 145.235079 
L 313.191387 143.854374 
L 313.358491 142.473669 
L 313.548113 141.092965 
L 313.759207 139.71226 
L 313.990649 138.331555 
L 314.241238 136.950851 
L 314.509707 135.570146 
L 314.794729 134.189441 
L 315.09492 132.808736 
L 315.408851 131.428032 
L 315.735052 130.047327 
L 316.072021 128.666622 
L 316.418233 127.285918 
L 316.772148 125.905213 
L 317.132217 124.524508 
L 317.496894 123.143804 
L 317.864641 121.763099 
L 318.233939 120.382394 
L 318.603295 119.00169 
L 318.971249 117.620985 
L 319.336385 116.24028 
L 319.697336 114.859576 
L 320.052792 113.478871 
L 320.401507 112.098166 
L 320.742305 110.717461 
L 321.074088 109.336757 
L 321.395838 107.956052 
L 321.706628 106.575347 
L 322.005619 105.194643 
L 322.292068 103.813938 
L 322.565333 102.433233 
L 322.824872 101.052529 
L 323.070246 99.671824 
L 323.301123 98.291119 
L 323.517274 96.910415 
L 323.718576 95.52971 
L 323.905011 94.149005 
L 324.076664 92.7683 
L 324.233722 91.387596 
L 324.376469 90.006891 
L 324.505287 88.626186 
L 324.620645 87.245482 
L 324.723105 85.864777 
L 324.813305 84.484072 
L 324.891965 83.103368 
L 324.959872 81.722663 
L 325.017879 80.341958 
L 325.066899 78.961254 
L 325.107894 77.580549 
L 325.14187 76.199844 
L 325.16987 74.81914 
L 325.192968 73.438435 
L 325.212257 72.05773 
L 325.228846 70.677025 
L 325.24385 69.296321 
L 325.258382 67.915616 
L 325.273549 66.534911 
L 325.29044 65.154207 
L 325.310123 63.773502 
L 325.333635 62.392797 
L 325.36198 61.012093 
L 325.396117 59.631388 
L 325.43696 58.250683 
L 325.485369 56.869979 
L 325.542147 55.489274 
L 325.608036 54.108569 
L 325.683711 52.727865 
L 325.769778 51.34716 
L 325.866774 49.966455 
L 325.975158 48.58575 
L 326.095316 47.205046 
L 326.227559 45.824341 
L 326.372117 44.443636 
L 359.918792 44.443636 
L 359.918792 44.443636 
L 360.06335 45.824341 
L 360.195593 47.205046 
L 360.315751 48.58575 
L 360.424135 49.966455 
L 360.521131 51.34716 
L 360.607198 52.727865 
L 360.682873 54.108569 
L 360.748762 55.489274 
L 360.80554 56.869979 
L 360.853949 58.250683 
L 360.894792 59.631388 
L 360.92893 61.012093 
L 360.957274 62.392797 
L 360.980786 63.773502 
L 361.000469 65.154207 
L 361.01736 66.534911 
L 361.032527 67.915616 
L 361.047059 69.296321 
L 361.062063 70.677025 
L 361.078652 72.05773 
L 361.097941 73.438435 
L 361.121039 74.81914 
L 361.149039 76.199844 
L 361.183015 77.580549 
L 361.22401 78.961254 
L 361.27303 80.341958 
L 361.331038 81.722663 
L 361.398945 83.103368 
L 361.477604 84.484072 
L 361.567804 85.864777 
L 361.670264 87.245482 
L 361.785622 88.626186 
L 361.91444 90.006891 
L 362.057187 91.387596 
L 362.214245 92.7683 
L 362.385898 94.149005 
L 362.572333 95.52971 
L 362.773635 96.910415 
L 362.989786 98.291119 
L 363.220663 99.671824 
L 363.466037 101.052529 
L 363.725576 102.433233 
L 363.998841 103.813938 
L 364.285291 105.194643 
L 364.584281 106.575347 
L 364.895071 107.956052 
L 365.216821 109.336757 
L 365.548604 110.717461 
L 365.889402 112.098166 
L 366.238117 113.478871 
L 366.593573 114.859576 
L 366.954524 116.24028 
L 367.31966 117.620985 
L 367.687614 119.00169 
L 368.05697 120.382394 
L 368.426268 121.763099 
L 368.794015 123.143804 
L 369.158692 124.524508 
L 369.518761 125.905213 
L 369.872676 127.285918 
L 370.218888 128.666622 
L 370.555857 130.047327 
L 370.882058 131.428032 
L 371.195989 132.808736 
L 371.49618 134.189441 
L 371.781202 135.570146 
L 372.049672 136.950851 
L 372.300261 138.331555 
L 372.531702 139.71226 
L 372.742796 141.092965 
L 372.932418 142.473669 
L 373.099522 143.854374 
L 373.243145 145.235079 
L 373.362415 146.615783 
L 373.456551 147.996488 
L 373.52487 149.377193 
L 373.566787 150.757897 
L 373.581818 152.138602 
L 373.569582 153.519307 
L 373.529803 154.900012 
L 373.462306 156.280716 
L 373.367024 157.661421 
L 373.243991 159.042126 
L 373.093342 160.42283 
L 372.915315 161.803535 
L 372.710242 163.18424 
L 372.478553 164.564944 
L 372.220767 165.945649 
L 371.937492 167.326354 
L 371.62942 168.707058 
L 371.29732 170.087763 
L 370.942036 171.468468 
L 370.564482 172.849172 
L 370.165632 174.229877 
L 369.746523 175.610582 
L 369.308239 176.991287 
L 368.851915 178.371991 
L 368.378721 179.752696 
L 367.889865 181.133401 
z
" style="fill:#1f77b4;fill-opacity:0.3;"/>
   </g>
   <g id="matplotlib.axis_1">
    <g id="xtick_1">
     <g id="line2d_1">
      <defs>
       <path d="M 0 0 
L 0 3.5 
" id="m21fd4cd415" style="stroke:#000000;stroke-width:0.8;"/>
      </defs>
      <g>
       <use style="stroke:#000000;stroke-width:0.8;" x="99.654545" xlink:href="#m21fd4cd415" y="252"/>
      </g>
     </g>
     <g id="text_1">
      <!-- Tesla P100 -->
      <g transform="translate(73.168608 266.598437)scale(0.1 -0.1)">
       <defs>
        <path d="M -0.296875 72.90625 
L 61.375 72.90625 
L 61.375 64.59375 
L 35.5 64.59375 
L 35.5 0 
L 25.59375 0 
L 25.59375 64.59375 
L -0.296875 64.59375 
z
" id="DejaVuSans-84"/>
        <path d="M 56.203125 29.59375 
L 56.203125 25.203125 
L 14.890625 25.203125 
Q 15.484375 15.921875 20.484375 11.0625 
Q 25.484375 6.203125 34.421875 6.203125 
Q 39.59375 6.203125 44.453125 7.46875 
Q 49.3125 8.734375 54.109375 11.28125 
L 54.109375 2.78125 
Q 49.265625 0.734375 44.1875 -0.34375 
Q 39.109375 -1.421875 33.890625 -1.421875 
Q 20.796875 -1.421875 13.15625 6.1875 
Q 5.515625 13.8125 5.515625 26.8125 
Q 5.515625 40.234375 12.765625 48.109375 
Q 20.015625 56 32.328125 56 
Q 43.359375 56 49.78125 48.890625 
Q 56.203125 41.796875 56.203125 29.59375 
z
M 47.21875 32.234375 
Q 47.125 39.59375 43.09375 43.984375 
Q 39.0625 48.390625 32.421875 48.390625 
Q 24.90625 48.390625 20.390625 44.140625 
Q 15.875 39.890625 15.1875 32.171875 
z
" id="DejaVuSans-101"/>
        <path d="M 44.28125 53.078125 
L 44.28125 44.578125 
Q 40.484375 46.53125 36.375 47.5 
Q 32.28125 48.484375 27.875 48.484375 
Q 21.1875 48.484375 17.84375 46.4375 
Q 14.5 44.390625 14.5 40.28125 
Q 14.5 37.15625 16.890625 35.375 
Q 19.28125 33.59375 26.515625 31.984375 
L 29.59375 31.296875 
Q 39.15625 29.25 43.1875 25.515625 
Q 47.21875 21.78125 47.21875 15.09375 
Q 47.21875 7.46875 41.1875 3.015625 
Q 35.15625 -1.421875 24.609375 -1.421875 
Q 20.21875 -1.421875 15.453125 -0.5625 
Q 10.6875 0.296875 5.421875 2 
L 5.421875 11.28125 
Q 10.40625 8.6875 15.234375 7.390625 
Q 20.0625 6.109375 24.8125 6.109375 
Q 31.15625 6.109375 34.5625 8.28125 
Q 37.984375 10.453125 37.984375 14.40625 
Q 37.984375 18.0625 35.515625 20.015625 
Q 33.0625 21.96875 24.703125 23.78125 
L 21.578125 24.515625 
Q 13.234375 26.265625 9.515625 29.90625 
Q 5.8125 33.546875 5.8125 39.890625 
Q 5.8125 47.609375 11.28125 51.796875 
Q 16.75 56 26.8125 56 
Q 31.78125 56 36.171875 55.265625 
Q 40.578125 54.546875 44.28125 53.078125 
z
" id="DejaVuSans-115"/>
        <path d="M 9.421875 75.984375 
L 18.40625 75.984375 
L 18.40625 0 
L 9.421875 0 
z
" id="DejaVuSans-108"/>
        <path d="M 34.28125 27.484375 
Q 23.390625 27.484375 19.1875 25 
Q 14.984375 22.515625 14.984375 16.5 
Q 14.984375 11.71875 18.140625 8.90625 
Q 21.296875 6.109375 26.703125 6.109375 
Q 34.1875 6.109375 38.703125 11.40625 
Q 43.21875 16.703125 43.21875 25.484375 
L 43.21875 27.484375 
z
M 52.203125 31.203125 
L 52.203125 0 
L 43.21875 0 
L 43.21875 8.296875 
Q 40.140625 3.328125 35.546875 0.953125 
Q 30.953125 -1.421875 24.3125 -1.421875 
Q 15.921875 -1.421875 10.953125 3.296875 
Q 6 8.015625 6 15.921875 
Q 6 25.140625 12.171875 29.828125 
Q 18.359375 34.515625 30.609375 34.515625 
L 43.21875 34.515625 
L 43.21875 35.40625 
Q 43.21875 41.609375 39.140625 45 
Q 35.0625 48.390625 27.6875 48.390625 
Q 23 48.390625 18.546875 47.265625 
Q 14.109375 46.140625 10.015625 43.890625 
L 10.015625 52.203125 
Q 14.9375 54.109375 19.578125 55.046875 
Q 24.21875 56 28.609375 56 
Q 40.484375 56 46.34375 49.84375 
Q 52.203125 43.703125 52.203125 31.203125 
z
" id="DejaVuSans-97"/>
        <path id="DejaVuSans-32"/>
        <path d="M 19.671875 64.796875 
L 19.671875 37.40625 
L 32.078125 37.40625 
Q 38.96875 37.40625 42.71875 40.96875 
Q 46.484375 44.53125 46.484375 51.125 
Q 46.484375 57.671875 42.71875 61.234375 
Q 38.96875 64.796875 32.078125 64.796875 
z
M 9.8125 72.90625 
L 32.078125 72.90625 
Q 44.34375 72.90625 50.609375 67.359375 
Q 56.890625 61.8125 56.890625 51.125 
Q 56.890625 40.328125 50.609375 34.8125 
Q 44.34375 29.296875 32.078125 29.296875 
L 19.671875 29.296875 
L 19.671875 0 
L 9.8125 0 
z
" id="DejaVuSans-80"/>
        <path d="M 12.40625 8.296875 
L 28.515625 8.296875 
L 28.515625 63.921875 
L 10.984375 60.40625 
L 10.984375 69.390625 
L 28.421875 72.90625 
L 38.28125 72.90625 
L 38.28125 8.296875 
L 54.390625 8.296875 
L 54.390625 0 
L 12.40625 0 
z
" id="DejaVuSans-49"/>
        <path d="M 31.78125 66.40625 
Q 24.171875 66.40625 20.328125 58.90625 
Q 16.5 51.421875 16.5 36.375 
Q 16.5 21.390625 20.328125 13.890625 
Q 24.171875 6.390625 31.78125 6.390625 
Q 39.453125 6.390625 43.28125 13.890625 
Q 47.125 21.390625 47.125 36.375 
Q 47.125 51.421875 43.28125 58.90625 
Q 39.453125 66.40625 31.78125 66.40625 
z
M 31.78125 74.21875 
Q 44.046875 74.21875 50.515625 64.515625 
Q 56.984375 54.828125 56.984375 36.375 
Q 56.984375 17.96875 50.515625 8.265625 
Q 44.046875 -1.421875 31.78125 -1.421875 
Q 19.53125 -1.421875 13.0625 8.265625 
Q 6.59375 17.96875 6.59375 36.375 
Q 6.59375 54.828125 13.0625 64.515625 
Q 19.53125 74.21875 31.78125 74.21875 
z
" id="DejaVuSans-48"/>
       </defs>
       <use xlink:href="#DejaVuSans-84"/>
       <use x="44.083984" xlink:href="#DejaVuSans-101"/>
       <use x="105.607422" xlink:href="#DejaVuSans-115"/>
       <use x="157.707031" xlink:href="#DejaVuSans-108"/>
       <use x="185.490234" xlink:href="#DejaVuSans-97"/>
       <use x="246.769531" xlink:href="#DejaVuSans-32"/>
       <use x="278.556641" xlink:href="#DejaVuSans-80"/>
       <use x="338.859375" xlink:href="#DejaVuSans-49"/>
       <use x="402.482422" xlink:href="#DejaVuSans-48"/>
       <use x="466.105469" xlink:href="#DejaVuSans-48"/>
      </g>
      <!-- ≈17.50 -->
      <g transform="translate(81.150639 277.79625)scale(0.1 -0.1)">
       <defs>
        <path d="M 73.1875 30.421875 
L 73.1875 21.6875 
Q 68.0625 17.875 63.6875 16.1875 
Q 59.328125 14.5 54.59375 14.5 
Q 49.21875 14.5 42.09375 17.390625 
Q 41.609375 17.578125 41.265625 17.71875 
Q 40.96875 17.828125 40.234375 18.109375 
Q 32.671875 21.09375 28.078125 21.09375 
Q 23.78125 21.09375 19.578125 19.234375 
Q 15.375 17.390625 10.59375 13.28125 
L 10.59375 22.015625 
Q 15.71875 25.828125 20.09375 27.515625 
Q 24.46875 29.203125 29.203125 29.203125 
Q 34.578125 29.203125 41.75 26.3125 
Q 42.28125 26.078125 42.53125 25.984375 
Q 42.828125 25.875 43.5625 25.59375 
Q 51.125 22.609375 55.71875 22.609375 
Q 59.90625 22.609375 64.03125 24.4375 
Q 68.171875 26.265625 73.1875 30.421875 
z
M 73.1875 49.421875 
L 73.1875 40.71875 
Q 68.0625 36.859375 63.6875 35.171875 
Q 59.328125 33.5 54.59375 33.5 
Q 49.21875 33.5 42.09375 36.375 
Q 41.609375 36.578125 41.265625 36.71875 
Q 40.96875 36.8125 40.234375 37.109375 
Q 32.671875 40.09375 28.078125 40.09375 
Q 23.78125 40.09375 19.578125 38.234375 
Q 15.375 36.375 10.59375 32.328125 
L 10.59375 41.015625 
Q 15.71875 44.828125 20.09375 46.5 
Q 24.46875 48.1875 29.203125 48.1875 
Q 34.578125 48.1875 41.75 45.3125 
Q 42.234375 45.125 42.484375 45.015625 
Q 42.828125 44.875 43.5625 44.578125 
Q 51.125 41.609375 55.71875 41.609375 
Q 59.90625 41.609375 64.03125 43.4375 
Q 68.171875 45.265625 73.1875 49.421875 
z
" id="DejaVuSans-8776"/>
        <path d="M 8.203125 72.90625 
L 55.078125 72.90625 
L 55.078125 68.703125 
L 28.609375 0 
L 18.3125 0 
L 43.21875 64.59375 
L 8.203125 64.59375 
z
" id="DejaVuSans-55"/>
        <path d="M 10.6875 12.40625 
L 21 12.40625 
L 21 0 
L 10.6875 0 
z
" id="DejaVuSans-46"/>
        <path d="M 10.796875 72.90625 
L 49.515625 72.90625 
L 49.515625 64.59375 
L 19.828125 64.59375 
L 19.828125 46.734375 
Q 21.96875 47.46875 24.109375 47.828125 
Q 26.265625 48.1875 28.421875 48.1875 
Q 40.625 48.1875 47.75 41.5 
Q 54.890625 34.8125 54.890625 23.390625 
Q 54.890625 11.625 47.5625 5.09375 
Q 40.234375 -1.421875 26.90625 -1.421875 
Q 22.3125 -1.421875 17.546875 -0.640625 
Q 12.796875 0.140625 7.71875 1.703125 
L 7.71875 11.625 
Q 12.109375 9.234375 16.796875 8.0625 
Q 21.484375 6.890625 26.703125 6.890625 
Q 35.15625 6.890625 40.078125 11.328125 
Q 45.015625 15.765625 45.015625 23.390625 
Q 45.015625 31 40.078125 35.4375 
Q 35.15625 39.890625 26.703125 39.890625 
Q 22.75 39.890625 18.8125 39.015625 
Q 14.890625 38.140625 10.796875 36.28125 
z
" id="DejaVuSans-53"/>
       </defs>
       <use xlink:href="#DejaVuSans-8776"/>
       <use x="83.789062" xlink:href="#DejaVuSans-49"/>
       <use x="147.412109" xlink:href="#DejaVuSans-55"/>
       <use x="211.035156" xlink:href="#DejaVuSans-46"/>
       <use x="242.822266" xlink:href="#DejaVuSans-53"/>
       <use x="306.445312" xlink:href="#DejaVuSans-48"/>
      </g>
      <!-- mins/model -->
      <g transform="translate(70.367827 288.994062)scale(0.1 -0.1)">
       <defs>
        <path d="M 52 44.1875 
Q 55.375 50.25 60.0625 53.125 
Q 64.75 56 71.09375 56 
Q 79.640625 56 84.28125 50.015625 
Q 88.921875 44.046875 88.921875 33.015625 
L 88.921875 0 
L 79.890625 0 
L 79.890625 32.71875 
Q 79.890625 40.578125 77.09375 44.375 
Q 74.3125 48.1875 68.609375 48.1875 
Q 61.625 48.1875 57.5625 43.546875 
Q 53.515625 38.921875 53.515625 30.90625 
L 53.515625 0 
L 44.484375 0 
L 44.484375 32.71875 
Q 44.484375 40.625 41.703125 44.40625 
Q 38.921875 48.1875 33.109375 48.1875 
Q 26.21875 48.1875 22.15625 43.53125 
Q 18.109375 38.875 18.109375 30.90625 
L 18.109375 0 
L 9.078125 0 
L 9.078125 54.6875 
L 18.109375 54.6875 
L 18.109375 46.1875 
Q 21.1875 51.21875 25.484375 53.609375 
Q 29.78125 56 35.6875 56 
Q 41.65625 56 45.828125 52.96875 
Q 50 49.953125 52 44.1875 
z
" id="DejaVuSans-109"/>
        <path d="M 9.421875 54.6875 
L 18.40625 54.6875 
L 18.40625 0 
L 9.421875 0 
z
M 9.421875 75.984375 
L 18.40625 75.984375 
L 18.40625 64.59375 
L 9.421875 64.59375 
z
" id="DejaVuSans-105"/>
        <path d="M 54.890625 33.015625 
L 54.890625 0 
L 45.90625 0 
L 45.90625 32.71875 
Q 45.90625 40.484375 42.875 44.328125 
Q 39.84375 48.1875 33.796875 48.1875 
Q 26.515625 48.1875 22.3125 43.546875 
Q 18.109375 38.921875 18.109375 30.90625 
L 18.109375 0 
L 9.078125 0 
L 9.078125 54.6875 
L 18.109375 54.6875 
L 18.109375 46.1875 
Q 21.34375 51.125 25.703125 53.5625 
Q 30.078125 56 35.796875 56 
Q 45.21875 56 50.046875 50.171875 
Q 54.890625 44.34375 54.890625 33.015625 
z
" id="DejaVuSans-110"/>
        <path d="M 25.390625 72.90625 
L 33.6875 72.90625 
L 8.296875 -9.28125 
L 0 -9.28125 
z
" id="DejaVuSans-47"/>
        <path d="M 30.609375 48.390625 
Q 23.390625 48.390625 19.1875 42.75 
Q 14.984375 37.109375 14.984375 27.296875 
Q 14.984375 17.484375 19.15625 11.84375 
Q 23.34375 6.203125 30.609375 6.203125 
Q 37.796875 6.203125 41.984375 11.859375 
Q 46.1875 17.53125 46.1875 27.296875 
Q 46.1875 37.015625 41.984375 42.703125 
Q 37.796875 48.390625 30.609375 48.390625 
z
M 30.609375 56 
Q 42.328125 56 49.015625 48.375 
Q 55.71875 40.765625 55.71875 27.296875 
Q 55.71875 13.875 49.015625 6.21875 
Q 42.328125 -1.421875 30.609375 -1.421875 
Q 18.84375 -1.421875 12.171875 6.21875 
Q 5.515625 13.875 5.515625 27.296875 
Q 5.515625 40.765625 12.171875 48.375 
Q 18.84375 56 30.609375 56 
z
" id="DejaVuSans-111"/>
        <path d="M 45.40625 46.390625 
L 45.40625 75.984375 
L 54.390625 75.984375 
L 54.390625 0 
L 45.40625 0 
L 45.40625 8.203125 
Q 42.578125 3.328125 38.25 0.953125 
Q 33.9375 -1.421875 27.875 -1.421875 
Q 17.96875 -1.421875 11.734375 6.484375 
Q 5.515625 14.40625 5.515625 27.296875 
Q 5.515625 40.1875 11.734375 48.09375 
Q 17.96875 56 27.875 56 
Q 33.9375 56 38.25 53.625 
Q 42.578125 51.265625 45.40625 46.390625 
z
M 14.796875 27.296875 
Q 14.796875 17.390625 18.875 11.75 
Q 22.953125 6.109375 30.078125 6.109375 
Q 37.203125 6.109375 41.296875 11.75 
Q 45.40625 17.390625 45.40625 27.296875 
Q 45.40625 37.203125 41.296875 42.84375 
Q 37.203125 48.484375 30.078125 48.484375 
Q 22.953125 48.484375 18.875 42.84375 
Q 14.796875 37.203125 14.796875 27.296875 
z
" id="DejaVuSans-100"/>
       </defs>
       <use xlink:href="#DejaVuSans-109"/>
       <use x="97.412109" xlink:href="#DejaVuSans-105"/>
       <use x="125.195312" xlink:href="#DejaVuSans-110"/>
       <use x="188.574219" xlink:href="#DejaVuSans-115"/>
       <use x="240.673828" xlink:href="#DejaVuSans-47"/>
       <use x="274.365234" xlink:href="#DejaVuSans-109"/>
       <use x="371.777344" xlink:href="#DejaVuSans-111"/>
       <use x="432.958984" xlink:href="#DejaVuSans-100"/>
       <use x="496.435547" xlink:href="#DejaVuSans-101"/>
       <use x="557.958984" xlink:href="#DejaVuSans-108"/>
      </g>
     </g>
    </g>
    <g id="xtick_2">
     <g id="line2d_2">
      <g>
       <use style="stroke:#000000;stroke-width:0.8;" x="221.4" xlink:href="#m21fd4cd415" y="252"/>
      </g>
     </g>
     <g id="text_2">
      <!-- GTX 970 &amp; 1070Ti -->
      <g transform="translate(176.00625 266.598437)scale(0.1 -0.1)">
       <defs>
        <path d="M 59.515625 10.40625 
L 59.515625 29.984375 
L 43.40625 29.984375 
L 43.40625 38.09375 
L 69.28125 38.09375 
L 69.28125 6.78125 
Q 63.578125 2.734375 56.6875 0.65625 
Q 49.8125 -1.421875 42 -1.421875 
Q 24.90625 -1.421875 15.25 8.5625 
Q 5.609375 18.5625 5.609375 36.375 
Q 5.609375 54.25 15.25 64.234375 
Q 24.90625 74.21875 42 74.21875 
Q 49.125 74.21875 55.546875 72.453125 
Q 61.96875 70.703125 67.390625 67.28125 
L 67.390625 56.78125 
Q 61.921875 61.421875 55.765625 63.765625 
Q 49.609375 66.109375 42.828125 66.109375 
Q 29.4375 66.109375 22.71875 58.640625 
Q 16.015625 51.171875 16.015625 36.375 
Q 16.015625 21.625 22.71875 14.15625 
Q 29.4375 6.6875 42.828125 6.6875 
Q 48.046875 6.6875 52.140625 7.59375 
Q 56.25 8.5 59.515625 10.40625 
z
" id="DejaVuSans-71"/>
        <path d="M 6.296875 72.90625 
L 16.890625 72.90625 
L 35.015625 45.796875 
L 53.21875 72.90625 
L 63.8125 72.90625 
L 40.375 37.890625 
L 65.375 0 
L 54.78125 0 
L 34.28125 31 
L 13.625 0 
L 2.984375 0 
L 29 38.921875 
z
" id="DejaVuSans-88"/>
        <path d="M 10.984375 1.515625 
L 10.984375 10.5 
Q 14.703125 8.734375 18.5 7.8125 
Q 22.3125 6.890625 25.984375 6.890625 
Q 35.75 6.890625 40.890625 13.453125 
Q 46.046875 20.015625 46.78125 33.40625 
Q 43.953125 29.203125 39.59375 26.953125 
Q 35.25 24.703125 29.984375 24.703125 
Q 19.046875 24.703125 12.671875 31.3125 
Q 6.296875 37.9375 6.296875 49.421875 
Q 6.296875 60.640625 12.9375 67.421875 
Q 19.578125 74.21875 30.609375 74.21875 
Q 43.265625 74.21875 49.921875 64.515625 
Q 56.59375 54.828125 56.59375 36.375 
Q 56.59375 19.140625 48.40625 8.859375 
Q 40.234375 -1.421875 26.421875 -1.421875 
Q 22.703125 -1.421875 18.890625 -0.6875 
Q 15.09375 0.046875 10.984375 1.515625 
z
M 30.609375 32.421875 
Q 37.25 32.421875 41.125 36.953125 
Q 45.015625 41.5 45.015625 49.421875 
Q 45.015625 57.28125 41.125 61.84375 
Q 37.25 66.40625 30.609375 66.40625 
Q 23.96875 66.40625 20.09375 61.84375 
Q 16.21875 57.28125 16.21875 49.421875 
Q 16.21875 41.5 20.09375 36.953125 
Q 23.96875 32.421875 30.609375 32.421875 
z
" id="DejaVuSans-57"/>
        <path d="M 24.3125 39.203125 
Q 19.875 35.25 17.796875 31.3125 
Q 15.71875 27.390625 15.71875 23.09375 
Q 15.71875 15.96875 20.890625 11.234375 
Q 26.078125 6.5 33.890625 6.5 
Q 38.53125 6.5 42.578125 8.03125 
Q 46.625 9.578125 50.203125 12.703125 
z
M 31.203125 44.671875 
L 56 19.28125 
Q 58.890625 23.640625 60.5 28.59375 
Q 62.109375 33.546875 62.40625 39.109375 
L 71.484375 39.109375 
Q 70.90625 32.671875 68.359375 26.359375 
Q 65.828125 20.0625 61.28125 13.921875 
L 74.90625 0 
L 62.59375 0 
L 55.609375 7.171875 
Q 50.53125 2.828125 44.96875 0.703125 
Q 39.40625 -1.421875 33.015625 -1.421875 
Q 21.234375 -1.421875 13.765625 5.296875 
Q 6.296875 12.015625 6.296875 22.515625 
Q 6.296875 28.765625 9.5625 34.25 
Q 12.84375 39.75 19.390625 44.578125 
Q 17.046875 47.65625 15.8125 50.703125 
Q 14.59375 53.765625 14.59375 56.6875 
Q 14.59375 64.59375 20.015625 69.40625 
Q 25.4375 74.21875 34.421875 74.21875 
Q 38.484375 74.21875 42.5 73.34375 
Q 46.53125 72.46875 50.6875 70.703125 
L 50.6875 61.8125 
Q 46.4375 64.109375 42.578125 65.296875 
Q 38.71875 66.5 35.40625 66.5 
Q 30.28125 66.5 27.078125 63.78125 
Q 23.875 61.078125 23.875 56.78125 
Q 23.875 54.296875 25.3125 51.78125 
Q 26.765625 49.265625 31.203125 44.671875 
z
" id="DejaVuSans-38"/>
       </defs>
       <use xlink:href="#DejaVuSans-71"/>
       <use x="73.865234" xlink:href="#DejaVuSans-84"/>
       <use x="134.949219" xlink:href="#DejaVuSans-88"/>
       <use x="203.455078" xlink:href="#DejaVuSans-32"/>
       <use x="235.242188" xlink:href="#DejaVuSans-57"/>
       <use x="298.865234" xlink:href="#DejaVuSans-55"/>
       <use x="362.488281" xlink:href="#DejaVuSans-48"/>
       <use x="426.111328" xlink:href="#DejaVuSans-32"/>
       <use x="457.898438" xlink:href="#DejaVuSans-38"/>
       <use x="535.876953" xlink:href="#DejaVuSans-32"/>
       <use x="567.664062" xlink:href="#DejaVuSans-49"/>
       <use x="631.287109" xlink:href="#DejaVuSans-48"/>
       <use x="694.910156" xlink:href="#DejaVuSans-55"/>
       <use x="758.533203" xlink:href="#DejaVuSans-48"/>
       <use x="822.15625" xlink:href="#DejaVuSans-84"/>
       <use x="880.115234" xlink:href="#DejaVuSans-105"/>
      </g>
      <!-- ≈13.23 -->
      <g transform="translate(202.896094 277.79625)scale(0.1 -0.1)">
       <defs>
        <path d="M 40.578125 39.3125 
Q 47.65625 37.796875 51.625 33 
Q 55.609375 28.21875 55.609375 21.1875 
Q 55.609375 10.40625 48.1875 4.484375 
Q 40.765625 -1.421875 27.09375 -1.421875 
Q 22.515625 -1.421875 17.65625 -0.515625 
Q 12.796875 0.390625 7.625 2.203125 
L 7.625 11.71875 
Q 11.71875 9.328125 16.59375 8.109375 
Q 21.484375 6.890625 26.8125 6.890625 
Q 36.078125 6.890625 40.9375 10.546875 
Q 45.796875 14.203125 45.796875 21.1875 
Q 45.796875 27.640625 41.28125 31.265625 
Q 36.765625 34.90625 28.71875 34.90625 
L 20.21875 34.90625 
L 20.21875 43.015625 
L 29.109375 43.015625 
Q 36.375 43.015625 40.234375 45.921875 
Q 44.09375 48.828125 44.09375 54.296875 
Q 44.09375 59.90625 40.109375 62.90625 
Q 36.140625 65.921875 28.71875 65.921875 
Q 24.65625 65.921875 20.015625 65.03125 
Q 15.375 64.15625 9.8125 62.3125 
L 9.8125 71.09375 
Q 15.4375 72.65625 20.34375 73.4375 
Q 25.25 74.21875 29.59375 74.21875 
Q 40.828125 74.21875 47.359375 69.109375 
Q 53.90625 64.015625 53.90625 55.328125 
Q 53.90625 49.265625 50.4375 45.09375 
Q 46.96875 40.921875 40.578125 39.3125 
z
" id="DejaVuSans-51"/>
        <path d="M 19.1875 8.296875 
L 53.609375 8.296875 
L 53.609375 0 
L 7.328125 0 
L 7.328125 8.296875 
Q 12.9375 14.109375 22.625 23.890625 
Q 32.328125 33.6875 34.8125 36.53125 
Q 39.546875 41.84375 41.421875 45.53125 
Q 43.3125 49.21875 43.3125 52.78125 
Q 43.3125 58.59375 39.234375 62.25 
Q 35.15625 65.921875 28.609375 65.921875 
Q 23.96875 65.921875 18.8125 64.3125 
Q 13.671875 62.703125 7.8125 59.421875 
L 7.8125 69.390625 
Q 13.765625 71.78125 18.9375 73 
Q 24.125 74.21875 28.421875 74.21875 
Q 39.75 74.21875 46.484375 68.546875 
Q 53.21875 62.890625 53.21875 53.421875 
Q 53.21875 48.921875 51.53125 44.890625 
Q 49.859375 40.875 45.40625 35.40625 
Q 44.1875 33.984375 37.640625 27.21875 
Q 31.109375 20.453125 19.1875 8.296875 
z
" id="DejaVuSans-50"/>
       </defs>
       <use xlink:href="#DejaVuSans-8776"/>
       <use x="83.789062" xlink:href="#DejaVuSans-49"/>
       <use x="147.412109" xlink:href="#DejaVuSans-51"/>
       <use x="211.035156" xlink:href="#DejaVuSans-46"/>
       <use x="242.822266" xlink:href="#DejaVuSans-50"/>
       <use x="306.445312" xlink:href="#DejaVuSans-51"/>
      </g>
      <!-- mins/model -->
      <g transform="translate(192.113281 288.994062)scale(0.1 -0.1)">
       <use xlink:href="#DejaVuSans-109"/>
       <use x="97.412109" xlink:href="#DejaVuSans-105"/>
       <use x="125.195312" xlink:href="#DejaVuSans-110"/>
       <use x="188.574219" xlink:href="#DejaVuSans-115"/>
       <use x="240.673828" xlink:href="#DejaVuSans-47"/>
       <use x="274.365234" xlink:href="#DejaVuSans-109"/>
       <use x="371.777344" xlink:href="#DejaVuSans-111"/>
       <use x="432.958984" xlink:href="#DejaVuSans-100"/>
       <use x="496.435547" xlink:href="#DejaVuSans-101"/>
       <use x="557.958984" xlink:href="#DejaVuSans-108"/>
      </g>
     </g>
    </g>
    <g id="xtick_3">
     <g id="line2d_3">
      <g>
       <use style="stroke:#000000;stroke-width:0.8;" x="343.145455" xlink:href="#m21fd4cd415" y="252"/>
      </g>
     </g>
     <g id="text_3">
      <!-- Tesla V100 -->
      <g transform="translate(316.254048 266.598437)scale(0.1 -0.1)">
       <defs>
        <path d="M 28.609375 0 
L 0.78125 72.90625 
L 11.078125 72.90625 
L 34.1875 11.53125 
L 57.328125 72.90625 
L 67.578125 72.90625 
L 39.796875 0 
z
" id="DejaVuSans-86"/>
       </defs>
       <use xlink:href="#DejaVuSans-84"/>
       <use x="44.083984" xlink:href="#DejaVuSans-101"/>
       <use x="105.607422" xlink:href="#DejaVuSans-115"/>
       <use x="157.707031" xlink:href="#DejaVuSans-108"/>
       <use x="185.490234" xlink:href="#DejaVuSans-97"/>
       <use x="246.769531" xlink:href="#DejaVuSans-32"/>
       <use x="278.556641" xlink:href="#DejaVuSans-86"/>
       <use x="346.964844" xlink:href="#DejaVuSans-49"/>
       <use x="410.587891" xlink:href="#DejaVuSans-48"/>
       <use x="474.210938" xlink:href="#DejaVuSans-48"/>
      </g>
      <!-- ≈39.96 -->
      <g transform="translate(324.641548 277.79625)scale(0.1 -0.1)">
       <defs>
        <path d="M 33.015625 40.375 
Q 26.375 40.375 22.484375 35.828125 
Q 18.609375 31.296875 18.609375 23.390625 
Q 18.609375 15.53125 22.484375 10.953125 
Q 26.375 6.390625 33.015625 6.390625 
Q 39.65625 6.390625 43.53125 10.953125 
Q 47.40625 15.53125 47.40625 23.390625 
Q 47.40625 31.296875 43.53125 35.828125 
Q 39.65625 40.375 33.015625 40.375 
z
M 52.59375 71.296875 
L 52.59375 62.3125 
Q 48.875 64.0625 45.09375 64.984375 
Q 41.3125 65.921875 37.59375 65.921875 
Q 27.828125 65.921875 22.671875 59.328125 
Q 17.53125 52.734375 16.796875 39.40625 
Q 19.671875 43.65625 24.015625 45.921875 
Q 28.375 48.1875 33.59375 48.1875 
Q 44.578125 48.1875 50.953125 41.515625 
Q 57.328125 34.859375 57.328125 23.390625 
Q 57.328125 12.15625 50.6875 5.359375 
Q 44.046875 -1.421875 33.015625 -1.421875 
Q 20.359375 -1.421875 13.671875 8.265625 
Q 6.984375 17.96875 6.984375 36.375 
Q 6.984375 53.65625 15.1875 63.9375 
Q 23.390625 74.21875 37.203125 74.21875 
Q 40.921875 74.21875 44.703125 73.484375 
Q 48.484375 72.75 52.59375 71.296875 
z
" id="DejaVuSans-54"/>
       </defs>
       <use xlink:href="#DejaVuSans-8776"/>
       <use x="83.789062" xlink:href="#DejaVuSans-51"/>
       <use x="147.412109" xlink:href="#DejaVuSans-57"/>
       <use x="211.035156" xlink:href="#DejaVuSans-46"/>
       <use x="242.822266" xlink:href="#DejaVuSans-57"/>
       <use x="306.445312" xlink:href="#DejaVuSans-54"/>
      </g>
      <!-- mins/model -->
      <g transform="translate(313.858736 288.994062)scale(0.1 -0.1)">
       <use xlink:href="#DejaVuSans-109"/>
       <use x="97.412109" xlink:href="#DejaVuSans-105"/>
       <use x="125.195312" xlink:href="#DejaVuSans-110"/>
       <use x="188.574219" xlink:href="#DejaVuSans-115"/>
       <use x="240.673828" xlink:href="#DejaVuSans-47"/>
       <use x="274.365234" xlink:href="#DejaVuSans-109"/>
       <use x="371.777344" xlink:href="#DejaVuSans-111"/>
       <use x="432.958984" xlink:href="#DejaVuSans-100"/>
       <use x="496.435547" xlink:href="#DejaVuSans-101"/>
       <use x="557.958984" xlink:href="#DejaVuSans-108"/>
      </g>
     </g>
    </g>
    <g id="text_4">
     <!-- GPU Workers -->
     <g transform="translate(189.046875 302.672188)scale(0.1 -0.1)">
      <defs>
       <path d="M 8.6875 72.90625 
L 18.609375 72.90625 
L 18.609375 28.609375 
Q 18.609375 16.890625 22.84375 11.734375 
Q 27.09375 6.59375 36.625 6.59375 
Q 46.09375 6.59375 50.34375 11.734375 
Q 54.59375 16.890625 54.59375 28.609375 
L 54.59375 72.90625 
L 64.5 72.90625 
L 64.5 27.390625 
Q 64.5 13.140625 57.4375 5.859375 
Q 50.390625 -1.421875 36.625 -1.421875 
Q 22.796875 -1.421875 15.734375 5.859375 
Q 8.6875 13.140625 8.6875 27.390625 
z
" id="DejaVuSans-85"/>
       <path d="M 3.328125 72.90625 
L 13.28125 72.90625 
L 28.609375 11.28125 
L 43.890625 72.90625 
L 54.984375 72.90625 
L 70.3125 11.28125 
L 85.59375 72.90625 
L 95.609375 72.90625 
L 77.296875 0 
L 64.890625 0 
L 49.515625 63.28125 
L 33.984375 0 
L 21.578125 0 
z
" id="DejaVuSans-87"/>
       <path d="M 41.109375 46.296875 
Q 39.59375 47.171875 37.8125 47.578125 
Q 36.03125 48 33.890625 48 
Q 26.265625 48 22.1875 43.046875 
Q 18.109375 38.09375 18.109375 28.8125 
L 18.109375 0 
L 9.078125 0 
L 9.078125 54.6875 
L 18.109375 54.6875 
L 18.109375 46.1875 
Q 20.953125 51.171875 25.484375 53.578125 
Q 30.03125 56 36.53125 56 
Q 37.453125 56 38.578125 55.875 
Q 39.703125 55.765625 41.0625 55.515625 
z
" id="DejaVuSans-114"/>
       <path d="M 9.078125 75.984375 
L 18.109375 75.984375 
L 18.109375 31.109375 
L 44.921875 54.6875 
L 56.390625 54.6875 
L 27.390625 29.109375 
L 57.625 0 
L 45.90625 0 
L 18.109375 26.703125 
L 18.109375 0 
L 9.078125 0 
z
" id="DejaVuSans-107"/>
      </defs>
      <use xlink:href="#DejaVuSans-71"/>
      <use x="77.490234" xlink:href="#DejaVuSans-80"/>
      <use x="137.792969" xlink:href="#DejaVuSans-85"/>
      <use x="210.986328" xlink:href="#DejaVuSans-32"/>
      <use x="242.773438" xlink:href="#DejaVuSans-87"/>
      <use x="335.775391" xlink:href="#DejaVuSans-111"/>
      <use x="396.957031" xlink:href="#DejaVuSans-114"/>
      <use x="438.070312" xlink:href="#DejaVuSans-107"/>
      <use x="492.355469" xlink:href="#DejaVuSans-101"/>
      <use x="553.878906" xlink:href="#DejaVuSans-114"/>
      <use x="594.992188" xlink:href="#DejaVuSans-115"/>
     </g>
    </g>
   </g>
   <g id="matplotlib.axis_2">
    <g id="ytick_1">
     <g id="line2d_4">
      <path clip-path="url(#p769dd2e08d)" d="M 54 235.327689 
L 388.8 235.327689 
" style="fill:none;stroke:#b0b0b0;stroke-linecap:square;stroke-width:0.8;"/>
     </g>
     <g id="line2d_5">
      <defs>
       <path d="M 0 0 
L -3.5 0 
" id="m036c8c8af3" style="stroke:#000000;stroke-width:0.8;"/>
      </defs>
      <g>
       <use style="stroke:#000000;stroke-width:0.8;" x="54" xlink:href="#m036c8c8af3" y="235.327689"/>
      </g>
     </g>
     <g id="text_5">
      <!-- 10 -->
      <g transform="translate(34.275 239.126908)scale(0.1 -0.1)">
       <use xlink:href="#DejaVuSans-49"/>
       <use x="63.623047" xlink:href="#DejaVuSans-48"/>
      </g>
     </g>
    </g>
    <g id="ytick_2">
     <g id="line2d_6">
      <path clip-path="url(#p769dd2e08d)" d="M 54 196.895518 
L 388.8 196.895518 
" style="fill:none;stroke:#b0b0b0;stroke-linecap:square;stroke-width:0.8;"/>
     </g>
     <g id="line2d_7">
      <g>
       <use style="stroke:#000000;stroke-width:0.8;" x="54" xlink:href="#m036c8c8af3" y="196.895518"/>
      </g>
     </g>
     <g id="text_6">
      <!-- 20 -->
      <g transform="translate(34.275 200.694737)scale(0.1 -0.1)">
       <use xlink:href="#DejaVuSans-50"/>
       <use x="63.623047" xlink:href="#DejaVuSans-48"/>
      </g>
     </g>
    </g>
    <g id="ytick_3">
     <g id="line2d_8">
      <path clip-path="url(#p769dd2e08d)" d="M 54 158.463347 
L 388.8 158.463347 
" style="fill:none;stroke:#b0b0b0;stroke-linecap:square;stroke-width:0.8;"/>
     </g>
     <g id="line2d_9">
      <g>
       <use style="stroke:#000000;stroke-width:0.8;" x="54" xlink:href="#m036c8c8af3" y="158.463347"/>
      </g>
     </g>
     <g id="text_7">
      <!-- 30 -->
      <g transform="translate(34.275 162.262566)scale(0.1 -0.1)">
       <use xlink:href="#DejaVuSans-51"/>
       <use x="63.623047" xlink:href="#DejaVuSans-48"/>
      </g>
     </g>
    </g>
    <g id="ytick_4">
     <g id="line2d_10">
      <path clip-path="url(#p769dd2e08d)" d="M 54 120.031176 
L 388.8 120.031176 
" style="fill:none;stroke:#b0b0b0;stroke-linecap:square;stroke-width:0.8;"/>
     </g>
     <g id="line2d_11">
      <g>
       <use style="stroke:#000000;stroke-width:0.8;" x="54" xlink:href="#m036c8c8af3" y="120.031176"/>
      </g>
     </g>
     <g id="text_8">
      <!-- 40 -->
      <g transform="translate(34.275 123.830395)scale(0.1 -0.1)">
       <defs>
        <path d="M 37.796875 64.3125 
L 12.890625 25.390625 
L 37.796875 25.390625 
z
M 35.203125 72.90625 
L 47.609375 72.90625 
L 47.609375 25.390625 
L 58.015625 25.390625 
L 58.015625 17.1875 
L 47.609375 17.1875 
L 47.609375 0 
L 37.796875 0 
L 37.796875 17.1875 
L 4.890625 17.1875 
L 4.890625 26.703125 
z
" id="DejaVuSans-52"/>
       </defs>
       <use xlink:href="#DejaVuSans-52"/>
       <use x="63.623047" xlink:href="#DejaVuSans-48"/>
      </g>
     </g>
    </g>
    <g id="ytick_5">
     <g id="line2d_12">
      <path clip-path="url(#p769dd2e08d)" d="M 54 81.599005 
L 388.8 81.599005 
" style="fill:none;stroke:#b0b0b0;stroke-linecap:square;stroke-width:0.8;"/>
     </g>
     <g id="line2d_13">
      <g>
       <use style="stroke:#000000;stroke-width:0.8;" x="54" xlink:href="#m036c8c8af3" y="81.599005"/>
      </g>
     </g>
     <g id="text_9">
      <!-- 50 -->
      <g transform="translate(34.275 85.398224)scale(0.1 -0.1)">
       <use xlink:href="#DejaVuSans-53"/>
       <use x="63.623047" xlink:href="#DejaVuSans-48"/>
      </g>
     </g>
    </g>
    <g id="ytick_6">
     <g id="line2d_14">
      <path clip-path="url(#p769dd2e08d)" d="M 54 43.166834 
L 388.8 43.166834 
" style="fill:none;stroke:#b0b0b0;stroke-linecap:square;stroke-width:0.8;"/>
     </g>
     <g id="line2d_15">
      <g>
       <use style="stroke:#000000;stroke-width:0.8;" x="54" xlink:href="#m036c8c8af3" y="43.166834"/>
      </g>
     </g>
     <g id="text_10">
      <!-- 60 -->
      <g transform="translate(34.275 46.966053)scale(0.1 -0.1)">
       <use xlink:href="#DejaVuSans-54"/>
       <use x="63.623047" xlink:href="#DejaVuSans-48"/>
      </g>
     </g>
    </g>
    <g id="text_11">
     <!-- Time (minutes) -->
     <g transform="translate(28.195312 181.2425)rotate(-90)scale(0.1 -0.1)">
      <defs>
       <path d="M 31 75.875 
Q 24.46875 64.65625 21.28125 53.65625 
Q 18.109375 42.671875 18.109375 31.390625 
Q 18.109375 20.125 21.3125 9.0625 
Q 24.515625 -2 31 -13.1875 
L 23.1875 -13.1875 
Q 15.875 -1.703125 12.234375 9.375 
Q 8.59375 20.453125 8.59375 31.390625 
Q 8.59375 42.28125 12.203125 53.3125 
Q 15.828125 64.359375 23.1875 75.875 
z
" id="DejaVuSans-40"/>
       <path d="M 8.5 21.578125 
L 8.5 54.6875 
L 17.484375 54.6875 
L 17.484375 21.921875 
Q 17.484375 14.15625 20.5 10.265625 
Q 23.53125 6.390625 29.59375 6.390625 
Q 36.859375 6.390625 41.078125 11.03125 
Q 45.3125 15.671875 45.3125 23.6875 
L 45.3125 54.6875 
L 54.296875 54.6875 
L 54.296875 0 
L 45.3125 0 
L 45.3125 8.40625 
Q 42.046875 3.421875 37.71875 1 
Q 33.40625 -1.421875 27.6875 -1.421875 
Q 18.265625 -1.421875 13.375 4.4375 
Q 8.5 10.296875 8.5 21.578125 
z
M 31.109375 56 
z
" id="DejaVuSans-117"/>
       <path d="M 18.3125 70.21875 
L 18.3125 54.6875 
L 36.8125 54.6875 
L 36.8125 47.703125 
L 18.3125 47.703125 
L 18.3125 18.015625 
Q 18.3125 11.328125 20.140625 9.421875 
Q 21.96875 7.515625 27.59375 7.515625 
L 36.8125 7.515625 
L 36.8125 0 
L 27.59375 0 
Q 17.1875 0 13.234375 3.875 
Q 9.28125 7.765625 9.28125 18.015625 
L 9.28125 47.703125 
L 2.6875 47.703125 
L 2.6875 54.6875 
L 9.28125 54.6875 
L 9.28125 70.21875 
z
" id="DejaVuSans-116"/>
       <path d="M 8.015625 75.875 
L 15.828125 75.875 
Q 23.140625 64.359375 26.78125 53.3125 
Q 30.421875 42.28125 30.421875 31.390625 
Q 30.421875 20.453125 26.78125 9.375 
Q 23.140625 -1.703125 15.828125 -13.1875 
L 8.015625 -13.1875 
Q 14.5 -2 17.703125 9.0625 
Q 20.90625 20.125 20.90625 31.390625 
Q 20.90625 42.671875 17.703125 53.65625 
Q 14.5 64.65625 8.015625 75.875 
z
" id="DejaVuSans-41"/>
      </defs>
      <use xlink:href="#DejaVuSans-84"/>
      <use x="57.958984" xlink:href="#DejaVuSans-105"/>
      <use x="85.742188" xlink:href="#DejaVuSans-109"/>
      <use x="183.154297" xlink:href="#DejaVuSans-101"/>
      <use x="244.677734" xlink:href="#DejaVuSans-32"/>
      <use x="276.464844" xlink:href="#DejaVuSans-40"/>
      <use x="315.478516" xlink:href="#DejaVuSans-109"/>
      <use x="412.890625" xlink:href="#DejaVuSans-105"/>
      <use x="440.673828" xlink:href="#DejaVuSans-110"/>
      <use x="504.052734" xlink:href="#DejaVuSans-117"/>
      <use x="567.431641" xlink:href="#DejaVuSans-116"/>
      <use x="606.640625" xlink:href="#DejaVuSans-101"/>
      <use x="668.164062" xlink:href="#DejaVuSans-115"/>
      <use x="720.263672" xlink:href="#DejaVuSans-41"/>
     </g>
    </g>
   </g>
   <g id="LineCollection_1">
    <path clip-path="url(#p769dd2e08d)" d="M 84.436364 106.942366 
L 114.872727 106.942366 
" style="fill:none;stroke:#1f77b4;stroke-width:1.5;"/>
    <path clip-path="url(#p769dd2e08d)" d="M 206.181818 219.846941 
L 236.618182 219.846941 
" style="fill:none;stroke:#1f77b4;stroke-width:1.5;"/>
    <path clip-path="url(#p769dd2e08d)" d="M 327.927273 44.443636 
L 358.363636 44.443636 
" style="fill:none;stroke:#1f77b4;stroke-width:1.5;"/>
   </g>
   <g id="LineCollection_2">
    <path clip-path="url(#p769dd2e08d)" d="M 84.436364 242.116364 
L 114.872727 242.116364 
" style="fill:none;stroke:#1f77b4;stroke-width:1.5;"/>
    <path clip-path="url(#p769dd2e08d)" d="M 206.181818 227.87519 
L 236.618182 227.87519 
" style="fill:none;stroke:#1f77b4;stroke-width:1.5;"/>
    <path clip-path="url(#p769dd2e08d)" d="M 327.927273 181.133401 
L 358.363636 181.133401 
" style="fill:none;stroke:#1f77b4;stroke-width:1.5;"/>
   </g>
   <g id="LineCollection_3">
    <path clip-path="url(#p769dd2e08d)" d="M 99.654545 242.116364 
L 99.654545 106.942366 
" style="fill:none;stroke:#1f77b4;stroke-width:1.5;"/>
    <path clip-path="url(#p769dd2e08d)" d="M 221.4 227.87519 
L 221.4 219.846941 
" style="fill:none;stroke:#1f77b4;stroke-width:1.5;"/>
    <path clip-path="url(#p769dd2e08d)" d="M 343.145455 181.133401 
L 343.145455 44.443636 
" style="fill:none;stroke:#1f77b4;stroke-width:1.5;"/>
   </g>
   <g id="LineCollection_4">
    <path clip-path="url(#p769dd2e08d)" d="M 84.436364 220.923969 
L 114.872727 220.923969 
" style="fill:none;stroke:#1f77b4;stroke-width:1.5;"/>
    <path clip-path="url(#p769dd2e08d)" d="M 206.181818 220.979678 
L 236.618182 220.979678 
" style="fill:none;stroke:#1f77b4;stroke-width:1.5;"/>
    <path clip-path="url(#p769dd2e08d)" d="M 327.927273 143.775852 
L 358.363636 143.775852 
" style="fill:none;stroke:#1f77b4;stroke-width:1.5;"/>
   </g>
   <g id="patch_3">
    <path d="M 54 252 
L 54 34.56 
" style="fill:none;stroke:#000000;stroke-linecap:square;stroke-linejoin:miter;stroke-width:0.8;"/>
   </g>
   <g id="patch_4">
    <path d="M 388.8 252 
L 388.8 34.56 
" style="fill:none;stroke:#000000;stroke-linecap:square;stroke-linejoin:miter;stroke-width:0.8;"/>
   </g>
   <g id="patch_5">
    <path d="M 54 252 
L 388.8 252 
" style="fill:none;stroke:#000000;stroke-linecap:square;stroke-linejoin:miter;stroke-width:0.8;"/>
   </g>
   <g id="patch_6">
    <path d="M 54 34.56 
L 388.8 34.56 
" style="fill:none;stroke:#000000;stroke-linecap:square;stroke-linejoin:miter;stroke-width:0.8;"/>
   </g>
   <g id="text_12">
    <!-- Training times vs GPU (1283 samples, 99.73% CI) -->
    <g transform="translate(72.728438 28.56)scale(0.12 -0.12)">
     <defs>
      <path d="M 45.40625 27.984375 
Q 45.40625 37.75 41.375 43.109375 
Q 37.359375 48.484375 30.078125 48.484375 
Q 22.859375 48.484375 18.828125 43.109375 
Q 14.796875 37.75 14.796875 27.984375 
Q 14.796875 18.265625 18.828125 12.890625 
Q 22.859375 7.515625 30.078125 7.515625 
Q 37.359375 7.515625 41.375 12.890625 
Q 45.40625 18.265625 45.40625 27.984375 
z
M 54.390625 6.78125 
Q 54.390625 -7.171875 48.1875 -13.984375 
Q 42 -20.796875 29.203125 -20.796875 
Q 24.46875 -20.796875 20.265625 -20.09375 
Q 16.0625 -19.390625 12.109375 -17.921875 
L 12.109375 -9.1875 
Q 16.0625 -11.328125 19.921875 -12.34375 
Q 23.78125 -13.375 27.78125 -13.375 
Q 36.625 -13.375 41.015625 -8.765625 
Q 45.40625 -4.15625 45.40625 5.171875 
L 45.40625 9.625 
Q 42.625 4.78125 38.28125 2.390625 
Q 33.9375 0 27.875 0 
Q 17.828125 0 11.671875 7.65625 
Q 5.515625 15.328125 5.515625 27.984375 
Q 5.515625 40.671875 11.671875 48.328125 
Q 17.828125 56 27.875 56 
Q 33.9375 56 38.28125 53.609375 
Q 42.625 51.21875 45.40625 46.390625 
L 45.40625 54.6875 
L 54.390625 54.6875 
z
" id="DejaVuSans-103"/>
      <path d="M 2.984375 54.6875 
L 12.5 54.6875 
L 29.59375 8.796875 
L 46.6875 54.6875 
L 56.203125 54.6875 
L 35.6875 0 
L 23.484375 0 
z
" id="DejaVuSans-118"/>
      <path d="M 31.78125 34.625 
Q 24.75 34.625 20.71875 30.859375 
Q 16.703125 27.09375 16.703125 20.515625 
Q 16.703125 13.921875 20.71875 10.15625 
Q 24.75 6.390625 31.78125 6.390625 
Q 38.8125 6.390625 42.859375 10.171875 
Q 46.921875 13.96875 46.921875 20.515625 
Q 46.921875 27.09375 42.890625 30.859375 
Q 38.875 34.625 31.78125 34.625 
z
M 21.921875 38.8125 
Q 15.578125 40.375 12.03125 44.71875 
Q 8.5 49.078125 8.5 55.328125 
Q 8.5 64.0625 14.71875 69.140625 
Q 20.953125 74.21875 31.78125 74.21875 
Q 42.671875 74.21875 48.875 69.140625 
Q 55.078125 64.0625 55.078125 55.328125 
Q 55.078125 49.078125 51.53125 44.71875 
Q 48 40.375 41.703125 38.8125 
Q 48.828125 37.15625 52.796875 32.3125 
Q 56.78125 27.484375 56.78125 20.515625 
Q 56.78125 9.90625 50.3125 4.234375 
Q 43.84375 -1.421875 31.78125 -1.421875 
Q 19.734375 -1.421875 13.25 4.234375 
Q 6.78125 9.90625 6.78125 20.515625 
Q 6.78125 27.484375 10.78125 32.3125 
Q 14.796875 37.15625 21.921875 38.8125 
z
M 18.3125 54.390625 
Q 18.3125 48.734375 21.84375 45.5625 
Q 25.390625 42.390625 31.78125 42.390625 
Q 38.140625 42.390625 41.71875 45.5625 
Q 45.3125 48.734375 45.3125 54.390625 
Q 45.3125 60.0625 41.71875 63.234375 
Q 38.140625 66.40625 31.78125 66.40625 
Q 25.390625 66.40625 21.84375 63.234375 
Q 18.3125 60.0625 18.3125 54.390625 
z
" id="DejaVuSans-56"/>
      <path d="M 18.109375 8.203125 
L 18.109375 -20.796875 
L 9.078125 -20.796875 
L 9.078125 54.6875 
L 18.109375 54.6875 
L 18.109375 46.390625 
Q 20.953125 51.265625 25.265625 53.625 
Q 29.59375 56 35.59375 56 
Q 45.5625 56 51.78125 48.09375 
Q 58.015625 40.1875 58.015625 27.296875 
Q 58.015625 14.40625 51.78125 6.484375 
Q 45.5625 -1.421875 35.59375 -1.421875 
Q 29.59375 -1.421875 25.265625 0.953125 
Q 20.953125 3.328125 18.109375 8.203125 
z
M 48.6875 27.296875 
Q 48.6875 37.203125 44.609375 42.84375 
Q 40.53125 48.484375 33.40625 48.484375 
Q 26.265625 48.484375 22.1875 42.84375 
Q 18.109375 37.203125 18.109375 27.296875 
Q 18.109375 17.390625 22.1875 11.75 
Q 26.265625 6.109375 33.40625 6.109375 
Q 40.53125 6.109375 44.609375 11.75 
Q 48.6875 17.390625 48.6875 27.296875 
z
" id="DejaVuSans-112"/>
      <path d="M 11.71875 12.40625 
L 22.015625 12.40625 
L 22.015625 4 
L 14.015625 -11.625 
L 7.71875 -11.625 
L 11.71875 4 
z
" id="DejaVuSans-44"/>
      <path d="M 72.703125 32.078125 
Q 68.453125 32.078125 66.03125 28.46875 
Q 63.625 24.859375 63.625 18.40625 
Q 63.625 12.0625 66.03125 8.421875 
Q 68.453125 4.78125 72.703125 4.78125 
Q 76.859375 4.78125 79.265625 8.421875 
Q 81.6875 12.0625 81.6875 18.40625 
Q 81.6875 24.8125 79.265625 28.4375 
Q 76.859375 32.078125 72.703125 32.078125 
z
M 72.703125 38.28125 
Q 80.421875 38.28125 84.953125 32.90625 
Q 89.5 27.546875 89.5 18.40625 
Q 89.5 9.28125 84.9375 3.921875 
Q 80.375 -1.421875 72.703125 -1.421875 
Q 64.890625 -1.421875 60.34375 3.921875 
Q 55.8125 9.28125 55.8125 18.40625 
Q 55.8125 27.59375 60.375 32.9375 
Q 64.9375 38.28125 72.703125 38.28125 
z
M 22.3125 68.015625 
Q 18.109375 68.015625 15.6875 64.375 
Q 13.28125 60.75 13.28125 54.390625 
Q 13.28125 47.953125 15.671875 44.328125 
Q 18.0625 40.71875 22.3125 40.71875 
Q 26.5625 40.71875 28.96875 44.328125 
Q 31.390625 47.953125 31.390625 54.390625 
Q 31.390625 60.6875 28.953125 64.34375 
Q 26.515625 68.015625 22.3125 68.015625 
z
M 66.40625 74.21875 
L 74.21875 74.21875 
L 28.609375 -1.421875 
L 20.796875 -1.421875 
z
M 22.3125 74.21875 
Q 30.03125 74.21875 34.609375 68.875 
Q 39.203125 63.53125 39.203125 54.390625 
Q 39.203125 45.171875 34.640625 39.84375 
Q 30.078125 34.515625 22.3125 34.515625 
Q 14.546875 34.515625 10.03125 39.859375 
Q 5.515625 45.21875 5.515625 54.390625 
Q 5.515625 63.484375 10.046875 68.84375 
Q 14.59375 74.21875 22.3125 74.21875 
z
" id="DejaVuSans-37"/>
      <path d="M 64.40625 67.28125 
L 64.40625 56.890625 
Q 59.421875 61.53125 53.78125 63.8125 
Q 48.140625 66.109375 41.796875 66.109375 
Q 29.296875 66.109375 22.65625 58.46875 
Q 16.015625 50.828125 16.015625 36.375 
Q 16.015625 21.96875 22.65625 14.328125 
Q 29.296875 6.6875 41.796875 6.6875 
Q 48.140625 6.6875 53.78125 8.984375 
Q 59.421875 11.28125 64.40625 15.921875 
L 64.40625 5.609375 
Q 59.234375 2.09375 53.4375 0.328125 
Q 47.65625 -1.421875 41.21875 -1.421875 
Q 24.65625 -1.421875 15.125 8.703125 
Q 5.609375 18.84375 5.609375 36.375 
Q 5.609375 53.953125 15.125 64.078125 
Q 24.65625 74.21875 41.21875 74.21875 
Q 47.75 74.21875 53.53125 72.484375 
Q 59.328125 70.75 64.40625 67.28125 
z
" id="DejaVuSans-67"/>
      <path d="M 9.8125 72.90625 
L 19.671875 72.90625 
L 19.671875 0 
L 9.8125 0 
z
" id="DejaVuSans-73"/>
     </defs>
     <use xlink:href="#DejaVuSans-84"/>
     <use x="46.333984" xlink:href="#DejaVuSans-114"/>
     <use x="87.447266" xlink:href="#DejaVuSans-97"/>
     <use x="148.726562" xlink:href="#DejaVuSans-105"/>
     <use x="176.509766" xlink:href="#DejaVuSans-110"/>
     <use x="239.888672" xlink:href="#DejaVuSans-105"/>
     <use x="267.671875" xlink:href="#DejaVuSans-110"/>
     <use x="331.050781" xlink:href="#DejaVuSans-103"/>
     <use x="394.527344" xlink:href="#DejaVuSans-32"/>
     <use x="426.314453" xlink:href="#DejaVuSans-116"/>
     <use x="465.523438" xlink:href="#DejaVuSans-105"/>
     <use x="493.306641" xlink:href="#DejaVuSans-109"/>
     <use x="590.71875" xlink:href="#DejaVuSans-101"/>
     <use x="652.242188" xlink:href="#DejaVuSans-115"/>
     <use x="704.341797" xlink:href="#DejaVuSans-32"/>
     <use x="736.128906" xlink:href="#DejaVuSans-118"/>
     <use x="795.308594" xlink:href="#DejaVuSans-115"/>
     <use x="847.408203" xlink:href="#DejaVuSans-32"/>
     <use x="879.195312" xlink:href="#DejaVuSans-71"/>
     <use x="956.685547" xlink:href="#DejaVuSans-80"/>
     <use x="1016.988281" xlink:href="#DejaVuSans-85"/>
     <use x="1090.181641" xlink:href="#DejaVuSans-32"/>
     <use x="1121.96875" xlink:href="#DejaVuSans-40"/>
     <use x="1160.982422" xlink:href="#DejaVuSans-49"/>
     <use x="1224.605469" xlink:href="#DejaVuSans-50"/>
     <use x="1288.228516" xlink:href="#DejaVuSans-56"/>
     <use x="1351.851562" xlink:href="#DejaVuSans-51"/>
     <use x="1415.474609" xlink:href="#DejaVuSans-32"/>
     <use x="1447.261719" xlink:href="#DejaVuSans-115"/>
     <use x="1499.361328" xlink:href="#DejaVuSans-97"/>
     <use x="1560.640625" xlink:href="#DejaVuSans-109"/>
     <use x="1658.052734" xlink:href="#DejaVuSans-112"/>
     <use x="1721.529297" xlink:href="#DejaVuSans-108"/>
     <use x="1749.3125" xlink:href="#DejaVuSans-101"/>
     <use x="1810.835938" xlink:href="#DejaVuSans-115"/>
     <use x="1862.935547" xlink:href="#DejaVuSans-44"/>
     <use x="1894.722656" xlink:href="#DejaVuSans-32"/>
     <use x="1926.509766" xlink:href="#DejaVuSans-57"/>
     <use x="1990.132812" xlink:href="#DejaVuSans-57"/>
     <use x="2053.755859" xlink:href="#DejaVuSans-46"/>
     <use x="2085.542969" xlink:href="#DejaVuSans-55"/>
     <use x="2149.166016" xlink:href="#DejaVuSans-51"/>
     <use x="2212.789062" xlink:href="#DejaVuSans-37"/>
     <use x="2307.808594" xlink:href="#DejaVuSans-32"/>
     <use x="2339.595703" xlink:href="#DejaVuSans-67"/>
     <use x="2409.419922" xlink:href="#DejaVuSans-73"/>
     <use x="2438.912109" xlink:href="#DejaVuSans-41"/>
    </g>
   </g>
  </g>
 </g>
 <defs>
  <clipPath id="p769dd2e08d">
   <rect height="217.44" width="334.8" x="54" y="34.56"/>
  </clipPath>
 </defs>
</svg>
