<?xml version="1.0" encoding="utf-8" standalone="no"?>
<!DOCTYPE svg PUBLIC "-//W3C//DTD SVG 1.1//EN"
  "http://www.w3.org/Graphics/SVG/1.1/DTD/svg11.dtd">
<!-- Created with matplotlib (https://matplotlib.org/) -->
<svg height="288pt" version="1.1" viewBox="0 0 432 288" width="432pt" xmlns="http://www.w3.org/2000/svg" xmlns:xlink="http://www.w3.org/1999/xlink">
 <defs>
  <style type="text/css">
*{stroke-linecap:butt;stroke-linejoin:round;white-space:pre;}
  </style>
 </defs>
 <g id="figure_1">
  <g id="patch_1">
   <path d="M 0 288 
L 432 288 
L 432 0 
L 0 0 
z
" style="fill:#ffffff;"/>
  </g>
  <g id="axes_1">
   <g id="patch_2">
    <path d="M 54 252 
L 388.8 252 
L 388.8 34.56 
L 54 34.56 
z
" style="fill:#ffffff;"/>
   </g>
   <g id="PolyCollection_1">
    <path clip-path="url(#pa262358e48)" d="M 110.918618 235.408181 
L 70.998266 235.408181 
L 70.712663 234.089123 
L 70.449502 232.770065 
L 70.209736 231.451006 
L 69.994236 230.131948 
L 69.803789 228.81289 
L 69.639092 227.493832 
L 69.500744 226.174774 
L 69.389248 224.855716 
L 69.305004 223.536657 
L 69.248304 222.217599 
L 69.219338 220.898541 
L 69.218182 219.579483 
L 69.244806 218.260425 
L 69.29907 216.941366 
L 69.380725 215.622308 
L 69.489414 214.30325 
L 69.624673 212.984192 
L 69.785939 211.665134 
L 69.972544 210.346076 
L 70.183728 209.027017 
L 70.418636 207.707959 
L 70.676326 206.388901 
L 70.955777 205.069843 
L 71.25589 203.750785 
L 71.575495 202.431727 
L 71.91336 201.112668 
L 72.268198 199.79361 
L 72.638669 198.474552 
L 73.023394 197.155494 
L 73.420957 195.836436 
L 73.829916 194.517377 
L 74.248808 193.198319 
L 74.676158 191.879261 
L 75.110487 190.560203 
L 75.550316 189.241145 
L 75.994178 187.922087 
L 76.440622 186.603028 
L 76.888218 185.28397 
L 77.335569 183.964912 
L 77.78131 182.645854 
L 78.22412 181.326796 
L 78.662724 180.007738 
L 79.095898 178.688679 
L 79.522476 177.369621 
L 79.941351 176.050563 
L 80.35148 174.731505 
L 80.751889 173.412447 
L 81.141672 172.093388 
L 81.519999 170.77433 
L 81.88611 169.455272 
L 82.239326 168.136214 
L 82.579041 166.817156 
L 82.904728 165.498098 
L 83.215939 164.179039 
L 83.512302 162.859981 
L 83.793524 161.540923 
L 84.059386 160.221865 
L 84.309745 158.902807 
L 84.544534 157.583748 
L 84.763752 156.26469 
L 84.967473 154.945632 
L 85.155835 153.626574 
L 85.329041 152.307516 
L 85.487354 150.988458 
L 85.631098 149.669399 
L 85.760651 148.350341 
L 85.876442 147.031283 
L 85.978949 145.712225 
L 86.068694 144.393167 
L 86.14624 143.074109 
L 86.212188 141.75505 
L 86.26717 140.435992 
L 86.311847 139.116934 
L 86.346907 137.797876 
L 86.373058 136.478818 
L 86.391023 135.159759 
L 86.401541 133.840701 
L 86.405358 132.521643 
L 86.403225 131.202585 
L 86.395893 129.883527 
L 86.384114 128.564469 
L 86.368629 127.24541 
L 86.350172 125.926352 
L 86.329462 124.607294 
L 86.3072 123.288236 
L 86.28407 121.969178 
L 86.260729 120.65012 
L 86.237811 119.331061 
L 86.21592 118.012003 
L 86.195627 116.692945 
L 86.177474 115.373887 
L 86.161962 114.054829 
L 86.149559 112.73577 
L 86.140692 111.416712 
L 86.135748 110.097654 
L 86.135075 108.778596 
L 86.138977 107.459538 
L 86.147716 106.14048 
L 86.161511 104.821421 
L 95.755372 104.821421 
L 95.755372 104.821421 
L 95.769168 106.14048 
L 95.777906 107.459538 
L 95.781808 108.778596 
L 95.781135 110.097654 
L 95.776191 111.416712 
L 95.767324 112.73577 
L 95.754921 114.054829 
L 95.73941 115.373887 
L 95.721256 116.692945 
L 95.700963 118.012003 
L 95.679072 119.331061 
L 95.656154 120.65012 
L 95.632813 121.969178 
L 95.609683 123.288236 
L 95.587421 124.607294 
L 95.566711 125.926352 
L 95.548254 127.24541 
L 95.532769 128.564469 
L 95.52099 129.883527 
L 95.513658 131.202585 
L 95.511525 132.521643 
L 95.515342 133.840701 
L 95.52586 135.159759 
L 95.543825 136.478818 
L 95.569976 137.797876 
L 95.605036 139.116934 
L 95.649714 140.435992 
L 95.704695 141.75505 
L 95.770643 143.074109 
L 95.848189 144.393167 
L 95.937935 145.712225 
L 96.040441 147.031283 
L 96.156232 148.350341 
L 96.285785 149.669399 
L 96.429529 150.988458 
L 96.587843 152.307516 
L 96.761048 153.626574 
L 96.94941 154.945632 
L 97.153131 156.26469 
L 97.37235 157.583748 
L 97.607138 158.902807 
L 97.857498 160.221865 
L 98.12336 161.540923 
L 98.404581 162.859981 
L 98.700944 164.179039 
L 99.012155 165.498098 
L 99.337842 166.817156 
L 99.677557 168.136214 
L 100.030773 169.455272 
L 100.396884 170.77433 
L 100.775211 172.093388 
L 101.164995 173.412447 
L 101.565403 174.731505 
L 101.975532 176.050563 
L 102.394407 177.369621 
L 102.820985 178.688679 
L 103.254159 180.007738 
L 103.692763 181.326796 
L 104.135573 182.645854 
L 104.581314 183.964912 
L 105.028665 185.28397 
L 105.476261 186.603028 
L 105.922705 187.922087 
L 106.366567 189.241145 
L 106.806396 190.560203 
L 107.240725 191.879261 
L 107.668075 193.198319 
L 108.086967 194.517377 
L 108.495926 195.836436 
L 108.893489 197.155494 
L 109.278214 198.474552 
L 109.648685 199.79361 
L 110.003523 201.112668 
L 110.341388 202.431727 
L 110.660994 203.750785 
L 110.961106 205.069843 
L 111.240557 206.388901 
L 111.498247 207.707959 
L 111.733155 209.027017 
L 111.944339 210.346076 
L 112.130944 211.665134 
L 112.29221 212.984192 
L 112.42747 214.30325 
L 112.536158 215.622308 
L 112.617813 216.941366 
L 112.672077 218.260425 
L 112.698701 219.579483 
L 112.697545 220.898541 
L 112.668579 222.217599 
L 112.611879 223.536657 
L 112.527635 224.855716 
L 112.416139 226.174774 
L 112.277791 227.493832 
L 112.113094 228.81289 
L 111.922647 230.131948 
L 111.707147 231.451006 
L 111.467381 232.770065 
L 111.20422 234.089123 
L 110.918618 235.408181 
z
" style="fill:#1f77b4;fill-opacity:0.3;"/>
   </g>
   <g id="PolyCollection_2">
    <path clip-path="url(#pa262358e48)" d="M 193.351874 242.116364 
L 162.487087 242.116364 
L 162.092979 241.099756 
L 161.705645 240.083147 
L 161.325784 239.066539 
L 160.954088 238.049931 
L 160.591245 237.033323 
L 160.237933 236.016715 
L 159.894828 235.000107 
L 159.562604 233.983499 
L 159.241927 232.966891 
L 158.933466 231.950283 
L 158.637885 230.933675 
L 158.355847 229.917067 
L 158.088012 228.900459 
L 157.835038 227.883851 
L 157.597579 226.867243 
L 157.376282 225.850635 
L 157.171788 224.834026 
L 156.984726 223.817418 
L 156.81571 222.80081 
L 156.66534 221.784202 
L 156.53419 220.767594 
L 156.422812 219.750986 
L 156.331722 218.734378 
L 156.261404 217.71777 
L 156.212295 216.701162 
L 156.184788 215.684554 
L 156.179221 214.667946 
L 156.19587 213.651338 
L 156.234949 212.63473 
L 156.296599 211.618122 
L 156.380885 210.601513 
L 156.487792 209.584905 
L 156.617219 208.568297 
L 156.768975 207.551689 
L 156.94278 206.535081 
L 157.138256 205.518473 
L 157.354931 204.501865 
L 157.592237 203.485257 
L 157.849506 202.468649 
L 158.125979 201.452041 
L 158.4208 200.435433 
L 158.733025 199.418825 
L 159.061622 198.402217 
L 159.405479 197.385609 
L 159.763407 196.369001 
L 160.134147 195.352392 
L 160.516379 194.335784 
L 160.908728 193.319176 
L 161.309773 192.302568 
L 161.718059 191.28596 
L 162.132101 190.269352 
L 162.550398 189.252744 
L 162.971444 188.236136 
L 163.393733 187.219528 
L 163.815776 186.20292 
L 164.236107 185.186312 
L 164.653293 184.169704 
L 165.065947 183.153096 
L 165.472734 182.136488 
L 165.872382 181.119879 
L 166.26369 180.103271 
L 166.645535 179.086663 
L 167.01688 178.070055 
L 167.376782 177.053447 
L 167.724395 176.036839 
L 168.058972 175.020231 
L 168.379878 174.003623 
L 168.686584 172.987015 
L 168.97867 171.970407 
L 169.255832 170.953799 
L 169.517876 169.937191 
L 169.764718 168.920583 
L 169.996383 167.903975 
L 170.213004 166.887366 
L 170.414815 165.870758 
L 170.602148 164.85415 
L 170.775427 163.837542 
L 170.935163 162.820934 
L 171.081947 161.804326 
L 171.216443 160.787718 
L 171.33938 159.77111 
L 171.451541 158.754502 
L 171.553761 157.737894 
L 171.646912 156.721286 
L 171.731897 155.704678 
L 171.809641 154.68807 
L 171.881082 153.671462 
L 171.94716 152.654854 
L 172.008813 151.638245 
L 172.066962 150.621637 
L 172.12251 149.605029 
L 172.17633 148.588421 
L 172.229257 147.571813 
L 172.282088 146.555205 
L 172.335568 145.538597 
L 172.390388 144.521989 
L 172.447184 143.505381 
L 172.506528 142.488773 
L 172.568926 141.472165 
L 183.270035 141.472165 
L 183.270035 141.472165 
L 183.332433 142.488773 
L 183.391777 143.505381 
L 183.448573 144.521989 
L 183.503393 145.538597 
L 183.556873 146.555205 
L 183.609704 147.571813 
L 183.662631 148.588421 
L 183.716451 149.605029 
L 183.771999 150.621637 
L 183.830148 151.638245 
L 183.891801 152.654854 
L 183.957879 153.671462 
L 184.02932 154.68807 
L 184.107064 155.704678 
L 184.192049 156.721286 
L 184.2852 157.737894 
L 184.38742 158.754502 
L 184.499581 159.77111 
L 184.622518 160.787718 
L 184.757014 161.804326 
L 184.903798 162.820934 
L 185.063534 163.837542 
L 185.236813 164.85415 
L 185.424146 165.870758 
L 185.625957 166.887366 
L 185.842578 167.903975 
L 186.074243 168.920583 
L 186.321085 169.937191 
L 186.583129 170.953799 
L 186.860291 171.970407 
L 187.152377 172.987015 
L 187.459083 174.003623 
L 187.779989 175.020231 
L 188.114567 176.036839 
L 188.462179 177.053447 
L 188.822081 178.070055 
L 189.193426 179.086663 
L 189.575271 180.103271 
L 189.966579 181.119879 
L 190.366227 182.136488 
L 190.773014 183.153096 
L 191.185668 184.169704 
L 191.602854 185.186312 
L 192.023185 186.20292 
L 192.445228 187.219528 
L 192.867518 188.236136 
L 193.288563 189.252744 
L 193.70686 190.269352 
L 194.120902 191.28596 
L 194.529188 192.302568 
L 194.930233 193.319176 
L 195.322582 194.335784 
L 195.704814 195.352392 
L 196.075554 196.369001 
L 196.433482 197.385609 
L 196.777339 198.402217 
L 197.105936 199.418825 
L 197.418161 200.435433 
L 197.712982 201.452041 
L 197.989455 202.468649 
L 198.246724 203.485257 
L 198.48403 204.501865 
L 198.700705 205.518473 
L 198.896181 206.535081 
L 199.069986 207.551689 
L 199.221742 208.568297 
L 199.351169 209.584905 
L 199.458076 210.601513 
L 199.542362 211.618122 
L 199.604012 212.63473 
L 199.643091 213.651338 
L 199.65974 214.667946 
L 199.654173 215.684554 
L 199.626666 216.701162 
L 199.577558 217.71777 
L 199.507239 218.734378 
L 199.416149 219.750986 
L 199.304771 220.767594 
L 199.173621 221.784202 
L 199.023251 222.80081 
L 198.854235 223.817418 
L 198.667173 224.834026 
L 198.462679 225.850635 
L 198.241382 226.867243 
L 198.003923 227.883851 
L 197.750949 228.900459 
L 197.483114 229.917067 
L 197.201076 230.933675 
L 196.905495 231.950283 
L 196.597034 232.966891 
L 196.276357 233.983499 
L 195.944133 235.000107 
L 195.601028 236.016715 
L 195.247716 237.033323 
L 194.884873 238.049931 
L 194.513177 239.066539 
L 194.133316 240.083147 
L 193.745982 241.099756 
L 193.351874 242.116364 
z
" style="fill:#1f77b4;fill-opacity:0.3;"/>
   </g>
   <g id="PolyCollection_3">
    <path clip-path="url(#pa262358e48)" d="M 277.488741 221.650293 
L 252.272298 221.650293 
L 252.165995 221.571951 
L 252.061201 221.49361 
L 251.957825 221.415268 
L 251.855769 221.336927 
L 251.75493 221.258585 
L 251.655198 221.180244 
L 251.55646 221.101902 
L 251.458598 221.023561 
L 251.361488 220.945219 
L 251.265006 220.866878 
L 251.169022 220.788537 
L 251.073407 220.710195 
L 250.978026 220.631854 
L 250.882746 220.553512 
L 250.787431 220.475171 
L 250.691949 220.396829 
L 250.596163 220.318488 
L 250.499942 220.240146 
L 250.403155 220.161805 
L 250.305672 220.083464 
L 250.20737 220.005122 
L 250.108126 219.926781 
L 250.007825 219.848439 
L 249.906353 219.770098 
L 249.803605 219.691756 
L 249.699482 219.613415 
L 249.593891 219.535073 
L 249.486747 219.456732 
L 249.377973 219.37839 
L 249.2675 219.300049 
L 249.155269 219.221708 
L 249.041232 219.143366 
L 248.925348 219.065025 
L 248.80759 218.986683 
L 248.687938 218.908342 
L 248.566387 218.83 
L 248.442942 218.751659 
L 248.31762 218.673317 
L 248.19045 218.594976 
L 248.061474 218.516634 
L 247.930746 218.438293 
L 247.798333 218.359952 
L 247.664314 218.28161 
L 247.528781 218.203269 
L 247.39184 218.124927 
L 247.253608 218.046586 
L 247.114214 217.968244 
L 246.973802 217.889903 
L 246.832526 217.811561 
L 246.690551 217.73322 
L 246.548057 217.654878 
L 246.405231 217.576537 
L 246.262273 217.498196 
L 246.119395 217.419854 
L 245.976814 217.341513 
L 245.834762 217.263171 
L 245.693475 217.18483 
L 245.5532 217.106488 
L 245.41419 217.028147 
L 245.276705 216.949805 
L 245.141013 216.871464 
L 245.007384 216.793122 
L 244.876095 216.714781 
L 244.747427 216.63644 
L 244.621662 216.558098 
L 244.499087 216.479757 
L 244.379987 216.401415 
L 244.264651 216.323074 
L 244.153364 216.244732 
L 244.046413 216.166391 
L 243.944082 216.088049 
L 243.846651 216.009708 
L 243.754398 215.931366 
L 243.667594 215.853025 
L 243.586506 215.774684 
L 243.511395 215.696342 
L 243.442514 215.618001 
L 243.380109 215.539659 
L 243.324417 215.461318 
L 243.275664 215.382976 
L 243.234069 215.304635 
L 243.199837 215.226293 
L 243.173164 215.147952 
L 243.154232 215.069611 
L 243.143212 214.991269 
L 243.14026 214.912928 
L 243.145519 214.834586 
L 243.15912 214.756245 
L 243.181176 214.677903 
L 243.211786 214.599562 
L 243.251035 214.52122 
L 243.298992 214.442879 
L 243.355709 214.364537 
L 243.421224 214.286196 
L 243.495557 214.207855 
L 243.578713 214.129513 
L 243.67068 214.051172 
L 243.771432 213.97283 
L 243.880923 213.894489 
L 285.880116 213.894489 
L 285.880116 213.894489 
L 285.989607 213.97283 
L 286.090359 214.051172 
L 286.182326 214.129513 
L 286.265482 214.207855 
L 286.339815 214.286196 
L 286.40533 214.364537 
L 286.462047 214.442879 
L 286.510004 214.52122 
L 286.549253 214.599562 
L 286.579863 214.677903 
L 286.601919 214.756245 
L 286.615519 214.834586 
L 286.620779 214.912928 
L 286.617827 214.991269 
L 286.606807 215.069611 
L 286.587875 215.147952 
L 286.561202 215.226293 
L 286.52697 215.304635 
L 286.485375 215.382976 
L 286.436622 215.461318 
L 286.38093 215.539659 
L 286.318525 215.618001 
L 286.249644 215.696342 
L 286.174533 215.774684 
L 286.093445 215.853025 
L 286.006641 215.931366 
L 285.914388 216.009708 
L 285.816957 216.088049 
L 285.714626 216.166391 
L 285.607675 216.244732 
L 285.496388 216.323074 
L 285.381052 216.401415 
L 285.261952 216.479757 
L 285.139377 216.558098 
L 285.013612 216.63644 
L 284.884944 216.714781 
L 284.753655 216.793122 
L 284.620026 216.871464 
L 284.484334 216.949805 
L 284.346849 217.028147 
L 284.207839 217.106488 
L 284.067564 217.18483 
L 283.926277 217.263171 
L 283.784225 217.341513 
L 283.641644 217.419854 
L 283.498766 217.498196 
L 283.355808 217.576537 
L 283.212982 217.654878 
L 283.070488 217.73322 
L 282.928513 217.811561 
L 282.787237 217.889903 
L 282.646825 217.968244 
L 282.507431 218.046586 
L 282.369199 218.124927 
L 282.232258 218.203269 
L 282.096725 218.28161 
L 281.962706 218.359952 
L 281.830293 218.438293 
L 281.699565 218.516634 
L 281.570589 218.594976 
L 281.443419 218.673317 
L 281.318097 218.751659 
L 281.194652 218.83 
L 281.073101 218.908342 
L 280.953449 218.986683 
L 280.83569 219.065025 
L 280.719807 219.143366 
L 280.60577 219.221708 
L 280.493539 219.300049 
L 280.383066 219.37839 
L 280.274292 219.456732 
L 280.167148 219.535073 
L 280.061557 219.613415 
L 279.957434 219.691756 
L 279.854686 219.770098 
L 279.753214 219.848439 
L 279.652912 219.926781 
L 279.553669 220.005122 
L 279.455367 220.083464 
L 279.357884 220.161805 
L 279.261097 220.240146 
L 279.164876 220.318488 
L 279.06909 220.396829 
L 278.973608 220.475171 
L 278.878293 220.553512 
L 278.783013 220.631854 
L 278.687632 220.710195 
L 278.592017 220.788537 
L 278.496033 220.866878 
L 278.399551 220.945219 
L 278.302441 221.023561 
L 278.204579 221.101902 
L 278.105841 221.180244 
L 278.006109 221.258585 
L 277.90527 221.336927 
L 277.803214 221.415268 
L 277.699838 221.49361 
L 277.595044 221.571951 
L 277.488741 221.650293 
z
" style="fill:#1f77b4;fill-opacity:0.3;"/>
   </g>
   <g id="PolyCollection_4">
    <path clip-path="url(#pa262358e48)" d="M 369.516138 176.494724 
L 334.166979 176.494724 
L 333.817797 175.160874 
L 333.479801 173.827025 
L 333.153855 172.493176 
L 332.840795 171.159326 
L 332.541431 169.825477 
L 332.256539 168.491628 
L 331.986857 167.157778 
L 331.733083 165.823929 
L 331.495869 164.490079 
L 331.275817 163.15623 
L 331.073478 161.822381 
L 330.889345 160.488531 
L 330.723853 159.154682 
L 330.577373 157.820833 
L 330.45021 156.486983 
L 330.342604 155.153134 
L 330.254723 153.819284 
L 330.186664 152.485435 
L 330.138453 151.151586 
L 330.110039 149.817736 
L 330.101299 148.483887 
L 330.112035 147.150038 
L 330.141976 145.816188 
L 330.190775 144.482339 
L 330.258015 143.14849 
L 330.343208 141.81464 
L 330.445796 140.480791 
L 330.565156 139.146941 
L 330.7006 137.813092 
L 330.851382 136.479243 
L 331.016697 135.145393 
L 331.195689 133.811544 
L 331.387453 132.477695 
L 331.59104 131.143845 
L 331.805463 129.809996 
L 332.029699 128.476147 
L 332.262699 127.142297 
L 332.503392 125.808448 
L 332.750686 124.474598 
L 333.003482 123.140749 
L 333.260675 121.8069 
L 333.521158 120.47305 
L 333.783835 119.139201 
L 334.047619 117.805352 
L 334.311444 116.471502 
L 334.574269 115.137653 
L 334.83508 113.803803 
L 335.092902 112.469954 
L 335.346799 111.136105 
L 335.595881 109.802255 
L 335.839309 108.468406 
L 336.076296 107.134557 
L 336.306118 105.800707 
L 336.528111 104.466858 
L 336.741676 103.133009 
L 336.946282 101.799159 
L 337.141472 100.46531 
L 337.326857 99.13146 
L 337.502124 97.797611 
L 337.667036 96.463762 
L 337.821429 95.129912 
L 337.965216 93.796063 
L 338.098384 92.462214 
L 338.220994 91.128364 
L 338.333178 89.794515 
L 338.43514 88.460665 
L 338.527153 87.126816 
L 338.609552 85.792967 
L 338.682737 84.459117 
L 338.747166 83.125268 
L 338.803351 81.791419 
L 338.851856 80.457569 
L 338.89329 79.12372 
L 338.928305 77.789871 
L 338.957587 76.456021 
L 338.981855 75.122172 
L 339.001855 73.788322 
L 339.018354 72.454473 
L 339.032132 71.120624 
L 339.043981 69.786774 
L 339.054698 68.452925 
L 339.065078 67.119076 
L 339.075912 65.785226 
L 339.087977 64.451377 
L 339.102036 63.117528 
L 339.11883 61.783678 
L 339.139076 60.449829 
L 339.16346 59.115979 
L 339.192634 57.78213 
L 339.227212 56.448281 
L 339.267768 55.114431 
L 339.314831 53.780582 
L 339.368884 52.446733 
L 339.430361 51.112883 
L 339.499644 49.779034 
L 339.577061 48.445184 
L 339.662888 47.111335 
L 339.757347 45.777486 
L 339.860603 44.443636 
L 363.822514 44.443636 
L 363.822514 44.443636 
L 363.92577 45.777486 
L 364.020229 47.111335 
L 364.106056 48.445184 
L 364.183473 49.779034 
L 364.252756 51.112883 
L 364.314232 52.446733 
L 364.368286 53.780582 
L 364.415349 55.114431 
L 364.455905 56.448281 
L 364.490483 57.78213 
L 364.519657 59.115979 
L 364.544041 60.449829 
L 364.564287 61.783678 
L 364.581081 63.117528 
L 364.59514 64.451377 
L 364.607205 65.785226 
L 364.618039 67.119076 
L 364.628419 68.452925 
L 364.639136 69.786774 
L 364.650985 71.120624 
L 364.664763 72.454473 
L 364.681261 73.788322 
L 364.701262 75.122172 
L 364.72553 76.456021 
L 364.754812 77.789871 
L 364.789826 79.12372 
L 364.831261 80.457569 
L 364.879766 81.791419 
L 364.935951 83.125268 
L 365.00038 84.459117 
L 365.073565 85.792967 
L 365.155964 87.126816 
L 365.247976 88.460665 
L 365.349939 89.794515 
L 365.462123 91.128364 
L 365.584733 92.462214 
L 365.7179 93.796063 
L 365.861688 95.129912 
L 366.016081 96.463762 
L 366.180993 97.797611 
L 366.35626 99.13146 
L 366.541645 100.46531 
L 366.736835 101.799159 
L 366.941441 103.133009 
L 367.155006 104.466858 
L 367.376998 105.800707 
L 367.606821 107.134557 
L 367.843808 108.468406 
L 368.087236 109.802255 
L 368.336317 111.136105 
L 368.590214 112.469954 
L 368.848037 113.803803 
L 369.108848 115.137653 
L 369.371673 116.471502 
L 369.635498 117.805352 
L 369.899282 119.139201 
L 370.161959 120.47305 
L 370.422442 121.8069 
L 370.679634 123.140749 
L 370.932431 124.474598 
L 371.179725 125.808448 
L 371.420418 127.142297 
L 371.653418 128.476147 
L 371.877654 129.809996 
L 372.092077 131.143845 
L 372.295664 132.477695 
L 372.487428 133.811544 
L 372.66642 135.145393 
L 372.831735 136.479243 
L 372.982517 137.813092 
L 373.117961 139.146941 
L 373.237321 140.480791 
L 373.339909 141.81464 
L 373.425101 143.14849 
L 373.492342 144.482339 
L 373.541141 145.816188 
L 373.571082 147.150038 
L 373.581818 148.483887 
L 373.573078 149.817736 
L 373.544664 151.151586 
L 373.496453 152.485435 
L 373.428394 153.819284 
L 373.340513 155.153134 
L 373.232907 156.486983 
L 373.105744 157.820833 
L 372.959264 159.154682 
L 372.793771 160.488531 
L 372.609639 161.822381 
L 372.4073 163.15623 
L 372.187248 164.490079 
L 371.950034 165.823929 
L 371.69626 167.157778 
L 371.426578 168.491628 
L 371.141685 169.825477 
L 370.842322 171.159326 
L 370.529262 172.493176 
L 370.203316 173.827025 
L 369.86532 175.160874 
L 369.516138 176.494724 
z
" style="fill:#1f77b4;fill-opacity:0.3;"/>
   </g>
   <g id="matplotlib.axis_1">
    <g id="xtick_1">
     <g id="line2d_1">
      <defs>
       <path d="M 0 0 
L 0 3.5 
" id="m848467924b" style="stroke:#000000;stroke-width:0.8;"/>
      </defs>
      <g>
       <use style="stroke:#000000;stroke-width:0.8;" x="90.958442" xlink:href="#m848467924b" y="252"/>
      </g>
     </g>
     <g id="text_1">
      <!-- Tesla P100 -->
      <defs>
       <path d="M -0.296875 72.90625 
L 61.375 72.90625 
L 61.375 64.59375 
L 35.5 64.59375 
L 35.5 0 
L 25.59375 0 
L 25.59375 64.59375 
L -0.296875 64.59375 
z
" id="DejaVuSans-84"/>
       <path d="M 56.203125 29.59375 
L 56.203125 25.203125 
L 14.890625 25.203125 
Q 15.484375 15.921875 20.484375 11.0625 
Q 25.484375 6.203125 34.421875 6.203125 
Q 39.59375 6.203125 44.453125 7.46875 
Q 49.3125 8.734375 54.109375 11.28125 
L 54.109375 2.78125 
Q 49.265625 0.734375 44.1875 -0.34375 
Q 39.109375 -1.421875 33.890625 -1.421875 
Q 20.796875 -1.421875 13.15625 6.1875 
Q 5.515625 13.8125 5.515625 26.8125 
Q 5.515625 40.234375 12.765625 48.109375 
Q 20.015625 56 32.328125 56 
Q 43.359375 56 49.78125 48.890625 
Q 56.203125 41.796875 56.203125 29.59375 
z
M 47.21875 32.234375 
Q 47.125 39.59375 43.09375 43.984375 
Q 39.0625 48.390625 32.421875 48.390625 
Q 24.90625 48.390625 20.390625 44.140625 
Q 15.875 39.890625 15.1875 32.171875 
z
" id="DejaVuSans-101"/>
       <path d="M 44.28125 53.078125 
L 44.28125 44.578125 
Q 40.484375 46.53125 36.375 47.5 
Q 32.28125 48.484375 27.875 48.484375 
Q 21.1875 48.484375 17.84375 46.4375 
Q 14.5 44.390625 14.5 40.28125 
Q 14.5 37.15625 16.890625 35.375 
Q 19.28125 33.59375 26.515625 31.984375 
L 29.59375 31.296875 
Q 39.15625 29.25 43.1875 25.515625 
Q 47.21875 21.78125 47.21875 15.09375 
Q 47.21875 7.46875 41.1875 3.015625 
Q 35.15625 -1.421875 24.609375 -1.421875 
Q 20.21875 -1.421875 15.453125 -0.5625 
Q 10.6875 0.296875 5.421875 2 
L 5.421875 11.28125 
Q 10.40625 8.6875 15.234375 7.390625 
Q 20.0625 6.109375 24.8125 6.109375 
Q 31.15625 6.109375 34.5625 8.28125 
Q 37.984375 10.453125 37.984375 14.40625 
Q 37.984375 18.0625 35.515625 20.015625 
Q 33.0625 21.96875 24.703125 23.78125 
L 21.578125 24.515625 
Q 13.234375 26.265625 9.515625 29.90625 
Q 5.8125 33.546875 5.8125 39.890625 
Q 5.8125 47.609375 11.28125 51.796875 
Q 16.75 56 26.8125 56 
Q 31.78125 56 36.171875 55.265625 
Q 40.578125 54.546875 44.28125 53.078125 
z
" id="DejaVuSans-115"/>
       <path d="M 9.421875 75.984375 
L 18.40625 75.984375 
L 18.40625 0 
L 9.421875 0 
z
" id="DejaVuSans-108"/>
       <path d="M 34.28125 27.484375 
Q 23.390625 27.484375 19.1875 25 
Q 14.984375 22.515625 14.984375 16.5 
Q 14.984375 11.71875 18.140625 8.90625 
Q 21.296875 6.109375 26.703125 6.109375 
Q 34.1875 6.109375 38.703125 11.40625 
Q 43.21875 16.703125 43.21875 25.484375 
L 43.21875 27.484375 
z
M 52.203125 31.203125 
L 52.203125 0 
L 43.21875 0 
L 43.21875 8.296875 
Q 40.140625 3.328125 35.546875 0.953125 
Q 30.953125 -1.421875 24.3125 -1.421875 
Q 15.921875 -1.421875 10.953125 3.296875 
Q 6 8.015625 6 15.921875 
Q 6 25.140625 12.171875 29.828125 
Q 18.359375 34.515625 30.609375 34.515625 
L 43.21875 34.515625 
L 43.21875 35.40625 
Q 43.21875 41.609375 39.140625 45 
Q 35.0625 48.390625 27.6875 48.390625 
Q 23 48.390625 18.546875 47.265625 
Q 14.109375 46.140625 10.015625 43.890625 
L 10.015625 52.203125 
Q 14.9375 54.109375 19.578125 55.046875 
Q 24.21875 56 28.609375 56 
Q 40.484375 56 46.34375 49.84375 
Q 52.203125 43.703125 52.203125 31.203125 
z
" id="DejaVuSans-97"/>
       <path id="DejaVuSans-32"/>
       <path d="M 19.671875 64.796875 
L 19.671875 37.40625 
L 32.078125 37.40625 
Q 38.96875 37.40625 42.71875 40.96875 
Q 46.484375 44.53125 46.484375 51.125 
Q 46.484375 57.671875 42.71875 61.234375 
Q 38.96875 64.796875 32.078125 64.796875 
z
M 9.8125 72.90625 
L 32.078125 72.90625 
Q 44.34375 72.90625 50.609375 67.359375 
Q 56.890625 61.8125 56.890625 51.125 
Q 56.890625 40.328125 50.609375 34.8125 
Q 44.34375 29.296875 32.078125 29.296875 
L 19.671875 29.296875 
L 19.671875 0 
L 9.8125 0 
z
" id="DejaVuSans-80"/>
       <path d="M 12.40625 8.296875 
L 28.515625 8.296875 
L 28.515625 63.921875 
L 10.984375 60.40625 
L 10.984375 69.390625 
L 28.421875 72.90625 
L 38.28125 72.90625 
L 38.28125 8.296875 
L 54.390625 8.296875 
L 54.390625 0 
L 12.40625 0 
z
" id="DejaVuSans-49"/>
       <path d="M 31.78125 66.40625 
Q 24.171875 66.40625 20.328125 58.90625 
Q 16.5 51.421875 16.5 36.375 
Q 16.5 21.390625 20.328125 13.890625 
Q 24.171875 6.390625 31.78125 6.390625 
Q 39.453125 6.390625 43.28125 13.890625 
Q 47.125 21.390625 47.125 36.375 
Q 47.125 51.421875 43.28125 58.90625 
Q 39.453125 66.40625 31.78125 66.40625 
z
M 31.78125 74.21875 
Q 44.046875 74.21875 50.515625 64.515625 
Q 56.984375 54.828125 56.984375 36.375 
Q 56.984375 17.96875 50.515625 8.265625 
Q 44.046875 -1.421875 31.78125 -1.421875 
Q 19.53125 -1.421875 13.0625 8.265625 
Q 6.59375 17.96875 6.59375 36.375 
Q 6.59375 54.828125 13.0625 64.515625 
Q 19.53125 74.21875 31.78125 74.21875 
z
" id="DejaVuSans-48"/>
      </defs>
      <g transform="translate(63.635785 266.598437)scale(0.1 -0.1)">
       <use xlink:href="#DejaVuSans-84"/>
       <use x="60.818359" xlink:href="#DejaVuSans-101"/>
       <use x="122.341797" xlink:href="#DejaVuSans-115"/>
       <use x="174.441406" xlink:href="#DejaVuSans-108"/>
       <use x="202.224609" xlink:href="#DejaVuSans-97"/>
       <use x="263.503906" xlink:href="#DejaVuSans-32"/>
       <use x="295.291016" xlink:href="#DejaVuSans-80"/>
       <use x="355.59375" xlink:href="#DejaVuSans-49"/>
       <use x="419.216797" xlink:href="#DejaVuSans-48"/>
       <use x="482.839844" xlink:href="#DejaVuSans-48"/>
      </g>
      <!-- ≈17.50 -->
      <defs>
       <path d="M 73.1875 30.421875 
L 73.1875 21.6875 
Q 68.0625 17.875 63.6875 16.1875 
Q 59.328125 14.5 54.59375 14.5 
Q 49.21875 14.5 42.09375 17.390625 
Q 41.609375 17.578125 41.265625 17.71875 
Q 40.96875 17.828125 40.234375 18.109375 
Q 32.671875 21.09375 28.078125 21.09375 
Q 23.78125 21.09375 19.578125 19.234375 
Q 15.375 17.390625 10.59375 13.28125 
L 10.59375 22.015625 
Q 15.71875 25.828125 20.09375 27.515625 
Q 24.46875 29.203125 29.203125 29.203125 
Q 34.578125 29.203125 41.75 26.3125 
Q 42.28125 26.078125 42.53125 25.984375 
Q 42.828125 25.875 43.5625 25.59375 
Q 51.125 22.609375 55.71875 22.609375 
Q 59.90625 22.609375 64.03125 24.4375 
Q 68.171875 26.265625 73.1875 30.421875 
z
M 73.1875 49.421875 
L 73.1875 40.71875 
Q 68.0625 36.859375 63.6875 35.171875 
Q 59.328125 33.5 54.59375 33.5 
Q 49.21875 33.5 42.09375 36.375 
Q 41.609375 36.578125 41.265625 36.71875 
Q 40.96875 36.8125 40.234375 37.109375 
Q 32.671875 40.09375 28.078125 40.09375 
Q 23.78125 40.09375 19.578125 38.234375 
Q 15.375 36.375 10.59375 32.328125 
L 10.59375 41.015625 
Q 15.71875 44.828125 20.09375 46.5 
Q 24.46875 48.1875 29.203125 48.1875 
Q 34.578125 48.1875 41.75 45.3125 
Q 42.234375 45.125 42.484375 45.015625 
Q 42.828125 44.875 43.5625 44.578125 
Q 51.125 41.609375 55.71875 41.609375 
Q 59.90625 41.609375 64.03125 43.4375 
Q 68.171875 45.265625 73.1875 49.421875 
z
" id="DejaVuSans-8776"/>
       <path d="M 8.203125 72.90625 
L 55.078125 72.90625 
L 55.078125 68.703125 
L 28.609375 0 
L 18.3125 0 
L 43.21875 64.59375 
L 8.203125 64.59375 
z
" id="DejaVuSans-55"/>
       <path d="M 10.6875 12.40625 
L 21 12.40625 
L 21 0 
L 10.6875 0 
z
" id="DejaVuSans-46"/>
       <path d="M 10.796875 72.90625 
L 49.515625 72.90625 
L 49.515625 64.59375 
L 19.828125 64.59375 
L 19.828125 46.734375 
Q 21.96875 47.46875 24.109375 47.828125 
Q 26.265625 48.1875 28.421875 48.1875 
Q 40.625 48.1875 47.75 41.5 
Q 54.890625 34.8125 54.890625 23.390625 
Q 54.890625 11.625 47.5625 5.09375 
Q 40.234375 -1.421875 26.90625 -1.421875 
Q 22.3125 -1.421875 17.546875 -0.640625 
Q 12.796875 0.140625 7.71875 1.703125 
L 7.71875 11.625 
Q 12.109375 9.234375 16.796875 8.0625 
Q 21.484375 6.890625 26.703125 6.890625 
Q 35.15625 6.890625 40.078125 11.328125 
Q 45.015625 15.765625 45.015625 23.390625 
Q 45.015625 31 40.078125 35.4375 
Q 35.15625 39.890625 26.703125 39.890625 
Q 22.75 39.890625 18.8125 39.015625 
Q 14.890625 38.140625 10.796875 36.28125 
z
" id="DejaVuSans-53"/>
      </defs>
      <g transform="translate(72.454535 277.79625)scale(0.1 -0.1)">
       <use xlink:href="#DejaVuSans-8776"/>
       <use x="83.789062" xlink:href="#DejaVuSans-49"/>
       <use x="147.412109" xlink:href="#DejaVuSans-55"/>
       <use x="211.035156" xlink:href="#DejaVuSans-46"/>
       <use x="242.822266" xlink:href="#DejaVuSans-53"/>
       <use x="306.445312" xlink:href="#DejaVuSans-48"/>
      </g>
      <!-- mins/model -->
      <defs>
       <path d="M 52 44.1875 
Q 55.375 50.25 60.0625 53.125 
Q 64.75 56 71.09375 56 
Q 79.640625 56 84.28125 50.015625 
Q 88.921875 44.046875 88.921875 33.015625 
L 88.921875 0 
L 79.890625 0 
L 79.890625 32.71875 
Q 79.890625 40.578125 77.09375 44.375 
Q 74.3125 48.1875 68.609375 48.1875 
Q 61.625 48.1875 57.5625 43.546875 
Q 53.515625 38.921875 53.515625 30.90625 
L 53.515625 0 
L 44.484375 0 
L 44.484375 32.71875 
Q 44.484375 40.625 41.703125 44.40625 
Q 38.921875 48.1875 33.109375 48.1875 
Q 26.21875 48.1875 22.15625 43.53125 
Q 18.109375 38.875 18.109375 30.90625 
L 18.109375 0 
L 9.078125 0 
L 9.078125 54.6875 
L 18.109375 54.6875 
L 18.109375 46.1875 
Q 21.1875 51.21875 25.484375 53.609375 
Q 29.78125 56 35.6875 56 
Q 41.65625 56 45.828125 52.96875 
Q 50 49.953125 52 44.1875 
z
" id="DejaVuSans-109"/>
       <path d="M 9.421875 54.6875 
L 18.40625 54.6875 
L 18.40625 0 
L 9.421875 0 
z
M 9.421875 75.984375 
L 18.40625 75.984375 
L 18.40625 64.59375 
L 9.421875 64.59375 
z
" id="DejaVuSans-105"/>
       <path d="M 54.890625 33.015625 
L 54.890625 0 
L 45.90625 0 
L 45.90625 32.71875 
Q 45.90625 40.484375 42.875 44.328125 
Q 39.84375 48.1875 33.796875 48.1875 
Q 26.515625 48.1875 22.3125 43.546875 
Q 18.109375 38.921875 18.109375 30.90625 
L 18.109375 0 
L 9.078125 0 
L 9.078125 54.6875 
L 18.109375 54.6875 
L 18.109375 46.1875 
Q 21.34375 51.125 25.703125 53.5625 
Q 30.078125 56 35.796875 56 
Q 45.21875 56 50.046875 50.171875 
Q 54.890625 44.34375 54.890625 33.015625 
z
" id="DejaVuSans-110"/>
       <path d="M 25.390625 72.90625 
L 33.6875 72.90625 
L 8.296875 -9.28125 
L 0 -9.28125 
z
" id="DejaVuSans-47"/>
       <path d="M 30.609375 48.390625 
Q 23.390625 48.390625 19.1875 42.75 
Q 14.984375 37.109375 14.984375 27.296875 
Q 14.984375 17.484375 19.15625 11.84375 
Q 23.34375 6.203125 30.609375 6.203125 
Q 37.796875 6.203125 41.984375 11.859375 
Q 46.1875 17.53125 46.1875 27.296875 
Q 46.1875 37.015625 41.984375 42.703125 
Q 37.796875 48.390625 30.609375 48.390625 
z
M 30.609375 56 
Q 42.328125 56 49.015625 48.375 
Q 55.71875 40.765625 55.71875 27.296875 
Q 55.71875 13.875 49.015625 6.21875 
Q 42.328125 -1.421875 30.609375 -1.421875 
Q 18.84375 -1.421875 12.171875 6.21875 
Q 5.515625 13.875 5.515625 27.296875 
Q 5.515625 40.765625 12.171875 48.375 
Q 18.84375 56 30.609375 56 
z
" id="DejaVuSans-111"/>
       <path d="M 45.40625 46.390625 
L 45.40625 75.984375 
L 54.390625 75.984375 
L 54.390625 0 
L 45.40625 0 
L 45.40625 8.203125 
Q 42.578125 3.328125 38.25 0.953125 
Q 33.9375 -1.421875 27.875 -1.421875 
Q 17.96875 -1.421875 11.734375 6.484375 
Q 5.515625 14.40625 5.515625 27.296875 
Q 5.515625 40.1875 11.734375 48.09375 
Q 17.96875 56 27.875 56 
Q 33.9375 56 38.25 53.625 
Q 42.578125 51.265625 45.40625 46.390625 
z
M 14.796875 27.296875 
Q 14.796875 17.390625 18.875 11.75 
Q 22.953125 6.109375 30.078125 6.109375 
Q 37.203125 6.109375 41.296875 11.75 
Q 45.40625 17.390625 45.40625 27.296875 
Q 45.40625 37.203125 41.296875 42.84375 
Q 37.203125 48.484375 30.078125 48.484375 
Q 22.953125 48.484375 18.875 42.84375 
Q 14.796875 37.203125 14.796875 27.296875 
z
" id="DejaVuSans-100"/>
      </defs>
      <g transform="translate(61.671723 288.994062)scale(0.1 -0.1)">
       <use xlink:href="#DejaVuSans-109"/>
       <use x="97.412109" xlink:href="#DejaVuSans-105"/>
       <use x="125.195312" xlink:href="#DejaVuSans-110"/>
       <use x="188.574219" xlink:href="#DejaVuSans-115"/>
       <use x="240.673828" xlink:href="#DejaVuSans-47"/>
       <use x="274.365234" xlink:href="#DejaVuSans-109"/>
       <use x="371.777344" xlink:href="#DejaVuSans-111"/>
       <use x="432.958984" xlink:href="#DejaVuSans-100"/>
       <use x="496.435547" xlink:href="#DejaVuSans-101"/>
       <use x="557.958984" xlink:href="#DejaVuSans-108"/>
      </g>
     </g>
    </g>
    <g id="xtick_2">
     <g id="line2d_2">
      <g>
       <use style="stroke:#000000;stroke-width:0.8;" x="177.919481" xlink:href="#m848467924b" y="252"/>
      </g>
     </g>
     <g id="text_2">
      <!-- GTX 970 &amp; 1070Ti -->
      <defs>
       <path d="M 59.515625 10.40625 
L 59.515625 29.984375 
L 43.40625 29.984375 
L 43.40625 38.09375 
L 69.28125 38.09375 
L 69.28125 6.78125 
Q 63.578125 2.734375 56.6875 0.65625 
Q 49.8125 -1.421875 42 -1.421875 
Q 24.90625 -1.421875 15.25 8.5625 
Q 5.609375 18.5625 5.609375 36.375 
Q 5.609375 54.25 15.25 64.234375 
Q 24.90625 74.21875 42 74.21875 
Q 49.125 74.21875 55.546875 72.453125 
Q 61.96875 70.703125 67.390625 67.28125 
L 67.390625 56.78125 
Q 61.921875 61.421875 55.765625 63.765625 
Q 49.609375 66.109375 42.828125 66.109375 
Q 29.4375 66.109375 22.71875 58.640625 
Q 16.015625 51.171875 16.015625 36.375 
Q 16.015625 21.625 22.71875 14.15625 
Q 29.4375 6.6875 42.828125 6.6875 
Q 48.046875 6.6875 52.140625 7.59375 
Q 56.25 8.5 59.515625 10.40625 
z
" id="DejaVuSans-71"/>
       <path d="M 6.296875 72.90625 
L 16.890625 72.90625 
L 35.015625 45.796875 
L 53.21875 72.90625 
L 63.8125 72.90625 
L 40.375 37.890625 
L 65.375 0 
L 54.78125 0 
L 34.28125 31 
L 13.625 0 
L 2.984375 0 
L 29 38.921875 
z
" id="DejaVuSans-88"/>
       <path d="M 10.984375 1.515625 
L 10.984375 10.5 
Q 14.703125 8.734375 18.5 7.8125 
Q 22.3125 6.890625 25.984375 6.890625 
Q 35.75 6.890625 40.890625 13.453125 
Q 46.046875 20.015625 46.78125 33.40625 
Q 43.953125 29.203125 39.59375 26.953125 
Q 35.25 24.703125 29.984375 24.703125 
Q 19.046875 24.703125 12.671875 31.3125 
Q 6.296875 37.9375 6.296875 49.421875 
Q 6.296875 60.640625 12.9375 67.421875 
Q 19.578125 74.21875 30.609375 74.21875 
Q 43.265625 74.21875 49.921875 64.515625 
Q 56.59375 54.828125 56.59375 36.375 
Q 56.59375 19.140625 48.40625 8.859375 
Q 40.234375 -1.421875 26.421875 -1.421875 
Q 22.703125 -1.421875 18.890625 -0.6875 
Q 15.09375 0.046875 10.984375 1.515625 
z
M 30.609375 32.421875 
Q 37.25 32.421875 41.125 36.953125 
Q 45.015625 41.5 45.015625 49.421875 
Q 45.015625 57.28125 41.125 61.84375 
Q 37.25 66.40625 30.609375 66.40625 
Q 23.96875 66.40625 20.09375 61.84375 
Q 16.21875 57.28125 16.21875 49.421875 
Q 16.21875 41.5 20.09375 36.953125 
Q 23.96875 32.421875 30.609375 32.421875 
z
" id="DejaVuSans-57"/>
       <path d="M 24.3125 39.203125 
Q 19.875 35.25 17.796875 31.3125 
Q 15.71875 27.390625 15.71875 23.09375 
Q 15.71875 15.96875 20.890625 11.234375 
Q 26.078125 6.5 33.890625 6.5 
Q 38.53125 6.5 42.578125 8.03125 
Q 46.625 9.578125 50.203125 12.703125 
z
M 31.203125 44.671875 
L 56 19.28125 
Q 58.890625 23.640625 60.5 28.59375 
Q 62.109375 33.546875 62.40625 39.109375 
L 71.484375 39.109375 
Q 70.90625 32.671875 68.359375 26.359375 
Q 65.828125 20.0625 61.28125 13.921875 
L 74.90625 0 
L 62.59375 0 
L 55.609375 7.171875 
Q 50.53125 2.828125 44.96875 0.703125 
Q 39.40625 -1.421875 33.015625 -1.421875 
Q 21.234375 -1.421875 13.765625 5.296875 
Q 6.296875 12.015625 6.296875 22.515625 
Q 6.296875 28.765625 9.5625 34.25 
Q 12.84375 39.75 19.390625 44.578125 
Q 17.046875 47.65625 15.8125 50.703125 
Q 14.59375 53.765625 14.59375 56.6875 
Q 14.59375 64.59375 20.015625 69.40625 
Q 25.4375 74.21875 34.421875 74.21875 
Q 38.484375 74.21875 42.5 73.34375 
Q 46.53125 72.46875 50.6875 70.703125 
L 50.6875 61.8125 
Q 46.4375 64.109375 42.578125 65.296875 
Q 38.71875 66.5 35.40625 66.5 
Q 30.28125 66.5 27.078125 63.78125 
Q 23.875 61.078125 23.875 56.78125 
Q 23.875 54.296875 25.3125 51.78125 
Q 26.765625 49.265625 31.203125 44.671875 
z
" id="DejaVuSans-38"/>
      </defs>
      <g transform="translate(132.192918 266.598437)scale(0.1 -0.1)">
       <use xlink:href="#DejaVuSans-71"/>
       <use x="77.443359" xlink:href="#DejaVuSans-84"/>
       <use x="138.527344" xlink:href="#DejaVuSans-88"/>
       <use x="207.033203" xlink:href="#DejaVuSans-32"/>
       <use x="238.820312" xlink:href="#DejaVuSans-57"/>
       <use x="302.443359" xlink:href="#DejaVuSans-55"/>
       <use x="366.066406" xlink:href="#DejaVuSans-48"/>
       <use x="429.689453" xlink:href="#DejaVuSans-32"/>
       <use x="461.476562" xlink:href="#DejaVuSans-38"/>
       <use x="539.455078" xlink:href="#DejaVuSans-32"/>
       <use x="571.242188" xlink:href="#DejaVuSans-49"/>
       <use x="634.865234" xlink:href="#DejaVuSans-48"/>
       <use x="698.488281" xlink:href="#DejaVuSans-55"/>
       <use x="762.111328" xlink:href="#DejaVuSans-48"/>
       <use x="825.734375" xlink:href="#DejaVuSans-84"/>
       <use x="886.771484" xlink:href="#DejaVuSans-105"/>
      </g>
      <!-- ≈16.01 -->
      <defs>
       <path d="M 33.015625 40.375 
Q 26.375 40.375 22.484375 35.828125 
Q 18.609375 31.296875 18.609375 23.390625 
Q 18.609375 15.53125 22.484375 10.953125 
Q 26.375 6.390625 33.015625 6.390625 
Q 39.65625 6.390625 43.53125 10.953125 
Q 47.40625 15.53125 47.40625 23.390625 
Q 47.40625 31.296875 43.53125 35.828125 
Q 39.65625 40.375 33.015625 40.375 
z
M 52.59375 71.296875 
L 52.59375 62.3125 
Q 48.875 64.0625 45.09375 64.984375 
Q 41.3125 65.921875 37.59375 65.921875 
Q 27.828125 65.921875 22.671875 59.328125 
Q 17.53125 52.734375 16.796875 39.40625 
Q 19.671875 43.65625 24.015625 45.921875 
Q 28.375 48.1875 33.59375 48.1875 
Q 44.578125 48.1875 50.953125 41.515625 
Q 57.328125 34.859375 57.328125 23.390625 
Q 57.328125 12.15625 50.6875 5.359375 
Q 44.046875 -1.421875 33.015625 -1.421875 
Q 20.359375 -1.421875 13.671875 8.265625 
Q 6.984375 17.96875 6.984375 36.375 
Q 6.984375 53.65625 15.1875 63.9375 
Q 23.390625 74.21875 37.203125 74.21875 
Q 40.921875 74.21875 44.703125 73.484375 
Q 48.484375 72.75 52.59375 71.296875 
z
" id="DejaVuSans-54"/>
      </defs>
      <g transform="translate(159.415574 277.79625)scale(0.1 -0.1)">
       <use xlink:href="#DejaVuSans-8776"/>
       <use x="83.789062" xlink:href="#DejaVuSans-49"/>
       <use x="147.412109" xlink:href="#DejaVuSans-54"/>
       <use x="211.035156" xlink:href="#DejaVuSans-46"/>
       <use x="242.822266" xlink:href="#DejaVuSans-48"/>
       <use x="306.445312" xlink:href="#DejaVuSans-49"/>
      </g>
      <!-- mins/model -->
      <g transform="translate(148.632762 288.994062)scale(0.1 -0.1)">
       <use xlink:href="#DejaVuSans-109"/>
       <use x="97.412109" xlink:href="#DejaVuSans-105"/>
       <use x="125.195312" xlink:href="#DejaVuSans-110"/>
       <use x="188.574219" xlink:href="#DejaVuSans-115"/>
       <use x="240.673828" xlink:href="#DejaVuSans-47"/>
       <use x="274.365234" xlink:href="#DejaVuSans-109"/>
       <use x="371.777344" xlink:href="#DejaVuSans-111"/>
       <use x="432.958984" xlink:href="#DejaVuSans-100"/>
       <use x="496.435547" xlink:href="#DejaVuSans-101"/>
       <use x="557.958984" xlink:href="#DejaVuSans-108"/>
      </g>
     </g>
    </g>
    <g id="xtick_3">
     <g id="line2d_3">
      <g>
       <use style="stroke:#000000;stroke-width:0.8;" x="264.880519" xlink:href="#m848467924b" y="252"/>
      </g>
     </g>
     <g id="text_3">
      <!-- Tesla V100 -->
      <defs>
       <path d="M 28.609375 0 
L 0.78125 72.90625 
L 11.078125 72.90625 
L 34.1875 11.53125 
L 57.328125 72.90625 
L 67.578125 72.90625 
L 39.796875 0 
z
" id="DejaVuSans-86"/>
      </defs>
      <g transform="translate(237.152394 266.598437)scale(0.1 -0.1)">
       <use xlink:href="#DejaVuSans-84"/>
       <use x="60.818359" xlink:href="#DejaVuSans-101"/>
       <use x="122.341797" xlink:href="#DejaVuSans-115"/>
       <use x="174.441406" xlink:href="#DejaVuSans-108"/>
       <use x="202.224609" xlink:href="#DejaVuSans-97"/>
       <use x="263.503906" xlink:href="#DejaVuSans-32"/>
       <use x="295.291016" xlink:href="#DejaVuSans-86"/>
       <use x="363.699219" xlink:href="#DejaVuSans-49"/>
       <use x="427.322266" xlink:href="#DejaVuSans-48"/>
       <use x="490.945312" xlink:href="#DejaVuSans-48"/>
      </g>
      <!-- ≈13.23 -->
      <defs>
       <path d="M 40.578125 39.3125 
Q 47.65625 37.796875 51.625 33 
Q 55.609375 28.21875 55.609375 21.1875 
Q 55.609375 10.40625 48.1875 4.484375 
Q 40.765625 -1.421875 27.09375 -1.421875 
Q 22.515625 -1.421875 17.65625 -0.515625 
Q 12.796875 0.390625 7.625 2.203125 
L 7.625 11.71875 
Q 11.71875 9.328125 16.59375 8.109375 
Q 21.484375 6.890625 26.8125 6.890625 
Q 36.078125 6.890625 40.9375 10.546875 
Q 45.796875 14.203125 45.796875 21.1875 
Q 45.796875 27.640625 41.28125 31.265625 
Q 36.765625 34.90625 28.71875 34.90625 
L 20.21875 34.90625 
L 20.21875 43.015625 
L 29.109375 43.015625 
Q 36.375 43.015625 40.234375 45.921875 
Q 44.09375 48.828125 44.09375 54.296875 
Q 44.09375 59.90625 40.109375 62.90625 
Q 36.140625 65.921875 28.71875 65.921875 
Q 24.65625 65.921875 20.015625 65.03125 
Q 15.375 64.15625 9.8125 62.3125 
L 9.8125 71.09375 
Q 15.4375 72.65625 20.34375 73.4375 
Q 25.25 74.21875 29.59375 74.21875 
Q 40.828125 74.21875 47.359375 69.109375 
Q 53.90625 64.015625 53.90625 55.328125 
Q 53.90625 49.265625 50.4375 45.09375 
Q 46.96875 40.921875 40.578125 39.3125 
z
" id="DejaVuSans-51"/>
       <path d="M 19.1875 8.296875 
L 53.609375 8.296875 
L 53.609375 0 
L 7.328125 0 
L 7.328125 8.296875 
Q 12.9375 14.109375 22.625 23.890625 
Q 32.328125 33.6875 34.8125 36.53125 
Q 39.546875 41.84375 41.421875 45.53125 
Q 43.3125 49.21875 43.3125 52.78125 
Q 43.3125 58.59375 39.234375 62.25 
Q 35.15625 65.921875 28.609375 65.921875 
Q 23.96875 65.921875 18.8125 64.3125 
Q 13.671875 62.703125 7.8125 59.421875 
L 7.8125 69.390625 
Q 13.765625 71.78125 18.9375 73 
Q 24.125 74.21875 28.421875 74.21875 
Q 39.75 74.21875 46.484375 68.546875 
Q 53.21875 62.890625 53.21875 53.421875 
Q 53.21875 48.921875 51.53125 44.890625 
Q 49.859375 40.875 45.40625 35.40625 
Q 44.1875 33.984375 37.640625 27.21875 
Q 31.109375 20.453125 19.1875 8.296875 
z
" id="DejaVuSans-50"/>
      </defs>
      <g transform="translate(246.376613 277.79625)scale(0.1 -0.1)">
       <use xlink:href="#DejaVuSans-8776"/>
       <use x="83.789062" xlink:href="#DejaVuSans-49"/>
       <use x="147.412109" xlink:href="#DejaVuSans-51"/>
       <use x="211.035156" xlink:href="#DejaVuSans-46"/>
       <use x="242.822266" xlink:href="#DejaVuSans-50"/>
       <use x="306.445312" xlink:href="#DejaVuSans-51"/>
      </g>
      <!-- mins/model -->
      <g transform="translate(235.593801 288.994062)scale(0.1 -0.1)">
       <use xlink:href="#DejaVuSans-109"/>
       <use x="97.412109" xlink:href="#DejaVuSans-105"/>
       <use x="125.195312" xlink:href="#DejaVuSans-110"/>
       <use x="188.574219" xlink:href="#DejaVuSans-115"/>
       <use x="240.673828" xlink:href="#DejaVuSans-47"/>
       <use x="274.365234" xlink:href="#DejaVuSans-109"/>
       <use x="371.777344" xlink:href="#DejaVuSans-111"/>
       <use x="432.958984" xlink:href="#DejaVuSans-100"/>
       <use x="496.435547" xlink:href="#DejaVuSans-101"/>
       <use x="557.958984" xlink:href="#DejaVuSans-108"/>
      </g>
     </g>
    </g>
    <g id="xtick_4">
     <g id="line2d_4">
      <g>
       <use style="stroke:#000000;stroke-width:0.8;" x="351.841558" xlink:href="#m848467924b" y="252"/>
      </g>
     </g>
     <g id="text_4">
      <!-- Jetson TX2 -->
      <defs>
       <path d="M 9.8125 72.90625 
L 19.671875 72.90625 
L 19.671875 5.078125 
Q 19.671875 -8.109375 14.671875 -14.0625 
Q 9.671875 -20.015625 -1.421875 -20.015625 
L -5.171875 -20.015625 
L -5.171875 -11.71875 
L -2.09375 -11.71875 
Q 4.4375 -11.71875 7.125 -8.046875 
Q 9.8125 -4.390625 9.8125 5.078125 
z
" id="DejaVuSans-74"/>
       <path d="M 18.3125 70.21875 
L 18.3125 54.6875 
L 36.8125 54.6875 
L 36.8125 47.703125 
L 18.3125 47.703125 
L 18.3125 18.015625 
Q 18.3125 11.328125 20.140625 9.421875 
Q 21.96875 7.515625 27.59375 7.515625 
L 36.8125 7.515625 
L 36.8125 0 
L 27.59375 0 
Q 17.1875 0 13.234375 3.875 
Q 9.28125 7.765625 9.28125 18.015625 
L 9.28125 47.703125 
L 2.6875 47.703125 
L 2.6875 54.6875 
L 9.28125 54.6875 
L 9.28125 70.21875 
z
" id="DejaVuSans-116"/>
      </defs>
      <g transform="translate(325.247808 266.598437)scale(0.1 -0.1)">
       <use xlink:href="#DejaVuSans-74"/>
       <use x="29.492188" xlink:href="#DejaVuSans-101"/>
       <use x="91.015625" xlink:href="#DejaVuSans-116"/>
       <use x="130.224609" xlink:href="#DejaVuSans-115"/>
       <use x="182.324219" xlink:href="#DejaVuSans-111"/>
       <use x="243.505859" xlink:href="#DejaVuSans-110"/>
       <use x="306.884766" xlink:href="#DejaVuSans-32"/>
       <use x="338.671875" xlink:href="#DejaVuSans-84"/>
       <use x="399.755859" xlink:href="#DejaVuSans-88"/>
       <use x="468.261719" xlink:href="#DejaVuSans-50"/>
      </g>
      <!-- ≈39.96 -->
      <g transform="translate(333.337652 277.79625)scale(0.1 -0.1)">
       <use xlink:href="#DejaVuSans-8776"/>
       <use x="83.789062" xlink:href="#DejaVuSans-51"/>
       <use x="147.412109" xlink:href="#DejaVuSans-57"/>
       <use x="211.035156" xlink:href="#DejaVuSans-46"/>
       <use x="242.822266" xlink:href="#DejaVuSans-57"/>
       <use x="306.445312" xlink:href="#DejaVuSans-54"/>
      </g>
      <!-- mins/model -->
      <g transform="translate(322.55484 288.994062)scale(0.1 -0.1)">
       <use xlink:href="#DejaVuSans-109"/>
       <use x="97.412109" xlink:href="#DejaVuSans-105"/>
       <use x="125.195312" xlink:href="#DejaVuSans-110"/>
       <use x="188.574219" xlink:href="#DejaVuSans-115"/>
       <use x="240.673828" xlink:href="#DejaVuSans-47"/>
       <use x="274.365234" xlink:href="#DejaVuSans-109"/>
       <use x="371.777344" xlink:href="#DejaVuSans-111"/>
       <use x="432.958984" xlink:href="#DejaVuSans-100"/>
       <use x="496.435547" xlink:href="#DejaVuSans-101"/>
       <use x="557.958984" xlink:href="#DejaVuSans-108"/>
      </g>
     </g>
    </g>
    <g id="text_5">
     <!-- GPU Workers -->
     <defs>
      <path d="M 8.6875 72.90625 
L 18.609375 72.90625 
L 18.609375 28.609375 
Q 18.609375 16.890625 22.84375 11.734375 
Q 27.09375 6.59375 36.625 6.59375 
Q 46.09375 6.59375 50.34375 11.734375 
Q 54.59375 16.890625 54.59375 28.609375 
L 54.59375 72.90625 
L 64.5 72.90625 
L 64.5 27.390625 
Q 64.5 13.140625 57.4375 5.859375 
Q 50.390625 -1.421875 36.625 -1.421875 
Q 22.796875 -1.421875 15.734375 5.859375 
Q 8.6875 13.140625 8.6875 27.390625 
z
" id="DejaVuSans-85"/>
      <path d="M 3.328125 72.90625 
L 13.28125 72.90625 
L 28.609375 11.28125 
L 43.890625 72.90625 
L 54.984375 72.90625 
L 70.3125 11.28125 
L 85.59375 72.90625 
L 95.609375 72.90625 
L 77.296875 0 
L 64.890625 0 
L 49.515625 63.28125 
L 33.984375 0 
L 21.578125 0 
z
" id="DejaVuSans-87"/>
      <path d="M 41.109375 46.296875 
Q 39.59375 47.171875 37.8125 47.578125 
Q 36.03125 48 33.890625 48 
Q 26.265625 48 22.1875 43.046875 
Q 18.109375 38.09375 18.109375 28.8125 
L 18.109375 0 
L 9.078125 0 
L 9.078125 54.6875 
L 18.109375 54.6875 
L 18.109375 46.1875 
Q 20.953125 51.171875 25.484375 53.578125 
Q 30.03125 56 36.53125 56 
Q 37.453125 56 38.578125 55.875 
Q 39.703125 55.765625 41.0625 55.515625 
z
" id="DejaVuSans-114"/>
      <path d="M 9.078125 75.984375 
L 18.109375 75.984375 
L 18.109375 31.109375 
L 44.921875 54.6875 
L 56.390625 54.6875 
L 27.390625 29.109375 
L 57.625 0 
L 45.90625 0 
L 18.109375 26.703125 
L 18.109375 0 
L 9.078125 0 
z
" id="DejaVuSans-107"/>
     </defs>
     <g transform="translate(188.578125 302.672188)scale(0.1 -0.1)">
      <use xlink:href="#DejaVuSans-71"/>
      <use x="77.490234" xlink:href="#DejaVuSans-80"/>
      <use x="137.792969" xlink:href="#DejaVuSans-85"/>
      <use x="210.986328" xlink:href="#DejaVuSans-32"/>
      <use x="242.773438" xlink:href="#DejaVuSans-87"/>
      <use x="341.572266" xlink:href="#DejaVuSans-111"/>
      <use x="402.753906" xlink:href="#DejaVuSans-114"/>
      <use x="443.867188" xlink:href="#DejaVuSans-107"/>
      <use x="501.730469" xlink:href="#DejaVuSans-101"/>
      <use x="563.253906" xlink:href="#DejaVuSans-114"/>
      <use x="604.367188" xlink:href="#DejaVuSans-115"/>
     </g>
    </g>
   </g>
   <g id="matplotlib.axis_2">
    <g id="ytick_1">
     <g id="line2d_5">
      <path clip-path="url(#pa262358e48)" d="M 54 228.849885 
L 388.8 228.849885 
" style="fill:none;stroke:#b0b0b0;stroke-linecap:square;stroke-width:0.8;"/>
     </g>
     <g id="line2d_6">
      <defs>
       <path d="M 0 0 
L -3.5 0 
" id="m20f6eea8e0" style="stroke:#000000;stroke-width:0.8;"/>
      </defs>
      <g>
       <use style="stroke:#000000;stroke-width:0.8;" x="54" xlink:href="#m20f6eea8e0" y="228.849885"/>
      </g>
     </g>
     <g id="text_6">
      <!-- 10 -->
      <g transform="translate(34.275 232.649104)scale(0.1 -0.1)">
       <use xlink:href="#DejaVuSans-49"/>
       <use x="63.623047" xlink:href="#DejaVuSans-48"/>
      </g>
     </g>
    </g>
    <g id="ytick_2">
     <g id="line2d_7">
      <path clip-path="url(#pa262358e48)" d="M 54 191.721941 
L 388.8 191.721941 
" style="fill:none;stroke:#b0b0b0;stroke-linecap:square;stroke-width:0.8;"/>
     </g>
     <g id="line2d_8">
      <g>
       <use style="stroke:#000000;stroke-width:0.8;" x="54" xlink:href="#m20f6eea8e0" y="191.721941"/>
      </g>
     </g>
     <g id="text_7">
      <!-- 20 -->
      <g transform="translate(34.275 195.52116)scale(0.1 -0.1)">
       <use xlink:href="#DejaVuSans-50"/>
       <use x="63.623047" xlink:href="#DejaVuSans-48"/>
      </g>
     </g>
    </g>
    <g id="ytick_3">
     <g id="line2d_9">
      <path clip-path="url(#pa262358e48)" d="M 54 154.593997 
L 388.8 154.593997 
" style="fill:none;stroke:#b0b0b0;stroke-linecap:square;stroke-width:0.8;"/>
     </g>
     <g id="line2d_10">
      <g>
       <use style="stroke:#000000;stroke-width:0.8;" x="54" xlink:href="#m20f6eea8e0" y="154.593997"/>
      </g>
     </g>
     <g id="text_8">
      <!-- 30 -->
      <g transform="translate(34.275 158.393215)scale(0.1 -0.1)">
       <use xlink:href="#DejaVuSans-51"/>
       <use x="63.623047" xlink:href="#DejaVuSans-48"/>
      </g>
     </g>
    </g>
    <g id="ytick_4">
     <g id="line2d_11">
      <path clip-path="url(#pa262358e48)" d="M 54 117.466052 
L 388.8 117.466052 
" style="fill:none;stroke:#b0b0b0;stroke-linecap:square;stroke-width:0.8;"/>
     </g>
     <g id="line2d_12">
      <g>
       <use style="stroke:#000000;stroke-width:0.8;" x="54" xlink:href="#m20f6eea8e0" y="117.466052"/>
      </g>
     </g>
     <g id="text_9">
      <!-- 40 -->
      <defs>
       <path d="M 37.796875 64.3125 
L 12.890625 25.390625 
L 37.796875 25.390625 
z
M 35.203125 72.90625 
L 47.609375 72.90625 
L 47.609375 25.390625 
L 58.015625 25.390625 
L 58.015625 17.1875 
L 47.609375 17.1875 
L 47.609375 0 
L 37.796875 0 
L 37.796875 17.1875 
L 4.890625 17.1875 
L 4.890625 26.703125 
z
" id="DejaVuSans-52"/>
      </defs>
      <g transform="translate(34.275 121.265271)scale(0.1 -0.1)">
       <use xlink:href="#DejaVuSans-52"/>
       <use x="63.623047" xlink:href="#DejaVuSans-48"/>
      </g>
     </g>
    </g>
    <g id="ytick_5">
     <g id="line2d_13">
      <path clip-path="url(#pa262358e48)" d="M 54 80.338108 
L 388.8 80.338108 
" style="fill:none;stroke:#b0b0b0;stroke-linecap:square;stroke-width:0.8;"/>
     </g>
     <g id="line2d_14">
      <g>
       <use style="stroke:#000000;stroke-width:0.8;" x="54" xlink:href="#m20f6eea8e0" y="80.338108"/>
      </g>
     </g>
     <g id="text_10">
      <!-- 50 -->
      <g transform="translate(34.275 84.137327)scale(0.1 -0.1)">
       <use xlink:href="#DejaVuSans-53"/>
       <use x="63.623047" xlink:href="#DejaVuSans-48"/>
      </g>
     </g>
    </g>
    <g id="ytick_6">
     <g id="line2d_15">
      <path clip-path="url(#pa262358e48)" d="M 54 43.210164 
L 388.8 43.210164 
" style="fill:none;stroke:#b0b0b0;stroke-linecap:square;stroke-width:0.8;"/>
     </g>
     <g id="line2d_16">
      <g>
       <use style="stroke:#000000;stroke-width:0.8;" x="54" xlink:href="#m20f6eea8e0" y="43.210164"/>
      </g>
     </g>
     <g id="text_11">
      <!-- 60 -->
      <g transform="translate(34.275 47.009382)scale(0.1 -0.1)">
       <use xlink:href="#DejaVuSans-54"/>
       <use x="63.623047" xlink:href="#DejaVuSans-48"/>
      </g>
     </g>
    </g>
    <g id="text_12">
     <!-- Time (minutes) -->
     <defs>
      <path d="M 31 75.875 
Q 24.46875 64.65625 21.28125 53.65625 
Q 18.109375 42.671875 18.109375 31.390625 
Q 18.109375 20.125 21.3125 9.0625 
Q 24.515625 -2 31 -13.1875 
L 23.1875 -13.1875 
Q 15.875 -1.703125 12.234375 9.375 
Q 8.59375 20.453125 8.59375 31.390625 
Q 8.59375 42.28125 12.203125 53.3125 
Q 15.828125 64.359375 23.1875 75.875 
z
" id="DejaVuSans-40"/>
      <path d="M 8.5 21.578125 
L 8.5 54.6875 
L 17.484375 54.6875 
L 17.484375 21.921875 
Q 17.484375 14.15625 20.5 10.265625 
Q 23.53125 6.390625 29.59375 6.390625 
Q 36.859375 6.390625 41.078125 11.03125 
Q 45.3125 15.671875 45.3125 23.6875 
L 45.3125 54.6875 
L 54.296875 54.6875 
L 54.296875 0 
L 45.3125 0 
L 45.3125 8.40625 
Q 42.046875 3.421875 37.71875 1 
Q 33.40625 -1.421875 27.6875 -1.421875 
Q 18.265625 -1.421875 13.375 4.4375 
Q 8.5 10.296875 8.5 21.578125 
z
M 31.109375 56 
z
" id="DejaVuSans-117"/>
      <path d="M 8.015625 75.875 
L 15.828125 75.875 
Q 23.140625 64.359375 26.78125 53.3125 
Q 30.421875 42.28125 30.421875 31.390625 
Q 30.421875 20.453125 26.78125 9.375 
Q 23.140625 -1.703125 15.828125 -13.1875 
L 8.015625 -13.1875 
Q 14.5 -2 17.703125 9.0625 
Q 20.90625 20.125 20.90625 31.390625 
Q 20.90625 42.671875 17.703125 53.65625 
Q 14.5 64.65625 8.015625 75.875 
z
" id="DejaVuSans-41"/>
     </defs>
     <g transform="translate(28.195312 181.396406)rotate(-90)scale(0.1 -0.1)">
      <use xlink:href="#DejaVuSans-84"/>
      <use x="61.037109" xlink:href="#DejaVuSans-105"/>
      <use x="88.820312" xlink:href="#DejaVuSans-109"/>
      <use x="186.232422" xlink:href="#DejaVuSans-101"/>
      <use x="247.755859" xlink:href="#DejaVuSans-32"/>
      <use x="279.542969" xlink:href="#DejaVuSans-40"/>
      <use x="318.556641" xlink:href="#DejaVuSans-109"/>
      <use x="415.96875" xlink:href="#DejaVuSans-105"/>
      <use x="443.751953" xlink:href="#DejaVuSans-110"/>
      <use x="507.130859" xlink:href="#DejaVuSans-117"/>
      <use x="570.509766" xlink:href="#DejaVuSans-116"/>
      <use x="609.71875" xlink:href="#DejaVuSans-101"/>
      <use x="671.242188" xlink:href="#DejaVuSans-115"/>
      <use x="723.341797" xlink:href="#DejaVuSans-41"/>
     </g>
    </g>
   </g>
   <g id="LineCollection_1">
    <path clip-path="url(#pa262358e48)" d="M 80.088312 104.821421 
L 101.828571 104.821421 
" style="fill:none;stroke:#1f77b4;stroke-width:1.5;"/>
    <path clip-path="url(#pa262358e48)" d="M 167.049351 141.472165 
L 188.78961 141.472165 
" style="fill:none;stroke:#1f77b4;stroke-width:1.5;"/>
    <path clip-path="url(#pa262358e48)" d="M 254.01039 213.894489 
L 275.750649 213.894489 
" style="fill:none;stroke:#1f77b4;stroke-width:1.5;"/>
    <path clip-path="url(#pa262358e48)" d="M 340.971429 44.443636 
L 362.711688 44.443636 
" style="fill:none;stroke:#1f77b4;stroke-width:1.5;"/>
   </g>
   <g id="LineCollection_2">
    <path clip-path="url(#pa262358e48)" d="M 80.088312 235.408181 
L 101.828571 235.408181 
" style="fill:none;stroke:#1f77b4;stroke-width:1.5;"/>
    <path clip-path="url(#pa262358e48)" d="M 167.049351 242.116364 
L 188.78961 242.116364 
" style="fill:none;stroke:#1f77b4;stroke-width:1.5;"/>
    <path clip-path="url(#pa262358e48)" d="M 254.01039 221.650293 
L 275.750649 221.650293 
" style="fill:none;stroke:#1f77b4;stroke-width:1.5;"/>
    <path clip-path="url(#pa262358e48)" d="M 340.971429 176.494724 
L 362.711688 176.494724 
" style="fill:none;stroke:#1f77b4;stroke-width:1.5;"/>
   </g>
   <g id="LineCollection_3">
    <path clip-path="url(#pa262358e48)" d="M 90.958442 235.408181 
L 90.958442 104.821421 
" style="fill:none;stroke:#1f77b4;stroke-width:1.5;"/>
    <path clip-path="url(#pa262358e48)" d="M 177.919481 242.116364 
L 177.919481 141.472165 
" style="fill:none;stroke:#1f77b4;stroke-width:1.5;"/>
    <path clip-path="url(#pa262358e48)" d="M 264.880519 221.650293 
L 264.880519 213.894489 
" style="fill:none;stroke:#1f77b4;stroke-width:1.5;"/>
    <path clip-path="url(#pa262358e48)" d="M 351.841558 176.494724 
L 351.841558 44.443636 
" style="fill:none;stroke:#1f77b4;stroke-width:1.5;"/>
   </g>
   <g id="LineCollection_4">
    <path clip-path="url(#pa262358e48)" d="M 80.088312 214.934967 
L 101.828571 214.934967 
" style="fill:none;stroke:#1f77b4;stroke-width:1.5;"/>
    <path clip-path="url(#pa262358e48)" d="M 167.049351 212.492259 
L 188.78961 212.492259 
" style="fill:none;stroke:#1f77b4;stroke-width:1.5;"/>
    <path clip-path="url(#pa262358e48)" d="M 254.01039 214.988786 
L 275.750649 214.988786 
" style="fill:none;stroke:#1f77b4;stroke-width:1.5;"/>
    <path clip-path="url(#pa262358e48)" d="M 340.971429 140.404934 
L 362.711688 140.404934 
" style="fill:none;stroke:#1f77b4;stroke-width:1.5;"/>
   </g>
   <g id="patch_3">
    <path d="M 54 252 
L 54 34.56 
" style="fill:none;stroke:#000000;stroke-linecap:square;stroke-linejoin:miter;stroke-width:0.8;"/>
   </g>
   <g id="patch_4">
    <path d="M 388.8 252 
L 388.8 34.56 
" style="fill:none;stroke:#000000;stroke-linecap:square;stroke-linejoin:miter;stroke-width:0.8;"/>
   </g>
   <g id="patch_5">
    <path d="M 54 252 
L 388.8 252 
" style="fill:none;stroke:#000000;stroke-linecap:square;stroke-linejoin:miter;stroke-width:0.8;"/>
   </g>
   <g id="patch_6">
    <path d="M 54 34.56 
L 388.8 34.56 
" style="fill:none;stroke:#000000;stroke-linecap:square;stroke-linejoin:miter;stroke-width:0.8;"/>
   </g>
   <g id="text_13">
    <!-- Training times vs GPU (2469 samples, 99.73% CI) -->
    <defs>
     <path d="M 45.40625 27.984375 
Q 45.40625 37.75 41.375 43.109375 
Q 37.359375 48.484375 30.078125 48.484375 
Q 22.859375 48.484375 18.828125 43.109375 
Q 14.796875 37.75 14.796875 27.984375 
Q 14.796875 18.265625 18.828125 12.890625 
Q 22.859375 7.515625 30.078125 7.515625 
Q 37.359375 7.515625 41.375 12.890625 
Q 45.40625 18.265625 45.40625 27.984375 
z
M 54.390625 6.78125 
Q 54.390625 -7.171875 48.1875 -13.984375 
Q 42 -20.796875 29.203125 -20.796875 
Q 24.46875 -20.796875 20.265625 -20.09375 
Q 16.0625 -19.390625 12.109375 -17.921875 
L 12.109375 -9.1875 
Q 16.0625 -11.328125 19.921875 -12.34375 
Q 23.78125 -13.375 27.78125 -13.375 
Q 36.625 -13.375 41.015625 -8.765625 
Q 45.40625 -4.15625 45.40625 5.171875 
L 45.40625 9.625 
Q 42.625 4.78125 38.28125 2.390625 
Q 33.9375 0 27.875 0 
Q 17.828125 0 11.671875 7.65625 
Q 5.515625 15.328125 5.515625 27.984375 
Q 5.515625 40.671875 11.671875 48.328125 
Q 17.828125 56 27.875 56 
Q 33.9375 56 38.28125 53.609375 
Q 42.625 51.21875 45.40625 46.390625 
L 45.40625 54.6875 
L 54.390625 54.6875 
z
" id="DejaVuSans-103"/>
     <path d="M 2.984375 54.6875 
L 12.5 54.6875 
L 29.59375 8.796875 
L 46.6875 54.6875 
L 56.203125 54.6875 
L 35.6875 0 
L 23.484375 0 
z
" id="DejaVuSans-118"/>
     <path d="M 18.109375 8.203125 
L 18.109375 -20.796875 
L 9.078125 -20.796875 
L 9.078125 54.6875 
L 18.109375 54.6875 
L 18.109375 46.390625 
Q 20.953125 51.265625 25.265625 53.625 
Q 29.59375 56 35.59375 56 
Q 45.5625 56 51.78125 48.09375 
Q 58.015625 40.1875 58.015625 27.296875 
Q 58.015625 14.40625 51.78125 6.484375 
Q 45.5625 -1.421875 35.59375 -1.421875 
Q 29.59375 -1.421875 25.265625 0.953125 
Q 20.953125 3.328125 18.109375 8.203125 
z
M 48.6875 27.296875 
Q 48.6875 37.203125 44.609375 42.84375 
Q 40.53125 48.484375 33.40625 48.484375 
Q 26.265625 48.484375 22.1875 42.84375 
Q 18.109375 37.203125 18.109375 27.296875 
Q 18.109375 17.390625 22.1875 11.75 
Q 26.265625 6.109375 33.40625 6.109375 
Q 40.53125 6.109375 44.609375 11.75 
Q 48.6875 17.390625 48.6875 27.296875 
z
" id="DejaVuSans-112"/>
     <path d="M 11.71875 12.40625 
L 22.015625 12.40625 
L 22.015625 4 
L 14.015625 -11.625 
L 7.71875 -11.625 
L 11.71875 4 
z
" id="DejaVuSans-44"/>
     <path d="M 72.703125 32.078125 
Q 68.453125 32.078125 66.03125 28.46875 
Q 63.625 24.859375 63.625 18.40625 
Q 63.625 12.0625 66.03125 8.421875 
Q 68.453125 4.78125 72.703125 4.78125 
Q 76.859375 4.78125 79.265625 8.421875 
Q 81.6875 12.0625 81.6875 18.40625 
Q 81.6875 24.8125 79.265625 28.4375 
Q 76.859375 32.078125 72.703125 32.078125 
z
M 72.703125 38.28125 
Q 80.421875 38.28125 84.953125 32.90625 
Q 89.5 27.546875 89.5 18.40625 
Q 89.5 9.28125 84.9375 3.921875 
Q 80.375 -1.421875 72.703125 -1.421875 
Q 64.890625 -1.421875 60.34375 3.921875 
Q 55.8125 9.28125 55.8125 18.40625 
Q 55.8125 27.59375 60.375 32.9375 
Q 64.9375 38.28125 72.703125 38.28125 
z
M 22.3125 68.015625 
Q 18.109375 68.015625 15.6875 64.375 
Q 13.28125 60.75 13.28125 54.390625 
Q 13.28125 47.953125 15.671875 44.328125 
Q 18.0625 40.71875 22.3125 40.71875 
Q 26.5625 40.71875 28.96875 44.328125 
Q 31.390625 47.953125 31.390625 54.390625 
Q 31.390625 60.6875 28.953125 64.34375 
Q 26.515625 68.015625 22.3125 68.015625 
z
M 66.40625 74.21875 
L 74.21875 74.21875 
L 28.609375 -1.421875 
L 20.796875 -1.421875 
z
M 22.3125 74.21875 
Q 30.03125 74.21875 34.609375 68.875 
Q 39.203125 63.53125 39.203125 54.390625 
Q 39.203125 45.171875 34.640625 39.84375 
Q 30.078125 34.515625 22.3125 34.515625 
Q 14.546875 34.515625 10.03125 39.859375 
Q 5.515625 45.21875 5.515625 54.390625 
Q 5.515625 63.484375 10.046875 68.84375 
Q 14.59375 74.21875 22.3125 74.21875 
z
" id="DejaVuSans-37"/>
     <path d="M 64.40625 67.28125 
L 64.40625 56.890625 
Q 59.421875 61.53125 53.78125 63.8125 
Q 48.140625 66.109375 41.796875 66.109375 
Q 29.296875 66.109375 22.65625 58.46875 
Q 16.015625 50.828125 16.015625 36.375 
Q 16.015625 21.96875 22.65625 14.328125 
Q 29.296875 6.6875 41.796875 6.6875 
Q 48.140625 6.6875 53.78125 8.984375 
Q 59.421875 11.28125 64.40625 15.921875 
L 64.40625 5.609375 
Q 59.234375 2.09375 53.4375 0.328125 
Q 47.65625 -1.421875 41.21875 -1.421875 
Q 24.65625 -1.421875 15.125 8.703125 
Q 5.609375 18.84375 5.609375 36.375 
Q 5.609375 53.953125 15.125 64.078125 
Q 24.65625 74.21875 41.21875 74.21875 
Q 47.75 74.21875 53.53125 72.484375 
Q 59.328125 70.75 64.40625 67.28125 
z
" id="DejaVuSans-67"/>
     <path d="M 9.8125 72.90625 
L 19.671875 72.90625 
L 19.671875 0 
L 9.8125 0 
z
" id="DejaVuSans-73"/>
    </defs>
    <g transform="translate(71.856563 28.56)scale(0.12 -0.12)">
     <use xlink:href="#DejaVuSans-84"/>
     <use x="60.865234" xlink:href="#DejaVuSans-114"/>
     <use x="101.978516" xlink:href="#DejaVuSans-97"/>
     <use x="163.257812" xlink:href="#DejaVuSans-105"/>
     <use x="191.041016" xlink:href="#DejaVuSans-110"/>
     <use x="254.419922" xlink:href="#DejaVuSans-105"/>
     <use x="282.203125" xlink:href="#DejaVuSans-110"/>
     <use x="345.582031" xlink:href="#DejaVuSans-103"/>
     <use x="409.058594" xlink:href="#DejaVuSans-32"/>
     <use x="440.845703" xlink:href="#DejaVuSans-116"/>
     <use x="480.054688" xlink:href="#DejaVuSans-105"/>
     <use x="507.837891" xlink:href="#DejaVuSans-109"/>
     <use x="605.25" xlink:href="#DejaVuSans-101"/>
     <use x="666.773438" xlink:href="#DejaVuSans-115"/>
     <use x="718.873047" xlink:href="#DejaVuSans-32"/>
     <use x="750.660156" xlink:href="#DejaVuSans-118"/>
     <use x="809.839844" xlink:href="#DejaVuSans-115"/>
     <use x="861.939453" xlink:href="#DejaVuSans-32"/>
     <use x="893.726562" xlink:href="#DejaVuSans-71"/>
     <use x="971.216797" xlink:href="#DejaVuSans-80"/>
     <use x="1031.519531" xlink:href="#DejaVuSans-85"/>
     <use x="1104.712891" xlink:href="#DejaVuSans-32"/>
     <use x="1136.5" xlink:href="#DejaVuSans-40"/>
     <use x="1175.513672" xlink:href="#DejaVuSans-50"/>
     <use x="1239.136719" xlink:href="#DejaVuSans-52"/>
     <use x="1302.759766" xlink:href="#DejaVuSans-54"/>
     <use x="1366.382812" xlink:href="#DejaVuSans-57"/>
     <use x="1430.005859" xlink:href="#DejaVuSans-32"/>
     <use x="1461.792969" xlink:href="#DejaVuSans-115"/>
     <use x="1513.892578" xlink:href="#DejaVuSans-97"/>
     <use x="1575.171875" xlink:href="#DejaVuSans-109"/>
     <use x="1672.583984" xlink:href="#DejaVuSans-112"/>
     <use x="1736.060547" xlink:href="#DejaVuSans-108"/>
     <use x="1763.84375" xlink:href="#DejaVuSans-101"/>
     <use x="1825.367188" xlink:href="#DejaVuSans-115"/>
     <use x="1877.466797" xlink:href="#DejaVuSans-44"/>
     <use x="1909.253906" xlink:href="#DejaVuSans-32"/>
     <use x="1941.041016" xlink:href="#DejaVuSans-57"/>
     <use x="2004.664062" xlink:href="#DejaVuSans-57"/>
     <use x="2068.287109" xlink:href="#DejaVuSans-46"/>
     <use x="2100.074219" xlink:href="#DejaVuSans-55"/>
     <use x="2163.697266" xlink:href="#DejaVuSans-51"/>
     <use x="2227.320312" xlink:href="#DejaVuSans-37"/>
     <use x="2322.339844" xlink:href="#DejaVuSans-32"/>
     <use x="2354.126953" xlink:href="#DejaVuSans-67"/>
     <use x="2423.951172" xlink:href="#DejaVuSans-73"/>
     <use x="2453.443359" xlink:href="#DejaVuSans-41"/>
    </g>
   </g>
  </g>
 </g>
 <defs>
  <clipPath id="pa262358e48">
   <rect height="217.44" width="334.8" x="54" y="34.56"/>
  </clipPath>
 </defs>
</svg>
