<?xml version="1.0" encoding="utf-8" standalone="no"?>
<!DOCTYPE svg PUBLIC "-//W3C//DTD SVG 1.1//EN"
  "http://www.w3.org/Graphics/SVG/1.1/DTD/svg11.dtd">
<!-- Created with matplotlib (https://matplotlib.org/) -->
<svg height="1008pt" version="1.1" viewBox="0 0 1152 1008" width="1152pt" xmlns="http://www.w3.org/2000/svg" xmlns:xlink="http://www.w3.org/1999/xlink">
 <defs>
  <style type="text/css">
*{stroke-linecap:butt;stroke-linejoin:round;white-space:pre;}
  </style>
 </defs>
 <g id="figure_1">
  <g id="patch_1">
   <path d="M 0 1008 
L 1152 1008 
L 1152 0 
L 0 0 
z
" style="fill:#ffffff;"/>
  </g>
  <g id="axes_1">
   <g id="patch_2">
    <path d="M 144 882 
L 549.818182 882 
L 549.818182 120.96 
L 144 120.96 
z
" style="fill:#ffffff;"/>
   </g>
   <g id="PolyCollection_1">
    <path clip-path="url(#p739b8a397e)" d="M 216.129204 784.330704 
L 182.548482 784.330704 
L 182.239711 783.062137 
L 181.933215 781.793569 
L 181.628753 780.525002 
L 181.326051 779.256435 
L 181.024804 777.987867 
L 180.724679 776.7193 
L 180.425318 775.450732 
L 180.126342 774.182165 
L 179.827357 772.913598 
L 179.527952 771.64503 
L 179.227714 770.376463 
L 178.926221 769.107896 
L 178.623056 767.839328 
L 178.317806 766.570761 
L 178.01007 765.302194 
L 177.69946 764.033626 
L 177.385611 762.765059 
L 177.068183 761.496491 
L 176.746863 760.227924 
L 176.421374 758.959357 
L 176.091475 757.690789 
L 175.756969 756.422222 
L 175.417703 755.153655 
L 175.073573 753.885087 
L 174.724525 752.61652 
L 174.370561 751.347953 
L 174.01174 750.079385 
L 173.648177 748.810818 
L 173.280047 747.54225 
L 172.907586 746.273683 
L 172.531092 745.005116 
L 172.150922 743.736548 
L 171.767495 742.467981 
L 171.38129 741.199414 
L 170.992843 739.930846 
L 170.60275 738.662279 
L 170.211659 737.393711 
L 169.820274 736.125144 
L 169.429344 734.856577 
L 169.039669 733.588009 
L 168.652091 732.319442 
L 168.267488 731.050875 
L 167.886778 729.782307 
L 167.510907 728.51374 
L 167.140848 727.245173 
L 166.777594 725.976605 
L 166.422159 724.708038 
L 166.075563 723.43947 
L 165.738836 722.170903 
L 165.413009 720.902336 
L 165.099109 719.633768 
L 164.798153 718.365201 
L 164.511145 717.096634 
L 164.23907 715.828066 
L 163.982889 714.559499 
L 163.743533 713.290931 
L 163.521902 712.022364 
L 163.318855 710.753797 
L 163.135213 709.485229 
L 162.971748 708.216662 
L 162.829185 706.948095 
L 162.708195 705.679527 
L 162.609392 704.41096 
L 162.533335 703.142393 
L 162.480519 701.873825 
L 162.451378 700.605258 
L 162.446281 699.33669 
L 162.465531 698.068123 
L 162.509365 696.799556 
L 162.577951 695.530988 
L 162.671392 694.262421 
L 162.789721 692.993854 
L 162.932905 691.725286 
L 163.100845 690.456719 
L 163.293376 689.188151 
L 163.510269 687.919584 
L 163.751232 686.651017 
L 164.015913 685.382449 
L 164.303901 684.113882 
L 164.61473 682.845315 
L 164.947877 681.576747 
L 165.302771 680.30818 
L 165.67879 679.039613 
L 166.075267 677.771045 
L 166.491493 676.502478 
L 166.926719 675.23391 
L 167.380156 673.965343 
L 167.850987 672.696776 
L 168.338361 671.428208 
L 168.841401 670.159641 
L 169.359204 668.891074 
L 169.890848 667.622506 
L 170.435393 666.353939 
L 170.991883 665.085371 
L 171.559351 663.816804 
L 172.13682 662.548237 
L 172.723308 661.279669 
L 173.317827 660.011102 
L 173.919392 658.742535 
L 224.758293 658.742535 
L 224.758293 658.742535 
L 225.359859 660.011102 
L 225.954378 661.279669 
L 226.540866 662.548237 
L 227.118335 663.816804 
L 227.685803 665.085371 
L 228.242293 666.353939 
L 228.786838 667.622506 
L 229.318482 668.891074 
L 229.836285 670.159641 
L 230.339325 671.428208 
L 230.826699 672.696776 
L 231.29753 673.965343 
L 231.750967 675.23391 
L 232.186192 676.502478 
L 232.602418 677.771045 
L 232.998896 679.039613 
L 233.374915 680.30818 
L 233.729809 681.576747 
L 234.062956 682.845315 
L 234.373785 684.113882 
L 234.661773 685.382449 
L 234.926454 686.651017 
L 235.167417 687.919584 
L 235.38431 689.188151 
L 235.576841 690.456719 
L 235.744781 691.725286 
L 235.887965 692.993854 
L 236.006294 694.262421 
L 236.099735 695.530988 
L 236.168321 696.799556 
L 236.212155 698.068123 
L 236.231405 699.33669 
L 236.226308 700.605258 
L 236.197167 701.873825 
L 236.144351 703.142393 
L 236.068294 704.41096 
L 235.969491 705.679527 
L 235.848501 706.948095 
L 235.705938 708.216662 
L 235.542473 709.485229 
L 235.358831 710.753797 
L 235.155784 712.022364 
L 234.934153 713.290931 
L 234.694797 714.559499 
L 234.438616 715.828066 
L 234.166541 717.096634 
L 233.879533 718.365201 
L 233.578577 719.633768 
L 233.264677 720.902336 
L 232.93885 722.170903 
L 232.602123 723.43947 
L 232.255527 724.708038 
L 231.900091 725.976605 
L 231.536838 727.245173 
L 231.166779 728.51374 
L 230.790908 729.782307 
L 230.410198 731.050875 
L 230.025595 732.319442 
L 229.638017 733.588009 
L 229.248342 734.856577 
L 228.857412 736.125144 
L 228.466026 737.393711 
L 228.074936 738.662279 
L 227.684843 739.930846 
L 227.296396 741.199414 
L 226.910191 742.467981 
L 226.526764 743.736548 
L 226.146594 745.005116 
L 225.7701 746.273683 
L 225.397639 747.54225 
L 225.029509 748.810818 
L 224.665946 750.079385 
L 224.307125 751.347953 
L 223.953161 752.61652 
L 223.604113 753.885087 
L 223.259983 755.153655 
L 222.920717 756.422222 
L 222.586211 757.690789 
L 222.256312 758.959357 
L 221.930823 760.227924 
L 221.609503 761.496491 
L 221.292075 762.765059 
L 220.978226 764.033626 
L 220.667616 765.302194 
L 220.359879 766.570761 
L 220.054629 767.839328 
L 219.751465 769.107896 
L 219.449972 770.376463 
L 219.149734 771.64503 
L 218.850329 772.913598 
L 218.551344 774.182165 
L 218.252368 775.450732 
L 217.953007 776.7193 
L 217.652882 777.987867 
L 217.351635 779.256435 
L 217.048933 780.525002 
L 216.744471 781.793569 
L 216.437974 783.062137 
L 216.129204 784.330704 
z
" style="fill:#1f77b4;fill-opacity:0.3;"/>
   </g>
   <g id="PolyCollection_2">
    <path clip-path="url(#p739b8a397e)" d="M 368.232271 434.480723 
L 325.585911 434.480723 
L 325.251006 431.663268 
L 324.919184 428.845814 
L 324.590395 426.028359 
L 324.264571 423.210905 
L 323.941632 420.39345 
L 323.621483 417.575996 
L 323.304021 414.758541 
L 322.989128 411.941087 
L 322.676685 409.123632 
L 322.366561 406.306178 
L 322.058626 403.488723 
L 321.752745 400.671269 
L 321.448786 397.853814 
L 321.146617 395.03636 
L 320.846113 392.218905 
L 320.547152 389.401451 
L 320.249623 386.583996 
L 319.953426 383.766542 
L 319.65847 380.949087 
L 319.36468 378.131633 
L 319.071997 375.314178 
L 318.780378 372.496724 
L 318.489799 369.679269 
L 318.200257 366.861815 
L 317.911768 364.04436 
L 317.624371 361.226906 
L 317.338128 358.409451 
L 317.053125 355.591997 
L 316.76947 352.774542 
L 316.487299 349.957088 
L 316.206768 347.139633 
L 315.928062 344.322179 
L 315.651389 341.504724 
L 315.376978 338.68727 
L 315.105086 335.869815 
L 314.83599 333.052361 
L 314.56999 330.234906 
L 314.307408 327.417452 
L 314.048586 324.599997 
L 313.793882 321.782543 
L 313.543675 318.965088 
L 313.298359 316.147634 
L 313.058342 313.330179 
L 312.824046 310.512725 
L 312.595903 307.69527 
L 312.374355 304.877816 
L 312.159854 302.060361 
L 311.952856 299.242907 
L 311.75382 296.425452 
L 311.56321 293.607998 
L 311.381489 290.790543 
L 311.20912 287.973089 
L 311.046561 285.155634 
L 310.894267 282.33818 
L 310.752685 279.520725 
L 310.622254 276.703271 
L 310.503404 273.885816 
L 310.396553 271.068362 
L 310.302104 268.250907 
L 310.220448 265.433453 
L 310.151959 262.615998 
L 310.096995 259.798544 
L 310.055892 256.981089 
L 310.028971 254.163635 
L 310.016529 251.34618 
L 310.018843 248.528726 
L 310.036166 245.711271 
L 310.068728 242.893817 
L 310.116737 240.076362 
L 310.180372 237.258908 
L 310.259791 234.441453 
L 310.355122 231.623999 
L 310.466469 228.806544 
L 310.593908 225.98909 
L 310.737489 223.171635 
L 310.897235 220.354181 
L 311.073138 217.536726 
L 311.265167 214.719272 
L 311.473259 211.901817 
L 311.697327 209.084363 
L 311.937255 206.266908 
L 312.192897 203.449454 
L 312.464083 200.631999 
L 312.750614 197.814545 
L 313.052265 194.99709 
L 313.368785 192.179636 
L 313.699895 189.362181 
L 314.045292 186.544727 
L 314.404647 183.727272 
L 314.777606 180.909818 
L 315.163794 178.092363 
L 315.562808 175.274909 
L 315.974226 172.457454 
L 316.397602 169.64 
L 316.832472 166.822545 
L 317.278348 164.005091 
L 317.734727 161.187636 
L 318.201084 158.370182 
L 318.67688 155.552727 
L 375.141301 155.552727 
L 375.141301 155.552727 
L 375.617098 158.370182 
L 376.083455 161.187636 
L 376.539834 164.005091 
L 376.98571 166.822545 
L 377.42058 169.64 
L 377.843956 172.457454 
L 378.255374 175.274909 
L 378.654388 178.092363 
L 379.040575 180.909818 
L 379.413535 183.727272 
L 379.77289 186.544727 
L 380.118287 189.362181 
L 380.449397 192.179636 
L 380.765917 194.99709 
L 381.067568 197.814545 
L 381.354099 200.631999 
L 381.625285 203.449454 
L 381.880927 206.266908 
L 382.120854 209.084363 
L 382.344922 211.901817 
L 382.553015 214.719272 
L 382.745044 217.536726 
L 382.920947 220.354181 
L 383.080692 223.171635 
L 383.224274 225.98909 
L 383.351713 228.806544 
L 383.46306 231.623999 
L 383.558391 234.441453 
L 383.63781 237.258908 
L 383.701445 240.076362 
L 383.749454 242.893817 
L 383.782016 245.711271 
L 383.799339 248.528726 
L 383.801653 251.34618 
L 383.789211 254.163635 
L 383.76229 256.981089 
L 383.721187 259.798544 
L 383.666222 262.615998 
L 383.597734 265.433453 
L 383.516078 268.250907 
L 383.421629 271.068362 
L 383.314777 273.885816 
L 383.195927 276.703271 
L 383.065497 279.520725 
L 382.923915 282.33818 
L 382.77162 285.155634 
L 382.609062 287.973089 
L 382.436692 290.790543 
L 382.254972 293.607998 
L 382.064362 296.425452 
L 381.865326 299.242907 
L 381.658327 302.060361 
L 381.443826 304.877816 
L 381.222279 307.69527 
L 380.994136 310.512725 
L 380.75984 313.330179 
L 380.519823 316.147634 
L 380.274507 318.965088 
L 380.0243 321.782543 
L 379.769596 324.599997 
L 379.510773 327.417452 
L 379.248192 330.234906 
L 378.982192 333.052361 
L 378.713096 335.869815 
L 378.441204 338.68727 
L 378.166793 341.504724 
L 377.890119 344.322179 
L 377.611414 347.139633 
L 377.330883 349.957088 
L 377.048712 352.774542 
L 376.765057 355.591997 
L 376.480054 358.409451 
L 376.193811 361.226906 
L 375.906414 364.04436 
L 375.617925 366.861815 
L 375.328382 369.679269 
L 375.037804 372.496724 
L 374.746185 375.314178 
L 374.453502 378.131633 
L 374.159712 380.949087 
L 373.864756 383.766542 
L 373.568559 386.583996 
L 373.27103 389.401451 
L 372.972069 392.218905 
L 372.671565 395.03636 
L 372.369396 397.853814 
L 372.065437 400.671269 
L 371.759556 403.488723 
L 371.451621 406.306178 
L 371.141497 409.123632 
L 370.829053 411.941087 
L 370.514161 414.758541 
L 370.196698 417.575996 
L 369.87655 420.39345 
L 369.553611 423.210905 
L 369.227787 426.028359 
L 368.898998 428.845814 
L 368.567176 431.663268 
L 368.232271 434.480723 
z
" style="fill:#1f77b4;fill-opacity:0.3;"/>
   </g>
   <g id="PolyCollection_3">
    <path clip-path="url(#p739b8a397e)" d="M 517.174802 847.407273 
L 471.783876 847.407273 
L 471.38324 847.289975 
L 470.985117 847.172676 
L 470.589585 847.055378 
L 470.196719 846.93808 
L 469.806585 846.820782 
L 469.41925 846.703483 
L 469.034777 846.586185 
L 468.65323 846.468887 
L 468.274675 846.351589 
L 467.899182 846.23429 
L 467.526826 846.116992 
L 467.15769 845.999694 
L 466.791866 845.882396 
L 466.429455 845.765098 
L 466.070571 845.647799 
L 465.715341 845.530501 
L 465.363906 845.413203 
L 465.016423 845.295905 
L 464.673064 845.178606 
L 464.334021 845.061308 
L 463.999499 844.94401 
L 463.669724 844.826712 
L 463.344939 844.709414 
L 463.025405 844.592115 
L 462.7114 844.474817 
L 462.40322 844.357519 
L 462.101175 844.240221 
L 461.805592 844.122922 
L 461.516813 844.005624 
L 461.235192 843.888326 
L 460.961094 843.771028 
L 460.694894 843.65373 
L 460.436976 843.536431 
L 460.187728 843.419133 
L 459.947544 843.301835 
L 459.71682 843.184537 
L 459.495951 843.067238 
L 459.28533 842.94994 
L 459.085345 842.832642 
L 458.896377 842.715344 
L 458.718799 842.598046 
L 458.552971 842.480747 
L 458.39924 842.363449 
L 458.257938 842.246151 
L 458.129378 842.128853 
L 458.013857 842.011554 
L 457.911646 841.894256 
L 457.822997 841.776958 
L 457.748137 841.65966 
L 457.687267 841.542362 
L 457.640562 841.425063 
L 457.60817 841.307765 
L 457.590211 841.190467 
L 457.586777 841.073169 
L 457.597932 840.95587 
L 457.62371 840.838572 
L 457.664119 840.721274 
L 457.719136 840.603976 
L 457.788714 840.486678 
L 457.872778 840.369379 
L 457.971225 840.252081 
L 458.083931 840.134783 
L 458.210746 840.017485 
L 458.351499 839.900186 
L 458.505998 839.782888 
L 458.674032 839.66559 
L 458.85537 839.548292 
L 459.04977 839.430994 
L 459.25697 839.313695 
L 459.476699 839.196397 
L 459.708672 839.079099 
L 459.952599 838.961801 
L 460.208177 838.844502 
L 460.475101 838.727204 
L 460.753057 838.609906 
L 461.041732 838.492608 
L 461.340807 838.37531 
L 461.649964 838.258011 
L 461.968885 838.140713 
L 462.297252 838.023415 
L 462.634749 837.906117 
L 462.981062 837.788818 
L 463.335882 837.67152 
L 463.6989 837.554222 
L 464.069813 837.436924 
L 464.448321 837.319626 
L 464.834126 837.202327 
L 465.226935 837.085029 
L 465.626459 836.967731 
L 466.032409 836.850433 
L 466.444501 836.733134 
L 466.862452 836.615836 
L 467.28598 836.498538 
L 467.714804 836.38124 
L 468.148642 836.263942 
L 468.587212 836.146643 
L 469.030231 836.029345 
L 469.477413 835.912047 
L 469.928469 835.794749 
L 519.030208 835.794749 
L 519.030208 835.794749 
L 519.481265 835.912047 
L 519.928447 836.029345 
L 520.371466 836.146643 
L 520.810036 836.263942 
L 521.243874 836.38124 
L 521.672697 836.498538 
L 522.096225 836.615836 
L 522.514176 836.733134 
L 522.926268 836.850433 
L 523.332219 836.967731 
L 523.731743 837.085029 
L 524.124552 837.202327 
L 524.510357 837.319626 
L 524.888864 837.436924 
L 525.259777 837.554222 
L 525.622796 837.67152 
L 525.977615 837.788818 
L 526.323929 837.906117 
L 526.661426 838.023415 
L 526.989793 838.140713 
L 527.308713 838.258011 
L 527.61787 838.37531 
L 527.916946 838.492608 
L 528.20562 838.609906 
L 528.483577 838.727204 
L 528.7505 838.844502 
L 529.006079 838.961801 
L 529.250005 839.079099 
L 529.481979 839.196397 
L 529.701708 839.313695 
L 529.908908 839.430994 
L 530.103307 839.548292 
L 530.284646 839.66559 
L 530.45268 839.782888 
L 530.607179 839.900186 
L 530.747932 840.017485 
L 530.874747 840.134783 
L 530.987453 840.252081 
L 531.0859 840.369379 
L 531.169963 840.486678 
L 531.239541 840.603976 
L 531.294559 840.721274 
L 531.334968 840.838572 
L 531.360746 840.95587 
L 531.371901 841.073169 
L 531.368467 841.190467 
L 531.350508 841.307765 
L 531.318116 841.425063 
L 531.271411 841.542362 
L 531.210541 841.65966 
L 531.13568 841.776958 
L 531.047032 841.894256 
L 530.944821 842.011554 
L 530.829299 842.128853 
L 530.70074 842.246151 
L 530.559438 842.363449 
L 530.405707 842.480747 
L 530.239879 842.598046 
L 530.0623 842.715344 
L 529.873333 842.832642 
L 529.673348 842.94994 
L 529.462726 843.067238 
L 529.241858 843.184537 
L 529.011134 843.301835 
L 528.77095 843.419133 
L 528.521702 843.536431 
L 528.263784 843.65373 
L 527.997584 843.771028 
L 527.723485 843.888326 
L 527.441864 844.005624 
L 527.153085 844.122922 
L 526.857503 844.240221 
L 526.555458 844.357519 
L 526.247277 844.474817 
L 525.933272 844.592115 
L 525.613738 844.709414 
L 525.288954 844.826712 
L 524.959179 844.94401 
L 524.624657 845.061308 
L 524.285613 845.178606 
L 523.942255 845.295905 
L 523.594772 845.413203 
L 523.243337 845.530501 
L 522.888107 845.647799 
L 522.529223 845.765098 
L 522.166812 845.882396 
L 521.800988 845.999694 
L 521.431852 846.116992 
L 521.059496 846.23429 
L 520.684003 846.351589 
L 520.305448 846.468887 
L 519.923901 846.586185 
L 519.539428 846.703483 
L 519.152092 846.820782 
L 518.761959 846.93808 
L 518.369092 847.055378 
L 517.973561 847.172676 
L 517.575438 847.289975 
L 517.174802 847.407273 
z
" style="fill:#1f77b4;fill-opacity:0.3;"/>
   </g>
   <g id="matplotlib.axis_1">
    <g id="xtick_1">
     <g id="line2d_1">
      <defs>
       <path d="M 0 0 
L 0 3.5 
" id="mddd17462aa" style="stroke:#000000;stroke-width:0.8;"/>
      </defs>
      <g>
       <use style="stroke:#000000;stroke-width:0.8;" x="199.338843" xlink:href="#mddd17462aa" y="882"/>
      </g>
     </g>
     <g id="text_1">
      <!-- GTX 970 &amp; 1070Ti -->
      <defs>
       <path d="M 59.515625 10.40625 
L 59.515625 29.984375 
L 43.40625 29.984375 
L 43.40625 38.09375 
L 69.28125 38.09375 
L 69.28125 6.78125 
Q 63.578125 2.734375 56.6875 0.65625 
Q 49.8125 -1.421875 42 -1.421875 
Q 24.90625 -1.421875 15.25 8.5625 
Q 5.609375 18.5625 5.609375 36.375 
Q 5.609375 54.25 15.25 64.234375 
Q 24.90625 74.21875 42 74.21875 
Q 49.125 74.21875 55.546875 72.453125 
Q 61.96875 70.703125 67.390625 67.28125 
L 67.390625 56.78125 
Q 61.921875 61.421875 55.765625 63.765625 
Q 49.609375 66.109375 42.828125 66.109375 
Q 29.4375 66.109375 22.71875 58.640625 
Q 16.015625 51.171875 16.015625 36.375 
Q 16.015625 21.625 22.71875 14.15625 
Q 29.4375 6.6875 42.828125 6.6875 
Q 48.046875 6.6875 52.140625 7.59375 
Q 56.25 8.5 59.515625 10.40625 
z
" id="DejaVuSans-71"/>
       <path d="M -0.296875 72.90625 
L 61.375 72.90625 
L 61.375 64.59375 
L 35.5 64.59375 
L 35.5 0 
L 25.59375 0 
L 25.59375 64.59375 
L -0.296875 64.59375 
z
" id="DejaVuSans-84"/>
       <path d="M 6.296875 72.90625 
L 16.890625 72.90625 
L 35.015625 45.796875 
L 53.21875 72.90625 
L 63.8125 72.90625 
L 40.375 37.890625 
L 65.375 0 
L 54.78125 0 
L 34.28125 31 
L 13.625 0 
L 2.984375 0 
L 29 38.921875 
z
" id="DejaVuSans-88"/>
       <path id="DejaVuSans-32"/>
       <path d="M 10.984375 1.515625 
L 10.984375 10.5 
Q 14.703125 8.734375 18.5 7.8125 
Q 22.3125 6.890625 25.984375 6.890625 
Q 35.75 6.890625 40.890625 13.453125 
Q 46.046875 20.015625 46.78125 33.40625 
Q 43.953125 29.203125 39.59375 26.953125 
Q 35.25 24.703125 29.984375 24.703125 
Q 19.046875 24.703125 12.671875 31.3125 
Q 6.296875 37.9375 6.296875 49.421875 
Q 6.296875 60.640625 12.9375 67.421875 
Q 19.578125 74.21875 30.609375 74.21875 
Q 43.265625 74.21875 49.921875 64.515625 
Q 56.59375 54.828125 56.59375 36.375 
Q 56.59375 19.140625 48.40625 8.859375 
Q 40.234375 -1.421875 26.421875 -1.421875 
Q 22.703125 -1.421875 18.890625 -0.6875 
Q 15.09375 0.046875 10.984375 1.515625 
z
M 30.609375 32.421875 
Q 37.25 32.421875 41.125 36.953125 
Q 45.015625 41.5 45.015625 49.421875 
Q 45.015625 57.28125 41.125 61.84375 
Q 37.25 66.40625 30.609375 66.40625 
Q 23.96875 66.40625 20.09375 61.84375 
Q 16.21875 57.28125 16.21875 49.421875 
Q 16.21875 41.5 20.09375 36.953125 
Q 23.96875 32.421875 30.609375 32.421875 
z
" id="DejaVuSans-57"/>
       <path d="M 8.203125 72.90625 
L 55.078125 72.90625 
L 55.078125 68.703125 
L 28.609375 0 
L 18.3125 0 
L 43.21875 64.59375 
L 8.203125 64.59375 
z
" id="DejaVuSans-55"/>
       <path d="M 31.78125 66.40625 
Q 24.171875 66.40625 20.328125 58.90625 
Q 16.5 51.421875 16.5 36.375 
Q 16.5 21.390625 20.328125 13.890625 
Q 24.171875 6.390625 31.78125 6.390625 
Q 39.453125 6.390625 43.28125 13.890625 
Q 47.125 21.390625 47.125 36.375 
Q 47.125 51.421875 43.28125 58.90625 
Q 39.453125 66.40625 31.78125 66.40625 
z
M 31.78125 74.21875 
Q 44.046875 74.21875 50.515625 64.515625 
Q 56.984375 54.828125 56.984375 36.375 
Q 56.984375 17.96875 50.515625 8.265625 
Q 44.046875 -1.421875 31.78125 -1.421875 
Q 19.53125 -1.421875 13.0625 8.265625 
Q 6.59375 17.96875 6.59375 36.375 
Q 6.59375 54.828125 13.0625 64.515625 
Q 19.53125 74.21875 31.78125 74.21875 
z
" id="DejaVuSans-48"/>
       <path d="M 24.3125 39.203125 
Q 19.875 35.25 17.796875 31.3125 
Q 15.71875 27.390625 15.71875 23.09375 
Q 15.71875 15.96875 20.890625 11.234375 
Q 26.078125 6.5 33.890625 6.5 
Q 38.53125 6.5 42.578125 8.03125 
Q 46.625 9.578125 50.203125 12.703125 
z
M 31.203125 44.671875 
L 56 19.28125 
Q 58.890625 23.640625 60.5 28.59375 
Q 62.109375 33.546875 62.40625 39.109375 
L 71.484375 39.109375 
Q 70.90625 32.671875 68.359375 26.359375 
Q 65.828125 20.0625 61.28125 13.921875 
L 74.90625 0 
L 62.59375 0 
L 55.609375 7.171875 
Q 50.53125 2.828125 44.96875 0.703125 
Q 39.40625 -1.421875 33.015625 -1.421875 
Q 21.234375 -1.421875 13.765625 5.296875 
Q 6.296875 12.015625 6.296875 22.515625 
Q 6.296875 28.765625 9.5625 34.25 
Q 12.84375 39.75 19.390625 44.578125 
Q 17.046875 47.65625 15.8125 50.703125 
Q 14.59375 53.765625 14.59375 56.6875 
Q 14.59375 64.59375 20.015625 69.40625 
Q 25.4375 74.21875 34.421875 74.21875 
Q 38.484375 74.21875 42.5 73.34375 
Q 46.53125 72.46875 50.6875 70.703125 
L 50.6875 61.8125 
Q 46.4375 64.109375 42.578125 65.296875 
Q 38.71875 66.5 35.40625 66.5 
Q 30.28125 66.5 27.078125 63.78125 
Q 23.875 61.078125 23.875 56.78125 
Q 23.875 54.296875 25.3125 51.78125 
Q 26.765625 49.265625 31.203125 44.671875 
z
" id="DejaVuSans-38"/>
       <path d="M 12.40625 8.296875 
L 28.515625 8.296875 
L 28.515625 63.921875 
L 10.984375 60.40625 
L 10.984375 69.390625 
L 28.421875 72.90625 
L 38.28125 72.90625 
L 38.28125 8.296875 
L 54.390625 8.296875 
L 54.390625 0 
L 12.40625 0 
z
" id="DejaVuSans-49"/>
       <path d="M 9.421875 54.6875 
L 18.40625 54.6875 
L 18.40625 0 
L 9.421875 0 
z
M 9.421875 75.984375 
L 18.40625 75.984375 
L 18.40625 64.59375 
L 9.421875 64.59375 
z
" id="DejaVuSans-105"/>
      </defs>
      <g transform="translate(153.61228 896.598438)scale(0.1 -0.1)">
       <use xlink:href="#DejaVuSans-71"/>
       <use x="77.443359" xlink:href="#DejaVuSans-84"/>
       <use x="138.527344" xlink:href="#DejaVuSans-88"/>
       <use x="207.033203" xlink:href="#DejaVuSans-32"/>
       <use x="238.820312" xlink:href="#DejaVuSans-57"/>
       <use x="302.443359" xlink:href="#DejaVuSans-55"/>
       <use x="366.066406" xlink:href="#DejaVuSans-48"/>
       <use x="429.689453" xlink:href="#DejaVuSans-32"/>
       <use x="461.476562" xlink:href="#DejaVuSans-38"/>
       <use x="539.455078" xlink:href="#DejaVuSans-32"/>
       <use x="571.242188" xlink:href="#DejaVuSans-49"/>
       <use x="634.865234" xlink:href="#DejaVuSans-48"/>
       <use x="698.488281" xlink:href="#DejaVuSans-55"/>
       <use x="762.111328" xlink:href="#DejaVuSans-48"/>
       <use x="825.734375" xlink:href="#DejaVuSans-84"/>
       <use x="886.771484" xlink:href="#DejaVuSans-105"/>
      </g>
      <!-- (2.29 mins/model) -->
      <defs>
       <path d="M 31 75.875 
Q 24.46875 64.65625 21.28125 53.65625 
Q 18.109375 42.671875 18.109375 31.390625 
Q 18.109375 20.125 21.3125 9.0625 
Q 24.515625 -2 31 -13.1875 
L 23.1875 -13.1875 
Q 15.875 -1.703125 12.234375 9.375 
Q 8.59375 20.453125 8.59375 31.390625 
Q 8.59375 42.28125 12.203125 53.3125 
Q 15.828125 64.359375 23.1875 75.875 
z
" id="DejaVuSans-40"/>
       <path d="M 19.1875 8.296875 
L 53.609375 8.296875 
L 53.609375 0 
L 7.328125 0 
L 7.328125 8.296875 
Q 12.9375 14.109375 22.625 23.890625 
Q 32.328125 33.6875 34.8125 36.53125 
Q 39.546875 41.84375 41.421875 45.53125 
Q 43.3125 49.21875 43.3125 52.78125 
Q 43.3125 58.59375 39.234375 62.25 
Q 35.15625 65.921875 28.609375 65.921875 
Q 23.96875 65.921875 18.8125 64.3125 
Q 13.671875 62.703125 7.8125 59.421875 
L 7.8125 69.390625 
Q 13.765625 71.78125 18.9375 73 
Q 24.125 74.21875 28.421875 74.21875 
Q 39.75 74.21875 46.484375 68.546875 
Q 53.21875 62.890625 53.21875 53.421875 
Q 53.21875 48.921875 51.53125 44.890625 
Q 49.859375 40.875 45.40625 35.40625 
Q 44.1875 33.984375 37.640625 27.21875 
Q 31.109375 20.453125 19.1875 8.296875 
z
" id="DejaVuSans-50"/>
       <path d="M 10.6875 12.40625 
L 21 12.40625 
L 21 0 
L 10.6875 0 
z
" id="DejaVuSans-46"/>
       <path d="M 52 44.1875 
Q 55.375 50.25 60.0625 53.125 
Q 64.75 56 71.09375 56 
Q 79.640625 56 84.28125 50.015625 
Q 88.921875 44.046875 88.921875 33.015625 
L 88.921875 0 
L 79.890625 0 
L 79.890625 32.71875 
Q 79.890625 40.578125 77.09375 44.375 
Q 74.3125 48.1875 68.609375 48.1875 
Q 61.625 48.1875 57.5625 43.546875 
Q 53.515625 38.921875 53.515625 30.90625 
L 53.515625 0 
L 44.484375 0 
L 44.484375 32.71875 
Q 44.484375 40.625 41.703125 44.40625 
Q 38.921875 48.1875 33.109375 48.1875 
Q 26.21875 48.1875 22.15625 43.53125 
Q 18.109375 38.875 18.109375 30.90625 
L 18.109375 0 
L 9.078125 0 
L 9.078125 54.6875 
L 18.109375 54.6875 
L 18.109375 46.1875 
Q 21.1875 51.21875 25.484375 53.609375 
Q 29.78125 56 35.6875 56 
Q 41.65625 56 45.828125 52.96875 
Q 50 49.953125 52 44.1875 
z
" id="DejaVuSans-109"/>
       <path d="M 54.890625 33.015625 
L 54.890625 0 
L 45.90625 0 
L 45.90625 32.71875 
Q 45.90625 40.484375 42.875 44.328125 
Q 39.84375 48.1875 33.796875 48.1875 
Q 26.515625 48.1875 22.3125 43.546875 
Q 18.109375 38.921875 18.109375 30.90625 
L 18.109375 0 
L 9.078125 0 
L 9.078125 54.6875 
L 18.109375 54.6875 
L 18.109375 46.1875 
Q 21.34375 51.125 25.703125 53.5625 
Q 30.078125 56 35.796875 56 
Q 45.21875 56 50.046875 50.171875 
Q 54.890625 44.34375 54.890625 33.015625 
z
" id="DejaVuSans-110"/>
       <path d="M 44.28125 53.078125 
L 44.28125 44.578125 
Q 40.484375 46.53125 36.375 47.5 
Q 32.28125 48.484375 27.875 48.484375 
Q 21.1875 48.484375 17.84375 46.4375 
Q 14.5 44.390625 14.5 40.28125 
Q 14.5 37.15625 16.890625 35.375 
Q 19.28125 33.59375 26.515625 31.984375 
L 29.59375 31.296875 
Q 39.15625 29.25 43.1875 25.515625 
Q 47.21875 21.78125 47.21875 15.09375 
Q 47.21875 7.46875 41.1875 3.015625 
Q 35.15625 -1.421875 24.609375 -1.421875 
Q 20.21875 -1.421875 15.453125 -0.5625 
Q 10.6875 0.296875 5.421875 2 
L 5.421875 11.28125 
Q 10.40625 8.6875 15.234375 7.390625 
Q 20.0625 6.109375 24.8125 6.109375 
Q 31.15625 6.109375 34.5625 8.28125 
Q 37.984375 10.453125 37.984375 14.40625 
Q 37.984375 18.0625 35.515625 20.015625 
Q 33.0625 21.96875 24.703125 23.78125 
L 21.578125 24.515625 
Q 13.234375 26.265625 9.515625 29.90625 
Q 5.8125 33.546875 5.8125 39.890625 
Q 5.8125 47.609375 11.28125 51.796875 
Q 16.75 56 26.8125 56 
Q 31.78125 56 36.171875 55.265625 
Q 40.578125 54.546875 44.28125 53.078125 
z
" id="DejaVuSans-115"/>
       <path d="M 25.390625 72.90625 
L 33.6875 72.90625 
L 8.296875 -9.28125 
L 0 -9.28125 
z
" id="DejaVuSans-47"/>
       <path d="M 30.609375 48.390625 
Q 23.390625 48.390625 19.1875 42.75 
Q 14.984375 37.109375 14.984375 27.296875 
Q 14.984375 17.484375 19.15625 11.84375 
Q 23.34375 6.203125 30.609375 6.203125 
Q 37.796875 6.203125 41.984375 11.859375 
Q 46.1875 17.53125 46.1875 27.296875 
Q 46.1875 37.015625 41.984375 42.703125 
Q 37.796875 48.390625 30.609375 48.390625 
z
M 30.609375 56 
Q 42.328125 56 49.015625 48.375 
Q 55.71875 40.765625 55.71875 27.296875 
Q 55.71875 13.875 49.015625 6.21875 
Q 42.328125 -1.421875 30.609375 -1.421875 
Q 18.84375 -1.421875 12.171875 6.21875 
Q 5.515625 13.875 5.515625 27.296875 
Q 5.515625 40.765625 12.171875 48.375 
Q 18.84375 56 30.609375 56 
z
" id="DejaVuSans-111"/>
       <path d="M 45.40625 46.390625 
L 45.40625 75.984375 
L 54.390625 75.984375 
L 54.390625 0 
L 45.40625 0 
L 45.40625 8.203125 
Q 42.578125 3.328125 38.25 0.953125 
Q 33.9375 -1.421875 27.875 -1.421875 
Q 17.96875 -1.421875 11.734375 6.484375 
Q 5.515625 14.40625 5.515625 27.296875 
Q 5.515625 40.1875 11.734375 48.09375 
Q 17.96875 56 27.875 56 
Q 33.9375 56 38.25 53.625 
Q 42.578125 51.265625 45.40625 46.390625 
z
M 14.796875 27.296875 
Q 14.796875 17.390625 18.875 11.75 
Q 22.953125 6.109375 30.078125 6.109375 
Q 37.203125 6.109375 41.296875 11.75 
Q 45.40625 17.390625 45.40625 27.296875 
Q 45.40625 37.203125 41.296875 42.84375 
Q 37.203125 48.484375 30.078125 48.484375 
Q 22.953125 48.484375 18.875 42.84375 
Q 14.796875 37.203125 14.796875 27.296875 
z
" id="DejaVuSans-100"/>
       <path d="M 56.203125 29.59375 
L 56.203125 25.203125 
L 14.890625 25.203125 
Q 15.484375 15.921875 20.484375 11.0625 
Q 25.484375 6.203125 34.421875 6.203125 
Q 39.59375 6.203125 44.453125 7.46875 
Q 49.3125 8.734375 54.109375 11.28125 
L 54.109375 2.78125 
Q 49.265625 0.734375 44.1875 -0.34375 
Q 39.109375 -1.421875 33.890625 -1.421875 
Q 20.796875 -1.421875 13.15625 6.1875 
Q 5.515625 13.8125 5.515625 26.8125 
Q 5.515625 40.234375 12.765625 48.109375 
Q 20.015625 56 32.328125 56 
Q 43.359375 56 49.78125 48.890625 
Q 56.203125 41.796875 56.203125 29.59375 
z
M 47.21875 32.234375 
Q 47.125 39.59375 43.09375 43.984375 
Q 39.0625 48.390625 32.421875 48.390625 
Q 24.90625 48.390625 20.390625 44.140625 
Q 15.875 39.890625 15.1875 32.171875 
z
" id="DejaVuSans-101"/>
       <path d="M 9.421875 75.984375 
L 18.40625 75.984375 
L 18.40625 0 
L 9.421875 0 
z
" id="DejaVuSans-108"/>
       <path d="M 8.015625 75.875 
L 15.828125 75.875 
Q 23.140625 64.359375 26.78125 53.3125 
Q 30.421875 42.28125 30.421875 31.390625 
Q 30.421875 20.453125 26.78125 9.375 
Q 23.140625 -1.703125 15.828125 -13.1875 
L 8.015625 -13.1875 
Q 14.5 -2 17.703125 9.0625 
Q 20.90625 20.125 20.90625 31.390625 
Q 20.90625 42.671875 17.703125 53.65625 
Q 14.5 64.65625 8.015625 75.875 
z
" id="DejaVuSans-41"/>
      </defs>
      <g transform="translate(153.428687 907.79625)scale(0.1 -0.1)">
       <use xlink:href="#DejaVuSans-40"/>
       <use x="39.013672" xlink:href="#DejaVuSans-50"/>
       <use x="102.636719" xlink:href="#DejaVuSans-46"/>
       <use x="134.423828" xlink:href="#DejaVuSans-50"/>
       <use x="198.046875" xlink:href="#DejaVuSans-57"/>
       <use x="261.669922" xlink:href="#DejaVuSans-32"/>
       <use x="293.457031" xlink:href="#DejaVuSans-109"/>
       <use x="390.869141" xlink:href="#DejaVuSans-105"/>
       <use x="418.652344" xlink:href="#DejaVuSans-110"/>
       <use x="482.03125" xlink:href="#DejaVuSans-115"/>
       <use x="534.130859" xlink:href="#DejaVuSans-47"/>
       <use x="567.822266" xlink:href="#DejaVuSans-109"/>
       <use x="665.234375" xlink:href="#DejaVuSans-111"/>
       <use x="726.416016" xlink:href="#DejaVuSans-100"/>
       <use x="789.892578" xlink:href="#DejaVuSans-101"/>
       <use x="851.416016" xlink:href="#DejaVuSans-108"/>
       <use x="879.199219" xlink:href="#DejaVuSans-41"/>
      </g>
     </g>
    </g>
    <g id="xtick_2">
     <g id="line2d_2">
      <g>
       <use style="stroke:#000000;stroke-width:0.8;" x="346.909091" xlink:href="#mddd17462aa" y="882"/>
      </g>
     </g>
     <g id="text_2">
      <!-- Jetson TX2 -->
      <defs>
       <path d="M 9.8125 72.90625 
L 19.671875 72.90625 
L 19.671875 5.078125 
Q 19.671875 -8.109375 14.671875 -14.0625 
Q 9.671875 -20.015625 -1.421875 -20.015625 
L -5.171875 -20.015625 
L -5.171875 -11.71875 
L -2.09375 -11.71875 
Q 4.4375 -11.71875 7.125 -8.046875 
Q 9.8125 -4.390625 9.8125 5.078125 
z
" id="DejaVuSans-74"/>
       <path d="M 18.3125 70.21875 
L 18.3125 54.6875 
L 36.8125 54.6875 
L 36.8125 47.703125 
L 18.3125 47.703125 
L 18.3125 18.015625 
Q 18.3125 11.328125 20.140625 9.421875 
Q 21.96875 7.515625 27.59375 7.515625 
L 36.8125 7.515625 
L 36.8125 0 
L 27.59375 0 
Q 17.1875 0 13.234375 3.875 
Q 9.28125 7.765625 9.28125 18.015625 
L 9.28125 47.703125 
L 2.6875 47.703125 
L 2.6875 54.6875 
L 9.28125 54.6875 
L 9.28125 70.21875 
z
" id="DejaVuSans-116"/>
      </defs>
      <g transform="translate(320.315341 896.598438)scale(0.1 -0.1)">
       <use xlink:href="#DejaVuSans-74"/>
       <use x="29.492188" xlink:href="#DejaVuSans-101"/>
       <use x="91.015625" xlink:href="#DejaVuSans-116"/>
       <use x="130.224609" xlink:href="#DejaVuSans-115"/>
       <use x="182.324219" xlink:href="#DejaVuSans-111"/>
       <use x="243.505859" xlink:href="#DejaVuSans-110"/>
       <use x="306.884766" xlink:href="#DejaVuSans-32"/>
       <use x="338.671875" xlink:href="#DejaVuSans-84"/>
       <use x="399.755859" xlink:href="#DejaVuSans-88"/>
       <use x="468.261719" xlink:href="#DejaVuSans-50"/>
      </g>
      <!-- (8.50 mins/model) -->
      <defs>
       <path d="M 31.78125 34.625 
Q 24.75 34.625 20.71875 30.859375 
Q 16.703125 27.09375 16.703125 20.515625 
Q 16.703125 13.921875 20.71875 10.15625 
Q 24.75 6.390625 31.78125 6.390625 
Q 38.8125 6.390625 42.859375 10.171875 
Q 46.921875 13.96875 46.921875 20.515625 
Q 46.921875 27.09375 42.890625 30.859375 
Q 38.875 34.625 31.78125 34.625 
z
M 21.921875 38.8125 
Q 15.578125 40.375 12.03125 44.71875 
Q 8.5 49.078125 8.5 55.328125 
Q 8.5 64.0625 14.71875 69.140625 
Q 20.953125 74.21875 31.78125 74.21875 
Q 42.671875 74.21875 48.875 69.140625 
Q 55.078125 64.0625 55.078125 55.328125 
Q 55.078125 49.078125 51.53125 44.71875 
Q 48 40.375 41.703125 38.8125 
Q 48.828125 37.15625 52.796875 32.3125 
Q 56.78125 27.484375 56.78125 20.515625 
Q 56.78125 9.90625 50.3125 4.234375 
Q 43.84375 -1.421875 31.78125 -1.421875 
Q 19.734375 -1.421875 13.25 4.234375 
Q 6.78125 9.90625 6.78125 20.515625 
Q 6.78125 27.484375 10.78125 32.3125 
Q 14.796875 37.15625 21.921875 38.8125 
z
M 18.3125 54.390625 
Q 18.3125 48.734375 21.84375 45.5625 
Q 25.390625 42.390625 31.78125 42.390625 
Q 38.140625 42.390625 41.71875 45.5625 
Q 45.3125 48.734375 45.3125 54.390625 
Q 45.3125 60.0625 41.71875 63.234375 
Q 38.140625 66.40625 31.78125 66.40625 
Q 25.390625 66.40625 21.84375 63.234375 
Q 18.3125 60.0625 18.3125 54.390625 
z
" id="DejaVuSans-56"/>
       <path d="M 10.796875 72.90625 
L 49.515625 72.90625 
L 49.515625 64.59375 
L 19.828125 64.59375 
L 19.828125 46.734375 
Q 21.96875 47.46875 24.109375 47.828125 
Q 26.265625 48.1875 28.421875 48.1875 
Q 40.625 48.1875 47.75 41.5 
Q 54.890625 34.8125 54.890625 23.390625 
Q 54.890625 11.625 47.5625 5.09375 
Q 40.234375 -1.421875 26.90625 -1.421875 
Q 22.3125 -1.421875 17.546875 -0.640625 
Q 12.796875 0.140625 7.71875 1.703125 
L 7.71875 11.625 
Q 12.109375 9.234375 16.796875 8.0625 
Q 21.484375 6.890625 26.703125 6.890625 
Q 35.15625 6.890625 40.078125 11.328125 
Q 45.015625 15.765625 45.015625 23.390625 
Q 45.015625 31 40.078125 35.4375 
Q 35.15625 39.890625 26.703125 39.890625 
Q 22.75 39.890625 18.8125 39.015625 
Q 14.890625 38.140625 10.796875 36.28125 
z
" id="DejaVuSans-53"/>
      </defs>
      <g transform="translate(300.998935 907.79625)scale(0.1 -0.1)">
       <use xlink:href="#DejaVuSans-40"/>
       <use x="39.013672" xlink:href="#DejaVuSans-56"/>
       <use x="102.636719" xlink:href="#DejaVuSans-46"/>
       <use x="134.423828" xlink:href="#DejaVuSans-53"/>
       <use x="198.046875" xlink:href="#DejaVuSans-48"/>
       <use x="261.669922" xlink:href="#DejaVuSans-32"/>
       <use x="293.457031" xlink:href="#DejaVuSans-109"/>
       <use x="390.869141" xlink:href="#DejaVuSans-105"/>
       <use x="418.652344" xlink:href="#DejaVuSans-110"/>
       <use x="482.03125" xlink:href="#DejaVuSans-115"/>
       <use x="534.130859" xlink:href="#DejaVuSans-47"/>
       <use x="567.822266" xlink:href="#DejaVuSans-109"/>
       <use x="665.234375" xlink:href="#DejaVuSans-111"/>
       <use x="726.416016" xlink:href="#DejaVuSans-100"/>
       <use x="789.892578" xlink:href="#DejaVuSans-101"/>
       <use x="851.416016" xlink:href="#DejaVuSans-108"/>
       <use x="879.199219" xlink:href="#DejaVuSans-41"/>
      </g>
     </g>
    </g>
    <g id="xtick_3">
     <g id="line2d_3">
      <g>
       <use style="stroke:#000000;stroke-width:0.8;" x="494.479339" xlink:href="#mddd17462aa" y="882"/>
      </g>
     </g>
     <g id="text_3">
      <!-- V100s + cascadeLake -->
      <defs>
       <path d="M 28.609375 0 
L 0.78125 72.90625 
L 11.078125 72.90625 
L 34.1875 11.53125 
L 57.328125 72.90625 
L 67.578125 72.90625 
L 39.796875 0 
z
" id="DejaVuSans-86"/>
       <path d="M 46 62.703125 
L 46 35.5 
L 73.1875 35.5 
L 73.1875 27.203125 
L 46 27.203125 
L 46 0 
L 37.796875 0 
L 37.796875 27.203125 
L 10.59375 27.203125 
L 10.59375 35.5 
L 37.796875 35.5 
L 37.796875 62.703125 
z
" id="DejaVuSans-43"/>
       <path d="M 48.78125 52.59375 
L 48.78125 44.1875 
Q 44.96875 46.296875 41.140625 47.34375 
Q 37.3125 48.390625 33.40625 48.390625 
Q 24.65625 48.390625 19.8125 42.84375 
Q 14.984375 37.3125 14.984375 27.296875 
Q 14.984375 17.28125 19.8125 11.734375 
Q 24.65625 6.203125 33.40625 6.203125 
Q 37.3125 6.203125 41.140625 7.25 
Q 44.96875 8.296875 48.78125 10.40625 
L 48.78125 2.09375 
Q 45.015625 0.34375 40.984375 -0.53125 
Q 36.96875 -1.421875 32.421875 -1.421875 
Q 20.0625 -1.421875 12.78125 6.34375 
Q 5.515625 14.109375 5.515625 27.296875 
Q 5.515625 40.671875 12.859375 48.328125 
Q 20.21875 56 33.015625 56 
Q 37.15625 56 41.109375 55.140625 
Q 45.0625 54.296875 48.78125 52.59375 
z
" id="DejaVuSans-99"/>
       <path d="M 34.28125 27.484375 
Q 23.390625 27.484375 19.1875 25 
Q 14.984375 22.515625 14.984375 16.5 
Q 14.984375 11.71875 18.140625 8.90625 
Q 21.296875 6.109375 26.703125 6.109375 
Q 34.1875 6.109375 38.703125 11.40625 
Q 43.21875 16.703125 43.21875 25.484375 
L 43.21875 27.484375 
z
M 52.203125 31.203125 
L 52.203125 0 
L 43.21875 0 
L 43.21875 8.296875 
Q 40.140625 3.328125 35.546875 0.953125 
Q 30.953125 -1.421875 24.3125 -1.421875 
Q 15.921875 -1.421875 10.953125 3.296875 
Q 6 8.015625 6 15.921875 
Q 6 25.140625 12.171875 29.828125 
Q 18.359375 34.515625 30.609375 34.515625 
L 43.21875 34.515625 
L 43.21875 35.40625 
Q 43.21875 41.609375 39.140625 45 
Q 35.0625 48.390625 27.6875 48.390625 
Q 23 48.390625 18.546875 47.265625 
Q 14.109375 46.140625 10.015625 43.890625 
L 10.015625 52.203125 
Q 14.9375 54.109375 19.578125 55.046875 
Q 24.21875 56 28.609375 56 
Q 40.484375 56 46.34375 49.84375 
Q 52.203125 43.703125 52.203125 31.203125 
z
" id="DejaVuSans-97"/>
       <path d="M 9.8125 72.90625 
L 19.671875 72.90625 
L 19.671875 8.296875 
L 55.171875 8.296875 
L 55.171875 0 
L 9.8125 0 
z
" id="DejaVuSans-76"/>
       <path d="M 9.078125 75.984375 
L 18.109375 75.984375 
L 18.109375 31.109375 
L 44.921875 54.6875 
L 56.390625 54.6875 
L 27.390625 29.109375 
L 57.625 0 
L 45.90625 0 
L 18.109375 26.703125 
L 18.109375 0 
L 9.078125 0 
z
" id="DejaVuSans-107"/>
      </defs>
      <g transform="translate(439.241058 896.598438)scale(0.1 -0.1)">
       <use xlink:href="#DejaVuSans-86"/>
       <use x="68.408203" xlink:href="#DejaVuSans-49"/>
       <use x="132.03125" xlink:href="#DejaVuSans-48"/>
       <use x="195.654297" xlink:href="#DejaVuSans-48"/>
       <use x="259.277344" xlink:href="#DejaVuSans-115"/>
       <use x="311.376953" xlink:href="#DejaVuSans-32"/>
       <use x="343.164062" xlink:href="#DejaVuSans-43"/>
       <use x="426.953125" xlink:href="#DejaVuSans-32"/>
       <use x="458.740234" xlink:href="#DejaVuSans-99"/>
       <use x="513.720703" xlink:href="#DejaVuSans-97"/>
       <use x="575" xlink:href="#DejaVuSans-115"/>
       <use x="627.099609" xlink:href="#DejaVuSans-99"/>
       <use x="682.080078" xlink:href="#DejaVuSans-97"/>
       <use x="743.359375" xlink:href="#DejaVuSans-100"/>
       <use x="806.835938" xlink:href="#DejaVuSans-101"/>
       <use x="868.359375" xlink:href="#DejaVuSans-76"/>
       <use x="924.072266" xlink:href="#DejaVuSans-97"/>
       <use x="985.351562" xlink:href="#DejaVuSans-107"/>
       <use x="1043.214844" xlink:href="#DejaVuSans-101"/>
      </g>
      <!-- (0.46 mins/model) -->
      <defs>
       <path d="M 37.796875 64.3125 
L 12.890625 25.390625 
L 37.796875 25.390625 
z
M 35.203125 72.90625 
L 47.609375 72.90625 
L 47.609375 25.390625 
L 58.015625 25.390625 
L 58.015625 17.1875 
L 47.609375 17.1875 
L 47.609375 0 
L 37.796875 0 
L 37.796875 17.1875 
L 4.890625 17.1875 
L 4.890625 26.703125 
z
" id="DejaVuSans-52"/>
       <path d="M 33.015625 40.375 
Q 26.375 40.375 22.484375 35.828125 
Q 18.609375 31.296875 18.609375 23.390625 
Q 18.609375 15.53125 22.484375 10.953125 
Q 26.375 6.390625 33.015625 6.390625 
Q 39.65625 6.390625 43.53125 10.953125 
Q 47.40625 15.53125 47.40625 23.390625 
Q 47.40625 31.296875 43.53125 35.828125 
Q 39.65625 40.375 33.015625 40.375 
z
M 52.59375 71.296875 
L 52.59375 62.3125 
Q 48.875 64.0625 45.09375 64.984375 
Q 41.3125 65.921875 37.59375 65.921875 
Q 27.828125 65.921875 22.671875 59.328125 
Q 17.53125 52.734375 16.796875 39.40625 
Q 19.671875 43.65625 24.015625 45.921875 
Q 28.375 48.1875 33.59375 48.1875 
Q 44.578125 48.1875 50.953125 41.515625 
Q 57.328125 34.859375 57.328125 23.390625 
Q 57.328125 12.15625 50.6875 5.359375 
Q 44.046875 -1.421875 33.015625 -1.421875 
Q 20.359375 -1.421875 13.671875 8.265625 
Q 6.984375 17.96875 6.984375 36.375 
Q 6.984375 53.65625 15.1875 63.9375 
Q 23.390625 74.21875 37.203125 74.21875 
Q 40.921875 74.21875 44.703125 73.484375 
Q 48.484375 72.75 52.59375 71.296875 
z
" id="DejaVuSans-54"/>
      </defs>
      <g transform="translate(448.569183 907.79625)scale(0.1 -0.1)">
       <use xlink:href="#DejaVuSans-40"/>
       <use x="39.013672" xlink:href="#DejaVuSans-48"/>
       <use x="102.636719" xlink:href="#DejaVuSans-46"/>
       <use x="134.423828" xlink:href="#DejaVuSans-52"/>
       <use x="198.046875" xlink:href="#DejaVuSans-54"/>
       <use x="261.669922" xlink:href="#DejaVuSans-32"/>
       <use x="293.457031" xlink:href="#DejaVuSans-109"/>
       <use x="390.869141" xlink:href="#DejaVuSans-105"/>
       <use x="418.652344" xlink:href="#DejaVuSans-110"/>
       <use x="482.03125" xlink:href="#DejaVuSans-115"/>
       <use x="534.130859" xlink:href="#DejaVuSans-47"/>
       <use x="567.822266" xlink:href="#DejaVuSans-109"/>
       <use x="665.234375" xlink:href="#DejaVuSans-111"/>
       <use x="726.416016" xlink:href="#DejaVuSans-100"/>
       <use x="789.892578" xlink:href="#DejaVuSans-101"/>
       <use x="851.416016" xlink:href="#DejaVuSans-108"/>
       <use x="879.199219" xlink:href="#DejaVuSans-41"/>
      </g>
     </g>
    </g>
    <g id="text_4">
     <!-- GPU Workers -->
     <defs>
      <path d="M 19.671875 64.796875 
L 19.671875 37.40625 
L 32.078125 37.40625 
Q 38.96875 37.40625 42.71875 40.96875 
Q 46.484375 44.53125 46.484375 51.125 
Q 46.484375 57.671875 42.71875 61.234375 
Q 38.96875 64.796875 32.078125 64.796875 
z
M 9.8125 72.90625 
L 32.078125 72.90625 
Q 44.34375 72.90625 50.609375 67.359375 
Q 56.890625 61.8125 56.890625 51.125 
Q 56.890625 40.328125 50.609375 34.8125 
Q 44.34375 29.296875 32.078125 29.296875 
L 19.671875 29.296875 
L 19.671875 0 
L 9.8125 0 
z
" id="DejaVuSans-80"/>
      <path d="M 8.6875 72.90625 
L 18.609375 72.90625 
L 18.609375 28.609375 
Q 18.609375 16.890625 22.84375 11.734375 
Q 27.09375 6.59375 36.625 6.59375 
Q 46.09375 6.59375 50.34375 11.734375 
Q 54.59375 16.890625 54.59375 28.609375 
L 54.59375 72.90625 
L 64.5 72.90625 
L 64.5 27.390625 
Q 64.5 13.140625 57.4375 5.859375 
Q 50.390625 -1.421875 36.625 -1.421875 
Q 22.796875 -1.421875 15.734375 5.859375 
Q 8.6875 13.140625 8.6875 27.390625 
z
" id="DejaVuSans-85"/>
      <path d="M 3.328125 72.90625 
L 13.28125 72.90625 
L 28.609375 11.28125 
L 43.890625 72.90625 
L 54.984375 72.90625 
L 70.3125 11.28125 
L 85.59375 72.90625 
L 95.609375 72.90625 
L 77.296875 0 
L 64.890625 0 
L 49.515625 63.28125 
L 33.984375 0 
L 21.578125 0 
z
" id="DejaVuSans-87"/>
      <path d="M 41.109375 46.296875 
Q 39.59375 47.171875 37.8125 47.578125 
Q 36.03125 48 33.890625 48 
Q 26.265625 48 22.1875 43.046875 
Q 18.109375 38.09375 18.109375 28.8125 
L 18.109375 0 
L 9.078125 0 
L 9.078125 54.6875 
L 18.109375 54.6875 
L 18.109375 46.1875 
Q 20.953125 51.171875 25.484375 53.578125 
Q 30.03125 56 36.53125 56 
Q 37.453125 56 38.578125 55.875 
Q 39.703125 55.765625 41.0625 55.515625 
z
" id="DejaVuSans-114"/>
     </defs>
     <g transform="translate(314.087216 921.474375)scale(0.1 -0.1)">
      <use xlink:href="#DejaVuSans-71"/>
      <use x="77.490234" xlink:href="#DejaVuSans-80"/>
      <use x="137.792969" xlink:href="#DejaVuSans-85"/>
      <use x="210.986328" xlink:href="#DejaVuSans-32"/>
      <use x="242.773438" xlink:href="#DejaVuSans-87"/>
      <use x="341.572266" xlink:href="#DejaVuSans-111"/>
      <use x="402.753906" xlink:href="#DejaVuSans-114"/>
      <use x="443.867188" xlink:href="#DejaVuSans-107"/>
      <use x="501.730469" xlink:href="#DejaVuSans-101"/>
      <use x="563.253906" xlink:href="#DejaVuSans-114"/>
      <use x="604.367188" xlink:href="#DejaVuSans-115"/>
     </g>
    </g>
   </g>
   <g id="matplotlib.axis_2">
    <g id="ytick_1">
     <g id="line2d_4">
      <path clip-path="url(#p739b8a397e)" d="M 144 873.299237 
L 549.818182 873.299237 
" style="fill:none;stroke:#b0b0b0;stroke-linecap:square;stroke-width:0.8;"/>
     </g>
     <g id="line2d_5">
      <defs>
       <path d="M 0 0 
L -3.5 0 
" id="m1afbed176f" style="stroke:#000000;stroke-width:0.8;"/>
      </defs>
      <g>
       <use style="stroke:#000000;stroke-width:0.8;" x="144" xlink:href="#m1afbed176f" y="873.299237"/>
      </g>
     </g>
     <g id="text_5">
      <!-- 0 -->
      <g transform="translate(130.6375 877.098455)scale(0.1 -0.1)">
       <use xlink:href="#DejaVuSans-48"/>
      </g>
     </g>
    </g>
    <g id="ytick_2">
     <g id="line2d_6">
      <path clip-path="url(#p739b8a397e)" d="M 144 734.467638 
L 549.818182 734.467638 
" style="fill:none;stroke:#b0b0b0;stroke-linecap:square;stroke-width:0.8;"/>
     </g>
     <g id="line2d_7">
      <g>
       <use style="stroke:#000000;stroke-width:0.8;" x="144" xlink:href="#m1afbed176f" y="734.467638"/>
      </g>
     </g>
     <g id="text_6">
      <!-- 2 -->
      <g transform="translate(130.6375 738.266857)scale(0.1 -0.1)">
       <use xlink:href="#DejaVuSans-50"/>
      </g>
     </g>
    </g>
    <g id="ytick_3">
     <g id="line2d_8">
      <path clip-path="url(#p739b8a397e)" d="M 144 595.63604 
L 549.818182 595.63604 
" style="fill:none;stroke:#b0b0b0;stroke-linecap:square;stroke-width:0.8;"/>
     </g>
     <g id="line2d_9">
      <g>
       <use style="stroke:#000000;stroke-width:0.8;" x="144" xlink:href="#m1afbed176f" y="595.63604"/>
      </g>
     </g>
     <g id="text_7">
      <!-- 4 -->
      <g transform="translate(130.6375 599.435258)scale(0.1 -0.1)">
       <use xlink:href="#DejaVuSans-52"/>
      </g>
     </g>
    </g>
    <g id="ytick_4">
     <g id="line2d_10">
      <path clip-path="url(#p739b8a397e)" d="M 144 456.804441 
L 549.818182 456.804441 
" style="fill:none;stroke:#b0b0b0;stroke-linecap:square;stroke-width:0.8;"/>
     </g>
     <g id="line2d_11">
      <g>
       <use style="stroke:#000000;stroke-width:0.8;" x="144" xlink:href="#m1afbed176f" y="456.804441"/>
      </g>
     </g>
     <g id="text_8">
      <!-- 6 -->
      <g transform="translate(130.6375 460.60366)scale(0.1 -0.1)">
       <use xlink:href="#DejaVuSans-54"/>
      </g>
     </g>
    </g>
    <g id="ytick_5">
     <g id="line2d_12">
      <path clip-path="url(#p739b8a397e)" d="M 144 317.972843 
L 549.818182 317.972843 
" style="fill:none;stroke:#b0b0b0;stroke-linecap:square;stroke-width:0.8;"/>
     </g>
     <g id="line2d_13">
      <g>
       <use style="stroke:#000000;stroke-width:0.8;" x="144" xlink:href="#m1afbed176f" y="317.972843"/>
      </g>
     </g>
     <g id="text_9">
      <!-- 8 -->
      <g transform="translate(130.6375 321.772061)scale(0.1 -0.1)">
       <use xlink:href="#DejaVuSans-56"/>
      </g>
     </g>
    </g>
    <g id="ytick_6">
     <g id="line2d_14">
      <path clip-path="url(#p739b8a397e)" d="M 144 179.141244 
L 549.818182 179.141244 
" style="fill:none;stroke:#b0b0b0;stroke-linecap:square;stroke-width:0.8;"/>
     </g>
     <g id="line2d_15">
      <g>
       <use style="stroke:#000000;stroke-width:0.8;" x="144" xlink:href="#m1afbed176f" y="179.141244"/>
      </g>
     </g>
     <g id="text_10">
      <!-- 10 -->
      <g transform="translate(124.275 182.940463)scale(0.1 -0.1)">
       <use xlink:href="#DejaVuSans-49"/>
       <use x="63.623047" xlink:href="#DejaVuSans-48"/>
      </g>
     </g>
    </g>
    <g id="text_11">
     <!-- Time (minutes) -->
     <defs>
      <path d="M 8.5 21.578125 
L 8.5 54.6875 
L 17.484375 54.6875 
L 17.484375 21.921875 
Q 17.484375 14.15625 20.5 10.265625 
Q 23.53125 6.390625 29.59375 6.390625 
Q 36.859375 6.390625 41.078125 11.03125 
Q 45.3125 15.671875 45.3125 23.6875 
L 45.3125 54.6875 
L 54.296875 54.6875 
L 54.296875 0 
L 45.3125 0 
L 45.3125 8.40625 
Q 42.046875 3.421875 37.71875 1 
Q 33.40625 -1.421875 27.6875 -1.421875 
Q 18.265625 -1.421875 13.375 4.4375 
Q 8.5 10.296875 8.5 21.578125 
z
M 31.109375 56 
z
" id="DejaVuSans-117"/>
     </defs>
     <g transform="translate(118.195312 539.596406)rotate(-90)scale(0.1 -0.1)">
      <use xlink:href="#DejaVuSans-84"/>
      <use x="61.037109" xlink:href="#DejaVuSans-105"/>
      <use x="88.820312" xlink:href="#DejaVuSans-109"/>
      <use x="186.232422" xlink:href="#DejaVuSans-101"/>
      <use x="247.755859" xlink:href="#DejaVuSans-32"/>
      <use x="279.542969" xlink:href="#DejaVuSans-40"/>
      <use x="318.556641" xlink:href="#DejaVuSans-109"/>
      <use x="415.96875" xlink:href="#DejaVuSans-105"/>
      <use x="443.751953" xlink:href="#DejaVuSans-110"/>
      <use x="507.130859" xlink:href="#DejaVuSans-117"/>
      <use x="570.509766" xlink:href="#DejaVuSans-116"/>
      <use x="609.71875" xlink:href="#DejaVuSans-101"/>
      <use x="671.242188" xlink:href="#DejaVuSans-115"/>
      <use x="723.341797" xlink:href="#DejaVuSans-41"/>
     </g>
    </g>
   </g>
   <g id="LineCollection_1">
    <path clip-path="url(#p739b8a397e)" d="M 180.892562 658.742535 
L 217.785124 658.742535 
" style="fill:none;stroke:#1f77b4;stroke-width:1.5;"/>
    <path clip-path="url(#p739b8a397e)" d="M 328.46281 155.552727 
L 365.355372 155.552727 
" style="fill:none;stroke:#1f77b4;stroke-width:1.5;"/>
    <path clip-path="url(#p739b8a397e)" d="M 476.033058 835.794749 
L 512.92562 835.794749 
" style="fill:none;stroke:#1f77b4;stroke-width:1.5;"/>
   </g>
   <g id="LineCollection_2">
    <path clip-path="url(#p739b8a397e)" d="M 180.892562 784.330704 
L 217.785124 784.330704 
" style="fill:none;stroke:#1f77b4;stroke-width:1.5;"/>
    <path clip-path="url(#p739b8a397e)" d="M 328.46281 434.480723 
L 365.355372 434.480723 
" style="fill:none;stroke:#1f77b4;stroke-width:1.5;"/>
    <path clip-path="url(#p739b8a397e)" d="M 476.033058 847.407273 
L 512.92562 847.407273 
" style="fill:none;stroke:#1f77b4;stroke-width:1.5;"/>
   </g>
   <g id="LineCollection_3">
    <path clip-path="url(#p739b8a397e)" d="M 199.338843 784.330704 
L 199.338843 658.742535 
" style="fill:none;stroke:#1f77b4;stroke-width:1.5;"/>
    <path clip-path="url(#p739b8a397e)" d="M 346.909091 434.480723 
L 346.909091 155.552727 
" style="fill:none;stroke:#1f77b4;stroke-width:1.5;"/>
    <path clip-path="url(#p739b8a397e)" d="M 494.479339 847.407273 
L 494.479339 835.794749 
" style="fill:none;stroke:#1f77b4;stroke-width:1.5;"/>
   </g>
   <g id="LineCollection_4">
    <path clip-path="url(#p739b8a397e)" d="M 180.892562 700.381744 
L 217.785124 700.381744 
" style="fill:none;stroke:#1f77b4;stroke-width:1.5;"/>
    <path clip-path="url(#p739b8a397e)" d="M 328.46281 271.002757 
L 365.355372 271.002757 
" style="fill:none;stroke:#1f77b4;stroke-width:1.5;"/>
    <path clip-path="url(#p739b8a397e)" d="M 476.033058 841.340913 
L 512.92562 841.340913 
" style="fill:none;stroke:#1f77b4;stroke-width:1.5;"/>
   </g>
   <g id="patch_3">
    <path d="M 144 882 
L 144 120.96 
" style="fill:none;stroke:#000000;stroke-linecap:square;stroke-linejoin:miter;stroke-width:0.8;"/>
   </g>
   <g id="patch_4">
    <path d="M 549.818182 882 
L 549.818182 120.96 
" style="fill:none;stroke:#000000;stroke-linecap:square;stroke-linejoin:miter;stroke-width:0.8;"/>
   </g>
   <g id="patch_5">
    <path d="M 144 882 
L 549.818182 882 
" style="fill:none;stroke:#000000;stroke-linecap:square;stroke-linejoin:miter;stroke-width:0.8;"/>
   </g>
   <g id="patch_6">
    <path d="M 144 120.96 
L 549.818182 120.96 
" style="fill:none;stroke:#000000;stroke-linecap:square;stroke-linejoin:miter;stroke-width:0.8;"/>
   </g>
   <g id="text_12">
    <!-- Violin plot - RNN (4 layers) training times vs GPU (3803 samples, 99.73% CI) -->
    <defs>
     <path d="M 18.109375 8.203125 
L 18.109375 -20.796875 
L 9.078125 -20.796875 
L 9.078125 54.6875 
L 18.109375 54.6875 
L 18.109375 46.390625 
Q 20.953125 51.265625 25.265625 53.625 
Q 29.59375 56 35.59375 56 
Q 45.5625 56 51.78125 48.09375 
Q 58.015625 40.1875 58.015625 27.296875 
Q 58.015625 14.40625 51.78125 6.484375 
Q 45.5625 -1.421875 35.59375 -1.421875 
Q 29.59375 -1.421875 25.265625 0.953125 
Q 20.953125 3.328125 18.109375 8.203125 
z
M 48.6875 27.296875 
Q 48.6875 37.203125 44.609375 42.84375 
Q 40.53125 48.484375 33.40625 48.484375 
Q 26.265625 48.484375 22.1875 42.84375 
Q 18.109375 37.203125 18.109375 27.296875 
Q 18.109375 17.390625 22.1875 11.75 
Q 26.265625 6.109375 33.40625 6.109375 
Q 40.53125 6.109375 44.609375 11.75 
Q 48.6875 17.390625 48.6875 27.296875 
z
" id="DejaVuSans-112"/>
     <path d="M 4.890625 31.390625 
L 31.203125 31.390625 
L 31.203125 23.390625 
L 4.890625 23.390625 
z
" id="DejaVuSans-45"/>
     <path d="M 44.390625 34.1875 
Q 47.5625 33.109375 50.5625 29.59375 
Q 53.5625 26.078125 56.59375 19.921875 
L 66.609375 0 
L 56 0 
L 46.6875 18.703125 
Q 43.0625 26.03125 39.671875 28.421875 
Q 36.28125 30.8125 30.421875 30.8125 
L 19.671875 30.8125 
L 19.671875 0 
L 9.8125 0 
L 9.8125 72.90625 
L 32.078125 72.90625 
Q 44.578125 72.90625 50.734375 67.671875 
Q 56.890625 62.453125 56.890625 51.90625 
Q 56.890625 45.015625 53.6875 40.46875 
Q 50.484375 35.9375 44.390625 34.1875 
z
M 19.671875 64.796875 
L 19.671875 38.921875 
L 32.078125 38.921875 
Q 39.203125 38.921875 42.84375 42.21875 
Q 46.484375 45.515625 46.484375 51.90625 
Q 46.484375 58.296875 42.84375 61.546875 
Q 39.203125 64.796875 32.078125 64.796875 
z
" id="DejaVuSans-82"/>
     <path d="M 9.8125 72.90625 
L 23.09375 72.90625 
L 55.421875 11.921875 
L 55.421875 72.90625 
L 64.984375 72.90625 
L 64.984375 0 
L 51.703125 0 
L 19.390625 60.984375 
L 19.390625 0 
L 9.8125 0 
z
" id="DejaVuSans-78"/>
     <path d="M 32.171875 -5.078125 
Q 28.375 -14.84375 24.75 -17.8125 
Q 21.140625 -20.796875 15.09375 -20.796875 
L 7.90625 -20.796875 
L 7.90625 -13.28125 
L 13.1875 -13.28125 
Q 16.890625 -13.28125 18.9375 -11.515625 
Q 21 -9.765625 23.484375 -3.21875 
L 25.09375 0.875 
L 2.984375 54.6875 
L 12.5 54.6875 
L 29.59375 11.921875 
L 46.6875 54.6875 
L 56.203125 54.6875 
z
" id="DejaVuSans-121"/>
     <path d="M 45.40625 27.984375 
Q 45.40625 37.75 41.375 43.109375 
Q 37.359375 48.484375 30.078125 48.484375 
Q 22.859375 48.484375 18.828125 43.109375 
Q 14.796875 37.75 14.796875 27.984375 
Q 14.796875 18.265625 18.828125 12.890625 
Q 22.859375 7.515625 30.078125 7.515625 
Q 37.359375 7.515625 41.375 12.890625 
Q 45.40625 18.265625 45.40625 27.984375 
z
M 54.390625 6.78125 
Q 54.390625 -7.171875 48.1875 -13.984375 
Q 42 -20.796875 29.203125 -20.796875 
Q 24.46875 -20.796875 20.265625 -20.09375 
Q 16.0625 -19.390625 12.109375 -17.921875 
L 12.109375 -9.1875 
Q 16.0625 -11.328125 19.921875 -12.34375 
Q 23.78125 -13.375 27.78125 -13.375 
Q 36.625 -13.375 41.015625 -8.765625 
Q 45.40625 -4.15625 45.40625 5.171875 
L 45.40625 9.625 
Q 42.625 4.78125 38.28125 2.390625 
Q 33.9375 0 27.875 0 
Q 17.828125 0 11.671875 7.65625 
Q 5.515625 15.328125 5.515625 27.984375 
Q 5.515625 40.671875 11.671875 48.328125 
Q 17.828125 56 27.875 56 
Q 33.9375 56 38.28125 53.609375 
Q 42.625 51.21875 45.40625 46.390625 
L 45.40625 54.6875 
L 54.390625 54.6875 
z
" id="DejaVuSans-103"/>
     <path d="M 2.984375 54.6875 
L 12.5 54.6875 
L 29.59375 8.796875 
L 46.6875 54.6875 
L 56.203125 54.6875 
L 35.6875 0 
L 23.484375 0 
z
" id="DejaVuSans-118"/>
     <path d="M 40.578125 39.3125 
Q 47.65625 37.796875 51.625 33 
Q 55.609375 28.21875 55.609375 21.1875 
Q 55.609375 10.40625 48.1875 4.484375 
Q 40.765625 -1.421875 27.09375 -1.421875 
Q 22.515625 -1.421875 17.65625 -0.515625 
Q 12.796875 0.390625 7.625 2.203125 
L 7.625 11.71875 
Q 11.71875 9.328125 16.59375 8.109375 
Q 21.484375 6.890625 26.8125 6.890625 
Q 36.078125 6.890625 40.9375 10.546875 
Q 45.796875 14.203125 45.796875 21.1875 
Q 45.796875 27.640625 41.28125 31.265625 
Q 36.765625 34.90625 28.71875 34.90625 
L 20.21875 34.90625 
L 20.21875 43.015625 
L 29.109375 43.015625 
Q 36.375 43.015625 40.234375 45.921875 
Q 44.09375 48.828125 44.09375 54.296875 
Q 44.09375 59.90625 40.109375 62.90625 
Q 36.140625 65.921875 28.71875 65.921875 
Q 24.65625 65.921875 20.015625 65.03125 
Q 15.375 64.15625 9.8125 62.3125 
L 9.8125 71.09375 
Q 15.4375 72.65625 20.34375 73.4375 
Q 25.25 74.21875 29.59375 74.21875 
Q 40.828125 74.21875 47.359375 69.109375 
Q 53.90625 64.015625 53.90625 55.328125 
Q 53.90625 49.265625 50.4375 45.09375 
Q 46.96875 40.921875 40.578125 39.3125 
z
" id="DejaVuSans-51"/>
     <path d="M 11.71875 12.40625 
L 22.015625 12.40625 
L 22.015625 4 
L 14.015625 -11.625 
L 7.71875 -11.625 
L 11.71875 4 
z
" id="DejaVuSans-44"/>
     <path d="M 72.703125 32.078125 
Q 68.453125 32.078125 66.03125 28.46875 
Q 63.625 24.859375 63.625 18.40625 
Q 63.625 12.0625 66.03125 8.421875 
Q 68.453125 4.78125 72.703125 4.78125 
Q 76.859375 4.78125 79.265625 8.421875 
Q 81.6875 12.0625 81.6875 18.40625 
Q 81.6875 24.8125 79.265625 28.4375 
Q 76.859375 32.078125 72.703125 32.078125 
z
M 72.703125 38.28125 
Q 80.421875 38.28125 84.953125 32.90625 
Q 89.5 27.546875 89.5 18.40625 
Q 89.5 9.28125 84.9375 3.921875 
Q 80.375 -1.421875 72.703125 -1.421875 
Q 64.890625 -1.421875 60.34375 3.921875 
Q 55.8125 9.28125 55.8125 18.40625 
Q 55.8125 27.59375 60.375 32.9375 
Q 64.9375 38.28125 72.703125 38.28125 
z
M 22.3125 68.015625 
Q 18.109375 68.015625 15.6875 64.375 
Q 13.28125 60.75 13.28125 54.390625 
Q 13.28125 47.953125 15.671875 44.328125 
Q 18.0625 40.71875 22.3125 40.71875 
Q 26.5625 40.71875 28.96875 44.328125 
Q 31.390625 47.953125 31.390625 54.390625 
Q 31.390625 60.6875 28.953125 64.34375 
Q 26.515625 68.015625 22.3125 68.015625 
z
M 66.40625 74.21875 
L 74.21875 74.21875 
L 28.609375 -1.421875 
L 20.796875 -1.421875 
z
M 22.3125 74.21875 
Q 30.03125 74.21875 34.609375 68.875 
Q 39.203125 63.53125 39.203125 54.390625 
Q 39.203125 45.171875 34.640625 39.84375 
Q 30.078125 34.515625 22.3125 34.515625 
Q 14.546875 34.515625 10.03125 39.859375 
Q 5.515625 45.21875 5.515625 54.390625 
Q 5.515625 63.484375 10.046875 68.84375 
Q 14.59375 74.21875 22.3125 74.21875 
z
" id="DejaVuSans-37"/>
     <path d="M 64.40625 67.28125 
L 64.40625 56.890625 
Q 59.421875 61.53125 53.78125 63.8125 
Q 48.140625 66.109375 41.796875 66.109375 
Q 29.296875 66.109375 22.65625 58.46875 
Q 16.015625 50.828125 16.015625 36.375 
Q 16.015625 21.96875 22.65625 14.328125 
Q 29.296875 6.6875 41.796875 6.6875 
Q 48.140625 6.6875 53.78125 8.984375 
Q 59.421875 11.28125 64.40625 15.921875 
L 64.40625 5.609375 
Q 59.234375 2.09375 53.4375 0.328125 
Q 47.65625 -1.421875 41.21875 -1.421875 
Q 24.65625 -1.421875 15.125 8.703125 
Q 5.609375 18.84375 5.609375 36.375 
Q 5.609375 53.953125 15.125 64.078125 
Q 24.65625 74.21875 41.21875 74.21875 
Q 47.75 74.21875 53.53125 72.484375 
Q 59.328125 70.75 64.40625 67.28125 
z
" id="DejaVuSans-67"/>
     <path d="M 9.8125 72.90625 
L 19.671875 72.90625 
L 19.671875 0 
L 9.8125 0 
z
" id="DejaVuSans-73"/>
    </defs>
    <g transform="translate(117.157841 114.96)scale(0.12 -0.12)">
     <use xlink:href="#DejaVuSans-86"/>
     <use x="68.376953" xlink:href="#DejaVuSans-105"/>
     <use x="96.160156" xlink:href="#DejaVuSans-111"/>
     <use x="157.341797" xlink:href="#DejaVuSans-108"/>
     <use x="185.125" xlink:href="#DejaVuSans-105"/>
     <use x="212.908203" xlink:href="#DejaVuSans-110"/>
     <use x="276.287109" xlink:href="#DejaVuSans-32"/>
     <use x="308.074219" xlink:href="#DejaVuSans-112"/>
     <use x="371.550781" xlink:href="#DejaVuSans-108"/>
     <use x="399.333984" xlink:href="#DejaVuSans-111"/>
     <use x="460.515625" xlink:href="#DejaVuSans-116"/>
     <use x="499.724609" xlink:href="#DejaVuSans-32"/>
     <use x="531.511719" xlink:href="#DejaVuSans-45"/>
     <use x="567.595703" xlink:href="#DejaVuSans-32"/>
     <use x="599.382812" xlink:href="#DejaVuSans-82"/>
     <use x="668.865234" xlink:href="#DejaVuSans-78"/>
     <use x="743.669922" xlink:href="#DejaVuSans-78"/>
     <use x="818.474609" xlink:href="#DejaVuSans-32"/>
     <use x="850.261719" xlink:href="#DejaVuSans-40"/>
     <use x="889.275391" xlink:href="#DejaVuSans-52"/>
     <use x="952.898438" xlink:href="#DejaVuSans-32"/>
     <use x="984.685547" xlink:href="#DejaVuSans-108"/>
     <use x="1012.46875" xlink:href="#DejaVuSans-97"/>
     <use x="1073.748047" xlink:href="#DejaVuSans-121"/>
     <use x="1132.927734" xlink:href="#DejaVuSans-101"/>
     <use x="1194.451172" xlink:href="#DejaVuSans-114"/>
     <use x="1235.564453" xlink:href="#DejaVuSans-115"/>
     <use x="1287.664062" xlink:href="#DejaVuSans-41"/>
     <use x="1326.677734" xlink:href="#DejaVuSans-32"/>
     <use x="1358.464844" xlink:href="#DejaVuSans-116"/>
     <use x="1397.673828" xlink:href="#DejaVuSans-114"/>
     <use x="1438.787109" xlink:href="#DejaVuSans-97"/>
     <use x="1500.066406" xlink:href="#DejaVuSans-105"/>
     <use x="1527.849609" xlink:href="#DejaVuSans-110"/>
     <use x="1591.228516" xlink:href="#DejaVuSans-105"/>
     <use x="1619.011719" xlink:href="#DejaVuSans-110"/>
     <use x="1682.390625" xlink:href="#DejaVuSans-103"/>
     <use x="1745.867188" xlink:href="#DejaVuSans-32"/>
     <use x="1777.654297" xlink:href="#DejaVuSans-116"/>
     <use x="1816.863281" xlink:href="#DejaVuSans-105"/>
     <use x="1844.646484" xlink:href="#DejaVuSans-109"/>
     <use x="1942.058594" xlink:href="#DejaVuSans-101"/>
     <use x="2003.582031" xlink:href="#DejaVuSans-115"/>
     <use x="2055.681641" xlink:href="#DejaVuSans-32"/>
     <use x="2087.46875" xlink:href="#DejaVuSans-118"/>
     <use x="2146.648438" xlink:href="#DejaVuSans-115"/>
     <use x="2198.748047" xlink:href="#DejaVuSans-32"/>
     <use x="2230.535156" xlink:href="#DejaVuSans-71"/>
     <use x="2308.025391" xlink:href="#DejaVuSans-80"/>
     <use x="2368.328125" xlink:href="#DejaVuSans-85"/>
     <use x="2441.521484" xlink:href="#DejaVuSans-32"/>
     <use x="2473.308594" xlink:href="#DejaVuSans-40"/>
     <use x="2512.322266" xlink:href="#DejaVuSans-51"/>
     <use x="2575.945312" xlink:href="#DejaVuSans-56"/>
     <use x="2639.568359" xlink:href="#DejaVuSans-48"/>
     <use x="2703.191406" xlink:href="#DejaVuSans-51"/>
     <use x="2766.814453" xlink:href="#DejaVuSans-32"/>
     <use x="2798.601562" xlink:href="#DejaVuSans-115"/>
     <use x="2850.701172" xlink:href="#DejaVuSans-97"/>
     <use x="2911.980469" xlink:href="#DejaVuSans-109"/>
     <use x="3009.392578" xlink:href="#DejaVuSans-112"/>
     <use x="3072.869141" xlink:href="#DejaVuSans-108"/>
     <use x="3100.652344" xlink:href="#DejaVuSans-101"/>
     <use x="3162.175781" xlink:href="#DejaVuSans-115"/>
     <use x="3214.275391" xlink:href="#DejaVuSans-44"/>
     <use x="3246.0625" xlink:href="#DejaVuSans-32"/>
     <use x="3277.849609" xlink:href="#DejaVuSans-57"/>
     <use x="3341.472656" xlink:href="#DejaVuSans-57"/>
     <use x="3405.095703" xlink:href="#DejaVuSans-46"/>
     <use x="3436.882812" xlink:href="#DejaVuSans-55"/>
     <use x="3500.505859" xlink:href="#DejaVuSans-51"/>
     <use x="3564.128906" xlink:href="#DejaVuSans-37"/>
     <use x="3659.148438" xlink:href="#DejaVuSans-32"/>
     <use x="3690.935547" xlink:href="#DejaVuSans-67"/>
     <use x="3760.759766" xlink:href="#DejaVuSans-73"/>
     <use x="3790.251953" xlink:href="#DejaVuSans-41"/>
    </g>
   </g>
  </g>
  <g id="axes_2">
   <g id="patch_7">
    <path d="M 630.981818 882 
L 1036.8 882 
L 1036.8 120.96 
L 630.981818 120.96 
z
" style="fill:#ffffff;"/>
   </g>
   <g id="matplotlib.axis_3">
    <g id="xtick_4">
     <g id="line2d_16">
      <g>
       <use style="stroke:#000000;stroke-width:0.8;" x="698.618182" xlink:href="#mddd17462aa" y="882"/>
      </g>
     </g>
     <g id="text_13">
      <!-- GTX 970 &amp; 1070Ti -->
      <g transform="translate(652.891619 896.598438)scale(0.1 -0.1)">
       <use xlink:href="#DejaVuSans-71"/>
       <use x="77.443359" xlink:href="#DejaVuSans-84"/>
       <use x="138.527344" xlink:href="#DejaVuSans-88"/>
       <use x="207.033203" xlink:href="#DejaVuSans-32"/>
       <use x="238.820312" xlink:href="#DejaVuSans-57"/>
       <use x="302.443359" xlink:href="#DejaVuSans-55"/>
       <use x="366.066406" xlink:href="#DejaVuSans-48"/>
       <use x="429.689453" xlink:href="#DejaVuSans-32"/>
       <use x="461.476562" xlink:href="#DejaVuSans-38"/>
       <use x="539.455078" xlink:href="#DejaVuSans-32"/>
       <use x="571.242188" xlink:href="#DejaVuSans-49"/>
       <use x="634.865234" xlink:href="#DejaVuSans-48"/>
       <use x="698.488281" xlink:href="#DejaVuSans-55"/>
       <use x="762.111328" xlink:href="#DejaVuSans-48"/>
       <use x="825.734375" xlink:href="#DejaVuSans-84"/>
       <use x="886.771484" xlink:href="#DejaVuSans-105"/>
      </g>
      <!-- (2.29 mins/model) -->
      <g transform="translate(652.708026 907.79625)scale(0.1 -0.1)">
       <use xlink:href="#DejaVuSans-40"/>
       <use x="39.013672" xlink:href="#DejaVuSans-50"/>
       <use x="102.636719" xlink:href="#DejaVuSans-46"/>
       <use x="134.423828" xlink:href="#DejaVuSans-50"/>
       <use x="198.046875" xlink:href="#DejaVuSans-57"/>
       <use x="261.669922" xlink:href="#DejaVuSans-32"/>
       <use x="293.457031" xlink:href="#DejaVuSans-109"/>
       <use x="390.869141" xlink:href="#DejaVuSans-105"/>
       <use x="418.652344" xlink:href="#DejaVuSans-110"/>
       <use x="482.03125" xlink:href="#DejaVuSans-115"/>
       <use x="534.130859" xlink:href="#DejaVuSans-47"/>
       <use x="567.822266" xlink:href="#DejaVuSans-109"/>
       <use x="665.234375" xlink:href="#DejaVuSans-111"/>
       <use x="726.416016" xlink:href="#DejaVuSans-100"/>
       <use x="789.892578" xlink:href="#DejaVuSans-101"/>
       <use x="851.416016" xlink:href="#DejaVuSans-108"/>
       <use x="879.199219" xlink:href="#DejaVuSans-41"/>
      </g>
     </g>
    </g>
    <g id="xtick_5">
     <g id="line2d_17">
      <g>
       <use style="stroke:#000000;stroke-width:0.8;" x="833.890909" xlink:href="#mddd17462aa" y="882"/>
      </g>
     </g>
     <g id="text_14">
      <!-- Jetson TX2 -->
      <g transform="translate(807.297159 896.598438)scale(0.1 -0.1)">
       <use xlink:href="#DejaVuSans-74"/>
       <use x="29.492188" xlink:href="#DejaVuSans-101"/>
       <use x="91.015625" xlink:href="#DejaVuSans-116"/>
       <use x="130.224609" xlink:href="#DejaVuSans-115"/>
       <use x="182.324219" xlink:href="#DejaVuSans-111"/>
       <use x="243.505859" xlink:href="#DejaVuSans-110"/>
       <use x="306.884766" xlink:href="#DejaVuSans-32"/>
       <use x="338.671875" xlink:href="#DejaVuSans-84"/>
       <use x="399.755859" xlink:href="#DejaVuSans-88"/>
       <use x="468.261719" xlink:href="#DejaVuSans-50"/>
      </g>
      <!-- (8.50 mins/model) -->
      <g transform="translate(787.980753 907.79625)scale(0.1 -0.1)">
       <use xlink:href="#DejaVuSans-40"/>
       <use x="39.013672" xlink:href="#DejaVuSans-56"/>
       <use x="102.636719" xlink:href="#DejaVuSans-46"/>
       <use x="134.423828" xlink:href="#DejaVuSans-53"/>
       <use x="198.046875" xlink:href="#DejaVuSans-48"/>
       <use x="261.669922" xlink:href="#DejaVuSans-32"/>
       <use x="293.457031" xlink:href="#DejaVuSans-109"/>
       <use x="390.869141" xlink:href="#DejaVuSans-105"/>
       <use x="418.652344" xlink:href="#DejaVuSans-110"/>
       <use x="482.03125" xlink:href="#DejaVuSans-115"/>
       <use x="534.130859" xlink:href="#DejaVuSans-47"/>
       <use x="567.822266" xlink:href="#DejaVuSans-109"/>
       <use x="665.234375" xlink:href="#DejaVuSans-111"/>
       <use x="726.416016" xlink:href="#DejaVuSans-100"/>
       <use x="789.892578" xlink:href="#DejaVuSans-101"/>
       <use x="851.416016" xlink:href="#DejaVuSans-108"/>
       <use x="879.199219" xlink:href="#DejaVuSans-41"/>
      </g>
     </g>
    </g>
    <g id="xtick_6">
     <g id="line2d_18">
      <g>
       <use style="stroke:#000000;stroke-width:0.8;" x="969.163636" xlink:href="#mddd17462aa" y="882"/>
      </g>
     </g>
     <g id="text_15">
      <!-- V100s + cascadeLake -->
      <g transform="translate(913.925355 896.598438)scale(0.1 -0.1)">
       <use xlink:href="#DejaVuSans-86"/>
       <use x="68.408203" xlink:href="#DejaVuSans-49"/>
       <use x="132.03125" xlink:href="#DejaVuSans-48"/>
       <use x="195.654297" xlink:href="#DejaVuSans-48"/>
       <use x="259.277344" xlink:href="#DejaVuSans-115"/>
       <use x="311.376953" xlink:href="#DejaVuSans-32"/>
       <use x="343.164062" xlink:href="#DejaVuSans-43"/>
       <use x="426.953125" xlink:href="#DejaVuSans-32"/>
       <use x="458.740234" xlink:href="#DejaVuSans-99"/>
       <use x="513.720703" xlink:href="#DejaVuSans-97"/>
       <use x="575" xlink:href="#DejaVuSans-115"/>
       <use x="627.099609" xlink:href="#DejaVuSans-99"/>
       <use x="682.080078" xlink:href="#DejaVuSans-97"/>
       <use x="743.359375" xlink:href="#DejaVuSans-100"/>
       <use x="806.835938" xlink:href="#DejaVuSans-101"/>
       <use x="868.359375" xlink:href="#DejaVuSans-76"/>
       <use x="924.072266" xlink:href="#DejaVuSans-97"/>
       <use x="985.351562" xlink:href="#DejaVuSans-107"/>
       <use x="1043.214844" xlink:href="#DejaVuSans-101"/>
      </g>
      <!-- (0.46 mins/model) -->
      <g transform="translate(923.25348 907.79625)scale(0.1 -0.1)">
       <use xlink:href="#DejaVuSans-40"/>
       <use x="39.013672" xlink:href="#DejaVuSans-48"/>
       <use x="102.636719" xlink:href="#DejaVuSans-46"/>
       <use x="134.423828" xlink:href="#DejaVuSans-52"/>
       <use x="198.046875" xlink:href="#DejaVuSans-54"/>
       <use x="261.669922" xlink:href="#DejaVuSans-32"/>
       <use x="293.457031" xlink:href="#DejaVuSans-109"/>
       <use x="390.869141" xlink:href="#DejaVuSans-105"/>
       <use x="418.652344" xlink:href="#DejaVuSans-110"/>
       <use x="482.03125" xlink:href="#DejaVuSans-115"/>
       <use x="534.130859" xlink:href="#DejaVuSans-47"/>
       <use x="567.822266" xlink:href="#DejaVuSans-109"/>
       <use x="665.234375" xlink:href="#DejaVuSans-111"/>
       <use x="726.416016" xlink:href="#DejaVuSans-100"/>
       <use x="789.892578" xlink:href="#DejaVuSans-101"/>
       <use x="851.416016" xlink:href="#DejaVuSans-108"/>
       <use x="879.199219" xlink:href="#DejaVuSans-41"/>
      </g>
     </g>
    </g>
    <g id="text_16">
     <!-- GPU Workers -->
     <g transform="translate(801.069034 921.474375)scale(0.1 -0.1)">
      <use xlink:href="#DejaVuSans-71"/>
      <use x="77.490234" xlink:href="#DejaVuSans-80"/>
      <use x="137.792969" xlink:href="#DejaVuSans-85"/>
      <use x="210.986328" xlink:href="#DejaVuSans-32"/>
      <use x="242.773438" xlink:href="#DejaVuSans-87"/>
      <use x="341.572266" xlink:href="#DejaVuSans-111"/>
      <use x="402.753906" xlink:href="#DejaVuSans-114"/>
      <use x="443.867188" xlink:href="#DejaVuSans-107"/>
      <use x="501.730469" xlink:href="#DejaVuSans-101"/>
      <use x="563.253906" xlink:href="#DejaVuSans-114"/>
      <use x="604.367188" xlink:href="#DejaVuSans-115"/>
     </g>
    </g>
   </g>
   <g id="matplotlib.axis_4">
    <g id="ytick_7">
     <g id="line2d_19">
      <path clip-path="url(#p59c321c461)" d="M 630.981818 873.299237 
L 1036.8 873.299237 
" style="fill:none;stroke:#b0b0b0;stroke-linecap:square;stroke-width:0.8;"/>
     </g>
     <g id="line2d_20">
      <g>
       <use style="stroke:#000000;stroke-width:0.8;" x="630.981818" xlink:href="#m1afbed176f" y="873.299237"/>
      </g>
     </g>
     <g id="text_17">
      <!-- 0 -->
      <g transform="translate(617.619318 877.098455)scale(0.1 -0.1)">
       <use xlink:href="#DejaVuSans-48"/>
      </g>
     </g>
    </g>
    <g id="ytick_8">
     <g id="line2d_21">
      <path clip-path="url(#p59c321c461)" d="M 630.981818 734.467638 
L 1036.8 734.467638 
" style="fill:none;stroke:#b0b0b0;stroke-linecap:square;stroke-width:0.8;"/>
     </g>
     <g id="line2d_22">
      <g>
       <use style="stroke:#000000;stroke-width:0.8;" x="630.981818" xlink:href="#m1afbed176f" y="734.467638"/>
      </g>
     </g>
     <g id="text_18">
      <!-- 2 -->
      <g transform="translate(617.619318 738.266857)scale(0.1 -0.1)">
       <use xlink:href="#DejaVuSans-50"/>
      </g>
     </g>
    </g>
    <g id="ytick_9">
     <g id="line2d_23">
      <path clip-path="url(#p59c321c461)" d="M 630.981818 595.63604 
L 1036.8 595.63604 
" style="fill:none;stroke:#b0b0b0;stroke-linecap:square;stroke-width:0.8;"/>
     </g>
     <g id="line2d_24">
      <g>
       <use style="stroke:#000000;stroke-width:0.8;" x="630.981818" xlink:href="#m1afbed176f" y="595.63604"/>
      </g>
     </g>
     <g id="text_19">
      <!-- 4 -->
      <g transform="translate(617.619318 599.435258)scale(0.1 -0.1)">
       <use xlink:href="#DejaVuSans-52"/>
      </g>
     </g>
    </g>
    <g id="ytick_10">
     <g id="line2d_25">
      <path clip-path="url(#p59c321c461)" d="M 630.981818 456.804441 
L 1036.8 456.804441 
" style="fill:none;stroke:#b0b0b0;stroke-linecap:square;stroke-width:0.8;"/>
     </g>
     <g id="line2d_26">
      <g>
       <use style="stroke:#000000;stroke-width:0.8;" x="630.981818" xlink:href="#m1afbed176f" y="456.804441"/>
      </g>
     </g>
     <g id="text_20">
      <!-- 6 -->
      <g transform="translate(617.619318 460.60366)scale(0.1 -0.1)">
       <use xlink:href="#DejaVuSans-54"/>
      </g>
     </g>
    </g>
    <g id="ytick_11">
     <g id="line2d_27">
      <path clip-path="url(#p59c321c461)" d="M 630.981818 317.972843 
L 1036.8 317.972843 
" style="fill:none;stroke:#b0b0b0;stroke-linecap:square;stroke-width:0.8;"/>
     </g>
     <g id="line2d_28">
      <g>
       <use style="stroke:#000000;stroke-width:0.8;" x="630.981818" xlink:href="#m1afbed176f" y="317.972843"/>
      </g>
     </g>
     <g id="text_21">
      <!-- 8 -->
      <g transform="translate(617.619318 321.772061)scale(0.1 -0.1)">
       <use xlink:href="#DejaVuSans-56"/>
      </g>
     </g>
    </g>
    <g id="ytick_12">
     <g id="line2d_29">
      <path clip-path="url(#p59c321c461)" d="M 630.981818 179.141244 
L 1036.8 179.141244 
" style="fill:none;stroke:#b0b0b0;stroke-linecap:square;stroke-width:0.8;"/>
     </g>
     <g id="line2d_30">
      <g>
       <use style="stroke:#000000;stroke-width:0.8;" x="630.981818" xlink:href="#m1afbed176f" y="179.141244"/>
      </g>
     </g>
     <g id="text_22">
      <!-- 10 -->
      <g transform="translate(611.256818 182.940463)scale(0.1 -0.1)">
       <use xlink:href="#DejaVuSans-49"/>
       <use x="63.623047" xlink:href="#DejaVuSans-48"/>
      </g>
     </g>
    </g>
    <g id="text_23">
     <!-- Time (minutes) -->
     <g transform="translate(605.177131 539.596406)rotate(-90)scale(0.1 -0.1)">
      <use xlink:href="#DejaVuSans-84"/>
      <use x="61.037109" xlink:href="#DejaVuSans-105"/>
      <use x="88.820312" xlink:href="#DejaVuSans-109"/>
      <use x="186.232422" xlink:href="#DejaVuSans-101"/>
      <use x="247.755859" xlink:href="#DejaVuSans-32"/>
      <use x="279.542969" xlink:href="#DejaVuSans-40"/>
      <use x="318.556641" xlink:href="#DejaVuSans-109"/>
      <use x="415.96875" xlink:href="#DejaVuSans-105"/>
      <use x="443.751953" xlink:href="#DejaVuSans-110"/>
      <use x="507.130859" xlink:href="#DejaVuSans-117"/>
      <use x="570.509766" xlink:href="#DejaVuSans-116"/>
      <use x="609.71875" xlink:href="#DejaVuSans-101"/>
      <use x="671.242188" xlink:href="#DejaVuSans-115"/>
      <use x="723.341797" xlink:href="#DejaVuSans-41"/>
     </g>
    </g>
   </g>
   <g id="line2d_31">
    <path clip-path="url(#p59c321c461)" d="M 678.327273 734.036419 
L 718.909091 734.036419 
L 718.909091 694.174559 
L 678.327273 694.174559 
L 678.327273 734.036419 
" style="fill:none;stroke:#000000;stroke-linecap:square;"/>
   </g>
   <g id="line2d_32">
    <path clip-path="url(#p59c321c461)" d="M 698.618182 734.036419 
L 698.618182 784.330704 
" style="fill:none;stroke:#000000;stroke-linecap:square;"/>
   </g>
   <g id="line2d_33">
    <path clip-path="url(#p59c321c461)" d="M 698.618182 694.174559 
L 698.618182 658.742535 
" style="fill:none;stroke:#000000;stroke-linecap:square;"/>
   </g>
   <g id="line2d_34">
    <path clip-path="url(#p59c321c461)" d="M 688.472727 784.330704 
L 708.763636 784.330704 
" style="fill:none;stroke:#000000;stroke-linecap:square;"/>
   </g>
   <g id="line2d_35">
    <path clip-path="url(#p59c321c461)" d="M 688.472727 658.742535 
L 708.763636 658.742535 
" style="fill:none;stroke:#000000;stroke-linecap:square;"/>
   </g>
   <g id="line2d_36"/>
   <g id="line2d_37">
    <path clip-path="url(#p59c321c461)" d="M 813.6 337.755378 
L 854.181818 337.755378 
L 854.181818 216.257119 
L 813.6 216.257119 
L 813.6 337.755378 
" style="fill:none;stroke:#000000;stroke-linecap:square;"/>
   </g>
   <g id="line2d_38">
    <path clip-path="url(#p59c321c461)" d="M 833.890909 337.755378 
L 833.890909 434.480723 
" style="fill:none;stroke:#000000;stroke-linecap:square;"/>
   </g>
   <g id="line2d_39">
    <path clip-path="url(#p59c321c461)" d="M 833.890909 216.257119 
L 833.890909 155.552727 
" style="fill:none;stroke:#000000;stroke-linecap:square;"/>
   </g>
   <g id="line2d_40">
    <path clip-path="url(#p59c321c461)" d="M 823.745455 434.480723 
L 844.036364 434.480723 
" style="fill:none;stroke:#000000;stroke-linecap:square;"/>
   </g>
   <g id="line2d_41">
    <path clip-path="url(#p59c321c461)" d="M 823.745455 155.552727 
L 844.036364 155.552727 
" style="fill:none;stroke:#000000;stroke-linecap:square;"/>
   </g>
   <g id="line2d_42"/>
   <g id="line2d_43">
    <path clip-path="url(#p59c321c461)" d="M 948.872727 843.57776 
L 989.454545 843.57776 
L 989.454545 839.234114 
L 948.872727 839.234114 
L 948.872727 843.57776 
" style="fill:none;stroke:#000000;stroke-linecap:square;"/>
   </g>
   <g id="line2d_44">
    <path clip-path="url(#p59c321c461)" d="M 969.163636 843.57776 
L 969.163636 847.407273 
" style="fill:none;stroke:#000000;stroke-linecap:square;"/>
   </g>
   <g id="line2d_45">
    <path clip-path="url(#p59c321c461)" d="M 969.163636 839.234114 
L 969.163636 835.794749 
" style="fill:none;stroke:#000000;stroke-linecap:square;"/>
   </g>
   <g id="line2d_46">
    <path clip-path="url(#p59c321c461)" d="M 959.018182 847.407273 
L 979.309091 847.407273 
" style="fill:none;stroke:#000000;stroke-linecap:square;"/>
   </g>
   <g id="line2d_47">
    <path clip-path="url(#p59c321c461)" d="M 959.018182 835.794749 
L 979.309091 835.794749 
" style="fill:none;stroke:#000000;stroke-linecap:square;"/>
   </g>
   <g id="line2d_48"/>
   <g id="line2d_49">
    <path clip-path="url(#p59c321c461)" d="M 678.327273 700.381744 
L 718.909091 700.381744 
" style="fill:none;stroke:#ff7f0e;stroke-linecap:square;"/>
   </g>
   <g id="line2d_50">
    <path clip-path="url(#p59c321c461)" d="M 813.6 271.002757 
L 854.181818 271.002757 
" style="fill:none;stroke:#ff7f0e;stroke-linecap:square;"/>
   </g>
   <g id="line2d_51">
    <path clip-path="url(#p59c321c461)" d="M 948.872727 841.340913 
L 989.454545 841.340913 
" style="fill:none;stroke:#ff7f0e;stroke-linecap:square;"/>
   </g>
   <g id="patch_8">
    <path d="M 630.981818 882 
L 630.981818 120.96 
" style="fill:none;stroke:#000000;stroke-linecap:square;stroke-linejoin:miter;stroke-width:0.8;"/>
   </g>
   <g id="patch_9">
    <path d="M 1036.8 882 
L 1036.8 120.96 
" style="fill:none;stroke:#000000;stroke-linecap:square;stroke-linejoin:miter;stroke-width:0.8;"/>
   </g>
   <g id="patch_10">
    <path d="M 630.981818 882 
L 1036.8 882 
" style="fill:none;stroke:#000000;stroke-linecap:square;stroke-linejoin:miter;stroke-width:0.8;"/>
   </g>
   <g id="patch_11">
    <path d="M 630.981818 120.96 
L 1036.8 120.96 
" style="fill:none;stroke:#000000;stroke-linecap:square;stroke-linejoin:miter;stroke-width:0.8;"/>
   </g>
   <g id="text_24">
    <!-- Box plot - RNN (4 layers) training times vs GPU (3803 samples, 99.73% CI) -->
    <defs>
     <path d="M 19.671875 34.8125 
L 19.671875 8.109375 
L 35.5 8.109375 
Q 43.453125 8.109375 47.28125 11.40625 
Q 51.125 14.703125 51.125 21.484375 
Q 51.125 28.328125 47.28125 31.5625 
Q 43.453125 34.8125 35.5 34.8125 
z
M 19.671875 64.796875 
L 19.671875 42.828125 
L 34.28125 42.828125 
Q 41.5 42.828125 45.03125 45.53125 
Q 48.578125 48.25 48.578125 53.8125 
Q 48.578125 59.328125 45.03125 62.0625 
Q 41.5 64.796875 34.28125 64.796875 
z
M 9.8125 72.90625 
L 35.015625 72.90625 
Q 46.296875 72.90625 52.390625 68.21875 
Q 58.5 63.53125 58.5 54.890625 
Q 58.5 48.1875 55.375 44.234375 
Q 52.25 40.28125 46.1875 39.3125 
Q 53.46875 37.75 57.5 32.78125 
Q 61.53125 27.828125 61.53125 20.40625 
Q 61.53125 10.640625 54.890625 5.3125 
Q 48.25 0 35.984375 0 
L 9.8125 0 
z
" id="DejaVuSans-66"/>
     <path d="M 54.890625 54.6875 
L 35.109375 28.078125 
L 55.90625 0 
L 45.3125 0 
L 29.390625 21.484375 
L 13.484375 0 
L 2.875 0 
L 24.125 28.609375 
L 4.6875 54.6875 
L 15.28125 54.6875 
L 29.78125 35.203125 
L 44.28125 54.6875 
z
" id="DejaVuSans-120"/>
    </defs>
    <g transform="translate(609.380284 114.96)scale(0.12 -0.12)">
     <use xlink:href="#DejaVuSans-66"/>
     <use x="68.603516" xlink:href="#DejaVuSans-111"/>
     <use x="129.738281" xlink:href="#DejaVuSans-120"/>
     <use x="188.917969" xlink:href="#DejaVuSans-32"/>
     <use x="220.705078" xlink:href="#DejaVuSans-112"/>
     <use x="284.181641" xlink:href="#DejaVuSans-108"/>
     <use x="311.964844" xlink:href="#DejaVuSans-111"/>
     <use x="373.146484" xlink:href="#DejaVuSans-116"/>
     <use x="412.355469" xlink:href="#DejaVuSans-32"/>
     <use x="444.142578" xlink:href="#DejaVuSans-45"/>
     <use x="480.226562" xlink:href="#DejaVuSans-32"/>
     <use x="512.013672" xlink:href="#DejaVuSans-82"/>
     <use x="581.496094" xlink:href="#DejaVuSans-78"/>
     <use x="656.300781" xlink:href="#DejaVuSans-78"/>
     <use x="731.105469" xlink:href="#DejaVuSans-32"/>
     <use x="762.892578" xlink:href="#DejaVuSans-40"/>
     <use x="801.90625" xlink:href="#DejaVuSans-52"/>
     <use x="865.529297" xlink:href="#DejaVuSans-32"/>
     <use x="897.316406" xlink:href="#DejaVuSans-108"/>
     <use x="925.099609" xlink:href="#DejaVuSans-97"/>
     <use x="986.378906" xlink:href="#DejaVuSans-121"/>
     <use x="1045.558594" xlink:href="#DejaVuSans-101"/>
     <use x="1107.082031" xlink:href="#DejaVuSans-114"/>
     <use x="1148.195312" xlink:href="#DejaVuSans-115"/>
     <use x="1200.294922" xlink:href="#DejaVuSans-41"/>
     <use x="1239.308594" xlink:href="#DejaVuSans-32"/>
     <use x="1271.095703" xlink:href="#DejaVuSans-116"/>
     <use x="1310.304688" xlink:href="#DejaVuSans-114"/>
     <use x="1351.417969" xlink:href="#DejaVuSans-97"/>
     <use x="1412.697266" xlink:href="#DejaVuSans-105"/>
     <use x="1440.480469" xlink:href="#DejaVuSans-110"/>
     <use x="1503.859375" xlink:href="#DejaVuSans-105"/>
     <use x="1531.642578" xlink:href="#DejaVuSans-110"/>
     <use x="1595.021484" xlink:href="#DejaVuSans-103"/>
     <use x="1658.498047" xlink:href="#DejaVuSans-32"/>
     <use x="1690.285156" xlink:href="#DejaVuSans-116"/>
     <use x="1729.494141" xlink:href="#DejaVuSans-105"/>
     <use x="1757.277344" xlink:href="#DejaVuSans-109"/>
     <use x="1854.689453" xlink:href="#DejaVuSans-101"/>
     <use x="1916.212891" xlink:href="#DejaVuSans-115"/>
     <use x="1968.3125" xlink:href="#DejaVuSans-32"/>
     <use x="2000.099609" xlink:href="#DejaVuSans-118"/>
     <use x="2059.279297" xlink:href="#DejaVuSans-115"/>
     <use x="2111.378906" xlink:href="#DejaVuSans-32"/>
     <use x="2143.166016" xlink:href="#DejaVuSans-71"/>
     <use x="2220.65625" xlink:href="#DejaVuSans-80"/>
     <use x="2280.958984" xlink:href="#DejaVuSans-85"/>
     <use x="2354.152344" xlink:href="#DejaVuSans-32"/>
     <use x="2385.939453" xlink:href="#DejaVuSans-40"/>
     <use x="2424.953125" xlink:href="#DejaVuSans-51"/>
     <use x="2488.576172" xlink:href="#DejaVuSans-56"/>
     <use x="2552.199219" xlink:href="#DejaVuSans-48"/>
     <use x="2615.822266" xlink:href="#DejaVuSans-51"/>
     <use x="2679.445312" xlink:href="#DejaVuSans-32"/>
     <use x="2711.232422" xlink:href="#DejaVuSans-115"/>
     <use x="2763.332031" xlink:href="#DejaVuSans-97"/>
     <use x="2824.611328" xlink:href="#DejaVuSans-109"/>
     <use x="2922.023438" xlink:href="#DejaVuSans-112"/>
     <use x="2985.5" xlink:href="#DejaVuSans-108"/>
     <use x="3013.283203" xlink:href="#DejaVuSans-101"/>
     <use x="3074.806641" xlink:href="#DejaVuSans-115"/>
     <use x="3126.90625" xlink:href="#DejaVuSans-44"/>
     <use x="3158.693359" xlink:href="#DejaVuSans-32"/>
     <use x="3190.480469" xlink:href="#DejaVuSans-57"/>
     <use x="3254.103516" xlink:href="#DejaVuSans-57"/>
     <use x="3317.726562" xlink:href="#DejaVuSans-46"/>
     <use x="3349.513672" xlink:href="#DejaVuSans-55"/>
     <use x="3413.136719" xlink:href="#DejaVuSans-51"/>
     <use x="3476.759766" xlink:href="#DejaVuSans-37"/>
     <use x="3571.779297" xlink:href="#DejaVuSans-32"/>
     <use x="3603.566406" xlink:href="#DejaVuSans-67"/>
     <use x="3673.390625" xlink:href="#DejaVuSans-73"/>
     <use x="3702.882812" xlink:href="#DejaVuSans-41"/>
    </g>
   </g>
  </g>
 </g>
 <defs>
  <clipPath id="p739b8a397e">
   <rect height="761.04" width="405.818182" x="144" y="120.96"/>
  </clipPath>
  <clipPath id="p59c321c461">
   <rect height="761.04" width="405.818182" x="630.981818" y="120.96"/>
  </clipPath>
 </defs>
</svg>
