<?xml version="1.0" encoding="utf-8" standalone="no"?>
<!DOCTYPE svg PUBLIC "-//W3C//DTD SVG 1.1//EN"
  "http://www.w3.org/Graphics/SVG/1.1/DTD/svg11.dtd">
<!-- Created with matplotlib (https://matplotlib.org/) -->
<svg height="1008pt" version="1.1" viewBox="0 0 1152 1008" width="1152pt" xmlns="http://www.w3.org/2000/svg" xmlns:xlink="http://www.w3.org/1999/xlink">
 <defs>
  <style type="text/css">
*{stroke-linecap:butt;stroke-linejoin:round;white-space:pre;}
  </style>
 </defs>
 <g id="figure_1">
  <g id="patch_1">
   <path d="M 0 1008 
L 1152 1008 
L 1152 0 
L 0 0 
z
" style="fill:#ffffff;"/>
  </g>
  <g id="axes_1">
   <g id="patch_2">
    <path d="M 144 882 
L 549.818182 882 
L 549.818182 120.96 
L 144 120.96 
z
" style="fill:#ffffff;"/>
   </g>
   <g id="PolyCollection_1">
    <path clip-path="url(#pa9277ff9ad)" d="M 212.992264 823.928633 
L 164.603958 823.928633 
L 164.257774 819.31193 
L 163.938791 814.695226 
L 163.648165 810.078522 
L 163.386953 805.461819 
L 163.156108 800.845115 
L 162.956475 796.228412 
L 162.788781 791.611708 
L 162.653634 786.995004 
L 162.55152 782.378301 
L 162.482793 777.761597 
L 162.447682 773.144893 
L 162.446281 768.52819 
L 162.478553 763.911486 
L 162.544328 759.294783 
L 162.643303 754.678079 
L 162.775047 750.061375 
L 162.938998 745.444672 
L 163.134471 740.827968 
L 163.36066 736.211264 
L 163.61664 731.594561 
L 163.901377 726.977857 
L 164.213729 722.361154 
L 164.552457 717.74445 
L 164.91623 713.127746 
L 165.30363 708.511043 
L 165.713164 703.894339 
L 166.14327 699.277636 
L 166.592327 694.660932 
L 167.05866 690.044228 
L 167.540555 685.427525 
L 168.036262 680.810821 
L 168.54401 676.194117 
L 169.06201 671.577414 
L 169.588469 666.96071 
L 170.121595 662.344007 
L 170.65961 657.727303 
L 171.200754 653.110599 
L 171.743295 648.493896 
L 172.285538 643.877192 
L 172.82583 639.260488 
L 173.36257 634.643785 
L 173.894211 630.027081 
L 174.419271 625.410378 
L 174.936335 620.793674 
L 175.444061 616.17697 
L 175.941188 611.560267 
L 176.426532 606.943563 
L 176.898997 602.32686 
L 177.357574 597.710156 
L 177.801346 593.093452 
L 178.229486 588.476749 
L 178.641262 583.860045 
L 179.036034 579.243341 
L 179.413259 574.626638 
L 179.772487 570.009934 
L 180.113362 565.393231 
L 180.435619 560.776527 
L 180.739085 556.159823 
L 181.023677 551.54312 
L 181.289397 546.926416 
L 181.536331 542.309713 
L 181.764649 537.693009 
L 181.974595 533.076305 
L 182.16649 528.459602 
L 182.340725 523.842898 
L 182.497759 519.226194 
L 182.638111 514.609491 
L 182.762362 509.992787 
L 182.871144 505.376084 
L 182.96514 500.75938 
L 183.045076 496.142676 
L 183.111721 491.525973 
L 183.165875 486.909269 
L 183.208373 482.292565 
L 183.24007 477.675862 
L 183.261847 473.059158 
L 183.274596 468.442455 
L 183.279222 463.825751 
L 183.276636 459.209047 
L 183.26775 454.592344 
L 183.253472 449.97564 
L 183.234702 445.358937 
L 183.21233 440.742233 
L 183.187226 436.125529 
L 183.160243 431.508826 
L 183.132206 426.892122 
L 183.103914 422.275418 
L 183.076135 417.658715 
L 183.0496 413.042011 
L 183.025003 408.425308 
L 183.002998 403.808604 
L 182.984196 399.1919 
L 182.969162 394.575197 
L 182.958414 389.958493 
L 182.952422 385.341789 
L 182.951607 380.725086 
L 182.956336 376.108382 
L 182.966928 371.491679 
L 182.983649 366.874975 
L 194.612573 366.874975 
L 194.612573 366.874975 
L 194.629294 371.491679 
L 194.639886 376.108382 
L 194.644615 380.725086 
L 194.6438 385.341789 
L 194.637808 389.958493 
L 194.62706 394.575197 
L 194.612026 399.1919 
L 194.593224 403.808604 
L 194.571219 408.425308 
L 194.546622 413.042011 
L 194.520087 417.658715 
L 194.492308 422.275418 
L 194.464016 426.892122 
L 194.435979 431.508826 
L 194.408996 436.125529 
L 194.383892 440.742233 
L 194.36152 445.358937 
L 194.34275 449.97564 
L 194.328472 454.592344 
L 194.319586 459.209047 
L 194.317 463.825751 
L 194.321626 468.442455 
L 194.334375 473.059158 
L 194.356152 477.675862 
L 194.387849 482.292565 
L 194.430347 486.909269 
L 194.484501 491.525973 
L 194.551146 496.142676 
L 194.631082 500.75938 
L 194.725078 505.376084 
L 194.83386 509.992787 
L 194.958111 514.609491 
L 195.098463 519.226194 
L 195.255497 523.842898 
L 195.429732 528.459602 
L 195.621627 533.076305 
L 195.831573 537.693009 
L 196.059891 542.309713 
L 196.306825 546.926416 
L 196.572545 551.54312 
L 196.857137 556.159823 
L 197.160603 560.776527 
L 197.48286 565.393231 
L 197.823735 570.009934 
L 198.182963 574.626638 
L 198.560188 579.243341 
L 198.95496 583.860045 
L 199.366736 588.476749 
L 199.794876 593.093452 
L 200.238648 597.710156 
L 200.697225 602.32686 
L 201.16969 606.943563 
L 201.655034 611.560267 
L 202.15216 616.17697 
L 202.659887 620.793674 
L 203.176951 625.410378 
L 203.702011 630.027081 
L 204.233652 634.643785 
L 204.770392 639.260488 
L 205.310684 643.877192 
L 205.852927 648.493896 
L 206.395468 653.110599 
L 206.936612 657.727303 
L 207.474627 662.344007 
L 208.007753 666.96071 
L 208.534212 671.577414 
L 209.052212 676.194117 
L 209.55996 680.810821 
L 210.055667 685.427525 
L 210.537562 690.044228 
L 211.003895 694.660932 
L 211.452952 699.277636 
L 211.883058 703.894339 
L 212.292592 708.511043 
L 212.679992 713.127746 
L 213.043765 717.74445 
L 213.382493 722.361154 
L 213.694845 726.977857 
L 213.979582 731.594561 
L 214.235562 736.211264 
L 214.46175 740.827968 
L 214.657224 745.444672 
L 214.821175 750.061375 
L 214.952919 754.678079 
L 215.051894 759.294783 
L 215.117669 763.911486 
L 215.149941 768.52819 
L 215.14854 773.144893 
L 215.113429 777.761597 
L 215.044702 782.378301 
L 214.942588 786.995004 
L 214.807441 791.611708 
L 214.639747 796.228412 
L 214.440114 800.845115 
L 214.209269 805.461819 
L 213.948057 810.078522 
L 213.657431 814.695226 
L 213.338448 819.31193 
L 212.992264 823.928633 
z
" style="fill:#1f77b4;fill-opacity:0.3;"/>
   </g>
   <g id="PolyCollection_2">
    <path clip-path="url(#pa9277ff9ad)" d="M 312.911363 847.407273 
L 275.499499 847.407273 
L 275.021793 843.849144 
L 274.552297 840.291016 
L 274.091859 836.732888 
L 273.641319 833.17476 
L 273.201509 829.616632 
L 272.773252 826.058503 
L 272.357368 822.500375 
L 271.954671 818.942247 
L 271.565972 815.384119 
L 271.19208 811.82599 
L 270.8338 808.267862 
L 270.491936 804.709734 
L 270.167287 801.151606 
L 269.860652 797.593477 
L 269.572823 794.035349 
L 269.304585 790.477221 
L 269.056713 786.919093 
L 268.829971 783.360964 
L 268.625103 779.802836 
L 268.442836 776.244708 
L 268.283867 772.68658 
L 268.148863 769.128451 
L 268.038451 765.570323 
L 267.953216 762.012195 
L 267.893691 758.454067 
L 267.86035 754.895938 
L 267.853601 751.33781 
L 267.873782 747.779682 
L 267.92115 744.221554 
L 267.995877 740.663425 
L 268.098042 737.105297 
L 268.227626 733.547169 
L 268.384507 729.989041 
L 268.568455 726.430912 
L 268.779127 722.872784 
L 269.016068 719.314656 
L 269.278705 715.756528 
L 269.566347 712.198399 
L 269.878189 708.640271 
L 270.213307 705.082143 
L 270.570666 701.524015 
L 270.949121 697.965886 
L 271.347421 694.407758 
L 271.764217 690.84963 
L 272.198069 687.291502 
L 272.647451 683.733374 
L 273.110762 680.175245 
L 273.586336 676.617117 
L 274.072452 673.058989 
L 274.567344 669.500861 
L 275.069213 665.942732 
L 275.57624 662.384604 
L 276.086598 658.826476 
L 276.598464 655.268348 
L 277.110032 651.710219 
L 277.619524 648.152091 
L 278.125204 644.593963 
L 278.625391 641.035835 
L 279.118466 637.477706 
L 279.602887 633.919578 
L 280.0772 630.36145 
L 280.540042 626.803322 
L 280.990158 623.245193 
L 281.426403 619.687065 
L 281.847751 616.128937 
L 282.2533 612.570809 
L 282.642277 609.01268 
L 283.014041 605.454552 
L 283.368085 601.896424 
L 283.704039 598.338296 
L 284.021668 594.780167 
L 284.32087 591.222039 
L 284.601677 587.663911 
L 284.864248 584.105783 
L 285.108867 580.547654 
L 285.335937 576.989526 
L 285.545972 573.431398 
L 285.739591 569.87327 
L 285.917512 566.315141 
L 286.080538 562.757013 
L 286.229551 559.198885 
L 286.365504 555.640757 
L 286.489407 552.082629 
L 286.602317 548.5245 
L 286.70533 544.966372 
L 286.799565 541.408244 
L 286.88616 537.850116 
L 286.966255 534.291987 
L 287.040985 530.733859 
L 287.111469 527.175731 
L 287.1788 523.617603 
L 287.244036 520.059474 
L 287.308191 516.501346 
L 287.372228 512.943218 
L 287.437052 509.38509 
L 287.503501 505.826961 
L 287.572345 502.268833 
L 287.644276 498.710705 
L 287.719911 495.152577 
L 300.690951 495.152577 
L 300.690951 495.152577 
L 300.766585 498.710705 
L 300.838517 502.268833 
L 300.907361 505.826961 
L 300.97381 509.38509 
L 301.038634 512.943218 
L 301.102671 516.501346 
L 301.166826 520.059474 
L 301.232062 523.617603 
L 301.299393 527.175731 
L 301.369877 530.733859 
L 301.444607 534.291987 
L 301.524702 537.850116 
L 301.611297 541.408244 
L 301.705532 544.966372 
L 301.808545 548.5245 
L 301.921455 552.082629 
L 302.045358 555.640757 
L 302.181311 559.198885 
L 302.330324 562.757013 
L 302.49335 566.315141 
L 302.67127 569.87327 
L 302.86489 573.431398 
L 303.074925 576.989526 
L 303.301995 580.547654 
L 303.546614 584.105783 
L 303.809185 587.663911 
L 304.089992 591.222039 
L 304.389194 594.780167 
L 304.706823 598.338296 
L 305.042777 601.896424 
L 305.396821 605.454552 
L 305.768585 609.01268 
L 306.157562 612.570809 
L 306.563111 616.128937 
L 306.984459 619.687065 
L 307.420704 623.245193 
L 307.87082 626.803322 
L 308.333662 630.36145 
L 308.807975 633.919578 
L 309.292396 637.477706 
L 309.785471 641.035835 
L 310.285658 644.593963 
L 310.791338 648.152091 
L 311.30083 651.710219 
L 311.812398 655.268348 
L 312.324264 658.826476 
L 312.834622 662.384604 
L 313.341649 665.942732 
L 313.843518 669.500861 
L 314.33841 673.058989 
L 314.824525 676.617117 
L 315.3001 680.175245 
L 315.763411 683.733374 
L 316.212793 687.291502 
L 316.646645 690.84963 
L 317.063441 694.407758 
L 317.461741 697.965886 
L 317.840195 701.524015 
L 318.197554 705.082143 
L 318.532673 708.640271 
L 318.844514 712.198399 
L 319.132157 715.756528 
L 319.394794 719.314656 
L 319.631735 722.872784 
L 319.842407 726.430912 
L 320.026354 729.989041 
L 320.183235 733.547169 
L 320.312819 737.105297 
L 320.414984 740.663425 
L 320.489711 744.221554 
L 320.53708 747.779682 
L 320.557261 751.33781 
L 320.550512 754.895938 
L 320.517171 758.454067 
L 320.457645 762.012195 
L 320.372411 765.570323 
L 320.261999 769.128451 
L 320.126995 772.68658 
L 319.968026 776.244708 
L 319.785758 779.802836 
L 319.580891 783.360964 
L 319.354149 786.919093 
L 319.106277 790.477221 
L 318.838039 794.035349 
L 318.55021 797.593477 
L 318.243575 801.151606 
L 317.918926 804.709734 
L 317.577062 808.267862 
L 317.218782 811.82599 
L 316.844889 815.384119 
L 316.456191 818.942247 
L 316.053494 822.500375 
L 315.63761 826.058503 
L 315.209353 829.616632 
L 314.769543 833.17476 
L 314.319003 836.732888 
L 313.858565 840.291016 
L 313.389069 843.849144 
L 312.911363 847.407273 
z
" style="fill:#1f77b4;fill-opacity:0.3;"/>
   </g>
   <g id="PolyCollection_3">
    <path clip-path="url(#pa9277ff9ad)" d="M 414.895443 775.776024 
L 384.330059 775.776024 
L 384.201206 775.501829 
L 384.074183 775.227634 
L 383.948879 774.953439 
L 383.825175 774.679244 
L 383.702945 774.405049 
L 383.582058 774.130853 
L 383.462376 773.856658 
L 383.343755 773.582463 
L 383.226046 773.308268 
L 383.109098 773.034073 
L 382.992754 772.759878 
L 382.876857 772.485683 
L 382.761243 772.211488 
L 382.645752 771.937293 
L 382.53022 771.663098 
L 382.414483 771.388903 
L 382.29838 771.114708 
L 382.181748 770.840512 
L 382.06443 770.566317 
L 381.94627 770.292122 
L 381.827115 770.017927 
L 381.70682 769.743732 
L 381.585242 769.469537 
L 381.462246 769.195342 
L 381.337704 768.921147 
L 381.211494 768.646952 
L 381.083505 768.372757 
L 380.953633 768.098562 
L 380.821785 767.824366 
L 380.687879 767.550171 
L 380.551842 767.275976 
L 380.413615 767.001781 
L 380.27315 766.727586 
L 380.130412 766.453391 
L 379.98538 766.179196 
L 379.838045 765.905001 
L 379.688415 765.630806 
L 379.536509 765.356611 
L 379.382364 765.082416 
L 379.226029 764.808221 
L 379.067571 764.534025 
L 378.90707 764.25983 
L 378.744623 763.985635 
L 378.580341 763.71144 
L 378.414352 763.437245 
L 378.246797 763.16305 
L 378.077835 762.888855 
L 377.907639 762.61466 
L 377.736395 762.340465 
L 377.564304 762.06627 
L 377.391584 761.792075 
L 377.218461 761.51788 
L 377.04518 761.243684 
L 376.871993 760.969489 
L 376.699169 760.695294 
L 376.526984 760.421099 
L 376.355727 760.146904 
L 376.185697 759.872709 
L 376.0172 759.598514 
L 375.850552 759.324319 
L 375.686076 759.050124 
L 375.524102 758.775929 
L 375.364964 758.501734 
L 375.209002 758.227539 
L 375.056561 757.953343 
L 374.907984 757.679148 
L 374.763621 757.404953 
L 374.623819 757.130758 
L 374.488926 756.856563 
L 374.359289 756.582368 
L 374.235251 756.308173 
L 374.117153 756.033978 
L 374.005331 755.759783 
L 373.900113 755.485588 
L 373.801825 755.211393 
L 373.710782 754.937197 
L 373.62729 754.663002 
L 373.551647 754.388807 
L 373.484142 754.114612 
L 373.425048 753.840417 
L 373.374629 753.566222 
L 373.333136 753.292027 
L 373.300805 753.017832 
L 373.277857 752.743637 
L 373.264499 752.469442 
L 373.260921 752.195247 
L 373.267296 751.921052 
L 373.283782 751.646856 
L 373.310516 751.372661 
L 373.347619 751.098466 
L 373.395194 750.824271 
L 373.453323 750.550076 
L 373.522072 750.275881 
L 373.601483 750.001686 
L 373.691584 749.727491 
L 373.792379 749.453296 
L 373.903855 749.179101 
L 374.025978 748.904906 
L 374.158695 748.630711 
L 425.066807 748.630711 
L 425.066807 748.630711 
L 425.199524 748.904906 
L 425.321647 749.179101 
L 425.433123 749.453296 
L 425.533918 749.727491 
L 425.624018 750.001686 
L 425.70343 750.275881 
L 425.772178 750.550076 
L 425.830308 750.824271 
L 425.877883 751.098466 
L 425.914986 751.372661 
L 425.94172 751.646856 
L 425.958205 751.921052 
L 425.964581 752.195247 
L 425.961003 752.469442 
L 425.947645 752.743637 
L 425.924697 753.017832 
L 425.892366 753.292027 
L 425.850873 753.566222 
L 425.800454 753.840417 
L 425.74136 754.114612 
L 425.673854 754.388807 
L 425.598212 754.663002 
L 425.51472 754.937197 
L 425.423677 755.211393 
L 425.325388 755.485588 
L 425.220171 755.759783 
L 425.108349 756.033978 
L 424.990251 756.308173 
L 424.866213 756.582368 
L 424.736576 756.856563 
L 424.601683 757.130758 
L 424.461881 757.404953 
L 424.317518 757.679148 
L 424.168941 757.953343 
L 424.016499 758.227539 
L 423.860538 758.501734 
L 423.7014 758.775929 
L 423.539426 759.050124 
L 423.37495 759.324319 
L 423.208302 759.598514 
L 423.039805 759.872709 
L 422.869775 760.146904 
L 422.698518 760.421099 
L 422.526333 760.695294 
L 422.353508 760.969489 
L 422.180322 761.243684 
L 422.00704 761.51788 
L 421.833918 761.792075 
L 421.661197 762.06627 
L 421.489107 762.340465 
L 421.317863 762.61466 
L 421.147666 762.888855 
L 420.978705 763.16305 
L 420.81115 763.437245 
L 420.645161 763.71144 
L 420.480879 763.985635 
L 420.318432 764.25983 
L 420.157931 764.534025 
L 419.999472 764.808221 
L 419.843138 765.082416 
L 419.688992 765.356611 
L 419.537087 765.630806 
L 419.387456 765.905001 
L 419.240122 766.179196 
L 419.09509 766.453391 
L 418.952352 766.727586 
L 418.811887 767.001781 
L 418.67366 767.275976 
L 418.537623 767.550171 
L 418.403717 767.824366 
L 418.271869 768.098562 
L 418.141997 768.372757 
L 418.014008 768.646952 
L 417.887798 768.921147 
L 417.763256 769.195342 
L 417.64026 769.469537 
L 417.518682 769.743732 
L 417.398386 770.017927 
L 417.279232 770.292122 
L 417.161072 770.566317 
L 417.043754 770.840512 
L 416.927122 771.114708 
L 416.811019 771.388903 
L 416.695282 771.663098 
L 416.57975 771.937293 
L 416.464259 772.211488 
L 416.348645 772.485683 
L 416.232747 772.759878 
L 416.116404 773.034073 
L 415.999456 773.308268 
L 415.881747 773.582463 
L 415.763126 773.856658 
L 415.643443 774.130853 
L 415.522556 774.405049 
L 415.400327 774.679244 
L 415.276623 774.953439 
L 415.151319 775.227634 
L 415.024296 775.501829 
L 414.895443 775.776024 
z
" style="fill:#1f77b4;fill-opacity:0.3;"/>
   </g>
   <g id="PolyCollection_4">
    <path clip-path="url(#pa9277ff9ad)" d="M 526.443803 617.731533 
L 483.596338 617.731533 
L 483.173087 613.06306 
L 482.763395 608.394587 
L 482.368309 603.726115 
L 481.988843 599.057642 
L 481.625978 594.389169 
L 481.280654 589.720696 
L 480.953766 585.052224 
L 480.646161 580.383751 
L 480.358629 575.715278 
L 480.091899 571.046805 
L 479.84664 566.378332 
L 479.623449 561.70986 
L 479.422852 557.041387 
L 479.2453 552.372914 
L 479.091164 547.704441 
L 478.960732 543.035968 
L 478.854209 538.367496 
L 478.771714 533.699023 
L 478.713276 529.03055 
L 478.678835 524.362077 
L 478.668241 519.693605 
L 478.681255 515.025132 
L 478.717546 510.356659 
L 478.776697 505.688186 
L 478.8582 501.019713 
L 478.961464 496.351241 
L 479.085813 491.682768 
L 479.230492 487.014295 
L 479.394667 482.345822 
L 479.577432 477.677349 
L 479.777815 473.008877 
L 479.994775 468.340404 
L 480.227216 463.671931 
L 480.473988 459.003458 
L 480.733894 454.334986 
L 481.005696 449.666513 
L 481.28812 444.99804 
L 481.579869 440.329567 
L 481.87962 435.661094 
L 482.186039 430.992622 
L 482.497788 426.324149 
L 482.813525 421.655676 
L 483.131921 416.987203 
L 483.451659 412.31873 
L 483.771448 407.650258 
L 484.090023 402.981785 
L 484.406158 398.313312 
L 484.71867 393.644839 
L 485.026424 388.976367 
L 485.328341 384.307894 
L 485.623404 379.639421 
L 485.910662 374.970948 
L 486.189234 370.302475 
L 486.458316 365.634003 
L 486.717183 360.96553 
L 486.965191 356.297057 
L 487.201784 351.628584 
L 487.426493 346.960111 
L 487.638938 342.291639 
L 487.838832 337.623166 
L 488.025975 332.954693 
L 488.200262 328.28622 
L 488.361678 323.617748 
L 488.510296 318.949275 
L 488.646276 314.280802 
L 488.769867 309.612329 
L 488.881397 304.943856 
L 488.981275 300.275384 
L 489.069984 295.606911 
L 489.14808 290.938438 
L 489.216183 286.269965 
L 489.274977 281.601492 
L 489.325201 276.93302 
L 489.367642 272.264547 
L 489.403135 267.596074 
L 489.432552 262.927601 
L 489.456794 258.259129 
L 489.476792 253.590656 
L 489.493493 248.922183 
L 489.507856 244.25371 
L 489.520846 239.585237 
L 489.533428 234.916765 
L 489.54656 230.248292 
L 489.561184 225.579819 
L 489.578225 220.911346 
L 489.598582 216.242873 
L 489.623123 211.574401 
L 489.652679 206.905928 
L 489.688041 202.237455 
L 489.729953 197.568982 
L 489.779112 192.90051 
L 489.836159 188.232037 
L 489.901678 183.563564 
L 489.976195 178.895091 
L 490.060174 174.226618 
L 490.154013 169.558146 
L 490.258046 164.889673 
L 490.372542 160.2212 
L 490.4977 155.552727 
L 519.542441 155.552727 
L 519.542441 155.552727 
L 519.6676 160.2212 
L 519.782095 164.889673 
L 519.886129 169.558146 
L 519.979968 174.226618 
L 520.063946 178.895091 
L 520.138464 183.563564 
L 520.203983 188.232037 
L 520.26103 192.90051 
L 520.310188 197.568982 
L 520.352101 202.237455 
L 520.387463 206.905928 
L 520.417019 211.574401 
L 520.44156 216.242873 
L 520.461917 220.911346 
L 520.478958 225.579819 
L 520.493582 230.248292 
L 520.506713 234.916765 
L 520.519296 239.585237 
L 520.532286 244.25371 
L 520.546649 248.922183 
L 520.563349 253.590656 
L 520.583347 258.259129 
L 520.60759 262.927601 
L 520.637006 267.596074 
L 520.6725 272.264547 
L 520.714941 276.93302 
L 520.765164 281.601492 
L 520.823958 286.269965 
L 520.892062 290.938438 
L 520.970157 295.606911 
L 521.058867 300.275384 
L 521.158744 304.943856 
L 521.270274 309.612329 
L 521.393865 314.280802 
L 521.529846 318.949275 
L 521.678464 323.617748 
L 521.839879 328.28622 
L 522.014167 332.954693 
L 522.20131 337.623166 
L 522.401203 342.291639 
L 522.613649 346.960111 
L 522.838358 351.628584 
L 523.074951 356.297057 
L 523.322959 360.96553 
L 523.581825 365.634003 
L 523.850907 370.302475 
L 524.129479 374.970948 
L 524.416737 379.639421 
L 524.711801 384.307894 
L 525.013718 388.976367 
L 525.321472 393.644839 
L 525.633984 398.313312 
L 525.950119 402.981785 
L 526.268694 407.650258 
L 526.588482 412.31873 
L 526.908221 416.987203 
L 527.226617 421.655676 
L 527.542354 426.324149 
L 527.854102 430.992622 
L 528.160522 435.661094 
L 528.460273 440.329567 
L 528.752021 444.99804 
L 529.034446 449.666513 
L 529.306248 454.334986 
L 529.566154 459.003458 
L 529.812926 463.671931 
L 530.045367 468.340404 
L 530.262327 473.008877 
L 530.462709 477.677349 
L 530.645475 482.345822 
L 530.80965 487.014295 
L 530.954328 491.682768 
L 531.078677 496.351241 
L 531.181941 501.019713 
L 531.263445 505.688186 
L 531.322595 510.356659 
L 531.358887 515.025132 
L 531.371901 519.693605 
L 531.361307 524.362077 
L 531.326866 529.03055 
L 531.268427 533.699023 
L 531.185932 538.367496 
L 531.07941 543.035968 
L 530.948978 547.704441 
L 530.794841 552.372914 
L 530.617289 557.041387 
L 530.416693 561.70986 
L 530.193502 566.378332 
L 529.948242 571.046805 
L 529.681513 575.715278 
L 529.39398 580.383751 
L 529.086375 585.052224 
L 528.759488 589.720696 
L 528.414164 594.389169 
L 528.051299 599.057642 
L 527.671833 603.726115 
L 527.276746 608.394587 
L 526.867055 613.06306 
L 526.443803 617.731533 
z
" style="fill:#1f77b4;fill-opacity:0.3;"/>
   </g>
   <g id="matplotlib.axis_1">
    <g id="xtick_1">
     <g id="line2d_1">
      <defs>
       <path d="M 0 0 
L 0 3.5 
" id="me5b5f3075e" style="stroke:#000000;stroke-width:0.8;"/>
      </defs>
      <g>
       <use style="stroke:#000000;stroke-width:0.8;" x="188.798111" xlink:href="#me5b5f3075e" y="882"/>
      </g>
     </g>
     <g id="text_1">
      <!-- Tesla P100 -->
      <defs>
       <path d="M -0.296875 72.90625 
L 61.375 72.90625 
L 61.375 64.59375 
L 35.5 64.59375 
L 35.5 0 
L 25.59375 0 
L 25.59375 64.59375 
L -0.296875 64.59375 
z
" id="DejaVuSans-84"/>
       <path d="M 56.203125 29.59375 
L 56.203125 25.203125 
L 14.890625 25.203125 
Q 15.484375 15.921875 20.484375 11.0625 
Q 25.484375 6.203125 34.421875 6.203125 
Q 39.59375 6.203125 44.453125 7.46875 
Q 49.3125 8.734375 54.109375 11.28125 
L 54.109375 2.78125 
Q 49.265625 0.734375 44.1875 -0.34375 
Q 39.109375 -1.421875 33.890625 -1.421875 
Q 20.796875 -1.421875 13.15625 6.1875 
Q 5.515625 13.8125 5.515625 26.8125 
Q 5.515625 40.234375 12.765625 48.109375 
Q 20.015625 56 32.328125 56 
Q 43.359375 56 49.78125 48.890625 
Q 56.203125 41.796875 56.203125 29.59375 
z
M 47.21875 32.234375 
Q 47.125 39.59375 43.09375 43.984375 
Q 39.0625 48.390625 32.421875 48.390625 
Q 24.90625 48.390625 20.390625 44.140625 
Q 15.875 39.890625 15.1875 32.171875 
z
" id="DejaVuSans-101"/>
       <path d="M 44.28125 53.078125 
L 44.28125 44.578125 
Q 40.484375 46.53125 36.375 47.5 
Q 32.28125 48.484375 27.875 48.484375 
Q 21.1875 48.484375 17.84375 46.4375 
Q 14.5 44.390625 14.5 40.28125 
Q 14.5 37.15625 16.890625 35.375 
Q 19.28125 33.59375 26.515625 31.984375 
L 29.59375 31.296875 
Q 39.15625 29.25 43.1875 25.515625 
Q 47.21875 21.78125 47.21875 15.09375 
Q 47.21875 7.46875 41.1875 3.015625 
Q 35.15625 -1.421875 24.609375 -1.421875 
Q 20.21875 -1.421875 15.453125 -0.5625 
Q 10.6875 0.296875 5.421875 2 
L 5.421875 11.28125 
Q 10.40625 8.6875 15.234375 7.390625 
Q 20.0625 6.109375 24.8125 6.109375 
Q 31.15625 6.109375 34.5625 8.28125 
Q 37.984375 10.453125 37.984375 14.40625 
Q 37.984375 18.0625 35.515625 20.015625 
Q 33.0625 21.96875 24.703125 23.78125 
L 21.578125 24.515625 
Q 13.234375 26.265625 9.515625 29.90625 
Q 5.8125 33.546875 5.8125 39.890625 
Q 5.8125 47.609375 11.28125 51.796875 
Q 16.75 56 26.8125 56 
Q 31.78125 56 36.171875 55.265625 
Q 40.578125 54.546875 44.28125 53.078125 
z
" id="DejaVuSans-115"/>
       <path d="M 9.421875 75.984375 
L 18.40625 75.984375 
L 18.40625 0 
L 9.421875 0 
z
" id="DejaVuSans-108"/>
       <path d="M 34.28125 27.484375 
Q 23.390625 27.484375 19.1875 25 
Q 14.984375 22.515625 14.984375 16.5 
Q 14.984375 11.71875 18.140625 8.90625 
Q 21.296875 6.109375 26.703125 6.109375 
Q 34.1875 6.109375 38.703125 11.40625 
Q 43.21875 16.703125 43.21875 25.484375 
L 43.21875 27.484375 
z
M 52.203125 31.203125 
L 52.203125 0 
L 43.21875 0 
L 43.21875 8.296875 
Q 40.140625 3.328125 35.546875 0.953125 
Q 30.953125 -1.421875 24.3125 -1.421875 
Q 15.921875 -1.421875 10.953125 3.296875 
Q 6 8.015625 6 15.921875 
Q 6 25.140625 12.171875 29.828125 
Q 18.359375 34.515625 30.609375 34.515625 
L 43.21875 34.515625 
L 43.21875 35.40625 
Q 43.21875 41.609375 39.140625 45 
Q 35.0625 48.390625 27.6875 48.390625 
Q 23 48.390625 18.546875 47.265625 
Q 14.109375 46.140625 10.015625 43.890625 
L 10.015625 52.203125 
Q 14.9375 54.109375 19.578125 55.046875 
Q 24.21875 56 28.609375 56 
Q 40.484375 56 46.34375 49.84375 
Q 52.203125 43.703125 52.203125 31.203125 
z
" id="DejaVuSans-97"/>
       <path id="DejaVuSans-32"/>
       <path d="M 19.671875 64.796875 
L 19.671875 37.40625 
L 32.078125 37.40625 
Q 38.96875 37.40625 42.71875 40.96875 
Q 46.484375 44.53125 46.484375 51.125 
Q 46.484375 57.671875 42.71875 61.234375 
Q 38.96875 64.796875 32.078125 64.796875 
z
M 9.8125 72.90625 
L 32.078125 72.90625 
Q 44.34375 72.90625 50.609375 67.359375 
Q 56.890625 61.8125 56.890625 51.125 
Q 56.890625 40.328125 50.609375 34.8125 
Q 44.34375 29.296875 32.078125 29.296875 
L 19.671875 29.296875 
L 19.671875 0 
L 9.8125 0 
z
" id="DejaVuSans-80"/>
       <path d="M 12.40625 8.296875 
L 28.515625 8.296875 
L 28.515625 63.921875 
L 10.984375 60.40625 
L 10.984375 69.390625 
L 28.421875 72.90625 
L 38.28125 72.90625 
L 38.28125 8.296875 
L 54.390625 8.296875 
L 54.390625 0 
L 12.40625 0 
z
" id="DejaVuSans-49"/>
       <path d="M 31.78125 66.40625 
Q 24.171875 66.40625 20.328125 58.90625 
Q 16.5 51.421875 16.5 36.375 
Q 16.5 21.390625 20.328125 13.890625 
Q 24.171875 6.390625 31.78125 6.390625 
Q 39.453125 6.390625 43.28125 13.890625 
Q 47.125 21.390625 47.125 36.375 
Q 47.125 51.421875 43.28125 58.90625 
Q 39.453125 66.40625 31.78125 66.40625 
z
M 31.78125 74.21875 
Q 44.046875 74.21875 50.515625 64.515625 
Q 56.984375 54.828125 56.984375 36.375 
Q 56.984375 17.96875 50.515625 8.265625 
Q 44.046875 -1.421875 31.78125 -1.421875 
Q 19.53125 -1.421875 13.0625 8.265625 
Q 6.59375 17.96875 6.59375 36.375 
Q 6.59375 54.828125 13.0625 64.515625 
Q 19.53125 74.21875 31.78125 74.21875 
z
" id="DejaVuSans-48"/>
      </defs>
      <g transform="translate(161.475455 896.598438)scale(0.1 -0.1)">
       <use xlink:href="#DejaVuSans-84"/>
       <use x="60.818359" xlink:href="#DejaVuSans-101"/>
       <use x="122.341797" xlink:href="#DejaVuSans-115"/>
       <use x="174.441406" xlink:href="#DejaVuSans-108"/>
       <use x="202.224609" xlink:href="#DejaVuSans-97"/>
       <use x="263.503906" xlink:href="#DejaVuSans-32"/>
       <use x="295.291016" xlink:href="#DejaVuSans-80"/>
       <use x="355.59375" xlink:href="#DejaVuSans-49"/>
       <use x="419.216797" xlink:href="#DejaVuSans-48"/>
       <use x="482.839844" xlink:href="#DejaVuSans-48"/>
      </g>
      <!-- (17.50 mins/model) -->
      <defs>
       <path d="M 31 75.875 
Q 24.46875 64.65625 21.28125 53.65625 
Q 18.109375 42.671875 18.109375 31.390625 
Q 18.109375 20.125 21.3125 9.0625 
Q 24.515625 -2 31 -13.1875 
L 23.1875 -13.1875 
Q 15.875 -1.703125 12.234375 9.375 
Q 8.59375 20.453125 8.59375 31.390625 
Q 8.59375 42.28125 12.203125 53.3125 
Q 15.828125 64.359375 23.1875 75.875 
z
" id="DejaVuSans-40"/>
       <path d="M 8.203125 72.90625 
L 55.078125 72.90625 
L 55.078125 68.703125 
L 28.609375 0 
L 18.3125 0 
L 43.21875 64.59375 
L 8.203125 64.59375 
z
" id="DejaVuSans-55"/>
       <path d="M 10.6875 12.40625 
L 21 12.40625 
L 21 0 
L 10.6875 0 
z
" id="DejaVuSans-46"/>
       <path d="M 10.796875 72.90625 
L 49.515625 72.90625 
L 49.515625 64.59375 
L 19.828125 64.59375 
L 19.828125 46.734375 
Q 21.96875 47.46875 24.109375 47.828125 
Q 26.265625 48.1875 28.421875 48.1875 
Q 40.625 48.1875 47.75 41.5 
Q 54.890625 34.8125 54.890625 23.390625 
Q 54.890625 11.625 47.5625 5.09375 
Q 40.234375 -1.421875 26.90625 -1.421875 
Q 22.3125 -1.421875 17.546875 -0.640625 
Q 12.796875 0.140625 7.71875 1.703125 
L 7.71875 11.625 
Q 12.109375 9.234375 16.796875 8.0625 
Q 21.484375 6.890625 26.703125 6.890625 
Q 35.15625 6.890625 40.078125 11.328125 
Q 45.015625 15.765625 45.015625 23.390625 
Q 45.015625 31 40.078125 35.4375 
Q 35.15625 39.890625 26.703125 39.890625 
Q 22.75 39.890625 18.8125 39.015625 
Q 14.890625 38.140625 10.796875 36.28125 
z
" id="DejaVuSans-53"/>
       <path d="M 52 44.1875 
Q 55.375 50.25 60.0625 53.125 
Q 64.75 56 71.09375 56 
Q 79.640625 56 84.28125 50.015625 
Q 88.921875 44.046875 88.921875 33.015625 
L 88.921875 0 
L 79.890625 0 
L 79.890625 32.71875 
Q 79.890625 40.578125 77.09375 44.375 
Q 74.3125 48.1875 68.609375 48.1875 
Q 61.625 48.1875 57.5625 43.546875 
Q 53.515625 38.921875 53.515625 30.90625 
L 53.515625 0 
L 44.484375 0 
L 44.484375 32.71875 
Q 44.484375 40.625 41.703125 44.40625 
Q 38.921875 48.1875 33.109375 48.1875 
Q 26.21875 48.1875 22.15625 43.53125 
Q 18.109375 38.875 18.109375 30.90625 
L 18.109375 0 
L 9.078125 0 
L 9.078125 54.6875 
L 18.109375 54.6875 
L 18.109375 46.1875 
Q 21.1875 51.21875 25.484375 53.609375 
Q 29.78125 56 35.6875 56 
Q 41.65625 56 45.828125 52.96875 
Q 50 49.953125 52 44.1875 
z
" id="DejaVuSans-109"/>
       <path d="M 9.421875 54.6875 
L 18.40625 54.6875 
L 18.40625 0 
L 9.421875 0 
z
M 9.421875 75.984375 
L 18.40625 75.984375 
L 18.40625 64.59375 
L 9.421875 64.59375 
z
" id="DejaVuSans-105"/>
       <path d="M 54.890625 33.015625 
L 54.890625 0 
L 45.90625 0 
L 45.90625 32.71875 
Q 45.90625 40.484375 42.875 44.328125 
Q 39.84375 48.1875 33.796875 48.1875 
Q 26.515625 48.1875 22.3125 43.546875 
Q 18.109375 38.921875 18.109375 30.90625 
L 18.109375 0 
L 9.078125 0 
L 9.078125 54.6875 
L 18.109375 54.6875 
L 18.109375 46.1875 
Q 21.34375 51.125 25.703125 53.5625 
Q 30.078125 56 35.796875 56 
Q 45.21875 56 50.046875 50.171875 
Q 54.890625 44.34375 54.890625 33.015625 
z
" id="DejaVuSans-110"/>
       <path d="M 25.390625 72.90625 
L 33.6875 72.90625 
L 8.296875 -9.28125 
L 0 -9.28125 
z
" id="DejaVuSans-47"/>
       <path d="M 30.609375 48.390625 
Q 23.390625 48.390625 19.1875 42.75 
Q 14.984375 37.109375 14.984375 27.296875 
Q 14.984375 17.484375 19.15625 11.84375 
Q 23.34375 6.203125 30.609375 6.203125 
Q 37.796875 6.203125 41.984375 11.859375 
Q 46.1875 17.53125 46.1875 27.296875 
Q 46.1875 37.015625 41.984375 42.703125 
Q 37.796875 48.390625 30.609375 48.390625 
z
M 30.609375 56 
Q 42.328125 56 49.015625 48.375 
Q 55.71875 40.765625 55.71875 27.296875 
Q 55.71875 13.875 49.015625 6.21875 
Q 42.328125 -1.421875 30.609375 -1.421875 
Q 18.84375 -1.421875 12.171875 6.21875 
Q 5.515625 13.875 5.515625 27.296875 
Q 5.515625 40.765625 12.171875 48.375 
Q 18.84375 56 30.609375 56 
z
" id="DejaVuSans-111"/>
       <path d="M 45.40625 46.390625 
L 45.40625 75.984375 
L 54.390625 75.984375 
L 54.390625 0 
L 45.40625 0 
L 45.40625 8.203125 
Q 42.578125 3.328125 38.25 0.953125 
Q 33.9375 -1.421875 27.875 -1.421875 
Q 17.96875 -1.421875 11.734375 6.484375 
Q 5.515625 14.40625 5.515625 27.296875 
Q 5.515625 40.1875 11.734375 48.09375 
Q 17.96875 56 27.875 56 
Q 33.9375 56 38.25 53.625 
Q 42.578125 51.265625 45.40625 46.390625 
z
M 14.796875 27.296875 
Q 14.796875 17.390625 18.875 11.75 
Q 22.953125 6.109375 30.078125 6.109375 
Q 37.203125 6.109375 41.296875 11.75 
Q 45.40625 17.390625 45.40625 27.296875 
Q 45.40625 37.203125 41.296875 42.84375 
Q 37.203125 48.484375 30.078125 48.484375 
Q 22.953125 48.484375 18.875 42.84375 
Q 14.796875 37.203125 14.796875 27.296875 
z
" id="DejaVuSans-100"/>
       <path d="M 8.015625 75.875 
L 15.828125 75.875 
Q 23.140625 64.359375 26.78125 53.3125 
Q 30.421875 42.28125 30.421875 31.390625 
Q 30.421875 20.453125 26.78125 9.375 
Q 23.140625 -1.703125 15.828125 -13.1875 
L 8.015625 -13.1875 
Q 14.5 -2 17.703125 9.0625 
Q 20.90625 20.125 20.90625 31.390625 
Q 20.90625 42.671875 17.703125 53.65625 
Q 14.5 64.65625 8.015625 75.875 
z
" id="DejaVuSans-41"/>
      </defs>
      <g transform="translate(139.706705 907.79625)scale(0.1 -0.1)">
       <use xlink:href="#DejaVuSans-40"/>
       <use x="39.013672" xlink:href="#DejaVuSans-49"/>
       <use x="102.636719" xlink:href="#DejaVuSans-55"/>
       <use x="166.259766" xlink:href="#DejaVuSans-46"/>
       <use x="198.046875" xlink:href="#DejaVuSans-53"/>
       <use x="261.669922" xlink:href="#DejaVuSans-48"/>
       <use x="325.292969" xlink:href="#DejaVuSans-32"/>
       <use x="357.080078" xlink:href="#DejaVuSans-109"/>
       <use x="454.492188" xlink:href="#DejaVuSans-105"/>
       <use x="482.275391" xlink:href="#DejaVuSans-110"/>
       <use x="545.654297" xlink:href="#DejaVuSans-115"/>
       <use x="597.753906" xlink:href="#DejaVuSans-47"/>
       <use x="631.445312" xlink:href="#DejaVuSans-109"/>
       <use x="728.857422" xlink:href="#DejaVuSans-111"/>
       <use x="790.039062" xlink:href="#DejaVuSans-100"/>
       <use x="853.515625" xlink:href="#DejaVuSans-101"/>
       <use x="915.039062" xlink:href="#DejaVuSans-108"/>
       <use x="942.822266" xlink:href="#DejaVuSans-41"/>
      </g>
     </g>
    </g>
    <g id="xtick_2">
     <g id="line2d_2">
      <g>
       <use style="stroke:#000000;stroke-width:0.8;" x="294.205431" xlink:href="#me5b5f3075e" y="882"/>
      </g>
     </g>
     <g id="text_2">
      <!-- GTX 970 &amp; 1070Ti -->
      <defs>
       <path d="M 59.515625 10.40625 
L 59.515625 29.984375 
L 43.40625 29.984375 
L 43.40625 38.09375 
L 69.28125 38.09375 
L 69.28125 6.78125 
Q 63.578125 2.734375 56.6875 0.65625 
Q 49.8125 -1.421875 42 -1.421875 
Q 24.90625 -1.421875 15.25 8.5625 
Q 5.609375 18.5625 5.609375 36.375 
Q 5.609375 54.25 15.25 64.234375 
Q 24.90625 74.21875 42 74.21875 
Q 49.125 74.21875 55.546875 72.453125 
Q 61.96875 70.703125 67.390625 67.28125 
L 67.390625 56.78125 
Q 61.921875 61.421875 55.765625 63.765625 
Q 49.609375 66.109375 42.828125 66.109375 
Q 29.4375 66.109375 22.71875 58.640625 
Q 16.015625 51.171875 16.015625 36.375 
Q 16.015625 21.625 22.71875 14.15625 
Q 29.4375 6.6875 42.828125 6.6875 
Q 48.046875 6.6875 52.140625 7.59375 
Q 56.25 8.5 59.515625 10.40625 
z
" id="DejaVuSans-71"/>
       <path d="M 6.296875 72.90625 
L 16.890625 72.90625 
L 35.015625 45.796875 
L 53.21875 72.90625 
L 63.8125 72.90625 
L 40.375 37.890625 
L 65.375 0 
L 54.78125 0 
L 34.28125 31 
L 13.625 0 
L 2.984375 0 
L 29 38.921875 
z
" id="DejaVuSans-88"/>
       <path d="M 10.984375 1.515625 
L 10.984375 10.5 
Q 14.703125 8.734375 18.5 7.8125 
Q 22.3125 6.890625 25.984375 6.890625 
Q 35.75 6.890625 40.890625 13.453125 
Q 46.046875 20.015625 46.78125 33.40625 
Q 43.953125 29.203125 39.59375 26.953125 
Q 35.25 24.703125 29.984375 24.703125 
Q 19.046875 24.703125 12.671875 31.3125 
Q 6.296875 37.9375 6.296875 49.421875 
Q 6.296875 60.640625 12.9375 67.421875 
Q 19.578125 74.21875 30.609375 74.21875 
Q 43.265625 74.21875 49.921875 64.515625 
Q 56.59375 54.828125 56.59375 36.375 
Q 56.59375 19.140625 48.40625 8.859375 
Q 40.234375 -1.421875 26.421875 -1.421875 
Q 22.703125 -1.421875 18.890625 -0.6875 
Q 15.09375 0.046875 10.984375 1.515625 
z
M 30.609375 32.421875 
Q 37.25 32.421875 41.125 36.953125 
Q 45.015625 41.5 45.015625 49.421875 
Q 45.015625 57.28125 41.125 61.84375 
Q 37.25 66.40625 30.609375 66.40625 
Q 23.96875 66.40625 20.09375 61.84375 
Q 16.21875 57.28125 16.21875 49.421875 
Q 16.21875 41.5 20.09375 36.953125 
Q 23.96875 32.421875 30.609375 32.421875 
z
" id="DejaVuSans-57"/>
       <path d="M 24.3125 39.203125 
Q 19.875 35.25 17.796875 31.3125 
Q 15.71875 27.390625 15.71875 23.09375 
Q 15.71875 15.96875 20.890625 11.234375 
Q 26.078125 6.5 33.890625 6.5 
Q 38.53125 6.5 42.578125 8.03125 
Q 46.625 9.578125 50.203125 12.703125 
z
M 31.203125 44.671875 
L 56 19.28125 
Q 58.890625 23.640625 60.5 28.59375 
Q 62.109375 33.546875 62.40625 39.109375 
L 71.484375 39.109375 
Q 70.90625 32.671875 68.359375 26.359375 
Q 65.828125 20.0625 61.28125 13.921875 
L 74.90625 0 
L 62.59375 0 
L 55.609375 7.171875 
Q 50.53125 2.828125 44.96875 0.703125 
Q 39.40625 -1.421875 33.015625 -1.421875 
Q 21.234375 -1.421875 13.765625 5.296875 
Q 6.296875 12.015625 6.296875 22.515625 
Q 6.296875 28.765625 9.5625 34.25 
Q 12.84375 39.75 19.390625 44.578125 
Q 17.046875 47.65625 15.8125 50.703125 
Q 14.59375 53.765625 14.59375 56.6875 
Q 14.59375 64.59375 20.015625 69.40625 
Q 25.4375 74.21875 34.421875 74.21875 
Q 38.484375 74.21875 42.5 73.34375 
Q 46.53125 72.46875 50.6875 70.703125 
L 50.6875 61.8125 
Q 46.4375 64.109375 42.578125 65.296875 
Q 38.71875 66.5 35.40625 66.5 
Q 30.28125 66.5 27.078125 63.78125 
Q 23.875 61.078125 23.875 56.78125 
Q 23.875 54.296875 25.3125 51.78125 
Q 26.765625 49.265625 31.203125 44.671875 
z
" id="DejaVuSans-38"/>
      </defs>
      <g transform="translate(248.478868 896.598438)scale(0.1 -0.1)">
       <use xlink:href="#DejaVuSans-71"/>
       <use x="77.443359" xlink:href="#DejaVuSans-84"/>
       <use x="138.527344" xlink:href="#DejaVuSans-88"/>
       <use x="207.033203" xlink:href="#DejaVuSans-32"/>
       <use x="238.820312" xlink:href="#DejaVuSans-57"/>
       <use x="302.443359" xlink:href="#DejaVuSans-55"/>
       <use x="366.066406" xlink:href="#DejaVuSans-48"/>
       <use x="429.689453" xlink:href="#DejaVuSans-32"/>
       <use x="461.476562" xlink:href="#DejaVuSans-38"/>
       <use x="539.455078" xlink:href="#DejaVuSans-32"/>
       <use x="571.242188" xlink:href="#DejaVuSans-49"/>
       <use x="634.865234" xlink:href="#DejaVuSans-48"/>
       <use x="698.488281" xlink:href="#DejaVuSans-55"/>
       <use x="762.111328" xlink:href="#DejaVuSans-48"/>
       <use x="825.734375" xlink:href="#DejaVuSans-84"/>
       <use x="886.771484" xlink:href="#DejaVuSans-105"/>
      </g>
      <!-- (16.01 mins/model) -->
      <defs>
       <path d="M 33.015625 40.375 
Q 26.375 40.375 22.484375 35.828125 
Q 18.609375 31.296875 18.609375 23.390625 
Q 18.609375 15.53125 22.484375 10.953125 
Q 26.375 6.390625 33.015625 6.390625 
Q 39.65625 6.390625 43.53125 10.953125 
Q 47.40625 15.53125 47.40625 23.390625 
Q 47.40625 31.296875 43.53125 35.828125 
Q 39.65625 40.375 33.015625 40.375 
z
M 52.59375 71.296875 
L 52.59375 62.3125 
Q 48.875 64.0625 45.09375 64.984375 
Q 41.3125 65.921875 37.59375 65.921875 
Q 27.828125 65.921875 22.671875 59.328125 
Q 17.53125 52.734375 16.796875 39.40625 
Q 19.671875 43.65625 24.015625 45.921875 
Q 28.375 48.1875 33.59375 48.1875 
Q 44.578125 48.1875 50.953125 41.515625 
Q 57.328125 34.859375 57.328125 23.390625 
Q 57.328125 12.15625 50.6875 5.359375 
Q 44.046875 -1.421875 33.015625 -1.421875 
Q 20.359375 -1.421875 13.671875 8.265625 
Q 6.984375 17.96875 6.984375 36.375 
Q 6.984375 53.65625 15.1875 63.9375 
Q 23.390625 74.21875 37.203125 74.21875 
Q 40.921875 74.21875 44.703125 73.484375 
Q 48.484375 72.75 52.59375 71.296875 
z
" id="DejaVuSans-54"/>
      </defs>
      <g transform="translate(245.114025 907.79625)scale(0.1 -0.1)">
       <use xlink:href="#DejaVuSans-40"/>
       <use x="39.013672" xlink:href="#DejaVuSans-49"/>
       <use x="102.636719" xlink:href="#DejaVuSans-54"/>
       <use x="166.259766" xlink:href="#DejaVuSans-46"/>
       <use x="198.046875" xlink:href="#DejaVuSans-48"/>
       <use x="261.669922" xlink:href="#DejaVuSans-49"/>
       <use x="325.292969" xlink:href="#DejaVuSans-32"/>
       <use x="357.080078" xlink:href="#DejaVuSans-109"/>
       <use x="454.492188" xlink:href="#DejaVuSans-105"/>
       <use x="482.275391" xlink:href="#DejaVuSans-110"/>
       <use x="545.654297" xlink:href="#DejaVuSans-115"/>
       <use x="597.753906" xlink:href="#DejaVuSans-47"/>
       <use x="631.445312" xlink:href="#DejaVuSans-109"/>
       <use x="728.857422" xlink:href="#DejaVuSans-111"/>
       <use x="790.039062" xlink:href="#DejaVuSans-100"/>
       <use x="853.515625" xlink:href="#DejaVuSans-101"/>
       <use x="915.039062" xlink:href="#DejaVuSans-108"/>
       <use x="942.822266" xlink:href="#DejaVuSans-41"/>
      </g>
     </g>
    </g>
    <g id="xtick_3">
     <g id="line2d_3">
      <g>
       <use style="stroke:#000000;stroke-width:0.8;" x="399.612751" xlink:href="#me5b5f3075e" y="882"/>
      </g>
     </g>
     <g id="text_3">
      <!-- Tesla V100 -->
      <defs>
       <path d="M 28.609375 0 
L 0.78125 72.90625 
L 11.078125 72.90625 
L 34.1875 11.53125 
L 57.328125 72.90625 
L 67.578125 72.90625 
L 39.796875 0 
z
" id="DejaVuSans-86"/>
      </defs>
      <g transform="translate(371.884626 896.598438)scale(0.1 -0.1)">
       <use xlink:href="#DejaVuSans-84"/>
       <use x="60.818359" xlink:href="#DejaVuSans-101"/>
       <use x="122.341797" xlink:href="#DejaVuSans-115"/>
       <use x="174.441406" xlink:href="#DejaVuSans-108"/>
       <use x="202.224609" xlink:href="#DejaVuSans-97"/>
       <use x="263.503906" xlink:href="#DejaVuSans-32"/>
       <use x="295.291016" xlink:href="#DejaVuSans-86"/>
       <use x="363.699219" xlink:href="#DejaVuSans-49"/>
       <use x="427.322266" xlink:href="#DejaVuSans-48"/>
       <use x="490.945312" xlink:href="#DejaVuSans-48"/>
      </g>
      <!-- (13.23 mins/model) -->
      <defs>
       <path d="M 40.578125 39.3125 
Q 47.65625 37.796875 51.625 33 
Q 55.609375 28.21875 55.609375 21.1875 
Q 55.609375 10.40625 48.1875 4.484375 
Q 40.765625 -1.421875 27.09375 -1.421875 
Q 22.515625 -1.421875 17.65625 -0.515625 
Q 12.796875 0.390625 7.625 2.203125 
L 7.625 11.71875 
Q 11.71875 9.328125 16.59375 8.109375 
Q 21.484375 6.890625 26.8125 6.890625 
Q 36.078125 6.890625 40.9375 10.546875 
Q 45.796875 14.203125 45.796875 21.1875 
Q 45.796875 27.640625 41.28125 31.265625 
Q 36.765625 34.90625 28.71875 34.90625 
L 20.21875 34.90625 
L 20.21875 43.015625 
L 29.109375 43.015625 
Q 36.375 43.015625 40.234375 45.921875 
Q 44.09375 48.828125 44.09375 54.296875 
Q 44.09375 59.90625 40.109375 62.90625 
Q 36.140625 65.921875 28.71875 65.921875 
Q 24.65625 65.921875 20.015625 65.03125 
Q 15.375 64.15625 9.8125 62.3125 
L 9.8125 71.09375 
Q 15.4375 72.65625 20.34375 73.4375 
Q 25.25 74.21875 29.59375 74.21875 
Q 40.828125 74.21875 47.359375 69.109375 
Q 53.90625 64.015625 53.90625 55.328125 
Q 53.90625 49.265625 50.4375 45.09375 
Q 46.96875 40.921875 40.578125 39.3125 
z
" id="DejaVuSans-51"/>
       <path d="M 19.1875 8.296875 
L 53.609375 8.296875 
L 53.609375 0 
L 7.328125 0 
L 7.328125 8.296875 
Q 12.9375 14.109375 22.625 23.890625 
Q 32.328125 33.6875 34.8125 36.53125 
Q 39.546875 41.84375 41.421875 45.53125 
Q 43.3125 49.21875 43.3125 52.78125 
Q 43.3125 58.59375 39.234375 62.25 
Q 35.15625 65.921875 28.609375 65.921875 
Q 23.96875 65.921875 18.8125 64.3125 
Q 13.671875 62.703125 7.8125 59.421875 
L 7.8125 69.390625 
Q 13.765625 71.78125 18.9375 73 
Q 24.125 74.21875 28.421875 74.21875 
Q 39.75 74.21875 46.484375 68.546875 
Q 53.21875 62.890625 53.21875 53.421875 
Q 53.21875 48.921875 51.53125 44.890625 
Q 49.859375 40.875 45.40625 35.40625 
Q 44.1875 33.984375 37.640625 27.21875 
Q 31.109375 20.453125 19.1875 8.296875 
z
" id="DejaVuSans-50"/>
      </defs>
      <g transform="translate(350.521345 907.79625)scale(0.1 -0.1)">
       <use xlink:href="#DejaVuSans-40"/>
       <use x="39.013672" xlink:href="#DejaVuSans-49"/>
       <use x="102.636719" xlink:href="#DejaVuSans-51"/>
       <use x="166.259766" xlink:href="#DejaVuSans-46"/>
       <use x="198.046875" xlink:href="#DejaVuSans-50"/>
       <use x="261.669922" xlink:href="#DejaVuSans-51"/>
       <use x="325.292969" xlink:href="#DejaVuSans-32"/>
       <use x="357.080078" xlink:href="#DejaVuSans-109"/>
       <use x="454.492188" xlink:href="#DejaVuSans-105"/>
       <use x="482.275391" xlink:href="#DejaVuSans-110"/>
       <use x="545.654297" xlink:href="#DejaVuSans-115"/>
       <use x="597.753906" xlink:href="#DejaVuSans-47"/>
       <use x="631.445312" xlink:href="#DejaVuSans-109"/>
       <use x="728.857422" xlink:href="#DejaVuSans-111"/>
       <use x="790.039062" xlink:href="#DejaVuSans-100"/>
       <use x="853.515625" xlink:href="#DejaVuSans-101"/>
       <use x="915.039062" xlink:href="#DejaVuSans-108"/>
       <use x="942.822266" xlink:href="#DejaVuSans-41"/>
      </g>
     </g>
    </g>
    <g id="xtick_4">
     <g id="line2d_4">
      <g>
       <use style="stroke:#000000;stroke-width:0.8;" x="505.020071" xlink:href="#me5b5f3075e" y="882"/>
      </g>
     </g>
     <g id="text_4">
      <!-- Jetson TX2 -->
      <defs>
       <path d="M 9.8125 72.90625 
L 19.671875 72.90625 
L 19.671875 5.078125 
Q 19.671875 -8.109375 14.671875 -14.0625 
Q 9.671875 -20.015625 -1.421875 -20.015625 
L -5.171875 -20.015625 
L -5.171875 -11.71875 
L -2.09375 -11.71875 
Q 4.4375 -11.71875 7.125 -8.046875 
Q 9.8125 -4.390625 9.8125 5.078125 
z
" id="DejaVuSans-74"/>
       <path d="M 18.3125 70.21875 
L 18.3125 54.6875 
L 36.8125 54.6875 
L 36.8125 47.703125 
L 18.3125 47.703125 
L 18.3125 18.015625 
Q 18.3125 11.328125 20.140625 9.421875 
Q 21.96875 7.515625 27.59375 7.515625 
L 36.8125 7.515625 
L 36.8125 0 
L 27.59375 0 
Q 17.1875 0 13.234375 3.875 
Q 9.28125 7.765625 9.28125 18.015625 
L 9.28125 47.703125 
L 2.6875 47.703125 
L 2.6875 54.6875 
L 9.28125 54.6875 
L 9.28125 70.21875 
z
" id="DejaVuSans-116"/>
      </defs>
      <g transform="translate(478.426321 896.598438)scale(0.1 -0.1)">
       <use xlink:href="#DejaVuSans-74"/>
       <use x="29.492188" xlink:href="#DejaVuSans-101"/>
       <use x="91.015625" xlink:href="#DejaVuSans-116"/>
       <use x="130.224609" xlink:href="#DejaVuSans-115"/>
       <use x="182.324219" xlink:href="#DejaVuSans-111"/>
       <use x="243.505859" xlink:href="#DejaVuSans-110"/>
       <use x="306.884766" xlink:href="#DejaVuSans-32"/>
       <use x="338.671875" xlink:href="#DejaVuSans-84"/>
       <use x="399.755859" xlink:href="#DejaVuSans-88"/>
       <use x="468.261719" xlink:href="#DejaVuSans-50"/>
      </g>
      <!-- (39.96 mins/model) -->
      <g transform="translate(455.928665 907.79625)scale(0.1 -0.1)">
       <use xlink:href="#DejaVuSans-40"/>
       <use x="39.013672" xlink:href="#DejaVuSans-51"/>
       <use x="102.636719" xlink:href="#DejaVuSans-57"/>
       <use x="166.259766" xlink:href="#DejaVuSans-46"/>
       <use x="198.046875" xlink:href="#DejaVuSans-57"/>
       <use x="261.669922" xlink:href="#DejaVuSans-54"/>
       <use x="325.292969" xlink:href="#DejaVuSans-32"/>
       <use x="357.080078" xlink:href="#DejaVuSans-109"/>
       <use x="454.492188" xlink:href="#DejaVuSans-105"/>
       <use x="482.275391" xlink:href="#DejaVuSans-110"/>
       <use x="545.654297" xlink:href="#DejaVuSans-115"/>
       <use x="597.753906" xlink:href="#DejaVuSans-47"/>
       <use x="631.445312" xlink:href="#DejaVuSans-109"/>
       <use x="728.857422" xlink:href="#DejaVuSans-111"/>
       <use x="790.039062" xlink:href="#DejaVuSans-100"/>
       <use x="853.515625" xlink:href="#DejaVuSans-101"/>
       <use x="915.039062" xlink:href="#DejaVuSans-108"/>
       <use x="942.822266" xlink:href="#DejaVuSans-41"/>
      </g>
     </g>
    </g>
    <g id="text_5">
     <!-- GPU Workers -->
     <defs>
      <path d="M 8.6875 72.90625 
L 18.609375 72.90625 
L 18.609375 28.609375 
Q 18.609375 16.890625 22.84375 11.734375 
Q 27.09375 6.59375 36.625 6.59375 
Q 46.09375 6.59375 50.34375 11.734375 
Q 54.59375 16.890625 54.59375 28.609375 
L 54.59375 72.90625 
L 64.5 72.90625 
L 64.5 27.390625 
Q 64.5 13.140625 57.4375 5.859375 
Q 50.390625 -1.421875 36.625 -1.421875 
Q 22.796875 -1.421875 15.734375 5.859375 
Q 8.6875 13.140625 8.6875 27.390625 
z
" id="DejaVuSans-85"/>
      <path d="M 3.328125 72.90625 
L 13.28125 72.90625 
L 28.609375 11.28125 
L 43.890625 72.90625 
L 54.984375 72.90625 
L 70.3125 11.28125 
L 85.59375 72.90625 
L 95.609375 72.90625 
L 77.296875 0 
L 64.890625 0 
L 49.515625 63.28125 
L 33.984375 0 
L 21.578125 0 
z
" id="DejaVuSans-87"/>
      <path d="M 41.109375 46.296875 
Q 39.59375 47.171875 37.8125 47.578125 
Q 36.03125 48 33.890625 48 
Q 26.265625 48 22.1875 43.046875 
Q 18.109375 38.09375 18.109375 28.8125 
L 18.109375 0 
L 9.078125 0 
L 9.078125 54.6875 
L 18.109375 54.6875 
L 18.109375 46.1875 
Q 20.953125 51.171875 25.484375 53.578125 
Q 30.03125 56 36.53125 56 
Q 37.453125 56 38.578125 55.875 
Q 39.703125 55.765625 41.0625 55.515625 
z
" id="DejaVuSans-114"/>
      <path d="M 9.078125 75.984375 
L 18.109375 75.984375 
L 18.109375 31.109375 
L 44.921875 54.6875 
L 56.390625 54.6875 
L 27.390625 29.109375 
L 57.625 0 
L 45.90625 0 
L 18.109375 26.703125 
L 18.109375 0 
L 9.078125 0 
z
" id="DejaVuSans-107"/>
     </defs>
     <g transform="translate(314.087216 921.474375)scale(0.1 -0.1)">
      <use xlink:href="#DejaVuSans-71"/>
      <use x="77.490234" xlink:href="#DejaVuSans-80"/>
      <use x="137.792969" xlink:href="#DejaVuSans-85"/>
      <use x="210.986328" xlink:href="#DejaVuSans-32"/>
      <use x="242.773438" xlink:href="#DejaVuSans-87"/>
      <use x="341.572266" xlink:href="#DejaVuSans-111"/>
      <use x="402.753906" xlink:href="#DejaVuSans-114"/>
      <use x="443.867188" xlink:href="#DejaVuSans-107"/>
      <use x="501.730469" xlink:href="#DejaVuSans-101"/>
      <use x="563.253906" xlink:href="#DejaVuSans-114"/>
      <use x="604.367188" xlink:href="#DejaVuSans-115"/>
     </g>
    </g>
   </g>
   <g id="matplotlib.axis_2">
    <g id="ytick_1">
     <g id="line2d_5">
      <path clip-path="url(#pa9277ff9ad)" d="M 144 800.974598 
L 549.818182 800.974598 
" style="fill:none;stroke:#b0b0b0;stroke-linecap:square;stroke-width:0.8;"/>
     </g>
     <g id="line2d_6">
      <defs>
       <path d="M 0 0 
L -3.5 0 
" id="me2d17e094c" style="stroke:#000000;stroke-width:0.8;"/>
      </defs>
      <g>
       <use style="stroke:#000000;stroke-width:0.8;" x="144" xlink:href="#me2d17e094c" y="800.974598"/>
      </g>
     </g>
     <g id="text_6">
      <!-- 10 -->
      <g transform="translate(124.275 804.773817)scale(0.1 -0.1)">
       <use xlink:href="#DejaVuSans-49"/>
       <use x="63.623047" xlink:href="#DejaVuSans-48"/>
      </g>
     </g>
    </g>
    <g id="ytick_2">
     <g id="line2d_7">
      <path clip-path="url(#pa9277ff9ad)" d="M 144 671.026793 
L 549.818182 671.026793 
" style="fill:none;stroke:#b0b0b0;stroke-linecap:square;stroke-width:0.8;"/>
     </g>
     <g id="line2d_8">
      <g>
       <use style="stroke:#000000;stroke-width:0.8;" x="144" xlink:href="#me2d17e094c" y="671.026793"/>
      </g>
     </g>
     <g id="text_7">
      <!-- 20 -->
      <g transform="translate(124.275 674.826012)scale(0.1 -0.1)">
       <use xlink:href="#DejaVuSans-50"/>
       <use x="63.623047" xlink:href="#DejaVuSans-48"/>
      </g>
     </g>
    </g>
    <g id="ytick_3">
     <g id="line2d_9">
      <path clip-path="url(#pa9277ff9ad)" d="M 144 541.078988 
L 549.818182 541.078988 
" style="fill:none;stroke:#b0b0b0;stroke-linecap:square;stroke-width:0.8;"/>
     </g>
     <g id="line2d_10">
      <g>
       <use style="stroke:#000000;stroke-width:0.8;" x="144" xlink:href="#me2d17e094c" y="541.078988"/>
      </g>
     </g>
     <g id="text_8">
      <!-- 30 -->
      <g transform="translate(124.275 544.878207)scale(0.1 -0.1)">
       <use xlink:href="#DejaVuSans-51"/>
       <use x="63.623047" xlink:href="#DejaVuSans-48"/>
      </g>
     </g>
    </g>
    <g id="ytick_4">
     <g id="line2d_11">
      <path clip-path="url(#pa9277ff9ad)" d="M 144 411.131183 
L 549.818182 411.131183 
" style="fill:none;stroke:#b0b0b0;stroke-linecap:square;stroke-width:0.8;"/>
     </g>
     <g id="line2d_12">
      <g>
       <use style="stroke:#000000;stroke-width:0.8;" x="144" xlink:href="#me2d17e094c" y="411.131183"/>
      </g>
     </g>
     <g id="text_9">
      <!-- 40 -->
      <defs>
       <path d="M 37.796875 64.3125 
L 12.890625 25.390625 
L 37.796875 25.390625 
z
M 35.203125 72.90625 
L 47.609375 72.90625 
L 47.609375 25.390625 
L 58.015625 25.390625 
L 58.015625 17.1875 
L 47.609375 17.1875 
L 47.609375 0 
L 37.796875 0 
L 37.796875 17.1875 
L 4.890625 17.1875 
L 4.890625 26.703125 
z
" id="DejaVuSans-52"/>
      </defs>
      <g transform="translate(124.275 414.930402)scale(0.1 -0.1)">
       <use xlink:href="#DejaVuSans-52"/>
       <use x="63.623047" xlink:href="#DejaVuSans-48"/>
      </g>
     </g>
    </g>
    <g id="ytick_5">
     <g id="line2d_13">
      <path clip-path="url(#pa9277ff9ad)" d="M 144 281.183378 
L 549.818182 281.183378 
" style="fill:none;stroke:#b0b0b0;stroke-linecap:square;stroke-width:0.8;"/>
     </g>
     <g id="line2d_14">
      <g>
       <use style="stroke:#000000;stroke-width:0.8;" x="144" xlink:href="#me2d17e094c" y="281.183378"/>
      </g>
     </g>
     <g id="text_10">
      <!-- 50 -->
      <g transform="translate(124.275 284.982596)scale(0.1 -0.1)">
       <use xlink:href="#DejaVuSans-53"/>
       <use x="63.623047" xlink:href="#DejaVuSans-48"/>
      </g>
     </g>
    </g>
    <g id="ytick_6">
     <g id="line2d_15">
      <path clip-path="url(#pa9277ff9ad)" d="M 144 151.235572 
L 549.818182 151.235572 
" style="fill:none;stroke:#b0b0b0;stroke-linecap:square;stroke-width:0.8;"/>
     </g>
     <g id="line2d_16">
      <g>
       <use style="stroke:#000000;stroke-width:0.8;" x="144" xlink:href="#me2d17e094c" y="151.235572"/>
      </g>
     </g>
     <g id="text_11">
      <!-- 60 -->
      <g transform="translate(124.275 155.034791)scale(0.1 -0.1)">
       <use xlink:href="#DejaVuSans-54"/>
       <use x="63.623047" xlink:href="#DejaVuSans-48"/>
      </g>
     </g>
    </g>
    <g id="text_12">
     <!-- Time (minutes) -->
     <defs>
      <path d="M 8.5 21.578125 
L 8.5 54.6875 
L 17.484375 54.6875 
L 17.484375 21.921875 
Q 17.484375 14.15625 20.5 10.265625 
Q 23.53125 6.390625 29.59375 6.390625 
Q 36.859375 6.390625 41.078125 11.03125 
Q 45.3125 15.671875 45.3125 23.6875 
L 45.3125 54.6875 
L 54.296875 54.6875 
L 54.296875 0 
L 45.3125 0 
L 45.3125 8.40625 
Q 42.046875 3.421875 37.71875 1 
Q 33.40625 -1.421875 27.6875 -1.421875 
Q 18.265625 -1.421875 13.375 4.4375 
Q 8.5 10.296875 8.5 21.578125 
z
M 31.109375 56 
z
" id="DejaVuSans-117"/>
     </defs>
     <g transform="translate(118.195312 539.596406)rotate(-90)scale(0.1 -0.1)">
      <use xlink:href="#DejaVuSans-84"/>
      <use x="61.037109" xlink:href="#DejaVuSans-105"/>
      <use x="88.820312" xlink:href="#DejaVuSans-109"/>
      <use x="186.232422" xlink:href="#DejaVuSans-101"/>
      <use x="247.755859" xlink:href="#DejaVuSans-32"/>
      <use x="279.542969" xlink:href="#DejaVuSans-40"/>
      <use x="318.556641" xlink:href="#DejaVuSans-109"/>
      <use x="415.96875" xlink:href="#DejaVuSans-105"/>
      <use x="443.751953" xlink:href="#DejaVuSans-110"/>
      <use x="507.130859" xlink:href="#DejaVuSans-117"/>
      <use x="570.509766" xlink:href="#DejaVuSans-116"/>
      <use x="609.71875" xlink:href="#DejaVuSans-101"/>
      <use x="671.242188" xlink:href="#DejaVuSans-115"/>
      <use x="723.341797" xlink:href="#DejaVuSans-41"/>
     </g>
    </g>
   </g>
   <g id="LineCollection_1">
    <path clip-path="url(#pa9277ff9ad)" d="M 175.622196 366.874975 
L 201.974026 366.874975 
" style="fill:none;stroke:#1f77b4;stroke-width:1.5;"/>
    <path clip-path="url(#pa9277ff9ad)" d="M 281.029516 495.152577 
L 307.381346 495.152577 
" style="fill:none;stroke:#1f77b4;stroke-width:1.5;"/>
    <path clip-path="url(#pa9277ff9ad)" d="M 386.436836 748.630711 
L 412.788666 748.630711 
" style="fill:none;stroke:#1f77b4;stroke-width:1.5;"/>
    <path clip-path="url(#pa9277ff9ad)" d="M 491.844156 155.552727 
L 518.195986 155.552727 
" style="fill:none;stroke:#1f77b4;stroke-width:1.5;"/>
   </g>
   <g id="LineCollection_2">
    <path clip-path="url(#pa9277ff9ad)" d="M 175.622196 823.928633 
L 201.974026 823.928633 
" style="fill:none;stroke:#1f77b4;stroke-width:1.5;"/>
    <path clip-path="url(#pa9277ff9ad)" d="M 281.029516 847.407273 
L 307.381346 847.407273 
" style="fill:none;stroke:#1f77b4;stroke-width:1.5;"/>
    <path clip-path="url(#pa9277ff9ad)" d="M 386.436836 775.776024 
L 412.788666 775.776024 
" style="fill:none;stroke:#1f77b4;stroke-width:1.5;"/>
    <path clip-path="url(#pa9277ff9ad)" d="M 491.844156 617.731533 
L 518.195986 617.731533 
" style="fill:none;stroke:#1f77b4;stroke-width:1.5;"/>
   </g>
   <g id="LineCollection_3">
    <path clip-path="url(#pa9277ff9ad)" d="M 188.798111 823.928633 
L 188.798111 366.874975 
" style="fill:none;stroke:#1f77b4;stroke-width:1.5;"/>
    <path clip-path="url(#pa9277ff9ad)" d="M 294.205431 847.407273 
L 294.205431 495.152577 
" style="fill:none;stroke:#1f77b4;stroke-width:1.5;"/>
    <path clip-path="url(#pa9277ff9ad)" d="M 399.612751 775.776024 
L 399.612751 748.630711 
" style="fill:none;stroke:#1f77b4;stroke-width:1.5;"/>
    <path clip-path="url(#pa9277ff9ad)" d="M 505.020071 617.731533 
L 505.020071 155.552727 
" style="fill:none;stroke:#1f77b4;stroke-width:1.5;"/>
   </g>
   <g id="LineCollection_4">
    <path clip-path="url(#pa9277ff9ad)" d="M 175.622196 752.272385 
L 201.974026 752.272385 
" style="fill:none;stroke:#1f77b4;stroke-width:1.5;"/>
    <path clip-path="url(#pa9277ff9ad)" d="M 281.029516 743.722907 
L 307.381346 743.722907 
" style="fill:none;stroke:#1f77b4;stroke-width:1.5;"/>
    <path clip-path="url(#pa9277ff9ad)" d="M 386.436836 752.460751 
L 412.788666 752.460751 
" style="fill:none;stroke:#1f77b4;stroke-width:1.5;"/>
    <path clip-path="url(#pa9277ff9ad)" d="M 491.844156 491.417268 
L 518.195986 491.417268 
" style="fill:none;stroke:#1f77b4;stroke-width:1.5;"/>
   </g>
   <g id="patch_3">
    <path d="M 144 882 
L 144 120.96 
" style="fill:none;stroke:#000000;stroke-linecap:square;stroke-linejoin:miter;stroke-width:0.8;"/>
   </g>
   <g id="patch_4">
    <path d="M 549.818182 882 
L 549.818182 120.96 
" style="fill:none;stroke:#000000;stroke-linecap:square;stroke-linejoin:miter;stroke-width:0.8;"/>
   </g>
   <g id="patch_5">
    <path d="M 144 882 
L 549.818182 882 
" style="fill:none;stroke:#000000;stroke-linecap:square;stroke-linejoin:miter;stroke-width:0.8;"/>
   </g>
   <g id="patch_6">
    <path d="M 144 120.96 
L 549.818182 120.96 
" style="fill:none;stroke:#000000;stroke-linecap:square;stroke-linejoin:miter;stroke-width:0.8;"/>
   </g>
   <g id="text_13">
    <!-- Violin plot - RNN (4 layers) training times vs GPU (2469 samples, 99.73% CI) -->
    <defs>
     <path d="M 18.109375 8.203125 
L 18.109375 -20.796875 
L 9.078125 -20.796875 
L 9.078125 54.6875 
L 18.109375 54.6875 
L 18.109375 46.390625 
Q 20.953125 51.265625 25.265625 53.625 
Q 29.59375 56 35.59375 56 
Q 45.5625 56 51.78125 48.09375 
Q 58.015625 40.1875 58.015625 27.296875 
Q 58.015625 14.40625 51.78125 6.484375 
Q 45.5625 -1.421875 35.59375 -1.421875 
Q 29.59375 -1.421875 25.265625 0.953125 
Q 20.953125 3.328125 18.109375 8.203125 
z
M 48.6875 27.296875 
Q 48.6875 37.203125 44.609375 42.84375 
Q 40.53125 48.484375 33.40625 48.484375 
Q 26.265625 48.484375 22.1875 42.84375 
Q 18.109375 37.203125 18.109375 27.296875 
Q 18.109375 17.390625 22.1875 11.75 
Q 26.265625 6.109375 33.40625 6.109375 
Q 40.53125 6.109375 44.609375 11.75 
Q 48.6875 17.390625 48.6875 27.296875 
z
" id="DejaVuSans-112"/>
     <path d="M 4.890625 31.390625 
L 31.203125 31.390625 
L 31.203125 23.390625 
L 4.890625 23.390625 
z
" id="DejaVuSans-45"/>
     <path d="M 44.390625 34.1875 
Q 47.5625 33.109375 50.5625 29.59375 
Q 53.5625 26.078125 56.59375 19.921875 
L 66.609375 0 
L 56 0 
L 46.6875 18.703125 
Q 43.0625 26.03125 39.671875 28.421875 
Q 36.28125 30.8125 30.421875 30.8125 
L 19.671875 30.8125 
L 19.671875 0 
L 9.8125 0 
L 9.8125 72.90625 
L 32.078125 72.90625 
Q 44.578125 72.90625 50.734375 67.671875 
Q 56.890625 62.453125 56.890625 51.90625 
Q 56.890625 45.015625 53.6875 40.46875 
Q 50.484375 35.9375 44.390625 34.1875 
z
M 19.671875 64.796875 
L 19.671875 38.921875 
L 32.078125 38.921875 
Q 39.203125 38.921875 42.84375 42.21875 
Q 46.484375 45.515625 46.484375 51.90625 
Q 46.484375 58.296875 42.84375 61.546875 
Q 39.203125 64.796875 32.078125 64.796875 
z
" id="DejaVuSans-82"/>
     <path d="M 9.8125 72.90625 
L 23.09375 72.90625 
L 55.421875 11.921875 
L 55.421875 72.90625 
L 64.984375 72.90625 
L 64.984375 0 
L 51.703125 0 
L 19.390625 60.984375 
L 19.390625 0 
L 9.8125 0 
z
" id="DejaVuSans-78"/>
     <path d="M 32.171875 -5.078125 
Q 28.375 -14.84375 24.75 -17.8125 
Q 21.140625 -20.796875 15.09375 -20.796875 
L 7.90625 -20.796875 
L 7.90625 -13.28125 
L 13.1875 -13.28125 
Q 16.890625 -13.28125 18.9375 -11.515625 
Q 21 -9.765625 23.484375 -3.21875 
L 25.09375 0.875 
L 2.984375 54.6875 
L 12.5 54.6875 
L 29.59375 11.921875 
L 46.6875 54.6875 
L 56.203125 54.6875 
z
" id="DejaVuSans-121"/>
     <path d="M 45.40625 27.984375 
Q 45.40625 37.75 41.375 43.109375 
Q 37.359375 48.484375 30.078125 48.484375 
Q 22.859375 48.484375 18.828125 43.109375 
Q 14.796875 37.75 14.796875 27.984375 
Q 14.796875 18.265625 18.828125 12.890625 
Q 22.859375 7.515625 30.078125 7.515625 
Q 37.359375 7.515625 41.375 12.890625 
Q 45.40625 18.265625 45.40625 27.984375 
z
M 54.390625 6.78125 
Q 54.390625 -7.171875 48.1875 -13.984375 
Q 42 -20.796875 29.203125 -20.796875 
Q 24.46875 -20.796875 20.265625 -20.09375 
Q 16.0625 -19.390625 12.109375 -17.921875 
L 12.109375 -9.1875 
Q 16.0625 -11.328125 19.921875 -12.34375 
Q 23.78125 -13.375 27.78125 -13.375 
Q 36.625 -13.375 41.015625 -8.765625 
Q 45.40625 -4.15625 45.40625 5.171875 
L 45.40625 9.625 
Q 42.625 4.78125 38.28125 2.390625 
Q 33.9375 0 27.875 0 
Q 17.828125 0 11.671875 7.65625 
Q 5.515625 15.328125 5.515625 27.984375 
Q 5.515625 40.671875 11.671875 48.328125 
Q 17.828125 56 27.875 56 
Q 33.9375 56 38.28125 53.609375 
Q 42.625 51.21875 45.40625 46.390625 
L 45.40625 54.6875 
L 54.390625 54.6875 
z
" id="DejaVuSans-103"/>
     <path d="M 2.984375 54.6875 
L 12.5 54.6875 
L 29.59375 8.796875 
L 46.6875 54.6875 
L 56.203125 54.6875 
L 35.6875 0 
L 23.484375 0 
z
" id="DejaVuSans-118"/>
     <path d="M 11.71875 12.40625 
L 22.015625 12.40625 
L 22.015625 4 
L 14.015625 -11.625 
L 7.71875 -11.625 
L 11.71875 4 
z
" id="DejaVuSans-44"/>
     <path d="M 72.703125 32.078125 
Q 68.453125 32.078125 66.03125 28.46875 
Q 63.625 24.859375 63.625 18.40625 
Q 63.625 12.0625 66.03125 8.421875 
Q 68.453125 4.78125 72.703125 4.78125 
Q 76.859375 4.78125 79.265625 8.421875 
Q 81.6875 12.0625 81.6875 18.40625 
Q 81.6875 24.8125 79.265625 28.4375 
Q 76.859375 32.078125 72.703125 32.078125 
z
M 72.703125 38.28125 
Q 80.421875 38.28125 84.953125 32.90625 
Q 89.5 27.546875 89.5 18.40625 
Q 89.5 9.28125 84.9375 3.921875 
Q 80.375 -1.421875 72.703125 -1.421875 
Q 64.890625 -1.421875 60.34375 3.921875 
Q 55.8125 9.28125 55.8125 18.40625 
Q 55.8125 27.59375 60.375 32.9375 
Q 64.9375 38.28125 72.703125 38.28125 
z
M 22.3125 68.015625 
Q 18.109375 68.015625 15.6875 64.375 
Q 13.28125 60.75 13.28125 54.390625 
Q 13.28125 47.953125 15.671875 44.328125 
Q 18.0625 40.71875 22.3125 40.71875 
Q 26.5625 40.71875 28.96875 44.328125 
Q 31.390625 47.953125 31.390625 54.390625 
Q 31.390625 60.6875 28.953125 64.34375 
Q 26.515625 68.015625 22.3125 68.015625 
z
M 66.40625 74.21875 
L 74.21875 74.21875 
L 28.609375 -1.421875 
L 20.796875 -1.421875 
z
M 22.3125 74.21875 
Q 30.03125 74.21875 34.609375 68.875 
Q 39.203125 63.53125 39.203125 54.390625 
Q 39.203125 45.171875 34.640625 39.84375 
Q 30.078125 34.515625 22.3125 34.515625 
Q 14.546875 34.515625 10.03125 39.859375 
Q 5.515625 45.21875 5.515625 54.390625 
Q 5.515625 63.484375 10.046875 68.84375 
Q 14.59375 74.21875 22.3125 74.21875 
z
" id="DejaVuSans-37"/>
     <path d="M 64.40625 67.28125 
L 64.40625 56.890625 
Q 59.421875 61.53125 53.78125 63.8125 
Q 48.140625 66.109375 41.796875 66.109375 
Q 29.296875 66.109375 22.65625 58.46875 
Q 16.015625 50.828125 16.015625 36.375 
Q 16.015625 21.96875 22.65625 14.328125 
Q 29.296875 6.6875 41.796875 6.6875 
Q 48.140625 6.6875 53.78125 8.984375 
Q 59.421875 11.28125 64.40625 15.921875 
L 64.40625 5.609375 
Q 59.234375 2.09375 53.4375 0.328125 
Q 47.65625 -1.421875 41.21875 -1.421875 
Q 24.65625 -1.421875 15.125 8.703125 
Q 5.609375 18.84375 5.609375 36.375 
Q 5.609375 53.953125 15.125 64.078125 
Q 24.65625 74.21875 41.21875 74.21875 
Q 47.75 74.21875 53.53125 72.484375 
Q 59.328125 70.75 64.40625 67.28125 
z
" id="DejaVuSans-67"/>
     <path d="M 9.8125 72.90625 
L 19.671875 72.90625 
L 19.671875 0 
L 9.8125 0 
z
" id="DejaVuSans-73"/>
    </defs>
    <g transform="translate(117.157841 114.96)scale(0.12 -0.12)">
     <use xlink:href="#DejaVuSans-86"/>
     <use x="68.376953" xlink:href="#DejaVuSans-105"/>
     <use x="96.160156" xlink:href="#DejaVuSans-111"/>
     <use x="157.341797" xlink:href="#DejaVuSans-108"/>
     <use x="185.125" xlink:href="#DejaVuSans-105"/>
     <use x="212.908203" xlink:href="#DejaVuSans-110"/>
     <use x="276.287109" xlink:href="#DejaVuSans-32"/>
     <use x="308.074219" xlink:href="#DejaVuSans-112"/>
     <use x="371.550781" xlink:href="#DejaVuSans-108"/>
     <use x="399.333984" xlink:href="#DejaVuSans-111"/>
     <use x="460.515625" xlink:href="#DejaVuSans-116"/>
     <use x="499.724609" xlink:href="#DejaVuSans-32"/>
     <use x="531.511719" xlink:href="#DejaVuSans-45"/>
     <use x="567.595703" xlink:href="#DejaVuSans-32"/>
     <use x="599.382812" xlink:href="#DejaVuSans-82"/>
     <use x="668.865234" xlink:href="#DejaVuSans-78"/>
     <use x="743.669922" xlink:href="#DejaVuSans-78"/>
     <use x="818.474609" xlink:href="#DejaVuSans-32"/>
     <use x="850.261719" xlink:href="#DejaVuSans-40"/>
     <use x="889.275391" xlink:href="#DejaVuSans-52"/>
     <use x="952.898438" xlink:href="#DejaVuSans-32"/>
     <use x="984.685547" xlink:href="#DejaVuSans-108"/>
     <use x="1012.46875" xlink:href="#DejaVuSans-97"/>
     <use x="1073.748047" xlink:href="#DejaVuSans-121"/>
     <use x="1132.927734" xlink:href="#DejaVuSans-101"/>
     <use x="1194.451172" xlink:href="#DejaVuSans-114"/>
     <use x="1235.564453" xlink:href="#DejaVuSans-115"/>
     <use x="1287.664062" xlink:href="#DejaVuSans-41"/>
     <use x="1326.677734" xlink:href="#DejaVuSans-32"/>
     <use x="1358.464844" xlink:href="#DejaVuSans-116"/>
     <use x="1397.673828" xlink:href="#DejaVuSans-114"/>
     <use x="1438.787109" xlink:href="#DejaVuSans-97"/>
     <use x="1500.066406" xlink:href="#DejaVuSans-105"/>
     <use x="1527.849609" xlink:href="#DejaVuSans-110"/>
     <use x="1591.228516" xlink:href="#DejaVuSans-105"/>
     <use x="1619.011719" xlink:href="#DejaVuSans-110"/>
     <use x="1682.390625" xlink:href="#DejaVuSans-103"/>
     <use x="1745.867188" xlink:href="#DejaVuSans-32"/>
     <use x="1777.654297" xlink:href="#DejaVuSans-116"/>
     <use x="1816.863281" xlink:href="#DejaVuSans-105"/>
     <use x="1844.646484" xlink:href="#DejaVuSans-109"/>
     <use x="1942.058594" xlink:href="#DejaVuSans-101"/>
     <use x="2003.582031" xlink:href="#DejaVuSans-115"/>
     <use x="2055.681641" xlink:href="#DejaVuSans-32"/>
     <use x="2087.46875" xlink:href="#DejaVuSans-118"/>
     <use x="2146.648438" xlink:href="#DejaVuSans-115"/>
     <use x="2198.748047" xlink:href="#DejaVuSans-32"/>
     <use x="2230.535156" xlink:href="#DejaVuSans-71"/>
     <use x="2308.025391" xlink:href="#DejaVuSans-80"/>
     <use x="2368.328125" xlink:href="#DejaVuSans-85"/>
     <use x="2441.521484" xlink:href="#DejaVuSans-32"/>
     <use x="2473.308594" xlink:href="#DejaVuSans-40"/>
     <use x="2512.322266" xlink:href="#DejaVuSans-50"/>
     <use x="2575.945312" xlink:href="#DejaVuSans-52"/>
     <use x="2639.568359" xlink:href="#DejaVuSans-54"/>
     <use x="2703.191406" xlink:href="#DejaVuSans-57"/>
     <use x="2766.814453" xlink:href="#DejaVuSans-32"/>
     <use x="2798.601562" xlink:href="#DejaVuSans-115"/>
     <use x="2850.701172" xlink:href="#DejaVuSans-97"/>
     <use x="2911.980469" xlink:href="#DejaVuSans-109"/>
     <use x="3009.392578" xlink:href="#DejaVuSans-112"/>
     <use x="3072.869141" xlink:href="#DejaVuSans-108"/>
     <use x="3100.652344" xlink:href="#DejaVuSans-101"/>
     <use x="3162.175781" xlink:href="#DejaVuSans-115"/>
     <use x="3214.275391" xlink:href="#DejaVuSans-44"/>
     <use x="3246.0625" xlink:href="#DejaVuSans-32"/>
     <use x="3277.849609" xlink:href="#DejaVuSans-57"/>
     <use x="3341.472656" xlink:href="#DejaVuSans-57"/>
     <use x="3405.095703" xlink:href="#DejaVuSans-46"/>
     <use x="3436.882812" xlink:href="#DejaVuSans-55"/>
     <use x="3500.505859" xlink:href="#DejaVuSans-51"/>
     <use x="3564.128906" xlink:href="#DejaVuSans-37"/>
     <use x="3659.148438" xlink:href="#DejaVuSans-32"/>
     <use x="3690.935547" xlink:href="#DejaVuSans-67"/>
     <use x="3760.759766" xlink:href="#DejaVuSans-73"/>
     <use x="3790.251953" xlink:href="#DejaVuSans-41"/>
    </g>
   </g>
  </g>
  <g id="axes_2">
   <g id="patch_7">
    <path d="M 630.981818 882 
L 1036.8 882 
L 1036.8 120.96 
L 630.981818 120.96 
z
" style="fill:#ffffff;"/>
   </g>
   <g id="matplotlib.axis_3">
    <g id="xtick_5">
     <g id="line2d_17">
      <g>
       <use style="stroke:#000000;stroke-width:0.8;" x="681.709091" xlink:href="#me5b5f3075e" y="882"/>
      </g>
     </g>
     <g id="text_14">
      <!-- Tesla P100 -->
      <g transform="translate(654.386435 896.598438)scale(0.1 -0.1)">
       <use xlink:href="#DejaVuSans-84"/>
       <use x="60.818359" xlink:href="#DejaVuSans-101"/>
       <use x="122.341797" xlink:href="#DejaVuSans-115"/>
       <use x="174.441406" xlink:href="#DejaVuSans-108"/>
       <use x="202.224609" xlink:href="#DejaVuSans-97"/>
       <use x="263.503906" xlink:href="#DejaVuSans-32"/>
       <use x="295.291016" xlink:href="#DejaVuSans-80"/>
       <use x="355.59375" xlink:href="#DejaVuSans-49"/>
       <use x="419.216797" xlink:href="#DejaVuSans-48"/>
       <use x="482.839844" xlink:href="#DejaVuSans-48"/>
      </g>
      <!-- (17.50 mins/model) -->
      <g transform="translate(632.617685 907.79625)scale(0.1 -0.1)">
       <use xlink:href="#DejaVuSans-40"/>
       <use x="39.013672" xlink:href="#DejaVuSans-49"/>
       <use x="102.636719" xlink:href="#DejaVuSans-55"/>
       <use x="166.259766" xlink:href="#DejaVuSans-46"/>
       <use x="198.046875" xlink:href="#DejaVuSans-53"/>
       <use x="261.669922" xlink:href="#DejaVuSans-48"/>
       <use x="325.292969" xlink:href="#DejaVuSans-32"/>
       <use x="357.080078" xlink:href="#DejaVuSans-109"/>
       <use x="454.492188" xlink:href="#DejaVuSans-105"/>
       <use x="482.275391" xlink:href="#DejaVuSans-110"/>
       <use x="545.654297" xlink:href="#DejaVuSans-115"/>
       <use x="597.753906" xlink:href="#DejaVuSans-47"/>
       <use x="631.445312" xlink:href="#DejaVuSans-109"/>
       <use x="728.857422" xlink:href="#DejaVuSans-111"/>
       <use x="790.039062" xlink:href="#DejaVuSans-100"/>
       <use x="853.515625" xlink:href="#DejaVuSans-101"/>
       <use x="915.039062" xlink:href="#DejaVuSans-108"/>
       <use x="942.822266" xlink:href="#DejaVuSans-41"/>
      </g>
     </g>
    </g>
    <g id="xtick_6">
     <g id="line2d_18">
      <g>
       <use style="stroke:#000000;stroke-width:0.8;" x="783.163636" xlink:href="#me5b5f3075e" y="882"/>
      </g>
     </g>
     <g id="text_15">
      <!-- GTX 970 &amp; 1070Ti -->
      <g transform="translate(737.437074 896.598438)scale(0.1 -0.1)">
       <use xlink:href="#DejaVuSans-71"/>
       <use x="77.443359" xlink:href="#DejaVuSans-84"/>
       <use x="138.527344" xlink:href="#DejaVuSans-88"/>
       <use x="207.033203" xlink:href="#DejaVuSans-32"/>
       <use x="238.820312" xlink:href="#DejaVuSans-57"/>
       <use x="302.443359" xlink:href="#DejaVuSans-55"/>
       <use x="366.066406" xlink:href="#DejaVuSans-48"/>
       <use x="429.689453" xlink:href="#DejaVuSans-32"/>
       <use x="461.476562" xlink:href="#DejaVuSans-38"/>
       <use x="539.455078" xlink:href="#DejaVuSans-32"/>
       <use x="571.242188" xlink:href="#DejaVuSans-49"/>
       <use x="634.865234" xlink:href="#DejaVuSans-48"/>
       <use x="698.488281" xlink:href="#DejaVuSans-55"/>
       <use x="762.111328" xlink:href="#DejaVuSans-48"/>
       <use x="825.734375" xlink:href="#DejaVuSans-84"/>
       <use x="886.771484" xlink:href="#DejaVuSans-105"/>
      </g>
      <!-- (16.01 mins/model) -->
      <g transform="translate(734.07223 907.79625)scale(0.1 -0.1)">
       <use xlink:href="#DejaVuSans-40"/>
       <use x="39.013672" xlink:href="#DejaVuSans-49"/>
       <use x="102.636719" xlink:href="#DejaVuSans-54"/>
       <use x="166.259766" xlink:href="#DejaVuSans-46"/>
       <use x="198.046875" xlink:href="#DejaVuSans-48"/>
       <use x="261.669922" xlink:href="#DejaVuSans-49"/>
       <use x="325.292969" xlink:href="#DejaVuSans-32"/>
       <use x="357.080078" xlink:href="#DejaVuSans-109"/>
       <use x="454.492188" xlink:href="#DejaVuSans-105"/>
       <use x="482.275391" xlink:href="#DejaVuSans-110"/>
       <use x="545.654297" xlink:href="#DejaVuSans-115"/>
       <use x="597.753906" xlink:href="#DejaVuSans-47"/>
       <use x="631.445312" xlink:href="#DejaVuSans-109"/>
       <use x="728.857422" xlink:href="#DejaVuSans-111"/>
       <use x="790.039062" xlink:href="#DejaVuSans-100"/>
       <use x="853.515625" xlink:href="#DejaVuSans-101"/>
       <use x="915.039062" xlink:href="#DejaVuSans-108"/>
       <use x="942.822266" xlink:href="#DejaVuSans-41"/>
      </g>
     </g>
    </g>
    <g id="xtick_7">
     <g id="line2d_19">
      <g>
       <use style="stroke:#000000;stroke-width:0.8;" x="884.618182" xlink:href="#me5b5f3075e" y="882"/>
      </g>
     </g>
     <g id="text_16">
      <!-- Tesla V100 -->
      <g transform="translate(856.890057 896.598438)scale(0.1 -0.1)">
       <use xlink:href="#DejaVuSans-84"/>
       <use x="60.818359" xlink:href="#DejaVuSans-101"/>
       <use x="122.341797" xlink:href="#DejaVuSans-115"/>
       <use x="174.441406" xlink:href="#DejaVuSans-108"/>
       <use x="202.224609" xlink:href="#DejaVuSans-97"/>
       <use x="263.503906" xlink:href="#DejaVuSans-32"/>
       <use x="295.291016" xlink:href="#DejaVuSans-86"/>
       <use x="363.699219" xlink:href="#DejaVuSans-49"/>
       <use x="427.322266" xlink:href="#DejaVuSans-48"/>
       <use x="490.945312" xlink:href="#DejaVuSans-48"/>
      </g>
      <!-- (13.23 mins/model) -->
      <g transform="translate(835.526776 907.79625)scale(0.1 -0.1)">
       <use xlink:href="#DejaVuSans-40"/>
       <use x="39.013672" xlink:href="#DejaVuSans-49"/>
       <use x="102.636719" xlink:href="#DejaVuSans-51"/>
       <use x="166.259766" xlink:href="#DejaVuSans-46"/>
       <use x="198.046875" xlink:href="#DejaVuSans-50"/>
       <use x="261.669922" xlink:href="#DejaVuSans-51"/>
       <use x="325.292969" xlink:href="#DejaVuSans-32"/>
       <use x="357.080078" xlink:href="#DejaVuSans-109"/>
       <use x="454.492188" xlink:href="#DejaVuSans-105"/>
       <use x="482.275391" xlink:href="#DejaVuSans-110"/>
       <use x="545.654297" xlink:href="#DejaVuSans-115"/>
       <use x="597.753906" xlink:href="#DejaVuSans-47"/>
       <use x="631.445312" xlink:href="#DejaVuSans-109"/>
       <use x="728.857422" xlink:href="#DejaVuSans-111"/>
       <use x="790.039062" xlink:href="#DejaVuSans-100"/>
       <use x="853.515625" xlink:href="#DejaVuSans-101"/>
       <use x="915.039062" xlink:href="#DejaVuSans-108"/>
       <use x="942.822266" xlink:href="#DejaVuSans-41"/>
      </g>
     </g>
    </g>
    <g id="xtick_8">
     <g id="line2d_20">
      <g>
       <use style="stroke:#000000;stroke-width:0.8;" x="986.072727" xlink:href="#me5b5f3075e" y="882"/>
      </g>
     </g>
     <g id="text_17">
      <!-- Jetson TX2 -->
      <g transform="translate(959.478977 896.598438)scale(0.1 -0.1)">
       <use xlink:href="#DejaVuSans-74"/>
       <use x="29.492188" xlink:href="#DejaVuSans-101"/>
       <use x="91.015625" xlink:href="#DejaVuSans-116"/>
       <use x="130.224609" xlink:href="#DejaVuSans-115"/>
       <use x="182.324219" xlink:href="#DejaVuSans-111"/>
       <use x="243.505859" xlink:href="#DejaVuSans-110"/>
       <use x="306.884766" xlink:href="#DejaVuSans-32"/>
       <use x="338.671875" xlink:href="#DejaVuSans-84"/>
       <use x="399.755859" xlink:href="#DejaVuSans-88"/>
       <use x="468.261719" xlink:href="#DejaVuSans-50"/>
      </g>
      <!-- (39.96 mins/model) -->
      <g transform="translate(936.981321 907.79625)scale(0.1 -0.1)">
       <use xlink:href="#DejaVuSans-40"/>
       <use x="39.013672" xlink:href="#DejaVuSans-51"/>
       <use x="102.636719" xlink:href="#DejaVuSans-57"/>
       <use x="166.259766" xlink:href="#DejaVuSans-46"/>
       <use x="198.046875" xlink:href="#DejaVuSans-57"/>
       <use x="261.669922" xlink:href="#DejaVuSans-54"/>
       <use x="325.292969" xlink:href="#DejaVuSans-32"/>
       <use x="357.080078" xlink:href="#DejaVuSans-109"/>
       <use x="454.492188" xlink:href="#DejaVuSans-105"/>
       <use x="482.275391" xlink:href="#DejaVuSans-110"/>
       <use x="545.654297" xlink:href="#DejaVuSans-115"/>
       <use x="597.753906" xlink:href="#DejaVuSans-47"/>
       <use x="631.445312" xlink:href="#DejaVuSans-109"/>
       <use x="728.857422" xlink:href="#DejaVuSans-111"/>
       <use x="790.039062" xlink:href="#DejaVuSans-100"/>
       <use x="853.515625" xlink:href="#DejaVuSans-101"/>
       <use x="915.039062" xlink:href="#DejaVuSans-108"/>
       <use x="942.822266" xlink:href="#DejaVuSans-41"/>
      </g>
     </g>
    </g>
    <g id="text_18">
     <!-- GPU Workers -->
     <g transform="translate(801.069034 921.474375)scale(0.1 -0.1)">
      <use xlink:href="#DejaVuSans-71"/>
      <use x="77.490234" xlink:href="#DejaVuSans-80"/>
      <use x="137.792969" xlink:href="#DejaVuSans-85"/>
      <use x="210.986328" xlink:href="#DejaVuSans-32"/>
      <use x="242.773438" xlink:href="#DejaVuSans-87"/>
      <use x="341.572266" xlink:href="#DejaVuSans-111"/>
      <use x="402.753906" xlink:href="#DejaVuSans-114"/>
      <use x="443.867188" xlink:href="#DejaVuSans-107"/>
      <use x="501.730469" xlink:href="#DejaVuSans-101"/>
      <use x="563.253906" xlink:href="#DejaVuSans-114"/>
      <use x="604.367188" xlink:href="#DejaVuSans-115"/>
     </g>
    </g>
   </g>
   <g id="matplotlib.axis_4">
    <g id="ytick_7">
     <g id="line2d_21">
      <path clip-path="url(#p0ca53bcd03)" d="M 630.981818 800.974598 
L 1036.8 800.974598 
" style="fill:none;stroke:#b0b0b0;stroke-linecap:square;stroke-width:0.8;"/>
     </g>
     <g id="line2d_22">
      <g>
       <use style="stroke:#000000;stroke-width:0.8;" x="630.981818" xlink:href="#me2d17e094c" y="800.974598"/>
      </g>
     </g>
     <g id="text_19">
      <!-- 10 -->
      <g transform="translate(611.256818 804.773817)scale(0.1 -0.1)">
       <use xlink:href="#DejaVuSans-49"/>
       <use x="63.623047" xlink:href="#DejaVuSans-48"/>
      </g>
     </g>
    </g>
    <g id="ytick_8">
     <g id="line2d_23">
      <path clip-path="url(#p0ca53bcd03)" d="M 630.981818 671.026793 
L 1036.8 671.026793 
" style="fill:none;stroke:#b0b0b0;stroke-linecap:square;stroke-width:0.8;"/>
     </g>
     <g id="line2d_24">
      <g>
       <use style="stroke:#000000;stroke-width:0.8;" x="630.981818" xlink:href="#me2d17e094c" y="671.026793"/>
      </g>
     </g>
     <g id="text_20">
      <!-- 20 -->
      <g transform="translate(611.256818 674.826012)scale(0.1 -0.1)">
       <use xlink:href="#DejaVuSans-50"/>
       <use x="63.623047" xlink:href="#DejaVuSans-48"/>
      </g>
     </g>
    </g>
    <g id="ytick_9">
     <g id="line2d_25">
      <path clip-path="url(#p0ca53bcd03)" d="M 630.981818 541.078988 
L 1036.8 541.078988 
" style="fill:none;stroke:#b0b0b0;stroke-linecap:square;stroke-width:0.8;"/>
     </g>
     <g id="line2d_26">
      <g>
       <use style="stroke:#000000;stroke-width:0.8;" x="630.981818" xlink:href="#me2d17e094c" y="541.078988"/>
      </g>
     </g>
     <g id="text_21">
      <!-- 30 -->
      <g transform="translate(611.256818 544.878207)scale(0.1 -0.1)">
       <use xlink:href="#DejaVuSans-51"/>
       <use x="63.623047" xlink:href="#DejaVuSans-48"/>
      </g>
     </g>
    </g>
    <g id="ytick_10">
     <g id="line2d_27">
      <path clip-path="url(#p0ca53bcd03)" d="M 630.981818 411.131183 
L 1036.8 411.131183 
" style="fill:none;stroke:#b0b0b0;stroke-linecap:square;stroke-width:0.8;"/>
     </g>
     <g id="line2d_28">
      <g>
       <use style="stroke:#000000;stroke-width:0.8;" x="630.981818" xlink:href="#me2d17e094c" y="411.131183"/>
      </g>
     </g>
     <g id="text_22">
      <!-- 40 -->
      <g transform="translate(611.256818 414.930402)scale(0.1 -0.1)">
       <use xlink:href="#DejaVuSans-52"/>
       <use x="63.623047" xlink:href="#DejaVuSans-48"/>
      </g>
     </g>
    </g>
    <g id="ytick_11">
     <g id="line2d_29">
      <path clip-path="url(#p0ca53bcd03)" d="M 630.981818 281.183378 
L 1036.8 281.183378 
" style="fill:none;stroke:#b0b0b0;stroke-linecap:square;stroke-width:0.8;"/>
     </g>
     <g id="line2d_30">
      <g>
       <use style="stroke:#000000;stroke-width:0.8;" x="630.981818" xlink:href="#me2d17e094c" y="281.183378"/>
      </g>
     </g>
     <g id="text_23">
      <!-- 50 -->
      <g transform="translate(611.256818 284.982596)scale(0.1 -0.1)">
       <use xlink:href="#DejaVuSans-53"/>
       <use x="63.623047" xlink:href="#DejaVuSans-48"/>
      </g>
     </g>
    </g>
    <g id="ytick_12">
     <g id="line2d_31">
      <path clip-path="url(#p0ca53bcd03)" d="M 630.981818 151.235572 
L 1036.8 151.235572 
" style="fill:none;stroke:#b0b0b0;stroke-linecap:square;stroke-width:0.8;"/>
     </g>
     <g id="line2d_32">
      <g>
       <use style="stroke:#000000;stroke-width:0.8;" x="630.981818" xlink:href="#me2d17e094c" y="151.235572"/>
      </g>
     </g>
     <g id="text_24">
      <!-- 60 -->
      <g transform="translate(611.256818 155.034791)scale(0.1 -0.1)">
       <use xlink:href="#DejaVuSans-54"/>
       <use x="63.623047" xlink:href="#DejaVuSans-48"/>
      </g>
     </g>
    </g>
    <g id="text_25">
     <!-- Time (minutes) -->
     <g transform="translate(605.177131 539.596406)rotate(-90)scale(0.1 -0.1)">
      <use xlink:href="#DejaVuSans-84"/>
      <use x="61.037109" xlink:href="#DejaVuSans-105"/>
      <use x="88.820312" xlink:href="#DejaVuSans-109"/>
      <use x="186.232422" xlink:href="#DejaVuSans-101"/>
      <use x="247.755859" xlink:href="#DejaVuSans-32"/>
      <use x="279.542969" xlink:href="#DejaVuSans-40"/>
      <use x="318.556641" xlink:href="#DejaVuSans-109"/>
      <use x="415.96875" xlink:href="#DejaVuSans-105"/>
      <use x="443.751953" xlink:href="#DejaVuSans-110"/>
      <use x="507.130859" xlink:href="#DejaVuSans-117"/>
      <use x="570.509766" xlink:href="#DejaVuSans-116"/>
      <use x="609.71875" xlink:href="#DejaVuSans-101"/>
      <use x="671.242188" xlink:href="#DejaVuSans-115"/>
      <use x="723.341797" xlink:href="#DejaVuSans-41"/>
     </g>
    </g>
   </g>
   <g id="line2d_33">
    <path clip-path="url(#p0ca53bcd03)" d="M 658.881818 804.471785 
L 704.536364 804.471785 
L 704.536364 715.887391 
L 658.881818 715.887391 
L 658.881818 804.471785 
" style="fill:none;stroke:#000000;stroke-linecap:square;"/>
   </g>
   <g id="line2d_34">
    <path clip-path="url(#p0ca53bcd03)" d="M 681.709091 804.471785 
L 681.709091 823.928633 
" style="fill:none;stroke:#000000;stroke-linecap:square;"/>
   </g>
   <g id="line2d_35">
    <path clip-path="url(#p0ca53bcd03)" d="M 681.709091 715.887391 
L 681.709091 707.078565 
" style="fill:none;stroke:#000000;stroke-linecap:square;"/>
   </g>
   <g id="line2d_36">
    <path clip-path="url(#p0ca53bcd03)" d="M 670.295455 823.928633 
L 693.122727 823.928633 
" style="fill:none;stroke:#000000;stroke-linecap:square;"/>
   </g>
   <g id="line2d_37">
    <path clip-path="url(#p0ca53bcd03)" d="M 670.295455 707.078565 
L 693.122727 707.078565 
" style="fill:none;stroke:#000000;stroke-linecap:square;"/>
   </g>
   <g id="line2d_38">
    <defs>
     <path d="M 0 3 
C 0.795609 3 1.55874 2.683901 2.12132 2.12132 
C 2.683901 1.55874 3 0.795609 3 0 
C 3 -0.795609 2.683901 -1.55874 2.12132 -2.12132 
C 1.55874 -2.683901 0.795609 -3 0 -3 
C -0.795609 -3 -1.55874 -2.683901 -2.12132 -2.12132 
C -2.683901 -1.55874 -3 -0.795609 -3 0 
C -3 0.795609 -2.683901 1.55874 -2.12132 2.12132 
C -1.55874 2.683901 -0.795609 3 0 3 
z
" id="m2085bb2809" style="stroke:#000000;"/>
    </defs>
    <g clip-path="url(#p0ca53bcd03)">
     <use style="fill-opacity:0;stroke:#000000;" x="681.709091" xlink:href="#m2085bb2809" y="366.874975"/>
    </g>
   </g>
   <g id="line2d_39">
    <path clip-path="url(#p0ca53bcd03)" d="M 760.336364 792.823784 
L 805.990909 792.823784 
L 805.990909 694.325629 
L 760.336364 694.325629 
L 760.336364 792.823784 
" style="fill:none;stroke:#000000;stroke-linecap:square;"/>
   </g>
   <g id="line2d_40">
    <path clip-path="url(#p0ca53bcd03)" d="M 783.163636 792.823784 
L 783.163636 847.407273 
" style="fill:none;stroke:#000000;stroke-linecap:square;"/>
   </g>
   <g id="line2d_41">
    <path clip-path="url(#p0ca53bcd03)" d="M 783.163636 694.325629 
L 783.163636 672.313983 
" style="fill:none;stroke:#000000;stroke-linecap:square;"/>
   </g>
   <g id="line2d_42">
    <path clip-path="url(#p0ca53bcd03)" d="M 771.75 847.407273 
L 794.577273 847.407273 
" style="fill:none;stroke:#000000;stroke-linecap:square;"/>
   </g>
   <g id="line2d_43">
    <path clip-path="url(#p0ca53bcd03)" d="M 771.75 672.313983 
L 794.577273 672.313983 
" style="fill:none;stroke:#000000;stroke-linecap:square;"/>
   </g>
   <g id="line2d_44">
    <g clip-path="url(#p0ca53bcd03)">
     <use style="fill-opacity:0;stroke:#000000;" x="783.163636" xlink:href="#m2085bb2809" y="495.152577"/>
    </g>
   </g>
   <g id="line2d_45">
    <path clip-path="url(#p0ca53bcd03)" d="M 861.790909 764.118388 
L 907.445455 764.118388 
L 907.445455 750.545731 
L 861.790909 750.545731 
L 861.790909 764.118388 
" style="fill:none;stroke:#000000;stroke-linecap:square;"/>
   </g>
   <g id="line2d_46">
    <path clip-path="url(#p0ca53bcd03)" d="M 884.618182 764.118388 
L 884.618182 775.776024 
" style="fill:none;stroke:#000000;stroke-linecap:square;"/>
   </g>
   <g id="line2d_47">
    <path clip-path="url(#p0ca53bcd03)" d="M 884.618182 750.545731 
L 884.618182 748.630711 
" style="fill:none;stroke:#000000;stroke-linecap:square;"/>
   </g>
   <g id="line2d_48">
    <path clip-path="url(#p0ca53bcd03)" d="M 873.204545 775.776024 
L 896.031818 775.776024 
" style="fill:none;stroke:#000000;stroke-linecap:square;"/>
   </g>
   <g id="line2d_49">
    <path clip-path="url(#p0ca53bcd03)" d="M 873.204545 748.630711 
L 896.031818 748.630711 
" style="fill:none;stroke:#000000;stroke-linecap:square;"/>
   </g>
   <g id="line2d_50"/>
   <g id="line2d_51">
    <path clip-path="url(#p0ca53bcd03)" d="M 963.245455 520.071389 
L 1008.9 520.071389 
L 1008.9 260.93986 
L 963.245455 260.93986 
L 963.245455 520.071389 
" style="fill:none;stroke:#000000;stroke-linecap:square;"/>
   </g>
   <g id="line2d_52">
    <path clip-path="url(#p0ca53bcd03)" d="M 986.072727 520.071389 
L 986.072727 617.731533 
" style="fill:none;stroke:#000000;stroke-linecap:square;"/>
   </g>
   <g id="line2d_53">
    <path clip-path="url(#p0ca53bcd03)" d="M 986.072727 260.93986 
L 986.072727 155.552727 
" style="fill:none;stroke:#000000;stroke-linecap:square;"/>
   </g>
   <g id="line2d_54">
    <path clip-path="url(#p0ca53bcd03)" d="M 974.659091 617.731533 
L 997.486364 617.731533 
" style="fill:none;stroke:#000000;stroke-linecap:square;"/>
   </g>
   <g id="line2d_55">
    <path clip-path="url(#p0ca53bcd03)" d="M 974.659091 155.552727 
L 997.486364 155.552727 
" style="fill:none;stroke:#000000;stroke-linecap:square;"/>
   </g>
   <g id="line2d_56"/>
   <g id="line2d_57">
    <path clip-path="url(#p0ca53bcd03)" d="M 658.881818 752.272385 
L 704.536364 752.272385 
" style="fill:none;stroke:#ff7f0e;stroke-linecap:square;"/>
   </g>
   <g id="line2d_58">
    <path clip-path="url(#p0ca53bcd03)" d="M 760.336364 743.722907 
L 805.990909 743.722907 
" style="fill:none;stroke:#ff7f0e;stroke-linecap:square;"/>
   </g>
   <g id="line2d_59">
    <path clip-path="url(#p0ca53bcd03)" d="M 861.790909 752.460751 
L 907.445455 752.460751 
" style="fill:none;stroke:#ff7f0e;stroke-linecap:square;"/>
   </g>
   <g id="line2d_60">
    <path clip-path="url(#p0ca53bcd03)" d="M 963.245455 491.417268 
L 1008.9 491.417268 
" style="fill:none;stroke:#ff7f0e;stroke-linecap:square;"/>
   </g>
   <g id="patch_8">
    <path d="M 630.981818 882 
L 630.981818 120.96 
" style="fill:none;stroke:#000000;stroke-linecap:square;stroke-linejoin:miter;stroke-width:0.8;"/>
   </g>
   <g id="patch_9">
    <path d="M 1036.8 882 
L 1036.8 120.96 
" style="fill:none;stroke:#000000;stroke-linecap:square;stroke-linejoin:miter;stroke-width:0.8;"/>
   </g>
   <g id="patch_10">
    <path d="M 630.981818 882 
L 1036.8 882 
" style="fill:none;stroke:#000000;stroke-linecap:square;stroke-linejoin:miter;stroke-width:0.8;"/>
   </g>
   <g id="patch_11">
    <path d="M 630.981818 120.96 
L 1036.8 120.96 
" style="fill:none;stroke:#000000;stroke-linecap:square;stroke-linejoin:miter;stroke-width:0.8;"/>
   </g>
   <g id="text_26">
    <!-- Box plot - RNN (4 layers) training times vs GPU (2469 samples, 99.73% CI) -->
    <defs>
     <path d="M 19.671875 34.8125 
L 19.671875 8.109375 
L 35.5 8.109375 
Q 43.453125 8.109375 47.28125 11.40625 
Q 51.125 14.703125 51.125 21.484375 
Q 51.125 28.328125 47.28125 31.5625 
Q 43.453125 34.8125 35.5 34.8125 
z
M 19.671875 64.796875 
L 19.671875 42.828125 
L 34.28125 42.828125 
Q 41.5 42.828125 45.03125 45.53125 
Q 48.578125 48.25 48.578125 53.8125 
Q 48.578125 59.328125 45.03125 62.0625 
Q 41.5 64.796875 34.28125 64.796875 
z
M 9.8125 72.90625 
L 35.015625 72.90625 
Q 46.296875 72.90625 52.390625 68.21875 
Q 58.5 63.53125 58.5 54.890625 
Q 58.5 48.1875 55.375 44.234375 
Q 52.25 40.28125 46.1875 39.3125 
Q 53.46875 37.75 57.5 32.78125 
Q 61.53125 27.828125 61.53125 20.40625 
Q 61.53125 10.640625 54.890625 5.3125 
Q 48.25 0 35.984375 0 
L 9.8125 0 
z
" id="DejaVuSans-66"/>
     <path d="M 54.890625 54.6875 
L 35.109375 28.078125 
L 55.90625 0 
L 45.3125 0 
L 29.390625 21.484375 
L 13.484375 0 
L 2.875 0 
L 24.125 28.609375 
L 4.6875 54.6875 
L 15.28125 54.6875 
L 29.78125 35.203125 
L 44.28125 54.6875 
z
" id="DejaVuSans-120"/>
    </defs>
    <g transform="translate(609.380284 114.96)scale(0.12 -0.12)">
     <use xlink:href="#DejaVuSans-66"/>
     <use x="68.603516" xlink:href="#DejaVuSans-111"/>
     <use x="129.738281" xlink:href="#DejaVuSans-120"/>
     <use x="188.917969" xlink:href="#DejaVuSans-32"/>
     <use x="220.705078" xlink:href="#DejaVuSans-112"/>
     <use x="284.181641" xlink:href="#DejaVuSans-108"/>
     <use x="311.964844" xlink:href="#DejaVuSans-111"/>
     <use x="373.146484" xlink:href="#DejaVuSans-116"/>
     <use x="412.355469" xlink:href="#DejaVuSans-32"/>
     <use x="444.142578" xlink:href="#DejaVuSans-45"/>
     <use x="480.226562" xlink:href="#DejaVuSans-32"/>
     <use x="512.013672" xlink:href="#DejaVuSans-82"/>
     <use x="581.496094" xlink:href="#DejaVuSans-78"/>
     <use x="656.300781" xlink:href="#DejaVuSans-78"/>
     <use x="731.105469" xlink:href="#DejaVuSans-32"/>
     <use x="762.892578" xlink:href="#DejaVuSans-40"/>
     <use x="801.90625" xlink:href="#DejaVuSans-52"/>
     <use x="865.529297" xlink:href="#DejaVuSans-32"/>
     <use x="897.316406" xlink:href="#DejaVuSans-108"/>
     <use x="925.099609" xlink:href="#DejaVuSans-97"/>
     <use x="986.378906" xlink:href="#DejaVuSans-121"/>
     <use x="1045.558594" xlink:href="#DejaVuSans-101"/>
     <use x="1107.082031" xlink:href="#DejaVuSans-114"/>
     <use x="1148.195312" xlink:href="#DejaVuSans-115"/>
     <use x="1200.294922" xlink:href="#DejaVuSans-41"/>
     <use x="1239.308594" xlink:href="#DejaVuSans-32"/>
     <use x="1271.095703" xlink:href="#DejaVuSans-116"/>
     <use x="1310.304688" xlink:href="#DejaVuSans-114"/>
     <use x="1351.417969" xlink:href="#DejaVuSans-97"/>
     <use x="1412.697266" xlink:href="#DejaVuSans-105"/>
     <use x="1440.480469" xlink:href="#DejaVuSans-110"/>
     <use x="1503.859375" xlink:href="#DejaVuSans-105"/>
     <use x="1531.642578" xlink:href="#DejaVuSans-110"/>
     <use x="1595.021484" xlink:href="#DejaVuSans-103"/>
     <use x="1658.498047" xlink:href="#DejaVuSans-32"/>
     <use x="1690.285156" xlink:href="#DejaVuSans-116"/>
     <use x="1729.494141" xlink:href="#DejaVuSans-105"/>
     <use x="1757.277344" xlink:href="#DejaVuSans-109"/>
     <use x="1854.689453" xlink:href="#DejaVuSans-101"/>
     <use x="1916.212891" xlink:href="#DejaVuSans-115"/>
     <use x="1968.3125" xlink:href="#DejaVuSans-32"/>
     <use x="2000.099609" xlink:href="#DejaVuSans-118"/>
     <use x="2059.279297" xlink:href="#DejaVuSans-115"/>
     <use x="2111.378906" xlink:href="#DejaVuSans-32"/>
     <use x="2143.166016" xlink:href="#DejaVuSans-71"/>
     <use x="2220.65625" xlink:href="#DejaVuSans-80"/>
     <use x="2280.958984" xlink:href="#DejaVuSans-85"/>
     <use x="2354.152344" xlink:href="#DejaVuSans-32"/>
     <use x="2385.939453" xlink:href="#DejaVuSans-40"/>
     <use x="2424.953125" xlink:href="#DejaVuSans-50"/>
     <use x="2488.576172" xlink:href="#DejaVuSans-52"/>
     <use x="2552.199219" xlink:href="#DejaVuSans-54"/>
     <use x="2615.822266" xlink:href="#DejaVuSans-57"/>
     <use x="2679.445312" xlink:href="#DejaVuSans-32"/>
     <use x="2711.232422" xlink:href="#DejaVuSans-115"/>
     <use x="2763.332031" xlink:href="#DejaVuSans-97"/>
     <use x="2824.611328" xlink:href="#DejaVuSans-109"/>
     <use x="2922.023438" xlink:href="#DejaVuSans-112"/>
     <use x="2985.5" xlink:href="#DejaVuSans-108"/>
     <use x="3013.283203" xlink:href="#DejaVuSans-101"/>
     <use x="3074.806641" xlink:href="#DejaVuSans-115"/>
     <use x="3126.90625" xlink:href="#DejaVuSans-44"/>
     <use x="3158.693359" xlink:href="#DejaVuSans-32"/>
     <use x="3190.480469" xlink:href="#DejaVuSans-57"/>
     <use x="3254.103516" xlink:href="#DejaVuSans-57"/>
     <use x="3317.726562" xlink:href="#DejaVuSans-46"/>
     <use x="3349.513672" xlink:href="#DejaVuSans-55"/>
     <use x="3413.136719" xlink:href="#DejaVuSans-51"/>
     <use x="3476.759766" xlink:href="#DejaVuSans-37"/>
     <use x="3571.779297" xlink:href="#DejaVuSans-32"/>
     <use x="3603.566406" xlink:href="#DejaVuSans-67"/>
     <use x="3673.390625" xlink:href="#DejaVuSans-73"/>
     <use x="3702.882812" xlink:href="#DejaVuSans-41"/>
    </g>
   </g>
  </g>
 </g>
 <defs>
  <clipPath id="pa9277ff9ad">
   <rect height="761.04" width="405.818182" x="144" y="120.96"/>
  </clipPath>
  <clipPath id="p0ca53bcd03">
   <rect height="761.04" width="405.818182" x="630.981818" y="120.96"/>
  </clipPath>
 </defs>
</svg>
