<?xml version="1.0" encoding="utf-8" standalone="no"?>
<!DOCTYPE svg PUBLIC "-//W3C//DTD SVG 1.1//EN"
  "http://www.w3.org/Graphics/SVG/1.1/DTD/svg11.dtd">
<!-- Created with matplotlib (https://matplotlib.org/) -->
<svg height="432pt" version="1.1" viewBox="0 0 576 432" width="576pt" xmlns="http://www.w3.org/2000/svg" xmlns:xlink="http://www.w3.org/1999/xlink">
 <defs>
  <style type="text/css">
*{stroke-linecap:butt;stroke-linejoin:round;white-space:pre;}
  </style>
 </defs>
 <g id="figure_1">
  <g id="patch_1">
   <path d="M 0 432 
L 576 432 
L 576 0 
L 0 0 
z
" style="fill:#ffffff;"/>
  </g>
  <g id="axes_1">
   <g id="patch_2">
    <path d="M 72 378 
L 518.4 378 
L 518.4 51.84 
L 72 51.84 
z
" style="fill:#ffffff;"/>
   </g>
   <g id="PolyCollection_1">
    <path clip-path="url(#p73fd57119e)" d="M 147.89149 353.112271 
L 94.664354 353.112271 
L 94.283551 351.133684 
L 93.93267 349.155097 
L 93.612981 347.17651 
L 93.325648 345.197922 
L 93.071719 343.219335 
L 92.852122 341.240748 
L 92.667659 339.262161 
L 92.518998 337.283573 
L 92.406672 335.304986 
L 92.331073 333.326399 
L 92.29245 331.347811 
L 92.290909 329.369224 
L 92.326408 327.390637 
L 92.39876 325.41205 
L 92.507633 323.433462 
L 92.652551 321.454875 
L 92.832898 319.476288 
L 93.047919 317.497701 
L 93.296726 315.519113 
L 93.578304 313.540526 
L 93.891514 311.561939 
L 94.235102 309.583352 
L 94.607703 307.604764 
L 95.007853 305.626177 
L 95.433993 303.64759 
L 95.88448 301.669002 
L 96.357597 299.690415 
L 96.851559 297.711828 
L 97.364526 295.733241 
L 97.89461 293.754653 
L 98.439888 291.776066 
L 98.998411 289.797479 
L 99.568211 287.818892 
L 100.147316 285.840304 
L 100.733755 283.861717 
L 101.325571 281.88313 
L 101.920829 279.904543 
L 102.517625 277.925955 
L 103.114092 275.947368 
L 103.708413 273.968781 
L 104.298827 271.990194 
L 104.883632 270.011606 
L 105.461198 268.033019 
L 106.029968 266.054432 
L 106.588468 264.075844 
L 107.135307 262.097257 
L 107.669185 260.11867 
L 108.188896 258.140083 
L 108.693332 256.161495 
L 109.181481 254.182908 
L 109.652435 252.204321 
L 110.105388 250.225734 
L 110.539637 248.247146 
L 110.954585 246.268559 
L 111.349736 244.289972 
L 111.724698 242.311385 
L 112.079181 240.332797 
L 112.412994 238.35421 
L 112.726045 236.375623 
L 113.018337 234.397035 
L 113.289965 232.418448 
L 113.541114 230.439861 
L 113.772054 228.461274 
L 113.983139 226.482686 
L 114.174797 224.504099 
L 114.347534 222.525512 
L 114.501922 220.546925 
L 114.638598 218.568337 
L 114.758258 216.58975 
L 114.861654 214.611163 
L 114.949584 212.632576 
L 115.022893 210.653988 
L 115.082463 208.675401 
L 115.12921 206.696814 
L 115.164077 204.718227 
L 115.188031 202.739639 
L 115.202055 200.761052 
L 115.207144 198.782465 
L 115.2043 196.803877 
L 115.194525 194.82529 
L 115.178819 192.846703 
L 115.158172 190.868116 
L 115.133563 188.889528 
L 115.105949 186.910941 
L 115.076267 184.932354 
L 115.045426 182.953767 
L 115.014306 180.975179 
L 114.983748 178.996592 
L 114.95456 177.018005 
L 114.927503 175.039418 
L 114.903298 173.06083 
L 114.882616 171.082243 
L 114.866078 169.103656 
L 114.854256 167.125068 
L 114.847665 165.146481 
L 114.846767 163.167894 
L 114.851969 161.189307 
L 114.863621 159.210719 
L 114.882014 157.232132 
L 127.67383 157.232132 
L 127.67383 157.232132 
L 127.692223 159.210719 
L 127.703875 161.189307 
L 127.709077 163.167894 
L 127.70818 165.146481 
L 127.701589 167.125068 
L 127.689766 169.103656 
L 127.673228 171.082243 
L 127.652546 173.06083 
L 127.628341 175.039418 
L 127.601284 177.018005 
L 127.572096 178.996592 
L 127.541538 180.975179 
L 127.510418 182.953767 
L 127.479577 184.932354 
L 127.449895 186.910941 
L 127.422281 188.889528 
L 127.397672 190.868116 
L 127.377025 192.846703 
L 127.361319 194.82529 
L 127.351545 196.803877 
L 127.3487 198.782465 
L 127.353789 200.761052 
L 127.367813 202.739639 
L 127.391767 204.718227 
L 127.426634 206.696814 
L 127.473381 208.675401 
L 127.532951 210.653988 
L 127.60626 212.632576 
L 127.694191 214.611163 
L 127.797586 216.58975 
L 127.917246 218.568337 
L 128.053922 220.546925 
L 128.20831 222.525512 
L 128.381047 224.504099 
L 128.572706 226.482686 
L 128.78379 228.461274 
L 129.014731 230.439861 
L 129.26588 232.418448 
L 129.537508 234.397035 
L 129.829799 236.375623 
L 130.14285 238.35421 
L 130.476663 240.332797 
L 130.831146 242.311385 
L 131.206108 244.289972 
L 131.601259 246.268559 
L 132.016207 248.247146 
L 132.450456 250.225734 
L 132.90341 252.204321 
L 133.374364 254.182908 
L 133.862513 256.161495 
L 134.366948 258.140083 
L 134.886659 260.11867 
L 135.420538 262.097257 
L 135.967377 264.075844 
L 136.525876 266.054432 
L 137.094646 268.033019 
L 137.672212 270.011606 
L 138.257017 271.990194 
L 138.847431 273.968781 
L 139.441752 275.947368 
L 140.03822 277.925955 
L 140.635015 279.904543 
L 141.230273 281.88313 
L 141.822089 283.861717 
L 142.408529 285.840304 
L 142.987633 287.818892 
L 143.557433 289.797479 
L 144.115956 291.776066 
L 144.661234 293.754653 
L 145.191318 295.733241 
L 145.704285 297.711828 
L 146.198247 299.690415 
L 146.671364 301.669002 
L 147.121851 303.64759 
L 147.547991 305.626177 
L 147.948141 307.604764 
L 148.320742 309.583352 
L 148.66433 311.561939 
L 148.97754 313.540526 
L 149.259118 315.519113 
L 149.507926 317.497701 
L 149.722946 319.476288 
L 149.903293 321.454875 
L 150.048211 323.433462 
L 150.157084 325.41205 
L 150.229436 327.390637 
L 150.264935 329.369224 
L 150.263394 331.347811 
L 150.224772 333.326399 
L 150.149173 335.304986 
L 150.036846 337.283573 
L 149.888185 339.262161 
L 149.703722 341.240748 
L 149.484125 343.219335 
L 149.230196 345.197922 
L 148.942863 347.17651 
L 148.623174 349.155097 
L 148.272293 351.133684 
L 147.89149 353.112271 
z
" style="fill:#1f77b4;fill-opacity:0.3;"/>
   </g>
   <g id="PolyCollection_2">
    <path clip-path="url(#p73fd57119e)" d="M 257.802499 363.174545 
L 216.649449 363.174545 
L 216.123972 361.649633 
L 215.607526 360.124721 
L 215.101045 358.599809 
L 214.605451 357.074897 
L 214.121659 355.549985 
L 213.650577 354.025073 
L 213.193104 352.500161 
L 212.750138 350.975249 
L 212.32257 349.450337 
L 211.911288 347.925424 
L 211.51718 346.400512 
L 211.141129 344.8756 
L 210.784016 343.350688 
L 210.446718 341.825776 
L 210.130105 340.300864 
L 209.835043 338.775952 
L 209.562384 337.25104 
L 209.312968 335.726128 
L 209.087614 334.201215 
L 208.88712 332.676303 
L 208.712254 331.151391 
L 208.563749 329.626479 
L 208.442296 328.101567 
L 208.348538 326.576655 
L 208.28306 325.051743 
L 208.246384 323.526831 
L 208.238961 322.001919 
L 208.26116 320.477007 
L 208.313265 318.952094 
L 208.395465 317.427182 
L 208.507847 315.90227 
L 208.650389 314.377358 
L 208.822958 312.852446 
L 209.0253 311.327534 
L 209.25704 309.802622 
L 209.517675 308.27771 
L 209.806575 306.752798 
L 210.122982 305.227885 
L 210.466008 303.702973 
L 210.834638 302.178061 
L 211.227733 300.653149 
L 211.644033 299.128237 
L 212.082163 297.603325 
L 212.540639 296.078413 
L 213.017876 294.553501 
L 213.512196 293.028589 
L 214.021838 291.503677 
L 214.54497 289.978764 
L 215.079698 288.453852 
L 215.624078 286.92894 
L 216.176134 285.404028 
L 216.733864 283.879116 
L 217.295258 282.354204 
L 217.858311 280.829292 
L 218.421035 279.30438 
L 218.981476 277.779468 
L 219.537724 276.254556 
L 220.08793 274.729643 
L 220.630312 273.204731 
L 221.163176 271.679819 
L 221.68492 270.154907 
L 222.194046 268.629995 
L 222.689174 267.105083 
L 223.169043 265.580171 
L 223.632526 264.055259 
L 224.07863 262.530347 
L 224.506505 261.005434 
L 224.915445 259.480522 
L 225.304894 257.95561 
L 225.674443 256.430698 
L 226.023835 254.905786 
L 226.352957 253.380874 
L 226.661844 251.855962 
L 226.950672 250.33105 
L 227.219754 248.806138 
L 227.46953 247.281226 
L 227.700569 245.756313 
L 227.913551 244.231401 
L 228.109263 242.706489 
L 228.288591 241.181577 
L 228.452506 239.656665 
L 228.602055 238.131753 
L 228.738348 236.606841 
L 228.862549 235.081929 
L 228.975863 233.557017 
L 229.079522 232.032104 
L 229.174776 230.507192 
L 229.262881 228.98228 
L 229.345084 227.457368 
L 229.422616 225.932456 
L 229.49668 224.407544 
L 229.568439 222.882632 
L 229.63901 221.35772 
L 229.709451 219.832808 
L 229.780757 218.307896 
L 229.853851 216.782983 
L 229.929579 215.258071 
L 230.008704 213.733159 
L 230.091902 212.208247 
L 244.360046 212.208247 
L 244.360046 212.208247 
L 244.443244 213.733159 
L 244.522369 215.258071 
L 244.598097 216.782983 
L 244.671191 218.307896 
L 244.742497 219.832808 
L 244.812938 221.35772 
L 244.883509 222.882632 
L 244.955268 224.407544 
L 245.029332 225.932456 
L 245.106864 227.457368 
L 245.189068 228.98228 
L 245.277172 230.507192 
L 245.372426 232.032104 
L 245.476086 233.557017 
L 245.589399 235.081929 
L 245.7136 236.606841 
L 245.849893 238.131753 
L 245.999442 239.656665 
L 246.163357 241.181577 
L 246.342685 242.706489 
L 246.538397 244.231401 
L 246.751379 245.756313 
L 246.982418 247.281226 
L 247.232194 248.806138 
L 247.501276 250.33105 
L 247.790104 251.855962 
L 248.098991 253.380874 
L 248.428113 254.905786 
L 248.777505 256.430698 
L 249.147054 257.95561 
L 249.536503 259.480522 
L 249.945443 261.005434 
L 250.373318 262.530347 
L 250.819422 264.055259 
L 251.282905 265.580171 
L 251.762774 267.105083 
L 252.257902 268.629995 
L 252.767029 270.154907 
L 253.288772 271.679819 
L 253.821636 273.204731 
L 254.364018 274.729643 
L 254.914224 276.254556 
L 255.470472 277.779468 
L 256.030913 279.30438 
L 256.593637 280.829292 
L 257.15669 282.354204 
L 257.718084 283.879116 
L 258.275814 285.404028 
L 258.82787 286.92894 
L 259.37225 288.453852 
L 259.906978 289.978764 
L 260.43011 291.503677 
L 260.939752 293.028589 
L 261.434072 294.553501 
L 261.911309 296.078413 
L 262.369785 297.603325 
L 262.807915 299.128237 
L 263.224215 300.653149 
L 263.61731 302.178061 
L 263.98594 303.702973 
L 264.328966 305.227885 
L 264.645373 306.752798 
L 264.934273 308.27771 
L 265.194908 309.802622 
L 265.426648 311.327534 
L 265.62899 312.852446 
L 265.801559 314.377358 
L 265.944101 315.90227 
L 266.056483 317.427182 
L 266.138683 318.952094 
L 266.190788 320.477007 
L 266.212987 322.001919 
L 266.205564 323.526831 
L 266.168888 325.051743 
L 266.10341 326.576655 
L 266.009652 328.101567 
L 265.888199 329.626479 
L 265.739694 331.151391 
L 265.564828 332.676303 
L 265.364334 334.201215 
L 265.13898 335.726128 
L 264.889564 337.25104 
L 264.616905 338.775952 
L 264.321843 340.300864 
L 264.00523 341.825776 
L 263.667932 343.350688 
L 263.310819 344.8756 
L 262.934768 346.400512 
L 262.54066 347.925424 
L 262.129378 349.450337 
L 261.70181 350.975249 
L 261.258844 352.500161 
L 260.801371 354.025073 
L 260.330289 355.549985 
L 259.846497 357.074897 
L 259.350903 358.599809 
L 258.844422 360.124721 
L 258.327976 361.649633 
L 257.802499 363.174545 
z
" style="fill:#1f77b4;fill-opacity:0.3;"/>
   </g>
   <g id="PolyCollection_3">
    <path clip-path="url(#p73fd57119e)" d="M 369.984987 332.475439 
L 336.363064 332.475439 
L 336.221326 332.357927 
L 336.081601 332.240414 
L 335.943766 332.122902 
L 335.807692 332.00539 
L 335.67324 331.887878 
L 335.540264 331.770366 
L 335.408614 331.652854 
L 335.27813 331.535341 
L 335.148651 331.417829 
L 335.020008 331.300317 
L 334.89203 331.182805 
L 334.764542 331.065293 
L 334.637368 330.947781 
L 334.510327 330.830268 
L 334.383242 330.712756 
L 334.255932 330.595244 
L 334.128218 330.477732 
L 333.999923 330.36022 
L 333.870873 330.242707 
L 333.740897 330.125195 
L 333.609827 330.007683 
L 333.477502 329.890171 
L 333.343766 329.772659 
L 333.208471 329.655147 
L 333.071474 329.537634 
L 332.932643 329.420122 
L 332.791855 329.30261 
L 332.648996 329.185098 
L 332.503964 329.067586 
L 332.356666 328.950073 
L 332.207026 328.832561 
L 332.054976 328.715049 
L 331.900465 328.597537 
L 331.743453 328.480025 
L 331.583918 328.362513 
L 331.42185 328.245 
L 331.257256 328.127488 
L 331.09016 328.009976 
L 330.9206 327.892464 
L 330.748632 327.774952 
L 330.574328 327.657439 
L 330.397777 327.539927 
L 330.219085 327.422415 
L 330.038375 327.304903 
L 329.855787 327.187391 
L 329.671477 327.069879 
L 329.485619 326.952366 
L 329.298403 326.834854 
L 329.110034 326.717342 
L 328.920735 326.59983 
L 328.730742 326.482318 
L 328.540308 326.364806 
L 328.349698 326.247293 
L 328.159193 326.129781 
L 327.969086 326.012269 
L 327.779682 325.894757 
L 327.5913 325.777245 
L 327.404266 325.659732 
L 327.21892 325.54222 
L 327.035607 325.424708 
L 326.854684 325.307196 
L 326.676512 325.189684 
L 326.50146 325.072172 
L 326.329903 324.954659 
L 326.162217 324.837147 
L 325.998782 324.719635 
L 325.839983 324.602123 
L 325.686201 324.484611 
L 325.537819 324.367098 
L 325.395218 324.249586 
L 325.258776 324.132074 
L 325.128869 324.014562 
L 325.005864 323.89705 
L 324.890125 323.779538 
L 324.782008 323.662025 
L 324.68186 323.544513 
L 324.590019 323.427001 
L 324.506812 323.309489 
L 324.432556 323.191977 
L 324.367552 323.074464 
L 324.312092 322.956952 
L 324.26645 322.83944 
L 324.230885 322.721928 
L 324.205643 322.604416 
L 324.190949 322.486904 
L 324.187013 322.369391 
L 324.194026 322.251879 
L 324.21216 322.134367 
L 324.241567 322.016855 
L 324.282381 321.899343 
L 324.334713 321.781831 
L 324.398656 321.664318 
L 324.474279 321.546806 
L 324.561632 321.429294 
L 324.660742 321.311782 
L 324.771617 321.19427 
L 324.89424 321.076757 
L 325.028576 320.959245 
L 325.174564 320.841733 
L 381.173488 320.841733 
L 381.173488 320.841733 
L 381.319476 320.959245 
L 381.453812 321.076757 
L 381.576435 321.19427 
L 381.68731 321.311782 
L 381.78642 321.429294 
L 381.873773 321.546806 
L 381.949396 321.664318 
L 382.013339 321.781831 
L 382.065671 321.899343 
L 382.106485 322.016855 
L 382.135892 322.134367 
L 382.154026 322.251879 
L 382.161039 322.369391 
L 382.157103 322.486904 
L 382.142409 322.604416 
L 382.117167 322.721928 
L 382.081602 322.83944 
L 382.03596 322.956952 
L 381.9805 323.074464 
L 381.915496 323.191977 
L 381.84124 323.309489 
L 381.758033 323.427001 
L 381.666192 323.544513 
L 381.566044 323.662025 
L 381.457927 323.779538 
L 381.342188 323.89705 
L 381.219183 324.014562 
L 381.089276 324.132074 
L 380.952834 324.249586 
L 380.810233 324.367098 
L 380.661851 324.484611 
L 380.508069 324.602123 
L 380.349269 324.719635 
L 380.185835 324.837147 
L 380.018149 324.954659 
L 379.846592 325.072172 
L 379.67154 325.189684 
L 379.493368 325.307196 
L 379.312445 325.424708 
L 379.129132 325.54222 
L 378.943786 325.659732 
L 378.756752 325.777245 
L 378.568369 325.894757 
L 378.378966 326.012269 
L 378.188859 326.129781 
L 377.998354 326.247293 
L 377.807744 326.364806 
L 377.61731 326.482318 
L 377.427317 326.59983 
L 377.238018 326.717342 
L 377.049649 326.834854 
L 376.862433 326.952366 
L 376.676575 327.069879 
L 376.492265 327.187391 
L 376.309677 327.304903 
L 376.128967 327.422415 
L 375.950275 327.539927 
L 375.773724 327.657439 
L 375.59942 327.774952 
L 375.427451 327.892464 
L 375.257892 328.009976 
L 375.090795 328.127488 
L 374.926202 328.245 
L 374.764134 328.362513 
L 374.604599 328.480025 
L 374.447587 328.597537 
L 374.293076 328.715049 
L 374.141026 328.832561 
L 373.991386 328.950073 
L 373.844088 329.067586 
L 373.699056 329.185098 
L 373.556197 329.30261 
L 373.415409 329.420122 
L 373.276578 329.537634 
L 373.139581 329.655147 
L 373.004286 329.772659 
L 372.87055 329.890171 
L 372.738225 330.007683 
L 372.607155 330.125195 
L 372.477179 330.242707 
L 372.348129 330.36022 
L 372.219834 330.477732 
L 372.09212 330.595244 
L 371.96481 330.712756 
L 371.837725 330.830268 
L 371.710684 330.947781 
L 371.58351 331.065293 
L 371.456022 331.182805 
L 371.328044 331.300317 
L 371.199401 331.417829 
L 371.069922 331.535341 
L 370.939438 331.652854 
L 370.807788 331.770366 
L 370.674812 331.887878 
L 370.54036 332.00539 
L 370.404286 332.122902 
L 370.266451 332.240414 
L 370.126726 332.357927 
L 369.984987 332.475439 
z
" style="fill:#1f77b4;fill-opacity:0.3;"/>
   </g>
   <g id="PolyCollection_4">
    <path clip-path="url(#p73fd57119e)" d="M 492.688184 264.742086 
L 445.555972 264.742086 
L 445.090396 262.741312 
L 444.639735 260.740537 
L 444.20514 258.739763 
L 443.787727 256.738989 
L 443.388575 254.738215 
L 443.008719 252.737441 
L 442.649143 250.736667 
L 442.310777 248.735893 
L 441.994492 246.735119 
L 441.701089 244.734345 
L 441.431304 242.733571 
L 441.185794 240.732797 
L 440.965138 238.732023 
L 440.76983 236.731249 
L 440.60028 234.730475 
L 440.456805 232.729701 
L 440.33963 230.728927 
L 440.248886 228.728153 
L 440.184603 226.727379 
L 440.146718 224.726605 
L 440.135065 222.725831 
L 440.14938 220.725056 
L 440.189301 218.724282 
L 440.254367 216.723508 
L 440.344021 214.722734 
L 440.457611 212.72196 
L 440.594395 210.721186 
L 440.753541 208.720412 
L 440.934133 206.719638 
L 441.135176 204.718864 
L 441.355596 202.71809 
L 441.594252 200.717316 
L 441.849938 198.716542 
L 442.121387 196.715768 
L 442.407283 194.714994 
L 442.706265 192.71422 
L 443.016932 190.713446 
L 443.337855 188.712672 
L 443.667582 186.711898 
L 444.004643 184.711124 
L 444.347566 182.71035 
L 444.694878 180.709575 
L 445.045113 178.708801 
L 445.396825 176.708027 
L 445.748592 174.707253 
L 446.099025 172.706479 
L 446.446774 170.705705 
L 446.790537 168.704931 
L 447.129066 166.704157 
L 447.461175 164.703383 
L 447.785745 162.702609 
L 448.101728 160.701835 
L 448.408158 158.701061 
L 448.704148 156.700287 
L 448.988901 154.699513 
L 449.26171 152.698739 
L 449.521962 150.697965 
L 449.769142 148.697191 
L 450.002832 146.696417 
L 450.222715 144.695643 
L 450.428572 142.694868 
L 450.620289 140.694094 
L 450.797846 138.69332 
L 450.961325 136.692546 
L 451.110904 134.691772 
L 451.246854 132.690998 
L 451.369537 130.690224 
L 451.479403 128.68945 
L 451.576983 126.688676 
L 451.662888 124.687902 
L 451.737802 122.687128 
L 451.802475 120.686354 
L 451.857721 118.68558 
L 451.904406 116.684806 
L 451.943449 114.684032 
L 451.975807 112.683258 
L 452.002474 110.682484 
L 452.024472 108.68171 
L 452.042842 106.680936 
L 452.058641 104.680162 
L 452.072931 102.679387 
L 452.086771 100.678613 
L 452.101216 98.677839 
L 452.117302 96.677065 
L 452.136048 94.676291 
L 452.15844 92.675517 
L 452.185435 90.674743 
L 452.217947 88.673969 
L 452.256845 86.673195 
L 452.302949 84.672421 
L 452.357023 82.671647 
L 452.419775 80.670873 
L 452.491846 78.670099 
L 452.573815 76.669325 
L 452.666191 74.668551 
L 452.769414 72.667777 
L 452.883851 70.667003 
L 453.009796 68.666229 
L 453.14747 66.665455 
L 485.096685 66.665455 
L 485.096685 66.665455 
L 485.23436 68.666229 
L 485.360305 70.667003 
L 485.474742 72.667777 
L 485.577964 74.668551 
L 485.670341 76.669325 
L 485.75231 78.670099 
L 485.824381 80.670873 
L 485.887132 82.671647 
L 485.941207 84.672421 
L 485.987311 86.673195 
L 486.026209 88.673969 
L 486.058721 90.674743 
L 486.085715 92.675517 
L 486.108108 94.676291 
L 486.126854 96.677065 
L 486.14294 98.677839 
L 486.157385 100.678613 
L 486.171225 102.679387 
L 486.185515 104.680162 
L 486.201314 106.680936 
L 486.219684 108.68171 
L 486.241682 110.682484 
L 486.268349 112.683258 
L 486.300707 114.684032 
L 486.33975 116.684806 
L 486.386435 118.68558 
L 486.441681 120.686354 
L 486.506354 122.687128 
L 486.581268 124.687902 
L 486.667173 126.688676 
L 486.764753 128.68945 
L 486.874619 130.690224 
L 486.997302 132.690998 
L 487.133252 134.691772 
L 487.282831 136.692546 
L 487.44631 138.69332 
L 487.623867 140.694094 
L 487.815583 142.694868 
L 488.021441 144.695643 
L 488.241324 146.696417 
L 488.475014 148.697191 
L 488.722194 150.697965 
L 488.982446 152.698739 
L 489.255255 154.699513 
L 489.540008 156.700287 
L 489.835998 158.701061 
L 490.142427 160.701835 
L 490.458411 162.702609 
L 490.782981 164.703383 
L 491.11509 166.704157 
L 491.453619 168.704931 
L 491.797382 170.705705 
L 492.145131 172.706479 
L 492.495563 174.707253 
L 492.847331 176.708027 
L 493.199043 178.708801 
L 493.549278 180.709575 
L 493.896589 182.71035 
L 494.239513 184.711124 
L 494.576574 186.711898 
L 494.9063 188.712672 
L 495.227223 190.713446 
L 495.537891 192.71422 
L 495.836872 194.714994 
L 496.122769 196.715768 
L 496.394218 198.716542 
L 496.649904 200.717316 
L 496.88856 202.71809 
L 497.10898 204.718864 
L 497.310023 206.719638 
L 497.490615 208.720412 
L 497.649761 210.721186 
L 497.786545 212.72196 
L 497.900135 214.722734 
L 497.989789 216.723508 
L 498.054855 218.724282 
L 498.094776 220.725056 
L 498.109091 222.725831 
L 498.097438 224.726605 
L 498.059553 226.727379 
L 497.99527 228.728153 
L 497.904525 230.728927 
L 497.787351 232.729701 
L 497.643876 234.730475 
L 497.474326 236.731249 
L 497.279018 238.732023 
L 497.058362 240.732797 
L 496.812852 242.733571 
L 496.543066 244.734345 
L 496.249664 246.735119 
L 495.933378 248.735893 
L 495.595013 250.736667 
L 495.235437 252.737441 
L 494.855581 254.738215 
L 494.456429 256.738989 
L 494.039016 258.739763 
L 493.604421 260.740537 
L 493.15376 262.741312 
L 492.688184 264.742086 
z
" style="fill:#1f77b4;fill-opacity:0.3;"/>
   </g>
   <g id="matplotlib.axis_1">
    <g id="xtick_1">
     <g id="line2d_1">
      <defs>
       <path d="M 0 0 
L 0 3.5 
" id="m300678472a" style="stroke:#000000;stroke-width:0.8;"/>
      </defs>
      <g>
       <use style="stroke:#000000;stroke-width:0.8;" x="121.277922" xlink:href="#m300678472a" y="378"/>
      </g>
     </g>
     <g id="text_1">
      <!-- Tesla P100 -->
      <defs>
       <path d="M -0.296875 72.90625 
L 61.375 72.90625 
L 61.375 64.59375 
L 35.5 64.59375 
L 35.5 0 
L 25.59375 0 
L 25.59375 64.59375 
L -0.296875 64.59375 
z
" id="DejaVuSans-84"/>
       <path d="M 56.203125 29.59375 
L 56.203125 25.203125 
L 14.890625 25.203125 
Q 15.484375 15.921875 20.484375 11.0625 
Q 25.484375 6.203125 34.421875 6.203125 
Q 39.59375 6.203125 44.453125 7.46875 
Q 49.3125 8.734375 54.109375 11.28125 
L 54.109375 2.78125 
Q 49.265625 0.734375 44.1875 -0.34375 
Q 39.109375 -1.421875 33.890625 -1.421875 
Q 20.796875 -1.421875 13.15625 6.1875 
Q 5.515625 13.8125 5.515625 26.8125 
Q 5.515625 40.234375 12.765625 48.109375 
Q 20.015625 56 32.328125 56 
Q 43.359375 56 49.78125 48.890625 
Q 56.203125 41.796875 56.203125 29.59375 
z
M 47.21875 32.234375 
Q 47.125 39.59375 43.09375 43.984375 
Q 39.0625 48.390625 32.421875 48.390625 
Q 24.90625 48.390625 20.390625 44.140625 
Q 15.875 39.890625 15.1875 32.171875 
z
" id="DejaVuSans-101"/>
       <path d="M 44.28125 53.078125 
L 44.28125 44.578125 
Q 40.484375 46.53125 36.375 47.5 
Q 32.28125 48.484375 27.875 48.484375 
Q 21.1875 48.484375 17.84375 46.4375 
Q 14.5 44.390625 14.5 40.28125 
Q 14.5 37.15625 16.890625 35.375 
Q 19.28125 33.59375 26.515625 31.984375 
L 29.59375 31.296875 
Q 39.15625 29.25 43.1875 25.515625 
Q 47.21875 21.78125 47.21875 15.09375 
Q 47.21875 7.46875 41.1875 3.015625 
Q 35.15625 -1.421875 24.609375 -1.421875 
Q 20.21875 -1.421875 15.453125 -0.5625 
Q 10.6875 0.296875 5.421875 2 
L 5.421875 11.28125 
Q 10.40625 8.6875 15.234375 7.390625 
Q 20.0625 6.109375 24.8125 6.109375 
Q 31.15625 6.109375 34.5625 8.28125 
Q 37.984375 10.453125 37.984375 14.40625 
Q 37.984375 18.0625 35.515625 20.015625 
Q 33.0625 21.96875 24.703125 23.78125 
L 21.578125 24.515625 
Q 13.234375 26.265625 9.515625 29.90625 
Q 5.8125 33.546875 5.8125 39.890625 
Q 5.8125 47.609375 11.28125 51.796875 
Q 16.75 56 26.8125 56 
Q 31.78125 56 36.171875 55.265625 
Q 40.578125 54.546875 44.28125 53.078125 
z
" id="DejaVuSans-115"/>
       <path d="M 9.421875 75.984375 
L 18.40625 75.984375 
L 18.40625 0 
L 9.421875 0 
z
" id="DejaVuSans-108"/>
       <path d="M 34.28125 27.484375 
Q 23.390625 27.484375 19.1875 25 
Q 14.984375 22.515625 14.984375 16.5 
Q 14.984375 11.71875 18.140625 8.90625 
Q 21.296875 6.109375 26.703125 6.109375 
Q 34.1875 6.109375 38.703125 11.40625 
Q 43.21875 16.703125 43.21875 25.484375 
L 43.21875 27.484375 
z
M 52.203125 31.203125 
L 52.203125 0 
L 43.21875 0 
L 43.21875 8.296875 
Q 40.140625 3.328125 35.546875 0.953125 
Q 30.953125 -1.421875 24.3125 -1.421875 
Q 15.921875 -1.421875 10.953125 3.296875 
Q 6 8.015625 6 15.921875 
Q 6 25.140625 12.171875 29.828125 
Q 18.359375 34.515625 30.609375 34.515625 
L 43.21875 34.515625 
L 43.21875 35.40625 
Q 43.21875 41.609375 39.140625 45 
Q 35.0625 48.390625 27.6875 48.390625 
Q 23 48.390625 18.546875 47.265625 
Q 14.109375 46.140625 10.015625 43.890625 
L 10.015625 52.203125 
Q 14.9375 54.109375 19.578125 55.046875 
Q 24.21875 56 28.609375 56 
Q 40.484375 56 46.34375 49.84375 
Q 52.203125 43.703125 52.203125 31.203125 
z
" id="DejaVuSans-97"/>
       <path id="DejaVuSans-32"/>
       <path d="M 19.671875 64.796875 
L 19.671875 37.40625 
L 32.078125 37.40625 
Q 38.96875 37.40625 42.71875 40.96875 
Q 46.484375 44.53125 46.484375 51.125 
Q 46.484375 57.671875 42.71875 61.234375 
Q 38.96875 64.796875 32.078125 64.796875 
z
M 9.8125 72.90625 
L 32.078125 72.90625 
Q 44.34375 72.90625 50.609375 67.359375 
Q 56.890625 61.8125 56.890625 51.125 
Q 56.890625 40.328125 50.609375 34.8125 
Q 44.34375 29.296875 32.078125 29.296875 
L 19.671875 29.296875 
L 19.671875 0 
L 9.8125 0 
z
" id="DejaVuSans-80"/>
       <path d="M 12.40625 8.296875 
L 28.515625 8.296875 
L 28.515625 63.921875 
L 10.984375 60.40625 
L 10.984375 69.390625 
L 28.421875 72.90625 
L 38.28125 72.90625 
L 38.28125 8.296875 
L 54.390625 8.296875 
L 54.390625 0 
L 12.40625 0 
z
" id="DejaVuSans-49"/>
       <path d="M 31.78125 66.40625 
Q 24.171875 66.40625 20.328125 58.90625 
Q 16.5 51.421875 16.5 36.375 
Q 16.5 21.390625 20.328125 13.890625 
Q 24.171875 6.390625 31.78125 6.390625 
Q 39.453125 6.390625 43.28125 13.890625 
Q 47.125 21.390625 47.125 36.375 
Q 47.125 51.421875 43.28125 58.90625 
Q 39.453125 66.40625 31.78125 66.40625 
z
M 31.78125 74.21875 
Q 44.046875 74.21875 50.515625 64.515625 
Q 56.984375 54.828125 56.984375 36.375 
Q 56.984375 17.96875 50.515625 8.265625 
Q 44.046875 -1.421875 31.78125 -1.421875 
Q 19.53125 -1.421875 13.0625 8.265625 
Q 6.59375 17.96875 6.59375 36.375 
Q 6.59375 54.828125 13.0625 64.515625 
Q 19.53125 74.21875 31.78125 74.21875 
z
" id="DejaVuSans-48"/>
      </defs>
      <g transform="translate(93.955266 392.598437)scale(0.1 -0.1)">
       <use xlink:href="#DejaVuSans-84"/>
       <use x="60.818359" xlink:href="#DejaVuSans-101"/>
       <use x="122.341797" xlink:href="#DejaVuSans-115"/>
       <use x="174.441406" xlink:href="#DejaVuSans-108"/>
       <use x="202.224609" xlink:href="#DejaVuSans-97"/>
       <use x="263.503906" xlink:href="#DejaVuSans-32"/>
       <use x="295.291016" xlink:href="#DejaVuSans-80"/>
       <use x="355.59375" xlink:href="#DejaVuSans-49"/>
       <use x="419.216797" xlink:href="#DejaVuSans-48"/>
       <use x="482.839844" xlink:href="#DejaVuSans-48"/>
      </g>
      <!-- (17.50 mins/model) -->
      <defs>
       <path d="M 31 75.875 
Q 24.46875 64.65625 21.28125 53.65625 
Q 18.109375 42.671875 18.109375 31.390625 
Q 18.109375 20.125 21.3125 9.0625 
Q 24.515625 -2 31 -13.1875 
L 23.1875 -13.1875 
Q 15.875 -1.703125 12.234375 9.375 
Q 8.59375 20.453125 8.59375 31.390625 
Q 8.59375 42.28125 12.203125 53.3125 
Q 15.828125 64.359375 23.1875 75.875 
z
" id="DejaVuSans-40"/>
       <path d="M 8.203125 72.90625 
L 55.078125 72.90625 
L 55.078125 68.703125 
L 28.609375 0 
L 18.3125 0 
L 43.21875 64.59375 
L 8.203125 64.59375 
z
" id="DejaVuSans-55"/>
       <path d="M 10.6875 12.40625 
L 21 12.40625 
L 21 0 
L 10.6875 0 
z
" id="DejaVuSans-46"/>
       <path d="M 10.796875 72.90625 
L 49.515625 72.90625 
L 49.515625 64.59375 
L 19.828125 64.59375 
L 19.828125 46.734375 
Q 21.96875 47.46875 24.109375 47.828125 
Q 26.265625 48.1875 28.421875 48.1875 
Q 40.625 48.1875 47.75 41.5 
Q 54.890625 34.8125 54.890625 23.390625 
Q 54.890625 11.625 47.5625 5.09375 
Q 40.234375 -1.421875 26.90625 -1.421875 
Q 22.3125 -1.421875 17.546875 -0.640625 
Q 12.796875 0.140625 7.71875 1.703125 
L 7.71875 11.625 
Q 12.109375 9.234375 16.796875 8.0625 
Q 21.484375 6.890625 26.703125 6.890625 
Q 35.15625 6.890625 40.078125 11.328125 
Q 45.015625 15.765625 45.015625 23.390625 
Q 45.015625 31 40.078125 35.4375 
Q 35.15625 39.890625 26.703125 39.890625 
Q 22.75 39.890625 18.8125 39.015625 
Q 14.890625 38.140625 10.796875 36.28125 
z
" id="DejaVuSans-53"/>
       <path d="M 52 44.1875 
Q 55.375 50.25 60.0625 53.125 
Q 64.75 56 71.09375 56 
Q 79.640625 56 84.28125 50.015625 
Q 88.921875 44.046875 88.921875 33.015625 
L 88.921875 0 
L 79.890625 0 
L 79.890625 32.71875 
Q 79.890625 40.578125 77.09375 44.375 
Q 74.3125 48.1875 68.609375 48.1875 
Q 61.625 48.1875 57.5625 43.546875 
Q 53.515625 38.921875 53.515625 30.90625 
L 53.515625 0 
L 44.484375 0 
L 44.484375 32.71875 
Q 44.484375 40.625 41.703125 44.40625 
Q 38.921875 48.1875 33.109375 48.1875 
Q 26.21875 48.1875 22.15625 43.53125 
Q 18.109375 38.875 18.109375 30.90625 
L 18.109375 0 
L 9.078125 0 
L 9.078125 54.6875 
L 18.109375 54.6875 
L 18.109375 46.1875 
Q 21.1875 51.21875 25.484375 53.609375 
Q 29.78125 56 35.6875 56 
Q 41.65625 56 45.828125 52.96875 
Q 50 49.953125 52 44.1875 
z
" id="DejaVuSans-109"/>
       <path d="M 9.421875 54.6875 
L 18.40625 54.6875 
L 18.40625 0 
L 9.421875 0 
z
M 9.421875 75.984375 
L 18.40625 75.984375 
L 18.40625 64.59375 
L 9.421875 64.59375 
z
" id="DejaVuSans-105"/>
       <path d="M 54.890625 33.015625 
L 54.890625 0 
L 45.90625 0 
L 45.90625 32.71875 
Q 45.90625 40.484375 42.875 44.328125 
Q 39.84375 48.1875 33.796875 48.1875 
Q 26.515625 48.1875 22.3125 43.546875 
Q 18.109375 38.921875 18.109375 30.90625 
L 18.109375 0 
L 9.078125 0 
L 9.078125 54.6875 
L 18.109375 54.6875 
L 18.109375 46.1875 
Q 21.34375 51.125 25.703125 53.5625 
Q 30.078125 56 35.796875 56 
Q 45.21875 56 50.046875 50.171875 
Q 54.890625 44.34375 54.890625 33.015625 
z
" id="DejaVuSans-110"/>
       <path d="M 25.390625 72.90625 
L 33.6875 72.90625 
L 8.296875 -9.28125 
L 0 -9.28125 
z
" id="DejaVuSans-47"/>
       <path d="M 30.609375 48.390625 
Q 23.390625 48.390625 19.1875 42.75 
Q 14.984375 37.109375 14.984375 27.296875 
Q 14.984375 17.484375 19.15625 11.84375 
Q 23.34375 6.203125 30.609375 6.203125 
Q 37.796875 6.203125 41.984375 11.859375 
Q 46.1875 17.53125 46.1875 27.296875 
Q 46.1875 37.015625 41.984375 42.703125 
Q 37.796875 48.390625 30.609375 48.390625 
z
M 30.609375 56 
Q 42.328125 56 49.015625 48.375 
Q 55.71875 40.765625 55.71875 27.296875 
Q 55.71875 13.875 49.015625 6.21875 
Q 42.328125 -1.421875 30.609375 -1.421875 
Q 18.84375 -1.421875 12.171875 6.21875 
Q 5.515625 13.875 5.515625 27.296875 
Q 5.515625 40.765625 12.171875 48.375 
Q 18.84375 56 30.609375 56 
z
" id="DejaVuSans-111"/>
       <path d="M 45.40625 46.390625 
L 45.40625 75.984375 
L 54.390625 75.984375 
L 54.390625 0 
L 45.40625 0 
L 45.40625 8.203125 
Q 42.578125 3.328125 38.25 0.953125 
Q 33.9375 -1.421875 27.875 -1.421875 
Q 17.96875 -1.421875 11.734375 6.484375 
Q 5.515625 14.40625 5.515625 27.296875 
Q 5.515625 40.1875 11.734375 48.09375 
Q 17.96875 56 27.875 56 
Q 33.9375 56 38.25 53.625 
Q 42.578125 51.265625 45.40625 46.390625 
z
M 14.796875 27.296875 
Q 14.796875 17.390625 18.875 11.75 
Q 22.953125 6.109375 30.078125 6.109375 
Q 37.203125 6.109375 41.296875 11.75 
Q 45.40625 17.390625 45.40625 27.296875 
Q 45.40625 37.203125 41.296875 42.84375 
Q 37.203125 48.484375 30.078125 48.484375 
Q 22.953125 48.484375 18.875 42.84375 
Q 14.796875 37.203125 14.796875 27.296875 
z
" id="DejaVuSans-100"/>
       <path d="M 8.015625 75.875 
L 15.828125 75.875 
Q 23.140625 64.359375 26.78125 53.3125 
Q 30.421875 42.28125 30.421875 31.390625 
Q 30.421875 20.453125 26.78125 9.375 
Q 23.140625 -1.703125 15.828125 -13.1875 
L 8.015625 -13.1875 
Q 14.5 -2 17.703125 9.0625 
Q 20.90625 20.125 20.90625 31.390625 
Q 20.90625 42.671875 17.703125 53.65625 
Q 14.5 64.65625 8.015625 75.875 
z
" id="DejaVuSans-41"/>
      </defs>
      <g transform="translate(72.186516 403.79625)scale(0.1 -0.1)">
       <use xlink:href="#DejaVuSans-40"/>
       <use x="39.013672" xlink:href="#DejaVuSans-49"/>
       <use x="102.636719" xlink:href="#DejaVuSans-55"/>
       <use x="166.259766" xlink:href="#DejaVuSans-46"/>
       <use x="198.046875" xlink:href="#DejaVuSans-53"/>
       <use x="261.669922" xlink:href="#DejaVuSans-48"/>
       <use x="325.292969" xlink:href="#DejaVuSans-32"/>
       <use x="357.080078" xlink:href="#DejaVuSans-109"/>
       <use x="454.492188" xlink:href="#DejaVuSans-105"/>
       <use x="482.275391" xlink:href="#DejaVuSans-110"/>
       <use x="545.654297" xlink:href="#DejaVuSans-115"/>
       <use x="597.753906" xlink:href="#DejaVuSans-47"/>
       <use x="631.445312" xlink:href="#DejaVuSans-109"/>
       <use x="728.857422" xlink:href="#DejaVuSans-111"/>
       <use x="790.039062" xlink:href="#DejaVuSans-100"/>
       <use x="853.515625" xlink:href="#DejaVuSans-101"/>
       <use x="915.039062" xlink:href="#DejaVuSans-108"/>
       <use x="942.822266" xlink:href="#DejaVuSans-41"/>
      </g>
     </g>
    </g>
    <g id="xtick_2">
     <g id="line2d_2">
      <g>
       <use style="stroke:#000000;stroke-width:0.8;" x="237.225974" xlink:href="#m300678472a" y="378"/>
      </g>
     </g>
     <g id="text_2">
      <!-- GTX 970 &amp; 1070Ti -->
      <defs>
       <path d="M 59.515625 10.40625 
L 59.515625 29.984375 
L 43.40625 29.984375 
L 43.40625 38.09375 
L 69.28125 38.09375 
L 69.28125 6.78125 
Q 63.578125 2.734375 56.6875 0.65625 
Q 49.8125 -1.421875 42 -1.421875 
Q 24.90625 -1.421875 15.25 8.5625 
Q 5.609375 18.5625 5.609375 36.375 
Q 5.609375 54.25 15.25 64.234375 
Q 24.90625 74.21875 42 74.21875 
Q 49.125 74.21875 55.546875 72.453125 
Q 61.96875 70.703125 67.390625 67.28125 
L 67.390625 56.78125 
Q 61.921875 61.421875 55.765625 63.765625 
Q 49.609375 66.109375 42.828125 66.109375 
Q 29.4375 66.109375 22.71875 58.640625 
Q 16.015625 51.171875 16.015625 36.375 
Q 16.015625 21.625 22.71875 14.15625 
Q 29.4375 6.6875 42.828125 6.6875 
Q 48.046875 6.6875 52.140625 7.59375 
Q 56.25 8.5 59.515625 10.40625 
z
" id="DejaVuSans-71"/>
       <path d="M 6.296875 72.90625 
L 16.890625 72.90625 
L 35.015625 45.796875 
L 53.21875 72.90625 
L 63.8125 72.90625 
L 40.375 37.890625 
L 65.375 0 
L 54.78125 0 
L 34.28125 31 
L 13.625 0 
L 2.984375 0 
L 29 38.921875 
z
" id="DejaVuSans-88"/>
       <path d="M 10.984375 1.515625 
L 10.984375 10.5 
Q 14.703125 8.734375 18.5 7.8125 
Q 22.3125 6.890625 25.984375 6.890625 
Q 35.75 6.890625 40.890625 13.453125 
Q 46.046875 20.015625 46.78125 33.40625 
Q 43.953125 29.203125 39.59375 26.953125 
Q 35.25 24.703125 29.984375 24.703125 
Q 19.046875 24.703125 12.671875 31.3125 
Q 6.296875 37.9375 6.296875 49.421875 
Q 6.296875 60.640625 12.9375 67.421875 
Q 19.578125 74.21875 30.609375 74.21875 
Q 43.265625 74.21875 49.921875 64.515625 
Q 56.59375 54.828125 56.59375 36.375 
Q 56.59375 19.140625 48.40625 8.859375 
Q 40.234375 -1.421875 26.421875 -1.421875 
Q 22.703125 -1.421875 18.890625 -0.6875 
Q 15.09375 0.046875 10.984375 1.515625 
z
M 30.609375 32.421875 
Q 37.25 32.421875 41.125 36.953125 
Q 45.015625 41.5 45.015625 49.421875 
Q 45.015625 57.28125 41.125 61.84375 
Q 37.25 66.40625 30.609375 66.40625 
Q 23.96875 66.40625 20.09375 61.84375 
Q 16.21875 57.28125 16.21875 49.421875 
Q 16.21875 41.5 20.09375 36.953125 
Q 23.96875 32.421875 30.609375 32.421875 
z
" id="DejaVuSans-57"/>
       <path d="M 24.3125 39.203125 
Q 19.875 35.25 17.796875 31.3125 
Q 15.71875 27.390625 15.71875 23.09375 
Q 15.71875 15.96875 20.890625 11.234375 
Q 26.078125 6.5 33.890625 6.5 
Q 38.53125 6.5 42.578125 8.03125 
Q 46.625 9.578125 50.203125 12.703125 
z
M 31.203125 44.671875 
L 56 19.28125 
Q 58.890625 23.640625 60.5 28.59375 
Q 62.109375 33.546875 62.40625 39.109375 
L 71.484375 39.109375 
Q 70.90625 32.671875 68.359375 26.359375 
Q 65.828125 20.0625 61.28125 13.921875 
L 74.90625 0 
L 62.59375 0 
L 55.609375 7.171875 
Q 50.53125 2.828125 44.96875 0.703125 
Q 39.40625 -1.421875 33.015625 -1.421875 
Q 21.234375 -1.421875 13.765625 5.296875 
Q 6.296875 12.015625 6.296875 22.515625 
Q 6.296875 28.765625 9.5625 34.25 
Q 12.84375 39.75 19.390625 44.578125 
Q 17.046875 47.65625 15.8125 50.703125 
Q 14.59375 53.765625 14.59375 56.6875 
Q 14.59375 64.59375 20.015625 69.40625 
Q 25.4375 74.21875 34.421875 74.21875 
Q 38.484375 74.21875 42.5 73.34375 
Q 46.53125 72.46875 50.6875 70.703125 
L 50.6875 61.8125 
Q 46.4375 64.109375 42.578125 65.296875 
Q 38.71875 66.5 35.40625 66.5 
Q 30.28125 66.5 27.078125 63.78125 
Q 23.875 61.078125 23.875 56.78125 
Q 23.875 54.296875 25.3125 51.78125 
Q 26.765625 49.265625 31.203125 44.671875 
z
" id="DejaVuSans-38"/>
      </defs>
      <g transform="translate(191.499412 392.598437)scale(0.1 -0.1)">
       <use xlink:href="#DejaVuSans-71"/>
       <use x="77.443359" xlink:href="#DejaVuSans-84"/>
       <use x="138.527344" xlink:href="#DejaVuSans-88"/>
       <use x="207.033203" xlink:href="#DejaVuSans-32"/>
       <use x="238.820312" xlink:href="#DejaVuSans-57"/>
       <use x="302.443359" xlink:href="#DejaVuSans-55"/>
       <use x="366.066406" xlink:href="#DejaVuSans-48"/>
       <use x="429.689453" xlink:href="#DejaVuSans-32"/>
       <use x="461.476562" xlink:href="#DejaVuSans-38"/>
       <use x="539.455078" xlink:href="#DejaVuSans-32"/>
       <use x="571.242188" xlink:href="#DejaVuSans-49"/>
       <use x="634.865234" xlink:href="#DejaVuSans-48"/>
       <use x="698.488281" xlink:href="#DejaVuSans-55"/>
       <use x="762.111328" xlink:href="#DejaVuSans-48"/>
       <use x="825.734375" xlink:href="#DejaVuSans-84"/>
       <use x="886.771484" xlink:href="#DejaVuSans-105"/>
      </g>
      <!-- (16.01 mins/model) -->
      <defs>
       <path d="M 33.015625 40.375 
Q 26.375 40.375 22.484375 35.828125 
Q 18.609375 31.296875 18.609375 23.390625 
Q 18.609375 15.53125 22.484375 10.953125 
Q 26.375 6.390625 33.015625 6.390625 
Q 39.65625 6.390625 43.53125 10.953125 
Q 47.40625 15.53125 47.40625 23.390625 
Q 47.40625 31.296875 43.53125 35.828125 
Q 39.65625 40.375 33.015625 40.375 
z
M 52.59375 71.296875 
L 52.59375 62.3125 
Q 48.875 64.0625 45.09375 64.984375 
Q 41.3125 65.921875 37.59375 65.921875 
Q 27.828125 65.921875 22.671875 59.328125 
Q 17.53125 52.734375 16.796875 39.40625 
Q 19.671875 43.65625 24.015625 45.921875 
Q 28.375 48.1875 33.59375 48.1875 
Q 44.578125 48.1875 50.953125 41.515625 
Q 57.328125 34.859375 57.328125 23.390625 
Q 57.328125 12.15625 50.6875 5.359375 
Q 44.046875 -1.421875 33.015625 -1.421875 
Q 20.359375 -1.421875 13.671875 8.265625 
Q 6.984375 17.96875 6.984375 36.375 
Q 6.984375 53.65625 15.1875 63.9375 
Q 23.390625 74.21875 37.203125 74.21875 
Q 40.921875 74.21875 44.703125 73.484375 
Q 48.484375 72.75 52.59375 71.296875 
z
" id="DejaVuSans-54"/>
      </defs>
      <g transform="translate(188.134568 403.79625)scale(0.1 -0.1)">
       <use xlink:href="#DejaVuSans-40"/>
       <use x="39.013672" xlink:href="#DejaVuSans-49"/>
       <use x="102.636719" xlink:href="#DejaVuSans-54"/>
       <use x="166.259766" xlink:href="#DejaVuSans-46"/>
       <use x="198.046875" xlink:href="#DejaVuSans-48"/>
       <use x="261.669922" xlink:href="#DejaVuSans-49"/>
       <use x="325.292969" xlink:href="#DejaVuSans-32"/>
       <use x="357.080078" xlink:href="#DejaVuSans-109"/>
       <use x="454.492188" xlink:href="#DejaVuSans-105"/>
       <use x="482.275391" xlink:href="#DejaVuSans-110"/>
       <use x="545.654297" xlink:href="#DejaVuSans-115"/>
       <use x="597.753906" xlink:href="#DejaVuSans-47"/>
       <use x="631.445312" xlink:href="#DejaVuSans-109"/>
       <use x="728.857422" xlink:href="#DejaVuSans-111"/>
       <use x="790.039062" xlink:href="#DejaVuSans-100"/>
       <use x="853.515625" xlink:href="#DejaVuSans-101"/>
       <use x="915.039062" xlink:href="#DejaVuSans-108"/>
       <use x="942.822266" xlink:href="#DejaVuSans-41"/>
      </g>
     </g>
    </g>
    <g id="xtick_3">
     <g id="line2d_3">
      <g>
       <use style="stroke:#000000;stroke-width:0.8;" x="353.174026" xlink:href="#m300678472a" y="378"/>
      </g>
     </g>
     <g id="text_3">
      <!-- Tesla V100 -->
      <defs>
       <path d="M 28.609375 0 
L 0.78125 72.90625 
L 11.078125 72.90625 
L 34.1875 11.53125 
L 57.328125 72.90625 
L 67.578125 72.90625 
L 39.796875 0 
z
" id="DejaVuSans-86"/>
      </defs>
      <g transform="translate(325.445901 392.598437)scale(0.1 -0.1)">
       <use xlink:href="#DejaVuSans-84"/>
       <use x="60.818359" xlink:href="#DejaVuSans-101"/>
       <use x="122.341797" xlink:href="#DejaVuSans-115"/>
       <use x="174.441406" xlink:href="#DejaVuSans-108"/>
       <use x="202.224609" xlink:href="#DejaVuSans-97"/>
       <use x="263.503906" xlink:href="#DejaVuSans-32"/>
       <use x="295.291016" xlink:href="#DejaVuSans-86"/>
       <use x="363.699219" xlink:href="#DejaVuSans-49"/>
       <use x="427.322266" xlink:href="#DejaVuSans-48"/>
       <use x="490.945312" xlink:href="#DejaVuSans-48"/>
      </g>
      <!-- (13.23 mins/model) -->
      <defs>
       <path d="M 40.578125 39.3125 
Q 47.65625 37.796875 51.625 33 
Q 55.609375 28.21875 55.609375 21.1875 
Q 55.609375 10.40625 48.1875 4.484375 
Q 40.765625 -1.421875 27.09375 -1.421875 
Q 22.515625 -1.421875 17.65625 -0.515625 
Q 12.796875 0.390625 7.625 2.203125 
L 7.625 11.71875 
Q 11.71875 9.328125 16.59375 8.109375 
Q 21.484375 6.890625 26.8125 6.890625 
Q 36.078125 6.890625 40.9375 10.546875 
Q 45.796875 14.203125 45.796875 21.1875 
Q 45.796875 27.640625 41.28125 31.265625 
Q 36.765625 34.90625 28.71875 34.90625 
L 20.21875 34.90625 
L 20.21875 43.015625 
L 29.109375 43.015625 
Q 36.375 43.015625 40.234375 45.921875 
Q 44.09375 48.828125 44.09375 54.296875 
Q 44.09375 59.90625 40.109375 62.90625 
Q 36.140625 65.921875 28.71875 65.921875 
Q 24.65625 65.921875 20.015625 65.03125 
Q 15.375 64.15625 9.8125 62.3125 
L 9.8125 71.09375 
Q 15.4375 72.65625 20.34375 73.4375 
Q 25.25 74.21875 29.59375 74.21875 
Q 40.828125 74.21875 47.359375 69.109375 
Q 53.90625 64.015625 53.90625 55.328125 
Q 53.90625 49.265625 50.4375 45.09375 
Q 46.96875 40.921875 40.578125 39.3125 
z
" id="DejaVuSans-51"/>
       <path d="M 19.1875 8.296875 
L 53.609375 8.296875 
L 53.609375 0 
L 7.328125 0 
L 7.328125 8.296875 
Q 12.9375 14.109375 22.625 23.890625 
Q 32.328125 33.6875 34.8125 36.53125 
Q 39.546875 41.84375 41.421875 45.53125 
Q 43.3125 49.21875 43.3125 52.78125 
Q 43.3125 58.59375 39.234375 62.25 
Q 35.15625 65.921875 28.609375 65.921875 
Q 23.96875 65.921875 18.8125 64.3125 
Q 13.671875 62.703125 7.8125 59.421875 
L 7.8125 69.390625 
Q 13.765625 71.78125 18.9375 73 
Q 24.125 74.21875 28.421875 74.21875 
Q 39.75 74.21875 46.484375 68.546875 
Q 53.21875 62.890625 53.21875 53.421875 
Q 53.21875 48.921875 51.53125 44.890625 
Q 49.859375 40.875 45.40625 35.40625 
Q 44.1875 33.984375 37.640625 27.21875 
Q 31.109375 20.453125 19.1875 8.296875 
z
" id="DejaVuSans-50"/>
      </defs>
      <g transform="translate(304.08262 403.79625)scale(0.1 -0.1)">
       <use xlink:href="#DejaVuSans-40"/>
       <use x="39.013672" xlink:href="#DejaVuSans-49"/>
       <use x="102.636719" xlink:href="#DejaVuSans-51"/>
       <use x="166.259766" xlink:href="#DejaVuSans-46"/>
       <use x="198.046875" xlink:href="#DejaVuSans-50"/>
       <use x="261.669922" xlink:href="#DejaVuSans-51"/>
       <use x="325.292969" xlink:href="#DejaVuSans-32"/>
       <use x="357.080078" xlink:href="#DejaVuSans-109"/>
       <use x="454.492188" xlink:href="#DejaVuSans-105"/>
       <use x="482.275391" xlink:href="#DejaVuSans-110"/>
       <use x="545.654297" xlink:href="#DejaVuSans-115"/>
       <use x="597.753906" xlink:href="#DejaVuSans-47"/>
       <use x="631.445312" xlink:href="#DejaVuSans-109"/>
       <use x="728.857422" xlink:href="#DejaVuSans-111"/>
       <use x="790.039062" xlink:href="#DejaVuSans-100"/>
       <use x="853.515625" xlink:href="#DejaVuSans-101"/>
       <use x="915.039062" xlink:href="#DejaVuSans-108"/>
       <use x="942.822266" xlink:href="#DejaVuSans-41"/>
      </g>
     </g>
    </g>
    <g id="xtick_4">
     <g id="line2d_4">
      <g>
       <use style="stroke:#000000;stroke-width:0.8;" x="469.122078" xlink:href="#m300678472a" y="378"/>
      </g>
     </g>
     <g id="text_4">
      <!-- Jetson TX2 -->
      <defs>
       <path d="M 9.8125 72.90625 
L 19.671875 72.90625 
L 19.671875 5.078125 
Q 19.671875 -8.109375 14.671875 -14.0625 
Q 9.671875 -20.015625 -1.421875 -20.015625 
L -5.171875 -20.015625 
L -5.171875 -11.71875 
L -2.09375 -11.71875 
Q 4.4375 -11.71875 7.125 -8.046875 
Q 9.8125 -4.390625 9.8125 5.078125 
z
" id="DejaVuSans-74"/>
       <path d="M 18.3125 70.21875 
L 18.3125 54.6875 
L 36.8125 54.6875 
L 36.8125 47.703125 
L 18.3125 47.703125 
L 18.3125 18.015625 
Q 18.3125 11.328125 20.140625 9.421875 
Q 21.96875 7.515625 27.59375 7.515625 
L 36.8125 7.515625 
L 36.8125 0 
L 27.59375 0 
Q 17.1875 0 13.234375 3.875 
Q 9.28125 7.765625 9.28125 18.015625 
L 9.28125 47.703125 
L 2.6875 47.703125 
L 2.6875 54.6875 
L 9.28125 54.6875 
L 9.28125 70.21875 
z
" id="DejaVuSans-116"/>
      </defs>
      <g transform="translate(442.528328 392.598437)scale(0.1 -0.1)">
       <use xlink:href="#DejaVuSans-74"/>
       <use x="29.492188" xlink:href="#DejaVuSans-101"/>
       <use x="91.015625" xlink:href="#DejaVuSans-116"/>
       <use x="130.224609" xlink:href="#DejaVuSans-115"/>
       <use x="182.324219" xlink:href="#DejaVuSans-111"/>
       <use x="243.505859" xlink:href="#DejaVuSans-110"/>
       <use x="306.884766" xlink:href="#DejaVuSans-32"/>
       <use x="338.671875" xlink:href="#DejaVuSans-84"/>
       <use x="399.755859" xlink:href="#DejaVuSans-88"/>
       <use x="468.261719" xlink:href="#DejaVuSans-50"/>
      </g>
      <!-- (39.96 mins/model) -->
      <g transform="translate(420.030672 403.79625)scale(0.1 -0.1)">
       <use xlink:href="#DejaVuSans-40"/>
       <use x="39.013672" xlink:href="#DejaVuSans-51"/>
       <use x="102.636719" xlink:href="#DejaVuSans-57"/>
       <use x="166.259766" xlink:href="#DejaVuSans-46"/>
       <use x="198.046875" xlink:href="#DejaVuSans-57"/>
       <use x="261.669922" xlink:href="#DejaVuSans-54"/>
       <use x="325.292969" xlink:href="#DejaVuSans-32"/>
       <use x="357.080078" xlink:href="#DejaVuSans-109"/>
       <use x="454.492188" xlink:href="#DejaVuSans-105"/>
       <use x="482.275391" xlink:href="#DejaVuSans-110"/>
       <use x="545.654297" xlink:href="#DejaVuSans-115"/>
       <use x="597.753906" xlink:href="#DejaVuSans-47"/>
       <use x="631.445312" xlink:href="#DejaVuSans-109"/>
       <use x="728.857422" xlink:href="#DejaVuSans-111"/>
       <use x="790.039062" xlink:href="#DejaVuSans-100"/>
       <use x="853.515625" xlink:href="#DejaVuSans-101"/>
       <use x="915.039062" xlink:href="#DejaVuSans-108"/>
       <use x="942.822266" xlink:href="#DejaVuSans-41"/>
      </g>
     </g>
    </g>
    <g id="text_5">
     <!-- GPU Workers -->
     <defs>
      <path d="M 8.6875 72.90625 
L 18.609375 72.90625 
L 18.609375 28.609375 
Q 18.609375 16.890625 22.84375 11.734375 
Q 27.09375 6.59375 36.625 6.59375 
Q 46.09375 6.59375 50.34375 11.734375 
Q 54.59375 16.890625 54.59375 28.609375 
L 54.59375 72.90625 
L 64.5 72.90625 
L 64.5 27.390625 
Q 64.5 13.140625 57.4375 5.859375 
Q 50.390625 -1.421875 36.625 -1.421875 
Q 22.796875 -1.421875 15.734375 5.859375 
Q 8.6875 13.140625 8.6875 27.390625 
z
" id="DejaVuSans-85"/>
      <path d="M 3.328125 72.90625 
L 13.28125 72.90625 
L 28.609375 11.28125 
L 43.890625 72.90625 
L 54.984375 72.90625 
L 70.3125 11.28125 
L 85.59375 72.90625 
L 95.609375 72.90625 
L 77.296875 0 
L 64.890625 0 
L 49.515625 63.28125 
L 33.984375 0 
L 21.578125 0 
z
" id="DejaVuSans-87"/>
      <path d="M 41.109375 46.296875 
Q 39.59375 47.171875 37.8125 47.578125 
Q 36.03125 48 33.890625 48 
Q 26.265625 48 22.1875 43.046875 
Q 18.109375 38.09375 18.109375 28.8125 
L 18.109375 0 
L 9.078125 0 
L 9.078125 54.6875 
L 18.109375 54.6875 
L 18.109375 46.1875 
Q 20.953125 51.171875 25.484375 53.578125 
Q 30.03125 56 36.53125 56 
Q 37.453125 56 38.578125 55.875 
Q 39.703125 55.765625 41.0625 55.515625 
z
" id="DejaVuSans-114"/>
      <path d="M 9.078125 75.984375 
L 18.109375 75.984375 
L 18.109375 31.109375 
L 44.921875 54.6875 
L 56.390625 54.6875 
L 27.390625 29.109375 
L 57.625 0 
L 45.90625 0 
L 18.109375 26.703125 
L 18.109375 0 
L 9.078125 0 
z
" id="DejaVuSans-107"/>
     </defs>
     <g transform="translate(262.378125 417.474375)scale(0.1 -0.1)">
      <use xlink:href="#DejaVuSans-71"/>
      <use x="77.490234" xlink:href="#DejaVuSans-80"/>
      <use x="137.792969" xlink:href="#DejaVuSans-85"/>
      <use x="210.986328" xlink:href="#DejaVuSans-32"/>
      <use x="242.773438" xlink:href="#DejaVuSans-87"/>
      <use x="341.572266" xlink:href="#DejaVuSans-111"/>
      <use x="402.753906" xlink:href="#DejaVuSans-114"/>
      <use x="443.867188" xlink:href="#DejaVuSans-107"/>
      <use x="501.730469" xlink:href="#DejaVuSans-101"/>
      <use x="563.253906" xlink:href="#DejaVuSans-114"/>
      <use x="604.367188" xlink:href="#DejaVuSans-115"/>
     </g>
    </g>
   </g>
   <g id="matplotlib.axis_2">
    <g id="ytick_1">
     <g id="line2d_5">
      <path clip-path="url(#p73fd57119e)" d="M 72 343.274828 
L 518.4 343.274828 
" style="fill:none;stroke:#b0b0b0;stroke-linecap:square;stroke-width:0.8;"/>
     </g>
     <g id="line2d_6">
      <defs>
       <path d="M 0 0 
L -3.5 0 
" id="m6eb478f134" style="stroke:#000000;stroke-width:0.8;"/>
      </defs>
      <g>
       <use style="stroke:#000000;stroke-width:0.8;" x="72" xlink:href="#m6eb478f134" y="343.274828"/>
      </g>
     </g>
     <g id="text_6">
      <!-- 10 -->
      <g transform="translate(52.275 347.074047)scale(0.1 -0.1)">
       <use xlink:href="#DejaVuSans-49"/>
       <use x="63.623047" xlink:href="#DejaVuSans-48"/>
      </g>
     </g>
    </g>
    <g id="ytick_2">
     <g id="line2d_7">
      <path clip-path="url(#p73fd57119e)" d="M 72 287.582911 
L 518.4 287.582911 
" style="fill:none;stroke:#b0b0b0;stroke-linecap:square;stroke-width:0.8;"/>
     </g>
     <g id="line2d_8">
      <g>
       <use style="stroke:#000000;stroke-width:0.8;" x="72" xlink:href="#m6eb478f134" y="287.582911"/>
      </g>
     </g>
     <g id="text_7">
      <!-- 20 -->
      <g transform="translate(52.275 291.38213)scale(0.1 -0.1)">
       <use xlink:href="#DejaVuSans-50"/>
       <use x="63.623047" xlink:href="#DejaVuSans-48"/>
      </g>
     </g>
    </g>
    <g id="ytick_3">
     <g id="line2d_9">
      <path clip-path="url(#p73fd57119e)" d="M 72 231.890995 
L 518.4 231.890995 
" style="fill:none;stroke:#b0b0b0;stroke-linecap:square;stroke-width:0.8;"/>
     </g>
     <g id="line2d_10">
      <g>
       <use style="stroke:#000000;stroke-width:0.8;" x="72" xlink:href="#m6eb478f134" y="231.890995"/>
      </g>
     </g>
     <g id="text_8">
      <!-- 30 -->
      <g transform="translate(52.275 235.690214)scale(0.1 -0.1)">
       <use xlink:href="#DejaVuSans-51"/>
       <use x="63.623047" xlink:href="#DejaVuSans-48"/>
      </g>
     </g>
    </g>
    <g id="ytick_4">
     <g id="line2d_11">
      <path clip-path="url(#p73fd57119e)" d="M 72 176.199078 
L 518.4 176.199078 
" style="fill:none;stroke:#b0b0b0;stroke-linecap:square;stroke-width:0.8;"/>
     </g>
     <g id="line2d_12">
      <g>
       <use style="stroke:#000000;stroke-width:0.8;" x="72" xlink:href="#m6eb478f134" y="176.199078"/>
      </g>
     </g>
     <g id="text_9">
      <!-- 40 -->
      <defs>
       <path d="M 37.796875 64.3125 
L 12.890625 25.390625 
L 37.796875 25.390625 
z
M 35.203125 72.90625 
L 47.609375 72.90625 
L 47.609375 25.390625 
L 58.015625 25.390625 
L 58.015625 17.1875 
L 47.609375 17.1875 
L 47.609375 0 
L 37.796875 0 
L 37.796875 17.1875 
L 4.890625 17.1875 
L 4.890625 26.703125 
z
" id="DejaVuSans-52"/>
      </defs>
      <g transform="translate(52.275 179.998297)scale(0.1 -0.1)">
       <use xlink:href="#DejaVuSans-52"/>
       <use x="63.623047" xlink:href="#DejaVuSans-48"/>
      </g>
     </g>
    </g>
    <g id="ytick_5">
     <g id="line2d_13">
      <path clip-path="url(#p73fd57119e)" d="M 72 120.507162 
L 518.4 120.507162 
" style="fill:none;stroke:#b0b0b0;stroke-linecap:square;stroke-width:0.8;"/>
     </g>
     <g id="line2d_14">
      <g>
       <use style="stroke:#000000;stroke-width:0.8;" x="72" xlink:href="#m6eb478f134" y="120.507162"/>
      </g>
     </g>
     <g id="text_10">
      <!-- 50 -->
      <g transform="translate(52.275 124.306381)scale(0.1 -0.1)">
       <use xlink:href="#DejaVuSans-53"/>
       <use x="63.623047" xlink:href="#DejaVuSans-48"/>
      </g>
     </g>
    </g>
    <g id="ytick_6">
     <g id="line2d_15">
      <path clip-path="url(#p73fd57119e)" d="M 72 64.815245 
L 518.4 64.815245 
" style="fill:none;stroke:#b0b0b0;stroke-linecap:square;stroke-width:0.8;"/>
     </g>
     <g id="line2d_16">
      <g>
       <use style="stroke:#000000;stroke-width:0.8;" x="72" xlink:href="#m6eb478f134" y="64.815245"/>
      </g>
     </g>
     <g id="text_11">
      <!-- 60 -->
      <g transform="translate(52.275 68.614464)scale(0.1 -0.1)">
       <use xlink:href="#DejaVuSans-54"/>
       <use x="63.623047" xlink:href="#DejaVuSans-48"/>
      </g>
     </g>
    </g>
    <g id="text_12">
     <!-- Time (minutes) -->
     <defs>
      <path d="M 8.5 21.578125 
L 8.5 54.6875 
L 17.484375 54.6875 
L 17.484375 21.921875 
Q 17.484375 14.15625 20.5 10.265625 
Q 23.53125 6.390625 29.59375 6.390625 
Q 36.859375 6.390625 41.078125 11.03125 
Q 45.3125 15.671875 45.3125 23.6875 
L 45.3125 54.6875 
L 54.296875 54.6875 
L 54.296875 0 
L 45.3125 0 
L 45.3125 8.40625 
Q 42.046875 3.421875 37.71875 1 
Q 33.40625 -1.421875 27.6875 -1.421875 
Q 18.265625 -1.421875 13.375 4.4375 
Q 8.5 10.296875 8.5 21.578125 
z
M 31.109375 56 
z
" id="DejaVuSans-117"/>
     </defs>
     <g transform="translate(46.195312 253.036406)rotate(-90)scale(0.1 -0.1)">
      <use xlink:href="#DejaVuSans-84"/>
      <use x="61.037109" xlink:href="#DejaVuSans-105"/>
      <use x="88.820312" xlink:href="#DejaVuSans-109"/>
      <use x="186.232422" xlink:href="#DejaVuSans-101"/>
      <use x="247.755859" xlink:href="#DejaVuSans-32"/>
      <use x="279.542969" xlink:href="#DejaVuSans-40"/>
      <use x="318.556641" xlink:href="#DejaVuSans-109"/>
      <use x="415.96875" xlink:href="#DejaVuSans-105"/>
      <use x="443.751953" xlink:href="#DejaVuSans-110"/>
      <use x="507.130859" xlink:href="#DejaVuSans-117"/>
      <use x="570.509766" xlink:href="#DejaVuSans-116"/>
      <use x="609.71875" xlink:href="#DejaVuSans-101"/>
      <use x="671.242188" xlink:href="#DejaVuSans-115"/>
      <use x="723.341797" xlink:href="#DejaVuSans-41"/>
     </g>
    </g>
   </g>
   <g id="LineCollection_1">
    <path clip-path="url(#p73fd57119e)" d="M 106.784416 157.232132 
L 135.771429 157.232132 
" style="fill:none;stroke:#1f77b4;stroke-width:1.5;"/>
    <path clip-path="url(#p73fd57119e)" d="M 222.732468 212.208247 
L 251.719481 212.208247 
" style="fill:none;stroke:#1f77b4;stroke-width:1.5;"/>
    <path clip-path="url(#p73fd57119e)" d="M 338.680519 320.841733 
L 367.667532 320.841733 
" style="fill:none;stroke:#1f77b4;stroke-width:1.5;"/>
    <path clip-path="url(#p73fd57119e)" d="M 454.628571 66.665455 
L 483.615584 66.665455 
" style="fill:none;stroke:#1f77b4;stroke-width:1.5;"/>
   </g>
   <g id="LineCollection_2">
    <path clip-path="url(#p73fd57119e)" d="M 106.784416 353.112271 
L 135.771429 353.112271 
" style="fill:none;stroke:#1f77b4;stroke-width:1.5;"/>
    <path clip-path="url(#p73fd57119e)" d="M 222.732468 363.174545 
L 251.719481 363.174545 
" style="fill:none;stroke:#1f77b4;stroke-width:1.5;"/>
    <path clip-path="url(#p73fd57119e)" d="M 338.680519 332.475439 
L 367.667532 332.475439 
" style="fill:none;stroke:#1f77b4;stroke-width:1.5;"/>
    <path clip-path="url(#p73fd57119e)" d="M 454.628571 264.742086 
L 483.615584 264.742086 
" style="fill:none;stroke:#1f77b4;stroke-width:1.5;"/>
   </g>
   <g id="LineCollection_3">
    <path clip-path="url(#p73fd57119e)" d="M 121.277922 353.112271 
L 121.277922 157.232132 
" style="fill:none;stroke:#1f77b4;stroke-width:1.5;"/>
    <path clip-path="url(#p73fd57119e)" d="M 237.225974 363.174545 
L 237.225974 212.208247 
" style="fill:none;stroke:#1f77b4;stroke-width:1.5;"/>
    <path clip-path="url(#p73fd57119e)" d="M 353.174026 332.475439 
L 353.174026 320.841733 
" style="fill:none;stroke:#1f77b4;stroke-width:1.5;"/>
    <path clip-path="url(#p73fd57119e)" d="M 469.122078 264.742086 
L 469.122078 66.665455 
" style="fill:none;stroke:#1f77b4;stroke-width:1.5;"/>
   </g>
   <g id="LineCollection_4">
    <path clip-path="url(#p73fd57119e)" d="M 106.784416 322.402451 
L 135.771429 322.402451 
" style="fill:none;stroke:#1f77b4;stroke-width:1.5;"/>
    <path clip-path="url(#p73fd57119e)" d="M 222.732468 318.738389 
L 251.719481 318.738389 
" style="fill:none;stroke:#1f77b4;stroke-width:1.5;"/>
    <path clip-path="url(#p73fd57119e)" d="M 338.680519 322.483179 
L 367.667532 322.483179 
" style="fill:none;stroke:#1f77b4;stroke-width:1.5;"/>
    <path clip-path="url(#p73fd57119e)" d="M 454.628571 210.607401 
L 483.615584 210.607401 
" style="fill:none;stroke:#1f77b4;stroke-width:1.5;"/>
   </g>
   <g id="patch_3">
    <path d="M 72 378 
L 72 51.84 
" style="fill:none;stroke:#000000;stroke-linecap:square;stroke-linejoin:miter;stroke-width:0.8;"/>
   </g>
   <g id="patch_4">
    <path d="M 518.4 378 
L 518.4 51.84 
" style="fill:none;stroke:#000000;stroke-linecap:square;stroke-linejoin:miter;stroke-width:0.8;"/>
   </g>
   <g id="patch_5">
    <path d="M 72 378 
L 518.4 378 
" style="fill:none;stroke:#000000;stroke-linecap:square;stroke-linejoin:miter;stroke-width:0.8;"/>
   </g>
   <g id="patch_6">
    <path d="M 72 51.84 
L 518.4 51.84 
" style="fill:none;stroke:#000000;stroke-linecap:square;stroke-linejoin:miter;stroke-width:0.8;"/>
   </g>
   <g id="text_13">
    <!-- Island DNN training times vs GPU (2469 samples, 99.73% CI) -->
    <defs>
     <path d="M 9.8125 72.90625 
L 19.671875 72.90625 
L 19.671875 0 
L 9.8125 0 
z
" id="DejaVuSans-73"/>
     <path d="M 19.671875 64.796875 
L 19.671875 8.109375 
L 31.59375 8.109375 
Q 46.6875 8.109375 53.6875 14.9375 
Q 60.6875 21.78125 60.6875 36.53125 
Q 60.6875 51.171875 53.6875 57.984375 
Q 46.6875 64.796875 31.59375 64.796875 
z
M 9.8125 72.90625 
L 30.078125 72.90625 
Q 51.265625 72.90625 61.171875 64.09375 
Q 71.09375 55.28125 71.09375 36.53125 
Q 71.09375 17.671875 61.125 8.828125 
Q 51.171875 0 30.078125 0 
L 9.8125 0 
z
" id="DejaVuSans-68"/>
     <path d="M 9.8125 72.90625 
L 23.09375 72.90625 
L 55.421875 11.921875 
L 55.421875 72.90625 
L 64.984375 72.90625 
L 64.984375 0 
L 51.703125 0 
L 19.390625 60.984375 
L 19.390625 0 
L 9.8125 0 
z
" id="DejaVuSans-78"/>
     <path d="M 45.40625 27.984375 
Q 45.40625 37.75 41.375 43.109375 
Q 37.359375 48.484375 30.078125 48.484375 
Q 22.859375 48.484375 18.828125 43.109375 
Q 14.796875 37.75 14.796875 27.984375 
Q 14.796875 18.265625 18.828125 12.890625 
Q 22.859375 7.515625 30.078125 7.515625 
Q 37.359375 7.515625 41.375 12.890625 
Q 45.40625 18.265625 45.40625 27.984375 
z
M 54.390625 6.78125 
Q 54.390625 -7.171875 48.1875 -13.984375 
Q 42 -20.796875 29.203125 -20.796875 
Q 24.46875 -20.796875 20.265625 -20.09375 
Q 16.0625 -19.390625 12.109375 -17.921875 
L 12.109375 -9.1875 
Q 16.0625 -11.328125 19.921875 -12.34375 
Q 23.78125 -13.375 27.78125 -13.375 
Q 36.625 -13.375 41.015625 -8.765625 
Q 45.40625 -4.15625 45.40625 5.171875 
L 45.40625 9.625 
Q 42.625 4.78125 38.28125 2.390625 
Q 33.9375 0 27.875 0 
Q 17.828125 0 11.671875 7.65625 
Q 5.515625 15.328125 5.515625 27.984375 
Q 5.515625 40.671875 11.671875 48.328125 
Q 17.828125 56 27.875 56 
Q 33.9375 56 38.28125 53.609375 
Q 42.625 51.21875 45.40625 46.390625 
L 45.40625 54.6875 
L 54.390625 54.6875 
z
" id="DejaVuSans-103"/>
     <path d="M 2.984375 54.6875 
L 12.5 54.6875 
L 29.59375 8.796875 
L 46.6875 54.6875 
L 56.203125 54.6875 
L 35.6875 0 
L 23.484375 0 
z
" id="DejaVuSans-118"/>
     <path d="M 18.109375 8.203125 
L 18.109375 -20.796875 
L 9.078125 -20.796875 
L 9.078125 54.6875 
L 18.109375 54.6875 
L 18.109375 46.390625 
Q 20.953125 51.265625 25.265625 53.625 
Q 29.59375 56 35.59375 56 
Q 45.5625 56 51.78125 48.09375 
Q 58.015625 40.1875 58.015625 27.296875 
Q 58.015625 14.40625 51.78125 6.484375 
Q 45.5625 -1.421875 35.59375 -1.421875 
Q 29.59375 -1.421875 25.265625 0.953125 
Q 20.953125 3.328125 18.109375 8.203125 
z
M 48.6875 27.296875 
Q 48.6875 37.203125 44.609375 42.84375 
Q 40.53125 48.484375 33.40625 48.484375 
Q 26.265625 48.484375 22.1875 42.84375 
Q 18.109375 37.203125 18.109375 27.296875 
Q 18.109375 17.390625 22.1875 11.75 
Q 26.265625 6.109375 33.40625 6.109375 
Q 40.53125 6.109375 44.609375 11.75 
Q 48.6875 17.390625 48.6875 27.296875 
z
" id="DejaVuSans-112"/>
     <path d="M 11.71875 12.40625 
L 22.015625 12.40625 
L 22.015625 4 
L 14.015625 -11.625 
L 7.71875 -11.625 
L 11.71875 4 
z
" id="DejaVuSans-44"/>
     <path d="M 72.703125 32.078125 
Q 68.453125 32.078125 66.03125 28.46875 
Q 63.625 24.859375 63.625 18.40625 
Q 63.625 12.0625 66.03125 8.421875 
Q 68.453125 4.78125 72.703125 4.78125 
Q 76.859375 4.78125 79.265625 8.421875 
Q 81.6875 12.0625 81.6875 18.40625 
Q 81.6875 24.8125 79.265625 28.4375 
Q 76.859375 32.078125 72.703125 32.078125 
z
M 72.703125 38.28125 
Q 80.421875 38.28125 84.953125 32.90625 
Q 89.5 27.546875 89.5 18.40625 
Q 89.5 9.28125 84.9375 3.921875 
Q 80.375 -1.421875 72.703125 -1.421875 
Q 64.890625 -1.421875 60.34375 3.921875 
Q 55.8125 9.28125 55.8125 18.40625 
Q 55.8125 27.59375 60.375 32.9375 
Q 64.9375 38.28125 72.703125 38.28125 
z
M 22.3125 68.015625 
Q 18.109375 68.015625 15.6875 64.375 
Q 13.28125 60.75 13.28125 54.390625 
Q 13.28125 47.953125 15.671875 44.328125 
Q 18.0625 40.71875 22.3125 40.71875 
Q 26.5625 40.71875 28.96875 44.328125 
Q 31.390625 47.953125 31.390625 54.390625 
Q 31.390625 60.6875 28.953125 64.34375 
Q 26.515625 68.015625 22.3125 68.015625 
z
M 66.40625 74.21875 
L 74.21875 74.21875 
L 28.609375 -1.421875 
L 20.796875 -1.421875 
z
M 22.3125 74.21875 
Q 30.03125 74.21875 34.609375 68.875 
Q 39.203125 63.53125 39.203125 54.390625 
Q 39.203125 45.171875 34.640625 39.84375 
Q 30.078125 34.515625 22.3125 34.515625 
Q 14.546875 34.515625 10.03125 39.859375 
Q 5.515625 45.21875 5.515625 54.390625 
Q 5.515625 63.484375 10.046875 68.84375 
Q 14.59375 74.21875 22.3125 74.21875 
z
" id="DejaVuSans-37"/>
     <path d="M 64.40625 67.28125 
L 64.40625 56.890625 
Q 59.421875 61.53125 53.78125 63.8125 
Q 48.140625 66.109375 41.796875 66.109375 
Q 29.296875 66.109375 22.65625 58.46875 
Q 16.015625 50.828125 16.015625 36.375 
Q 16.015625 21.96875 22.65625 14.328125 
Q 29.296875 6.6875 41.796875 6.6875 
Q 48.140625 6.6875 53.78125 8.984375 
Q 59.421875 11.28125 64.40625 15.921875 
L 64.40625 5.609375 
Q 59.234375 2.09375 53.4375 0.328125 
Q 47.65625 -1.421875 41.21875 -1.421875 
Q 24.65625 -1.421875 15.125 8.703125 
Q 5.609375 18.84375 5.609375 36.375 
Q 5.609375 53.953125 15.125 64.078125 
Q 24.65625 74.21875 41.21875 74.21875 
Q 47.75 74.21875 53.53125 72.484375 
Q 59.328125 70.75 64.40625 67.28125 
z
" id="DejaVuSans-67"/>
    </defs>
    <g transform="translate(111.69375 45.84)scale(0.12 -0.12)">
     <use xlink:href="#DejaVuSans-73"/>
     <use x="29.492188" xlink:href="#DejaVuSans-115"/>
     <use x="81.591797" xlink:href="#DejaVuSans-108"/>
     <use x="109.375" xlink:href="#DejaVuSans-97"/>
     <use x="170.654297" xlink:href="#DejaVuSans-110"/>
     <use x="234.033203" xlink:href="#DejaVuSans-100"/>
     <use x="297.509766" xlink:href="#DejaVuSans-32"/>
     <use x="329.296875" xlink:href="#DejaVuSans-68"/>
     <use x="406.298828" xlink:href="#DejaVuSans-78"/>
     <use x="481.103516" xlink:href="#DejaVuSans-78"/>
     <use x="555.908203" xlink:href="#DejaVuSans-32"/>
     <use x="587.695312" xlink:href="#DejaVuSans-116"/>
     <use x="626.904297" xlink:href="#DejaVuSans-114"/>
     <use x="668.017578" xlink:href="#DejaVuSans-97"/>
     <use x="729.296875" xlink:href="#DejaVuSans-105"/>
     <use x="757.080078" xlink:href="#DejaVuSans-110"/>
     <use x="820.458984" xlink:href="#DejaVuSans-105"/>
     <use x="848.242188" xlink:href="#DejaVuSans-110"/>
     <use x="911.621094" xlink:href="#DejaVuSans-103"/>
     <use x="975.097656" xlink:href="#DejaVuSans-32"/>
     <use x="1006.884766" xlink:href="#DejaVuSans-116"/>
     <use x="1046.09375" xlink:href="#DejaVuSans-105"/>
     <use x="1073.876953" xlink:href="#DejaVuSans-109"/>
     <use x="1171.289062" xlink:href="#DejaVuSans-101"/>
     <use x="1232.8125" xlink:href="#DejaVuSans-115"/>
     <use x="1284.912109" xlink:href="#DejaVuSans-32"/>
     <use x="1316.699219" xlink:href="#DejaVuSans-118"/>
     <use x="1375.878906" xlink:href="#DejaVuSans-115"/>
     <use x="1427.978516" xlink:href="#DejaVuSans-32"/>
     <use x="1459.765625" xlink:href="#DejaVuSans-71"/>
     <use x="1537.255859" xlink:href="#DejaVuSans-80"/>
     <use x="1597.558594" xlink:href="#DejaVuSans-85"/>
     <use x="1670.751953" xlink:href="#DejaVuSans-32"/>
     <use x="1702.539062" xlink:href="#DejaVuSans-40"/>
     <use x="1741.552734" xlink:href="#DejaVuSans-50"/>
     <use x="1805.175781" xlink:href="#DejaVuSans-52"/>
     <use x="1868.798828" xlink:href="#DejaVuSans-54"/>
     <use x="1932.421875" xlink:href="#DejaVuSans-57"/>
     <use x="1996.044922" xlink:href="#DejaVuSans-32"/>
     <use x="2027.832031" xlink:href="#DejaVuSans-115"/>
     <use x="2079.931641" xlink:href="#DejaVuSans-97"/>
     <use x="2141.210938" xlink:href="#DejaVuSans-109"/>
     <use x="2238.623047" xlink:href="#DejaVuSans-112"/>
     <use x="2302.099609" xlink:href="#DejaVuSans-108"/>
     <use x="2329.882812" xlink:href="#DejaVuSans-101"/>
     <use x="2391.40625" xlink:href="#DejaVuSans-115"/>
     <use x="2443.505859" xlink:href="#DejaVuSans-44"/>
     <use x="2475.292969" xlink:href="#DejaVuSans-32"/>
     <use x="2507.080078" xlink:href="#DejaVuSans-57"/>
     <use x="2570.703125" xlink:href="#DejaVuSans-57"/>
     <use x="2634.326172" xlink:href="#DejaVuSans-46"/>
     <use x="2666.113281" xlink:href="#DejaVuSans-55"/>
     <use x="2729.736328" xlink:href="#DejaVuSans-51"/>
     <use x="2793.359375" xlink:href="#DejaVuSans-37"/>
     <use x="2888.378906" xlink:href="#DejaVuSans-32"/>
     <use x="2920.166016" xlink:href="#DejaVuSans-67"/>
     <use x="2989.990234" xlink:href="#DejaVuSans-73"/>
     <use x="3019.482422" xlink:href="#DejaVuSans-41"/>
    </g>
   </g>
  </g>
 </g>
 <defs>
  <clipPath id="p73fd57119e">
   <rect height="326.16" width="446.4" x="72" y="51.84"/>
  </clipPath>
 </defs>
</svg>
