<?xml version="1.0" encoding="utf-8" standalone="no"?>
<!DOCTYPE svg PUBLIC "-//W3C//DTD SVG 1.1//EN"
  "http://www.w3.org/Graphics/SVG/1.1/DTD/svg11.dtd">
<svg height="432pt" version="1.1" viewBox="0 0 576 432" width="576pt" xmlns="http://www.w3.org/2000/svg" xmlns:xlink="http://www.w3.org/1999/xlink">
 <metadata>
  <rdf:RDF xmlns:cc="http://creativecommons.org/ns#" xmlns:dc="http://purl.org/dc/elements/1.1/" xmlns:rdf="http://www.w3.org/1999/02/22-rdf-syntax-ns#">
   <cc:Work>
    <dc:type rdf:resource="http://purl.org/dc/dcmitype/StillImage"/>
    <dc:date>2021-10-05T14:19:39.704594</dc:date>
    <dc:format>image/svg+xml</dc:format>
    <dc:creator>
     <cc:Agent>
      <dc:title>Matplotlib v3.4.3, https://matplotlib.org/</dc:title>
     </cc:Agent>
    </dc:creator>
   </cc:Work>
  </rdf:RDF>
 </metadata>
 <defs>
  <style type="text/css">*{stroke-linecap:butt;stroke-linejoin:round;}</style>
 </defs>
 <g id="figure_1">
  <g id="patch_1">
   <path d="M 0 432 
L 576 432 
L 576 0 
L 0 0 
z
" style="fill:#ffffff;"/>
  </g>
  <g id="axes_1">
   <g id="patch_2">
    <path d="M 72 384.48 
L 518.4 384.48 
L 518.4 51.84 
L 72 51.84 
z
" style="fill:#ffffff;"/>
   </g>
   <g id="matplotlib.axis_1">
    <g id="xtick_1">
     <g id="line2d_1">
      <path clip-path="url(#p98b2cd14ad)" d="M 92.290909 384.48 
L 92.290909 51.84 
" style="fill:none;stroke:#b0b0b0;stroke-linecap:square;stroke-width:0.8;"/>
     </g>
     <g id="line2d_2">
      <defs>
       <path d="M 0 0 
L 0 3.5 
" id="mb444548b61" style="stroke:#000000;stroke-width:0.8;"/>
      </defs>
      <g>
       <use style="stroke:#000000;stroke-width:0.8;" x="92.290909" xlink:href="#mb444548b61" y="384.48"/>
      </g>
     </g>
     <g id="text_1">
      <!-- 0 -->
      <g transform="translate(89.109659 399.078438)scale(0.1 -0.1)">
       <defs>
        <path d="M 2034 4250 
Q 1547 4250 1301 3770 
Q 1056 3291 1056 2328 
Q 1056 1369 1301 889 
Q 1547 409 2034 409 
Q 2525 409 2770 889 
Q 3016 1369 3016 2328 
Q 3016 3291 2770 3770 
Q 2525 4250 2034 4250 
z
M 2034 4750 
Q 2819 4750 3233 4129 
Q 3647 3509 3647 2328 
Q 3647 1150 3233 529 
Q 2819 -91 2034 -91 
Q 1250 -91 836 529 
Q 422 1150 422 2328 
Q 422 3509 836 4129 
Q 1250 4750 2034 4750 
z
" id="DejaVuSans-30" transform="scale(0.015625)"/>
       </defs>
       <use xlink:href="#DejaVuSans-30"/>
      </g>
     </g>
    </g>
    <g id="xtick_2">
     <g id="line2d_3">
      <path clip-path="url(#p98b2cd14ad)" d="M 148.035165 384.48 
L 148.035165 51.84 
" style="fill:none;stroke:#b0b0b0;stroke-linecap:square;stroke-width:0.8;"/>
     </g>
     <g id="line2d_4">
      <g>
       <use style="stroke:#000000;stroke-width:0.8;" x="148.035165" xlink:href="#mb444548b61" y="384.48"/>
      </g>
     </g>
     <g id="text_2">
      <!-- 50 -->
      <g transform="translate(141.672665 399.078438)scale(0.1 -0.1)">
       <defs>
        <path d="M 691 4666 
L 3169 4666 
L 3169 4134 
L 1269 4134 
L 1269 2991 
Q 1406 3038 1543 3061 
Q 1681 3084 1819 3084 
Q 2600 3084 3056 2656 
Q 3513 2228 3513 1497 
Q 3513 744 3044 326 
Q 2575 -91 1722 -91 
Q 1428 -91 1123 -41 
Q 819 9 494 109 
L 494 744 
Q 775 591 1075 516 
Q 1375 441 1709 441 
Q 2250 441 2565 725 
Q 2881 1009 2881 1497 
Q 2881 1984 2565 2268 
Q 2250 2553 1709 2553 
Q 1456 2553 1204 2497 
Q 953 2441 691 2322 
L 691 4666 
z
" id="DejaVuSans-35" transform="scale(0.015625)"/>
       </defs>
       <use xlink:href="#DejaVuSans-35"/>
       <use x="63.623047" xlink:href="#DejaVuSans-30"/>
      </g>
     </g>
    </g>
    <g id="xtick_3">
     <g id="line2d_5">
      <path clip-path="url(#p98b2cd14ad)" d="M 203.779421 384.48 
L 203.779421 51.84 
" style="fill:none;stroke:#b0b0b0;stroke-linecap:square;stroke-width:0.8;"/>
     </g>
     <g id="line2d_6">
      <g>
       <use style="stroke:#000000;stroke-width:0.8;" x="203.779421" xlink:href="#mb444548b61" y="384.48"/>
      </g>
     </g>
     <g id="text_3">
      <!-- 100 -->
      <g transform="translate(194.235671 399.078438)scale(0.1 -0.1)">
       <defs>
        <path d="M 794 531 
L 1825 531 
L 1825 4091 
L 703 3866 
L 703 4441 
L 1819 4666 
L 2450 4666 
L 2450 531 
L 3481 531 
L 3481 0 
L 794 0 
L 794 531 
z
" id="DejaVuSans-31" transform="scale(0.015625)"/>
       </defs>
       <use xlink:href="#DejaVuSans-31"/>
       <use x="63.623047" xlink:href="#DejaVuSans-30"/>
       <use x="127.246094" xlink:href="#DejaVuSans-30"/>
      </g>
     </g>
    </g>
    <g id="xtick_4">
     <g id="line2d_7">
      <path clip-path="url(#p98b2cd14ad)" d="M 259.523676 384.48 
L 259.523676 51.84 
" style="fill:none;stroke:#b0b0b0;stroke-linecap:square;stroke-width:0.8;"/>
     </g>
     <g id="line2d_8">
      <g>
       <use style="stroke:#000000;stroke-width:0.8;" x="259.523676" xlink:href="#mb444548b61" y="384.48"/>
      </g>
     </g>
     <g id="text_4">
      <!-- 150 -->
      <g transform="translate(249.979926 399.078438)scale(0.1 -0.1)">
       <use xlink:href="#DejaVuSans-31"/>
       <use x="63.623047" xlink:href="#DejaVuSans-35"/>
       <use x="127.246094" xlink:href="#DejaVuSans-30"/>
      </g>
     </g>
    </g>
    <g id="xtick_5">
     <g id="line2d_9">
      <path clip-path="url(#p98b2cd14ad)" d="M 315.267932 384.48 
L 315.267932 51.84 
" style="fill:none;stroke:#b0b0b0;stroke-linecap:square;stroke-width:0.8;"/>
     </g>
     <g id="line2d_10">
      <g>
       <use style="stroke:#000000;stroke-width:0.8;" x="315.267932" xlink:href="#mb444548b61" y="384.48"/>
      </g>
     </g>
     <g id="text_5">
      <!-- 200 -->
      <g transform="translate(305.724182 399.078438)scale(0.1 -0.1)">
       <defs>
        <path d="M 1228 531 
L 3431 531 
L 3431 0 
L 469 0 
L 469 531 
Q 828 903 1448 1529 
Q 2069 2156 2228 2338 
Q 2531 2678 2651 2914 
Q 2772 3150 2772 3378 
Q 2772 3750 2511 3984 
Q 2250 4219 1831 4219 
Q 1534 4219 1204 4116 
Q 875 4013 500 3803 
L 500 4441 
Q 881 4594 1212 4672 
Q 1544 4750 1819 4750 
Q 2544 4750 2975 4387 
Q 3406 4025 3406 3419 
Q 3406 3131 3298 2873 
Q 3191 2616 2906 2266 
Q 2828 2175 2409 1742 
Q 1991 1309 1228 531 
z
" id="DejaVuSans-32" transform="scale(0.015625)"/>
       </defs>
       <use xlink:href="#DejaVuSans-32"/>
       <use x="63.623047" xlink:href="#DejaVuSans-30"/>
       <use x="127.246094" xlink:href="#DejaVuSans-30"/>
      </g>
     </g>
    </g>
    <g id="xtick_6">
     <g id="line2d_11">
      <path clip-path="url(#p98b2cd14ad)" d="M 371.012188 384.48 
L 371.012188 51.84 
" style="fill:none;stroke:#b0b0b0;stroke-linecap:square;stroke-width:0.8;"/>
     </g>
     <g id="line2d_12">
      <g>
       <use style="stroke:#000000;stroke-width:0.8;" x="371.012188" xlink:href="#mb444548b61" y="384.48"/>
      </g>
     </g>
     <g id="text_6">
      <!-- 250 -->
      <g transform="translate(361.468438 399.078438)scale(0.1 -0.1)">
       <use xlink:href="#DejaVuSans-32"/>
       <use x="63.623047" xlink:href="#DejaVuSans-35"/>
       <use x="127.246094" xlink:href="#DejaVuSans-30"/>
      </g>
     </g>
    </g>
    <g id="xtick_7">
     <g id="line2d_13">
      <path clip-path="url(#p98b2cd14ad)" d="M 426.756444 384.48 
L 426.756444 51.84 
" style="fill:none;stroke:#b0b0b0;stroke-linecap:square;stroke-width:0.8;"/>
     </g>
     <g id="line2d_14">
      <g>
       <use style="stroke:#000000;stroke-width:0.8;" x="426.756444" xlink:href="#mb444548b61" y="384.48"/>
      </g>
     </g>
     <g id="text_7">
      <!-- 300 -->
      <g transform="translate(417.212694 399.078438)scale(0.1 -0.1)">
       <defs>
        <path d="M 2597 2516 
Q 3050 2419 3304 2112 
Q 3559 1806 3559 1356 
Q 3559 666 3084 287 
Q 2609 -91 1734 -91 
Q 1441 -91 1130 -33 
Q 819 25 488 141 
L 488 750 
Q 750 597 1062 519 
Q 1375 441 1716 441 
Q 2309 441 2620 675 
Q 2931 909 2931 1356 
Q 2931 1769 2642 2001 
Q 2353 2234 1838 2234 
L 1294 2234 
L 1294 2753 
L 1863 2753 
Q 2328 2753 2575 2939 
Q 2822 3125 2822 3475 
Q 2822 3834 2567 4026 
Q 2313 4219 1838 4219 
Q 1578 4219 1281 4162 
Q 984 4106 628 3988 
L 628 4550 
Q 988 4650 1302 4700 
Q 1616 4750 1894 4750 
Q 2613 4750 3031 4423 
Q 3450 4097 3450 3541 
Q 3450 3153 3228 2886 
Q 3006 2619 2597 2516 
z
" id="DejaVuSans-33" transform="scale(0.015625)"/>
       </defs>
       <use xlink:href="#DejaVuSans-33"/>
       <use x="63.623047" xlink:href="#DejaVuSans-30"/>
       <use x="127.246094" xlink:href="#DejaVuSans-30"/>
      </g>
     </g>
    </g>
    <g id="xtick_8">
     <g id="line2d_15">
      <path clip-path="url(#p98b2cd14ad)" d="M 482.500699 384.48 
L 482.500699 51.84 
" style="fill:none;stroke:#b0b0b0;stroke-linecap:square;stroke-width:0.8;"/>
     </g>
     <g id="line2d_16">
      <g>
       <use style="stroke:#000000;stroke-width:0.8;" x="482.500699" xlink:href="#mb444548b61" y="384.48"/>
      </g>
     </g>
     <g id="text_8">
      <!-- 350 -->
      <g transform="translate(472.956949 399.078438)scale(0.1 -0.1)">
       <use xlink:href="#DejaVuSans-33"/>
       <use x="63.623047" xlink:href="#DejaVuSans-35"/>
       <use x="127.246094" xlink:href="#DejaVuSans-30"/>
      </g>
     </g>
    </g>
    <g id="text_9">
     <!-- Day -->
     <g transform="translate(285.326562 412.756563)scale(0.1 -0.1)">
      <defs>
       <path d="M 1259 4147 
L 1259 519 
L 2022 519 
Q 2988 519 3436 956 
Q 3884 1394 3884 2338 
Q 3884 3275 3436 3711 
Q 2988 4147 2022 4147 
L 1259 4147 
z
M 628 4666 
L 1925 4666 
Q 3281 4666 3915 4102 
Q 4550 3538 4550 2338 
Q 4550 1131 3912 565 
Q 3275 0 1925 0 
L 628 0 
L 628 4666 
z
" id="DejaVuSans-44" transform="scale(0.015625)"/>
       <path d="M 2194 1759 
Q 1497 1759 1228 1600 
Q 959 1441 959 1056 
Q 959 750 1161 570 
Q 1363 391 1709 391 
Q 2188 391 2477 730 
Q 2766 1069 2766 1631 
L 2766 1759 
L 2194 1759 
z
M 3341 1997 
L 3341 0 
L 2766 0 
L 2766 531 
Q 2569 213 2275 61 
Q 1981 -91 1556 -91 
Q 1019 -91 701 211 
Q 384 513 384 1019 
Q 384 1609 779 1909 
Q 1175 2209 1959 2209 
L 2766 2209 
L 2766 2266 
Q 2766 2663 2505 2880 
Q 2244 3097 1772 3097 
Q 1472 3097 1187 3025 
Q 903 2953 641 2809 
L 641 3341 
Q 956 3463 1253 3523 
Q 1550 3584 1831 3584 
Q 2591 3584 2966 3190 
Q 3341 2797 3341 1997 
z
" id="DejaVuSans-61" transform="scale(0.015625)"/>
       <path d="M 2059 -325 
Q 1816 -950 1584 -1140 
Q 1353 -1331 966 -1331 
L 506 -1331 
L 506 -850 
L 844 -850 
Q 1081 -850 1212 -737 
Q 1344 -625 1503 -206 
L 1606 56 
L 191 3500 
L 800 3500 
L 1894 763 
L 2988 3500 
L 3597 3500 
L 2059 -325 
z
" id="DejaVuSans-79" transform="scale(0.015625)"/>
      </defs>
      <use xlink:href="#DejaVuSans-44"/>
      <use x="77.001953" xlink:href="#DejaVuSans-61"/>
      <use x="138.28125" xlink:href="#DejaVuSans-79"/>
     </g>
    </g>
   </g>
   <g id="matplotlib.axis_2">
    <g id="ytick_1">
     <g id="line2d_17">
      <path clip-path="url(#p98b2cd14ad)" d="M 72 357.016426 
L 518.4 357.016426 
" style="fill:none;stroke:#b0b0b0;stroke-linecap:square;stroke-width:0.8;"/>
     </g>
     <g id="line2d_18">
      <defs>
       <path d="M 0 0 
L -3.5 0 
" id="m030fceea6b" style="stroke:#000000;stroke-width:0.8;"/>
      </defs>
      <g>
       <use style="stroke:#000000;stroke-width:0.8;" x="72" xlink:href="#m030fceea6b" y="357.016426"/>
      </g>
     </g>
     <g id="text_10">
      <!-- 0 -->
      <g transform="translate(58.6375 360.815645)scale(0.1 -0.1)">
       <use xlink:href="#DejaVuSans-30"/>
      </g>
     </g>
    </g>
    <g id="ytick_2">
     <g id="line2d_19">
      <path clip-path="url(#p98b2cd14ad)" d="M 72 315.653538 
L 518.4 315.653538 
" style="fill:none;stroke:#b0b0b0;stroke-linecap:square;stroke-width:0.8;"/>
     </g>
     <g id="line2d_20">
      <g>
       <use style="stroke:#000000;stroke-width:0.8;" x="72" xlink:href="#m030fceea6b" y="315.653538"/>
      </g>
     </g>
     <g id="text_11">
      <!-- 25 -->
      <g transform="translate(52.275 319.452757)scale(0.1 -0.1)">
       <use xlink:href="#DejaVuSans-32"/>
       <use x="63.623047" xlink:href="#DejaVuSans-35"/>
      </g>
     </g>
    </g>
    <g id="ytick_3">
     <g id="line2d_21">
      <path clip-path="url(#p98b2cd14ad)" d="M 72 274.29065 
L 518.4 274.29065 
" style="fill:none;stroke:#b0b0b0;stroke-linecap:square;stroke-width:0.8;"/>
     </g>
     <g id="line2d_22">
      <g>
       <use style="stroke:#000000;stroke-width:0.8;" x="72" xlink:href="#m030fceea6b" y="274.29065"/>
      </g>
     </g>
     <g id="text_12">
      <!-- 50 -->
      <g transform="translate(52.275 278.089869)scale(0.1 -0.1)">
       <use xlink:href="#DejaVuSans-35"/>
       <use x="63.623047" xlink:href="#DejaVuSans-30"/>
      </g>
     </g>
    </g>
    <g id="ytick_4">
     <g id="line2d_23">
      <path clip-path="url(#p98b2cd14ad)" d="M 72 232.927762 
L 518.4 232.927762 
" style="fill:none;stroke:#b0b0b0;stroke-linecap:square;stroke-width:0.8;"/>
     </g>
     <g id="line2d_24">
      <g>
       <use style="stroke:#000000;stroke-width:0.8;" x="72" xlink:href="#m030fceea6b" y="232.927762"/>
      </g>
     </g>
     <g id="text_13">
      <!-- 75 -->
      <g transform="translate(52.275 236.72698)scale(0.1 -0.1)">
       <defs>
        <path d="M 525 4666 
L 3525 4666 
L 3525 4397 
L 1831 0 
L 1172 0 
L 2766 4134 
L 525 4134 
L 525 4666 
z
" id="DejaVuSans-37" transform="scale(0.015625)"/>
       </defs>
       <use xlink:href="#DejaVuSans-37"/>
       <use x="63.623047" xlink:href="#DejaVuSans-35"/>
      </g>
     </g>
    </g>
    <g id="ytick_5">
     <g id="line2d_25">
      <path clip-path="url(#p98b2cd14ad)" d="M 72 191.564874 
L 518.4 191.564874 
" style="fill:none;stroke:#b0b0b0;stroke-linecap:square;stroke-width:0.8;"/>
     </g>
     <g id="line2d_26">
      <g>
       <use style="stroke:#000000;stroke-width:0.8;" x="72" xlink:href="#m030fceea6b" y="191.564874"/>
      </g>
     </g>
     <g id="text_14">
      <!-- 100 -->
      <g transform="translate(45.9125 195.364092)scale(0.1 -0.1)">
       <use xlink:href="#DejaVuSans-31"/>
       <use x="63.623047" xlink:href="#DejaVuSans-30"/>
       <use x="127.246094" xlink:href="#DejaVuSans-30"/>
      </g>
     </g>
    </g>
    <g id="ytick_6">
     <g id="line2d_27">
      <path clip-path="url(#p98b2cd14ad)" d="M 72 150.201985 
L 518.4 150.201985 
" style="fill:none;stroke:#b0b0b0;stroke-linecap:square;stroke-width:0.8;"/>
     </g>
     <g id="line2d_28">
      <g>
       <use style="stroke:#000000;stroke-width:0.8;" x="72" xlink:href="#m030fceea6b" y="150.201985"/>
      </g>
     </g>
     <g id="text_15">
      <!-- 125 -->
      <g transform="translate(45.9125 154.001204)scale(0.1 -0.1)">
       <use xlink:href="#DejaVuSans-31"/>
       <use x="63.623047" xlink:href="#DejaVuSans-32"/>
       <use x="127.246094" xlink:href="#DejaVuSans-35"/>
      </g>
     </g>
    </g>
    <g id="ytick_7">
     <g id="line2d_29">
      <path clip-path="url(#p98b2cd14ad)" d="M 72 108.839097 
L 518.4 108.839097 
" style="fill:none;stroke:#b0b0b0;stroke-linecap:square;stroke-width:0.8;"/>
     </g>
     <g id="line2d_30">
      <g>
       <use style="stroke:#000000;stroke-width:0.8;" x="72" xlink:href="#m030fceea6b" y="108.839097"/>
      </g>
     </g>
     <g id="text_16">
      <!-- 150 -->
      <g transform="translate(45.9125 112.638316)scale(0.1 -0.1)">
       <use xlink:href="#DejaVuSans-31"/>
       <use x="63.623047" xlink:href="#DejaVuSans-35"/>
       <use x="127.246094" xlink:href="#DejaVuSans-30"/>
      </g>
     </g>
    </g>
    <g id="ytick_8">
     <g id="line2d_31">
      <path clip-path="url(#p98b2cd14ad)" d="M 72 67.476209 
L 518.4 67.476209 
" style="fill:none;stroke:#b0b0b0;stroke-linecap:square;stroke-width:0.8;"/>
     </g>
     <g id="line2d_32">
      <g>
       <use style="stroke:#000000;stroke-width:0.8;" x="72" xlink:href="#m030fceea6b" y="67.476209"/>
      </g>
     </g>
     <g id="text_17">
      <!-- 175 -->
      <g transform="translate(45.9125 71.275428)scale(0.1 -0.1)">
       <use xlink:href="#DejaVuSans-31"/>
       <use x="63.623047" xlink:href="#DejaVuSans-37"/>
       <use x="127.246094" xlink:href="#DejaVuSans-35"/>
      </g>
     </g>
    </g>
    <g id="text_18">
     <!-- max 8h $O_3$ $[\mu g/m^3$] -->
     <g transform="translate(39.8125 265.91)rotate(-90)scale(0.1 -0.1)">
      <defs>
       <path d="M 3328 2828 
Q 3544 3216 3844 3400 
Q 4144 3584 4550 3584 
Q 5097 3584 5394 3201 
Q 5691 2819 5691 2113 
L 5691 0 
L 5113 0 
L 5113 2094 
Q 5113 2597 4934 2840 
Q 4756 3084 4391 3084 
Q 3944 3084 3684 2787 
Q 3425 2491 3425 1978 
L 3425 0 
L 2847 0 
L 2847 2094 
Q 2847 2600 2669 2842 
Q 2491 3084 2119 3084 
Q 1678 3084 1418 2786 
Q 1159 2488 1159 1978 
L 1159 0 
L 581 0 
L 581 3500 
L 1159 3500 
L 1159 2956 
Q 1356 3278 1631 3431 
Q 1906 3584 2284 3584 
Q 2666 3584 2933 3390 
Q 3200 3197 3328 2828 
z
" id="DejaVuSans-6d" transform="scale(0.015625)"/>
       <path d="M 3513 3500 
L 2247 1797 
L 3578 0 
L 2900 0 
L 1881 1375 
L 863 0 
L 184 0 
L 1544 1831 
L 300 3500 
L 978 3500 
L 1906 2253 
L 2834 3500 
L 3513 3500 
z
" id="DejaVuSans-78" transform="scale(0.015625)"/>
       <path id="DejaVuSans-20" transform="scale(0.015625)"/>
       <path d="M 2034 2216 
Q 1584 2216 1326 1975 
Q 1069 1734 1069 1313 
Q 1069 891 1326 650 
Q 1584 409 2034 409 
Q 2484 409 2743 651 
Q 3003 894 3003 1313 
Q 3003 1734 2745 1975 
Q 2488 2216 2034 2216 
z
M 1403 2484 
Q 997 2584 770 2862 
Q 544 3141 544 3541 
Q 544 4100 942 4425 
Q 1341 4750 2034 4750 
Q 2731 4750 3128 4425 
Q 3525 4100 3525 3541 
Q 3525 3141 3298 2862 
Q 3072 2584 2669 2484 
Q 3125 2378 3379 2068 
Q 3634 1759 3634 1313 
Q 3634 634 3220 271 
Q 2806 -91 2034 -91 
Q 1263 -91 848 271 
Q 434 634 434 1313 
Q 434 1759 690 2068 
Q 947 2378 1403 2484 
z
M 1172 3481 
Q 1172 3119 1398 2916 
Q 1625 2713 2034 2713 
Q 2441 2713 2670 2916 
Q 2900 3119 2900 3481 
Q 2900 3844 2670 4047 
Q 2441 4250 2034 4250 
Q 1625 4250 1398 4047 
Q 1172 3844 1172 3481 
z
" id="DejaVuSans-38" transform="scale(0.015625)"/>
       <path d="M 3513 2113 
L 3513 0 
L 2938 0 
L 2938 2094 
Q 2938 2591 2744 2837 
Q 2550 3084 2163 3084 
Q 1697 3084 1428 2787 
Q 1159 2491 1159 1978 
L 1159 0 
L 581 0 
L 581 4863 
L 1159 4863 
L 1159 2956 
Q 1366 3272 1645 3428 
Q 1925 3584 2291 3584 
Q 2894 3584 3203 3211 
Q 3513 2838 3513 2113 
z
" id="DejaVuSans-68" transform="scale(0.015625)"/>
       <path d="M 2919 4238 
Q 2400 4238 2003 3986 
Q 1606 3734 1313 3219 
Q 1125 2891 1026 2522 
Q 928 2153 928 1778 
Q 928 1128 1239 775 
Q 1550 422 2119 422 
Q 2631 422 3032 676 
Q 3434 931 3719 1434 
Q 3909 1772 4009 2142 
Q 4109 2513 4109 2881 
Q 4109 3528 3796 3883 
Q 3484 4238 2919 4238 
z
M 2100 -91 
Q 1241 -91 748 418 
Q 256 928 256 1813 
Q 256 2319 448 2847 
Q 641 3375 978 3788 
Q 1375 4272 1862 4511 
Q 2350 4750 2938 4750 
Q 3794 4750 4287 4245 
Q 4781 3741 4781 2869 
Q 4781 2331 4593 1812 
Q 4406 1294 4056 872 
Q 3656 384 3173 146 
Q 2691 -91 2100 -91 
z
" id="DejaVuSans-Oblique-4f" transform="scale(0.015625)"/>
       <path d="M 550 4863 
L 1875 4863 
L 1875 4416 
L 1125 4416 
L 1125 -397 
L 1875 -397 
L 1875 -844 
L 550 -844 
L 550 4863 
z
" id="DejaVuSans-5b" transform="scale(0.015625)"/>
       <path d="M -84 -1331 
L 856 3500 
L 1434 3500 
L 1009 1322 
Q 997 1256 987 1175 
Q 978 1094 978 1013 
Q 978 722 1161 565 
Q 1344 409 1684 409 
Q 2147 409 2431 671 
Q 2716 934 2816 1459 
L 3213 3500 
L 3788 3500 
L 3266 809 
Q 3253 750 3248 706 
Q 3244 663 3244 628 
Q 3244 531 3283 486 
Q 3322 441 3406 441 
Q 3438 441 3492 456 
Q 3547 472 3647 513 
L 3559 50 
Q 3422 -19 3297 -55 
Q 3172 -91 3053 -91 
Q 2847 -91 2730 40 
Q 2613 172 2613 403 
Q 2438 153 2195 31 
Q 1953 -91 1625 -91 
Q 1334 -91 1117 43 
Q 900 178 831 397 
L 494 -1331 
L -84 -1331 
z
" id="DejaVuSans-Oblique-3bc" transform="scale(0.015625)"/>
       <path d="M 3816 3500 
L 3219 434 
Q 3047 -456 2561 -893 
Q 2075 -1331 1253 -1331 
Q 950 -1331 690 -1286 
Q 431 -1241 206 -1147 
L 313 -588 
Q 525 -725 762 -790 
Q 1000 -856 1269 -856 
Q 1816 -856 2167 -557 
Q 2519 -259 2631 300 
L 2681 563 
Q 2441 288 2122 144 
Q 1803 0 1434 0 
Q 903 0 598 351 
Q 294 703 294 1319 
Q 294 1803 478 2267 
Q 663 2731 997 3091 
Q 1219 3328 1514 3456 
Q 1809 3584 2131 3584 
Q 2484 3584 2746 3420 
Q 3009 3256 3138 2956 
L 3238 3500 
L 3816 3500 
z
M 2950 2216 
Q 2950 2641 2750 2872 
Q 2550 3103 2181 3103 
Q 1953 3103 1747 3012 
Q 1541 2922 1394 2759 
Q 1156 2491 1023 2127 
Q 891 1763 891 1375 
Q 891 944 1092 712 
Q 1294 481 1672 481 
Q 2219 481 2584 976 
Q 2950 1472 2950 2216 
z
" id="DejaVuSans-Oblique-67" transform="scale(0.015625)"/>
       <path d="M 1625 4666 
L 2156 4666 
L 531 -594 
L 0 -594 
L 1625 4666 
z
" id="DejaVuSans-2f" transform="scale(0.015625)"/>
       <path d="M 5747 2113 
L 5338 0 
L 4763 0 
L 5166 2094 
Q 5191 2228 5203 2325 
Q 5216 2422 5216 2491 
Q 5216 2772 5059 2928 
Q 4903 3084 4622 3084 
Q 4203 3084 3875 2770 
Q 3547 2456 3450 1953 
L 3066 0 
L 2491 0 
L 2900 2094 
Q 2925 2209 2937 2307 
Q 2950 2406 2950 2484 
Q 2950 2769 2794 2926 
Q 2638 3084 2363 3084 
Q 1938 3084 1609 2770 
Q 1281 2456 1184 1953 
L 800 0 
L 225 0 
L 909 3500 
L 1484 3500 
L 1375 2956 
Q 1609 3263 1923 3423 
Q 2238 3584 2597 3584 
Q 2978 3584 3223 3384 
Q 3469 3184 3519 2828 
Q 3781 3197 4126 3390 
Q 4472 3584 4856 3584 
Q 5306 3584 5551 3325 
Q 5797 3066 5797 2591 
Q 5797 2488 5784 2364 
Q 5772 2241 5747 2113 
z
" id="DejaVuSans-Oblique-6d" transform="scale(0.015625)"/>
       <path d="M 1947 4863 
L 1947 -844 
L 622 -844 
L 622 -397 
L 1369 -397 
L 1369 4416 
L 622 4416 
L 622 4863 
L 1947 4863 
z
" id="DejaVuSans-5d" transform="scale(0.015625)"/>
      </defs>
      <use transform="translate(0 0.765625)" xlink:href="#DejaVuSans-6d"/>
      <use transform="translate(97.412109 0.765625)" xlink:href="#DejaVuSans-61"/>
      <use transform="translate(158.691406 0.765625)" xlink:href="#DejaVuSans-78"/>
      <use transform="translate(217.871094 0.765625)" xlink:href="#DejaVuSans-20"/>
      <use transform="translate(249.658203 0.765625)" xlink:href="#DejaVuSans-38"/>
      <use transform="translate(313.28125 0.765625)" xlink:href="#DejaVuSans-68"/>
      <use transform="translate(376.660156 0.765625)" xlink:href="#DejaVuSans-20"/>
      <use transform="translate(408.447266 0.765625)" xlink:href="#DejaVuSans-Oblique-4f"/>
      <use transform="translate(487.158203 -15.640625)scale(0.7)" xlink:href="#DejaVuSans-33"/>
      <use transform="translate(534.428711 0.765625)" xlink:href="#DejaVuSans-20"/>
      <use transform="translate(566.21582 0.765625)" xlink:href="#DejaVuSans-5b"/>
      <use transform="translate(605.229492 0.765625)" xlink:href="#DejaVuSans-Oblique-3bc"/>
      <use transform="translate(668.852539 0.765625)" xlink:href="#DejaVuSans-Oblique-67"/>
      <use transform="translate(732.329102 0.765625)" xlink:href="#DejaVuSans-2f"/>
      <use transform="translate(766.020508 0.765625)" xlink:href="#DejaVuSans-Oblique-6d"/>
      <use transform="translate(868.082513 39.046875)scale(0.7)" xlink:href="#DejaVuSans-33"/>
      <use transform="translate(915.353021 0.765625)" xlink:href="#DejaVuSans-5d"/>
     </g>
    </g>
   </g>
   <g id="line2d_33">
    <path clip-path="url(#p98b2cd14ad)" d="M 92.290909 275.634117 
L 93.405794 289.28387 
L 94.520679 287.837823 
L 95.635564 296.110401 
L 96.75045 319.996641 
L 97.865335 284.115163 
L 98.98022 331.785065 
L 100.095105 313.687974 
L 101.20999 281.63339 
L 102.324875 286.183308 
L 103.43976 341.298529 
L 104.554645 335.30091 
L 105.66953 313.482814 
L 106.784416 281.83855 
L 107.899301 327.825809 
L 109.014186 304.308525 
L 110.129071 275.842586 
L 115.703497 313.585394 
L 116.818382 308.724427 
L 117.933267 324.989969 
L 119.048152 327.825809 
L 120.163037 311.828298 
L 121.277922 281.145308 
L 122.392807 288.870241 
L 123.507692 267.081926 
L 124.622577 252.781948 
L 126.852348 267.775168 
L 127.967233 269.533918 
L 129.082118 260.951946 
L 130.197003 273.936584 
L 131.311888 270.154361 
L 132.426773 259.045944 
L 133.541658 313.378579 
L 140.230969 267.052145 
L 141.345854 285.35605 
L 142.460739 306.656283 
L 143.575624 230.548568 
L 144.690509 260.124688 
L 145.805395 254.747513 
L 146.92028 251.95469 
L 148.035165 256.402028 
L 149.15005 255.161141 
L 150.264935 239.856873 
L 152.494705 253.81602 
L 153.60959 245.543443 
L 154.724476 235.925744 
L 155.839361 223.827926 
L 156.954246 238.407517 
L 158.069131 268.499846 
L 159.184016 252.988763 
L 160.298901 277.186052 
L 161.413786 235.409535 
L 162.528671 260.847711 
L 163.643556 244.302556 
L 164.758442 237.375099 
L 165.873327 266.727859 
L 166.988212 250.09336 
L 168.103097 256.918237 
L 169.217982 268.913474 
L 170.332867 273.670207 
L 171.447752 256.564171 
L 172.562637 266.372139 
L 173.677522 258.572752 
L 174.792408 265.664006 
L 175.907293 215.672819 
L 177.022178 199.321242 
L 178.137063 219.278009 
L 179.251948 243.784693 
L 180.366833 251.438481 
L 181.481718 227.343772 
L 182.596603 246.301211 
L 183.711489 225.793491 
L 184.826374 226.192229 
L 185.941259 217.726073 
L 187.056144 236.94658 
L 188.171029 236.857236 
L 189.285914 246.266466 
L 190.400799 231.273246 
L 191.515684 226.546295 
L 192.630569 231.480061 
L 193.745455 224.181993 
L 194.86034 235.512115 
L 195.975225 231.997924 
L 197.09011 218.553331 
L 198.204995 211.625874 
L 199.31988 255.056907 
L 200.434765 277.599681 
L 201.54965 231.686875 
L 202.664535 230.757037 
L 203.779421 254.643278 
L 204.894306 240.062033 
L 206.009191 197.562492 
L 207.124076 232.411553 
L 208.238961 212.866761 
L 209.353846 229.516151 
L 210.468731 210.798617 
L 211.583616 182.981247 
L 212.698501 232.307318 
L 213.813387 228.066795 
L 214.928272 230.757037 
L 216.043157 214.830671 
L 217.158042 234.893326 
L 218.272927 201.389387 
L 219.387812 144.204366 
L 220.502697 242.441226 
L 222.732468 168.917865 
L 223.847353 160.011608 
L 226.077123 218.553331 
L 227.192008 250.920618 
L 228.306893 261.054526 
L 229.421778 225.068813 
L 230.536663 227.491024 
L 231.651548 243.475298 
L 232.766434 253.136014 
L 233.881319 204.903578 
L 234.996204 208.937287 
L 236.111089 220.72571 
L 237.225974 251.230013 
L 238.340859 264.570371 
L 239.455744 244.863437 
L 240.570629 253.195577 
L 241.685514 183.409766 
L 242.8004 216.280026 
L 243.915285 239.428353 
L 245.03017 232.100504 
L 246.145055 228.200811 
L 247.25994 186.703907 
L 248.374825 217.209864 
L 249.48971 211.212245 
L 250.604595 229.721311 
L 251.719481 183.603345 
L 252.834366 199.010193 
L 253.949251 227.136957 
L 255.064136 230.343408 
L 256.179021 225.998651 
L 257.293906 199.734871 
L 258.408791 246.474935 
L 259.523676 263.536299 
L 260.638561 256.297794 
L 261.753447 198.907613 
L 262.868332 172.226896 
L 263.983217 138.931426 
L 265.098102 98.084746 
L 266.212987 188.153262 
L 267.327872 227.757401 
L 268.442757 237.580259 
L 269.557642 275.531537 
L 270.672527 264.466137 
L 271.787413 212.246318 
L 272.902298 233.961834 
L 274.017183 222.793854 
L 275.132068 223.827926 
L 276.246953 210.945868 
L 277.361838 204.387369 
L 278.476723 229.411916 
L 279.591608 271.706297 
L 280.706494 252.781948 
L 281.821379 262.811621 
L 282.936264 251.600624 
L 284.051149 187.326005 
L 285.166034 140.628958 
L 286.280919 79.160398 
L 287.395804 161.429528 
L 288.510689 124.868044 
L 289.625574 82.366849 
L 290.74046 66.96 
L 291.855345 181.401185 
L 292.97023 206.248699 
L 295.2 152.581179 
L 296.314885 185.656599 
L 297.42977 189.394149 
L 298.544655 250.920618 
L 299.65954 206.928705 
L 300.774426 149.581542 
L 301.889311 99.223053 
L 307.463736 219.175429 
L 310.808392 224.552604 
L 311.923277 239.339009 
L 313.038162 202.630273 
L 314.153047 144.82481 
L 315.267932 134.586668 
L 316.382817 185.774069 
L 317.497702 230.859617 
L 318.612587 261.779204 
L 319.727473 207.59382 
L 320.842358 220.207846 
L 321.957243 263.22525 
L 323.072128 277.497101 
L 324.187013 236.753002 
L 325.301898 279.254197 
L 326.416783 221.700219 
L 327.531668 213.176155 
L 328.646553 253.018544 
L 329.761439 262.502227 
L 330.876324 238.48197 
L 331.991209 267.909184 
L 333.106094 261.881783 
L 334.220979 231.686875 
L 335.335864 217.683056 
L 336.450749 283.390485 
L 337.565634 220.2823 
L 338.680519 225.379862 
L 339.795405 267.672588 
L 340.91029 246.888564 
L 343.14006 220.105266 
L 344.254945 259.29743 
L 345.36983 259.088961 
L 346.484715 247.093724 
L 347.5996 264.879766 
L 348.714486 242.618259 
L 349.829371 212.348898 
L 350.944256 240.270502 
L 352.059141 243.888927 
L 353.174026 248.438845 
L 354.288911 241.511388 
L 355.403796 251.85211 
L 357.633566 282.665808 
L 358.748452 259.916219 
L 359.863337 262.088598 
L 360.978222 252.781948 
L 362.093107 238.615986 
L 363.207992 235.616349 
L 365.437762 271.706297 
L 366.552647 239.648404 
L 367.667532 220.416315 
L 368.782418 215.201282 
L 369.897303 230.343408 
L 371.012188 265.604443 
L 372.127073 269.843312 
L 373.241958 273.360812 
L 374.356843 241.097759 
L 375.471728 289.28387 
L 376.586613 258.779567 
L 377.701499 263.949928 
L 378.816384 236.709984 
L 379.931269 243.564642 
L 381.046154 273.109326 
L 382.161039 246.888564 
L 383.275924 256.327575 
L 384.390809 220.207846 
L 385.505694 243.682113 
L 386.620579 204.698418 
L 387.735465 217.327335 
L 388.85035 271.706297 
L 389.965235 246.046415 
L 392.195005 292.253725 
L 393.30989 318.859989 
L 394.424775 311.990441 
L 395.53966 307.174146 
L 396.654545 263.536299 
L 397.769431 274.601699 
L 398.884316 235.292064 
L 399.999201 246.680095 
L 401.114086 271.808877 
L 402.228971 294.247416 
L 403.343856 309.551685 
L 404.458741 273.463392 
L 405.573626 286.699516 
L 406.688511 274.39323 
L 407.803397 294.247416 
L 408.918282 316.480796 
L 410.033167 291.308997 
L 411.148052 313.482814 
L 412.262937 283.493065 
L 413.377822 281.011292 
L 414.492707 285.045001 
L 415.607592 267.983637 
L 416.722478 271.292668 
L 417.837363 267.361539 
L 418.952248 284.010929 
L 420.067133 288.354032 
L 421.182018 283.079436 
L 422.296903 282.563228 
L 423.411788 269.429683 
L 424.526673 285.56121 
L 425.641558 269.120289 
L 426.756444 284.320323 
L 427.871329 269.224523 
L 428.986214 265.915492 
L 430.101099 254.436464 
L 431.215984 334.060023 
L 432.330869 289.697499 
L 433.445754 278.633753 
L 434.560639 271.395248 
L 435.675524 266.120652 
L 436.79041 262.606461 
L 437.905295 305.372379 
L 439.02018 248.23203 
L 440.135065 262.811621 
L 441.24995 323.098858 
L 442.364835 256.711422 
L 443.47972 239.752638 
L 444.594605 256.564171 
L 445.709491 262.295412 
L 446.824376 262.192832 
L 447.939261 350.914573 
L 449.054146 306.864752 
L 450.169031 308.001404 
L 451.283916 300.999494 
L 452.398801 305.001767 
L 453.513686 341.889191 
L 460.202997 284.217743 
L 461.317882 308.310798 
L 462.432767 342.243257 
L 463.547652 348.641269 
L 464.662537 312.137693 
L 465.777423 341.298529 
L 466.892308 348.950663 
L 468.007193 273.670207 
L 469.122078 268.973037 
L 470.236963 321.133294 
L 471.351848 352.880138 
L 472.466733 346.498671 
L 473.581618 298.592174 
L 474.696503 326.761955 
L 476.926274 266.329121 
L 478.041159 266.962801 
L 479.156044 293.938022 
L 480.270929 301.472686 
L 481.385814 273.699988 
L 482.500699 262.591571 
L 483.615584 274.763841 
L 484.73047 275.220488 
L 485.845355 314.310072 
L 486.96024 317.514868 
L 488.075125 351.536671 
L 489.19001 333.853209 
L 490.304895 296.153418 
L 491.41978 275.945165 
L 492.534665 302.2106 
L 493.64955 265.088235 
L 494.764436 259.813639 
L 495.879321 311.930878 
L 496.994206 293.317579 
L 498.109091 300.34927 
L 498.109091 300.34927 
" style="fill:none;stroke:#1f77b4;stroke-linecap:square;stroke-width:1.5;"/>
   </g>
   <g id="line2d_34">
    <path clip-path="url(#p98b2cd14ad)" d="M 92.290909 304.594665 
L 93.405794 236.231047 
L 94.520679 275.644579 
L 95.635564 346.359762 
L 96.75045 369.136683 
L 97.865335 356.379032 
L 98.98022 283.250481 
L 100.095105 247.527451 
L 101.20999 253.361017 
L 102.324875 250.88911 
L 103.43976 255.532096 
L 104.554645 293.237062 
L 105.66953 256.083707 
L 106.784416 332.852906 
L 107.899301 312.091621 
L 109.014186 240.26282 
L 110.129071 271.348596 
L 111.243956 299.200221 
L 112.358841 267.642614 
L 113.473726 270.460059 
L 114.588611 331.47343 
L 115.703497 304.964996 
L 116.818382 297.954078 
L 117.933267 260.924502 
L 119.048152 260.28134 
L 120.163037 277.08742 
L 121.277922 233.731451 
L 123.507692 340.774815 
L 124.622577 278.343987 
L 125.737463 281.164348 
L 126.852348 280.180885 
L 127.967233 323.978296 
L 129.082118 290.14836 
L 130.197003 262.892347 
L 131.311888 261.04225 
L 132.426773 292.778039 
L 133.541658 299.135735 
L 134.656543 314.451235 
L 135.771429 283.612547 
L 136.886314 259.989077 
L 138.001199 278.366885 
L 139.116084 260.93002 
L 140.230969 211.153392 
L 141.345854 338.906963 
L 142.460739 354.39106 
L 143.575624 315.995063 
L 144.690509 344.858811 
L 145.805395 346.471931 
L 146.92028 369.36 
L 148.035165 328.419245 
L 149.15005 308.775082 
L 150.264935 341.234815 
L 151.37982 302.463437 
L 152.494705 300.680972 
L 153.60959 350.324881 
L 154.724476 323.259201 
L 155.839361 338.509201 
L 156.954246 326.564543 
L 159.184016 359.307197 
L 160.298901 294.434317 
L 161.413786 266.401067 
L 162.528671 332.452918 
L 163.643556 282.503148 
L 164.758442 293.583338 
L 165.873327 234.781919 
L 166.988212 212.436829 
L 168.103097 201.649557 
L 169.217982 224.572941 
L 170.332867 255.408995 
L 171.447752 276.779074 
L 172.562637 248.434603 
L 173.677522 246.36497 
L 174.792408 195.215978 
L 175.907293 227.426864 
L 177.022178 237.417496 
L 178.137063 138.334845 
L 179.251948 234.756102 
L 180.366833 259.203799 
L 181.481718 258.768814 
L 182.596603 247.864093 
L 183.711489 183.200149 
L 184.826374 203.599025 
L 185.941259 218.448955 
L 187.056144 287.241328 
L 188.171029 220.398088 
L 189.285914 214.162995 
L 190.400799 306.776008 
L 191.515684 132.80051 
L 192.630569 226.860243 
L 194.86034 135.605826 
L 195.975225 139.524487 
L 197.09011 203.514062 
L 198.204995 224.074885 
L 199.31988 217.909714 
L 200.434765 118.37989 
L 201.54965 229.099393 
L 202.664535 170.976292 
L 203.779421 324.863198 
L 204.894306 271.006468 
L 206.009191 243.728305 
L 207.124076 199.22217 
L 208.238961 231.858742 
L 209.353846 139.858284 
L 210.468731 120.847853 
L 211.583616 184.794986 
L 212.698501 175.285137 
L 213.813387 229.781071 
L 214.928272 185.638431 
L 216.043157 255.109577 
L 217.158042 266.488669 
L 218.272927 201.250522 
L 219.387812 182.157591 
L 220.502697 252.183386 
L 221.617582 278.145566 
L 222.732468 256.25981 
L 223.847353 196.725036 
L 224.962238 221.706768 
L 226.077123 166.982034 
L 227.192008 210.188798 
L 228.306893 110.422316 
L 229.421778 185.89015 
L 230.536663 244.491149 
L 231.651548 224.145529 
L 232.766434 239.296596 
L 233.881319 197.716752 
L 234.996204 165.218754 
L 236.111089 184.955996 
L 237.225974 233.425674 
L 238.340859 158.020826 
L 239.455744 156.569125 
L 241.685514 203.088479 
L 242.8004 184.492321 
L 243.915285 204.844959 
L 245.03017 144.182442 
L 246.145055 197.951957 
L 247.25994 222.180887 
L 248.374825 139.843619 
L 249.48971 217.368771 
L 250.604595 150.814809 
L 251.719481 212.203037 
L 252.834366 200.85671 
L 253.949251 241.517771 
L 255.064136 211.256628 
L 256.179021 169.580298 
L 257.293906 166.533584 
L 258.408791 110.941099 
L 259.523676 111.263913 
L 260.638561 229.819681 
L 261.753447 172.279352 
L 262.868332 156.84047 
L 263.983217 161.712588 
L 265.098102 216.875326 
L 266.212987 165.38146 
L 267.327872 174.6219 
L 268.442757 151.981729 
L 269.557642 185.925007 
L 270.672527 208.435567 
L 271.787413 235.480387 
L 272.902298 250.327111 
L 274.017183 247.587064 
L 275.132068 137.163902 
L 276.246953 159.575503 
L 277.361838 92.294587 
L 278.476723 118.41672 
L 279.591608 189.825587 
L 280.706494 224.209429 
L 281.821379 141.577351 
L 282.936264 279.103705 
L 284.051149 187.608889 
L 285.166034 263.670815 
L 286.280919 158.543309 
L 287.395804 203.014855 
L 288.510689 91.757623 
L 289.625574 239.518862 
L 290.74046 159.427102 
L 291.855345 203.411025 
L 292.97023 199.333453 
L 294.085115 233.56971 
L 295.2 173.06738 
L 296.314885 204.822834 
L 297.42977 181.782417 
L 298.544655 215.2616 
L 299.65954 193.448146 
L 300.774426 253.960611 
L 301.889311 186.042088 
L 303.004196 145.456035 
L 304.119081 157.698326 
L 305.233966 176.523734 
L 306.348851 229.142312 
L 307.463736 234.055206 
L 308.578621 275.733123 
L 309.693506 161.806853 
L 310.808392 216.545482 
L 311.923277 216.718789 
L 313.038162 207.654619 
L 314.153047 201.938958 
L 315.267932 176.209228 
L 316.382817 174.822603 
L 317.497702 252.630418 
L 318.612587 221.70638 
L 319.727473 275.140826 
L 320.842358 200.93335 
L 321.957243 193.467015 
L 323.072128 228.869631 
L 324.187013 205.556524 
L 325.301898 216.679238 
L 326.416783 205.940201 
L 327.531668 197.810922 
L 328.646553 234.536474 
L 329.761439 210.551816 
L 330.876324 210.915679 
L 331.991209 233.736096 
L 333.106094 243.606065 
L 334.220979 224.244016 
L 335.335864 195.558285 
L 336.450749 224.824656 
L 337.565634 234.919744 
L 338.680519 199.277958 
L 339.795405 202.832996 
L 340.91029 212.885191 
L 342.025175 286.373173 
L 343.14006 177.726476 
L 344.254945 269.724571 
L 345.36983 225.57606 
L 346.484715 325.245256 
L 347.5996 331.721845 
L 348.714486 256.346535 
L 350.944256 222.937071 
L 352.059141 237.284806 
L 353.174026 244.218241 
L 354.288911 245.867331 
L 355.403796 250.762712 
L 356.518681 318.909641 
L 357.633566 276.501649 
L 358.748452 242.499021 
L 359.863337 232.74382 
L 360.978222 212.435553 
L 362.093107 224.607116 
L 363.207992 334.555978 
L 364.322877 205.429028 
L 365.437762 276.613789 
L 366.552647 317.412278 
L 367.667532 271.414935 
L 368.782418 302.835918 
L 369.897303 252.241044 
L 371.012188 244.91784 
L 372.127073 195.208992 
L 373.241958 233.898765 
L 374.356843 203.345761 
L 375.471728 219.949319 
L 376.586613 310.446796 
L 377.701499 236.042425 
L 378.816384 281.020351 
L 379.931269 261.542079 
L 381.046154 224.733182 
L 382.161039 272.556179 
L 383.275924 242.699553 
L 384.390809 205.895266 
L 385.505694 220.935715 
L 386.620579 241.203362 
L 387.735465 200.9167 
L 388.85035 332.741165 
L 389.965235 256.253469 
L 391.08012 278.206158 
L 392.195005 342.955332 
L 393.30989 342.13662 
L 394.424775 250.927129 
L 395.53966 291.69708 
L 396.654545 244.679747 
L 397.769431 189.591357 
L 398.884316 208.693836 
L 399.999201 222.793937 
L 402.228971 306.810317 
L 403.343856 251.965062 
L 404.458741 286.682937 
L 405.573626 325.427336 
L 406.688511 290.824777 
L 407.803397 243.156956 
L 408.918282 343.139505 
L 410.033167 335.436518 
L 411.148052 333.915481 
L 412.262937 288.422626 
L 413.377822 311.49917 
L 414.492707 302.487529 
L 415.607592 320.0665 
L 416.722478 223.867921 
L 417.837363 242.571615 
L 418.952248 256.555601 
L 420.067133 249.103126 
L 421.182018 300.688358 
L 422.296903 320.03117 
L 423.411788 333.788724 
L 424.526673 296.347432 
L 425.641558 362.742052 
L 426.756444 361.283587 
L 427.871329 309.54076 
L 428.986214 323.511506 
L 430.101099 235.131916 
L 431.215984 318.903999 
L 432.330869 274.112742 
L 433.445754 304.350007 
L 434.560639 340.807806 
L 435.675524 358.748153 
L 436.79041 279.746843 
L 437.905295 262.773493 
L 439.02018 280.969814 
L 440.135065 218.506625 
L 441.24995 251.298704 
L 442.364835 305.172577 
L 443.47972 244.345797 
L 444.594605 308.580733 
L 445.709491 253.565258 
L 447.939261 258.170089 
L 449.054146 246.598936 
L 450.169031 271.40475 
L 451.283916 352.491912 
L 452.398801 250.591625 
L 453.513686 228.955238 
L 454.628571 292.065501 
L 455.743457 253.009655 
L 456.858342 340.792449 
L 457.973227 342.173293 
L 459.088112 360.606057 
L 460.202997 322.545799 
L 461.317882 325.420155 
L 462.432767 239.387767 
L 463.547652 225.183781 
L 464.662537 251.923661 
L 465.777423 225.474341 
L 466.892308 287.671668 
L 468.007193 277.621661 
L 469.122078 251.534044 
L 470.236963 240.506616 
L 471.351848 308.888802 
L 472.466733 345.498753 
L 473.581618 351.860538 
L 474.696503 339.096444 
L 475.811389 288.565092 
L 476.926274 257.85711 
L 478.041159 273.408437 
L 479.156044 248.647316 
L 480.270929 278.283401 
L 481.385814 322.990517 
L 482.500699 284.712246 
L 483.615584 253.831938 
L 484.73047 278.303528 
L 485.845355 305.68747 
L 486.96024 287.925436 
L 488.075125 333.687077 
L 489.19001 258.478079 
L 490.304895 290.522818 
L 491.41978 231.987579 
L 492.534665 240.296693 
L 493.64955 308.530298 
L 494.764436 270.379857 
L 495.879321 286.944229 
L 496.994206 279.222346 
L 498.109091 326.800589 
L 498.109091 326.800589 
" style="fill:none;stroke:#ff7f0e;stroke-linecap:square;stroke-width:1.5;"/>
   </g>
   <g id="patch_3">
    <path d="M 72 384.48 
L 72 51.84 
" style="fill:none;stroke:#000000;stroke-linecap:square;stroke-linejoin:miter;stroke-width:0.8;"/>
   </g>
   <g id="patch_4">
    <path d="M 518.4 384.48 
L 518.4 51.84 
" style="fill:none;stroke:#000000;stroke-linecap:square;stroke-linejoin:miter;stroke-width:0.8;"/>
   </g>
   <g id="patch_5">
    <path d="M 72 384.48 
L 518.4 384.48 
" style="fill:none;stroke:#000000;stroke-linecap:square;stroke-linejoin:miter;stroke-width:0.8;"/>
   </g>
   <g id="patch_6">
    <path d="M 72 51.84 
L 518.4 51.84 
" style="fill:none;stroke:#000000;stroke-linecap:square;stroke-linejoin:miter;stroke-width:0.8;"/>
   </g>
   <g id="text_19">
    <!-- $O_3$ BETN073 2010: Island DNN (MSE: 1011.92, sMAPE: 49.44%, MASE: 1.88) -->
    <g transform="translate(67.44 45.84)scale(0.12 -0.12)">
     <defs>
      <path d="M 1259 2228 
L 1259 519 
L 2272 519 
Q 2781 519 3026 730 
Q 3272 941 3272 1375 
Q 3272 1813 3026 2020 
Q 2781 2228 2272 2228 
L 1259 2228 
z
M 1259 4147 
L 1259 2741 
L 2194 2741 
Q 2656 2741 2882 2914 
Q 3109 3088 3109 3444 
Q 3109 3797 2882 3972 
Q 2656 4147 2194 4147 
L 1259 4147 
z
M 628 4666 
L 2241 4666 
Q 2963 4666 3353 4366 
Q 3744 4066 3744 3513 
Q 3744 3084 3544 2831 
Q 3344 2578 2956 2516 
Q 3422 2416 3680 2098 
Q 3938 1781 3938 1306 
Q 3938 681 3513 340 
Q 3088 0 2303 0 
L 628 0 
L 628 4666 
z
" id="DejaVuSans-42" transform="scale(0.015625)"/>
      <path d="M 628 4666 
L 3578 4666 
L 3578 4134 
L 1259 4134 
L 1259 2753 
L 3481 2753 
L 3481 2222 
L 1259 2222 
L 1259 531 
L 3634 531 
L 3634 0 
L 628 0 
L 628 4666 
z
" id="DejaVuSans-45" transform="scale(0.015625)"/>
      <path d="M -19 4666 
L 3928 4666 
L 3928 4134 
L 2272 4134 
L 2272 0 
L 1638 0 
L 1638 4134 
L -19 4134 
L -19 4666 
z
" id="DejaVuSans-54" transform="scale(0.015625)"/>
      <path d="M 628 4666 
L 1478 4666 
L 3547 763 
L 3547 4666 
L 4159 4666 
L 4159 0 
L 3309 0 
L 1241 3903 
L 1241 0 
L 628 0 
L 628 4666 
z
" id="DejaVuSans-4e" transform="scale(0.015625)"/>
      <path d="M 750 794 
L 1409 794 
L 1409 0 
L 750 0 
L 750 794 
z
M 750 3309 
L 1409 3309 
L 1409 2516 
L 750 2516 
L 750 3309 
z
" id="DejaVuSans-3a" transform="scale(0.015625)"/>
      <path d="M 628 4666 
L 1259 4666 
L 1259 0 
L 628 0 
L 628 4666 
z
" id="DejaVuSans-49" transform="scale(0.015625)"/>
      <path d="M 2834 3397 
L 2834 2853 
Q 2591 2978 2328 3040 
Q 2066 3103 1784 3103 
Q 1356 3103 1142 2972 
Q 928 2841 928 2578 
Q 928 2378 1081 2264 
Q 1234 2150 1697 2047 
L 1894 2003 
Q 2506 1872 2764 1633 
Q 3022 1394 3022 966 
Q 3022 478 2636 193 
Q 2250 -91 1575 -91 
Q 1294 -91 989 -36 
Q 684 19 347 128 
L 347 722 
Q 666 556 975 473 
Q 1284 391 1588 391 
Q 1994 391 2212 530 
Q 2431 669 2431 922 
Q 2431 1156 2273 1281 
Q 2116 1406 1581 1522 
L 1381 1569 
Q 847 1681 609 1914 
Q 372 2147 372 2553 
Q 372 3047 722 3315 
Q 1072 3584 1716 3584 
Q 2034 3584 2315 3537 
Q 2597 3491 2834 3397 
z
" id="DejaVuSans-73" transform="scale(0.015625)"/>
      <path d="M 603 4863 
L 1178 4863 
L 1178 0 
L 603 0 
L 603 4863 
z
" id="DejaVuSans-6c" transform="scale(0.015625)"/>
      <path d="M 3513 2113 
L 3513 0 
L 2938 0 
L 2938 2094 
Q 2938 2591 2744 2837 
Q 2550 3084 2163 3084 
Q 1697 3084 1428 2787 
Q 1159 2491 1159 1978 
L 1159 0 
L 581 0 
L 581 3500 
L 1159 3500 
L 1159 2956 
Q 1366 3272 1645 3428 
Q 1925 3584 2291 3584 
Q 2894 3584 3203 3211 
Q 3513 2838 3513 2113 
z
" id="DejaVuSans-6e" transform="scale(0.015625)"/>
      <path d="M 2906 2969 
L 2906 4863 
L 3481 4863 
L 3481 0 
L 2906 0 
L 2906 525 
Q 2725 213 2448 61 
Q 2172 -91 1784 -91 
Q 1150 -91 751 415 
Q 353 922 353 1747 
Q 353 2572 751 3078 
Q 1150 3584 1784 3584 
Q 2172 3584 2448 3432 
Q 2725 3281 2906 2969 
z
M 947 1747 
Q 947 1113 1208 752 
Q 1469 391 1925 391 
Q 2381 391 2643 752 
Q 2906 1113 2906 1747 
Q 2906 2381 2643 2742 
Q 2381 3103 1925 3103 
Q 1469 3103 1208 2742 
Q 947 2381 947 1747 
z
" id="DejaVuSans-64" transform="scale(0.015625)"/>
      <path d="M 1984 4856 
Q 1566 4138 1362 3434 
Q 1159 2731 1159 2009 
Q 1159 1288 1364 580 
Q 1569 -128 1984 -844 
L 1484 -844 
Q 1016 -109 783 600 
Q 550 1309 550 2009 
Q 550 2706 781 3412 
Q 1013 4119 1484 4856 
L 1984 4856 
z
" id="DejaVuSans-28" transform="scale(0.015625)"/>
      <path d="M 628 4666 
L 1569 4666 
L 2759 1491 
L 3956 4666 
L 4897 4666 
L 4897 0 
L 4281 0 
L 4281 4097 
L 3078 897 
L 2444 897 
L 1241 4097 
L 1241 0 
L 628 0 
L 628 4666 
z
" id="DejaVuSans-4d" transform="scale(0.015625)"/>
      <path d="M 3425 4513 
L 3425 3897 
Q 3066 4069 2747 4153 
Q 2428 4238 2131 4238 
Q 1616 4238 1336 4038 
Q 1056 3838 1056 3469 
Q 1056 3159 1242 3001 
Q 1428 2844 1947 2747 
L 2328 2669 
Q 3034 2534 3370 2195 
Q 3706 1856 3706 1288 
Q 3706 609 3251 259 
Q 2797 -91 1919 -91 
Q 1588 -91 1214 -16 
Q 841 59 441 206 
L 441 856 
Q 825 641 1194 531 
Q 1563 422 1919 422 
Q 2459 422 2753 634 
Q 3047 847 3047 1241 
Q 3047 1584 2836 1778 
Q 2625 1972 2144 2069 
L 1759 2144 
Q 1053 2284 737 2584 
Q 422 2884 422 3419 
Q 422 4038 858 4394 
Q 1294 4750 2059 4750 
Q 2388 4750 2728 4690 
Q 3069 4631 3425 4513 
z
" id="DejaVuSans-53" transform="scale(0.015625)"/>
      <path d="M 684 794 
L 1344 794 
L 1344 0 
L 684 0 
L 684 794 
z
" id="DejaVuSans-2e" transform="scale(0.015625)"/>
      <path d="M 703 97 
L 703 672 
Q 941 559 1184 500 
Q 1428 441 1663 441 
Q 2288 441 2617 861 
Q 2947 1281 2994 2138 
Q 2813 1869 2534 1725 
Q 2256 1581 1919 1581 
Q 1219 1581 811 2004 
Q 403 2428 403 3163 
Q 403 3881 828 4315 
Q 1253 4750 1959 4750 
Q 2769 4750 3195 4129 
Q 3622 3509 3622 2328 
Q 3622 1225 3098 567 
Q 2575 -91 1691 -91 
Q 1453 -91 1209 -44 
Q 966 3 703 97 
z
M 1959 2075 
Q 2384 2075 2632 2365 
Q 2881 2656 2881 3163 
Q 2881 3666 2632 3958 
Q 2384 4250 1959 4250 
Q 1534 4250 1286 3958 
Q 1038 3666 1038 3163 
Q 1038 2656 1286 2365 
Q 1534 2075 1959 2075 
z
" id="DejaVuSans-39" transform="scale(0.015625)"/>
      <path d="M 750 794 
L 1409 794 
L 1409 256 
L 897 -744 
L 494 -744 
L 750 256 
L 750 794 
z
" id="DejaVuSans-2c" transform="scale(0.015625)"/>
      <path d="M 2188 4044 
L 1331 1722 
L 3047 1722 
L 2188 4044 
z
M 1831 4666 
L 2547 4666 
L 4325 0 
L 3669 0 
L 3244 1197 
L 1141 1197 
L 716 0 
L 50 0 
L 1831 4666 
z
" id="DejaVuSans-41" transform="scale(0.015625)"/>
      <path d="M 1259 4147 
L 1259 2394 
L 2053 2394 
Q 2494 2394 2734 2622 
Q 2975 2850 2975 3272 
Q 2975 3691 2734 3919 
Q 2494 4147 2053 4147 
L 1259 4147 
z
M 628 4666 
L 2053 4666 
Q 2838 4666 3239 4311 
Q 3641 3956 3641 3272 
Q 3641 2581 3239 2228 
Q 2838 1875 2053 1875 
L 1259 1875 
L 1259 0 
L 628 0 
L 628 4666 
z
" id="DejaVuSans-50" transform="scale(0.015625)"/>
      <path d="M 2419 4116 
L 825 1625 
L 2419 1625 
L 2419 4116 
z
M 2253 4666 
L 3047 4666 
L 3047 1625 
L 3713 1625 
L 3713 1100 
L 3047 1100 
L 3047 0 
L 2419 0 
L 2419 1100 
L 313 1100 
L 313 1709 
L 2253 4666 
z
" id="DejaVuSans-34" transform="scale(0.015625)"/>
      <path d="M 4653 2053 
Q 4381 2053 4226 1822 
Q 4072 1591 4072 1178 
Q 4072 772 4226 539 
Q 4381 306 4653 306 
Q 4919 306 5073 539 
Q 5228 772 5228 1178 
Q 5228 1588 5073 1820 
Q 4919 2053 4653 2053 
z
M 4653 2450 
Q 5147 2450 5437 2106 
Q 5728 1763 5728 1178 
Q 5728 594 5436 251 
Q 5144 -91 4653 -91 
Q 4153 -91 3862 251 
Q 3572 594 3572 1178 
Q 3572 1766 3864 2108 
Q 4156 2450 4653 2450 
z
M 1428 4353 
Q 1159 4353 1004 4120 
Q 850 3888 850 3481 
Q 850 3069 1003 2837 
Q 1156 2606 1428 2606 
Q 1700 2606 1854 2837 
Q 2009 3069 2009 3481 
Q 2009 3884 1853 4118 
Q 1697 4353 1428 4353 
z
M 4250 4750 
L 4750 4750 
L 1831 -91 
L 1331 -91 
L 4250 4750 
z
M 1428 4750 
Q 1922 4750 2215 4408 
Q 2509 4066 2509 3481 
Q 2509 2891 2217 2550 
Q 1925 2209 1428 2209 
Q 931 2209 642 2551 
Q 353 2894 353 3481 
Q 353 4063 643 4406 
Q 934 4750 1428 4750 
z
" id="DejaVuSans-25" transform="scale(0.015625)"/>
      <path d="M 513 4856 
L 1013 4856 
Q 1481 4119 1714 3412 
Q 1947 2706 1947 2009 
Q 1947 1309 1714 600 
Q 1481 -109 1013 -844 
L 513 -844 
Q 928 -128 1133 580 
Q 1338 1288 1338 2009 
Q 1338 2731 1133 3434 
Q 928 4138 513 4856 
z
" id="DejaVuSans-29" transform="scale(0.015625)"/>
     </defs>
     <use transform="translate(0 0.015625)" xlink:href="#DejaVuSans-Oblique-4f"/>
     <use transform="translate(78.710938 -16.390625)scale(0.7)" xlink:href="#DejaVuSans-33"/>
     <use transform="translate(125.981445 0.015625)" xlink:href="#DejaVuSans-20"/>
     <use transform="translate(157.768555 0.015625)" xlink:href="#DejaVuSans-42"/>
     <use transform="translate(226.37207 0.015625)" xlink:href="#DejaVuSans-45"/>
     <use transform="translate(289.555664 0.015625)" xlink:href="#DejaVuSans-54"/>
     <use transform="translate(350.639648 0.015625)" xlink:href="#DejaVuSans-4e"/>
     <use transform="translate(425.444336 0.015625)" xlink:href="#DejaVuSans-30"/>
     <use transform="translate(489.067383 0.015625)" xlink:href="#DejaVuSans-37"/>
     <use transform="translate(552.69043 0.015625)" xlink:href="#DejaVuSans-33"/>
     <use transform="translate(616.313477 0.015625)" xlink:href="#DejaVuSans-20"/>
     <use transform="translate(648.100586 0.015625)" xlink:href="#DejaVuSans-32"/>
     <use transform="translate(711.723633 0.015625)" xlink:href="#DejaVuSans-30"/>
     <use transform="translate(775.34668 0.015625)" xlink:href="#DejaVuSans-31"/>
     <use transform="translate(838.969727 0.015625)" xlink:href="#DejaVuSans-30"/>
     <use transform="translate(902.592773 0.015625)" xlink:href="#DejaVuSans-3a"/>
     <use transform="translate(936.28418 0.015625)" xlink:href="#DejaVuSans-20"/>
     <use transform="translate(968.071289 0.015625)" xlink:href="#DejaVuSans-49"/>
     <use transform="translate(997.563477 0.015625)" xlink:href="#DejaVuSans-73"/>
     <use transform="translate(1049.663086 0.015625)" xlink:href="#DejaVuSans-6c"/>
     <use transform="translate(1077.446289 0.015625)" xlink:href="#DejaVuSans-61"/>
     <use transform="translate(1138.725586 0.015625)" xlink:href="#DejaVuSans-6e"/>
     <use transform="translate(1202.104492 0.015625)" xlink:href="#DejaVuSans-64"/>
     <use transform="translate(1265.581055 0.015625)" xlink:href="#DejaVuSans-20"/>
     <use transform="translate(1297.368164 0.015625)" xlink:href="#DejaVuSans-44"/>
     <use transform="translate(1374.370117 0.015625)" xlink:href="#DejaVuSans-4e"/>
     <use transform="translate(1449.174805 0.015625)" xlink:href="#DejaVuSans-4e"/>
     <use transform="translate(1523.979492 0.015625)" xlink:href="#DejaVuSans-20"/>
     <use transform="translate(1555.766602 0.015625)" xlink:href="#DejaVuSans-28"/>
     <use transform="translate(1594.780273 0.015625)" xlink:href="#DejaVuSans-4d"/>
     <use transform="translate(1681.05957 0.015625)" xlink:href="#DejaVuSans-53"/>
     <use transform="translate(1744.536133 0.015625)" xlink:href="#DejaVuSans-45"/>
     <use transform="translate(1807.719727 0.015625)" xlink:href="#DejaVuSans-3a"/>
     <use transform="translate(1841.411133 0.015625)" xlink:href="#DejaVuSans-20"/>
     <use transform="translate(1873.198242 0.015625)" xlink:href="#DejaVuSans-31"/>
     <use transform="translate(1936.821289 0.015625)" xlink:href="#DejaVuSans-30"/>
     <use transform="translate(2000.444336 0.015625)" xlink:href="#DejaVuSans-31"/>
     <use transform="translate(2064.067383 0.015625)" xlink:href="#DejaVuSans-31"/>
     <use transform="translate(2127.69043 0.015625)" xlink:href="#DejaVuSans-2e"/>
     <use transform="translate(2159.477539 0.015625)" xlink:href="#DejaVuSans-39"/>
     <use transform="translate(2221.350586 0.015625)" xlink:href="#DejaVuSans-32"/>
     <use transform="translate(2284.973633 0.015625)" xlink:href="#DejaVuSans-2c"/>
     <use transform="translate(2316.760742 0.015625)" xlink:href="#DejaVuSans-20"/>
     <use transform="translate(2348.547852 0.015625)" xlink:href="#DejaVuSans-73"/>
     <use transform="translate(2400.647461 0.015625)" xlink:href="#DejaVuSans-4d"/>
     <use transform="translate(2486.926758 0.015625)" xlink:href="#DejaVuSans-41"/>
     <use transform="translate(2555.334961 0.015625)" xlink:href="#DejaVuSans-50"/>
     <use transform="translate(2615.637695 0.015625)" xlink:href="#DejaVuSans-45"/>
     <use transform="translate(2678.821289 0.015625)" xlink:href="#DejaVuSans-3a"/>
     <use transform="translate(2712.512695 0.015625)" xlink:href="#DejaVuSans-20"/>
     <use transform="translate(2744.299805 0.015625)" xlink:href="#DejaVuSans-34"/>
     <use transform="translate(2807.922852 0.015625)" xlink:href="#DejaVuSans-39"/>
     <use transform="translate(2871.545898 0.015625)" xlink:href="#DejaVuSans-2e"/>
     <use transform="translate(2903.333008 0.015625)" xlink:href="#DejaVuSans-34"/>
     <use transform="translate(2966.956055 0.015625)" xlink:href="#DejaVuSans-34"/>
     <use transform="translate(3030.579102 0.015625)" xlink:href="#DejaVuSans-25"/>
     <use transform="translate(3125.598633 0.015625)" xlink:href="#DejaVuSans-2c"/>
     <use transform="translate(3157.385742 0.015625)" xlink:href="#DejaVuSans-20"/>
     <use transform="translate(3189.172852 0.015625)" xlink:href="#DejaVuSans-4d"/>
     <use transform="translate(3275.452148 0.015625)" xlink:href="#DejaVuSans-41"/>
     <use transform="translate(3343.860352 0.015625)" xlink:href="#DejaVuSans-53"/>
     <use transform="translate(3407.336914 0.015625)" xlink:href="#DejaVuSans-45"/>
     <use transform="translate(3470.520508 0.015625)" xlink:href="#DejaVuSans-3a"/>
     <use transform="translate(3504.211914 0.015625)" xlink:href="#DejaVuSans-20"/>
     <use transform="translate(3535.999023 0.015625)" xlink:href="#DejaVuSans-31"/>
     <use transform="translate(3599.62207 0.015625)" xlink:href="#DejaVuSans-2e"/>
     <use transform="translate(3628.78418 0.015625)" xlink:href="#DejaVuSans-38"/>
     <use transform="translate(3692.407227 0.015625)" xlink:href="#DejaVuSans-38"/>
     <use transform="translate(3756.030273 0.015625)" xlink:href="#DejaVuSans-29"/>
    </g>
   </g>
   <g id="legend_1">
    <g id="patch_7">
     <path d="M 431.965625 89.19625 
L 511.4 89.19625 
Q 513.4 89.19625 513.4 87.19625 
L 513.4 58.84 
Q 513.4 56.84 511.4 56.84 
L 431.965625 56.84 
Q 429.965625 56.84 429.965625 58.84 
L 429.965625 87.19625 
Q 429.965625 89.19625 431.965625 89.19625 
z
" style="fill:#ffffff;opacity:0.8;stroke:#cccccc;stroke-linejoin:miter;"/>
    </g>
    <g id="line2d_35">
     <path d="M 433.965625 64.938437 
L 453.965625 64.938437 
" style="fill:none;stroke:#1f77b4;stroke-linecap:square;stroke-width:1.5;"/>
    </g>
    <g id="line2d_36"/>
    <g id="text_20">
     <!-- expected -->
     <g transform="translate(461.965625 68.438437)scale(0.1 -0.1)">
      <defs>
       <path d="M 3597 1894 
L 3597 1613 
L 953 1613 
Q 991 1019 1311 708 
Q 1631 397 2203 397 
Q 2534 397 2845 478 
Q 3156 559 3463 722 
L 3463 178 
Q 3153 47 2828 -22 
Q 2503 -91 2169 -91 
Q 1331 -91 842 396 
Q 353 884 353 1716 
Q 353 2575 817 3079 
Q 1281 3584 2069 3584 
Q 2775 3584 3186 3129 
Q 3597 2675 3597 1894 
z
M 3022 2063 
Q 3016 2534 2758 2815 
Q 2500 3097 2075 3097 
Q 1594 3097 1305 2825 
Q 1016 2553 972 2059 
L 3022 2063 
z
" id="DejaVuSans-65" transform="scale(0.015625)"/>
       <path d="M 1159 525 
L 1159 -1331 
L 581 -1331 
L 581 3500 
L 1159 3500 
L 1159 2969 
Q 1341 3281 1617 3432 
Q 1894 3584 2278 3584 
Q 2916 3584 3314 3078 
Q 3713 2572 3713 1747 
Q 3713 922 3314 415 
Q 2916 -91 2278 -91 
Q 1894 -91 1617 61 
Q 1341 213 1159 525 
z
M 3116 1747 
Q 3116 2381 2855 2742 
Q 2594 3103 2138 3103 
Q 1681 3103 1420 2742 
Q 1159 2381 1159 1747 
Q 1159 1113 1420 752 
Q 1681 391 2138 391 
Q 2594 391 2855 752 
Q 3116 1113 3116 1747 
z
" id="DejaVuSans-70" transform="scale(0.015625)"/>
       <path d="M 3122 3366 
L 3122 2828 
Q 2878 2963 2633 3030 
Q 2388 3097 2138 3097 
Q 1578 3097 1268 2742 
Q 959 2388 959 1747 
Q 959 1106 1268 751 
Q 1578 397 2138 397 
Q 2388 397 2633 464 
Q 2878 531 3122 666 
L 3122 134 
Q 2881 22 2623 -34 
Q 2366 -91 2075 -91 
Q 1284 -91 818 406 
Q 353 903 353 1747 
Q 353 2603 823 3093 
Q 1294 3584 2113 3584 
Q 2378 3584 2631 3529 
Q 2884 3475 3122 3366 
z
" id="DejaVuSans-63" transform="scale(0.015625)"/>
       <path d="M 1172 4494 
L 1172 3500 
L 2356 3500 
L 2356 3053 
L 1172 3053 
L 1172 1153 
Q 1172 725 1289 603 
Q 1406 481 1766 481 
L 2356 481 
L 2356 0 
L 1766 0 
Q 1100 0 847 248 
Q 594 497 594 1153 
L 594 3053 
L 172 3053 
L 172 3500 
L 594 3500 
L 594 4494 
L 1172 4494 
z
" id="DejaVuSans-74" transform="scale(0.015625)"/>
      </defs>
      <use xlink:href="#DejaVuSans-65"/>
      <use x="59.773438" xlink:href="#DejaVuSans-78"/>
      <use x="118.953125" xlink:href="#DejaVuSans-70"/>
      <use x="182.429688" xlink:href="#DejaVuSans-65"/>
      <use x="243.953125" xlink:href="#DejaVuSans-63"/>
      <use x="298.933594" xlink:href="#DejaVuSans-74"/>
      <use x="338.142578" xlink:href="#DejaVuSans-65"/>
      <use x="399.666016" xlink:href="#DejaVuSans-64"/>
     </g>
    </g>
    <g id="line2d_37">
     <path d="M 433.965625 79.616562 
L 453.965625 79.616562 
" style="fill:none;stroke:#ff7f0e;stroke-linecap:square;stroke-width:1.5;"/>
    </g>
    <g id="line2d_38"/>
    <g id="text_21">
     <!-- predicted -->
     <g transform="translate(461.965625 83.116562)scale(0.1 -0.1)">
      <defs>
       <path d="M 2631 2963 
Q 2534 3019 2420 3045 
Q 2306 3072 2169 3072 
Q 1681 3072 1420 2755 
Q 1159 2438 1159 1844 
L 1159 0 
L 581 0 
L 581 3500 
L 1159 3500 
L 1159 2956 
Q 1341 3275 1631 3429 
Q 1922 3584 2338 3584 
Q 2397 3584 2469 3576 
Q 2541 3569 2628 3553 
L 2631 2963 
z
" id="DejaVuSans-72" transform="scale(0.015625)"/>
       <path d="M 603 3500 
L 1178 3500 
L 1178 0 
L 603 0 
L 603 3500 
z
M 603 4863 
L 1178 4863 
L 1178 4134 
L 603 4134 
L 603 4863 
z
" id="DejaVuSans-69" transform="scale(0.015625)"/>
      </defs>
      <use xlink:href="#DejaVuSans-70"/>
      <use x="63.476562" xlink:href="#DejaVuSans-72"/>
      <use x="102.339844" xlink:href="#DejaVuSans-65"/>
      <use x="163.863281" xlink:href="#DejaVuSans-64"/>
      <use x="227.339844" xlink:href="#DejaVuSans-69"/>
      <use x="255.123047" xlink:href="#DejaVuSans-63"/>
      <use x="310.103516" xlink:href="#DejaVuSans-74"/>
      <use x="349.3125" xlink:href="#DejaVuSans-65"/>
      <use x="410.835938" xlink:href="#DejaVuSans-64"/>
     </g>
    </g>
   </g>
  </g>
 </g>
 <defs>
  <clipPath id="p98b2cd14ad">
   <rect height="332.64" width="446.4" x="72" y="51.84"/>
  </clipPath>
 </defs>
</svg>
